mtllib ./Road1_0_32.mtl
g RoadCut9
v -114.648 0.03 247.8743
v -114.648 0.03 247.8743
v -117.9497 0.03 259.4111
v -117.9497 0.03 259.4111
v -109.6823 0.03 249.4271
v -109.6823 0.03 249.4271
v -113.342 0.03 260.8554
v -113.342 0.03 260.8554
v -105.0029 0.03 250.8372
v -105.0029 0.03 250.8372
v -108.313 0.03 262.3716
v -108.313 0.03 262.3716
v -100.1573 0.03 252.2021
v -100.1573 0.03 252.2021
v -103.4089 0.03 263.7532
v -103.4089 0.03 263.7532
v -95.1557 0.03 253.6682
v -95.1557 0.03 253.6682
v -98.72668 0.03 265.1245
v -98.72668 0.03 265.1245
v -89.94616 0.03 255.4901
v -89.94616 0.03 255.4901
v -94.40403 0.03 266.6313
v -94.40403 0.03 266.6313
v -84.53368 0.03 258.1472
v -84.53368 0.03 258.1472
v -90.79435 0.03 268.3846
v -90.79435 0.03 268.3846
v -79.20895 0.03 262.6356
v -79.20895 0.03 262.6356
v -88.4095 0.03 270.3395
v -88.4095 0.03 270.3395
v -75.70048 0.03 269.4055
v -75.70048 0.03 269.4055
v -87.29818 0.03 272.4867
v -87.29818 0.03 272.4867
v -75.10104 0.03 276.3827
v -75.10104 0.03 276.3827
v -87.07327 0.03 275.5668
v -87.07327 0.03 275.5668
v -76.12498 0.03 282.4149
v -76.12498 0.03 282.4149
v -87.73945 0.03 279.3977
v -87.73945 0.03 279.3977
v -77.88334 0.03 287.8364
v -77.88334 0.03 287.8364
v -89.09141 0.03 283.5493
v -89.09141 0.03 283.5493

vn 0 1 0
vn 0 0 0
vn 0 1 0
vn 0 0 0
vn 0 1 0
vn 0 0 0
vn 0 1 0
vn 0 0 0
vn 0 1 0
vn 0 0 0
vn 0 1 0
vn 0 0 0
vn 0 1 0
vn 0 0 0
vn 0 0.9999999 0
vn 0 0 0
vn 0 0.9999999 0
vn 0 0 0
vn 0 1 0
vn 0 0 0
vn 0 0.9999999 0
vn 0 0 0
vn 0 0.9999999 0
vn 0 0 0
vn -9.40782E-11 1 -5.753357E-11
vn 0 0 0
vn -2.002287E-10 1 -1.725505E-10
vn 0 0 0
vn -1.604438E-10 1 -1.382652E-10
vn 0 0 0
vn -9.317887E-11 1 -1.112806E-10
vn 0 0 0
vn 2.863667E-11 0.9999999 1.07792E-10
vn 0 0 0
vn 2.855014E-11 1 2.970711E-10
vn 0 0 0
vn 2.191675E-11 1 2.280491E-10
vn 0 0 0
vn -9.726425E-12 1 1.42719E-10
vn 0 0 0
vn 0 1 0
vn 0 0 0
vn 0 1 0
vn 0 0 0
vn 0 1 0
vn 0 0 0
vn 0 1 0
vn 0 0 0

vt 0 0
vt 0 0
vt 0.6603394 2.30737
vt 0.6603394 2.30737
vt -0.9931427 0.3105713
vt -0.9931427 0.3105713
vt -0.2611938 2.596231
vt -0.2611938 2.596231
vt -1.929018 0.5925781
vt -1.929018 0.5925781
vt -1.267003 2.899466
vt -1.267003 2.899466
vt -2.898134 0.8655731
vt -2.898134 0.8655731
vt -2.247829 3.175791
vt -2.247829 3.175791
vt -3.898463 1.15878
vt -3.898463 1.15878
vt -3.184267 3.450052
vt -3.184267 3.450052
vt -4.940372 1.52316
vt -4.940372 1.52316
vt -4.048798 3.751407
vt -4.048798 3.751407
vt -6.022867 2.054593
vt -6.022867 2.054593
vt -4.770734 4.102066
vt -4.770734 4.102066
vt -7.087813 2.952261
vt -7.087813 2.952261
vt -5.247704 4.493045
vt -5.247704 4.493045
vt -7.789508 4.306253
vt -7.789508 4.306253
vt -5.469968 4.922476
vt -5.469968 4.922476
vt -7.909397 5.701682
vt -7.909397 5.701682
vt -5.514951 5.538498
vt -5.514951 5.538498
vt -7.704608 6.908133
vt -7.704608 6.908133
vt -5.381714 6.304678
vt -5.381714 6.304678
vt -7.352936 7.992429
vt -7.352936 7.992429
vt -5.111322 7.135007
vt -5.111322 7.135007

usemtl GSDRoad1
usemap GSDRoad1
f 5/5/5 1/1/1 3/3/3
f 7/7/7 5/5/5 3/3/3
f 9/9/9 5/5/5 7/7/7
f 11/11/11 9/9/9 7/7/7
f 13/13/13 9/9/9 11/11/11
f 15/15/15 13/13/13 11/11/11
f 17/17/17 13/13/13 15/15/15
f 19/19/19 17/17/17 15/15/15
f 21/21/21 17/17/17 19/19/19
f 23/23/23 21/21/21 19/19/19
f 25/25/25 21/21/21 23/23/23
f 27/27/27 25/25/25 23/23/23
f 29/29/29 25/25/25 27/27/27
f 31/31/31 29/29/29 27/27/27
f 33/33/33 29/29/29 31/31/31
f 35/35/35 33/33/33 31/31/31
f 37/37/37 33/33/33 35/35/35
f 39/39/39 37/37/37 35/35/35
f 41/41/41 37/37/37 39/39/39
f 43/43/43 41/41/41 39/39/39
f 45/45/45 41/41/41 43/43/43
f 47/47/47 45/45/45 43/43/43
