mtllib ./Road1_0_67.mtl
g SCutR15
v -37.66735 0.03 232.2382
v -37.66735 0.03 232.2382
v -34.72863 0.03 231.6349
v -34.72863 0.03 231.6349
v -34.72863 0.03 231.6349
v -34.72863 0.03 231.6349
v -32.52458 -0.35 231.1825
v -32.52458 -0.35 231.1825
v -38.26569 0.03 227.9209
v -38.26569 0.03 227.9209
v -35.27893 0.03 227.6393
v -35.27893 0.03 227.6393
v -35.27893 0.03 227.6393
v -35.27893 0.03 227.6393
v -33.03886 -0.35 227.4282
v -33.03886 -0.35 227.4282
v -38.58241 0.03 223.2021
v -38.58241 0.03 223.2021
v -35.58515 0.03 223.0739
v -35.58515 0.03 223.0739
v -35.58515 0.03 223.0739
v -35.58515 0.03 223.0739
v -33.3372 -0.35 222.9778
v -33.3372 -0.35 222.9778
v -38.69091 0.03 218.4206
v -38.69091 0.03 218.4206
v -35.69094 0.03 218.4069
v -35.69094 0.03 218.4069
v -35.69094 0.03 218.4069
v -35.69094 0.03 218.4069
v -33.44096 -0.35 218.3967
v -33.44096 -0.35 218.3967
v -38.64019 0.03 213.5795
v -38.64019 0.03 213.5795
v -35.64106 0.03 213.6517
v -35.64106 0.03 213.6517
v -35.64106 0.03 213.6517
v -35.64106 0.03 213.6517
v -33.39171 -0.35 213.7058
v -33.39171 -0.35 213.7058
v -38.46631 0.03 208.6566
v -38.46631 0.03 208.6566
v -35.46939 0.03 208.7927
v -35.46939 0.03 208.7927
v -35.46939 0.03 208.7927
v -35.46939 0.03 208.7927
v -33.22171 -0.35 208.8948
v -33.22171 -0.35 208.8948
v -38.20101 0.03 203.6962
v -38.20101 0.03 203.6962
v -35.2065 0.03 203.8777
v -35.2065 0.03 203.8777
v -35.2065 0.03 203.8777
v -35.2065 0.03 203.8777
v -32.96062 -0.35 204.0137
v -32.96062 -0.35 204.0137
v -37.87424 0.03 198.7378
v -37.87424 0.03 198.7378
v -34.88165 0.03 198.9484
v -34.88165 0.03 198.9484
v -34.88165 0.03 198.9484
v -34.88165 0.03 198.9484
v -32.6372 -0.35 199.1063
v -32.6372 -0.35 199.1063
v -37.50744 0.03 193.7309
v -37.50744 0.03 193.7309
v -34.51592 0.03 193.9563
v -34.51592 0.03 193.9563
v -34.51592 0.03 193.9563
v -34.51592 0.03 193.9563
v -32.27228 -0.35 194.1254
v -32.27228 -0.35 194.1254
v -37.12616 0.03 188.706
v -37.12616 0.03 188.706
v -34.1347 0.03 188.9322
v -34.1347 0.03 188.9322
v -34.1347 0.03 188.9322
v -34.1347 0.03 188.9322
v -31.89111 -0.35 189.1018
v -31.89111 -0.35 189.1018
v -36.75631 0.03 183.6924
v -36.75631 0.03 183.6924
v -33.76386 0.03 183.9052
v -33.76386 0.03 183.9052
v -33.76386 0.03 183.9052
v -33.76386 0.03 183.9052
v -31.51953 -0.35 184.0648
v -31.51953 -0.35 184.0648
v -36.41892 0.03 178.6343
v -36.41892 0.03 178.6343
v -33.42456 0.03 178.8181
v -33.42456 0.03 178.8181
v -33.42456 0.03 178.8181
v -33.42456 0.03 178.8181
v -31.17878 -0.35 178.9559
v -31.17878 -0.35 178.9559
v -36.14098 0.03 173.4804
v -36.14098 0.03 173.4804
v -33.14407 0.03 173.6164
v -33.14407 0.03 173.6164
v -33.14407 0.03 173.6164
v -33.14407 0.03 173.6164
v -30.89638 -0.35 173.7184
v -30.89638 -0.35 173.7184
v -35.96272 0.03 168.2687
v -35.96272 0.03 168.2687
v -32.96342 0.03 168.3336
v -32.96342 0.03 168.3336
v -32.96342 0.03 168.3336
v -32.96342 0.03 168.3336
v -30.71395 -0.35 168.3822
v -30.71395 -0.35 168.3822
v -35.93253 0.03 163.0402
v -35.93253 0.03 163.0402
v -32.93274 0.03 163.0043
v -32.93274 0.03 163.0043
v -32.93274 0.03 163.0043
v -32.93274 0.03 163.0043
v -30.6829 -0.35 162.9774
v -30.6829 -0.35 162.9774
v -36.11813 0.03 157.689
v -36.11813 0.03 157.689
v -33.12354 0.03 157.5088
v -33.12354 0.03 157.5088
v -33.12354 0.03 157.5088
v -33.12354 0.03 157.5088
v -30.87761 -0.35 157.3737
v -30.87761 -0.35 157.3737
v -36.6203 0.03 152.28
v -36.6203 0.03 152.28
v -33.64526 0.03 151.8939
v -33.64526 0.03 151.8939
v -33.64526 0.03 151.8939
v -33.64526 0.03 151.8939
v -31.41398 -0.35 151.6042
v -31.41398 -0.35 151.6042
v -37.61066 0.03 146.7496
v -37.61066 0.03 146.7496
v -34.6908 0.03 146.0608
v -34.6908 0.03 146.0608
v -34.6908 0.03 146.0608
v -34.6908 0.03 146.0608
v -32.5009 -0.35 145.5442
v -32.5009 -0.35 145.5442

vn 8.611101E-11 1 4.195055E-10
vn 0 0 0
vn 6.556085E-11 0.9999999 4.390764E-10
vn 0 0 0
vn 0.1653187 0.9859774 -0.02276916
vn 0 0 0
vn 0.1652283 0.9859941 -0.02269711
vn 0 0 0
vn 2.857554E-11 1 1.39211E-10
vn 0 0 0
vn -5.967886E-12 1 -1.395883E-10
vn 0 0 0
vn 0.1655957 0.9860214 -0.01843224
vn 0 0 0
vn 0.1658944 0.9860364 -0.01453456
vn 0 0 0
vn -1.806079E-11 0.9999999 -2.638042E-10
vn 0 0 0
vn -5.673455E-12 1 -1.327016E-10
vn 0 0 0
vn 0.1663171 0.9860345 -0.008634352
vn 0 0 0
vn 0.1664167 0.9860362 -0.006170138
vn 0 0 0
vn 5.940259E-13 1 1.303448E-10
vn 0 0 0
vn -2.547271E-12 1 2.611413E-10
vn 0 0 0
vn 0.1665255 0.9860353 -0.00189883
vn 0 0 0
vn 0.1665308 0.9860362 -5.493343E-05
vn 0 0 0
vn 5.845563E-13 1 1.282669E-10
vn 0 0 0
vn 5.811079E-12 1 -1.279517E-10
vn 0 0 0
vn 0.1665038 0.9860358 0.003152011
vn 0 0 0
vn 0.1664688 0.9860362 0.004531483
vn 0 0 0
vn 8.765216E-12 1 -2.523149E-10
vn 0 0 0
vn 5.728895E-12 1 -1.261421E-10
vn 0 0 0
vn 0.1663895 0.9860361 0.006896955
vn 0 0 0
vn 0.1663429 0.9860363 0.007902969
vn 0 0 0
vn -7.581195E-12 1 1.2513E-10
vn 0 0 0
vn -1.641242E-11 0.9999999 2.506427E-10
vn 0 0 0
vn 0.1662557 0.9860361 0.009583773
vn 0 0 0
vn 0.1662135 0.9860363 0.01026986
vn 0 0 0
vn -7.545212E-12 1 1.245361E-10
vn 0 0 0
vn 9.351991E-12 1 -1.241101E-10
vn 0 0 0
vn 0.1661432 0.9860362 0.01136102
vn 0 0 0
vn 0.1661142 0.9860363 0.01176686
vn 0 0 0
vn 8.680225E-12 1 -1.233349E-10
vn 0 0 0
vn -9.311578E-12 1 1.231378E-10
vn 0 0 0
vn 0.1660749 0.9860363 0.01231246
vn 0 0 0
vn 0.1660639 0.9860362 0.01245647
vn 0 0 0
vn -9.265578E-12 1 1.229633E-10
vn 0 0 0
vn 8.746207E-12 1 -1.229919E-10
vn 0 0 0
vn 0.1660618 0.9860364 0.01248356
vn 0 0 0
vn 0.1660708 0.9860364 0.01236753
vn 0 0 0
vn 1.800702E-11 1 -2.454435E-10
vn 0 0 0
vn 8.687538E-12 1 -1.221669E-10
vn 0 0 0
vn 0.1661077 0.9860363 0.01185934
vn 0 0 0
vn 0.1661357 0.9860362 0.01146927
vn 0 0 0
vn 0 1 0
vn 0 0 0
vn 0 1 0
vn 0 0 0
vn 0.1662072 0.9860363 0.01036834
vn 0 0 0
vn 0.1662512 0.9860361 0.009662418
vn 0 0 0
vn 5.416977E-12 1 -1.193948E-10
vn 0 0 0
vn 7.938447E-12 1 -2.369943E-10
vn 0 0 0
vn 0.1663444 0.9860363 0.007866963
vn 0 0 0
vn 0.1663954 0.9860359 0.006773591
vn 0 0 0
vn 2.806407E-12 0.9999999 9.396856E-14
vn 0 0 0
vn 2.691111E-13 0.9999999 3.526851E-10
vn 0 0 0
vn 0.1664796 0.9860364 0.004110348
vn 0 0 0
vn 0.1665163 0.9860354 0.00252989
vn 0 0 0
vn -5.064032E-12 1 2.341007E-10
vn 0 0 0
vn -1.383037E-11 1 -2.29846E-10
vn 0 0 0
vn 0.1665251 0.9860363 -0.001324436
vn 0 0 0
vn 0.1665031 0.9860344 -0.003576059
vn 0 0 0
vn -9.60871E-12 0.9999999 -3.430299E-10
vn 0 0 0
vn 7.72188E-12 1 -7.326318E-13
vn 0 0 0
vn 0.1662853 0.9860363 -0.009025794
vn 0 0 0
vn 0.1661014 0.9860325 -0.01224923
vn 0 0 0
vn 2.108582E-11 1 2.222513E-10
vn 0 0 0
vn 1.396855E-11 0.9999999 1.076134E-10
vn 0 0 0
vn 0.1652988 0.9860367 -0.02019617
vn 0 0 0
vn 0.1647127 0.9860276 -0.02488824
vn 0 0 0
vn 0 1 0
vn 0 0 0
vn 0 1 0
vn 0 0 0
vn 0.1641269 0.9860002 -0.02942825
vn 0 0 0
vn 0.164149 0.9859961 -0.02944161
vn 0 0 0

vt 0 0
vt 0 0
vt -0.5877449 -0.1206451
vt -0.5877449 -0.1206451
vt -0.5877449 -0.1206451
vt -0.5877449 -0.1206451
vt -1.028554 -0.2111328
vt -1.028554 -0.2111328
vt 0.1196686 -0.8634552
vt 0.1196686 -0.8634552
vt -0.4776833 -0.9197632
vt -0.4776833 -0.9197632
vt -0.4776833 -0.9197632
vt -0.4776833 -0.9197632
vt -0.9256973 -0.9619965
vt -0.9256973 -0.9619965
vt 0.1830116 -1.80722
vt 0.1830116 -1.80722
vt -0.4164406 -1.832849
vt -0.4164406 -1.832849
vt -0.4164406 -1.832849
vt -0.4164406 -1.832849
vt -0.8660302 -1.852069
vt -0.8660302 -1.852069
vt 0.2047112 -2.763516
vt 0.2047112 -2.763516
vt -0.395282 -2.766251
vt -0.395282 -2.766251
vt -0.395282 -2.766251
vt -0.395282 -2.766251
vt -0.8452774 -2.768301
vt -0.8452774 -2.768301
vt 0.1945679 -3.731732
vt 0.1945679 -3.731732
vt -0.4052582 -3.717294
vt -0.4052582 -3.717294
vt -0.4052582 -3.717294
vt -0.4052582 -3.717294
vt -0.8551285 -3.706464
vt -0.8551285 -3.706464
vt 0.1597916 -4.716309
vt 0.1597916 -4.716309
vt -0.4395912 -4.689087
vt -0.4395912 -4.689087
vt -0.4395912 -4.689087
vt -0.4395912 -4.689087
vt -0.8891281 -4.668671
vt -0.8891281 -4.668671
vt 0.1067314 -5.708386
vt 0.1067314 -5.708386
vt -0.4921707 -5.672101
vt -0.4921707 -5.672101
vt -0.4921707 -5.672101
vt -0.4921707 -5.672101
vt -0.9413468 -5.644886
vt -0.9413468 -5.644886
vt 0.04137878 -6.700077
vt 0.04137878 -6.700077
vt -0.5571411 -6.657953
vt -0.5571411 -6.657953
vt -0.5571411 -6.657953
vt -0.5571411 -6.657953
vt -1.006031 -6.626364
vt -1.006031 -6.626364
vt -0.03198242 -7.701447
vt -0.03198242 -7.701447
vt -0.6302864 -7.656363
vt -0.6302864 -7.656363
vt -0.6302864 -7.656363
vt -0.6302864 -7.656363
vt -1.079015 -7.62255
vt -1.079015 -7.62255
vt -0.1082375 -8.706439
vt -0.1082375 -8.706439
vt -0.7065293 -8.661197
vt -0.7065293 -8.661197
vt -0.7065293 -8.661197
vt -0.7065293 -8.661197
vt -1.155249 -8.627265
vt -1.155249 -8.627265
vt -0.1822083 -9.709144
vt -0.1822083 -9.709144
vt -0.7806976 -9.666583
vt -0.7806976 -9.666583
vt -0.7806976 -9.666583
vt -0.7806976 -9.666583
vt -1.229564 -9.634665
vt -1.229564 -9.634665
vt -0.2496857 -10.72078
vt -0.2496857 -10.72078
vt -0.8485581 -10.68402
vt -0.8485581 -10.68402
vt -0.8485581 -10.68402
vt -0.8485581 -10.68402
vt -1.297714 -10.65645
vt -1.297714 -10.65645
vt -0.3052734 -11.75155
vt -0.3052734 -11.75155
vt -0.904657 -11.72435
vt -0.904657 -11.72435
vt -0.904657 -11.72435
vt -0.904657 -11.72435
vt -1.354195 -11.70396
vt -1.354195 -11.70396
vt -0.3409264 -12.79389
vt -0.3409264 -12.79389
vt -0.940786 -12.78092
vt -0.940786 -12.78092
vt -0.940786 -12.78092
vt -0.940786 -12.78092
vt -1.390681 -12.77119
vt -1.390681 -12.77119
vt -0.346965 -13.8396
vt -0.346965 -13.8396
vt -0.9469223 -13.84677
vt -0.9469223 -13.84677
vt -0.9469223 -13.84677
vt -0.9469223 -13.84677
vt -1.39689 -13.85215
vt -1.39689 -13.85215
vt -0.309845 -14.90983
vt -0.309845 -14.90983
vt -0.9087616 -14.94586
vt -0.9087616 -14.94586
vt -0.9087616 -14.94586
vt -0.9087616 -14.94586
vt -1.357949 -14.97289
vt -1.357949 -14.97289
vt -0.2094093 -15.99163
vt -0.2094093 -15.99163
vt -0.8044174 -16.06886
vt -0.8044174 -16.06886
vt -0.8044174 -16.06886
vt -0.8044174 -16.06886
vt -1.250674 -16.12679
vt -1.250674 -16.12679
vt -0.01133804 -17.09772
vt -0.01133804 -17.09772
vt -0.5953102 -17.23548
vt -0.5953102 -17.23548
vt -0.5953102 -17.23548
vt -0.5953102 -17.23548
vt -1.03329 -17.33879
vt -1.03329 -17.33879

usemtl GSDShoulder1
usemap GSDShoulder1
f 9/9/9 1/1/1 3/3/3
f 11/11/11 9/9/9 3/3/3
f 13/13/13 5/5/5 7/7/7
f 15/15/15 13/13/13 7/7/7
f 17/17/17 9/9/9 11/11/11
f 19/19/19 17/17/17 11/11/11
f 21/21/21 13/13/13 15/15/15
f 23/23/23 21/21/21 15/15/15
f 25/25/25 17/17/17 19/19/19
f 27/27/27 25/25/25 19/19/19
f 29/29/29 21/21/21 23/23/23
f 31/31/31 29/29/29 23/23/23
f 33/33/33 25/25/25 27/27/27
f 35/35/35 33/33/33 27/27/27
f 37/37/37 29/29/29 31/31/31
f 39/39/39 37/37/37 31/31/31
f 41/41/41 33/33/33 35/35/35
f 43/43/43 41/41/41 35/35/35
f 45/45/45 37/37/37 39/39/39
f 47/47/47 45/45/45 39/39/39
f 49/49/49 41/41/41 43/43/43
f 51/51/51 49/49/49 43/43/43
f 53/53/53 45/45/45 47/47/47
f 55/55/55 53/53/53 47/47/47
f 57/57/57 49/49/49 51/51/51
f 59/59/59 57/57/57 51/51/51
f 61/61/61 53/53/53 55/55/55
f 63/63/63 61/61/61 55/55/55
f 65/65/65 57/57/57 59/59/59
f 67/67/67 65/65/65 59/59/59
f 69/69/69 61/61/61 63/63/63
f 71/71/71 69/69/69 63/63/63
f 73/73/73 65/65/65 67/67/67
f 75/75/75 73/73/73 67/67/67
f 77/77/77 69/69/69 71/71/71
f 79/79/79 77/77/77 71/71/71
f 81/81/81 73/73/73 75/75/75
f 83/83/83 81/81/81 75/75/75
f 85/85/85 77/77/77 79/79/79
f 87/87/87 85/85/85 79/79/79
f 89/89/89 81/81/81 83/83/83
f 91/91/91 89/89/89 83/83/83
f 93/93/93 85/85/85 87/87/87
f 95/95/95 93/93/93 87/87/87
f 97/97/97 89/89/89 91/91/91
f 99/99/99 97/97/97 91/91/91
f 101/101/101 93/93/93 95/95/95
f 103/103/103 101/101/101 95/95/95
f 105/105/105 97/97/97 99/99/99
f 107/107/107 105/105/105 99/99/99
f 109/109/109 101/101/101 103/103/103
f 111/111/111 109/109/109 103/103/103
f 113/113/113 105/105/105 107/107/107
f 115/115/115 113/113/113 107/107/107
f 117/117/117 109/109/109 111/111/111
f 119/119/119 117/117/117 111/111/111
f 121/121/121 113/113/113 115/115/115
f 123/123/123 121/121/121 115/115/115
f 125/125/125 117/117/117 119/119/119
f 127/127/127 125/125/125 119/119/119
f 129/129/129 121/121/121 123/123/123
f 131/131/131 129/129/129 123/123/123
f 133/133/133 125/125/125 127/127/127
f 135/135/135 133/133/133 127/127/127
f 137/137/137 129/129/129 131/131/131
f 139/139/139 137/137/137 131/131/131
f 141/141/141 133/133/133 135/135/135
f 143/143/143 141/141/141 135/135/135
