mtllib ./Road1_0_89.mtl
g SCutL18
v -102.6691 0 145.9097
v -102.6691 0 145.9097
v -103.4738 0 142.7559
v -103.4738 0 142.7559
v -102.0977 -0.35 148.1489
v -102.0977 -0.35 148.1489
v -102.6691 0 145.9097
v -102.6691 0 145.9097
v -108.2421 0.1960749 147.152
v -108.2421 0.1960749 147.152
v -108.8173 0.1960749 143.871
v -108.8173 0.1960749 143.871
v -107.8398 -0.35 149.4464
v -107.8398 -0.35 149.4464
v -108.2421 0.1960749 147.152
v -108.2421 0.1960749 147.152
v -113.5208 0.5460321 148.0447
v -113.5208 0.5460321 148.0447
v -113.9883 0.5460321 144.6731
v -113.9883 0.5460321 144.6731
v -113.1985 -0.35 150.3696
v -113.1985 -0.35 150.3696
v -113.5208 0.5460321 148.0447
v -113.5208 0.5460321 148.0447
v -118.7032 0.9108854 148.7571
v -118.7032 0.9108854 148.7571
v -119.1003 0.9108854 145.3178
v -119.1003 0.9108854 145.3178
v -118.4323 -0.35 151.1029
v -118.4323 -0.35 151.1029
v -118.7032 0.9108854 148.7571
v -118.7032 0.9108854 148.7571
v -123.8796 1.288825 149.3582
v -123.8796 1.288825 149.3582
v -124.2256 1.288825 145.8645
v -124.2256 1.288825 145.8645
v -123.6457 -0.35 151.7201
v -123.6457 -0.35 151.7201
v -123.8796 1.288825 149.3582
v -123.8796 1.288825 149.3582
v -129.0067 1.672503 149.8735
v -129.0067 1.672503 149.8735
v -129.3136 1.672503 146.3353
v -129.3136 1.672503 146.3353
v -128.8006 -0.35 152.248
v -128.8006 -0.35 152.248
v -129.0067 1.672503 149.8735
v -129.0067 1.672503 149.8735
v -134.0736 2.058513 150.322
v -134.0736 2.058513 150.322
v -134.3496 2.058513 146.7468
v -134.3496 2.058513 146.7468
v -133.8895 -0.35 152.7068
v -133.8895 -0.35 152.7068
v -134.0736 2.058513 150.322
v -134.0736 2.058513 150.322
v -139.1826 2.453084 150.725
v -139.1826 2.453084 150.725
v -139.4328 2.453084 147.1183
v -139.4328 2.453084 147.1183
v -139.0166 -0.35 153.1185
v -139.0166 -0.35 153.1185
v -139.1826 2.453084 150.725
v -139.1826 2.453084 150.725
v -144.2914 2.851973 151.0873
v -144.2914 2.851973 151.0873
v -144.5199 2.851973 147.4539
v -144.5199 2.851973 147.4539
v -144.1405 -0.35 153.488
v -144.1405 -0.35 153.488
v -144.2914 2.851973 151.0873
v -144.2914 2.851973 151.0873
v -149.3618 3.251391 151.4127
v -149.3618 3.251391 151.4127
v -149.5717 3.251391 147.757
v -149.5717 3.251391 147.757
v -149.2236 -0.35 153.8194
v -149.2236 -0.35 153.8194
v -149.3618 3.251391 151.4127
v -149.3618 3.251391 151.4127
v -154.4526 3.655397 151.7102
v -154.4526 3.655397 151.7102
v -154.6463 3.655397 148.036
v -154.6463 3.655397 148.036
v -154.3255 -0.35 154.1219
v -154.3255 -0.35 154.1219
v -154.4526 3.655397 151.7102
v -154.4526 3.655397 151.7102
v -159.5388 4.061571 151.9819
v -159.5388 4.061571 151.9819
v -159.7183 4.061571 148.2926
v -159.7183 4.061571 148.2926
v -159.4212 -0.35 154.3976
v -159.4212 -0.35 154.3976
v -159.5388 4.061571 151.9819
v -159.5388 4.061571 151.9819
v -164.5975 4.467728 152.23
v -164.5975 4.467728 152.23
v -164.7645 4.467728 148.5289
v -164.7645 4.467728 148.5289
v -164.4883 -0.35 154.6489
v -164.4883 -0.35 154.6489
v -164.5975 4.467728 152.23
v -164.5975 4.467728 152.23
v -169.6079 4.871873 152.4564
v -169.6079 4.871873 152.4564
v -169.764 4.871873 148.7466
v -169.764 4.871873 148.7466
v -169.5061 -0.35 154.8776
v -169.5061 -0.35 154.8776
v -169.6079 4.871873 152.4564
v -169.6079 4.871873 152.4564
v -174.6464 5.279923 152.6666
v -174.6464 5.279923 152.6666
v -174.7926 5.279923 148.951
v -174.7926 5.279923 148.951
v -174.5511 -0.35 155.0894
v -174.5511 -0.35 155.0894
v -174.6464 5.279923 152.6666
v -174.6464 5.279923 152.6666
v -179.6957 5.690301 152.8616
v -179.6957 5.690301 152.8616
v -179.833 5.690301 149.1429
v -179.833 5.690301 149.1429
v -179.6062 -0.35 155.2853
v -179.6062 -0.35 155.2853
v -179.6957 5.690301 152.8616
v -179.6957 5.690301 152.8616
v -184.7388 6.101479 153.0422
v -184.7388 6.101479 153.0422
v -184.8682 6.101479 149.3232
v -184.8682 6.101479 149.3232
v -184.6545 -0.35 155.466
v -184.6545 -0.35 155.466
v -184.7388 6.101479 153.0422
v -184.7388 6.101479 153.0422
v -189.7591 6.511926 153.2092
v -189.7591 6.511926 153.2092
v -189.8814 6.511926 149.4927
v -189.8814 6.511926 149.4927
v -189.6793 -0.35 155.6325
v -189.6793 -0.35 155.6325
v -189.7591 6.511926 153.2092
v -189.7591 6.511926 153.2092
v -194.8324 6.927732 153.3663
v -194.8324 6.927732 153.3663
v -194.9485 6.927732 149.6553
v -194.9485 6.927732 149.6553
v -194.7566 -0.35 155.7883
v -194.7566 -0.35 155.7883
v -194.8324 6.927732 153.3663
v -194.8324 6.927732 153.3663
v -199.8456 7.339513 153.511
v -199.8456 7.339513 153.511
v -199.9563 7.339513 149.8083
v -199.9563 7.339513 149.8083
v -199.7733 -0.35 155.9309
v -199.7733 -0.35 155.9309
v -199.8456 7.339513 153.511
v -199.8456 7.339513 153.511
v -204.8712 7.753088 153.6466
v -204.8712 7.753088 153.6466
v -204.9773 7.753088 149.9554
v -204.9773 7.753088 149.9554
v -204.8018 -0.35 156.0637
v -204.8018 -0.35 156.0637
v -204.8712 7.753088 153.6466
v -204.8712 7.753088 153.6466
v -209.8848 8.166345 153.7734
v -209.8848 8.166345 153.7734
v -209.987 8.166345 150.0969
v -209.987 8.166345 150.0969
v -209.8176 -0.35 156.1869
v -209.8176 -0.35 156.1869
v -209.8848 8.166345 153.7734
v -209.8848 8.166345 153.7734
v -214.9459 8.584111 153.8938
v -214.9459 8.584111 153.8938
v -215.0452 8.584111 150.2358
v -215.0452 8.584111 150.2358
v -214.8805 -0.35 156.3026
v -214.8805 -0.35 156.3026
v -214.9459 8.584111 153.8938
v -214.9459 8.584111 153.8938
v -219.9338 8.996304 154.0058
v -219.9338 8.996304 154.0058
v -220.0312 8.996304 150.3701
v -220.0312 8.996304 150.3701
v -219.8694 -0.35 156.4091
v -219.8694 -0.35 156.4091
v -219.9338 8.996304 154.0058
v -219.9338 8.996304 154.0058
v -224.9745 9.413223 154.1136
v -224.9745 9.413223 154.1136
v -225.0712 9.413223 150.505
v -225.0712 9.413223 150.505
v -224.9103 -0.35 156.5101
v -224.9103 -0.35 156.5101
v -224.9745 9.413223 154.1136
v -224.9745 9.413223 154.1136
v -230.0079 9.829802 154.2169
v -230.0079 9.829802 154.2169
v -230.1054 9.829802 150.6408
v -230.1054 9.829802 150.6408
v -229.9429 -0.35 156.6053
v -229.9429 -0.35 156.6053
v -230.0079 9.829802 154.2169
v -230.0079 9.829802 154.2169
v -235.0339 10.2459 154.3174
v -235.0339 10.2459 154.3174
v -235.1343 10.2459 150.7804
v -235.1343 10.2459 150.7804
v -234.9664 -0.35 156.696
v -234.9664 -0.35 156.696
v -235.0339 10.2459 154.3174
v -235.0339 10.2459 154.3174
v -240.0169 10.65844 154.4167
v -240.0169 10.65844 154.4167
v -240.1233 10.65844 150.9268
v -240.1233 10.65844 150.9268
v -239.9447 -0.35 156.7834
v -239.9447 -0.35 156.7834
v -240.0169 10.65844 154.4167
v -240.0169 10.65844 154.4167
v -244.9863 11.06982 154.5188
v -244.9863 11.06982 154.5188
v -245.1043 11.06982 151.0876
v -245.1043 11.06982 151.0876
v -244.9055 -0.35 156.8707
v -244.9055 -0.35 156.8707
v -244.9863 11.06982 154.5188
v -244.9863 11.06982 154.5188
v -249.926 11.47899 154.63
v -249.926 11.47899 154.63
v -250.0674 11.47899 151.2754
v -250.0674 11.47899 151.2754
v -249.8278 -0.35 156.9624
v -249.8278 -0.35 156.9624
v -249.926 11.47899 154.63
v -249.926 11.47899 154.63

vn 0.03326999 0.9994104 -0.008488884
vn 0 0 0
vn 0.03431142 0.9993841 -0.007358118
vn 0 0 0
vn 0.03301572 0.9887159 0.1461193
vn 0 0 0
vn 0.05777683 0.9816692 0.1816242
vn 0 0 0
vn 0.04410702 0.9989894 -0.008636625
vn 0 0 0
vn 0.05512861 0.99844 -0.008862646
vn 0 0 0
vn 0.05166309 0.9793179 0.1956205
vn 0 0 0
vn 0.08104113 0.9615626 0.262354
vn 0 0 0
vn 0.06642352 0.9977415 -0.009995715
vn 0 0 0
vn 0.06839973 0.997618 -0.008940429
vn 0 0 0
vn 0.06995185 0.9486818 0.3083985
vn 0 0 0
vn 0.09888981 0.9168467 0.3867983
vn 0 0 0
vn 0.0703227 0.9974868 -0.008649412
vn 0 0 0
vn 0.07160743 0.9974018 -0.007866819
vn 0 0 0
vn 0.0772706 0.9000912 0.428795
vn 0 0 0
vn 0.1023925 0.8617129 0.4969573
vn 0 0 0
vn 0.07284179 0.9973145 -0.007606183
vn 0 0 0
vn 0.07375534 0.9972519 -0.006998066
vn 0 0 0
vn 0.08006057 0.8426884 0.5324159
vn 0 0 0
vn 0.1019186 0.801797 0.5888415
vn 0 0 0
vn 0.07462442 0.9971887 -0.006776182
vn 0 0 0
vn 0.07530959 0.9971404 -0.00629147
vn 0 0 0
vn 0.07973123 0.7822658 0.6178214
vn 0 0 0
vn 0.09892317 0.7421368 0.6629081
vn 0 0 0
vn 0.07595956 0.9970922 -0.006102507
vn 0 0 0
vn 0.07649799 0.9970534 -0.005703259
vn 0 0 0
vn 0.07736615 0.7232398 0.6862497
vn 0 0 0
vn 0.09444424 0.6853283 0.722084
vn 0 0 0
vn 0.07700074 0.9970157 -0.005540529
vn 0 0 0
vn 0.07743884 0.9969835 -0.005202606
vn 0 0 0
vn 0.07416126 0.6676602 0.7407632
vn 0 0 0
vn 0.08952435 0.6326492 0.7692465
vn 0 0 0
vn 0.07784338 0.9969527 -0.005061619
vn 0 0 0
vn 0.07820553 0.9969258 -0.004773878
vn 0 0 0
vn 0.07041174 0.616487 0.7842103
vn 0 0 0
vn 0.08438495 0.5849333 0.8066797
vn 0 0 0
vn 0.07853872 0.9969002 -0.004651071
vn 0 0 0
vn 0.07884379 0.9968772 -0.004402732
vn 0 0 0
vn 0.06635196 0.5703592 0.8187111
vn 0 0 0
vn 0.07919592 0.5421067 0.8365694
vn 0 0 0
vn 0.07912117 0.9968558 -0.004294616
vn 0 0 0
vn 0.07938243 0.996836 -0.004077205
vn 0 0 0
vn 0.06240511 0.5290474 0.8462945
vn 0 0 0
vn 0.07429516 0.5037652 0.8606398
vn 0 0 0
vn 0.07961801 0.9968175 -0.003981698
vn 0 0 0
vn 0.07984351 0.9968002 -0.003791082
vn 0 0 0
vn 0.05856376 0.4920886 0.8685731
vn 0 0 0
vn 0.06965044 0.4695869 0.8801346
vn 0 0 0
vn 0.08004501 0.9967843 -0.003706685
vn 0 0 0
vn 0.08024082 0.9967692 -0.003539299
vn 0 0 0
vn 0.05490659 0.4591903 0.8866395
vn 0 0 0
vn 0.06531909 0.4392138 0.8960048
vn 0 0 0
vn 0.08041577 0.9967554 -0.003464281
vn 0 0 0
vn 0.08058733 0.996742 -0.003315975
vn 0 0 0
vn 0.05138184 0.4299152 0.9014061
vn 0 0 0
vn 0.06120097 0.4120333 0.9091111
vn 0 0 0
vn 0.08073961 0.9967299 -0.003248929
vn 0 0 0
vn 0.08089124 0.996718 -0.003116494
vn 0 0 0
vn 0.04815044 0.4036719 0.9136357
vn 0 0 0
vn 0.05744593 0.3875242 0.920068
vn 0 0 0
vn 0.08102575 0.9967073 -0.003056601
vn 0 0 0
vn 0.08115981 0.9966967 -0.002938754
vn 0 0 0
vn 0.04512331 0.3799636 0.9239002
vn 0 0 0
vn 0.05395226 0.3653845 0.9292918
vn 0 0 0
vn 0.08127846 0.9966872 -0.00288536
vn 0 0 0
vn 0.08139639 0.9966779 -0.002781235
vn 0 0 0
vn 0.04229319 0.3585488 0.9325525
vn 0 0 0
vn 0.05071583 0.3453795 0.9370917
vn 0 0 0
vn 0.08150192 0.9966695 -0.002734038
vn 0 0 0
vn 0.08160589 0.9966612 -0.002642413
vn 0 0 0
vn 0.03959656 0.3391568 0.9398961
vn 0 0 0
vn 0.04765585 0.3271453 0.9437717
vn 0 0 0
vn 0.0816984 0.9966537 -0.002601152
vn 0 0 0
vn 0.08178917 0.9966464 -0.002521541
vn 0 0 0
vn 0.03721743 0.3214808 0.9461845
vn 0 0 0
vn 0.04494489 0.310526 0.9495017
vn 0 0 0
vn 0.08187149 0.9966398 -0.002486014
vn 0 0 0
vn 0.08194951 0.9966335 -0.002418685
vn 0 0 0
vn 0.03488891 0.3053392 0.9516043
vn 0 0 0
vn 0.04233512 0.2953486 0.9544511
vn 0 0 0
vn 0.08202098 0.9966278 -0.002389029
vn 0 0 0
vn 0.08208659 0.9966226 -0.002333966
vn 0 0 0
vn 0.03281054 0.2905993 0.9562821
vn 0 0 0
vn 0.04000073 0.2814069 0.9587545
vn 0 0 0
vn 0.08214933 0.9966174 -0.002310505
vn 0 0 0
vn 0.08220285 0.996613 -0.002268671
vn 0 0 0
vn 0.03084737 0.2770104 0.9603717
vn 0 0 0
vn 0.03780739 0.268492 0.9625397
vn 0 0 0
vn 0.08225581 0.9966087 -0.002252072
vn 0 0 0
vn 0.08229572 0.9966054 -0.002224944
vn 0 0 0
vn 0.02915478 0.2644309 0.9639639
vn 0 0 0
vn 0.03592276 0.2565549 0.9658619
vn 0 0 0
vn 0.08233996 0.9966018 -0.002216108
vn 0 0 0
vn 0.0823651 0.9965998 -0.002206662
vn 0 0 0
vn 0.02751229 0.2527716 0.9671347
vn 0 0 0
vn 0.03412564 0.2454541 0.9688073
vn 0 0 0
vn 0.08239998 0.9965969 -0.002207429
vn 0 0 0
vn 0.0824082 0.9965961 -0.002220066
vn 0 0 0
vn 0.02617348 0.2419265 0.9699415
vn 0 0 0
vn 0.03265898 0.235055 0.9714332
vn 0 0 0
vn 0.08243439 0.996594 -0.002233439
vn 0 0 0
vn 0.08242099 0.996595 -0.002276374
vn 0 0 0
vn 0.02503239 0.2317383 0.9724562
vn 0 0 0
vn 0.03145216 0.2252921 0.9737835
vn 0 0 0
vn 0.08243934 0.9965935 -0.002307597
vn 0 0 0
vn 0.08239754 0.9965966 -0.002395273
vn 0 0 0
vn 0.02422306 0.2221745 0.9747059
vn 0 0 0
vn 0.03064824 0.2161092 0.9758881
vn 0 0 0
vn 0.08241549 0.996595 -0.002454359
vn 0 0 0
vn 0.08233474 0.9966013 -0.00261645
vn 0 0 0
vn 0.02382326 0.2131585 0.9767272
vn 0 0 0
vn 0.03038461 0.2074032 0.9777836
vn 0 0 0
vn 0.08238456 0.9965969 -0.002724822
vn 0 0 0
vn 0.08224752 0.9966072 -0.003037172
vn 0 0 0
vn 0.0241896 0.2045841 0.9785501
vn 0 0 0
vn 0.03116344 0.1990346 0.9794968
vn 0 0 0
vn 0.08226214 0.9966058 -0.003143865
vn 0 0 0
vn 0.08203401 0.9966235 -0.003456409
vn 0 0 0
vn 0.02836249 0.1976472 0.9798629
vn 0 0 0
vn 0.03810789 0.193617 0.9803368
vn 0 0 0

vt 0 0
vt 0 0
vt 0.1609421 -0.6307709
vt 0.1609421 -0.6307709
vt -0.114267 0.4478363
vt -0.114267 0.4478363
vt 0 0
vt 0 0
vt 1.114601 0.2484528
vt 1.114601 0.2484528
vt 1.229651 -0.4077454
vt 1.229651 -0.4077454
vt 1.034148 0.7073212
vt 1.034148 0.7073212
vt 1.114601 0.2484528
vt 1.114601 0.2484528
vt 2.170352 0.4269867
vt 2.170352 0.4269867
vt 2.263844 -0.2473236
vt 2.263844 -0.2473236
vt 2.105884 0.8919647
vt 2.105884 0.8919647
vt 2.170352 0.4269867
vt 2.170352 0.4269867
vt 3.206824 0.5694641
vt 3.206824 0.5694641
vt 3.286243 -0.1183899
vt 3.286243 -0.1183899
vt 3.152653 1.038638
vt 3.152653 1.038638
vt 3.206824 0.5694641
vt 3.206824 0.5694641
vt 4.242113 0.6896881
vt 4.242113 0.6896881
vt 4.311307 -0.009042359
vt 4.311307 -0.009042359
vt 4.195334 1.162064
vt 4.195334 1.162064
vt 4.242113 0.6896881
vt 4.242113 0.6896881
vt 5.26752 0.792749
vt 5.26752 0.792749
vt 5.328912 0.08510437
vt 5.328912 0.08510437
vt 5.226318 1.26766
vt 5.226318 1.26766
vt 5.26752 0.792749
vt 5.26752 0.792749
vt 6.280914 0.8824493
vt 6.280914 0.8824493
vt 6.336114 0.1674072
vt 6.336114 0.1674072
vt 6.244092 1.359421
vt 6.244092 1.359421
vt 6.280914 0.8824493
vt 6.280914 0.8824493
vt 7.302716 0.9630585
vt 7.302716 0.9630585
vt 7.352756 0.2417053
vt 7.352756 0.2417053
vt 7.26951 1.44176
vt 7.26951 1.44176
vt 7.302716 0.9630585
vt 7.302716 0.9630585
vt 8.324478 1.035507
vt 8.324478 1.035507
vt 8.370163 0.3088226
vt 8.370163 0.3088226
vt 8.294293 1.515653
vt 8.294293 1.515653
vt 8.324478 1.035507
vt 8.324478 1.035507
vt 9.338547 1.100589
vt 9.338547 1.100589
vt 9.380527 0.369458
vt 9.380527 0.369458
vt 9.31091 1.581934
vt 9.31091 1.581934
vt 9.338547 1.100589
vt 9.338547 1.100589
vt 10.35671 1.160086
vt 10.35671 1.160086
vt 10.39546 0.4252442
vt 10.39546 0.4252442
vt 10.33128 1.642423
vt 10.33128 1.642423
vt 10.35671 1.160086
vt 10.35671 1.160086
vt 11.37394 1.214438
vt 11.37394 1.214438
vt 11.40985 0.4765808
vt 11.40985 0.4765808
vt 11.35043 1.69758
vt 11.35043 1.69758
vt 11.37394 1.214438
vt 11.37394 1.214438
vt 12.38569 1.264053
vt 12.38569 1.264053
vt 12.4191 0.5238373
vt 12.4191 0.5238373
vt 12.36386 1.747827
vt 12.36386 1.747827
vt 12.38569 1.264053
vt 12.38569 1.264053
vt 13.38778 1.309329
vt 13.38778 1.309329
vt 13.41899 0.5673706
vt 13.41899 0.5673706
vt 13.36741 1.79357
vt 13.36741 1.79357
vt 13.38778 1.309329
vt 13.38778 1.309329
vt 14.39548 1.351376
vt 14.39548 1.351376
vt 14.42471 0.6082428
vt 14.42471 0.6082428
vt 14.37642 1.835938
vt 14.37642 1.835938
vt 14.39548 1.351376
vt 14.39548 1.351376
vt 15.40532 1.390378
vt 15.40532 1.390378
vt 15.43278 0.6466278
vt 15.43278 0.6466278
vt 15.38743 1.875113
vt 15.38743 1.875113
vt 15.40532 1.390378
vt 15.40532 1.390378
vt 16.41395 1.426492
vt 16.41395 1.426492
vt 16.43983 0.6826904
vt 16.43983 0.6826904
vt 16.39709 1.911261
vt 16.39709 1.911261
vt 16.41395 1.426492
vt 16.41395 1.426492
vt 17.418 1.459894
vt 17.418 1.459894
vt 17.44248 0.7165985
vt 17.44248 0.7165985
vt 17.40204 1.94455
vt 17.40204 1.94455
vt 17.418 1.459894
vt 17.418 1.459894
vt 18.43266 1.491312
vt 18.43266 1.491312
vt 18.45588 0.7491059
vt 18.45588 0.7491059
vt 18.41751 1.975705
vt 18.41751 1.975705
vt 18.43266 1.491312
vt 18.43266 1.491312
vt 19.43532 1.520252
vt 19.43532 1.520252
vt 19.45746 0.779715
vt 19.45746 0.779715
vt 19.42084 2.004239
vt 19.42084 2.004239
vt 19.43532 1.520252
vt 19.43532 1.520252
vt 20.44044 1.547372
vt 20.44044 1.547372
vt 20.46165 0.8091278
vt 20.46165 0.8091278
vt 20.42654 2.030795
vt 20.42654 2.030795
vt 20.44044 1.547372
vt 20.44044 1.547372
vt 21.44314 1.572736
vt 21.44314 1.572736
vt 21.4636 0.8374359
vt 21.4636 0.8374359
vt 21.42972 2.055426
vt 21.42972 2.055426
vt 21.44314 1.572736
vt 21.44314 1.572736
vt 22.45537 1.596805
vt 22.45537 1.596805
vt 22.47523 0.865213
vt 22.47523 0.865213
vt 22.44229 2.078574
vt 22.44229 2.078574
vt 22.45537 1.596805
vt 22.45537 1.596805
vt 23.45295 1.61922
vt 23.45295 1.61922
vt 23.47243 0.8920807
vt 23.47243 0.8920807
vt 23.44008 2.099878
vt 23.44008 2.099878
vt 23.45295 1.61922
vt 23.45295 1.61922
vt 24.46109 1.640775
vt 24.46109 1.640775
vt 24.48042 0.9190521
vt 24.48042 0.9190521
vt 24.44825 2.120075
vt 24.44825 2.120075
vt 24.46109 1.640775
vt 24.46109 1.640775
vt 25.46778 1.661435
vt 25.46778 1.661435
vt 25.48726 0.9462128
vt 25.48726 0.9462128
vt 25.45476 2.139111
vt 25.45476 2.139111
vt 25.46778 1.661435
vt 25.46778 1.661435
vt 26.47297 1.68154
vt 26.47297 1.68154
vt 26.49304 0.9741303
vt 26.49304 0.9741303
vt 26.45948 2.157257
vt 26.45948 2.157257
vt 26.47297 1.68154
vt 26.47297 1.68154
vt 27.46956 1.701392
vt 27.46956 1.701392
vt 27.49085 1.003412
vt 27.49085 1.003412
vt 27.45513 2.174738
vt 27.45513 2.174738
vt 27.46956 1.701392
vt 27.46956 1.701392
vt 28.46346 1.721811
vt 28.46346 1.721811
vt 28.48706 1.035565
vt 28.48706 1.035565
vt 28.44728 2.192191
vt 28.44728 2.192191
vt 28.46346 1.721811
vt 28.46346 1.721811
vt 29.4514 1.744052
vt 29.4514 1.744052
vt 29.47967 1.073132
vt 29.47967 1.073132
vt 29.43175 2.210535
vt 29.43175 2.210535
vt 29.4514 1.744052
vt 29.4514 1.744052

usemtl GSDShoulder1
usemap GSDShoulder1
f 9/9/9 1/1/1 3/3/3
f 11/11/11 9/9/9 3/3/3
f 13/13/13 5/5/5 7/7/7
f 15/15/15 13/13/13 7/7/7
f 17/17/17 9/9/9 11/11/11
f 19/19/19 17/17/17 11/11/11
f 21/21/21 13/13/13 15/15/15
f 23/23/23 21/21/21 15/15/15
f 25/25/25 17/17/17 19/19/19
f 27/27/27 25/25/25 19/19/19
f 29/29/29 21/21/21 23/23/23
f 31/31/31 29/29/29 23/23/23
f 33/33/33 25/25/25 27/27/27
f 35/35/35 33/33/33 27/27/27
f 37/37/37 29/29/29 31/31/31
f 39/39/39 37/37/37 31/31/31
f 41/41/41 33/33/33 35/35/35
f 43/43/43 41/41/41 35/35/35
f 45/45/45 37/37/37 39/39/39
f 47/47/47 45/45/45 39/39/39
f 49/49/49 41/41/41 43/43/43
f 51/51/51 49/49/49 43/43/43
f 53/53/53 45/45/45 47/47/47
f 55/55/55 53/53/53 47/47/47
f 57/57/57 49/49/49 51/51/51
f 59/59/59 57/57/57 51/51/51
f 61/61/61 53/53/53 55/55/55
f 63/63/63 61/61/61 55/55/55
f 65/65/65 57/57/57 59/59/59
f 67/67/67 65/65/65 59/59/59
f 69/69/69 61/61/61 63/63/63
f 71/71/71 69/69/69 63/63/63
f 73/73/73 65/65/65 67/67/67
f 75/75/75 73/73/73 67/67/67
f 77/77/77 69/69/69 71/71/71
f 79/79/79 77/77/77 71/71/71
f 81/81/81 73/73/73 75/75/75
f 83/83/83 81/81/81 75/75/75
f 85/85/85 77/77/77 79/79/79
f 87/87/87 85/85/85 79/79/79
f 89/89/89 81/81/81 83/83/83
f 91/91/91 89/89/89 83/83/83
f 93/93/93 85/85/85 87/87/87
f 95/95/95 93/93/93 87/87/87
f 97/97/97 89/89/89 91/91/91
f 99/99/99 97/97/97 91/91/91
f 101/101/101 93/93/93 95/95/95
f 103/103/103 101/101/101 95/95/95
f 105/105/105 97/97/97 99/99/99
f 107/107/107 105/105/105 99/99/99
f 109/109/109 101/101/101 103/103/103
f 111/111/111 109/109/109 103/103/103
f 113/113/113 105/105/105 107/107/107
f 115/115/115 113/113/113 107/107/107
f 117/117/117 109/109/109 111/111/111
f 119/119/119 117/117/117 111/111/111
f 121/121/121 113/113/113 115/115/115
f 123/123/123 121/121/121 115/115/115
f 125/125/125 117/117/117 119/119/119
f 127/127/127 125/125/125 119/119/119
f 129/129/129 121/121/121 123/123/123
f 131/131/131 129/129/129 123/123/123
f 133/133/133 125/125/125 127/127/127
f 135/135/135 133/133/133 127/127/127
f 137/137/137 129/129/129 131/131/131
f 139/139/139 137/137/137 131/131/131
f 141/141/141 133/133/133 135/135/135
f 143/143/143 141/141/141 135/135/135
f 145/145/145 137/137/137 139/139/139
f 147/147/147 145/145/145 139/139/139
f 149/149/149 141/141/141 143/143/143
f 151/151/151 149/149/149 143/143/143
f 153/153/153 145/145/145 147/147/147
f 155/155/155 153/153/153 147/147/147
f 157/157/157 149/149/149 151/151/151
f 159/159/159 157/157/157 151/151/151
f 161/161/161 153/153/153 155/155/155
f 163/163/163 161/161/161 155/155/155
f 165/165/165 157/157/157 159/159/159
f 167/167/167 165/165/165 159/159/159
f 169/169/169 161/161/161 163/163/163
f 171/171/171 169/169/169 163/163/163
f 173/173/173 165/165/165 167/167/167
f 175/175/175 173/173/173 167/167/167
f 177/177/177 169/169/169 171/171/171
f 179/179/179 177/177/177 171/171/171
f 181/181/181 173/173/173 175/175/175
f 183/183/183 181/181/181 175/175/175
f 185/185/185 177/177/177 179/179/179
f 187/187/187 185/185/185 179/179/179
f 189/189/189 181/181/181 183/183/183
f 191/191/191 189/189/189 183/183/183
f 193/193/193 185/185/185 187/187/187
f 195/195/195 193/193/193 187/187/187
f 197/197/197 189/189/189 191/191/191
f 199/199/199 197/197/197 191/191/191
f 201/201/201 193/193/193 195/195/195
f 203/203/203 201/201/201 195/195/195
f 205/205/205 197/197/197 199/199/199
f 207/207/207 205/205/205 199/199/199
f 209/209/209 201/201/201 203/203/203
f 211/211/211 209/209/209 203/203/203
f 213/213/213 205/205/205 207/207/207
f 215/215/215 213/213/213 207/207/207
f 217/217/217 209/209/209 211/211/211
f 219/219/219 217/217/217 211/211/211
f 221/221/221 213/213/213 215/215/215
f 223/223/223 221/221/221 215/215/215
f 225/225/225 217/217/217 219/219/219
f 227/227/227 225/225/225 219/219/219
f 229/229/229 221/221/221 223/223/223
f 231/231/231 229/229/229 223/223/223
f 233/233/233 225/225/225 227/227/227
f 235/235/235 233/233/233 227/227/227
f 237/237/237 229/229/229 231/231/231
f 239/239/239 237/237/237 231/231/231
