mtllib ./Road2_1_40.mtl
g SCutL5
v -275.1099 0.03 65.28979
v -275.1099 0.03 65.28979
v -272.1111 0.03 65.37545
v -272.1111 0.03 65.37545
v -277.359 -0.67 65.22554
v -277.359 -0.67 65.22554
v -275.1099 0.03 65.28979
v -275.1099 0.03 65.28979
v -275.0098 0.03 60.46221
v -275.0098 0.03 60.46221
v -272.0099 0.03 60.48459
v -272.0099 0.03 60.48459
v -277.2598 -0.67 60.44542
v -277.2598 -0.67 60.44542
v -275.0098 0.03 60.46221
v -275.0098 0.03 60.46221
v -275.1812 0.03 56.58451
v -275.1812 0.03 56.58451
v -272.2018 0.03 56.23353
v -272.2018 0.03 56.23353
v -277.4157 -0.67 56.84774
v -277.4157 -0.67 56.84774
v -275.1812 0.03 56.58451
v -275.1812 0.03 56.58451
v -275.8427 0.03 53.53607
v -275.8427 0.03 53.53607
v -273.004 0.03 52.56556
v -273.004 0.03 52.56556
v -277.9717 -0.67 54.26395
v -277.9717 -0.67 54.26395
v -275.8427 0.03 53.53607
v -275.8427 0.03 53.53607
v -277.0372 0.03 51.10207
v -277.0372 0.03 51.10207
v -274.5404 0.03 49.43894
v -274.5404 0.03 49.43894
v -278.9098 -0.67 52.34941
v -278.9098 -0.67 52.34941
v -277.0372 0.03 51.10207
v -277.0372 0.03 51.10207
v -278.8994 0.03 48.95294
v -278.8994 0.03 48.95294
v -276.8699 0.03 46.74362
v -276.8699 0.03 46.74362
v -280.4215 -0.67 50.60993
v -280.4215 -0.67 50.60993
v -278.8994 0.03 48.95294
v -278.8994 0.03 48.95294
v -281.5791 0.03 46.95287
v -281.5791 0.03 46.95287
v -280.0018 0.03 44.40099
v -280.0018 0.03 44.40099
v -282.7621 -0.67 48.86679
v -282.7621 -0.67 48.86679
v -281.5791 0.03 46.95287
v -281.5791 0.03 46.95287
v -284.9701 0.03 45.19019
v -284.9701 0.03 45.19019
v -283.7605 0.03 42.44487
v -283.7605 0.03 42.44487
v -285.8774 -0.67 47.24917
v -285.8774 -0.67 47.24917
v -284.9701 0.03 45.19019
v -284.9701 0.03 45.19019
v -288.8574 0.03 43.7205
v -288.8574 0.03 43.7205
v -287.9305 0.03 40.8673
v -287.9305 0.03 40.8673
v -289.5526 -0.67 45.8604
v -289.5526 -0.67 45.8604
v -288.8574 0.03 43.7205
v -288.8574 0.03 43.7205
v -293.066 0.03 42.53542
v -293.066 0.03 42.53542
v -292.3564 0.03 39.62055
v -292.3564 0.03 39.62055
v -293.5982 -0.67 44.72157
v -293.5982 -0.67 44.72157
v -293.066 0.03 42.53542
v -293.066 0.03 42.53542

vn 2.203037E-11 1 -7.712121E-10
vn 0 0 0
vn 1.380305E-11 1 -7.663583E-10
vn 0 0 0
vn -0.2970105 0.9548542 -0.006166431
vn 0 0 0
vn -0.2970185 0.9548518 -0.006162552
vn 0 0 0
vn 8.845744E-12 0.9999999 -4.108756E-10
vn 0 0 0
vn 1.781514E-11 1 -9.785459E-13
vn 0 0 0
vn -0.2970614 0.9548578 -0.0009755277
vn 0 0 0
vn -0.297222 0.9547926 0.005490385
vn 0 0 0
vn 3.758729E-11 1 4.955049E-10
vn 0 0 0
vn 9.372333E-11 1 4.930022E-10
vn 0 0 0
vn -0.2959094 0.9548625 0.02598394
vn 0 0 0
vn -0.2942325 0.9547675 0.04296857
vn 0 0 0
vn 8.614318E-11 0.9999999 3.792608E-10
vn 0 0 0
vn 6.102775E-11 1 1.785028E-10
vn 0 0 0
vn -0.2857747 0.9548143 0.08162445
vn 0 0 0
vn -0.2780803 0.9547971 0.1050417
vn 0 0 0
vn -2.30377E-10 1 -3.458576E-10
vn 0 0 0
vn -4.899886E-10 0.9999999 -5.727231E-10
vn 0 0 0
vn -0.2551061 0.954778 0.1527089
vn 0 0 0
vn -0.2408263 0.9548423 0.1740086
vn 0 0 0
vn -2.132068E-10 1 -3.200807E-10
vn 0 0 0
vn 2.944688E-10 1 1.82009E-10
vn 0 0 0
vn -0.2087397 0.9547598 0.211805
vn 0 0 0
vn -0.1932172 0.9548473 0.2256853
vn 0 0 0
vn 2.486465E-10 1 2.284099E-10
vn 0 0 0
vn -2.856243E-10 1 -1.258501E-10
vn 0 0 0
vn -0.1635845 0.9547824 0.2482555
vn 0 0 0
vn -0.1501426 0.954854 0.2563417
vn 0 0 0
vn -3.998003E-10 1 -2.22296E-10
vn 0 0 0
vn 5.220342E-12 1 -1.367825E-11
vn 0 0 0
vn -0.1260653 0.954815 0.2691391
vn 0 0 0
vn -0.1154732 0.9548558 0.2737088
vn 0 0 0
vn 2.679617E-10 1 1.022624E-10
vn 0 0 0
vn 1.320301E-10 1 4.289358E-11
vn 0 0 0
vn -0.09674408 0.9548351 0.2809458
vn 0 0 0
vn -0.08859536 0.9548559 0.2835508
vn 0 0 0
vn 0 1 0
vn 0 0 0
vn 0 1 0
vn 0 0 0
vn -0.08055951 0.9547969 0.2861344
vn 0 0 0
vn -0.08056523 0.9548033 0.2861118
vn 0 0 0

vt 0 0
vt 0 0
vt -0.5997559 0.01713257
vt -0.5997559 0.01713257
vt 0.4498169 -0.01284943
vt 0.4498169 -0.01284943
vt 0 0
vt 0 0
vt -0.02001953 -0.9655151
vt -0.02001953 -0.9655151
vt -0.6200013 -0.961039
vt -0.6200013 -0.961039
vt 0.4299683 -0.9688728
vt 0.4299683 -0.9688728
vt -0.02001953 -0.9655151
vt -0.02001953 -0.9655151
vt 0.01425781 -1.741055
vt 0.01425781 -1.741055
vt -0.5816223 -1.811251
vt -0.5816223 -1.811251
vt 0.4611633 -1.688409
vt 0.4611633 -1.688409
vt 0.01425781 -1.741055
vt 0.01425781 -1.741055
vt 0.1465515 -2.350743
vt 0.1465515 -2.350743
vt -0.4211853 -2.544845
vt -0.4211853 -2.544845
vt 0.5723511 -2.205168
vt 0.5723511 -2.205168
vt 0.1465515 -2.350743
vt 0.1465515 -2.350743
vt 0.3854553 -2.837544
vt 0.3854553 -2.837544
vt -0.1139038 -3.170169
vt -0.1139038 -3.170169
vt 0.7599792 -2.588075
vt 0.7599792 -2.588075
vt 0.3854553 -2.837544
vt 0.3854553 -2.837544
vt 0.7578918 -3.267369
vt 0.7578918 -3.267369
vt 0.3519897 -3.709233
vt 0.3519897 -3.709233
vt 1.062317 -2.935971
vt 1.062317 -2.935971
vt 0.7578918 -3.267369
vt 0.7578918 -3.267369
vt 1.293836 -3.667383
vt 1.293836 -3.667383
vt 0.9783753 -4.17776
vt 0.9783753 -4.17776
vt 1.530432 -3.284599
vt 1.530432 -3.284599
vt 1.293836 -3.667383
vt 1.293836 -3.667383
vt 1.97204 -4.01992
vt 1.97204 -4.01992
vt 1.730115 -4.568984
vt 1.730115 -4.568984
vt 2.153491 -3.608124
vt 2.153491 -3.608124
vt 1.97204 -4.01992
vt 1.97204 -4.01992
vt 2.7495 -4.313858
vt 2.7495 -4.313858
vt 2.564111 -4.884498
vt 2.564111 -4.884498
vt 2.888544 -3.885876
vt 2.888544 -3.885876
vt 2.7495 -4.313858
vt 2.7495 -4.313858
vt 3.591217 -4.550874
vt 3.591217 -4.550874
vt 3.449292 -5.133847
vt 3.449292 -5.133847
vt 3.697662 -4.113644
vt 3.697662 -4.113644
vt 3.591217 -4.550874
vt 3.591217 -4.550874

usemtl GSDShoulder1
usemap GSDShoulder1
f 9/9/9 1/1/1 3/3/3
f 11/11/11 9/9/9 3/3/3
f 13/13/13 5/5/5 7/7/7
f 15/15/15 13/13/13 7/7/7
f 17/17/17 9/9/9 11/11/11
f 19/19/19 17/17/17 11/11/11
f 21/21/21 13/13/13 15/15/15
f 23/23/23 21/21/21 15/15/15
f 25/25/25 17/17/17 19/19/19
f 27/27/27 25/25/25 19/19/19
f 29/29/29 21/21/21 23/23/23
f 31/31/31 29/29/29 23/23/23
f 33/33/33 25/25/25 27/27/27
f 35/35/35 33/33/33 27/27/27
f 37/37/37 29/29/29 31/31/31
f 39/39/39 37/37/37 31/31/31
f 41/41/41 33/33/33 35/35/35
f 43/43/43 41/41/41 35/35/35
f 45/45/45 37/37/37 39/39/39
f 47/47/47 45/45/45 39/39/39
f 49/49/49 41/41/41 43/43/43
f 51/51/51 49/49/49 43/43/43
f 53/53/53 45/45/45 47/47/47
f 55/55/55 53/53/53 47/47/47
f 57/57/57 49/49/49 51/51/51
f 59/59/59 57/57/57 51/51/51
f 61/61/61 53/53/53 55/55/55
f 63/63/63 61/61/61 55/55/55
f 65/65/65 57/57/57 59/59/59
f 67/67/67 65/65/65 59/59/59
f 69/69/69 61/61/61 63/63/63
f 71/71/71 69/69/69 63/63/63
f 73/73/73 65/65/65 67/67/67
f 75/75/75 73/73/73 67/67/67
f 77/77/77 69/69/69 71/71/71
f 79/79/79 77/77/77 71/71/71
