mtllib ./Road1_0_77.mtl
g SCutL6
v -420.8029 0.03 274.4197
v -420.8029 0.03 274.4197
v -420.0866 0.03 277.3329
v -420.0866 0.03 277.3329
v -421.34 -0.35 272.2347
v -421.34 -0.35 272.2347
v -420.8029 0.03 274.4197
v -420.8029 0.03 274.4197
v -415.1982 0.03 273.2614
v -415.1982 0.03 273.2614
v -414.7162 0.03 276.2225
v -414.7162 0.03 276.2225
v -415.5598 -0.35 271.0407
v -415.5598 -0.35 271.0407
v -415.1982 0.03 273.2614
v -415.1982 0.03 273.2614
v -409.5346 0.03 272.5707
v -409.5346 0.03 272.5707
v -409.2751 0.03 275.5595
v -409.2751 0.03 275.5595
v -409.7292 -0.35 270.3292
v -409.7292 -0.35 270.3292
v -409.5346 0.03 272.5707
v -409.5346 0.03 272.5707
v -404.1068 0.03 272.2388
v -404.1068 0.03 272.2388
v -403.9916 0.03 275.2366
v -403.9916 0.03 275.2366
v -404.1932 -0.35 269.9904
v -404.1932 -0.35 269.9904
v -404.1068 0.03 272.2388
v -404.1068 0.03 272.2388
v -398.7586 0.03 272.129
v -398.7586 0.03 272.129
v -398.7455 0.03 275.129
v -398.7455 0.03 275.129
v -398.7685 -0.35 269.879
v -398.7685 -0.35 269.879
v -398.7586 0.03 272.129
v -398.7586 0.03 272.129
v -393.4995 0.03 272.1745
v -393.4995 0.03 272.1745
v -393.5612 0.03 275.1739
v -393.5612 0.03 275.1739
v -393.4532 -0.35 269.925
v -393.4532 -0.35 269.925
v -393.4995 0.03 272.1745
v -393.4995 0.03 272.1745
v -388.3203 0.03 272.332
v -388.3203 0.03 272.332
v -388.4386 0.03 275.3297
v -388.4386 0.03 275.3297
v -388.2315 -0.35 270.0838
v -388.2315 -0.35 270.0838
v -388.3203 0.03 272.332
v -388.3203 0.03 272.332
v -383.1935 0.03 272.5734
v -383.1935 0.03 272.5734
v -383.3556 0.03 275.569
v -383.3556 0.03 275.569
v -383.0719 -0.35 270.3267
v -383.0719 -0.35 270.3267
v -383.1935 0.03 272.5734
v -383.1935 0.03 272.5734
v -378.077 0.03 272.8812
v -378.077 0.03 272.8812
v -378.2737 0.03 275.8747
v -378.2737 0.03 275.8747
v -377.9295 -0.35 270.636
v -377.9295 -0.35 270.636
v -378.077 0.03 272.8812
v -378.077 0.03 272.8812
v -373.0013 0.03 273.2386
v -373.0013 0.03 273.2386
v -373.225 0.03 276.2303
v -373.225 0.03 276.2303
v -372.8334 -0.35 270.9949
v -372.8334 -0.35 270.9949
v -373.0013 0.03 273.2386
v -373.0013 0.03 273.2386
v -367.9066 0.03 273.6388
v -367.9066 0.03 273.6388
v -368.1518 0.03 276.6288
v -368.1518 0.03 276.6288
v -367.7227 -0.35 271.3964
v -367.7227 -0.35 271.3964
v -367.9066 0.03 273.6388
v -367.9066 0.03 273.6388
v -362.8145 0.03 274.0711
v -362.8145 0.03 274.0711
v -363.0761 0.03 277.0597
v -363.0761 0.03 277.0597
v -362.6183 -0.35 271.8297
v -362.6183 -0.35 271.8297
v -362.8145 0.03 274.0711
v -362.8145 0.03 274.0711
v -357.7443 0.03 274.5259
v -357.7443 0.03 274.5259
v -358.0181 0.03 277.5134
v -358.0181 0.03 277.5134
v -357.539 -0.35 272.2853
v -357.539 -0.35 272.2853
v -357.7443 0.03 274.5259
v -357.7443 0.03 274.5259
v -352.7141 0.03 274.9944
v -352.7141 0.03 274.9944
v -352.9962 0.03 277.9811
v -352.9962 0.03 277.9811
v -352.5025 -0.35 272.7544
v -352.5025 -0.35 272.7544
v -352.7141 0.03 274.9944
v -352.7141 0.03 274.9944
v -347.6501 0.03 275.4776
v -347.6501 0.03 275.4776
v -347.9372 0.03 278.4638
v -347.9372 0.03 278.4638
v -347.4347 -0.35 273.2379
v -347.4347 -0.35 273.2379
v -347.6501 0.03 275.4776
v -347.6501 0.03 275.4776
v -342.6582 0.03 275.9595
v -342.6582 0.03 275.9595
v -342.9471 0.03 278.9456
v -342.9471 0.03 278.9456
v -342.4415 -0.35 273.7199
v -342.4415 -0.35 273.7199
v -342.6582 0.03 275.9595
v -342.6582 0.03 275.9595
v -337.6625 0.03 276.4422
v -337.6625 0.03 276.4422
v -337.9501 0.03 279.4283
v -337.9501 0.03 279.4283
v -337.4468 -0.35 274.2025
v -337.4468 -0.35 274.2025
v -337.6625 0.03 276.4422
v -337.6625 0.03 276.4422
v -332.6772 0.03 276.919
v -332.6772 0.03 276.919
v -332.9604 0.03 279.9056
v -332.9604 0.03 279.9056
v -332.4648 -0.35 274.679
v -332.4648 -0.35 274.679
v -332.6772 0.03 276.919
v -332.6772 0.03 276.919
v -327.7168 0.03 277.3836
v -327.7168 0.03 277.3836
v -327.9925 0.03 280.3709
v -327.9925 0.03 280.3709
v -327.51 -0.35 275.1431
v -327.51 -0.35 275.1431
v -327.7168 0.03 277.3836
v -327.7168 0.03 277.3836
v -322.7075 0.03 277.8372
v -322.7075 0.03 277.8372
v -322.9722 0.03 280.8254
v -322.9722 0.03 280.8254
v -322.5089 -0.35 275.5959
v -322.5089 -0.35 275.5959
v -322.7075 0.03 277.8372
v -322.7075 0.03 277.8372
v -317.7553 0.03 278.2643
v -317.7553 0.03 278.2643
v -318.0055 0.03 281.2538
v -318.0055 0.03 281.2538
v -317.5677 -0.35 276.0221
v -317.5677 -0.35 276.0221
v -317.7553 0.03 278.2643
v -317.7553 0.03 278.2643
v -312.7899 0.03 278.6648
v -312.7899 0.03 278.6648
v -313.0214 0.03 281.6559
v -313.0214 0.03 281.6559
v -312.6162 -0.35 276.4215
v -312.6162 -0.35 276.4215
v -312.7899 0.03 278.6648
v -312.7899 0.03 278.6648
v -307.8326 0.03 279.0296
v -307.8326 0.03 279.0296
v -308.0406 0.03 282.0224
v -308.0406 0.03 282.0224
v -307.6766 -0.35 276.785
v -307.6766 -0.35 276.785
v -307.8326 0.03 279.0296
v -307.8326 0.03 279.0296
v -302.9078 0.03 279.3488
v -302.9078 0.03 279.3488
v -303.0868 0.03 282.3435
v -303.0868 0.03 282.3435
v -302.7736 -0.35 277.1028
v -302.7736 -0.35 277.1028
v -302.9078 0.03 279.3488
v -302.9078 0.03 279.3488
v -297.962 0.03 279.6155
v -297.962 0.03 279.6155
v -298.1048 0.03 282.6121
v -298.1048 0.03 282.6121
v -297.8549 -0.35 277.3681
v -297.8549 -0.35 277.3681
v -297.962 0.03 279.6155
v -297.962 0.03 279.6155
v -293.0334 0.03 279.8147
v -293.0334 0.03 279.8147
v -293.1312 0.03 282.8131
v -293.1312 0.03 282.8131
v -292.9601 -0.35 277.5659
v -292.9601 -0.35 277.5659
v -293.0334 0.03 279.8147
v -293.0334 0.03 279.8147
v -288.1671 0.03 279.9296
v -288.1671 0.03 279.9296
v -288.2088 0.03 282.9293
v -288.2088 0.03 282.9293
v -288.1359 -0.35 277.6798
v -288.1359 -0.35 277.6798
v -288.1671 0.03 279.9296
v -288.1671 0.03 279.9296
v -283.346 0.03 279.9415
v -283.346 0.03 279.9415
v -283.3161 0.03 282.9414
v -283.3161 0.03 282.9414
v -283.3684 -0.35 277.6916
v -283.3684 -0.35 277.6916
v -283.346 0.03 279.9415
v -283.346 0.03 279.9415
v -278.5828 0.03 279.8234
v -278.5828 0.03 279.8234
v -278.4593 0.03 282.8209
v -278.4593 0.03 282.8209
v -278.6754 -0.35 277.5753
v -278.6754 -0.35 277.5753
v -278.5828 0.03 279.8234
v -278.5828 0.03 279.8234
v -273.9312 0.03 279.5392
v -273.9312 0.03 279.5392
v -273.6814 0.03 282.5288
v -273.6814 0.03 282.5288
v -274.1185 -0.35 277.297
v -274.1185 -0.35 277.297
v -273.9312 0.03 279.5392
v -273.9312 0.03 279.5392
v -269.4561 0.03 279.039
v -269.4561 0.03 279.039
v -269.0268 0.03 282.0081
v -269.0268 0.03 282.0081
v -269.7781 -0.35 276.8122
v -269.7781 -0.35 276.8122
v -269.4561 0.03 279.039
v -269.4561 0.03 279.039

vn -6.325453E-10 1 1.555107E-10
vn 0 0 0
vn -6.514019E-10 1 1.328706E-10
vn 0 0 0
vn -0.03371264 0.9860172 -0.1631979
vn 0 0 0
vn -0.03372224 0.9860144 -0.1632125
vn 0 0 0
vn -3.228573E-10 1 7.033705E-11
vn 0 0 0
vn 1.033937E-12 1 8.291974E-12
vn 0 0 0
vn -0.02917973 0.9860351 -0.1639612
vn 0 0 0
vn -0.02466232 0.9860358 -0.1646976
vn 0 0 0
vn 2.223311E-10 1 -2.770885E-11
vn 0 0 0
vn 1.145024E-10 1 -9.942496E-12
vn 0 0 0
vn -0.01693866 0.9860311 -0.1656976
vn 0 0 0
vn -0.01358963 0.9860362 -0.165975
vn 0 0 0
vn 0 1 0
vn 0 0 0
vn 0 0.9999999 0
vn 0 0 0
vn -0.007939124 0.9860342 -0.1663533
vn 0 0 0
vn -0.005682808 0.9860361 -0.1664346
vn 0 0 0
vn 1.174873E-10 1 -5.163067E-13
vn 0 0 0
vn 2.374123E-10 1 1.918988E-12
vn 0 0 0
vn -0.00181381 0.9860353 -0.1665266
vn 0 0 0
vn -0.0001915064 0.9860362 -0.1665313
vn 0 0 0
vn 1.192123E-10 1 -5.238874E-13
vn 0 0 0
vn -1.201523E-10 1 -4.742338E-12
vn 0 0 0
vn 0.002638249 0.9860358 -0.166513
vn 0 0 0
vn 0.003846915 0.9860361 -0.1664873
vn 0 0 0
vn -2.411797E-10 1 -7.238631E-12
vn 0 0 0
vn -1.212862E-10 0.9999999 -4.787092E-12
vn 0 0 0
vn 0.005981524 0.9860358 -0.1664258
vn 0 0 0
vn 0.006905335 0.9860362 -0.1663886
vn 0 0 0
vn 0 1 0
vn 0 0 0
vn 0 1 0
vn 0 0 0
vn 0.008554262 0.986036 -0.1663124
vn 0 0 0
vn 0.009276705 0.9860363 -0.1662719
vn 0 0 0
vn 0 1 0
vn 0 0 0
vn 0 1 0
vn 0 0 0
vn 0.01056295 0.9860363 -0.166195
vn 0 0 0
vn 0.01113058 0.9860365 -0.166157
vn 0 0 0
vn 0 0.9999999 0
vn 0 0 0
vn 0 0.9999999 0
vn 0 0 0
vn 0.01214856 0.9860364 -0.1660861
vn 0 0 0
vn 0.0125957 0.9860364 -0.1660532
vn 0 0 0
vn 0 1 0
vn 0 0 0
vn 0 1 0
vn 0 0 0
vn 0.01338971 0.9860362 -0.1659918
vn 0 0 0
vn 0.01373819 0.9860362 -0.1659635
vn 0 0 0
vn 0 0.9999999 0
vn 0 0 0
vn 0 1 0
vn 0 0 0
vn 0.01434957 0.9860362 -0.1659118
vn 0 0 0
vn 0.01461357 0.9860362 -0.1658879
vn 0 0 0
vn 1.218636E-10 1 1.116769E-11
vn 0 0 0
vn 2.444508E-10 0.9999999 2.274669E-11
vn 0 0 0
vn 0.01506609 0.9860364 -0.1658469
vn 0 0 0
vn 0.01525514 0.9860364 -0.1658296
vn 0 0 0
vn 2.443096E-10 1 2.273356E-11
vn 0 0 0
vn 1.218975E-10 0.9999999 1.151492E-11
vn 0 0 0
vn 0.01556918 0.9860363 -0.1658011
vn 0 0 0
vn 0.01569295 0.9860362 -0.1657894
vn 0 0 0
vn -1.221076E-10 1 -1.174118E-11
vn 0 0 0
vn -2.453997E-10 1 -2.366972E-11
vn 0 0 0
vn 0.01587752 0.9860363 -0.1657714
vn 0 0 0
vn 0.01593954 0.9860365 -0.1657647
vn 0 0 0
vn -2.46428E-10 1 -2.376891E-11
vn 0 0 0
vn -1.231675E-10 1 -1.191684E-11
vn 0 0 0
vn 0.01600661 0.9860365 -0.1657582
vn 0 0 0
vn 0.01601099 0.9860364 -0.1657585
vn 0 0 0
vn 1.232157E-10 1 1.186687E-11
vn 0 0 0
vn 2.465566E-10 1 2.356269E-11
vn 0 0 0
vn 0.01596223 0.9860362 -0.1657641
vn 0 0 0
vn 0.01590894 0.9860362 -0.1657695
vn 0 0 0
vn -1.768158E-14 1 1.818676E-13
vn 0 0 0
vn -3.713134E-10 1 -3.458448E-11
vn 0 0 0
vn 0.01574755 0.9860364 -0.1657842
vn 0 0 0
vn 0.01563887 0.9860363 -0.1657942
vn 0 0 0
vn -3.708552E-10 1 -3.485396E-11
vn 0 0 0
vn 4.026042E-14 0.9999999 -4.529297E-13
vn 0 0 0
vn 0.01535746 0.9860362 -0.1658207
vn 0 0 0
vn 0.01518636 0.9860364 -0.1658364
vn 0 0 0
vn 2.46667E-10 1 2.230998E-11
vn 0 0 0
vn 1.237204E-10 1 1.096073E-11
vn 0 0 0
vn 0.01478287 0.9860364 -0.1658723
vn 0 0 0
vn 0.01454721 0.9860364 -0.1658932
vn 0 0 0
vn 1.242638E-10 1 1.039908E-11
vn 0 0 0
vn 2.480953E-10 1 1.998202E-11
vn 0 0 0
vn 0.01400324 0.9860364 -0.1659405
vn 0 0 0
vn 0.0136969 0.9860362 -0.1659668
vn 0 0 0
vn 2.483363E-10 0.9999999 2.000143E-11
vn 0 0 0
vn 1.240947E-10 1 9.604863E-12
vn 0 0 0
vn 0.01300232 0.9860362 -0.1660226
vn 0 0 0
vn 0.01261254 0.9860363 -0.1660524
vn 0 0 0
vn 0 0.9999999 0
vn 0 0 0
vn 0 1 0
vn 0 0 0
vn 0.01174163 0.9860363 -0.1661157
vn 0 0 0
vn 0.01125791 0.9860364 -0.1661498
vn 0 0 0
vn -1.251899E-10 1 -7.482382E-12
vn 0 0 0
vn -2.49552E-10 1 -1.340286E-11
vn 0 0 0
vn 0.01016974 0.9860361 -0.1662204
vn 0 0 0
vn 0.00956792 0.986036 -0.1662573
vn 0 0 0
vn -1.250006E-10 0.9999999 -7.471066E-12
vn 0 0 0
vn 1.249494E-10 1 4.073372E-12
vn 0 0 0
vn 0.008223709 0.9860361 -0.1663286
vn 0 0 0
vn 0.007476042 0.9860361 -0.166364
vn 0 0 0
vn 1.259046E-10 1 5.999486E-12
vn 0 0 0
vn -1.261117E-10 1 -1.750002E-12
vn 0 0 0
vn 0.005805276 0.9860363 -0.1664296
vn 0 0 0
vn 0.004873547 0.9860361 -0.1664602
vn 0 0 0
vn -2.548697E-10 1 -5.922227E-12
vn 0 0 0
vn -1.272462E-10 1 -1.765744E-12
vn 0 0 0
vn 0.002771272 0.9860364 -0.1665075
vn 0 0 0
vn 0.001597182 0.9860359 -0.1665244
vn 0 0 0
vn 1.286528E-10 1 -1.282615E-12
vn 0 0 0
vn 2.565528E-10 1 -6.56134E-12
vn 0 0 0
vn -0.001079258 0.9860364 -0.1665263
vn 0 0 0
vn -0.00259464 0.9860358 -0.1665129
vn 0 0 0
vn 1.034882E-13 1 4.067881E-12
vn 0 0 0
vn -3.896768E-10 1 2.704648E-11
vn 0 0 0
vn -0.006089094 0.9860365 -0.1664185
vn 0 0 0
vn -0.008103635 0.9860352 -0.16634
vn 0 0 0
vn -5.330824E-10 0.9999999 3.323478E-11
vn 0 0 0
vn -2.657769E-10 1 2.220618E-11
vn 0 0 0
vn -0.01283487 0.9860362 -0.1660351
vn 0 0 0
vn -0.01562683 0.9860335 -0.1658121
vn 0 0 0
vn 0 1 0
vn 0 0 0
vn 0 0.9999999 0
vn 0 0 0
vn -0.01849969 0.9860238 -0.1655744
vn 0 0 0
vn -0.01850657 0.9860219 -0.1655846
vn 0 0 0

vt 0 0
vt 0 0
vt -0.1432434 0.5826477
vt -0.1432434 0.5826477
vt 0.1074341 -0.4369873
vt 0.1074341 -0.4369873
vt 0 0
vt 0 0
vt -1.120923 -0.2316467
vt -1.120923 -0.2316467
vt -1.217322 0.3605591
vt -1.217322 0.3605591
vt -1.048621 -0.6757995
vt -1.048621 -0.6757995
vt -1.120923 -0.2316467
vt -1.120923 -0.2316467
vt -2.25365 -0.3697876
vt -2.25365 -0.3697876
vt -2.305554 0.2279663
vt -2.305554 0.2279663
vt -2.214728 -0.8180969
vt -2.214728 -0.8180969
vt -2.25365 -0.3697876
vt -2.25365 -0.3697876
vt -3.339215 -0.4361816
vt -3.339215 -0.4361816
vt -3.362256 0.1633789
vt -3.362256 0.1633789
vt -3.321936 -0.885846
vt -3.321936 -0.885846
vt -3.339215 -0.4361816
vt -3.339215 -0.4361816
vt -4.408844 -0.458136
vt -4.408844 -0.458136
vt -4.411481 0.1418579
vt -4.411481 0.1418579
vt -4.406873 -0.9081299
vt -4.406873 -0.9081299
vt -4.408844 -0.458136
vt -4.408844 -0.458136
vt -5.460669 -0.4490356
vt -5.460669 -0.4490356
vt -5.448334 0.1508423
vt -5.448334 0.1508423
vt -5.469928 -0.898938
vt -5.469928 -0.898938
vt -5.460669 -0.4490356
vt -5.460669 -0.4490356
vt -6.496521 -0.4175293
vt -6.496521 -0.4175293
vt -6.472858 0.1820068
vt -6.472858 0.1820068
vt -6.514264 -0.8671753
vt -6.514264 -0.8671753
vt -6.496521 -0.4175293
vt -6.496521 -0.4175293
vt -7.521875 -0.3692505
vt -7.521875 -0.3692505
vt -7.489447 0.2298706
vt -7.489447 0.2298706
vt -7.546197 -0.8185913
vt -7.546197 -0.8185913
vt -7.521875 -0.3692505
vt -7.521875 -0.3692505
vt -8.545166 -0.3077026
vt -8.545166 -0.3077026
vt -8.505829 0.2910034
vt -8.505829 0.2910034
vt -8.574671 -0.7567383
vt -8.574671 -0.7567383
vt -8.545166 -0.3077026
vt -8.545166 -0.3077026
vt -9.560321 -0.2362061
vt -9.560321 -0.2362061
vt -9.515564 0.3621216
vt -9.515564 0.3621216
vt -9.59389 -0.6849548
vt -9.59389 -0.6849548
vt -9.560321 -0.2362061
vt -9.560321 -0.2362061
vt -10.57924 -0.1561707
vt -10.57924 -0.1561707
vt -10.53021 0.4418274
vt -10.53021 0.4418274
vt -10.61602 -0.6046631
vt -10.61602 -0.6046631
vt -10.57924 -0.1561707
vt -10.57924 -0.1561707
vt -11.59767 -0.06971436
vt -11.59767 -0.06971436
vt -11.54535 0.5280029
vt -11.54535 0.5280029
vt -11.63691 -0.5179993
vt -11.63691 -0.5179993
vt -11.59767 -0.06971436
vt -11.59767 -0.06971436
vt -12.61171 0.02124634
vt -12.61171 0.02124634
vt -12.55695 0.6187378
vt -12.55695 0.6187378
vt -12.65277 -0.4268799
vt -12.65277 -0.4268799
vt -12.61171 0.02124634
vt -12.61171 0.02124634
vt -13.61775 0.1149536
vt -13.61775 0.1149536
vt -13.56132 0.7122925
vt -13.56132 0.7122925
vt -13.66007 -0.3330505
vt -13.66007 -0.3330505
vt -13.61775 0.1149536
vt -13.61775 0.1149536
vt -14.63056 0.2115845
vt -14.63056 0.2115845
vt -14.57313 0.8088318
vt -14.57313 0.8088318
vt -14.67363 -0.2363525
vt -14.67363 -0.2363525
vt -14.63056 0.2115845
vt -14.63056 0.2115845
vt -15.62893 0.3079651
vt -15.62893 0.3079651
vt -15.57115 0.9051758
vt -15.57115 0.9051758
vt -15.67227 -0.1399475
vt -15.67227 -0.1399475
vt -15.62893 0.3079651
vt -15.62893 0.3079651
vt -16.62808 0.4044983
vt -16.62808 0.4044983
vt -16.57056 1.001733
vt -16.57056 1.001733
vt -16.67121 -0.04342651
vt -16.67121 -0.04342651
vt -16.62808 0.4044983
vt -16.62808 0.4044983
vt -17.62513 0.4998657
vt -17.62513 0.4998657
vt -17.56849 1.097186
vt -17.56849 1.097186
vt -17.66762 0.05187378
vt -17.66762 0.05187378
vt -17.62513 0.4998657
vt -17.62513 0.4998657
vt -18.61722 0.5927857
vt -18.61722 0.5927857
vt -18.56207 1.190247
vt -18.56207 1.190247
vt -18.65857 0.1446899
vt -18.65857 0.1446899
vt -18.61722 0.5927857
vt -18.61722 0.5927857
vt -19.61907 0.6834961
vt -19.61907 0.6834961
vt -19.56613 1.281152
vt -19.56613 1.281152
vt -19.65878 0.2352478
vt -19.65878 0.2352478
vt -19.61907 0.6834961
vt -19.61907 0.6834961
vt -20.60951 0.7689148
vt -20.60951 0.7689148
vt -20.55947 1.366827
vt -20.55947 1.366827
vt -20.64704 0.3204834
vt -20.64704 0.3204834
vt -20.60951 0.7689148
vt -20.60951 0.7689148
vt -21.6026 0.8490295
vt -21.6026 0.8490295
vt -21.5563 1.447241
vt -21.5563 1.447241
vt -21.63732 0.4003723
vt -21.63732 0.4003723
vt -21.6026 0.8490295
vt -21.6026 0.8490295
vt -22.59406 0.921991
vt -22.59406 0.921991
vt -22.55245 1.520544
vt -22.55245 1.520544
vt -22.62526 0.4730713
vt -22.62526 0.4730713
vt -22.59406 0.921991
vt -22.59406 0.921991
vt -23.57901 0.9858276
vt -23.57901 0.9858276
vt -23.54321 1.58476
vt -23.54321 1.58476
vt -23.60586 0.5366333
vt -23.60586 0.5366333
vt -23.57901 0.9858276
vt -23.57901 0.9858276
vt -24.56817 1.039166
vt -24.56817 1.039166
vt -24.53961 1.638489
vt -24.53961 1.638489
vt -24.58959 0.5896789
vt -24.58959 0.5896789
vt -24.56817 1.039166
vt -24.56817 1.039166
vt -25.55389 1.079004
vt -25.55389 1.079004
vt -25.53434 1.67868
vt -25.53434 1.67868
vt -25.56856 0.6292419
vt -25.56856 0.6292419
vt -25.55389 1.079004
vt -25.55389 1.079004
vt -26.52714 1.101984
vt -26.52714 1.101984
vt -26.51882 1.701929
vt -26.51882 1.701929
vt -26.53339 0.6520264
vt -26.53339 0.6520264
vt -26.52714 1.101984
vt -26.52714 1.101984
vt -27.49138 1.10437
vt -27.49138 1.10437
vt -27.49736 1.70434
vt -27.49736 1.70434
vt -27.48689 0.6543884
vt -27.48689 0.6543884
vt -27.49138 1.10437
vt -27.49138 1.10437
vt -28.44401 1.08075
vt -28.44401 1.08075
vt -28.46871 1.680243
vt -28.46871 1.680243
vt -28.4255 0.631128
vt -28.4255 0.631128
vt -28.44401 1.08075
vt -28.44401 1.08075
vt -29.37434 1.023901
vt -29.37434 1.023901
vt -29.4243 1.62182
vt -29.4243 1.62182
vt -29.33687 0.5754639
vt -29.33687 0.5754639
vt -29.37434 1.023901
vt -29.37434 1.023901
vt -30.26935 0.9238709
vt -30.26935 0.9238709
vt -30.35521 1.517694
vt -30.35521 1.517694
vt -30.20496 0.4785034
vt -30.20496 0.4785034
vt -30.26935 0.9238709
vt -30.26935 0.9238709

usemtl GSDShoulder1
usemap GSDShoulder1
f 9/9/9 1/1/1 3/3/3
f 11/11/11 9/9/9 3/3/3
f 13/13/13 5/5/5 7/7/7
f 15/15/15 13/13/13 7/7/7
f 17/17/17 9/9/9 11/11/11
f 19/19/19 17/17/17 11/11/11
f 21/21/21 13/13/13 15/15/15
f 23/23/23 21/21/21 15/15/15
f 25/25/25 17/17/17 19/19/19
f 27/27/27 25/25/25 19/19/19
f 29/29/29 21/21/21 23/23/23
f 31/31/31 29/29/29 23/23/23
f 33/33/33 25/25/25 27/27/27
f 35/35/35 33/33/33 27/27/27
f 37/37/37 29/29/29 31/31/31
f 39/39/39 37/37/37 31/31/31
f 41/41/41 33/33/33 35/35/35
f 43/43/43 41/41/41 35/35/35
f 45/45/45 37/37/37 39/39/39
f 47/47/47 45/45/45 39/39/39
f 49/49/49 41/41/41 43/43/43
f 51/51/51 49/49/49 43/43/43
f 53/53/53 45/45/45 47/47/47
f 55/55/55 53/53/53 47/47/47
f 57/57/57 49/49/49 51/51/51
f 59/59/59 57/57/57 51/51/51
f 61/61/61 53/53/53 55/55/55
f 63/63/63 61/61/61 55/55/55
f 65/65/65 57/57/57 59/59/59
f 67/67/67 65/65/65 59/59/59
f 69/69/69 61/61/61 63/63/63
f 71/71/71 69/69/69 63/63/63
f 73/73/73 65/65/65 67/67/67
f 75/75/75 73/73/73 67/67/67
f 77/77/77 69/69/69 71/71/71
f 79/79/79 77/77/77 71/71/71
f 81/81/81 73/73/73 75/75/75
f 83/83/83 81/81/81 75/75/75
f 85/85/85 77/77/77 79/79/79
f 87/87/87 85/85/85 79/79/79
f 89/89/89 81/81/81 83/83/83
f 91/91/91 89/89/89 83/83/83
f 93/93/93 85/85/85 87/87/87
f 95/95/95 93/93/93 87/87/87
f 97/97/97 89/89/89 91/91/91
f 99/99/99 97/97/97 91/91/91
f 101/101/101 93/93/93 95/95/95
f 103/103/103 101/101/101 95/95/95
f 105/105/105 97/97/97 99/99/99
f 107/107/107 105/105/105 99/99/99
f 109/109/109 101/101/101 103/103/103
f 111/111/111 109/109/109 103/103/103
f 113/113/113 105/105/105 107/107/107
f 115/115/115 113/113/113 107/107/107
f 117/117/117 109/109/109 111/111/111
f 119/119/119 117/117/117 111/111/111
f 121/121/121 113/113/113 115/115/115
f 123/123/123 121/121/121 115/115/115
f 125/125/125 117/117/117 119/119/119
f 127/127/127 125/125/125 119/119/119
f 129/129/129 121/121/121 123/123/123
f 131/131/131 129/129/129 123/123/123
f 133/133/133 125/125/125 127/127/127
f 135/135/135 133/133/133 127/127/127
f 137/137/137 129/129/129 131/131/131
f 139/139/139 137/137/137 131/131/131
f 141/141/141 133/133/133 135/135/135
f 143/143/143 141/141/141 135/135/135
f 145/145/145 137/137/137 139/139/139
f 147/147/147 145/145/145 139/139/139
f 149/149/149 141/141/141 143/143/143
f 151/151/151 149/149/149 143/143/143
f 153/153/153 145/145/145 147/147/147
f 155/155/155 153/153/153 147/147/147
f 157/157/157 149/149/149 151/151/151
f 159/159/159 157/157/157 151/151/151
f 161/161/161 153/153/153 155/155/155
f 163/163/163 161/161/161 155/155/155
f 165/165/165 157/157/157 159/159/159
f 167/167/167 165/165/165 159/159/159
f 169/169/169 161/161/161 163/163/163
f 171/171/171 169/169/169 163/163/163
f 173/173/173 165/165/165 167/167/167
f 175/175/175 173/173/173 167/167/167
f 177/177/177 169/169/169 171/171/171
f 179/179/179 177/177/177 171/171/171
f 181/181/181 173/173/173 175/175/175
f 183/183/183 181/181/181 175/175/175
f 185/185/185 177/177/177 179/179/179
f 187/187/187 185/185/185 179/179/179
f 189/189/189 181/181/181 183/183/183
f 191/191/191 189/189/189 183/183/183
f 193/193/193 185/185/185 187/187/187
f 195/195/195 193/193/193 187/187/187
f 197/197/197 189/189/189 191/191/191
f 199/199/199 197/197/197 191/191/191
f 201/201/201 193/193/193 195/195/195
f 203/203/203 201/201/201 195/195/195
f 205/205/205 197/197/197 199/199/199
f 207/207/207 205/205/205 199/199/199
f 209/209/209 201/201/201 203/203/203
f 211/211/211 209/209/209 203/203/203
f 213/213/213 205/205/205 207/207/207
f 215/215/215 213/213/213 207/207/207
f 217/217/217 209/209/209 211/211/211
f 219/219/219 217/217/217 211/211/211
f 221/221/221 213/213/213 215/215/215
f 223/223/223 221/221/221 215/215/215
f 225/225/225 217/217/217 219/219/219
f 227/227/227 225/225/225 219/219/219
f 229/229/229 221/221/221 223/223/223
f 231/231/231 229/229/229 223/223/223
f 233/233/233 225/225/225 227/227/227
f 235/235/235 233/233/233 227/227/227
f 237/237/237 229/229/229 231/231/231
f 239/239/239 237/237/237 231/231/231
f 241/241/241 233/233/233 235/235/235
f 243/243/243 241/241/241 235/235/235
f 245/245/245 237/237/237 239/239/239
f 247/247/247 245/245/245 239/239/239
