mtllib ./Road1_0_54.mtl
g SCutR2
v -274.2278 0.03 413.016
v -274.2278 0.03 413.016
v -271.3514 0.03 413.8682
v -271.3514 0.03 413.8682
v -271.3514 0.03 413.8682
v -271.3514 0.03 413.8682
v -269.1941 -0.35 414.5074
v -269.1941 -0.35 414.5074
v -272.9092 0.03 407.4555
v -272.9092 0.03 407.4555
v -269.9523 0.03 407.9619
v -269.9523 0.03 407.9619
v -269.9523 0.03 407.9619
v -269.9523 0.03 407.9619
v -267.7346 -0.35 408.3418
v -267.7346 -0.35 408.3418
v -272.4258 0.03 401.2637
v -272.4258 0.03 401.2637
v -269.4272 0.03 401.173
v -269.4272 0.03 401.173
v -269.4272 0.03 401.173
v -269.4272 0.03 401.173
v -267.1783 -0.35 401.1049
v -267.1783 -0.35 401.1049
v -273.7226 0.03 394.4121
v -273.7226 0.03 394.4121
v -270.9117 0.03 393.3638
v -270.9117 0.03 393.3638
v -270.9117 0.03 393.3638
v -270.9117 0.03 393.3638
v -268.8036 -0.35 392.5775
v -268.8036 -0.35 392.5775
v -277.3589 0.03 388.3096
v -277.3589 0.03 388.3096
v -275.0856 0.03 386.3521
v -275.0856 0.03 386.3521
v -275.0856 0.03 386.3521
v -275.0856 0.03 386.3521
v -273.3806 -0.35 384.8839
v -273.3806 -0.35 384.8839
v -282.2708 0.03 383.9597
v -282.2708 0.03 383.9597
v -280.5652 0.03 381.4918
v -280.5652 0.03 381.4918
v -280.5652 0.03 381.4918
v -280.5652 0.03 381.4918
v -279.286 -0.35 379.6408
v -279.286 -0.35 379.6408
v -287.4215 0.03 381.0024
v -287.4215 0.03 381.0024
v -286.1216 0.03 378.2987
v -286.1216 0.03 378.2987
v -286.1216 0.03 378.2987
v -286.1216 0.03 378.2987
v -285.1467 -0.35 376.2709
v -285.1467 -0.35 376.2709
v -292.6199 0.03 378.8355
v -292.6199 0.03 378.8355
v -291.5969 0.03 376.0153
v -291.5969 0.03 376.0153
v -291.5969 0.03 376.0153
v -291.5969 0.03 376.0153
v -290.8296 -0.35 373.9002
v -290.8296 -0.35 373.9002
v -297.8903 0.03 377.1376
v -297.8903 0.03 377.1376
v -297.0636 0.03 374.2538
v -297.0636 0.03 374.2538
v -297.0636 0.03 374.2538
v -297.0636 0.03 374.2538
v -296.4436 -0.35 372.0909
v -296.4436 -0.35 372.0909
v -303.1531 0.03 375.7749
v -303.1531 0.03 375.7749
v -302.4693 0.03 372.8539
v -302.4693 0.03 372.8539
v -302.4693 0.03 372.8539
v -302.4693 0.03 372.8539
v -301.9564 -0.35 370.6631
v -301.9564 -0.35 370.6631

vn 0 1 0
vn 0 0 0
vn 0 1 0
vn 0 0 0
vn 0.1622878 0.9859942 0.0384452
vn 0 0 0
vn 0.1623262 0.985988 0.0384404
vn 0 0 0
vn 0 1 0
vn 0 0 0
vn 0 0.9999999 0
vn 0 0 0
vn 0.1638957 0.9860393 0.02940422
vn 0 0 0
vn 0.1654668 0.9859955 0.02082268
vn 0 0 0
vn 0 1 0
vn 0 0 0
vn 0 1 0
vn 0 0 0
vn 0.1664384 0.986047 -0.003073167
vn 0 0 0
vn 0.1661505 0.985936 -0.01799797
vn 0 0 0
vn -2.997975E-11 1 -8.038061E-11
vn 0 0 0
vn -8.163791E-11 1 -1.380811E-10
vn 0 0 0
vn 0.1591105 0.9860122 -0.04963603
vn 0 0 0
vn 0.1522983 0.9859911 -0.06801993
vn 0 0 0
vn -3.023764E-11 1 -8.107206E-11
vn 0 0 0
vn 7.02601E-11 1 4.855653E-11
vn 0 0 0
vn 0.1351653 0.9859339 -0.09830923
vn 0 0 0
vn 0.1239343 0.986045 -0.1111562
vn 0 0 0
vn 1.395428E-10 1 1.25461E-10
vn 0 0 0
vn 7.825559E-11 1 5.408219E-11
vn 0 0 0
vn 0.1030598 0.9859697 -0.1313108
vn 0 0 0
vn 0.09376867 0.986042 -0.1375808
vn 0 0 0
vn 0 0.9999999 0
vn 0 0 0
vn 0 1 0
vn 0 0 0
vn 0.07732143 0.9860132 -0.1476458
vn 0 0 0
vn 0.07101354 0.9860381 -0.150619
vn 0 0 0
vn 0 1 0
vn 0 0 0
vn 0 1 0
vn 0 0 0
vn 0.05997343 0.9860279 -0.1554099
vn 0 0 0
vn 0.05563214 0.9860365 -0.1569619
vn 0 0 0
vn 1.071628E-10 1 3.071951E-11
vn 0 0 0
vn 2.150753E-10 0.9999999 5.596634E-11
vn 0 0 0
vn 0.04807852 0.9860324 -0.1594635
vn 0 0 0
vn 0.04497151 0.9860361 -0.1603439
vn 0 0 0
vn 3.271396E-10 1 8.512743E-11
vn 0 0 0
vn 3.248735E-10 1 7.605589E-11
vn 0 0 0
vn 0.04176155 0.9860278 -0.1612607
vn 0 0 0
vn 0.04176233 0.9860288 -0.161255
vn 0 0 0

vt 0 0
vt 0 0
vt -0.5752808 0.1704407
vt -0.5752808 0.1704407
vt -0.5752808 0.1704407
vt -0.5752808 0.1704407
vt -1.006744 0.2982666
vt -1.006744 0.2982666
vt -0.2637207 -1.112097
vt -0.2637207 -1.112097
vt -0.8551148 -1.010816
vt -0.8551148 -1.010816
vt -0.8551148 -1.010816
vt -0.8551148 -1.010816
vt -1.298657 -0.9348511
vt -1.298657 -0.9348511
vt -0.3604004 -2.350464
vt -0.3604004 -2.350464
vt -0.9601257 -2.36861
vt -0.9601257 -2.36861
vt -0.9601257 -2.36861
vt -0.9601257 -2.36861
vt -1.409918 -2.382214
vt -1.409918 -2.382214
vt -0.1010498 -3.720776
vt -0.1010498 -3.720776
vt -0.6632202 -3.93045
vt -0.6632202 -3.93045
vt -0.6632202 -3.93045
vt -0.6632202 -3.93045
vt -1.084851 -4.087708
vt -1.084851 -4.087708
vt 0.6262207 -4.941284
vt 0.6262207 -4.941284
vt 0.1715576 -5.332794
vt 0.1715576 -5.332794
vt 0.1715576 -5.332794
vt 0.1715576 -5.332794
vt -0.1694397 -5.626422
vt -0.1694397 -5.626422
vt 1.608594 -5.811255
vt 1.608594 -5.811255
vt 1.267474 -6.304846
vt 1.267474 -6.304846
vt 1.267474 -6.304846
vt 1.267474 -6.304846
vt 1.011633 -6.675043
vt 1.011633 -6.675043
vt 2.638733 -6.402722
vt 2.638733 -6.402722
vt 2.378754 -6.94347
vt 2.378754 -6.94347
vt 2.378754 -6.94347
vt 2.378754 -6.94347
vt 2.183765 -7.34903
vt 2.183765 -7.34903
vt 3.678412 -6.836109
vt 3.678412 -6.836109
vt 3.47381 -7.400146
vt 3.47381 -7.400146
vt 3.47381 -7.400146
vt 3.47381 -7.400146
vt 3.320349 -7.823169
vt 3.320349 -7.823169
vt 4.732483 -7.175683
vt 4.732483 -7.175683
vt 4.567145 -7.752454
vt 4.567145 -7.752454
vt 4.567145 -7.752454
vt 4.567145 -7.752454
vt 4.443146 -8.185028
vt 4.443146 -8.185028
vt 5.785058 -7.448218
vt 5.785058 -7.448218
vt 5.648291 -8.032422
vt 5.648291 -8.032422
vt 5.648291 -8.032422
vt 5.648291 -8.032422
vt 5.545715 -8.470575
vt 5.545715 -8.470575

usemtl GSDShoulder1
usemap GSDShoulder1
f 9/9/9 1/1/1 3/3/3
f 11/11/11 9/9/9 3/3/3
f 13/13/13 5/5/5 7/7/7
f 15/15/15 13/13/13 7/7/7
f 17/17/17 9/9/9 11/11/11
f 19/19/19 17/17/17 11/11/11
f 21/21/21 13/13/13 15/15/15
f 23/23/23 21/21/21 15/15/15
f 25/25/25 17/17/17 19/19/19
f 27/27/27 25/25/25 19/19/19
f 29/29/29 21/21/21 23/23/23
f 31/31/31 29/29/29 23/23/23
f 33/33/33 25/25/25 27/27/27
f 35/35/35 33/33/33 27/27/27
f 37/37/37 29/29/29 31/31/31
f 39/39/39 37/37/37 31/31/31
f 41/41/41 33/33/33 35/35/35
f 43/43/43 41/41/41 35/35/35
f 45/45/45 37/37/37 39/39/39
f 47/47/47 45/45/45 39/39/39
f 49/49/49 41/41/41 43/43/43
f 51/51/51 49/49/49 43/43/43
f 53/53/53 45/45/45 47/47/47
f 55/55/55 53/53/53 47/47/47
f 57/57/57 49/49/49 51/51/51
f 59/59/59 57/57/57 51/51/51
f 61/61/61 53/53/53 55/55/55
f 63/63/63 61/61/61 55/55/55
f 65/65/65 57/57/57 59/59/59
f 67/67/67 65/65/65 59/59/59
f 69/69/69 61/61/61 63/63/63
f 71/71/71 69/69/69 63/63/63
f 73/73/73 65/65/65 67/67/67
f 75/75/75 73/73/73 67/67/67
f 77/77/77 69/69/69 71/71/71
f 79/79/79 77/77/77 71/71/71
