mtllib ./Road2_1_38.mtl
g SCutL3
v -425.3497 0.03 79.69081
v -425.3497 0.03 79.69081
v -424.778 0.03 82.63583
v -424.778 0.03 82.63583
v -425.7785 -0.67 77.48204
v -425.7785 -0.67 77.48204
v -425.3497 0.03 79.69081
v -425.3497 0.03 79.69081
v -419.8515 0.03 78.78058
v -419.8515 0.03 78.78058
v -419.4558 0.03 81.75437
v -419.4558 0.03 81.75437
v -420.1483 -0.67 76.55024
v -420.1483 -0.67 76.55024
v -419.8515 0.03 78.78058
v -419.8515 0.03 78.78058
v -414.287 0.03 78.23409
v -414.287 0.03 78.23409
v -414.0812 0.03 81.22702
v -414.0812 0.03 81.22702
v -414.4413 -0.67 75.98939
v -414.4413 -0.67 75.98939
v -414.287 0.03 78.23409
v -414.287 0.03 78.23409
v -408.9357 0.03 77.97851
v -408.9357 0.03 77.97851
v -408.8476 0.03 80.97722
v -408.8476 0.03 80.97722
v -409.0017 -0.67 75.72948
v -409.0017 -0.67 75.72948
v -408.9357 0.03 77.97851
v -408.9357 0.03 77.97851
v -403.6711 0.03 77.89873
v -403.6711 0.03 77.89873
v -403.6638 0.03 80.89871
v -403.6638 0.03 80.89871
v -403.6766 -0.67 75.64873
v -403.6766 -0.67 75.64873
v -403.6711 0.03 77.89873
v -403.6711 0.03 77.89873
v -398.4776 0.03 77.93896
v -398.4776 0.03 77.93896
v -398.5285 0.03 80.93853
v -398.5285 0.03 80.93853
v -398.4393 -0.67 75.68929
v -398.4393 -0.67 75.68929
v -398.4776 0.03 77.93896
v -398.4776 0.03 77.93896
v -393.3062 0.03 78.06625
v -393.3062 0.03 78.06625
v -393.4009 0.03 81.06476
v -393.4009 0.03 81.06476
v -393.2352 -0.67 75.81738
v -393.2352 -0.67 75.81738
v -393.3062 0.03 78.06625
v -393.3062 0.03 78.06625
v -388.147 0.03 78.25929
v -388.147 0.03 78.25929
v -388.2752 0.03 81.25655
v -388.2752 0.03 81.25655
v -388.0509 -0.67 76.01135
v -388.0509 -0.67 76.01135
v -388.147 0.03 78.25929
v -388.147 0.03 78.25929
v -383.0443 0.03 78.50029
v -383.0443 0.03 78.50029
v -383.1981 0.03 81.49635
v -383.1981 0.03 81.49635
v -382.929 -0.67 76.25324
v -382.929 -0.67 76.25324
v -383.0443 0.03 78.50029
v -383.0443 0.03 78.50029
v -377.9675 0.03 78.77819
v -377.9675 0.03 78.77819
v -378.1409 0.03 81.77318
v -378.1409 0.03 81.77318
v -377.8376 -0.67 76.53195
v -377.8376 -0.67 76.53195
v -377.9675 0.03 78.77819
v -377.9675 0.03 78.77819
v -372.8777 0.03 79.08595
v -372.8777 0.03 79.08595
v -373.0657 0.03 82.08006
v -373.0657 0.03 82.08006
v -372.7366 -0.67 76.84038
v -372.7366 -0.67 76.84038
v -372.8777 0.03 79.08595
v -372.8777 0.03 79.08595
v -367.7998 0.03 79.41444
v -367.7998 0.03 79.41444
v -367.9984 0.03 82.40786
v -367.9984 0.03 82.40786
v -367.6508 -0.67 77.16938
v -367.6508 -0.67 77.16938
v -367.7998 0.03 79.41444
v -367.7998 0.03 79.41444
v -362.7581 0.03 79.75522
v -362.7581 0.03 79.75522
v -362.9635 0.03 82.74818
v -362.9635 0.03 82.74818
v -362.604 -0.67 77.5105
v -362.604 -0.67 77.5105
v -362.7581 0.03 79.75522
v -362.7581 0.03 79.75522
v -357.704 0.03 80.10545
v -357.704 0.03 80.10545
v -357.9128 0.03 83.09817
v -357.9128 0.03 83.09817
v -357.5474 -0.67 77.8609
v -357.5474 -0.67 77.8609
v -357.704 0.03 80.10545
v -357.704 0.03 80.10545
v -352.6592 0.03 80.45794
v -352.6592 0.03 80.45794
v -352.868 0.03 83.45066
v -352.868 0.03 83.45066
v -352.5025 -0.67 78.2134
v -352.5025 -0.67 78.2134
v -352.6592 0.03 80.45794
v -352.6592 0.03 80.45794
v -347.6456 0.03 80.8055
v -347.6456 0.03 80.8055
v -347.8511 0.03 83.79845
v -347.8511 0.03 83.79845
v -347.4915 -0.67 78.56079
v -347.4915 -0.67 78.56079
v -347.6456 0.03 80.8055
v -347.6456 0.03 80.8055
v -342.6165 0.03 81.14556
v -342.6165 0.03 81.14556
v -342.8151 0.03 84.13898
v -342.8151 0.03 84.13898
v -342.4676 -0.67 78.9005
v -342.4676 -0.67 78.9005
v -342.6165 0.03 81.14556
v -342.6165 0.03 81.14556
v -337.5982 0.03 81.46996
v -337.5982 0.03 81.46996
v -337.7859 0.03 84.46408
v -337.7859 0.03 84.46408
v -337.4574 -0.67 79.22437
v -337.4574 -0.67 79.22437
v -337.5982 0.03 81.46996
v -337.5982 0.03 81.46996
v -332.6194 0.03 81.76997
v -332.6194 0.03 81.76997
v -332.7917 0.03 84.76502
v -332.7917 0.03 84.76502
v -332.4902 -0.67 79.52369
v -332.4902 -0.67 79.52369
v -332.6194 0.03 81.76997
v -332.6194 0.03 81.76997
v -327.6474 0.03 82.0395
v -327.6474 0.03 82.0395
v -327.7988 0.03 85.03568
v -327.7988 0.03 85.03568
v -327.5339 -0.67 79.79237
v -327.5339 -0.67 79.79237
v -327.6474 0.03 82.0395
v -327.6474 0.03 82.0395
v -322.7242 0.03 82.26648
v -322.7242 0.03 82.26648
v -322.8478 0.03 85.26393
v -322.8478 0.03 85.26393
v -322.6315 -0.67 80.01839
v -322.6315 -0.67 80.01839
v -322.7242 0.03 82.26648
v -322.7242 0.03 82.26648
v -317.7804 0.03 82.44101
v -317.7804 0.03 82.44101
v -317.8665 0.03 85.43977
v -317.8665 0.03 85.43977
v -317.7157 -0.67 80.19194
v -317.7157 -0.67 80.19194
v -317.7804 0.03 82.44101
v -317.7804 0.03 82.44101
v -312.8939 0.03 82.54254
v -312.8939 0.03 82.54254
v -312.9296 0.03 85.54234
v -312.9296 0.03 85.54234
v -312.8671 -0.67 80.2927
v -312.8671 -0.67 80.2927
v -312.8939 0.03 82.54254
v -312.8939 0.03 82.54254
v -308.0603 0.03 82.54657
v -308.0603 0.03 82.54657
v -308.0252 0.03 85.54636
v -308.0252 0.03 85.54636
v -308.0866 -0.67 80.29672
v -308.0866 -0.67 80.29672
v -308.0603 0.03 82.54657
v -308.0603 0.03 82.54657
v -303.3456 0.03 82.41573
v -303.3456 0.03 82.41573
v -303.2064 0.03 85.41251
v -303.2064 0.03 85.41251
v -303.45 -0.67 80.16816
v -303.45 -0.67 80.16816
v -303.3456 0.03 82.41573
v -303.3456 0.03 82.41573
v -298.8576 0.03 82.09387
v -298.8576 0.03 82.09387
v -298.5509 0.03 85.07816
v -298.5509 0.03 85.07816
v -299.0876 -0.67 79.85566
v -299.0876 -0.67 79.85566
v -298.8576 0.03 82.09387
v -298.8576 0.03 82.09387

vn 0 1 0
vn 0 0 0
vn 0 1 0
vn 0 0 0
vn -0.04852164 0.9548244 -0.2931822
vn 0 0 0
vn -0.04853157 0.9548194 -0.2931975
vn 0 0 0
vn 0 0.9999999 0
vn 0 0 0
vn 0 1 0
vn 0 0 0
vn -0.04197479 0.9548563 -0.2940879
vn 0 0 0
vn -0.03548555 0.9548545 -0.2949468
vn 0 0 0
vn -1.137081E-10 1 7.81919E-12
vn 0 0 0
vn -2.326072E-10 1 1.140797E-11
vn 0 0 0
vn -0.02422743 0.9548449 -0.2961152
vn 0 0 0
vn -0.01924823 0.9548574 -0.29644
vn 0 0 0
vn -1.171693E-10 1 8.057197E-12
vn 0 0 0
vn 1.187348E-10 1 -2.898813E-13
vn 0 0 0
vn -0.01098332 0.9548529 -0.296876
vn 0 0 0
vn -0.007751622 0.9548569 -0.2969647
vn 0 0 0
vn 2.381064E-10 1 -3.785422E-12
vn 0 0 0
vn 1.200724E-10 0.9999999 -2.93147E-13
vn 0 0 0
vn -0.002251666 0.9548553 -0.2970628
vn 0 0 0
vn 1.934783E-05 0.9548569 -0.2970662
vn 0 0 0
vn 0 1 0
vn 0 0 0
vn 0 1 0
vn 0 0 0
vn 0.003968548 0.9548561 -0.2970427
vn 0 0 0
vn 0.005639401 0.9548567 -0.2970133
vn 0 0 0
vn 0 1 0
vn 0 0 0
vn 0 1 0
vn 0 0 0
vn 0.008575419 0.9548563 -0.2969442
vn 0 0 0
vn 0.009842135 0.9548568 -0.2969037
vn 0 0 0
vn 1.208381E-10 1 5.168709E-12
vn 0 0 0
vn 2.428884E-10 1 1.142654E-11
vn 0 0 0
vn 0.01207038 0.9548564 -0.2968225
vn 0 0 0
vn 0.01303976 0.9548567 -0.2967805
vn 0 0 0
vn 2.436018E-10 1 1.14601E-11
vn 0 0 0
vn 1.221252E-10 1 6.267057E-12
vn 0 0 0
vn 0.01475352 0.9548567 -0.2967003
vn 0 0 0
vn 0.01549478 0.9548569 -0.2966619
vn 0 0 0
vn -1.219507E-10 1 -7.058097E-12
vn 0 0 0
vn -2.438642E-10 1 -1.471507E-11
vn 0 0 0
vn 0.01680264 0.9548566 -0.2965914
vn 0 0 0
vn 0.01736682 0.9548567 -0.2965588
vn 0 0 0
vn -2.434848E-10 0.9999999 -1.469218E-11
vn 0 0 0
vn -1.218941E-10 1 -7.655748E-12
vn 0 0 0
vn 0.01834496 0.9548567 -0.2964998
vn 0 0 0
vn 0.01876107 0.9548568 -0.2964734
vn 0 0 0
vn -1.221162E-10 1 -8.102219E-12
vn 0 0 0
vn -2.448921E-10 1 -1.652909E-11
vn 0 0 0
vn 0.01946142 0.9548568 -0.2964284
vn 0 0 0
vn 0.01974683 0.9548568 -0.2964095
vn 0 0 0
vn -1.874072E-14 1 2.798615E-13
vn 0 0 0
vn 3.673397E-10 0.9999999 2.549366E-11
vn 0 0 0
vn 0.02020127 0.9548567 -0.2963789
vn 0 0 0
vn 0.02036889 0.9548568 -0.2963673
vn 0 0 0
vn 3.670891E-10 1 2.53371E-11
vn 0 0 0
vn 0 0.9999999 -1.248455E-15
vn 0 0 0
vn 0.02059286 0.9548568 -0.2963519
vn 0 0 0
vn 0.02064961 0.9548568 -0.2963481
vn 0 0 0
vn -1.227314E-10 1 -8.564181E-12
vn 0 0 0
vn 1.229694E-10 0.9999999 8.444719E-12
vn 0 0 0
vn 0.02065274 0.9548566 -0.2963479
vn 0 0 0
vn 0.02059881 0.9548567 -0.2963518
vn 0 0 0
vn 2.461983E-10 1 1.704473E-11
vn 0 0 0
vn 1.229256E-10 1 8.441713E-12
vn 0 0 0
vn 0.02037666 0.9548567 -0.296367
vn 0 0 0
vn 0.02020887 0.9548567 -0.2963785
vn 0 0 0
vn 0 1 0
vn 0 0 0
vn 0 0.9999999 0
vn 0 0 0
vn 0.01974941 0.9548569 -0.2964094
vn 0 0 0
vn 0.01945673 0.9548568 -0.2964288
vn 0 0 0
vn -2.469395E-10 0.9999999 -1.548166E-11
vn 0 0 0
vn -4.947957E-10 1 -2.974528E-11
vn 0 0 0
vn 0.01873457 0.9548568 -0.2964751
vn 0 0 0
vn 0.01830272 0.9548567 -0.2965024
vn 0 0 0
vn -3.725746E-10 1 -2.271792E-11
vn 0 0 0
vn 4.679172E-14 1 -8.675438E-13
vn 0 0 0
vn 0.01727374 0.9548568 -0.2965639
vn 0 0 0
vn 0.01667743 0.9548566 -0.2965985
vn 0 0 0
vn 2.495209E-10 1 1.348264E-11
vn 0 0 0
vn 1.249777E-10 1 6.315156E-12
vn 0 0 0
vn 0.01528745 0.9548568 -0.2966732
vn 0 0 0
vn 0.01448768 0.9548566 -0.2967137
vn 0 0 0
vn 1.254813E-10 1 5.175341E-12
vn 0 0 0
vn 2.500756E-10 1 8.750177E-12
vn 0 0 0
vn 0.01261488 0.9548569 -0.2967984
vn 0 0 0
vn 0.01154748 0.9548566 -0.2968428
vn 0 0 0
vn 1.255909E-10 0.9999999 5.179864E-12
vn 0 0 0
vn -1.25765E-10 1 -1.49566E-12
vn 0 0 0
vn 0.009061281 0.9548568 -0.2969283
vn 0 0 0
vn 0.007623584 0.9548561 -0.2969708
vn 0 0 0
vn -2.540773E-10 1 -5.161409E-12
vn 0 0 0
vn -1.26917E-10 1 -1.509361E-12
vn 0 0 0
vn 0.004221871 0.9548568 -0.2970367
vn 0 0 0
vn 0.002244903 0.9548555 -0.2970622
vn 0 0 0
vn 0 1 0
vn 0 0 0
vn 0 1 0
vn 0 0 0
vn -0.002512113 0.9548569 -0.2970558
vn 0 0 0
vn -0.005347388 0.9548538 -0.2970279
vn 0 0 0
vn 0 1 0
vn 0 0 0
vn 0 1 0
vn 0 0 0
vn -0.01237763 0.9548571 -0.2968076
vn 0 0 0
vn -0.01673225 0.9548481 -0.2966228
vn 0 0 0
vn 0 1 0
vn 0 0 0
vn 0 1 0
vn 0 0 0
vn -0.02124581 0.9548234 -0.2964137
vn 0 0 0
vn -0.02125918 0.9548167 -0.2964341
vn 0 0 0

vt 0 0
vt 0 0
vt -0.1143372 0.5890045
vt -0.1143372 0.5890045
vt 0.08575439 -0.4417542
vt 0.08575439 -0.4417542
vt 0 0
vt 0 0
vt -1.09964 -0.1820465
vt -1.09964 -0.1820465
vt -1.178778 0.4127121
vt -1.178778 0.4127121
vt -1.040289 -0.6281143
vt -1.040289 -0.6281143
vt -1.09964 -0.1820465
vt -1.09964 -0.1820465
vt -2.212537 -0.2913452
vt -2.212537 -0.2913452
vt -2.253699 0.3072418
vt -2.253699 0.3072418
vt -2.181671 -0.7402847
vt -2.181671 -0.7402847
vt -2.212537 -0.2913452
vt -2.212537 -0.2913452
vt -3.282806 -0.3424606
vt -3.282806 -0.3424606
vt -3.300415 0.2572815
vt -3.300415 0.2572815
vt -3.269598 -0.7922668
vt -3.269598 -0.7922668
vt -3.282806 -0.3424606
vt -3.282806 -0.3424606
vt -4.335724 -0.3584168
vt -4.335724 -0.3584168
vt -4.337189 0.2415802
vt -4.337189 0.2415802
vt -4.334625 -0.8084168
vt -4.334625 -0.8084168
vt -4.335724 -0.3584168
vt -4.335724 -0.3584168
vt -5.374426 -0.3503693
vt -5.374426 -0.3503693
vt -5.36424 0.2495438
vt -5.36424 0.2495438
vt -5.382074 -0.8003036
vt -5.382074 -0.8003036
vt -5.374426 -0.3503693
vt -5.374426 -0.3503693
vt -6.408691 -0.3249115
vt -6.408691 -0.3249115
vt -6.389752 0.2747894
vt -6.389752 0.2747894
vt -6.422901 -0.7746872
vt -6.422901 -0.7746872
vt -6.408691 -0.3249115
vt -6.408691 -0.3249115
vt -7.440534 -0.2863037
vt -7.440534 -0.2863037
vt -7.414893 0.3131485
vt -7.414893 0.3131485
vt -7.45976 -0.7358918
vt -7.45976 -0.7358918
vt -7.440534 -0.2863037
vt -7.440534 -0.2863037
vt -8.461078 -0.2381043
vt -8.461078 -0.2381043
vt -8.430328 0.3611069
vt -8.430328 0.3611069
vt -8.484143 -0.6875138
vt -8.484143 -0.6875138
vt -8.461078 -0.2381043
vt -8.461078 -0.2381043
vt -9.476435 -0.1825241
vt -9.476435 -0.1825241
vt -9.441767 0.4164734
vt -9.441767 0.4164734
vt -9.502429 -0.6317719
vt -9.502429 -0.6317719
vt -9.476435 -0.1825241
vt -9.476435 -0.1825241
vt -10.49441 -0.1209717
vt -10.49441 -0.1209717
vt -10.4568 0.4778488
vt -10.4568 0.4778488
vt -10.52262 -0.5700867
vt -10.52262 -0.5700867
vt -10.49441 -0.1209717
vt -10.49441 -0.1209717
vt -11.50999 -0.05527344
vt -11.50999 -0.05527344
vt -11.47026 0.5434098
vt -11.47026 0.5434098
vt -11.53978 -0.5042862
vt -11.53978 -0.5042862
vt -11.50999 -0.05527344
vt -11.50999 -0.05527344
vt -12.51832 0.01288147
vt -12.51832 0.01288147
vt -12.47723 0.6114731
vt -12.47723 0.6114731
vt -12.54913 -0.4360626
vt -12.54913 -0.4360626
vt -12.51832 0.01288147
vt -12.51832 0.01288147
vt -13.52914 0.08292694
vt -13.52914 0.08292694
vt -13.48738 0.6814713
vt -13.48738 0.6814713
vt -13.56046 -0.3659821
vt -13.56046 -0.3659821
vt -13.52914 0.08292694
vt -13.52914 0.08292694
vt -14.5381 0.1534256
vt -14.5381 0.1534256
vt -14.49633 0.7519699
vt -14.49633 0.7519699
vt -14.56943 -0.2954819
vt -14.56943 -0.2954819
vt -14.5381 0.1534256
vt -14.5381 0.1534256
vt -15.54082 0.2229385
vt -15.54082 0.2229385
vt -15.49971 0.8215286
vt -15.49971 0.8215286
vt -15.57165 -0.226004
vt -15.57165 -0.226004
vt -15.54082 0.2229385
vt -15.54082 0.2229385
vt -16.54664 0.29095
vt -16.54664 0.29095
vt -16.50692 0.8896332
vt -16.50692 0.8896332
vt -16.57643 -0.1580627
vt -16.57643 -0.1580627
vt -16.54664 0.29095
vt -16.54664 0.29095
vt -17.5503 0.3558304
vt -17.5503 0.3558304
vt -17.51276 0.9546539
vt -17.51276 0.9546539
vt -17.57846 -0.09328766
vt -17.57846 -0.09328766
vt -17.5503 0.3558304
vt -17.5503 0.3558304
vt -18.54606 0.4158325
vt -18.54606 0.4158325
vt -18.51159 1.014842
vt -18.51159 1.014842
vt -18.57191 -0.03342438
vt -18.57191 -0.03342438
vt -18.54606 0.4158325
vt -18.54606 0.4158325
vt -19.54046 0.4697373
vt -19.54046 0.4697373
vt -19.51018 1.068973
vt -19.51018 1.068973
vt -19.56317 0.02031097
vt -19.56317 0.02031097
vt -19.54046 0.4697373
vt -19.54046 0.4697373
vt -20.5251 0.5151337
vt -20.5251 0.5151337
vt -20.50038 1.114624
vt -20.50038 1.114624
vt -20.54365 0.06551514
vt -20.54365 0.06551514
vt -20.5251 0.5151337
vt -20.5251 0.5151337
vt -21.51387 0.5500397
vt -21.51387 0.5500397
vt -21.49663 1.149793
vt -21.49663 1.149793
vt -21.5268 0.1002258
vt -21.5268 0.1002258
vt -21.51387 0.5500397
vt -21.51387 0.5500397
vt -22.49116 0.5703461
vt -22.49116 0.5703461
vt -22.48403 1.170305
vt -22.48403 1.170305
vt -22.49652 0.1203781
vt -22.49652 0.1203781
vt -22.49116 0.5703461
vt -22.49116 0.5703461
vt -23.45787 0.5711517
vt -23.45787 0.5711517
vt -23.46489 1.171111
vt -23.46489 1.171111
vt -23.45262 0.1211823
vt -23.45262 0.1211823
vt -23.45787 0.5711517
vt -23.45787 0.5711517
vt -24.40082 0.5449845
vt -24.40082 0.5449845
vt -24.42866 1.144339
vt -24.42866 1.144339
vt -24.37994 0.09546967
vt -24.37994 0.09546967
vt -24.40082 0.5449845
vt -24.40082 0.5449845
vt -25.29842 0.4806122
vt -25.29842 0.4806122
vt -25.35975 1.077469
vt -25.35975 1.077469
vt -25.25242 0.03296966
vt -25.25242 0.03296966
vt -25.29842 0.4806122
vt -25.29842 0.4806122

usemtl GSDShoulder1
usemap GSDShoulder1
f 9/9/9 1/1/1 3/3/3
f 11/11/11 9/9/9 3/3/3
f 13/13/13 5/5/5 7/7/7
f 15/15/15 13/13/13 7/7/7
f 17/17/17 9/9/9 11/11/11
f 19/19/19 17/17/17 11/11/11
f 21/21/21 13/13/13 15/15/15
f 23/23/23 21/21/21 15/15/15
f 25/25/25 17/17/17 19/19/19
f 27/27/27 25/25/25 19/19/19
f 29/29/29 21/21/21 23/23/23
f 31/31/31 29/29/29 23/23/23
f 33/33/33 25/25/25 27/27/27
f 35/35/35 33/33/33 27/27/27
f 37/37/37 29/29/29 31/31/31
f 39/39/39 37/37/37 31/31/31
f 41/41/41 33/33/33 35/35/35
f 43/43/43 41/41/41 35/35/35
f 45/45/45 37/37/37 39/39/39
f 47/47/47 45/45/45 39/39/39
f 49/49/49 41/41/41 43/43/43
f 51/51/51 49/49/49 43/43/43
f 53/53/53 45/45/45 47/47/47
f 55/55/55 53/53/53 47/47/47
f 57/57/57 49/49/49 51/51/51
f 59/59/59 57/57/57 51/51/51
f 61/61/61 53/53/53 55/55/55
f 63/63/63 61/61/61 55/55/55
f 65/65/65 57/57/57 59/59/59
f 67/67/67 65/65/65 59/59/59
f 69/69/69 61/61/61 63/63/63
f 71/71/71 69/69/69 63/63/63
f 73/73/73 65/65/65 67/67/67
f 75/75/75 73/73/73 67/67/67
f 77/77/77 69/69/69 71/71/71
f 79/79/79 77/77/77 71/71/71
f 81/81/81 73/73/73 75/75/75
f 83/83/83 81/81/81 75/75/75
f 85/85/85 77/77/77 79/79/79
f 87/87/87 85/85/85 79/79/79
f 89/89/89 81/81/81 83/83/83
f 91/91/91 89/89/89 83/83/83
f 93/93/93 85/85/85 87/87/87
f 95/95/95 93/93/93 87/87/87
f 97/97/97 89/89/89 91/91/91
f 99/99/99 97/97/97 91/91/91
f 101/101/101 93/93/93 95/95/95
f 103/103/103 101/101/101 95/95/95
f 105/105/105 97/97/97 99/99/99
f 107/107/107 105/105/105 99/99/99
f 109/109/109 101/101/101 103/103/103
f 111/111/111 109/109/109 103/103/103
f 113/113/113 105/105/105 107/107/107
f 115/115/115 113/113/113 107/107/107
f 117/117/117 109/109/109 111/111/111
f 119/119/119 117/117/117 111/111/111
f 121/121/121 113/113/113 115/115/115
f 123/123/123 121/121/121 115/115/115
f 125/125/125 117/117/117 119/119/119
f 127/127/127 125/125/125 119/119/119
f 129/129/129 121/121/121 123/123/123
f 131/131/131 129/129/129 123/123/123
f 133/133/133 125/125/125 127/127/127
f 135/135/135 133/133/133 127/127/127
f 137/137/137 129/129/129 131/131/131
f 139/139/139 137/137/137 131/131/131
f 141/141/141 133/133/133 135/135/135
f 143/143/143 141/141/141 135/135/135
f 145/145/145 137/137/137 139/139/139
f 147/147/147 145/145/145 139/139/139
f 149/149/149 141/141/141 143/143/143
f 151/151/151 149/149/149 143/143/143
f 153/153/153 145/145/145 147/147/147
f 155/155/155 153/153/153 147/147/147
f 157/157/157 149/149/149 151/151/151
f 159/159/159 157/157/157 151/151/151
f 161/161/161 153/153/153 155/155/155
f 163/163/163 161/161/161 155/155/155
f 165/165/165 157/157/157 159/159/159
f 167/167/167 165/165/165 159/159/159
f 169/169/169 161/161/161 163/163/163
f 171/171/171 169/169/169 163/163/163
f 173/173/173 165/165/165 167/167/167
f 175/175/175 173/173/173 167/167/167
f 177/177/177 169/169/169 171/171/171
f 179/179/179 177/177/177 171/171/171
f 181/181/181 173/173/173 175/175/175
f 183/183/183 181/181/181 175/175/175
f 185/185/185 177/177/177 179/179/179
f 187/187/187 185/185/185 179/179/179
f 189/189/189 181/181/181 183/183/183
f 191/191/191 189/189/189 183/183/183
f 193/193/193 185/185/185 187/187/187
f 195/195/195 193/193/193 187/187/187
f 197/197/197 189/189/189 191/191/191
f 199/199/199 197/197/197 191/191/191
f 201/201/201 193/193/193 195/195/195
f 203/203/203 201/201/201 195/195/195
f 205/205/205 197/197/197 199/199/199
f 207/207/207 205/205/205 199/199/199
