mtllib ./Road1_0_24.mtl
g RoadCut5
v -456.6866 0.03 328.0918
v -456.6866 0.03 328.0918
v -444.6921 0.03 328.4539
v -444.6921 0.03 328.4539
v -456.3105 0.03 322.6097
v -456.3105 0.03 322.6097
v -444.3772 0.03 323.8729
v -444.3772 0.03 323.8729
v -455.6873 0.03 317.3971
v -455.6873 0.03 317.3971
v -443.8019 0.03 319.0518
v -443.8019 0.03 319.0518
v -454.7798 0.03 312.0655
v -454.7798 0.03 312.0655
v -443.0275 0.03 314.4912
v -443.0275 0.03 314.4912
v -453.4036 0.03 306.6477
v -453.4036 0.03 306.6477
v -441.9334 0.03 310.1739
v -441.9334 0.03 310.1739
v -451.37 0.03 301.2127
v -451.37 0.03 301.2127
v -440.4212 0.03 306.1243
v -440.4212 0.03 306.1243
v -448.5577 0.03 295.9848
v -448.5577 0.03 295.9848
v -438.4421 0.03 302.4403
v -438.4421 0.03 302.4403
v -444.9423 0.03 291.1969
v -444.9423 0.03 291.1969
v -435.9703 0.03 299.1658
v -435.9703 0.03 299.1658
v -440.6216 0.03 287.0424
v -440.6216 0.03 287.0424
v -432.9984 0.03 296.3098
v -432.9984 0.03 296.3098
v -435.8042 0.03 283.6306
v -435.8042 0.03 283.6306
v -429.5657 0.03 293.8816
v -429.5657 0.03 293.8816
v -430.6664 0.03 280.9284
v -430.6664 0.03 280.9284
v -425.7208 0.03 291.8618
v -425.7208 0.03 291.8618
v -425.3759 0.03 278.86
v -425.3759 0.03 278.86
v -421.5614 0.03 290.2376
v -421.5614 0.03 290.2376
v -420.0866 0.03 277.3329
v -420.0866 0.03 277.3329
v -417.2217 0.03 288.9859
v -417.2217 0.03 288.9859

vn 0 1 0
vn 0 0 0
vn 0 0.9999999 0
vn 0 0 0
vn 0 0.9999999 0
vn 0 0 0
vn 0 0.9999999 0
vn 0 0 0
vn 1.656075E-11 1 -1.189508E-10
vn 0 0 0
vn 4.255551E-11 1 -2.465244E-10
vn 0 0 0
vn 4.056636E-11 1 -2.350013E-10
vn 0 0 0
vn 2.569115E-11 1 -1.244736E-10
vn 0 0 0
vn -6.91738E-11 1 2.250133E-10
vn 0 0 0
vn -1.799735E-10 1 4.781844E-10
vn 0 0 0
vn -1.158671E-10 1 3.282055E-10
vn 0 0 0
vn 1.6636E-11 1 8.977325E-12
vn 0 0 0
vn 4.743481E-11 0.9999999 -1.057398E-10
vn 0 0 0
vn -8.685791E-11 1 9.779149E-11
vn 0 0 0
vn -6.244689E-11 1 9.785317E-11
vn 0 0 0
vn 1.014843E-10 1 -8.347965E-11
vn 0 0 0
vn 7.743978E-11 1 -8.718781E-11
vn 0 0 0
vn -1.121153E-10 1 6.82307E-11
vn 0 0 0
vn 9.615128E-12 1 1.353923E-11
vn 0 0 0
vn 3.480415E-10 1 -1.747863E-10
vn 0 0 0
vn 4.161807E-10 1 -2.197172E-10
vn 0 0 0
vn 2.345953E-10 1 -1.061149E-10
vn 0 0 0
vn 0 0.9999999 0
vn 0 0 0
vn 0 1 0
vn 0 0 0
vn 0 1 0
vn 0 0 0
vn 0 1 0
vn 0 0 0

vt 0 0
vt 0 0
vt -2.398901 0.07242431
vt -2.398901 0.07242431
vt -0.07521363 -1.096429
vt -0.07521363 -1.096429
vt -2.461884 -0.8437927
vt -2.461884 -0.8437927
vt -0.1998718 -2.138953
vt -0.1998718 -2.138953
vt -2.576947 -1.808008
vt -2.576947 -1.808008
vt -0.381366 -3.205261
vt -0.381366 -3.205261
vt -2.73183 -2.720129
vt -2.73183 -2.720129
vt -0.656604 -4.288818
vt -0.656604 -4.288818
vt -2.950647 -3.583582
vt -2.950647 -3.583582
vt -1.063324 -5.375824
vt -1.063324 -5.375824
vt -3.253082 -4.3935
vt -3.253082 -4.3935
vt -1.625775 -6.421411
vt -1.625775 -6.421411
vt -3.648907 -5.13031
vt -3.648907 -5.13031
vt -2.348865 -7.37898
vt -2.348865 -7.37898
vt -4.143262 -5.785205
vt -4.143262 -5.785205
vt -3.212994 -8.209888
vt -3.212994 -8.209888
vt -4.737653 -6.356397
vt -4.737653 -6.356397
vt -4.176489 -8.892237
vt -4.176489 -8.892237
vt -5.424182 -6.842053
vt -5.424182 -6.842053
vt -5.204047 -9.432691
vt -5.204047 -9.432691
vt -6.193158 -7.245996
vt -6.193158 -7.245996
vt -6.262146 -9.846369
vt -6.262146 -9.846369
vt -7.025049 -7.570844
vt -7.025049 -7.570844
vt -7.319995 -10.15178
vt -7.319995 -10.15178
vt -7.892981 -7.821179
vt -7.892981 -7.821179

usemtl GSDRoad1
usemap GSDRoad1
f 5/5/5 1/1/1 3/3/3
f 7/7/7 5/5/5 3/3/3
f 9/9/9 5/5/5 7/7/7
f 11/11/11 9/9/9 7/7/7
f 13/13/13 9/9/9 11/11/11
f 15/15/15 13/13/13 11/11/11
f 17/17/17 13/13/13 15/15/15
f 19/19/19 17/17/17 15/15/15
f 21/21/21 17/17/17 19/19/19
f 23/23/23 21/21/21 19/19/19
f 25/25/25 21/21/21 23/23/23
f 27/27/27 25/25/25 23/23/23
f 29/29/29 25/25/25 27/27/27
f 31/31/31 29/29/29 27/27/27
f 33/33/33 29/29/29 31/31/31
f 35/35/35 33/33/33 31/31/31
f 37/37/37 33/33/33 35/35/35
f 39/39/39 37/37/37 35/35/35
f 41/41/41 37/37/37 39/39/39
f 43/43/43 41/41/41 39/39/39
f 45/45/45 41/41/41 43/43/43
f 47/47/47 45/45/45 43/43/43
f 49/49/49 45/45/45 47/47/47
f 51/51/51 49/49/49 47/47/47
