mtllib ./Road2_1_23.mtl
g Markers4
v -298.5509 0.04 85.07816
v -298.5509 0.04 85.07816
v -297.3243 0.04 97.0153
v -297.3243 0.04 97.0153
v -294.0099 0.04 84.42365
v -294.0099 0.04 84.42365
v -291.879 0.04 96.23295
v -291.879 0.04 96.23295
v -289.5172 0.04 83.44519
v -289.5172 0.04 83.44519
v -286.5026 0.04 95.06036
v -286.5026 0.04 95.06036
v -285.2533 0.04 82.12193
v -285.2533 0.04 82.12193
v -281.1017 0.04 93.38088
v -281.1017 0.04 93.38088
v -281.4001 0.04 80.42288
v -281.4001 0.04 80.42288
v -275.804 0.04 91.03812
v -275.804 0.04 91.03812
v -278.0736 0.04 78.29676
v -278.0736 0.04 78.29676
v -270.6877 0.04 87.7544
v -270.6877 0.04 87.7544
v -275.4684 0.04 75.76443
v -275.4684 0.04 75.76443
v -266.147 0.04 83.32164
v -266.147 0.04 83.32164
v -273.6311 0.04 72.80096
v -273.6311 0.04 72.80096
v -262.7133 0.04 77.78111
v -262.7133 0.04 77.78111
v -272.5319 0.04 69.33783
v -272.5319 0.04 69.33783
v -260.7655 0.04 71.69432
v -260.7655 0.04 71.69432
v -272.1111 0.04 65.37545
v -272.1111 0.04 65.37545
v -260.116 0.04 65.71812
v -260.116 0.04 65.71812

vn 0 1 0
vn 0 0 0
vn 0 1 0
vn 0 0 0
vn 0 1 0
vn 0 0 0
vn 0 1 0
vn 0 0 0
vn 0 1 0
vn 0 0 0
vn 0 1 0
vn 0 0 0
vn 0 1 0
vn 0 0 0
vn 0 1 0
vn 0 0 0
vn -1.184026E-10 1 6.241941E-11
vn 0 0 0
vn -1.976167E-10 1 1.278085E-10
vn 0 0 0
vn -1.321243E-11 1 -2.042889E-11
vn 0 0 0
vn 2.388545E-10 1 -2.53015E-10
vn 0 0 0
vn 3.949576E-10 1 -3.87821E-10
vn 0 0 0
vn 1.445705E-10 1 -1.7832E-10
vn 0 0 0
vn -5.712555E-11 1 1.252341E-10
vn 0 0 0
vn -6.933884E-11 1 2.143886E-10
vn 0 0 0
vn -1.080436E-10 1 3.839994E-10
vn 0 0 0
vn -4.811128E-11 1 3.38095E-10
vn 0 0 0
vn -4.206397E-11 1 3.703014E-10
vn 0 0 0
vn -8.876172E-12 1 3.107123E-10
vn 0 0 0

vt 0 76.14549
vt 0 0
vt 1 76.14549
vt 0 0
vt 0 77.0631
vt 0 77.0631
vt 1 77.0631
vt 1 77.0631
vt 0 77.9827
vt 0 77.9827
vt 1 77.9827
vt 1 77.9827
vt 0 78.87559
vt 0 78.87559
vt 1 78.87559
vt 1 78.87559
vt 0 79.71782
vt 0 79.71782
vt 1 79.71782
vt 1 79.71782
vt 0 80.50739
vt 0 80.50739
vt 1 80.50739
vt 1 80.50739
vt 0 81.23402
vt 0 81.23402
vt 1 81.23402
vt 1 81.23402
vt 0 81.93139
vt 0 81.93139
vt 1 81.93139
vt 1 81.93139
vt 0 82.65807
vt 0 82.65807
vt 1 82.65807
vt 1 82.65807
vt 0 83.45499
vt 0 0
vt 1 83.45499
vt 0 0

usemtl GSDWhiteYellowDouble-4L
usemap GSDWhiteYellowDouble-4L
f 5/5/5 1/1/1 3/3/3
f 7/7/7 5/5/5 3/3/3
f 9/9/9 5/5/5 7/7/7
f 11/11/11 9/9/9 7/7/7
f 13/13/13 9/9/9 11/11/11
f 15/15/15 13/13/13 11/11/11
f 17/17/17 13/13/13 15/15/15
f 19/19/19 17/17/17 15/15/15
f 21/21/21 17/17/17 19/19/19
f 23/23/23 21/21/21 19/19/19
f 25/25/25 21/21/21 23/23/23
f 27/27/27 25/25/25 23/23/23
f 29/29/29 25/25/25 27/27/27
f 31/31/31 29/29/29 27/27/27
f 33/33/33 29/29/29 31/31/31
f 35/35/35 33/33/33 31/31/31
f 37/37/37 33/33/33 35/35/35
f 39/39/39 37/37/37 35/35/35
