mtllib ./Road1_0_49.mtl
g Markers17
v -75.33847 0.04 115.5261
v -75.33847 0.04 115.5261
v -71.54778 0.04 104.1405
v -71.54778 0.04 104.1405
v -76.5302 0.01 115.0389
v -76.5302 0.01 115.0389
v -80.15472 0.01 103.6076
v -80.15472 0.01 103.6076
v -76.18147 0.01 115.424
v -76.18147 0.01 115.424
v -87.08762 0.01 110.4743
v -87.08762 0.01 110.4743
v -77.82113 0.01 119.7575
v -77.82113 0.01 119.7575
v -89.06309 0.01 115.5966
v -89.06309 0.01 115.5966
v -80.02739 0.01 124.9799
v -80.02739 0.01 124.9799
v -90.76704 0.01 119.6355
v -90.76704 0.01 119.6355
v -83.23755 0.01 130.2217
v -83.23755 0.01 130.2217
v -92.82928 0.01 123.0107
v -92.82928 0.01 123.0107
v -87.47702 0.01 134.7932
v -87.47702 0.01 134.7932
v -95.38899 0.01 125.774
v -95.38899 0.01 125.774
v -92.5429 0.01 138.4178
v -92.5429 0.01 138.4178
v -98.5763 0.01 128.0551
v -98.5763 0.01 128.0551
v -97.91271 0.01 140.9873
v -97.91271 0.01 140.9873
v -102.2671 0.01 129.8225
v -102.2671 0.01 129.8225
v -103.4738 0.01 142.7559
v -103.4738 0.01 142.7559
v -106.435 0.01 131.1502
v -106.435 0.01 131.1502

vn -0.02215149 0.9997274 -0.007375101
vn 0 0 0
vn -0.006118522 0.9999812 -4.456347E-05
vn 0 0 0
vn -0.006263561 0.9999804 -4.561984E-05
vn 0 0 0
vn -0.001688755 0.9999984 0.0005354526
vn 0 0 0
vn 0 1 0
vn 0 0 0
vn 0 1 0
vn 0 0 0
vn 0 1 0
vn 0 0 0
vn 0 1 0
vn 0 0 0
vn 0 1 0
vn 0 0 0
vn 0 1 0
vn 0 0 0
vn 0 1 0
vn 0 0 0
vn 0 1 0
vn 0 0 0
vn 0 0.9999999 0
vn 0 0 0
vn 0 0.9999999 0
vn 0 0 0
vn 0 1 0
vn 0 0 0
vn 0 1 0
vn 0 0 0
vn 0 1 0
vn 0 0 0
vn 0 1 0
vn 0 0 0
vn 0 1 0
vn 0 0 0
vn 0 1 0
vn 0 0 0

vt 0 293.8317
vt 0 0
vt 1 293.8317
vt 0 0
vt 0 294.0893
vt 0 294.0893
vt 1 294.0893
vt 1 294.0893
vt 0 294.1932
vt 0 294.1932
vt 1 294.1932
vt 1 294.1932
vt 0 295.1199
vt 0 295.1199
vt 1 295.1199
vt 1 295.1199
vt 0 296.2537
vt 0 296.2537
vt 1 296.2537
vt 1 296.2537
vt 0 297.4831
vt 0 297.4831
vt 1 297.4831
vt 1 297.4831
vt 0 298.73
vt 0 298.73
vt 1 298.73
vt 1 298.73
vt 0 299.9758
vt 0 299.9758
vt 1 299.9758
vt 1 299.9758
vt 0 301.1664
vt 0 301.1664
vt 1 301.1664
vt 1 301.1664
vt 0 302.3335
vt 0 0
vt 1 302.3335
vt 0 0

usemtl GSDWhiteYellowDouble-4L
usemap GSDWhiteYellowDouble-4L
f 5/5/5 1/1/1 3/3/3
f 7/7/7 5/5/5 3/3/3
f 9/9/9 5/5/5 7/7/7
f 11/11/11 9/9/9 7/7/7
f 13/13/13 9/9/9 11/11/11
f 15/15/15 13/13/13 11/11/11
f 17/17/17 13/13/13 15/15/15
f 19/19/19 17/17/17 15/15/15
f 21/21/21 17/17/17 19/19/19
f 23/23/23 21/21/21 19/19/19
f 25/25/25 21/21/21 23/23/23
f 27/27/27 25/25/25 23/23/23
f 29/29/29 25/25/25 27/27/27
f 31/31/31 29/29/29 27/27/27
f 33/33/33 29/29/29 31/31/31
f 35/35/35 33/33/33 31/31/31
f 37/37/37 33/33/33 35/35/35
f 39/39/39 37/37/37 35/35/35
