mtllib ./Road2_1_28.mtl
g SCutR0
v -287.6164 5.1 140.9046
v -287.6164 5.1 140.9046
v -287.6557 5.1 137.7802
v -287.6557 5.1 137.7802
v -287.6557 5.1 137.7802
v -287.6557 5.1 137.7802
v -287.6844 4.052976 135.5002
v -287.6844 4.052976 135.5002
v -292.76 4.912493 141.0333
v -292.76 4.912493 141.0333
v -292.867 4.912493 137.8659
v -292.867 4.912493 137.8659
v -292.867 4.912493 137.8659
v -292.867 4.912493 137.8659
v -292.9444 3.863014 135.576
v -292.9444 3.863014 135.576
v -297.8506 4.721651 141.2301
v -297.8506 4.721651 141.2301
v -297.9865 4.721651 138.032
v -297.9865 4.721651 138.032
v -297.9865 4.721651 138.032
v -297.9865 4.721651 138.032
v -298.0841 3.489412 135.735
v -298.0841 3.489412 135.735
v -302.8906 4.530602 141.4565
v -302.8906 4.530602 141.4565
v -303.0415 4.530602 138.2346
v -303.0415 4.530602 138.2346
v -303.0415 4.530602 138.2346
v -303.0415 4.530602 138.2346
v -303.1494 3.26654 135.9318
v -303.1494 3.26654 135.9318
v -307.9234 4.338753 141.6987
v -307.9234 4.338753 141.6987
v -308.0826 4.338753 138.4574
v -308.0826 4.338753 138.4574
v -308.0826 4.338753 138.4574
v -308.0826 4.338753 138.4574
v -308.196 3.042737 136.1499
v -308.196 3.042737 136.1499
v -312.9681 4.145878 141.9495
v -312.9681 4.145878 141.9495
v -313.1314 4.145878 138.6922
v -313.1314 4.145878 138.6922
v -313.1314 4.145878 138.6922
v -313.1314 4.145878 138.6922
v -313.2473 2.858549 136.3808
v -313.2473 2.858549 136.3808
v -317.9855 3.953744 142.2019
v -317.9855 3.953744 142.2019
v -318.1502 3.953744 138.9314
v -318.1502 3.953744 138.9314
v -318.1502 3.953744 138.9314
v -318.1502 3.953744 138.9314
v -318.2668 2.638329 136.6167
v -318.2668 2.638329 136.6167
v -323.0309 3.760424 142.4551
v -323.0309 3.760424 142.4551
v -323.1947 3.760424 139.1735
v -323.1947 3.760424 139.1735
v -323.1947 3.760424 139.1735
v -323.1947 3.760424 139.1735
v -323.3104 2.419131 136.856
v -323.3104 2.419131 136.856
v -328.053 3.568003 142.7038
v -328.053 3.568003 142.7038
v -328.2144 3.568003 139.4131
v -328.2144 3.568003 139.4131
v -328.2144 3.568003 139.4131
v -328.2144 3.568003 139.4131
v -328.3281 2.199592 137.0933
v -328.3281 2.199592 137.0933
v -333.0776 3.375602 142.9469
v -333.0776 3.375602 142.9469
v -333.2349 3.375602 139.649
v -333.2349 3.375602 139.649
v -333.2349 3.375602 139.649
v -333.2349 3.375602 139.649
v -333.3457 1.946909 137.3273
v -333.3457 1.946909 137.3273
v -338.0708 3.18459 143.181
v -338.0708 3.18459 143.181
v -338.2227 3.18459 139.8774
v -338.2227 3.18459 139.8774
v -338.2227 3.18459 139.8774
v -338.2227 3.18459 139.8774
v -338.3296 1.732005 137.5542
v -338.3296 1.732005 137.5542
v -343.0749 2.993423 143.4062
v -343.0749 2.993423 143.4062
v -343.2202 2.993423 140.0984
v -343.2202 2.993423 140.0984
v -343.2202 2.993423 140.0984
v -343.2202 2.993423 140.0984
v -343.3224 1.732005 137.774
v -343.3224 1.732005 137.774
v -348.066 2.80308 143.6196
v -348.066 2.80308 143.6196
v -348.2034 2.80308 140.309
v -348.2034 2.80308 140.309
v -348.2034 2.80308 140.309
v -348.2034 2.80308 140.309
v -348.3 1.518856 137.9837
v -348.3 1.518856 137.9837
v -353.0948 2.611695 143.8214
v -353.0948 2.611695 143.8214
v -353.2229 2.611695 140.5094
v -353.2229 2.611695 140.5094
v -353.2229 2.611695 140.5094
v -353.2229 2.611695 140.5094
v -353.3129 1.307778 138.1836
v -353.3129 1.307778 138.1836
v -358.1414 2.420102 144.0085
v -358.1414 2.420102 144.0085
v -358.2587 2.420102 140.6965
v -358.2587 2.420102 140.6965
v -358.2587 2.420102 140.6965
v -358.2587 2.420102 140.6965
v -358.3411 1.099192 138.3705
v -358.3411 1.099192 138.3705
v -363.1854 2.229146 144.178
v -363.1854 2.229146 144.178
v -363.2904 2.229146 140.8673
v -363.2904 2.229146 140.8673
v -363.2904 2.229146 140.8673
v -363.2904 2.229146 140.8673
v -363.3641 0.9276185 138.5414
v -363.3641 0.9276185 138.5414
v -368.2067 2.039666 144.3267
v -368.2067 2.039666 144.3267
v -368.2975 2.039666 141.0187
v -368.2975 2.039666 141.0187
v -368.2975 2.039666 141.0187
v -368.2975 2.039666 141.0187
v -368.3614 0.7251821 138.6933
v -368.3614 0.7251821 138.6933
v -373.1847 1.852506 144.4517
v -373.1847 1.852506 144.4517
v -373.2595 1.852506 141.1477
v -373.2595 1.852506 141.1477
v -373.2595 1.852506 141.1477
v -373.2595 1.852506 141.1477
v -373.3122 0.7251821 138.8232
v -373.3122 0.7251821 138.8232
v -378.1698 1.665867 144.551
v -378.1698 1.665867 144.551
v -378.2262 1.665867 141.2527
v -378.2262 1.665867 141.2527
v -378.2262 1.665867 141.2527
v -378.2262 1.665867 141.2527
v -378.2659 0.5274343 138.9294
v -378.2659 0.5274343 138.9294
v -383.1372 1.480787 144.6204
v -383.1372 1.480787 144.6204
v -383.1723 1.480787 141.3293
v -383.1723 1.480787 141.3293
v -383.1723 1.480787 141.3293
v -383.1723 1.480787 141.3293
v -383.1971 0.3358135 139.0076
v -383.1971 0.3358135 139.0076
v -388.1274 1.295888 144.6553
v -388.1274 1.295888 144.6553
v -388.1377 1.295888 141.3733
v -388.1377 1.295888 141.3733
v -388.1377 1.295888 141.3733
v -388.1377 1.295888 141.3733
v -388.1449 0.1822176 139.0538
v -388.1449 0.1822176 139.0538
v -393.1049 1.11266 144.649
v -393.1049 1.11266 144.649
v -393.0857 1.11266 141.3783
v -393.0857 1.11266 141.3783
v -393.0857 1.11266 141.3783
v -393.0857 1.11266 141.3783
v -393.0721 0.008117199 139.0616
v -393.0721 0.008117199 139.0616
v -398.0918 0.9304953 144.5934
v -398.0918 0.9304953 144.5934
v -398.037 0.9304953 141.3364
v -398.037 0.9304953 141.3364
v -398.037 0.9304953 141.3364
v -398.037 0.9304953 141.3364
v -397.9982 -0.04782867 139.0233
v -397.9982 -0.04782867 139.0233
v -403.0327 0.751668 144.4782
v -403.0327 0.751668 144.4782
v -402.9344 0.751668 141.2379
v -402.9344 0.751668 141.2379
v -402.9344 0.751668 141.2379
v -402.9344 0.751668 141.2379
v -402.8645 -0.04782867 138.9295
v -402.8645 -0.04782867 138.9295
v -407.9735 0.5748382 144.2872
v -407.9735 0.5748382 144.2872
v -407.8198 0.5748382 141.0679
v -407.8198 0.5748382 141.0679
v -407.8198 0.5748382 141.0679
v -407.8198 0.5748382 141.0679
v -407.7098 -0.2696486 138.7657
v -407.7098 -0.2696486 138.7657
v -412.861 0.4023461 143.9996
v -412.861 0.4023461 143.9996
v -412.6337 0.4023461 140.8071
v -412.6337 0.4023461 140.8071
v -412.6337 0.4023461 140.8071
v -412.6337 0.4023461 140.8071
v -412.4705 -0.2696486 138.5136
v -412.4705 -0.2696486 138.5136
v -417.6835 0.2351499 143.5801
v -417.6835 0.2351499 143.5801
v -417.3517 0.2351499 140.4244
v -417.3517 0.2351499 140.4244
v -417.3517 0.2351499 140.4244
v -417.3517 0.2351499 140.4244
v -417.112 -0.3356638 138.1444
v -417.112 -0.3356638 138.1444
v -422.3341 0.07752228 142.976
v -422.3341 0.07752228 142.976
v -421.8381 0.07752228 139.8768
v -421.8381 0.07752228 139.8768
v -421.8381 0.07752228 139.8768
v -421.8381 0.07752228 139.8768
v -421.4773 -0.2696486 137.6215
v -421.4773 -0.2696486 137.6215

vn -0.03641892 0.9993365 0.0004578177
vn 0 0 0
vn -0.03617503 0.9993451 0.0008409981
vn 0 0 0
vn -0.03953058 0.9082337 -0.4165919
vn 0 0 0
vn -0.03916389 0.908563 -0.4159082
vn 0 0 0
vn -0.03658536 0.99933 0.00098108
vn 0 0 0
vn -0.03684532 0.9993201 0.001352964
vn 0 0 0
vn -0.04185268 0.9086022 -0.4155603
vn 0 0 0
vn -0.05506597 0.8994821 -0.4334741
vn 0 0 0
vn -0.0374724 0.9992966 0.001484211
vn 0 0 0
vn -0.0375667 0.9992928 0.00165113
vn 0 0 0
vn -0.05953958 0.8900873 -0.4518845
vn 0 0 0
vn -0.06265896 0.8791053 -0.4724908
vn 0 0 0
vn -0.03783666 0.9992824 0.001717981
vn 0 0 0
vn -0.03788308 0.9992805 0.001803578
vn 0 0 0
vn -0.05460425 0.877878 -0.4757611
vn 0 0 0
vn -0.05712027 0.8747593 -0.4811791
vn 0 0 0
vn -0.03802193 0.9992752 0.001838991
vn 0 0 0
vn -0.03804855 0.9992741 0.001881963
vn 0 0 0
vn -0.05671788 0.873218 -0.4840181
vn 0 0 0
vn -0.05653119 0.8722627 -0.4857592
vn 0 0 0
vn -0.03812238 0.9992713 0.001898575
vn 0 0 0
vn -0.0381393 0.9992706 0.001915041
vn 0 0 0
vn -0.05546249 0.872881 -0.4847709
vn 0 0 0
vn -0.05721805 0.8720261 -0.4861034
vn 0 0 0
vn -0.03817482 0.9992692 0.001919477
vn 0 0 0
vn -0.03818626 0.9992688 0.001917304
vn 0 0 0
vn -0.05819154 0.8705932 -0.48855
vn 0 0 0
vn -0.0597679 0.8678417 -0.4932327
vn 0 0 0
vn -0.0381957 0.9992685 0.00191244
vn 0 0 0
vn -0.03820367 0.9992682 0.001896051
vn 0 0 0
vn -0.0583544 0.8665827 -0.4956099
vn 0 0 0
vn -0.05990844 0.8638372 -0.5001962
vn 0 0 0
vn -0.0381938 0.9992685 0.001884117
vn 0 0 0
vn -0.03819958 0.9992684 0.001856038
vn 0 0 0
vn -0.05841225 0.862485 -0.5027004
vn 0 0 0
vn -0.06183214 0.8577811 -0.5102827
vn 0 0 0
vn -0.03817479 0.9992694 0.001837954
vn 0 0 0
vn -0.03817927 0.9992693 0.001799645
vn 0 0 0
vn -0.06014343 0.8546288 -0.5157445
vn 0 0 0
vn -0.06140033 0.8501041 -0.523023
vn 0 0 0
vn -0.03814123 0.9992707 0.001776202
vn 0 0 0
vn -0.03814435 0.9992708 0.001728557
vn 0 0 0
vn -0.05759351 0.8489497 -0.5253261
vn 0 0 0
vn -0.04606862 0.858374 -0.5109517
vn 0 0 0
vn -0.03809449 0.9992728 0.001700179
vn 0 0 0
vn -0.03809676 0.9992727 0.00164334
vn 0 0 0
vn -0.04361321 0.8687056 -0.4934048
vn 0 0 0
vn -0.04411151 0.877679 -0.4772143
vn 0 0 0
vn -0.03803532 0.9992751 0.001609852
vn 0 0 0
vn -0.03803696 0.9992752 0.001543205
vn 0 0 0
vn -0.05463462 0.8762153 -0.4788127
vn 0 0 0
vn -0.05546463 0.8739421 -0.4828547
vn 0 0 0
vn -0.03796405 0.9992779 0.001504394
vn 0 0 0
vn -0.03796462 0.9992781 0.001427347
vn 0 0 0
vn -0.05331297 0.8729594 -0.4848706
vn 0 0 0
vn -0.05389761 0.8709685 -0.4883737
vn 0 0 0
vn -0.03787919 0.9992812 0.001383118
vn 0 0 0
vn -0.03787903 0.9992815 0.001294979
vn 0 0 0
vn -0.05175871 0.8701112 -0.49013
vn 0 0 0
vn -0.05012948 0.8702379 -0.4900745
vn 0 0 0
vn -0.0377807 0.9992853 0.001244733
vn 0 0 0
vn -0.03778004 0.9992855 0.001144328
vn 0 0 0
vn -0.04792605 0.8713002 -0.4884047
vn 0 0 0
vn -0.04807723 0.8715672 -0.4879131
vn 0 0 0
vn -0.03766752 0.9992898 0.001087696
vn 0 0 0
vn -0.03766616 0.9992899 0.0009740634
vn 0 0 0
vn -0.04782557 0.8708441 -0.4892274
vn 0 0 0
vn -0.03607205 0.8802468 -0.473143
vn 0 0 0
vn -0.03753656 0.9992949 0.0009103872
vn 0 0 0
vn -0.03753439 0.9992949 0.0007806903
vn 0 0 0
vn -0.03351738 0.89004 -0.4546486
vn 0 0 0
vn -0.03324882 0.8989463 -0.4367952
vn 0 0 0
vn -0.03738635 0.9993007 0.0007084621
vn 0 0 0
vn -0.03738317 0.9993009 0.0005593583
vn 0 0 0
vn -0.04287184 0.8980805 -0.4377365
vn 0 0 0
vn -0.04248602 0.8970571 -0.4398676
vn 0 0 0
vn -0.03721124 0.9993073 0.0004771173
vn 0 0 0
vn -0.03720679 0.9993076 0.0003039228
vn 0 0 0
vn -0.0398327 0.8967299 -0.4407821
vn 0 0 0
vn -0.03705291 0.897913 -0.4386109
vn 0 0 0
vn -0.0370072 0.999315 0.0002093107
vn 0 0 0
vn -0.03700086 0.9993152 5.387345E-06
vn 0 0 0
vn -0.03437778 0.8994865 -0.4355942
vn 0 0 0
vn -0.03278714 0.9013847 -0.431776
vn 0 0 0
vn -0.03676401 0.999324 -0.0001048603
vn 0 0 0
vn -0.03675538 0.9993242 -0.0003487718
vn 0 0 0
vn -0.03196686 0.9017671 -0.4310384
vn 0 0 0
vn -0.02331074 0.9085663 -0.4170897
vn 0 0 0
vn -0.03647314 0.9993346 -0.0004785429
vn 0 0 0
vn -0.03646172 0.9993348 -0.0007751456
vn 0 0 0
vn -0.0209951 0.9146839 -0.4036242
vn 0 0 0
vn -0.009143095 0.9291618 -0.36956
vn 0 0 0
vn -0.03611514 0.9993473 -0.0009307808
vn 0 0 0
vn -0.03610064 0.9993473 -0.001302294
vn 0 0 0
vn -0.01424012 0.9370607 -0.3488759
vn 0 0 0
vn -0.01593084 0.9426081 -0.333521
vn 0 0 0
vn -0.03566974 0.9993625 -0.001493174
vn 0 0 0
vn -0.0356514 0.9993623 -0.001976956
vn 0 0 0
vn -0.02300955 0.9403523 -0.3394233
vn 0 0 0
vn -0.0108093 0.9458767 -0.3243462
vn 0 0 0
vn -0.03509274 0.9993815 -0.002219585
vn 0 0 0
vn -0.03507338 0.9993805 -0.002886389
vn 0 0 0
vn -0.00386956 0.9529544 -0.3030891
vn 0 0 0
vn 0.003061388 0.9632794 -0.2684838
vn 0 0 0
vn -0.03432773 0.9994055 -0.003209851
vn 0 0 0
vn -0.03432582 0.9994017 -0.004216783
vn 0 0 0
vn -0.003417827 0.9665954 -0.2562842
vn 0 0 0
vn 0.01081478 0.9771031 -0.2124918
vn 0 0 0
vn -0.03391714 0.9994145 -0.004488164
vn 0 0 0
vn -0.03444036 0.9993915 -0.005511232
vn 0 0 0
vn 0.01363322 0.9803818 -0.1966361
vn 0 0 0
vn 0.03255607 0.9886045 -0.1469734
vn 0 0 0

vt 0 0
vt 0 0
vt 0.007855224 -0.6248749
vt 0.007855224 -0.6248749
vt 0.007855224 -0.6248749
vt 0.007855224 -0.6248749
vt 0.01358643 -1.080866
vt 0.01358643 -1.080866
vt 1.028717 0.02574158
vt 1.028717 0.02574158
vt 1.050116 -0.6077332
vt 1.050116 -0.6077332
vt 1.050116 -0.6077332
vt 1.050116 -0.6077332
vt 1.065588 -1.06572
vt 1.065588 -1.06572
vt 2.046844 0.06511535
vt 2.046844 0.06511535
vt 2.074023 -0.5745026
vt 2.074023 -0.5745026
vt 2.074023 -0.5745026
vt 2.074023 -0.5745026
vt 2.093543 -1.03392
vt 2.093543 -1.03392
vt 3.054834 0.1103851
vt 3.054834 0.1103851
vt 3.085022 -0.5339996
vt 3.085022 -0.5339996
vt 3.085022 -0.5339996
vt 3.085022 -0.5339996
vt 3.106604 -0.9945526
vt 3.106604 -0.9945526
vt 4.061401 0.1588196
vt 4.061401 0.1588196
vt 4.093244 -0.4894379
vt 4.093244 -0.4894379
vt 4.093244 -0.4894379
vt 4.093244 -0.4894379
vt 4.115912 -0.9509217
vt 4.115912 -0.9509217
vt 5.070331 0.2089874
vt 5.070331 0.2089874
vt 5.102997 -0.4424774
vt 5.102997 -0.4424774
vt 5.102997 -0.4424774
vt 5.102997 -0.4424774
vt 5.126184 -0.9047455
vt 5.126184 -0.9047455
vt 6.073822 0.2594696
vt 6.073822 0.2594696
vt 6.106757 -0.3946411
vt 6.106757 -0.3946411
vt 6.106757 -0.3946411
vt 6.106757 -0.3946411
vt 6.130066 -0.8575714
vt 6.130066 -0.8575714
vt 7.082892 0.3101105
vt 7.082892 0.3101105
vt 7.115662 -0.3462128
vt 7.115662 -0.3462128
vt 7.115662 -0.3462128
vt 7.115662 -0.3462128
vt 7.1388 -0.8097016
vt 7.1388 -0.8097016
vt 8.087323 0.3598389
vt 8.087323 0.3598389
vt 8.119593 -0.298291
vt 8.119593 -0.298291
vt 8.119593 -0.298291
vt 8.119593 -0.298291
vt 8.142334 -0.7622437
vt 8.142334 -0.7622437
vt 9.092237 0.4084747
vt 9.092237 0.4084747
vt 9.1237 -0.2511109
vt 9.1237 -0.2511109
vt 9.1237 -0.2511109
vt 9.1237 -0.2511109
vt 9.14585 -0.7154511
vt 9.14585 -0.7154511
vt 10.09087 0.4552887
vt 10.09087 0.4552887
vt 10.12126 -0.2054291
vt 10.12126 -0.2054291
vt 10.12126 -0.2054291
vt 10.12126 -0.2054291
vt 10.14264 -0.6700745
vt 10.14264 -0.6700745
vt 11.09169 0.5003235
vt 11.09169 0.5003235
vt 11.12076 -0.1612335
vt 11.12076 -0.1612335
vt 11.12076 -0.1612335
vt 11.12076 -0.1612335
vt 11.14119 -0.62612
vt 11.14119 -0.62612
vt 12.08991 0.5430023
vt 12.08991 0.5430023
vt 12.1174 -0.1191101
vt 12.1174 -0.1191101
vt 12.1174 -0.1191101
vt 12.1174 -0.1191101
vt 12.13671 -0.5841644
vt 12.13671 -0.5841644
vt 13.09567 0.5833618
vt 13.09567 0.5833618
vt 13.12129 -0.07903443
vt 13.12129 -0.07903443
vt 13.12129 -0.07903443
vt 13.12129 -0.07903443
vt 13.13929 -0.5441956
vt 13.13929 -0.5441956
vt 14.10499 0.6207947
vt 14.10499 0.6207947
vt 14.12846 -0.04161377
vt 14.12846 -0.04161377
vt 14.12846 -0.04161377
vt 14.12846 -0.04161377
vt 14.14493 -0.5068146
vt 14.14493 -0.5068146
vt 15.1138 0.6546875
vt 15.1138 0.6546875
vt 15.13479 -0.007458496
vt 15.13479 -0.007458496
vt 15.13479 -0.007458496
vt 15.13479 -0.007458496
vt 15.14953 -0.4726318
vt 15.14953 -0.4726318
vt 16.11805 0.684433
vt 16.11805 0.684433
vt 16.13621 0.02282715
vt 16.13621 0.02282715
vt 16.13621 0.02282715
vt 16.13621 0.02282715
vt 16.14899 -0.4422516
vt 16.14899 -0.4422516
vt 17.11365 0.7094208
vt 17.11365 0.7094208
vt 17.12862 0.04863587
vt 17.12862 0.04863587
vt 17.12862 0.04863587
vt 17.12862 0.04863587
vt 17.13915 -0.416275
vt 17.13915 -0.416275
vt 18.11068 0.7292908
vt 18.11068 0.7292908
vt 18.12195 0.06963196
vt 18.12195 0.06963196
vt 18.12195 0.06963196
vt 18.12195 0.06963196
vt 18.1299 -0.3950318
vt 18.1299 -0.3950318
vt 19.10415 0.743161
vt 19.10415 0.743161
vt 19.11118 0.08494873
vt 19.11118 0.08494873
vt 19.11118 0.08494873
vt 19.11118 0.08494873
vt 19.11614 -0.3793823
vt 19.11614 -0.3793823
vt 20.1022 0.7501435
vt 20.1022 0.7501435
vt 20.10425 0.09375305
vt 20.10425 0.09375305
vt 20.10425 0.09375305
vt 20.10425 0.09375305
vt 20.1057 -0.3701447
vt 20.1057 -0.3701447
vt 21.09769 0.7488983
vt 21.09769 0.7488983
vt 21.09386 0.09474488
vt 21.09386 0.09474488
vt 21.09386 0.09474488
vt 21.09386 0.09474488
vt 21.09114 -0.3685944
vt 21.09114 -0.3685944
vt 22.09507 0.7377716
vt 22.09507 0.7377716
vt 22.08413 0.0863617
vt 22.08413 0.0863617
vt 22.08413 0.0863617
vt 22.08413 0.0863617
vt 22.07635 -0.3762543
vt 22.07635 -0.3762543
vt 23.08325 0.7147339
vt 23.08325 0.7147339
vt 23.0636 0.06667175
vt 23.0636 0.06667175
vt 23.0636 0.06667175
vt 23.0636 0.06667175
vt 23.04961 -0.3950195
vt 23.04961 -0.3950195
vt 24.07141 0.6765381
vt 24.07141 0.6765381
vt 24.04067 0.03266602
vt 24.04067 0.03266602
vt 24.04067 0.03266602
vt 24.04067 0.03266602
vt 24.01868 -0.4277802
vt 24.01868 -0.4277802
vt 25.04891 0.6190155
vt 25.04891 0.6190155
vt 25.00346 -0.01948547
vt 25.00346 -0.01948547
vt 25.00346 -0.01948547
vt 25.00346 -0.01948547
vt 24.97081 -0.478183
vt 24.97081 -0.478183
vt 26.01341 0.5351105
vt 26.01341 0.5351105
vt 25.94706 -0.09603577
vt 25.94706 -0.09603577
vt 25.94706 -0.09603577
vt 25.94706 -0.09603577
vt 25.89911 -0.5520234
vt 25.89911 -0.5520234
vt 26.94353 0.4142914
vt 26.94353 0.4142914
vt 26.84434 -0.2055481
vt 26.84434 -0.2055481
vt 26.84434 -0.2055481
vt 26.84434 -0.2055481
vt 26.77217 -0.656604
vt 26.77217 -0.656604

usemtl GSDShoulder1
usemap GSDShoulder1
f 9/9/9 1/1/1 3/3/3
f 11/11/11 9/9/9 3/3/3
f 13/13/13 5/5/5 7/7/7
f 15/15/15 13/13/13 7/7/7
f 17/17/17 9/9/9 11/11/11
f 19/19/19 17/17/17 11/11/11
f 21/21/21 13/13/13 15/15/15
f 23/23/23 21/21/21 15/15/15
f 25/25/25 17/17/17 19/19/19
f 27/27/27 25/25/25 19/19/19
f 29/29/29 21/21/21 23/23/23
f 31/31/31 29/29/29 23/23/23
f 33/33/33 25/25/25 27/27/27
f 35/35/35 33/33/33 27/27/27
f 37/37/37 29/29/29 31/31/31
f 39/39/39 37/37/37 31/31/31
f 41/41/41 33/33/33 35/35/35
f 43/43/43 41/41/41 35/35/35
f 45/45/45 37/37/37 39/39/39
f 47/47/47 45/45/45 39/39/39
f 49/49/49 41/41/41 43/43/43
f 51/51/51 49/49/49 43/43/43
f 53/53/53 45/45/45 47/47/47
f 55/55/55 53/53/53 47/47/47
f 57/57/57 49/49/49 51/51/51
f 59/59/59 57/57/57 51/51/51
f 61/61/61 53/53/53 55/55/55
f 63/63/63 61/61/61 55/55/55
f 65/65/65 57/57/57 59/59/59
f 67/67/67 65/65/65 59/59/59
f 69/69/69 61/61/61 63/63/63
f 71/71/71 69/69/69 63/63/63
f 73/73/73 65/65/65 67/67/67
f 75/75/75 73/73/73 67/67/67
f 77/77/77 69/69/69 71/71/71
f 79/79/79 77/77/77 71/71/71
f 81/81/81 73/73/73 75/75/75
f 83/83/83 81/81/81 75/75/75
f 85/85/85 77/77/77 79/79/79
f 87/87/87 85/85/85 79/79/79
f 89/89/89 81/81/81 83/83/83
f 91/91/91 89/89/89 83/83/83
f 93/93/93 85/85/85 87/87/87
f 95/95/95 93/93/93 87/87/87
f 97/97/97 89/89/89 91/91/91
f 99/99/99 97/97/97 91/91/91
f 101/101/101 93/93/93 95/95/95
f 103/103/103 101/101/101 95/95/95
f 105/105/105 97/97/97 99/99/99
f 107/107/107 105/105/105 99/99/99
f 109/109/109 101/101/101 103/103/103
f 111/111/111 109/109/109 103/103/103
f 113/113/113 105/105/105 107/107/107
f 115/115/115 113/113/113 107/107/107
f 117/117/117 109/109/109 111/111/111
f 119/119/119 117/117/117 111/111/111
f 121/121/121 113/113/113 115/115/115
f 123/123/123 121/121/121 115/115/115
f 125/125/125 117/117/117 119/119/119
f 127/127/127 125/125/125 119/119/119
f 129/129/129 121/121/121 123/123/123
f 131/131/131 129/129/129 123/123/123
f 133/133/133 125/125/125 127/127/127
f 135/135/135 133/133/133 127/127/127
f 137/137/137 129/129/129 131/131/131
f 139/139/139 137/137/137 131/131/131
f 141/141/141 133/133/133 135/135/135
f 143/143/143 141/141/141 135/135/135
f 145/145/145 137/137/137 139/139/139
f 147/147/147 145/145/145 139/139/139
f 149/149/149 141/141/141 143/143/143
f 151/151/151 149/149/149 143/143/143
f 153/153/153 145/145/145 147/147/147
f 155/155/155 153/153/153 147/147/147
f 157/157/157 149/149/149 151/151/151
f 159/159/159 157/157/157 151/151/151
f 161/161/161 153/153/153 155/155/155
f 163/163/163 161/161/161 155/155/155
f 165/165/165 157/157/157 159/159/159
f 167/167/167 165/165/165 159/159/159
f 169/169/169 161/161/161 163/163/163
f 171/171/171 169/169/169 163/163/163
f 173/173/173 165/165/165 167/167/167
f 175/175/175 173/173/173 167/167/167
f 177/177/177 169/169/169 171/171/171
f 179/179/179 177/177/177 171/171/171
f 181/181/181 173/173/173 175/175/175
f 183/183/183 181/181/181 175/175/175
f 185/185/185 177/177/177 179/179/179
f 187/187/187 185/185/185 179/179/179
f 189/189/189 181/181/181 183/183/183
f 191/191/191 189/189/189 183/183/183
f 193/193/193 185/185/185 187/187/187
f 195/195/195 193/193/193 187/187/187
f 197/197/197 189/189/189 191/191/191
f 199/199/199 197/197/197 191/191/191
f 201/201/201 193/193/193 195/195/195
f 203/203/203 201/201/201 195/195/195
f 205/205/205 197/197/197 199/199/199
f 207/207/207 205/205/205 199/199/199
f 209/209/209 201/201/201 203/203/203
f 211/211/211 209/209/209 203/203/203
f 213/213/213 205/205/205 207/207/207
f 215/215/215 213/213/213 207/207/207
f 217/217/217 209/209/209 211/211/211
f 219/219/219 217/217/217 211/211/211
f 221/221/221 213/213/213 215/215/215
f 223/223/223 221/221/221 215/215/215
