mtllib ./Road1_0_71.mtl
g SCutL0
v -431.6843 0.03 429.633
v -431.6843 0.03 429.633
v -431.9411 0.03 432.622
v -431.9411 0.03 432.622
v -431.4918 -0.35 427.3913
v -431.4918 -0.35 427.3913
v -431.6843 0.03 429.633
v -431.6843 0.03 429.633
v -426.3365 0.03 430.2104
v -426.3365 0.03 430.2104
v -426.7032 0.03 433.188
v -426.7032 0.03 433.188
v -426.0615 -0.35 427.9773
v -426.0615 -0.35 427.9773
v -426.3365 0.03 430.2104
v -426.3365 0.03 430.2104
v -421.2392 0.03 430.8774
v -421.2392 0.03 430.8774
v -421.6456 0.03 433.8498
v -421.6456 0.03 433.8498
v -420.9344 -0.35 428.6482
v -420.9344 -0.35 428.6482
v -421.2392 0.03 430.8774
v -421.2392 0.03 430.8774
v -416.2058 0.03 431.5832
v -416.2058 0.03 431.5832
v -416.6303 0.03 434.553
v -416.6303 0.03 434.553
v -415.8874 -0.35 429.3558
v -415.8874 -0.35 429.3558
v -416.2058 0.03 431.5832
v -416.2058 0.03 431.5832
v -411.2197 0.03 432.3036
v -411.2197 0.03 432.3036
v -411.6519 0.03 435.2723
v -411.6519 0.03 435.2723
v -410.8956 -0.35 430.0771
v -410.8956 -0.35 430.0771
v -411.2197 0.03 432.3036
v -411.2197 0.03 432.3036
v -406.2054 0.03 433.0357
v -406.2054 0.03 433.0357
v -406.6392 0.03 436.0042
v -406.6392 0.03 436.0042
v -405.88 -0.35 430.8094
v -405.88 -0.35 430.8094
v -406.2054 0.03 433.0357
v -406.2054 0.03 433.0357
v -401.2603 0.03 433.7568
v -401.2603 0.03 433.7568
v -401.6916 0.03 436.7256
v -401.6916 0.03 436.7256
v -400.9368 -0.35 431.5302
v -400.9368 -0.35 431.5302
v -401.2603 0.03 433.7568
v -401.2603 0.03 433.7568
v -396.291 0.03 434.4743
v -396.291 0.03 434.4743
v -396.7166 0.03 437.444
v -396.7166 0.03 437.444
v -395.9718 -0.35 432.247
v -395.9718 -0.35 432.247
v -396.291 0.03 434.4743
v -396.291 0.03 434.4743
v -391.3483 0.03 435.1759
v -391.3483 0.03 435.1759
v -391.7655 0.03 438.1467
v -391.7655 0.03 438.1467
v -391.0354 -0.35 432.9478
v -391.0354 -0.35 432.9478
v -391.3483 0.03 435.1759
v -391.3483 0.03 435.1759
v -386.3858 0.03 435.8638
v -386.3858 0.03 435.8638
v -386.7921 0.03 438.8362
v -386.7921 0.03 438.8362
v -386.0811 -0.35 433.6346
v -386.0811 -0.35 433.6346
v -386.3858 0.03 435.8638
v -386.3858 0.03 435.8638
v -381.4377 0.03 436.5291
v -381.4377 0.03 436.5291
v -381.8306 0.03 439.5033
v -381.8306 0.03 439.5033
v -381.143 -0.35 434.2985
v -381.143 -0.35 434.2985
v -381.4377 0.03 436.5291
v -381.4377 0.03 436.5291
v -376.4429 0.03 437.1757
v -376.4429 0.03 437.1757
v -376.8197 0.03 440.1519
v -376.8197 0.03 440.1519
v -376.1603 -0.35 434.9435
v -376.1603 -0.35 434.9435
v -376.4429 0.03 437.1757
v -376.4429 0.03 437.1757
v -371.5227 0.03 437.7834
v -371.5227 0.03 437.7834
v -371.8809 0.03 440.7619
v -371.8809 0.03 440.7619
v -371.2541 -0.35 435.5495
v -371.2541 -0.35 435.5495
v -371.5227 0.03 437.7834
v -371.5227 0.03 437.7834
v -366.6118 0.03 438.3562
v -366.6118 0.03 438.3562
v -366.9481 0.03 441.3373
v -366.9481 0.03 441.3373
v -366.3595 -0.35 436.1204
v -366.3595 -0.35 436.1204
v -366.6118 0.03 438.3562
v -366.6118 0.03 438.3562
v -361.6459 0.03 438.8953
v -361.6459 0.03 438.8953
v -361.9565 0.03 441.8792
v -361.9565 0.03 441.8792
v -361.413 -0.35 436.6574
v -361.413 -0.35 436.6574
v -361.6459 0.03 438.8953
v -361.6459 0.03 438.8953
v -356.7474 0.03 439.381
v -356.7474 0.03 439.381
v -357.028 0.03 442.3678
v -357.028 0.03 442.3678
v -356.537 -0.35 437.1408
v -356.537 -0.35 437.1408
v -356.7474 0.03 439.381
v -356.7474 0.03 439.381
v -351.8584 0.03 439.8116
v -351.8584 0.03 439.8116
v -352.1032 0.03 442.8016
v -352.1032 0.03 442.8016
v -351.6747 -0.35 437.5692
v -351.6747 -0.35 437.5692
v -351.8584 0.03 439.8116
v -351.8584 0.03 439.8116
v -346.9323 0.03 440.1803
v -346.9323 0.03 440.1803
v -347.1338 0.03 443.1736
v -347.1338 0.03 443.1736
v -346.7812 -0.35 437.9354
v -346.7812 -0.35 437.9354
v -346.9323 0.03 440.1803
v -346.9323 0.03 440.1803
v -342.0233 0.03 440.4684
v -342.0233 0.03 440.4684
v -342.1714 0.03 443.4648
v -342.1714 0.03 443.4648
v -341.9123 -0.35 438.2212
v -341.9123 -0.35 438.2212
v -342.0233 0.03 440.4684
v -342.0233 0.03 440.4684
v -337.1964 0.03 440.6554
v -337.1964 0.03 440.6554
v -337.2778 0.03 443.6543
v -337.2778 0.03 443.6543
v -337.1354 -0.35 438.4063
v -337.1354 -0.35 438.4063
v -337.1964 0.03 440.6554
v -337.1964 0.03 440.6554
v -332.3869 0.03 440.7191
v -332.3869 0.03 440.7191
v -332.3805 0.03 443.719
v -332.3805 0.03 443.719
v -332.3917 -0.35 438.4691
v -332.3917 -0.35 438.4691
v -332.3869 0.03 440.7191
v -332.3869 0.03 440.7191
v -327.7318 0.03 440.6224
v -327.7318 0.03 440.6224
v -327.6064 0.03 443.6198
v -327.6064 0.03 443.6198
v -327.8258 -0.35 438.3744
v -327.8258 -0.35 438.3744
v -327.7318 0.03 440.6224
v -327.7318 0.03 440.6224
v -323.2495 0.03 440.314
v -323.2495 0.03 440.314
v -322.949 0.03 443.2989
v -322.949 0.03 443.2989
v -323.4749 -0.35 438.0753
v -323.4749 -0.35 438.0753
v -323.2495 0.03 440.314
v -323.2495 0.03 440.314
v -319.1418 0.03 439.7208
v -319.1418 0.03 439.7208
v -318.5517 0.03 442.6622
v -318.5517 0.03 442.6622
v -319.5844 -0.35 437.5148
v -319.5844 -0.35 437.5148
v -319.1418 0.03 439.7208
v -319.1418 0.03 439.7208

vn 0 1 0
vn 0 0 0
vn 0 1 0
vn 0 0 0
vn 0.01787234 0.9860296 -0.1656088
vn 0 0 0
vn 0.0178757 0.9860314 -0.1655978
vn 0 0 0
vn 0 1 0
vn 0 0 0
vn 0 1 0
vn 0 0 0
vn 0.01908032 0.9860342 -0.1654463
vn 0 0 0
vn 0.02032824 0.9860364 -0.1652849
vn 0 0 0
vn -1.204314E-10 1 -1.646754E-11
vn 0 0 0
vn -2.419643E-10 1 -3.383421E-11
vn 0 0 0
vn 0.02210803 0.9860359 -0.1650582
vn 0 0 0
vn 0.02261503 0.9860362 -0.1649881
vn 0 0 0
vn -1.215341E-10 0.9999999 -1.661832E-11
vn 0 0 0
vn 1.218062E-10 1 1.773289E-11
vn 0 0 0
vn 0.02335277 0.9860362 -0.1648856
vn 0 0 0
vn 0.02358246 0.9860364 -0.1648524
vn 0 0 0
vn 2.436086E-10 1 3.514174E-11
vn 0 0 0
vn 1.215559E-10 1 1.769644E-11
vn 0 0 0
vn 0.0238958 0.9860364 -0.1648071
vn 0 0 0
vn 0.02397811 0.9860364 -0.164795
vn 0 0 0
vn 0 1 0
vn 0 0 0
vn 0 1 0
vn 0 0 0
vn 0.02404931 0.9860362 -0.1647848
vn 0 0 0
vn 0.02403848 0.9860362 -0.1647865
vn 0 0 0
vn 0 1 0
vn 0 0 0
vn 0 1 0
vn 0 0 0
vn 0.023951 0.9860363 -0.1647993
vn 0 0 0
vn 0.02387476 0.9860364 -0.1648099
vn 0 0 0
vn 0 1 0
vn 0 0 0
vn 0 1 0
vn 0 0 0
vn 0.02366773 0.9860364 -0.1648393
vn 0 0 0
vn 0.02353621 0.9860365 -0.1648578
vn 0 0 0
vn 1.229456E-10 1 1.726452E-11
vn 0 0 0
vn 2.454836E-10 1 3.401293E-11
vn 0 0 0
vn 0.02322458 0.9860364 -0.1649021
vn 0 0 0
vn 0.02304533 0.9860364 -0.1649277
vn 0 0 0
vn -6.306069E-14 1 4.502534E-13
vn 0 0 0
vn -3.687652E-10 1 -4.927694E-11
vn 0 0 0
vn 0.02264239 0.9860363 -0.1649836
vn 0 0 0
vn 0.02241751 0.9860364 -0.1650146
vn 0 0 0
vn -3.683084E-10 1 -4.977924E-11
vn 0 0 0
vn 8.409937E-14 1 -6.602428E-13
vn 0 0 0
vn 0.0219191 0.9860363 -0.1650814
vn 0 0 0
vn 0.02164737 0.9860363 -0.1651176
vn 0 0 0
vn 1.227252E-10 1 1.621175E-11
vn 0 0 0
vn -1.233985E-10 1 -1.483927E-11
vn 0 0 0
vn 0.0210597 0.9860364 -0.1651938
vn 0 0 0
vn 0.02073838 0.9860361 -0.1652351
vn 0 0 0
vn -2.484992E-10 1 -3.067302E-11
vn 0 0 0
vn -1.242265E-10 1 -1.493884E-11
vn 0 0 0
vn 0.0200416 0.9860361 -0.1653214
vn 0 0 0
vn 0.0196685 0.9860361 -0.1653662
vn 0 0 0
vn 1.241773E-10 1 1.401132E-11
vn 0 0 0
vn 2.471991E-10 1 2.68092E-11
vn 0 0 0
vn 0.01885202 0.9860362 -0.1654607
vn 0 0 0
vn 0.01841169 0.9860361 -0.1655106
vn 0 0 0
vn 2.479218E-10 1 2.688759E-11
vn 0 0 0
vn 1.24372E-10 1 1.294397E-11
vn 0 0 0
vn 0.01746496 0.986036 -0.1656137
vn 0 0 0
vn 0.0169502 0.9860359 -0.1656673
vn 0 0 0
vn -1.254471E-10 1 -1.178298E-11
vn 0 0 0
vn -2.506657E-10 1 -2.203591E-11
vn 0 0 0
vn 0.01582701 0.9860362 -0.1657775
vn 0 0 0
vn 0.01522165 0.9860362 -0.1658338
vn 0 0 0
vn -1.253757E-10 1 -1.177627E-11
vn 0 0 0
vn 1.250068E-10 1 8.414334E-12
vn 0 0 0
vn 0.01388439 0.9860364 -0.1659507
vn 0 0 0
vn 0.01315583 0.9860363 -0.1660104
vn 0 0 0
vn 2.503251E-10 1 1.867435E-11
vn 0 0 0
vn 1.249692E-10 1 8.411807E-12
vn 0 0 0
vn 0.0115442 0.9860364 -0.1661294
vn 0 0 0
vn 0.01065296 0.9860362 -0.16619
vn 0 0 0
vn 1.264002E-10 1 6.245022E-12
vn 0 0 0
vn 2.532555E-10 1 9.690467E-12
vn 0 0 0
vn 0.008671818 0.9860363 -0.1663048
vn 0 0 0
vn 0.007567437 0.9860357 -0.1663612
vn 0 0 0
vn -1.081856E-13 1 2.848019E-12
vn 0 0 0
vn -3.825928E-10 1 -2.911543E-12
vn 0 0 0
vn 0.005045305 0.9860359 -0.1664558
vn 0 0 0
vn 0.003629136 0.9860355 -0.1664957
vn 0 0 0
vn -3.88984E-10 1 -6.756187E-12
vn 0 0 0
vn -1.124187E-13 1 -5.154065E-12
vn 0 0 0
vn 0.0003750648 0.9860362 -0.1665309
vn 0 0 0
vn -0.001514777 0.9860353 -0.1665297
vn 0 0 0
vn 2.674927E-10 1 -5.878765E-12
vn 0 0 0
vn 1.335847E-10 1 -5.587225E-12
vn 0 0 0
vn -0.00601319 0.9860364 -0.1664212
vn 0 0 0
vn -0.008683221 0.9860337 -0.1663197
vn 0 0 0
vn 0 1 0
vn 0 0 0
vn 0 1 0
vn 0 0 0
vn -0.01522421 0.9860365 -0.1658316
vn 0 0 0
vn -0.01938312 0.9860275 -0.1654505
vn 0 0 0
vn 0 1 0
vn 0 0 0
vn 0 1 0
vn 0 0 0
vn -0.0238021 0.9860031 -0.1650185
vn 0 0 0
vn -0.0238339 0.9859957 -0.1650592
vn 0 0 0

vt 0 0
vt 0 0
vt 0.05135498 0.5977966
vt 0.05135498 0.5977966
vt -0.03850708 -0.448346
vt -0.03850708 -0.448346
vt 0 0
vt 0 0
vt -1.069556 0.1154846
vt -1.069556 0.1154846
vt -0.996222 0.7109863
vt -0.996222 0.7109863
vt -1.124561 -0.3311401
vt -1.124561 -0.3311401
vt -1.069556 0.1154846
vt -1.069556 0.1154846
vt -2.089026 0.248877
vt -2.089026 0.248877
vt -2.007739 0.8433472
vt -2.007739 0.8433472
vt -2.149994 -0.1969727
vt -2.149994 -0.1969727
vt -2.089026 0.248877
vt -2.089026 0.248877
vt -3.095703 0.390033
vt -3.095703 0.390033
vt -3.010809 0.9839966
vt -3.010809 0.9839966
vt -3.159381 -0.05543823
vt -3.159381 -0.05543823
vt -3.095703 0.390033
vt -3.095703 0.390033
vt -4.09292 0.5341126
vt -4.09292 0.5341126
vt -4.006482 1.12785
vt -4.006482 1.12785
vt -4.157752 0.08880615
vt -4.157752 0.08880615
vt -4.09292 0.5341126
vt -4.09292 0.5341126
vt -5.095795 0.680542
vt -5.095795 0.680542
vt -5.009027 1.274237
vt -5.009027 1.274237
vt -5.160871 0.2352722
vt -5.160871 0.2352722
vt -5.095795 0.680542
vt -5.095795 0.680542
vt -6.084815 0.8247498
vt -6.084815 0.8247498
vt -5.998548 1.418518
vt -5.998548 1.418518
vt -6.149512 0.379425
vt -6.149512 0.379425
vt -6.084815 0.8247498
vt -6.084815 0.8247498
vt -7.078668 0.9682556
vt -7.078668 0.9682556
vt -6.993549 1.562189
vt -6.993549 1.562189
vt -7.142505 0.5228028
vt -7.142505 0.5228028
vt -7.078668 0.9682556
vt -7.078668 0.9682556
vt -8.0672 1.108575
vt -8.0672 1.108575
vt -7.983765 1.702741
vt -7.983765 1.702741
vt -8.129779 0.6629456
vt -8.129779 0.6629456
vt -8.0672 1.108575
vt -8.0672 1.108575
vt -9.059711 1.246161
vt -9.059711 1.246161
vt -8.978455 1.840631
vt -8.978455 1.840631
vt -9.120648 0.8003052
vt -9.120648 0.8003052
vt -9.059711 1.246161
vt -9.059711 1.246161
vt -10.04932 1.379224
vt -10.04932 1.379224
vt -9.97074 1.97406
vt -9.97074 1.97406
vt -10.10826 0.9330994
vt -10.10826 0.9330994
vt -10.04932 1.379224
vt -10.04932 1.379224
vt -11.04829 1.508527
vt -11.04829 1.508527
vt -10.97292 2.103772
vt -10.97292 2.103772
vt -11.1048 1.062091
vt -11.1048 1.062091
vt -11.04829 1.508527
vt -11.04829 1.508527
vt -12.03233 1.630066
vt -12.03233 1.630066
vt -11.96069 2.225775
vt -11.96069 2.225775
vt -12.08605 1.183289
vt -12.08605 1.183289
vt -12.03233 1.630066
vt -12.03233 1.630066
vt -13.01451 1.744635
vt -13.01451 1.744635
vt -12.94724 2.340851
vt -12.94724 2.340851
vt -13.06497 1.297473
vt -13.06497 1.297473
vt -13.01451 1.744635
vt -13.01451 1.744635
vt -14.00768 1.852454
vt -14.00768 1.852454
vt -13.94557 2.449231
vt -13.94557 2.449231
vt -14.05426 1.404877
vt -14.05426 1.404877
vt -14.00768 1.852454
vt -14.00768 1.852454
vt -14.98738 1.949585
vt -14.98738 1.949585
vt -14.93127 2.546954
vt -14.93127 2.546954
vt -15.02946 1.501556
vt -15.02946 1.501556
vt -14.98738 1.949585
vt -14.98738 1.949585
vt -15.96519 2.035724
vt -15.96519 2.035724
vt -15.91622 2.633722
vt -15.91622 2.633722
vt -16.00193 1.587225
vt -16.00193 1.587225
vt -15.96519 2.035724
vt -15.96519 2.035724
vt -16.95041 2.109461
vt -16.95041 2.109461
vt -16.91011 2.708106
vt -16.91011 2.708106
vt -16.98063 1.660474
vt -16.98063 1.660474
vt -16.95041 2.109461
vt -16.95041 2.109461
vt -17.9322 2.167078
vt -17.9322 2.167078
vt -17.90259 2.766351
vt -17.90259 2.766351
vt -17.95441 1.717627
vt -17.95441 1.717627
vt -17.9322 2.167078
vt -17.9322 2.167078
vt -18.89758 2.204474
vt -18.89758 2.204474
vt -18.88131 2.804254
vt -18.88131 2.804254
vt -18.90978 1.754645
vt -18.90978 1.754645
vt -18.89758 2.204474
vt -18.89758 2.204474
vt -19.85949 2.217206
vt -19.85949 2.217206
vt -19.86077 2.8172
vt -19.86077 2.8172
vt -19.85852 1.767206
vt -19.85852 1.767206
vt -19.85949 2.217206
vt -19.85949 2.217206
vt -20.79052 2.197882
vt -20.79052 2.197882
vt -20.81559 2.797357
vt -20.81559 2.797357
vt -20.77171 1.748273
vt -20.77171 1.748273
vt -20.79052 2.197882
vt -20.79052 2.197882
vt -21.68696 2.136188
vt -21.68696 2.136188
vt -21.74706 2.733173
vt -21.74706 2.733173
vt -21.64188 1.688452
vt -21.64188 1.688452
vt -21.68696 2.136188
vt -21.68696 2.136188
vt -22.5085 2.01756
vt -22.5085 2.01756
vt -22.62653 2.605835
vt -22.62653 2.605835
vt -22.41998 1.576349
vt -22.41998 1.576349
vt -22.5085 2.01756
vt -22.5085 2.01756

usemtl GSDShoulder1
usemap GSDShoulder1
f 9/9/9 1/1/1 3/3/3
f 11/11/11 9/9/9 3/3/3
f 13/13/13 5/5/5 7/7/7
f 15/15/15 13/13/13 7/7/7
f 17/17/17 9/9/9 11/11/11
f 19/19/19 17/17/17 11/11/11
f 21/21/21 13/13/13 15/15/15
f 23/23/23 21/21/21 15/15/15
f 25/25/25 17/17/17 19/19/19
f 27/27/27 25/25/25 19/19/19
f 29/29/29 21/21/21 23/23/23
f 31/31/31 29/29/29 23/23/23
f 33/33/33 25/25/25 27/27/27
f 35/35/35 33/33/33 27/27/27
f 37/37/37 29/29/29 31/31/31
f 39/39/39 37/37/37 31/31/31
f 41/41/41 33/33/33 35/35/35
f 43/43/43 41/41/41 35/35/35
f 45/45/45 37/37/37 39/39/39
f 47/47/47 45/45/45 39/39/39
f 49/49/49 41/41/41 43/43/43
f 51/51/51 49/49/49 43/43/43
f 53/53/53 45/45/45 47/47/47
f 55/55/55 53/53/53 47/47/47
f 57/57/57 49/49/49 51/51/51
f 59/59/59 57/57/57 51/51/51
f 61/61/61 53/53/53 55/55/55
f 63/63/63 61/61/61 55/55/55
f 65/65/65 57/57/57 59/59/59
f 67/67/67 65/65/65 59/59/59
f 69/69/69 61/61/61 63/63/63
f 71/71/71 69/69/69 63/63/63
f 73/73/73 65/65/65 67/67/67
f 75/75/75 73/73/73 67/67/67
f 77/77/77 69/69/69 71/71/71
f 79/79/79 77/77/77 71/71/71
f 81/81/81 73/73/73 75/75/75
f 83/83/83 81/81/81 75/75/75
f 85/85/85 77/77/77 79/79/79
f 87/87/87 85/85/85 79/79/79
f 89/89/89 81/81/81 83/83/83
f 91/91/91 89/89/89 83/83/83
f 93/93/93 85/85/85 87/87/87
f 95/95/95 93/93/93 87/87/87
f 97/97/97 89/89/89 91/91/91
f 99/99/99 97/97/97 91/91/91
f 101/101/101 93/93/93 95/95/95
f 103/103/103 101/101/101 95/95/95
f 105/105/105 97/97/97 99/99/99
f 107/107/107 105/105/105 99/99/99
f 109/109/109 101/101/101 103/103/103
f 111/111/111 109/109/109 103/103/103
f 113/113/113 105/105/105 107/107/107
f 115/115/115 113/113/113 107/107/107
f 117/117/117 109/109/109 111/111/111
f 119/119/119 117/117/117 111/111/111
f 121/121/121 113/113/113 115/115/115
f 123/123/123 121/121/121 115/115/115
f 125/125/125 117/117/117 119/119/119
f 127/127/127 125/125/125 119/119/119
f 129/129/129 121/121/121 123/123/123
f 131/131/131 129/129/129 123/123/123
f 133/133/133 125/125/125 127/127/127
f 135/135/135 133/133/133 127/127/127
f 137/137/137 129/129/129 131/131/131
f 139/139/139 137/137/137 131/131/131
f 141/141/141 133/133/133 135/135/135
f 143/143/143 141/141/141 135/135/135
f 145/145/145 137/137/137 139/139/139
f 147/147/147 145/145/145 139/139/139
f 149/149/149 141/141/141 143/143/143
f 151/151/151 149/149/149 143/143/143
f 153/153/153 145/145/145 147/147/147
f 155/155/155 153/153/153 147/147/147
f 157/157/157 149/149/149 151/151/151
f 159/159/159 157/157/157 151/151/151
f 161/161/161 153/153/153 155/155/155
f 163/163/163 161/161/161 155/155/155
f 165/165/165 157/157/157 159/159/159
f 167/167/167 165/165/165 159/159/159
f 169/169/169 161/161/161 163/163/163
f 171/171/171 169/169/169 163/163/163
f 173/173/173 165/165/165 167/167/167
f 175/175/175 173/173/173 167/167/167
f 177/177/177 169/169/169 171/171/171
f 179/179/179 177/177/177 171/171/171
f 181/181/181 173/173/173 175/175/175
f 183/183/183 181/181/181 175/175/175
f 185/185/185 177/177/177 179/179/179
f 187/187/187 185/185/185 179/179/179
f 189/189/189 181/181/181 183/183/183
f 191/191/191 189/189/189 183/183/183
