mtllib ./Road1_0_22.mtl
g RoadCut4
v -421.5839 0.03 380.4574
v -421.5839 0.03 380.4574
v -418.4969 0.03 368.8612
v -418.4969 0.03 368.8612
v -427.0828 0.03 378.6595
v -427.0828 0.03 378.6595
v -422.6136 0.03 367.5228
v -422.6136 0.03 367.5228
v -432.3177 0.03 376.2023
v -432.3177 0.03 376.2023
v -426.5857 0.03 365.6598
v -426.5857 0.03 365.6598
v -437.235 0.03 373.1141
v -437.235 0.03 373.1141
v -430.2144 0.03 363.3822
v -430.2144 0.03 363.3822
v -441.7357 0.03 369.3871
v -441.7357 0.03 369.3871
v -433.4772 0.03 360.6809
v -433.4772 0.03 360.6809
v -445.6667 0.03 365.1207
v -445.6667 0.03 365.1207
v -436.3171 0.03 357.5985
v -436.3171 0.03 357.5985
v -448.9897 0.03 360.3866
v -448.9897 0.03 360.3866
v -438.7441 0.03 354.1394
v -438.7441 0.03 354.1394
v -451.6896 0.03 355.2728
v -451.6896 0.03 355.2728
v -440.7599 0.03 350.319
v -440.7599 0.03 350.319
v -453.7481 0.03 349.9578
v -453.7481 0.03 349.9578
v -442.3392 0.03 346.238
v -442.3392 0.03 346.238
v -455.2181 0.03 344.5417
v -455.2181 0.03 344.5417
v -443.4983 0.03 341.9639
v -443.4983 0.03 341.9639
v -456.1692 0.03 339.0417
v -456.1692 0.03 339.0417
v -444.2663 0.03 337.5181
v -444.2663 0.03 337.5181
v -456.6433 0.03 333.5661
v -456.6433 0.03 333.5661
v -444.6562 0.03 333.0097
v -444.6562 0.03 333.0097
v -456.6866 0.03 328.0918
v -456.6866 0.03 328.0918
v -444.6921 0.03 328.4539
v -444.6921 0.03 328.4539

vn 0 1 0
vn 0 0 0
vn 0 1 0
vn 0 0 0
vn 0 1 0
vn 0 0 0
vn 0 1 0
vn 0 0 0
vn 0 1 0
vn 0 0 0
vn 0 1 0
vn 0 0 0
vn 0 1 0
vn 0 0 0
vn 0 1 0
vn 0 0 0
vn 0 1 0
vn 0 0 0
vn 0 1 0
vn 0 0 0
vn -7.417364E-11 1 -9.219344E-11
vn 0 0 0
vn -1.508309E-10 1 -2.146461E-10
vn 0 0 0
vn -7.408581E-11 1 -9.208428E-11
vn 0 0 0
vn 5.376995E-11 1 1.186347E-10
vn 0 0 0
vn 1.102194E-10 1 2.08367E-10
vn 0 0 0
vn 5.350143E-11 1 1.180422E-10
vn 0 0 0
vn 0 1 0
vn 0 0 0
vn 0 1 0
vn 0 0 0
vn 0 1 0
vn 0 0 0
vn 0 1 0
vn 0 0 0
vn 1.51846E-11 1 1.186258E-10
vn 0 0 0
vn 2.223423E-11 1 2.553785E-10
vn 0 0 0
vn 1.527412E-11 1 1.193252E-10
vn 0 0 0
vn 3.864575E-12 1 -1.280058E-10
vn 0 0 0
vn -3.00768E-12 0.9999999 -3.713899E-10
vn 0 0 0
vn 1.234645E-11 1 -4.089499E-10
vn 0 0 0

vt 0 0
vt 0 0
vt -0.617395 -2.319226
vt -0.617395 -2.319226
vt 1.099786 -0.3595703
vt 1.099786 -0.3595703
vt 0.2059509 -2.586914
vt 0.2059509 -2.586914
vt 2.146771 -0.8510132
vt 2.146771 -0.8510132
vt 1.00036 -2.959509
vt 1.00036 -2.959509
vt 3.130231 -1.468652
vt 3.130231 -1.468652
vt 1.726105 -3.415039
vt 1.726105 -3.415039
vt 4.030365 -2.214056
vt 4.030365 -2.214056
vt 2.378668 -3.955292
vt 2.378668 -3.955292
vt 4.816571 -3.067334
vt 4.816571 -3.067334
vt 2.946637 -4.571777
vt 2.946637 -4.571777
vt 5.481159 -4.014148
vt 5.481159 -4.014148
vt 3.43205 -5.263599
vt 3.43205 -5.263599
vt 6.021142 -5.036908
vt 6.021142 -5.036908
vt 3.835193 -6.027668
vt 3.835193 -6.027668
vt 6.432843 -6.099921
vt 6.432843 -6.099921
vt 4.151056 -6.843878
vt 4.151056 -6.843878
vt 6.726843 -7.18313
vt 6.726843 -7.18313
vt 4.382874 -7.698694
vt 4.382874 -7.698694
vt 6.917066 -8.28313
vt 6.917066 -8.28313
vt 4.536487 -8.587854
vt 4.536487 -8.587854
vt 7.01189 -9.37826
vt 7.01189 -9.37826
vt 4.614465 -9.489527
vt 4.614465 -9.489527
vt 7.020545 -10.47311
vt 7.020545 -10.47311
vt 4.621643 -10.40068
vt 4.621643 -10.40068

usemtl GSDRoad1
usemap GSDRoad1
f 5/5/5 1/1/1 3/3/3
f 7/7/7 5/5/5 3/3/3
f 9/9/9 5/5/5 7/7/7
f 11/11/11 9/9/9 7/7/7
f 13/13/13 9/9/9 11/11/11
f 15/15/15 13/13/13 11/11/11
f 17/17/17 13/13/13 15/15/15
f 19/19/19 17/17/17 15/15/15
f 21/21/21 17/17/17 19/19/19
f 23/23/23 21/21/21 19/19/19
f 25/25/25 21/21/21 23/23/23
f 27/27/27 25/25/25 23/23/23
f 29/29/29 25/25/25 27/27/27
f 31/31/31 29/29/29 27/27/27
f 33/33/33 29/29/29 31/31/31
f 35/35/35 33/33/33 31/31/31
f 37/37/37 33/33/33 35/35/35
f 39/39/39 37/37/37 35/35/35
f 41/41/41 37/37/37 39/39/39
f 43/43/43 41/41/41 39/39/39
f 45/45/45 41/41/41 43/43/43
f 47/47/47 45/45/45 43/43/43
f 49/49/49 45/45/45 47/47/47
f 51/51/51 49/49/49 47/47/47
