mtllib ./Road1_0_56.mtl
g SCutR4
v -418.4969 0.03 368.8612
v -418.4969 0.03 368.8612
v -417.7252 0.03 365.9622
v -417.7252 0.03 365.9622
v -417.7252 0.03 365.9622
v -417.7252 0.03 365.9622
v -417.1464 -0.35 363.7879
v -417.1464 -0.35 363.7879
v -422.6136 0.03 367.5228
v -422.6136 0.03 367.5228
v -421.4964 0.03 364.7386
v -421.4964 0.03 364.7386
v -421.4964 0.03 364.7386
v -421.4964 0.03 364.7386
v -420.6584 -0.35 362.6505
v -420.6584 -0.35 362.6505
v -426.5857 0.03 365.6598
v -426.5857 0.03 365.6598
v -425.1527 0.03 363.0242
v -425.1527 0.03 363.0242
v -425.1527 0.03 363.0242
v -425.1527 0.03 363.0242
v -424.0779 -0.35 361.0475
v -424.0779 -0.35 361.0475
v -430.2144 0.03 363.3822
v -430.2144 0.03 363.3822
v -428.4592 0.03 360.9492
v -428.4592 0.03 360.9492
v -428.4592 0.03 360.9492
v -428.4592 0.03 360.9492
v -427.1429 -0.35 359.1245
v -427.1429 -0.35 359.1245
v -433.4772 0.03 360.6809
v -433.4772 0.03 360.6809
v -431.4126 0.03 358.5044
v -431.4126 0.03 358.5044
v -431.4126 0.03 358.5044
v -431.4126 0.03 358.5044
v -429.8642 -0.35 356.8719
v -429.8642 -0.35 356.8719
v -436.3171 0.03 357.5985
v -436.3171 0.03 357.5985
v -433.9796 0.03 355.7179
v -433.9796 0.03 355.7179
v -433.9796 0.03 355.7179
v -433.9796 0.03 355.7179
v -432.2266 -0.35 354.3075
v -432.2266 -0.35 354.3075
v -438.7441 0.03 354.1394
v -438.7441 0.03 354.1394
v -436.1827 0.03 352.5775
v -436.1827 0.03 352.5775
v -436.1827 0.03 352.5775
v -436.1827 0.03 352.5775
v -434.2617 -0.35 351.4062
v -434.2617 -0.35 351.4062
v -440.7599 0.03 350.319
v -440.7599 0.03 350.319
v -438.0274 0.03 349.0806
v -438.0274 0.03 349.0806
v -438.0274 0.03 349.0806
v -438.0274 0.03 349.0806
v -435.9781 -0.35 348.1517
v -435.9781 -0.35 348.1517
v -442.3392 0.03 346.238
v -442.3392 0.03 346.238
v -439.487 0.03 345.308
v -439.487 0.03 345.308
v -439.487 0.03 345.308
v -439.487 0.03 345.308
v -437.3478 -0.35 344.6106
v -437.3478 -0.35 344.6106
v -443.4983 0.03 341.9639
v -443.4983 0.03 341.9639
v -440.5683 0.03 341.3195
v -440.5683 0.03 341.3195
v -440.5683 0.03 341.3195
v -440.5683 0.03 341.3195
v -438.3708 -0.35 340.8361
v -438.3708 -0.35 340.8361
v -444.2663 0.03 337.5181
v -444.2663 0.03 337.5181
v -441.2906 0.03 337.1372
v -441.2906 0.03 337.1372
v -441.2906 0.03 337.1372
v -441.2906 0.03 337.1372
v -439.0588 -0.35 336.8515
v -439.0588 -0.35 336.8515
v -444.6562 0.03 333.0097
v -444.6562 0.03 333.0097
v -441.6595 0.03 332.8707
v -441.6595 0.03 332.8707
v -441.6595 0.03 332.8707
v -441.6595 0.03 332.8707
v -439.4119 -0.35 332.7664
v -439.4119 -0.35 332.7664
v -444.6921 0.03 328.4539
v -444.6921 0.03 328.4539
v -441.6935 0.03 328.5445
v -441.6935 0.03 328.5445
v -441.6935 0.03 328.5445
v -441.6935 0.03 328.5445
v -439.4445 -0.35 328.6124
v -439.4445 -0.35 328.6124

vn 0 1 0
vn 0 0 0
vn 0 1 0
vn 0 0 0
vn 0.0514654 0.9859971 -0.1586219
vn 0 0 0
vn 0.05144655 0.985985 -0.1587033
vn 0 0 0
vn 0 1 0
vn 0 0 0
vn 0 1 0
vn 0 0 0
vn 0.05813682 0.9860358 -0.156056
vn 0 0 0
vn 0.06459574 0.986031 -0.1535264
vn 0 0 0
vn 0 1 0
vn 0 0 0
vn 0 1 0
vn 0 0 0
vn 0.07676674 0.9860329 -0.147804
vn 0 0 0
vn 0.08271373 0.9860287 -0.1445885
vn 0 0 0
vn 0 1 0
vn 0 0 0
vn 0 1 0
vn 0 0 0
vn 0.09467855 0.9860319 -0.1370292
vn 0 0 0
vn 0.1005842 0.9860282 -0.1327825
vn 0 0 0
vn 0 0.9999999 0
vn 0 0 0
vn 0 1 0
vn 0 0 0
vn 0.1119722 0.9860305 -0.1233129
vn 0 0 0
vn 0.1174185 0.9860291 -0.1181504
vn 0 0 0
vn -9.587474E-11 1 -1.191674E-10
vn 0 0 0
vn -1.807462E-10 1 -2.572188E-10
vn 0 0 0
vn 0.1275436 0.9860298 -0.107135
vn 0 0 0
vn 0.1321713 0.9860297 -0.1013709
vn 0 0 0
vn -9.449694E-11 0.9999999 -1.174549E-10
vn 0 0 0
vn 6.362078E-11 1 1.403714E-10
vn 0 0 0
vn 0.1404426 0.9860297 -0.08956096
vn 0 0 0
vn 0.1440969 0.986031 -0.08353949
vn 0 0 0
vn 1.376932E-10 0.9999999 2.60307E-10
vn 0 0 0
vn 6.223681E-11 1 1.373179E-10
vn 0 0 0
vn 0.1503367 0.98603 -0.07172021
vn 0 0 0
vn 0.1529989 0.9860327 -0.06580908
vn 0 0 0
vn 0 1 0
vn 0 0 0
vn 0 1 0
vn 0 0 0
vn 0.1574067 0.9860309 -0.05446308
vn 0 0 0
vn 0.1591984 0.9860336 -0.04892604
vn 0 0 0
vn 0 1 0
vn 0 0 0
vn 0 1 0
vn 0 0 0
vn 0.16208 0.9860319 -0.03835395
vn 0 0 0
vn 0.163191 0.9860339 -0.03325434
vn 0 0 0
vn 1.78233E-11 1 1.392448E-10
vn 0 0 0
vn 2.475618E-11 1 2.843604E-10
vn 0 0 0
vn 0.1648721 0.9860328 -0.02359224
vn 0 0 0
vn 0.1654643 0.9860344 -0.01891045
vn 0 0 0
vn 1.771053E-11 1 1.383638E-10
vn 0 0 0
vn 4.272138E-12 1 -1.415308E-10
vn 0 0 0
vn 0.1662512 0.9860337 -0.009912322
vn 0 0 0
vn 0.1664503 0.9860342 -0.005559369
vn 0 0 0
vn -3.39643E-12 1 -4.19394E-10
vn 0 0 0
vn 1.299932E-11 1 -4.306518E-10
vn 0 0 0
vn 0.1666443 0.9860162 -0.001309148
vn 0 0 0
vn 0.1666435 0.9860164 -0.001308734
vn 0 0 0

vt 0 0
vt 0 0
vt -0.1543457 -0.5798096
vt -0.1543457 -0.5798096
vt -0.1543457 -0.5798096
vt -0.1543457 -0.5798096
vt -0.2701111 -1.014667
vt -0.2701111 -1.014667
vt 0.823346 -0.267688
vt 0.823346 -0.267688
vt 0.5998902 -0.8245239
vt 0.5998902 -0.8245239
vt 0.5998902 -0.8245239
vt 0.5998902 -0.8245239
vt 0.4322998 -1.242151
vt 0.4322998 -1.242151
vt 1.617755 -0.6402832
vt 1.617755 -0.6402832
vt 1.331159 -1.167407
vt 1.331159 -1.167407
vt 1.331159 -1.167407
vt 1.331159 -1.167407
vt 1.116205 -1.56275
vt 1.116205 -1.56275
vt 2.3435 -1.095813
vt 2.3435 -1.095813
vt 1.992462 -1.58241
vt 1.992462 -1.58241
vt 1.992462 -1.58241
vt 1.992462 -1.58241
vt 1.729187 -1.947357
vt 1.729187 -1.947357
vt 2.996063 -1.636066
vt 2.996063 -1.636066
vt 2.583142 -2.071375
vt 2.583142 -2.071375
vt 2.583142 -2.071375
vt 2.583142 -2.071375
vt 2.27345 -2.397858
vt 2.27345 -2.397858
vt 3.564032 -2.252551
vt 3.564032 -2.252551
vt 3.096545 -2.628662
vt 3.096545 -2.628662
vt 3.096545 -2.628662
vt 3.096545 -2.628662
vt 2.745935 -2.910742
vt 2.745935 -2.910742
vt 4.049445 -2.944373
vt 4.049445 -2.944373
vt 3.537164 -3.256738
vt 3.537164 -3.256738
vt 3.537164 -3.256738
vt 3.537164 -3.256738
vt 3.152954 -3.491009
vt 3.152954 -3.491009
vt 4.452588 -3.708441
vt 4.452588 -3.708441
vt 3.906097 -3.956128
vt 3.906097 -3.956128
vt 3.906097 -3.956128
vt 3.906097 -3.956128
vt 3.496228 -4.141901
vt 3.496228 -4.141901
vt 4.768451 -4.524652
vt 4.768451 -4.524652
vt 4.19801 -4.710639
vt 4.19801 -4.710639
vt 4.19801 -4.710639
vt 4.19801 -4.710639
vt 3.770172 -4.850128
vt 3.770172 -4.850128
vt 5.000268 -5.379468
vt 5.000268 -5.379468
vt 4.414276 -5.508356
vt 4.414276 -5.508356
vt 4.414276 -5.508356
vt 4.414276 -5.508356
vt 3.97478 -5.605023
vt 3.97478 -5.605023
vt 5.153882 -6.268628
vt 5.153882 -6.268628
vt 4.55874 -6.344806
vt 4.55874 -6.344806
vt 4.55874 -6.344806
vt 4.55874 -6.344806
vt 4.112378 -6.401941
vt 4.112378 -6.401941
vt 5.231861 -7.1703
vt 5.231861 -7.1703
vt 4.632507 -7.198114
vt 4.632507 -7.198114
vt 4.632507 -7.198114
vt 4.632507 -7.198114
vt 4.18299 -7.218976
vt 4.18299 -7.218976
vt 5.239038 -8.081458
vt 5.239038 -8.081458
vt 4.639307 -8.063354
vt 4.639307 -8.063354
vt 4.639307 -8.063354
vt 4.639307 -8.063354
vt 4.189514 -8.049774
vt 4.189514 -8.049774

usemtl GSDShoulder1
usemap GSDShoulder1
f 9/9/9 1/1/1 3/3/3
f 11/11/11 9/9/9 3/3/3
f 13/13/13 5/5/5 7/7/7
f 15/15/15 13/13/13 7/7/7
f 17/17/17 9/9/9 11/11/11
f 19/19/19 17/17/17 11/11/11
f 21/21/21 13/13/13 15/15/15
f 23/23/23 21/21/21 15/15/15
f 25/25/25 17/17/17 19/19/19
f 27/27/27 25/25/25 19/19/19
f 29/29/29 21/21/21 23/23/23
f 31/31/31 29/29/29 23/23/23
f 33/33/33 25/25/25 27/27/27
f 35/35/35 33/33/33 27/27/27
f 37/37/37 29/29/29 31/31/31
f 39/39/39 37/37/37 31/31/31
f 41/41/41 33/33/33 35/35/35
f 43/43/43 41/41/41 35/35/35
f 45/45/45 37/37/37 39/39/39
f 47/47/47 45/45/45 39/39/39
f 49/49/49 41/41/41 43/43/43
f 51/51/51 49/49/49 43/43/43
f 53/53/53 45/45/45 47/47/47
f 55/55/55 53/53/53 47/47/47
f 57/57/57 49/49/49 51/51/51
f 59/59/59 57/57/57 51/51/51
f 61/61/61 53/53/53 55/55/55
f 63/63/63 61/61/61 55/55/55
f 65/65/65 57/57/57 59/59/59
f 67/67/67 65/65/65 59/59/59
f 69/69/69 61/61/61 63/63/63
f 71/71/71 69/69/69 63/63/63
f 73/73/73 65/65/65 67/67/67
f 75/75/75 73/73/73 67/67/67
f 77/77/77 69/69/69 71/71/71
f 79/79/79 77/77/77 71/71/71
f 81/81/81 73/73/73 75/75/75
f 83/83/83 81/81/81 75/75/75
f 85/85/85 77/77/77 79/79/79
f 87/87/87 85/85/85 79/79/79
f 89/89/89 81/81/81 83/83/83
f 91/91/91 89/89/89 83/83/83
f 93/93/93 85/85/85 87/87/87
f 95/95/95 93/93/93 87/87/87
f 97/97/97 89/89/89 91/91/91
f 99/99/99 97/97/97 91/91/91
f 101/101/101 93/93/93 95/95/95
f 103/103/103 101/101/101 95/95/95
