mtllib ./Road1_0_26.mtl
g RoadCut6
v -420.0866 0.03 277.3329
v -420.0866 0.03 277.3329
v -417.2217 0.03 288.9859
v -417.2217 0.03 288.9859
v -414.7162 0.03 276.2225
v -414.7162 0.03 276.2225
v -412.7882 0.03 288.0666
v -412.7882 0.03 288.0666
v -409.2751 0.03 275.5595
v -409.2751 0.03 275.5595
v -408.2371 0.03 287.5145
v -408.2371 0.03 287.5145
v -403.9916 0.03 275.2366
v -403.9916 0.03 275.2366
v -403.5308 0.03 287.2277
v -403.5308 0.03 287.2277
v -398.7455 0.03 275.129
v -398.7455 0.03 275.129
v -398.6927 0.03 287.1288
v -398.6927 0.03 287.1288
v -393.5612 0.03 275.1739
v -393.5612 0.03 275.1739
v -393.808 0.03 287.1713
v -393.808 0.03 287.1713
v -388.4386 0.03 275.3297
v -388.4386 0.03 275.3297
v -388.9118 0.03 287.3204
v -388.9118 0.03 287.3204
v -383.3556 0.03 275.569
v -383.3556 0.03 275.569
v -384.0042 0.03 287.5515
v -384.0042 0.03 287.5515
v -378.2737 0.03 275.8747
v -378.2737 0.03 275.8747
v -379.0605 0.03 287.8489
v -379.0605 0.03 287.8489
v -373.225 0.03 276.2303
v -373.225 0.03 276.2303
v -374.1202 0.03 288.1968
v -374.1202 0.03 288.1968
v -368.1518 0.03 276.6288
v -368.1518 0.03 276.6288
v -369.1324 0.03 288.5887
v -369.1324 0.03 288.5887
v -363.0761 0.03 277.0597
v -363.0761 0.03 277.0597
v -364.1226 0.03 289.014
v -364.1226 0.03 289.014
v -358.0181 0.03 277.5134
v -358.0181 0.03 277.5134
v -359.1132 0.03 289.4633
v -359.1132 0.03 289.4633
v -352.9962 0.03 277.9811
v -352.9962 0.03 277.9811
v -354.1248 0.03 289.928
v -354.1248 0.03 289.928
v -347.9372 0.03 278.4638
v -347.9372 0.03 278.4638
v -349.0858 0.03 290.4087
v -349.0858 0.03 290.4087
v -342.9471 0.03 278.9456
v -342.9471 0.03 278.9456
v -344.1027 0.03 290.8898
v -344.1027 0.03 290.8898
v -337.9501 0.03 279.4283
v -337.9501 0.03 279.4283
v -339.1005 0.03 291.3731
v -339.1005 0.03 291.3731
v -332.9604 0.03 279.9056
v -332.9604 0.03 279.9056
v -334.0933 0.03 291.852
v -334.0933 0.03 291.852
v -327.9925 0.03 280.3709
v -327.9925 0.03 280.3709
v -329.0953 0.03 292.3201
v -329.0953 0.03 292.3201
v -322.9722 0.03 280.8254
v -322.9722 0.03 280.8254
v -324.0312 0.03 292.7786
v -324.0312 0.03 292.7786
v -318.0055 0.03 281.2538
v -318.0055 0.03 281.2538
v -319.0063 0.03 293.212
v -319.0063 0.03 293.212
v -313.0214 0.03 281.6559
v -313.0214 0.03 281.6559
v -313.9473 0.03 293.6201
v -313.9473 0.03 293.6201
v -308.0406 0.03 282.0224
v -308.0406 0.03 282.0224
v -308.8726 0.03 293.9935
v -308.8726 0.03 293.9935
v -303.0868 0.03 282.3435
v -303.0868 0.03 282.3435
v -303.8027 0.03 294.3221
v -303.8027 0.03 294.3221
v -298.1048 0.03 282.6121
v -298.1048 0.03 282.6121
v -298.676 0.03 294.5985
v -298.676 0.03 294.5985
v -293.1312 0.03 282.8131
v -293.1312 0.03 282.8131
v -293.5222 0.03 294.8067
v -293.5222 0.03 294.8067
v -288.2088 0.03 282.9293
v -288.2088 0.03 282.9293
v -288.3752 0.03 294.9282
v -288.3752 0.03 294.9282
v -283.3161 0.03 282.9414
v -283.3161 0.03 282.9414
v -283.1964 0.03 294.9408
v -283.1964 0.03 294.9408
v -278.4593 0.03 282.8209
v -278.4593 0.03 282.8209
v -277.9655 0.03 294.8107
v -277.9655 0.03 294.8107
v -273.6814 0.03 282.5288
v -273.6814 0.03 282.5288
v -272.6823 0.03 294.4871
v -272.6823 0.03 294.4871
v -269.0268 0.03 282.0081
v -269.0268 0.03 282.0081
v -267.3097 0.03 293.8847
v -267.3097 0.03 293.8847

vn -6.601148E-10 1 1.622912E-10
vn 0 0 0
vn -7.291672E-10 1 1.487363E-10
vn 0 0 0
vn -3.524371E-10 1 7.678282E-11
vn 0 0 0
vn 1.180465E-12 1 9.473604E-12
vn 0 0 0
vn 2.406513E-10 1 -2.999215E-11
vn 0 0 0
vn 1.272112E-10 1 -1.104544E-11
vn 0 0 0
vn 0 1 0
vn 0 0 0
vn 0 1 0
vn 0 0 0
vn 1.219883E-10 1 -5.360869E-13
vn 0 0 0
vn 2.498725E-10 1 2.020349E-12
vn 0 0 0
vn 1.225949E-10 1 -5.387526E-13
vn 0 0 0
vn -1.24849E-10 1 -4.927105E-12
vn 0 0 0
vn -2.463995E-10 1 -7.395353E-12
vn 0 0 0
vn -1.249158E-10 1 -4.929742E-12
vn 0 0 0
vn 0 1 0
vn 0 0 0
vn 0 1 0
vn 0 0 0
vn 0 1 0
vn 0 0 0
vn 0 0.9999999 0
vn 0 0 0
vn 0 1 0
vn 0 0 0
vn 0 1 0
vn 0 0 0
vn 0 1 0
vn 0 0 0
vn 0 0.9999999 0
vn 0 0 0
vn 0 1 0
vn 0 0 0
vn 0 1 0
vn 0 0 0
vn 1.224229E-10 1 1.121883E-11
vn 0 0 0
vn 2.459226E-10 1 2.288347E-11
vn 0 0 0
vn 2.450687E-10 1 2.280402E-11
vn 0 0 0
vn 1.223704E-10 0.9999999 1.155953E-11
vn 0 0 0
vn -1.22324E-10 1 -1.176206E-11
vn 0 0 0
vn -2.458709E-10 1 -2.371461E-11
vn 0 0 0
vn -2.465511E-10 1 -2.378021E-11
vn 0 0 0
vn -1.231716E-10 1 -1.19166E-11
vn 0 0 0
vn 1.231264E-10 1 1.18582E-11
vn 0 0 0
vn 2.461108E-10 0.9999999 2.352065E-11
vn 0 0 0
vn -1.701658E-14 1 1.808799E-13
vn 0 0 0
vn -3.699489E-10 1 -3.445676E-11
vn 0 0 0
vn -3.696553E-10 1 -3.474181E-11
vn 0 0 0
vn 4.065927E-14 1 -4.49754E-13
vn 0 0 0
vn 2.45529E-10 1 2.220637E-11
vn 0 0 0
vn 1.22763E-10 1 1.087586E-11
vn 0 0 0
vn 1.235054E-10 1 1.033693E-11
vn 0 0 0
vn 2.45598E-10 0.9999999 1.978156E-11
vn 0 0 0
vn 2.46401E-10 1 1.984624E-11
vn 0 0 0
vn 1.225155E-10 1 9.482008E-12
vn 0 0 0
vn 0 1 0
vn 0 0 0
vn 0 0.9999999 0
vn 0 0 0
vn -1.236769E-10 0.9999999 -7.391956E-12
vn 0 0 0
vn -2.446677E-10 1 -1.314057E-11
vn 0 0 0
vn -1.231277E-10 1 -7.359129E-12
vn 0 0 0
vn 1.219203E-10 1 3.975205E-12
vn 0 0 0
vn 1.2355E-10 1 5.887319E-12
vn 0 0 0
vn -1.222926E-10 1 -1.696392E-12
vn 0 0 0
vn -2.488696E-10 1 -5.782791E-12
vn 0 0 0
vn -1.223779E-10 1 -1.697575E-12
vn 0 0 0
vn 1.247649E-10 1 -1.243854E-12
vn 0 0 0
vn 2.438842E-10 1 -6.236736E-12
vn 0 0 0
vn 9.999019E-14 1 3.904712E-12
vn 0 0 0
vn -3.640474E-10 0.9999999 2.526588E-11
vn 0 0 0
vn -5.037102E-10 0.9999999 3.140117E-11
vn 0 0 0
vn -2.414214E-10 1 2.01701E-11
vn 0 0 0
vn 0 0.9999999 0
vn 0 0 0
vn 0 1 0
vn 0 0 0

vt 0 0
vt 0 0
vt -0.5729858 2.330603
vt -0.5729858 2.330603
vt -1.074078 -0.2220886
vt -1.074078 -0.2220886
vt -1.459686 2.146735
vt -1.459686 2.146735
vt -2.162311 -0.3546814
vt -2.162311 -0.3546814
vt -2.369916 2.036322
vt -2.369916 2.036322
vt -3.219012 -0.4192688
vt -3.219012 -0.4192688
vt -3.311163 1.978961
vt -3.311163 1.978961
vt -4.268238 -0.4407898
vt -4.268238 -0.4407898
vt -4.278784 1.959186
vt -4.278784 1.959186
vt -5.30509 -0.4318054
vt -5.30509 -0.4318054
vt -5.255737 1.967682
vt -5.255737 1.967682
vt -6.329614 -0.4006409
vt -6.329614 -0.4006409
vt -6.234973 1.997491
vt -6.234973 1.997491
vt -7.346204 -0.3527771
vt -7.346204 -0.3527771
vt -7.216492 2.04372
vt -7.216492 2.04372
vt -8.362586 -0.2916443
vt -8.362586 -0.2916443
vt -8.205237 2.103192
vt -8.205237 2.103192
vt -9.372321 -0.2205261
vt -9.372321 -0.2205261
vt -9.19328 2.172785
vt -9.19328 2.172785
vt -10.38697 -0.1408203
vt -10.38697 -0.1408203
vt -10.19084 2.251148
vt -10.19084 2.251148
vt -11.40211 -0.05464477
vt -11.40211 -0.05464477
vt -11.19282 2.336212
vt -11.19282 2.336212
vt -12.41371 0.03609009
vt -12.41371 0.03609009
vt -12.19469 2.42608
vt -12.19469 2.42608
vt -13.41808 0.1296448
vt -13.41808 0.1296448
vt -13.19237 2.519012
vt -13.19237 2.519012
vt -14.42989 0.2261841
vt -14.42989 0.2261841
vt -14.20018 2.615161
vt -14.20018 2.615161
vt -15.42791 0.3225281
vt -15.42791 0.3225281
vt -15.19679 2.711371
vt -15.19679 2.711371
vt -16.42731 0.4190857
vt -16.42731 0.4190857
vt -16.19724 2.808038
vt -16.19724 2.808038
vt -17.42525 0.5145386
vt -17.42525 0.5145386
vt -17.19867 2.903821
vt -17.19867 2.903821
vt -18.41883 0.6075989
vt -18.41883 0.6075989
vt -18.19826 2.997443
vt -18.19826 2.997443
vt -19.42288 0.6985046
vt -19.42288 0.6985046
vt -19.21109 3.089142
vt -19.21109 3.089142
vt -20.41623 0.7841797
vt -20.41623 0.7841797
vt -20.21606 3.175818
vt -20.21606 3.175818
vt -21.41306 0.8645935
vt -21.41306 0.8645935
vt -21.22786 3.25744
vt -21.22786 3.25744
vt -22.40921 0.9378967
vt -22.40921 0.9378967
vt -22.2428 3.332123
vt -22.2428 3.332123
vt -23.39997 1.002112
vt -23.39997 1.002112
vt -23.25678 3.397839
vt -23.25678 3.397839
vt -24.39637 1.055841
vt -24.39637 1.055841
vt -24.28214 3.453119
vt -24.28214 3.453119
vt -25.3911 1.096033
vt -25.3911 1.096033
vt -25.31289 3.494763
vt -25.31289 3.494763
vt -26.37557 1.119281
vt -26.37557 1.119281
vt -26.34229 3.519049
vt -26.34229 3.519049
vt -27.35411 1.121692
vt -27.35411 1.121692
vt -27.37804 3.52157
vt -27.37804 3.52157
vt -28.32546 1.097595
vt -28.32546 1.097595
vt -28.42423 3.495557
vt -28.42423 3.495557
vt -29.28106 1.039172
vt -29.28106 1.039172
vt -29.48087 3.430835
vt -29.48087 3.430835
vt -30.21196 0.9350464
vt -30.21196 0.9350464
vt -30.5554 3.310352
vt -30.5554 3.310352

usemtl GSDRoad1
usemap GSDRoad1
f 5/5/5 1/1/1 3/3/3
f 7/7/7 5/5/5 3/3/3
f 9/9/9 5/5/5 7/7/7
f 11/11/11 9/9/9 7/7/7
f 13/13/13 9/9/9 11/11/11
f 15/15/15 13/13/13 11/11/11
f 17/17/17 13/13/13 15/15/15
f 19/19/19 17/17/17 15/15/15
f 21/21/21 17/17/17 19/19/19
f 23/23/23 21/21/21 19/19/19
f 25/25/25 21/21/21 23/23/23
f 27/27/27 25/25/25 23/23/23
f 29/29/29 25/25/25 27/27/27
f 31/31/31 29/29/29 27/27/27
f 33/33/33 29/29/29 31/31/31
f 35/35/35 33/33/33 31/31/31
f 37/37/37 33/33/33 35/35/35
f 39/39/39 37/37/37 35/35/35
f 41/41/41 37/37/37 39/39/39
f 43/43/43 41/41/41 39/39/39
f 45/45/45 41/41/41 43/43/43
f 47/47/47 45/45/45 43/43/43
f 49/49/49 45/45/45 47/47/47
f 51/51/51 49/49/49 47/47/47
f 53/53/53 49/49/49 51/51/51
f 55/55/55 53/53/53 51/51/51
f 57/57/57 53/53/53 55/55/55
f 59/59/59 57/57/57 55/55/55
f 61/61/61 57/57/57 59/59/59
f 63/63/63 61/61/61 59/59/59
f 65/65/65 61/61/61 63/63/63
f 67/67/67 65/65/65 63/63/63
f 69/69/69 65/65/65 67/67/67
f 71/71/71 69/69/69 67/67/67
f 73/73/73 69/69/69 71/71/71
f 75/75/75 73/73/73 71/71/71
f 77/77/77 73/73/73 75/75/75
f 79/79/79 77/77/77 75/75/75
f 81/81/81 77/77/77 79/79/79
f 83/83/83 81/81/81 79/79/79
f 85/85/85 81/81/81 83/83/83
f 87/87/87 85/85/85 83/83/83
f 89/89/89 85/85/85 87/87/87
f 91/91/91 89/89/89 87/87/87
f 93/93/93 89/89/89 91/91/91
f 95/95/95 93/93/93 91/91/91
f 97/97/97 93/93/93 95/95/95
f 99/99/99 97/97/97 95/95/95
f 101/101/101 97/97/97 99/99/99
f 103/103/103 101/101/101 99/99/99
f 105/105/105 101/101/101 103/103/103
f 107/107/107 105/105/105 103/103/103
f 109/109/109 105/105/105 107/107/107
f 111/111/111 109/109/109 107/107/107
f 113/113/113 109/109/109 111/111/111
f 115/115/115 113/113/113 111/111/111
f 117/117/117 113/113/113 115/115/115
f 119/119/119 117/117/117 115/115/115
f 121/121/121 117/117/117 119/119/119
f 123/123/123 121/121/121 119/119/119
