mtllib ./Road1_0_66.mtl
g SCutR14
v -21.08488 0.03 305.5258
v -21.08488 0.03 305.5258
v -18.28341 0.03 306.599
v -18.28341 0.03 306.599
v -18.28341 0.03 306.599
v -18.28341 0.03 306.599
v -16.1823 -0.35 307.4039
v -16.1823 -0.35 307.4039
v -19.28477 0.03 300.4385
v -19.28477 0.03 300.4385
v -16.4276 0.03 301.3531
v -16.4276 0.03 301.3531
v -16.4276 0.03 301.3531
v -16.4276 0.03 301.3531
v -14.28472 -0.35 302.0392
v -14.28472 -0.35 302.0392
v -17.81077 0.03 295.1666
v -17.81077 0.03 295.1666
v -14.89187 0.03 295.8594
v -14.89187 0.03 295.8594
v -14.89187 0.03 295.8594
v -14.89187 0.03 295.8594
v -12.70269 -0.35 296.3791
v -12.70269 -0.35 296.3791
v -16.7651 0.03 289.6417
v -16.7651 0.03 289.6417
v -13.79372 0.03 290.0551
v -13.79372 0.03 290.0551
v -13.79372 0.03 290.0551
v -13.79372 0.03 290.0551
v -11.56518 -0.35 290.3651
v -11.56518 -0.35 290.3651
v -16.2923 0.03 283.9391
v -16.2923 0.03 283.9391
v -13.29319 0.03 284.0122
v -13.29319 0.03 284.0122
v -13.29319 0.03 284.0122
v -13.29319 0.03 284.0122
v -11.04386 -0.35 284.067
v -11.04386 -0.35 284.067
v -16.5232 0.03 278.1448
v -16.5232 0.03 278.1448
v -13.54006 0.03 277.8272
v -13.54006 0.03 277.8272
v -13.54006 0.03 277.8272
v -13.54006 0.03 277.8272
v -11.3027 -0.35 277.589
v -11.3027 -0.35 277.589
v -17.54766 0.03 272.3664
v -17.54766 0.03 272.3664
v -14.63728 0.03 271.6386
v -14.63728 0.03 271.6386
v -14.63728 0.03 271.6386
v -14.63728 0.03 271.6386
v -12.45449 -0.35 271.0928
v -12.45449 -0.35 271.0928
v -19.34654 0.03 266.7939
v -19.34654 0.03 266.7939
v -16.55729 0.03 265.6893
v -16.55729 0.03 265.6893
v -16.55729 0.03 265.6893
v -16.55729 0.03 265.6893
v -14.46536 -0.35 264.8609
v -14.46536 -0.35 264.8609
v -21.73877 0.03 261.6203
v -21.73877 0.03 261.6203
v -19.08418 0.03 260.2228
v -19.08418 0.03 260.2228
v -19.08418 0.03 260.2228
v -19.08418 0.03 260.2228
v -17.09324 -0.35 259.1746
v -17.09324 -0.35 259.1746
v -24.48856 0.03 256.8604
v -24.48856 0.03 256.8604
v -21.94245 0.03 255.2738
v -21.94245 0.03 255.2738
v -21.94245 0.03 255.2738
v -21.94245 0.03 255.2738
v -20.03286 -0.35 254.0838
v -20.03286 -0.35 254.0838
v -27.3497 0.03 252.4659
v -27.3497 0.03 252.4659
v -24.85791 0.03 250.7952
v -24.85791 0.03 250.7952
v -24.85791 0.03 250.7952
v -24.85791 0.03 250.7952
v -22.98907 -0.35 249.5422
v -22.98907 -0.35 249.5422
v -30.13589 0.03 248.3109
v -30.13589 0.03 248.3109
v -27.63323 0.03 246.6566
v -27.63323 0.03 246.6566
v -27.63323 0.03 246.6566
v -27.63323 0.03 246.6566
v -25.75624 -0.35 245.4159
v -25.75624 -0.35 245.4159
v -32.68749 0.03 244.2805
v -32.68749 0.03 244.2805
v -30.1109 0.03 242.7439
v -30.1109 0.03 242.7439
v -30.1109 0.03 242.7439
v -30.1109 0.03 242.7439
v -28.17846 -0.35 241.5914
v -28.17846 -0.35 241.5914
v -34.84484 0.03 240.3244
v -34.84484 0.03 240.3244
v -32.14892 0.03 239.0083
v -32.14892 0.03 239.0083
v -32.14892 0.03 239.0083
v -32.14892 0.03 239.0083
v -30.12698 -0.35 238.0213
v -30.12698 -0.35 238.0213
v -36.52695 0.03 236.3336
v -36.52695 0.03 236.3336
v -33.69718 0.03 235.3374
v -33.69718 0.03 235.3374
v -33.69718 0.03 235.3374
v -33.69718 0.03 235.3374
v -31.57485 -0.35 234.5902
v -31.57485 -0.35 234.5902
v -37.66735 0.03 232.2382
v -37.66735 0.03 232.2382
v -34.72863 0.03 231.6349
v -34.72863 0.03 231.6349
v -34.72863 0.03 231.6349
v -34.72863 0.03 231.6349
v -32.52458 -0.35 231.1825
v -32.52458 -0.35 231.1825

vn 0 1 0
vn 0 0 0
vn 0 1 0
vn 0 0 0
vn 0.1570464 0.9860273 0.05555815
vn 0 0 0
vn 0.1570571 0.9860255 0.05555761
vn 0 0 0
vn 3.45707E-11 0.9999999 -1.079923E-10
vn 0 0 0
vn 5.964941E-11 1 -2.143346E-10
vn 0 0 0
vn 0.1582137 0.9860367 0.05196209
vn 0 0 0
vn 0.1593695 0.9860324 0.04838756
vn 0 0 0
vn 3.382845E-11 1 -1.056737E-10
vn 0 0 0
vn -1.490651E-11 0.9999999 1.071533E-10
vn 0 0 0
vn 0.1616155 0.9860355 0.04017862
vn 0 0 0
vn 0.1627271 0.9860307 0.03554343
vn 0 0 0
vn -2.496542E-11 1 1.051779E-10
vn 0 0 0
vn 2.5697E-12 1 -1.053993E-10
vn 0 0 0
vn 0.1646188 0.9860348 0.02521827
vn 0 0 0
vn 0.1654339 0.9860289 0.0194624
vn 0 0 0
vn 1.203448E-11 1 9.80655E-13
vn 0 0 0
vn 1.936786E-11 0.9999999 3.089625E-10
vn 0 0 0
vn 0.1664016 0.9860335 0.006960895
vn 0 0 0
vn 0.1665819 0.9860276 0.0001371222
vn 0 0 0
vn 5.970104E-12 1 3.129692E-10
vn 0 0 0
vn -1.391741E-11 1 2.468477E-12
vn 0 0 0
vn 0.1659616 0.9860313 -0.01411156
vn 0 0 0
vn 0.1651695 0.9860282 -0.02161583
vn 0 0 0
vn -3.612452E-11 1 -2.036649E-10
vn 0 0 0
vn -2.462405E-11 1 -9.847092E-11
vn 0 0 0
vn 0.1625614 0.986028 -0.03636998
vn 0 0 0
vn 0.1607126 0.9860318 -0.0437345
vn 0 0 0
vn 0 1 0
vn 0 0 0
vn 0 1 0
vn 0 0 0
vn 0.1564486 0.9860255 -0.05724847
vn 0 0 0
vn 0.1539675 0.9860358 -0.06346232
vn 0 0 0
vn 0 0.9999999 0
vn 0 0 0
vn 0 1 0
vn 0 0 0
vn 0.1491383 0.9860271 -0.07421839
vn 0 0 0
vn 0.1467835 0.9860374 -0.07864422
vn 0 0 0
vn -5.989202E-11 0.9999999 -9.611369E-11
vn 0 0 0
vn -1.24085E-10 1 -1.919208E-10
vn 0 0 0
vn 0.1428176 0.9860305 -0.08571345
vn 0 0 0
vn 0.1412491 0.9860373 -0.08820023
vn 0 0 0
vn -6.319125E-11 1 -1.014082E-10
vn 0 0 0
vn 6.700555E-11 1 1.013673E-10
vn 0 0 0
vn 0.1391817 0.9860342 -0.09146071
vn 0 0 0
vn 0.1387586 0.9860359 -0.09208378
vn 0 0 0
vn 1.399136E-10 1 2.101664E-10
vn 0 0 0
vn 7.141861E-11 1 1.080435E-10
vn 0 0 0
vn 0.1390765 0.9860365 -0.09159547
vn 0 0 0
vn 0.1398787 0.9860334 -0.09039959
vn 0 0 0
vn 0 1 0
vn 0 0 0
vn 0 1 0
vn 0 0 0
vn 0.1424952 0.9860374 -0.0861709
vn 0 0 0
vn 0.1443465 0.9860304 -0.08311474
vn 0 0 0
vn -6.248014E-11 1 -1.279898E-10
vn 0 0 0
vn -1.143753E-10 1 -2.733273E-10
vn 0 0 0
vn 0.1486942 0.9860368 -0.07497651
vn 0 0 0
vn 0.1511465 0.9860277 -0.0700295
vn 0 0 0
vn -6.514646E-11 1 -1.334517E-10
vn 0 0 0
vn 3.107442E-11 1 1.513847E-10
vn 0 0 0
vn 0.1560499 0.9860349 -0.05817061
vn 0 0 0
vn 0.1584154 0.9860268 -0.05153214
vn 0 0 0
vn 1.229643E-10 1 4.434834E-10
vn 0 0 0
vn 9.768115E-11 1 4.758716E-10
vn 0 0 0
vn 0.1607809 0.9859729 -0.04479974
vn 0 0 0
vn 0.1607925 0.9859703 -0.04481247
vn 0 0 0

vt 0 0
vt 0 0
vt -0.5602959 0.2146362
vt -0.5602959 0.2146362
vt -0.5602959 0.2146362
vt -0.5602959 0.2146362
vt -0.9805176 0.3756165
vt -0.9805176 0.3756165
vt -0.3600235 -1.017456
vt -0.3600235 -1.017456
vt -0.9314575 -0.8345276
vt -0.9314575 -0.8345276
vt -0.9314575 -0.8345276
vt -0.9314575 -0.8345276
vt -1.360033 -0.6973267
vt -1.360033 -0.6973267
vt -0.6548233 -2.071838
vt -0.6548233 -2.071838
vt -1.238603 -1.93327
vt -1.238603 -1.93327
vt -1.238603 -1.93327
vt -1.238603 -1.93327
vt -1.676438 -1.829346
vt -1.676438 -1.829346
vt -0.8639569 -3.176813
vt -0.8639569 -3.176813
vt -1.458233 -3.094141
vt -1.458233 -3.094141
vt -1.458233 -3.094141
vt -1.458233 -3.094141
vt -1.903941 -3.032135
vt -1.903941 -3.032135
vt -0.9585171 -4.317346
vt -0.9585171 -4.317346
vt -1.558339 -4.302722
vt -1.558339 -4.302722
vt -1.558339 -4.302722
vt -1.558339 -4.302722
vt -2.008205 -4.291754
vt -2.008205 -4.291754
vt -0.912336 -5.476202
vt -0.912336 -5.476202
vt -1.508965 -5.539716
vt -1.508965 -5.539716
vt -1.508965 -5.539716
vt -1.508965 -5.539716
vt -1.956437 -5.587354
vt -1.956437 -5.587354
vt -0.7074444 -6.631873
vt -0.7074444 -6.631873
vt -1.289522 -6.777429
vt -1.289522 -6.777429
vt -1.289522 -6.777429
vt -1.289522 -6.777429
vt -1.726079 -6.886597
vt -1.726079 -6.886597
vt -0.3476689 -7.746381
vt -0.3476689 -7.746381
vt -0.9055184 -7.967291
vt -0.9055184 -7.967291
vt -0.9055184 -7.967291
vt -0.9055184 -7.967291
vt -1.323906 -8.132983
vt -1.323906 -8.132983
vt 0.1307777 -8.781092
vt 0.1307777 -8.781092
vt -0.4001404 -9.060602
vt -0.4001404 -9.060602
vt -0.4001404 -9.060602
vt -0.4001404 -9.060602
vt -0.7983295 -9.270233
vt -0.7983295 -9.270233
vt 0.6807351 -9.733088
vt 0.6807351 -9.733088
vt 0.1715122 -10.0504
vt 0.1715122 -10.0504
vt 0.1715122 -10.0504
vt 0.1715122 -10.0504
vt -0.210405 -10.28839
vt -0.210405 -10.28839
vt 1.252962 -10.61199
vt 1.252962 -10.61199
vt 0.7546055 -10.94612
vt 0.7546055 -10.94612
vt 0.7546055 -10.94612
vt 0.7546055 -10.94612
vt 0.380838 -11.19671
vt 0.380838 -11.19671
vt 1.810201 -11.44297
vt 1.810201 -11.44297
vt 1.30967 -11.77383
vt 1.30967 -11.77383
vt 1.30967 -11.77383
vt 1.30967 -11.77383
vt 0.9342716 -12.02198
vt 0.9342716 -12.02198
vt 2.320521 -12.24905
vt 2.320521 -12.24905
vt 1.805203 -12.55638
vt 1.805203 -12.55638
vt 1.805203 -12.55638
vt 1.805203 -12.55638
vt 1.418715 -12.78687
vt 1.418715 -12.78687
vt 2.751992 -13.04028
vt 2.751992 -13.04028
vt 2.212807 -13.30349
vt 2.212807 -13.30349
vt 2.212807 -13.30349
vt 2.212807 -13.30349
vt 1.808419 -13.5009
vt 1.808419 -13.5009
vt 3.088413 -13.83844
vt 3.088413 -13.83844
vt 2.52246 -14.03768
vt 2.52246 -14.03768
vt 2.52246 -14.03768
vt 2.52246 -14.03768
vt 2.097994 -14.18711
vt 2.097994 -14.18711
vt 3.316493 -14.65753
vt 3.316493 -14.65753
vt 2.728748 -14.77817
vt 2.728748 -14.77817
vt 2.728748 -14.77817
vt 2.728748 -14.77817
vt 2.28794 -14.86866
vt 2.28794 -14.86866

usemtl GSDShoulder1
usemap GSDShoulder1
f 9/9/9 1/1/1 3/3/3
f 11/11/11 9/9/9 3/3/3
f 13/13/13 5/5/5 7/7/7
f 15/15/15 13/13/13 7/7/7
f 17/17/17 9/9/9 11/11/11
f 19/19/19 17/17/17 11/11/11
f 21/21/21 13/13/13 15/15/15
f 23/23/23 21/21/21 15/15/15
f 25/25/25 17/17/17 19/19/19
f 27/27/27 25/25/25 19/19/19
f 29/29/29 21/21/21 23/23/23
f 31/31/31 29/29/29 23/23/23
f 33/33/33 25/25/25 27/27/27
f 35/35/35 33/33/33 27/27/27
f 37/37/37 29/29/29 31/31/31
f 39/39/39 37/37/37 31/31/31
f 41/41/41 33/33/33 35/35/35
f 43/43/43 41/41/41 35/35/35
f 45/45/45 37/37/37 39/39/39
f 47/47/47 45/45/45 39/39/39
f 49/49/49 41/41/41 43/43/43
f 51/51/51 49/49/49 43/43/43
f 53/53/53 45/45/45 47/47/47
f 55/55/55 53/53/53 47/47/47
f 57/57/57 49/49/49 51/51/51
f 59/59/59 57/57/57 51/51/51
f 61/61/61 53/53/53 55/55/55
f 63/63/63 61/61/61 55/55/55
f 65/65/65 57/57/57 59/59/59
f 67/67/67 65/65/65 59/59/59
f 69/69/69 61/61/61 63/63/63
f 71/71/71 69/69/69 63/63/63
f 73/73/73 65/65/65 67/67/67
f 75/75/75 73/73/73 67/67/67
f 77/77/77 69/69/69 71/71/71
f 79/79/79 77/77/77 71/71/71
f 81/81/81 73/73/73 75/75/75
f 83/83/83 81/81/81 75/75/75
f 85/85/85 77/77/77 79/79/79
f 87/87/87 85/85/85 79/79/79
f 89/89/89 81/81/81 83/83/83
f 91/91/91 89/89/89 83/83/83
f 93/93/93 85/85/85 87/87/87
f 95/95/95 93/93/93 87/87/87
f 97/97/97 89/89/89 91/91/91
f 99/99/99 97/97/97 91/91/91
f 101/101/101 93/93/93 95/95/95
f 103/103/103 101/101/101 95/95/95
f 105/105/105 97/97/97 99/99/99
f 107/107/107 105/105/105 99/99/99
f 109/109/109 101/101/101 103/103/103
f 111/111/111 109/109/109 103/103/103
f 113/113/113 105/105/105 107/107/107
f 115/115/115 113/113/113 107/107/107
f 117/117/117 109/109/109 111/111/111
f 119/119/119 117/117/117 111/111/111
f 121/121/121 113/113/113 115/115/115
f 123/123/123 121/121/121 115/115/115
f 125/125/125 117/117/117 119/119/119
f 127/127/127 125/125/125 119/119/119
