mtllib ./Road1_0_62.mtl
g SCutR10
v -89.09141 0.03 283.5493
v -89.09141 0.03 283.5493
v -91.89343 0.03 282.4776
v -91.89343 0.03 282.4776
v -91.89343 0.03 282.4776
v -91.89343 0.03 282.4776
v -93.99494 -0.35 281.6737
v -93.99494 -0.35 281.6737
v -90.85175 0.03 287.6204
v -90.85175 0.03 287.6204
v -93.53889 0.03 286.2865
v -93.53889 0.03 286.2865
v -93.53889 0.03 286.2865
v -93.53889 0.03 286.2865
v -95.55426 -0.35 285.2861
v -95.55426 -0.35 285.2861
v -93.05422 0.03 291.6188
v -93.05422 0.03 291.6188
v -95.63103 0.03 290.0826
v -95.63103 0.03 290.0826
v -95.63103 0.03 290.0826
v -95.63103 0.03 290.0826
v -97.56364 -0.35 288.9304
v -97.56364 -0.35 288.9304
v -95.59088 0.03 295.6468
v -95.59088 0.03 295.6468
v -98.09559 0.03 293.9956
v -98.09559 0.03 293.9956
v -98.09559 0.03 293.9956
v -98.09559 0.03 293.9956
v -99.97412 -0.35 292.7572
v -99.97412 -0.35 292.7572
v -98.34009 0.03 299.6747
v -98.34009 0.03 299.6747
v -100.7937 0.03 297.9485
v -100.7937 0.03 297.9485
v -100.7937 0.03 297.9485
v -100.7937 0.03 297.9485
v -102.6339 -0.35 296.6539
v -102.6339 -0.35 296.6539
v -101.2178 0.03 303.668
v -101.2178 0.03 303.668
v -103.6336 0.03 301.8893
v -103.6336 0.03 301.8893
v -103.6336 0.03 301.8893
v -103.6336 0.03 301.8893
v -105.4455 -0.35 300.5552
v -105.4455 -0.35 300.5552
v -104.1595 0.03 307.5938
v -104.1595 0.03 307.5938
v -106.5465 0.03 305.7766
v -106.5465 0.03 305.7766
v -106.5465 0.03 305.7766
v -106.5465 0.03 305.7766
v -108.3367 -0.35 304.4136
v -108.3367 -0.35 304.4136
v -107.1828 0.03 311.5117
v -107.1828 0.03 311.5117
v -109.5469 0.03 309.6647
v -109.5469 0.03 309.6647
v -109.5469 0.03 309.6647
v -109.5469 0.03 309.6647
v -111.3199 -0.35 308.2795
v -111.3199 -0.35 308.2795
v -110.2893 0.03 315.4458
v -110.2893 0.03 315.4458
v -112.6349 0.03 313.5754
v -112.6349 0.03 313.5754
v -112.6349 0.03 313.5754
v -112.6349 0.03 313.5754
v -114.394 -0.35 312.1726
v -114.394 -0.35 312.1726
v -113.4434 0.03 319.3678
v -113.4434 0.03 319.3678
v -115.774 0.03 317.4789
v -115.774 0.03 317.4789
v -115.774 0.03 317.4789
v -115.774 0.03 317.4789
v -117.5219 -0.35 316.0621
v -117.5219 -0.35 316.0621
v -116.614 0.03 323.2534
v -116.614 0.03 323.2534
v -118.9325 0.03 321.3496
v -118.9325 0.03 321.3496
v -118.9325 0.03 321.3496
v -118.9325 0.03 321.3496
v -120.6714 -0.35 319.9218
v -120.6714 -0.35 319.9218
v -119.8309 0.03 327.15
v -119.8309 0.03 327.15
v -122.1396 0.03 325.2343
v -122.1396 0.03 325.2343
v -122.1396 0.03 325.2343
v -122.1396 0.03 325.2343
v -123.8712 -0.35 323.7976
v -123.8712 -0.35 323.7976
v -123.0745 0.03 331.0424
v -123.0745 0.03 331.0424
v -125.3754 0.03 329.1173
v -125.3754 0.03 329.1173
v -125.3754 0.03 329.1173
v -125.3754 0.03 329.1173
v -127.1011 -0.35 327.6736
v -127.1011 -0.35 327.6736
v -126.3269 0.03 334.9167
v -126.3269 0.03 334.9167
v -128.6217 0.03 332.9845
v -128.6217 0.03 332.9845
v -128.6217 0.03 332.9845
v -128.6217 0.03 332.9845
v -130.3428 -0.35 331.5352
v -130.3428 -0.35 331.5352
v -129.5714 0.03 338.7603
v -129.5714 0.03 338.7603
v -131.8617 0.03 336.8226
v -131.8617 0.03 336.8226
v -131.8617 0.03 336.8226
v -131.8617 0.03 336.8226
v -133.5794 -0.35 335.3694
v -133.5794 -0.35 335.3694
v -132.8543 0.03 342.6336
v -132.8543 0.03 342.6336
v -135.1414 0.03 340.6921
v -135.1414 0.03 340.6921
v -135.1414 0.03 340.6921
v -135.1414 0.03 340.6921
v -136.8567 -0.35 339.236
v -136.8567 -0.35 339.236
v -136.1019 0.03 346.4552
v -136.1019 0.03 346.4552
v -138.3871 0.03 344.5115
v -138.3871 0.03 344.5115
v -138.3871 0.03 344.5115
v -138.3871 0.03 344.5115
v -140.101 -0.35 343.0537
v -140.101 -0.35 343.0537
v -139.3631 0.03 350.2876
v -139.3631 0.03 350.2876
v -141.6476 0.03 348.3432
v -141.6476 0.03 348.3432
v -141.6476 0.03 348.3432
v -141.6476 0.03 348.3432
v -143.361 -0.35 346.8848
v -143.361 -0.35 346.8848
v -142.6259 0.03 354.1219
v -142.6259 0.03 354.1219
v -144.911 0.03 352.1781
v -144.911 0.03 352.1781
v -144.911 0.03 352.1781
v -144.911 0.03 352.1781
v -146.6248 -0.35 350.7203
v -146.6248 -0.35 350.7203
v -145.879 0.03 357.9495
v -145.879 0.03 357.9495
v -148.1659 0.03 356.0078
v -148.1659 0.03 356.0078
v -148.1659 0.03 356.0078
v -148.1659 0.03 356.0078
v -149.8811 -0.35 354.5516
v -149.8811 -0.35 354.5516
v -149.1718 0.03 361.8337
v -149.1718 0.03 361.8337
v -151.4618 0.03 359.8957
v -151.4618 0.03 359.8957
v -151.4618 0.03 359.8957
v -151.4618 0.03 359.8957
v -153.1793 -0.35 358.4423
v -153.1793 -0.35 358.4423
v -152.4301 0.03 365.6926
v -152.4301 0.03 365.6926
v -154.7247 0.03 363.7599
v -154.7247 0.03 363.7599
v -154.7247 0.03 363.7599
v -154.7247 0.03 363.7599
v -156.4456 -0.35 362.3104
v -156.4456 -0.35 362.3104
v -155.7009 0.03 369.5876
v -155.7009 0.03 369.5876
v -158.0015 0.03 367.6621
v -158.0015 0.03 367.6621
v -158.0015 0.03 367.6621
v -158.0015 0.03 367.6621
v -159.7269 -0.35 366.218
v -159.7269 -0.35 366.218
v -158.9688 0.03 373.5075
v -158.9688 0.03 373.5075
v -161.2771 0.03 371.5913
v -161.2771 0.03 371.5913
v -161.2771 0.03 371.5913
v -161.2771 0.03 371.5913
v -163.0084 -0.35 370.1542
v -163.0084 -0.35 370.1542
v -162.2163 0.03 377.4393
v -162.2163 0.03 377.4393
v -164.5344 0.03 375.535
v -164.5344 0.03 375.535
v -164.5344 0.03 375.535
v -164.5344 0.03 375.535
v -166.2729 -0.35 374.1068
v -166.2729 -0.35 374.1068
v -165.425 0.03 381.3695
v -165.425 0.03 381.3695
v -167.7551 0.03 379.4799
v -167.7551 0.03 379.4799
v -167.7551 0.03 379.4799
v -167.7551 0.03 379.4799
v -169.5027 -0.35 378.0627
v -169.5027 -0.35 378.0627
v -168.6271 0.03 385.3492
v -168.6271 0.03 385.3492
v -170.9722 0.03 383.4781
v -170.9722 0.03 383.4781
v -170.9722 0.03 383.4781
v -170.9722 0.03 383.4781
v -172.731 -0.35 382.0748
v -172.731 -0.35 382.0748
v -171.7938 0.03 389.3573
v -171.7938 0.03 389.3573
v -174.1573 0.03 387.5097
v -174.1573 0.03 387.5097
v -174.1573 0.03 387.5097
v -174.1573 0.03 387.5097
v -175.93 -0.35 386.124
v -175.93 -0.35 386.124
v -174.9396 0.03 393.4326
v -174.9396 0.03 393.4326
v -177.3265 0.03 391.6152
v -177.3265 0.03 391.6152
v -177.3265 0.03 391.6152
v -177.3265 0.03 391.6152
v -179.1167 -0.35 390.2522
v -179.1167 -0.35 390.2522
v -178.0186 0.03 397.5432
v -178.0186 0.03 397.5432
v -180.4351 0.03 395.7654
v -180.4351 0.03 395.7654
v -180.4351 0.03 395.7654
v -180.4351 0.03 395.7654
v -182.2474 -0.35 394.432
v -182.2474 -0.35 394.432
v -181.0184 0.03 401.7106
v -181.0184 0.03 401.7106
v -183.4732 0.03 399.9861
v -183.4732 0.03 399.9861
v -183.4732 0.03 399.9861
v -183.4732 0.03 399.9861
v -185.3143 -0.35 398.6927
v -185.3143 -0.35 398.6927
v -183.9373 0.03 405.996
v -183.9373 0.03 405.996
v -186.444 0.03 404.3478
v -186.444 0.03 404.3478
v -186.444 0.03 404.3478
v -186.444 0.03 404.3478
v -188.324 -0.35 403.1116
v -188.324 -0.35 403.1116
v -186.7505 0.03 410.4836
v -186.7505 0.03 410.4836
v -189.3316 0.03 408.9547
v -189.3316 0.03 408.9547
v -189.3316 0.03 408.9547
v -189.3316 0.03 408.9547
v -191.2675 -0.35 407.808
v -191.2675 -0.35 407.808

vn 0 0.9999999 0
vn 0 0 0
vn 0 0.9999999 0
vn 0 0 0
vn -0.1530095 0.9860116 -0.06610028
vn 0 0 0
vn -0.1530556 0.9860048 -0.06609516
vn 0 0 0
vn -6.304895E-11 1 1.270161E-10
vn 0 0 0
vn -1.366967E-10 1 2.507123E-10
vn 0 0 0
vn -0.150589 0.9860357 -0.07110915
vn 0 0 0
vn -0.1482146 0.9860375 -0.07591017
vn 0 0 0
vn -6.066544E-11 1 1.222143E-10
vn 0 0 0
vn 7.475433E-11 1 -1.13396E-10
vn 0 0 0
vn -0.1441863 0.9860309 -0.0833877
vn 0 0 0
vn -0.1424984 0.9860367 -0.08617423
vn 0 0 0
vn 1.387974E-10 1 -2.212776E-10
vn 0 0 0
vn 7.176704E-11 1 -1.088646E-10
vn 0 0 0
vn -0.1397821 0.9860346 -0.09053462
vn 0 0 0
vn -0.1386478 0.9860365 -0.09224425
vn 0 0 0
vn 0 1 0
vn 0 0 0
vn 0 1 0
vn 0 0 0
vn -0.136731 0.9860356 -0.0950696
vn 0 0 0
vn -0.1359127 0.9860364 -0.09622878
vn 0 0 0
vn -7.520756E-11 1 1.021427E-10
vn 0 0 0
vn -1.527159E-10 1 2.039613E-10
vn 0 0 0
vn -0.1344956 0.986036 -0.09820288
vn 0 0 0
vn -0.1338816 0.9860364 -0.09903549
vn 0 0 0
vn -7.507006E-11 1 1.019559E-10
vn 0 0 0
vn 7.791856E-11 0.9999999 -9.973398E-11
vn 0 0 0
vn -0.1327904 0.9860362 -0.1004955
vn 0 0 0
vn -0.1323137 0.9860364 -0.101121
vn 0 0 0
vn 1.529716E-10 1 -1.983401E-10
vn 0 0 0
vn 7.692805E-11 0.9999999 -9.846616E-11
vn 0 0 0
vn -0.1314568 0.9860362 -0.1022333
vn 0 0 0
vn -0.1310751 0.9860363 -0.1027212
vn 0 0 0
vn 0 1 0
vn 0 0 0
vn 0 1 0
vn 0 0 0
vn -0.1303886 0.9860363 -0.1035916
vn 0 0 0
vn -0.1300802 0.9860364 -0.1039783
vn 0 0 0
vn 0 1 0
vn 0 0 0
vn 0 1 0
vn 0 0 0
vn -0.1295247 0.9860364 -0.1046701
vn 0 0 0
vn -0.1292756 0.9860364 -0.1049777
vn 0 0 0
vn 0 1 0
vn 0 0 0
vn 0 1 0
vn 0 0 0
vn -0.1288235 0.9860362 -0.1055323
vn 0 0 0
vn -0.1286223 0.9860362 -0.1057778
vn 0 0 0
vn 0 0.9999999 0
vn 0 0 0
vn 0 1 0
vn 0 0 0
vn -0.1282591 0.9860362 -0.1062185
vn 0 0 0
vn -0.1280961 0.9860361 -0.1064147
vn 0 0 0
vn 0 1 0
vn 0 0 0
vn 0 1 0
vn 0 0 0
vn -0.127805 0.9860362 -0.1067635
vn 0 0 0
vn -0.1276758 0.9860362 -0.1069167
vn 0 0 0
vn 0 0.9999999 0
vn 0 0 0
vn 0 1 0
vn 0 0 0
vn -0.1274493 0.9860365 -0.1071862
vn 0 0 0
vn -0.1273512 0.9860364 -0.1073028
vn 0 0 0
vn 7.951524E-11 1 -9.3984E-11
vn 0 0 0
vn 1.587407E-10 1 -1.873098E-10
vn 0 0 0
vn -0.1271806 0.9860363 -0.1075055
vn 0 0 0
vn -0.1271093 0.9860362 -0.1075907
vn 0 0 0
vn -1.561813E-13 1 -1.311923E-13
vn 0 0 0
vn -2.396737E-10 1 2.819688E-10
vn 0 0 0
vn -0.1269922 0.9860362 -0.1077294
vn 0 0 0
vn -0.1269458 0.9860362 -0.1077839
vn 0 0 0
vn -3.203604E-10 1 3.770159E-10
vn 0 0 0
vn -1.600991E-10 1 1.882302E-10
vn 0 0 0
vn -0.126875 0.9860363 -0.1078666
vn 0 0 0
vn -0.1268507 0.9860362 -0.1078943
vn 0 0 0
vn 0 1 0
vn 0 0 0
vn 0 0.9999999 0
vn 0 0 0
vn -0.1268265 0.9860364 -0.1079227
vn 0 0 0
vn -0.1268262 0.9860364 -0.1079233
vn 0 0 0
vn 1.599161E-10 1 -1.880011E-10
vn 0 0 0
vn 3.198415E-10 0.9999999 -3.763652E-10
vn 0 0 0
vn -0.1268477 0.9860363 -0.1078984
vn 0 0 0
vn -0.1268698 0.9860363 -0.1078729
vn 0 0 0
vn 3.18647E-10 1 -3.749596E-10
vn 0 0 0
vn 1.58466E-10 1 -1.866453E-10
vn 0 0 0
vn -0.1269379 0.9860362 -0.107793
vn 0 0 0
vn -0.1269838 0.9860362 -0.1077392
vn 0 0 0
vn 0 0.9999999 0
vn 0 0 0
vn 0 0.9999999 0
vn 0 0 0
vn -0.1270987 0.9860361 -0.1076037
vn 0 0 0
vn -0.1271683 0.9860362 -0.107521
vn 0 0 0
vn -1.57948E-10 1 1.875229E-10
vn 0 0 0
vn -3.143787E-10 1 3.744306E-10
vn 0 0 0
vn -0.1273359 0.9860364 -0.1073218
vn 0 0 0
vn -0.1274332 0.9860363 -0.1072062
vn 0 0 0
vn -1.570081E-10 1 1.86407E-10
vn 0 0 0
vn 1.553703E-10 1 -1.871686E-10
vn 0 0 0
vn -0.1276577 0.9860363 -0.1069392
vn 0 0 0
vn -0.1277852 0.9860362 -0.1067874
vn 0 0 0
vn 3.114135E-10 1 -3.736093E-10
vn 0 0 0
vn 1.552135E-10 1 -1.869798E-10
vn 0 0 0
vn -0.1280739 0.9860362 -0.1064408
vn 0 0 0
vn -0.1282359 0.9860362 -0.1062455
vn 0 0 0
vn -7.733888E-11 1 9.414246E-11
vn 0 0 0
vn -1.541508E-10 1 1.88859E-10
vn 0 0 0
vn -0.1285976 0.9860362 -0.1058073
vn 0 0 0
vn -0.128798 0.9860362 -0.1055634
vn 0 0 0
vn -1.542209E-10 0.9999999 1.889448E-10
vn 0 0 0
vn -7.651996E-11 0.9999999 9.435699E-11
vn 0 0 0
vn -0.1292492 0.9860363 -0.1050102
vn 0 0 0
vn -0.1294985 0.9860362 -0.1047029
vn 0 0 0
vn 7.5691E-11 1 -9.486683E-11
vn 0 0 0
vn 1.501406E-10 1 -1.901111E-10
vn 0 0 0
vn -0.1300548 0.9860362 -0.1040105
vn 0 0 0
vn -0.1303636 0.9860363 -0.1036238
vn 0 0 0
vn 9.452925E-13 1 7.465103E-13
vn 0 0 0
vn -2.199964E-10 1 2.864115E-10
vn 0 0 0
vn -0.131059 0.9860362 -0.1027425
vn 0 0 0
vn -0.1314443 0.9860362 -0.10225
vn 0 0 0
vn -1.483026E-10 1 1.897177E-10
vn 0 0 0
vn 1.423648E-10 1 -1.935013E-10
vn 0 0 0
vn -0.1323139 0.9860362 -0.1011209
vn 0 0 0
vn -0.1328026 0.9860361 -0.1004803
vn 0 0 0
vn 2.888564E-10 1 -3.859244E-10
vn 0 0 0
vn 1.422499E-10 1 -1.93345E-10
vn 0 0 0
vn -0.1339157 0.9860361 -0.09899116
vn 0 0 0
vn -0.1345414 0.9860358 -0.09814239
vn 0 0 0
vn -6.899379E-11 1 9.821015E-11
vn 0 0 0
vn -1.337115E-10 0.9999999 1.966957E-10
vn 0 0 0
vn -0.1359999 0.9860362 -0.09610701
vn 0 0 0
vn -0.1368317 0.9860355 -0.0949263
vn 0 0 0
vn -1.978532E-10 1 2.942844E-10
vn 0 0 0
vn -1.871661E-10 1 2.945718E-10
vn 0 0 0
vn -0.1388335 0.9860363 -0.09196525
vn 0 0 0
vn -0.1400014 0.9860343 -0.09019913
vn 0 0 0
vn -1.838338E-10 1 2.943839E-10
vn 0 0 0
vn -1.746522E-10 1 2.948425E-10
vn 0 0 0
vn -0.1411421 0.9860288 -0.08846617
vn 0 0 0
vn -0.1411485 0.9860277 -0.0884672
vn 0 0 0

vt 0 0
vt 0 0
vt 0.560405 -0.2143494
vt 0.560405 -0.2143494
vt 0.560405 -0.2143494
vt 0.560405 -0.2143494
vt 0.9807068 -0.375116
vt 0.9807068 -0.375116
vt 0.3520676 0.814209
vt 0.3520676 0.814209
vt 0.8894974 0.5474365
vt 0.8894974 0.5474365
vt 0.8894974 0.5474365
vt 0.8894974 0.5474365
vt 1.29257 0.3473511
vt 1.29257 0.3473511
vt 0.7925629 1.613904
vt 0.7925629 1.613904
vt 1.307925 1.306659
vt 1.307925 1.306659
vt 1.307925 1.306659
vt 1.307925 1.306659
vt 1.694447 1.076221
vt 1.694447 1.076221
vt 1.299895 2.419495
vt 1.299895 2.419495
vt 1.800836 2.089258
vt 1.800836 2.089258
vt 1.800836 2.089258
vt 1.800836 2.089258
vt 2.176543 1.841577
vt 2.176543 1.841577
vt 1.849736 3.225073
vt 1.849736 3.225073
vt 2.340463 2.87984
vt 2.340463 2.87984
vt 2.340463 2.87984
vt 2.340463 2.87984
vt 2.708508 2.620911
vt 2.708508 2.620911
vt 2.425287 4.023743
vt 2.425287 4.023743
vt 2.908446 3.667993
vt 2.908446 3.667993
vt 2.908446 3.667993
vt 2.908446 3.667993
vt 3.270815 3.401178
vt 3.270815 3.401178
vt 3.013626 4.808905
vt 3.013626 4.808905
vt 3.491013 4.445447
vt 3.491013 4.445447
vt 3.491013 4.445447
vt 3.491013 4.445447
vt 3.849052 4.172852
vt 3.849052 4.172852
vt 3.618285 5.592474
vt 3.618285 5.592474
vt 4.091096 5.223083
vt 4.091096 5.223083
vt 4.091096 5.223083
vt 4.091096 5.223083
vt 4.445705 4.946039
vt 4.445705 4.946039
vt 4.23958 6.379297
vt 4.23958 6.379297
vt 4.708692 6.005219
vt 4.708692 6.005219
vt 4.708692 6.005219
vt 4.708692 6.005219
vt 5.060525 5.724658
vt 5.060525 5.724658
vt 4.870395 7.163702
vt 4.870395 7.163702
vt 5.336514 6.785907
vt 5.336514 6.785907
vt 5.336514 6.785907
vt 5.336514 6.785907
vt 5.686104 6.502557
vt 5.686104 6.502557
vt 5.504509 7.940808
vt 5.504509 7.940808
vt 5.968216 7.560052
vt 5.968216 7.560052
vt 5.968216 7.560052
vt 5.968216 7.560052
vt 6.315998 7.274487
vt 6.315998 7.274487
vt 6.147897 8.720136
vt 6.147897 8.720136
vt 6.609647 8.337006
vt 6.609647 8.337006
vt 6.609647 8.337006
vt 6.609647 8.337006
vt 6.955959 8.049664
vt 6.955959 8.049664
vt 6.79662 9.498609
vt 6.79662 9.498609
vt 7.256804 9.113605
vt 7.256804 9.113605
vt 7.256804 9.113605
vt 7.256804 9.113605
vt 7.601941 8.824847
vt 7.601941 8.824847
vt 7.447092 10.27349
vt 7.447092 10.27349
vt 7.906056 9.887031
vt 7.906056 9.887031
vt 7.906056 9.887031
vt 7.906056 9.887031
vt 8.250279 9.59718
vt 8.250279 9.59718
vt 8.095998 11.0422
vt 8.095998 11.0422
vt 8.554051 10.65466
vt 8.554051 10.65466
vt 8.554051 10.65466
vt 8.554051 10.65466
vt 8.897591 10.36401
vt 8.897591 10.36401
vt 8.752581 11.81686
vt 8.752581 11.81686
vt 9.209993 11.42856
vt 9.209993 11.42856
vt 9.209993 11.42856
vt 9.209993 11.42856
vt 9.553054 11.13734
vt 9.553054 11.13734
vt 9.402099 12.58117
vt 9.402099 12.58117
vt 9.859136 12.19244
vt 9.859136 12.19244
vt 9.859136 12.19244
vt 9.859136 12.19244
vt 10.20191 11.90089
vt 10.20191 11.90089
vt 10.05433 13.34766
vt 10.05433 13.34766
vt 10.51124 12.95877
vt 10.51124 12.95877
vt 10.51124 12.95877
vt 10.51124 12.95877
vt 10.85392 12.6671
vt 10.85392 12.6671
vt 10.7069 14.11451
vt 10.7069 14.11451
vt 11.16392 13.72576
vt 11.16392 13.72576
vt 11.16392 13.72576
vt 11.16392 13.72576
vt 11.50669 13.4342
vt 11.50669 13.4342
vt 11.35752 14.88003
vt 11.35752 14.88003
vt 11.8149 14.4917
vt 11.8149 14.4917
vt 11.8149 14.4917
vt 11.8149 14.4917
vt 12.15794 14.20045
vt 12.15794 14.20045
vt 12.01607 15.65687
vt 12.01607 15.65687
vt 12.47408 15.26928
vt 12.47408 15.26928
vt 12.47408 15.26928
vt 12.47408 15.26928
vt 12.81759 14.97859
vt 12.81759 14.97859
vt 12.66774 16.42865
vt 12.66774 16.42865
vt 13.12665 16.04212
vt 13.12665 16.04212
vt 13.12665 16.04212
vt 13.12665 16.04212
vt 13.47083 15.75222
vt 13.47083 15.75222
vt 13.3219 17.20765
vt 13.3219 17.20765
vt 13.78201 16.82256
vt 13.78201 16.82256
vt 13.78201 16.82256
vt 13.78201 16.82256
vt 14.1271 16.53374
vt 14.1271 16.53374
vt 13.97548 17.99164
vt 13.97548 17.99164
vt 14.43714 17.6084
vt 14.43714 17.6084
vt 14.43714 17.6084
vt 14.43714 17.6084
vt 14.78339 17.32098
vt 14.78339 17.32098
vt 14.62498 18.778
vt 14.62498 18.778
vt 15.0886 18.39714
vt 15.0886 18.39714
vt 15.0886 18.39714
vt 15.0886 18.39714
vt 15.43631 18.11149
vt 15.43631 18.11149
vt 15.26672 19.56403
vt 15.26672 19.56403
vt 15.73274 19.18611
vt 15.73274 19.18611
vt 15.73274 19.18611
vt 15.73274 19.18611
vt 16.08225 18.90267
vt 16.08225 18.90267
vt 15.90715 20.35997
vt 15.90715 20.35997
vt 16.37616 19.98576
vt 16.37616 19.98576
vt 16.37616 19.98576
vt 16.37616 19.98576
vt 16.72791 19.7051
vt 16.72791 19.7051
vt 16.54047 21.1616
vt 16.54047 21.1616
vt 17.01319 20.79208
vt 17.01319 20.79208
vt 17.01319 20.79208
vt 17.01319 20.79208
vt 17.36772 20.51494
vt 17.36772 20.51494
vt 17.16963 21.97665
vt 17.16963 21.97665
vt 17.64701 21.61318
vt 17.64701 21.61318
vt 17.64701 21.61318
vt 17.64701 21.61318
vt 18.00505 21.34058
vt 18.00505 21.34058
vt 17.78544 22.79879
vt 17.78544 22.79879
vt 18.26873 22.44321
vt 18.26873 22.44321
vt 18.26873 22.44321
vt 18.26873 22.44321
vt 18.6312 22.17654
vt 18.6312 22.17654
vt 18.38541 23.63226
vt 18.38541 23.63226
vt 18.87637 23.28736
vt 18.87637 23.28736
vt 18.87637 23.28736
vt 18.87637 23.28736
vt 19.24459 23.02868
vt 19.24459 23.02868
vt 18.96918 24.48934
vt 18.96918 24.48934
vt 19.47052 24.15969
vt 19.47052 24.15969
vt 19.47052 24.15969
vt 19.47052 24.15969
vt 19.84652 23.91246
vt 19.84652 23.91246
vt 19.53182 25.38687
vt 19.53182 25.38687
vt 20.04805 25.08107
vt 20.04805 25.08107
vt 20.04805 25.08107
vt 20.04805 25.08107
vt 20.43522 24.85173
vt 20.43522 24.85173

usemtl GSDShoulder1
usemap GSDShoulder1
f 9/9/9 1/1/1 3/3/3
f 11/11/11 9/9/9 3/3/3
f 13/13/13 5/5/5 7/7/7
f 15/15/15 13/13/13 7/7/7
f 17/17/17 9/9/9 11/11/11
f 19/19/19 17/17/17 11/11/11
f 21/21/21 13/13/13 15/15/15
f 23/23/23 21/21/21 15/15/15
f 25/25/25 17/17/17 19/19/19
f 27/27/27 25/25/25 19/19/19
f 29/29/29 21/21/21 23/23/23
f 31/31/31 29/29/29 23/23/23
f 33/33/33 25/25/25 27/27/27
f 35/35/35 33/33/33 27/27/27
f 37/37/37 29/29/29 31/31/31
f 39/39/39 37/37/37 31/31/31
f 41/41/41 33/33/33 35/35/35
f 43/43/43 41/41/41 35/35/35
f 45/45/45 37/37/37 39/39/39
f 47/47/47 45/45/45 39/39/39
f 49/49/49 41/41/41 43/43/43
f 51/51/51 49/49/49 43/43/43
f 53/53/53 45/45/45 47/47/47
f 55/55/55 53/53/53 47/47/47
f 57/57/57 49/49/49 51/51/51
f 59/59/59 57/57/57 51/51/51
f 61/61/61 53/53/53 55/55/55
f 63/63/63 61/61/61 55/55/55
f 65/65/65 57/57/57 59/59/59
f 67/67/67 65/65/65 59/59/59
f 69/69/69 61/61/61 63/63/63
f 71/71/71 69/69/69 63/63/63
f 73/73/73 65/65/65 67/67/67
f 75/75/75 73/73/73 67/67/67
f 77/77/77 69/69/69 71/71/71
f 79/79/79 77/77/77 71/71/71
f 81/81/81 73/73/73 75/75/75
f 83/83/83 81/81/81 75/75/75
f 85/85/85 77/77/77 79/79/79
f 87/87/87 85/85/85 79/79/79
f 89/89/89 81/81/81 83/83/83
f 91/91/91 89/89/89 83/83/83
f 93/93/93 85/85/85 87/87/87
f 95/95/95 93/93/93 87/87/87
f 97/97/97 89/89/89 91/91/91
f 99/99/99 97/97/97 91/91/91
f 101/101/101 93/93/93 95/95/95
f 103/103/103 101/101/101 95/95/95
f 105/105/105 97/97/97 99/99/99
f 107/107/107 105/105/105 99/99/99
f 109/109/109 101/101/101 103/103/103
f 111/111/111 109/109/109 103/103/103
f 113/113/113 105/105/105 107/107/107
f 115/115/115 113/113/113 107/107/107
f 117/117/117 109/109/109 111/111/111
f 119/119/119 117/117/117 111/111/111
f 121/121/121 113/113/113 115/115/115
f 123/123/123 121/121/121 115/115/115
f 125/125/125 117/117/117 119/119/119
f 127/127/127 125/125/125 119/119/119
f 129/129/129 121/121/121 123/123/123
f 131/131/131 129/129/129 123/123/123
f 133/133/133 125/125/125 127/127/127
f 135/135/135 133/133/133 127/127/127
f 137/137/137 129/129/129 131/131/131
f 139/139/139 137/137/137 131/131/131
f 141/141/141 133/133/133 135/135/135
f 143/143/143 141/141/141 135/135/135
f 145/145/145 137/137/137 139/139/139
f 147/147/147 145/145/145 139/139/139
f 149/149/149 141/141/141 143/143/143
f 151/151/151 149/149/149 143/143/143
f 153/153/153 145/145/145 147/147/147
f 155/155/155 153/153/153 147/147/147
f 157/157/157 149/149/149 151/151/151
f 159/159/159 157/157/157 151/151/151
f 161/161/161 153/153/153 155/155/155
f 163/163/163 161/161/161 155/155/155
f 165/165/165 157/157/157 159/159/159
f 167/167/167 165/165/165 159/159/159
f 169/169/169 161/161/161 163/163/163
f 171/171/171 169/169/169 163/163/163
f 173/173/173 165/165/165 167/167/167
f 175/175/175 173/173/173 167/167/167
f 177/177/177 169/169/169 171/171/171
f 179/179/179 177/177/177 171/171/171
f 181/181/181 173/173/173 175/175/175
f 183/183/183 181/181/181 175/175/175
f 185/185/185 177/177/177 179/179/179
f 187/187/187 185/185/185 179/179/179
f 189/189/189 181/181/181 183/183/183
f 191/191/191 189/189/189 183/183/183
f 193/193/193 185/185/185 187/187/187
f 195/195/195 193/193/193 187/187/187
f 197/197/197 189/189/189 191/191/191
f 199/199/199 197/197/197 191/191/191
f 201/201/201 193/193/193 195/195/195
f 203/203/203 201/201/201 195/195/195
f 205/205/205 197/197/197 199/199/199
f 207/207/207 205/205/205 199/199/199
f 209/209/209 201/201/201 203/203/203
f 211/211/211 209/209/209 203/203/203
f 213/213/213 205/205/205 207/207/207
f 215/215/215 213/213/213 207/207/207
f 217/217/217 209/209/209 211/211/211
f 219/219/219 217/217/217 211/211/211
f 221/221/221 213/213/213 215/215/215
f 223/223/223 221/221/221 215/215/215
f 225/225/225 217/217/217 219/219/219
f 227/227/227 225/225/225 219/219/219
f 229/229/229 221/221/221 223/223/223
f 231/231/231 229/229/229 223/223/223
f 233/233/233 225/225/225 227/227/227
f 235/235/235 233/233/233 227/227/227
f 237/237/237 229/229/229 231/231/231
f 239/239/239 237/237/237 231/231/231
f 241/241/241 233/233/233 235/235/235
f 243/243/243 241/241/241 235/235/235
f 245/245/245 237/237/237 239/239/239
f 247/247/247 245/245/245 239/239/239
f 249/249/249 241/241/241 243/243/243
f 251/251/251 249/249/249 243/243/243
f 253/253/253 245/245/245 247/247/247
f 255/255/255 253/253/253 247/247/247
f 257/257/257 249/249/249 251/251/251
f 259/259/259 257/257/257 251/251/251
f 261/261/261 253/253/253 255/255/255
f 263/263/263 261/261/261 255/255/255
