mtllib ./Road1_0_45.mtl
g Markers15
v -49.42225 0.04 234.6511
v -49.42225 0.04 234.6511
v -37.66735 0.04 232.2382
v -37.66735 0.04 232.2382
v -50.21273 0.04 229.0471
v -50.21273 0.04 229.0471
v -38.26569 0.04 227.9209
v -38.26569 0.04 227.9209
v -50.57146 0.04 223.7146
v -50.57146 0.04 223.7146
v -38.58241 0.04 223.2021
v -38.58241 0.04 223.2021
v -50.69078 0.04 218.4752
v -50.69078 0.04 218.4752
v -38.69091 0.04 218.4206
v -38.69091 0.04 218.4206
v -50.63671 0.04 213.2907
v -50.63671 0.04 213.2907
v -38.64019 0.04 213.5795
v -38.64019 0.04 213.5795
v -50.45395 0.04 208.1122
v -50.45395 0.04 208.1122
v -38.46631 0.04 208.6566
v -38.46631 0.04 208.6566
v -50.17904 0.04 202.9705
v -50.17904 0.04 202.9705
v -38.20101 0.04 203.6962
v -38.20101 0.04 203.6962
v -49.84464 0.04 197.8954
v -49.84464 0.04 197.8954
v -37.87424 0.04 198.7378
v -37.87424 0.04 198.7378
v -49.47352 0.04 192.8293
v -49.47352 0.04 192.8293
v -37.50744 0.04 193.7309
v -37.50744 0.04 193.7309
v -49.092 0.04 187.8011
v -49.092 0.04 187.8011
v -37.12616 0.04 188.706
v -37.12616 0.04 188.706
v -48.72608 0.04 182.8413
v -48.72608 0.04 182.8413
v -36.75631 0.04 183.6924
v -36.75631 0.04 183.6924
v -48.39639 0.04 177.8991
v -48.39639 0.04 177.8991
v -36.41892 0.04 178.6343
v -36.41892 0.04 178.6343
v -48.12865 0.04 172.9366
v -48.12865 0.04 172.9366
v -36.14098 0.04 173.4804
v -36.14098 0.04 173.4804
v -47.95991 0.04 168.0092
v -47.95991 0.04 168.0092
v -35.96272 0.04 168.2687
v -35.96272 0.04 168.2687
v -47.93167 0.04 163.1836
v -47.93167 0.04 163.1836
v -35.93253 0.04 163.0402
v -35.93253 0.04 163.0402
v -48.09646 0.04 158.4098
v -48.09646 0.04 158.4098
v -36.11813 0.04 157.689
v -36.11813 0.04 157.689
v -48.52047 0.04 153.8247
v -48.52047 0.04 153.8247
v -36.6203 0.04 152.28
v -36.6203 0.04 152.28
v -49.29011 0.04 149.5046
v -49.29011 0.04 149.5046
v -37.61066 0.04 146.7496
v -37.61066 0.04 146.7496

vn 6.630802E-11 1 3.230235E-10
vn 0 0 0
vn 5.491954E-11 1 3.677964E-10
vn 0 0 0
vn 2.440716E-11 1 1.189009E-10
vn 0 0 0
vn -5.514861E-12 1 -1.290076E-10
vn 0 0 0
vn -1.66139E-11 1 -2.426703E-10
vn 0 0 0
vn -5.393519E-12 1 -1.26169E-10
vn 0 0 0
vn 5.57936E-13 1 1.224942E-10
vn 0 0 0
vn -2.454679E-12 1 2.515508E-10
vn 0 0 0
vn 5.579108E-13 1 1.224887E-10
vn 0 0 0
vn 5.653111E-12 1 -1.244803E-10
vn 0 0 0
vn 8.477536E-12 1 -2.440247E-10
vn 0 0 0
vn 5.617786E-12 1 -1.237025E-10
vn 0 0 0
vn -7.410023E-12 1 1.222996E-10
vn 0 0 0
vn -1.620285E-11 1 2.474468E-10
vn 0 0 0
vn -7.443052E-12 1 1.228447E-10
vn 0 0 0
vn 9.287462E-12 1 -1.232579E-10
vn 0 0 0
vn 8.635227E-12 0.9999999 -1.227044E-10
vn 0 0 0
vn -9.299663E-12 1 1.229844E-10
vn 0 0 0
vn -9.295923E-12 1 1.233702E-10
vn 0 0 0
vn 8.784539E-12 1 -1.235352E-10
vn 0 0 0
vn 1.822741E-11 1 -2.48456E-10
vn 0 0 0
vn 8.778897E-12 1 -1.234559E-10
vn 0 0 0
vn 0 1 0
vn 0 0 0
vn 0 1 0
vn 0 0 0
vn 5.605098E-12 1 -1.235481E-10
vn 0 0 0
vn 8.147411E-12 1 -2.432419E-10
vn 0 0 0
vn 2.948291E-12 1 9.872995E-14
vn 0 0 0
vn 2.780013E-13 1 3.659627E-10
vn 0 0 0
vn -5.433279E-12 1 2.511703E-10
vn 0 0 0
vn -1.457194E-11 1 -2.421598E-10
vn 0 0 0
vn -1.061821E-11 1 -3.791034E-10
vn 0 0 0
vn 8.31332E-12 1 -7.887461E-13
vn 0 0 0
vn 2.439632E-11 1 2.571382E-10
vn 0 0 0
vn 1.554729E-11 1 1.197736E-10
vn 0 0 0
vn 0 1 0
vn 0 0 0
vn 0 1 0
vn 0 0 0

vt 0 267.9145
vt 0 0
vt 1 267.9145
vt 0 0
vt 0 269.0464
vt 0 269.0464
vt 1 269.0464
vt 1 269.0464
vt 0 270.1153
vt 0 270.1153
vt 1 270.1153
vt 1 270.1153
vt 0 271.1634
vt 0 271.1634
vt 1 271.1634
vt 1 271.1634
vt 0 272.2004
vt 0 272.2004
vt 1 272.2004
vt 1 272.2004
vt 0 273.2367
vt 0 273.2367
vt 1 273.2367
vt 1 273.2367
vt 0 274.2665
vt 0 274.2665
vt 1 274.2665
vt 1 274.2665
vt 0 275.2838
vt 0 275.2838
vt 1 275.2838
vt 1 275.2838
vt 0 276.2997
vt 0 276.2997
vt 1 276.2997
vt 1 276.2997
vt 0 277.3082
vt 0 277.3082
vt 1 277.3082
vt 1 277.3082
vt 0 278.3029
vt 0 278.3029
vt 1 278.3029
vt 1 278.3029
vt 0 279.2935
vt 0 279.2935
vt 1 279.2935
vt 1 279.2935
vt 0 280.2874
vt 0 280.2874
vt 1 280.2874
vt 1 280.2874
vt 0 281.2735
vt 0 281.2735
vt 1 281.2735
vt 1 281.2735
vt 0 282.2386
vt 0 282.2386
vt 1 282.2386
vt 1 282.2386
vt 0 283.1939
vt 0 283.1939
vt 1 283.1939
vt 1 283.1939
vt 0 284.1149
vt 0 284.1149
vt 1 284.1149
vt 1 284.1149
vt 0 284.9925
vt 0 0
vt 1 284.9925
vt 0 0

usemtl GSDWhiteYellowDouble-4L
usemap GSDWhiteYellowDouble-4L
f 5/5/5 1/1/1 3/3/3
f 7/7/7 5/5/5 3/3/3
f 9/9/9 5/5/5 7/7/7
f 11/11/11 9/9/9 7/7/7
f 13/13/13 9/9/9 11/11/11
f 15/15/15 13/13/13 11/11/11
f 17/17/17 13/13/13 15/15/15
f 19/19/19 17/17/17 15/15/15
f 21/21/21 17/17/17 19/19/19
f 23/23/23 21/21/21 19/19/19
f 25/25/25 21/21/21 23/23/23
f 27/27/27 25/25/25 23/23/23
f 29/29/29 25/25/25 27/27/27
f 31/31/31 29/29/29 27/27/27
f 33/33/33 29/29/29 31/31/31
f 35/35/35 33/33/33 31/31/31
f 37/37/37 33/33/33 35/35/35
f 39/39/39 37/37/37 35/35/35
f 41/41/41 37/37/37 39/39/39
f 43/43/43 41/41/41 39/39/39
f 45/45/45 41/41/41 43/43/43
f 47/47/47 45/45/45 43/43/43
f 49/49/49 45/45/45 47/47/47
f 51/51/51 49/49/49 47/47/47
f 53/53/53 49/49/49 51/51/51
f 55/55/55 53/53/53 51/51/51
f 57/57/57 53/53/53 55/55/55
f 59/59/59 57/57/57 55/55/55
f 61/61/61 57/57/57 59/59/59
f 63/63/63 61/61/61 59/59/59
f 65/65/65 61/61/61 63/63/63
f 67/67/67 65/65/65 63/63/63
f 69/69/69 65/65/65 67/67/67
f 71/71/71 69/69/69 67/67/67
