mtllib ./Road1_0_39.mtl
g Markers12
v -167.735 0.04 453.7138
v -167.735 0.04 453.7138
v -173.0338 0.04 464.4805
v -173.0338 0.04 464.4805
v -163.1498 0.04 456.0137
v -163.1498 0.04 456.0137
v -168.6749 0.04 466.6661
v -168.6749 0.04 466.6661
v -158.9122 0.04 458.1324
v -158.9122 0.04 458.1324
v -163.9552 0.04 469.0213
v -163.9552 0.04 469.0213
v -154.924 0.04 459.728
v -154.924 0.04 459.728
v -158.6386 0.04 471.1386
v -158.6386 0.04 471.1386
v -151.0858 0.04 460.6343
v -151.0858 0.04 460.6343
v -152.75 0.04 472.5183
v -152.75 0.04 472.5183
v -147.282 0.04 460.7717
v -147.282 0.04 460.7717
v -146.4476 0.04 472.7426
v -146.4476 0.04 472.7426
v -143.4852 0.04 460.107
v -143.4852 0.04 460.107
v -140.2643 0.04 471.6667
v -140.2643 0.04 471.6667
v -139.7445 0.04 458.7026
v -139.7445 0.04 458.7026
v -134.6463 0.04 469.5657
v -134.6463 0.04 469.5657
v -136.0207 0.04 456.6287
v -136.0207 0.04 456.6287
v -129.5393 0.04 466.7277
v -129.5393 0.04 466.7277
v -132.4457 0.04 454.0601
v -132.4457 0.04 454.0601
v -124.9891 0.04 463.4622
v -124.9891 0.04 463.4622
v -128.9888 0.04 451.0819
v -128.9888 0.04 451.0819
v -120.8246 0.04 459.8765
v -120.8246 0.04 459.8765
v -125.6524 0.04 447.7792
v -125.6524 0.04 447.7792
v -116.9621 0.04 456.0544
v -116.9621 0.04 456.0544

vn 3.258041E-10 1 1.603449E-10
vn 0 0 0
vn 3.322944E-10 0.9999999 1.679217E-10
vn 0 0 0
vn 2.255179E-10 1 1.139632E-10
vn 0 0 0
vn 1.110801E-10 1 5.761393E-11
vn 0 0 0
vn 0 1 0
vn 0 0 0
vn 0 0.9999999 0
vn 0 0 0
vn -1.27142E-10 1 -4.139013E-11
vn 0 0 0
vn -2.30834E-10 1 -5.329985E-11
vn 0 0 0
vn -1.289115E-10 1 -4.196619E-11
vn 0 0 0
vn 1.155509E-10 1 -8.054251E-12
vn 0 0 0
vn -9.711621E-13 1 2.791818E-11
vn 0 0 0
vn -3.331231E-10 1 6.907501E-11
vn 0 0 0
vn -3.91949E-10 1 5.398397E-11
vn 0 0 0
vn -6.672216E-12 1 -1.798318E-11
vn 0 0 0
vn 1.262621E-10 1 -3.51805E-11
vn 0 0 0
vn -9.759894E-11 0.9999999 6.263744E-11
vn 0 0 0
vn -2.247225E-10 1 1.241377E-10
vn 0 0 0
vn -9.908185E-11 1 6.358914E-11
vn 0 0 0
vn 1.003068E-10 1 -7.955174E-11
vn 0 0 0
vn 1.805376E-10 1 -1.549816E-10
vn 0 0 0
vn 1.915825E-10 1 -1.64463E-10
vn 0 0 0
vn 8.742045E-11 1 -8.115412E-11
vn 0 0 0
vn 0 1 0
vn 0 0 0
vn 0 1 0
vn 0 0 0

vt 0 209.0754
vt 0 0
vt 1 209.0754
vt 0 0
vt 0 210.1013
vt 0 210.1013
vt 1 210.1013
vt 1 210.1013
vt 0 211.0489
vt 0 211.0489
vt 1 211.0489
vt 1 211.0489
vt 0 211.908
vt 0 211.908
vt 1 211.908
vt 1 211.908
vt 0 212.6967
vt 0 212.6967
vt 1 212.6967
vt 1 212.6967
vt 0 213.458
vt 0 213.458
vt 1 213.458
vt 1 213.458
vt 0 214.2289
vt 0 214.2289
vt 1 214.2289
vt 1 214.2289
vt 0 215.028
vt 0 215.028
vt 1 215.028
vt 1 215.028
vt 0 215.8805
vt 0 215.8805
vt 1 215.8805
vt 1 215.8805
vt 0 216.7609
vt 0 216.7609
vt 1 216.7609
vt 1 216.7609
vt 0 217.6735
vt 0 217.6735
vt 1 217.6735
vt 1 217.6735
vt 0 218.6124
vt 0 0
vt 1 218.6124
vt 0 0

usemtl GSDWhiteYellowDouble-4L
usemap GSDWhiteYellowDouble-4L
f 5/5/5 1/1/1 3/3/3
f 7/7/7 5/5/5 3/3/3
f 9/9/9 5/5/5 7/7/7
f 11/11/11 9/9/9 7/7/7
f 13/13/13 9/9/9 11/11/11
f 15/15/15 13/13/13 11/11/11
f 17/17/17 13/13/13 15/15/15
f 19/19/19 17/17/17 15/15/15
f 21/21/21 17/17/17 19/19/19
f 23/23/23 21/21/21 19/19/19
f 25/25/25 21/21/21 23/23/23
f 27/27/27 25/25/25 23/23/23
f 29/29/29 25/25/25 27/27/27
f 31/31/31 29/29/29 27/27/27
f 33/33/33 29/29/29 31/31/31
f 35/35/35 33/33/33 31/31/31
f 37/37/37 33/33/33 35/35/35
f 39/39/39 37/37/37 35/35/35
f 41/41/41 37/37/37 39/39/39
f 43/43/43 41/41/41 39/39/39
f 45/45/45 41/41/41 43/43/43
f 47/47/47 45/45/45 43/43/43
