mtllib ./Road2_1_25.mtl
g Markers5
v -272.1111 0.04 65.37545
v -272.1111 0.04 65.37545
v -260.116 0.04 65.71812
v -260.116 0.04 65.71812
v -272.0099 0.04 60.48459
v -272.0099 0.04 60.48459
v -260.0102 0.04 60.57412
v -260.0102 0.04 60.57412
v -272.2018 0.04 56.23353
v -272.2018 0.04 56.23353
v -260.2842 0.04 54.82962
v -260.2842 0.04 54.82962
v -273.004 0.04 52.56556
v -273.004 0.04 52.56556
v -261.6493 0.04 48.68354
v -261.6493 0.04 48.68354
v -274.5404 0.04 49.43894
v -274.5404 0.04 49.43894
v -264.5532 0.04 42.78644
v -264.5532 0.04 42.78644
v -276.8699 0.04 46.74362
v -276.8699 0.04 46.74362
v -268.7518 0.04 37.90634
v -268.7518 0.04 37.90634
v -280.0018 0.04 44.40099
v -280.0018 0.04 44.40099
v -273.6926 0.04 34.19345
v -273.6926 0.04 34.19345
v -283.7605 0.04 42.44487
v -283.7605 0.04 42.44487
v -278.9219 0.04 31.46362
v -278.9219 0.04 31.46362
v -287.9305 0.04 40.8673
v -287.9305 0.04 40.8673
v -284.2227 0.04 29.45448
v -284.2227 0.04 29.45448
v -292.3564 0.04 39.62055
v -292.3564 0.04 39.62055
v -289.5179 0.04 27.96109
v -289.5179 0.04 27.96109

vn 2.174632E-11 1 -7.612344E-10
vn 0 0 0
vn 1.336826E-11 1 -7.421941E-10
vn 0 0 0
vn 8.419018E-12 1 -3.9104E-10
vn 0 0 0
vn 1.532006E-11 1 -8.421225E-13
vn 0 0 0
vn 3.07461E-11 1 4.053197E-10
vn 0 0 0
vn 6.60102E-11 1 3.472268E-10
vn 0 0 0
vn 6.100559E-11 1 2.685888E-10
vn 0 0 0
vn 3.712558E-11 1 1.085907E-10
vn 0 0 0
vn -1.52888E-10 1 -2.295256E-10
vn 0 0 0
vn -2.92393E-10 1 -3.417634E-10
vn 0 0 0
vn -1.494436E-10 1 -2.243547E-10
vn 0 0 0
vn 1.927567E-10 1 1.191414E-10
vn 0 0 0
vn 1.92228E-10 1 1.765832E-10
vn 0 0 0
vn -2.095718E-10 1 -9.234271E-11
vn 0 0 0
vn -3.346198E-10 1 -1.860557E-10
vn 0 0 0
vn 4.186626E-12 1 -1.097052E-11
vn 0 0 0
vn 2.36321E-10 1 9.018864E-11
vn 0 0 0
vn 1.124406E-10 1 3.652939E-11
vn 0 0 0
vn 0 1 0
vn 0 0 0
vn 0 1 0
vn 0 0 0

vt 0 83.45499
vt 0 0
vt 1 83.45499
vt 0 0
vt 0 84.43337
vt 0 84.43337
vt 1 84.43337
vt 1 84.43337
vt 0 85.28445
vt 0 85.28445
vt 1 85.28445
vt 1 85.28445
vt 0 86.03538
vt 0 86.03538
vt 1 86.03538
vt 1 86.03538
vt 0 86.73212
vt 0 86.73212
vt 1 86.73212
vt 1 86.73212
vt 0 87.44462
vt 0 87.44462
vt 1 87.44462
vt 1 87.44462
vt 0 88.22684
vt 0 88.22684
vt 1 88.22684
vt 1 88.22684
vt 0 89.0743
vt 0 89.0743
vt 1 89.0743
vt 1 89.0743
vt 0 89.96598
vt 0 89.96598
vt 1 89.96598
vt 1 89.96598
vt 0 90.88561
vt 0 0
vt 1 90.88561
vt 0 0

usemtl GSDWhiteYellowDouble-4L
usemap GSDWhiteYellowDouble-4L
f 5/5/5 1/1/1 3/3/3
f 7/7/7 5/5/5 3/3/3
f 9/9/9 5/5/5 7/7/7
f 11/11/11 9/9/9 7/7/7
f 13/13/13 9/9/9 11/11/11
f 15/15/15 13/13/13 11/11/11
f 17/17/17 13/13/13 15/15/15
f 19/19/19 17/17/17 15/15/15
f 21/21/21 17/17/17 19/19/19
f 23/23/23 21/21/21 19/19/19
f 25/25/25 21/21/21 23/23/23
f 27/27/27 25/25/25 23/23/23
f 29/29/29 25/25/25 27/27/27
f 31/31/31 29/29/29 27/27/27
f 33/33/33 29/29/29 31/31/31
f 35/35/35 33/33/33 31/31/31
f 37/37/37 33/33/33 35/35/35
f 39/39/39 37/37/37 35/35/35
