mtllib ./Road1_0_76.mtl
g SCutL5
v -459.6853 0.03 328.0013
v -459.6853 0.03 328.0013
v -456.6866 0.03 328.0918
v -456.6866 0.03 328.0918
v -461.9342 -0.35 327.9334
v -461.9342 -0.35 327.9334
v -459.6853 0.03 328.0013
v -459.6853 0.03 328.0013
v -459.2939 0.03 322.2939
v -459.2939 0.03 322.2939
v -456.3105 0.03 322.6097
v -456.3105 0.03 322.6097
v -461.5314 -0.35 322.057
v -461.5314 -0.35 322.057
v -459.2939 0.03 322.2939
v -459.2939 0.03 322.2939
v -458.6586 0.03 316.9834
v -458.6586 0.03 316.9834
v -455.6873 0.03 317.3971
v -455.6873 0.03 317.3971
v -460.8871 -0.35 316.6732
v -460.8871 -0.35 316.6732
v -458.6586 0.03 316.9834
v -458.6586 0.03 316.9834
v -457.7178 0.03 311.4591
v -457.7178 0.03 311.4591
v -454.7798 0.03 312.0655
v -454.7798 0.03 312.0655
v -459.9214 -0.35 311.0043
v -459.9214 -0.35 311.0043
v -457.7178 0.03 311.4591
v -457.7178 0.03 311.4591
v -456.2711 0.03 305.7662
v -456.2711 0.03 305.7662
v -453.4036 0.03 306.6477
v -453.4036 0.03 306.6477
v -458.4218 -0.35 305.105
v -458.4218 -0.35 305.105
v -456.2711 0.03 305.7662
v -456.2711 0.03 305.7662
v -454.1072 0.03 299.9848
v -454.1072 0.03 299.9848
v -451.37 0.03 301.2127
v -451.37 0.03 301.2127
v -456.1601 -0.35 299.0639
v -456.1601 -0.35 299.0639
v -454.1072 0.03 299.9848
v -454.1072 0.03 299.9848
v -451.0867 0.03 294.3709
v -451.0867 0.03 294.3709
v -448.5577 0.03 295.9848
v -448.5577 0.03 295.9848
v -452.9833 -0.35 293.1605
v -452.9833 -0.35 293.1605
v -451.0867 0.03 294.3709
v -451.0867 0.03 294.3709
v -447.1853 0.03 289.2047
v -447.1853 0.03 289.2047
v -444.9423 0.03 291.1969
v -444.9423 0.03 291.1969
v -448.8676 -0.35 287.7105
v -448.8676 -0.35 287.7105
v -447.1853 0.03 289.2047
v -447.1853 0.03 289.2047
v -442.5275 0.03 284.7255
v -442.5275 0.03 284.7255
v -440.6216 0.03 287.0424
v -440.6216 0.03 287.0424
v -443.9568 -0.35 282.9879
v -443.9568 -0.35 282.9879
v -442.5275 0.03 284.7255
v -442.5275 0.03 284.7255
v -437.3638 0.03 281.0679
v -437.3638 0.03 281.0679
v -435.8042 0.03 283.6306
v -435.8042 0.03 283.6306
v -438.5335 -0.35 279.1458
v -438.5335 -0.35 279.1458
v -437.3638 0.03 281.0679
v -437.3638 0.03 281.0679
v -431.9028 0.03 278.195
v -431.9028 0.03 278.195
v -430.6664 0.03 280.9284
v -430.6664 0.03 280.9284
v -432.8301 -0.35 276.145
v -432.8301 -0.35 276.145
v -431.9028 0.03 278.195
v -431.9028 0.03 278.195
v -426.3295 0.03 276.0156
v -426.3295 0.03 276.0156
v -425.3759 0.03 278.86
v -425.3759 0.03 278.86
v -427.0447 -0.35 273.8823
v -427.0447 -0.35 273.8823
v -426.3295 0.03 276.0156
v -426.3295 0.03 276.0156
v -420.8029 0.03 274.4197
v -420.8029 0.03 274.4197
v -420.0866 0.03 277.3329
v -420.0866 0.03 277.3329
v -421.34 -0.35 272.2347
v -421.34 -0.35 272.2347
v -420.8029 0.03 274.4197
v -420.8029 0.03 274.4197

vn 0 1 0
vn 0 0 0
vn 0 1 0
vn 0 0 0
vn -0.1662598 0.9860161 -0.01139816
vn 0 0 0
vn -0.1662559 0.9860168 -0.01139944
vn 0 0 0
vn 0 1 0
vn 0 0 0
vn 0 1 0
vn 0 0 0
vn -0.1659739 0.9860297 -0.01407144
vn 0 0 0
vn -0.1656802 0.986035 -0.01687895
vn 0 0 0
vn 1.585627E-11 1 -1.138949E-10
vn 0 0 0
vn 3.896254E-11 0.9999999 -2.257193E-10
vn 0 0 0
vn -0.1649815 0.9860368 -0.02263785
vn 0 0 0
vn -0.1646157 0.9860319 -0.02535275
vn 0 0 0
vn 3.75332E-11 0.9999999 -2.174388E-10
vn 0 0 0
vn 2.233632E-11 1 -1.082238E-10
vn 0 0 0
vn -0.163316 0.986037 -0.03254436
vn 0 0 0
vn -0.1624366 0.9860292 -0.0368882
vn 0 0 0
vn -6.215101E-11 1 2.021726E-10
vn 0 0 0
vn -1.493713E-10 1 3.968793E-10
vn 0 0 0
vn -0.1597102 0.9860364 -0.04717009
vn 0 0 0
vn -0.1579536 0.9860255 -0.05295643
vn 0 0 0
vn -1.014122E-10 0.9999999 2.872638E-10
vn 0 0 0
vn 1.326163E-11 0.9999999 7.156686E-12
vn 0 0 0
vn -0.1530584 0.9860345 -0.06564474
vn 0 0 0
vn -0.150004 0.9860233 -0.07250386
vn 0 0 0
vn 4.069931E-11 1 -9.072579E-11
vn 0 0 0
vn -6.73928E-11 1 7.587549E-11
vn 0 0 0
vn -0.1423315 0.9860311 -0.08651248
vn 0 0 0
vn -0.1377645 0.9860238 -0.09369022
vn 0 0 0
vn -5.308256E-11 0.9999999 8.318071E-11
vn 0 0 0
vn 7.818408E-11 1 -6.431323E-11
vn 0 0 0
vn -0.127377 0.9860273 -0.1073557
vn 0 0 0
vn -0.1215305 0.986027 -0.113934
vn 0 0 0
vn 6.604244E-11 1 -7.435515E-11
vn 0 0 0
vn -8.753954E-11 0.9999999 5.327365E-11
vn 0 0 0
vn -0.1093538 0.9860248 -0.1256855
vn 0 0 0
vn -0.1029096 0.986031 -0.1309681
vn 0 0 0
vn 8.315398E-12 1 1.170885E-11
vn 0 0 0
vn 2.79412E-10 1 -1.403188E-10
vn 0 0 0
vn -0.09025796 0.9860256 -0.1400252
vn 0 0 0
vn -0.08396293 0.9860333 -0.1438351
vn 0 0 0
vn 3.667976E-10 1 -1.936433E-10
vn 0 0 0
vn 1.945718E-10 1 -8.801004E-11
vn 0 0 0
vn -0.07208945 0.9860276 -0.1501756
vn 0 0 0
vn -0.06642003 0.9860346 -0.1527226
vn 0 0 0
vn 0 1 0
vn 0 0 0
vn 0 0.9999999 0
vn 0 0 0
vn -0.05598678 0.9860299 -0.1568774
vn 0 0 0
vn -0.05114422 0.9860354 -0.1584882
vn 0 0 0
vn 0 1 0
vn 0 0 0
vn 0 1 0
vn 0 0 0
vn -0.04624211 0.9860131 -0.1601249
vn 0 0 0
vn -0.04623701 0.9860143 -0.1601183
vn 0 0 0

vt 0 0
vt 0 0
vt -0.5997314 0.01810303
vt -0.5997314 0.01810303
vt 0.4497925 -0.01358032
vt 0.4497925 -0.01358032
vt 0 0
vt 0 0
vt -0.07827759 -1.141486
vt -0.07827759 -1.141486
vt -0.6749451 -1.078326
vt -0.6749451 -1.078326
vt 0.36922 -1.188855
vt 0.36922 -1.188855
vt -0.07827759 -1.141486
vt -0.07827759 -1.141486
vt -0.2053345 -2.203583
vt -0.2053345 -2.203583
vt -0.7996033 -2.12085
vt -0.7996033 -2.12085
vt 0.2403626 -2.265631
vt 0.2403626 -2.265631
vt -0.2053345 -2.203583
vt -0.2053345 -2.203583
vt -0.3934875 -3.308435
vt -0.3934875 -3.308435
vt -0.9810974 -3.187158
vt -0.9810974 -3.187158
vt 0.0472229 -3.399402
vt 0.0472229 -3.399402
vt -0.3934875 -3.308435
vt -0.3934875 -3.308435
vt -0.6828247 -4.447021
vt -0.6828247 -4.447021
vt -1.256335 -4.270715
vt -1.256335 -4.270715
vt -0.2526917 -4.579254
vt -0.2526917 -4.579254
vt -0.6828247 -4.447021
vt -0.6828247 -4.447021
vt -1.115613 -5.603302
vt -1.115613 -5.603302
vt -1.663055 -5.357721
vt -1.663055 -5.357721
vt -0.7050354 -5.787488
vt -0.7050354 -5.787488
vt -1.115613 -5.603302
vt -1.115613 -5.603302
vt -1.71972 -6.72608
vt -1.71972 -6.72608
vt -2.225507 -6.403308
vt -2.225507 -6.403308
vt -1.340387 -6.968158
vt -1.340387 -6.968158
vt -1.71972 -6.72608
vt -1.71972 -6.72608
vt -2.499994 -7.759326
vt -2.499994 -7.759326
vt -2.948596 -7.360877
vt -2.948596 -7.360877
vt -2.163544 -8.058154
vt -2.163544 -8.058154
vt -2.499994 -7.759326
vt -2.499994 -7.759326
vt -3.431561 -8.655158
vt -3.431561 -8.655158
vt -3.812726 -8.191785
vt -3.812726 -8.191785
vt -3.145691 -9.002686
vt -3.145691 -9.002686
vt -3.431561 -8.655158
vt -3.431561 -8.655158
vt -4.464301 -9.386683
vt -4.464301 -9.386683
vt -4.776221 -8.874133
vt -4.776221 -8.874133
vt -4.230359 -9.771094
vt -4.230359 -9.771094
vt -4.464301 -9.386683
vt -4.464301 -9.386683
vt -5.5565 -9.961267
vt -5.5565 -9.961267
vt -5.803778 -9.414588
vt -5.803778 -9.414588
vt -5.371039 -10.37127
vt -5.371039 -10.37127
vt -5.5565 -9.961267
vt -5.5565 -9.961267
vt -6.671155 -10.39714
vt -6.671155 -10.39714
vt -6.861877 -9.828265
vt -6.861877 -9.828265
vt -6.528113 -10.8238
vt -6.528113 -10.8238
vt -6.671155 -10.39714
vt -6.671155 -10.39714
vt -7.776483 -10.71633
vt -7.776483 -10.71633
vt -7.919727 -10.13368
vt -7.919727 -10.13368
vt -7.669049 -11.15331
vt -7.669049 -11.15331
vt -7.776483 -10.71633
vt -7.776483 -10.71633

usemtl GSDShoulder1
usemap GSDShoulder1
f 9/9/9 1/1/1 3/3/3
f 11/11/11 9/9/9 3/3/3
f 13/13/13 5/5/5 7/7/7
f 15/15/15 13/13/13 7/7/7
f 17/17/17 9/9/9 11/11/11
f 19/19/19 17/17/17 11/11/11
f 21/21/21 13/13/13 15/15/15
f 23/23/23 21/21/21 15/15/15
f 25/25/25 17/17/17 19/19/19
f 27/27/27 25/25/25 19/19/19
f 29/29/29 21/21/21 23/23/23
f 31/31/31 29/29/29 23/23/23
f 33/33/33 25/25/25 27/27/27
f 35/35/35 33/33/33 27/27/27
f 37/37/37 29/29/29 31/31/31
f 39/39/39 37/37/37 31/31/31
f 41/41/41 33/33/33 35/35/35
f 43/43/43 41/41/41 35/35/35
f 45/45/45 37/37/37 39/39/39
f 47/47/47 45/45/45 39/39/39
f 49/49/49 41/41/41 43/43/43
f 51/51/51 49/49/49 43/43/43
f 53/53/53 45/45/45 47/47/47
f 55/55/55 53/53/53 47/47/47
f 57/57/57 49/49/49 51/51/51
f 59/59/59 57/57/57 51/51/51
f 61/61/61 53/53/53 55/55/55
f 63/63/63 61/61/61 55/55/55
f 65/65/65 57/57/57 59/59/59
f 67/67/67 65/65/65 59/59/59
f 69/69/69 61/61/61 63/63/63
f 71/71/71 69/69/69 63/63/63
f 73/73/73 65/65/65 67/67/67
f 75/75/75 73/73/73 67/67/67
f 77/77/77 69/69/69 71/71/71
f 79/79/79 77/77/77 71/71/71
f 81/81/81 73/73/73 75/75/75
f 83/83/83 81/81/81 75/75/75
f 85/85/85 77/77/77 79/79/79
f 87/87/87 85/85/85 79/79/79
f 89/89/89 81/81/81 83/83/83
f 91/91/91 89/89/89 83/83/83
f 93/93/93 85/85/85 87/87/87
f 95/95/95 93/93/93 87/87/87
f 97/97/97 89/89/89 91/91/91
f 99/99/99 97/97/97 91/91/91
f 101/101/101 93/93/93 95/95/95
f 103/103/103 101/101/101 95/95/95
