mtllib ./Road1_0_83.mtl
g SCutL12
v -166.4102 0.03 451.0221
v -166.4102 0.03 451.0221
v -167.735 0.03 453.7138
v -167.735 0.03 453.7138
v -165.4167 -0.35 449.0034
v -165.4167 -0.35 449.0034
v -166.4102 0.03 451.0221
v -166.4102 0.03 451.0221
v -161.7685 0.03 453.3506
v -161.7685 0.03 453.3506
v -163.1498 0.03 456.0137
v -163.1498 0.03 456.0137
v -160.7326 -0.35 451.3533
v -160.7326 -0.35 451.3533
v -161.7685 0.03 453.3506
v -161.7685 0.03 453.3506
v -157.6515 0.03 455.4102
v -157.6515 0.03 455.4102
v -158.9122 0.03 458.1324
v -158.9122 0.03 458.1324
v -156.7059 -0.35 453.3685
v -156.7059 -0.35 453.3685
v -157.6515 0.03 455.4102
v -157.6515 0.03 455.4102
v -153.9953 0.03 456.8754
v -153.9953 0.03 456.8754
v -154.924 0.03 459.728
v -154.924 0.03 459.728
v -153.2988 -0.35 454.7359
v -153.2988 -0.35 454.7359
v -153.9953 0.03 456.8754
v -153.9953 0.03 456.8754
v -150.6698 0.03 457.6633
v -150.6698 0.03 457.6633
v -151.0858 0.03 460.6343
v -151.0858 0.03 460.6343
v -150.3578 -0.35 455.435
v -150.3578 -0.35 455.435
v -150.6698 0.03 457.6633
v -150.6698 0.03 457.6633
v -147.4906 0.03 457.779
v -147.4906 0.03 457.779
v -147.282 0.03 460.7717
v -147.282 0.03 460.7717
v -147.6471 -0.35 455.5344
v -147.6471 -0.35 455.5344
v -147.4906 0.03 457.779
v -147.4906 0.03 457.779
v -144.2905 0.03 457.2171
v -144.2905 0.03 457.2171
v -143.4852 0.03 460.107
v -143.4852 0.03 460.107
v -144.8944 -0.35 455.0496
v -144.8944 -0.35 455.0496
v -144.2905 0.03 457.2171
v -144.2905 0.03 457.2171
v -141.0191 0.03 455.9868
v -141.0191 0.03 455.9868
v -139.7445 0.03 458.7026
v -139.7445 0.03 458.7026
v -141.975 -0.35 453.95
v -141.975 -0.35 453.95
v -141.0191 0.03 455.9868
v -141.0191 0.03 455.9868
v -137.641 0.03 454.1039
v -137.641 0.03 454.1039
v -136.0207 0.03 456.6287
v -136.0207 0.03 456.6287
v -138.8563 -0.35 452.2103
v -138.8563 -0.35 452.2103
v -137.641 0.03 454.1039
v -137.641 0.03 454.1039
v -134.3099 0.03 451.7096
v -134.3099 0.03 451.7096
v -132.4457 0.03 454.0601
v -132.4457 0.03 454.0601
v -135.708 -0.35 449.9467
v -135.708 -0.35 449.9467
v -134.3099 0.03 451.7096
v -134.3099 0.03 451.7096
v -131.0299 0.03 448.8832
v -131.0299 0.03 448.8832
v -128.9888 0.03 451.0819
v -128.9888 0.03 451.0819
v -132.5607 -0.35 447.2343
v -132.5607 -0.35 447.2343
v -131.0299 0.03 448.8832
v -131.0299 0.03 448.8832
v -127.8249 0.03 445.7104
v -127.8249 0.03 445.7104
v -125.6524 0.03 447.7792
v -125.6524 0.03 447.7792
v -129.4544 -0.35 444.1588
v -129.4544 -0.35 444.1588
v -127.8249 0.03 445.7104
v -127.8249 0.03 445.7104

vn 3.218282E-10 1 1.583891E-10
vn 0 0 0
vn 3.220947E-10 0.9999999 1.627683E-10
vn 0 0 0
vn 0.074678 0.9860353 -0.1488541
vn 0 0 0
vn 0.0746782 0.9860347 -0.1488583
vn 0 0 0
vn 2.227588E-10 1 1.125696E-10
vn 0 0 0
vn 1.142861E-10 1 5.927716E-11
vn 0 0 0
vn 0.07463551 0.9860343 -0.1488817
vn 0 0 0
vn 0.07458793 0.9860306 -0.1489306
vn 0 0 0
vn 0 1 0
vn 0 0 0
vn 0 1 0
vn 0 0 0
vn 0.07096922 0.9860391 -0.150633
vn 0 0 0
vn 0.06678858 0.9860228 -0.1526381
vn 0 0 0
vn -1.52348E-10 0.9999999 -4.959642E-11
vn 0 0 0
vn -3.111968E-10 1 -7.185629E-11
vn 0 0 0
vn 0.05543551 0.9860364 -0.1570322
vn 0 0 0
vn 0.04751978 0.9860185 -0.1597168
vn 0 0 0
vn -1.68725E-10 1 -5.492789E-11
vn 0 0 0
vn 1.708431E-10 1 -1.190829E-11
vn 0 0 0
vn 0.02898709 0.9860293 -0.164031
vn 0 0 0
vn 0.01802876 0.9860204 -0.1656464
vn 0 0 0
vn -1.325092E-12 1 3.809266E-11
vn 0 0 0
vn -5.018878E-10 1 1.040701E-10
vn 0 0 0
vn -0.005196962 0.9860197 -0.166548
vn 0 0 0
vn -0.01689404 0.9860286 -0.1657173
vn 0 0 0
vn -5.223826E-10 0.9999999 7.194912E-11
vn 0 0 0
vn -9.565834E-12 1 -2.578667E-11
vn 0 0 0
vn -0.03918769 0.986014 -0.1619894
vn 0 0 0
vn -0.04901516 0.9860336 -0.1591704
vn 0 0 0
vn 1.584708E-10 1 -4.415532E-11
vn 0 0 0
vn -1.296055E-10 0.9999999 8.317783E-11
vn 0 0 0
vn -0.06674323 0.9860196 -0.1526786
vn 0 0 0
vn -0.07409813 0.9860343 -0.1491501
vn 0 0 0
vn -2.665112E-10 1 1.472211E-10
vn 0 0 0
vn -1.229692E-10 1 7.891884E-11
vn 0 0 0
vn -0.08678722 0.9860246 -0.1422094
vn 0 0 0
vn -0.09207558 0.9860358 -0.1387646
vn 0 0 0
vn 1.13839E-10 1 -9.028331E-11
vn 0 0 0
vn 2.126419E-10 0.9999999 -1.825404E-10
vn 0 0 0
vn -0.1012574 0.98603 -0.1322566
vn 0 0 0
vn -0.1050496 0.9860358 -0.1292208
vn 0 0 0
vn 2.108871E-10 1 -1.81034E-10
vn 0 0 0
vn 9.920899E-11 0.9999999 -9.209735E-11
vn 0 0 0
vn -0.1116615 0.9860325 -0.1235783
vn 0 0 0
vn -0.1144544 0.9860358 -0.1209694
vn 0 0 0
vn 0 1 0
vn 0 0 0
vn 0 0.9999999 0
vn 0 0 0
vn -0.1172177 0.9860233 -0.1183982
vn 0 0 0
vn -0.1172104 0.9860244 -0.1183959
vn 0 0 0

vt 0 0
vt 0 0
vt 0.2649445 0.5383362
vt 0.2649445 0.5383362
vt -0.1987091 -0.4037476
vt -0.1987091 -0.4037476
vt 0 0
vt 0 0
vt -0.9283386 0.4657105
vt -0.9283386 0.4657105
vt -0.6520844 0.9983277
vt -0.6520844 0.9983277
vt -1.135529 0.06624146
vt -1.135529 0.06624146
vt -0.9283386 0.4657105
vt -0.9283386 0.4657105
vt -1.751755 0.8776123
vt -1.751755 0.8776123
vt -1.499606 1.422058
vt -1.499606 1.422058
vt -1.940866 0.469281
vt -1.940866 0.469281
vt -1.751755 0.8776123
vt -1.751755 0.8776123
vt -2.482986 1.170654
vt -2.482986 1.170654
vt -2.297253 1.74118
vt -2.297253 1.74118
vt -2.622287 0.7427551
vt -2.622287 0.7427551
vt -2.482986 1.170654
vt -2.482986 1.170654
vt -3.148083 1.328235
vt -3.148083 1.328235
vt -3.064877 1.922437
vt -3.064877 1.922437
vt -3.210489 0.8825806
vt -3.210489 0.8825806
vt -3.148083 1.328235
vt -3.148083 1.328235
vt -3.78392 1.351373
vt -3.78392 1.351373
vt -3.825641 1.949921
vt -3.825641 1.949921
vt -3.752631 0.9024597
vt -3.752631 0.9024597
vt -3.78392 1.351373
vt -3.78392 1.351373
vt -4.423956 1.238995
vt -4.423956 1.238995
vt -4.585001 1.816974
vt -4.585001 1.816974
vt -4.303174 0.8055054
vt -4.303174 0.8055054
vt -4.423956 1.238995
vt -4.423956 1.238995
vt -5.078229 0.9929382
vt -5.078229 0.9929382
vt -5.333139 1.536096
vt -5.333139 1.536096
vt -4.887045 0.5855713
vt -4.887045 0.5855713
vt -5.078229 0.9929382
vt -5.078229 0.9929382
vt -5.753842 0.6163574
vt -5.753842 0.6163574
vt -6.077911 1.121313
vt -6.077911 1.121313
vt -5.510791 0.2376404
vt -5.510791 0.2376404
vt -5.753842 0.6163574
vt -5.753842 0.6163574
vt -6.420068 0.1375
vt -6.420068 0.1375
vt -6.792899 0.607605
vt -6.792899 0.607605
vt -6.140445 -0.2150818
vt -6.140445 -0.2150818
vt -6.420068 0.1375
vt -6.420068 0.1375
vt -7.076065 -0.427771
vt -7.076065 -0.427771
vt -7.484277 0.01196289
vt -7.484277 0.01196289
vt -6.769907 -0.7575684
vt -6.769907 -0.7575684
vt -7.076065 -0.427771
vt -7.076065 -0.427771
vt -7.71706 -1.062347
vt -7.71706 -1.062347
vt -8.151572 -0.648584
vt -8.151572 -0.648584
vt -7.391174 -1.372669
vt -7.391174 -1.372669
vt -7.71706 -1.062347
vt -7.71706 -1.062347

usemtl GSDShoulder1
usemap GSDShoulder1
f 9/9/9 1/1/1 3/3/3
f 11/11/11 9/9/9 3/3/3
f 13/13/13 5/5/5 7/7/7
f 15/15/15 13/13/13 7/7/7
f 17/17/17 9/9/9 11/11/11
f 19/19/19 17/17/17 11/11/11
f 21/21/21 13/13/13 15/15/15
f 23/23/23 21/21/21 15/15/15
f 25/25/25 17/17/17 19/19/19
f 27/27/27 25/25/25 19/19/19
f 29/29/29 21/21/21 23/23/23
f 31/31/31 29/29/29 23/23/23
f 33/33/33 25/25/25 27/27/27
f 35/35/35 33/33/33 27/27/27
f 37/37/37 29/29/29 31/31/31
f 39/39/39 37/37/37 31/31/31
f 41/41/41 33/33/33 35/35/35
f 43/43/43 41/41/41 35/35/35
f 45/45/45 37/37/37 39/39/39
f 47/47/47 45/45/45 39/39/39
f 49/49/49 41/41/41 43/43/43
f 51/51/51 49/49/49 43/43/43
f 53/53/53 45/45/45 47/47/47
f 55/55/55 53/53/53 47/47/47
f 57/57/57 49/49/49 51/51/51
f 59/59/59 57/57/57 51/51/51
f 61/61/61 53/53/53 55/55/55
f 63/63/63 61/61/61 55/55/55
f 65/65/65 57/57/57 59/59/59
f 67/67/67 65/65/65 59/59/59
f 69/69/69 61/61/61 63/63/63
f 71/71/71 69/69/69 63/63/63
f 73/73/73 65/65/65 67/67/67
f 75/75/75 73/73/73 67/67/67
f 77/77/77 69/69/69 71/71/71
f 79/79/79 77/77/77 71/71/71
f 81/81/81 73/73/73 75/75/75
f 83/83/83 81/81/81 75/75/75
f 85/85/85 77/77/77 79/79/79
f 87/87/87 85/85/85 79/79/79
f 89/89/89 81/81/81 83/83/83
f 91/91/91 89/89/89 83/83/83
f 93/93/93 85/85/85 87/87/87
f 95/95/95 93/93/93 87/87/87
