mtllib ./Road2_1_37.mtl
g SCutL2
v -467.5077 0.003147438 119.2744
v -467.5077 0.003147438 119.2744
v -464.5152 0.003147438 119.0657
v -464.5152 0.003147438 119.0657
v -469.752 -0.6968526 119.4309
v -469.752 -0.6968526 119.4309
v -467.5077 0.003147438 119.2744
v -467.5077 0.003147438 119.2744
v -467.1801 0.03 112.0661
v -467.1801 0.03 112.0661
v -464.2259 0.03 112.5882
v -464.2259 0.03 112.5882
v -469.3958 -0.67 111.6746
v -469.3958 -0.67 111.6746
v -467.1801 0.03 112.0661
v -467.1801 0.03 112.0661
v -464.9392 0.03 105.0519
v -464.9392 0.03 105.0519
v -462.2208 0.03 106.3209
v -462.2208 0.03 106.3209
v -466.978 -0.67 104.1001
v -466.978 -0.67 104.1001
v -464.9392 0.03 105.0519
v -464.9392 0.03 105.0519
v -461.3711 0.03 99.15624
v -461.3711 0.03 99.15624
v -458.9762 0.03 100.963
v -458.9762 0.03 100.963
v -463.1674 -0.67 97.80121
v -463.1674 -0.67 97.80121
v -461.3711 0.03 99.15624
v -461.3711 0.03 99.15624
v -456.9649 0.03 94.27196
v -456.9649 0.03 94.27196
v -454.912 0.03 96.45963
v -454.912 0.03 96.45963
v -458.5045 -0.67 92.6312
v -458.5045 -0.67 92.6312
v -456.9649 0.03 94.27196
v -456.9649 0.03 94.27196
v -452.0925 0.03 90.31441
v -452.0925 0.03 90.31441
v -450.3632 0.03 92.76585
v -450.3632 0.03 92.76585
v -453.3895 -0.67 88.47583
v -453.3895 -0.67 88.47583
v -452.0925 0.03 90.31441
v -452.0925 0.03 90.31441
v -446.9522 0.03 87.12423
v -446.9522 0.03 87.12423
v -445.5154 0.03 89.75775
v -445.5154 0.03 89.75775
v -448.0298 -0.67 85.14909
v -448.0298 -0.67 85.14909
v -446.9522 0.03 87.12423
v -446.9522 0.03 87.12423
v -441.6285 0.03 84.55257
v -441.6285 0.03 84.55257
v -440.4521 0.03 87.31231
v -440.4521 0.03 87.31231
v -442.5108 -0.67 82.48277
v -442.5108 -0.67 82.48277
v -441.6285 0.03 84.55257
v -441.6285 0.03 84.55257
v -436.202 0.03 82.50351
v -436.202 0.03 82.50351
v -435.2552 0.03 85.35017
v -435.2552 0.03 85.35017
v -436.9121 -0.67 80.36852
v -436.9121 -0.67 80.36852
v -436.202 0.03 82.50351
v -436.202 0.03 82.50351
v -430.8017 0.03 80.91689
v -430.8017 0.03 80.91689
v -430.0538 0.03 83.82217
v -430.0538 0.03 83.82217
v -431.3627 -0.67 78.73793
v -431.3627 -0.67 78.73793
v -430.8017 0.03 80.91689
v -430.8017 0.03 80.91689
v -425.3497 0.03 79.69081
v -425.3497 0.03 79.69081
v -424.778 0.03 82.63583
v -424.778 0.03 82.63583
v -425.7785 -0.67 77.48204
v -425.7785 -0.67 77.48204
v -425.3497 0.03 79.69081
v -425.3497 0.03 79.69081

vn 0.0002606217 0.999993 0.003737082
vn 0 0 0
vn -0.0002063184 0.9999923 0.003914857
vn 0 0 0
vn -0.2983926 0.9543865 -0.0104016
vn 0 0 0
vn -0.2989845 0.9542031 -0.01023828
vn 0 0 0
vn -0.0001342609 0.9999968 0.002547578
vn 0 0 0
vn -0.0002307359 0.9999991 0.001305597
vn 0 0 0
vn -0.2944789 0.9548914 -0.03827264
vn 0 0 0
vn -0.2900434 0.9547917 -0.06517366
vn 0 0 0
vn -3.810617E-11 1 8.163156E-11
vn 0 0 0
vn -9.738044E-11 1 1.618956E-10
vn 0 0 0
vn -0.2757041 0.9547201 -0.1117893
vn 0 0 0
vn -0.2656681 0.9548402 -0.133044
vn 0 0 0
vn -4.012526E-11 1 8.595689E-11
vn 0 0 0
vn 7.213714E-11 1 -6.769057E-11
vn 0 0 0
vn -0.2443328 0.954774 -0.1694344
vn 0 0 0
vn -0.232874 0.9548439 -0.1845072
vn 0 0 0
vn 1.31504E-10 0.9999999 -1.464299E-10
vn 0 0 0
vn 7.482619E-11 1 -7.021386E-11
vn 0 0 0
vn -0.2103731 0.9548013 -0.2099948
vn 0 0 0
vn -0.1991092 0.9548481 -0.2205009
vn 0 0 0
vn 8.387491E-11 1 -5.916755E-11
vn 0 0 0
vn 1.795676E-10 0.9999999 -1.118084E-10
vn 0 0 0
vn -0.1776074 0.9548208 -0.2382707
vn 0 0 0
vn -0.1672879 0.9548502 -0.2455114
vn 0 0 0
vn -6.408563E-12 1 -1.029301E-11
vn 0 0 0
vn -2.939962E-10 1 1.36652E-10
vn 0 0 0
vn -0.1477815 0.9548333 -0.2577865
vn 0 0 0
vn -0.1385716 0.9548514 -0.2627861
vn 0 0 0
vn -2.877902E-10 0.9999999 1.452106E-10
vn 0 0 0
vn 3.181865E-12 1 8.401196E-12
vn 0 0 0
vn -0.1212899 0.9548407 -0.2712343
vn 0 0 0
vn -0.1131572 0.9548529 -0.2746843
vn 0 0 0
vn 2.051089E-10 1 -7.767677E-11
vn 0 0 0
vn 1.06513E-10 0.9999999 -3.542762E-11
vn 0 0 0
vn -0.09803981 0.954845 -0.2804627
vn 0 0 0
vn -0.0909465 0.9548541 -0.2828115
vn 0 0 0
vn 0 1 0
vn 0 0 0
vn 0 1 0
vn 0 0 0
vn -0.07758606 0.954849 -0.2867817
vn 0 0 0
vn -0.07138164 0.9548542 -0.2883713
vn 0 0 0
vn 0 1 0
vn 0 0 0
vn 0 1 0
vn 0 0 0
vn -0.06520699 0.9548185 -0.2899474
vn 0 0 0
vn -0.06520349 0.9548203 -0.2899426
vn 0 0 0

vt 0 0
vt 0 0
vt -0.5984985 -0.04173889
vt -0.5984985 -0.04173889
vt 0.4488709 0.03130341
vt 0.4488709 0.03130341
vt 0 0
vt 0 0
vt -0.06551514 -1.441646
vt -0.06551514 -1.441646
vt -0.6563599 -1.337227
vt -0.6563599 -1.337227
vt 0.3776184 -1.519962
vt 0.3776184 -1.519962
vt -0.06551514 -1.441646
vt -0.06551514 -1.441646
vt -0.5136902 -2.844499
vt -0.5136902 -2.844499
vt -1.057373 -2.590704
vt -1.057373 -2.590704
vt -0.1059326 -3.034847
vt -0.1059326 -3.034847
vt -0.5136902 -2.844499
vt -0.5136902 -2.844499
vt -1.227307 -4.023627
vt -1.227307 -4.023627
vt -1.706293 -3.662285
vt -1.706293 -3.662285
vt -0.8680603 -4.294633
vt -0.8680603 -4.294633
vt -1.227307 -4.023627
vt -1.227307 -4.023627
vt -2.108557 -5.000484
vt -2.108557 -5.000484
vt -2.519122 -4.562949
vt -2.519122 -4.562949
vt -1.800635 -5.328635
vt -1.800635 -5.328635
vt -2.108557 -5.000484
vt -2.108557 -5.000484
vt -3.083026 -5.791994
vt -3.083026 -5.791994
vt -3.428888 -5.301706
vt -3.428888 -5.301706
vt -2.823633 -6.159709
vt -2.823633 -6.159709
vt -3.083026 -5.791994
vt -3.083026 -5.791994
vt -4.11109 -6.430029
vt -4.11109 -6.430029
vt -4.398462 -5.903325
vt -4.398462 -5.903325
vt -3.895563 -6.825058
vt -3.895563 -6.825058
vt -4.11109 -6.430029
vt -4.11109 -6.430029
vt -5.17583 -6.94436
vt -5.17583 -6.94436
vt -5.411102 -6.392414
vt -5.411102 -6.392414
vt -4.999372 -7.358321
vt -4.999372 -7.358321
vt -5.17583 -6.94436
vt -5.17583 -6.94436
vt -6.261133 -7.354173
vt -6.261133 -7.354173
vt -6.4505 -6.784841
vt -6.4505 -6.784841
vt -6.119104 -7.781172
vt -6.119104 -7.781172
vt -6.261133 -7.354173
vt -6.261133 -7.354173
vt -7.341187 -7.671498
vt -7.341187 -7.671498
vt -7.490766 -7.090442
vt -7.490766 -7.090442
vt -7.228998 -8.107289
vt -7.228998 -8.107289
vt -7.341187 -7.671498
vt -7.341187 -7.671498
vt -8.431592 -7.916713
vt -8.431592 -7.916713
vt -8.545929 -7.327709
vt -8.545929 -7.327709
vt -8.345838 -8.358467
vt -8.345838 -8.358467
vt -8.431592 -7.916713
vt -8.431592 -7.916713

usemtl GSDShoulder1
usemap GSDShoulder1
f 9/9/9 1/1/1 3/3/3
f 11/11/11 9/9/9 3/3/3
f 13/13/13 5/5/5 7/7/7
f 15/15/15 13/13/13 7/7/7
f 17/17/17 9/9/9 11/11/11
f 19/19/19 17/17/17 11/11/11
f 21/21/21 13/13/13 15/15/15
f 23/23/23 21/21/21 15/15/15
f 25/25/25 17/17/17 19/19/19
f 27/27/27 25/25/25 19/19/19
f 29/29/29 21/21/21 23/23/23
f 31/31/31 29/29/29 23/23/23
f 33/33/33 25/25/25 27/27/27
f 35/35/35 33/33/33 27/27/27
f 37/37/37 29/29/29 31/31/31
f 39/39/39 37/37/37 31/31/31
f 41/41/41 33/33/33 35/35/35
f 43/43/43 41/41/41 35/35/35
f 45/45/45 37/37/37 39/39/39
f 47/47/47 45/45/45 39/39/39
f 49/49/49 41/41/41 43/43/43
f 51/51/51 49/49/49 43/43/43
f 53/53/53 45/45/45 47/47/47
f 55/55/55 53/53/53 47/47/47
f 57/57/57 49/49/49 51/51/51
f 59/59/59 57/57/57 51/51/51
f 61/61/61 53/53/53 55/55/55
f 63/63/63 61/61/61 55/55/55
f 65/65/65 57/57/57 59/59/59
f 67/67/67 65/65/65 59/59/59
f 69/69/69 61/61/61 63/63/63
f 71/71/71 69/69/69 63/63/63
f 73/73/73 65/65/65 67/67/67
f 75/75/75 73/73/73 67/67/67
f 77/77/77 69/69/69 71/71/71
f 79/79/79 77/77/77 71/71/71
f 81/81/81 73/73/73 75/75/75
f 83/83/83 81/81/81 75/75/75
f 85/85/85 77/77/77 79/79/79
f 87/87/87 85/85/85 79/79/79
