mtllib ./Road1_0_40.mtl
g RoadCut13
v -125.6524 0.03 447.7792
v -125.6524 0.03 447.7792
v -116.9621 0.03 456.0544
v -116.9621 0.03 456.0544
v -122.4747 0.03 444.273
v -122.4747 0.03 444.273
v -113.4235 0.03 452.1519
v -113.4235 0.03 452.1519
v -119.3141 0.03 440.5394
v -119.3141 0.03 440.5394
v -110.0631 0.03 448.1826
v -110.0631 0.03 448.1826
v -116.216 0.03 436.7169
v -116.216 0.03 436.7169
v -106.8297 0.03 444.1933
v -106.8297 0.03 444.1933
v -113.1764 0.03 432.8451
v -113.1764 0.03 432.8451
v -103.6895 0.03 440.1935
v -103.6895 0.03 440.1935
v -110.1387 0.03 428.8765
v -110.1387 0.03 428.8765
v -100.5709 0.03 436.1193
v -100.5709 0.03 436.1193
v -107.1437 0.03 424.8807
v -107.1437 0.03 424.8807
v -97.50907 0.03 432.0344
v -97.50907 0.03 432.0344
v -104.1798 0.03 420.8544
v -104.1798 0.03 420.8544
v -94.48785 0.03 427.9302
v -94.48785 0.03 427.9302
v -101.2251 0.03 416.7759
v -101.2251 0.03 416.7759
v -91.48234 0.03 423.7815
v -91.48234 0.03 423.7815
v -98.29737 0.03 412.6756
v -98.29737 0.03 412.6756
v -88.50889 0.03 419.6172
v -88.50889 0.03 419.6172
v -95.41235 0.03 408.581
v -95.41235 0.03 408.581
v -85.58218 0.03 415.4634
v -85.58218 0.03 415.4634
v -92.53453 0.03 404.4453
v -92.53453 0.03 404.4453
v -82.66528 0.03 411.2716
v -82.66528 0.03 411.2716
v -89.67421 0.03 400.2857
v -89.67421 0.03 400.2857
v -79.76799 0.03 407.0582
v -79.76799 0.03 407.0582
v -86.84078 0.03 396.1177
v -86.84078 0.03 396.1177
v -76.89924 0.03 402.8383
v -76.89924 0.03 402.8383
v -84.04278 0.03 391.9559
v -84.04278 0.03 391.9559
v -74.06724 0.03 398.6259
v -74.06724 0.03 398.6259
v -81.28786 0.03 387.8134
v -81.28786 0.03 387.8134
v -71.27937 0.03 394.4338
v -71.27937 0.03 394.4338
v -78.53311 0.03 383.6263
v -78.53311 0.03 383.6263
v -68.49182 0.03 390.1969
v -68.49182 0.03 390.1969
v -75.78526 0.03 379.4039
v -75.78526 0.03 379.4039
v -65.71116 0.03 385.9241
v -65.71116 0.03 385.9241
v -73.05095 0.03 375.1556
v -73.05095 0.03 375.1556
v -62.94382 0.03 381.6245
v -62.94382 0.03 381.6245
v -70.33703 0.03 370.8911
v -70.33703 0.03 370.8911
v -60.19642 0.03 377.3073
v -60.19642 0.03 377.3073
v -67.65024 0.03 366.6197
v -67.65024 0.03 366.6197
v -57.47552 0.03 372.9817
v -57.47552 0.03 372.9817
v -64.99731 0.03 362.3509
v -64.99731 0.03 362.3509
v -54.78762 0.03 368.6566
v -54.78762 0.03 368.6566
v -62.38514 0.03 358.0944
v -62.38514 0.03 358.0944
v -52.1394 0.03 364.3414
v -52.1394 0.03 364.3414
v -59.77432 0.03 353.783
v -59.77432 0.03 353.783
v -49.49055 0.03 359.9672
v -49.49055 0.03 359.9672
v -57.21978 0.03 349.5042
v -57.21978 0.03 349.5042
v -46.89635 0.03 355.622
v -46.89635 0.03 355.622
v -54.68503 0.03 345.1933
v -54.68503 0.03 345.1933
v -44.31929 0.03 351.2391
v -44.31929 0.03 351.2391
v -52.18118 0.03 340.8634
v -52.18118 0.03 340.8634
v -41.77 0.03 346.8305
v -41.77 0.03 346.8305
v -49.72038 0.03 336.5291
v -49.72038 0.03 336.5291
v -39.2601 0.03 342.4097
v -39.2601 0.03 342.4097
v -47.3159 0.03 332.2068
v -47.3159 0.03 332.2068
v -36.80222 0.03 337.9914
v -36.80222 0.03 337.9914
v -44.9444 0.03 327.8442
v -44.9444 0.03 327.8442
v -34.37125 0.03 333.5195
v -34.37125 0.03 333.5195
v -42.62747 0.03 323.467
v -42.62747 0.03 323.467
v -31.98756 0.03 329.0161
v -31.98756 0.03 329.0161
v -40.35642 0.03 319.0392
v -40.35642 0.03 319.0392
v -29.63975 0.03 324.4385
v -29.63975 0.03 324.4385
v -38.16604 0.03 314.6024
v -38.16604 0.03 314.6024
v -27.3602 0.03 319.821
v -27.3602 0.03 319.821
v -36.06921 0.03 310.1476
v -36.06921 0.03 310.1476
v -25.15721 0.03 315.1404
v -25.15721 0.03 315.1404
v -34.09808 0.03 305.6904
v -34.09808 0.03 305.6904
v -23.05642 0.03 310.3895
v -23.05642 0.03 310.3895
v -32.2908 0.03 301.2331
v -32.2908 0.03 301.2331
v -21.08488 0.03 305.5258
v -21.08488 0.03 305.5258

vn 0 1 0
vn 0 0 0
vn 0 1 0
vn 0 0 0
vn 0 1 0
vn 0 0 0
vn 0 1 0
vn 0 0 0
vn 0 1 0
vn 0 0 0
vn 0 1 0
vn 0 0 0
vn 0 1 0
vn 0 0 0
vn 0 1 0
vn 0 0 0
vn 0 1 0
vn 0 0 0
vn 0 1 0
vn 0 0 0
vn 0 0.9999999 0
vn 0 0 0
vn 0 0.9999999 0
vn 0 0 0
vn 0 0.9999999 0
vn 0 0 0
vn 0 1 0
vn 0 0 0
vn 0 1 0
vn 0 0 0
vn 0 1 0
vn 0 0 0
vn 0 1 0
vn 0 0 0
vn 0 0.9999999 0
vn 0 0 0
vn 0 1 0
vn 0 0 0
vn 0 0.9999999 0
vn 0 0 0
vn 0 1 0
vn 0 0 0
vn 0 1 0
vn 0 0 0
vn -6.973972E-11 1 1.008276E-10
vn 0 0 0
vn -1.382478E-10 1 2.010407E-10
vn 0 0 0
vn -1.388566E-10 1 2.019259E-10
vn 0 0 0
vn -6.89064E-11 1 1.007899E-10
vn 0 0 0
vn 0 0.9999999 0
vn 0 0 0
vn 0 1 0
vn 0 0 0
vn 1.374406E-10 1 -2.055544E-10
vn 0 0 0
vn 2.735059E-10 0.9999999 -4.112555E-10
vn 0 0 0
vn 2.062576E-10 0.9999999 -3.095828E-10
vn 0 0 0
vn 5.119816E-13 1 3.366733E-13
vn 0 0 0
vn -1.354045E-10 1 2.058098E-10
vn 0 0 0
vn -6.706547E-11 1 1.024911E-10
vn 0 0 0
vn 6.6637E-11 1 -1.029581E-10
vn 0 0 0
vn 1.320932E-10 1 -2.052343E-10
vn 0 0 0
vn 1.324662E-10 0.9999999 -2.058138E-10
vn 0 0 0
vn 6.569041E-11 1 -1.026364E-10
vn 0 0 0
vn -6.544338E-11 1 1.034303E-10
vn 0 0 0
vn -1.298614E-10 1 2.064583E-10
vn 0 0 0
vn -1.306419E-10 1 2.076992E-10
vn 0 0 0
vn -6.48465E-11 1 1.037087E-10
vn 0 0 0
vn -6.476664E-11 1 1.048646E-10
vn 0 0 0
vn -1.286154E-10 1 2.095864E-10
vn 0 0 0
vn -6.036763E-13 0.9999999 -3.705126E-13
vn 0 0 0
vn 1.898876E-10 1 -3.143125E-10
vn 0 0 0
vn 1.281168E-10 1 -2.101246E-10
vn 0 0 0
vn -1.252961E-10 1 2.114319E-10
vn 0 0 0
vn -1.907242E-10 1 3.187064E-10
vn 0 0 0
vn -7.374728E-13 1 -4.336328E-13
vn 0 0 0
vn 1.251428E-10 1 -2.128579E-10
vn 0 0 0
vn 6.182579E-11 1 -1.060029E-10
vn 0 0 0
vn 0 1 0
vn 0 0 0
vn 0 1 0
vn 0 0 0
vn 0 1 0
vn 0 0 0
vn 0 0.9999999 0
vn 0 0 0
vn 5.999071E-11 1 -1.090336E-10
vn 0 0 0
vn 1.177149E-10 1 -2.166017E-10
vn 0 0 0
vn 1.131856E-12 1 6.150878E-13
vn 0 0 0
vn -1.719922E-10 1 3.266166E-10
vn 0 0 0
vn -1.74598E-10 1 3.284E-10
vn 0 0 0
vn -1.527324E-12 1 -7.831194E-13
vn 0 0 0
vn 1.683992E-10 1 -3.30388E-10
vn 0 0 0
vn 1.631203E-10 1 -3.283234E-10
vn 0 0 0
vn 5.579625E-11 1 -1.107448E-10
vn 0 0 0
vn -5.083375E-11 1 1.110996E-10
vn 0 0 0
vn -1.058849E-10 1 2.251978E-10
vn 0 0 0
vn -5.085164E-11 1 1.111387E-10
vn 0 0 0
vn 0 1 0
vn 0 0 0
vn 0 1 0
vn 0 0 0
vn 0 1 0
vn 0 0 0
vn 0 1 0
vn 0 0 0

vt 0 0
vt 0 0
vt -1.738049 1.655042
vt -1.738049 1.655042
vt -0.6355423 -0.701239
vt -0.6355423 -0.701239
vt -2.445769 0.8745422
vt -2.445769 0.8745422
vt -1.26765 -1.447949
vt -1.26765 -1.447949
vt -3.117854 0.08068848
vt -3.117854 0.08068848
vt -1.887277 -2.212463
vt -1.887277 -2.212463
vt -3.764539 -0.7171753
vt -3.764539 -0.7171753
vt -2.495188 -2.986823
vt -2.495188 -2.986823
vt -4.392569 -1.517145
vt -4.392569 -1.517145
vt -3.102744 -3.78053
vt -3.102744 -3.78053
vt -5.016294 -2.33197
vt -5.016294 -2.33197
vt -3.701744 -4.579688
vt -3.701744 -4.579688
vt -5.628661 -3.148962
vt -5.628661 -3.148962
vt -4.294522 -5.384949
vt -4.294522 -5.384949
vt -6.232904 -3.969788
vt -6.232904 -3.969788
vt -4.88546 -6.200653
vt -4.88546 -6.200653
vt -6.834007 -4.79953
vt -6.834007 -4.79953
vt -5.471001 -7.02071
vt -5.471001 -7.02071
vt -7.428697 -5.632391
vt -7.428697 -5.632391
vt -6.048006 -7.839643
vt -6.048006 -7.839643
vt -8.01404 -6.463153
vt -8.01404 -6.463153
vt -6.623569 -8.666779
vt -6.623569 -8.666779
vt -8.597419 -7.30152
vt -8.597419 -7.30152
vt -7.195633 -9.4987
vt -7.195633 -9.4987
vt -9.176877 -8.144196
vt -9.176877 -8.144196
vt -7.762319 -10.3323
vt -7.762319 -10.3323
vt -9.750628 -8.988184
vt -9.750628 -8.988184
vt -8.321919 -11.16466
vt -8.321919 -11.16466
vt -10.31703 -9.830665
vt -10.31703 -9.830665
vt -8.872902 -11.99316
vt -8.872902 -11.99316
vt -10.8746 -10.66907
vt -10.8746 -10.66907
vt -9.423853 -12.83057
vt -9.423853 -12.83057
vt -11.43211 -11.51646
vt -11.43211 -11.51646
vt -9.973424 -13.67505
vt -9.973424 -13.67505
vt -11.98824 -12.37101
vt -11.98824 -12.37101
vt -10.52029 -14.52471
vt -10.52029 -14.52471
vt -12.54171 -13.23093
vt -12.54171 -13.23093
vt -11.06307 -15.37762
vt -11.06307 -15.37762
vt -13.09119 -14.09437
vt -13.09119 -14.09437
vt -11.60043 -16.2319
vt -11.60043 -16.2319
vt -13.63537 -14.9595
vt -13.63537 -14.9595
vt -12.13101 -17.08566
vt -12.13101 -17.08566
vt -14.17295 -15.82452
vt -14.17295 -15.82452
vt -12.65345 -17.93696
vt -12.65345 -17.93696
vt -14.70259 -16.68756
vt -14.70259 -16.68756
vt -13.17561 -18.79923
vt -13.17561 -18.79923
vt -15.23236 -17.56239
vt -15.23236 -17.56239
vt -13.68652 -19.65499
vt -13.68652 -19.65499
vt -15.7512 -18.43144
vt -15.7512 -18.43144
vt -14.19347 -20.51718
vt -14.19347 -20.51718
vt -16.26662 -19.30802
vt -16.26662 -19.30802
vt -14.69424 -21.38316
vt -14.69424 -21.38316
vt -16.77647 -20.18973
vt -16.77647 -20.18973
vt -15.1864 -22.25002
vt -15.1864 -22.25002
vt -17.27846 -21.07389
vt -17.27846 -21.07389
vt -15.66729 -23.11448
vt -15.66729 -23.11448
vt -17.77003 -21.95755
vt -17.77003 -21.95755
vt -16.1416 -23.98699
vt -16.1416 -23.98699
vt -18.25623 -22.85194
vt -18.25623 -22.85194
vt -16.60498 -24.86244
vt -16.60498 -24.86244
vt -18.73296 -23.75262
vt -18.73296 -23.75262
vt -17.05919 -25.748
vt -17.05919 -25.748
vt -19.20253 -24.66813
vt -19.20253 -24.66813
vt -17.49727 -26.63536
vt -17.49727 -26.63536
vt -19.65844 -25.59164
vt -19.65844 -25.59164
vt -17.91663 -27.52631
vt -17.91663 -27.52631
vt -20.09903 -26.52775
vt -20.09903 -26.52775
vt -18.31086 -28.41775
vt -18.31086 -28.41775
vt -20.51919 -27.47793
vt -20.51919 -27.47793
vt -18.67232 -29.30922
vt -18.67232 -29.30922
vt -20.9135 -28.45068
vt -20.9135 -28.45068

usemtl GSDRoad1
usemap GSDRoad1
f 5/5/5 1/1/1 3/3/3
f 7/7/7 5/5/5 3/3/3
f 9/9/9 5/5/5 7/7/7
f 11/11/11 9/9/9 7/7/7
f 13/13/13 9/9/9 11/11/11
f 15/15/15 13/13/13 11/11/11
f 17/17/17 13/13/13 15/15/15
f 19/19/19 17/17/17 15/15/15
f 21/21/21 17/17/17 19/19/19
f 23/23/23 21/21/21 19/19/19
f 25/25/25 21/21/21 23/23/23
f 27/27/27 25/25/25 23/23/23
f 29/29/29 25/25/25 27/27/27
f 31/31/31 29/29/29 27/27/27
f 33/33/33 29/29/29 31/31/31
f 35/35/35 33/33/33 31/31/31
f 37/37/37 33/33/33 35/35/35
f 39/39/39 37/37/37 35/35/35
f 41/41/41 37/37/37 39/39/39
f 43/43/43 41/41/41 39/39/39
f 45/45/45 41/41/41 43/43/43
f 47/47/47 45/45/45 43/43/43
f 49/49/49 45/45/45 47/47/47
f 51/51/51 49/49/49 47/47/47
f 53/53/53 49/49/49 51/51/51
f 55/55/55 53/53/53 51/51/51
f 57/57/57 53/53/53 55/55/55
f 59/59/59 57/57/57 55/55/55
f 61/61/61 57/57/57 59/59/59
f 63/63/63 61/61/61 59/59/59
f 65/65/65 61/61/61 63/63/63
f 67/67/67 65/65/65 63/63/63
f 69/69/69 65/65/65 67/67/67
f 71/71/71 69/69/69 67/67/67
f 73/73/73 69/69/69 71/71/71
f 75/75/75 73/73/73 71/71/71
f 77/77/77 73/73/73 75/75/75
f 79/79/79 77/77/77 75/75/75
f 81/81/81 77/77/77 79/79/79
f 83/83/83 81/81/81 79/79/79
f 85/85/85 81/81/81 83/83/83
f 87/87/87 85/85/85 83/83/83
f 89/89/89 85/85/85 87/87/87
f 91/91/91 89/89/89 87/87/87
f 93/93/93 89/89/89 91/91/91
f 95/95/95 93/93/93 91/91/91
f 97/97/97 93/93/93 95/95/95
f 99/99/99 97/97/97 95/95/95
f 101/101/101 97/97/97 99/99/99
f 103/103/103 101/101/101 99/99/99
f 105/105/105 101/101/101 103/103/103
f 107/107/107 105/105/105 103/103/103
f 109/109/109 105/105/105 107/107/107
f 111/111/111 109/109/109 107/107/107
f 113/113/113 109/109/109 111/111/111
f 115/115/115 113/113/113 111/111/111
f 117/117/117 113/113/113 115/115/115
f 119/119/119 117/117/117 115/115/115
f 121/121/121 117/117/117 119/119/119
f 123/123/123 121/121/121 119/119/119
f 125/125/125 121/121/121 123/123/123
f 127/127/127 125/125/125 123/123/123
f 129/129/129 125/125/125 127/127/127
f 131/131/131 129/129/129 127/127/127
f 133/133/133 129/129/129 131/131/131
f 135/135/135 133/133/133 131/131/131
f 137/137/137 133/133/133 135/135/135
f 139/139/139 137/137/137 135/135/135
f 141/141/141 137/137/137 139/139/139
f 143/143/143 141/141/141 139/139/139
