mtllib ./Road1_0_33.mtl
g Markers9
v -114.648 0.04 247.8743
v -114.648 0.04 247.8743
v -117.9497 0.04 259.4111
v -117.9497 0.04 259.4111
v -109.6823 0.04 249.4271
v -109.6823 0.04 249.4271
v -113.342 0.04 260.8554
v -113.342 0.04 260.8554
v -105.0029 0.04 250.8372
v -105.0029 0.04 250.8372
v -108.313 0.04 262.3716
v -108.313 0.04 262.3716
v -100.1573 0.04 252.2021
v -100.1573 0.04 252.2021
v -103.4089 0.04 263.7532
v -103.4089 0.04 263.7532
v -95.1557 0.04 253.6682
v -95.1557 0.04 253.6682
v -98.72668 0.04 265.1245
v -98.72668 0.04 265.1245
v -89.94616 0.04 255.4901
v -89.94616 0.04 255.4901
v -94.40403 0.04 266.6313
v -94.40403 0.04 266.6313
v -84.53368 0.04 258.1472
v -84.53368 0.04 258.1472
v -90.79435 0.04 268.3846
v -90.79435 0.04 268.3846
v -79.20895 0.04 262.6356
v -79.20895 0.04 262.6356
v -88.4095 0.04 270.3395
v -88.4095 0.04 270.3395
v -75.70048 0.04 269.4055
v -75.70048 0.04 269.4055
v -87.29818 0.04 272.4867
v -87.29818 0.04 272.4867
v -75.10104 0.04 276.3827
v -75.10104 0.04 276.3827
v -87.07327 0.04 275.5668
v -87.07327 0.04 275.5668
v -76.12498 0.04 282.4149
v -76.12498 0.04 282.4149
v -87.73945 0.04 279.3977
v -87.73945 0.04 279.3977
v -77.88334 0.04 287.8364
v -77.88334 0.04 287.8364
v -89.09141 0.04 283.5493
v -89.09141 0.04 283.5493

vn 0 1 0
vn 0 0 0
vn 0 1 0
vn 0 0 0
vn 0 1 0
vn 0 0 0
vn 0 1 0
vn 0 0 0
vn 0 1 0
vn 0 0 0
vn 0 1 0
vn 0 0 0
vn 0 1 0
vn 0 0 0
vn 0 0.9999999 0
vn 0 0 0
vn 0 0.9999999 0
vn 0 0 0
vn 0 1 0
vn 0 0 0
vn 0 0.9999999 0
vn 0 0 0
vn 0 0.9999999 0
vn 0 0 0
vn -9.40782E-11 1 -5.753357E-11
vn 0 0 0
vn -2.002287E-10 1 -1.725505E-10
vn 0 0 0
vn -1.604438E-10 1 -1.382652E-10
vn 0 0 0
vn -9.317887E-11 1 -1.112806E-10
vn 0 0 0
vn 2.863667E-11 0.9999999 1.07792E-10
vn 0 0 0
vn 2.855014E-11 1 2.970711E-10
vn 0 0 0
vn 2.191675E-11 1 2.280491E-10
vn 0 0 0
vn -9.726425E-12 1 1.42719E-10
vn 0 0 0
vn 0 1 0
vn 0 0 0
vn 0 1 0
vn 0 0 0
vn 0 1 0
vn 0 0 0
vn 0 1 0
vn 0 0 0

vt 0 154.408
vt 0 0
vt 1 154.408
vt 0 0
vt 0 155.4486
vt 0 155.4486
vt 1 155.4486
vt 1 155.4486
vt 0 156.426
vt 0 156.426
vt 1 156.426
vt 1 156.426
vt 0 157.4329
vt 0 157.4329
vt 1 157.4329
vt 1 157.4329
vt 0 158.4753
vt 0 158.4753
vt 1 158.4753
vt 1 158.4753
vt 0 159.5791
vt 0 159.5791
vt 1 159.5791
vt 1 159.5791
vt 0 160.785
vt 0 160.785
vt 1 160.785
vt 1 160.785
vt 0 162.1778
vt 0 162.1778
vt 1 162.1778
vt 1 162.1778
vt 0 163.7028
vt 0 163.7028
vt 1 163.7028
vt 1 163.7028
vt 0 165.1034
vt 0 165.1034
vt 1 165.1034
vt 1 165.1034
vt 0 166.3271
vt 0 166.3271
vt 1 166.3271
vt 1 166.3271
vt 0 167.467
vt 0 0
vt 1 167.467
vt 0 0

usemtl GSDWhiteYellowDouble-4L
usemap GSDWhiteYellowDouble-4L
f 5/5/5 1/1/1 3/3/3
f 7/7/7 5/5/5 3/3/3
f 9/9/9 5/5/5 7/7/7
f 11/11/11 9/9/9 7/7/7
f 13/13/13 9/9/9 11/11/11
f 15/15/15 13/13/13 11/11/11
f 17/17/17 13/13/13 15/15/15
f 19/19/19 17/17/17 15/15/15
f 21/21/21 17/17/17 19/19/19
f 23/23/23 21/21/21 19/19/19
f 25/25/25 21/21/21 23/23/23
f 27/27/27 25/25/25 23/23/23
f 29/29/29 25/25/25 27/27/27
f 31/31/31 29/29/29 27/27/27
f 33/33/33 29/29/29 31/31/31
f 35/35/35 33/33/33 31/31/31
f 37/37/37 33/33/33 35/35/35
f 39/39/39 37/37/37 35/35/35
f 41/41/41 37/37/37 39/39/39
f 43/43/43 41/41/41 39/39/39
f 45/45/45 41/41/41 43/43/43
f 47/47/47 45/45/45 43/43/43
