mtllib ./Road1_0_48.mtl
g RoadCut17
v -75.33847 0.03 115.5261
v -75.33847 0.03 115.5261
v -71.54778 0.03 104.1405
v -71.54778 0.03 104.1405
v -76.5302 0 115.0389
v -76.5302 0 115.0389
v -80.15472 0 103.6076
v -80.15472 0 103.6076
v -76.18147 0 115.424
v -76.18147 0 115.424
v -87.08762 0 110.4743
v -87.08762 0 110.4743
v -77.82113 0 119.7575
v -77.82113 0 119.7575
v -89.06309 0 115.5966
v -89.06309 0 115.5966
v -80.02739 0 124.9799
v -80.02739 0 124.9799
v -90.76704 0 119.6355
v -90.76704 0 119.6355
v -83.23755 0 130.2217
v -83.23755 0 130.2217
v -92.82928 0 123.0107
v -92.82928 0 123.0107
v -87.47702 0 134.7932
v -87.47702 0 134.7932
v -95.38899 0 125.774
v -95.38899 0 125.774
v -92.5429 0 138.4178
v -92.5429 0 138.4178
v -98.5763 0 128.0551
v -98.5763 0 128.0551
v -97.91271 0 140.9873
v -97.91271 0 140.9873
v -102.2671 0 129.8225
v -102.2671 0 129.8225
v -103.4738 0 142.7559
v -103.4738 0 142.7559
v -106.435 0 131.1502
v -106.435 0 131.1502

vn -0.02215149 0.9997274 -0.007375101
vn 0 0 0
vn -0.006118522 0.9999812 -4.456347E-05
vn 0 0 0
vn -0.006263561 0.9999804 -4.561984E-05
vn 0 0 0
vn -0.001688755 0.9999984 0.0005354526
vn 0 0 0
vn 0 1 0
vn 0 0 0
vn 0 1 0
vn 0 0 0
vn 0 1 0
vn 0 0 0
vn 0 1 0
vn 0 0 0
vn 0 1 0
vn 0 0 0
vn 0 1 0
vn 0 0 0
vn 0 1 0
vn 0 0 0
vn 0 1 0
vn 0 0 0
vn 0 0.9999999 0
vn 0 0 0
vn 0 0.9999999 0
vn 0 0 0
vn 0 1 0
vn 0 0 0
vn 0 1 0
vn 0 0 0
vn 0 1 0
vn 0 0 0
vn 0 1 0
vn 0 0 0
vn 0 1 0
vn 0 0 0
vn 0 1 0
vn 0 0 0

vt 0 0
vt 0 0
vt -0.7581391 -2.277109
vt -0.7581391 -2.277109
vt 0.2383469 -0.09743958
vt 0.2383469 -0.09743958
vt 0.9632492 -2.383698
vt 0.9632492 -2.383698
vt 0.1685989 -0.02041168
vt 0.1685989 -0.02041168
vt 2.349831 -1.010356
vt 2.349831 -1.010356
vt 0.4965317 0.8462845
vt 0.4965317 0.8462845
vt 2.744923 0.0141098
vt 2.744923 0.0141098
vt 0.9377838 1.890761
vt 0.9377838 1.890761
vt 3.085715 0.8218827
vt 3.085715 0.8218827
vt 1.579816 2.939117
vt 1.579816 2.939117
vt 3.498163 1.496935
vt 3.498163 1.496935
vt 2.42771 3.853415
vt 2.42771 3.853415
vt 4.010105 2.049576
vt 4.010105 2.049576
vt 3.440886 4.578339
vt 3.440886 4.578339
vt 4.647566 2.505798
vt 4.647566 2.505798
vt 4.514848 5.092239
vt 4.514848 5.092239
vt 5.385732 2.859287
vt 5.385732 2.859287
vt 5.627059 5.445962
vt 5.627059 5.445962
vt 6.219307 3.12482
vt 6.219307 3.12482

usemtl GSDRoad1
usemap GSDRoad1
f 5/5/5 1/1/1 3/3/3
f 7/7/7 5/5/5 3/3/3
f 9/9/9 5/5/5 7/7/7
f 11/11/11 9/9/9 7/7/7
f 13/13/13 9/9/9 11/11/11
f 15/15/15 13/13/13 11/11/11
f 17/17/17 13/13/13 15/15/15
f 19/19/19 17/17/17 15/15/15
f 21/21/21 17/17/17 19/19/19
f 23/23/23 21/21/21 19/19/19
f 25/25/25 21/21/21 23/23/23
f 27/27/27 25/25/25 23/23/23
f 29/29/29 25/25/25 27/27/27
f 31/31/31 29/29/29 27/27/27
f 33/33/33 29/29/29 31/31/31
f 35/35/35 33/33/33 31/31/31
f 37/37/37 33/33/33 35/35/35
f 39/39/39 37/37/37 35/35/35
