mtllib ./Road2_1_41.mtl
g SCutL6
v -293.066 0.03 42.53542
v -293.066 0.03 42.53542
v -292.3564 0.03 39.62055
v -292.3564 0.03 39.62055
v -293.5982 -0.67 44.72157
v -293.5982 -0.67 44.72157
v -293.066 0.03 42.53542
v -293.066 0.03 42.53542
v -297.4421 0.03 41.61048
v -297.4421 0.03 41.61048
v -296.9112 0.03 38.65783
v -296.9112 0.03 38.65783
v -297.8403 -0.67 43.82497
v -297.8403 -0.67 43.82497
v -297.4421 0.03 41.61048
v -297.4421 0.03 41.61048
v -302.0226 0.03 40.90417
v -302.0226 0.03 40.90417
v -301.6256 0.03 37.93056
v -301.6256 0.03 37.93056
v -302.3203 -0.67 43.13439
v -302.3203 -0.67 43.13439
v -302.0226 0.03 40.90417
v -302.0226 0.03 40.90417
v -306.7462 0.03 40.34451
v -306.7462 0.03 40.34451
v -306.4314 0.03 37.36108
v -306.4314 0.03 37.36108
v -306.9824 -0.67 42.58208
v -306.9824 -0.67 42.58208
v -306.7462 0.03 40.34451
v -306.7462 0.03 40.34451
v -311.5943 0.03 39.88257
v -311.5943 0.03 39.88257
v -311.3368 0.03 36.89364
v -311.3368 0.03 36.89364
v -311.7874 -0.67 42.12427
v -311.7874 -0.67 42.12427
v -311.5943 0.03 39.88257
v -311.5943 0.03 39.88257
v -316.4892 0.03 39.49762
v -316.4892 0.03 39.49762
v -316.2743 0.03 36.50533
v -316.2743 0.03 36.50533
v -316.6504 -0.67 41.74184
v -316.6504 -0.67 41.74184
v -316.4892 0.03 39.49762
v -316.4892 0.03 39.49762
v -321.424 0.03 39.17184
v -321.424 0.03 39.17184
v -321.2424 0.03 36.17735
v -321.2424 0.03 36.17735
v -321.5603 -0.67 41.41771
v -321.5603 -0.67 41.41771
v -321.424 0.03 39.17184
v -321.424 0.03 39.17184
v -326.3771 0.03 38.89433
v -326.3771 0.03 38.89433
v -326.2222 0.03 35.89834
v -326.2222 0.03 35.89834
v -326.4933 -0.67 41.14133
v -326.4933 -0.67 41.14133
v -326.3771 0.03 38.89433
v -326.3771 0.03 38.89433
v -331.3514 0.03 38.65613
v -331.3514 0.03 38.65613
v -331.2186 0.03 35.65907
v -331.2186 0.03 35.65907
v -331.451 -0.67 40.90393
v -331.451 -0.67 40.90393
v -331.3514 0.03 38.65613
v -331.3514 0.03 38.65613
v -336.3009 0.03 38.45262
v -336.3009 0.03 38.45262
v -336.1866 0.03 35.45479
v -336.1866 0.03 35.45479
v -336.3865 -0.67 40.70098
v -336.3865 -0.67 40.70098
v -336.3009 0.03 38.45262
v -336.3009 0.03 38.45262
v -341.2548 0.03 38.27726
v -341.2548 0.03 38.27726
v -341.1564 0.03 35.27887
v -341.1564 0.03 35.27887
v -341.3286 -0.67 40.52605
v -341.3286 -0.67 40.52605
v -341.2548 0.03 38.27726
v -341.2548 0.03 38.27726
v -346.2536 0.03 38.12501
v -346.2536 0.03 38.12501
v -346.1691 0.03 35.1262
v -346.1691 0.03 35.1262
v -346.3171 -0.67 40.37411
v -346.3171 -0.67 40.37411
v -346.2536 0.03 38.12501
v -346.2536 0.03 38.12501
v -351.2749 0.03 37.99376
v -351.2749 0.03 37.99376
v -351.2025 0.03 34.99464
v -351.2025 0.03 34.99464
v -351.3293 -0.67 40.24311
v -351.3293 -0.67 40.24311
v -351.2749 0.03 37.99376
v -351.2749 0.03 37.99376
v -356.2977 0.03 37.88152
v -356.2977 0.03 37.88152
v -356.2359 0.03 34.88215
v -356.2359 0.03 34.88215
v -356.344 -0.67 40.13104
v -356.344 -0.67 40.13104
v -356.2977 0.03 37.88152
v -356.2977 0.03 37.88152
v -361.3027 0.03 37.78637
v -361.3027 0.03 37.78637
v -361.2503 0.03 34.78682
v -361.2503 0.03 34.78682
v -361.342 -0.67 40.03602
v -361.342 -0.67 40.03602
v -361.3027 0.03 37.78637
v -361.3027 0.03 37.78637
v -366.3453 0.03 37.70543
v -366.3453 0.03 37.70543
v -366.3013 0.03 34.70575
v -366.3013 0.03 34.70575
v -366.3784 -0.67 39.95518
v -366.3784 -0.67 39.95518
v -366.3453 0.03 37.70543
v -366.3453 0.03 37.70543
v -371.3365 0.03 37.63843
v -371.3365 0.03 37.63843
v -371.2998 0.03 34.63866
v -371.2998 0.03 34.63866
v -371.364 -0.67 39.88826
v -371.364 -0.67 39.88826
v -371.3365 0.03 37.63843
v -371.3365 0.03 37.63843
v -376.334 0.03 37.58298
v -376.334 0.03 37.58298
v -376.3039 0.03 34.58313
v -376.3039 0.03 34.58313
v -376.3565 -0.67 39.83287
v -376.3565 -0.67 39.83287
v -376.334 0.03 37.58298
v -376.334 0.03 37.58298
v -381.3228 0.03 37.53795
v -381.3228 0.03 37.53795
v -381.2986 0.03 34.53805
v -381.2986 0.03 34.53805
v -381.3409 -0.67 39.78788
v -381.3409 -0.67 39.78788
v -381.3228 0.03 37.53795
v -381.3228 0.03 37.53795
v -386.3607 0.03 37.50174
v -386.3607 0.03 37.50174
v -386.3417 0.03 34.5018
v -386.3417 0.03 34.5018
v -386.375 -0.67 39.75169
v -386.375 -0.67 39.75169
v -386.3607 0.03 37.50174
v -386.3607 0.03 37.50174
v -391.359 0.03 37.4739
v -391.359 0.03 37.4739
v -391.3445 0.03 34.47393
v -391.3445 0.03 34.47393
v -391.3698 -0.67 39.72387
v -391.3698 -0.67 39.72387
v -391.359 0.03 37.4739
v -391.359 0.03 37.4739
v -396.3729 0.03 37.453
v -396.3729 0.03 37.453
v -396.3623 0.03 34.45301
v -396.3623 0.03 34.45301
v -396.3809 -0.67 39.70298
v -396.3809 -0.67 39.70298
v -396.3729 0.03 37.453
v -396.3729 0.03 37.453
v -401.3837 0.03 37.43808
v -401.3837 0.03 37.43808
v -401.3764 0.03 34.43809
v -401.3764 0.03 34.43809
v -401.3893 -0.67 39.68807
v -401.3893 -0.67 39.68807
v -401.3837 0.03 37.43808
v -401.3837 0.03 37.43808
v -406.4394 0.03 37.42798
v -406.4394 0.03 37.42798
v -406.4347 0.03 34.42798
v -406.4347 0.03 34.42798
v -406.443 -0.67 39.67797
v -406.443 -0.67 39.67797
v -406.4394 0.03 37.42798
v -406.4394 0.03 37.42798
v -411.4464 0.03 37.42172
v -411.4464 0.03 37.42172
v -411.4435 0.03 34.42173
v -411.4435 0.03 34.42173
v -411.4485 -0.67 39.67172
v -411.4485 -0.67 39.67172
v -411.4464 0.03 37.42172
v -411.4464 0.03 37.42172
v -416.4451 0.03 37.41793
v -416.4451 0.03 37.41793
v -416.4433 0.03 34.41793
v -416.4433 0.03 34.41793
v -416.4464 -0.67 39.66793
v -416.4464 -0.67 39.66793
v -416.4451 0.03 37.41793
v -416.4451 0.03 37.41793
v -421.4651 0.03 37.41513
v -421.4651 0.03 37.41513
v -421.4634 0.03 34.41513
v -421.4634 0.03 34.41513
v -421.4664 -0.67 39.66513
v -421.4664 -0.67 39.66513
v -421.4651 0.03 37.41513
v -421.4651 0.03 37.41513
v -426.5215 0.03 37.41148
v -426.5215 0.03 37.41148
v -426.5186 0.03 34.41149
v -426.5186 0.03 34.41149
v -426.5236 -0.67 39.66148
v -426.5236 -0.67 39.66148
v -426.5215 0.03 37.41148
v -426.5215 0.03 37.41148
v -431.5536 0.03 37.40465
v -431.5536 0.03 37.40465
v -431.548 0.03 34.40465
v -431.548 0.03 34.40465
v -431.5578 -0.67 39.65464
v -431.5578 -0.67 39.65464
v -431.5536 0.03 37.40465
v -431.5536 0.03 37.40465
v -436.5963 0.03 37.39124
v -436.5963 0.03 37.39124
v -436.5855 0.03 34.39125
v -436.5855 0.03 34.39125
v -436.6045 -0.67 39.64122
v -436.6045 -0.67 39.64122
v -436.5963 0.03 37.39124
v -436.5963 0.03 37.39124
v -441.6383 0.03 37.36613
v -441.6383 0.03 37.36613
v -441.6184 0.03 34.36619
v -441.6184 0.03 34.36619
v -441.6533 -0.67 39.61608
v -441.6533 -0.67 39.61608
v -441.6383 0.03 37.36613
v -441.6383 0.03 37.36613
v -446.6905 0.03 37.32032
v -446.6905 0.03 37.32032
v -446.6543 0.03 34.32053
v -446.6543 0.03 34.32053
v -446.7176 -0.67 39.57015
v -446.7176 -0.67 39.57015
v -446.6905 0.03 37.32032
v -446.6905 0.03 37.32032
v -451.8028 0.03 37.23394
v -451.8028 0.03 37.23394
v -451.7332 0.03 34.23475
v -451.7332 0.03 34.23475
v -451.8551 -0.67 39.48334
v -451.8551 -0.67 39.48334
v -451.8028 0.03 37.23394
v -451.8028 0.03 37.23394

vn 0 1 0
vn 0 0 0
vn 0 1 0
vn 0 0 0
vn -0.06145722 0.9548177 0.2907684
vn 0 0 0
vn -0.06145742 0.9548178 0.2907677
vn 0 0 0
vn 0 1 0
vn 0 0 0
vn 0 0.9999999 0
vn 0 0 0
vn -0.05595867 0.9548512 0.2917668
vn 0 0 0
vn -0.05058235 0.9548579 0.2927248
vn 0 0 0
vn 1.303991E-10 1 1.740804E-11
vn 0 0 0
vn 2.574862E-10 1 3.076766E-11
vn 0 0 0
vn -0.04177925 0.9548509 0.2941331
vn 0 0 0
vn -0.03835158 0.9548571 0.2945794
vn 0 0 0
vn 1.276376E-10 1 1.70394E-11
vn 0 0 0
vn -1.267934E-10 1 -1.092242E-11
vn 0 0 0
vn -0.03266312 0.954855 0.2952712
vn 0 0 0
vn -0.03040878 0.9548568 0.2955057
vn 0 0 0
vn -2.521319E-10 1 -2.416159E-11
vn 0 0 0
vn -1.254747E-10 1 -1.080883E-11
vn 0 0 0
vn -0.02654252 0.954856 0.2958807
vn 0 0 0
vn -0.02491473 0.9548568 0.29602
vn 0 0 0
vn 0 1 0
vn 0 0 0
vn 0 1 0
vn 0 0 0
vn -0.0220454 0.9548563 0.296249
vn 0 0 0
vn -0.02080553 0.9548567 0.2963375
vn 0 0 0
vn 1.249055E-10 1 7.57654E-12
vn 0 0 0
vn 2.491686E-10 1 1.399838E-11
vn 0 0 0
vn -0.01858397 0.9548565 0.2964858
vn 0 0 0
vn -0.01760073 0.9548567 0.2965448
vn 0 0 0
vn 2.491496E-10 1 1.399731E-11
vn 0 0 0
vn 1.242621E-10 1 6.424943E-12
vn 0 0 0
vn -0.01581355 0.9548568 0.2966456
vn 0 0 0
vn -0.01501103 0.9548568 0.2966869
vn 0 0 0
vn -1.245887E-10 1 -5.518521E-12
vn 0 0 0
vn -2.493389E-10 1 -1.02736E-11
vn 0 0 0
vn -0.01354397 0.9548568 0.2967578
vn 0 0 0
vn -0.01287582 0.9548567 0.2967875
vn 0 0 0
vn -3.75158E-10 1 -1.507135E-11
vn 0 0 0
vn -3.747291E-10 1 -1.362019E-11
vn 0 0 0
vn -0.01163948 0.9548567 0.2968388
vn 0 0 0
vn -0.01107435 0.9548568 0.2968603
vn 0 0 0
vn -1.246595E-10 1 -4.751217E-12
vn 0 0 0
vn 1.242181E-10 1 3.502858E-12
vn 0 0 0
vn -0.01001785 0.9548568 0.2968979
vn 0 0 0
vn -0.009529437 0.9548567 0.2969139
vn 0 0 0
vn 2.475912E-10 1 7.553116E-12
vn 0 0 0
vn 1.235255E-10 1 3.483328E-12
vn 0 0 0
vn -0.008615339 0.9548566 0.2969419
vn 0 0 0
vn -0.008188294 0.9548567 0.2969538
vn 0 0 0
vn 0 1 0
vn 0 0 0
vn 0 0.9999999 0
vn 0 0 0
vn -0.007387254 0.9548568 0.2969748
vn 0 0 0
vn -0.00701229 0.9548568 0.2969837
vn 0 0 0
vn 1.236175E-10 1 2.546984E-12
vn 0 0 0
vn 2.473854E-10 0.9999999 4.710554E-12
vn 0 0 0
vn -0.006307829 0.9548569 0.2969996
vn 0 0 0
vn -0.005977647 0.9548568 0.2970063
vn 0 0 0
vn 2.472439E-10 1 4.70786E-12
vn 0 0 0
vn 1.232512E-10 1 2.154316E-12
vn 0 0 0
vn -0.005352146 0.9548568 0.2970183
vn 0 0 0
vn -0.005059146 0.9548568 0.2970235
vn 0 0 0
vn -2.46901E-10 1 -3.622124E-12
vn 0 0 0
vn -4.952651E-10 1 -6.65845E-12
vn 0 0 0
vn -0.004509233 0.9548567 0.2970324
vn 0 0 0
vn -0.004249167 0.9548568 0.2970363
vn 0 0 0
vn -4.970472E-10 1 -6.68241E-12
vn 0 0 0
vn -2.483162E-10 1 -3.033957E-12
vn 0 0 0
vn -0.0037567 0.9548567 0.2970428
vn 0 0 0
vn -0.003526391 0.9548569 0.2970455
vn 0 0 0
vn 1.242433E-10 1 1.244973E-12
vn 0 0 0
vn 2.48537E-10 1 2.248972E-12
vn 0 0 0
vn -0.003091462 0.9548569 0.2970503
vn 0 0 0
vn -0.00288651 0.9548569 0.2970523
vn 0 0 0
vn 1.239884E-10 1 1.242419E-12
vn 0 0 0
vn -1.235457E-10 1 -7.829849E-13
vn 0 0 0
vn -0.00249811 0.9548569 0.2970559
vn 0 0 0
vn -0.002316121 0.9548568 0.2970575
vn 0 0 0
vn -1.235159E-10 1 -9.976693E-13
vn 0 0 0
vn 1.238081E-10 1 5.982415E-13
vn 0 0 0
vn -0.001975943 0.9548568 0.29706
vn 0 0 0
vn -0.001815635 0.9548568 0.2970612
vn 0 0 0
vn 2.480992E-10 1 1.385586E-12
vn 0 0 0
vn 1.23889E-10 1 5.986324E-13
vn 0 0 0
vn -0.001515517 0.9548567 0.297063
vn 0 0 0
vn -0.001376838 0.9548568 0.2970637
vn 0 0 0
vn -1.238235E-10 1 -4.383428E-13
vn 0 0 0
vn -2.476448E-10 1 -7.418998E-13
vn 0 0 0
vn -0.001120448 0.9548568 0.2970647
vn 0 0 0
vn -0.001002416 0.9548568 0.297065
vn 0 0 0
vn -1.235112E-10 1 -4.372372E-13
vn 0 0 0
vn 1.231243E-10 1 1.941353E-13
vn 0 0 0
vn -0.0007867793 0.9548568 0.2970656
vn 0 0 0
vn -0.0006898849 0.9548568 0.2970659
vn 0 0 0
vn 3.695474E-10 1 6.90446E-13
vn 0 0 0
vn 3.706978E-10 1 5.090762E-13
vn 0 0 0
vn -0.0005198637 0.9548566 0.2970662
vn 0 0 0
vn -0.0004457455 0.9548568 0.2970663
vn 0 0 0
vn 1.240569E-10 1 1.956057E-13
vn 0 0 0
vn -1.241162E-10 1 -7.449197E-14
vn 0 0 0
vn -0.0003225168 0.9548568 0.2970664
vn 0 0 0
vn -0.0002738707 0.9548568 0.2970663
vn 0 0 0
vn -2.480457E-10 1 -1.942905E-13
vn 0 0 0
vn -1.23846E-10 1 -7.432979E-14
vn 0 0 0
vn -0.0002053379 0.9548568 0.2970664
vn 0 0 0
vn -0.0001855943 0.9548568 0.2970665
vn 0 0 0
vn -1.233823E-10 0.9999999 -7.154132E-14
vn 0 0 0
vn -2.461918E-10 1 -1.878297E-13
vn 0 0 0
vn -0.0001820989 0.9548568 0.2970664
vn 0 0 0
vn -0.0001982093 0.9548569 0.2970664
vn 0 0 0
vn -2.459967E-10 1 -1.876808E-13
vn 0 0 0
vn -1.232175E-10 1 -1.165695E-13
vn 0 0 0
vn -0.0002771742 0.9548569 0.2970663
vn 0 0 0
vn -0.0003402791 0.9548568 0.2970663
vn 0 0 0
vn 1.233189E-10 1 2.308218E-13
vn 0 0 0
vn 2.465488E-10 1 6.75915E-13
vn 0 0 0
vn -0.0005326791 0.9548568 0.297066
vn 0 0 0
vn -0.0006615035 0.9548567 0.2970658
vn 0 0 0
vn 2.463419E-10 1 6.75348E-13
vn 0 0 0
vn 1.232504E-10 1 4.450906E-13
vn 0 0 0
vn -0.001020016 0.9548567 0.2970648
vn 0 0 0
vn -0.001249686 0.9548568 0.2970641
vn 0 0 0
vn 0 1 0
vn 0 0 0
vn 0 1 0
vn 0 0 0
vn -0.001885177 0.9548568 0.2970605
vn 0 0 0
vn -0.002289768 0.9548566 0.297058
vn 0 0 0
vn 0 0.9999999 0
vn 0 0 0
vn 0 1 0
vn 0 0 0
vn -0.003476972 0.9548569 0.2970461
vn 0 0 0
vn -0.004251129 0.9548564 0.2970376
vn 0 0 0
vn 0 1 0
vn 0 0 0
vn 0 1 0
vn 0 0 0
vn -0.005018793 0.9548554 0.2970284
vn 0 0 0
vn -0.005018315 0.9548551 0.2970295
vn 0 0 0

vt 0 0
vt 0 0
vt -0.1419251 -0.5829735
vt -0.1419251 -0.5829735
vt 0.1064453 0.4372299
vt 0.1064453 0.4372299
vt 0 0
vt 0 0
vt 0.8752136 -0.1849884
vt 0.8752136 -0.1849884
vt 0.7690307 -0.7755181
vt 0.7690307 -0.7755181
vt 0.9548523 0.2579094
vt 0.9548523 0.2579094
vt 0.8752136 -0.1849884
vt 0.8752136 -0.1849884
vt 1.791315 -0.3262489
vt 1.791315 -0.3262489
vt 1.71192 -0.9209725
vt 1.71192 -0.9209725
vt 1.850855 0.1197945
vt 1.850855 0.1197945
vt 1.791315 -0.3262489
vt 1.791315 -0.3262489
vt 2.736041 -0.4381821
vt 2.736041 -0.4381821
vt 2.673071 -1.034869
vt 2.673071 -1.034869
vt 2.78327 0.009333039
vt 2.78327 0.009333039
vt 2.736041 -0.4381821
vt 2.736041 -0.4381821
vt 3.705652 -0.5305702
vt 3.705652 -0.5305702
vt 3.654156 -1.128356
vt 3.654156 -1.128356
vt 3.744275 -0.08223038
vt 3.744275 -0.08223038
vt 3.705652 -0.5305702
vt 3.705652 -0.5305702
vt 4.684638 -0.60756
vt 4.684638 -0.60756
vt 4.641663 -1.206019
vt 4.641663 -1.206019
vt 4.71687 -0.1587166
vt 4.71687 -0.1587166
vt 4.684638 -0.60756
vt 4.684638 -0.60756
vt 5.6716 -0.6727158
vt 5.6716 -0.6727158
vt 5.635273 -1.271615
vt 5.635273 -1.271615
vt 5.698853 -0.223542
vt 5.698853 -0.223542
vt 5.6716 -0.6727158
vt 5.6716 -0.6727158
vt 6.66222 -0.7282173
vt 6.66222 -0.7282173
vt 6.631238 -1.327416
vt 6.631238 -1.327416
vt 6.685455 -0.278817
vt 6.685455 -0.278817
vt 6.66222 -0.7282173
vt 6.66222 -0.7282173
vt 7.657074 -0.7758576
vt 7.657074 -0.7758576
vt 7.630524 -1.375269
vt 7.630524 -1.375269
vt 7.67699 -0.3262985
vt 7.67699 -0.3262985
vt 7.657074 -0.7758576
vt 7.657074 -0.7758576
vt 8.646973 -0.8165604
vt 8.646973 -0.8165604
vt 8.624122 -1.416126
vt 8.624122 -1.416126
vt 8.664105 -0.3668869
vt 8.664105 -0.3668869
vt 8.646973 -0.8165604
vt 8.646973 -0.8165604
vt 9.637756 -0.8516319
vt 9.637756 -0.8516319
vt 9.618079 -1.451309
vt 9.618079 -1.451309
vt 9.652521 -0.4018745
vt 9.652521 -0.4018745
vt 9.637756 -0.8516319
vt 9.637756 -0.8516319
vt 10.63752 -0.8820816
vt 10.63752 -0.8820816
vt 10.62061 -1.481844
vt 10.62061 -1.481844
vt 10.65021 -0.4322609
vt 10.65021 -0.4322609
vt 10.63752 -0.8820816
vt 10.63752 -0.8820816
vt 11.64178 -0.9083313
vt 11.64178 -0.9083313
vt 11.62729 -1.508156
vt 11.62729 -1.508156
vt 11.65265 -0.4584625
vt 11.65265 -0.4584625
vt 11.64178 -0.9083313
vt 11.64178 -0.9083313
vt 12.64633 -0.9307808
vt 12.64633 -0.9307808
vt 12.63397 -1.530653
vt 12.63397 -1.530653
vt 12.6556 -0.4808762
vt 12.6556 -0.4808762
vt 12.64633 -0.9307808
vt 12.64633 -0.9307808
vt 13.64734 -0.9498108
vt 13.64734 -0.9498108
vt 13.63685 -1.549719
vt 13.63685 -1.549719
vt 13.6552 -0.4998794
vt 13.6552 -0.4998794
vt 13.64734 -0.9498108
vt 13.64734 -0.9498108
vt 14.65587 -0.9659981
vt 14.65587 -0.9659981
vt 14.64706 -1.565934
vt 14.64706 -1.565934
vt 14.66248 -0.5160469
vt 14.66248 -0.5160469
vt 14.65587 -0.9659981
vt 14.65587 -0.9659981
vt 15.6541 -0.9793976
vt 15.6541 -0.9793976
vt 15.64677 -1.579353
vt 15.64677 -1.579353
vt 15.65959 -0.5294312
vt 15.65959 -0.5294312
vt 15.6541 -0.9793976
vt 15.6541 -0.9793976
vt 16.65359 -0.9904885
vt 16.65359 -0.9904885
vt 16.64758 -1.590458
vt 16.64758 -1.590458
vt 16.65809 -0.5405106
vt 16.65809 -0.5405106
vt 16.65359 -0.9904885
vt 16.65359 -0.9904885
vt 17.65136 -0.9994942
vt 17.65136 -0.9994942
vt 17.64651 -1.599474
vt 17.64651 -1.599474
vt 17.65499 -0.5495087
vt 17.65499 -0.5495087
vt 17.65136 -0.9994942
vt 17.65136 -0.9994942
vt 18.65895 -1.006737
vt 18.65895 -1.006737
vt 18.65515 -1.606725
vt 18.65515 -1.606725
vt 18.6618 -0.5567459
vt 18.6618 -0.5567459
vt 18.65895 -1.006737
vt 18.65895 -1.006737
vt 19.65859 -1.012304
vt 19.65859 -1.012304
vt 19.65569 -1.612297
vt 19.65569 -1.612297
vt 19.66077 -0.56231
vt 19.66077 -0.56231
vt 19.65859 -1.012304
vt 19.65859 -1.012304
vt 20.66138 -1.016485
vt 20.66138 -1.016485
vt 20.65925 -1.616481
vt 20.65925 -1.616481
vt 20.66297 -0.5664879
vt 20.66297 -0.5664879
vt 20.66138 -1.016485
vt 20.66138 -1.016485
vt 21.66354 -1.019468
vt 21.66354 -1.019468
vt 21.66207 -1.619466
vt 21.66207 -1.619466
vt 21.66465 -0.5694695
vt 21.66465 -0.5694695
vt 21.66354 -1.019468
vt 21.66354 -1.019468
vt 22.67468 -1.021488
vt 22.67468 -1.021488
vt 22.67374 -1.621488
vt 22.67374 -1.621488
vt 22.6754 -0.571489
vt 22.6754 -0.571489
vt 22.67468 -1.021488
vt 22.67468 -1.021488
vt 23.67607 -1.022739
vt 23.67607 -1.022739
vt 23.6755 -1.622739
vt 23.6755 -1.622739
vt 23.6765 -0.5727394
vt 23.6765 -0.5727394
vt 23.67607 -1.022739
vt 23.67607 -1.022739
vt 24.67581 -1.023497
vt 24.67581 -1.023497
vt 24.67545 -1.623497
vt 24.67545 -1.623497
vt 24.67609 -0.573497
vt 24.67609 -0.573497
vt 24.67581 -1.023497
vt 24.67581 -1.023497
vt 25.67983 -1.024058
vt 25.67983 -1.024058
vt 25.67948 -1.624057
vt 25.67948 -1.624057
vt 25.68008 -0.5740578
vt 25.68008 -0.5740578
vt 25.67983 -1.024058
vt 25.67983 -1.024058
vt 26.69109 -1.024787
vt 26.69109 -1.024787
vt 26.69052 -1.624786
vt 26.69052 -1.624786
vt 26.69152 -0.5747871
vt 26.69152 -0.5747871
vt 26.69109 -1.024787
vt 26.69109 -1.024787
vt 27.69752 -1.026154
vt 27.69752 -1.026154
vt 27.69639 -1.626154
vt 27.69639 -1.626154
vt 27.69836 -0.5761551
vt 27.69836 -0.5761551
vt 27.69752 -1.026154
vt 27.69752 -1.026154
vt 28.70607 -1.028837
vt 28.70607 -1.028837
vt 28.7039 -1.628833
vt 28.7039 -1.628833
vt 28.70769 -0.5788399
vt 28.70769 -0.5788399
vt 28.70607 -1.028837
vt 28.70607 -1.028837
vt 29.71447 -1.033859
vt 29.71447 -1.033859
vt 29.71049 -1.633846
vt 29.71049 -1.633846
vt 29.71745 -0.5838684
vt 29.71745 -0.5838684
vt 29.71447 -1.033859
vt 29.71447 -1.033859
vt 30.7249 -1.043021
vt 30.7249 -1.043021
vt 30.71766 -1.642977
vt 30.71766 -1.642977
vt 30.73032 -0.5930535
vt 30.73032 -0.5930535
vt 30.7249 -1.043021
vt 30.7249 -1.043021
vt 31.74736 -1.060295
vt 31.74736 -1.060295
vt 31.73343 -1.660133
vt 31.73343 -1.660133
vt 31.75782 -0.6104164
vt 31.75782 -0.6104164
vt 31.74736 -1.060295
vt 31.74736 -1.060295

usemtl GSDShoulder1
usemap GSDShoulder1
f 9/9/9 1/1/1 3/3/3
f 11/11/11 9/9/9 3/3/3
f 13/13/13 5/5/5 7/7/7
f 15/15/15 13/13/13 7/7/7
f 17/17/17 9/9/9 11/11/11
f 19/19/19 17/17/17 11/11/11
f 21/21/21 13/13/13 15/15/15
f 23/23/23 21/21/21 15/15/15
f 25/25/25 17/17/17 19/19/19
f 27/27/27 25/25/25 19/19/19
f 29/29/29 21/21/21 23/23/23
f 31/31/31 29/29/29 23/23/23
f 33/33/33 25/25/25 27/27/27
f 35/35/35 33/33/33 27/27/27
f 37/37/37 29/29/29 31/31/31
f 39/39/39 37/37/37 31/31/31
f 41/41/41 33/33/33 35/35/35
f 43/43/43 41/41/41 35/35/35
f 45/45/45 37/37/37 39/39/39
f 47/47/47 45/45/45 39/39/39
f 49/49/49 41/41/41 43/43/43
f 51/51/51 49/49/49 43/43/43
f 53/53/53 45/45/45 47/47/47
f 55/55/55 53/53/53 47/47/47
f 57/57/57 49/49/49 51/51/51
f 59/59/59 57/57/57 51/51/51
f 61/61/61 53/53/53 55/55/55
f 63/63/63 61/61/61 55/55/55
f 65/65/65 57/57/57 59/59/59
f 67/67/67 65/65/65 59/59/59
f 69/69/69 61/61/61 63/63/63
f 71/71/71 69/69/69 63/63/63
f 73/73/73 65/65/65 67/67/67
f 75/75/75 73/73/73 67/67/67
f 77/77/77 69/69/69 71/71/71
f 79/79/79 77/77/77 71/71/71
f 81/81/81 73/73/73 75/75/75
f 83/83/83 81/81/81 75/75/75
f 85/85/85 77/77/77 79/79/79
f 87/87/87 85/85/85 79/79/79
f 89/89/89 81/81/81 83/83/83
f 91/91/91 89/89/89 83/83/83
f 93/93/93 85/85/85 87/87/87
f 95/95/95 93/93/93 87/87/87
f 97/97/97 89/89/89 91/91/91
f 99/99/99 97/97/97 91/91/91
f 101/101/101 93/93/93 95/95/95
f 103/103/103 101/101/101 95/95/95
f 105/105/105 97/97/97 99/99/99
f 107/107/107 105/105/105 99/99/99
f 109/109/109 101/101/101 103/103/103
f 111/111/111 109/109/109 103/103/103
f 113/113/113 105/105/105 107/107/107
f 115/115/115 113/113/113 107/107/107
f 117/117/117 109/109/109 111/111/111
f 119/119/119 117/117/117 111/111/111
f 121/121/121 113/113/113 115/115/115
f 123/123/123 121/121/121 115/115/115
f 125/125/125 117/117/117 119/119/119
f 127/127/127 125/125/125 119/119/119
f 129/129/129 121/121/121 123/123/123
f 131/131/131 129/129/129 123/123/123
f 133/133/133 125/125/125 127/127/127
f 135/135/135 133/133/133 127/127/127
f 137/137/137 129/129/129 131/131/131
f 139/139/139 137/137/137 131/131/131
f 141/141/141 133/133/133 135/135/135
f 143/143/143 141/141/141 135/135/135
f 145/145/145 137/137/137 139/139/139
f 147/147/147 145/145/145 139/139/139
f 149/149/149 141/141/141 143/143/143
f 151/151/151 149/149/149 143/143/143
f 153/153/153 145/145/145 147/147/147
f 155/155/155 153/153/153 147/147/147
f 157/157/157 149/149/149 151/151/151
f 159/159/159 157/157/157 151/151/151
f 161/161/161 153/153/153 155/155/155
f 163/163/163 161/161/161 155/155/155
f 165/165/165 157/157/157 159/159/159
f 167/167/167 165/165/165 159/159/159
f 169/169/169 161/161/161 163/163/163
f 171/171/171 169/169/169 163/163/163
f 173/173/173 165/165/165 167/167/167
f 175/175/175 173/173/173 167/167/167
f 177/177/177 169/169/169 171/171/171
f 179/179/179 177/177/177 171/171/171
f 181/181/181 173/173/173 175/175/175
f 183/183/183 181/181/181 175/175/175
f 185/185/185 177/177/177 179/179/179
f 187/187/187 185/185/185 179/179/179
f 189/189/189 181/181/181 183/183/183
f 191/191/191 189/189/189 183/183/183
f 193/193/193 185/185/185 187/187/187
f 195/195/195 193/193/193 187/187/187
f 197/197/197 189/189/189 191/191/191
f 199/199/199 197/197/197 191/191/191
f 201/201/201 193/193/193 195/195/195
f 203/203/203 201/201/201 195/195/195
f 205/205/205 197/197/197 199/199/199
f 207/207/207 205/205/205 199/199/199
f 209/209/209 201/201/201 203/203/203
f 211/211/211 209/209/209 203/203/203
f 213/213/213 205/205/205 207/207/207
f 215/215/215 213/213/213 207/207/207
f 217/217/217 209/209/209 211/211/211
f 219/219/219 217/217/217 211/211/211
f 221/221/221 213/213/213 215/215/215
f 223/223/223 221/221/221 215/215/215
f 225/225/225 217/217/217 219/219/219
f 227/227/227 225/225/225 219/219/219
f 229/229/229 221/221/221 223/223/223
f 231/231/231 229/229/229 223/223/223
f 233/233/233 225/225/225 227/227/227
f 235/235/235 233/233/233 227/227/227
f 237/237/237 229/229/229 231/231/231
f 239/239/239 237/237/237 231/231/231
f 241/241/241 233/233/233 235/235/235
f 243/243/243 241/241/241 235/235/235
f 245/245/245 237/237/237 239/239/239
f 247/247/247 245/245/245 239/239/239
f 249/249/249 241/241/241 243/243/243
f 251/251/251 249/249/249 243/243/243
f 253/253/253 245/245/245 247/247/247
f 255/255/255 253/253/253 247/247/247
f 257/257/257 249/249/249 251/251/251
f 259/259/259 257/257/257 251/251/251
f 261/261/261 253/253/253 255/255/255
f 263/263/263 261/261/261 255/255/255
