mtllib ./Road1_0_38.mtl
g RoadCut12
v -167.735 0.03 453.7138
v -167.735 0.03 453.7138
v -173.0338 0.03 464.4805
v -173.0338 0.03 464.4805
v -163.1498 0.03 456.0137
v -163.1498 0.03 456.0137
v -168.6749 0.03 466.6661
v -168.6749 0.03 466.6661
v -158.9122 0.03 458.1324
v -158.9122 0.03 458.1324
v -163.9552 0.03 469.0213
v -163.9552 0.03 469.0213
v -154.924 0.03 459.728
v -154.924 0.03 459.728
v -158.6386 0.03 471.1386
v -158.6386 0.03 471.1386
v -151.0858 0.03 460.6343
v -151.0858 0.03 460.6343
v -152.75 0.03 472.5183
v -152.75 0.03 472.5183
v -147.282 0.03 460.7717
v -147.282 0.03 460.7717
v -146.4476 0.03 472.7426
v -146.4476 0.03 472.7426
v -143.4852 0.03 460.107
v -143.4852 0.03 460.107
v -140.2643 0.03 471.6667
v -140.2643 0.03 471.6667
v -139.7445 0.03 458.7026
v -139.7445 0.03 458.7026
v -134.6463 0.03 469.5657
v -134.6463 0.03 469.5657
v -136.0207 0.03 456.6287
v -136.0207 0.03 456.6287
v -129.5393 0.03 466.7277
v -129.5393 0.03 466.7277
v -132.4457 0.03 454.0601
v -132.4457 0.03 454.0601
v -124.9891 0.03 463.4622
v -124.9891 0.03 463.4622
v -128.9888 0.03 451.0819
v -128.9888 0.03 451.0819
v -120.8246 0.03 459.8765
v -120.8246 0.03 459.8765
v -125.6524 0.03 447.7792
v -125.6524 0.03 447.7792
v -116.9621 0.03 456.0544
v -116.9621 0.03 456.0544

vn 3.258041E-10 1 1.603449E-10
vn 0 0 0
vn 3.322944E-10 0.9999999 1.679217E-10
vn 0 0 0
vn 2.255179E-10 1 1.139632E-10
vn 0 0 0
vn 1.110801E-10 1 5.761393E-11
vn 0 0 0
vn 0 1 0
vn 0 0 0
vn 0 0.9999999 0
vn 0 0 0
vn -1.27142E-10 1 -4.139013E-11
vn 0 0 0
vn -2.30834E-10 1 -5.329985E-11
vn 0 0 0
vn -1.289115E-10 1 -4.196619E-11
vn 0 0 0
vn 1.155509E-10 1 -8.054251E-12
vn 0 0 0
vn -9.711621E-13 1 2.791818E-11
vn 0 0 0
vn -3.331231E-10 1 6.907501E-11
vn 0 0 0
vn -3.91949E-10 1 5.398397E-11
vn 0 0 0
vn -6.672216E-12 1 -1.798318E-11
vn 0 0 0
vn 1.262621E-10 1 -3.51805E-11
vn 0 0 0
vn -9.759894E-11 0.9999999 6.263744E-11
vn 0 0 0
vn -2.247225E-10 1 1.241377E-10
vn 0 0 0
vn -9.908185E-11 1 6.358914E-11
vn 0 0 0
vn 1.003068E-10 1 -7.955174E-11
vn 0 0 0
vn 1.805376E-10 1 -1.549816E-10
vn 0 0 0
vn 1.915825E-10 1 -1.64463E-10
vn 0 0 0
vn 8.742045E-11 1 -8.115412E-11
vn 0 0 0
vn 0 1 0
vn 0 0 0
vn 0 1 0
vn 0 0 0

vt 0 0
vt 0 0
vt 1.059772 2.153345
vt 1.059772 2.153345
vt -0.9170288 0.4599915
vt -0.9170288 0.4599915
vt 0.1879883 2.590472
vt 0.1879883 2.590472
vt -1.764551 0.8837219
vt -1.764551 0.8837219
vt -0.7559509 3.061505
vt -0.7559509 3.061505
vt -2.562198 1.202844
vt -2.562198 1.202844
vt -1.819272 3.484961
vt -1.819272 3.484961
vt -3.329822 1.3841
vt -3.329822 1.3841
vt -2.996997 3.760907
vt -2.996997 3.760907
vt -4.090585 1.411584
vt -4.090585 1.411584
vt -4.257468 3.805774
vt -4.257468 3.805774
vt -4.849945 1.278638
vt -4.849945 1.278638
vt -5.494123 3.590576
vt -5.494123 3.590576
vt -5.598083 0.99776
vt -5.598083 0.99776
vt -6.617725 3.170392
vt -6.617725 3.170392
vt -6.342856 0.5829773
vt -6.342856 0.5829773
vt -7.639139 2.602789
vt -7.639139 2.602789
vt -7.057843 0.0692688
vt -7.057843 0.0692688
vt -8.549166 1.949677
vt -8.549166 1.949677
vt -7.749222 -0.5263733
vt -7.749222 -0.5263733
vt -9.382065 1.23255
vt -9.382065 1.23255
vt -8.416516 -1.18692
vt -8.416516 -1.18692
vt -10.15457 0.4681213
vt -10.15457 0.4681213

usemtl GSDRoad1
usemap GSDRoad1
f 5/5/5 1/1/1 3/3/3
f 7/7/7 5/5/5 3/3/3
f 9/9/9 5/5/5 7/7/7
f 11/11/11 9/9/9 7/7/7
f 13/13/13 9/9/9 11/11/11
f 15/15/15 13/13/13 11/11/11
f 17/17/17 13/13/13 15/15/15
f 19/19/19 17/17/17 15/15/15
f 21/21/21 17/17/17 19/19/19
f 23/23/23 21/21/21 19/19/19
f 25/25/25 21/21/21 23/23/23
f 27/27/27 25/25/25 23/23/23
f 29/29/29 25/25/25 27/27/27
f 31/31/31 29/29/29 27/27/27
f 33/33/33 29/29/29 31/31/31
f 35/35/35 33/33/33 31/31/31
f 37/37/37 33/33/33 35/35/35
f 39/39/39 37/37/37 35/35/35
f 41/41/41 37/37/37 39/39/39
f 43/43/43 41/41/41 39/39/39
f 45/45/45 41/41/41 43/43/43
f 47/47/47 45/45/45 43/43/43
