mtllib ./Road2_1_33.mtl
g SCutR5
v -260.116 0.03 65.71812
v -260.116 0.03 65.71812
v -257.1172 0.03 65.80378
v -257.1172 0.03 65.80378
v -257.1172 0.03 65.80378
v -257.1172 0.03 65.80378
v -254.8682 -0.67 65.86803
v -254.8682 -0.67 65.86803
v -260.0102 0.03 60.57412
v -260.0102 0.03 60.57412
v -257.0103 0.03 60.5965
v -257.0103 0.03 60.5965
v -257.0103 0.03 60.5965
v -257.0103 0.03 60.5965
v -254.7604 -0.67 60.61329
v -254.7604 -0.67 60.61329
v -260.2842 0.03 54.82962
v -260.2842 0.03 54.82962
v -257.3048 0.03 54.47864
v -257.3048 0.03 54.47864
v -257.3048 0.03 54.47864
v -257.3048 0.03 54.47864
v -255.0703 -0.67 54.2154
v -255.0703 -0.67 54.2154
v -261.6493 0.03 48.68354
v -261.6493 0.03 48.68354
v -258.8106 0.03 47.71304
v -258.8106 0.03 47.71304
v -258.8106 0.03 47.71304
v -258.8106 0.03 47.71304
v -256.6816 -0.67 46.98516
v -256.6816 -0.67 46.98516
v -264.5532 0.03 42.78644
v -264.5532 0.03 42.78644
v -262.0564 0.03 41.12331
v -262.0564 0.03 41.12331
v -262.0564 0.03 41.12331
v -262.0564 0.03 41.12331
v -260.1838 -0.67 39.87597
v -260.1838 -0.67 39.87597
v -268.7518 0.03 37.90634
v -268.7518 0.03 37.90634
v -266.7223 0.03 35.69702
v -266.7223 0.03 35.69702
v -266.7223 0.03 35.69702
v -266.7223 0.03 35.69702
v -265.2002 -0.67 34.04003
v -265.2002 -0.67 34.04003
v -273.6926 0.03 34.19345
v -273.6926 0.03 34.19345
v -272.1153 0.03 31.64156
v -272.1153 0.03 31.64156
v -272.1153 0.03 31.64156
v -272.1153 0.03 31.64156
v -270.9323 -0.67 29.72765
v -270.9323 -0.67 29.72765
v -278.9219 0.03 31.46362
v -278.9219 0.03 31.46362
v -277.7122 0.03 28.7183
v -277.7122 0.03 28.7183
v -277.7122 0.03 28.7183
v -277.7122 0.03 28.7183
v -276.805 -0.67 26.65932
v -276.805 -0.67 26.65932
v -284.2227 0.03 29.45448
v -284.2227 0.03 29.45448
v -283.2958 0.03 26.60128
v -283.2958 0.03 26.60128
v -283.2958 0.03 26.60128
v -283.2958 0.03 26.60128
v -282.6006 -0.67 24.46137
v -282.6006 -0.67 24.46137
v -289.5179 0.03 27.96109
v -289.5179 0.03 27.96109
v -288.8083 0.03 25.04622
v -288.8083 0.03 25.04622
v -288.8083 0.03 25.04622
v -288.8083 0.03 25.04622
v -288.2761 -0.67 22.86007
v -288.2761 -0.67 22.86007

vn 2.067531E-11 1 -7.237757E-10
vn 0 0 0
vn 1.29592E-11 0.9999999 -7.195072E-10
vn 0 0 0
vn 0.2970142 0.9548536 0.006099303
vn 0 0 0
vn 0.2970215 0.9548513 0.006096042
vn 0 0 0
vn 7.472373E-12 0.9999999 -3.47084E-10
vn 0 0 0
vn 1.358765E-11 0.9999999 -7.463392E-13
vn 0 0 0
vn 0.2970806 0.9548514 -0.001429384
vn 0 0 0
vn 0.2972008 0.9547789 -0.008305044
vn 0 0 0
vn 2.329064E-11 1 3.070353E-10
vn 0 0 0
vn 5.390721E-11 1 2.83562E-10
vn 0 0 0
vn 0.2952415 0.9548761 -0.03231104
vn 0 0 0
vn 0.2933667 0.9547281 -0.04929725
vn 0 0 0
vn 4.170851E-11 1 1.836292E-10
vn 0 0 0
vn 2.912071E-11 1 8.517648E-11
vn 0 0 0
vn 0.283856 0.9548443 -0.08773892
vn 0 0 0
vn 0.2762152 0.9547427 -0.1103241
vn 0 0 0
vn -1.022764E-10 1 -1.535444E-10
vn 0 0 0
vn -2.31408E-10 1 -2.704812E-10
vn 0 0 0
vn 0.25536 0.9547595 -0.1523995
vn 0 0 0
vn 0.241438 0.9548219 -0.1732714
vn 0 0 0
vn -1.05118E-10 1 -1.578103E-10
vn 0 0 0
vn 1.586237E-10 1 9.804419E-11
vn 0 0 0
vn 0.21201 0.954733 -0.2086545
vn 0 0 0
vn 0.1962482 0.9548552 -0.2230206
vn 0 0 0
vn 1.462907E-10 1 1.343846E-10
vn 0 0 0
vn -1.803382E-10 1 -7.945958E-11
vn 0 0 0
vn 0.1663952 0.9547696 -0.24643
vn 0 0 0
vn 0.1526483 0.9548599 -0.2548354
vn 0 0 0
vn -2.730959E-10 1 -1.518461E-10
vn 0 0 0
vn 3.736796E-12 1 -9.791088E-12
vn 0 0 0
vn 0.1276299 0.9548103 -0.2684174
vn 0 0 0
vn 0.1168806 0.9548581 -0.2731025
vn 0 0 0
vn 2.03004E-10 1 7.747254E-11
vn 0 0 0
vn 1.030786E-10 1 3.348791E-11
vn 0 0 0
vn 0.09753819 0.9548334 -0.2806768
vn 0 0 0
vn 0.0893201 0.9548568 -0.2833202
vn 0 0 0
vn 0 1 0
vn 0 0 0
vn 0 1 0
vn 0 0 0
vn 0.08071139 0.954797 -0.2860914
vn 0 0 0
vn 0.08071343 0.9548017 -0.2860752
vn 0 0 0

vt 0 0
vt 0 0
vt -0.5997559 0.01713257
vt -0.5997559 0.01713257
vt -0.5997559 0.01713257
vt -0.5997559 0.01713257
vt -1.04957 0.029982
vt -1.04957 0.029982
vt -0.02116089 -1.0288
vt -0.02116089 -1.0288
vt -0.6211426 -1.024324
vt -0.6211426 -1.024324
vt -0.6211426 -1.024324
vt -0.6211426 -1.024324
vt -1.071127 -1.020966
vt -1.071127 -1.020966
vt 0.03363648 -2.1777
vt 0.03363648 -2.1777
vt -0.5622436 -2.247896
vt -0.5622436 -2.247896
vt -0.5622436 -2.247896
vt -0.5622436 -2.247896
vt -1.009152 -2.300543
vt -1.009152 -2.300543
vt 0.3066467 -3.406914
vt 0.3066467 -3.406914
vt -0.2610901 -3.601016
vt -0.2610901 -3.601016
vt -0.2610901 -3.601016
vt -0.2610901 -3.601016
vt -0.6868896 -3.746592
vt -0.6868896 -3.746592
vt 0.887439 -4.586336
vt 0.887439 -4.586336
vt 0.3880799 -4.918961
vt 0.3880799 -4.918961
vt 0.3880799 -4.918961
vt 0.3880799 -4.918961
vt 0.01355591 -5.16843
vt 0.01355591 -5.16843
vt 1.727161 -5.562355
vt 1.727161 -5.562355
vt 1.321259 -6.004219
vt 1.321259 -6.004219
vt 1.321259 -6.004219
vt 1.321259 -6.004219
vt 1.016834 -6.335617
vt 1.016834 -6.335617
vt 2.715314 -6.304934
vt 2.715314 -6.304934
vt 2.399853 -6.815311
vt 2.399853 -6.815311
vt 2.399853 -6.815311
vt 2.399853 -6.815311
vt 2.163257 -7.198094
vt 2.163257 -7.198094
vt 3.761169 -6.8509
vt 3.761169 -6.8509
vt 3.519244 -7.399963
vt 3.519244 -7.399963
vt 3.519244 -7.399963
vt 3.519244 -7.399963
vt 3.337793 -7.81176
vt 3.337793 -7.81176
vt 4.821338 -7.252728
vt 4.821338 -7.252728
vt 4.63595 -7.823368
vt 4.63595 -7.823368
vt 4.63595 -7.823368
vt 4.63595 -7.823368
vt 4.496906 -8.251349
vt 4.496906 -8.251349
vt 5.880383 -7.551405
vt 5.880383 -7.551405
vt 5.738458 -8.134379
vt 5.738458 -8.134379
vt 5.738458 -8.134379
vt 5.738458 -8.134379
vt 5.632013 -8.571609
vt 5.632013 -8.571609

usemtl GSDShoulder1
usemap GSDShoulder1
f 9/9/9 1/1/1 3/3/3
f 11/11/11 9/9/9 3/3/3
f 13/13/13 5/5/5 7/7/7
f 15/15/15 13/13/13 7/7/7
f 17/17/17 9/9/9 11/11/11
f 19/19/19 17/17/17 11/11/11
f 21/21/21 13/13/13 15/15/15
f 23/23/23 21/21/21 15/15/15
f 25/25/25 17/17/17 19/19/19
f 27/27/27 25/25/25 19/19/19
f 29/29/29 21/21/21 23/23/23
f 31/31/31 29/29/29 23/23/23
f 33/33/33 25/25/25 27/27/27
f 35/35/35 33/33/33 27/27/27
f 37/37/37 29/29/29 31/31/31
f 39/39/39 37/37/37 31/31/31
f 41/41/41 33/33/33 35/35/35
f 43/43/43 41/41/41 35/35/35
f 45/45/45 37/37/37 39/39/39
f 47/47/47 45/45/45 39/39/39
f 49/49/49 41/41/41 43/43/43
f 51/51/51 49/49/49 43/43/43
f 53/53/53 45/45/45 47/47/47
f 55/55/55 53/53/53 47/47/47
f 57/57/57 49/49/49 51/51/51
f 59/59/59 57/57/57 51/51/51
f 61/61/61 53/53/53 55/55/55
f 63/63/63 61/61/61 55/55/55
f 65/65/65 57/57/57 59/59/59
f 67/67/67 65/65/65 59/59/59
f 69/69/69 61/61/61 63/63/63
f 71/71/71 69/69/69 63/63/63
f 73/73/73 65/65/65 67/67/67
f 75/75/75 73/73/73 67/67/67
f 77/77/77 69/69/69 71/71/71
f 79/79/79 77/77/77 71/71/71
