mtllib ./Road1_0_70.mtl
g SCutR18
v -106.435 0 131.1502
v -106.435 0 131.1502
v -107.2397 0 127.9963
v -107.2397 0 127.9963
v -107.2397 0 127.9963
v -107.2397 0 127.9963
v -107.8111 -0.35 125.7571
v -107.8111 -0.35 125.7571
v -110.8849 0.1960749 132.0783
v -110.8849 0.1960749 132.0783
v -111.4602 0.1960749 128.7973
v -111.4602 0.1960749 128.7973
v -111.4602 0.1960749 128.7973
v -111.4602 0.1960749 128.7973
v -111.8624 -0.35 126.5029
v -111.8624 -0.35 126.5029
v -115.6321 0.5460321 132.8171
v -115.6321 0.5460321 132.8171
v -116.0996 0.5460321 129.4455
v -116.0996 0.5460321 129.4455
v -116.0996 0.5460321 129.4455
v -116.0996 0.5460321 129.4455
v -116.4219 -0.35 127.1206
v -116.4219 -0.35 127.1206
v -120.4729 0.9108854 133.4294
v -120.4729 0.9108854 133.4294
v -120.87 0.9108854 129.9901
v -120.87 0.9108854 129.9901
v -120.87 0.9108854 129.9901
v -120.87 0.9108854 129.9901
v -121.1408 -0.35 127.6442
v -121.1408 -0.35 127.6442
v -125.4048 1.288825 133.9568
v -125.4048 1.288825 133.9568
v -125.7508 1.288825 130.4632
v -125.7508 1.288825 130.4632
v -125.7508 1.288825 130.4632
v -125.7508 1.288825 130.4632
v -125.9847 -0.35 128.1013
v -125.9847 -0.35 128.1013
v -130.3478 1.672503 134.4153
v -130.3478 1.672503 134.4153
v -130.6547 1.672503 130.877
v -130.6547 1.672503 130.877
v -130.6547 1.672503 130.877
v -130.6547 1.672503 130.877
v -130.8607 -0.35 128.5025
v -130.8607 -0.35 128.5025
v -135.2705 2.058513 134.8183
v -135.2705 2.058513 134.8183
v -135.5465 2.058513 131.2431
v -135.5465 2.058513 131.2431
v -135.5465 2.058513 131.2431
v -135.5465 2.058513 131.2431
v -135.7306 -0.35 128.8583
v -135.7306 -0.35 128.8583
v -140.2607 2.453084 135.1838
v -140.2607 2.453084 135.1838
v -140.5109 2.453084 131.577
v -140.5109 2.453084 131.577
v -140.5109 2.453084 131.577
v -140.5109 2.453084 131.577
v -140.6769 -0.35 129.1835
v -140.6769 -0.35 129.1835
v -145.2705 2.851973 135.5148
v -145.2705 2.851973 135.5148
v -145.4989 2.851973 131.8814
v -145.4989 2.851973 131.8814
v -145.4989 2.851973 131.8814
v -145.4989 2.851973 131.8814
v -145.6498 -0.35 129.4807
v -145.6498 -0.35 129.4807
v -150.2574 3.251391 135.8146
v -150.2574 3.251391 135.8146
v -150.4673 3.251391 132.159
v -150.4673 3.251391 132.159
v -150.4673 3.251391 132.159
v -150.4673 3.251391 132.159
v -150.6054 -0.35 129.7522
v -150.6054 -0.35 129.7522
v -155.2761 3.655397 136.0909
v -155.2761 3.655397 136.0909
v -155.4698 3.655397 132.4167
v -155.4698 3.655397 132.4167
v -155.4698 3.655397 132.4167
v -155.4698 3.655397 132.4167
v -155.597 -0.35 130.005
v -155.597 -0.35 130.005
v -160.2997 4.061571 136.3455
v -160.2997 4.061571 136.3455
v -160.4792 4.061571 132.6563
v -160.4792 4.061571 132.6563
v -160.4792 4.061571 132.6563
v -160.4792 4.061571 132.6563
v -160.5967 -0.35 130.2405
v -160.5967 -0.35 130.2405
v -165.3038 4.467728 136.5802
v -165.3038 4.467728 136.5802
v -165.4709 4.467728 132.8791
v -165.4709 4.467728 132.8791
v -165.4709 4.467728 132.8791
v -165.4709 4.467728 132.8791
v -165.58 -0.35 130.4602
v -165.58 -0.35 130.4602
v -170.2666 4.871873 136.7965
v -170.2666 4.871873 136.7965
v -170.4226 4.871873 133.0867
v -170.4226 4.871873 133.0867
v -170.4226 4.871873 133.0867
v -170.4226 4.871873 133.0867
v -170.5245 -0.35 130.6655
v -170.5245 -0.35 130.6655
v -175.2626 5.279923 136.9998
v -175.2626 5.279923 136.9998
v -175.4088 5.279923 133.2841
v -175.4088 5.279923 133.2841
v -175.4088 5.279923 133.2841
v -175.4088 5.279923 133.2841
v -175.5041 -0.35 130.8613
v -175.5041 -0.35 130.8613
v -180.2742 5.690301 137.1909
v -180.2742 5.690301 137.1909
v -180.4115 5.690301 133.4721
v -180.4115 5.690301 133.4721
v -180.4115 5.690301 133.4721
v -180.4115 5.690301 133.4721
v -180.501 -0.35 131.0485
v -180.501 -0.35 131.0485
v -185.284 6.101479 137.3705
v -185.284 6.101479 137.3705
v -185.4134 6.101479 133.6515
v -185.4134 6.101479 133.6515
v -185.4134 6.101479 133.6515
v -185.4134 6.101479 133.6515
v -185.4977 -0.35 131.2276
v -185.4977 -0.35 131.2276
v -190.275 6.511926 137.5395
v -190.275 6.511926 137.5395
v -190.3974 6.511926 133.823
v -190.3974 6.511926 133.823
v -190.3974 6.511926 133.823
v -190.3974 6.511926 133.823
v -190.4772 -0.35 131.3997
v -190.4772 -0.35 131.3997
v -195.3225 6.927732 137.7015
v -195.3225 6.927732 137.7015
v -195.4386 6.927732 133.9905
v -195.4386 6.927732 133.9905
v -195.4386 6.927732 133.9905
v -195.4386 6.927732 133.9905
v -195.5144 -0.35 131.5685
v -195.5144 -0.35 131.5685
v -200.3138 7.339513 137.8542
v -200.3138 7.339513 137.8542
v -200.4245 7.339513 134.1515
v -200.4245 7.339513 134.1515
v -200.4245 7.339513 134.1515
v -200.4245 7.339513 134.1515
v -200.4969 -0.35 131.7316
v -200.4969 -0.35 131.7316
v -205.3209 7.753088 138.0009
v -205.3209 7.753088 138.0009
v -205.427 7.753088 134.3097
v -205.427 7.753088 134.3097
v -205.427 7.753088 134.3097
v -205.427 7.753088 134.3097
v -205.4965 -0.35 131.8926
v -205.4965 -0.35 131.8926
v -210.3197 8.166345 138.1423
v -210.3197 8.166345 138.1423
v -210.4219 8.166345 134.4658
v -210.4219 8.166345 134.4658
v -210.4219 8.166345 134.4658
v -210.4219 8.166345 134.4658
v -210.4891 -0.35 132.0523
v -210.4891 -0.35 132.0523
v -215.3699 8.584111 138.281
v -215.3699 8.584111 138.281
v -215.4692 8.584111 134.623
v -215.4692 8.584111 134.623
v -215.4692 8.584111 134.623
v -215.4692 8.584111 134.623
v -215.5346 -0.35 132.2142
v -215.5346 -0.35 132.2142
v -220.3515 8.996304 138.4153
v -220.3515 8.996304 138.4153
v -220.4489 8.996304 134.7796
v -220.4489 8.996304 134.7796
v -220.4489 8.996304 134.7796
v -220.4489 8.996304 134.7796
v -220.5133 -0.35 132.3763
v -220.5133 -0.35 132.3763
v -225.3914 9.413223 138.5501
v -225.3914 9.413223 138.5501
v -225.488 9.413223 134.9415
v -225.488 9.413223 134.9415
v -225.488 9.413223 134.9415
v -225.488 9.413223 134.9415
v -225.5522 -0.35 132.545
v -225.5522 -0.35 132.545
v -230.4312 9.829802 138.686
v -230.4312 9.829802 138.686
v -230.5286 9.829802 135.1099
v -230.5286 9.829802 135.1099
v -230.5286 9.829802 135.1099
v -230.5286 9.829802 135.1099
v -230.5937 -0.35 132.7215
v -230.5937 -0.35 132.7215
v -235.4734 10.2459 138.8259
v -235.4734 10.2459 138.8259
v -235.5738 10.2459 135.2888
v -235.5738 10.2459 135.2888
v -235.5738 10.2459 135.2888
v -235.5738 10.2459 135.2888
v -235.6413 -0.35 132.9102
v -235.6413 -0.35 132.9102
v -240.4878 10.65844 138.9728
v -240.4878 10.65844 138.9728
v -240.5942 10.65844 135.4829
v -240.5942 10.65844 135.4829
v -240.5942 10.65844 135.4829
v -240.5942 10.65844 135.4829
v -240.6664 -0.35 133.1162
v -240.6664 -0.35 133.1162
v -245.5154 11.06982 139.1347
v -245.5154 11.06982 139.1347
v -245.6334 11.06982 135.7035
v -245.6334 11.06982 135.7035
v -245.6334 11.06982 135.7035
v -245.6334 11.06982 135.7035
v -245.7143 -0.35 133.3516
v -245.7143 -0.35 133.3516
v -250.5709 11.47899 139.3254
v -250.5709 11.47899 139.3254
v -250.7122 11.47899 135.9708
v -250.7122 11.47899 135.9708
v -250.7122 11.47899 135.9708
v -250.7122 11.47899 135.9708
v -250.8105 -0.35 133.6384
v -250.8105 -0.35 133.6384

vn 0.0417975 0.9990691 -0.01066469
vn 0 0 0
vn 0.04333138 0.9990176 -0.009292459
vn 0 0 0
vn 0.01581485 0.9872563 -0.1583504
vn 0 0 0
vn -0.01250749 0.9814513 -0.1913033
vn 0 0 0
vn 0.05336817 0.9985203 -0.01045006
vn 0 0 0
vn 0.06410656 0.9978898 -0.01030597
vn 0 0 0
vn 0.00644492 0.9780468 -0.2082857
vn 0 0 0
vn -0.01571706 0.9611675 -0.2755176
vn 0 0 0
vn 0.0730853 0.9972651 -0.01099821
vn 0 0 0
vn 0.07431658 0.9971874 -0.009713812
vn 0 0 0
vn 0.007347348 0.9472566 -0.3203917
vn 0 0 0
vn -0.02352183 0.9172282 -0.3976671
vn 0 0 0
vn 0.07487819 0.9971501 -0.009209719
vn 0 0 0
vn 0.0757456 0.9970924 -0.00832144
vn 0 0 0
vn -0.0002595908 0.8989143 -0.4381244
vn 0 0 0
vn -0.0281026 0.8621808 -0.5058205
vn 0 0 0
vn 0.07621443 0.9970598 -0.007958355
vn 0 0 0
vn 0.07686631 0.9970148 -0.007293242
vn 0 0 0
vn -0.005586987 0.8417505 -0.5398378
vn 0 0 0
vn -0.03063936 0.8022593 -0.5961889
vn 0 0 0
vn 0.07724953 0.9969871 -0.007014551
vn 0 0 0
vn 0.07775912 0.996951 -0.006496106
vn 0 0 0
vn -0.009083871 0.7815313 -0.6237998
vn 0 0 0
vn -0.03162808 0.7425478 -0.6690459
vn 0 0 0
vn 0.07807591 0.9969277 -0.006272533
vn 0 0 0
vn 0.0784883 0.9968979 -0.005851645
vn 0 0 0
vn -0.01114415 0.7226605 -0.6911134
vn 0 0 0
vn -0.03153859 0.6856686 -0.7272302
vn 0 0 0
vn 0.07875213 0.9968781 -0.005666549
vn 0 0 0
vn 0.07909568 0.9968529 -0.005313918
vn 0 0 0
vn -0.01255348 0.6672115 -0.7447625
vn 0 0 0
vn -0.03108997 0.6329316 -0.7735832
vn 0 0 0
vn 0.07932027 0.9968358 -0.005157651
vn 0 0 0
vn 0.07960973 0.9968143 -0.004859595
vn 0 0 0
vn -0.01337111 0.61614 -0.787523
vn 0 0 0
vn -0.03029412 0.5851647 -0.8103483
vn 0 0 0
vn 0.07980248 0.9967995 -0.00472591
vn 0 0 0
vn 0.08004975 0.9967808 -0.004470074
vn 0 0 0
vn -0.01367483 0.5700859 -0.8214712
vn 0 0 0
vn -0.02923176 0.5422926 -0.8396811
vn 0 0 0
vn 0.0802154 0.9967681 -0.00435401
vn 0 0 0
vn 0.08042951 0.9967518 -0.004130985
vn 0 0 0
vn -0.01383204 0.528833 -0.8486131
vn 0 0 0
vn -0.02820896 0.5039164 -0.8632917
vn 0 0 0
vn 0.0805738 0.9967406 -0.004029498
vn 0 0 0
vn 0.08076032 0.9967262 -0.003834614
vn 0 0 0
vn -0.01383157 0.4919194 -0.8705309
vn 0 0 0
vn -0.02718695 0.4697101 -0.8824019
vn 0 0 0
vn 0.08088582 0.9967164 -0.00374562
vn 0 0 0
vn 0.08104865 0.9967038 -0.003574931
vn 0 0 0
vn -0.01374849 0.4590559 -0.8883011
vn 0 0 0
vn -0.02622481 0.4393144 -0.8979505
vn 0 0 0
vn 0.08115871 0.996695 -0.003496287
vn 0 0 0
vn 0.08130198 0.9966839 -0.003345381
vn 0 0 0
vn -0.01355206 0.4298062 -0.9028194
vn 0 0 0
vn -0.02526625 0.4121145 -0.9107817
vn 0 0 0
vn 0.08139817 0.9966763 -0.00327543
vn 0 0 0
vn 0.08152457 0.9966664 -0.003140894
vn 0 0 0
vn -0.01344127 0.4035841 -0.9148439
vn 0 0 0
vn -0.02449039 0.3875907 -0.9215062
vn 0 0 0
vn 0.08160898 0.9966596 -0.003078602
vn 0 0 0
vn 0.08172028 0.9966509 -0.002959048
vn 0 0 0
vn -0.01336872 0.3798926 -0.924934
vn 0 0 0
vn -0.02382866 0.365439 -0.9305302
vn 0 0 0
vn 0.08179374 0.9966451 -0.002903652
vn 0 0 0
vn 0.08189092 0.9966373 -0.002798132
vn 0 0 0
vn -0.01335263 0.3584912 -0.9334375
vn 0 0 0
vn -0.02329533 0.3454241 -0.9381576
vn 0 0 0
vn 0.08195423 0.9966323 -0.002749211
vn 0 0 0
vn 0.08203837 0.9966257 -0.002656417
vn 0 0 0
vn -0.01335676 0.3391095 -0.9406521
vn 0 0 0
vn -0.02285186 0.3271811 -0.9446853
vn 0 0 0
vn 0.08209105 0.9966214 -0.002613654
vn 0 0 0
vn 0.08216269 0.9966157 -0.002533057
vn 0 0 0
vn -0.01359371 0.3214429 -0.9468315
vn 0 0 0
vn -0.02268722 0.3105555 -0.9502845
vn 0 0 0
vn 0.08220559 0.9966123 -0.002496159
vn 0 0 0
vn 0.08226442 0.9966075 -0.002427979
vn 0 0 0
vn -0.01383874 0.3053082 -0.952153
vn 0 0 0
vn -0.02258761 0.2953719 -0.9551153
vn 0 0 0
vn 0.08229595 0.996605 -0.002397038
vn 0 0 0
vn 0.08234152 0.9966015 -0.002341215
vn 0 0 0
vn -0.01430045 0.2905744 -0.9567456
vn 0 0 0
vn -0.02275871 0.2814253 -0.9593132
vn 0 0 0
vn 0.0823615 0.9965999 -0.002316473
vn 0 0 0
vn 0.0823931 0.9965973 -0.002273921
vn 0 0 0
vn -0.0149175 0.2769904 -0.9607568
vn 0 0 0
vn -0.02313381 0.2685058 -0.9630002
vn 0 0 0
vn 0.08239912 0.9965969 -0.002255995
vn 0 0 0
vn 0.082414 0.9965957 -0.002228142
vn 0 0 0
vn -0.0158724 0.2644154 -0.9642783
vn 0 0 0
vn -0.02389428 0.256565 -0.9662316
vn 0 0 0
vn 0.0824023 0.9965967 -0.002217785
vn 0 0 0
vn 0.08239715 0.9965972 -0.00220752
vn 0 0 0
vn -0.01702444 0.2527597 -0.9673793
vn 0 0 0
vn -0.02492133 0.2454603 -0.9690862
vn 0 0 0
vn 0.08236232 0.9966 -0.00220642
vn 0 0 0
vn 0.08233091 0.9966025 -0.002217984
vn 0 0 0
vn -0.01869272 0.2419178 -0.9701166
vn 0 0 0
vn -0.02653602 0.2350577 -0.9716191
vn 0 0 0
vn 0.08226261 0.9966082 -0.002228785
vn 0 0 0
vn 0.08219419 0.9966137 -0.00227011
vn 0 0 0
vn -0.02093185 0.231732 -0.9725544
vn 0 0 0
vn -0.02883214 0.2252912 -0.9738648
vn 0 0 0
vn 0.08207378 0.9966236 -0.002297365
vn 0 0 0
vn 0.08194757 0.9966337 -0.002382311
vn 0 0 0
vn -0.024062 0.2221701 -0.9747109
vn 0 0 0
vn -0.03217608 0.2161042 -0.97584
vn 0 0 0
vn 0.08173404 0.9966512 -0.002434302
vn 0 0 0
vn 0.08150699 0.9966694 -0.002590266
vn 0 0 0
vn -0.02855908 0.2131545 -0.9766009
vn 0 0 0
vn -0.0371945 0.2073928 -0.9775504
vn 0 0 0
vn 0.08109637 0.9967026 -0.002682096
vn 0 0 0
vn 0.08064883 0.9967381 -0.002977776
vn 0 0 0
vn -0.03561528 0.2045758 -0.9782026
vn 0 0 0
vn -0.04545367 0.1990153 -0.9789417
vn 0 0 0
vn 0.08034912 0.9967621 -0.003070393
vn 0 0 0
vn 0.08012658 0.996779 -0.003375677
vn 0 0 0
vn -0.04537072 0.1976492 -0.9792222
vn 0 0 0
vn -0.05511739 0.1935995 -0.9795311
vn 0 0 0

vt 0 0
vt 0 0
vt 0.1609421 -0.6307709
vt 0.1609421 -0.6307709
vt 0.1609421 -0.6307709
vt 0.1609421 -0.6307709
vt 0.275209 -1.078607
vt 0.275209 -1.078607
vt 0.8899795 0.1856171
vt 0.8899795 0.1856171
vt 1.005029 -0.4705811
vt 1.005029 -0.4705811
vt 1.005029 -0.4705811
vt 1.005029 -0.4705811
vt 1.085483 -0.9294479
vt 1.085483 -0.9294479
vt 1.83942 0.3333801
vt 1.83942 0.3333801
vt 1.932912 -0.3409302
vt 1.932912 -0.3409302
vt 1.932912 -0.3409302
vt 1.932912 -0.3409302
vt 1.99738 -0.8059082
vt 1.99738 -0.8059082
vt 2.807579 0.455838
vt 2.807579 0.455838
vt 2.886998 -0.232016
vt 2.886998 -0.232016
vt 2.886998 -0.232016
vt 2.886998 -0.232016
vt 2.941168 -0.7011887
vt 2.941168 -0.7011887
vt 3.793959 0.5613343
vt 3.793959 0.5613343
vt 3.863153 -0.1373962
vt 3.863153 -0.1373962
vt 3.863153 -0.1373962
vt 3.863153 -0.1373962
vt 3.909932 -0.6097717
vt 3.909932 -0.6097717
vt 4.782552 0.6530151
vt 4.782552 0.6530151
vt 4.843944 -0.05462952
vt 4.843944 -0.05462952
vt 4.843944 -0.05462952
vt 4.843944 -0.05462952
vt 4.885146 -0.529541
vt 4.885146 -0.529541
vt 5.767091 0.7336335
vt 5.767091 0.7336335
vt 5.822292 0.01859131
vt 5.822292 0.01859131
vt 5.822292 0.01859131
vt 5.822292 0.01859131
vt 5.859114 -0.4583801
vt 5.859114 -0.4583801
vt 6.765141 0.8067169
vt 6.765141 0.8067169
vt 6.815181 0.08536377
vt 6.815181 0.08536377
vt 6.815181 0.08536377
vt 6.815181 0.08536377
vt 6.848387 -0.393338
vt 6.848387 -0.393338
vt 7.767095 0.8729309
vt 7.767095 0.8729309
vt 7.812779 0.1462463
vt 7.812779 0.1462463
vt 7.812779 0.1462463
vt 7.812779 0.1462463
vt 7.842964 -0.3338989
vt 7.842964 -0.3338989
vt 8.76447 0.9328888
vt 8.76447 0.9328888
vt 8.80645 0.2017578
vt 8.80645 0.2017578
vt 8.80645 0.2017578
vt 8.80645 0.2017578
vt 8.834086 -0.2795868
vt 8.834086 -0.2795868
vt 9.768218 0.9881501
vt 9.768218 0.9881501
vt 9.80696 0.2533081
vt 9.80696 0.2533081
vt 9.80696 0.2533081
vt 9.80696 0.2533081
vt 9.83239 -0.2290283
vt 9.83239 -0.2290283
vt 10.77293 1.039072
vt 10.77293 1.039072
vt 10.80883 0.3012146
vt 10.80883 0.3012146
vt 10.80883 0.3012146
vt 10.80883 0.3012146
vt 10.83234 -0.1819275
vt 10.83234 -0.1819275
vt 11.77376 1.085999
vt 11.77376 1.085999
vt 11.80717 0.3457825
vt 11.80717 0.3457825
vt 11.80717 0.3457825
vt 11.80717 0.3457825
vt 11.82901 -0.1379913
vt 11.82901 -0.1379913
vt 12.76632 1.129269
vt 12.76632 1.129269
vt 12.79753 0.3873108
vt 12.79753 0.3873108
vt 12.79753 0.3873108
vt 12.79753 0.3873108
vt 12.81789 -0.09692993
vt 12.81789 -0.09692993
vt 13.76553 1.169928
vt 13.76553 1.169928
vt 13.79476 0.4267944
vt 13.79476 0.4267944
vt 13.79476 0.4267944
vt 13.79476 0.4267944
vt 13.81382 -0.05776672
vt 13.81382 -0.05776672
vt 14.76784 1.208142
vt 14.76784 1.208142
vt 14.7953 0.4643921
vt 14.7953 0.4643921
vt 14.7953 0.4643921
vt 14.7953 0.4643921
vt 14.81319 -0.02034302
vt 14.81319 -0.02034302
vt 15.7698 1.244064
vt 15.7698 1.244064
vt 15.79568 0.5002624
vt 15.79568 0.5002624
vt 15.79568 0.5002624
vt 15.79568 0.5002624
vt 15.81254 0.01549377
vt 15.81254 0.01549377
vt 16.768 1.277856
vt 16.768 1.277856
vt 16.79248 0.5345612
vt 16.79248 0.5345612
vt 16.79248 0.5345612
vt 16.79248 0.5345612
vt 16.80844 0.0499054
vt 16.80844 0.0499054
vt 17.7775 1.310266
vt 17.7775 1.310266
vt 17.80072 0.5680603
vt 17.80072 0.5680603
vt 17.80072 0.5680603
vt 17.80072 0.5680603
vt 17.81588 0.083667
vt 17.81588 0.083667
vt 18.77576 1.340802
vt 18.77576 1.340802
vt 18.7979 0.6002655
vt 18.7979 0.6002655
vt 18.7979 0.6002655
vt 18.7979 0.6002655
vt 18.81237 0.1162781
vt 18.81237 0.1162781
vt 19.77718 1.370154
vt 19.77718 1.370154
vt 19.7984 0.6319092
vt 19.7984 0.6319092
vt 19.7984 0.6319092
vt 19.7984 0.6319092
vt 19.81229 0.1484863
vt 19.81229 0.1484863
vt 20.77693 1.398419
vt 20.77693 1.398419
vt 20.79739 0.6631195
vt 20.79739 0.6631195
vt 20.79739 0.6631195
vt 20.79739 0.6631195
vt 20.81081 0.1804291
vt 20.81081 0.1804291
vt 21.78697 1.426166
vt 21.78697 1.426166
vt 21.80684 0.694574
vt 21.80684 0.694574
vt 21.80684 0.694574
vt 21.80684 0.694574
vt 21.81992 0.2128052
vt 21.81992 0.2128052
vt 22.78331 1.453015
vt 22.78331 1.453015
vt 22.80279 0.7258759
vt 22.80279 0.7258759
vt 22.80279 0.7258759
vt 22.80279 0.7258759
vt 22.81566 0.2452179
vt 22.81566 0.2452179
vt 23.79127 1.479987
vt 23.79127 1.479987
vt 23.81061 0.7582642
vt 23.81061 0.7582642
vt 23.81061 0.7582642
vt 23.81061 0.7582642
vt 23.82345 0.2789643
vt 23.82345 0.2789643
vt 24.79923 1.507166
vt 24.79923 1.507166
vt 24.81872 0.7919434
vt 24.81872 0.7919434
vt 24.81872 0.7919434
vt 24.81872 0.7919434
vt 24.83173 0.314267
vt 24.83173 0.314267
vt 25.80768 1.535138
vt 25.80768 1.535138
vt 25.82775 0.8277283
vt 25.82775 0.8277283
vt 25.82775 0.8277283
vt 25.82775 0.8277283
vt 25.84125 0.3520111
vt 25.84125 0.3520111
vt 26.81056 1.564529
vt 26.81056 1.564529
vt 26.83185 0.8665497
vt 26.83185 0.8665497
vt 26.83185 0.8665497
vt 26.83185 0.8665497
vt 26.84628 0.3932037
vt 26.84628 0.3932037
vt 27.81608 1.596909
vt 27.81608 1.596909
vt 27.83968 0.9106628
vt 27.83968 0.9106628
vt 27.83968 0.9106628
vt 27.83968 0.9106628
vt 27.85586 0.4402832
vt 27.85586 0.4402832
vt 28.82718 1.635037
vt 28.82718 1.635037
vt 28.85544 0.9641175
vt 28.85544 0.9641175
vt 28.85544 0.9641175
vt 28.85544 0.9641175
vt 28.8751 0.4976349
vt 28.8751 0.4976349

usemtl GSDShoulder1
usemap GSDShoulder1
f 9/9/9 1/1/1 3/3/3
f 11/11/11 9/9/9 3/3/3
f 13/13/13 5/5/5 7/7/7
f 15/15/15 13/13/13 7/7/7
f 17/17/17 9/9/9 11/11/11
f 19/19/19 17/17/17 11/11/11
f 21/21/21 13/13/13 15/15/15
f 23/23/23 21/21/21 15/15/15
f 25/25/25 17/17/17 19/19/19
f 27/27/27 25/25/25 19/19/19
f 29/29/29 21/21/21 23/23/23
f 31/31/31 29/29/29 23/23/23
f 33/33/33 25/25/25 27/27/27
f 35/35/35 33/33/33 27/27/27
f 37/37/37 29/29/29 31/31/31
f 39/39/39 37/37/37 31/31/31
f 41/41/41 33/33/33 35/35/35
f 43/43/43 41/41/41 35/35/35
f 45/45/45 37/37/37 39/39/39
f 47/47/47 45/45/45 39/39/39
f 49/49/49 41/41/41 43/43/43
f 51/51/51 49/49/49 43/43/43
f 53/53/53 45/45/45 47/47/47
f 55/55/55 53/53/53 47/47/47
f 57/57/57 49/49/49 51/51/51
f 59/59/59 57/57/57 51/51/51
f 61/61/61 53/53/53 55/55/55
f 63/63/63 61/61/61 55/55/55
f 65/65/65 57/57/57 59/59/59
f 67/67/67 65/65/65 59/59/59
f 69/69/69 61/61/61 63/63/63
f 71/71/71 69/69/69 63/63/63
f 73/73/73 65/65/65 67/67/67
f 75/75/75 73/73/73 67/67/67
f 77/77/77 69/69/69 71/71/71
f 79/79/79 77/77/77 71/71/71
f 81/81/81 73/73/73 75/75/75
f 83/83/83 81/81/81 75/75/75
f 85/85/85 77/77/77 79/79/79
f 87/87/87 85/85/85 79/79/79
f 89/89/89 81/81/81 83/83/83
f 91/91/91 89/89/89 83/83/83
f 93/93/93 85/85/85 87/87/87
f 95/95/95 93/93/93 87/87/87
f 97/97/97 89/89/89 91/91/91
f 99/99/99 97/97/97 91/91/91
f 101/101/101 93/93/93 95/95/95
f 103/103/103 101/101/101 95/95/95
f 105/105/105 97/97/97 99/99/99
f 107/107/107 105/105/105 99/99/99
f 109/109/109 101/101/101 103/103/103
f 111/111/111 109/109/109 103/103/103
f 113/113/113 105/105/105 107/107/107
f 115/115/115 113/113/113 107/107/107
f 117/117/117 109/109/109 111/111/111
f 119/119/119 117/117/117 111/111/111
f 121/121/121 113/113/113 115/115/115
f 123/123/123 121/121/121 115/115/115
f 125/125/125 117/117/117 119/119/119
f 127/127/127 125/125/125 119/119/119
f 129/129/129 121/121/121 123/123/123
f 131/131/131 129/129/129 123/123/123
f 133/133/133 125/125/125 127/127/127
f 135/135/135 133/133/133 127/127/127
f 137/137/137 129/129/129 131/131/131
f 139/139/139 137/137/137 131/131/131
f 141/141/141 133/133/133 135/135/135
f 143/143/143 141/141/141 135/135/135
f 145/145/145 137/137/137 139/139/139
f 147/147/147 145/145/145 139/139/139
f 149/149/149 141/141/141 143/143/143
f 151/151/151 149/149/149 143/143/143
f 153/153/153 145/145/145 147/147/147
f 155/155/155 153/153/153 147/147/147
f 157/157/157 149/149/149 151/151/151
f 159/159/159 157/157/157 151/151/151
f 161/161/161 153/153/153 155/155/155
f 163/163/163 161/161/161 155/155/155
f 165/165/165 157/157/157 159/159/159
f 167/167/167 165/165/165 159/159/159
f 169/169/169 161/161/161 163/163/163
f 171/171/171 169/169/169 163/163/163
f 173/173/173 165/165/165 167/167/167
f 175/175/175 173/173/173 167/167/167
f 177/177/177 169/169/169 171/171/171
f 179/179/179 177/177/177 171/171/171
f 181/181/181 173/173/173 175/175/175
f 183/183/183 181/181/181 175/175/175
f 185/185/185 177/177/177 179/179/179
f 187/187/187 185/185/185 179/179/179
f 189/189/189 181/181/181 183/183/183
f 191/191/191 189/189/189 183/183/183
f 193/193/193 185/185/185 187/187/187
f 195/195/195 193/193/193 187/187/187
f 197/197/197 189/189/189 191/191/191
f 199/199/199 197/197/197 191/191/191
f 201/201/201 193/193/193 195/195/195
f 203/203/203 201/201/201 195/195/195
f 205/205/205 197/197/197 199/199/199
f 207/207/207 205/205/205 199/199/199
f 209/209/209 201/201/201 203/203/203
f 211/211/211 209/209/209 203/203/203
f 213/213/213 205/205/205 207/207/207
f 215/215/215 213/213/213 207/207/207
f 217/217/217 209/209/209 211/211/211
f 219/219/219 217/217/217 211/211/211
f 221/221/221 213/213/213 215/215/215
f 223/223/223 221/221/221 215/215/215
f 225/225/225 217/217/217 219/219/219
f 227/227/227 225/225/225 219/219/219
f 229/229/229 221/221/221 223/223/223
f 231/231/231 229/229/229 223/223/223
f 233/233/233 225/225/225 227/227/227
f 235/235/235 233/233/233 227/227/227
f 237/237/237 229/229/229 231/231/231
f 239/239/239 237/237/237 231/231/231
