mtllib ./Road1_0_16.mtl
g RoadCut1
v -318.5517 0.03 442.6622
v -318.5517 0.03 442.6622
v -316.1912 0.03 454.4278
v -316.1912 0.03 454.4278
v -314.3538 0.03 441.5683
v -314.3538 0.03 441.5683
v -310.673 0.03 452.9898
v -310.673 0.03 452.9898
v -310.2781 0.03 439.9861
v -310.2781 0.03 439.9861
v -305.2852 0.03 450.898
v -305.2852 0.03 450.898
v -306.4176 0.03 437.9383
v -306.4176 0.03 437.9383
v -300.1881 0.03 448.1947
v -300.1881 0.03 448.1947
v -302.8439 0.03 435.4832
v -302.8439 0.03 435.4832
v -295.5147 0.03 444.985
v -295.5147 0.03 444.985
v -299.5024 0.03 432.6077
v -299.5024 0.03 432.6077
v -291.2116 0.03 441.2832
v -291.2116 0.03 441.2832
v -296.4186 0.03 429.3496
v -296.4186 0.03 429.3496
v -287.3122 0.03 437.1646
v -287.3122 0.03 437.1646
v -293.6652 0.03 425.8273
v -293.6652 0.03 425.8273
v -283.8921 0.03 432.7906
v -283.8921 0.03 432.7906
v -291.1843 0.03 422.0089
v -291.1843 0.03 422.0089
v -280.8567 0.03 428.1196
v -280.8567 0.03 428.1196
v -289.0276 0.03 418.004
v -289.0276 0.03 418.004
v -278.2441 0.03 423.2684
v -278.2441 0.03 423.2684
v -287.2009 0.03 413.8541
v -287.2009 0.03 413.8541
v -276.0337 0.03 418.2465
v -276.0337 0.03 418.2465
v -285.7335 0.03 409.6073
v -285.7335 0.03 409.6073
v -274.2278 0.03 413.016
v -274.2278 0.03 413.016

vn -4.216631E-10 1 8.459643E-11
vn 0 0 0
vn -3.59037E-10 1 9.354479E-11
vn 0 0 0
vn -1.269211E-10 0.9999999 2.546363E-11
vn 0 0 0
vn 1.070145E-10 1 -4.896525E-11
vn 0 0 0
vn 2.39133E-10 1 -9.287169E-11
vn 0 0 0
vn 1.065797E-10 1 -4.876632E-11
vn 0 0 0
vn 1.101633E-10 0.9999999 -6.69105E-11
vn 0 0 0
vn 1.947253E-10 0.9999999 -1.336273E-10
vn 0 0 0
vn 8.139637E-12 1 1.18609E-11
vn 0 0 0
vn -2.649527E-10 1 2.359253E-10
vn 0 0 0
vn -2.952606E-10 1 2.448075E-10
vn 0 0 0
vn -8.446544E-12 1 -8.006214E-12
vn 0 0 0
vn 1.751793E-10 1 -1.848123E-10
vn 0 0 0
vn 7.737199E-11 1 -9.015855E-11
vn 0 0 0
vn 0 0.9999999 0
vn 0 0 0
vn 0 1 0
vn 0 0 0
vn 0 1 0
vn 0 0 0
vn 0 0.9999999 0
vn 0 0 0
vn 0 1 0
vn 0 0 0
vn 0 1 0
vn 0 0 0
vn 0 1 0
vn 0 0 0
vn 0 1 0
vn 0 0 0
vn 0 1 0
vn 0 0 0
vn 0 1 0
vn 0 0 0

vt 0 0
vt 0 0
vt -0.4720947 2.353113
vt -0.4720947 2.353113
vt -0.8395813 -0.2187866
vt -0.8395813 -0.2187866
vt -1.575739 2.065527
vt -1.575739 2.065527
vt -1.654718 -0.5352295
vt -1.654718 -0.5352295
vt -2.65329 1.647168
vt -2.65329 1.647168
vt -2.426819 -0.9447815
vt -2.426819 -0.9447815
vt -3.672717 1.1065
vt -3.672717 1.1065
vt -3.141559 -1.435791
vt -3.141559 -1.435791
vt -4.607404 0.4645508
vt -4.607404 0.4645508
vt -3.809857 -2.010895
vt -3.809857 -2.010895
vt -5.468011 -0.2757996
vt -5.468011 -0.2757996
vt -4.426611 -2.662512
vt -4.426611 -2.662512
vt -6.2479 -1.099524
vt -6.2479 -1.099524
vt -4.977301 -3.36698
vt -4.977301 -3.36698
vt -6.931915 -1.974316
vt -6.931915 -1.974316
vt -5.47348 -4.130658
vt -5.47348 -4.130658
vt -7.539008 -2.908527
vt -7.539008 -2.908527
vt -5.904809 -4.931641
vt -5.904809 -4.931641
vt -8.061523 -3.87876
vt -8.061523 -3.87876
vt -6.27016 -5.761627
vt -6.27016 -5.761627
vt -8.503595 -4.883136
vt -8.503595 -4.883136
vt -6.563635 -6.610986
vt -6.563635 -6.610986
vt -8.864771 -5.929236
vt -8.864771 -5.929236

usemtl GSDRoad1
usemap GSDRoad1
f 5/5/5 1/1/1 3/3/3
f 7/7/7 5/5/5 3/3/3
f 9/9/9 5/5/5 7/7/7
f 11/11/11 9/9/9 7/7/7
f 13/13/13 9/9/9 11/11/11
f 15/15/15 13/13/13 11/11/11
f 17/17/17 13/13/13 15/15/15
f 19/19/19 17/17/17 15/15/15
f 21/21/21 17/17/17 19/19/19
f 23/23/23 21/21/21 19/19/19
f 25/25/25 21/21/21 23/23/23
f 27/27/27 25/25/25 23/23/23
f 29/29/29 25/25/25 27/27/27
f 31/31/31 29/29/29 27/27/27
f 33/33/33 29/29/29 31/31/31
f 35/35/35 33/33/33 31/31/31
f 37/37/37 33/33/33 35/35/35
f 39/39/39 37/37/37 35/35/35
f 41/41/41 37/37/37 39/39/39
f 43/43/43 41/41/41 39/39/39
f 45/45/45 41/41/41 43/43/43
f 47/47/47 45/45/45 43/43/43
