mtllib ./Road1_0_73.mtl
g SCutL2
v -288.6099 0.03 408.7551
v -288.6099 0.03 408.7551
v -285.7335 0.03 409.6073
v -285.7335 0.03 409.6073
v -290.7672 -0.35 408.1159
v -290.7672 -0.35 408.1159
v -288.6099 0.03 408.7551
v -288.6099 0.03 408.7551
v -287.694 0.03 404.9234
v -287.694 0.03 404.9234
v -284.737 0.03 405.4298
v -284.737 0.03 405.4298
v -289.9117 -0.35 404.5435
v -289.9117 -0.35 404.5435
v -287.694 0.03 404.9234
v -287.694 0.03 404.9234
v -287.419 0.03 401.7173
v -287.419 0.03 401.7173
v -284.4203 0.03 401.6266
v -284.4203 0.03 401.6266
v -289.6679 -0.35 401.7853
v -289.6679 -0.35 401.7853
v -287.419 0.03 401.7173
v -287.419 0.03 401.7173
v -287.7769 0.03 399.654
v -287.7769 0.03 399.654
v -284.966 0.03 398.6056
v -284.966 0.03 398.6056
v -289.885 -0.35 400.4403
v -289.885 -0.35 400.4403
v -287.7769 0.03 399.654
v -287.7769 0.03 399.654
v -288.7256 0.03 398.0974
v -288.7256 0.03 398.0974
v -286.4523 0.03 396.1398
v -286.4523 0.03 396.1398
v -290.4306 -0.35 399.5655
v -290.4306 -0.35 399.5655
v -288.7256 0.03 398.0974
v -288.7256 0.03 398.0974
v -290.7988 0.03 396.2997
v -290.7988 0.03 396.2997
v -289.0932 0.03 393.8317
v -289.0932 0.03 393.8317
v -292.078 -0.35 398.1506
v -292.078 -0.35 398.1506
v -290.7988 0.03 396.2997
v -290.7988 0.03 396.2997
v -293.9211 0.03 394.5211
v -293.9211 0.03 394.5211
v -292.6212 0.03 391.8174
v -292.6212 0.03 391.8174
v -294.896 -0.35 396.549
v -294.896 -0.35 396.549
v -293.9211 0.03 394.5211
v -293.9211 0.03 394.5211
v -297.7351 0.03 392.9364
v -297.7351 0.03 392.9364
v -296.7121 0.03 390.1162
v -296.7121 0.03 390.1162
v -298.5024 -0.35 395.0515
v -298.5024 -0.35 395.0515
v -297.7351 0.03 392.9364
v -297.7351 0.03 392.9364
v -302.0237 0.03 391.5569
v -302.0237 0.03 391.5569
v -301.197 0.03 388.673
v -301.197 0.03 388.673
v -302.6437 -0.35 393.7197
v -302.6437 -0.35 393.7197
v -302.0237 0.03 391.5569
v -302.0237 0.03 391.5569
v -306.5724 0.03 390.38
v -306.5724 0.03 390.38
v -305.8885 0.03 387.459
v -305.8885 0.03 387.459
v -307.0853 -0.35 392.5708
v -307.0853 -0.35 392.5708
v -306.5724 0.03 390.38
v -306.5724 0.03 390.38

vn 0 1 0
vn 0 0 0
vn 0 0.9999999 0
vn 0 0 0
vn -0.1621718 0.9859979 -0.03883893
vn 0 0 0
vn -0.1622383 0.9859878 -0.03881745
vn 0 0 0
vn 0 1 0
vn 0 0 0
vn 0 1 0
vn 0 0 0
vn -0.1633621 0.9860342 -0.03239584
vn 0 0 0
vn -0.1649849 0.9860001 -0.02416314
vn 0 0 0
vn 0 1 0
vn 0 0 0
vn 0 1 0
vn 0 0 0
vn -0.1665772 0.9860044 -0.00687485
vn 0 0 0
vn -0.166743 0.9859715 0.007561637
vn 0 0 0
vn -9.45497E-11 1 -2.535032E-10
vn 0 0 0
vn -2.439786E-10 1 -4.126616E-10
vn 0 0 0
vn -0.1613818 0.9859886 0.04221944
vn 0 0 0
vn -0.1537912 0.986069 0.06337389
vn 0 0 0
vn -8.863896E-11 1 -2.376555E-10
vn 0 0 0
vn 1.695371E-10 0.9999999 1.171665E-10
vn 0 0 0
vn -0.1292341 0.9859794 0.1055611
vn 0 0 0
vn -0.119013 0.9860317 0.116522
vn 0 0 0
vn 2.809665E-10 1 2.526131E-10
vn 0 0 0
vn 1.378372E-10 1 9.525886E-11
vn 0 0 0
vn -0.09892854 0.9859815 0.1343634
vn 0 0 0
vn -0.09037577 0.986037 0.1398683
vn 0 0 0
vn 0 0.9999999 0
vn 0 0 0
vn 0 1 0
vn 0 0 0
vn -0.07582359 0.9860158 0.1484032
vn 0 0 0
vn -0.06972435 0.9860368 0.1512278
vn 0 0 0
vn 0 1 0
vn 0 0 0
vn 0 1 0
vn 0 0 0
vn -0.05941255 0.9860286 0.1556212
vn 0 0 0
vn -0.05513552 0.9860362 0.1571394
vn 0 0 0
vn 1.287423E-10 1 3.690553E-11
vn 0 0 0
vn 2.529114E-10 0.9999999 6.581195E-11
vn 0 0 0
vn -0.04784426 0.9860325 0.1595328
vn 0 0 0
vn -0.0447583 0.9860361 0.1604042
vn 0 0 0
vn 3.777291E-10 1 9.829169E-11
vn 0 0 0
vn 3.743458E-10 1 8.763781E-11
vn 0 0 0
vn -0.04172039 0.9860278 0.1612714
vn 0 0 0
vn -0.04172184 0.9860289 0.1612645
vn 0 0 0

vt 0 0
vt 0 0
vt -0.5752808 0.1704407
vt -0.5752808 0.1704407
vt 0.4314636 -0.1278259
vt 0.4314636 -0.1278259
vt 0 0
vt 0 0
vt -0.1831909 -0.7663391
vt -0.1831909 -0.7663391
vt -0.7745849 -0.6650574
vt -0.7745849 -0.6650574
vt 0.2603516 -0.8423035
vt 0.2603516 -0.8423035
vt -0.1831909 -0.7663391
vt -0.1831909 -0.7663391
vt -0.2381897 -1.407556
vt -0.2381897 -1.407556
vt -0.8379151 -1.425702
vt -0.8379151 -1.425702
vt 0.2116028 -1.393951
vt 0.2116028 -1.393951
vt -0.2381897 -1.407556
vt -0.2381897 -1.407556
vt -0.1666138 -1.820215
vt -0.1666138 -1.820215
vt -0.7287842 -2.029889
vt -0.7287842 -2.029889
vt 0.2550171 -1.662958
vt 0.2550171 -1.662958
vt -0.1666138 -1.820215
vt -0.1666138 -1.820215
vt 0.02313232 -2.131543
vt 0.02313232 -2.131543
vt -0.4315308 -2.523053
vt -0.4315308 -2.523053
vt 0.3641296 -1.837915
vt 0.3641296 -1.837915
vt 0.02313232 -2.131543
vt 0.02313232 -2.131543
vt 0.4377747 -2.491083
vt 0.4377747 -2.491083
vt 0.09665527 -2.984674
vt 0.09665527 -2.984674
vt 0.6936157 -2.120886
vt 0.6936157 -2.120886
vt 0.4377747 -2.491083
vt 0.4377747 -2.491083
vt 1.062225 -2.846783
vt 1.062225 -2.846783
vt 0.8022461 -3.387531
vt 0.8022461 -3.387531
vt 1.257214 -2.441223
vt 1.257214 -2.441223
vt 1.062225 -2.846783
vt 1.062225 -2.846783
vt 1.825031 -3.163739
vt 1.825031 -3.163739
vt 1.620428 -3.727777
vt 1.620428 -3.727777
vt 1.978491 -2.740717
vt 1.978491 -2.740717
vt 1.825031 -3.163739
vt 1.825031 -3.163739
vt 2.682758 -3.439642
vt 2.682758 -3.439642
vt 2.51742 -4.016412
vt 2.51742 -4.016412
vt 2.806757 -3.007068
vt 2.806757 -3.007068
vt 2.682758 -3.439642
vt 2.682758 -3.439642
vt 3.592493 -3.675006
vt 3.592493 -3.675006
vt 3.455725 -4.25921
vt 3.455725 -4.25921
vt 3.695068 -3.236853
vt 3.695068 -3.236853
vt 3.592493 -3.675006
vt 3.592493 -3.675006

usemtl GSDShoulder1
usemap GSDShoulder1
f 9/9/9 1/1/1 3/3/3
f 11/11/11 9/9/9 3/3/3
f 13/13/13 5/5/5 7/7/7
f 15/15/15 13/13/13 7/7/7
f 17/17/17 9/9/9 11/11/11
f 19/19/19 17/17/17 11/11/11
f 21/21/21 13/13/13 15/15/15
f 23/23/23 21/21/21 15/15/15
f 25/25/25 17/17/17 19/19/19
f 27/27/27 25/25/25 19/19/19
f 29/29/29 21/21/21 23/23/23
f 31/31/31 29/29/29 23/23/23
f 33/33/33 25/25/25 27/27/27
f 35/35/35 33/33/33 27/27/27
f 37/37/37 29/29/29 31/31/31
f 39/39/39 37/37/37 31/31/31
f 41/41/41 33/33/33 35/35/35
f 43/43/43 41/41/41 35/35/35
f 45/45/45 37/37/37 39/39/39
f 47/47/47 45/45/45 39/39/39
f 49/49/49 41/41/41 43/43/43
f 51/51/51 49/49/49 43/43/43
f 53/53/53 45/45/45 47/47/47
f 55/55/55 53/53/53 47/47/47
f 57/57/57 49/49/49 51/51/51
f 59/59/59 57/57/57 51/51/51
f 61/61/61 53/53/53 55/55/55
f 63/63/63 61/61/61 55/55/55
f 65/65/65 57/57/57 59/59/59
f 67/67/67 65/65/65 59/59/59
f 69/69/69 61/61/61 63/63/63
f 71/71/71 69/69/69 63/63/63
f 73/73/73 65/65/65 67/67/67
f 75/75/75 73/73/73 67/67/67
f 77/77/77 69/69/69 71/71/71
f 79/79/79 77/77/77 71/71/71
