mtllib ./Road1_0_46.mtl
g RoadCut16
v -49.29011 0.03 149.5046
v -49.29011 0.03 149.5046
v -37.61066 0.03 146.7496
v -37.61066 0.03 146.7496
v -50.54022 0.03 145.2252
v -50.54022 0.03 145.2252
v -39.18099 0.03 141.3564
v -39.18099 0.03 141.3564
v -52.17298 0.03 141.0155
v -52.17298 0.03 141.0155
v -41.17158 0.03 136.2229
v -41.17158 0.03 136.2229
v -54.15937 0.03 136.9099
v -54.15937 0.03 136.9099
v -43.57024 0.03 131.2645
v -43.57024 0.03 131.2645
v -56.46235 0.03 132.9629
v -56.46235 0.03 132.9629
v -46.33584 0.03 126.5245
v -46.33584 0.03 126.5245
v -59.08236 0.03 129.1719
v -59.08236 0.03 129.1719
v -49.48123 0.03 121.9734
v -49.48123 0.03 121.9734
v -61.96928 0.03 125.6217
v -61.96928 0.03 125.6217
v -52.97128 0.03 117.6822
v -52.97128 0.03 117.6822
v -65.10194 0.03 122.3617
v -65.10194 0.03 122.3617
v -56.82731 0.03 113.6708
v -56.82731 0.03 113.6708
v -68.42735 0.03 119.4911
v -68.42735 0.03 119.4911
v -61.07589 0.03 110.0066
v -61.07589 0.03 110.0066
v -71.91232 0.03 117.1212
v -71.91232 0.03 117.1212
v -65.88516 0.03 106.7446
v -65.88516 0.03 106.7446
v -75.33847 0.03 115.5261
v -75.33847 0.03 115.5261
v -71.54778 0.03 104.1405
v -71.54778 0.03 104.1405

vn 9.605407E-11 1 4.071986E-10
vn 0 0 0
vn 1.02167E-10 1 3.553484E-10
vn 0 0 0
vn 2.934095E-11 1 1.24384E-10
vn 0 0 0
vn -4.761277E-11 0.9999999 -1.09295E-10
vn 0 0 0
vn -9.227416E-11 1 -2.382178E-10
vn 0 0 0
vn -4.780151E-11 1 -1.097282E-10
vn 0 0 0
vn 0 1 0
vn 0 0 0
vn 0 0.9999999 0
vn 0 0 0
vn 0 1 0
vn 0 0 0
vn 0 1 0
vn 0 0 0
vn -7.598309E-11 1 -1.013438E-10
vn 0 0 0
vn -1.503618E-10 0.9999999 -1.847401E-10
vn 0 0 0
vn -1.607623E-10 1 -1.975186E-10
vn 0 0 0
vn -7.898514E-11 1 -8.951535E-11
vn 0 0 0
vn 9.326823E-11 1 8.880167E-11
vn 0 0 0
vn 1.814358E-10 1 1.559876E-10
vn 0 0 0
vn 9.502066E-11 0.9999999 9.047018E-11
vn 0 0 0
vn -1.032067E-10 1 -5.994692E-11
vn 0 0 0
vn -1.069351E-10 1 -8.288531E-11
vn 0 0 0
vn 1.121641E-10 1 3.734383E-11
vn 0 0 0
vn 3.391804E-10 1 1.530193E-10
vn 0 0 0
vn 2.852609E-10 1 9.497458E-11
vn 0 0 0

vt 0 0
vt 0 0
vt -2.33589 -0.5510132
vt -2.33589 -0.5510132
vt 0.2500221 -0.8558807
vt 0.2500221 -0.8558807
vt -2.021824 -1.629648
vt -2.021824 -1.629648
vt 0.576574 -1.69783
vt 0.576574 -1.69783
vt -1.623707 -2.656351
vt -1.623707 -2.656351
vt 0.973851 -2.518951
vt 0.973851 -2.518951
vt -1.143974 -3.648029
vt -1.143974 -3.648029
vt 1.434448 -3.308341
vt 1.434448 -3.308341
vt -0.5908546 -4.596035
vt -0.5908546 -4.596035
vt 1.95845 -4.06655
vt 1.95845 -4.06655
vt 0.03822403 -5.50625
vt 0.03822403 -5.50625
vt 2.535833 -4.776584
vt 2.535833 -4.776584
vt 0.7362328 -6.364487
vt 0.7362328 -6.364487
vt 3.162365 -5.42859
vt 3.162365 -5.42859
vt 1.507439 -7.166756
vt 1.507439 -7.166756
vt 3.827447 -6.002695
vt 3.827447 -6.002695
vt 2.357157 -7.899601
vt 2.357157 -7.899601
vt 4.524442 -6.476685
vt 4.524442 -6.476685
vt 3.31901 -8.551999
vt 3.31901 -8.551999
vt 5.209672 -6.795709
vt 5.209672 -6.795709
vt 4.451533 -9.072818
vt 4.451533 -9.072818

usemtl GSDRoad1
usemap GSDRoad1
f 5/5/5 1/1/1 3/3/3
f 7/7/7 5/5/5 3/3/3
f 9/9/9 5/5/5 7/7/7
f 11/11/11 9/9/9 7/7/7
f 13/13/13 9/9/9 11/11/11
f 15/15/15 13/13/13 11/11/11
f 17/17/17 13/13/13 15/15/15
f 19/19/19 17/17/17 15/15/15
f 21/21/21 17/17/17 19/19/19
f 23/23/23 21/21/21 19/19/19
f 25/25/25 21/21/21 23/23/23
f 27/27/27 25/25/25 23/23/23
f 29/29/29 25/25/25 27/27/27
f 31/31/31 29/29/29 27/27/27
f 33/33/33 29/29/29 31/31/31
f 35/35/35 33/33/33 31/31/31
f 37/37/37 33/33/33 35/35/35
f 39/39/39 37/37/37 35/35/35
f 41/41/41 37/37/37 39/39/39
f 43/43/43 41/41/41 39/39/39
