mtllib ./Road2_1_29.mtl
g SCutR1
v -422.3341 0.07752226 142.976
v -422.3341 0.07752226 142.976
v -421.8381 0.07752226 139.8768
v -421.8381 0.07752226 139.8768
v -421.8381 0.07752226 139.8768
v -421.8381 0.07752226 139.8768
v -421.4773 -0.2696484 137.6215
v -421.4773 -0.2696484 137.6215
v -426.8652 0 142.0746
v -426.8652 0 142.0746
v -426.1496 0 139.0526
v -426.1496 0 139.0526
v -426.1496 0 139.0526
v -426.1496 0 139.0526
v -425.6251 -0.2696484 136.8379
v -425.6251 -0.2696484 136.8379
v -431.2365 0 140.8565
v -431.2365 0 140.8565
v -430.2888 0 137.9289
v -430.2888 0 137.9289
v -430.2888 0 137.9289
v -430.2888 0 137.9289
v -429.5901 -0.35 135.7702
v -429.5901 -0.35 135.7702
v -435.4037 0 139.2922
v -435.4037 0 139.2922
v -434.1942 0 136.4926
v -434.1942 0 136.4926
v -434.1942 0 136.4926
v -434.1942 0 136.4926
v -433.2971 -0.35 134.4158
v -433.2971 -0.35 134.4158
v -439.3135 0 137.3451
v -439.3135 0 137.3451
v -437.8243 0 134.7409
v -437.8243 0 134.7409
v -437.8243 0 134.7409
v -437.8243 0 134.7409
v -436.7073 -0.35 132.7878
v -436.7073 -0.35 132.7878
v -442.8468 0 135.019
v -442.8468 0 135.019
v -441.0349 0 132.628
v -441.0349 0 132.628
v -441.0349 0 132.628
v -441.0349 0 132.628
v -439.6759 -0.35 130.8347
v -439.6759 -0.35 130.8347
v -445.9449 0 132.3014
v -445.9449 0 132.3014
v -443.803 0 130.2009
v -443.803 0 130.2009
v -443.803 0 130.2009
v -443.803 0 130.2009
v -442.1967 -0.35 128.6256
v -442.1967 -0.35 128.6256
v -448.5422 0 129.1912
v -448.5422 0 129.1912
v -446.0603 0 127.4454
v -446.0603 0 127.4454
v -446.0603 0 127.4454
v -446.0603 0 127.4454
v -444.2131 -0.35 126.146
v -444.2131 -0.35 126.146
v -450.5485 0 125.7474
v -450.5485 0 125.7474
v -447.7969 0 124.4518
v -447.7969 0 124.4518
v -447.7969 0 124.4518
v -447.7969 0 124.4518
v -445.7521 -0.35 123.4891
v -445.7521 -0.35 123.4891
v -451.9026 0 122.0483
v -451.9026 0 122.0483
v -448.9665 0 121.2661
v -448.9665 0 121.2661
v -448.9665 0 121.2661
v -448.9665 0 121.2661
v -446.7832 -0.35 120.6845
v -446.7832 -0.35 120.6845
v -452.5453 0.003147438 118.2309
v -452.5453 0.003147438 118.2309
v -449.5528 0.003147438 118.0222
v -449.5528 0.003147438 118.0222
v -449.5528 0.003147438 118.0222
v -449.5528 0.003147438 118.0222
v -447.3085 -0.6968526 117.8657
v -447.3085 -0.6968526 117.8657

vn -0.0165785 0.999859 -0.002652933
vn 0 0 0
vn -0.01687917 0.9998519 -0.003340919
vn 0 0 0
vn 0.0109822 0.9885614 -0.1504188
vn 0 0 0
vn 0.01629604 0.9909132 -0.133512
vn 0 0 0
vn -0.01124647 0.9999343 -0.002226031
vn 0 0 0
vn -0.005730084 0.9999827 -0.001356935
vn 0 0 0
vn 0.02112149 0.9916881 -0.126919
vn 0 0 0
vn 0.02472326 0.9915596 -0.1272725
vn 0 0 0
vn 0 0.9999999 0
vn 0 0 0
vn 0 1 0
vn 0 0 0
vn 0.0349502 0.9900325 -0.1364333
vn 0 0 0
vn 0.04206277 0.9882684 -0.14682
vn 0 0 0
vn 0 1 0
vn 0 0 0
vn 0 0.9999999 0
vn 0 0 0
vn 0.05721973 0.9882656 -0.1416229
vn 0 0 0
vn 0.0617796 0.9881864 -0.1402534
vn 0 0 0
vn 0 0.9999999 0
vn 0 0 0
vn 0 1 0
vn 0 0 0
vn 0.07245103 0.9881637 -0.1352152
vn 0 0 0
vn 0.07849433 0.9881111 -0.1321941
vn 0 0 0
vn 0 1 0
vn 0 0 0
vn 0 1 0
vn 0 0 0
vn 0.0902897 0.9881133 -0.124418
vn 0 0 0
vn 0.09591161 0.9881065 -0.120193
vn 0 0 0
vn 0 1 0
vn 0 0 0
vn 0 1 0
vn 0 0 0
vn 0.1075709 0.9881136 -0.1098175
vn 0 0 0
vn 0.1134052 0.9881425 -0.1035059
vn 0 0 0
vn 0 1 0
vn 0 0 0
vn 0 1 0
vn 0 0 0
vn 0.1239026 0.9881588 -0.09049948
vn 0 0 0
vn 0.1283923 0.9881958 -0.08357346
vn 0 0 0
vn 0 1 0
vn 0 0 0
vn 0 1 0
vn 0 0 0
vn 0.1367997 0.9882054 -0.06881905
vn 0 0 0
vn 0.1405651 0.9882034 -0.06079107
vn 0 0 0
vn 7.259392E-05 1 0.0002725066
vn 0 0 0
vn 9.804342E-05 0.9999998 0.0005866208
vn 0 0 0
vn 0.1466849 0.988207 -0.04393546
vn 0 0 0
vn 0.1921178 0.9780115 -0.08114399
vn 0 0 0
vn 0.0001447818 0.9999996 0.0008662696
vn 0 0 0
vn 6.682367E-05 0.9999995 0.0009581919
vn 0 0 0
vn 0.2147768 0.9720816 -0.09448909
vn 0 0 0
vn 0.2827201 0.944221 -0.1688668
vn 0 0 0

vt 0 0
vt 0 0
vt -0.09918823 -0.6198395
vt -0.09918823 -0.6198395
vt -0.09918823 -0.6198395
vt -0.09918823 -0.6198395
vt -0.1713623 -1.070895
vt -0.1713623 -1.070895
vt 0.9062317 -0.1802918
vt 0.9062317 -0.1802918
vt 0.7631043 -0.7846924
vt 0.7631043 -0.7846924
vt 0.7631043 -0.7846924
vt 0.7631043 -0.7846924
vt 0.6582093 -1.227618
vt 0.6582093 -1.227618
vt 1.780487 -0.4239014
vt 1.780487 -0.4239014
vt 1.590955 -1.00943
vt 1.590955 -1.00943
vt 1.590955 -1.00943
vt 1.590955 -1.00943
vt 1.451202 -1.441171
vt 1.451202 -1.441171
vt 2.613916 -0.7367615
vt 2.613916 -0.7367615
vt 2.372034 -1.296686
vt 2.372034 -1.296686
vt 2.372034 -1.296686
vt 2.372034 -1.296686
vt 2.192603 -1.712036
vt 2.192603 -1.712036
vt 3.395892 -1.126187
vt 3.395892 -1.126187
vt 3.098041 -1.647018
vt 3.098041 -1.647018
vt 3.098041 -1.647018
vt 3.098041 -1.647018
vt 2.874646 -2.03764
vt 2.874646 -2.03764
vt 4.102545 -1.5914
vt 4.102545 -1.5914
vt 3.740161 -2.069605
vt 3.740161 -2.069605
vt 3.740161 -2.069605
vt 3.740161 -2.069605
vt 3.468372 -2.428256
vt 3.468372 -2.428256
vt 4.722162 -2.13493
vt 4.722162 -2.13493
vt 4.293793 -2.55502
vt 4.293793 -2.55502
vt 4.293793 -2.55502
vt 4.293793 -2.55502
vt 3.972516 -2.87009
vt 3.972516 -2.87009
vt 5.241626 -2.756961
vt 5.241626 -2.756961
vt 4.745245 -3.106123
vt 4.745245 -3.106123
vt 4.745245 -3.106123
vt 4.745245 -3.106123
vt 4.3758 -3.365996
vt 4.3758 -3.365996
vt 5.642877 -3.445724
vt 5.642877 -3.445724
vt 5.09256 -3.704839
vt 5.09256 -3.704839
vt 5.09256 -3.704839
vt 5.09256 -3.704839
vt 4.683612 -3.897391
vt 4.683612 -3.897391
vt 5.913715 -4.18555
vt 5.913715 -4.18555
vt 5.326477 -4.341986
vt 5.326477 -4.341986
vt 5.326477 -4.341986
vt 5.326477 -4.341986
vt 4.889832 -4.458305
vt 4.889832 -4.458305
vt 6.042249 -4.949022
vt 6.042249 -4.949022
vt 5.44375 -4.990761
vt 5.44375 -4.990761
vt 5.44375 -4.990761
vt 5.44375 -4.990761
vt 4.994879 -5.022064
vt 4.994879 -5.022064

usemtl GSDShoulder1
usemap GSDShoulder1
f 9/9/9 1/1/1 3/3/3
f 11/11/11 9/9/9 3/3/3
f 13/13/13 5/5/5 7/7/7
f 15/15/15 13/13/13 7/7/7
f 17/17/17 9/9/9 11/11/11
f 19/19/19 17/17/17 11/11/11
f 21/21/21 13/13/13 15/15/15
f 23/23/23 21/21/21 15/15/15
f 25/25/25 17/17/17 19/19/19
f 27/27/27 25/25/25 19/19/19
f 29/29/29 21/21/21 23/23/23
f 31/31/31 29/29/29 23/23/23
f 33/33/33 25/25/25 27/27/27
f 35/35/35 33/33/33 27/27/27
f 37/37/37 29/29/29 31/31/31
f 39/39/39 37/37/37 31/31/31
f 41/41/41 33/33/33 35/35/35
f 43/43/43 41/41/41 35/35/35
f 45/45/45 37/37/37 39/39/39
f 47/47/47 45/45/45 39/39/39
f 49/49/49 41/41/41 43/43/43
f 51/51/51 49/49/49 43/43/43
f 53/53/53 45/45/45 47/47/47
f 55/55/55 53/53/53 47/47/47
f 57/57/57 49/49/49 51/51/51
f 59/59/59 57/57/57 51/51/51
f 61/61/61 53/53/53 55/55/55
f 63/63/63 61/61/61 55/55/55
f 65/65/65 57/57/57 59/59/59
f 67/67/67 65/65/65 59/59/59
f 69/69/69 61/61/61 63/63/63
f 71/71/71 69/69/69 63/63/63
f 73/73/73 65/65/65 67/67/67
f 75/75/75 73/73/73 67/67/67
f 77/77/77 69/69/69 71/71/71
f 79/79/79 77/77/77 71/71/71
f 81/81/81 73/73/73 75/75/75
f 83/83/83 81/81/81 75/75/75
f 85/85/85 77/77/77 79/79/79
f 87/87/87 85/85/85 79/79/79
