mtllib ./Road1_0_85.mtl
g SCutL14
v -35.09228 0.03 300.1599
v -35.09228 0.03 300.1599
v -32.2908 0.03 301.2331
v -32.2908 0.03 301.2331
v -37.19339 -0.35 299.355
v -37.19339 -0.35 299.355
v -35.09228 0.03 300.1599
v -35.09228 0.03 300.1599
v -33.57062 0.03 295.8653
v -33.57062 0.03 295.8653
v -30.71345 0.03 296.7799
v -30.71345 0.03 296.7799
v -35.7135 -0.35 295.1793
v -35.7135 -0.35 295.1793
v -33.57062 0.03 295.8653
v -33.57062 0.03 295.8653
v -32.40527 0.03 291.7024
v -32.40527 0.03 291.7024
v -29.48637 0.03 292.3952
v -29.48637 0.03 292.3952
v -34.59444 -0.35 291.1828
v -34.59444 -0.35 291.1828
v -32.40527 0.03 291.7024
v -32.40527 0.03 291.7024
v -31.62202 0.03 287.5749
v -31.62202 0.03 287.5749
v -28.65064 0.03 287.9882
v -28.65064 0.03 287.9882
v -33.85056 -0.35 287.2648
v -33.85056 -0.35 287.2648
v -31.62202 0.03 287.5749
v -31.62202 0.03 287.5749
v -31.28784 0.03 283.5734
v -31.28784 0.03 283.5734
v -28.28873 0.03 283.6465
v -28.28873 0.03 283.6465
v -33.53717 -0.35 283.5186
v -33.53717 -0.35 283.5186
v -31.28784 0.03 283.5734
v -31.28784 0.03 283.5734
v -31.43893 0.03 279.7326
v -31.43893 0.03 279.7326
v -28.45578 0.03 279.415
v -28.45578 0.03 279.415
v -33.67628 -0.35 279.9708
v -33.67628 -0.35 279.9708
v -31.43893 0.03 279.7326
v -31.43893 0.03 279.7326
v -32.09959 0.03 276.0053
v -32.09959 0.03 276.0053
v -29.1892 0.03 275.2775
v -29.1892 0.03 275.2775
v -34.28238 -0.35 276.5511
v -34.28238 -0.35 276.5511
v -32.09959 0.03 276.0053
v -32.09959 0.03 276.0053
v -33.29278 0.03 272.3168
v -33.29278 0.03 272.3168
v -30.50353 0.03 271.2122
v -30.50353 0.03 271.2122
v -35.38472 -0.35 273.1452
v -35.38472 -0.35 273.1452
v -33.29278 0.03 272.3168
v -33.29278 0.03 272.3168
v -35.01173 0.03 268.6081
v -35.01173 0.03 268.6081
v -32.35714 0.03 267.2105
v -32.35714 0.03 267.2105
v -37.00268 -0.35 269.6563
v -37.00268 -0.35 269.6563
v -35.01173 0.03 268.6081
v -35.01173 0.03 268.6081
v -37.21913 0.03 264.7934
v -37.21913 0.03 264.7934
v -34.67302 0.03 263.2068
v -34.67302 0.03 263.2068
v -39.12872 -0.35 265.9833
v -39.12872 -0.35 265.9833
v -37.21913 0.03 264.7934
v -37.21913 0.03 264.7934
v -39.80861 0.03 260.819
v -39.80861 0.03 260.819
v -37.31683 0.03 259.1484
v -37.31683 0.03 259.1484
v -41.67745 -0.35 262.072
v -41.67745 -0.35 262.072
v -39.80861 0.03 260.819
v -39.80861 0.03 260.819
v -42.64916 0.03 256.5825
v -42.64916 0.03 256.5825
v -40.14651 0.03 254.9282
v -40.14651 0.03 254.9282
v -44.52615 -0.35 257.8232
v -44.52615 -0.35 257.8232
v -42.64916 0.03 256.5825
v -42.64916 0.03 256.5825
v -45.57042 0.03 251.9636
v -45.57042 0.03 251.9636
v -42.99383 0.03 250.427
v -42.99383 0.03 250.427
v -47.50286 -0.35 253.1161
v -47.50286 -0.35 253.1161
v -45.57042 0.03 251.9636
v -45.57042 0.03 251.9636
v -48.32446 0.03 246.9047
v -48.32446 0.03 246.9047
v -45.62854 0.03 245.5886
v -45.62854 0.03 245.5886
v -50.3464 -0.35 247.8917
v -50.3464 -0.35 247.8917
v -48.32446 0.03 246.9047
v -48.32446 0.03 246.9047
v -50.6758 0.03 241.3146
v -50.6758 0.03 241.3146
v -47.84603 0.03 240.3184
v -47.84603 0.03 240.3184
v -52.79813 -0.35 242.0617
v -52.79813 -0.35 242.0617
v -50.6758 0.03 241.3146
v -50.6758 0.03 241.3146
v -52.36097 0.03 235.2543
v -52.36097 0.03 235.2543
v -49.42225 0.03 234.6511
v -49.42225 0.03 234.6511
v -54.56502 -0.35 235.7068
v -54.56502 -0.35 235.7068
v -52.36097 0.03 235.2543
v -52.36097 0.03 235.2543

vn 0 1 0
vn 0 0 0
vn 0 1 0
vn 0 0 0
vn -0.1570127 0.9860277 -0.05564623
vn 0 0 0
vn -0.1570266 0.9860256 -0.05564435
vn 0 0 0
vn 4.17662E-11 1 -1.304697E-10
vn 0 0 0
vn 7.3432E-11 1 -2.638587E-10
vn 0 0 0
vn -0.1581157 0.9860365 -0.05226141
vn 0 0 0
vn -0.1592786 0.9860328 -0.0486771
vn 0 0 0
vn 4.346145E-11 1 -1.357654E-10
vn 0 0 0
vn -1.940403E-11 1 1.394831E-10
vn 0 0 0
vn -0.1615362 0.9860352 -0.04050376
vn 0 0 0
vn -0.1626524 0.9860312 -0.03587193
vn 0 0 0
vn -3.390837E-11 1 1.428541E-10
vn 0 0 0
vn 3.536099E-12 0.9999999 -1.450374E-10
vn 0 0 0
vn -0.1645503 0.9860342 -0.02568384
vn 0 0 0
vn -0.1653743 0.9860296 -0.0199254
vn 0 0 0
vn 1.732324E-11 1 1.411621E-12
vn 0 0 0
vn 2.811654E-11 1 4.485244E-10
vn 0 0 0
vn -0.1663834 0.9860327 -0.007489548
vn 0 0 0
vn -0.1665744 0.9860287 -0.0006431572
vn 0 0 0
vn 8.985973E-12 1 4.710695E-10
vn 0 0 0
vn -2.088775E-11 1 3.704732E-12
vn 0 0 0
vn -0.1659935 0.9860308 0.01376537
vn 0 0 0
vn -0.165202 0.9860293 0.02131733
vn 0 0 0
vn -5.483603E-11 1 -3.091578E-10
vn 0 0 0
vn -3.666781E-11 1 -1.466337E-10
vn 0 0 0
vn -0.1625316 0.9860284 0.03648794
vn 0 0 0
vn -0.1606678 0.9860322 0.04389001
vn 0 0 0
vn 0 1 0
vn 0 0 0
vn 0 1 0
vn 0 0 0
vn -0.1562457 0.9860271 0.0577761
vn 0 0 0
vn -0.1537537 0.9860356 0.06398209
vn 0 0 0
vn 0 1 0
vn 0 0 0
vn 0 0.9999999 0
vn 0 0 0
vn -0.1488401 0.9860283 0.07479877
vn 0 0 0
vn -0.1464917 0.9860373 0.07918893
vn 0 0 0
vn -7.154238E-11 1 -1.148101E-10
vn 0 0 0
vn -1.423331E-10 1 -2.201459E-10
vn 0 0 0
vn -0.1425878 0.9860312 0.08608779
vn 0 0 0
vn -0.1410341 0.9860374 0.08854216
vn 0 0 0
vn -6.707422E-11 1 -1.076397E-10
vn 0 0 0
vn 6.836182E-11 1 1.034192E-10
vn 0 0 0
vn -0.1391126 0.9860344 0.09156363
vn 0 0 0
vn -0.138706 0.9860359 0.09216179
vn 0 0 0
vn 1.319464E-10 0.9999999 1.981996E-10
vn 0 0 0
vn 6.472421E-11 0.9999999 9.791613E-11
vn 0 0 0
vn -0.1391863 0.9860365 0.0914299
vn 0 0 0
vn -0.1400048 0.9860331 0.09020749
vn 0 0 0
vn 0 1 0
vn 0 0 0
vn 0 1 0
vn 0 0 0
vn -0.1427441 0.9860374 0.0857577
vn 0 0 0
vn -0.1446091 0.9860297 0.08266596
vn 0 0 0
vn -4.719284E-11 1 -9.667394E-11
vn 0 0 0
vn -8.314652E-11 1 -1.986986E-10
vn 0 0 0
vn -0.1489727 0.986037 0.07441816
vn 0 0 0
vn -0.1514259 0.9860263 0.06944195
vn 0 0 0
vn -4.529838E-11 1 -9.279318E-11
vn 0 0 0
vn 2.097993E-11 0.9999999 1.022076E-10
vn 0 0 0
vn -0.15621 0.9860349 0.05773779
vn 0 0 0
vn -0.1585606 0.9860258 0.05110686
vn 0 0 0
vn 8.177094E-11 1 2.949152E-10
vn 0 0 0
vn 6.382157E-11 1 3.109184E-10
vn 0 0 0
vn -0.1608051 0.9859729 0.0447124
vn 0 0 0
vn -0.1608122 0.9859715 0.04471743
vn 0 0 0

vt 0 0
vt 0 0
vt -0.5602959 0.2146362
vt -0.5602959 0.2146362
vt 0.4202217 -0.1609802
vt 0.4202217 -0.1609802
vt 0 0
vt 0 0
vt -0.304332 -0.8589172
vt -0.304332 -0.8589172
vt -0.875766 -0.6759888
vt -0.875766 -0.6759888
vt 0.1242439 -0.9961182
vt 0.1242439 -0.9961182
vt -0.304332 -0.8589172
vt -0.304332 -0.8589172
vt -0.5374023 -1.691498
vt -0.5374023 -1.691498
vt -1.121182 -1.55293
vt -1.121182 -1.55293
vt -0.09956741 -1.795422
vt -0.09956741 -1.795422
vt -0.5374023 -1.691498
vt -0.5374023 -1.691498
vt -0.6940514 -2.517004
vt -0.6940514 -2.517004
vt -1.288328 -2.434332
vt -1.288328 -2.434332
vt -0.2483437 -2.57901
vt -0.2483437 -2.57901
vt -0.6940514 -2.517004
vt -0.6940514 -2.517004
vt -0.7608871 -3.317297
vt -0.7608871 -3.317297
vt -1.360709 -3.302673
vt -1.360709 -3.302673
vt -0.3110214 -3.328265
vt -0.3110214 -3.328265
vt -0.7608871 -3.317297
vt -0.7608871 -3.317297
vt -0.7306698 -4.085455
vt -0.7306698 -4.085455
vt -1.327299 -4.148969
vt -1.327299 -4.148969
vt -0.2831986 -4.037817
vt -0.2831986 -4.037817
vt -0.7306698 -4.085455
vt -0.7306698 -4.085455
vt -0.5985374 -4.830921
vt -0.5985374 -4.830921
vt -1.180615 -4.976477
vt -1.180615 -4.976477
vt -0.1619797 -4.721753
vt -0.1619797 -4.721753
vt -0.5985374 -4.830921
vt -0.5985374 -4.830921
vt -0.3598991 -5.568622
vt -0.3598991 -5.568622
vt -0.9177486 -5.789533
vt -0.9177486 -5.789533
vt 0.05848847 -5.40293
vt 0.05848847 -5.40293
vt -0.3598991 -5.568622
vt -0.3598991 -5.568622
vt -0.0161087 -6.310358
vt -0.0161087 -6.310358
vt -0.5470268 -6.589868
vt -0.5470268 -6.589868
vt 0.3820801 -6.100727
vt 0.3820801 -6.100727
vt -0.0161087 -6.310358
vt -0.0161087 -6.310358
vt 0.4253708 -7.073303
vt 0.4253708 -7.073303
vt -0.08385239 -7.390619
vt -0.08385239 -7.390619
vt 0.8072876 -6.835309
vt 0.8072876 -6.835309
vt 0.4253708 -7.073303
vt 0.4253708 -7.073303
vt 0.943267 -7.868176
vt 0.943267 -7.868176
vt 0.4449104 -8.202301
vt 0.4449104 -8.202301
vt 1.317035 -7.617578
vt 1.317035 -7.617578
vt 0.943267 -7.868176
vt 0.943267 -7.868176
vt 1.511377 -8.715485
vt 1.511377 -8.715485
vt 1.010846 -9.046344
vt 1.010846 -9.046344
vt 1.886775 -8.46734
vt 1.886775 -8.46734
vt 1.511377 -8.715485
vt 1.511377 -8.715485
vt 2.095628 -9.639249
vt 2.095628 -9.639249
vt 1.580311 -9.946573
vt 1.580311 -9.946573
vt 2.482117 -9.408755
vt 2.482117 -9.408755
vt 2.095628 -9.639249
vt 2.095628 -9.639249
vt 2.646436 -10.65104
vt 2.646436 -10.65104
vt 2.107252 -10.91425
vt 2.107252 -10.91425
vt 3.050825 -10.45363
vt 3.050825 -10.45363
vt 2.646436 -10.65104
vt 2.646436 -10.65104
vt 3.116704 -11.76906
vt 3.116704 -11.76906
vt 2.55075 -11.9683
vt 2.55075 -11.9683
vt 3.54117 -11.61964
vt 3.54117 -11.61964
vt 3.116704 -11.76906
vt 3.116704 -11.76906
vt 3.453739 -12.98111
vt 3.453739 -12.98111
vt 2.865994 -13.10175
vt 2.865994 -13.10175
vt 3.894548 -12.89062
vt 3.894548 -12.89062
vt 3.453739 -12.98111
vt 3.453739 -12.98111

usemtl GSDShoulder1
usemap GSDShoulder1
f 9/9/9 1/1/1 3/3/3
f 11/11/11 9/9/9 3/3/3
f 13/13/13 5/5/5 7/7/7
f 15/15/15 13/13/13 7/7/7
f 17/17/17 9/9/9 11/11/11
f 19/19/19 17/17/17 11/11/11
f 21/21/21 13/13/13 15/15/15
f 23/23/23 21/21/21 15/15/15
f 25/25/25 17/17/17 19/19/19
f 27/27/27 25/25/25 19/19/19
f 29/29/29 21/21/21 23/23/23
f 31/31/31 29/29/29 23/23/23
f 33/33/33 25/25/25 27/27/27
f 35/35/35 33/33/33 27/27/27
f 37/37/37 29/29/29 31/31/31
f 39/39/39 37/37/37 31/31/31
f 41/41/41 33/33/33 35/35/35
f 43/43/43 41/41/41 35/35/35
f 45/45/45 37/37/37 39/39/39
f 47/47/47 45/45/45 39/39/39
f 49/49/49 41/41/41 43/43/43
f 51/51/51 49/49/49 43/43/43
f 53/53/53 45/45/45 47/47/47
f 55/55/55 53/53/53 47/47/47
f 57/57/57 49/49/49 51/51/51
f 59/59/59 57/57/57 51/51/51
f 61/61/61 53/53/53 55/55/55
f 63/63/63 61/61/61 55/55/55
f 65/65/65 57/57/57 59/59/59
f 67/67/67 65/65/65 59/59/59
f 69/69/69 61/61/61 63/63/63
f 71/71/71 69/69/69 63/63/63
f 73/73/73 65/65/65 67/67/67
f 75/75/75 73/73/73 67/67/67
f 77/77/77 69/69/69 71/71/71
f 79/79/79 77/77/77 71/71/71
f 81/81/81 73/73/73 75/75/75
f 83/83/83 81/81/81 75/75/75
f 85/85/85 77/77/77 79/79/79
f 87/87/87 85/85/85 79/79/79
f 89/89/89 81/81/81 83/83/83
f 91/91/91 89/89/89 83/83/83
f 93/93/93 85/85/85 87/87/87
f 95/95/95 93/93/93 87/87/87
f 97/97/97 89/89/89 91/91/91
f 99/99/99 97/97/97 91/91/91
f 101/101/101 93/93/93 95/95/95
f 103/103/103 101/101/101 95/95/95
f 105/105/105 97/97/97 99/99/99
f 107/107/107 105/105/105 99/99/99
f 109/109/109 101/101/101 103/103/103
f 111/111/111 109/109/109 103/103/103
f 113/113/113 105/105/105 107/107/107
f 115/115/115 113/113/113 107/107/107
f 117/117/117 109/109/109 111/111/111
f 119/119/119 117/117/117 111/111/111
f 121/121/121 113/113/113 115/115/115
f 123/123/123 121/121/121 115/115/115
f 125/125/125 117/117/117 119/119/119
f 127/127/127 125/125/125 119/119/119
