mtllib ./Road1_0_31.mtl
g Markers8
v -213.1183 0.04 243.6358
v -213.1183 0.04 243.6358
v -208.959 0.04 254.8919
v -208.959 0.04 254.8919
v -207.4348 0.04 242.0014
v -207.4348 0.04 242.0014
v -204.9383 0.04 253.7389
v -204.9383 0.04 253.7389
v -202.1192 0.04 241.0537
v -202.1192 0.04 241.0537
v -200.3684 0.04 252.9253
v -200.3684 0.04 252.9253
v -196.8494 0.04 240.4086
v -196.8494 0.04 240.4086
v -195.6619 0.04 252.3497
v -195.6619 0.04 252.3497
v -191.6426 0.04 239.9917
v -191.6426 0.04 239.9917
v -190.8999 0.04 251.9687
v -190.8999 0.04 251.9687
v -186.406 0.04 239.7506
v -186.406 0.04 239.7506
v -186.0342 0.04 251.7448
v -186.0342 0.04 251.7448
v -181.1897 0.04 239.6593
v -181.1897 0.04 239.6593
v -181.134 0.04 251.6591
v -181.134 0.04 251.6591
v -176.0394 0.04 239.6953
v -176.0394 0.04 239.6953
v -176.2579 0.04 251.6934
v -176.2579 0.04 251.6934
v -170.9053 0.04 239.8424
v -170.9053 0.04 239.8424
v -171.3702 0.04 251.8334
v -171.3702 0.04 251.8334
v -165.7303 0.04 240.093
v -165.7303 0.04 240.093
v -166.4238 0.04 252.073
v -166.4238 0.04 252.073
v -160.6341 0.04 240.4337
v -160.6341 0.04 240.4337
v -161.5394 0.04 252.3995
v -161.5394 0.04 252.3995
v -155.4675 0.04 240.8697
v -155.4675 0.04 240.8697
v -156.5792 0.04 252.8181
v -156.5792 0.04 252.8181
v -150.3501 0.04 241.3894
v -150.3501 0.04 241.3894
v -151.6629 0.04 253.3174
v -151.6629 0.04 253.3174
v -145.2261 0.04 241.9974
v -145.2261 0.04 241.9974
v -146.7417 0.04 253.9013
v -146.7417 0.04 253.9013
v -140.1329 0.04 242.6909
v -140.1329 0.04 242.6909
v -141.8571 0.04 254.5664
v -141.8571 0.04 254.5664
v -135.0296 0.04 243.4802
v -135.0296 0.04 243.4802
v -136.9766 0.04 255.3212
v -136.9766 0.04 255.3212
v -129.9696 0.04 244.365
v -129.9696 0.04 244.365
v -132.1611 0.04 256.1632
v -132.1611 0.04 256.1632
v -124.8684 0.04 245.3748
v -124.8684 0.04 245.3748
v -127.3454 0.04 257.1164
v -127.3454 0.04 257.1164
v -119.7569 0.04 246.5305
v -119.7569 0.04 246.5305
v -122.5862 0.04 258.1922
v -122.5862 0.04 258.1922
v -114.648 0.04 247.8743
v -114.648 0.04 247.8743
v -117.9497 0.04 259.4111
v -117.9497 0.04 259.4111

vn 0 1 0
vn 0 0 0
vn 0 1 0
vn 0 0 0
vn 0 1 0
vn 0 0 0
vn 0 1 0
vn 0 0 0
vn 0 1 0
vn 0 0 0
vn 0 1 0
vn 0 0 0
vn 0 1 0
vn 0 0 0
vn 0 1 0
vn 0 0 0
vn 0 1 0
vn 0 0 0
vn 0 1 0
vn 0 0 0
vn 0 1 0
vn 0 0 0
vn 0 1 0
vn 0 0 0
vn 0 1 0
vn 0 0 0
vn 0 0.9999999 0
vn 0 0 0
vn 1.228301E-10 1 2.237273E-12
vn 0 0 0
vn 2.498831E-10 1 7.118472E-12
vn 0 0 0
vn 1.224718E-10 0.9999999 2.230747E-12
vn 0 0 0
vn -1.23785E-10 1 -7.165524E-12
vn 0 0 0
vn -2.44144E-10 1 -1.179754E-11
vn 0 0 0
vn -1.243471E-10 1 -7.198062E-12
vn 0 0 0
vn -1.222954E-10 1 -9.252584E-12
vn 0 0 0
vn -2.465183E-10 1 -2.079308E-11
vn 0 0 0
vn -2.425165E-10 1 -2.045554E-11
vn 0 0 0
vn -1.231281E-10 0.9999999 -1.145695E-11
vn 0 0 0
vn 1.2145E-10 1 1.336752E-11
vn 0 0 0
vn 2.456851E-10 1 2.915918E-11
vn 0 0 0
vn 2.424874E-10 1 2.877966E-11
vn 0 0 0
vn 1.229766E-10 1 1.565759E-11
vn 0 0 0
vn -1.210055E-10 0.9999999 -1.756827E-11
vn 0 0 0
vn -2.449022E-10 1 -3.790941E-11
vn 0 0 0
vn -1.209637E-10 1 -1.75622E-11
vn 0 0 0
vn 1.223893E-10 1 2.273362E-11
vn 0 0 0
vn 2.410097E-10 1 4.219361E-11
vn 0 0 0
vn 1.221132E-10 1 2.268234E-11
vn 0 0 0
vn 0 0.9999999 0
vn 0 0 0
vn 0 1 0
vn 0 0 0
vn 0 1 0
vn 0 0 0
vn 0 1 0
vn 0 0 0
vn 0 0.9999999 0
vn 0 0 0
vn 0 1 0
vn 0 0 0

vt 0 134.5013
vt 0 0
vt 1 134.5013
vt 0 0
vt 0 135.6841
vt 0 135.6841
vt 1 135.6841
vt 1 135.6841
vt 0 136.764
vt 0 136.764
vt 1 136.764
vt 1 136.764
vt 0 137.8258
vt 0 137.8258
vt 1 137.8258
vt 1 137.8258
vt 0 138.8705
vt 0 138.8705
vt 1 138.8705
vt 1 138.8705
vt 0 139.9189
vt 0 139.9189
vt 1 139.9189
vt 1 139.9189
vt 0 140.9623
vt 0 140.9623
vt 1 140.9623
vt 1 140.9623
vt 0 141.9924
vt 0 141.9924
vt 1 141.9924
vt 1 141.9924
vt 0 143.0197
vt 0 143.0197
vt 1 143.0197
vt 1 143.0197
vt 0 144.0559
vt 0 144.0559
vt 1 144.0559
vt 1 144.0559
vt 0 145.0774
vt 0 145.0774
vt 1 145.0774
vt 1 145.0774
vt 0 146.1144
vt 0 146.1144
vt 1 146.1144
vt 1 146.1144
vt 0 147.1432
vt 0 147.1432
vt 1 147.1432
vt 1 147.1432
vt 0 148.1751
vt 0 148.1751
vt 1 148.1751
vt 1 148.1751
vt 0 149.2032
vt 0 149.2032
vt 1 149.2032
vt 1 149.2032
vt 0 150.236
vt 0 150.236
vt 1 150.236
vt 1 150.236
vt 0 151.2633
vt 0 151.2633
vt 1 151.2633
vt 1 151.2633
vt 0 152.3034
vt 0 152.3034
vt 1 152.3034
vt 1 152.3034
vt 0 153.3515
vt 0 153.3515
vt 1 153.3515
vt 1 153.3515
vt 0 154.408
vt 0 0
vt 1 154.408
vt 0 0

usemtl GSDWhiteYellowDouble-4L
usemap GSDWhiteYellowDouble-4L
f 5/5/5 1/1/1 3/3/3
f 7/7/7 5/5/5 3/3/3
f 9/9/9 5/5/5 7/7/7
f 11/11/11 9/9/9 7/7/7
f 13/13/13 9/9/9 11/11/11
f 15/15/15 13/13/13 11/11/11
f 17/17/17 13/13/13 15/15/15
f 19/19/19 17/17/17 15/15/15
f 21/21/21 17/17/17 19/19/19
f 23/23/23 21/21/21 19/19/19
f 25/25/25 21/21/21 23/23/23
f 27/27/27 25/25/25 23/23/23
f 29/29/29 25/25/25 27/27/27
f 31/31/31 29/29/29 27/27/27
f 33/33/33 29/29/29 31/31/31
f 35/35/35 33/33/33 31/31/31
f 37/37/37 33/33/33 35/35/35
f 39/39/39 37/37/37 35/35/35
f 41/41/41 37/37/37 39/39/39
f 43/43/43 41/41/41 39/39/39
f 45/45/45 41/41/41 43/43/43
f 47/47/47 45/45/45 43/43/43
f 49/49/49 45/45/45 47/47/47
f 51/51/51 49/49/49 47/47/47
f 53/53/53 49/49/49 51/51/51
f 55/55/55 53/53/53 51/51/51
f 57/57/57 53/53/53 55/55/55
f 59/59/59 57/57/57 55/55/55
f 61/61/61 57/57/57 59/59/59
f 63/63/63 61/61/61 59/59/59
f 65/65/65 61/61/61 63/63/63
f 67/67/67 65/65/65 63/63/63
f 69/69/69 65/65/65 67/67/67
f 71/71/71 69/69/69 67/67/67
f 73/73/73 69/69/69 71/71/71
f 75/75/75 73/73/73 71/71/71
f 77/77/77 73/73/73 75/75/75
f 79/79/79 77/77/77 75/75/75
