mtllib ./Road1_0_28.mtl
g RoadCut7
v -269.0268 0.03 282.0081
v -269.0268 0.03 282.0081
v -267.3097 0.03 293.8847
v -267.3097 0.03 293.8847
v -264.5203 0.03 281.1752
v -264.5203 0.03 281.1752
v -261.859 0.03 292.8764
v -261.859 0.03 292.8764
v -260.1923 0.03 279.9871
v -260.1923 0.03 279.9871
v -256.4814 0.03 291.3989
v -256.4814 0.03 291.3989
v -256.0646 0.03 278.4143
v -256.0646 0.03 278.4143
v -251.2222 0.03 289.3939
v -251.2222 0.03 289.3939
v -252.1545 0.03 276.435
v -252.1545 0.03 276.435
v -246.1677 0.03 286.8349
v -246.1677 0.03 286.8349
v -248.4449 0.03 274.0263
v -248.4449 0.03 274.0263
v -241.3927 0.03 283.7354
v -241.3927 0.03 283.7354
v -244.9397 0.03 271.2098
v -244.9397 0.03 271.2098
v -237.0051 0.03 280.2121
v -237.0051 0.03 280.2121
v -241.6051 0.03 268.0328
v -241.6051 0.03 268.0328
v -233.0356 0.03 276.433
v -233.0356 0.03 276.433
v -238.3365 0.03 264.5257
v -238.3365 0.03 264.5257
v -229.3986 0.03 272.5327
v -229.3986 0.03 272.5327
v -235.0564 0.03 260.8001
v -235.0564 0.03 260.8001
v -226.0289 0.03 268.7061
v -226.0289 0.03 268.7061
v -231.6139 0.03 256.9469
v -231.6139 0.03 256.9469
v -222.7962 0.03 265.0862
v -222.7962 0.03 265.0862
v -227.8291 0.03 253.0871
v -227.8291 0.03 253.0871
v -219.574 0.03 261.7965
v -219.574 0.03 261.7965
v -223.4975 0.03 249.3844
v -223.4975 0.03 249.3844
v -216.2337 0.03 258.9362
v -216.2337 0.03 258.9362
v -218.5659 0.03 246.1442
v -218.5659 0.03 246.1442
v -212.7193 0.03 256.6236
v -212.7193 0.03 256.6236
v -213.1183 0.03 243.6358
v -213.1183 0.03 243.6358
v -208.959 0.03 254.8919
v -208.959 0.03 254.8919

vn 8.051274E-10 1 -1.16409E-10
vn 0 0 0
vn 7.234184E-10 0.9999999 -1.343419E-10
vn 0 0 0
vn 3.768905E-10 1 -6.479876E-11
vn 0 0 0
vn 2.880475E-12 1 1.044772E-11
vn 0 0 0
vn -3.704425E-10 1 1.081889E-10
vn 0 0 0
vn -3.362638E-10 1 1.219997E-10
vn 0 0 0
vn -1.229324E-10 0.9999999 3.997502E-11
vn 0 0 0
vn 1.031183E-10 1 -5.936119E-11
vn 0 0 0
vn 1.179401E-10 0.9999999 -5.201553E-11
vn 0 0 0
vn -9.563208E-11 1 6.946242E-11
vn 0 0 0
vn -1.106212E-10 0.9999999 6.36803E-11
vn 0 0 0
vn 8.845329E-11 0.9999999 -7.796343E-11
vn 0 0 0
vn 2.923407E-10 1 -2.417908E-10
vn 0 0 0
vn 2.610375E-10 0.9999999 -2.416036E-10
vn 0 0 0
vn 9.395565E-11 1 -8.281326E-11
vn 0 0 0
vn -7.966076E-11 1 8.892284E-11
vn 0 0 0
vn -2.51165E-10 1 2.720628E-10
vn 0 0 0
vn -2.411864E-10 1 2.712684E-10
vn 0 0 0
vn -1.029556E-12 1 -9.122922E-13
vn 0 0 0
vn 2.483086E-10 1 -2.737519E-10
vn 0 0 0
vn 1.591388E-10 1 -1.817131E-10
vn 0 0 0
vn -1.819773E-10 1 1.724849E-10
vn 0 0 0
vn -2.471109E-10 1 2.560342E-10
vn 0 0 0
vn 8.905339E-12 1 1.04789E-11
vn 0 0 0
vn 1.775112E-10 1 -1.508548E-10
vn 0 0 0
vn 1.02442E-10 1 -7.790416E-11
vn 0 0 0
vn 0 1 0
vn 0 0 0
vn 0 1 0
vn 0 0 0
vn 0 1 0
vn 0 0 0
vn 0 1 0
vn 0 0 0

vt 0 0
vt 0 0
vt -0.3434326 2.375305
vt -0.3434326 2.375305
vt -0.9013062 -0.1665833
vt -0.9013062 -0.1665833
vt -1.433569 2.173651
vt -1.433569 2.173651
vt -1.766907 -0.4042175
vt -1.766907 -0.4042175
vt -2.509082 1.878143
vt -2.509082 1.878143
vt -2.592444 -0.7187744
vt -2.592444 -0.7187744
vt -3.560919 1.477148
vt -3.560919 1.477148
vt -3.37446 -1.114636
vt -3.37446 -1.114636
vt -4.571823 0.9653443
vt -4.571823 0.9653443
vt -4.116382 -1.596375
vt -4.116382 -1.596375
vt -5.526825 0.3454468
vt -5.526825 0.3454468
vt -4.817422 -2.159668
vt -4.817422 -2.159668
vt -6.404355 -0.3592163
vt -6.404355 -0.3592163
vt -5.484344 -2.795062
vt -5.484344 -2.795062
vt -7.198255 -1.115033
vt -7.198255 -1.115033
vt -6.138055 -3.496485
vt -6.138055 -3.496485
vt -7.925653 -1.895081
vt -7.925653 -1.895081
vt -6.794076 -4.241614
vt -6.794076 -4.241614
vt -8.599576 -2.660413
vt -8.599576 -2.660413
vt -7.482587 -5.01225
vt -7.482587 -5.01225
vt -9.246119 -3.384381
vt -9.246119 -3.384381
vt -8.239542 -5.784214
vt -8.239542 -5.784214
vt -9.890561 -4.042334
vt -9.890561 -4.042334
vt -9.105857 -6.52475
vt -9.105857 -6.52475
vt -10.55863 -4.614392
vt -10.55863 -4.614392
vt -10.09219 -7.172784
vt -10.09219 -7.172784
vt -11.26151 -5.076904
vt -11.26151 -5.076904
vt -11.1817 -7.674475
vt -11.1817 -7.674475
vt -12.01357 -5.423254
vt -12.01357 -5.423254

usemtl GSDRoad1
usemap GSDRoad1
f 5/5/5 1/1/1 3/3/3
f 7/7/7 5/5/5 3/3/3
f 9/9/9 5/5/5 7/7/7
f 11/11/11 9/9/9 7/7/7
f 13/13/13 9/9/9 11/11/11
f 15/15/15 13/13/13 11/11/11
f 17/17/17 13/13/13 15/15/15
f 19/19/19 17/17/17 15/15/15
f 21/21/21 17/17/17 19/19/19
f 23/23/23 21/21/21 19/19/19
f 25/25/25 21/21/21 23/23/23
f 27/27/27 25/25/25 23/23/23
f 29/29/29 25/25/25 27/27/27
f 31/31/31 29/29/29 27/27/27
f 33/33/33 29/29/29 31/31/31
f 35/35/35 33/33/33 31/31/31
f 37/37/37 33/33/33 35/35/35
f 39/39/39 37/37/37 35/35/35
f 41/41/41 37/37/37 39/39/39
f 43/43/43 41/41/41 39/39/39
f 45/45/45 41/41/41 43/43/43
f 47/47/47 45/45/45 43/43/43
f 49/49/49 45/45/45 47/47/47
f 51/51/51 49/49/49 47/47/47
f 53/53/53 49/49/49 51/51/51
f 55/55/55 53/53/53 51/51/51
f 57/57/57 53/53/53 55/55/55
f 59/59/59 57/57/57 55/55/55
