mtllib ./Road1_0_82.mtl
g SCutL11
v -173.8448 0.03 418.1284
v -173.8448 0.03 418.1284
v -176.4259 0.03 416.5994
v -176.4259 0.03 416.5994
v -171.9089 -0.35 419.2751
v -171.9089 -0.35 419.2751
v -173.8448 0.03 418.1284
v -173.8448 0.03 418.1284
v -175.9044 0.03 421.9083
v -175.9044 0.03 421.9083
v -178.6008 0.03 420.5932
v -178.6008 0.03 420.5932
v -173.8821 -0.35 422.8947
v -173.8821 -0.35 422.8947
v -175.9044 0.03 421.9083
v -175.9044 0.03 421.9083
v -177.6795 0.03 425.9188
v -177.6795 0.03 425.9188
v -180.4704 0.03 424.8185
v -180.4704 0.03 424.8185
v -175.5862 -0.35 426.744
v -175.5862 -0.35 426.744
v -177.6795 0.03 425.9188
v -177.6795 0.03 425.9188
v -179.0131 0.03 429.8541
v -179.0131 0.03 429.8541
v -181.903 0.03 429.0489
v -181.903 0.03 429.0489
v -176.8457 -0.35 430.458
v -176.8457 -0.35 430.458
v -179.0131 0.03 429.8541
v -179.0131 0.03 429.8541
v -179.7925 0.03 433.5706
v -179.7925 0.03 433.5706
v -182.7663 0.03 433.1755
v -182.7663 0.03 433.1755
v -177.5621 -0.35 433.867
v -177.5621 -0.35 433.867
v -179.7925 0.03 433.5706
v -179.7925 0.03 433.5706
v -179.9437 0.03 436.8896
v -179.9437 0.03 436.8896
v -182.9393 0.03 437.0521
v -182.9393 0.03 437.0521
v -177.697 -0.35 436.7676
v -177.697 -0.35 436.7676
v -179.9437 0.03 436.8896
v -179.9437 0.03 436.8896
v -179.4579 0.03 439.7603
v -179.4579 0.03 439.7603
v -182.3296 0.03 440.6281
v -182.3296 0.03 440.6281
v -177.3041 -0.35 439.1094
v -177.3041 -0.35 439.1094
v -179.4579 0.03 439.7603
v -179.4579 0.03 439.7603
v -178.3523 0.03 442.2181
v -178.3523 0.03 442.2181
v -180.9093 0.03 443.7871
v -180.9093 0.03 443.7871
v -176.4345 -0.35 441.0414
v -176.4345 -0.35 441.0414
v -178.3523 0.03 442.2181
v -178.3523 0.03 442.2181
v -176.4971 0.03 444.5518
v -176.4971 0.03 444.5518
v -178.6327 0.03 446.6587
v -178.6327 0.03 446.6587
v -174.8954 -0.35 442.9716
v -174.8954 -0.35 442.9716
v -176.4971 0.03 444.5518
v -176.4971 0.03 444.5518
v -173.8331 0.03 446.7968
v -173.8331 0.03 446.7968
v -175.5831 0.03 449.2335
v -175.5831 0.03 449.2335
v -172.5206 -0.35 444.9693
v -172.5206 -0.35 444.9693
v -173.8331 0.03 446.7968
v -173.8331 0.03 446.7968
v -170.4333 0.03 448.9346
v -170.4333 0.03 448.9346
v -171.9017 0.03 451.5507
v -171.9017 0.03 451.5507
v -169.3321 -0.35 446.9725
v -169.3321 -0.35 446.9725
v -170.4333 0.03 448.9346
v -170.4333 0.03 448.9346
v -166.4102 0.03 451.0221
v -166.4102 0.03 451.0221
v -167.735 0.03 453.7138
v -167.735 0.03 453.7138
v -165.4167 -0.35 449.0034
v -165.4167 -0.35 449.0034
v -166.4102 0.03 451.0221
v -166.4102 0.03 451.0221

vn 2.20672E-10 1 -3.725318E-10
vn 0 0 0
vn 1.99644E-10 1 -3.704662E-10
vn 0 0 0
vn 0.1463047 0.9860189 0.07975984
vn 0 0 0
vn 0.1463408 0.9860135 0.07975969
vn 0 0 0
vn 1.334952E-10 1 -2.477183E-10
vn 0 0 0
vn 6.029383E-11 1 -1.236224E-10
vn 0 0 0
vn 0.1483551 0.9860355 0.07566252
vn 0 0 0
vn 0.1503883 0.9860336 0.07156233
vn 0 0 0
vn 0 0.9999999 0
vn 0 0 0
vn 0 1 0
vn 0 0 0
vn 0.1541186 0.9860355 0.06309915
vn 0 0 0
vn 0.1559846 0.9860293 0.05843692
vn 0 0 0
vn -4.032201E-11 1 1.447113E-10
vn 0 0 0
vn -5.984698E-11 1 2.923486E-10
vn 0 0 0
vn 0.1595488 0.9860345 0.04774981
vn 0 0 0
vn 0.1614059 0.9860241 0.0412889
vn 0 0 0
vn -4.422974E-11 1 1.587358E-10
vn 0 0 0
vn -8.872711E-12 1 -1.634956E-10
vn 0 0 0
vn 0.1643989 0.9860315 0.02673787
vn 0 0 0
vn 0.1656988 0.9860163 0.01776758
vn 0 0 0
vn 2.437683E-11 0.9999999 -1.834617E-10
vn 0 0 0
vn 5.203893E-11 1 1.722092E-10
vn 0 0 0
vn 0.166582 0.9860255 -0.002078869
vn 0 0 0
vn 0.1660867 0.9860095 -0.01416316
vn 0 0 0
vn -4.77768E-11 1 8.389729E-12
vn 0 0 0
vn -2.56206E-10 1 -5.107676E-10
vn 0 0 0
vn 0.1618909 0.9860132 -0.03961491
vn 0 0 0
vn 0.1577914 0.9860229 -0.05348333
vn 0 0 0
vn -3.337162E-10 0.9999999 -7.434702E-10
vn 0 0 0
vn -1.940969E-10 1 -3.163267E-10
vn 0 0 0
vn 0.1456845 0.9860089 -0.08100811
vn 0 0 0
vn 0.1384086 0.9860312 -0.09265795
vn 0 0 0
vn 1.298869E-10 0.9999999 1.316554E-10
vn 0 0 0
vn 2.5435E-10 1 2.175168E-10
vn 0 0 0
vn 0.1226106 0.9860045 -0.1129678
vn 0 0 0
vn 0.1149479 0.9860358 -0.1205005
vn 0 0 0
vn 2.462391E-10 1 2.105805E-10
vn 0 0 0
vn 1.226814E-10 1 8.810949E-11
vn 0 0 0
vn 0.1007702 0.9860153 -0.1327379
vn 0 0 0
vn 0.09459188 0.9860378 -0.137047
vn 0 0 0
vn 0 1 0
vn 0 0 0
vn 0 1 0
vn 0 0 0
vn 0.08439968 0.9860251 -0.1436355
vn 0 0 0
vn 0.08044661 0.9860386 -0.1457956
vn 0 0 0
vn 0 1 0
vn 0 0 0
vn 0 0.9999999 0
vn 0 0 0
vn 0.07671669 0.9860258 -0.1478774
vn 0 0 0
vn 0.07671664 0.9860299 -0.1478498
vn 0 0 0

vt 0 0
vt 0 0
vt 0.5162293 -0.3057922
vt 0.5162293 -0.3057922
vt -0.3871704 0.2293457
vt -0.3871704 0.2293457
vt 0 0
vt 0 0
vt 0.4119324 0.7559814
vt 0.4119324 0.7559814
vt 0.9512085 0.4929627
vt 0.9512085 0.4929627
vt 0.007476807 0.9532532
vt 0.007476807 0.9532532
vt 0.4119324 0.7559814
vt 0.4119324 0.7559814
vt 0.7669403 1.558087
vt 0.7669403 1.558087
vt 1.325128 1.338031
vt 1.325128 1.338031
vt 0.3482971 1.723126
vt 0.3482971 1.723126
vt 0.7669403 1.558087
vt 0.7669403 1.558087
vt 1.033673 2.345142
vt 1.033673 2.345142
vt 1.611655 2.184094
vt 1.611655 2.184094
vt 0.6001862 2.46593
vt 0.6001862 2.46593
vt 1.033673 2.345142
vt 1.033673 2.345142
vt 1.189545 3.088446
vt 1.189545 3.088446
vt 1.784317 3.009418
vt 1.784317 3.009418
vt 0.7434662 3.147717
vt 0.7434662 3.147717
vt 1.189545 3.088446
vt 1.189545 3.088446
vt 1.219782 3.752234
vt 1.219782 3.752234
vt 1.8189 3.784747
vt 1.8189 3.784747
vt 0.7704437 3.727844
vt 0.7704437 3.727844
vt 1.219782 3.752234
vt 1.219782 3.752234
vt 1.122623 4.326374
vt 1.122623 4.326374
vt 1.696973 4.499933
vt 1.696973 4.499933
vt 0.691861 4.196204
vt 0.691861 4.196204
vt 1.122623 4.326374
vt 1.122623 4.326374
vt 0.9015015 4.817945
vt 0.9015015 4.817945
vt 1.412903 5.131738
vt 1.412903 5.131738
vt 0.5179505 4.582599
vt 0.5179505 4.582599
vt 0.9015015 4.817945
vt 0.9015015 4.817945
vt 0.5304718 5.284674
vt 0.5304718 5.284674
vt 0.9575958 5.706061
vt 0.9575958 5.706061
vt 0.2101288 4.96864
vt 0.2101288 4.96864
vt 0.5304718 5.284674
vt 0.5304718 5.284674
vt -0.002337646 5.733679
vt -0.002337646 5.733679
vt 0.3476654 6.221014
vt 0.3476654 6.221014
vt -0.2648377 5.368176
vt -0.2648377 5.368176
vt -0.002337646 5.733679
vt -0.002337646 5.733679
vt -0.6822815 6.161237
vt -0.6822815 6.161237
vt -0.38862 6.684461
vt -0.38862 6.684461
vt -0.9025269 5.768817
vt -0.9025269 5.768817
vt -0.6822815 6.161237
vt -0.6822815 6.161237
vt -1.486905 6.578742
vt -1.486905 6.578742
vt -1.22196 7.117078
vt -1.22196 7.117078
vt -1.685614 6.174994
vt -1.685614 6.174994
vt -1.486905 6.578742
vt -1.486905 6.578742

usemtl GSDShoulder1
usemap GSDShoulder1
f 9/9/9 1/1/1 3/3/3
f 11/11/11 9/9/9 3/3/3
f 13/13/13 5/5/5 7/7/7
f 15/15/15 13/13/13 7/7/7
f 17/17/17 9/9/9 11/11/11
f 19/19/19 17/17/17 11/11/11
f 21/21/21 13/13/13 15/15/15
f 23/23/23 21/21/21 15/15/15
f 25/25/25 17/17/17 19/19/19
f 27/27/27 25/25/25 19/19/19
f 29/29/29 21/21/21 23/23/23
f 31/31/31 29/29/29 23/23/23
f 33/33/33 25/25/25 27/27/27
f 35/35/35 33/33/33 27/27/27
f 37/37/37 29/29/29 31/31/31
f 39/39/39 37/37/37 31/31/31
f 41/41/41 33/33/33 35/35/35
f 43/43/43 41/41/41 35/35/35
f 45/45/45 37/37/37 39/39/39
f 47/47/47 45/45/45 39/39/39
f 49/49/49 41/41/41 43/43/43
f 51/51/51 49/49/49 43/43/43
f 53/53/53 45/45/45 47/47/47
f 55/55/55 53/53/53 47/47/47
f 57/57/57 49/49/49 51/51/51
f 59/59/59 57/57/57 51/51/51
f 61/61/61 53/53/53 55/55/55
f 63/63/63 61/61/61 55/55/55
f 65/65/65 57/57/57 59/59/59
f 67/67/67 65/65/65 59/59/59
f 69/69/69 61/61/61 63/63/63
f 71/71/71 69/69/69 63/63/63
f 73/73/73 65/65/65 67/67/67
f 75/75/75 73/73/73 67/67/67
f 77/77/77 69/69/69 71/71/71
f 79/79/79 77/77/77 71/71/71
f 81/81/81 73/73/73 75/75/75
f 83/83/83 81/81/81 75/75/75
f 85/85/85 77/77/77 79/79/79
f 87/87/87 85/85/85 79/79/79
f 89/89/89 81/81/81 83/83/83
f 91/91/91 89/89/89 83/83/83
f 93/93/93 85/85/85 87/87/87
f 95/95/95 93/93/93 87/87/87
