mtllib ./Road1_0_47.mtl
g Markers16
v -49.29011 0.04 149.5046
v -49.29011 0.04 149.5046
v -37.61066 0.04 146.7496
v -37.61066 0.04 146.7496
v -50.54022 0.04 145.2252
v -50.54022 0.04 145.2252
v -39.18099 0.04 141.3564
v -39.18099 0.04 141.3564
v -52.17298 0.04 141.0155
v -52.17298 0.04 141.0155
v -41.17158 0.04 136.2229
v -41.17158 0.04 136.2229
v -54.15937 0.04 136.9099
v -54.15937 0.04 136.9099
v -43.57024 0.04 131.2645
v -43.57024 0.04 131.2645
v -56.46235 0.04 132.9629
v -56.46235 0.04 132.9629
v -46.33584 0.04 126.5245
v -46.33584 0.04 126.5245
v -59.08236 0.04 129.1719
v -59.08236 0.04 129.1719
v -49.48123 0.04 121.9734
v -49.48123 0.04 121.9734
v -61.96928 0.04 125.6217
v -61.96928 0.04 125.6217
v -52.97128 0.04 117.6822
v -52.97128 0.04 117.6822
v -65.10194 0.04 122.3617
v -65.10194 0.04 122.3617
v -56.82731 0.04 113.6708
v -56.82731 0.04 113.6708
v -68.42735 0.04 119.4911
v -68.42735 0.04 119.4911
v -61.07589 0.04 110.0066
v -61.07589 0.04 110.0066
v -71.91232 0.04 117.1212
v -71.91232 0.04 117.1212
v -65.88516 0.04 106.7446
v -65.88516 0.04 106.7446
v -75.33847 0.04 115.5261
v -75.33847 0.04 115.5261
v -71.54778 0.04 104.1405
v -71.54778 0.04 104.1405

vn 9.605407E-11 1 4.071986E-10
vn 0 0 0
vn 1.02167E-10 1 3.553484E-10
vn 0 0 0
vn 2.934095E-11 1 1.24384E-10
vn 0 0 0
vn -4.761277E-11 0.9999999 -1.09295E-10
vn 0 0 0
vn -9.227416E-11 1 -2.382178E-10
vn 0 0 0
vn -4.780151E-11 1 -1.097282E-10
vn 0 0 0
vn 0 1 0
vn 0 0 0
vn 0 0.9999999 0
vn 0 0 0
vn 0 1 0
vn 0 0 0
vn 0 1 0
vn 0 0 0
vn -7.598309E-11 1 -1.013438E-10
vn 0 0 0
vn -1.503618E-10 0.9999999 -1.847401E-10
vn 0 0 0
vn -1.607623E-10 1 -1.975186E-10
vn 0 0 0
vn -7.898514E-11 1 -8.951535E-11
vn 0 0 0
vn 9.326823E-11 1 8.880167E-11
vn 0 0 0
vn 1.814358E-10 1 1.559876E-10
vn 0 0 0
vn 9.502066E-11 0.9999999 9.047018E-11
vn 0 0 0
vn -1.032067E-10 1 -5.994692E-11
vn 0 0 0
vn -1.069351E-10 1 -8.288531E-11
vn 0 0 0
vn 1.121641E-10 1 3.734383E-11
vn 0 0 0
vn 3.391804E-10 1 1.530193E-10
vn 0 0 0
vn 2.852609E-10 1 9.497458E-11
vn 0 0 0

vt 0 284.9925
vt 0 0
vt 1 284.9925
vt 0 0
vt 0 285.8842
vt 0 285.8842
vt 1 285.8842
vt 1 285.8842
vt 0 286.7872
vt 0 286.7872
vt 1 286.7872
vt 1 286.7872
vt 0 287.6994
vt 0 287.6994
vt 1 287.6994
vt 1 287.6994
vt 0 288.6133
vt 0 288.6133
vt 1 288.6133
vt 1 288.6133
vt 0 289.535
vt 0 289.535
vt 1 289.535
vt 1 289.535
vt 0 290.4501
vt 0 290.4501
vt 1 290.4501
vt 1 290.4501
vt 0 291.3544
vt 0 291.3544
vt 1 291.3544
vt 1 291.3544
vt 0 292.233
vt 0 292.233
vt 1 292.233
vt 1 292.233
vt 0 293.0759
vt 0 293.0759
vt 1 293.0759
vt 1 293.0759
vt 0 293.8317
vt 0 293.8317
vt 1 293.8317
vt 1 293.8317

usemtl GSDWhiteYellowDouble-4L
usemap GSDWhiteYellowDouble-4L
f 5/5/5 1/1/1 3/3/3
f 7/7/7 5/5/5 3/3/3
f 9/9/9 5/5/5 7/7/7
f 11/11/11 9/9/9 7/7/7
f 13/13/13 9/9/9 11/11/11
f 15/15/15 13/13/13 11/11/11
f 17/17/17 13/13/13 15/15/15
f 19/19/19 17/17/17 15/15/15
f 21/21/21 17/17/17 19/19/19
f 23/23/23 21/21/21 19/19/19
f 25/25/25 21/21/21 23/23/23
f 27/27/27 25/25/25 23/23/23
f 29/29/29 25/25/25 27/27/27
f 31/31/31 29/29/29 27/27/27
f 33/33/33 29/29/29 31/31/31
f 35/35/35 33/33/33 31/31/31
f 37/37/37 33/33/33 35/35/35
f 39/39/39 37/37/37 35/35/35
f 41/41/41 37/37/37 39/39/39
f 43/43/43 41/41/41 39/39/39
