mtllib ./Road2_1_35.mtl
g SCutL0
v -287.4265 5.1 156.0198
v -287.4265 5.1 156.0198
v -287.4657 5.1 152.8954
v -287.4657 5.1 152.8954
v -287.3978 4.052976 158.2998
v -287.3978 4.052976 158.2998
v -287.4265 5.1 156.0198
v -287.4265 5.1 156.0198
v -292.2482 4.912493 156.1853
v -292.2482 4.912493 156.1853
v -292.3552 4.912493 153.0179
v -292.3552 4.912493 153.0179
v -292.1708 3.863014 158.4752
v -292.1708 3.863014 158.4752
v -292.2482 4.912493 156.1853
v -292.2482 4.912493 156.1853
v -297.2057 4.721651 156.4088
v -297.2057 4.721651 156.4088
v -297.3416 4.721651 153.2107
v -297.3416 4.721651 153.2107
v -297.1081 3.489412 158.7058
v -297.1081 3.489412 158.7058
v -297.2057 4.721651 156.4088
v -297.2057 4.721651 156.4088
v -302.1784 4.530602 156.6566
v -302.1784 4.530602 156.6566
v -302.3294 4.530602 153.4346
v -302.3294 4.530602 153.4346
v -302.0705 3.26654 158.9593
v -302.0705 3.26654 158.9593
v -302.1784 4.530602 156.6566
v -302.1784 4.530602 156.6566
v -307.1759 4.338753 156.9167
v -307.1759 4.338753 156.9167
v -307.3351 4.338753 153.6755
v -307.3351 4.338753 153.6755
v -307.0626 3.042737 159.2242
v -307.0626 3.042737 159.2242
v -307.1759 4.338753 156.9167
v -307.1759 4.338753 156.9167
v -312.2041 4.145878 157.183
v -312.2041 4.145878 157.183
v -312.3674 4.145878 153.9257
v -312.3674 4.145878 153.9257
v -312.0882 2.858549 159.4943
v -312.0882 2.858549 159.4943
v -312.2041 4.145878 157.183
v -312.2041 4.145878 157.183
v -317.2179 3.953744 157.4485
v -317.2179 3.953744 157.4485
v -317.3826 3.953744 154.178
v -317.3826 3.953744 154.178
v -317.1013 2.638329 159.7632
v -317.1013 2.638329 159.7632
v -317.2179 3.953744 157.4485
v -317.2179 3.953744 157.4485
v -322.269 3.760424 157.713
v -322.269 3.760424 157.713
v -322.4329 3.760424 154.4314
v -322.4329 3.760424 154.4314
v -322.1533 2.419131 160.0305
v -322.1533 2.419131 160.0305
v -322.269 3.760424 157.713
v -322.269 3.760424 157.713
v -327.3045 3.568003 157.9713
v -327.3045 3.568003 157.9713
v -327.4659 3.568003 154.6806
v -327.4659 3.568003 154.6806
v -327.1908 2.199592 160.291
v -327.1908 2.199592 160.291
v -327.3045 3.568003 157.9713
v -327.3045 3.568003 157.9713
v -332.3489 3.375602 158.2225
v -332.3489 3.375602 158.2225
v -332.5063 3.375602 154.9246
v -332.5063 3.375602 154.9246
v -332.2382 1.946909 160.5442
v -332.2382 1.946909 160.5442
v -332.3489 3.375602 158.2225
v -332.3489 3.375602 158.2225
v -337.3677 3.18459 158.4632
v -337.3677 3.18459 158.4632
v -337.5197 3.18459 155.1596
v -337.5197 3.18459 155.1596
v -337.2608 1.732005 160.7865
v -337.2608 1.732005 160.7865
v -337.3677 3.18459 158.4632
v -337.3677 3.18459 158.4632
v -342.4032 2.993423 158.6937
v -342.4032 2.993423 158.6937
v -342.5485 2.993423 155.3859
v -342.5485 2.993423 155.3859
v -342.3011 1.732005 161.0182
v -342.3011 1.732005 161.0182
v -342.4032 2.993423 158.6937
v -342.4032 2.993423 158.6937
v -347.4312 2.80308 158.9112
v -347.4312 2.80308 158.9112
v -347.5686 2.80308 155.6006
v -347.5686 2.80308 155.6006
v -347.3346 1.518856 161.2365
v -347.3346 1.518856 161.2365
v -347.4312 2.80308 158.9112
v -347.4312 2.80308 158.9112
v -352.5031 2.611695 159.1158
v -352.5031 2.611695 159.1158
v -352.6312 2.611695 155.8038
v -352.6312 2.611695 155.8038
v -352.4131 1.307778 161.4416
v -352.4131 1.307778 161.4416
v -352.5031 2.611695 159.1158
v -352.5031 2.611695 159.1158
v -357.5995 2.420102 159.3045
v -357.5995 2.420102 159.3045
v -357.7169 2.420102 155.9925
v -357.7169 2.420102 155.9925
v -357.5171 1.099192 161.6305
v -357.5171 1.099192 161.6305
v -357.5995 2.420102 159.3045
v -357.5995 2.420102 159.3045
v -362.7005 2.229146 159.4742
v -362.7005 2.229146 159.4742
v -362.8055 2.229146 156.1635
v -362.8055 2.229146 156.1635
v -362.6268 0.9276185 161.8001
v -362.6268 0.9276185 161.8001
v -362.7005 2.229146 159.4742
v -362.7005 2.229146 159.4742
v -367.7867 2.039666 159.6218
v -367.7867 2.039666 159.6218
v -367.8775 2.039666 156.3138
v -367.8775 2.039666 156.3138
v -367.7228 0.7251821 161.9472
v -367.7228 0.7251821 161.9472
v -367.7867 2.039666 159.6218
v -367.7867 2.039666 159.6218
v -372.8384 1.852506 159.7442
v -372.8384 1.852506 159.7442
v -372.9132 1.852506 156.4402
v -372.9132 1.852506 156.4402
v -372.7857 0.7251821 162.0687
v -372.7857 0.7251821 162.0687
v -372.8384 1.852506 159.7442
v -372.8384 1.852506 159.7442
v -377.9084 1.665867 159.8393
v -377.9084 1.665867 159.8393
v -377.9648 1.665867 156.541
v -377.9648 1.665867 156.541
v -377.8687 0.5274343 162.1626
v -377.8687 0.5274343 162.1626
v -377.9084 1.665867 159.8393
v -377.9084 1.665867 159.8393
v -382.9739 1.480787 159.9026
v -382.9739 1.480787 159.9026
v -383.0091 1.480787 156.6115
v -383.0091 1.480787 156.6115
v -382.9491 0.3358135 162.2243
v -382.9491 0.3358135 162.2243
v -382.9739 1.480787 159.9026
v -382.9739 1.480787 159.9026
v -388.0797 1.295888 159.9291
v -388.0797 1.295888 159.9291
v -388.09 1.295888 156.6472
v -388.09 1.295888 156.6472
v -388.0725 0.1822176 162.2486
v -388.0725 0.1822176 162.2486
v -388.0797 1.295888 159.9291
v -388.0797 1.295888 159.9291
v -393.1944 1.11266 159.9117
v -393.1944 1.11266 159.9117
v -393.1752 1.11266 156.641
v -393.1752 1.11266 156.641
v -393.208 0.008117199 162.2284
v -393.208 0.008117199 162.2284
v -393.1944 1.11266 159.9117
v -393.1944 1.11266 159.9117
v -398.348 0.9304953 159.8411
v -398.348 0.9304953 159.8411
v -398.2932 0.9304953 156.584
v -398.2932 0.9304953 156.584
v -398.3868 -0.04782867 162.1541
v -398.3868 -0.04782867 162.1541
v -398.348 0.9304953 159.8411
v -398.348 0.9304953 159.8411
v -403.4941 0.751668 159.7055
v -403.4941 0.751668 159.7055
v -403.3959 0.751668 156.4652
v -403.3959 0.751668 156.4652
v -403.5641 -0.04782867 162.014
v -403.5641 -0.04782867 162.014
v -403.4941 0.751668 159.7055
v -403.4941 0.751668 159.7055
v -408.6992 0.5748382 159.4858
v -408.6992 0.5748382 159.4858
v -408.5454 0.5748382 156.2664
v -408.5454 0.5748382 156.2664
v -408.8091 -0.2696486 161.788
v -408.8091 -0.2696486 161.788
v -408.6992 0.5748382 159.4858
v -408.6992 0.5748382 159.4858
v -413.9398 0.4023461 159.155
v -413.9398 0.4023461 159.155
v -413.7126 0.4023461 155.9625
v -413.7126 0.4023461 155.9625
v -414.1031 -0.2696486 161.4485
v -414.1031 -0.2696486 161.4485
v -413.9398 0.4023461 159.155
v -413.9398 0.4023461 159.155
v -419.2693 0.2351499 158.6638
v -419.2693 0.2351499 158.6638
v -418.9376 0.2351499 155.5081
v -418.9376 0.2351499 155.5081
v -419.509 -0.3356638 160.9437
v -419.509 -0.3356638 160.9437
v -419.2693 0.2351499 158.6638
v -419.2693 0.2351499 158.6638
v -424.7252 0.07752228 157.9191
v -424.7252 0.07752228 157.9191
v -424.2293 0.07752228 154.8199
v -424.2293 0.07752228 154.8199
v -425.0861 -0.2696486 160.1743
v -425.0861 -0.2696486 160.1743
v -424.7252 0.07752228 157.9191
v -424.7252 0.07752228 157.9191

vn -0.03884194 0.9992453 0.0004882773
vn 0 0 0
vn -0.03856156 0.9992558 0.0008964802
vn 0 0 0
vn -0.02080982 0.9084597 0.4174541
vn 0 0 0
vn -0.02091478 0.9085335 0.4172884
vn 0 0 0
vn -0.03850948 0.9992577 0.001032678
vn 0 0 0
vn -0.03829228 0.9992657 0.001406096
vn 0 0 0
vn -0.03053972 0.9082107 0.4173976
vn 0 0 0
vn -0.02746905 0.8991526 0.4367724
vn 0 0 0
vn -0.03829937 0.9992652 0.001516965
vn 0 0 0
vn -0.0382288 0.9992676 0.001680231
vn 0 0 0
vn -0.02543282 0.8899739 0.4553015
vn 0 0 0
vn -0.01254138 0.8793808 0.475954
vn 0 0 0
vn -0.03825751 0.9992664 0.00173709
vn 0 0 0
vn -0.03822339 0.9992676 0.00181978
vn 0 0 0
vn -0.01292546 0.8778239 0.4788089
vn 0 0 0
vn -0.01044657 0.8747754 0.4844161
vn 0 0 0
vn -0.03823525 0.999267 0.001849308
vn 0 0 0
vn -0.03821412 0.9992678 0.001890153
vn 0 0 0
vn -0.009079457 0.8732349 0.4872148
vn 0 0 0
vn -0.007095481 0.872298 0.4889233
vn 0 0 0
vn -0.03820889 0.9992679 0.001902884
vn 0 0 0
vn -0.03819394 0.9992685 0.001917785
vn 0 0 0
vn -0.008524612 0.8728389 0.487934
vn 0 0 0
vn -0.009027381 0.8720012 0.4894205
vn 0 0 0
vn -0.03817395 0.9992692 0.001919433
vn 0 0 0
vn -0.0381619 0.9992698 0.001916081
vn 0 0 0
vn -0.01030503 0.8705496 0.4919727
vn 0 0 0
vn -0.008516164 0.8678866 0.4966893
vn 0 0 0
vn -0.03812904 0.999271 0.001909102
vn 0 0 0
vn -0.03811804 0.9992715 0.001891801
vn 0 0 0
vn -0.01006069 0.8665372 0.499011
vn 0 0 0
vn -0.008492005 0.8638839 0.5036195
vn 0 0 0
vn -0.03807317 0.9992732 0.001878166
vn 0 0 0
vn -0.03806292 0.9992737 0.001849398
vn 0 0 0
vn -0.01207037 0.8623806 0.5061166
vn 0 0 0
vn -0.01025012 0.8578363 0.5138208
vn 0 0 0
vn -0.03800765 0.9992758 0.001829907
vn 0 0 0
vn -0.03799742 0.9992763 0.001791074
vn 0 0 0
vn -0.01167245 0.8545852 0.5191799
vn 0 0 0
vn -0.008104855 0.8502163 0.5263712
vn 0 0 0
vn -0.03793083 0.9992788 0.001766404
vn 0 0 0
vn -0.0379198 0.9992794 0.001718381
vn 0 0 0
vn 0.002167029 0.8491982 0.5280699
vn 0 0 0
vn 0.002170107 0.8584104 0.5129588
vn 0 0 0
vn -0.03784235 0.9992823 0.001688926
vn 0 0 0
vn -0.03783052 0.9992828 0.001631856
vn 0 0 0
vn -0.0009165592 0.868687 0.4953606
vn 0 0 0
vn -0.01340049 0.8774163 0.4795424
vn 0 0 0
vn -0.03774091 0.9992862 0.001597391
vn 0 0 0
vn -0.0377277 0.9992869 0.001530658
vn 0 0 0
vn -0.01517578 0.8761783 0.4817481
vn 0 0 0
vn -0.01406588 0.8740057 0.4857121
vn 0 0 0
vn -0.03762501 0.9992908 0.001490958
vn 0 0 0
vn -0.0376094 0.9992915 0.001413992
vn 0 0 0
vn -0.01583299 0.872927 0.4875939
vn 0 0 0
vn -0.01502162 0.8710297 0.4910006
vn 0 0 0
vn -0.03749177 0.9992961 0.001368972
vn 0 0 0
vn -0.0374739 0.9992968 0.001281129
vn 0 0 0
vn -0.01489203 0.8701384 0.4925824
vn 0 0 0
vn -0.01452001 0.8702947 0.4923173
vn 0 0 0
vn -0.03733962 0.9993019 0.001230201
vn 0 0 0
vn -0.03731847 0.9993029 0.001130348
vn 0 0 0
vn -0.01656835 0.8712772 0.4905117
vn 0 0 0
vn -0.0183553 0.871571 0.4899255
vn 0 0 0
vn -0.03716502 0.9993086 0.001073185
vn 0 0 0
vn -0.03714029 0.9993095 0.0009604641
vn 0 0 0
vn -0.008991876 0.8710972 0.4910283
vn 0 0 0
vn -0.009557856 0.8802875 0.4743443
vn 0 0 0
vn -0.03696303 0.9993162 0.0008964773
vn 0 0 0
vn -0.03693301 0.9993174 0.000768182
vn 0 0 0
vn -0.01236665 0.8900383 0.455718
vn 0 0 0
vn -0.02481613 0.8986996 0.4378622
vn 0 0 0
vn -0.03672846 0.999325 0.0006959953
vn 0 0 0
vn -0.03669164 0.9993265 0.000549011
vn 0 0 0
vn -0.02673552 0.8980646 0.4390504
vn 0 0 0
vn -0.02683949 0.8971331 0.4409443
vn 0 0 0
vn -0.03645042 0.9993353 0.0004673621
vn 0 0 0
vn -0.03640394 0.9993371 0.0002973648
vn 0 0 0
vn -0.0268299 0.8967779 0.4416668
vn 0 0 0
vn -0.02745161 0.8979836 0.4391717
vn 0 0 0
vn -0.03611794 0.9993475 0.0002042811
vn 0 0 0
vn -0.03605808 0.9993497 5.250075E-06
vn 0 0 0
vn -0.0291256 0.8995003 0.4359485
vn 0 0 0
vn -0.03213702 0.901403 0.431787
vn 0 0 0
vn -0.0357092 0.9993622 -0.0001018517
vn 0 0 0
vn -0.03562977 0.999365 -0.0003380909
vn 0 0 0
vn -0.02728316 0.9019517 0.4309742
vn 0 0 0
vn -0.02910579 0.9086233 0.4166009
vn 0 0 0
vn -0.03519914 0.9993803 -0.0004618274
vn 0 0 0
vn -0.03509156 0.9993839 -0.0007460173
vn 0 0 0
vn -0.0213864 0.9148992 0.4031155
vn 0 0 0
vn -0.02981883 0.9290959 0.3686348
vn 0 0 0
vn -0.03453739 0.999403 -0.0008901181
vn 0 0 0
vn -0.03438503 0.9994078 -0.001240405
vn 0 0 0
vn -0.03517235 0.9370522 0.3474132
vn 0 0 0
vn -0.04726698 0.9424052 0.331117
vn 0 0 0
vn -0.03365058 0.9994326 -0.00140865
vn 0 0 0
vn -0.03342241 0.9994397 -0.001853354
vn 0 0 0
vn -0.04067511 0.940632 0.3369823
vn 0 0 0
vn -0.03901589 0.9460811 0.3215719
vn 0 0 0
vn -0.03238076 0.9994735 -0.002048054
vn 0 0 0
vn -0.0320133 0.9994839 -0.002634558
vn 0 0 0
vn -0.03615673 0.9531701 0.3002657
vn 0 0 0
vn -0.04630262 0.9632295 0.26466
vn 0 0 0
vn -0.0304139 0.9995334 -0.002843884
vn 0 0 0
vn -0.02975487 0.9995505 -0.003655262
vn 0 0 0
vn -0.03700636 0.9669433 0.2522917
vn 0 0 0
vn -0.04050535 0.9772587 0.2081458
vn 0 0 0
vn -0.02881185 0.9995776 -0.003812594
vn 0 0 0
vn -0.02916759 0.9995636 -0.004667469
vn 0 0 0
vn -0.03474393 0.9804162 0.1938474
vn 0 0 0
vn -0.04826757 0.9883389 0.1444185
vn 0 0 0

vt 0 0
vt 0 0
vt 0.007855224 -0.6248749
vt 0.007855224 -0.6248749
vt -0.005731201 0.4559906
vt -0.005731201 0.4559906
vt 0 0
vt 0 0
vt 0.9643432 0.03309631
vt 0.9643432 0.03309631
vt 0.9857422 -0.6003785
vt 0.9857422 -0.6003785
vt 0.9488708 0.4910828
vt 0.9488708 0.4910828
vt 0.9643432 0.03309631
vt 0.9643432 0.03309631
vt 1.955853 0.07778931
vt 1.955853 0.07778931
vt 1.983032 -0.5618286
vt 1.983032 -0.5618286
vt 1.936334 0.5372071
vt 1.936334 0.5372071
vt 1.955853 0.07778931
vt 1.955853 0.07778931
vt 2.950397 0.1273499
vt 2.950397 0.1273499
vt 2.980585 -0.5170349
vt 2.980585 -0.5170349
vt 2.928815 0.5879028
vt 2.928815 0.5879028
vt 2.950397 0.1273499
vt 2.950397 0.1273499
vt 3.94989 0.1793884
vt 3.94989 0.1793884
vt 3.981732 -0.468869
vt 3.981732 -0.468869
vt 3.927222 0.6408722
vt 3.927222 0.6408722
vt 3.94989 0.1793884
vt 3.94989 0.1793884
vt 4.95553 0.2326355
vt 4.95553 0.2326355
vt 4.988196 -0.4188294
vt 4.988196 -0.4188294
vt 4.932343 0.6949036
vt 4.932343 0.6949036
vt 4.95553 0.2326355
vt 4.95553 0.2326355
vt 5.958289 0.2857452
vt 5.958289 0.2857452
vt 5.991223 -0.3683655
vt 5.991223 -0.3683655
vt 5.934979 0.7486755
vt 5.934979 0.7486755
vt 5.958289 0.2857452
vt 5.958289 0.2857452
vt 6.968512 0.3386475
vt 6.968512 0.3386475
vt 7.001282 -0.3176758
vt 7.001282 -0.3176758
vt 6.945374 0.8021362
vt 6.945374 0.8021362
vt 6.968512 0.3386475
vt 6.968512 0.3386475
vt 7.975616 0.3902924
vt 7.975616 0.3902924
vt 8.007886 -0.2678375
vt 8.007886 -0.2678375
vt 7.952875 0.854245
vt 7.952875 0.854245
vt 7.975616 0.3902924
vt 7.975616 0.3902924
vt 8.984497 0.4405426
vt 8.984497 0.4405426
vt 9.015961 -0.219043
vt 9.015961 -0.219043
vt 8.962348 0.9048828
vt 8.962348 0.9048828
vt 8.984497 0.4405426
vt 8.984497 0.4405426
vt 9.988251 0.4886841
vt 9.988251 0.4886841
vt 10.01865 -0.1720337
vt 10.01865 -0.1720337
vt 9.966876 0.9533295
vt 9.966876 0.9533295
vt 9.988251 0.4886841
vt 9.988251 0.4886841
vt 10.99534 0.534784
vt 10.99534 0.534784
vt 11.02441 -0.1267731
vt 11.02441 -0.1267731
vt 10.97492 0.9996704
vt 10.97492 0.9996704
vt 10.99534 0.534784
vt 10.99534 0.534784
vt 12.00094 0.5782745
vt 12.00094 0.5782745
vt 12.02843 -0.08383789
vt 12.02843 -0.08383789
vt 11.98164 1.043329
vt 11.98164 1.043329
vt 12.00094 0.5782745
vt 12.00094 0.5782745
vt 13.01533 0.6191986
vt 13.01533 0.6191986
vt 13.04095 -0.04319763
vt 13.04095 -0.04319763
vt 12.99734 1.08436
vt 12.99734 1.08436
vt 13.01533 0.6191986
vt 13.01533 0.6191986
vt 14.03461 0.6569428
vt 14.03461 0.6569428
vt 14.05808 -0.005465698
vt 14.05808 -0.005465698
vt 14.01813 1.122144
vt 14.01813 1.122144
vt 14.03461 0.6569428
vt 14.03461 0.6569428
vt 15.05482 0.6908844
vt 15.05482 0.6908844
vt 15.07581 0.0287384
vt 15.07581 0.0287384
vt 15.04008 1.156058
vt 15.04008 1.156058
vt 15.05482 0.6908844
vt 15.05482 0.6908844
vt 16.07205 0.720401
vt 16.07205 0.720401
vt 16.09021 0.05879517
vt 16.09021 0.05879517
vt 16.05927 1.18548
vt 16.05927 1.18548
vt 16.07205 0.720401
vt 16.07205 0.720401
vt 17.08239 0.744873
vt 17.08239 0.744873
vt 17.09735 0.08408814
vt 17.09735 0.08408814
vt 17.07186 1.209784
vt 17.07186 1.209784
vt 17.08239 0.744873
vt 17.08239 0.744873
vt 18.0964 0.7639038
vt 18.0964 0.7639038
vt 18.10767 0.104245
vt 18.10767 0.104245
vt 18.08845 1.228567
vt 18.08845 1.228567
vt 18.0964 0.7639038
vt 18.0964 0.7639038
vt 19.10949 0.7765595
vt 19.10949 0.7765595
vt 19.11652 0.1183472
vt 19.11652 0.1183472
vt 19.10453 1.240891
vt 19.10453 1.240891
vt 19.10949 0.7765595
vt 19.10949 0.7765595
vt 20.13066 0.7818665
vt 20.13066 0.7818665
vt 20.13271 0.1254761
vt 20.13271 0.1254761
vt 20.12921 1.245764
vt 20.12921 1.245764
vt 20.13066 0.7818665
vt 20.13066 0.7818665
vt 21.15358 0.7783844
vt 21.15358 0.7783844
vt 21.14975 0.124231
vt 21.14975 0.124231
vt 21.15631 1.241724
vt 21.15631 1.241724
vt 21.15358 0.7783844
vt 21.15358 0.7783844
vt 22.1843 0.7642517
vt 22.1843 0.7642517
vt 22.17336 0.1128418
vt 22.17336 0.1128418
vt 22.19207 1.226868
vt 22.19207 1.226868
vt 22.1843 0.7642517
vt 22.1843 0.7642517
vt 23.21354 0.737146
vt 23.21354 0.737146
vt 23.1939 0.08908387
vt 23.1939 0.08908387
vt 23.22753 1.198837
vt 23.22753 1.198837
vt 23.21354 0.737146
vt 23.21354 0.737146
vt 24.25454 0.6931915
vt 24.25454 0.6931915
vt 24.2238 0.04931946
vt 24.2238 0.04931946
vt 24.27653 1.153638
vt 24.27653 1.153638
vt 24.25454 0.6931915
vt 24.25454 0.6931915
vt 25.30267 0.6270447
vt 25.30267 0.6270447
vt 25.25722 -0.0114563
vt 25.25722 -0.0114563
vt 25.33533 1.085742
vt 25.33533 1.085742
vt 25.30267 0.6270447
vt 25.30267 0.6270447
vt 26.36857 0.5287964
vt 26.36857 0.5287964
vt 26.30222 -0.1023499
vt 26.30222 -0.1023499
vt 26.41652 0.9847839
vt 26.41652 0.9847839
vt 26.36857 0.5287964
vt 26.36857 0.5287964
vt 27.45975 0.3798493
vt 27.45975 0.3798493
vt 27.36057 -0.2399902
vt 27.36057 -0.2399902
vt 27.53193 0.8309051
vt 27.53193 0.8309051
vt 27.45975 0.3798493
vt 27.45975 0.3798493

usemtl GSDShoulder1
usemap GSDShoulder1
f 9/9/9 1/1/1 3/3/3
f 11/11/11 9/9/9 3/3/3
f 13/13/13 5/5/5 7/7/7
f 15/15/15 13/13/13 7/7/7
f 17/17/17 9/9/9 11/11/11
f 19/19/19 17/17/17 11/11/11
f 21/21/21 13/13/13 15/15/15
f 23/23/23 21/21/21 15/15/15
f 25/25/25 17/17/17 19/19/19
f 27/27/27 25/25/25 19/19/19
f 29/29/29 21/21/21 23/23/23
f 31/31/31 29/29/29 23/23/23
f 33/33/33 25/25/25 27/27/27
f 35/35/35 33/33/33 27/27/27
f 37/37/37 29/29/29 31/31/31
f 39/39/39 37/37/37 31/31/31
f 41/41/41 33/33/33 35/35/35
f 43/43/43 41/41/41 35/35/35
f 45/45/45 37/37/37 39/39/39
f 47/47/47 45/45/45 39/39/39
f 49/49/49 41/41/41 43/43/43
f 51/51/51 49/49/49 43/43/43
f 53/53/53 45/45/45 47/47/47
f 55/55/55 53/53/53 47/47/47
f 57/57/57 49/49/49 51/51/51
f 59/59/59 57/57/57 51/51/51
f 61/61/61 53/53/53 55/55/55
f 63/63/63 61/61/61 55/55/55
f 65/65/65 57/57/57 59/59/59
f 67/67/67 65/65/65 59/59/59
f 69/69/69 61/61/61 63/63/63
f 71/71/71 69/69/69 63/63/63
f 73/73/73 65/65/65 67/67/67
f 75/75/75 73/73/73 67/67/67
f 77/77/77 69/69/69 71/71/71
f 79/79/79 77/77/77 71/71/71
f 81/81/81 73/73/73 75/75/75
f 83/83/83 81/81/81 75/75/75
f 85/85/85 77/77/77 79/79/79
f 87/87/87 85/85/85 79/79/79
f 89/89/89 81/81/81 83/83/83
f 91/91/91 89/89/89 83/83/83
f 93/93/93 85/85/85 87/87/87
f 95/95/95 93/93/93 87/87/87
f 97/97/97 89/89/89 91/91/91
f 99/99/99 97/97/97 91/91/91
f 101/101/101 93/93/93 95/95/95
f 103/103/103 101/101/101 95/95/95
f 105/105/105 97/97/97 99/99/99
f 107/107/107 105/105/105 99/99/99
f 109/109/109 101/101/101 103/103/103
f 111/111/111 109/109/109 103/103/103
f 113/113/113 105/105/105 107/107/107
f 115/115/115 113/113/113 107/107/107
f 117/117/117 109/109/109 111/111/111
f 119/119/119 117/117/117 111/111/111
f 121/121/121 113/113/113 115/115/115
f 123/123/123 121/121/121 115/115/115
f 125/125/125 117/117/117 119/119/119
f 127/127/127 125/125/125 119/119/119
f 129/129/129 121/121/121 123/123/123
f 131/131/131 129/129/129 123/123/123
f 133/133/133 125/125/125 127/127/127
f 135/135/135 133/133/133 127/127/127
f 137/137/137 129/129/129 131/131/131
f 139/139/139 137/137/137 131/131/131
f 141/141/141 133/133/133 135/135/135
f 143/143/143 141/141/141 135/135/135
f 145/145/145 137/137/137 139/139/139
f 147/147/147 145/145/145 139/139/139
f 149/149/149 141/141/141 143/143/143
f 151/151/151 149/149/149 143/143/143
f 153/153/153 145/145/145 147/147/147
f 155/155/155 153/153/153 147/147/147
f 157/157/157 149/149/149 151/151/151
f 159/159/159 157/157/157 151/151/151
f 161/161/161 153/153/153 155/155/155
f 163/163/163 161/161/161 155/155/155
f 165/165/165 157/157/157 159/159/159
f 167/167/167 165/165/165 159/159/159
f 169/169/169 161/161/161 163/163/163
f 171/171/171 169/169/169 163/163/163
f 173/173/173 165/165/165 167/167/167
f 175/175/175 173/173/173 167/167/167
f 177/177/177 169/169/169 171/171/171
f 179/179/179 177/177/177 171/171/171
f 181/181/181 173/173/173 175/175/175
f 183/183/183 181/181/181 175/175/175
f 185/185/185 177/177/177 179/179/179
f 187/187/187 185/185/185 179/179/179
f 189/189/189 181/181/181 183/183/183
f 191/191/191 189/189/189 183/183/183
f 193/193/193 185/185/185 187/187/187
f 195/195/195 193/193/193 187/187/187
f 197/197/197 189/189/189 191/191/191
f 199/199/199 197/197/197 191/191/191
f 201/201/201 193/193/193 195/195/195
f 203/203/203 201/201/201 195/195/195
f 205/205/205 197/197/197 199/199/199
f 207/207/207 205/205/205 199/199/199
f 209/209/209 201/201/201 203/203/203
f 211/211/211 209/209/209 203/203/203
f 213/213/213 205/205/205 207/207/207
f 215/215/215 213/213/213 207/207/207
f 217/217/217 209/209/209 211/211/211
f 219/219/219 217/217/217 211/211/211
f 221/221/221 213/213/213 215/215/215
f 223/223/223 221/221/221 215/215/215
