mtllib ./Road1_0_52.mtl
g SCutR0
v -432.9681 0.03 444.578
v -432.9681 0.03 444.578
v -433.2249 0.03 447.567
v -433.2249 0.03 447.567
v -433.2249 0.03 447.567
v -433.2249 0.03 447.567
v -433.4174 -0.35 449.8087
v -433.4174 -0.35 449.8087
v -428.17 0.03 445.098
v -428.17 0.03 445.098
v -428.5366 0.03 448.0755
v -428.5366 0.03 448.0755
v -428.5366 0.03 448.0755
v -428.5366 0.03 448.0755
v -428.8116 -0.35 450.3086
v -428.8116 -0.35 450.3086
v -423.2714 0.03 445.7391
v -423.2714 0.03 445.7391
v -423.6779 0.03 448.7115
v -423.6779 0.03 448.7115
v -423.6779 0.03 448.7115
v -423.6779 0.03 448.7115
v -423.9827 -0.35 450.9407
v -423.9827 -0.35 450.9407
v -418.3283 0.03 446.4323
v -418.3283 0.03 446.4323
v -418.7527 0.03 449.4021
v -418.7527 0.03 449.4021
v -418.7527 0.03 449.4021
v -418.7527 0.03 449.4021
v -419.0711 -0.35 451.6295
v -419.0711 -0.35 451.6295
v -413.3807 0.03 447.1471
v -413.3807 0.03 447.1471
v -413.8129 0.03 450.1158
v -413.8129 0.03 450.1158
v -413.8129 0.03 450.1158
v -413.8129 0.03 450.1158
v -414.1371 -0.35 452.3423
v -414.1371 -0.35 452.3423
v -408.3745 0.03 447.8781
v -408.3745 0.03 447.8781
v -408.8084 0.03 450.8465
v -408.8084 0.03 450.8465
v -408.8084 0.03 450.8465
v -408.8084 0.03 450.8465
v -409.1338 -0.35 453.0729
v -409.1338 -0.35 453.0729
v -403.4169 0.03 448.6009
v -403.4169 0.03 448.6009
v -403.8482 0.03 451.5698
v -403.8482 0.03 451.5698
v -403.8482 0.03 451.5698
v -403.8482 0.03 451.5698
v -404.1717 -0.35 453.7964
v -404.1717 -0.35 453.7964
v -398.419 0.03 449.3226
v -398.419 0.03 449.3226
v -398.8446 0.03 452.2922
v -398.8446 0.03 452.2922
v -398.8446 0.03 452.2922
v -398.8446 0.03 452.2922
v -399.1638 -0.35 454.5195
v -399.1638 -0.35 454.5195
v -393.4343 0.03 450.0302
v -393.4343 0.03 450.0302
v -393.8515 0.03 453.001
v -393.8515 0.03 453.001
v -393.8515 0.03 453.001
v -393.8515 0.03 453.001
v -394.1644 -0.35 455.2291
v -394.1644 -0.35 455.2291
v -388.4171 0.03 450.7256
v -388.4171 0.03 450.7256
v -388.8234 0.03 453.698
v -388.8234 0.03 453.698
v -388.8234 0.03 453.698
v -388.8234 0.03 453.698
v -389.1281 -0.35 455.9273
v -389.1281 -0.35 455.9273
v -383.4023 0.03 451.3999
v -383.4023 0.03 451.3999
v -383.7952 0.03 454.3741
v -383.7952 0.03 454.3741
v -383.7952 0.03 454.3741
v -383.7952 0.03 454.3741
v -384.0899 -0.35 456.6047
v -384.0899 -0.35 456.6047
v -378.327 0.03 452.0569
v -378.327 0.03 452.0569
v -378.7038 0.03 455.0331
v -378.7038 0.03 455.0331
v -378.7038 0.03 455.0331
v -378.7038 0.03 455.0331
v -378.9864 -0.35 457.2653
v -378.9864 -0.35 457.2653
v -373.3135 0.03 452.6761
v -373.3135 0.03 452.6761
v -373.6717 0.03 455.6546
v -373.6717 0.03 455.6546
v -373.6717 0.03 455.6546
v -373.6717 0.03 455.6546
v -373.9403 -0.35 457.8885
v -373.9403 -0.35 457.8885
v -368.2936 0.03 453.2616
v -368.2936 0.03 453.2616
v -368.63 0.03 456.2427
v -368.63 0.03 456.2427
v -368.63 0.03 456.2427
v -368.63 0.03 456.2427
v -368.8823 -0.35 458.4785
v -368.8823 -0.35 458.4785
v -363.1987 0.03 453.8147
v -363.1987 0.03 453.8147
v -363.5093 0.03 456.7986
v -363.5093 0.03 456.7986
v -363.5093 0.03 456.7986
v -363.5093 0.03 456.7986
v -363.7422 -0.35 459.0365
v -363.7422 -0.35 459.0365
v -358.1501 0.03 454.3152
v -358.1501 0.03 454.3152
v -358.4307 0.03 457.3021
v -358.4307 0.03 457.3021
v -358.4307 0.03 457.3021
v -358.4307 0.03 457.3021
v -358.6411 -0.35 459.5422
v -358.6411 -0.35 459.5422
v -353.0828 0.03 454.7616
v -353.0828 0.03 454.7616
v -353.3277 0.03 457.7516
v -353.3277 0.03 457.7516
v -353.3277 0.03 457.7516
v -353.3277 0.03 457.7516
v -353.5114 -0.35 459.9941
v -353.5114 -0.35 459.9941
v -347.9397 0.03 455.1465
v -347.9397 0.03 455.1465
v -348.1411 0.03 458.1397
v -348.1411 0.03 458.1397
v -348.1411 0.03 458.1397
v -348.1411 0.03 458.1397
v -348.2923 -0.35 460.3846
v -348.2923 -0.35 460.3846
v -342.7636 0.03 455.4501
v -342.7636 0.03 455.4501
v -342.9117 0.03 458.4465
v -342.9117 0.03 458.4465
v -342.9117 0.03 458.4465
v -342.9117 0.03 458.4465
v -343.0227 -0.35 460.6938
v -343.0227 -0.35 460.6938
v -337.6032 0.03 455.6499
v -337.6032 0.03 455.6499
v -337.6846 0.03 458.6488
v -337.6846 0.03 458.6488
v -337.6846 0.03 458.6488
v -337.6846 0.03 458.6488
v -337.7456 -0.35 460.8979
v -337.7456 -0.35 460.8979
v -332.3546 0.03 455.719
v -332.3546 0.03 455.719
v -332.3482 0.03 458.719
v -332.3482 0.03 458.719
v -332.3482 0.03 458.719
v -332.3482 0.03 458.719
v -332.3434 -0.35 460.969
v -332.3434 -0.35 460.969
v -327.105 0.03 455.6093
v -327.105 0.03 455.6093
v -326.9796 0.03 458.6067
v -326.9796 0.03 458.6067
v -326.9796 0.03 458.6067
v -326.9796 0.03 458.6067
v -326.8856 -0.35 460.8547
v -326.8856 -0.35 460.8547
v -321.7469 0.03 455.2385
v -321.7469 0.03 455.2385
v -321.4464 0.03 458.2234
v -321.4464 0.03 458.2234
v -321.4464 0.03 458.2234
v -321.4464 0.03 458.2234
v -321.221 -0.35 460.4621
v -321.221 -0.35 460.4621
v -316.1912 0.03 454.4278
v -316.1912 0.03 454.4278
v -315.6011 0.03 457.3691
v -315.6011 0.03 457.3691
v -315.6011 0.03 457.3691
v -315.6011 0.03 457.3691
v -315.1585 -0.35 459.5752
v -315.1585 -0.35 459.5752

vn 0 1 0
vn 0 0 0
vn 0 0.9999999 0
vn 0 0 0
vn -0.0179621 0.9860292 0.165601
vn 0 0 0
vn -0.0179668 0.9860313 0.1655883
vn 0 0 0
vn 0 1 0
vn 0 0 0
vn 0 1 0
vn 0 0 0
vn -0.01922097 0.9860342 0.1654299
vn 0 0 0
vn -0.0204422 0.9860364 0.1652709
vn 0 0 0
vn -1.244271E-10 1 -1.70139E-11
vn 0 0 0
vn -2.48194E-10 1 -3.470533E-11
vn 0 0 0
vn -0.02212385 0.9860361 0.1650561
vn 0 0 0
vn -0.02262881 0.9860362 0.1649862
vn 0 0 0
vn -1.233305E-10 1 -1.686396E-11
vn 0 0 0
vn 1.23182E-10 1 1.793318E-11
vn 0 0 0
vn -0.02335586 0.9860362 0.1648852
vn 0 0 0
vn -0.02358475 0.9860362 0.164852
vn 0 0 0
vn 2.450032E-10 1 3.534293E-11
vn 0 0 0
vn 1.220022E-10 1 1.776142E-11
vn 0 0 0
vn -0.0238961 0.9860364 0.1648071
vn 0 0 0
vn -0.02397891 0.9860362 0.1647949
vn 0 0 0
vn 0 1 0
vn 0 0 0
vn 0 0.9999999 0
vn 0 0 0
vn -0.02404981 0.9860364 0.1647847
vn 0 0 0
vn -0.02403867 0.9860364 0.1647865
vn 0 0 0
vn 0 0.9999999 0
vn 0 0 0
vn 0 1 0
vn 0 0 0
vn -0.02395076 0.9860363 0.1647993
vn 0 0 0
vn -0.02387455 0.9860363 0.1648099
vn 0 0 0
vn 0 1 0
vn 0 0 0
vn 0 1 0
vn 0 0 0
vn -0.0236672 0.9860364 0.1648393
vn 0 0 0
vn -0.02353541 0.9860365 0.1648579
vn 0 0 0
vn 1.218088E-10 0.9999999 1.710489E-11
vn 0 0 0
vn 2.430137E-10 0.9999999 3.367072E-11
vn 0 0 0
vn -0.02322368 0.9860365 0.1649023
vn 0 0 0
vn -0.02304465 0.9860364 0.1649278
vn 0 0 0
vn -6.232329E-14 1 4.449883E-13
vn 0 0 0
vn -3.64159E-10 1 -4.866142E-11
vn 0 0 0
vn -0.02264207 0.9860364 0.1649837
vn 0 0 0
vn -0.02241743 0.9860362 0.1650145
vn 0 0 0
vn -3.63094E-10 1 -4.907448E-11
vn 0 0 0
vn 8.283919E-14 0.9999999 -6.503495E-13
vn 0 0 0
vn -0.02191836 0.9860364 0.1650815
vn 0 0 0
vn -0.02164587 0.9860364 0.1651178
vn 0 0 0
vn 1.206703E-10 0.9999999 1.59403E-11
vn 0 0 0
vn -1.212217E-10 1 -1.45775E-11
vn 0 0 0
vn -0.02105792 0.9860362 0.165194
vn 0 0 0
vn -0.02073728 0.9860362 0.1652353
vn 0 0 0
vn -2.436252E-10 1 -3.007141E-11
vn 0 0 0
vn -1.216659E-10 1 -1.463092E-11
vn 0 0 0
vn -0.02004042 0.9860361 0.1653215
vn 0 0 0
vn -0.01966683 0.9860361 0.1653664
vn 0 0 0
vn 1.213351E-10 1 1.369063E-11
vn 0 0 0
vn 2.412515E-10 0.9999999 2.616417E-11
vn 0 0 0
vn -0.01884979 0.9860362 0.165461
vn 0 0 0
vn -0.01840984 0.9860361 0.1655108
vn 0 0 0
vn 2.412905E-10 1 2.616841E-11
vn 0 0 0
vn 1.208703E-10 1 1.257953E-11
vn 0 0 0
vn -0.01746277 0.986036 0.1656139
vn 0 0 0
vn -0.01694789 0.9860361 0.1656676
vn 0 0 0
vn -1.214969E-10 1 -1.141194E-11
vn 0 0 0
vn -2.423382E-10 1 -2.130384E-11
vn 0 0 0
vn -0.01582319 0.9860362 0.1657779
vn 0 0 0
vn -0.0152174 0.9860363 0.1658342
vn 0 0 0
vn -1.206802E-10 1 -1.133523E-11
vn 0 0 0
vn 1.200471E-10 0.9999999 8.080492E-12
vn 0 0 0
vn -0.01387764 0.9860362 0.1659513
vn 0 0 0
vn -0.01314884 0.9860363 0.1660109
vn 0 0 0
vn 2.390056E-10 1 1.782991E-11
vn 0 0 0
vn 1.189482E-10 1 8.006523E-12
vn 0 0 0
vn -0.01153339 0.9860363 0.1661301
vn 0 0 0
vn -0.01064191 0.9860362 0.1661907
vn 0 0 0
vn 1.193547E-10 1 5.896925E-12
vn 0 0 0
vn 2.381092E-10 1 9.110917E-12
vn 0 0 0
vn -0.008653277 0.9860362 0.1663057
vn 0 0 0
vn -0.00754765 0.9860358 0.1663621
vn 0 0 0
vn -1.005338E-13 1 2.646581E-12
vn 0 0 0
vn -3.532784E-10 0.9999999 -2.688459E-12
vn 0 0 0
vn -0.005009124 0.986036 0.1664568
vn 0 0 0
vn -0.003591021 0.9860355 0.1664966
vn 0 0 0
vn -3.528084E-10 1 -6.127858E-12
vn 0 0 0
vn -1.009467E-13 0.9999999 -4.628109E-12
vn 0 0 0
vn -0.0002991131 0.9860362 0.1665309
vn 0 0 0
vn 0.001595838 0.9860352 0.1665291
vn 0 0 0
vn 2.329124E-10 0.9999999 -5.118785E-12
vn 0 0 0
vn 1.14304E-10 1 -4.780803E-12
vn 0 0 0
vn 0.006203045 0.9860365 0.1664137
vn 0 0 0
vn 0.008887894 0.9860335 0.1663097
vn 0 0 0
vn 0 1 0
vn 0 0 0
vn 0 1 0
vn 0 0 0
vn 0.01585578 0.986037 0.1657701
vn 0 0 0
vn 0.02008137 0.9860269 0.1653711
vn 0 0 0
vn 0 1 0
vn 0 0 0
vn 0 1 0
vn 0 0 0
vn 0.02412317 0.9860035 0.1649704
vn 0 0 0
vn 0.02413896 0.9859985 0.1649984
vn 0 0 0

vt 0 0
vt 0 0
vt 0.05135498 0.5977966
vt 0.05135498 0.5977966
vt 0.05135498 0.5977966
vt 0.05135498 0.5977966
vt 0.08986206 1.046143
vt 0.08986206 1.046143
vt -0.9596252 0.1039978
vt -0.9596252 0.1039978
vt -0.8862915 0.6994995
vt -0.8862915 0.6994995
vt -0.8862915 0.6994995
vt -0.8862915 0.6994995
vt -0.8312866 1.146124
vt -0.8312866 1.146124
vt -1.939331 0.2322205
vt -1.939331 0.2322205
vt -1.858045 0.8266907
vt -1.858045 0.8266907
vt -1.858045 0.8266907
vt -1.858045 0.8266907
vt -1.797076 1.27254
vt -1.797076 1.27254
vt -2.92796 0.3708557
vt -2.92796 0.3708557
vt -2.843066 0.9648194
vt -2.843066 0.9648194
vt -2.843066 0.9648194
vt -2.843066 0.9648194
vt -2.779388 1.410291
vt -2.779388 1.410291
vt -3.917468 0.5138184
vt -3.917468 0.5138184
vt -3.83103 1.107556
vt -3.83103 1.107556
vt -3.83103 1.107556
vt -3.83103 1.107556
vt -3.766199 1.552863
vt -3.766199 1.552863
vt -4.918707 0.6600098
vt -4.918707 0.6600098
vt -4.83194 1.253705
vt -4.83194 1.253705
vt -4.83194 1.253705
vt -4.83194 1.253705
vt -4.766864 1.698975
vt -4.766864 1.698975
vt -5.910242 0.8045837
vt -5.910242 0.8045837
vt -5.823975 1.398352
vt -5.823975 1.398352
vt -5.823975 1.398352
vt -5.823975 1.398352
vt -5.759277 1.843677
vt -5.759277 1.843677
vt -6.909821 0.9489136
vt -6.909821 0.9489136
vt -6.824701 1.542847
vt -6.824701 1.542847
vt -6.824701 1.542847
vt -6.824701 1.542847
vt -6.760864 1.9883
vt -6.760864 1.9883
vt -7.906751 1.09043
vt -7.906751 1.09043
vt -7.823316 1.684595
vt -7.823316 1.684595
vt -7.823316 1.684595
vt -7.823316 1.684595
vt -7.760736 2.130225
vt -7.760736 2.130225
vt -8.910193 1.229529
vt -8.910193 1.229529
vt -8.828937 1.823999
vt -8.828937 1.823999
vt -8.828937 1.823999
vt -8.828937 1.823999
vt -8.768 2.269855
vt -8.768 2.269855
vt -9.913159 1.364386
vt -9.913159 1.364386
vt -9.834582 1.959222
vt -9.834582 1.959222
vt -9.834582 1.959222
vt -9.834582 1.959222
vt -9.775641 2.405347
vt -9.775641 2.405347
vt -10.92822 1.49577
vt -10.92822 1.49577
vt -10.85285 2.091016
vt -10.85285 2.091016
vt -10.85285 2.091016
vt -10.85285 2.091016
vt -10.79633 2.537451
vt -10.79633 2.537451
vt -11.93092 1.619617
vt -11.93092 1.619617
vt -11.85928 2.215326
vt -11.85928 2.215326
vt -11.85928 2.215326
vt -11.85928 2.215326
vt -11.80556 2.662103
vt -11.80556 2.662103
vt -12.93489 1.736719
vt -12.93489 1.736719
vt -12.86761 2.332935
vt -12.86761 2.332935
vt -12.86761 2.332935
vt -12.86761 2.332935
vt -12.81716 2.780097
vt -12.81716 2.780097
vt -13.95387 1.847345
vt -13.95387 1.847345
vt -13.89176 2.444122
vt -13.89176 2.444122
vt -13.89176 2.444122
vt -13.89176 2.444122
vt -13.84518 2.891699
vt -13.84518 2.891699
vt -14.96359 1.947449
vt -14.96359 1.947449
vt -14.90748 2.544818
vt -14.90748 2.544818
vt -14.90748 2.544818
vt -14.90748 2.544818
vt -14.86541 2.992847
vt -14.86541 2.992847
vt -15.97706 2.036719
vt -15.97706 2.036719
vt -15.92808 2.634717
vt -15.92808 2.634717
vt -15.92808 2.634717
vt -15.92808 2.634717
vt -15.89135 3.083215
vt -15.89135 3.083215
vt -17.00568 2.11369
vt -17.00568 2.11369
vt -16.96539 2.712335
vt -16.96539 2.712335
vt -16.96539 2.712335
vt -16.96539 2.712335
vt -16.93516 3.161322
vt -16.93516 3.161322
vt -18.04089 2.174426
vt -18.04089 2.174426
vt -18.01129 2.7737
vt -18.01129 2.7737
vt -18.01129 2.7737
vt -18.01129 2.7737
vt -17.98907 3.223151
vt -17.98907 3.223151
vt -19.07297 2.21438
vt -19.07297 2.21438
vt -19.0567 2.81416
vt -19.0567 2.81416
vt -19.0567 2.81416
vt -19.0567 2.81416
vt -19.0445 3.263989
vt -19.0445 3.263989
vt -20.12269 2.228204
vt -20.12269 2.228204
vt -20.12398 2.828198
vt -20.12398 2.828198
vt -20.12398 2.828198
vt -20.12398 2.828198
vt -20.12494 3.278198
vt -20.12494 3.278198
vt -21.17262 2.206262
vt -21.17262 2.206262
vt -21.19769 2.805737
vt -21.19769 2.805737
vt -21.19769 2.805737
vt -21.19769 2.805737
vt -21.2165 3.255347
vt -21.2165 3.255347
vt -22.24423 2.132105
vt -22.24423 2.132105
vt -22.30434 2.729089
vt -22.30434 2.729089
vt -22.30434 2.729089
vt -22.30434 2.729089
vt -22.34941 3.176825
vt -22.34941 3.176825
vt -23.35537 1.969952
vt -23.35537 1.969952
vt -23.47339 2.558228
vt -23.47339 2.558228
vt -23.47339 2.558228
vt -23.47339 2.558228
vt -23.56191 2.999439
vt -23.56191 2.999439

usemtl GSDShoulder1
usemap GSDShoulder1
f 9/9/9 1/1/1 3/3/3
f 11/11/11 9/9/9 3/3/3
f 13/13/13 5/5/5 7/7/7
f 15/15/15 13/13/13 7/7/7
f 17/17/17 9/9/9 11/11/11
f 19/19/19 17/17/17 11/11/11
f 21/21/21 13/13/13 15/15/15
f 23/23/23 21/21/21 15/15/15
f 25/25/25 17/17/17 19/19/19
f 27/27/27 25/25/25 19/19/19
f 29/29/29 21/21/21 23/23/23
f 31/31/31 29/29/29 23/23/23
f 33/33/33 25/25/25 27/27/27
f 35/35/35 33/33/33 27/27/27
f 37/37/37 29/29/29 31/31/31
f 39/39/39 37/37/37 31/31/31
f 41/41/41 33/33/33 35/35/35
f 43/43/43 41/41/41 35/35/35
f 45/45/45 37/37/37 39/39/39
f 47/47/47 45/45/45 39/39/39
f 49/49/49 41/41/41 43/43/43
f 51/51/51 49/49/49 43/43/43
f 53/53/53 45/45/45 47/47/47
f 55/55/55 53/53/53 47/47/47
f 57/57/57 49/49/49 51/51/51
f 59/59/59 57/57/57 51/51/51
f 61/61/61 53/53/53 55/55/55
f 63/63/63 61/61/61 55/55/55
f 65/65/65 57/57/57 59/59/59
f 67/67/67 65/65/65 59/59/59
f 69/69/69 61/61/61 63/63/63
f 71/71/71 69/69/69 63/63/63
f 73/73/73 65/65/65 67/67/67
f 75/75/75 73/73/73 67/67/67
f 77/77/77 69/69/69 71/71/71
f 79/79/79 77/77/77 71/71/71
f 81/81/81 73/73/73 75/75/75
f 83/83/83 81/81/81 75/75/75
f 85/85/85 77/77/77 79/79/79
f 87/87/87 85/85/85 79/79/79
f 89/89/89 81/81/81 83/83/83
f 91/91/91 89/89/89 83/83/83
f 93/93/93 85/85/85 87/87/87
f 95/95/95 93/93/93 87/87/87
f 97/97/97 89/89/89 91/91/91
f 99/99/99 97/97/97 91/91/91
f 101/101/101 93/93/93 95/95/95
f 103/103/103 101/101/101 95/95/95
f 105/105/105 97/97/97 99/99/99
f 107/107/107 105/105/105 99/99/99
f 109/109/109 101/101/101 103/103/103
f 111/111/111 109/109/109 103/103/103
f 113/113/113 105/105/105 107/107/107
f 115/115/115 113/113/113 107/107/107
f 117/117/117 109/109/109 111/111/111
f 119/119/119 117/117/117 111/111/111
f 121/121/121 113/113/113 115/115/115
f 123/123/123 121/121/121 115/115/115
f 125/125/125 117/117/117 119/119/119
f 127/127/127 125/125/125 119/119/119
f 129/129/129 121/121/121 123/123/123
f 131/131/131 129/129/129 123/123/123
f 133/133/133 125/125/125 127/127/127
f 135/135/135 133/133/133 127/127/127
f 137/137/137 129/129/129 131/131/131
f 139/139/139 137/137/137 131/131/131
f 141/141/141 133/133/133 135/135/135
f 143/143/143 141/141/141 135/135/135
f 145/145/145 137/137/137 139/139/139
f 147/147/147 145/145/145 139/139/139
f 149/149/149 141/141/141 143/143/143
f 151/151/151 149/149/149 143/143/143
f 153/153/153 145/145/145 147/147/147
f 155/155/155 153/153/153 147/147/147
f 157/157/157 149/149/149 151/151/151
f 159/159/159 157/157/157 151/151/151
f 161/161/161 153/153/153 155/155/155
f 163/163/163 161/161/161 155/155/155
f 165/165/165 157/157/157 159/159/159
f 167/167/167 165/165/165 159/159/159
f 169/169/169 161/161/161 163/163/163
f 171/171/171 169/169/169 163/163/163
f 173/173/173 165/165/165 167/167/167
f 175/175/175 173/173/173 167/167/167
f 177/177/177 169/169/169 171/171/171
f 179/179/179 177/177/177 171/171/171
f 181/181/181 173/173/173 175/175/175
f 183/183/183 181/181/181 175/175/175
f 185/185/185 177/177/177 179/179/179
f 187/187/187 185/185/185 179/179/179
f 189/189/189 181/181/181 183/183/183
f 191/191/191 189/189/189 183/183/183
