mtllib ./Road1_0_23.mtl
g Markers4
v -421.5839 0.04 380.4574
v -421.5839 0.04 380.4574
v -418.4969 0.04 368.8612
v -418.4969 0.04 368.8612
v -427.0828 0.04 378.6595
v -427.0828 0.04 378.6595
v -422.6136 0.04 367.5228
v -422.6136 0.04 367.5228
v -432.3177 0.04 376.2023
v -432.3177 0.04 376.2023
v -426.5857 0.04 365.6598
v -426.5857 0.04 365.6598
v -437.235 0.04 373.1141
v -437.235 0.04 373.1141
v -430.2144 0.04 363.3822
v -430.2144 0.04 363.3822
v -441.7357 0.04 369.3871
v -441.7357 0.04 369.3871
v -433.4772 0.04 360.6809
v -433.4772 0.04 360.6809
v -445.6667 0.04 365.1207
v -445.6667 0.04 365.1207
v -436.3171 0.04 357.5985
v -436.3171 0.04 357.5985
v -448.9897 0.04 360.3866
v -448.9897 0.04 360.3866
v -438.7441 0.04 354.1394
v -438.7441 0.04 354.1394
v -451.6896 0.04 355.2728
v -451.6896 0.04 355.2728
v -440.7599 0.04 350.319
v -440.7599 0.04 350.319
v -453.7481 0.04 349.9578
v -453.7481 0.04 349.9578
v -442.3392 0.04 346.238
v -442.3392 0.04 346.238
v -455.2181 0.04 344.5417
v -455.2181 0.04 344.5417
v -443.4983 0.04 341.9639
v -443.4983 0.04 341.9639
v -456.1692 0.04 339.0417
v -456.1692 0.04 339.0417
v -444.2663 0.04 337.5181
v -444.2663 0.04 337.5181
v -456.6433 0.04 333.5661
v -456.6433 0.04 333.5661
v -444.6562 0.04 333.0097
v -444.6562 0.04 333.0097
v -456.6866 0.04 328.0918
v -456.6866 0.04 328.0918
v -444.6921 0.04 328.4539
v -444.6921 0.04 328.4539

vn 0 1 0
vn 0 0 0
vn 0 1 0
vn 0 0 0
vn 0 1 0
vn 0 0 0
vn 0 1 0
vn 0 0 0
vn 0 1 0
vn 0 0 0
vn 0 1 0
vn 0 0 0
vn 0 1 0
vn 0 0 0
vn 0 1 0
vn 0 0 0
vn 0 1 0
vn 0 0 0
vn 0 1 0
vn 0 0 0
vn -7.417364E-11 1 -9.219344E-11
vn 0 0 0
vn -1.508309E-10 1 -2.146461E-10
vn 0 0 0
vn -7.408581E-11 1 -9.208428E-11
vn 0 0 0
vn 5.376995E-11 1 1.186347E-10
vn 0 0 0
vn 1.102194E-10 1 2.08367E-10
vn 0 0 0
vn 5.350143E-11 1 1.180422E-10
vn 0 0 0
vn 0 1 0
vn 0 0 0
vn 0 1 0
vn 0 0 0
vn 0 1 0
vn 0 0 0
vn 0 1 0
vn 0 0 0
vn 1.51846E-11 1 1.186258E-10
vn 0 0 0
vn 2.223423E-11 1 2.553785E-10
vn 0 0 0
vn 1.527412E-11 1 1.193252E-10
vn 0 0 0
vn 3.864575E-12 1 -1.280058E-10
vn 0 0 0
vn -3.00768E-12 0.9999999 -3.713899E-10
vn 0 0 0
vn 1.234645E-11 1 -4.089499E-10
vn 0 0 0

vt 0 62.95752
vt 0 0
vt 1 62.95752
vt 0 0
vt 0 64.11459
vt 0 64.11459
vt 1 64.11459
vt 1 64.11459
vt 0 65.27118
vt 0 65.27118
vt 1 65.27118
vt 1 65.27118
vt 0 66.4325
vt 0 66.4325
vt 1 66.4325
vt 1 66.4325
vt 0 67.6012
vt 0 67.6012
vt 1 67.6012
vt 1 67.6012
vt 0 68.76147
vt 0 68.76147
vt 1 68.76147
vt 1 68.76147
vt 0 69.91824
vt 0 69.91824
vt 1 69.91824
vt 1 69.91824
vt 0 71.0748
vt 0 71.0748
vt 1 71.0748
vt 1 71.0748
vt 0 72.21475
vt 0 72.21475
vt 1 72.21475
vt 1 72.21475
vt 0 73.33715
vt 0 73.33715
vt 1 73.33715
vt 1 73.33715
vt 0 74.45348
vt 0 74.45348
vt 1 74.45348
vt 1 74.45348
vt 0 75.5527
vt 0 75.5527
vt 1 75.5527
vt 1 75.5527
vt 0 76.64758
vt 0 76.64758
vt 1 76.64758
vt 1 76.64758

usemtl GSDWhiteYellowDouble-4L
usemap GSDWhiteYellowDouble-4L
f 5/5/5 1/1/1 3/3/3
f 7/7/7 5/5/5 3/3/3
f 9/9/9 5/5/5 7/7/7
f 11/11/11 9/9/9 7/7/7
f 13/13/13 9/9/9 11/11/11
f 15/15/15 13/13/13 11/11/11
f 17/17/17 13/13/13 15/15/15
f 19/19/19 17/17/17 15/15/15
f 21/21/21 17/17/17 19/19/19
f 23/23/23 21/21/21 19/19/19
f 25/25/25 21/21/21 23/23/23
f 27/27/27 25/25/25 23/23/23
f 29/29/29 25/25/25 27/27/27
f 31/31/31 29/29/29 27/27/27
f 33/33/33 29/29/29 31/31/31
f 35/35/35 33/33/33 31/31/31
f 37/37/37 33/33/33 35/35/35
f 39/39/39 37/37/37 35/35/35
f 41/41/41 37/37/37 39/39/39
f 43/43/43 41/41/41 39/39/39
f 45/45/45 41/41/41 43/43/43
f 47/47/47 45/45/45 43/43/43
f 49/49/49 45/45/45 47/47/47
f 51/51/51 49/49/49 47/47/47
