mtllib ./Road1_0_19.mtl
g Markers2
v -285.7335 0.04 409.6073
v -285.7335 0.04 409.6073
v -274.2278 0.04 413.016
v -274.2278 0.04 413.016
v -284.737 0.04 405.4298
v -284.737 0.04 405.4298
v -272.9092 0.04 407.4555
v -272.9092 0.04 407.4555
v -284.4203 0.04 401.6266
v -284.4203 0.04 401.6266
v -272.4258 0.04 401.2637
v -272.4258 0.04 401.2637
v -284.966 0.04 398.6056
v -284.966 0.04 398.6056
v -273.7226 0.04 394.4121
v -273.7226 0.04 394.4121
v -286.4523 0.04 396.1398
v -286.4523 0.04 396.1398
v -277.3589 0.04 388.3096
v -277.3589 0.04 388.3096
v -289.0932 0.04 393.8317
v -289.0932 0.04 393.8317
v -282.2708 0.04 383.9597
v -282.2708 0.04 383.9597
v -292.6212 0.04 391.8174
v -292.6212 0.04 391.8174
v -287.4215 0.04 381.0024
v -287.4215 0.04 381.0024
v -296.7121 0.04 390.1162
v -296.7121 0.04 390.1162
v -292.6199 0.04 378.8355
v -292.6199 0.04 378.8355
v -301.197 0.04 388.673
v -301.197 0.04 388.673
v -297.8903 0.04 377.1376
v -297.8903 0.04 377.1376
v -305.8885 0.04 387.459
v -305.8885 0.04 387.459
v -303.1531 0.04 375.7749
v -303.1531 0.04 375.7749

vn 0 1 0
vn 0 0 0
vn 0 1 0
vn 0 0 0
vn 0 1 0
vn 0 0 0
vn 0 1 0
vn 0 0 0
vn 0 1 0
vn 0 0 0
vn 0 1 0
vn 0 0 0
vn -5.109806E-11 1 -1.370023E-10
vn 0 0 0
vn -1.117583E-10 1 -1.890268E-10
vn 0 0 0
vn -4.894399E-11 1 -1.312268E-10
vn 0 0 0
vn 9.022579E-11 1 6.235398E-11
vn 0 0 0
vn 1.957966E-10 1 1.760375E-10
vn 0 0 0
vn 9.295384E-11 1 6.423931E-11
vn 0 0 0
vn 0 1 0
vn 0 0 0
vn 0 1 0
vn 0 0 0
vn 0 1 0
vn 0 0 0
vn 0 1 0
vn 0 0 0
vn 1.186814E-10 1 3.402147E-11
vn 0 0 0
vn 2.279146E-10 1 5.930795E-11
vn 0 0 0
vn 3.506187E-10 1 9.123802E-11
vn 0 0 0
vn 3.336937E-10 1 7.812254E-11
vn 0 0 0

vt 0 32.60864
vt 0 0
vt 1 32.60864
vt 0 0
vt 0 33.46758
vt 0 33.46758
vt 1 33.46758
vt 1 33.46758
vt 0 34.23086
vt 0 34.23086
vt 1 34.23086
vt 1 34.23086
vt 0 34.84482
vt 0 34.84482
vt 1 34.84482
vt 1 34.84482
vt 0 35.42064
vt 0 35.42064
vt 1 35.42064
vt 1 35.42064
vt 0 36.12212
vt 0 36.12212
vt 1 36.12212
vt 1 36.12212
vt 0 36.93462
vt 0 36.93462
vt 1 36.93462
vt 1 36.93462
vt 0 37.82073
vt 0 37.82073
vt 1 37.82073
vt 1 37.82073
vt 0 38.76302
vt 0 38.76302
vt 1 38.76302
vt 1 38.76302
vt 0 39.73223
vt 0 0
vt 1 39.73223
vt 0 0

usemtl GSDWhiteYellowDouble-4L
usemap GSDWhiteYellowDouble-4L
f 5/5/5 1/1/1 3/3/3
f 7/7/7 5/5/5 3/3/3
f 9/9/9 5/5/5 7/7/7
f 11/11/11 9/9/9 7/7/7
f 13/13/13 9/9/9 11/11/11
f 15/15/15 13/13/13 11/11/11
f 17/17/17 13/13/13 15/15/15
f 19/19/19 17/17/17 15/15/15
f 21/21/21 17/17/17 19/19/19
f 23/23/23 21/21/21 19/19/19
f 25/25/25 21/21/21 23/23/23
f 27/27/27 25/25/25 23/23/23
f 29/29/29 25/25/25 27/27/27
f 31/31/31 29/29/29 27/27/27
f 33/33/33 29/29/29 31/31/31
f 35/35/35 33/33/33 31/31/31
f 37/37/37 33/33/33 35/35/35
f 39/39/39 37/37/37 35/35/35
