mtllib ./Road1_0_61.mtl
g SCutR9
v -117.9497 0.03 259.4111
v -117.9497 0.03 259.4111
v -118.7751 0.03 262.2953
v -118.7751 0.03 262.2953
v -118.7751 0.03 262.2953
v -118.7751 0.03 262.2953
v -119.3942 -0.35 264.4585
v -119.3942 -0.35 264.4585
v -113.342 0.03 260.8554
v -113.342 0.03 260.8554
v -114.257 0.03 263.7125
v -114.257 0.03 263.7125
v -114.257 0.03 263.7125
v -114.257 0.03 263.7125
v -114.9432 -0.35 265.8553
v -114.9432 -0.35 265.8553
v -108.313 0.03 262.3716
v -108.313 0.03 262.3716
v -109.1405 0.03 265.2552
v -109.1405 0.03 265.2552
v -109.1405 0.03 265.2552
v -109.1405 0.03 265.2552
v -109.7612 -0.35 267.4179
v -109.7612 -0.35 267.4179
v -103.4089 0.03 263.7532
v -103.4089 0.03 263.7532
v -104.2218 0.03 266.641
v -104.2218 0.03 266.641
v -104.2218 0.03 266.641
v -104.2218 0.03 266.641
v -104.8314 -0.35 268.8068
v -104.8314 -0.35 268.8068
v -98.72668 0.03 265.1245
v -98.72668 0.03 265.1245
v -99.61944 0.03 267.9886
v -99.61944 0.03 267.9886
v -99.61944 0.03 267.9886
v -99.61944 0.03 267.9886
v -100.289 -0.35 270.1367
v -100.289 -0.35 270.1367
v -94.40403 0.03 266.6313
v -94.40403 0.03 266.6313
v -95.51849 0.03 269.4166
v -95.51849 0.03 269.4166
v -95.51849 0.03 269.4166
v -95.51849 0.03 269.4166
v -96.35435 -0.35 271.5056
v -96.35435 -0.35 271.5056
v -90.79435 0.03 268.3846
v -90.79435 0.03 268.3846
v -92.35952 0.03 270.944
v -92.35952 0.03 270.944
v -92.35952 0.03 270.944
v -92.35952 0.03 270.944
v -93.53339 -0.35 272.8635
v -93.53339 -0.35 272.8635
v -88.4095 0.03 270.3395
v -88.4095 0.03 270.3395
v -90.70963 0.03 272.2655
v -90.70963 0.03 272.2655
v -90.70963 0.03 272.2655
v -90.70963 0.03 272.2655
v -92.43474 -0.35 273.71
v -92.43474 -0.35 273.71
v -87.29818 0.03 272.4867
v -87.29818 0.03 272.4867
v -90.19761 0.03 273.2569
v -90.19761 0.03 273.2569
v -90.19761 0.03 273.2569
v -90.19761 0.03 273.2569
v -92.37218 -0.35 273.8347
v -92.37218 -0.35 273.8347
v -87.07327 0.03 275.5668
v -87.07327 0.03 275.5668
v -90.06632 0.03 275.3628
v -90.06632 0.03 275.3628
v -90.06632 0.03 275.3628
v -90.06632 0.03 275.3628
v -92.31112 -0.35 275.2098
v -92.31112 -0.35 275.2098
v -87.73945 0.03 279.3977
v -87.73945 0.03 279.3977
v -90.64307 0.03 278.6433
v -90.64307 0.03 278.6433
v -90.64307 0.03 278.6433
v -90.64307 0.03 278.6433
v -92.82078 -0.35 278.0776
v -92.82078 -0.35 278.0776
v -89.09141 0.03 283.5493
v -89.09141 0.03 283.5493
v -91.89343 0.03 282.4776
v -91.89343 0.03 282.4776
v -91.89343 0.03 282.4776
v -91.89343 0.03 282.4776
v -93.99494 -0.35 281.6737
v -93.99494 -0.35 281.6737

vn 0 1 0
vn 0 0 0
vn 0 1 0
vn 0 0 0
vn -0.04985578 0.9860275 0.1589474
vn 0 0 0
vn -0.0498601 0.9860317 0.1589197
vn 0 0 0
vn 0 1 0
vn 0 0 0
vn 0 1 0
vn 0 0 0
vn -0.04921538 0.9860324 0.1591163
vn 0 0 0
vn -0.04862104 0.9860343 0.159287
vn 0 0 0
vn 0 1 0
vn 0 0 0
vn 0 1 0
vn 0 0 0
vn -0.04714034 0.9860349 0.1597278
vn 0 0 0
vn -0.04617047 0.9860361 0.1600027
vn 0 0 0
vn 0 0.9999999 0
vn 0 0 0
vn 0 1 0
vn 0 0 0
vn -0.04568287 0.9860359 0.1601442
vn 0 0 0
vn -0.04622559 0.9860348 0.1599953
vn 0 0 0
vn 0 1 0
vn 0 0 0
vn 0 1 0
vn 0 0 0
vn -0.04930066 0.9860372 0.15906
vn 0 0 0
vn -0.0519289 0.9860289 0.1582733
vn 0 0 0
vn 0 1 0
vn 0 0 0
vn 0 1 0
vn 0 0 0
vn -0.06000035 0.9860393 0.1553271
vn 0 0 0
vn -0.06573478 0.9860064 0.1532003
vn 0 0 0
vn -1.50636E-10 0.9999999 -9.212118E-11
vn 0 0 0
vn -3.231167E-10 1 -2.784514E-10
vn 0 0 0
vn -0.08040848 0.9860352 0.1458393
vn 0 0 0
vn -0.0894103 0.9859304 0.1412342
vn 0 0 0
vn -3.719786E-10 1 -3.20559E-10
vn 0 0 0
vn -2.16559E-10 1 -2.586312E-10
vn 0 0 0
vn -0.1158855 0.9860364 0.1195942
vn 0 0 0
vn -0.1266928 0.9860439 0.1080111
vn 0 0 0
vn 7.375752E-11 0.9999999 2.776383E-10
vn 0 0 0
vn 5.655982E-11 1 5.885348E-10
vn 0 0 0
vn -0.1628644 0.986003 0.03567996
vn 0 0 0
vn -0.1679834 0.9857183 0.01187558
vn 0 0 0
vn 3.909223E-11 0.9999999 4.067754E-10
vn 0 0 0
vn -1.364795E-11 0.9999999 2.002608E-10
vn 0 0 0
vn -0.1668252 0.9859409 -0.009484117
vn 0 0 0
vn -0.1652007 0.986003 -0.02251449
vn 0 0 0
vn 0 1 0
vn 0 0 0
vn 0 1 0
vn 0 0 0
vn -0.1623169 0.9860069 -0.03799591
vn 0 0 0
vn -0.1601637 0.986035 -0.04563443
vn 0 0 0
vn 0 0.9999999 0
vn 0 0 0
vn 0 1 0
vn 0 0 0
vn -0.1585564 0.9859934 -0.05173703
vn 0 0 0
vn -0.1584967 0.9860023 -0.05175037
vn 0 0 0

vt 0 0
vt 0 0
vt 0.1650848 0.5768433
vt 0.1650848 0.5768433
vt 0.1650848 0.5768433
vt 0.1650848 0.5768433
vt 0.2888977 1.009473
vt 0.2888977 1.009473
vt -0.9215332 0.2888611
vt -0.9215332 0.2888611
vt -0.7385468 0.8602783
vt -0.7385468 0.8602783
vt -0.7385468 0.8602783
vt -0.7385468 0.8602783
vt -0.6013061 1.288843
vt -0.6013061 1.288843
vt -1.927342 0.592096
vt -1.927342 0.592096
vt -1.761839 1.168823
vt -1.761839 1.168823
vt -1.761839 1.168823
vt -1.761839 1.168823
vt -1.637712 1.601361
vt -1.637712 1.601361
vt -2.908168 0.8684204
vt -2.908168 0.8684204
vt -2.745592 1.445972
vt -2.745592 1.445972
vt -2.745592 1.445972
vt -2.745592 1.445972
vt -2.62366 1.879138
vt -2.62366 1.879138
vt -3.844606 1.142682
vt -3.844606 1.142682
vt -3.666055 1.715497
vt -3.666055 1.715497
vt -3.666055 1.715497
vt -3.666055 1.715497
vt -3.532144 2.145111
vt -3.532144 2.145111
vt -4.709137 1.444037
vt -4.709137 1.444037
vt -4.486244 2.001099
vt -4.486244 2.001099
vt -4.486244 2.001099
vt -4.486244 2.001099
vt -4.319074 2.418896
vt -4.319074 2.418896
vt -5.431073 1.794696
vt -5.431073 1.794696
vt -5.118039 2.306567
vt -5.118039 2.306567
vt -5.118039 2.306567
vt -5.118039 2.306567
vt -4.883264 2.690466
vt -4.883264 2.690466
vt -5.908043 2.185675
vt -5.908043 2.185675
vt -5.448017 2.570868
vt -5.448017 2.570868
vt -5.448017 2.570868
vt -5.448017 2.570868
vt -5.102995 2.859766
vt -5.102995 2.859766
vt -6.130307 2.615106
vt -6.130307 2.615106
vt -5.550421 2.769159
vt -5.550421 2.769159
vt -5.550421 2.769159
vt -5.550421 2.769159
vt -5.115508 2.884705
vt -5.115508 2.884705
vt -6.17529 3.231128
vt -6.17529 3.231128
vt -5.576679 3.190332
vt -5.576679 3.190332
vt -5.576679 3.190332
vt -5.576679 3.190332
vt -5.127719 3.159735
vt -5.127719 3.159735
vt -6.042053 3.997308
vt -6.042053 3.997308
vt -5.46133 3.846442
vt -5.46133 3.846442
vt -5.46133 3.846442
vt -5.46133 3.846442
vt -5.025787 3.733295
vt -5.025787 3.733295
vt -5.771661 4.827637
vt -5.771661 4.827637
vt -5.211257 4.613287
vt -5.211257 4.613287
vt -5.211257 4.613287
vt -5.211257 4.613287
vt -4.790955 4.452521
vt -4.790955 4.452521

usemtl GSDShoulder1
usemap GSDShoulder1
f 9/9/9 1/1/1 3/3/3
f 11/11/11 9/9/9 3/3/3
f 13/13/13 5/5/5 7/7/7
f 15/15/15 13/13/13 7/7/7
f 17/17/17 9/9/9 11/11/11
f 19/19/19 17/17/17 11/11/11
f 21/21/21 13/13/13 15/15/15
f 23/23/23 21/21/21 15/15/15
f 25/25/25 17/17/17 19/19/19
f 27/27/27 25/25/25 19/19/19
f 29/29/29 21/21/21 23/23/23
f 31/31/31 29/29/29 23/23/23
f 33/33/33 25/25/25 27/27/27
f 35/35/35 33/33/33 27/27/27
f 37/37/37 29/29/29 31/31/31
f 39/39/39 37/37/37 31/31/31
f 41/41/41 33/33/33 35/35/35
f 43/43/43 41/41/41 35/35/35
f 45/45/45 37/37/37 39/39/39
f 47/47/47 45/45/45 39/39/39
f 49/49/49 41/41/41 43/43/43
f 51/51/51 49/49/49 43/43/43
f 53/53/53 45/45/45 47/47/47
f 55/55/55 53/53/53 47/47/47
f 57/57/57 49/49/49 51/51/51
f 59/59/59 57/57/57 51/51/51
f 61/61/61 53/53/53 55/55/55
f 63/63/63 61/61/61 55/55/55
f 65/65/65 57/57/57 59/59/59
f 67/67/67 65/65/65 59/59/59
f 69/69/69 61/61/61 63/63/63
f 71/71/71 69/69/69 63/63/63
f 73/73/73 65/65/65 67/67/67
f 75/75/75 73/73/73 67/67/67
f 77/77/77 69/69/69 71/71/71
f 79/79/79 77/77/77 71/71/71
f 81/81/81 73/73/73 75/75/75
f 83/83/83 81/81/81 75/75/75
f 85/85/85 77/77/77 79/79/79
f 87/87/87 85/85/85 79/79/79
f 89/89/89 81/81/81 83/83/83
f 91/91/91 89/89/89 83/83/83
f 93/93/93 85/85/85 87/87/87
f 95/95/95 93/93/93 87/87/87
