mtllib ./Road1_0_29.mtl
g Markers7
v -269.0268 0.04 282.0081
v -269.0268 0.04 282.0081
v -267.3097 0.04 293.8847
v -267.3097 0.04 293.8847
v -264.5203 0.04 281.1752
v -264.5203 0.04 281.1752
v -261.859 0.04 292.8764
v -261.859 0.04 292.8764
v -260.1923 0.04 279.9871
v -260.1923 0.04 279.9871
v -256.4814 0.04 291.3989
v -256.4814 0.04 291.3989
v -256.0646 0.04 278.4143
v -256.0646 0.04 278.4143
v -251.2222 0.04 289.3939
v -251.2222 0.04 289.3939
v -252.1545 0.04 276.435
v -252.1545 0.04 276.435
v -246.1677 0.04 286.8349
v -246.1677 0.04 286.8349
v -248.4449 0.04 274.0263
v -248.4449 0.04 274.0263
v -241.3927 0.04 283.7354
v -241.3927 0.04 283.7354
v -244.9397 0.04 271.2098
v -244.9397 0.04 271.2098
v -237.0051 0.04 280.2121
v -237.0051 0.04 280.2121
v -241.6051 0.04 268.0328
v -241.6051 0.04 268.0328
v -233.0356 0.04 276.433
v -233.0356 0.04 276.433
v -238.3365 0.04 264.5257
v -238.3365 0.04 264.5257
v -229.3986 0.04 272.5327
v -229.3986 0.04 272.5327
v -235.0564 0.04 260.8001
v -235.0564 0.04 260.8001
v -226.0289 0.04 268.7061
v -226.0289 0.04 268.7061
v -231.6139 0.04 256.9469
v -231.6139 0.04 256.9469
v -222.7962 0.04 265.0862
v -222.7962 0.04 265.0862
v -227.8291 0.04 253.0871
v -227.8291 0.04 253.0871
v -219.574 0.04 261.7965
v -219.574 0.04 261.7965
v -223.4975 0.04 249.3844
v -223.4975 0.04 249.3844
v -216.2337 0.04 258.9362
v -216.2337 0.04 258.9362
v -218.5659 0.04 246.1442
v -218.5659 0.04 246.1442
v -212.7193 0.04 256.6236
v -212.7193 0.04 256.6236
v -213.1183 0.04 243.6358
v -213.1183 0.04 243.6358
v -208.959 0.04 254.8919
v -208.959 0.04 254.8919

vn 8.051274E-10 1 -1.16409E-10
vn 0 0 0
vn 7.234184E-10 0.9999999 -1.343419E-10
vn 0 0 0
vn 3.768905E-10 1 -6.479876E-11
vn 0 0 0
vn 2.880475E-12 1 1.044772E-11
vn 0 0 0
vn -3.704425E-10 1 1.081889E-10
vn 0 0 0
vn -3.362638E-10 1 1.219997E-10
vn 0 0 0
vn -1.229324E-10 0.9999999 3.997502E-11
vn 0 0 0
vn 1.031183E-10 1 -5.936119E-11
vn 0 0 0
vn 1.179401E-10 0.9999999 -5.201553E-11
vn 0 0 0
vn -9.563208E-11 1 6.946242E-11
vn 0 0 0
vn -1.106212E-10 0.9999999 6.36803E-11
vn 0 0 0
vn 8.845329E-11 0.9999999 -7.796343E-11
vn 0 0 0
vn 2.923407E-10 1 -2.417908E-10
vn 0 0 0
vn 2.610375E-10 0.9999999 -2.416036E-10
vn 0 0 0
vn 9.395565E-11 1 -8.281326E-11
vn 0 0 0
vn -7.966076E-11 1 8.892284E-11
vn 0 0 0
vn -2.51165E-10 1 2.720628E-10
vn 0 0 0
vn -2.411864E-10 1 2.712684E-10
vn 0 0 0
vn -1.029556E-12 1 -9.122922E-13
vn 0 0 0
vn 2.483086E-10 1 -2.737519E-10
vn 0 0 0
vn 1.591388E-10 1 -1.817131E-10
vn 0 0 0
vn -1.819773E-10 1 1.724849E-10
vn 0 0 0
vn -2.471109E-10 1 2.560342E-10
vn 0 0 0
vn 8.905339E-12 1 1.04789E-11
vn 0 0 0
vn 1.775112E-10 1 -1.508548E-10
vn 0 0 0
vn 1.02442E-10 1 -7.790416E-11
vn 0 0 0
vn 0 1 0
vn 0 0 0
vn 0 1 0
vn 0 0 0
vn 0 1 0
vn 0 0 0
vn 0 1 0
vn 0 0 0

vt 0 120.6367
vt 0 0
vt 1 120.6367
vt 0 0
vt 0 121.5532
vt 0 121.5532
vt 1 121.5532
vt 1 121.5532
vt 0 122.4509
vt 0 122.4509
vt 1 122.4509
vt 1 122.4509
vt 0 123.3343
vt 0 123.3343
vt 1 123.3343
vt 1 123.3343
vt 0 124.2108
vt 0 124.2108
vt 1 124.2108
vt 1 124.2108
vt 0 125.0954
vt 0 125.0954
vt 1 125.0954
vt 1 125.0954
vt 0 125.9947
vt 0 125.9947
vt 1 125.9947
vt 1 125.9947
vt 0 126.9159
vt 0 126.9159
vt 1 126.9159
vt 1 126.9159
vt 0 127.8747
vt 0 127.8747
vt 1 127.8747
vt 1 127.8747
vt 0 128.8674
vt 0 128.8674
vt 1 128.8674
vt 1 128.8674
vt 0 129.9008
vt 0 129.9008
vt 1 129.9008
vt 1 129.9008
vt 0 130.982
vt 0 130.982
vt 1 130.982
vt 1 130.982
vt 0 132.1217
vt 0 132.1217
vt 1 132.1217
vt 1 132.1217
vt 0 133.3019
vt 0 133.3019
vt 1 133.3019
vt 1 133.3019
vt 0 134.5013
vt 0 134.5013
vt 1 134.5013
vt 1 134.5013

usemtl GSDWhiteYellowDouble-4L
usemap GSDWhiteYellowDouble-4L
f 5/5/5 1/1/1 3/3/3
f 7/7/7 5/5/5 3/3/3
f 9/9/9 5/5/5 7/7/7
f 11/11/11 9/9/9 7/7/7
f 13/13/13 9/9/9 11/11/11
f 15/15/15 13/13/13 11/11/11
f 17/17/17 13/13/13 15/15/15
f 19/19/19 17/17/17 15/15/15
f 21/21/21 17/17/17 19/19/19
f 23/23/23 21/21/21 19/19/19
f 25/25/25 21/21/21 23/23/23
f 27/27/27 25/25/25 23/23/23
f 29/29/29 25/25/25 27/27/27
f 31/31/31 29/29/29 27/27/27
f 33/33/33 29/29/29 31/31/31
f 35/35/35 33/33/33 31/31/31
f 37/37/37 33/33/33 35/35/35
f 39/39/39 37/37/37 35/35/35
f 41/41/41 37/37/37 39/39/39
f 43/43/43 41/41/41 39/39/39
f 45/45/45 41/41/41 43/43/43
f 47/47/47 45/45/45 43/43/43
f 49/49/49 45/45/45 47/47/47
f 51/51/51 49/49/49 47/47/47
f 53/53/53 49/49/49 51/51/51
f 55/55/55 53/53/53 51/51/51
f 57/57/57 53/53/53 55/55/55
f 59/59/59 57/57/57 55/55/55
