mtllib ./Road2_1_26.mtl
g RoadCut6
v -292.3564 0.03 39.62055
v -292.3564 0.03 39.62055
v -289.5179 0.03 27.96109
v -289.5179 0.03 27.96109
v -296.9112 0.03 38.65783
v -296.9112 0.03 38.65783
v -294.7876 0.03 26.84723
v -294.7876 0.03 26.84723
v -301.6256 0.03 37.93056
v -301.6256 0.03 37.93056
v -300.0378 0.03 26.03607
v -300.0378 0.03 26.03607
v -306.4314 0.03 37.36108
v -306.4314 0.03 37.36108
v -305.172 0.03 25.42735
v -305.172 0.03 25.42735
v -311.3368 0.03 36.89364
v -311.3368 0.03 36.89364
v -310.3069 0.03 24.93792
v -310.3069 0.03 24.93792
v -316.2743 0.03 36.50533
v -316.2743 0.03 36.50533
v -315.4148 0.03 24.53615
v -315.4148 0.03 24.53615
v -321.2424 0.03 36.17735
v -321.2424 0.03 36.17735
v -320.5157 0.03 24.19936
v -320.5157 0.03 24.19936
v -326.2222 0.03 35.89834
v -326.2222 0.03 35.89834
v -325.6026 0.03 23.91434
v -325.6026 0.03 23.91434
v -331.2186 0.03 35.65907
v -331.2186 0.03 35.65907
v -330.6876 0.03 23.67083
v -330.6876 0.03 23.67083
v -336.1866 0.03 35.45479
v -336.1866 0.03 35.45479
v -335.7296 0.03 23.4635
v -335.7296 0.03 23.4635
v -341.1564 0.03 35.27887
v -341.1564 0.03 35.27887
v -340.7628 0.03 23.28533
v -340.7628 0.03 23.28533
v -346.1691 0.03 35.1262
v -346.1691 0.03 35.1262
v -345.8307 0.03 23.13097
v -345.8307 0.03 23.13097
v -351.2025 0.03 34.99464
v -351.2025 0.03 34.99464
v -350.9126 0.03 22.99814
v -350.9126 0.03 22.99814
v -356.2359 0.03 34.88215
v -356.2359 0.03 34.88215
v -355.9886 0.03 22.8847
v -355.9886 0.03 22.8847
v -361.2503 0.03 34.78682
v -361.2503 0.03 34.78682
v -361.0406 0.03 22.78866
v -361.0406 0.03 22.78866
v -366.3013 0.03 34.70575
v -366.3013 0.03 34.70575
v -366.1252 0.03 22.70704
v -366.1252 0.03 22.70704
v -371.2998 0.03 34.63866
v -371.2998 0.03 34.63866
v -371.1533 0.03 22.63955
v -371.1533 0.03 22.63955
v -376.3039 0.03 34.58313
v -376.3039 0.03 34.58313
v -376.1837 0.03 22.58373
v -376.1837 0.03 22.58373
v -381.2986 0.03 34.53805
v -381.2986 0.03 34.53805
v -381.2017 0.03 22.53844
v -381.2017 0.03 22.53844
v -386.3417 0.03 34.5018
v -386.3417 0.03 34.5018
v -386.2657 0.03 22.50204
v -386.2657 0.03 22.50204
v -391.3445 0.03 34.47393
v -391.3445 0.03 34.47393
v -391.2864 0.03 22.47407
v -391.2864 0.03 22.47407
v -396.3623 0.03 34.45301
v -396.3623 0.03 34.45301
v -396.3199 0.03 22.45309
v -396.3199 0.03 22.45309
v -401.3764 0.03 34.43809
v -401.3764 0.03 34.43809
v -401.347 0.03 22.43813
v -401.347 0.03 22.43813
v -406.4347 0.03 34.42798
v -406.4347 0.03 34.42798
v -406.4157 0.03 22.428
v -406.4157 0.03 22.428
v -411.4435 0.03 34.42173
v -411.4435 0.03 34.42173
v -411.432 0.03 22.42173
v -411.432 0.03 22.42173
v -416.4433 0.03 34.41793
v -416.4433 0.03 34.41793
v -416.436 0.03 22.41794
v -416.436 0.03 22.41794
v -421.4634 0.03 34.41513
v -421.4634 0.03 34.41513
v -421.4566 0.03 22.41513
v -421.4566 0.03 22.41513
v -426.5186 0.03 34.41149
v -426.5186 0.03 34.41149
v -426.5072 0.03 22.41149
v -426.5072 0.03 22.41149
v -431.548 0.03 34.40465
v -431.548 0.03 34.40465
v -431.5255 0.03 22.40467
v -431.5255 0.03 22.40467
v -436.5855 0.03 34.39125
v -436.5855 0.03 34.39125
v -436.5422 0.03 22.39133
v -436.5422 0.03 22.39133
v -441.6184 0.03 34.36619
v -441.6184 0.03 34.36619
v -441.5388 0.03 22.36646
v -441.5388 0.03 22.36646
v -446.6543 0.03 34.32053
v -446.6543 0.03 34.32053
v -446.5097 0.03 22.32141
v -446.5097 0.03 22.32141
v -451.7332 0.03 34.23475
v -451.7332 0.03 34.23475
v -451.4544 0.03 22.23799
v -451.4544 0.03 22.23799

vn 0 1 0
vn 0 0 0
vn 0 0.9999999 0
vn 0 0 0
vn 0 1 0
vn 0 0 0
vn 0 1 0
vn 0 0 0
vn 1.23753E-10 0.9999999 1.652014E-11
vn 0 0 0
vn 2.414254E-10 1 2.884788E-11
vn 0 0 0
vn 1.236122E-10 1 1.650135E-11
vn 0 0 0
vn -1.216494E-10 1 -1.04793E-11
vn 0 0 0
vn -2.465839E-10 1 -2.362993E-11
vn 0 0 0
vn -1.218166E-10 1 -1.04937E-11
vn 0 0 0
vn 0 0.9999999 0
vn 0 0 0
vn 0 1 0
vn 0 0 0
vn 1.233042E-10 1 7.480035E-12
vn 0 0 0
vn 2.447866E-10 1 1.375219E-11
vn 0 0 0
vn 2.465699E-10 0.9999999 1.385237E-11
vn 0 0 0
vn 1.224784E-10 1 6.332088E-12
vn 0 0 0
vn -1.235194E-10 1 -5.471782E-12
vn 0 0 0
vn -2.463474E-10 1 -1.015034E-11
vn 0 0 0
vn -3.724417E-10 1 -1.496159E-11
vn 0 0 0
vn -3.709102E-10 1 -1.348077E-11
vn 0 0 0
vn -1.238869E-10 1 -4.721144E-12
vn 0 0 0
vn 1.231292E-10 1 3.472781E-12
vn 0 0 0
vn 2.462604E-10 1 7.513775E-12
vn 0 0 0
vn 1.225827E-10 1 3.457368E-12
vn 0 0 0
vn 0 1 0
vn 0 0 0
vn 0 1 0
vn 0 0 0
vn 1.231056E-10 0.9999999 2.537063E-12
vn 0 0 0
vn 2.45923E-10 0.9999999 4.683334E-12
vn 0 0 0
vn 2.463391E-10 1 4.691257E-12
vn 0 0 0
vn 1.226058E-10 1 2.143036E-12
vn 0 0 0
vn -2.460958E-10 0.9999999 -3.612819E-12
vn 0 0 0
vn -4.929537E-10 1 -6.62863E-12
vn 0 0 0
vn -4.956071E-10 1 -6.664309E-12
vn 0 0 0
vn -2.472858E-10 1 -3.020108E-12
vn 0 0 0
vn 1.239231E-10 1 1.241764E-12
vn 0 0 0
vn 2.476199E-10 1 2.240042E-12
vn 0 0 0
vn 1.237049E-10 1 1.239578E-12
vn 0 0 0
vn -1.231421E-10 1 -7.804269E-13
vn 0 0 0
vn -1.232662E-10 1 -9.950249E-13
vn 0 0 0
vn 1.234525E-10 1 5.971511E-13
vn 0 0 0
vn 2.476638E-10 1 1.383784E-12
vn 0 0 0
vn 1.235807E-10 1 5.977712E-13
vn 0 0 0
vn -1.236364E-10 1 -4.370515E-13
vn 0 0 0
vn -2.471209E-10 1 -7.397019E-13
vn 0 0 0
vn -1.233567E-10 1 -4.36063E-13
vn 0 0 0
vn 1.229125E-10 0.9999999 1.944267E-13
vn 0 0 0
vn 3.691839E-10 1 6.910193E-13
vn 0 0 0
vn 3.702122E-10 1 5.084096E-13
vn 0 0 0
vn 1.239705E-10 1 1.961003E-13
vn 0 0 0
vn -1.240102E-10 1 -7.505911E-14
vn 0 0 0
vn -2.47957E-10 1 -1.935904E-13
vn 0 0 0
vn -1.238073E-10 1 -7.493627E-14
vn 0 0 0
vn -1.233873E-10 1 -7.0289E-14
vn 0 0 0
vn -2.462772E-10 1 -1.872683E-13
vn 0 0 0
vn -2.461341E-10 1 -1.871595E-13
vn 0 0 0
vn -1.233683E-10 1 -1.173394E-13
vn 0 0 0
vn 1.23475E-10 0.9999999 2.317422E-13
vn 0 0 0
vn 2.471553E-10 1 6.775781E-13
vn 0 0 0
vn 2.46914E-10 1 6.769165E-13
vn 0 0 0
vn 1.237922E-10 1 4.464173E-13
vn 0 0 0
vn 0 1 0
vn 0 0 0
vn 0 1 0
vn 0 0 0
vn 0 1 0
vn 0 0 0
vn 0 1 0
vn 0 0 0
vn 0 0.9999999 0
vn 0 0 0
vn 0 0.9999999 0
vn 0 0 0

vt 0 0
vt 0 0
vt -0.567688 -2.331893
vt -0.567688 -2.331893
vt 0.9109558 -0.1925446
vt 0.9109558 -0.1925446
vt 0.4862366 -2.554665
vt 0.4862366 -2.554665
vt 1.853845 -0.337999
vt 1.853845 -0.337999
vt 1.536279 -2.716897
vt 1.536279 -2.716897
vt 2.814996 -0.4518951
vt 2.814996 -0.4518951
vt 2.563117 -2.838641
vt 2.563117 -2.838641
vt 3.796082 -0.5453827
vt 3.796082 -0.5453827
vt 3.5901 -2.936527
vt 3.5901 -2.936527
vt 4.783588 -0.6230454
vt 4.783588 -0.6230454
vt 4.611676 -3.016881
vt 4.611676 -3.016881
vt 5.777197 -0.6886414
vt 5.777197 -0.6886414
vt 5.631873 -3.084238
vt 5.631873 -3.084238
vt 6.773163 -0.7444428
vt 6.773163 -0.7444428
vt 6.64925 -3.141242
vt 6.64925 -3.141242
vt 7.772449 -0.7922959
vt 7.772449 -0.7922959
vt 7.666235 -3.189945
vt 7.666235 -3.189945
vt 8.766047 -0.833152
vt 8.766047 -0.833152
vt 8.674652 -3.231411
vt 8.674652 -3.231411
vt 9.760004 -0.8683357
vt 9.760004 -0.8683357
vt 9.681281 -3.267045
vt 9.681281 -3.267045
vt 10.76254 -0.8988701
vt 10.76254 -0.8988701
vt 10.69487 -3.297916
vt 10.69487 -3.297916
vt 11.76921 -0.9251823
vt 11.76921 -0.9251823
vt 11.71124 -3.324482
vt 11.71124 -3.324482
vt 12.7759 -0.9476799
vt 12.7759 -0.9476799
vt 12.72645 -3.34717
vt 12.72645 -3.34717
vt 13.77878 -0.9667458
vt 13.77878 -0.9667458
vt 13.73683 -3.366379
vt 13.73683 -3.366379
vt 14.78899 -0.9829605
vt 14.78899 -0.9829605
vt 14.75376 -3.382702
vt 14.75376 -3.382702
vt 15.78869 -0.9963791
vt 15.78869 -0.9963791
vt 15.75938 -3.396201
vt 15.75938 -3.396201
vt 16.7895 -1.007484
vt 16.7895 -1.007484
vt 16.76546 -3.407364
vt 16.76546 -3.407364
vt 17.78843 -1.016501
vt 17.78843 -1.016501
vt 17.76906 -3.416423
vt 17.76906 -3.416423
vt 18.79707 -1.023751
vt 18.79707 -1.023751
vt 18.78186 -3.423703
vt 18.78186 -3.423703
vt 19.79762 -1.029324
vt 19.79762 -1.029324
vt 19.78601 -3.429296
vt 19.78601 -3.429296
vt 20.80118 -1.033508
vt 20.80118 -1.033508
vt 20.79269 -3.433492
vt 20.79269 -3.433492
vt 21.804 -1.036493
vt 21.804 -1.036493
vt 21.79811 -3.436485
vt 21.79811 -3.436485
vt 22.81566 -1.038515
vt 22.81566 -1.038515
vt 22.81186 -3.438511
vt 22.81186 -3.438511
vt 23.81742 -1.039765
vt 23.81742 -1.039765
vt 23.81512 -3.439764
vt 23.81512 -3.439764
vt 24.81738 -1.040524
vt 24.81738 -1.040524
vt 24.81592 -3.440523
vt 24.81592 -3.440523
vt 25.82141 -1.041084
vt 25.82141 -1.041084
vt 25.82004 -3.441084
vt 25.82004 -3.441084
vt 26.83245 -1.041813
vt 26.83245 -1.041813
vt 26.83016 -3.441812
vt 26.83016 -3.441812
vt 27.83832 -1.04318
vt 27.83832 -1.04318
vt 27.83381 -3.443176
vt 27.83381 -3.443176
vt 28.84583 -1.04586
vt 28.84583 -1.04586
vt 28.83717 -3.445844
vt 28.83717 -3.445844
vt 29.85241 -1.050872
vt 29.85241 -1.050872
vt 29.83649 -3.450819
vt 29.83649 -3.450819
vt 30.85959 -1.060004
vt 30.85959 -1.060004
vt 30.83066 -3.459829
vt 30.83066 -3.459829
vt 31.87535 -1.07716
vt 31.87535 -1.07716
vt 31.8196 -3.476512
vt 31.8196 -3.476512

usemtl GSDRoad1
usemap GSDRoad1
f 5/5/5 1/1/1 3/3/3
f 7/7/7 5/5/5 3/3/3
f 9/9/9 5/5/5 7/7/7
f 11/11/11 9/9/9 7/7/7
f 13/13/13 9/9/9 11/11/11
f 15/15/15 13/13/13 11/11/11
f 17/17/17 13/13/13 15/15/15
f 19/19/19 17/17/17 15/15/15
f 21/21/21 17/17/17 19/19/19
f 23/23/23 21/21/21 19/19/19
f 25/25/25 21/21/21 23/23/23
f 27/27/27 25/25/25 23/23/23
f 29/29/29 25/25/25 27/27/27
f 31/31/31 29/29/29 27/27/27
f 33/33/33 29/29/29 31/31/31
f 35/35/35 33/33/33 31/31/31
f 37/37/37 33/33/33 35/35/35
f 39/39/39 37/37/37 35/35/35
f 41/41/41 37/37/37 39/39/39
f 43/43/43 41/41/41 39/39/39
f 45/45/45 41/41/41 43/43/43
f 47/47/47 45/45/45 43/43/43
f 49/49/49 45/45/45 47/47/47
f 51/51/51 49/49/49 47/47/47
f 53/53/53 49/49/49 51/51/51
f 55/55/55 53/53/53 51/51/51
f 57/57/57 53/53/53 55/55/55
f 59/59/59 57/57/57 55/55/55
f 61/61/61 57/57/57 59/59/59
f 63/63/63 61/61/61 59/59/59
f 65/65/65 61/61/61 63/63/63
f 67/67/67 65/65/65 63/63/63
f 69/69/69 65/65/65 67/67/67
f 71/71/71 69/69/69 67/67/67
f 73/73/73 69/69/69 71/71/71
f 75/75/75 73/73/73 71/71/71
f 77/77/77 73/73/73 75/75/75
f 79/79/79 77/77/77 75/75/75
f 81/81/81 77/77/77 79/79/79
f 83/83/83 81/81/81 79/79/79
f 85/85/85 81/81/81 83/83/83
f 87/87/87 85/85/85 83/83/83
f 89/89/89 85/85/85 87/87/87
f 91/91/91 89/89/89 87/87/87
f 93/93/93 89/89/89 91/91/91
f 95/95/95 93/93/93 91/91/91
f 97/97/97 93/93/93 95/95/95
f 99/99/99 97/97/97 95/95/95
f 101/101/101 97/97/97 99/99/99
f 103/103/103 101/101/101 99/99/99
f 105/105/105 101/101/101 103/103/103
f 107/107/107 105/105/105 103/103/103
f 109/109/109 105/105/105 107/107/107
f 111/111/111 109/109/109 107/107/107
f 113/113/113 109/109/109 111/111/111
f 115/115/115 113/113/113 111/111/111
f 117/117/117 113/113/113 115/115/115
f 119/119/119 117/117/117 115/115/115
f 121/121/121 117/117/117 119/119/119
f 123/123/123 121/121/121 119/119/119
f 125/125/125 121/121/121 123/123/123
f 127/127/127 125/125/125 123/123/123
f 129/129/129 125/125/125 127/127/127
f 131/131/131 129/129/129 127/127/127
