mtllib ./Road2_1_15.mtl
g Markers0
v -287.4657 5.11 152.8954
v -287.4657 5.11 152.8954
v -287.6164 5.11 140.9046
v -287.6164 5.11 140.9046
v -292.3552 4.922493 153.0179
v -292.3552 4.922493 153.0179
v -292.76 4.922493 141.0333
v -292.76 4.922493 141.0333
v -297.3416 4.731651 153.2107
v -297.3416 4.731651 153.2107
v -297.8506 4.731651 141.2301
v -297.8506 4.731651 141.2301
v -302.3294 4.540602 153.4346
v -302.3294 4.540602 153.4346
v -302.8906 4.540602 141.4565
v -302.8906 4.540602 141.4565
v -307.3351 4.348753 153.6755
v -307.3351 4.348753 153.6755
v -307.9234 4.348753 141.6987
v -307.9234 4.348753 141.6987
v -312.3674 4.155878 153.9257
v -312.3674 4.155878 153.9257
v -312.9681 4.155878 141.9495
v -312.9681 4.155878 141.9495
v -317.3826 3.963744 154.178
v -317.3826 3.963744 154.178
v -317.9855 3.963744 142.2019
v -317.9855 3.963744 142.2019
v -322.4329 3.770424 154.4314
v -322.4329 3.770424 154.4314
v -323.0309 3.770424 142.4551
v -323.0309 3.770424 142.4551
v -327.4659 3.578003 154.6806
v -327.4659 3.578003 154.6806
v -328.053 3.578003 142.7038
v -328.053 3.578003 142.7038
v -332.5063 3.385602 154.9246
v -332.5063 3.385602 154.9246
v -333.0776 3.385602 142.9469
v -333.0776 3.385602 142.9469
v -337.5197 3.19459 155.1596
v -337.5197 3.19459 155.1596
v -338.0708 3.19459 143.181
v -338.0708 3.19459 143.181
v -342.5485 3.003422 155.3859
v -342.5485 3.003422 155.3859
v -343.0749 3.003422 143.4062
v -343.0749 3.003422 143.4062
v -347.5686 2.81308 155.6006
v -347.5686 2.81308 155.6006
v -348.066 2.81308 143.6196
v -348.066 2.81308 143.6196
v -352.6312 2.621695 155.8038
v -352.6312 2.621695 155.8038
v -353.0948 2.621695 143.8214
v -353.0948 2.621695 143.8214
v -357.7169 2.430102 155.9925
v -357.7169 2.430102 155.9925
v -358.1414 2.430102 144.0085
v -358.1414 2.430102 144.0085
v -362.8055 2.239146 156.1635
v -362.8055 2.239146 156.1635
v -363.1854 2.239146 144.178
v -363.1854 2.239146 144.178
v -367.8775 2.049666 156.3138
v -367.8775 2.049666 156.3138
v -368.2067 2.049666 144.3267
v -368.2067 2.049666 144.3267
v -372.9132 1.862506 156.4402
v -372.9132 1.862506 156.4402
v -373.1847 1.862506 144.4517
v -373.1847 1.862506 144.4517
v -377.9648 1.675867 156.541
v -377.9648 1.675867 156.541
v -378.1698 1.675867 144.551
v -378.1698 1.675867 144.551
v -383.0091 1.490787 156.6115
v -383.0091 1.490787 156.6115
v -383.1372 1.490787 144.6204
v -383.1372 1.490787 144.6204
v -388.09 1.305888 156.6472
v -388.09 1.305888 156.6472
v -388.1274 1.305888 144.6553
v -388.1274 1.305888 144.6553
v -393.1752 1.12266 156.641
v -393.1752 1.12266 156.641
v -393.1049 1.12266 144.649
v -393.1049 1.12266 144.649
v -398.2932 0.9404955 156.584
v -398.2932 0.9404955 156.584
v -398.0918 0.9404955 144.5934
v -398.0918 0.9404955 144.5934
v -403.3959 0.7616682 156.4652
v -403.3959 0.7616682 156.4652
v -403.0327 0.7616682 144.4782
v -403.0327 0.7616682 144.4782
v -408.5454 0.5848384 156.2664
v -408.5454 0.5848384 156.2664
v -407.9735 0.5848384 144.2872
v -407.9735 0.5848384 144.2872
v -413.7126 0.4123464 155.9625
v -413.7126 0.4123464 155.9625
v -412.861 0.4123464 143.9996
v -412.861 0.4123464 143.9996
v -418.9376 0.2451501 155.5081
v -418.9376 0.2451501 155.5081
v -417.6835 0.2451501 143.5801
v -417.6835 0.2451501 143.5801
v -424.2293 0.08752251 154.8199
v -424.2293 0.08752251 154.8199
v -422.3341 0.08752251 142.976
v -422.3341 0.08752251 142.976

vn -0.03830924 0.9992658 0.0004814529
vn 0 0 0
vn -0.03733029 0.9993026 0.000864988
vn 0 0 0
vn -0.03761721 0.9992917 0.00100621
vn 0 0 0
vn -0.03732265 0.9993023 0.001369718
vn 0 0 0
vn -0.03792905 0.9992792 0.001501463
vn 0 0 0
vn -0.0377987 0.999284 0.001661017
vn 0 0 0
vn -0.03807078 0.9992735 0.001728424
vn 0 0 0
vn -0.03800412 0.9992759 0.001809394
vn 0 0 0
vn -0.03813963 0.9992707 0.001844689
vn 0 0 0
vn -0.03810616 0.9992719 0.001884962
vn 0 0 0
vn -0.03816764 0.9992695 0.001901093
vn 0 0 0
vn -0.03815517 0.9992701 0.001916081
vn 0 0 0
vn -0.03816988 0.9992694 0.001919297
vn 0 0 0
vn -0.03817201 0.9992693 0.001916591
vn 0 0 0
vn -0.03815237 0.9992701 0.001910362
vn 0 0 0
vn -0.03816532 0.9992696 0.001894186
vn 0 0 0
vn -0.03811899 0.9992715 0.001880314
vn 0 0 0
vn -0.03814115 0.9992706 0.001853024
vn 0 0 0
vn -0.03807256 0.9992733 0.001832941
vn 0 0 0
vn -0.03810262 0.9992722 0.001796061
vn 0 0 0
vn -0.03801312 0.9992757 0.0017703
vn 0 0 0
vn -0.0380503 0.9992744 0.001724298
vn 0 0 0
vn -0.0379416 0.9992785 0.001693266
vn 0 0 0
vn -0.03798582 0.9992769 0.001638365
vn 0 0 0
vn -0.03785691 0.9992819 0.00160211
vn 0 0 0
vn -0.03790803 0.99928 0.001537909
vn 0 0 0
vn -0.03775858 0.9992857 0.001496319
vn 0 0 0
vn -0.03781658 0.9992837 0.001421833
vn 0 0 0
vn -0.03764465 0.9992903 0.001374466
vn 0 0 0
vn -0.03771045 0.9992878 0.001289053
vn 0 0 0
vn -0.03751353 0.9992954 0.001235848
vn 0 0 0
vn -0.03758773 0.9992927 0.001138545
vn 0 0 0
vn -0.03736293 0.9993011 0.001079003
vn 0 0 0
vn -0.03744698 0.9992982 0.0009684326
vn 0 0 0
vn -0.03718812 0.9993079 0.0009018661
vn 0 0 0
vn -0.03728297 0.9993045 0.0007754131
vn 0 0 0
vn -0.03698594 0.9993156 0.0007009852
vn 0 0 0
vn -0.03709342 0.9993116 0.0005551579
vn 0 0 0
vn -0.03674653 0.9993245 0.0004711944
vn 0 0 0
vn -0.03686905 0.9993201 0.0003009739
vn 0 0 0
vn -0.03646268 0.9993349 0.0002059708
vn 0 0 0
vn -0.03660299 0.9993299 4.927545E-06
vn 0 0 0
vn -0.0361149 0.9993476 -0.0001034
vn 0 0 0
vn -0.03627733 0.9993417 -0.0003447256
vn 0 0 0
vn -0.03568566 0.999363 -0.0004686852
vn 0 0 0
vn -0.03587652 0.9993559 -0.0007632841
vn 0 0 0
vn -0.03513109 0.9993823 -0.0009059405
vn 0 0 0
vn -0.0353593 0.9993738 -0.001276304
vn 0 0 0
vn -0.03439759 0.9994072 -0.001440656
vn 0 0 0
vn -0.03467497 0.9993967 -0.001924002
vn 0 0 0
vn -0.03335471 0.9994413 -0.002110797
vn 0 0 0
vn -0.03370064 0.9994281 -0.002775647
vn 0 0 0
vn -0.03175167 0.9994914 -0.002971257
vn 0 0 0
vn -0.03219165 0.9994739 -0.003959026
vn 0 0 0
vn -0.03115624 0.999506 -0.004127586
vn 0 0 0
vn -0.03318509 0.9994351 -0.005310141
vn 0 0 0

vt 0 0
vt 0 0
vt 1 0
vt 0 0
vt 0 0.9789124
vt 0 0.9789124
vt 1 0.9789124
vt 1 0.9789124
vt 0 1.977677
vt 0 1.977677
vt 1 1.977677
vt 1 1.977677
vt 0 2.976965
vt 0 2.976965
vt 1 2.976965
vt 1 2.976965
vt 0 3.980005
vt 0 3.980005
vt 1 3.980005
vt 1 3.980005
vt 0 4.98845
vt 0 4.98845
vt 1 4.98845
vt 1 4.98845
vt 0 5.993481
vt 0 5.993481
vt 1 5.993481
vt 1 5.993481
vt 0 7.005549
vt 0 7.005549
vt 1 7.005549
vt 1 7.005549
vt 0 8.014121
vt 0 8.014121
vt 1 8.014121
vt 1 8.014121
vt 0 9.02411
vt 0 9.02411
vt 1 9.02411
vt 1 9.02411
vt 0 10.02862
vt 0 10.02862
vt 1 10.02862
vt 1 10.02862
vt 0 11.03613
vt 0 11.03613
vt 1 11.03613
vt 1 11.03613
vt 0 12.04179
vt 0 12.04179
vt 1 12.04179
vt 1 12.04179
vt 0 13.05585
vt 0 13.05585
vt 1 13.05585
vt 1 13.05585
vt 0 14.0744
vt 0 14.0744
vt 1 14.0744
vt 1 14.0744
vt 0 15.09341
vt 0 15.09341
vt 1 15.09341
vt 1 15.09341
vt 0 16.10897
vt 0 16.10897
vt 1 16.10897
vt 1 16.10897
vt 0 17.11712
vt 0 17.11712
vt 1 17.11712
vt 1 17.11712
vt 0 18.12834
vt 0 18.12834
vt 1 18.12834
vt 1 18.12834
vt 0 19.13796
vt 0 19.13796
vt 1 19.13796
vt 1 19.13796
vt 0 20.15485
vt 0 20.15485
vt 1 20.15485
vt 1 20.15485
vt 0 21.17255
vt 0 21.17255
vt 1 21.17255
vt 1 21.17255
vt 0 22.19687
vt 0 22.19687
vt 1 22.19687
vt 1 22.19687
vt 0 23.21831
vt 0 23.21831
vt 1 23.21831
vt 1 23.21831
vt 0 24.24959
vt 0 24.24959
vt 1 24.24959
vt 1 24.24959
vt 0 25.28537
vt 0 25.28537
vt 1 25.28537
vt 1 25.28537
vt 0 26.33485
vt 0 26.33485
vt 1 26.33485
vt 1 26.33485
vt 0 27.40257
vt 0 0
vt 1 27.40257
vt 0 0

usemtl GSDWhiteYellowDouble-4L
usemap GSDWhiteYellowDouble-4L
f 5/5/5 1/1/1 3/3/3
f 7/7/7 5/5/5 3/3/3
f 9/9/9 5/5/5 7/7/7
f 11/11/11 9/9/9 7/7/7
f 13/13/13 9/9/9 11/11/11
f 15/15/15 13/13/13 11/11/11
f 17/17/17 13/13/13 15/15/15
f 19/19/19 17/17/17 15/15/15
f 21/21/21 17/17/17 19/19/19
f 23/23/23 21/21/21 19/19/19
f 25/25/25 21/21/21 23/23/23
f 27/27/27 25/25/25 23/23/23
f 29/29/29 25/25/25 27/27/27
f 31/31/31 29/29/29 27/27/27
f 33/33/33 29/29/29 31/31/31
f 35/35/35 33/33/33 31/31/31
f 37/37/37 33/33/33 35/35/35
f 39/39/39 37/37/37 35/35/35
f 41/41/41 37/37/37 39/39/39
f 43/43/43 41/41/41 39/39/39
f 45/45/45 41/41/41 43/43/43
f 47/47/47 45/45/45 43/43/43
f 49/49/49 45/45/45 47/47/47
f 51/51/51 49/49/49 47/47/47
f 53/53/53 49/49/49 51/51/51
f 55/55/55 53/53/53 51/51/51
f 57/57/57 53/53/53 55/55/55
f 59/59/59 57/57/57 55/55/55
f 61/61/61 57/57/57 59/59/59
f 63/63/63 61/61/61 59/59/59
f 65/65/65 61/61/61 63/63/63
f 67/67/67 65/65/65 63/63/63
f 69/69/69 65/65/65 67/67/67
f 71/71/71 69/69/69 67/67/67
f 73/73/73 69/69/69 71/71/71
f 75/75/75 73/73/73 71/71/71
f 77/77/77 73/73/73 75/75/75
f 79/79/79 77/77/77 75/75/75
f 81/81/81 77/77/77 79/79/79
f 83/83/83 81/81/81 79/79/79
f 85/85/85 81/81/81 83/83/83
f 87/87/87 85/85/85 83/83/83
f 89/89/89 85/85/85 87/87/87
f 91/91/91 89/89/89 87/87/87
f 93/93/93 89/89/89 91/91/91
f 95/95/95 93/93/93 91/91/91
f 97/97/97 93/93/93 95/95/95
f 99/99/99 97/97/97 95/95/95
f 101/101/101 97/97/97 99/99/99
f 103/103/103 101/101/101 99/99/99
f 105/105/105 101/101/101 103/103/103
f 107/107/107 105/105/105 103/103/103
f 109/109/109 105/105/105 107/107/107
f 111/111/111 109/109/109 107/107/107
