mtllib ./Road2_1_16.mtl
g RoadCut1
v -424.2293 0.07752226 154.8199
v -424.2293 0.07752226 154.8199
v -422.3341 0.07752226 142.976
v -422.3341 0.07752226 142.976
v -429.6296 0 153.7477
v -429.6296 0 153.7477
v -426.8652 0 142.0746
v -426.8652 0 142.0746
v -434.9313 0 152.2708
v -434.9313 0 152.2708
v -431.2365 0 140.8565
v -431.2365 0 140.8565
v -440.1621 0 150.3071
v -440.1621 0 150.3071
v -435.4037 0 139.2922
v -435.4037 0 139.2922
v -445.2706 0 147.7617
v -445.2706 0 147.7617
v -439.3135 0 137.3451
v -439.3135 0 137.3451
v -450.0944 0 144.5831
v -450.0944 0 144.5831
v -442.8468 0 135.019
v -442.8468 0 135.019
v -454.5123 0 140.7032
v -454.5123 0 140.7032
v -445.9449 0 132.3014
v -445.9449 0 132.3014
v -458.3562 0 136.0945
v -458.3562 0 136.0945
v -448.5422 0 129.1912
v -448.5422 0 129.1912
v -461.4032 0 130.8583
v -461.4032 0 130.8583
v -450.5485 0 125.7474
v -450.5485 0 125.7474
v -463.496 0 125.1367
v -463.496 0 125.1367
v -451.9026 0 122.0483
v -451.9026 0 122.0483
v -464.5152 0.003147438 119.0657
v -464.5152 0.003147438 119.0657
v -452.5453 0.003147438 118.2309
v -452.5453 0.003147438 118.2309

vn -0.01391162 0.9999007 -0.00222608
vn 0 0 0
vn -0.01501818 0.9998828 -0.002975678
vn 0 0 0
vn -0.009730567 0.9999508 -0.001927998
vn 0 0 0
vn -0.005148859 0.999986 -0.001219345
vn 0 0 0
vn 0 1 0
vn 0 0 0
vn 0 1 0
vn 0 0 0
vn 0 1 0
vn 0 0 0
vn 0 1 0
vn 0 0 0
vn 0 1 0
vn 0 0 0
vn 0 1 0
vn 0 0 0
vn 0 1 0
vn 0 0 0
vn 0 1 0
vn 0 0 0
vn 0 1 0
vn 0 0 0
vn 0 0.9999999 0
vn 0 0 0
vn 0 0.9999999 0
vn 0 0 0
vn 0 1 0
vn 0 0 0
vn 0 1 0
vn 0 0 0
vn 0 0.9999999 0
vn 0 0 0
vn 5.026123E-05 1 0.0001886714
vn 0 0 0
vn 7.401636E-05 0.9999999 0.0004445519
vn 0 0 0
vn 0.0001031058 0.9999998 0.0006192668
vn 0 0 0
vn 5.683382E-05 0.9999997 0.0008149381
vn 0 0 0

vt 0 0
vt 0 0
vt -0.3790405 -2.368768
vt -0.3790405 -2.368768
vt 1.080072 -0.2144409
vt 1.080072 -0.2144409
vt 0.5271912 -2.54906
vt 0.5271912 -2.54906
vt 2.140411 -0.5098023
vt 2.140411 -0.5098023
vt 1.401447 -2.79267
vt 1.401447 -2.79267
vt 3.18656 -0.9025574
vt 3.18656 -0.9025574
vt 2.234875 -3.10553
vt 2.234875 -3.10553
vt 4.208258 -1.411636
vt 4.208258 -1.411636
vt 3.016852 -3.494956
vt 3.016852 -3.494956
vt 5.173028 -2.047351
vt 5.173028 -2.047351
vt 3.723505 -3.960169
vt 3.723505 -3.960169
vt 6.05661 -2.823334
vt 6.05661 -2.823334
vt 4.343122 -4.503699
vt 4.343122 -4.503699
vt 6.825378 -3.745065
vt 6.825378 -3.745065
vt 4.862586 -5.12573
vt 4.862586 -5.12573
vt 7.434784 -4.792306
vt 7.434784 -4.792306
vt 5.263837 -5.814493
vt 5.263837 -5.814493
vt 7.853339 -5.936636
vt 7.853339 -5.936636
vt 5.534674 -6.554318
vt 5.534674 -6.554318
vt 8.057178 -7.150835
vt 8.057178 -7.150835
vt 5.663208 -7.317791
vt 5.663208 -7.317791

usemtl GSDRoad1
usemap GSDRoad1
f 5/5/5 1/1/1 3/3/3
f 7/7/7 5/5/5 3/3/3
f 9/9/9 5/5/5 7/7/7
f 11/11/11 9/9/9 7/7/7
f 13/13/13 9/9/9 11/11/11
f 15/15/15 13/13/13 11/11/11
f 17/17/17 13/13/13 15/15/15
f 19/19/19 17/17/17 15/15/15
f 21/21/21 17/17/17 19/19/19
f 23/23/23 21/21/21 19/19/19
f 25/25/25 21/21/21 23/23/23
f 27/27/27 25/25/25 23/23/23
f 29/29/29 25/25/25 27/27/27
f 31/31/31 29/29/29 27/27/27
f 33/33/33 29/29/29 31/31/31
f 35/35/35 33/33/33 31/31/31
f 37/37/37 33/33/33 35/35/35
f 39/39/39 37/37/37 35/35/35
f 41/41/41 37/37/37 39/39/39
f 43/43/43 41/41/41 39/39/39
