mtllib ./Road1_0_20.mtl
g RoadCut3
v -305.8885 0.03 387.459
v -305.8885 0.03 387.459
v -303.1531 0.03 375.7749
v -303.1531 0.03 375.7749
v -310.3417 0.03 386.6313
v -310.3417 0.03 386.6313
v -308.6156 0.03 374.7561
v -308.6156 0.03 374.7561
v -315.0421 0.03 386.0754
v -315.0421 0.03 386.0754
v -313.8971 0.03 374.1302
v -313.8971 0.03 374.1302
v -319.8907 0.03 385.6908
v -319.8907 0.03 385.6908
v -319.1113 0.03 373.7162
v -319.1113 0.03 373.7162
v -324.7788 0.03 385.4259
v -324.7788 0.03 385.4259
v -324.2439 0.03 373.4378
v -324.2439 0.03 373.4378
v -329.7041 0.03 385.2433
v -329.7041 0.03 385.2433
v -329.3399 0.03 373.2488
v -329.3399 0.03 373.2488
v -334.6489 0.03 385.1194
v -334.6489 0.03 385.1194
v -334.4051 0.03 373.1219
v -334.4051 0.03 373.1219
v -339.6283 0.03 385.0369
v -339.6283 0.03 385.0369
v -339.4685 0.03 373.0379
v -339.4685 0.03 373.0379
v -344.679 0.03 384.9823
v -344.679 0.03 384.9823
v -344.575 0.03 372.9827
v -344.575 0.03 372.9827
v -349.6733 0.03 384.9462
v -349.6733 0.03 384.9462
v -349.6006 0.03 372.9464
v -349.6006 0.03 372.9464
v -354.7559 0.03 384.9184
v -354.7559 0.03 384.9184
v -354.6941 0.03 372.9186
v -354.6941 0.03 372.9186
v -359.8074 0.03 384.8913
v -359.8074 0.03 384.8913
v -359.7372 0.03 372.8915
v -359.7372 0.03 372.8915
v -364.8927 0.03 384.8565
v -364.8927 0.03 384.8565
v -364.7957 0.03 372.8569
v -364.7957 0.03 372.8569
v -369.9871 0.03 384.8063
v -369.9871 0.03 384.8063
v -369.8445 0.03 372.8072
v -369.8445 0.03 372.8072
v -375.0659 0.03 384.733
v -375.0659 0.03 384.733
v -374.8582 0.03 372.7347
v -374.8582 0.03 372.7347
v -380.1961 0.03 384.6261
v -380.1961 0.03 384.6261
v -379.9003 0.03 372.6298
v -379.9003 0.03 372.6298
v -385.2596 0.03 384.4786
v -385.2596 0.03 384.4786
v -384.8518 0.03 372.4855
v -384.8518 0.03 372.4855
v -390.4072 0.03 384.2738
v -390.4072 0.03 384.2738
v -389.8549 0.03 372.2865
v -389.8549 0.03 372.2865
v -395.5149 0.03 384.0011
v -395.5149 0.03 384.0011
v -394.7808 0.03 372.0235
v -394.7808 0.03 372.0235
v -400.6308 0.03 383.6398
v -400.6308 0.03 383.6398
v -399.6647 0.03 371.6787
v -399.6647 0.03 371.6787
v -405.7859 0.03 383.1606
v -405.7859 0.03 383.1606
v -404.5173 0.03 371.2278
v -404.5173 0.03 371.2278
v -410.9915 0.03 382.5217
v -410.9915 0.03 382.5217
v -409.3167 0.03 370.6391
v -409.3167 0.03 370.6391
v -416.231 0.03 381.6626
v -416.231 0.03 381.6626
v -413.9908 0.03 369.8735
v -413.9908 0.03 369.8735
v -421.5839 0.03 380.4574
v -421.5839 0.03 380.4574
v -418.4969 0.03 368.8612
v -418.4969 0.03 368.8612

vn -4.008321E-10 1 -9.38406E-11
vn 0 0 0
vn -3.628995E-10 1 -6.872335E-11
vn 0 0 0
vn -2.469489E-10 1 -4.676544E-11
vn 0 0 0
vn -1.18153E-10 1 -1.717369E-11
vn 0 0 0
vn -1.243412E-10 1 -1.191817E-11
vn 0 0 0
vn -2.40931E-10 1 -1.93831E-11
vn 0 0 0
vn -1.237057E-10 1 -1.185726E-11
vn 0 0 0
vn 1.218995E-10 1 5.439189E-12
vn 0 0 0
vn 2.485742E-10 1 1.363402E-11
vn 0 0 0
vn 1.226814E-10 1 5.474075E-12
vn 0 0 0
vn 0 1 0
vn 0 0 0
vn 0 1 0
vn 0 0 0
vn 0 1 0
vn 0 0 0
vn 0 0.9999999 0
vn 0 0 0
vn 0 1 0
vn 0 0 0
vn 0 0.9999999 0
vn 0 0 0
vn 0 1 0
vn 0 0 0
vn 0 1 0
vn 0 0 0
vn 0 1 0
vn 0 0 0
vn 0 1 0
vn 0 0 0
vn 0 1 0
vn 0 0 0
vn 0 0.9999999 0
vn 0 0 0
vn 0 0.9999999 0
vn 0 0 0
vn 0 1 0
vn 0 0 0
vn -1.222273E-10 1 -9.878802E-13
vn 0 0 0
vn -2.450364E-10 1 -2.446026E-12
vn 0 0 0
vn -2.44703E-10 1 -2.442699E-12
vn 0 0 0
vn -1.229991E-10 0.9999999 -1.461519E-12
vn 0 0 0
vn 1.223252E-10 1 2.118208E-12
vn 0 0 0
vn 2.452133E-10 1 5.145945E-12
vn 0 0 0
vn 3.665695E-10 1 8.141085E-12
vn 0 0 0
vn 3.708403E-10 1 1.029766E-11
vn 0 0 0
vn 1.22741E-10 0.9999999 3.026247E-12
vn 0 0 0
vn -1.231248E-10 1 -5.673519E-12
vn 0 0 0
vn -2.437076E-10 1 -9.757135E-12
vn 0 0 0
vn -1.235956E-10 1 -5.695215E-12
vn 0 0 0
vn 0 0.9999999 0
vn 0 0 0
vn 0 1 0
vn 0 0 0
vn 0 1 0
vn 0 0 0
vn 0 1 0
vn 0 0 0
vn 0 1 0
vn 0 0 0
vn 0 1 0
vn 0 0 0
vn 0 1 0
vn 0 0 0
vn 0 1 0
vn 0 0 0
vn 0 1 0
vn 0 0 0
vn 0 1 0
vn 0 0 0
vn 0 1 0
vn 0 0 0
vn 0 1 0
vn 0 0 0

vt 0 0
vt 0 0
vt -0.5470825 -2.336817
vt -0.5470825 -2.336817
vt 0.8906311 -0.1655518
vt 0.8906311 -0.1655518
vt 0.5454163 -2.540588
vt 0.5454163 -2.540588
vt 1.830701 -0.2767151
vt 1.830701 -0.2767151
vt 1.601709 -2.665766
vt 1.601709 -2.665766
vt 2.80044 -0.3536377
vt 2.80044 -0.3536377
vt 2.644556 -2.748572
vt 2.644556 -2.748572
vt 3.778058 -0.4066162
vt 3.778058 -0.4066162
vt 3.671076 -2.804236
vt 3.671076 -2.804236
vt 4.763104 -0.4431458
vt 4.763104 -0.4431458
vt 4.690265 -2.842035
vt 4.690265 -2.842035
vt 5.752069 -0.4679138
vt 5.752069 -0.4679138
vt 5.703314 -2.867413
vt 5.703314 -2.867413
vt 6.747949 -0.4844299
vt 6.747949 -0.4844299
vt 6.715991 -2.884223
vt 6.715991 -2.884223
vt 7.758081 -0.4953491
vt 7.758081 -0.4953491
vt 7.73728 -2.895264
vt 7.73728 -2.895264
vt 8.756958 -0.5025635
vt 8.756958 -0.5025635
vt 8.742419 -2.902515
vt 8.742419 -2.902515
vt 9.773468 -0.5081177
vt 9.773468 -0.5081177
vt 9.761103 -2.908081
vt 9.761103 -2.908081
vt 10.78376 -0.5135437
vt 10.78376 -0.5135437
vt 10.76974 -2.913507
vt 10.76974 -2.913507
vt 11.80084 -0.5204956
vt 11.80084 -0.5204956
vt 11.78144 -2.920422
vt 11.78144 -2.920422
vt 12.81971 -0.5305359
vt 12.81971 -0.5305359
vt 12.79119 -2.930365
vt 12.79119 -2.930365
vt 13.83547 -0.5452088
vt 13.83547 -0.5452088
vt 13.79392 -2.944855
vt 13.79392 -2.944855
vt 14.86151 -0.5665771
vt 14.86151 -0.5665771
vt 14.80235 -2.965845
vt 14.80235 -2.965845
vt 15.8742 -0.5960876
vt 15.8742 -0.5960876
vt 15.79266 -2.994696
vt 15.79266 -2.994696
vt 16.90374 -0.6370484
vt 16.90374 -0.6370484
vt 16.79326 -3.034509
vt 16.79326 -3.034509
vt 17.92528 -0.6915894
vt 17.92528 -0.6915894
vt 17.77845 -3.087097
vt 17.77845 -3.087097
vt 18.94845 -0.7638428
vt 18.94845 -0.7638428
vt 18.75522 -3.156055
vt 18.75522 -3.156055
vt 19.97948 -0.8596924
vt 19.97948 -0.8596924
vt 19.72575 -3.24624
vt 19.72575 -3.24624
vt 21.02059 -0.9874634
vt 21.02059 -0.9874634
vt 20.68563 -3.363977
vt 20.68563 -3.363977
vt 22.06848 -1.159284
vt 22.06848 -1.159284
vt 21.62046 -3.517096
vt 21.62046 -3.517096
vt 23.13907 -1.40033
vt 23.13907 -1.40033
vt 22.52167 -3.719556
vt 22.52167 -3.719556

usemtl GSDRoad1
usemap GSDRoad1
f 5/5/5 1/1/1 3/3/3
f 7/7/7 5/5/5 3/3/3
f 9/9/9 5/5/5 7/7/7
f 11/11/11 9/9/9 7/7/7
f 13/13/13 9/9/9 11/11/11
f 15/15/15 13/13/13 11/11/11
f 17/17/17 13/13/13 15/15/15
f 19/19/19 17/17/17 15/15/15
f 21/21/21 17/17/17 19/19/19
f 23/23/23 21/21/21 19/19/19
f 25/25/25 21/21/21 23/23/23
f 27/27/27 25/25/25 23/23/23
f 29/29/29 25/25/25 27/27/27
f 31/31/31 29/29/29 27/27/27
f 33/33/33 29/29/29 31/31/31
f 35/35/35 33/33/33 31/31/31
f 37/37/37 33/33/33 35/35/35
f 39/39/39 37/37/37 35/35/35
f 41/41/41 37/37/37 39/39/39
f 43/43/43 41/41/41 39/39/39
f 45/45/45 41/41/41 43/43/43
f 47/47/47 45/45/45 43/43/43
f 49/49/49 45/45/45 47/47/47
f 51/51/51 49/49/49 47/47/47
f 53/53/53 49/49/49 51/51/51
f 55/55/55 53/53/53 51/51/51
f 57/57/57 53/53/53 55/55/55
f 59/59/59 57/57/57 55/55/55
f 61/61/61 57/57/57 59/59/59
f 63/63/63 61/61/61 59/59/59
f 65/65/65 61/61/61 63/63/63
f 67/67/67 65/65/65 63/63/63
f 69/69/69 65/65/65 67/67/67
f 71/71/71 69/69/69 67/67/67
f 73/73/73 69/69/69 71/71/71
f 75/75/75 73/73/73 71/71/71
f 77/77/77 73/73/73 75/75/75
f 79/79/79 77/77/77 75/75/75
f 81/81/81 77/77/77 79/79/79
f 83/83/83 81/81/81 79/79/79
f 85/85/85 81/81/81 83/83/83
f 87/87/87 85/85/85 83/83/83
f 89/89/89 85/85/85 87/87/87
f 91/91/91 89/89/89 87/87/87
f 93/93/93 89/89/89 91/91/91
f 95/95/95 93/93/93 91/91/91
