mtllib ./Road1_0_65.mtl
g SCutR13
v -116.9621 0.03 456.0544
v -116.9621 0.03 456.0544
v -114.7896 0.03 458.1232
v -114.7896 0.03 458.1232
v -114.7896 0.03 458.1232
v -114.7896 0.03 458.1232
v -113.1601 -0.35 459.6748
v -113.1601 -0.35 459.6748
v -113.4235 0.03 452.1519
v -113.4235 0.03 452.1519
v -111.1607 0.03 454.1216
v -111.1607 0.03 454.1216
v -111.1607 0.03 454.1216
v -111.1607 0.03 454.1216
v -109.4637 -0.35 455.5989
v -109.4637 -0.35 455.5989
v -110.0631 0.03 448.1826
v -110.0631 0.03 448.1826
v -107.7504 0.03 450.0934
v -107.7504 0.03 450.0934
v -107.7504 0.03 450.0934
v -107.7504 0.03 450.0934
v -106.0158 -0.35 451.5266
v -106.0158 -0.35 451.5266
v -106.8297 0.03 444.1933
v -106.8297 0.03 444.1933
v -104.4831 0.03 446.0624
v -104.4831 0.03 446.0624
v -104.4831 0.03 446.0624
v -104.4831 0.03 446.0624
v -102.7232 -0.35 447.4642
v -102.7232 -0.35 447.4642
v -103.6895 0.03 440.1935
v -103.6895 0.03 440.1935
v -101.3178 0.03 442.0305
v -101.3178 0.03 442.0305
v -101.3178 0.03 442.0305
v -101.3178 0.03 442.0305
v -99.53901 -0.35 443.4084
v -99.53901 -0.35 443.4084
v -100.5709 0.03 436.1193
v -100.5709 0.03 436.1193
v -98.17897 0.03 437.93
v -98.17897 0.03 437.93
v -98.17897 0.03 437.93
v -98.17897 0.03 437.93
v -96.38502 -0.35 439.2881
v -96.38502 -0.35 439.2881
v -97.50907 0.03 432.0344
v -97.50907 0.03 432.0344
v -95.10043 0.03 433.8228
v -95.10043 0.03 433.8228
v -95.10043 0.03 433.8228
v -95.10043 0.03 433.8228
v -93.29394 -0.35 435.1641
v -93.29394 -0.35 435.1641
v -94.48785 0.03 427.9302
v -94.48785 0.03 427.9302
v -92.06487 0.03 429.6992
v -92.06487 0.03 429.6992
v -92.06487 0.03 429.6992
v -92.06487 0.03 429.6992
v -90.24763 -0.35 431.0259
v -90.24763 -0.35 431.0259
v -91.48234 0.03 423.7815
v -91.48234 0.03 423.7815
v -89.04665 0.03 425.533
v -89.04665 0.03 425.533
v -89.04665 0.03 425.533
v -89.04665 0.03 425.533
v -87.21989 -0.35 426.8465
v -87.21989 -0.35 426.8465
v -88.50889 0.03 419.6172
v -88.50889 0.03 419.6172
v -86.06177 0.03 421.3526
v -86.06177 0.03 421.3526
v -86.06177 0.03 421.3526
v -86.06177 0.03 421.3526
v -84.22643 -0.35 422.6542
v -84.22643 -0.35 422.6542
v -85.58218 0.03 415.4634
v -85.58218 0.03 415.4634
v -83.12463 0.03 417.184
v -83.12463 0.03 417.184
v -83.12463 0.03 417.184
v -83.12463 0.03 417.184
v -81.28147 -0.35 418.4745
v -81.28147 -0.35 418.4745
v -82.66528 0.03 411.2716
v -82.66528 0.03 411.2716
v -80.19798 0.03 412.9781
v -80.19798 0.03 412.9781
v -80.19798 0.03 412.9781
v -80.19798 0.03 412.9781
v -78.34749 -0.35 414.2581
v -78.34749 -0.35 414.2581
v -79.76799 0.03 407.0582
v -79.76799 0.03 407.0582
v -77.29144 0.03 408.7513
v -77.29144 0.03 408.7513
v -77.29144 0.03 408.7513
v -77.29144 0.03 408.7513
v -75.43401 -0.35 410.0211
v -75.43401 -0.35 410.0211
v -76.89924 0.03 402.8383
v -76.89924 0.03 402.8383
v -74.41386 0.03 404.5184
v -74.41386 0.03 404.5184
v -74.41386 0.03 404.5184
v -74.41386 0.03 404.5184
v -72.54982 -0.35 405.7785
v -72.54982 -0.35 405.7785
v -74.06724 0.03 398.6259
v -74.06724 0.03 398.6259
v -71.57336 0.03 400.2934
v -71.57336 0.03 400.2934
v -71.57336 0.03 400.2934
v -71.57336 0.03 400.2934
v -69.70294 -0.35 401.544
v -69.70294 -0.35 401.544
v -71.27937 0.03 394.4338
v -71.27937 0.03 394.4338
v -68.77724 0.03 396.0889
v -68.77724 0.03 396.0889
v -68.77724 0.03 396.0889
v -68.77724 0.03 396.0889
v -66.90064 -0.35 397.3302
v -66.90064 -0.35 397.3302
v -68.49182 0.03 390.1969
v -68.49182 0.03 390.1969
v -65.9815 0.03 391.8395
v -65.9815 0.03 391.8395
v -65.9815 0.03 391.8395
v -65.9815 0.03 391.8395
v -64.09876 -0.35 393.0715
v -64.09876 -0.35 393.0715
v -65.71116 0.03 385.9241
v -65.71116 0.03 385.9241
v -63.19264 0.03 387.5542
v -63.19264 0.03 387.5542
v -63.19264 0.03 387.5542
v -63.19264 0.03 387.5542
v -61.30375 -0.35 388.7767
v -61.30375 -0.35 388.7767
v -62.94382 0.03 381.6245
v -62.94382 0.03 381.6245
v -60.41704 0.03 383.2417
v -60.41704 0.03 383.2417
v -60.41704 0.03 383.2417
v -60.41704 0.03 383.2417
v -58.52195 -0.35 384.4546
v -58.52195 -0.35 384.4546
v -60.19642 0.03 377.3073
v -60.19642 0.03 377.3073
v -57.66127 0.03 378.9113
v -57.66127 0.03 378.9113
v -57.66127 0.03 378.9113
v -57.66127 0.03 378.9113
v -55.7599 -0.35 380.1144
v -55.7599 -0.35 380.1144
v -57.47552 0.03 372.9817
v -57.47552 0.03 372.9817
v -54.93184 0.03 374.5722
v -54.93184 0.03 374.5722
v -54.93184 0.03 374.5722
v -54.93184 0.03 374.5722
v -53.02407 -0.35 375.7651
v -53.02407 -0.35 375.7651
v -54.78762 0.03 368.6566
v -54.78762 0.03 368.6566
v -52.2352 0.03 370.233
v -52.2352 0.03 370.233
v -52.2352 0.03 370.233
v -52.2352 0.03 370.233
v -50.32088 -0.35 371.4153
v -50.32088 -0.35 371.4153
v -52.1394 0.03 364.3414
v -52.1394 0.03 364.3414
v -49.57797 0.03 365.9031
v -49.57797 0.03 365.9031
v -49.57797 0.03 365.9031
v -49.57797 0.03 365.9031
v -47.65689 -0.35 367.0744
v -47.65689 -0.35 367.0744
v -49.49055 0.03 359.9672
v -49.49055 0.03 359.9672
v -46.91962 0.03 361.5132
v -46.91962 0.03 361.5132
v -46.91962 0.03 361.5132
v -46.91962 0.03 361.5132
v -44.99141 -0.35 362.6728
v -44.99141 -0.35 362.6728
v -46.89635 0.03 355.622
v -46.89635 0.03 355.622
v -44.31551 0.03 357.1514
v -44.31551 0.03 357.1514
v -44.31551 0.03 357.1514
v -44.31551 0.03 357.1514
v -42.37986 -0.35 358.2985
v -42.37986 -0.35 358.2985
v -44.31929 0.03 351.2391
v -44.31929 0.03 351.2391
v -41.72786 0.03 352.7505
v -41.72786 0.03 352.7505
v -41.72786 0.03 352.7505
v -41.72786 0.03 352.7505
v -39.78428 -0.35 353.8841
v -39.78428 -0.35 353.8841
v -41.77 0.03 346.8305
v -41.77 0.03 346.8305
v -39.16721 0.03 348.3224
v -39.16721 0.03 348.3224
v -39.16721 0.03 348.3224
v -39.16721 0.03 348.3224
v -37.2151 -0.35 349.4412
v -37.2151 -0.35 349.4412
v -39.2601 0.03 342.4097
v -39.2601 0.03 342.4097
v -36.64503 0.03 343.8799
v -36.64503 0.03 343.8799
v -36.64503 0.03 343.8799
v -36.64503 0.03 343.8799
v -34.68373 -0.35 344.9825
v -34.68373 -0.35 344.9825
v -36.80222 0.03 337.9914
v -36.80222 0.03 337.9914
v -34.17381 0.03 339.4376
v -34.17381 0.03 339.4376
v -34.17381 0.03 339.4376
v -34.17381 0.03 339.4376
v -32.20248 -0.35 340.5222
v -32.20248 -0.35 340.5222
v -34.37125 0.03 333.5195
v -34.37125 0.03 333.5195
v -31.72795 0.03 334.9383
v -31.72795 0.03 334.9383
v -31.72795 0.03 334.9383
v -31.72795 0.03 334.9383
v -29.74549 -0.35 336.0024
v -29.74549 -0.35 336.0024
v -31.98756 0.03 329.0161
v -31.98756 0.03 329.0161
v -29.32759 0.03 330.4033
v -29.32759 0.03 330.4033
v -29.32759 0.03 330.4033
v -29.32759 0.03 330.4033
v -27.33261 -0.35 331.4438
v -27.33261 -0.35 331.4438
v -29.63975 0.03 324.4385
v -29.63975 0.03 324.4385
v -26.96057 0.03 325.7883
v -26.96057 0.03 325.7883
v -26.96057 0.03 325.7883
v -26.96057 0.03 325.7883
v -24.9512 -0.35 326.8007
v -24.9512 -0.35 326.8007
v -27.3602 0.03 319.821
v -27.3602 0.03 319.821
v -24.65874 0.03 321.1256
v -24.65874 0.03 321.1256
v -24.65874 0.03 321.1256
v -24.65874 0.03 321.1256
v -22.63264 -0.35 322.1041
v -22.63264 -0.35 322.1041
v -25.15721 0.03 315.1404
v -25.15721 0.03 315.1404
v -22.42921 0.03 316.3886
v -22.42921 0.03 316.3886
v -22.42921 0.03 316.3886
v -22.42921 0.03 316.3886
v -20.38321 -0.35 317.3248
v -20.38321 -0.35 317.3248
v -23.05642 0.03 310.3895
v -23.05642 0.03 310.3895
v -20.29601 0.03 311.5643
v -20.29601 0.03 311.5643
v -20.29601 0.03 311.5643
v -20.29601 0.03 311.5643
v -18.22569 -0.35 312.4454
v -18.22569 -0.35 312.4454
v -21.08488 0.03 305.5258
v -21.08488 0.03 305.5258
v -18.2834 0.03 306.599
v -18.2834 0.03 306.599
v -18.2834 0.03 306.599
v -18.2834 0.03 306.599
v -16.1823 -0.35 307.4039
v -16.1823 -0.35 307.4039

vn 0 1 0
vn 0 0 0
vn 0 1 0
vn 0 0 0
vn 0.1233959 0.9860281 0.1119011
vn 0 0 0
vn 0.1233891 0.9860293 0.1118987
vn 0 0 0
vn 0 1 0
vn 0 0 0
vn 0 1 0
vn 0 0 0
vn 0.1246031 0.9860342 0.110502
vn 0 0 0
vn 0.1258358 0.9860362 0.1090768
vn 0 0 0
vn 0 1 0
vn 0 0 0
vn 0 1 0
vn 0 0 0
vn 0.1278525 0.9860356 0.1067114
vn 0 0 0
vn 0.1286073 0.9860364 0.105795
vn 0 0 0
vn 0 1 0
vn 0 0 0
vn 0 0.9999999 0
vn 0 0 0
vn 0.129909 0.9860361 0.104195
vn 0 0 0
vn 0.1304463 0.9860361 0.1035199
vn 0 0 0
vn 0 0.9999999 0
vn 0 0 0
vn 0 1 0
vn 0 0 0
vn 0.1314077 0.9860361 0.1022979
vn 0 0 0
vn 0.1318232 0.9860362 0.1017607
vn 0 0 0
vn 0 1 0
vn 0 0 0
vn 0 1 0
vn 0 0 0
vn 0.1325751 0.9860362 0.100779
vn 0 0 0
vn 0.1329138 0.9860363 0.1003309
vn 0 0 0
vn 0 1 0
vn 0 0 0
vn 0 1 0
vn 0 0 0
vn 0.13354 0.9860364 0.09949648
vn 0 0 0
vn 0.1338258 0.9860362 0.09911176
vn 0 0 0
vn 0 0.9999999 0
vn 0 0 0
vn 0 1 0
vn 0 0 0
vn 0.1343627 0.9860362 0.09838331
vn 0 0 0
vn 0.1346126 0.9860362 0.09804166
vn 0 0 0
vn 0 1 0
vn 0 0 0
vn 0 1 0
vn 0 0 0
vn 0.135084 0.986036 0.09739154
vn 0 0 0
vn 0.1353059 0.9860361 0.0970818
vn 0 0 0
vn 0 1 0
vn 0 0 0
vn 0 1 0
vn 0 0 0
vn 0.1357289 0.9860364 0.09648827
vn 0 0 0
vn 0.13593 0.9860365 0.09620346
vn 0 0 0
vn 0 1 0
vn 0 0 0
vn 0 1 0
vn 0 0 0
vn 0.1363202 0.9860364 0.09565008
vn 0 0 0
vn 0.1365069 0.9860365 0.09538373
vn 0 0 0
vn -6.905369E-11 1 9.983735E-11
vn 0 0 0
vn -1.373591E-10 1 1.997509E-10
vn 0 0 0
vn 0.1368683 0.9860363 0.09486455
vn 0 0 0
vn 0.1370438 0.9860364 0.09461124
vn 0 0 0
vn -1.375489E-10 1 2.000269E-10
vn 0 0 0
vn -6.848039E-11 1 1.001677E-10
vn 0 0 0
vn 0.1373863 0.9860364 0.09411374
vn 0 0 0
vn 0.1375538 0.9860364 0.09386912
vn 0 0 0
vn 0 1 0
vn 0 0 0
vn 0 1 0
vn 0 0 0
vn 0.1378808 0.9860362 0.09338822
vn 0 0 0
vn 0.138041 0.9860362 0.0931516
vn 0 0 0
vn 1.362152E-10 1 -2.037196E-10
vn 0 0 0
vn 2.718902E-10 1 -4.088262E-10
vn 0 0 0
vn 0.1383558 0.9860362 0.09268349
vn 0 0 0
vn 0.1385106 0.9860362 0.09245162
vn 0 0 0
vn 2.044333E-10 1 -3.068434E-10
vn 0 0 0
vn 5.071002E-13 1 3.345366E-13
vn 0 0 0
vn 0.1388187 0.9860362 0.0919881
vn 0 0 0
vn 0.1389706 0.9860363 0.09175892
vn 0 0 0
vn -1.342096E-10 1 2.039927E-10
vn 0 0 0
vn -6.667181E-11 1 1.018876E-10
vn 0 0 0
vn 0.1392742 0.9860362 0.09129822
vn 0 0 0
vn 0.139426 0.9860361 0.09106641
vn 0 0 0
vn 6.604416E-11 1 -1.020429E-10
vn 0 0 0
vn 1.313059E-10 1 -2.040136E-10
vn 0 0 0
vn 0.1397295 0.9860361 0.0905994
vn 0 0 0
vn 0.1398813 0.9860364 0.09036388
vn 0 0 0
vn 1.31269E-10 1 -2.039563E-10
vn 0 0 0
vn 6.52914E-11 1 -1.020147E-10
vn 0 0 0
vn 0.1401869 0.9860364 0.08988862
vn 0 0 0
vn 0.1403402 0.9860364 0.08964838
vn 0 0 0
vn -6.483739E-11 1 1.024744E-10
vn 0 0 0
vn -1.290516E-10 0.9999999 2.051737E-10
vn 0 0 0
vn 0.1406497 0.9860364 0.0891619
vn 0 0 0
vn 0.1408056 0.9860364 0.08891521
vn 0 0 0
vn -1.293931E-10 1 2.057167E-10
vn 0 0 0
vn -6.442789E-11 1 1.030403E-10
vn 0 0 0
vn 0.1411213 0.9860365 0.08841316
vn 0 0 0
vn 0.1412813 0.9860365 0.08815736
vn 0 0 0
vn -6.412249E-11 1 1.038226E-10
vn 0 0 0
vn -1.277487E-10 1 2.081759E-10
vn 0 0 0
vn 0.141605 0.9860365 0.08763637
vn 0 0 0
vn 0.1417692 0.9860365 0.08737073
vn 0 0 0
vn -5.973655E-13 1 -3.666781E-13
vn 0 0 0
vn 1.885346E-10 1 -3.120776E-10
vn 0 0 0
vn 0.1421062 0.9860364 0.08682145
vn 0 0 0
vn 0.1422776 0.9860365 0.0865407
vn 0 0 0
vn 1.267001E-10 1 -2.07803E-10
vn 0 0 0
vn -1.243537E-10 1 2.09839E-10
vn 0 0 0
vn 0.142626 0.9860364 0.08596548
vn 0 0 0
vn 0.1428055 0.9860363 0.08566707
vn 0 0 0
vn -1.884655E-10 1 3.149346E-10
vn 0 0 0
vn -7.321204E-13 1 -4.302759E-13
vn 0 0 0
vn 0.1431762 0.9860364 0.08504591
vn 0 0 0
vn 0.1433658 0.9860364 0.08472617
vn 0 0 0
vn 1.235454E-10 1 -2.101393E-10
vn 0 0 0
vn 6.128321E-11 1 -1.050725E-10
vn 0 0 0
vn 0.1437579 0.9860363 0.08405967
vn 0 0 0
vn 0.143961 0.9860363 0.0837122
vn 0 0 0
vn 0 1 0
vn 0 0 0
vn 0 1 0
vn 0 0 0
vn 0.1443818 0.9860362 0.08298413
vn 0 0 0
vn 0.1446005 0.9860363 0.08260263
vn 0 0 0
vn 0 1 0
vn 0 0 0
vn 0 1 0
vn 0 0 0
vn 0.1450552 0.9860362 0.08180121
vn 0 0 0
vn 0.1452919 0.9860363 0.08138003
vn 0 0 0
vn 5.895909E-11 1 -1.071585E-10
vn 0 0 0
vn 1.163057E-10 1 -2.140078E-10
vn 0 0 0
vn 0.1457912 0.9860362 0.08048172
vn 0 0 0
vn 0.1460521 0.9860362 0.080008
vn 0 0 0
vn 1.109168E-12 1 6.034812E-13
vn 0 0 0
vn -1.69644E-10 1 3.221561E-10
vn 0 0 0
vn 0.1466035 0.9860362 0.07899289
vn 0 0 0
vn 0.1468954 0.9860361 0.07844944
vn 0 0 0
vn -1.706612E-10 1 3.209935E-10
vn 0 0 0
vn -1.503636E-12 1 -7.71119E-13
vn 0 0 0
vn 0.14752 0.9860363 0.07726775
vn 0 0 0
vn 0.1478514 0.9860362 0.07663269
vn 0 0 0
vn 1.639178E-10 0.9999999 -3.215988E-10
vn 0 0 0
vn 1.600325E-10 0.9999999 -3.221115E-10
vn 0 0 0
vn 0.1485639 0.9860362 0.07524128
vn 0 0 0
vn 0.1489478 0.9860361 0.07448055
vn 0 0 0
vn 5.399323E-11 1 -1.071677E-10
vn 0 0 0
vn -4.965386E-11 1 1.085208E-10
vn 0 0 0
vn 0.1497829 0.9860362 0.072785
vn 0 0 0
vn 0.1502344 0.986036 0.07185125
vn 0 0 0
vn -1.015896E-10 1 2.160624E-10
vn 0 0 0
vn -4.93503E-11 1 1.078573E-10
vn 0 0 0
vn 0.1512295 0.9860364 0.06972862
vn 0 0 0
vn 0.1517756 0.9860358 0.06853807
vn 0 0 0
vn 0 1 0
vn 0 0 0
vn 0 1 0
vn 0 0 0
vn 0.1530031 0.9860362 0.06574602
vn 0 0 0
vn 0.1536861 0.9860353 0.06414846
vn 0 0 0
vn 0 1 0
vn 0 0 0
vn 0 1 0
vn 0 0 0
vn 0.1543601 0.9860317 0.06256532
vn 0 0 0
vn 0.1543631 0.9860312 0.06256526
vn 0 0 0

vt 0 0
vt 0 0
vt -0.4345123 0.4137634
vt -0.4345123 0.4137634
vt -0.4345123 0.4137634
vt -0.4345123 0.4137634
vt -0.7603974 0.7240845
vt -0.7603974 0.7240845
vt -0.7077194 -0.7804993
vt -0.7077194 -0.7804993
vt -1.160277 -0.386554
vt -1.160277 -0.386554
vt -1.160277 -0.386554
vt -1.160277 -0.386554
vt -1.499695 -0.09110107
vt -1.499695 -0.09110107
vt -1.379805 -1.574353
vt -1.379805 -1.574353
vt -1.842355 -1.192188
vt -1.842355 -1.192188
vt -1.842355 -1.192188
vt -1.842355 -1.192188
vt -2.189269 -0.9055664
vt -2.189269 -0.9055664
vt -2.026489 -2.372217
vt -2.026489 -2.372217
vt -2.495806 -1.998395
vt -2.495806 -1.998395
vt -2.495806 -1.998395
vt -2.495806 -1.998395
vt -2.847792 -1.71803
vt -2.847792 -1.71803
vt -2.65452 -3.172186
vt -2.65452 -3.172186
vt -3.128865 -2.804767
vt -3.128865 -2.804767
vt -3.128865 -2.804767
vt -3.128865 -2.804767
vt -3.484624 -2.529205
vt -3.484624 -2.529205
vt -3.278244 -3.987012
vt -3.278244 -3.987012
vt -3.756632 -3.624872
vt -3.756632 -3.624872
vt -3.756632 -3.624872
vt -3.756632 -3.624872
vt -4.115422 -3.353266
vt -4.115422 -3.353266
vt -3.890611 -4.804004
vt -3.890611 -4.804004
vt -4.372341 -4.44632
vt -4.372341 -4.44632
vt -4.372341 -4.44632
vt -4.372341 -4.44632
vt -4.733638 -4.178058
vt -4.733638 -4.178058
vt -4.494855 -5.624829
vt -4.494855 -5.624829
vt -4.979451 -5.271039
vt -4.979451 -5.271039
vt -4.979451 -5.271039
vt -4.979451 -5.271039
vt -5.342899 -5.005701
vt -5.342899 -5.005701
vt -5.095958 -6.454572
vt -5.095958 -6.454572
vt -5.583097 -6.104285
vt -5.583097 -6.104285
vt -5.583097 -6.104285
vt -5.583097 -6.104285
vt -5.948448 -5.841577
vt -5.948448 -5.841577
vt -5.690648 -7.287433
vt -5.690648 -7.287433
vt -6.180072 -6.940357
vt -6.180072 -6.940357
vt -6.180072 -6.940357
vt -6.180072 -6.940357
vt -6.547141 -6.680042
vt -6.547141 -6.680042
vt -6.27599 -8.118195
vt -6.27599 -8.118195
vt -6.767499 -7.774078
vt -6.767499 -7.774078
vt -6.767499 -7.774078
vt -6.767499 -7.774078
vt -7.136131 -7.515985
vt -7.136131 -7.515985
vt -6.859369 -8.956561
vt -6.859369 -8.956561
vt -7.35283 -8.615252
vt -7.35283 -8.615252
vt -7.35283 -8.615252
vt -7.35283 -8.615252
vt -7.722928 -8.359265
vt -7.722928 -8.359265
vt -7.438828 -9.799237
vt -7.438828 -9.799237
vt -7.934139 -9.460614
vt -7.934139 -9.460614
vt -7.934139 -9.460614
vt -7.934139 -9.460614
vt -8.305623 -9.206647
vt -8.305623 -9.206647
vt -8.012578 -10.64323
vt -8.012578 -10.64323
vt -8.509654 -10.3072
vt -8.509654 -10.3072
vt -8.509654 -10.3072
vt -8.509654 -10.3072
vt -8.882462 -10.05518
vt -8.882462 -10.05518
vt -8.578979 -11.48571
vt -8.578979 -11.48571
vt -9.077754 -11.1522
vt -9.077754 -11.1522
vt -9.077754 -11.1522
vt -9.077754 -11.1522
vt -9.451838 -10.90208
vt -9.451838 -10.90208
vt -9.136553 -12.32411
vt -9.136553 -12.32411
vt -9.636978 -11.9931
vt -9.636978 -11.9931
vt -9.636978 -11.9931
vt -9.636978 -11.9931
vt -10.0123 -11.74483
vt -10.0123 -11.74483
vt -9.694061 -13.1715
vt -9.694061 -13.1715
vt -10.19613 -12.84297
vt -10.19613 -12.84297
vt -10.19613 -12.84297
vt -10.19613 -12.84297
vt -10.57267 -12.59658
vt -10.57267 -12.59658
vt -10.25019 -14.02605
vt -10.25019 -14.02605
vt -10.7539 -13.70004
vt -10.7539 -13.70004
vt -10.7539 -13.70004
vt -10.7539 -13.70004
vt -11.13168 -13.45554
vt -11.13168 -13.45554
vt -10.80366 -14.88597
vt -10.80366 -14.88597
vt -11.30902 -14.56254
vt -11.30902 -14.56254
vt -11.30902 -14.56254
vt -11.30902 -14.56254
vt -11.68804 -14.31995
vt -11.68804 -14.31995
vt -11.35314 -15.74941
vt -11.35314 -15.74941
vt -11.86017 -15.42861
vt -11.86017 -15.42861
vt -11.86017 -15.42861
vt -11.86017 -15.42861
vt -12.24045 -15.18799
vt -12.24045 -15.18799
vt -11.89732 -16.61454
vt -11.89732 -16.61454
vt -12.40606 -16.29644
vt -12.40606 -16.29644
vt -12.40606 -16.29644
vt -12.40606 -16.29644
vt -12.78761 -16.05786
vt -12.78761 -16.05786
vt -12.4349 -17.47956
vt -12.4349 -17.47956
vt -12.94539 -17.16428
vt -12.94539 -17.16428
vt -12.94539 -17.16428
vt -12.94539 -17.16428
vt -13.32825 -16.92781
vt -13.32825 -16.92781
vt -12.96455 -18.3426
vt -12.96455 -18.3426
vt -13.47683 -18.03026
vt -13.47683 -18.03026
vt -13.47683 -18.03026
vt -13.47683 -18.03026
vt -13.86105 -17.79599
vt -13.86105 -17.79599
vt -13.49432 -19.21743
vt -13.49432 -19.21743
vt -14.0085 -18.90823
vt -14.0085 -18.90823
vt -14.0085 -18.90823
vt -14.0085 -18.90823
vt -14.39414 -18.67632
vt -14.39414 -18.67632
vt -14.01315 -20.08648
vt -14.01315 -20.08648
vt -14.52932 -19.78059
vt -14.52932 -19.78059
vt -14.52932 -19.78059
vt -14.52932 -19.78059
vt -14.91645 -19.55117
vt -14.91645 -19.55117
vt -14.52857 -20.96306
vt -14.52857 -20.96306
vt -15.04685 -20.66077
vt -15.04685 -20.66077
vt -15.04685 -20.66077
vt -15.04685 -20.66077
vt -15.43557 -20.43406
vt -15.43557 -20.43406
vt -15.03842 -21.84477
vt -15.03842 -21.84477
vt -15.55898 -21.54641
vt -15.55898 -21.54641
vt -15.55898 -21.54641
vt -15.55898 -21.54641
vt -15.9494 -21.32264
vt -15.9494 -21.32264
vt -15.54041 -22.72893
vt -15.54041 -22.72893
vt -16.06342 -22.43489
vt -16.06342 -22.43489
vt -16.06342 -22.43489
vt -16.06342 -22.43489
vt -16.45568 -22.21437
vt -16.45568 -22.21437
vt -16.03198 -23.61259
vt -16.03198 -23.61259
vt -16.55766 -23.32336
vt -16.55766 -23.32336
vt -16.55766 -23.32336
vt -16.55766 -23.32336
vt -16.95193 -23.10643
vt -16.95193 -23.10643
vt -16.51818 -24.50698
vt -16.51818 -24.50698
vt -17.04683 -24.22322
vt -17.04683 -24.22322
vt -17.04683 -24.22322
vt -17.04683 -24.22322
vt -17.44333 -24.0104
vt -17.44333 -24.0104
vt -16.99491 -25.40767
vt -16.99491 -25.40767
vt -17.52691 -25.13021
vt -17.52691 -25.13021
vt -17.52691 -25.13021
vt -17.52691 -25.13021
vt -17.9259 -24.92212
vt -17.9259 -24.92212
vt -17.46448 -26.32318
vt -17.46448 -26.32318
vt -18.00031 -26.05321
vt -18.00031 -26.05321
vt -18.00031 -26.05321
vt -18.00031 -26.05321
vt -18.40219 -25.85073
vt -18.40219 -25.85073
vt -17.92039 -27.24668
vt -17.92039 -27.24668
vt -18.46068 -26.98575
vt -18.46068 -26.98575
vt -18.46068 -26.98575
vt -18.46068 -26.98575
vt -18.8659 -26.79005
vt -18.8659 -26.79005
vt -18.36098 -28.18279
vt -18.36098 -28.18279
vt -18.90658 -27.93316
vt -18.90658 -27.93316
vt -18.90658 -27.93316
vt -18.90658 -27.93316
vt -19.31578 -27.74592
vt -19.31578 -27.74592
vt -18.78114 -29.13297
vt -18.78114 -29.13297
vt -19.33323 -28.89801
vt -19.33323 -28.89801
vt -19.33323 -28.89801
vt -19.33323 -28.89801
vt -19.74729 -28.7218
vt -19.74729 -28.7218
vt -19.17545 -30.10572
vt -19.17545 -30.10572
vt -19.73575 -29.89108
vt -19.73575 -29.89108
vt -19.73575 -29.89108
vt -19.73575 -29.89108
vt -20.15597 -29.7301
vt -20.15597 -29.7301

usemtl GSDShoulder1
usemap GSDShoulder1
f 9/9/9 1/1/1 3/3/3
f 11/11/11 9/9/9 3/3/3
f 13/13/13 5/5/5 7/7/7
f 15/15/15 13/13/13 7/7/7
f 17/17/17 9/9/9 11/11/11
f 19/19/19 17/17/17 11/11/11
f 21/21/21 13/13/13 15/15/15
f 23/23/23 21/21/21 15/15/15
f 25/25/25 17/17/17 19/19/19
f 27/27/27 25/25/25 19/19/19
f 29/29/29 21/21/21 23/23/23
f 31/31/31 29/29/29 23/23/23
f 33/33/33 25/25/25 27/27/27
f 35/35/35 33/33/33 27/27/27
f 37/37/37 29/29/29 31/31/31
f 39/39/39 37/37/37 31/31/31
f 41/41/41 33/33/33 35/35/35
f 43/43/43 41/41/41 35/35/35
f 45/45/45 37/37/37 39/39/39
f 47/47/47 45/45/45 39/39/39
f 49/49/49 41/41/41 43/43/43
f 51/51/51 49/49/49 43/43/43
f 53/53/53 45/45/45 47/47/47
f 55/55/55 53/53/53 47/47/47
f 57/57/57 49/49/49 51/51/51
f 59/59/59 57/57/57 51/51/51
f 61/61/61 53/53/53 55/55/55
f 63/63/63 61/61/61 55/55/55
f 65/65/65 57/57/57 59/59/59
f 67/67/67 65/65/65 59/59/59
f 69/69/69 61/61/61 63/63/63
f 71/71/71 69/69/69 63/63/63
f 73/73/73 65/65/65 67/67/67
f 75/75/75 73/73/73 67/67/67
f 77/77/77 69/69/69 71/71/71
f 79/79/79 77/77/77 71/71/71
f 81/81/81 73/73/73 75/75/75
f 83/83/83 81/81/81 75/75/75
f 85/85/85 77/77/77 79/79/79
f 87/87/87 85/85/85 79/79/79
f 89/89/89 81/81/81 83/83/83
f 91/91/91 89/89/89 83/83/83
f 93/93/93 85/85/85 87/87/87
f 95/95/95 93/93/93 87/87/87
f 97/97/97 89/89/89 91/91/91
f 99/99/99 97/97/97 91/91/91
f 101/101/101 93/93/93 95/95/95
f 103/103/103 101/101/101 95/95/95
f 105/105/105 97/97/97 99/99/99
f 107/107/107 105/105/105 99/99/99
f 109/109/109 101/101/101 103/103/103
f 111/111/111 109/109/109 103/103/103
f 113/113/113 105/105/105 107/107/107
f 115/115/115 113/113/113 107/107/107
f 117/117/117 109/109/109 111/111/111
f 119/119/119 117/117/117 111/111/111
f 121/121/121 113/113/113 115/115/115
f 123/123/123 121/121/121 115/115/115
f 125/125/125 117/117/117 119/119/119
f 127/127/127 125/125/125 119/119/119
f 129/129/129 121/121/121 123/123/123
f 131/131/131 129/129/129 123/123/123
f 133/133/133 125/125/125 127/127/127
f 135/135/135 133/133/133 127/127/127
f 137/137/137 129/129/129 131/131/131
f 139/139/139 137/137/137 131/131/131
f 141/141/141 133/133/133 135/135/135
f 143/143/143 141/141/141 135/135/135
f 145/145/145 137/137/137 139/139/139
f 147/147/147 145/145/145 139/139/139
f 149/149/149 141/141/141 143/143/143
f 151/151/151 149/149/149 143/143/143
f 153/153/153 145/145/145 147/147/147
f 155/155/155 153/153/153 147/147/147
f 157/157/157 149/149/149 151/151/151
f 159/159/159 157/157/157 151/151/151
f 161/161/161 153/153/153 155/155/155
f 163/163/163 161/161/161 155/155/155
f 165/165/165 157/157/157 159/159/159
f 167/167/167 165/165/165 159/159/159
f 169/169/169 161/161/161 163/163/163
f 171/171/171 169/169/169 163/163/163
f 173/173/173 165/165/165 167/167/167
f 175/175/175 173/173/173 167/167/167
f 177/177/177 169/169/169 171/171/171
f 179/179/179 177/177/177 171/171/171
f 181/181/181 173/173/173 175/175/175
f 183/183/183 181/181/181 175/175/175
f 185/185/185 177/177/177 179/179/179
f 187/187/187 185/185/185 179/179/179
f 189/189/189 181/181/181 183/183/183
f 191/191/191 189/189/189 183/183/183
f 193/193/193 185/185/185 187/187/187
f 195/195/195 193/193/193 187/187/187
f 197/197/197 189/189/189 191/191/191
f 199/199/199 197/197/197 191/191/191
f 201/201/201 193/193/193 195/195/195
f 203/203/203 201/201/201 195/195/195
f 205/205/205 197/197/197 199/199/199
f 207/207/207 205/205/205 199/199/199
f 209/209/209 201/201/201 203/203/203
f 211/211/211 209/209/209 203/203/203
f 213/213/213 205/205/205 207/207/207
f 215/215/215 213/213/213 207/207/207
f 217/217/217 209/209/209 211/211/211
f 219/219/219 217/217/217 211/211/211
f 221/221/221 213/213/213 215/215/215
f 223/223/223 221/221/221 215/215/215
f 225/225/225 217/217/217 219/219/219
f 227/227/227 225/225/225 219/219/219
f 229/229/229 221/221/221 223/223/223
f 231/231/231 229/229/229 223/223/223
f 233/233/233 225/225/225 227/227/227
f 235/235/235 233/233/233 227/227/227
f 237/237/237 229/229/229 231/231/231
f 239/239/239 237/237/237 231/231/231
f 241/241/241 233/233/233 235/235/235
f 243/243/243 241/241/241 235/235/235
f 245/245/245 237/237/237 239/239/239
f 247/247/247 245/245/245 239/239/239
f 249/249/249 241/241/241 243/243/243
f 251/251/251 249/249/249 243/243/243
f 253/253/253 245/245/245 247/247/247
f 255/255/255 253/253/253 247/247/247
f 257/257/257 249/249/249 251/251/251
f 259/259/259 257/257/257 251/251/251
f 261/261/261 253/253/253 255/255/255
f 263/263/263 261/261/261 255/255/255
f 265/265/265 257/257/257 259/259/259
f 267/267/267 265/265/265 259/259/259
f 269/269/269 261/261/261 263/263/263
f 271/271/271 269/269/269 263/263/263
f 273/273/273 265/265/265 267/267/267
f 275/275/275 273/273/273 267/267/267
f 277/277/277 269/269/269 271/271/271
f 279/279/279 277/277/277 271/271/271
f 281/281/281 273/273/273 275/275/275
f 283/283/283 281/281/281 275/275/275
f 285/285/285 277/277/277 279/279/279
f 287/287/287 285/285/285 279/279/279
