mtllib ./Road1_0_80.mtl
g SCutL9
v -113.8226 0.03 244.9901
v -113.8226 0.03 244.9901
v -114.648 0.03 247.8743
v -114.648 0.03 247.8743
v -113.2035 -0.35 242.8269
v -113.2035 -0.35 242.8269
v -113.8226 0.03 244.9901
v -113.8226 0.03 244.9901
v -108.7674 0.03 246.5701
v -108.7674 0.03 246.5701
v -109.6823 0.03 249.4271
v -109.6823 0.03 249.4271
v -108.0812 -0.35 244.4272
v -108.0812 -0.35 244.4272
v -108.7674 0.03 246.5701
v -108.7674 0.03 246.5701
v -104.1754 0.03 247.9536
v -104.1754 0.03 247.9536
v -105.0029 0.03 250.8372
v -105.0029 0.03 250.8372
v -103.5548 -0.35 245.7909
v -103.5548 -0.35 245.7909
v -104.1754 0.03 247.9536
v -104.1754 0.03 247.9536
v -99.34447 0.03 249.3144
v -99.34447 0.03 249.3144
v -100.1573 0.03 252.2021
v -100.1573 0.03 252.2021
v -98.73481 -0.35 247.1485
v -98.73481 -0.35 247.1485
v -99.34447 0.03 249.3144
v -99.34447 0.03 249.3144
v -94.26295 0.03 250.8041
v -94.26295 0.03 250.8041
v -95.1557 0.03 253.6682
v -95.1557 0.03 253.6682
v -93.59339 -0.35 248.656
v -93.59339 -0.35 248.656
v -94.26295 0.03 250.8041
v -94.26295 0.03 250.8041
v -88.8317 0.03 252.7048
v -88.8317 0.03 252.7048
v -89.94616 0.03 255.4901
v -89.94616 0.03 255.4901
v -87.99584 -0.35 250.6158
v -87.99584 -0.35 250.6158
v -88.8317 0.03 252.7048
v -88.8317 0.03 252.7048
v -82.96851 0.03 255.5879
v -82.96851 0.03 255.5879
v -84.53368 0.03 258.1472
v -84.53368 0.03 258.1472
v -81.79464 -0.35 253.6684
v -81.79464 -0.35 253.6684
v -82.96851 0.03 255.5879
v -82.96851 0.03 255.5879
v -76.90882 0.03 260.7096
v -76.90882 0.03 260.7096
v -79.20895 0.03 262.6356
v -79.20895 0.03 262.6356
v -75.18372 -0.35 259.2651
v -75.18372 -0.35 259.2651
v -76.90882 0.03 260.7096
v -76.90882 0.03 260.7096
v -72.80105 0.03 268.6353
v -72.80105 0.03 268.6353
v -75.70048 0.03 269.4055
v -75.70048 0.03 269.4055
v -70.62648 -0.35 268.0576
v -70.62648 -0.35 268.0576
v -72.80105 0.03 268.6353
v -72.80105 0.03 268.6353
v -72.10798 0.03 276.5867
v -72.10798 0.03 276.5867
v -75.10104 0.03 276.3827
v -75.10104 0.03 276.3827
v -69.86318 -0.35 276.7397
v -69.86318 -0.35 276.7397
v -72.10798 0.03 276.5867
v -72.10798 0.03 276.5867
v -73.22136 0.03 283.1693
v -73.22136 0.03 283.1693
v -76.12498 0.03 282.4149
v -76.12498 0.03 282.4149
v -71.04365 -0.35 283.735
v -71.04365 -0.35 283.735
v -73.22136 0.03 283.1693
v -73.22136 0.03 283.1693
v -75.08131 0.03 288.9082
v -75.08131 0.03 288.9082
v -77.88334 0.03 287.8364
v -77.88334 0.03 287.8364
v -72.9798 -0.35 289.712
v -72.9798 -0.35 289.712
v -75.08131 0.03 288.9082
v -75.08131 0.03 288.9082

vn 0 1 0
vn 0 0 0
vn 0 0.9999999 0
vn 0 0 0
vn 0.04967466 0.9860284 -0.1589982
vn 0 0 0
vn 0.04967722 0.9860321 -0.1589746
vn 0 0 0
vn 0 1 0
vn 0 0 0
vn 0 1 0
vn 0 0 0
vn 0.04917529 0.9860325 -0.1591282
vn 0 0 0
vn 0.0486286 0.9860344 -0.159284
vn 0 0 0
vn 0 1 0
vn 0 0 0
vn 0 1 0
vn 0 0 0
vn 0.04704715 0.986035 -0.1597541
vn 0 0 0
vn 0.04608785 0.9860364 -0.1600256
vn 0 0 0
vn 0 0.9999999 0
vn 0 0 0
vn 0 1 0
vn 0 0 0
vn 0.04574598 0.986036 -0.160126
vn 0 0 0
vn 0.04631082 0.9860347 -0.1599714
vn 0 0 0
vn 0 1 0
vn 0 0 0
vn 0 0.9999999 0
vn 0 0 0
vn 0.0497902 0.986037 -0.1589091
vn 0 0 0
vn 0.05250056 0.9860281 -0.1580898
vn 0 0 0
vn 0 1 0
vn 0 0 0
vn 0 1 0
vn 0 0 0
vn 0.06200362 0.9860393 -0.154538
vn 0 0 0
vn 0.06815729 0.9860017 -0.1521688
vn 0 0 0
vn -7.804715E-11 1 -4.77296E-11
vn 0 0 0
vn -1.345E-10 1 -1.159077E-10
vn 0 0 0
vn 0.08746623 0.9860466 -0.1416398
vn 0 0 0
vn 0.09897196 0.9859093 -0.1348608
vn 0 0 0
vn -1.189332E-10 1 -1.024928E-10
vn 0 0 0
vn -5.195199E-11 1 -6.204501E-11
vn 0 0 0
vn 0.1247587 0.9860528 -0.1101601
vn 0 0 0
vn 0.1388018 0.9858886 -0.09358208
vn 0 0 0
vn 1.990983E-11 1 7.494465E-11
vn 0 0 0
vn 1.581851E-11 1 1.646E-10
vn 0 0 0
vn 0.1568248 0.9859095 -0.0582119
vn 0 0 0
vn 0.1623766 0.9860428 -0.03678818
vn 0 0 0
vn 1.640969E-11 1 1.707515E-10
vn 0 0 0
vn -6.442119E-12 1 9.45273E-11
vn 0 0 0
vn 0.1671941 0.985922 -0.001952239
vn 0 0 0
vn 0.1660153 0.9860459 0.01234377
vn 0 0 0
vn 0 1 0
vn 0 0 0
vn 0 1 0
vn 0 0 0
vn 0.1629635 0.9860021 0.03525122
vn 0 0 0
vn 0.160827 0.9860389 0.04314994
vn 0 0 0
vn 0 1 0
vn 0 0 0
vn 0 1 0
vn 0 0 0
vn 0.1586615 0.9859937 0.05140859
vn 0 0 0
vn 0.1586262 0.9859993 0.05141022
vn 0 0 0

vt 0 0
vt 0 0
vt 0.1650848 0.5768433
vt 0.1650848 0.5768433
vt -0.1238129 -0.4326324
vt -0.1238129 -0.4326324
vt 0 0
vt 0 0
vt -1.011044 0.3160004
vt -1.011044 0.3160004
vt -0.8280579 0.8874146
vt -0.8280579 0.8874146
vt -1.148285 -0.1125641
vt -1.148285 -0.1125641
vt -1.011044 0.3160004
vt -1.011044 0.3160004
vt -1.929436 0.5927002
vt -1.929436 0.5927002
vt -1.763933 1.169421
vt -1.763933 1.169421
vt -2.053563 0.1601593
vt -2.053563 0.1601593
vt -1.929436 0.5927002
vt -1.929436 0.5927002
vt -2.895625 0.8648621
vt -2.895625 0.8648621
vt -2.733049 1.442416
vt -2.733049 1.442416
vt -3.017557 0.4316956
vt -3.017557 0.4316956
vt -2.895625 0.8648621
vt -2.895625 0.8648621
vt -3.911929 1.162805
vt -3.911929 1.162805
vt -3.733379 1.735623
vt -3.733379 1.735623
vt -4.045841 0.733194
vt -4.045841 0.733194
vt -3.911929 1.162805
vt -3.911929 1.162805
vt -4.99818 1.542938
vt -4.99818 1.542938
vt -4.775287 2.100003
vt -4.775287 2.100003
vt -5.16535 1.125143
vt -5.16535 1.125143
vt -4.99818 1.542938
vt -4.99818 1.542938
vt -6.170816 2.119565
vt -6.170816 2.119565
vt -5.857782 2.631436
vt -5.857782 2.631436
vt -6.405591 1.735663
vt -6.405591 1.735663
vt -6.170816 2.119565
vt -6.170816 2.119565
vt -7.382755 3.143912
vt -7.382755 3.143912
vt -6.922728 3.529105
vt -6.922728 3.529105
vt -7.727776 2.855014
vt -7.727776 2.855014
vt -7.382755 3.143912
vt -7.382755 3.143912
vt -8.204309 4.729043
vt -8.204309 4.729043
vt -7.624424 4.883096
vt -7.624424 4.883096
vt -8.639223 4.613498
vt -8.639223 4.613498
vt -8.204309 4.729043
vt -8.204309 4.729043
vt -8.342923 6.319321
vt -8.342923 6.319321
vt -7.744312 6.278525
vt -7.744312 6.278525
vt -8.791883 6.349918
vt -8.791883 6.349918
vt -8.342923 6.319321
vt -8.342923 6.319321
vt -8.120247 7.635843
vt -8.120247 7.635843
vt -7.539524 7.484976
vt -7.539524 7.484976
vt -8.555789 7.74899
vt -8.555789 7.74899
vt -8.120247 7.635843
vt -8.120247 7.635843
vt -7.748256 8.783622
vt -7.748256 8.783622
vt -7.187851 8.569272
vt -7.187851 8.569272
vt -8.168558 8.944388
vt -8.168558 8.944388
vt -7.748256 8.783622
vt -7.748256 8.783622

usemtl GSDShoulder1
usemap GSDShoulder1
f 9/9/9 1/1/1 3/3/3
f 11/11/11 9/9/9 3/3/3
f 13/13/13 5/5/5 7/7/7
f 15/15/15 13/13/13 7/7/7
f 17/17/17 9/9/9 11/11/11
f 19/19/19 17/17/17 11/11/11
f 21/21/21 13/13/13 15/15/15
f 23/23/23 21/21/21 15/15/15
f 25/25/25 17/17/17 19/19/19
f 27/27/27 25/25/25 19/19/19
f 29/29/29 21/21/21 23/23/23
f 31/31/31 29/29/29 23/23/23
f 33/33/33 25/25/25 27/27/27
f 35/35/35 33/33/33 27/27/27
f 37/37/37 29/29/29 31/31/31
f 39/39/39 37/37/37 31/31/31
f 41/41/41 33/33/33 35/35/35
f 43/43/43 41/41/41 35/35/35
f 45/45/45 37/37/37 39/39/39
f 47/47/47 45/45/45 39/39/39
f 49/49/49 41/41/41 43/43/43
f 51/51/51 49/49/49 43/43/43
f 53/53/53 45/45/45 47/47/47
f 55/55/55 53/53/53 47/47/47
f 57/57/57 49/49/49 51/51/51
f 59/59/59 57/57/57 51/51/51
f 61/61/61 53/53/53 55/55/55
f 63/63/63 61/61/61 55/55/55
f 65/65/65 57/57/57 59/59/59
f 67/67/67 65/65/65 59/59/59
f 69/69/69 61/61/61 63/63/63
f 71/71/71 69/69/69 63/63/63
f 73/73/73 65/65/65 67/67/67
f 75/75/75 73/73/73 67/67/67
f 77/77/77 69/69/69 71/71/71
f 79/79/79 77/77/77 71/71/71
f 81/81/81 73/73/73 75/75/75
f 83/83/83 81/81/81 75/75/75
f 85/85/85 77/77/77 79/79/79
f 87/87/87 85/85/85 79/79/79
f 89/89/89 81/81/81 83/83/83
f 91/91/91 89/89/89 83/83/83
f 93/93/93 85/85/85 87/87/87
f 95/95/95 93/93/93 87/87/87
