mtllib ./Road1_0_43.mtl
g Markers14
v -32.2908 0.04 301.2331
v -32.2908 0.04 301.2331
v -21.08488 0.04 305.5258
v -21.08488 0.04 305.5258
v -30.71345 0.04 296.7799
v -30.71345 0.04 296.7799
v -19.28477 0.04 300.4385
v -19.28477 0.04 300.4385
v -29.48637 0.04 292.3952
v -29.48637 0.04 292.3952
v -17.81077 0.04 295.1666
v -17.81077 0.04 295.1666
v -28.65064 0.04 287.9882
v -28.65064 0.04 287.9882
v -16.7651 0.04 289.6417
v -16.7651 0.04 289.6417
v -28.28873 0.04 283.6465
v -28.28873 0.04 283.6465
v -16.2923 0.04 283.9391
v -16.2923 0.04 283.9391
v -28.45578 0.04 279.415
v -28.45578 0.04 279.415
v -16.5232 0.04 278.1448
v -16.5232 0.04 278.1448
v -29.1892 0.04 275.2775
v -29.1892 0.04 275.2775
v -17.54766 0.04 272.3664
v -17.54766 0.04 272.3664
v -30.50353 0.04 271.2122
v -30.50353 0.04 271.2122
v -19.34654 0.04 266.7939
v -19.34654 0.04 266.7939
v -32.35714 0.04 267.2105
v -32.35714 0.04 267.2105
v -21.73877 0.04 261.6203
v -21.73877 0.04 261.6203
v -34.67302 0.04 263.2068
v -34.67302 0.04 263.2068
v -24.48856 0.04 256.8604
v -24.48856 0.04 256.8604
v -37.31683 0.04 259.1484
v -37.31683 0.04 259.1484
v -27.3497 0.04 252.4659
v -27.3497 0.04 252.4659
v -40.14651 0.04 254.9282
v -40.14651 0.04 254.9282
v -30.13589 0.04 248.3109
v -30.13589 0.04 248.3109
v -42.99383 0.04 250.427
v -42.99383 0.04 250.427
v -32.68749 0.04 244.2805
v -32.68749 0.04 244.2805
v -45.62854 0.04 245.5886
v -45.62854 0.04 245.5886
v -34.84484 0.04 240.3244
v -34.84484 0.04 240.3244
v -47.84603 0.04 240.3184
v -47.84603 0.04 240.3184
v -36.52695 0.04 236.3336
v -36.52695 0.04 236.3336
v -49.42225 0.04 234.6511
v -49.42225 0.04 234.6511
v -37.66735 0.04 232.2382
v -37.66735 0.04 232.2382

vn 0 1 0
vn 0 0 0
vn 0 1 0
vn 0 0 0
vn 3.871942E-11 1 -1.209522E-10
vn 0 0 0
vn 6.475099E-11 1 -2.326657E-10
vn 0 0 0
vn 3.916242E-11 1 -1.22336E-10
vn 0 0 0
vn -1.648733E-11 1 1.185125E-10
vn 0 0 0
vn -2.977525E-11 1 1.254415E-10
vn 0 0 0
vn 2.896145E-12 0.9999999 -1.187641E-10
vn 0 0 0
vn 1.478424E-11 1 1.204684E-12
vn 0 0 0
vn 2.218998E-11 1 3.539916E-10
vn 0 0 0
vn 7.487481E-12 1 3.925842E-10
vn 0 0 0
vn -1.608647E-11 0.9999999 2.85334E-12
vn 0 0 0
vn -4.535845E-11 1 -2.557282E-10
vn 0 0 0
vn -2.831127E-11 1 -1.132184E-10
vn 0 0 0
vn 0 1 0
vn 0 0 0
vn 0 0.9999999 0
vn 0 0 0
vn 0 1 0
vn 0 0 0
vn 0 0.9999999 0
vn 0 0 0
vn -6.585596E-11 1 -1.056825E-10
vn 0 0 0
vn -1.298044E-10 1 -2.007654E-10
vn 0 0 0
vn -6.49498E-11 1 -1.042283E-10
vn 0 0 0
vn 6.70146E-11 1 1.013806E-10
vn 0 0 0
vn 1.339764E-10 1 2.012481E-10
vn 0 0 0
vn 6.803941E-11 1 1.02931E-10
vn 0 0 0
vn 0 1 0
vn 0 0 0
vn 0 1 0
vn 0 0 0
vn -5.199444E-11 1 -1.0651E-10
vn 0 0 0
vn -9.878212E-11 1 -2.360644E-10
vn 0 0 0
vn -5.138812E-11 1 -1.052679E-10
vn 0 0 0
vn 2.595019E-11 1 1.264179E-10
vn 0 0 0
vn 9.822395E-11 1 3.54253E-10
vn 0 0 0
vn 8.831249E-11 0.9999999 4.302196E-10
vn 0 0 0

vt 0 253.4696
vt 0 0
vt 1 253.4696
vt 0 0
vt 0 254.4144
vt 0 254.4144
vt 1 254.4144
vt 1 254.4144
vt 0 255.3251
vt 0 255.3251
vt 1 255.3251
vt 1 255.3251
vt 0 256.2222
vt 0 256.2222
vt 1 256.2222
vt 1 256.2222
vt 0 257.0935
vt 0 257.0935
vt 1 257.0935
vt 1 257.0935
vt 0 257.9405
vt 0 257.9405
vt 1 257.9405
vt 1 257.9405
vt 0 258.7809
vt 0 258.7809
vt 1 258.7809
vt 1 258.7809
vt 0 259.6354
vt 0 259.6354
vt 1 259.6354
vt 1 259.6354
vt 0 260.5174
vt 0 260.5174
vt 1 260.5174
vt 1 260.5174
vt 0 261.4425
vt 0 261.4425
vt 1 261.4425
vt 1 261.4425
vt 0 262.4112
vt 0 262.4112
vt 1 262.4112
vt 1 262.4112
vt 0 263.4274
vt 0 263.4274
vt 1 263.4274
vt 1 263.4274
vt 0 264.4926
vt 0 264.4926
vt 1 264.4926
vt 1 264.4926
vt 0 265.5945
vt 0 265.5945
vt 1 265.5945
vt 1 265.5945
vt 0 266.738
vt 0 266.738
vt 1 266.738
vt 1 266.738
vt 0 267.9145
vt 0 0
vt 1 267.9145
vt 0 0

usemtl GSDWhiteYellowDouble-4L
usemap GSDWhiteYellowDouble-4L
f 5/5/5 1/1/1 3/3/3
f 7/7/7 5/5/5 3/3/3
f 9/9/9 5/5/5 7/7/7
f 11/11/11 9/9/9 7/7/7
f 13/13/13 9/9/9 11/11/11
f 15/15/15 13/13/13 11/11/11
f 17/17/17 13/13/13 15/15/15
f 19/19/19 17/17/17 15/15/15
f 21/21/21 17/17/17 19/19/19
f 23/23/23 21/21/21 19/19/19
f 25/25/25 21/21/21 23/23/23
f 27/27/27 25/25/25 23/23/23
f 29/29/29 25/25/25 27/27/27
f 31/31/31 29/29/29 27/27/27
f 33/33/33 29/29/29 31/31/31
f 35/35/35 33/33/33 31/31/31
f 37/37/37 33/33/33 35/35/35
f 39/39/39 37/37/37 35/35/35
f 41/41/41 37/37/37 39/39/39
f 43/43/43 41/41/41 39/39/39
f 45/45/45 41/41/41 43/43/43
f 47/47/47 45/45/45 43/43/43
f 49/49/49 45/45/45 47/47/47
f 51/51/51 49/49/49 47/47/47
f 53/53/53 49/49/49 51/51/51
f 55/55/55 53/53/53 51/51/51
f 57/57/57 53/53/53 55/55/55
f 59/59/59 57/57/57 55/55/55
f 61/61/61 57/57/57 59/59/59
f 63/63/63 61/61/61 59/59/59
