mtllib ./Road2_1_31.mtl
g SCutR3
v -422.4913 0.03 94.41594
v -422.4913 0.03 94.41594
v -421.9196 0.03 97.36096
v -421.9196 0.03 97.36096
v -421.9196 0.03 97.36096
v -421.9196 0.03 97.36096
v -421.4908 -0.67 99.56973
v -421.4908 -0.67 99.56973
v -417.8731 0.03 93.64954
v -417.8731 0.03 93.64954
v -417.4774 0.03 96.62334
v -417.4774 0.03 96.62334
v -417.4774 0.03 96.62334
v -417.4774 0.03 96.62334
v -417.1807 -0.67 98.85368
v -417.1807 -0.67 98.85368
v -413.258 0.03 93.19875
v -413.258 0.03 93.19875
v -413.0522 0.03 96.19168
v -413.0522 0.03 96.19168
v -413.0522 0.03 96.19168
v -413.0522 0.03 96.19168
v -412.8979 -0.67 98.43638
v -412.8979 -0.67 98.43638
v -408.4955 0.03 92.97205
v -408.4955 0.03 92.97205
v -408.4074 0.03 95.97076
v -408.4074 0.03 95.97076
v -408.4074 0.03 95.97076
v -408.4074 0.03 95.97076
v -408.3414 -0.67 98.21979
v -408.3414 -0.67 98.21979
v -403.6345 0.03 92.89868
v -403.6345 0.03 92.89868
v -403.6272 0.03 95.89867
v -403.6272 0.03 95.89867
v -403.6272 0.03 95.89867
v -403.6272 0.03 95.89867
v -403.6217 -0.67 98.14867
v -403.6217 -0.67 98.14867
v -398.7323 0.03 92.93681
v -398.7323 0.03 92.93681
v -398.7832 0.03 95.93637
v -398.7832 0.03 95.93637
v -398.7832 0.03 95.93637
v -398.7832 0.03 95.93637
v -398.8215 -0.67 98.18604
v -398.8215 -0.67 98.18604
v -393.7798 0.03 93.05878
v -393.7798 0.03 93.05878
v -393.8745 0.03 96.05728
v -393.8745 0.03 96.05728
v -393.8745 0.03 96.05728
v -393.8745 0.03 96.05728
v -393.9455 -0.67 98.30616
v -393.9455 -0.67 98.30616
v -388.788 0.03 93.2456
v -388.788 0.03 93.2456
v -388.9162 0.03 96.24286
v -388.9162 0.03 96.24286
v -388.9162 0.03 96.24286
v -388.9162 0.03 96.24286
v -389.0123 -0.67 98.4908
v -389.0123 -0.67 98.4908
v -383.8131 0.03 93.48057
v -383.8131 0.03 93.48057
v -383.9669 0.03 96.47662
v -383.9669 0.03 96.47662
v -383.9669 0.03 96.47662
v -383.9669 0.03 96.47662
v -384.0822 -0.67 98.72367
v -384.0822 -0.67 98.72367
v -378.8341 0.03 93.75314
v -378.8341 0.03 93.75314
v -379.0074 0.03 96.74813
v -379.0074 0.03 96.74813
v -379.0074 0.03 96.74813
v -379.0074 0.03 96.74813
v -379.1374 -0.67 98.99437
v -379.1374 -0.67 98.99437
v -373.818 0.03 94.05645
v -373.818 0.03 94.05645
v -374.006 0.03 97.05055
v -374.006 0.03 97.05055
v -374.006 0.03 97.05055
v -374.006 0.03 97.05055
v -374.1471 -0.67 99.29613
v -374.1471 -0.67 99.29613
v -368.7929 0.03 94.38154
v -368.7929 0.03 94.38154
v -368.9915 0.03 97.37495
v -368.9915 0.03 97.37495
v -368.9915 0.03 97.37495
v -368.9915 0.03 97.37495
v -369.1404 -0.67 99.62002
v -369.1404 -0.67 99.62002
v -363.7852 0.03 94.72001
v -363.7852 0.03 94.72001
v -363.9906 0.03 97.71297
v -363.9906 0.03 97.71297
v -363.9906 0.03 97.71297
v -363.9906 0.03 97.71297
v -364.1447 -0.67 99.95769
v -364.1447 -0.67 99.95769
v -358.748 0.03 95.06907
v -358.748 0.03 95.06907
v -358.9568 0.03 98.06179
v -358.9568 0.03 98.06179
v -358.9568 0.03 98.06179
v -358.9568 0.03 98.06179
v -359.1134 -0.67 100.3063
v -359.1134 -0.67 100.3063
v -353.7034 0.03 95.42155
v -353.7034 0.03 95.42155
v -353.9123 0.03 98.41427
v -353.9123 0.03 98.41427
v -353.9123 0.03 98.41427
v -353.9123 0.03 98.41427
v -354.0689 -0.67 100.6588
v -354.0689 -0.67 100.6588
v -348.6733 0.03 95.77026
v -348.6733 0.03 95.77026
v -348.8788 0.03 98.76321
v -348.8788 0.03 98.76321
v -348.8788 0.03 98.76321
v -348.8788 0.03 98.76321
v -349.033 -0.67 101.0079
v -349.033 -0.67 101.0079
v -343.6096 0.03 96.11266
v -343.6096 0.03 96.11266
v -343.8082 0.03 99.10607
v -343.8082 0.03 99.10607
v -343.8082 0.03 99.10607
v -343.8082 0.03 99.10607
v -343.9572 -0.67 101.3511
v -343.9572 -0.67 101.3511
v -338.5368 0.03 96.44057
v -338.5368 0.03 96.44057
v -338.7245 0.03 99.43468
v -338.7245 0.03 99.43468
v -338.7245 0.03 99.43468
v -338.7245 0.03 99.43468
v -338.8654 -0.67 101.6803
v -338.8654 -0.67 101.6803
v -333.4811 0.03 96.7452
v -333.4811 0.03 96.7452
v -333.6534 0.03 99.74025
v -333.6534 0.03 99.74025
v -333.6534 0.03 99.74025
v -333.6534 0.03 99.74025
v -333.7827 -0.67 101.9865
v -333.7827 -0.67 101.9865
v -328.4043 0.03 97.02039
v -328.4043 0.03 97.02039
v -328.5557 0.03 100.0166
v -328.5557 0.03 100.0166
v -328.5557 0.03 100.0166
v -328.5557 0.03 100.0166
v -328.6693 -0.67 102.2637
v -328.6693 -0.67 102.2637
v -323.3423 0.03 97.25374
v -323.3423 0.03 97.25374
v -323.4659 0.03 100.2512
v -323.4659 0.03 100.2512
v -323.4659 0.03 100.2512
v -323.4659 0.03 100.2512
v -323.5586 -0.67 102.4993
v -323.5586 -0.67 102.4993
v -318.2114 0.03 97.43481
v -318.2114 0.03 97.43481
v -318.2976 0.03 100.4336
v -318.2976 0.03 100.4336
v -318.2976 0.03 100.4336
v -318.2976 0.03 100.4336
v -318.3622 -0.67 102.6826
v -318.3622 -0.67 102.6826
v -313.0723 0.03 97.54148
v -313.0723 0.03 97.54148
v -313.108 0.03 100.5413
v -313.108 0.03 100.5413
v -313.108 0.03 100.5413
v -313.108 0.03 100.5413
v -313.1348 -0.67 102.7911
v -313.1348 -0.67 102.7911
v -307.885 0.03 97.54554
v -307.885 0.03 97.54554
v -307.8499 0.03 100.5453
v -307.8499 0.03 100.5453
v -307.8499 0.03 100.5453
v -307.8499 0.03 100.5453
v -307.8236 -0.67 102.7952
v -307.8236 -0.67 102.7952
v -302.6497 0.03 97.39958
v -302.6497 0.03 97.39958
v -302.5105 0.03 100.3964
v -302.5105 0.03 100.3964
v -302.5105 0.03 100.3964
v -302.5105 0.03 100.3964
v -302.4061 -0.67 102.6439
v -302.4061 -0.67 102.6439
v -297.3243 0.03 97.0153
v -297.3243 0.03 97.0153
v -297.0176 0.03 99.99959
v -297.0176 0.03 99.99959
v -297.0176 0.03 99.99959
v -297.0176 0.03 99.99959
v -296.7877 -0.67 102.2378
v -296.7877 -0.67 102.2378

vn 0 1 0
vn 0 0 0
vn 0 0.9999999 0
vn 0 0 0
vn 0.04867813 0.9548258 0.2931523
vn 0 0 0
vn 0.04869309 0.9548191 0.2931711
vn 0 0 0
vn 0 1 0
vn 0 0 0
vn 0 0.9999999 0
vn 0 0 0
vn 0.04207348 0.9548569 0.2940716
vn 0 0 0
vn 0.03545777 0.9548557 0.2949462
vn 0 0 0
vn -1.342136E-10 0.9999999 9.229261E-12
vn 0 0 0
vn -2.683942E-10 1 1.31631E-11
vn 0 0 0
vn 0.023729 0.9548455 0.2961537
vn 0 0 0
vn 0.01879446 0.9548572 0.2964701
vn 0 0 0
vn -1.301557E-10 1 8.950216E-12
vn 0 0 0
vn 1.303394E-10 1 -3.182132E-13
vn 0 0 0
vn 0.01082087 0.9548531 0.2968815
vn 0 0 0
vn 0.007601527 0.954857 0.2969688
vn 0 0 0
vn 2.560931E-10 1 -4.071375E-12
vn 0 0 0
vn 1.282244E-10 1 -3.130496E-13
vn 0 0 0
vn 0.002185066 0.9548553 0.2970632
vn 0 0 0
vn -8.188945E-05 0.9548569 0.2970662
vn 0 0 0
vn 0 1 0
vn 0 0 0
vn 0 1 0
vn 0 0 0
vn -0.004000408 0.954856 0.2970422
vn 0 0 0
vn -0.005669523 0.9548566 0.2970127
vn 0 0 0
vn 0 1 0
vn 0 0 0
vn 0 1 0
vn 0 0 0
vn -0.00859241 0.9548563 0.2969437
vn 0 0 0
vn -0.009858289 0.9548566 0.2969032
vn 0 0 0
vn 1.24584E-10 1 5.328935E-12
vn 0 0 0
vn 2.497932E-10 0.9999999 1.175137E-11
vn 0 0 0
vn -0.01207985 0.9548565 0.2968221
vn 0 0 0
vn -0.01304866 0.9548567 0.2967801
vn 0 0 0
vn 2.49379E-10 1 1.173188E-11
vn 0 0 0
vn 1.247779E-10 1 6.403187E-12
vn 0 0 0
vn -0.014759 0.9548566 0.2967
vn 0 0 0
vn -0.01550027 0.9548568 0.2966616
vn 0 0 0
vn -1.241466E-10 1 -7.185189E-12
vn 0 0 0
vn -2.478571E-10 1 -1.495601E-11
vn 0 0 0
vn -0.01680636 0.9548566 0.2965912
vn 0 0 0
vn -0.01737031 0.9548567 0.2965586
vn 0 0 0
vn -2.467262E-10 1 -1.488776E-11
vn 0 0 0
vn -1.233472E-10 1 -7.747017E-12
vn 0 0 0
vn -0.01834721 0.9548567 0.2964997
vn 0 0 0
vn -0.01876325 0.9548568 0.2964733
vn 0 0 0
vn -1.23249E-10 1 -8.177379E-12
vn 0 0 0
vn -2.46861E-10 1 -1.666198E-11
vn 0 0 0
vn -0.01946271 0.9548568 0.2964284
vn 0 0 0
vn -0.01974793 0.9548568 0.2964094
vn 0 0 0
vn -1.884651E-14 0.9999999 2.814412E-13
vn 0 0 0
vn 3.689939E-10 1 2.560846E-11
vn 0 0 0
vn -0.02020185 0.9548568 0.2963789
vn 0 0 0
vn -0.02036957 0.9548569 0.2963673
vn 0 0 0
vn 3.679169E-10 1 2.539424E-11
vn 0 0 0
vn 0 0.9999999 -1.249889E-15
vn 0 0 0
vn -0.02059318 0.9548568 0.2963518
vn 0 0 0
vn -0.0206498 0.9548568 0.296348
vn 0 0 0
vn -1.226003E-10 1 -8.555037E-12
vn 0 0 0
vn 1.227014E-10 0.9999999 8.426313E-12
vn 0 0 0
vn -0.02065244 0.9548568 0.296348
vn 0 0 0
vn -0.02059845 0.9548567 0.2963518
vn 0 0 0
vn 2.450962E-10 0.9999999 1.696842E-11
vn 0 0 0
vn 1.222309E-10 1 8.394005E-12
vn 0 0 0
vn -0.02037599 0.9548568 0.296367
vn 0 0 0
vn -0.0202083 0.9548568 0.2963785
vn 0 0 0
vn 0 1 0
vn 0 0 0
vn 0 1 0
vn 0 0 0
vn -0.01974814 0.9548568 0.2964094
vn 0 0 0
vn -0.01945516 0.9548568 0.2964289
vn 0 0 0
vn -2.439217E-10 1 -1.529246E-11
vn 0 0 0
vn -4.880166E-10 1 -2.933774E-11
vn 0 0 0
vn -0.01873199 0.9548568 0.2964753
vn 0 0 0
vn -0.01830016 0.9548568 0.2965025
vn 0 0 0
vn -3.66236E-10 1 -2.233142E-11
vn 0 0 0
vn 4.591261E-14 1 -8.512446E-13
vn 0 0 0
vn -0.01726974 0.9548568 0.2965642
vn 0 0 0
vn -0.01667317 0.9548567 0.2965988
vn 0 0 0
vn 2.438167E-10 1 1.317442E-11
vn 0 0 0
vn 1.218434E-10 1 6.156783E-12
vn 0 0 0
vn -0.01528069 0.9548567 0.2966735
vn 0 0 0
vn -0.01448075 0.9548566 0.2967141
vn 0 0 0
vn 1.216655E-10 1 5.017965E-12
vn 0 0 0
vn 2.417405E-10 0.9999999 8.458531E-12
vn 0 0 0
vn -0.01260293 0.9548569 0.2967989
vn 0 0 0
vn -0.01153477 0.9548566 0.2968433
vn 0 0 0
vn 1.204931E-10 1 4.969609E-12
vn 0 0 0
vn -1.201474E-10 0.9999999 -1.428853E-12
vn 0 0 0
vn -0.009038118 0.9548568 0.296929
vn 0 0 0
vn -0.007599145 0.954856 0.2969714
vn 0 0 0
vn -2.400117E-10 1 -4.875677E-12
vn 0 0 0
vn -1.19123E-10 1 -1.41667E-12
vn 0 0 0
vn -0.004173113 0.9548567 0.2970373
vn 0 0 0
vn -0.002192552 0.9548555 0.2970627
vn 0 0 0
vn 0 1 0
vn 0 0 0
vn 0 1 0
vn 0 0 0
vn 0.002630096 0.9548569 0.2970545
vn 0 0 0
vn 0.005474766 0.9548538 0.2970259
vn 0 0 0
vn 0 1 0
vn 0 0 0
vn 0 1 0
vn 0 0 0
vn 0.01273026 0.9548573 0.296792
vn 0 0 0
vn 0.01712173 0.9548477 0.2966018
vn 0 0 0
vn 0 1 0
vn 0 0 0
vn 0 1 0
vn 0 0 0
vn 0.02141772 0.9548234 0.2964009
vn 0 0 0
vn 0.02142648 0.9548181 0.2964173
vn 0 0 0

vt 0 0
vt 0 0
vt -0.1143372 0.5890045
vt -0.1143372 0.5890045
vt -0.1143372 0.5890045
vt -0.1143372 0.5890045
vt -0.2000916 1.030759
vt -0.2000916 1.030759
vt -0.9236328 -0.1532791
vt -0.9236328 -0.1532791
vt -1.002771 0.4414795
vt -1.002771 0.4414795
vt -1.002771 0.4414795
vt -1.002771 0.4414795
vt -1.062122 0.8875473
vt -1.062122 0.8875473
vt -1.846649 -0.2434387
vt -1.846649 -0.2434387
vt -1.887811 0.3551483
vt -1.887811 0.3551483
vt -1.887811 0.3551483
vt -1.887811 0.3551483
vt -1.918677 0.8040878
vt -1.918677 0.8040878
vt -2.799164 -0.2887787
vt -2.799164 -0.2887787
vt -2.816772 0.3109635
vt -2.816772 0.3109635
vt -2.816772 0.3109635
vt -2.816772 0.3109635
vt -2.829981 0.7607697
vt -2.829981 0.7607697
vt -3.77135 -0.3034515
vt -3.77135 -0.3034515
vt -3.772815 0.2965454
vt -3.772815 0.2965454
vt -3.772815 0.2965454
vt -3.772815 0.2965454
vt -3.773914 0.7465454
vt -3.773914 0.7465454
vt -4.751794 -0.2958267
vt -4.751794 -0.2958267
vt -4.741608 0.3040863
vt -4.741608 0.3040863
vt -4.741608 0.3040863
vt -4.741608 0.3040863
vt -4.73396 0.7540207
vt -4.73396 0.7540207
vt -5.742298 -0.2714325
vt -5.742298 -0.2714325
vt -5.723358 0.3282684
vt -5.723358 0.3282684
vt -5.723358 0.3282684
vt -5.723358 0.3282684
vt -5.709149 0.7780442
vt -5.709149 0.7780442
vt -6.740655 -0.2340683
vt -6.740655 -0.2340683
vt -6.715015 0.3653839
vt -6.715015 0.3653839
vt -6.715015 0.3653839
vt -6.715015 0.3653839
vt -6.695789 0.8149719
vt -6.695789 0.8149719
vt -7.735632 -0.1870743
vt -7.735632 -0.1870743
vt -7.704883 0.4121369
vt -7.704883 0.4121369
vt -7.704883 0.4121369
vt -7.704883 0.4121369
vt -7.681818 0.8615463
vt -7.681818 0.8615463
vt -8.731433 -0.1325592
vt -8.731433 -0.1325592
vt -8.696765 0.4664383
vt -8.696765 0.4664383
vt -8.696765 0.4664383
vt -8.696765 0.4664383
vt -8.670771 0.9156861
vt -8.670771 0.9156861
vt -9.734662 -0.07189789
vt -9.734662 -0.07189789
vt -9.697052 0.5269226
vt -9.697052 0.5269226
vt -9.697052 0.5269226
vt -9.697052 0.5269226
vt -9.668841 0.9760376
vt -9.668841 0.9760376
vt -10.73968 -0.006880188
vt -10.73968 -0.006880188
vt -10.69996 0.591803
vt -10.69996 0.591803
vt -10.69996 0.591803
vt -10.69996 0.591803
vt -10.67017 1.040816
vt -10.67017 1.040816
vt -11.74122 0.0608139
vt -11.74122 0.0608139
vt -11.70013 0.6594055
vt -11.70013 0.6594055
vt -11.70013 0.6594055
vt -11.70013 0.6594055
vt -11.66932 1.10835
vt -11.66932 1.10835
vt -12.74865 0.1306259
vt -12.74865 0.1306259
vt -12.70689 0.7291703
vt -12.70689 0.7291703
vt -12.70689 0.7291703
vt -12.70689 0.7291703
vt -12.67557 1.178079
vt -12.67557 1.178079
vt -13.75757 0.2011215
vt -13.75757 0.2011215
vt -13.7158 0.7996659
vt -13.7158 0.7996659
vt -13.7158 0.7996659
vt -13.7158 0.7996659
vt -13.68447 1.248573
vt -13.68447 1.248573
vt -14.7636 0.2708634
vt -14.7636 0.2708634
vt -14.72249 0.8694534
vt -14.72249 0.8694534
vt -14.72249 0.8694534
vt -14.72249 0.8694534
vt -14.69166 1.318396
vt -14.69166 1.318396
vt -15.77633 0.3393433
vt -15.77633 0.3393433
vt -15.73661 0.9380264
vt -15.73661 0.9380264
vt -15.73661 0.9380264
vt -15.73661 0.9380264
vt -15.70682 1.387039
vt -15.70682 1.387039
vt -16.79089 0.4049256
vt -16.79089 0.4049256
vt -16.75335 1.003749
vt -16.75335 1.003749
vt -16.75335 1.003749
vt -16.75335 1.003749
vt -16.72518 1.452867
vt -16.72518 1.452867
vt -17.80204 0.4658523
vt -17.80204 0.4658523
vt -17.76757 1.064862
vt -17.76757 1.064862
vt -17.76757 1.064862
vt -17.76757 1.064862
vt -17.74172 1.514119
vt -17.74172 1.514119
vt -18.81739 0.5208893
vt -18.81739 0.5208893
vt -18.78711 1.120125
vt -18.78711 1.120125
vt -18.78711 1.120125
vt -18.78711 1.120125
vt -18.7644 1.569551
vt -18.7644 1.569551
vt -19.8298 0.5675598
vt -19.8298 0.5675598
vt -19.80508 1.16705
vt -19.80508 1.16705
vt -19.80508 1.16705
vt -19.80508 1.16705
vt -19.78654 1.616669
vt -19.78654 1.616669
vt -20.85598 0.603775
vt -20.85598 0.603775
vt -20.83874 1.203528
vt -20.83874 1.203528
vt -20.83874 1.203528
vt -20.83874 1.203528
vt -20.82581 1.653342
vt -20.82581 1.653342
vt -21.88379 0.6251084
vt -21.88379 0.6251084
vt -21.87665 1.225067
vt -21.87665 1.225067
vt -21.87665 1.225067
vt -21.87665 1.225067
vt -21.8713 1.675035
vt -21.8713 1.675035
vt -22.92126 0.6259201
vt -22.92126 0.6259201
vt -22.92828 1.225879
vt -22.92828 1.225879
vt -22.92828 1.225879
vt -22.92828 1.225879
vt -22.93353 1.675848
vt -22.93353 1.675848
vt -23.96832 0.5967285
vt -23.96832 0.5967285
vt -23.99615 1.196083
vt -23.99615 1.196083
vt -23.99615 1.196083
vt -23.99615 1.196083
vt -24.01703 1.645598
vt -24.01703 1.645598
vt -25.03339 0.5198731
vt -25.03339 0.5198731
vt -25.09473 1.11673
vt -25.09473 1.11673
vt -25.09473 1.11673
vt -25.09473 1.11673
vt -25.14072 1.564372
vt -25.14072 1.564372

usemtl GSDShoulder1
usemap GSDShoulder1
f 9/9/9 1/1/1 3/3/3
f 11/11/11 9/9/9 3/3/3
f 13/13/13 5/5/5 7/7/7
f 15/15/15 13/13/13 7/7/7
f 17/17/17 9/9/9 11/11/11
f 19/19/19 17/17/17 11/11/11
f 21/21/21 13/13/13 15/15/15
f 23/23/23 21/21/21 15/15/15
f 25/25/25 17/17/17 19/19/19
f 27/27/27 25/25/25 19/19/19
f 29/29/29 21/21/21 23/23/23
f 31/31/31 29/29/29 23/23/23
f 33/33/33 25/25/25 27/27/27
f 35/35/35 33/33/33 27/27/27
f 37/37/37 29/29/29 31/31/31
f 39/39/39 37/37/37 31/31/31
f 41/41/41 33/33/33 35/35/35
f 43/43/43 41/41/41 35/35/35
f 45/45/45 37/37/37 39/39/39
f 47/47/47 45/45/45 39/39/39
f 49/49/49 41/41/41 43/43/43
f 51/51/51 49/49/49 43/43/43
f 53/53/53 45/45/45 47/47/47
f 55/55/55 53/53/53 47/47/47
f 57/57/57 49/49/49 51/51/51
f 59/59/59 57/57/57 51/51/51
f 61/61/61 53/53/53 55/55/55
f 63/63/63 61/61/61 55/55/55
f 65/65/65 57/57/57 59/59/59
f 67/67/67 65/65/65 59/59/59
f 69/69/69 61/61/61 63/63/63
f 71/71/71 69/69/69 63/63/63
f 73/73/73 65/65/65 67/67/67
f 75/75/75 73/73/73 67/67/67
f 77/77/77 69/69/69 71/71/71
f 79/79/79 77/77/77 71/71/71
f 81/81/81 73/73/73 75/75/75
f 83/83/83 81/81/81 75/75/75
f 85/85/85 77/77/77 79/79/79
f 87/87/87 85/85/85 79/79/79
f 89/89/89 81/81/81 83/83/83
f 91/91/91 89/89/89 83/83/83
f 93/93/93 85/85/85 87/87/87
f 95/95/95 93/93/93 87/87/87
f 97/97/97 89/89/89 91/91/91
f 99/99/99 97/97/97 91/91/91
f 101/101/101 93/93/93 95/95/95
f 103/103/103 101/101/101 95/95/95
f 105/105/105 97/97/97 99/99/99
f 107/107/107 105/105/105 99/99/99
f 109/109/109 101/101/101 103/103/103
f 111/111/111 109/109/109 103/103/103
f 113/113/113 105/105/105 107/107/107
f 115/115/115 113/113/113 107/107/107
f 117/117/117 109/109/109 111/111/111
f 119/119/119 117/117/117 111/111/111
f 121/121/121 113/113/113 115/115/115
f 123/123/123 121/121/121 115/115/115
f 125/125/125 117/117/117 119/119/119
f 127/127/127 125/125/125 119/119/119
f 129/129/129 121/121/121 123/123/123
f 131/131/131 129/129/129 123/123/123
f 133/133/133 125/125/125 127/127/127
f 135/135/135 133/133/133 127/127/127
f 137/137/137 129/129/129 131/131/131
f 139/139/139 137/137/137 131/131/131
f 141/141/141 133/133/133 135/135/135
f 143/143/143 141/141/141 135/135/135
f 145/145/145 137/137/137 139/139/139
f 147/147/147 145/145/145 139/139/139
f 149/149/149 141/141/141 143/143/143
f 151/151/151 149/149/149 143/143/143
f 153/153/153 145/145/145 147/147/147
f 155/155/155 153/153/153 147/147/147
f 157/157/157 149/149/149 151/151/151
f 159/159/159 157/157/157 151/151/151
f 161/161/161 153/153/153 155/155/155
f 163/163/163 161/161/161 155/155/155
f 165/165/165 157/157/157 159/159/159
f 167/167/167 165/165/165 159/159/159
f 169/169/169 161/161/161 163/163/163
f 171/171/171 169/169/169 163/163/163
f 173/173/173 165/165/165 167/167/167
f 175/175/175 173/173/173 167/167/167
f 177/177/177 169/169/169 171/171/171
f 179/179/179 177/177/177 171/171/171
f 181/181/181 173/173/173 175/175/175
f 183/183/183 181/181/181 175/175/175
f 185/185/185 177/177/177 179/179/179
f 187/187/187 185/185/185 179/179/179
f 189/189/189 181/181/181 183/183/183
f 191/191/191 189/189/189 183/183/183
f 193/193/193 185/185/185 187/187/187
f 195/195/195 193/193/193 187/187/187
f 197/197/197 189/189/189 191/191/191
f 199/199/199 197/197/197 191/191/191
f 201/201/201 193/193/193 195/195/195
f 203/203/203 201/201/201 195/195/195
f 205/205/205 197/197/197 199/199/199
f 207/207/207 205/205/205 199/199/199
