mtllib ./Intersections_0_37.mtl
g Road1-Inter4-Lane0
v -209.4245 0.1348536 131.4619
v -209.4245 0.1348536 131.4619
v -203.4349 0.1348536 131.1093
v -203.4349 0.1348536 131.1093
v -209.7388 0.14 126.5076
v -209.7388 0.14 126.5076
v -203.7528 0.14 126.0987
v -203.7528 0.14 126.0987
v -210.1043 0.14 121.5531
v -210.1043 0.14 121.5531
v -204.1232 0.14 121.0772
v -204.1232 0.14 121.0772
v -210.8777 0.14 113.1393
v -210.8777 0.14 113.1393
v -204.5274 0.14 116.6628
v -204.5274 0.14 116.6628
v -202.8904 0.107948 84.91411
v -202.8904 0.107948 84.91411
v -208.7859 0.107948 86.02906
v -208.7859 0.107948 86.02906
v -201.972 0.14 90.00615
v -201.972 0.14 90.00615
v -207.8853 0.14 91.02203
v -207.8853 0.14 91.02203
v -201.1426 0.14 95.07436
v -201.1426 0.14 95.07436
v -207.0712 0.14 95.99725
v -207.0712 0.14 95.99725
v -200.3841 0.14 100.2019
v -200.3841 0.14 100.2019
v -206.3259 0.14 101.0358
v -206.3259 0.14 101.0358
v -199.6313 0.14 105.9025
v -199.6313 0.14 105.9025
v -206.2489 0.14 101.8848
v -206.2489 0.14 101.8848

vn 6.092175E-05 0.9999995 0.001034923
vn 0 0 0
vn 6.541076E-05 0.9999995 0.001028774
vn 0 0 0
vn 4.367853E-05 0.9999998 0.0006869715
vn 0 0 0
vn 2.334211E-05 0.9999999 0.0003417614
vn 0 0 0
vn 0 1 0
vn 0 0 0
vn 0 1 0
vn 0 0 0
vn 0 1 0
vn 0 0 0
vn 0 1 0
vn 0 0 0
vn -0.001151129 0.9999807 -0.006086785
vn 0 0 0
vn -0.001110792 0.9999805 -0.006155892
vn 0 0 0
vn -0.0007399694 0.9999913 -0.004100832
vn 0 0 0
vn -0.0003558571 0.9999979 -0.002071413
vn 0 0 0
vn 0 1 0
vn 0 0 0
vn 0 1 0
vn 0 0 0
vn 0 1 0
vn 0 0 0
vn 0 1 0
vn 0 0 0
vn 0 1 0
vn 0 0 0
vn 0 0.9999999 0
vn 0 0 0

vt 0 0
vt 0 0
vt 1 0
vt 0 0
vt 0 0.9928457
vt 0 0.9928457
vt 1 1.00412
vt 1 1.00412
vt 0 1.986439
vt 0 1.986439
vt 1 2.011164
vt 1 2.011164
vt 0 3.676298
vt 0 0
vt 1 2.897723
vt 0 0
vt 0 0
vt 0 0
vt 1 0
vt 0 0
vt 0 1.03486
vt 0 1.03486
vt 1 1.014727
vt 1 1.014727
vt 0 2.061984
vt 0 2.061984
vt 1 2.023006
vt 1 2.023006
vt 0 3.098644
vt 0 3.098644
vt 1 3.041676
vt 1 3.041676
vt 0 4.248675
vt 0 4.248675
vt 1 3.212169
vt 1 3.212169

usemtl GSDInterWhiteLYellowR-4L
usemap GSDInterWhiteLYellowR-4L
f 5/5/5 1/1/1 3/3/3
f 7/7/7 5/5/5 3/3/3
f 9/9/9 5/5/5 7/7/7
f 11/11/11 9/9/9 7/7/7
f 13/13/13 9/9/9 11/11/11
f 15/15/15 13/13/13 11/11/11
f 21/21/21 17/17/17 19/19/19
f 23/23/23 21/21/21 19/19/19
f 25/25/25 21/21/21 23/23/23
f 27/27/27 25/25/25 23/23/23
f 29/29/29 25/25/25 27/27/27
f 31/31/31 29/29/29 27/27/27
f 33/33/33 29/29/29 31/31/31
f 35/35/35 33/33/33 31/31/31
