mtllib ./Intersections_0_40.mtl
g Road1-Inter4-StretchExt
v -209.4245 0.1348536 131.4619
v -209.4245 0.1348536 131.4619
v -197.4452 0.1348536 130.7567
v -197.4452 0.1348536 130.7567
v -209.7388 0.14 126.5076
v -209.7388 0.14 126.5076
v -197.7667 0.14 125.6899
v -197.7667 0.14 125.6899
v -210.1043 0.14 121.5531
v -210.1043 0.14 121.5531
v -198.1771 0.14 120.1864
v -198.1771 0.14 120.1864
v -210.8777 0.14 113.1393
v -210.8777 0.14 113.1393
v -198.1771 0.14 120.1864
v -198.1771 0.14 120.1864
v -202.8904 0.107948 84.91411
v -202.8904 0.107948 84.91411
v -214.6814 0.107948 87.14401
v -214.6814 0.107948 87.14401
v -201.972 0.14 90.00615
v -201.972 0.14 90.00615
v -213.7987 0.14 92.03792
v -213.7987 0.14 92.03792
v -201.1426 0.14 95.07436
v -201.1426 0.14 95.07436
v -212.8664 0.14 97.86699
v -212.8664 0.14 97.86699
v -200.3841 0.14 100.2019
v -200.3841 0.14 100.2019
v -212.8664 0.14 97.86699
v -212.8664 0.14 97.86699
v -199.6313 0.14 105.9025
v -199.6313 0.14 105.9025
v -212.8664 0.14 97.86699
v -212.8664 0.14 97.86699

vn 6.092175E-05 0.9999995 0.001034923
vn 0 0 0
vn 6.504352E-05 0.9999995 0.001022998
vn 0 0 0
vn 4.351447E-05 0.9999998 0.0006843913
vn 0 0 0
vn 2.253506E-05 0.9999999 0.0003299451
vn 0 0 0
vn 0 1 0
vn 0 0 0
vn 0 1 0
vn 0 0 0
vn 0 1 0
vn 0 0 0
vn 0 0 0
vn 0 0 0
vn -0.001151129 0.9999807 -0.006086785
vn 0 0 0
vn -0.001121812 0.99998 -0.006216962
vn 0 0 0
vn -0.0007448436 0.9999912 -0.004127844
vn 0 0 0
vn -0.0003387535 0.999998 -0.001971855
vn 0 0 0
vn 0 1 0
vn 0 0 0
vn 0 1 0
vn 0 0 0
vn 0 1 0
vn 0 0 0
vn 0 0.9999999 0
vn 0 0 0
vn 0 0.9999999 0
vn 0 0 0
vn 0 0 0
vn 0 0 0

vt 0 0
vt 0 0
vt 1 0
vt 0 0
vt 0 0.125
vt 0 0.125
vt 1 0.125
vt 1 0.125
vt 0 0.4541384
vt 0 0.4541384
vt 1 1
vt 1 1
vt 0 1
vt 0 0
vt 1 1
vt 0 0
vt 0 0
vt 0 0
vt 1 0
vt 0 0
vt 0 0.125
vt 0 0.125
vt 1 0.125
vt 1 0.125
vt 0 0.4091087
vt 0 0.4091087
vt 1 1
vt 1 1
vt 0 0.6958551
vt 0 0.6958551
vt 1 1
vt 1 1
vt 0 1
vt 0 1
vt 1 1
vt 1 1

usemtl GSDInterStretch-None-4L
usemap GSDInterStretch-None-4L
f 5/5/5 1/1/1 3/3/3
f 7/7/7 5/5/5 3/3/3
f 9/9/9 5/5/5 7/7/7
f 11/11/11 9/9/9 7/7/7
f 13/13/13 9/9/9 11/11/11
f 15/15/15 13/13/13 11/11/11
f 21/21/21 17/17/17 19/19/19
f 23/23/23 21/21/21 19/19/19
f 25/25/25 21/21/21 23/23/23
f 27/27/27 25/25/25 23/23/23
f 29/29/29 25/25/25 27/27/27
f 31/31/31 29/29/29 27/27/27
f 33/33/33 29/29/29 31/31/31
f 35/35/35 33/33/33 31/31/31
