mtllib ./Intersections_0_35.mtl
g Road3-Inter3-TiledExt
v -226.1913 0.4439712 341.9795
v -226.1913 0.4439712 341.9795
v -222.6024 0.4439712 353.4302
v -222.6024 0.4439712 353.4302
v -221.6029 0.48 340.4655
v -221.6029 0.48 340.4655
v -217.6595 0.48 351.799
v -217.6595 0.48 351.799
v -217.104 0.48 338.8059
v -217.104 0.48 338.8059
v -208.8639 0.48 348.3715
v -208.8639 0.48 348.3715
v -212.7491 0.48 336.9832
v -212.7491 0.48 336.9832
v -208.8639 0.48 348.3715
v -208.8639 0.48 348.3715
v -208.9632 0.48 335.1515
v -208.9632 0.48 335.1515
v -208.8639 0.48 348.3715
v -208.8639 0.48 348.3715
v -181.3202 0.4655565 329.6674
v -181.3202 0.4655565 329.6674
v -189.788 0.4655565 321.1649
v -189.788 0.4655565 321.1649
v -185.267 0.48 333.366
v -185.267 0.48 333.366
v -196.9753 0.48 327.4657
v -196.9753 0.48 327.4657
v -189.4271 0.48 336.815
v -189.4271 0.48 336.815
v -196.9753 0.48 327.4657
v -196.9753 0.48 327.4657
v -196.9136 0.48 342.0476
v -196.9136 0.48 342.0476
v -196.9753 0.48 327.4657
v -196.9753 0.48 327.4657
v -208.9632 0.48 335.1515
v -208.8639 0.48 348.3715
v -196.9753 0.48 327.4657
v -196.9136 0.48 342.0476

vn -0.007115989 0.9999723 0.002230308
vn 0 0 0
vn -0.006816295 0.9999743 0.002253419
vn 0 0 0
vn -0.004612721 0.9999881 0.001524933
vn 0 0 0
vn -0.001757293 0.9999983 0.0006114347
vn 0 0 0
vn 0 1 0
vn 0 0 0
vn 0 1 0
vn 0 0 0
vn 0 1 0
vn 0 0 0
vn 0 0.9999999 0
vn 0 0 0
vn 0 0.9999999 0
vn 0 0 0
vn 0 0 0
vn 0 0 0
vn 0.001892925 0.9999964 -0.001885194
vn 0 0 0
vn 0.001148971 0.9999981 -0.001609526
vn 0 0 0
vn 0.000845696 0.999999 -0.001184686
vn 0 0 0
vn 0.0004705569 0.9999995 -0.0009337491
vn 0 0 0
vn 0 1 0
vn 0 0 0
vn 0 0.9999999 0
vn 0 0 0
vn 0 0.9999999 0
vn 0 0 0
vn 0 0 0
vn 0 0 0
vn 0 1 0
vn 0 1 0
vn 0 1 0
vn 0 1 0

vt 45.23826 68.3959
vt 45.23826 68.3959
vt 44.52048 70.68604
vt 44.52048 70.68604
vt 44.32058 68.0931
vt 44.32058 68.0931
vt 43.5319 70.3598
vt 43.5319 70.3598
vt 43.42081 67.76118
vt 43.42081 67.76118
vt 41.77278 69.6743
vt 41.77278 69.6743
vt 42.54983 67.39664
vt 42.54983 67.39664
vt 41.77278 69.6743
vt 41.77278 69.6743
vt 41.79264 67.0303
vt 41.79264 67.0303
vt 41.77278 69.6743
vt 41.77278 69.6743
vt 36.26404 65.93349
vt 36.26404 65.93349
vt 37.95761 64.23298
vt 37.95761 64.23298
vt 37.05339 66.67321
vt 37.05339 66.67321
vt 39.39507 65.49313
vt 39.39507 65.49313
vt 37.88543 67.36301
vt 37.88543 67.36301
vt 39.39507 65.49313
vt 39.39507 65.49313
vt 39.38271 68.40952
vt 39.38271 68.40952
vt 39.39507 65.49313
vt 39.39507 65.49313
vt 41.79264 67.0303
vt 41.77278 69.6743
vt 39.39507 65.49313
vt 39.38271 68.40952

usemtl GSDRoad1
usemap GSDRoad1
f 5/5/5 1/1/1 3/3/3
f 7/7/7 5/5/5 3/3/3
f 9/9/9 5/5/5 7/7/7
f 11/11/11 9/9/9 7/7/7
f 13/13/13 9/9/9 11/11/11
f 15/15/15 13/13/13 11/11/11
f 17/17/17 13/13/13 15/15/15
f 19/19/19 17/17/17 15/15/15
f 25/25/25 21/21/21 23/23/23
f 27/27/27 25/25/25 23/23/23
f 29/29/29 25/25/25 27/27/27
f 31/31/31 29/29/29 27/27/27
f 33/33/33 29/29/29 31/31/31
f 35/35/35 33/33/33 31/31/31
f 39/39/39 37/37/37 38/38/38
f 40/40/40 39/39/39 38/38/38
