mtllib ./Intersections_0_17.mtl
g StopSignRL
v -286.2404 1.861546 369.5467
v -286.7588 1.630055 369.5376
v -286.4719 1.630055 369.5433
v -286.4718 2.380046 369.5396
v -286.9902 2.148555 369.5305
v -286.9903 1.861546 369.532
v -286.7588 2.380046 369.5339
v -286.2404 2.148555 369.5453
v -286.6299 0.1299263 369.5177
v -286.6005 0.1300742 369.5482
v -286.5999 0.1299263 369.5182
v -286.6305 0.1300742 369.5477
v -286.6297 2.379898 369.5066
v -286.6003 2.380046 369.5372
v -286.6303 2.380046 369.5366
v -286.5997 2.379898 369.5072
v -286.6299 0.1299263 369.5177
v -286.6303 2.380046 369.5366
v -286.6305 0.1300742 369.5477
v -286.6297 2.379898 369.5066
v -286.6305 0.1300742 369.5477
v -286.6003 2.380046 369.5372
v -286.6005 0.1300742 369.5482
v -286.6303 2.380046 369.5366
v -286.6005 0.1300742 369.5482
v -286.5997 2.379898 369.5072
v -286.5999 0.1299263 369.5182
v -286.6003 2.380046 369.5372
v -286.5999 0.1299263 369.5182
v -286.6297 2.379898 369.5066
v -286.6299 0.1299263 369.5177
v -286.5997 2.379898 369.5072
v -286.9903 1.861551 369.5331
v -286.4719 1.63006 369.5444
v -286.7589 1.63006 369.5387
v -286.2404 1.861552 369.5478
v -286.4718 2.380051 369.5407
v -286.9903 2.14856 369.5316
v -286.7588 2.380051 369.535
v -286.2404 2.14856 369.5464
v -286.9903 2.14856 369.5316
v -286.2404 1.861551 369.5478
v -286.9903 1.861551 369.5331
v -286.2404 2.14856 369.5464
v -286.4713 1.579503 369.5446
v -286.7672 1.571732 369.5389
v -286.7594 1.579503 369.539
v -286.4636 1.480049 369.5453
v -286.7594 1.472278 369.5395
v -286.7672 1.480049 369.5393
v -286.4713 1.472278 369.5452
v -286.4636 1.571732 369.5448
v -286.7594 1.579503 369.539
v -286.4636 1.571732 369.5448
v -286.4713 1.579503 369.5446
v -286.7672 1.480049 369.5393
v -286.4713 1.472278 369.5452
v -286.4636 1.480049 369.5453
v -286.7594 1.472278 369.5395
v -286.7672 1.571732 369.5389

vn 0.0196689 -0.00492896 -0.9997945
vn 0.0196689 -0.00492896 -0.9997945
vn 0.0196689 -0.00492896 -0.9997945
vn 0.0196689 -0.00492896 -0.9997945
vn 0.0196689 -0.00492896 -0.9997945
vn 0.0196689 -0.00492896 -0.9997945
vn 0.0196689 -0.00492896 -0.9997945
vn 0.0196689 -0.00492896 -0.9997945
vn -9.694797E-05 -0.9999878 0.004928007
vn -9.694797E-05 -0.9999878 0.004928007
vn -9.694797E-05 -0.9999878 0.004928007
vn -9.694797E-05 -0.9999878 0.004928007
vn 9.694797E-05 0.9999878 -0.004928007
vn 9.694797E-05 0.9999878 -0.004928007
vn 9.694797E-05 0.9999878 -0.004928007
vn 9.694797E-05 0.9999878 -0.004928007
vn -0.9998066 -4.292815E-10 -0.01966914
vn -0.9998066 -4.292815E-10 -0.01966914
vn -0.9998066 -4.292815E-10 -0.01966914
vn -0.9998066 -4.292815E-10 -0.01966914
vn -0.0196689 0.00492896 0.9997945
vn -0.0196689 0.00492896 0.9997945
vn -0.0196689 0.00492896 0.9997945
vn -0.0196689 0.00492896 0.9997945
vn 0.9998066 4.292815E-10 0.01966914
vn 0.9998066 4.292815E-10 0.01966914
vn 0.9998066 4.292815E-10 0.01966914
vn 0.9998066 4.292815E-10 0.01966914
vn 0.0196689 -0.00492896 -0.9997945
vn 0.0196689 -0.00492896 -0.9997945
vn 0.0196689 -0.00492896 -0.9997945
vn 0.0196689 -0.00492896 -0.9997945
vn -0.0196689 0.00492896 0.9997945
vn -0.0196689 0.00492896 0.9997945
vn -0.0196689 0.00492896 0.9997945
vn -0.0196689 0.00492896 0.9997945
vn -0.0196689 0.00492896 0.9997945
vn -0.0196689 0.00492896 0.9997945
vn -0.0196689 0.00492896 0.9997945
vn -0.0196689 0.00492896 0.9997945
vn -0.0196689 0.00492896 0.9997945
vn -0.0196689 0.00492896 0.9997945
vn -0.0196689 0.00492896 0.9997945
vn -0.0196689 0.00492896 0.9997945
vn -0.0196689 0.00492896 0.9997945
vn -0.0196689 0.00492896 0.9997945
vn -0.0196689 0.00492896 0.9997945
vn -0.0196689 0.00492896 0.9997945
vn -0.0196689 0.00492896 0.9997945
vn -0.0196689 0.00492896 0.9997945
vn -0.0196689 0.00492896 0.9997945
vn -0.0196689 0.00492896 0.9997945
vn 0.0196689 -0.00492896 -0.9997945
vn 0.0196689 -0.00492896 -0.9997945
vn 0.0196689 -0.00492896 -0.9997945
vn 0.0196689 -0.00492896 -0.9997945
vn 0.0196689 -0.00492896 -0.9997945
vn 0.0196689 -0.00492896 -0.9997945
vn 0.0196689 -0.00492896 -0.9997945
vn 0.0196689 -0.00492896 -0.9997945

vt 0.7917076 0.3037384
vt 0.8344342 0.1983277
vt 0.7929932 0.2381747
vt 0.8971184 0.346465
vt 0.939845 0.2410543
vt 0.8999981 0.1996134
vt 0.9385594 0.3066181
vt 0.8315546 0.3451794
vt 0.03306448 0.002440054
vt 0.007788958 0.02771557
vt 0.03306448 0.02771557
vt 0.007788961 0.002440056
vt 0.03306448 0.02771557
vt 0.007788958 0.002440054
vt 0.007788962 0.02771557
vt 0.03306448 0.002440056
vt -0.207845 0.02834427
vt 1.904856 0.0001753219
vt -0.207845 0.0001748956
vt 1.904856 0.02834466
vt -0.207845 0.02834427
vt 1.904856 0.0001760434
vt -0.207845 0.0001748956
vt 1.904856 0.02834538
vt -0.207845 0.02834466
vt 1.904856 0.0001748956
vt -0.207845 0.0001753219
vt 1.904856 0.02834427
vt -0.207845 0.02834538
vt 1.904856 0.0001748956
vt -0.207845 0.0001760434
vt 1.904856 0.02834427
vt 0.006138629 0.4998231
vt 0.5018775 0.293262
vt 0.2116208 0.2932241
vt 0.7066128 0.4996504
vt 0.5012056 0.9937276
vt 0.005957711 0.7910758
vt 0.2106791 0.9934891
vt 0.7063369 0.7910444
vt 0.005955926 0.7910767
vt 0.7066249 0.4996215
vt 0.00614073 0.4998201
vt 0.7063365 0.7910261
vt 0.9155614 0.4352703
vt 0.9018806 0.9919493
vt 0.9155927 0.9773402
vt 0.7399712 0.4204322
vt 0.7263771 0.9771873
vt 0.7400933 0.9918203
vt 0.7262546 0.4350373
vt 0.9018406 0.4206333
vt 0.9584125 0.3150619
vt 0.6829161 0.3066074
vt 0.690146 0.3150812
vt 0.9657559 0.206551
vt 0.6902217 0.1981501
vt 0.6829799 0.2066264
vt 0.9585279 0.1980744
vt 0.9656563 0.3065828

usemtl GSDSignStopAllway
usemap GSDSignStopAllway
f 2/2/2 1/1/1 3/3/3
f 4/4/4 1/1/1 2/2/2
f 4/4/4 2/2/2 5/5/5
f 5/5/5 2/2/2 6/6/6
f 4/4/4 5/5/5 7/7/7
f 4/4/4 8/8/8 1/1/1
f 10/10/10 9/9/9 11/11/11
f 9/9/9 10/10/10 12/12/12
f 14/14/14 13/13/13 15/15/15
f 13/13/13 14/14/14 16/16/16
f 18/18/18 17/17/17 19/19/19
f 17/17/17 18/18/18 20/20/20
f 22/22/22 21/21/21 23/23/23
f 21/21/21 22/22/22 24/24/24
f 26/26/26 25/25/25 27/27/27
f 25/25/25 26/26/26 28/28/28
f 30/30/30 29/29/29 31/31/31
f 29/29/29 30/30/30 32/32/32
f 34/34/34 33/33/33 35/35/35
f 33/33/33 34/34/34 36/36/36
f 38/38/38 37/37/37 39/39/39
f 37/37/37 38/38/38 40/40/40
f 42/42/42 41/41/41 43/43/43
f 41/41/41 42/42/42 44/44/44
f 46/46/46 45/45/45 47/47/47
f 48/48/48 45/45/45 46/46/46
f 48/48/48 46/46/46 49/49/49
f 49/49/49 46/46/46 50/50/50
f 48/48/48 49/49/49 51/51/51
f 48/48/48 52/52/52 45/45/45
f 54/54/54 53/53/53 55/55/55
f 56/56/56 53/53/53 54/54/54
f 56/56/56 54/54/54 57/57/57
f 57/57/57 54/54/54 58/58/58
f 56/56/56 57/57/57 59/59/59
f 56/56/56 60/60/60 53/53/53
