mtllib ./Intersections_0_22.mtl
g Road3-Inter2-TiledExt
v -267.1948 0.1221253 364.1055
v -267.1948 0.1221253 364.1055
v -269.68 0.1221253 352.3658
v -269.68 0.1221253 352.3658
v -272.0961 0.13 365.1504
v -272.0961 0.13 365.1504
v -274.6197 0.13 353.4189
v -274.6197 0.13 353.4189
v -276.9599 0.13 366.2102
v -276.9599 0.13 366.2102
v -279.5507 0.13 354.4933
v -279.5507 0.13 354.4933
v -281.8303 0.13 367.3075
v -281.8303 0.13 367.3075
v -287.3536 0.13 356.278
v -287.3536 0.13 356.278
v -287.6761 0.13 368.6982
v -287.6761 0.13 368.6982
v -287.3536 0.13 356.278
v -287.3536 0.13 356.278
v -299.4447 0.13 359.3036
v -299.7458 0.13 371.7614
v -287.3536 0.13 356.278
v -287.6761 0.13 368.6982

vn 0.001537255 0.9999987 -0.0003254272
vn 0 0 0
vn 0.001530725 0.9999987 -0.0003266614
vn 0 0 0
vn 0.001024095 0.9999994 -0.0002185449
vn 0 0 0
vn 0.0005106743 0.9999998 -0.000109853
vn 0 0 0
vn 0 1 0
vn 0 0 0
vn 0 1 0
vn 0 0 0
vn 0 0.9999999 0
vn 0 0 0
vn 0 1 0
vn 0 0 0
vn 0 1 0
vn 0 0 0
vn 0 0 0
vn 0 0 0
vn 0 1 0
vn 0 0.9999999 0
vn 0 0.9999999 0
vn 0 1 0

vt 53.43895 72.82111
vt 53.43895 72.82111
vt 53.936 70.47316
vt 53.936 70.47316
vt 54.41922 73.03008
vt 54.41922 73.03008
vt 54.92395 70.68377
vt 54.92395 70.68377
vt 55.39198 73.24205
vt 55.39198 73.24205
vt 55.91014 70.89867
vt 55.91014 70.89867
vt 56.36607 73.4615
vt 56.36607 73.4615
vt 57.47071 71.25561
vt 57.47071 71.25561
vt 57.53523 73.73964
vt 57.53523 73.73964
vt 57.47071 71.25561
vt 57.47071 71.25561
vt 59.88894 71.86071
vt 59.94916 74.35229
vt 57.47071 71.2556
vt 57.53523 73.73964

usemtl GSDRoad1
usemap GSDRoad1
f 5/5/5 1/1/1 3/3/3
f 7/7/7 5/5/5 3/3/3
f 9/9/9 5/5/5 7/7/7
f 11/11/11 9/9/9 7/7/7
f 13/13/13 9/9/9 11/11/11
f 15/15/15 13/13/13 11/11/11
f 17/17/17 13/13/13 15/15/15
f 19/19/19 17/17/17 15/15/15
f 23/23/23 21/21/21 22/22/22
f 24/24/24 23/23/23 22/22/22
