mtllib ./Intersections_0_26.mtl
g Road1-Inter3-TiledExt
v -208.7603 0.4466997 362.7227
v -208.7603 0.4466997 362.7227
v -196.7605 0.4466997 362.6421
v -196.7605 0.4466997 362.6421
v -208.7951 0.48 357.6746
v -208.7951 0.48 357.6746
v -196.7954 0.48 357.5898
v -196.7954 0.48 357.5898
v -208.8639 0.48 348.374
v -208.8639 0.48 348.374
v -196.8323 0.48 352.4943
v -196.8323 0.48 352.4943
v -208.8639 0.48 348.374
v -208.8639 0.48 348.374
v -196.8705 0.48 347.4603
v -196.8705 0.48 347.4603
v -208.8639 0.48 348.374
v -208.8639 0.48 348.374
v -196.9136 0.48 342.0458
v -196.9136 0.48 342.0458
v -196.9342 0.4742719 317.3452
v -196.9342 0.4742719 317.3452
v -208.9339 0.4742719 317.2676
v -208.9339 0.4742719 317.2676
v -196.9753 0.48 327.4565
v -196.9753 0.48 327.4565
v -208.961 0.48 322.2932
v -208.961 0.48 322.2932
v -196.9753 0.48 327.4565
v -196.9753 0.48 327.4565
v -208.9754 0.48 327.3559
v -208.9754 0.48 327.3559
v -196.9753 0.48 327.4565
v -196.9753 0.48 327.4565
v -208.9632 0.48 335.1528
v -208.9632 0.48 335.1528

vn 4.428702E-05 0.9999782 0.006596199
vn 0 0 0
vn 4.542558E-05 0.9999783 0.006593441
vn 0 0 0
vn 2.364942E-05 0.999994 0.003432672
vn 0 0 0
vn 1.209597E-05 0.9999986 0.001712098
vn 0 0 0
vn 0 1 0
vn 0 0 0
vn 0 1 0
vn 0 0 0
vn 0 1 0
vn 0 0 0
vn 0 0.9999999 0
vn 0 0 0
vn 0 1 0
vn 0 0 0
vn 0 1 0
vn 0 0 0
vn 3.665115E-06 0.9999999 -0.0005664908
vn 0 0 0
vn 0.0001652126 0.9999996 -0.0007560964
vn 0 0 0
vn 0.0001652126 0.9999996 -0.0007560964
vn 0 0 0
vn 0.0002441709 0.9999998 -0.0005667937
vn 0 0 0
vn 0 1 0
vn 0 0 0
vn 0 1 0
vn 0 0 0
vn 0 1 0
vn 0 0 0
vn 0 1 0
vn 0 0 0

vt 41.75206 72.54453
vt 41.75206 72.54453
vt 39.35211 72.52842
vt 39.35211 72.52842
vt 41.75901 71.53492
vt 41.75901 71.53492
vt 39.35907 71.51797
vt 39.35907 71.51797
vt 41.77278 69.6748
vt 41.77278 69.6748
vt 39.36646 70.49886
vt 39.36646 70.49886
vt 41.77278 69.6748
vt 41.77278 69.6748
vt 39.3741 69.49206
vt 39.3741 69.49206
vt 41.77278 69.6748
vt 41.77278 69.6748
vt 39.38272 68.40917
vt 39.38272 68.40917
vt 39.38684 63.46904
vt 39.38684 63.46904
vt 41.78679 63.45352
vt 41.78679 63.45352
vt 39.39506 65.49131
vt 39.39506 65.49131
vt 41.7922 64.45864
vt 41.7922 64.45864
vt 39.39506 65.49131
vt 39.39506 65.49131
vt 41.79509 65.47118
vt 41.79509 65.47118
vt 39.39506 65.49131
vt 39.39506 65.49131
vt 41.79264 67.03056
vt 41.79264 67.03056

usemtl GSDRoad1
usemap GSDRoad1
f 5/5/5 1/1/1 3/3/3
f 7/7/7 5/5/5 3/3/3
f 9/9/9 5/5/5 7/7/7
f 11/11/11 9/9/9 7/7/7
f 13/13/13 9/9/9 11/11/11
f 15/15/15 13/13/13 11/11/11
f 17/17/17 13/13/13 15/15/15
f 19/19/19 17/17/17 15/15/15
f 25/25/25 21/21/21 23/23/23
f 27/27/27 25/25/25 23/23/23
f 29/29/29 25/25/25 27/27/27
f 31/31/31 29/29/29 27/27/27
f 33/33/33 29/29/29 31/31/31
f 35/35/35 33/33/33 31/31/31
