mtllib ./Intersections_0_11.mtl
g Road1-Inter1-StretchExt
v -287.9712 0.8103907 418.6915
v -287.9712 0.8103907 418.6915
v -299.9682 0.8103907 418.8749
v -299.9682 0.8103907 418.8749
v -287.8895 0.91 423.7014
v -287.8895 0.91 423.7014
v -299.8863 0.91 423.9031
v -299.8863 0.91 423.9031
v -287.8081 0.91 428.7315
v -287.8081 0.91 428.7315
v -299.8058 0.91 428.9093
v -299.8058 0.91 428.9093
v -287.7462 0.91 433.779
v -287.7462 0.91 433.779
v -299.7427 0.91 434.3463
v -299.7427 0.91 434.3463
v -287.7233 0.91 439.1305
v -287.7233 0.91 439.1305
v -299.7427 0.91 434.3463
v -299.7427 0.91 434.3463
v -299.9851 0.8978859 463.9621
v -299.9851 0.8978859 463.9621
v -287.9886 0.8978859 464.1557
v -287.9886 0.8978859 464.1557
v -299.9089 0.91 458.9332
v -299.9089 0.91 458.9332
v -287.9113 0.91 459.1045
v -287.9113 0.91 459.1045
v -299.8424 0.91 453.8923
v -299.8424 0.91 453.8923
v -287.8278 0.91 452.5906
v -287.8278 0.91 452.5906
v -299.7679 0.91 446.7583
v -299.7679 0.91 446.7583
v -287.8278 0.91 452.5906
v -287.8278 0.91 452.5906

vn -0.000303831 0.9998025 -0.01987378
vn 0 0 0
vn -0.0003184141 0.9998032 -0.0198373
vn 0 0 0
vn -0.0002121426 0.9999126 -0.01321655
vn 0 0 0
vn -0.0001111469 0.9999781 -0.006610166
vn 0 0 0
vn 0 0.9999999 0
vn 0 0 0
vn 0 1 0
vn 0 0 0
vn 0 1 0
vn 0 0 0
vn 0 1 0
vn 0 0 0
vn 0 1 0
vn 0 0 0
vn 0 0 0
vn 0 0 0
vn -3.886638E-05 0.9999971 0.002408331
vn 0 0 0
vn -3.654182E-05 0.9999971 0.002403025
vn 0 0 0
vn -2.435978E-05 0.9999987 0.001601923
vn 0 0 0
vn -1.04122E-05 0.9999998 0.0007294034
vn 0 0 0
vn 0 1 0
vn 0 0 0
vn 0 1 0
vn 0 0 0
vn 0 1 0
vn 0 0 0
vn 0 0 0
vn 0 0 0

vt 0 0
vt 0 0
vt 1 0
vt 0 0
vt 0 0.125
vt 0 0.125
vt 1 0.125
vt 1 0.125
vt 0 0.4148129
vt 0 0.4148129
vt 1 0.5511258
vt 1 0.5511258
vt 0 0.7056081
vt 0 0.7056081
vt 1 1
vt 1 1
vt 0 1
vt 0 1
vt 1 1
vt 1 1
vt 0 0
vt 0 0
vt 1 0
vt 0 0
vt 0 0.125
vt 0 0.125
vt 1 0.125
vt 1 0.125
vt 0 0.4930433
vt 0 0.4930433
vt 1 1
vt 1 1
vt 0 1
vt 0 0
vt 1 1
vt 0 0

usemtl GSDInterStretch-None-4L
usemap GSDInterStretch-None-4L
f 5/5/5 1/1/1 3/3/3
f 7/7/7 5/5/5 3/3/3
f 9/9/9 5/5/5 7/7/7
f 11/11/11 9/9/9 7/7/7
f 13/13/13 9/9/9 11/11/11
f 15/15/15 13/13/13 11/11/11
f 17/17/17 13/13/13 15/15/15
f 19/19/19 17/17/17 15/15/15
f 25/25/25 21/21/21 23/23/23
f 27/27/27 25/25/25 23/23/23
f 29/29/29 25/25/25 27/27/27
f 31/31/31 29/29/29 27/27/27
f 33/33/33 29/29/29 31/31/31
f 35/35/35 33/33/33 31/31/31
