mtllib ./Intersections_0_9.mtl
g Road1-Inter1-Lane1
v -293.9697 0.8103907 418.7832
v -293.9697 0.8103907 418.7832
v -299.9682 0.8103907 418.8749
v -299.9682 0.8103907 418.8749
v -293.8879 0.91 423.8022
v -293.8879 0.91 423.8022
v -299.8863 0.91 423.9031
v -299.8863 0.91 423.9031
v -293.8069 0.91 428.8204
v -293.8069 0.91 428.8204
v -299.8058 0.91 428.9093
v -299.8058 0.91 428.9093
v -293.7458 0.91 433.8329
v -293.7458 0.91 433.8329
v -299.7427 0.91 434.3463
v -299.7427 0.91 434.3463
v -293.733 0.91 436.7384
v -293.733 0.91 436.7384
v -299.7427 0.91 434.3463
v -299.7427 0.91 434.3463
v -293.9869 0.8978859 464.0589
v -293.9869 0.8978859 464.0589
v -287.9886 0.8978859 464.1557
v -287.9886 0.8978859 464.1557
v -293.9101 0.91 459.0189
v -293.9101 0.91 459.0189
v -287.9113 0.91 459.1045
v -287.9113 0.91 459.1045
v -293.8431 0.91 453.9656
v -293.8431 0.91 453.9656
v -287.8278 0.91 452.5906
v -287.8278 0.91 452.5906
v -293.7979 0.91 449.6744
v -293.7979 0.91 449.6744
v -287.8278 0.91 452.5906
v -287.8278 0.91 452.5906

vn -0.000303277 0.9998031 -0.01983755
vn 0 0 0
vn -0.0003181241 0.9998034 -0.01981923
vn 0 0 0
vn -0.0002121822 0.9999126 -0.01321902
vn 0 0 0
vn -0.0001112353 0.9999781 -0.00661542
vn 0 0 0
vn 0 0.9999999 0
vn 0 0 0
vn 0 1 0
vn 0 0 0
vn 0 1 0
vn 0 0 0
vn 0 0.9999999 0
vn 0 0 0
vn 0 0.9999999 0
vn 0 0 0
vn 0 0 0
vn 0 0 0
vn -3.878021E-05 0.9999971 0.002402991
vn 0 0 0
vn -3.650135E-05 0.9999971 0.002400364
vn 0 0 0
vn -2.432197E-05 0.9999987 0.001599436
vn 0 0 0
vn -1.040532E-05 0.9999998 0.0007289213
vn 0 0 0
vn 0 1 0
vn 0 0 0
vn 0 1 0
vn 0 0 0
vn 0 1 0
vn 0 0 0
vn 0 0 0
vn 0 0 0

vt 0 0
vt 0 0
vt 1 0
vt 0 0
vt 0 1.004133
vt 0 1.004133
vt 1 1.004133
vt 1 1.004133
vt 0 2.007896
vt 0 2.007896
vt 1 2.007896
vt 1 2.007896
vt 0 3.010467
vt 0 3.010467
vt 1 3.010467
vt 1 3.010467
vt 0 3.59157
vt 0 3.59157
vt 1 3.59157
vt 1 3.59157
vt 0 0
vt 0 0
vt 1 0
vt 0 0
vt 0 1.008121
vt 0 1.008121
vt 1 1.008121
vt 1 1.008121
vt 0 2.018861
vt 0 2.018861
vt 1 2.018861
vt 1 2.018861
vt 0 2.877142
vt 0 0
vt 1 2.877142
vt 0 0

usemtl GSDInterYellowLWhiteR-4L
usemap GSDInterYellowLWhiteR-4L
f 5/5/5 1/1/1 3/3/3
f 7/7/7 5/5/5 3/3/3
f 9/9/9 5/5/5 7/7/7
f 11/11/11 9/9/9 7/7/7
f 13/13/13 9/9/9 11/11/11
f 15/15/15 13/13/13 11/11/11
f 17/17/17 13/13/13 15/15/15
f 19/19/19 17/17/17 15/15/15
f 25/25/25 21/21/21 23/23/23
f 27/27/27 25/25/25 23/23/23
f 29/29/29 25/25/25 27/27/27
f 31/31/31 29/29/29 27/27/27
f 33/33/33 29/29/29 31/31/31
f 35/35/35 33/33/33 31/31/31
