mtllib ./Intersections_0_12.mtl
g Road1-Inter2-Lane0
v -286.7765 0.08462355 338.348
v -286.7765 0.08462355 338.348
v -292.7729 0.08462355 338.1413
v -292.7729 0.08462355 338.1413
v -286.9466 0.14 343.3614
v -286.9466 0.14 343.3614
v -292.9433 0.14 343.1612
v -292.9433 0.14 343.1612
v -287.1117 0.14 348.4008
v -287.1117 0.14 348.4008
v -293.1086 0.14 348.2086
v -293.1086 0.14 348.2086
v -287.3536 0.14 356.2782
v -287.3536 0.14 356.2782
v -293.2659 0.14 353.2387
v -293.2659 0.14 353.2387
v -287.3536 0.14 356.2782
v -287.3536 0.14 356.2782
v -293.3991 0.14 357.7909
v -293.3991 0.14 357.7909
v -300.026 0.1496597 388.4404
v -300.026 0.1496597 388.4404
v -294.0266 0.1496597 388.5084
v -294.0266 0.1496597 388.5084
v -299.9599 0.14 383.3859
v -299.9599 0.14 383.3859
v -293.9607 0.14 383.4746
v -293.9607 0.14 383.4746
v -299.8775 0.14 378.3431
v -299.8775 0.14 378.3431
v -293.8786 0.14 378.4502
v -293.8786 0.14 378.4502
v -299.7458 0.14 371.7614
v -299.7458 0.14 371.7614
v -293.781 0.14 373.3852
v -293.781 0.14 373.3852
v -299.7458 0.14 371.7614
v -299.7458 0.14 371.7614
v -293.711 0.14 370.2299
v -293.711 0.14 370.2299

vn 0.0003801576 0.999939 -0.01103198
vn 0 0 0
vn 0.0003740526 0.9999391 -0.01102517
vn 0 0 0
vn 0.0002490033 0.999973 -0.007339349
vn 0 0 0
vn 0.0001222787 0.9999933 -0.003661617
vn 0 0 0
vn 0 1 0
vn 0 0 0
vn 0 0.9999999 0
vn 0 0 0
vn 0 1 0
vn 0 0 0
vn 0 1 0
vn 0 0 0
vn 0 1 0
vn 0 0 0
vn 0 1 0
vn 0 0 0
vn 2.16558E-05 0.9999982 -0.001910813
vn 0 0 0
vn 2.500682E-05 0.9999982 -0.001914695
vn 0 0 0
vn 1.667247E-05 0.9999992 -0.001276559
vn 0 0 0
vn 9.457153E-06 0.9999998 -0.0006395275
vn 0 0 0
vn 0 1 0
vn 0 0 0
vn 0 0.9999999 0
vn 0 0 0
vn 0 1 0
vn 0 0 0
vn 0 1 0
vn 0 0 0
vn 0 1 0
vn 0 0 0
vn 0 1 0
vn 0 0 0

vt 0 0
vt 0 0
vt 1 0
vt 0 0
vt 0 1.00333
vt 0 1.00333
vt 1 1.004606
vt 1 1.004606
vt 0 2.011756
vt 0 2.011756
vt 1 2.014627
vt 1 2.014627
vt 0 3.587969
vt 0 3.587969
vt 1 3.021155
vt 1 3.021155
vt 0 3.587969
vt 0 3.587969
vt 1 3.931976
vt 1 3.931976
vt 0 0
vt 0 0
vt 1 0
vt 0 0
vt 0 1.010995
vt 0 1.010995
vt 1 1.006851
vt 1 1.006851
vt 0 2.019687
vt 0 2.019687
vt 1 2.011868
vt 1 2.011868
vt 0 3.336284
vt 0 3.336284
vt 1 3.02505
vt 1 3.02505
vt 0 3.336284
vt 0 3.336284
vt 1 3.656279
vt 1 3.656279

usemtl GSDInterWhiteLYellowR-4L
usemap GSDInterWhiteLYellowR-4L
f 5/5/5 1/1/1 3/3/3
f 7/7/7 5/5/5 3/3/3
f 9/9/9 5/5/5 7/7/7
f 11/11/11 9/9/9 7/7/7
f 13/13/13 9/9/9 11/11/11
f 15/15/15 13/13/13 11/11/11
f 17/17/17 13/13/13 15/15/15
f 19/19/19 17/17/17 15/15/15
f 25/25/25 21/21/21 23/23/23
f 27/27/27 25/25/25 23/23/23
f 29/29/29 25/25/25 27/27/27
f 31/31/31 29/29/29 27/27/27
f 33/33/33 29/29/29 31/31/31
f 35/35/35 33/33/33 31/31/31
f 37/37/37 33/33/33 35/35/35
f 39/39/39 37/37/37 35/35/35
