mtllib ./Intersections_0_25.mtl
g Road1-Inter3-Lane1
v -202.7604 0.4566997 362.6824
v -202.7604 0.4566997 362.6824
v -196.7605 0.4566997 362.6421
v -196.7605 0.4566997 362.6421
v -202.7952 0.49 357.6322
v -202.7952 0.49 357.6322
v -196.7954 0.49 357.5898
v -196.7954 0.49 357.5898
v -202.8321 0.49 352.5388
v -202.8321 0.49 352.5388
v -196.8323 0.49 352.4943
v -196.8323 0.49 352.4943
v -202.8887 0.49 345.2099
v -202.8887 0.49 345.2099
v -196.8705 0.49 347.4603
v -196.8705 0.49 347.4603
v -202.8887 0.49 345.2099
v -202.8887 0.49 345.2099
v -196.9136 0.49 342.0458
v -196.9136 0.49 342.0458
v -202.9341 0.4842719 317.3064
v -202.9341 0.4842719 317.3064
v -208.9339 0.4842719 317.2676
v -208.9339 0.4842719 317.2676
v -202.9611 0.49 322.3185
v -202.9611 0.49 322.3185
v -208.961 0.49 322.2932
v -208.961 0.49 322.2932
v -202.9754 0.49 327.3641
v -202.9754 0.49 327.3641
v -208.9754 0.49 327.3559
v -208.9754 0.49 327.3559
v -202.9693 0.49 331.3047
v -202.9693 0.49 331.3047
v -208.9632 0.49 335.1528
v -208.9632 0.49 335.1528

vn 4.426856E-05 0.9999783 0.00659345
vn 0 0 0
vn 4.541611E-05 0.9999783 0.006592067
vn 0 0 0
vn 3.019375E-05 0.9999904 0.004382568
vn 0 0 0
vn 1.543543E-05 0.9999976 0.002184775
vn 0 0 0
vn 0 1 0
vn 0 0 0
vn 0 1 0
vn 0 0 0
vn 0 1 0
vn 0 0 0
vn 0 1 0
vn 0 0 0
vn 0 1 0
vn 0 0 0
vn 0 1 0
vn 0 0 0
vn 7.393898E-06 0.9999993 -0.001142822
vn 0 0 0
vn 6.098142E-06 0.9999993 -0.00114129
vn 0 0 0
vn 4.058236E-06 0.9999998 -0.0007595139
vn 0 0 0
vn 1.595923E-06 0.9999999 -0.0003784898
vn 0 0 0
vn 0 1 0
vn 0 0 0
vn 0 1 0
vn 0 0 0
vn 0 1 0
vn 0 0 0
vn 0 1 0
vn 0 0 0

vt 0 0
vt 0 0
vt 1 0
vt 0 0
vt 0 1.01008
vt 0 1.01008
vt 1 1.01008
vt 1 1.01008
vt 0 2.028784
vt 0 2.028784
vt 1 2.028784
vt 1 2.028784
vt 0 3.494605
vt 0 3.494605
vt 1 3.494605
vt 1 3.494605
vt 0 3.494605
vt 0 3.494605
vt 1 3.494605
vt 1 3.494605
vt 0 0
vt 0 0
vt 1 0
vt 0 0
vt 0 1.002432
vt 0 1.002432
vt 1 1.002432
vt 1 1.002432
vt 0 2.011555
vt 0 2.011555
vt 1 2.011555
vt 1 2.011555
vt 0 2.799672
vt 0 0
vt 1 2.799672
vt 0 0

usemtl GSDInterYellowLWhiteR-4L
usemap GSDInterYellowLWhiteR-4L
f 5/5/5 1/1/1 3/3/3
f 7/7/7 5/5/5 3/3/3
f 9/9/9 5/5/5 7/7/7
f 11/11/11 9/9/9 7/7/7
f 13/13/13 9/9/9 11/11/11
f 15/15/15 13/13/13 11/11/11
f 17/17/17 13/13/13 15/15/15
f 19/19/19 17/17/17 15/15/15
f 25/25/25 21/21/21 23/23/23
f 27/27/27 25/25/25 23/23/23
f 29/29/29 25/25/25 27/27/27
f 31/31/31 29/29/29 27/27/27
f 33/33/33 29/29/29 31/31/31
f 35/35/35 33/33/33 31/31/31
