mtllib ./Intersections_0_38.mtl
g Road1-Inter4-Lane1
v -203.4349 0.1348536 131.1093
v -203.4349 0.1348536 131.1093
v -197.4452 0.1348536 130.7567
v -197.4452 0.1348536 130.7567
v -203.7528 0.14 126.0987
v -203.7528 0.14 126.0987
v -197.7667 0.14 125.6899
v -197.7667 0.14 125.6899
v -204.1232 0.14 121.0772
v -204.1232 0.14 121.0772
v -198.1771 0.14 120.1864
v -198.1771 0.14 120.1864
v -204.5274 0.14 116.6628
v -204.5274 0.14 116.6628
v -198.1771 0.14 120.1864
v -198.1771 0.14 120.1864
v -208.7859 0.107948 86.02906
v -208.7859 0.107948 86.02906
v -214.6814 0.107948 87.14401
v -214.6814 0.107948 87.14401
v -207.8853 0.14 91.02203
v -207.8853 0.14 91.02203
v -213.7987 0.14 92.03792
v -213.7987 0.14 92.03792
v -207.0712 0.14 95.99725
v -207.0712 0.14 95.99725
v -212.8664 0.14 97.86699
v -212.8664 0.14 97.86699
v -206.3259 0.14 101.0358
v -206.3259 0.14 101.0358
v -212.8664 0.14 97.86699
v -212.8664 0.14 97.86699
v -206.2489 0.14 101.8848
v -206.2489 0.14 101.8848
v -212.8664 0.14 97.86699
v -212.8664 0.14 97.86699

vn 6.02377E-05 0.9999995 0.001023303
vn 0 0 0
vn 6.468042E-05 0.9999995 0.001017287
vn 0 0 0
vn 4.315899E-05 0.9999997 0.0006788003
vn 0 0 0
vn 2.24408E-05 0.9999999 0.0003285651
vn 0 0 0
vn 0 1 0
vn 0 0 0
vn 0 1 0
vn 0 0 0
vn 0 1 0
vn 0 0 0
vn 0 0 0
vn 0 0 0
vn -0.001173969 0.99998 -0.006207555
vn 0 0 0
vn -0.001133053 0.9999796 -0.006279256
vn 0 0 0
vn -0.0007544648 0.999991 -0.004181163
vn 0 0 0
vn -0.0003405698 0.9999979 -0.001982427
vn 0 0 0
vn 0 0.9999999 0
vn 0 0 0
vn 0 1 0
vn 0 0 0
vn 0 1 0
vn 0 0 0
vn 0 1 0
vn 0 0 0
vn 0 1 0
vn 0 0 0
vn 0 0 0
vn 0 0 0

vt 0 0
vt 0 0
vt 1 0
vt 0 0
vt 0 1.00412
vt 0 1.00412
vt 1 1.00412
vt 1 1.00412
vt 0 2.011164
vt 0 2.011164
vt 1 2.011164
vt 1 2.011164
vt 0 2.897723
vt 0 0
vt 1 2.897723
vt 0 0
vt 0 0
vt 0 0
vt 1 0
vt 0 0
vt 0 1.014727
vt 0 1.014727
vt 1 1.014727
vt 1 1.014727
vt 0 2.023006
vt 0 2.023006
vt 1 2.023006
vt 1 2.023006
vt 0 3.041676
vt 0 3.041676
vt 1 3.041676
vt 1 3.041676
vt 0 3.212169
vt 0 3.212169
vt 1 3.212169
vt 1 3.212169

usemtl GSDInterYellowLWhiteR-4L
usemap GSDInterYellowLWhiteR-4L
f 5/5/5 1/1/1 3/3/3
f 7/7/7 5/5/5 3/3/3
f 9/9/9 5/5/5 7/7/7
f 11/11/11 9/9/9 7/7/7
f 13/13/13 9/9/9 11/11/11
f 15/15/15 13/13/13 11/11/11
f 21/21/21 17/17/17 19/19/19
f 23/23/23 21/21/21 19/19/19
f 25/25/25 21/21/21 23/23/23
f 27/27/27 25/25/25 23/23/23
f 29/29/29 25/25/25 27/27/27
f 31/31/31 29/29/29 27/27/27
f 33/33/33 29/29/29 31/31/31
f 35/35/35 33/33/33 31/31/31
