mtllib ./Intersections_0_1.mtl
g Road2-Inter1-Lane0
v -319.5872 0.8098091 433.9741
v -319.5872 0.8098091 433.9741
v -318.918 0.8098091 439.9363
v -318.918 0.8098091 439.9363
v -314.348 0.91 433.4776
v -314.348 0.91 433.4776
v -313.9239 0.91 439.4623
v -313.9239 0.91 439.4623
v -308.8144 0.91 433.2957
v -308.8144 0.91 433.2957
v -308.882 0.91 439.2952
v -308.882 0.91 439.2952
v -299.743 0.91 434.3462
v -299.743 0.91 434.3462
v -303.875 0.91 439.6399
v -303.875 0.91 439.6399
v -299.743 0.91 434.3462
v -299.743 0.91 434.3462
v -299.7555 0.91 440.5522
v -299.7555 0.91 440.5522

vn -0.01891875 0.9998189 0.002123322
vn 0 0 0
vn -0.01940922 0.9998102 0.00177614
vn 0 0 0
vn -0.01261825 0.9999197 0.001154698
vn 0 0 0
vn -0.006411432 0.9999793 0.0004543421
vn 0 0 0
vn 0 1 0
vn 0 0 0
vn 0 1 0
vn 0 0 0
vn 0 1 0
vn 0 0 0
vn 0 1 0
vn 0 0 0
vn 0 1 0
vn 0 0 0
vn 0 1 0
vn 0 0 0

vt 0 0
vt 0 0
vt 1 0
vt 0 0
vt 0 1.052719
vt 0 1.052719
vt 1 1.003511
vt 1 1.003511
vt 0 2.160037
vt 0 2.160037
vt 1 2.012439
vt 1 2.012439
vt 0 3.986444
vt 0 3.986444
vt 1 3.01622
vt 1 3.01622
vt 0 3.986444
vt 0 3.986444
vt 1 3.860084
vt 1 3.860084

usemtl GSDInterWhiteLYellowR-4L
usemap GSDInterWhiteLYellowR-4L
f 5/5/5 1/1/1 3/3/3
f 7/7/7 5/5/5 3/3/3
f 9/9/9 5/5/5 7/7/7
f 11/11/11 9/9/9 7/7/7
f 13/13/13 9/9/9 11/11/11
f 15/15/15 13/13/13 11/11/11
f 17/17/17 13/13/13 15/15/15
f 19/19/19 17/17/17 15/15/15
