mtllib ./Intersections_0_21.mtl
g Road3-Inter2-Lane1
v -268.4374 0.1321253 358.2357
v -268.4374 0.1321253 358.2357
v -269.68 0.1321253 352.3658
v -269.68 0.1321253 352.3658
v -273.3579 0.14 359.2846
v -273.3579 0.14 359.2846
v -274.6197 0.14 353.4189
v -274.6197 0.14 353.4189
v -278.2553 0.14 360.3518
v -278.2553 0.14 360.3518
v -279.5507 0.14 354.4933
v -279.5507 0.14 354.4933
v -283.1749 0.14 361.4601
v -283.1749 0.14 361.4601
v -287.3536 0.14 356.278
v -287.3536 0.14 356.278
v -287.5149 0.14 362.4881
v -287.5149 0.14 362.4881
v -287.3536 0.14 356.278
v -287.3536 0.14 356.278

vn 0.001531259 0.9999987 -0.0003241577
vn 0 0 0
vn 0.001527745 0.9999987 -0.0003260255
vn 0 0 0
vn 0.00102043 0.9999995 -0.0002177628
vn 0 0 0
vn 0.000509512 0.9999998 -0.000109603
vn 0 0 0
vn 0 1 0
vn 0 0 0
vn 0 1 0
vn 0 0 0
vn 0 1 0
vn 0 0 0
vn 0 1 0
vn 0 0 0
vn 0 1 0
vn 0 0 0
vn 0 0 0
vn 0 0 0

vt 0 0
vt 0 0
vt 1 0
vt 0 0
vt 0 1.006222
vt 0 1.006222
vt 1 1.006222
vt 1 1.006222
vt 0 2.008679
vt 0 2.008679
vt 1 2.008679
vt 1 2.008679
vt 0 3.017263
vt 0 3.017263
vt 1 3.017263
vt 1 3.017263
vt 0 3.909273
vt 0 3.909273
vt 1 3.909273
vt 1 3.909273

usemtl GSDInterYellowLWhiteR-4L
usemap GSDInterYellowLWhiteR-4L
f 5/5/5 1/1/1 3/3/3
f 7/7/7 5/5/5 3/3/3
f 9/9/9 5/5/5 7/7/7
f 11/11/11 9/9/9 7/7/7
f 13/13/13 9/9/9 11/11/11
f 15/15/15 13/13/13 11/11/11
f 17/17/17 13/13/13 15/15/15
f 19/19/19 17/17/17 15/15/15
