mtllib ./Road2_1_3.mtl
g Markers1
v -366.9107 0.04458882 410.9478
v -366.9107 0.04458882 410.9478
v -355.2459 0.04458882 408.1317
v -355.2459 0.04458882 408.1317
v -368.0425 0.0335471 405.7976
v -368.0425 0.0335471 405.7976
v -356.2706 0.0335471 403.4692
v -356.2706 0.0335471 403.4692
v -368.9652 0.02481411 400.6761
v -368.9652 0.02481411 400.6761
v -357.1244 0.02481411 398.7283
v -357.1244 0.02481411 398.7283
v -369.7402 0.01764208 395.572
v -369.7402 0.01764208 395.572
v -357.8566 0.01764208 393.9044
v -357.8566 0.01764208 393.9044
v -370.4076 0.011638 390.4639
v -370.4076 0.011638 390.4639
v -358.4956 0.011638 389.0137
v -358.4956 0.011638 389.0137
v -370.9872 0.01 385.3842
v -370.9872 0.01 385.3842
v -359.0554 0.01 384.1077
v -359.0554 0.01 384.1077
v -371.4998 0.01 380.2958
v -371.4998 0.01 380.2958
v -359.5534 0.01 379.1628
v -359.5534 0.01 379.1628
v -371.9525 0.01 375.2446
v -371.9525 0.01 375.2446
v -359.9954 0.01 374.2316
v -359.9954 0.01 374.2316
v -372.3605 0.01 370.1616
v -372.3605 0.01 370.1616
v -360.395 0.01 369.2521
v -360.395 0.01 369.2521
v -372.7237 0.01 365.13
v -372.7237 0.01 365.13
v -360.7518 0.01 364.3096
v -360.7518 0.01 364.3096
v -373.0537 0.01 360.0634
v -373.0537 0.01 360.0634
v -361.0767 0.01 359.3218
v -361.0767 0.01 359.3218
v -373.3533 0.01 354.9786
v -373.3533 0.01 354.9786
v -361.3721 0.01 354.3072
v -361.3721 0.01 354.3072
v -373.6217 0.01 349.9529
v -373.6217 0.01 349.9529
v -361.6372 0.01 349.3435
v -361.6372 0.01 349.3435
v -373.8675 0.01 344.8804
v -373.8675 0.01 344.8804
v -361.8802 0.01 344.3274
v -361.8802 0.01 344.3274
v -374.0894 0.01 339.8349
v -374.0894 0.01 339.8349
v -362.0999 0.01 339.3328
v -362.0999 0.01 339.3328
v -374.2917 0.01 334.7648
v -374.2917 0.01 334.7648
v -362.3004 0.01 334.3091
v -362.3004 0.01 334.3091
v -374.4734 0.01 329.7447
v -374.4734 0.01 329.7447
v -362.4806 0.01 329.3313
v -362.4806 0.01 329.3313
v -374.6384 0.01 324.7194
v -374.6384 0.01 324.7194
v -362.6442 0.01 324.3449
v -362.6442 0.01 324.3449
v -374.7876 0.01 319.6968
v -374.7876 0.01 319.6968
v -362.7924 0.01 319.3581
v -362.7924 0.01 319.3581
v -374.9239 0.01 314.6163
v -374.9239 0.01 314.6163
v -362.9278 0.01 314.3112
v -362.9278 0.01 314.3112
v -375.0461 0.01 309.5518
v -375.0461 0.01 309.5518
v -363.0492 0.01 309.2777
v -363.0492 0.01 309.2777
v -375.1551 0.01 304.5101
v -375.1551 0.01 304.5101
v -363.1576 0.01 304.2647
v -363.1576 0.01 304.2647
v -375.252 0.01 299.4976
v -375.252 0.01 299.4976
v -363.254 0.01 299.2789
v -363.254 0.01 299.2789
v -375.3387 0.01 294.4501
v -375.3387 0.01 294.4501
v -363.3402 0.01 294.2566
v -363.3402 0.01 294.2566
v -375.4155 0.01 289.3721
v -375.4155 0.01 289.3721
v -363.4167 0.01 289.2022
v -363.4167 0.01 289.2022
v -375.4821 0.01 284.3393
v -375.4821 0.01 284.3393
v -363.4831 0.01 284.1913
v -363.4831 0.01 284.1913
v -375.5401 0.01 279.2855
v -375.5401 0.01 279.2855
v -363.5407 0.01 279.1582
v -363.5407 0.01 279.1582
v -375.5897 0.01 274.2153
v -375.5897 0.01 274.2153
v -363.5902 0.01 274.1074
v -363.5902 0.01 274.1074
v -375.6309 0.01 269.2044
v -375.6309 0.01 269.2044
v -363.6313 0.01 269.1147
v -363.6313 0.01 269.1147
v -375.6649 0.01 264.1859
v -375.6649 0.01 264.1859
v -363.6651 0.01 264.1132
v -363.6651 0.01 264.1132
v -375.692 0.01 259.164
v -375.692 0.01 259.164
v -363.6921 0.01 259.1072
v -363.6921 0.01 259.1072
v -375.7126 0.01 254.1426
v -375.7126 0.01 254.1426
v -363.7126 0.01 254.1009
v -363.7126 0.01 254.1009
v -375.727 0.01 249.1262
v -375.727 0.01 249.1262
v -363.7271 0.01 249.0986
v -363.7271 0.01 249.0986
v -375.7357 0.01 244.1187
v -375.7357 0.01 244.1187
v -363.7357 0.01 244.1043
v -363.7357 0.01 244.1043
v -375.7391 0.01 239.0533
v -375.7391 0.01 239.0533
v -363.7391 0.01 239.0513
v -363.7391 0.01 239.0513
v -375.7375 0.01 234.0057
v -375.7375 0.01 234.0057
v -363.7375 0.01 234.0154
v -363.7375 0.01 234.0154
v -375.7312 0.01 228.9806
v -375.7312 0.01 228.9806
v -363.7312 0.01 229.001
v -363.7312 0.01 229.001
v -375.7204 0.01 223.9119
v -375.7204 0.01 223.9119
v -363.7204 0.01 223.9424
v -363.7204 0.01 223.9424
v -375.7056 0.01 218.8754
v -375.7056 0.01 218.8754
v -363.7057 0.01 218.9151
v -363.7057 0.01 218.9151
v -375.687 0.01 213.8062
v -375.687 0.01 213.8062
v -363.6871 0.01 213.8544
v -363.6871 0.01 213.8544
v -375.6652 0.01 208.7793
v -375.6652 0.01 208.7793
v -363.6653 0.01 208.8351
v -363.6653 0.01 208.8351
v -375.6403 0.01 203.7317
v -375.6403 0.01 203.7317
v -363.6405 0.01 203.7944
v -363.6405 0.01 203.7944
v -375.6125 0.01022493 198.6705
v -375.6125 0.01022493 198.6705
v -363.6127 0.01022493 198.7392
v -363.6127 0.01022493 198.7392
v -375.5824 0.01210996 193.603
v -375.5824 0.01210996 193.603
v -363.5827 0.01210996 193.6768
v -363.5827 0.01210996 193.6768
v -375.5504 0.01401725 188.5372
v -375.5504 0.01401725 188.5372
v -363.5506 0.01401725 188.6152
v -363.5506 0.01401725 188.6152
v -375.5168 0.01593896 183.4815
v -375.5168 0.01593896 183.4815
v -363.5171 0.01593896 183.5627
v -363.5171 0.01593896 183.5627
v -375.4822 0.01786659 178.4448
v -375.4822 0.01786659 178.4448
v -363.4825 0.01786659 178.5281
v -363.4825 0.01786659 178.5281
v -375.4472 0.01979111 173.4362
v -375.4472 0.01979111 173.4362
v -363.4475 0.01979111 173.5205
v -363.4475 0.01979111 173.5205
v -375.4119 0.02172602 168.4054
v -375.4119 0.02172602 168.4054
v -363.4122 0.02172602 168.4893
v -363.4122 0.02172602 168.4893
v -375.377 0.02365904 163.3666
v -375.377 0.02365904 163.3666
v -363.3773 0.02365904 163.4487
v -363.3773 0.02365904 163.4487
v -375.3433 0.02557637 158.3359
v -375.3433 0.02557637 158.3359
v -363.3435 0.02557637 158.4145
v -363.3435 0.02557637 158.4145
v -375.3116 0.02746264 153.3305
v -375.3116 0.02746264 153.3305
v -363.3118 0.02746264 153.4034
v -363.3118 0.02746264 153.4034
v -375.2827 0.02932076 148.3146
v -375.2827 0.02932076 148.3146
v -363.2829 0.02932076 148.3796
v -363.2829 0.02932076 148.3796
v -375.2578 0.0311282 143.3144
v -375.2578 0.0311282 143.3144
v -363.2579 0.0311282 143.3683
v -363.2579 0.0311282 143.3683
v -375.2383 0.03287669 138.308
v -375.2383 0.03287669 138.308
v -363.2383 0.03287669 138.347
v -363.2383 0.03287669 138.347
v -375.2259 0.03454785 133.2866
v -375.2259 0.03454785 133.2866
v -363.2259 0.03454785 133.3057
v -363.2259 0.03454785 133.3057
v -375.2233 0.03611057 128.2559
v -375.2233 0.03611057 128.2559
v -363.2233 0.03611057 128.248
v -363.2233 0.03611057 128.248
v -375.2339 0.0375174 123.2405
v -375.2339 0.0375174 123.2405
v -363.2339 0.0375174 123.1958
v -363.2339 0.0375174 123.1958
v -375.2626 0.03870833 118.2493
v -375.2626 0.03870833 118.2493
v -363.263 0.03870833 118.1525
v -363.263 0.03870833 118.1525
v -375.3177 0.03959319 113.2678
v -375.3177 0.03959319 113.2678
v -363.319 0.03959319 113.0933
v -363.319 0.03959319 113.0933
v -375.4135 0.03999718 108.3216
v -375.4135 0.03999718 108.3216
v -363.4173 0.03999718 108.0194
v -363.4173 0.03999718 108.0194

vn -0.0004915133 0.9999978 -0.002035947
vn 0 0 0
vn -0.0004712658 0.9999976 -0.002146955
vn 0 0 0
vn -0.0004215776 0.9999979 -0.00197617
vn 0 0 0
vn -0.0003552059 0.9999982 -0.001893937
vn 0 0 0
vn -0.0002816514 0.9999986 -0.001598009
vn 0 0 0
vn -0.0002408328 0.9999988 -0.001534323
vn 0 0 0
vn -0.0001971451 0.9999992 -0.001324695
vn 0 0 0
vn -0.0001708691 0.9999992 -0.001270428
vn 0 0 0
vn -0.0001156822 0.9999996 -0.0008905035
vn 0 0 0
vn -7.327264E-05 0.9999999 -0.0006150446
vn 0 0 0
vn -2.45446E-05 1 -0.0002146294
vn 0 0 0
vn -1.159994E-05 1 -0.0001084243
vn 0 0 0
vn 0 1 0
vn 0 0 0
vn 0 1 0
vn 0 0 0
vn 0 1 0
vn 0 0 0
vn 0 1 0
vn 0 0 0
vn 0 0.9999999 0
vn 0 0 0
vn 0 1 0
vn 0 0 0
vn 0 0.9999999 0
vn 0 0 0
vn 0 1 0
vn 0 0 0
vn 0 1 0
vn 0 0 0
vn 0 1 0
vn 0 0 0
vn 0 1 0
vn 0 0 0
vn 0 1 0
vn 0 0 0
vn 0 1 0
vn 0 0 0
vn 0 1 0
vn 0 0 0
vn 0 1 0
vn 0 0 0
vn 0 0.9999999 0
vn 0 0 0
vn 0 0.9999999 0
vn 0 0 0
vn 0 1 0
vn 0 0 0
vn 0 1 0
vn 0 0 0
vn 0 1 0
vn 0 0 0
vn 0 1 0
vn 0 0 0
vn 0 1 0
vn 0 0 0
vn 0 1 0
vn 0 0 0
vn 0 1 0
vn 0 0 0
vn 0 1 0
vn 0 0 0
vn 0 0.9999999 0
vn 0 0 0
vn 0 1 0
vn 0 0 0
vn 0 1 0
vn 0 0 0
vn 0 0.9999999 0
vn 0 0 0
vn 0 1 0
vn 0 0 0
vn 0 0.9999999 0
vn 0 0 0
vn 0 1 0
vn 0 0 0
vn 0 1 0
vn 0 0 0
vn 0 1 0
vn 0 0 0
vn 0 1 0
vn 0 0 0
vn 0 1 0
vn 0 0 0
vn 0 1 0
vn 0 0 0
vn 0 1 0
vn 0 0 0
vn 0 1 0
vn 0 0 0
vn 0 0.9999999 0
vn 0 0 0
vn 0 1 0
vn 0 0 0
vn 0 1 0
vn 0 0 0
vn 0 1 0
vn 0 0 0
vn 0 0.9999999 0
vn 0 0 0
vn 0 0.9999999 0
vn 0 0 0
vn 0 1 0
vn 0 0 0
vn 0 1 0
vn 0 0 0
vn 0 1 0
vn 0 0 0
vn 0 1 0
vn 0 0 0
vn 0 1 0
vn 0 0 0
vn 0 1 0
vn 0 0 0
vn 0 1 0
vn 0 0 0
vn 0 1 0
vn 0 0 0
vn 0 0.9999999 0
vn 0 0 0
vn 0 1 0
vn 0 0 0
vn 0 0.9999999 0
vn 0 0 0
vn 0 1 0
vn 0 0 0
vn 0 1 0
vn 0 0 0
vn 0 1 0
vn 0 0 0
vn 0 1 0
vn 0 0 0
vn 0 1 0
vn 0 0 0
vn 0 1 0
vn 0 0 0
vn 0 1 0
vn 0 0 0
vn 0 1 0
vn 0 0 0
vn 0 1 0
vn 0 0 0
vn 0 1 0
vn 0 0 0
vn 0 1 0
vn 0 0 0
vn 0 1 0
vn 0 0 0
vn 0 1 0
vn 0 0 0
vn 0 0.9999999 0
vn 0 0 0
vn -7.748076E-08 0.9999999 1.484708E-05
vn 0 0 0
vn -1.623182E-07 1 2.967921E-05
vn 0 0 0
vn -8.720739E-07 1 0.000153769
vn 0 0 0
vn -1.557729E-06 0.9999999 0.0002630765
vn 0 0 0
vn -2.243478E-06 0.9999999 0.0003736014
vn 0 0 0
vn -2.350449E-06 0.9999999 0.0003752124
vn 0 0 0
vn -2.410749E-06 0.9999999 0.0003777928
vn 0 0 0
vn -2.496988E-06 0.9999999 0.0003790736
vn 0 0 0
vn -2.543795E-06 0.9999999 0.0003810376
vn 0 0 0
vn -2.606611E-06 0.9999999 0.00038196
vn 0 0 0
vn -2.638188E-06 0.9999999 0.0003832596
vn 0 0 0
vn -2.675073E-06 0.9999999 0.000383796
vn 0 0 0
vn -2.689558E-06 0.9999999 0.0003843748
vn 0 0 0
vn -2.696821E-06 0.9999999 0.0003844848
vn 0 0 0
vn -2.691298E-06 0.9999999 0.0003842534
vn 0 0 0
vn -2.66527E-06 0.9999999 0.0003838819
vn 0 0 0
vn -2.637872E-06 0.9999999 0.0003827329
vn 0 0 0
vn -2.574256E-06 0.9999999 0.0003818084
vn 0 0 0
vn -2.521799E-06 0.9999999 0.0003795978
vn 0 0 0
vn -2.415366E-06 0.9999999 0.0003780317
vn 0 0 0
vn -2.335029E-06 0.9999999 0.0003745563
vn 0 0 0
vn -2.180218E-06 0.9999999 0.0003722281
vn 0 0 0
vn -2.069853E-06 0.9999999 0.0003672545
vn 0 0 0
vn -1.859234E-06 0.9999999 0.0003639974
vn 0 0 0
vn -1.714714E-06 0.9999999 0.0003571226
vn 0 0 0
vn -1.44038E-06 0.9999999 0.0003527062
vn 0 0 0
vn -1.261494E-06 0.9999999 0.0003434146
vn 0 0 0
vn -9.143486E-07 0.9999999 0.000337493
vn 0 0 0
vn -7.015139E-07 0.9999999 0.0003249761
vn 0 0 0
vn -2.725101E-07 0.9999999 0.0003170323
vn 0 0 0
vn -3.571578E-08 0.9999999 0.0003000775
vn 0 0 0
vn 4.75588E-07 0.9999999 0.0002893416
vn 0 0 0
vn 7.044359E-07 0.9999999 0.0002659259
vn 0 0 0
vn 1.27852E-06 0.9999999 0.0002511199
vn 0 0 0
vn 1.41044E-06 1 0.0002175381
vn 0 0 0
vn 1.963032E-06 0.9999999 0.0001962593
vn 0 0 0
vn 1.72697E-06 1 0.0001450164
vn 0 0 0
vn 1.91774E-06 1 0.0001122306
vn 0 0 0
vn 1.601528E-06 1 8.060599E-05
vn 0 0 0
vn 2.004724E-06 1 7.958403E-05
vn 0 0 0

vt 0 18.52453
vt 0 0
vt 1 18.52453
vt 0 0
vt 0 19.57914
vt 0 19.57914
vt 1 19.57914
vt 1 19.57914
vt 0 20.61994
vt 0 20.61994
vt 1 20.61994
vt 1 20.61994
vt 0 21.65246
vt 0 21.65246
vt 1 21.65246
vt 1 21.65246
vt 0 22.68275
vt 0 22.68275
vt 1 22.68275
vt 1 22.68275
vt 0 23.70528
vt 0 23.70528
vt 1 23.70528
vt 1 23.70528
vt 0 24.72812
vt 0 24.72812
vt 1 24.72812
vt 1 24.72812
vt 0 25.74242
vt 0 25.74242
vt 1 25.74242
vt 1 25.74242
vt 0 26.76229
vt 0 26.76229
vt 1 26.76229
vt 1 26.76229
vt 0 27.77122
vt 0 27.77122
vt 1 27.77122
vt 1 27.77122
vt 0 28.78669
vt 0 28.78669
vt 1 28.78669
vt 1 28.78669
vt 0 29.80541
vt 0 29.80541
vt 1 29.80541
vt 1 29.80541
vt 0 30.81198
vt 0 30.81198
vt 1 30.81198
vt 1 30.81198
vt 0 31.82768
vt 0 31.82768
vt 1 31.82768
vt 1 31.82768
vt 0 32.83775
vt 0 32.83775
vt 1 32.83775
vt 1 32.83775
vt 0 33.85258
vt 0 33.85258
vt 1 33.85258
vt 1 33.85258
vt 0 34.85725
vt 0 34.85725
vt 1 34.85725
vt 1 34.85725
vt 0 35.86285
vt 0 35.86285
vt 1 35.86285
vt 1 35.86285
vt 0 36.86781
vt 0 36.86781
vt 1 36.86781
vt 1 36.86781
vt 0 37.88428
vt 0 37.88428
vt 1 37.88428
vt 1 37.88428
vt 0 38.89748
vt 0 38.89748
vt 1 38.89748
vt 1 38.89748
vt 0 39.90605
vt 0 39.90605
vt 1 39.90605
vt 1 39.90605
vt 0 40.90875
vt 0 40.90875
vt 1 40.90875
vt 1 40.90875
vt 0 41.91839
vt 0 41.91839
vt 1 41.91839
vt 1 41.91839
vt 0 42.9341
vt 0 42.9341
vt 1 42.9341
vt 1 42.9341
vt 0 43.94076
vt 0 43.94076
vt 1 43.94076
vt 1 43.94076
vt 0 44.95158
vt 0 44.95158
vt 1 44.95158
vt 1 44.95158
vt 0 45.96568
vt 0 45.96568
vt 1 45.96568
vt 1 45.96568
vt 0 46.96788
vt 0 46.96788
vt 1 46.96788
vt 1 46.96788
vt 0 47.9716
vt 0 47.9716
vt 1 47.9716
vt 1 47.9716
vt 0 48.97601
vt 0 48.97601
vt 1 48.97601
vt 1 48.97601
vt 0 49.98029
vt 0 49.98029
vt 1 49.98029
vt 1 49.98029
vt 0 50.98358
vt 0 50.98358
vt 1 50.98358
vt 1 50.98358
vt 0 51.98508
vt 0 51.98508
vt 1 51.98508
vt 1 51.98508
vt 0 52.99817
vt 0 52.99817
vt 1 52.99817
vt 1 52.99817
vt 0 54.00767
vt 0 54.00767
vt 1 54.00767
vt 1 54.00767
vt 0 55.0127
vt 0 55.0127
vt 1 55.0127
vt 1 55.0127
vt 0 56.02644
vt 0 56.02644
vt 1 56.02644
vt 1 56.02644
vt 0 57.03375
vt 0 57.03375
vt 1 57.03375
vt 1 57.03375
vt 0 58.0476
vt 0 58.0476
vt 1 58.0476
vt 1 58.0476
vt 0 59.05298
vt 0 59.05298
vt 1 59.05298
vt 1 59.05298
vt 0 60.06251
vt 0 60.06251
vt 1 60.06251
vt 1 60.06251
vt 0 61.07477
vt 0 61.07477
vt 1 61.07477
vt 1 61.07477
vt 0 62.08829
vt 0 62.08829
vt 1 62.08829
vt 1 62.08829
vt 0 63.10147
vt 0 63.10147
vt 1 63.10147
vt 1 63.10147
vt 0 64.11263
vt 0 64.11263
vt 1 64.11263
vt 1 64.11263
vt 0 65.12
vt 0 65.12
vt 1 65.12
vt 1 65.12
vt 0 66.12173
vt 0 66.12173
vt 1 66.12173
vt 1 66.12173
vt 0 67.12793
vt 0 67.12793
vt 1 67.12793
vt 1 67.12793
vt 0 68.1357
vt 0 68.1357
vt 1 68.1357
vt 1 68.1357
vt 0 69.14186
vt 0 69.14186
vt 1 69.14186
vt 1 69.14186
vt 0 70.14297
vt 0 70.14297
vt 1 70.14297
vt 1 70.14297
vt 0 71.14616
vt 0 71.14616
vt 1 71.14616
vt 1 71.14616
vt 0 72.14622
vt 0 72.14622
vt 1 72.14622
vt 1 72.14622
vt 0 73.14751
vt 0 73.14751
vt 1 73.14751
vt 1 73.14751
vt 0 74.15179
vt 0 74.15179
vt 1 74.15179
vt 1 74.15179
vt 0 75.15792
vt 0 75.15792
vt 1 75.15792
vt 1 75.15792
vt 0 76.161
vt 0 76.161
vt 1 76.161
vt 1 76.161
vt 0 77.15927
vt 0 77.15927
vt 1 77.15927
vt 1 77.15927
vt 0 78.15562
vt 0 78.15562
vt 1 78.15562
vt 1 78.15562
vt 0 79.14506
vt 0 79.14506
vt 1 79.14506
vt 1 79.14506

usemtl GSDWhiteYellowDouble-4L
usemap GSDWhiteYellowDouble-4L
f 5/5/5 1/1/1 3/3/3
f 7/7/7 5/5/5 3/3/3
f 9/9/9 5/5/5 7/7/7
f 11/11/11 9/9/9 7/7/7
f 13/13/13 9/9/9 11/11/11
f 15/15/15 13/13/13 11/11/11
f 17/17/17 13/13/13 15/15/15
f 19/19/19 17/17/17 15/15/15
f 21/21/21 17/17/17 19/19/19
f 23/23/23 21/21/21 19/19/19
f 25/25/25 21/21/21 23/23/23
f 27/27/27 25/25/25 23/23/23
f 29/29/29 25/25/25 27/27/27
f 31/31/31 29/29/29 27/27/27
f 33/33/33 29/29/29 31/31/31
f 35/35/35 33/33/33 31/31/31
f 37/37/37 33/33/33 35/35/35
f 39/39/39 37/37/37 35/35/35
f 41/41/41 37/37/37 39/39/39
f 43/43/43 41/41/41 39/39/39
f 45/45/45 41/41/41 43/43/43
f 47/47/47 45/45/45 43/43/43
f 49/49/49 45/45/45 47/47/47
f 51/51/51 49/49/49 47/47/47
f 53/53/53 49/49/49 51/51/51
f 55/55/55 53/53/53 51/51/51
f 57/57/57 53/53/53 55/55/55
f 59/59/59 57/57/57 55/55/55
f 61/61/61 57/57/57 59/59/59
f 63/63/63 61/61/61 59/59/59
f 65/65/65 61/61/61 63/63/63
f 67/67/67 65/65/65 63/63/63
f 69/69/69 65/65/65 67/67/67
f 71/71/71 69/69/69 67/67/67
f 73/73/73 69/69/69 71/71/71
f 75/75/75 73/73/73 71/71/71
f 77/77/77 73/73/73 75/75/75
f 79/79/79 77/77/77 75/75/75
f 81/81/81 77/77/77 79/79/79
f 83/83/83 81/81/81 79/79/79
f 85/85/85 81/81/81 83/83/83
f 87/87/87 85/85/85 83/83/83
f 89/89/89 85/85/85 87/87/87
f 91/91/91 89/89/89 87/87/87
f 93/93/93 89/89/89 91/91/91
f 95/95/95 93/93/93 91/91/91
f 97/97/97 93/93/93 95/95/95
f 99/99/99 97/97/97 95/95/95
f 101/101/101 97/97/97 99/99/99
f 103/103/103 101/101/101 99/99/99
f 105/105/105 101/101/101 103/103/103
f 107/107/107 105/105/105 103/103/103
f 109/109/109 105/105/105 107/107/107
f 111/111/111 109/109/109 107/107/107
f 113/113/113 109/109/109 111/111/111
f 115/115/115 113/113/113 111/111/111
f 117/117/117 113/113/113 115/115/115
f 119/119/119 117/117/117 115/115/115
f 121/121/121 117/117/117 119/119/119
f 123/123/123 121/121/121 119/119/119
f 125/125/125 121/121/121 123/123/123
f 127/127/127 125/125/125 123/123/123
f 129/129/129 125/125/125 127/127/127
f 131/131/131 129/129/129 127/127/127
f 133/133/133 129/129/129 131/131/131
f 135/135/135 133/133/133 131/131/131
f 137/137/137 133/133/133 135/135/135
f 139/139/139 137/137/137 135/135/135
f 141/141/141 137/137/137 139/139/139
f 143/143/143 141/141/141 139/139/139
f 145/145/145 141/141/141 143/143/143
f 147/147/147 145/145/145 143/143/143
f 149/149/149 145/145/145 147/147/147
f 151/151/151 149/149/149 147/147/147
f 153/153/153 149/149/149 151/151/151
f 155/155/155 153/153/153 151/151/151
f 157/157/157 153/153/153 155/155/155
f 159/159/159 157/157/157 155/155/155
f 161/161/161 157/157/157 159/159/159
f 163/163/163 161/161/161 159/159/159
f 165/165/165 161/161/161 163/163/163
f 167/167/167 165/165/165 163/163/163
f 169/169/169 165/165/165 167/167/167
f 171/171/171 169/169/169 167/167/167
f 173/173/173 169/169/169 171/171/171
f 175/175/175 173/173/173 171/171/171
f 177/177/177 173/173/173 175/175/175
f 179/179/179 177/177/177 175/175/175
f 181/181/181 177/177/177 179/179/179
f 183/183/183 181/181/181 179/179/179
f 185/185/185 181/181/181 183/183/183
f 187/187/187 185/185/185 183/183/183
f 189/189/189 185/185/185 187/187/187
f 191/191/191 189/189/189 187/187/187
f 193/193/193 189/189/189 191/191/191
f 195/195/195 193/193/193 191/191/191
f 197/197/197 193/193/193 195/195/195
f 199/199/199 197/197/197 195/195/195
f 201/201/201 197/197/197 199/199/199
f 203/203/203 201/201/201 199/199/199
f 205/205/205 201/201/201 203/203/203
f 207/207/207 205/205/205 203/203/203
f 209/209/209 205/205/205 207/207/207
f 211/211/211 209/209/209 207/207/207
f 213/213/213 209/209/209 211/211/211
f 215/215/215 213/213/213 211/211/211
f 217/217/217 213/213/213 215/215/215
f 219/219/219 217/217/217 215/215/215
f 221/221/221 217/217/217 219/219/219
f 223/223/223 221/221/221 219/219/219
f 225/225/225 221/221/221 223/223/223
f 227/227/227 225/225/225 223/223/223
f 229/229/229 225/225/225 227/227/227
f 231/231/231 229/229/229 227/227/227
f 233/233/233 229/229/229 231/231/231
f 235/235/235 233/233/233 231/231/231
f 237/237/237 233/233/233 235/235/235
f 239/239/239 237/237/237 235/235/235
f 241/241/241 237/237/237 239/239/239
f 243/243/243 241/241/241 239/239/239
