mtllib ./Road2_1_6.mtl
g SCutL0
v -304.2712 0.9 449.4569
v -304.2712 0.9 449.4569
v -299.7679 0.9 446.7582
v -299.7679 0.9 446.7582
v -304.9146 0.5063325 449.8424
v -304.9146 0.5063325 449.8424
v -304.2712 0.9 449.4569
v -304.2712 0.9 449.4569
v -304.2712 0.9 449.4569
v -304.2712 0.9 449.4569
v -299.7679 0.9 446.7582
v -299.7679 0.9 446.7582
v -304.9146 0.5063325 449.8424
v -304.9146 0.5063325 449.8424
v -304.2712 0.9 449.4569
v -304.2712 0.9 449.4569
v -304.2712 0.9 449.4569
v -304.2712 0.9 449.4569
v -299.7679 0.9 446.7582
v -299.7679 0.9 446.7582
v -304.9146 0.5063325 449.8424
v -304.9146 0.5063325 449.8424
v -304.2712 0.9 449.4569
v -304.2712 0.9 449.4569
v -304.2712 0.9 449.4569
v -304.2712 0.9 449.4569
v -299.7679 0.9 446.7582
v -299.7679 0.9 446.7582
v -304.9146 0.3974519 449.8424
v -304.9146 0.3974519 449.8424
v -304.2712 0.9 449.4569
v -304.2712 0.9 449.4569
v -304.2712 0.9 449.4569
v -304.2712 0.9 449.4569
v -299.7679 0.9 446.7582
v -299.7679 0.9 446.7582
v -304.9146 0.3974519 449.8424
v -304.9146 0.3974519 449.8424
v -304.2712 0.9 449.4569
v -304.2712 0.9 449.4569
v -305.0643 0.9 448.5609
v -305.0643 0.9 448.5609
v -304.6678 0.9 445.5872
v -304.6678 0.9 445.5872
v -305.3616 0.2896422 450.7911
v -305.3616 0.2896422 450.7911
v -305.0643 0.9 448.5609
v -305.0643 0.9 448.5609
v -308.9834 0.9 448.2943
v -308.9834 0.9 448.2943
v -308.9496 0.9 445.2946
v -308.9496 0.9 445.2946
v -309.0088 0.1865179 450.5441
v -309.0088 0.1865179 450.5441
v -308.9834 0.9 448.2943
v -308.9834 0.9 448.2943
v -313.2878 0.9 448.4394
v -313.2878 0.9 448.4394
v -313.4998 0.9 445.447
v -313.4998 0.9 445.447
v -313.1287 0.1099345 450.6837
v -313.1287 0.1099345 450.6837
v -313.2878 0.9 448.4394
v -313.2878 0.9 448.4394
v -317.9094 0.7998092 448.923
v -317.9094 0.7998092 448.923
v -318.2488 0.7998092 445.8985
v -318.2488 0.7998092 445.8985
v -317.6572 0.06796223 451.1697
v -317.6572 0.06796223 451.1697
v -317.9094 0.7998092 448.923
v -317.9094 0.7998092 448.923
v -322.8798 0.6838041 449.5022
v -322.8798 0.6838041 449.5022
v -323.2184 0.6838041 446.4731
v -323.2184 0.6838041 446.4731
v -322.6284 0.0588482 451.7501
v -322.6284 0.0588482 451.7501
v -322.8798 0.6838041 449.5022
v -322.8798 0.6838041 449.5022
v -328.31 0.5688279 450.0046
v -328.31 0.5688279 450.0046
v -328.5056 0.5688279 446.9597
v -328.5056 0.5688279 446.9597
v -328.1649 0.0588482 452.2626
v -328.1649 0.0588482 452.2626
v -328.31 0.5688279 450.0046
v -328.31 0.5688279 450.0046
v -334.2499 0.4639065 450.1043
v -334.2499 0.4639065 450.1043
v -334.1276 0.4639065 447.0539
v -334.1276 0.4639065 447.0539
v -334.3405 -0.07570791 452.3656
v -334.3405 -0.07570791 452.3656
v -334.2499 0.4639065 450.1043
v -334.2499 0.4639065 450.1043
v -340.7925 0.3725598 449.2988
v -340.7925 0.3725598 449.2988
v -340.144 0.3725598 446.3156
v -340.144 0.3725598 446.3156
v -341.2733 -0.1386407 451.5102
v -341.2733 -0.1386407 451.5102
v -340.7925 0.3725598 449.2988
v -340.7925 0.3725598 449.2988
v -347.5165 0.2952539 447.0056
v -347.5165 0.2952539 447.0056
v -346.1953 0.2952539 444.2551
v -346.1953 0.2952539 444.2551
v -348.4963 -0.2048172 449.0451
v -348.4963 -0.2048172 449.0451
v -347.5165 0.2952539 447.0056
v -347.5165 0.2952539 447.0056
v -353.6203 0.2275047 443.0692
v -353.6203 0.2275047 443.0692
v -351.6696 0.2275047 440.7268
v -351.6696 0.2275047 440.7268
v -355.0678 -0.2526048 444.8073
v -355.0678 -0.2526048 444.8073
v -353.6203 0.2275047 443.0692
v -353.6203 0.2275047 443.0692
v -358.3807 0.1721231 438.1713
v -358.3807 0.1721231 438.1713
v -356.0019 0.1721231 436.2717
v -356.0019 0.1721231 436.2717
v -360.1475 -0.2954291 439.5821
v -360.1475 -0.2954291 439.5821
v -358.3807 0.1721231 438.1713
v -358.3807 0.1721231 438.1713
v -361.9429 0.1286446 432.9143
v -361.9429 0.1286446 432.9143
v -359.3128 0.1286446 431.3904
v -359.3128 0.1286446 431.3904
v -363.8982 -0.3293608 434.0474
v -363.8982 -0.3293608 434.0474
v -361.9429 0.1286446 432.9143
v -361.9429 0.1286446 432.9143
v -364.6526 0.09494925 427.5601
v -364.6526 0.09494925 427.5601
v -361.8794 0.09494925 426.3272
v -361.8794 0.09494925 426.3272
v -366.7166 -0.3477885 428.4776
v -366.7166 -0.3477885 428.4776
v -364.6526 0.09494925 427.5601
v -364.6526 0.09494925 427.5601
v -366.7745 0.06900311 422.1964
v -366.7745 0.06900311 422.1964
v -363.9179 0.06900311 421.1853
v -363.9179 0.06900311 421.1853
v -368.9026 -0.2954291 422.9496
v -368.9026 -0.2954291 422.9496
v -366.7745 0.06900311 422.1964
v -366.7745 0.06900311 422.1964
v -368.4608 0.04939872 416.9155
v -368.4608 0.04939872 416.9155
v -365.5548 0.04939872 416.0734
v -365.5548 0.04939872 416.0734
v -370.6281 -0.2954291 417.5435
v -370.6281 -0.2954291 417.5435
v -368.4608 0.04939872 416.9155
v -368.4608 0.04939872 416.9155
v -369.8269 0.03458881 411.6518
v -369.8269 0.03458881 411.6518
v -366.9107 0.03458881 410.9478
v -366.9107 0.03458881 410.9478
v -372.0141 -0.3293608 412.1798
v -372.0141 -0.3293608 412.1798
v -369.8269 0.03458881 411.6518
v -369.8269 0.03458881 411.6518
v -370.9855 0.02354711 406.3797
v -370.9855 0.02354711 406.3797
v -368.0425 0.02354711 405.7976
v -368.0425 0.02354711 405.7976
v -373.1927 -0.6764529 406.8163
v -373.1927 -0.6764529 406.8163
v -370.9855 0.02354711 406.3797
v -370.9855 0.02354711 406.3797

vn 0 0 0
vn 0 0 0
vn 0 0 0
vn 0 0 0
vn 0 0 0
vn 0 0 0
vn 0 0 0
vn 0 0 0
vn 0 0 0
vn 0 0 0
vn 0 0 0
vn 0 0 0
vn 0 0 0
vn 0 0 0
vn 0 0 0
vn 0 0 0
vn 0 0 0
vn 0 0 0
vn 0 0 0
vn 0 0 0
vn -0.5140469 0 -0.8577621
vn 0 0 0
vn -0.5140469 0 -0.8577621
vn 0 0 0
vn 0 0 0
vn 0 0 0
vn 0 0 0
vn 0 0 0
vn -0.5140469 0 -0.8577621
vn 0 0 0
vn 0 0 0
vn 0 0 0
vn 0 1 0
vn 0 0 0
vn 0 1 0
vn 0 0 0
vn 0.6835844 -0.6878847 0.2439816
vn 0 0 0
vn -0.06480429 0.9264281 0.3708524
vn 0 0 0
vn 0 1 0
vn 0 0 0
vn 0 1 0
vn 0 0 0
vn -0.04819498 0.9595377 0.2774249
vn 0 0 0
vn -0.05625929 0.959627 0.2755923
vn 0 0 0
vn 0 1 0
vn 0 0 0
vn 0 1 0
vn 0 0 0
vn -0.02342718 0.9571606 0.2886084
vn 0 0 0
vn -0.005072352 0.9499258 0.3124344
vn 0 0 0
vn -0.007404841 0.9999725 0.0005246989
vn 0 0 0
vn -0.01431873 0.9998966 0.001312464
vn 0 0 0
vn 0.01075758 0.9467329 0.3218402
vn 0 0 0
vn 0.01658236 0.9461964 0.3231679
vn 0 0 0
vn -0.02182913 0.9997594 0.002166151
vn 0 0 0
vn -0.02233661 0.9997475 0.0025037
vn 0 0 0
vn 0.02435638 0.9488835 0.3146856
vn 0 0 0
vn 0.01829446 0.9557244 0.2936939
vn 0 0 0
vn -0.02230014 0.9997481 0.002496551
vn 0 0 0
vn -0.02183697 0.9997593 0.002095081
vn 0 0 0
vn 0.02251589 0.9599972 0.2791028
vn 0 0 0
vn 0.01117081 0.9680054 0.2506804
vn 0 0 0
vn -0.01998547 0.999799 0.001609076
vn 0 0 0
vn -0.01923554 0.9998149 0.0005865943
vn 0 0 0
vn 0.001639474 0.9718917 0.2354226
vn 0 0 0
vn -0.01074932 0.9744135 0.2245056
vn 0 0 0
vn -0.01660116 0.9998621 -6.29049E-05
vn 0 0 0
vn -0.01566127 0.9998763 -0.001496488
vn 0 0 0
vn -0.02343635 0.9733993 0.2279131
vn 0 0 0
vn -0.03097858 0.9735816 0.2262287
vn 0 0 0
vn -0.01302197 0.9999132 -0.002008097
vn 0 0 0
vn -0.01206101 0.999921 -0.00356434
vn 0 0 0
vn -0.05353094 0.9744343 0.2182024
vn 0 0 0
vn -0.06761799 0.9756988 0.2084221
vn 0 0 0
vn -0.01000849 0.9999425 -0.003843705
vn 0 0 0
vn -0.009132392 0.9999443 -0.005302789
vn 0 0 0
vn -0.09490494 0.9759618 0.1961924
vn 0 0 0
vn -0.1084195 0.977019 0.1835191
vn 0 0 0
vn -0.007608055 0.999957 -0.005283565
vn 0 0 0
vn -0.00664441 0.9999582 -0.006278458
vn 0 0 0
vn -0.1324085 0.9774784 0.1643291
vn 0 0 0
vn -0.1416675 0.9785806 0.1493662
vn 0 0 0
vn -0.005399318 0.9999683 -0.005836222
vn 0 0 0
vn -0.004537816 0.9999702 -0.006243146
vn 0 0 0
vn -0.1585677 0.9788123 0.1295482
vn 0 0 0
vn -0.1632942 0.9795564 0.1174917
vn 0 0 0
vn -0.003615758 0.9999782 -0.005533798
vn 0 0 0
vn -0.002985833 0.99998 -0.005561063
vn 0 0 0
vn -0.1727469 0.9797421 0.1013115
vn 0 0 0
vn -0.1737236 0.9804953 0.09191953
vn 0 0 0
vn -0.002360284 0.9999858 -0.004801133
vn 0 0 0
vn -0.001939157 0.9999872 -0.004655685
vn 0 0 0
vn -0.1762237 0.9808681 0.08272258
vn 0 0 0
vn -0.1667041 0.9833784 0.07194946
vn 0 0 0
vn -0.001529327 0.9999911 -0.003959831
vn 0 0 0
vn -0.001256962 0.9999922 -0.003758797
vn 0 0 0
vn -0.1593254 0.9853492 0.06084811
vn 0 0 0
vn -0.1489072 0.987656 0.04860405
vn 0 0 0
vn -0.0009864564 0.9999945 -0.00315356
vn 0 0 0
vn -0.0008111054 0.9999954 -0.00294749
vn 0 0 0
vn -0.1483125 0.9880864 0.04109391
vn 0 0 0
vn -0.1493481 0.9880782 0.03737123
vn 0 0 0
vn -0.0006318783 0.9999968 -0.002439809
vn 0 0 0
vn -0.000514044 0.9999974 -0.002251908
vn 0 0 0
vn -0.1578865 0.987353 0.01435166
vn 0 0 0
vn -0.2064983 0.9781394 0.02453239
vn 0 0 0
vn -0.0004436833 0.9999979 -0.002021369
vn 0 0 0
vn -0.0004063672 0.9999978 -0.002054655
vn 0 0 0
vn -0.2315173 0.972662 0.01812294
vn 0 0 0
vn -0.2905833 0.9548482 0.06185567
vn 0 0 0

vt 0 0
vt 0 0
vt -0.9006592 -0.5397339
vt -0.9006592 -0.5397339
vt 0.1286621 0.07710572
vt 0.1286621 0.07710572
vt 0 0
vt 0 0
vt 0 0
vt 0 0
vt -0.9006592 -0.5397339
vt -0.9006592 -0.5397339
vt 0.1286621 0.07710572
vt 0.1286621 0.07710572
vt 0 0
vt 0 0
vt 0 0
vt 0 0
vt -0.9006592 -0.5397339
vt -0.9006592 -0.5397339
vt 0.1286621 0.07710572
vt 0.1286621 0.07710572
vt 0 0
vt 0 0
vt 0 0
vt 0 0
vt -0.9006592 -0.5397339
vt -0.9006592 -0.5397339
vt 0.1286621 0.07710572
vt 0.1286621 0.07710572
vt 0 0
vt 0 0
vt 0 0
vt 0 0
vt -0.9006592 -0.5397339
vt -0.9006592 -0.5397339
vt 0.1286621 0.07710572
vt 0.1286621 0.07710572
vt 0 0
vt 0 0
vt 0.1586121 -0.1792114
vt 0.1586121 -0.1792114
vt 0.07932129 -0.773938
vt 0.07932129 -0.773938
vt 0.2180786 0.2668396
vt 0.2180786 0.2668396
vt 0.1586121 -0.1792114
vt 0.1586121 -0.1792114
vt 0.9424378 -0.2325134
vt 0.9424378 -0.2325134
vt 0.9356812 -0.8324585
vt 0.9356812 -0.8324585
vt 0.9475098 0.2174439
vt 0.9475098 0.2174439
vt 0.9424378 -0.2325134
vt 0.9424378 -0.2325134
vt 1.803302 -0.2035034
vt 1.803302 -0.2035034
vt 1.845709 -0.8019776
vt 1.845709 -0.8019776
vt 1.771497 0.2453491
vt 1.771497 0.2453491
vt 1.803302 -0.2035034
vt 1.803302 -0.2035034
vt 2.727625 -0.1067749
vt 2.727625 -0.1067749
vt 2.79552 -0.7116821
vt 2.79552 -0.7116821
vt 2.677197 0.3425598
vt 2.677197 0.3425598
vt 2.727625 -0.1067749
vt 2.727625 -0.1067749
vt 3.721704 0.009063721
vt 3.721704 0.009063721
vt 3.789441 -0.5967712
vt 3.789441 -0.5967712
vt 3.671442 0.4586365
vt 3.671442 0.4586365
vt 3.721704 0.009063721
vt 3.721704 0.009063721
vt 4.807752 0.1095337
vt 4.807752 0.1095337
vt 4.846869 -0.4994507
vt 4.846869 -0.4994507
vt 4.778741 0.5611328
vt 4.778741 0.5611328
vt 4.807752 0.1095337
vt 4.807752 0.1095337
vt 5.995734 0.1294861
vt 5.995734 0.1294861
vt 5.971277 -0.4805969
vt 5.971277 -0.4805969
vt 6.013861 0.5817383
vt 6.013861 0.5817383
vt 5.995734 0.1294861
vt 5.995734 0.1294861
vt 7.30426 -0.03161621
vt 7.30426 -0.03161621
vt 7.174542 -0.6282654
vt 7.174542 -0.6282654
vt 7.400421 0.4106629
vt 7.400421 0.4106629
vt 7.30426 -0.03161621
vt 7.30426 -0.03161621
vt 8.64906 -0.4902649
vt 8.64906 -0.4902649
vt 8.384814 -1.040357
vt 8.384814 -1.040357
vt 8.845014 -0.08235474
vt 8.845014 -0.08235474
vt 8.64906 -0.4902649
vt 8.64906 -0.4902649
vt 9.869806 -1.277551
vt 9.869806 -1.277551
vt 9.47967 -1.746014
vt 9.47967 -1.746014
vt 10.15931 -0.9299256
vt 10.15931 -0.9299256
vt 9.869806 -1.277551
vt 9.869806 -1.277551
vt 10.82189 -2.257129
vt 10.82189 -2.257129
vt 10.34612 -2.637036
vt 10.34612 -2.637036
vt 11.17525 -1.97497
vt 11.17525 -1.97497
vt 10.82189 -2.257129
vt 10.82189 -2.257129
vt 11.53433 -3.308514
vt 11.53433 -3.308514
vt 11.00832 -3.613306
vt 11.00832 -3.613306
vt 11.92539 -3.081909
vt 11.92539 -3.081909
vt 11.53433 -3.308514
vt 11.53433 -3.308514
vt 12.07628 -4.37937
vt 12.07628 -4.37937
vt 11.52162 -4.62594
vt 11.52162 -4.62594
vt 12.48907 -4.195856
vt 12.48907 -4.195856
vt 12.07628 -4.37937
vt 12.07628 -4.37937
vt 12.50065 -5.452106
vt 12.50065 -5.452106
vt 11.92933 -5.654321
vt 11.92933 -5.654321
vt 12.92628 -5.301459
vt 12.92628 -5.301459
vt 12.50065 -5.452106
vt 12.50065 -5.452106
vt 12.83792 -6.508283
vt 12.83792 -6.508283
vt 12.25672 -6.676697
vt 12.25672 -6.676697
vt 13.27137 -6.38269
vt 13.27137 -6.38269
vt 12.83792 -6.508283
vt 12.83792 -6.508283
vt 13.11114 -7.561029
vt 13.11114 -7.561029
vt 12.5279 -7.701831
vt 12.5279 -7.701831
vt 13.54857 -7.45542
vt 13.54857 -7.45542
vt 13.11114 -7.561029
vt 13.11114 -7.561029
vt 13.34285 -8.615448
vt 13.34285 -8.615448
vt 12.75425 -8.73186
vt 12.75425 -8.73186
vt 13.7843 -8.528131
vt 13.7843 -8.528131
vt 13.34285 -8.615448
vt 13.34285 -8.615448

usemtl GSDShoulder1
usemap GSDShoulder1
f 9/9/9 1/1/1 3/3/3
f 11/11/11 9/9/9 3/3/3
f 13/13/13 5/5/5 7/7/7
f 15/15/15 13/13/13 7/7/7
f 17/17/17 9/9/9 11/11/11
f 19/19/19 17/17/17 11/11/11
f 21/21/21 13/13/13 15/15/15
f 23/23/23 21/21/21 15/15/15
f 25/25/25 17/17/17 19/19/19
f 27/27/27 25/25/25 19/19/19
f 29/29/29 21/21/21 23/23/23
f 31/31/31 29/29/29 23/23/23
f 33/33/33 25/25/25 27/27/27
f 35/35/35 33/33/33 27/27/27
f 37/37/37 29/29/29 31/31/31
f 39/39/39 37/37/37 31/31/31
f 41/41/41 33/33/33 35/35/35
f 43/43/43 41/41/41 35/35/35
f 45/45/45 37/37/37 39/39/39
f 47/47/47 45/45/45 39/39/39
f 49/49/49 41/41/41 43/43/43
f 51/51/51 49/49/49 43/43/43
f 53/53/53 45/45/45 47/47/47
f 55/55/55 53/53/53 47/47/47
f 57/57/57 49/49/49 51/51/51
f 59/59/59 57/57/57 51/51/51
f 61/61/61 53/53/53 55/55/55
f 63/63/63 61/61/61 55/55/55
f 65/65/65 57/57/57 59/59/59
f 67/67/67 65/65/65 59/59/59
f 69/69/69 61/61/61 63/63/63
f 71/71/71 69/69/69 63/63/63
f 73/73/73 65/65/65 67/67/67
f 75/75/75 73/73/73 67/67/67
f 77/77/77 69/69/69 71/71/71
f 79/79/79 77/77/77 71/71/71
f 81/81/81 73/73/73 75/75/75
f 83/83/83 81/81/81 75/75/75
f 85/85/85 77/77/77 79/79/79
f 87/87/87 85/85/85 79/79/79
f 89/89/89 81/81/81 83/83/83
f 91/91/91 89/89/89 83/83/83
f 93/93/93 85/85/85 87/87/87
f 95/95/95 93/93/93 87/87/87
f 97/97/97 89/89/89 91/91/91
f 99/99/99 97/97/97 91/91/91
f 101/101/101 93/93/93 95/95/95
f 103/103/103 101/101/101 95/95/95
f 105/105/105 97/97/97 99/99/99
f 107/107/107 105/105/105 99/99/99
f 109/109/109 101/101/101 103/103/103
f 111/111/111 109/109/109 103/103/103
f 113/113/113 105/105/105 107/107/107
f 115/115/115 113/113/113 107/107/107
f 117/117/117 109/109/109 111/111/111
f 119/119/119 117/117/117 111/111/111
f 121/121/121 113/113/113 115/115/115
f 123/123/123 121/121/121 115/115/115
f 125/125/125 117/117/117 119/119/119
f 127/127/127 125/125/125 119/119/119
f 129/129/129 121/121/121 123/123/123
f 131/131/131 129/129/129 123/123/123
f 133/133/133 125/125/125 127/127/127
f 135/135/135 133/133/133 127/127/127
f 137/137/137 129/129/129 131/131/131
f 139/139/139 137/137/137 131/131/131
f 141/141/141 133/133/133 135/135/135
f 143/143/143 141/141/141 135/135/135
f 145/145/145 137/137/137 139/139/139
f 147/147/147 145/145/145 139/139/139
f 149/149/149 141/141/141 143/143/143
f 151/151/151 149/149/149 143/143/143
f 153/153/153 145/145/145 147/147/147
f 155/155/155 153/153/153 147/147/147
f 157/157/157 149/149/149 151/151/151
f 159/159/159 157/157/157 151/151/151
f 161/161/161 153/153/153 155/155/155
f 163/163/163 161/161/161 155/155/155
f 165/165/165 157/157/157 159/159/159
f 167/167/167 165/165/165 159/159/159
f 169/169/169 161/161/161 163/163/163
f 171/171/171 169/169/169 163/163/163
f 173/173/173 165/165/165 167/167/167
f 175/175/175 173/173/173 167/167/167
