mtllib ./Road3_2_11.mtl
g RoadCut2
v -157.5813 0.03103627 217.8239
v -157.5813 0.03103627 217.8239
v -145.5835 0.03103627 218.0533
v -145.5835 0.03103627 218.0533
v -157.4911 0.02881213 212.8126
v -157.4911 0.02881213 212.8126
v -145.4931 0.02881213 213.0297
v -145.4931 0.02881213 213.0297
v -157.4028 0.02714801 207.8211
v -157.4028 0.02714801 207.8211
v -145.4045 0.02714801 208.0228
v -145.4045 0.02714801 208.0228
v -157.3276 0.02599652 202.795
v -157.3276 0.02599652 202.795
v -145.3285 0.02599652 202.9471
v -145.3285 0.02599652 202.9471
v -157.2796 0.02527361 197.7825
v -157.2796 0.02527361 197.7825
v -145.2798 0.02527361 197.8552
v -145.2798 0.02527361 197.8552
v -157.2707 0.02490338 192.827
v -157.2707 0.02490338 192.827
v -145.2708 0.02490338 192.7926
v -145.2708 0.02490338 192.7926
v -157.3124 0.02481864 187.8385
v -157.3124 0.02481864 187.8385
v -145.3136 0.02481864 187.6672
v -145.3136 0.02481864 187.6672
v -157.4158 0.02497154 182.9163
v -157.4158 0.02497154 182.9163
v -145.4205 0.02497154 182.5781
v -145.4205 0.02497154 182.5781
v -157.5961 0.02532202 177.9674
v -157.5961 0.02532202 177.9674
v -145.6084 0.02532202 177.4249
v -145.6084 0.02532202 177.4249
v -157.865 0.02582504 173.0924
v -157.865 0.02582504 173.0924
v -145.8908 0.02582504 172.3056
v -145.8908 0.02582504 172.3056
v -158.2451 0.02645279 168.2076
v -158.2451 0.02645279 168.2076
v -146.2943 0.02645279 167.1223
v -146.2943 0.02645279 167.1223
v -158.7571 0.02716392 163.3648
v -158.7571 0.02716392 163.3648
v -146.8452 0.02716392 161.9139
v -146.8452 0.02716392 161.9139
v -159.4223 0.02790985 158.6229
v -159.4223 0.02790985 158.6229
v -147.5737 0.02790985 156.7226
v -147.5737 0.02790985 156.7226
v -160.2832 0.02865013 153.9483
v -160.2832 0.02865013 153.9483
v -148.5403 0.02865013 151.4775
v -148.5403 0.02865013 151.4775
v -161.3712 0.02931069 149.4468
v -161.3712 0.02931069 149.4468
v -149.8063 0.02931069 146.2448
v -149.8063 0.02931069 146.2448
v -162.7424 0.02980594 145.1656
v -162.7424 0.02980594 145.1656
v -151.4901 0.02980594 140.9962
v -151.4901 0.02980594 140.9962

vn 8.483158E-06 0.9999999 -0.0004436747
vn 0 0 0
vn 8.245044E-06 0.9999999 -0.0004431336
vn 0 0 0
vn 7.509178E-06 0.9999999 -0.0004066425
vn 0 0 0
vn 6.543045E-06 0.9999999 -0.0003694983
vn 0 0 0
vn 5.152587E-06 1 -0.0002980737
vn 0 0 0
vn 4.097902E-06 0.9999999 -0.0002625058
vn 0 0 0
vn 2.85246E-06 1 -0.0002001631
vn 0 0 0
vn 1.853629E-06 1 -0.0001710776
vn 0 0 0
vn 1.048037E-06 1 -0.0001205791
vn 0 0 0
vn 3.680221E-07 0.9999999 -9.684531E-05
vn 0 0 0
vn 6.272568E-08 1 -5.498913E-05
vn 0 0 0
vn -1.654269E-07 1 -3.556165E-05
vn 0 0 0
vn 4.86136E-08 1 -1.103358E-06
vn 0 0 0
vn 3.489258E-07 0.9999999 1.459723E-05
vn 0 0 0
vn 1.093871E-06 1 4.383895E-05
vn 0 0 0
vn 1.975928E-06 1 5.614441E-05
vn 0 0 0
vn 3.232806E-06 0.9999999 8.02486E-05
vn 0 0 0
vn 4.718881E-06 1 8.931895E-05
vn 0 0 0
vn 6.498312E-06 1 0.0001093922
vn 0 0 0
vn 8.599068E-06 1 0.0001151774
vn 0 0 0
vn 1.084095E-05 1 0.0001309419
vn 0 0 0
vn 1.353053E-05 1 0.0001332484
vn 0 0 0
vn 1.614724E-05 1 0.0001446657
vn 0 0 0
vn 1.927868E-05 0.9999999 0.000142995
vn 0 0 0
vn 2.202528E-05 1 0.0001493776
vn 0 0 0
vn 2.530401E-05 0.9999999 0.0001430266
vn 0 0 0
vn 2.757208E-05 1 0.000142853
vn 0 0 0
vn 3.028947E-05 0.9999999 0.0001308495
vn 0 0 0
vn 3.064571E-05 1 0.0001213863
vn 0 0 0
vn 3.124217E-05 1 0.0001026245
vn 0 0 0
vn 3.042691E-05 1 9.418252E-05
vn 0 0 0
vn 3.12486E-05 1 8.433308E-05
vn 0 0 0

vt 0 0
vt 0 0
vt -2.399561 0.04588013
vt -2.399561 0.04588013
vt -0.01803589 -1.002255
vt -0.01803589 -1.002255
vt -2.417645 -0.958841
vt -2.417645 -0.958841
vt -0.03571167 -2.000561
vt -0.03571167 -2.000561
vt -2.43537 -1.960223
vt -2.43537 -1.960223
vt -0.05075378 -3.005783
vt -0.05075378 -3.005783
vt -2.450558 -2.975357
vt -2.450558 -2.975357
vt -0.06034546 -4.008283
vt -0.06034546 -4.008283
vt -2.460303 -3.99375
vt -2.460303 -3.99375
vt -0.06212464 -4.999393
vt -0.06212464 -4.999393
vt -2.462112 -5.006253
vt -2.462112 -5.006253
vt -0.05378723 -5.997074
vt -0.05378723 -5.997074
vt -2.453543 -6.031345
vt -2.453543 -6.031345
vt -0.03310852 -6.981525
vt -0.03310852 -6.981525
vt -2.432156 -7.049164
vt -2.432156 -7.049164
vt 0.002963257 -7.971298
vt 0.002963257 -7.971298
vt -2.394583 -8.079795
vt -2.394583 -8.079795
vt 0.05672913 -8.946311
vt 0.05672913 -8.946311
vt -2.338107 -9.103665
vt -2.338107 -9.103665
vt 0.1327576 -9.923255
vt 0.1327576 -9.923255
vt -2.257404 -10.14033
vt -2.257404 -10.14033
vt 0.2351563 -10.89182
vt 0.2351563 -10.89182
vt -2.147235 -11.182
vt -2.147235 -11.182
vt 0.3681915 -11.84019
vt 0.3681915 -11.84019
vt -2.001523 -12.22027
vt -2.001523 -12.22027
vt 0.5403809 -12.77513
vt 0.5403809 -12.77513
vt -1.808197 -13.26928
vt -1.808197 -13.26928
vt 0.7579803 -13.67542
vt 0.7579803 -13.67542
vt -1.555002 -14.31582
vt -1.555002 -14.31582
vt 1.032224 -14.53166
vt 1.032224 -14.53166
vt -1.218253 -15.36554
vt -1.218253 -15.36554

usemtl GSDRoad1
usemap GSDRoad1
f 5/5/5 1/1/1 3/3/3
f 7/7/7 5/5/5 3/3/3
f 9/9/9 5/5/5 7/7/7
f 11/11/11 9/9/9 7/7/7
f 13/13/13 9/9/9 11/11/11
f 15/15/15 13/13/13 11/11/11
f 17/17/17 13/13/13 15/15/15
f 19/19/19 17/17/17 15/15/15
f 21/21/21 17/17/17 19/19/19
f 23/23/23 21/21/21 19/19/19
f 25/25/25 21/21/21 23/23/23
f 27/27/27 25/25/25 23/23/23
f 29/29/29 25/25/25 27/27/27
f 31/31/31 29/29/29 27/27/27
f 33/33/33 29/29/29 31/31/31
f 35/35/35 33/33/33 31/31/31
f 37/37/37 33/33/33 35/35/35
f 39/39/39 37/37/37 35/35/35
f 41/41/41 37/37/37 39/39/39
f 43/43/43 41/41/41 39/39/39
f 45/45/45 41/41/41 43/43/43
f 47/47/47 45/45/45 43/43/43
f 49/49/49 45/45/45 47/47/47
f 51/51/51 49/49/49 47/47/47
f 53/53/53 49/49/49 51/51/51
f 55/55/55 53/53/53 51/51/51
f 57/57/57 53/53/53 55/55/55
f 59/59/59 57/57/57 55/55/55
f 61/61/61 57/57/57 59/59/59
f 63/63/63 61/61/61 59/59/59
