mtllib ./Road3_2_21.mtl
g SCutL2
v -160.4024 0.02714801 207.7707
v -160.4024 0.02714801 207.7707
v -157.4028 0.02714801 207.8211
v -157.4028 0.02714801 207.8211
v -162.652 -0.3488016 207.7329
v -162.652 -0.3488016 207.7329
v -160.4024 0.02714801 207.7707
v -160.4024 0.02714801 207.7707
v -160.3273 0.02599652 202.757
v -160.3273 0.02599652 202.757
v -157.3276 0.02599652 202.795
v -157.3276 0.02599652 202.795
v -162.5771 -0.3488016 202.7284
v -162.5771 -0.3488016 202.7284
v -160.3273 0.02599652 202.757
v -160.3273 0.02599652 202.757
v -160.2795 0.02527361 197.7643
v -160.2795 0.02527361 197.7643
v -157.2796 0.02527361 197.7825
v -157.2796 0.02527361 197.7825
v -162.5295 -0.3488016 197.7507
v -162.5295 -0.3488016 197.7507
v -160.2795 0.02527361 197.7643
v -160.2795 0.02527361 197.7643
v -160.2707 0.02490338 192.8355
v -160.2707 0.02490338 192.8355
v -157.2707 0.02490338 192.827
v -157.2707 0.02490338 192.827
v -162.5207 -0.3488016 192.842
v -162.5207 -0.3488016 192.842
v -160.2707 0.02490338 192.8355
v -160.2707 0.02490338 192.8355
v -160.3121 0.02481864 187.8814
v -160.3121 0.02481864 187.8814
v -157.3124 0.02481864 187.8385
v -157.3124 0.02481864 187.8385
v -162.5619 -0.3488016 187.9135
v -162.5619 -0.3488016 187.9135
v -160.3121 0.02481864 187.8814
v -160.3121 0.02481864 187.8814
v -160.4146 0.02497154 183.0008
v -160.4146 0.02497154 183.0008
v -157.4158 0.02497154 182.9163
v -157.4158 0.02497154 182.9163
v -162.6637 -0.3488016 183.0643
v -162.6637 -0.3488016 183.0643
v -160.4146 0.02497154 183.0008
v -160.4146 0.02497154 183.0008
v -160.5931 0.02532202 178.103
v -160.5931 0.02532202 178.103
v -157.5961 0.02532202 177.9674
v -157.5961 0.02532202 177.9674
v -162.8408 -0.3488016 178.2048
v -162.8408 -0.3488016 178.2048
v -160.5931 0.02532202 178.103
v -160.5931 0.02532202 178.103
v -160.8585 0.02582504 173.2891
v -160.8585 0.02582504 173.2891
v -157.865 0.02582504 173.0924
v -157.865 0.02582504 173.0924
v -163.1037 -0.3488016 173.4366
v -163.1037 -0.3488016 173.4366
v -160.8585 0.02582504 173.2891
v -160.8585 0.02582504 173.2891
v -161.2328 0.02645279 168.479
v -161.2328 0.02645279 168.479
v -158.2451 0.02645279 168.2076
v -158.2451 0.02645279 168.2076
v -163.4736 -0.3488016 168.6825
v -163.4736 -0.3488016 168.6825
v -161.2328 0.02645279 168.479
v -161.2328 0.02645279 168.479
v -161.7351 0.02716392 163.7276
v -161.7351 0.02716392 163.7276
v -158.7571 0.02716392 163.3648
v -158.7571 0.02716392 163.3648
v -163.9686 -0.3488016 163.9996
v -163.9686 -0.3488016 163.9996
v -161.7351 0.02716392 163.7276
v -161.7351 0.02716392 163.7276
v -162.3844 0.02790985 159.098
v -162.3844 0.02790985 159.098
v -159.4223 0.02790985 158.6229
v -159.4223 0.02790985 158.6229
v -164.606 -0.3488016 159.4544
v -164.606 -0.3488016 159.4544
v -162.3844 0.02790985 159.098
v -162.3844 0.02790985 159.098
v -163.2189 0.02865013 154.566
v -163.2189 0.02865013 154.566
v -160.2832 0.02865013 153.9483
v -160.2832 0.02865013 153.9483
v -165.4207 -0.3488016 155.0292
v -165.4207 -0.3488016 155.0292
v -163.2189 0.02865013 154.566
v -163.2189 0.02865013 154.566
v -164.2625 0.02931069 150.2473
v -164.2625 0.02931069 150.2473
v -161.3712 0.02931069 149.4468
v -161.3712 0.02931069 149.4468
v -166.4309 -0.3488016 150.8477
v -166.4309 -0.3488016 150.8477
v -164.2625 0.02931069 150.2473
v -164.2625 0.02931069 150.2473
v -165.5555 0.02980594 146.208
v -165.5555 0.02980594 146.208
v -162.7424 0.02980594 145.1656
v -162.7424 0.02980594 145.1656
v -167.6654 -0.3488016 146.9897
v -167.6654 -0.3488016 146.9897
v -165.5555 0.02980594 146.208
v -165.5555 0.02980594 146.208
v -167.133 0.03 142.5817
v -167.133 0.03 142.5817
v -164.4639 0.03 141.2121
v -164.4639 0.03 141.2121
v -169.1348 -0.3488016 143.6089
v -169.1348 -0.3488016 143.6089
v -167.133 0.03 142.5817
v -167.133 0.03 142.5817
v -169.0516 0.03000012 139.3947
v -169.0516 0.03000012 139.3947
v -166.6056 0.03000012 137.6577
v -166.6056 0.03000012 137.6577
v -170.8861 -0.3488016 140.6974
v -170.8861 -0.3488016 140.6974
v -169.0516 0.03000012 139.3947
v -169.0516 0.03000012 139.3947

vn 3.859135E-06 0.9999999 -0.0002296104
vn 0 0 0
vn 3.381332E-06 0.9999999 -0.0002293344
vn 0 0 0
vn -0.164786 0.9863263 -0.002465987
vn 0 0 0
vn -0.1645389 0.9863672 -0.002575631
vn 0 0 0
vn 2.868093E-06 1 -0.0002012526
vn 0 0 0
vn 1.872182E-06 1 -0.0001727725
vn 0 0 0
vn -0.1644617 0.9863809 -0.00224266
vn 0 0 0
vn -0.1641983 0.9864253 -0.001991474
vn 0 0 0
vn 1.056822E-06 1 -0.0001215972
vn 0 0 0
vn 3.731016E-07 1 -9.823106E-05
vn 0 0 0
vn -0.1641029 0.9864425 -0.00119796
vn 0 0 0
vn -0.1639501 0.9864683 -0.0007963553
vn 0 0 0
vn 6.337203E-08 1 -5.561149E-05
vn 0 0 0
vn -1.685018E-07 1 -3.622592E-05
vn 0 0 0
vn -0.163899 0.986477 0.0002360828
vn 0 0 0
vn -0.1638333 0.9864877 0.000785042
vn 0 0 0
vn 4.930046E-08 0.9999999 -1.119241E-06
vn 0 0 0
vn 3.57067E-07 1 1.49383E-05
vn 0 0 0
vn -0.16381 0.9864898 0.002044555
vn 0 0 0
vn -0.1638097 0.9864882 0.002745939
vn 0 0 0
vn 1.113163E-06 1 4.461316E-05
vn 0 0 0
vn 2.032412E-06 1 5.774937E-05
vn 0 0 0
vn -0.1637981 0.9864846 0.004292813
vn 0 0 0
vn -0.1638455 0.9864724 0.005161483
vn 0 0 0
vn 3.302576E-06 1 8.198052E-05
vn 0 0 0
vn 4.883263E-06 1 9.242872E-05
vn 0 0 0
vn -0.1638263 0.9864644 0.006999556
vn 0 0 0
vn -0.1638995 0.9864442 0.008059288
vn 0 0 0
vn 6.668798E-06 1 0.0001122588
vn 0 0 0
vn 8.96381E-06 1 0.0001200587
vn 0 0 0
vn -0.1638451 0.9864324 0.01030124
vn 0 0 0
vn -0.1639214 0.9864053 0.01158912
vn 0 0 0
vn 1.118985E-05 1 0.000135152
vn 0 0 0
vn 1.423682E-05 1 0.0001402006
vn 0 0 0
vn -0.163796 0.9863907 0.0142913
vn 0 0 0
vn -0.1638441 0.9863586 0.01587008
vn 0 0 0
vn 1.679357E-05 1 0.0001504531
vn 0 0 0
vn 2.053665E-05 0.9999999 0.000152323
vn 0 0 0
vn -0.1635895 0.9863421 0.01918089
vn 0 0 0
vn -0.1635633 0.9863069 0.02111684
vn 0 0 0
vn 2.314076E-05 1 0.0001569403
vn 0 0 0
vn 2.741278E-05 1 0.0001549444
vn 0 0 0
vn -0.1630799 0.9862895 0.02525496
vn 0 0 0
vn -0.1629085 0.9862531 0.02766973
vn 0 0 0
vn 2.939639E-05 1 0.0001523039
vn 0 0 0
vn 3.362117E-05 1 0.0001452416
vn 0 0 0
vn -0.1620423 0.9862367 0.03285591
vn 0 0 0
vn -0.1616067 0.9862012 0.03592263
vn 0 0 0
vn 3.339598E-05 1 0.0001322792
vn 0 0 0
vn 3.597121E-05 1 0.0001181586
vn 0 0 0
vn -0.160051 0.9861873 0.04263986
vn 0 0 0
vn -0.1591367 0.9861555 0.04661543
vn 0 0 0
vn 2.93162E-05 1 8.863574E-05
vn 0 0 0
vn 2.574777E-05 1 6.427413E-05
vn 0 0 0
vn -0.1563264 0.9861478 0.05544888
vn 0 0 0
vn -0.1545017 0.9861222 0.06076489
vn 0 0 0
vn 1.30463E-05 1 2.965206E-05
vn 0 0 0
vn 7.300115E-06 1 1.422365E-05
vn 0 0 0
vn -0.1494322 0.9861243 0.07230977
vn 0 0 0
vn -0.146157 0.9861115 0.07888232
vn 0 0 0
vn 1.548058E-08 1 2.548964E-08
vn 0 0 0
vn 1.641886E-08 1 2.312123E-08
vn 0 0 0
vn -0.1426083 0.9860522 0.08581389
vn 0 0 0
vn -0.1426316 0.9860446 0.08586183
vn 0 0 0

vt 0 0
vt 0 0
vt -0.5999176 0.01008301
vt -0.5999176 0.01008301
vt 0.4499359 -0.007565308
vt 0.4499359 -0.007565308
vt 0 0
vt 0 0
vt -0.01500549 -1.002747
vt -0.01500549 -1.002747
vt -0.6149597 -0.9951386
vt -0.6149597 -0.9951386
vt 0.4349579 -1.00845
vt 0.4349579 -1.00845
vt -0.01500549 -1.002747
vt -0.01500549 -1.002747
vt -0.0245636 -2.00127
vt -0.0245636 -2.00127
vt -0.6245514 -1.997638
vt -0.6245514 -1.997638
vt 0.4254303 -2.003995
vt 0.4254303 -2.003995
vt -0.0245636 -2.00127
vt -0.0245636 -2.00127
vt -0.02633057 -2.987033
vt -0.02633057 -2.987033
vt -0.6263306 -2.988748
vt -0.6263306 -2.988748
vt 0.4236664 -2.985745
vt 0.4236664 -2.985745
vt -0.02633057 -2.987033
vt -0.02633057 -2.987033
vt -0.0180542 -3.977863
vt -0.0180542 -3.977863
vt -0.6179932 -3.986429
vt -0.6179932 -3.986429
vt 0.4319 -3.971439
vt 0.4319 -3.971439
vt -0.0180542 -3.977863
vt -0.0180542 -3.977863
vt 0.00244751 -4.95397
vt 0.00244751 -4.95397
vt -0.5973145 -4.97088
vt -0.5973145 -4.97088
vt 0.4522675 -4.941288
vt 0.4522675 -4.941288
vt 0.00244751 -4.95397
vt 0.00244751 -4.95397
vt 0.03814392 -5.93353
vt 0.03814392 -5.93353
vt -0.5612427 -5.960654
vt -0.5612427 -5.960654
vt 0.4876831 -5.913187
vt 0.4876831 -5.913187
vt 0.03814392 -5.93353
vt 0.03814392 -5.93353
vt 0.0912323 -6.896326
vt 0.0912323 -6.896326
vt -0.5074768 -6.935666
vt -0.5074768 -6.935666
vt 0.5402649 -6.866821
vt 0.5402649 -6.866821
vt 0.0912323 -6.896326
vt 0.0912323 -6.896326
vt 0.1660919 -7.858341
vt 0.1660919 -7.858341
vt -0.4314484 -7.91261
vt -0.4314484 -7.91261
vt 0.6142487 -7.817639
vt 0.6142487 -7.817639
vt 0.1660919 -7.858341
vt 0.1660919 -7.858341
vt 0.2665497 -8.808627
vt 0.2665497 -8.808627
vt -0.3290497 -8.881174
vt -0.3290497 -8.881174
vt 0.7132477 -8.754221
vt 0.7132477 -8.754221
vt 0.2665497 -8.808627
vt 0.2665497 -8.808627
vt 0.3964142 -9.73453
vt 0.3964142 -9.73453
vt -0.1960144 -9.829551
vt -0.1960144 -9.829551
vt 0.8407349 -9.663266
vt 0.8407349 -9.663266
vt 0.3964142 -9.73453
vt 0.3964142 -9.73453
vt 0.5633179 -10.64095
vt 0.5633179 -10.64095
vt -0.02382507 -10.76448
vt -0.02382507 -10.76448
vt 1.003677 -10.54829
vt 1.003677 -10.54829
vt 0.5633179 -10.64095
vt 0.5633179 -10.64095
vt 0.7720215 -11.50467
vt 0.7720215 -11.50467
vt 0.1937744 -11.66477
vt 0.1937744 -11.66477
vt 1.205704 -11.3846
vt 1.205704 -11.3846
vt 0.7720215 -11.50467
vt 0.7720215 -11.50467
vt 1.030637 -12.31254
vt 1.030637 -12.31254
vt 0.4680176 -12.52101
vt 0.4680176 -12.52101
vt 1.4526 -12.15619
vt 1.4526 -12.15619
vt 1.030637 -12.31254
vt 1.030637 -12.31254
vt 1.34613 -13.03779
vt 1.34613 -13.03779
vt 0.8123078 -13.31171
vt 0.8123078 -13.31171
vt 1.746497 -12.83235
vt 1.746497 -12.83235
vt 1.34613 -13.03779
vt 1.34613 -13.03779
vt 1.729843 -13.6752
vt 1.729843 -13.6752
vt 1.240643 -14.0226
vt 1.240643 -14.0226
vt 2.096747 -13.41466
vt 2.096747 -13.41466
vt 1.729843 -13.6752
vt 1.729843 -13.6752

usemtl GSDShoulder1
usemap GSDShoulder1
f 9/9/9 1/1/1 3/3/3
f 11/11/11 9/9/9 3/3/3
f 13/13/13 5/5/5 7/7/7
f 15/15/15 13/13/13 7/7/7
f 17/17/17 9/9/9 11/11/11
f 19/19/19 17/17/17 11/11/11
f 21/21/21 13/13/13 15/15/15
f 23/23/23 21/21/21 15/15/15
f 25/25/25 17/17/17 19/19/19
f 27/27/27 25/25/25 19/19/19
f 29/29/29 21/21/21 23/23/23
f 31/31/31 29/29/29 23/23/23
f 33/33/33 25/25/25 27/27/27
f 35/35/35 33/33/33 27/27/27
f 37/37/37 29/29/29 31/31/31
f 39/39/39 37/37/37 31/31/31
f 41/41/41 33/33/33 35/35/35
f 43/43/43 41/41/41 35/35/35
f 45/45/45 37/37/37 39/39/39
f 47/47/47 45/45/45 39/39/39
f 49/49/49 41/41/41 43/43/43
f 51/51/51 49/49/49 43/43/43
f 53/53/53 45/45/45 47/47/47
f 55/55/55 53/53/53 47/47/47
f 57/57/57 49/49/49 51/51/51
f 59/59/59 57/57/57 51/51/51
f 61/61/61 53/53/53 55/55/55
f 63/63/63 61/61/61 55/55/55
f 65/65/65 57/57/57 59/59/59
f 67/67/67 65/65/65 59/59/59
f 69/69/69 61/61/61 63/63/63
f 71/71/71 69/69/69 63/63/63
f 73/73/73 65/65/65 67/67/67
f 75/75/75 73/73/73 67/67/67
f 77/77/77 69/69/69 71/71/71
f 79/79/79 77/77/77 71/71/71
f 81/81/81 73/73/73 75/75/75
f 83/83/83 81/81/81 75/75/75
f 85/85/85 77/77/77 79/79/79
f 87/87/87 85/85/85 79/79/79
f 89/89/89 81/81/81 83/83/83
f 91/91/91 89/89/89 83/83/83
f 93/93/93 85/85/85 87/87/87
f 95/95/95 93/93/93 87/87/87
f 97/97/97 89/89/89 91/91/91
f 99/99/99 97/97/97 91/91/91
f 101/101/101 93/93/93 95/95/95
f 103/103/103 101/101/101 95/95/95
f 105/105/105 97/97/97 99/99/99
f 107/107/107 105/105/105 99/99/99
f 109/109/109 101/101/101 103/103/103
f 111/111/111 109/109/109 103/103/103
f 113/113/113 105/105/105 107/107/107
f 115/115/115 113/113/113 107/107/107
f 117/117/117 109/109/109 111/111/111
f 119/119/119 117/117/117 111/111/111
f 121/121/121 113/113/113 115/115/115
f 123/123/123 121/121/121 115/115/115
f 125/125/125 117/117/117 119/119/119
f 127/127/127 125/125/125 119/119/119
