mtllib ./Road1_3_16.mtl
g RoadCut1
v -241.741 0.02912997 21.80502
v -241.741 0.02912997 21.80502
v -233.3945 0.02912997 13.18325
v -233.3945 0.02912997 13.18325
v -244.7797 0.03 19.22442
v -244.7797 0.03 19.22442
v -238.0218 0.03 9.308189
v -238.0218 0.03 9.308189
v -247.562 0.03 17.93713
v -247.562 0.03 17.93713
v -244.3191 0.03 6.383599
v -244.3191 0.03 6.383599
v -250.8691 0.03 17.51473
v -250.8691 0.03 17.51473
v -250.9085 0.03 5.514795
v -250.9085 0.03 5.514795
v -254.5879 0.03 17.95077
v -254.5879 0.03 17.95077
v -257.1685 0.03 6.231548
v -257.1685 0.03 6.231548
v -258.4454 0.03 19.15435
v -258.4454 0.03 19.15435
v -262.8937 0.03 8.009251
v -262.8937 0.03 8.009251
v -262.259 0.03 20.98439
v -262.259 0.03 20.98439
v -268.1185 0.03 10.51223
v -268.1185 0.03 10.51223
v -265.9659 0.03 23.34695
v -265.9659 0.03 23.34695
v -272.9554 0.03 13.59267
v -272.9554 0.03 13.59267
v -269.4533 0.03 26.12324
v -269.4533 0.03 26.12324
v -277.3778 0.03 17.11202
v -277.3778 0.03 17.11202
v -272.686 0.03 29.24781
v -272.686 0.03 29.24781
v -281.4163 0.03 21.01485
v -281.4163 0.03 21.01485
v -275.6011 0.03 32.63343
v -275.6011 0.03 32.63343
v -285.0389 0.03 25.22209
v -285.0389 0.03 25.22209
v -278.1902 0.03 36.25741
v -278.1902 0.03 36.25741
v -288.2633 0.03 29.73577
v -288.2633 0.03 29.73577
v -280.4384 0.03 40.11817
v -280.4384 0.03 40.11817
v -291.0865 0.03 34.58476
v -291.0865 0.03 34.58476
v -282.291 0.03 44.16595
v -282.291 0.03 44.16595
v -293.4442 0.03 39.7382
v -293.4442 0.03 39.7382

vn 0.0001571335 1 0.0001521178
vn 0 0 0
vn 0.0001346172 1 0.0001096835
vn 0 0 0
vn 0.0001033224 1 8.418507E-05
vn 0 0 0
vn 4.526406E-05 0.9999999 3.084714E-05
vn 0 0 0
vn 0 1 0
vn 0 0 0
vn 0 1 0
vn 0 0 0
vn 0 1 0
vn 0 0 0
vn 0 1 0
vn 0 0 0
vn 1.298028E-10 1 -2.858352E-11
vn 0 0 0
vn 2.181306E-10 1 -6.705722E-11
vn 0 0 0
vn 1.278991E-10 1 -2.816431E-11
vn 0 0 0
vn -1.017317E-10 1 5.6922E-11
vn 0 0 0
vn -1.202141E-10 1 4.797998E-11
vn 0 0 0
vn 9.524606E-11 1 -6.82499E-11
vn 0 0 0
vn 1.115917E-10 1 -6.243898E-11
vn 0 0 0
vn -8.839894E-11 1 7.773836E-11
vn 0 0 0
vn -1.996726E-10 1 1.586918E-10
vn 0 0 0
vn -8.882993E-11 1 7.811737E-11
vn 0 0 0
vn -8.774439E-11 1 9.304465E-11
vn 0 0 0
vn -1.554671E-10 1 1.805475E-10
vn 0 0 0
vn -8.83852E-11 1 9.372417E-11
vn 0 0 0
vn 6.515461E-11 1 -1.006357E-10
vn 0 0 0
vn 7.959412E-11 0.9999999 -1.013574E-10
vn 0 0 0
vn -5.502753E-11 1 1.058908E-10
vn 0 0 0
vn -1.2893E-10 1 2.216151E-10
vn 0 0 0
vn -5.467109E-11 0.9999999 1.052049E-10
vn 0 0 0
vn 0 0.9999999 0
vn 0 0 0
vn 0 1 0
vn 0 0 0

vt 0 0
vt 0 0
vt -1.669312 -1.724353
vt -1.669312 -1.724353
vt 0.6077332 -0.5161186
vt 0.6077332 -0.5161186
vt -0.7438354 -2.499365
vt -0.7438354 -2.499365
vt 1.164188 -0.7735779
vt 1.164188 -0.7735779
vt 0.515622 -3.084283
vt 0.515622 -3.084283
vt 1.825613 -0.858057
vt 1.825613 -0.858057
vt 1.833493 -3.258044
vt 1.833493 -3.258044
vt 2.56937 -0.7708489
vt 2.56937 -0.7708489
vt 3.085501 -3.114693
vt 3.085501 -3.114693
vt 3.340884 -0.5301331
vt 3.340884 -0.5301331
vt 4.230533 -2.759153
vt 4.230533 -2.759153
vt 4.103592 -0.1641247
vt 4.103592 -0.1641247
vt 5.275491 -2.258558
vt 5.275491 -2.258558
vt 4.844974 0.3083862
vt 4.844974 0.3083862
vt 6.242887 -1.642469
vt 6.242887 -1.642469
vt 5.542459 0.8636441
vt 5.542459 0.8636441
vt 7.127359 -0.9385998
vt 7.127359 -0.9385998
vt 6.189004 1.48856
vt 6.189004 1.48856
vt 7.935062 -0.1580338
vt 7.935062 -0.1580338
vt 6.772012 2.165683
vt 6.772012 2.165683
vt 8.659574 0.6834156
vt 8.659574 0.6834156
vt 7.289829 2.890479
vt 7.289829 2.890479
vt 9.304453 1.58615
vt 9.304453 1.58615
vt 7.739487 3.662631
vt 7.739487 3.662631
vt 9.869102 2.555949
vt 9.869102 2.555949
vt 8.109988 4.472188
vt 8.109988 4.472188
vt 10.34064 3.586638
vt 10.34064 3.586638

usemtl GSDRoad1
usemap GSDRoad1
f 5/5/5 1/1/1 3/3/3
f 7/7/7 5/5/5 3/3/3
f 9/9/9 5/5/5 7/7/7
f 11/11/11 9/9/9 7/7/7
f 13/13/13 9/9/9 11/11/11
f 15/15/15 13/13/13 11/11/11
f 17/17/17 13/13/13 15/15/15
f 19/19/19 17/17/17 15/15/15
f 21/21/21 17/17/17 19/19/19
f 23/23/23 21/21/21 19/19/19
f 25/25/25 21/21/21 23/23/23
f 27/27/27 25/25/25 23/23/23
f 29/29/29 25/25/25 27/27/27
f 31/31/31 29/29/29 27/27/27
f 33/33/33 29/29/29 31/31/31
f 35/35/35 33/33/33 31/31/31
f 37/37/37 33/33/33 35/35/35
f 39/39/39 37/37/37 35/35/35
f 41/41/41 37/37/37 39/39/39
f 43/43/43 41/41/41 39/39/39
f 45/45/45 41/41/41 43/43/43
f 47/47/47 45/45/45 43/43/43
f 49/49/49 45/45/45 47/47/47
f 51/51/51 49/49/49 47/47/47
f 53/53/53 49/49/49 51/51/51
f 55/55/55 53/53/53 51/51/51
