mtllib ./Road1_3_28.mtl
g SCutL2
v -282.6763 0.03 66.6168
v -282.6763 0.03 66.6168
v -285.6763 0.03 66.62623
v -285.6763 0.03 66.62623
v -280.4263 -0.3366866 66.60973
v -280.4263 -0.3366866 66.60973
v -282.6763 0.03 66.6168
v -282.6763 0.03 66.6168
v -282.5816 0.03 71.33651
v -282.5816 0.03 71.33651
v -285.5797 0.03 71.44205
v -285.5797 0.03 71.44205
v -280.3329 -0.3366866 71.25735
v -280.3329 -0.3366866 71.25735
v -282.5816 0.03 71.33651
v -282.5816 0.03 71.33651
v -282.3536 0.03 76.13995
v -282.3536 0.03 76.13995
v -285.3485 0.03 76.31461
v -285.3485 0.03 76.31461
v -280.1074 -0.3366866 76.00895
v -280.1074 -0.3366866 76.00895
v -282.3536 0.03 76.13995
v -282.3536 0.03 76.13995
v -282.0297 0.03 80.9864
v -282.0297 0.03 80.9864
v -285.0215 0.03 81.20862
v -285.0215 0.03 81.20862
v -279.7859 -0.3366866 80.81974
v -279.7859 -0.3366866 80.81974
v -282.0297 0.03 80.9864
v -282.0297 0.03 80.9864
v -281.6372 0.03 85.90013
v -281.6372 0.03 85.90013
v -284.6265 0.03 86.15311
v -284.6265 0.03 86.15311
v -279.3952 -0.3366866 85.7104
v -279.3952 -0.3366866 85.7104
v -281.6372 0.03 85.90013
v -281.6372 0.03 85.90013
v -281.2019 0.03 90.85426
v -281.2019 0.03 90.85426
v -284.1897 0.03 91.1244
v -284.1897 0.03 91.1244
v -278.961 -0.3366866 90.65166
v -278.961 -0.3366866 90.65166
v -281.2019 0.03 90.85426
v -281.2019 0.03 90.85426
v -280.7461 0.03 95.82352
v -280.7461 0.03 95.82352
v -283.7333 0.03 96.09983
v -283.7333 0.03 96.09983
v -278.5056 -0.3366866 95.61628
v -278.5056 -0.3366866 95.61628
v -280.7461 0.03 95.82352
v -280.7461 0.03 95.82352
v -280.282 0.03 100.8542
v -280.282 0.03 100.8542
v -283.2694 0.03 101.1278
v -283.2694 0.03 101.1278
v -278.0413 -0.3366866 100.649
v -278.0413 -0.3366866 100.649
v -280.282 0.03 100.8542
v -280.282 0.03 100.8542
v -279.8248 0.03 105.9312
v -279.8248 0.03 105.9312
v -282.8132 0.03 106.1946
v -282.8132 0.03 106.1946
v -277.5835 -0.3366866 105.7336
v -277.5835 -0.3366866 105.7336
v -279.8248 0.03 105.9312
v -279.8248 0.03 105.9312
v -279.394 0.03 110.9646
v -279.394 0.03 110.9646
v -282.3838 0.03 111.212
v -282.3838 0.03 111.212
v -277.1516 -0.3366866 110.7791
v -277.1516 -0.3366866 110.7791
v -279.394 0.03 110.9646
v -279.394 0.03 110.9646
v -278.9877 0.03 116.0885
v -278.9877 0.03 116.0885
v -281.9792 0.03 116.3145
v -281.9792 0.03 116.3145
v -276.7441 -0.3366866 115.9189
v -276.7441 -0.3366866 115.9189
v -278.9877 0.03 116.0885
v -278.9877 0.03 116.0885
v -278.6216 0.03 121.2163
v -278.6216 0.03 121.2163
v -281.6149 0.03 121.4169
v -281.6149 0.03 121.4169
v -276.3766 -0.3366866 121.0659
v -276.3766 -0.3366866 121.0659
v -278.6216 0.03 121.2163
v -278.6216 0.03 121.2163
v -278.3028 0.03 126.3348
v -278.3028 0.03 126.3348
v -281.2979 0.03 126.5066
v -281.2979 0.03 126.5066
v -276.0565 -0.3366866 126.2059
v -276.0565 -0.3366866 126.2059
v -278.3028 0.03 126.3348
v -278.3028 0.03 126.3348
v -278.0369 0.03 131.431
v -278.0369 0.03 131.431
v -281.0336 0.03 131.5714
v -281.0336 0.03 131.5714
v -275.7894 -0.3366866 131.3257
v -275.7894 -0.3366866 131.3257
v -278.0369 0.03 131.431
v -278.0369 0.03 131.431
v -277.8247 0.03 136.5794
v -277.8247 0.03 136.5794
v -280.8228 0.03 136.6857
v -280.8228 0.03 136.6857
v -275.5761 -0.3366866 136.4996
v -275.5761 -0.3366866 136.4996
v -277.8247 0.03 136.5794
v -277.8247 0.03 136.5794
v -277.6737 0.03 141.6844
v -277.6737 0.03 141.6844
v -280.6729 0.03 141.7552
v -280.6729 0.03 141.7552
v -275.4243 -0.3366866 141.6314
v -275.4243 -0.3366866 141.6314
v -277.6737 0.03 141.6844
v -277.6737 0.03 141.6844
v -277.5844 0.03 146.8256
v -277.5844 0.03 146.8256
v -280.5842 0.03 146.8589
v -280.5842 0.03 146.8589
v -275.3345 -0.3366866 146.8006
v -275.3345 -0.3366866 146.8006
v -277.5844 0.03 146.8256
v -277.5844 0.03 146.8256
v -277.5602 0.03 151.9971
v -277.5602 0.03 151.9971
v -280.5602 0.03 151.9916
v -280.5602 0.03 151.9916
v -275.3102 -0.3366866 152.0013
v -275.3102 -0.3366866 152.0013
v -277.5602 0.03 151.9971
v -277.5602 0.03 151.9971
v -277.6035 0.02999957 157.142
v -277.6035 0.02999957 157.142
v -280.6031 0.02999957 157.0978
v -280.6031 0.02999957 157.0978
v -275.3537 -0.3366866 157.1751
v -275.3537 -0.3366866 157.1751
v -277.6035 0.02999957 157.142
v -277.6035 0.02999957 157.142
v -277.6874 0.02962867 162.1972
v -277.6874 0.02962867 162.1972
v -280.6869 0.02962867 162.1422
v -280.6869 0.02962867 162.1422
v -275.4378 -0.3366866 162.2385
v -275.4378 -0.3366866 162.2385
v -277.6874 0.02962867 162.1972
v -277.6874 0.02962867 162.1972
v -277.7875 0.02867716 167.2404
v -277.7875 0.02867716 167.2404
v -280.7868 0.02867716 167.1767
v -280.7868 0.02867716 167.1767
v -275.538 -0.3366866 167.2882
v -275.538 -0.3366866 167.2882
v -277.7875 0.02867716 167.2404
v -277.7875 0.02867716 167.2404
v -277.9006 0.02727394 172.276
v -277.9006 0.02727394 172.276
v -280.8998 0.02727394 172.2051
v -280.8998 0.02727394 172.2051
v -275.6513 -0.3366866 172.3292
v -275.6513 -0.3366866 172.3292
v -277.9006 0.02727394 172.276
v -277.9006 0.02727394 172.276
v -278.0253 0.02550781 177.3238
v -278.0253 0.02550781 177.3238
v -281.0243 0.02550781 177.2469
v -281.0243 0.02550781 177.2469
v -275.776 -0.3366866 177.3816
v -275.776 -0.3366866 177.3816
v -278.0253 0.02550781 177.3238
v -278.0253 0.02550781 177.3238

vn -1.240437E-12 0.9999999 -3.946274E-10
vn 0 0 0
vn -7.485741E-12 1 -3.905242E-10
vn 0 0 0
vn 0.1608412 0.986975 -0.00323069
vn 0 0 0
vn 0.1608375 0.9869756 -0.003228812
vn 0 0 0
vn -4.976455E-12 1 -2.596171E-10
vn 0 0 0
vn -4.518616E-12 1 -1.283569E-10
vn 0 0 0
vn 0.1607846 0.9869783 -0.004709729
vn 0 0 0
vn 0.1607303 0.9869791 -0.006172462
vn 0 0 0
vn 0 0.9999999 0
vn 0 0 0
vn 0 1 0
vn 0 0 0
vn 0.160618 0.9869785 -0.008664871
vn 0 0 0
vn 0.1605573 0.9869788 -0.009696851
vn 0 0 0
vn 0 1 0
vn 0 0 0
vn 0 1 0
vn 0 0 0
vn 0.1604452 0.9869786 -0.01142657
vn 0 0 0
vn 0.1603933 0.9869788 -0.01212007
vn 0 0 0
vn -1.056824E-11 1 -1.248772E-10
vn 0 0 0
vn -2.176372E-11 1 -2.48669E-10
vn 0 0 0
vn 0.1603058 0.9869787 -0.01323492
vn 0 0 0
vn 0.1602696 0.9869788 -0.01365841
vn 0 0 0
vn -2.172016E-11 1 -2.481712E-10
vn 0 0 0
vn -1.119899E-11 1 -1.238632E-10
vn 0 0 0
vn 0.1602154 0.9869787 -0.01428515
vn 0 0 0
vn 0.1601962 0.9869788 -0.01448907
vn 0 0 0
vn 2.281589E-11 1 2.466638E-10
vn 0 0 0
vn 4.522771E-11 1 4.914148E-10
vn 0 0 0
vn 0.1601745 0.986979 -0.01472095
vn 0 0 0
vn 0.1601715 0.986979 -0.01474865
vn 0 0 0
vn 2.257517E-11 1 2.440614E-10
vn 0 0 0
vn -2.147132E-11 1 -2.435912E-10
vn 0 0 0
vn 0.1601799 0.9869789 -0.01465872
vn 0 0 0
vn 0.1601911 0.9869789 -0.01454208
vn 0 0 0
vn -3.302994E-11 1 -3.652525E-10
vn 0 0 0
vn -6.561584E-13 1 5.743727E-14
vn 0 0 0
vn 0.1602228 0.9869789 -0.01419101
vn 0 0 0
vn 0.1602437 0.9869788 -0.01395493
vn 0 0 0
vn 3.091323E-11 1 3.656604E-10
vn 0 0 0
vn 2.926223E-11 1 3.641886E-10
vn 0 0 0
vn 0.1602925 0.9869789 -0.01337824
vn 0 0 0
vn 0.1603197 0.986979 -0.01304323
vn 0 0 0
vn 9.973881E-12 0.9999999 1.205454E-10
vn 0 0 0
vn -8.101805E-12 1 -1.208788E-10
vn 0 0 0
vn 0.1603784 0.9869791 -0.01229286
vn 0 0 0
vn 0.1604102 0.9869789 -0.0118741
vn 0 0 0
vn -1.722011E-11 1 -2.415293E-10
vn 0 0 0
vn -8.118436E-12 1 -1.21127E-10
vn 0 0 0
vn 0.1604749 0.986979 -0.01096986
vn 0 0 0
vn 0.160508 0.9869789 -0.01048401
vn 0 0 0
vn 0 1 0
vn 0 0 0
vn 0 1 0
vn 0 0 0
vn 0.1605714 0.9869788 -0.009459967
vn 0 0 0
vn 0.1606026 0.9869788 -0.008921535
vn 0 0 0
vn -5.68719E-12 1 -1.21391E-10
vn 0 0 0
vn -9.984684E-12 1 -2.425951E-10
vn 0 0 0
vn 0.1606614 0.9869788 -0.007791331
vn 0 0 0
vn 0.1606894 0.9869787 -0.007205763
vn 0 0 0
vn -5.668277E-12 1 -1.209873E-10
vn 0 0 0
vn 2.871132E-12 1 1.217283E-10
vn 0 0 0
vn 0.160739 0.9869787 -0.006004253
vn 0 0 0
vn 0.1607607 0.9869788 -0.005381086
vn 0 0 0
vn 7.176225E-12 1 2.430455E-10
vn 0 0 0
vn 2.867316E-12 0.9999999 1.215665E-10
vn 0 0 0
vn 0.1607976 0.986979 -0.004097465
vn 0 0 0
vn 0.1608129 0.9869788 -0.003444016
vn 0 0 0
vn 0 1 0
vn 0 0 0
vn 0 0.9999999 0
vn 0 0 0
vn 0.1608365 0.9869788 -0.002109729
vn 0 0 0
vn 0.1608451 0.9869786 -0.001428911
vn 0 0 0
vn -5.069529E-11 1 2.760969E-08
vn 0 0 0
vn -4.593208E-10 1 5.545047E-08
vn 0 0 0
vn 0.1608517 0.9869786 -5.146689E-05
vn 0 0 0
vn 0.1608499 0.9869787 0.0006499724
vn 0 0 0
vn -3.573726E-07 0.9999999 2.428352E-05
vn 0 0 0
vn -8.068772E-07 1 4.880045E-05
vn 0 0 0
vn 0.1608415 0.9869787 0.001786371
vn 0 0 0
vn 0.160781 0.9869875 0.00224968
vn 0 0 0
vn -1.961761E-06 1 0.0001117883
vn 0 0 0
vn -2.939464E-06 1 0.0001503167
vn 0 0 0
vn 0.1607179 0.9869963 0.002866041
vn 0 0 0
vn 0.1605247 0.987027 0.003097806
vn 0 0 0
vn -4.462844E-06 1 0.0002186723
vn 0 0 0
vn -5.507967E-06 0.9999999 0.0002487759
vn 0 0 0
vn 0.1603832 0.987049 0.003385013
vn 0 0 0
vn 0.1600433 0.9871035 0.003609947
vn 0 0 0
vn -6.927435E-06 0.9999999 0.0003024195
vn 0 0 0
vn -7.950429E-06 0.9999999 0.0003262732
vn 0 0 0
vn 0.1598394 0.9871358 0.003801814
vn 0 0 0
vn 0.1593823 0.9872088 0.00402389
vn 0 0 0
vn -8.626403E-06 0.9999999 0.0003498784
vn 0 0 0
vn -8.986057E-06 0.9999999 0.0003500804
vn 0 0 0
vn 0.1592544 0.9872291 0.004104392
vn 0 0 0
vn 0.1588715 0.98729 0.004268073
vn 0 0 0

vt 0 0
vt 0 0
vt 0.6 0.001885986
vt 0.6 0.001885986
vt -0.4499939 -0.00141449
vt -0.4499939 -0.00141449
vt 0 0
vt 0 0
vt -0.01893921 0.9439422
vt -0.01893921 0.9439422
vt 0.5806885 0.9650513
vt 0.5806885 0.9650513
vt -0.4686646 0.9281113
vt -0.4686646 0.9281113
vt -0.01893921 0.9439422
vt -0.01893921 0.9439422
vt -0.06453247 1.90463
vt -0.06453247 1.90463
vt 0.5344483 1.939561
vt 0.5344483 1.939561
vt -0.5137696 1.87843
vt -0.5137696 1.87843
vt -0.06453247 1.90463
vt -0.06453247 1.90463
vt -0.1293091 2.873921
vt -0.1293091 2.873921
vt 0.469043 2.918364
vt 0.469043 2.918364
vt -0.5780701 2.840588
vt -0.5780701 2.840588
vt -0.1293091 2.873921
vt -0.1293091 2.873921
vt -0.2078125 3.856667
vt -0.2078125 3.856667
vt 0.3900513 3.907263
vt 0.3900513 3.907263
vt -0.6562073 3.81872
vt -0.6562073 3.81872
vt -0.2078125 3.856667
vt -0.2078125 3.856667
vt -0.2948792 4.847493
vt -0.2948792 4.847493
vt 0.3026856 4.901521
vt 0.3026856 4.901521
vt -0.7430481 4.806972
vt -0.7430481 4.806972
vt -0.2948792 4.847493
vt -0.2948792 4.847493
vt -0.3860413 5.841344
vt -0.3860413 5.841344
vt 0.2114075 5.896606
vt 0.2114075 5.896606
vt -0.8341309 5.799896
vt -0.8341309 5.799896
vt -0.3860413 5.841344
vt -0.3860413 5.841344
vt -0.4788635 6.847482
vt -0.4788635 6.847482
vt 0.118634 6.902197
vt 0.118634 6.902197
vt -0.9269897 6.806447
vt -0.9269897 6.806447
vt -0.4788635 6.847482
vt -0.4788635 6.847482
vt -0.5703003 7.86288
vt -0.5703003 7.86288
vt 0.02738037 7.915563
vt 0.02738037 7.915563
vt -1.018561 7.823369
vt -1.018561 7.823369
vt -0.5703003 7.86288
vt -0.5703003 7.86288
vt -0.6564636 8.86956
vt -0.6564636 8.86956
vt -0.0585022 8.919036
vt -0.0585022 8.919036
vt -1.104932 8.832454
vt -1.104932 8.832454
vt -0.6564636 8.86956
vt -0.6564636 8.86956
vt -0.7377076 9.894335
vt -0.7377076 9.894335
vt -0.1394165 9.939548
vt -0.1394165 9.939548
vt -1.186432 9.860423
vt -1.186432 9.860423
vt -0.7377076 9.894335
vt -0.7377076 9.894335
vt -0.8109375 10.91991
vt -0.8109375 10.91991
vt -0.2122803 10.96003
vt -0.2122803 10.96003
vt -1.25993 10.88981
vt -1.25993 10.88981
vt -0.8109375 10.91991
vt -0.8109375 10.91991
vt -0.8746887 11.9436
vt -0.8746887 11.9436
vt -0.2756714 11.97797
vt -0.2756714 11.97797
vt -1.32395 11.91783
vt -1.32395 11.91783
vt -0.8746887 11.9436
vt -0.8746887 11.9436
vt -0.9278747 12.96285
vt -0.9278747 12.96285
vt -0.3285339 12.99093
vt -0.3285339 12.99093
vt -1.37738 12.94179
vt -1.37738 12.94179
vt -0.9278747 12.96285
vt -0.9278747 12.96285
vt -0.9703186 13.99252
vt -0.9703186 13.99252
vt -0.3706909 14.01378
vt -0.3706909 14.01378
vt -1.420032 13.97656
vt -1.420032 13.97656
vt -0.9703186 13.99252
vt -0.9703186 13.99252
vt -1.000513 15.01353
vt -1.000513 15.01353
vt -0.4006775 15.02768
vt -0.4006775 15.02768
vt -1.450391 15.00292
vt -1.450391 15.00292
vt -1.000513 15.01353
vt -1.000513 15.01353
vt -1.018384 16.04175
vt -1.018384 16.04175
vt -0.4184204 16.04842
vt -0.4184204 16.04842
vt -1.468353 16.03675
vt -1.468353 16.03675
vt -1.018384 16.04175
vt -1.018384 16.04175
vt -1.023218 17.07606
vt -1.023218 17.07606
vt -0.4232178 17.07496
vt -0.4232178 17.07496
vt -1.473212 17.07689
vt -1.473212 17.07689
vt -1.023218 17.07606
vt -1.023218 17.07606
vt -1.014563 18.10504
vt -1.014563 18.10504
vt -0.4146301 18.0962
vt -0.4146301 18.0962
vt -1.464514 18.11167
vt -1.464514 18.11167
vt -1.014563 18.10504
vt -1.014563 18.10504
vt -0.9977722 19.11609
vt -0.9977722 19.11609
vt -0.397876 19.10508
vt -0.397876 19.10508
vt -1.447699 19.12434
vt -1.447699 19.12434
vt -0.9977722 19.11609
vt -0.9977722 19.11609
vt -0.9777588 20.12472
vt -0.9777588 20.12472
vt -0.3778992 20.11197
vt -0.3778992 20.11197
vt -1.427661 20.13427
vt -1.427661 20.13427
vt -0.9777588 20.12472
vt -0.9777588 20.12472
vt -0.9551269 21.13184
vt -0.9551269 21.13184
vt -0.3552918 21.11766
vt -0.3552918 21.11766
vt -1.404999 21.14248
vt -1.404999 21.14248
vt -0.9551269 21.13184
vt -0.9551269 21.13184
vt -0.9302002 22.14141
vt -0.9302002 22.14141
vt -0.3303955 22.12601
vt -0.3303955 22.12601
vt -1.380054 22.15296
vt -1.380054 22.15296
vt -0.9302002 22.14141
vt -0.9302002 22.14141

usemtl GSDShoulder1
usemap GSDShoulder1
f 9/9/9 1/1/1 3/3/3
f 11/11/11 9/9/9 3/3/3
f 13/13/13 5/5/5 7/7/7
f 15/15/15 13/13/13 7/7/7
f 17/17/17 9/9/9 11/11/11
f 19/19/19 17/17/17 11/11/11
f 21/21/21 13/13/13 15/15/15
f 23/23/23 21/21/21 15/15/15
f 25/25/25 17/17/17 19/19/19
f 27/27/27 25/25/25 19/19/19
f 29/29/29 21/21/21 23/23/23
f 31/31/31 29/29/29 23/23/23
f 33/33/33 25/25/25 27/27/27
f 35/35/35 33/33/33 27/27/27
f 37/37/37 29/29/29 31/31/31
f 39/39/39 37/37/37 31/31/31
f 41/41/41 33/33/33 35/35/35
f 43/43/43 41/41/41 35/35/35
f 45/45/45 37/37/37 39/39/39
f 47/47/47 45/45/45 39/39/39
f 49/49/49 41/41/41 43/43/43
f 51/51/51 49/49/49 43/43/43
f 53/53/53 45/45/45 47/47/47
f 55/55/55 53/53/53 47/47/47
f 57/57/57 49/49/49 51/51/51
f 59/59/59 57/57/57 51/51/51
f 61/61/61 53/53/53 55/55/55
f 63/63/63 61/61/61 55/55/55
f 65/65/65 57/57/57 59/59/59
f 67/67/67 65/65/65 59/59/59
f 69/69/69 61/61/61 63/63/63
f 71/71/71 69/69/69 63/63/63
f 73/73/73 65/65/65 67/67/67
f 75/75/75 73/73/73 67/67/67
f 77/77/77 69/69/69 71/71/71
f 79/79/79 77/77/77 71/71/71
f 81/81/81 73/73/73 75/75/75
f 83/83/83 81/81/81 75/75/75
f 85/85/85 77/77/77 79/79/79
f 87/87/87 85/85/85 79/79/79
f 89/89/89 81/81/81 83/83/83
f 91/91/91 89/89/89 83/83/83
f 93/93/93 85/85/85 87/87/87
f 95/95/95 93/93/93 87/87/87
f 97/97/97 89/89/89 91/91/91
f 99/99/99 97/97/97 91/91/91
f 101/101/101 93/93/93 95/95/95
f 103/103/103 101/101/101 95/95/95
f 105/105/105 97/97/97 99/99/99
f 107/107/107 105/105/105 99/99/99
f 109/109/109 101/101/101 103/103/103
f 111/111/111 109/109/109 103/103/103
f 113/113/113 105/105/105 107/107/107
f 115/115/115 113/113/113 107/107/107
f 117/117/117 109/109/109 111/111/111
f 119/119/119 117/117/117 111/111/111
f 121/121/121 113/113/113 115/115/115
f 123/123/123 121/121/121 115/115/115
f 125/125/125 117/117/117 119/119/119
f 127/127/127 125/125/125 119/119/119
f 129/129/129 121/121/121 123/123/123
f 131/131/131 129/129/129 123/123/123
f 133/133/133 125/125/125 127/127/127
f 135/135/135 133/133/133 127/127/127
f 137/137/137 129/129/129 131/131/131
f 139/139/139 137/137/137 131/131/131
f 141/141/141 133/133/133 135/135/135
f 143/143/143 141/141/141 135/135/135
f 145/145/145 137/137/137 139/139/139
f 147/147/147 145/145/145 139/139/139
f 149/149/149 141/141/141 143/143/143
f 151/151/151 149/149/149 143/143/143
f 153/153/153 145/145/145 147/147/147
f 155/155/155 153/153/153 147/147/147
f 157/157/157 149/149/149 151/151/151
f 159/159/159 157/157/157 151/151/151
f 161/161/161 153/153/153 155/155/155
f 163/163/163 161/161/161 155/155/155
f 165/165/165 157/157/157 159/159/159
f 167/167/167 165/165/165 159/159/159
f 169/169/169 161/161/161 163/163/163
f 171/171/171 169/169/169 163/163/163
f 173/173/173 165/165/165 167/167/167
f 175/175/175 173/173/173 167/167/167
f 177/177/177 169/169/169 171/171/171
f 179/179/179 177/177/177 171/171/171
f 181/181/181 173/173/173 175/175/175
f 183/183/183 181/181/181 175/175/175
