mtllib ./Road1_3_21.mtl
g Markers3
v -280.5602 0.04 151.9916
v -280.5602 0.04 151.9916
v -292.5602 0.04 151.9696
v -292.5602 0.04 151.9696
v -280.6031 0.03999957 157.0978
v -280.6031 0.03999957 157.0978
v -292.6018 0.03999957 156.9211
v -292.6018 0.03999957 156.9211
v -280.6869 0.03962867 162.1422
v -280.6869 0.03962867 162.1422
v -292.6849 0.03962867 161.9221
v -292.6849 0.03962867 161.9221
v -280.7868 0.03867716 167.1767
v -280.7868 0.03867716 167.1767
v -292.7841 0.03867716 166.9217
v -292.7841 0.03867716 166.9217
v -280.8998 0.03727394 172.2051
v -280.8998 0.03727394 172.2051
v -292.8965 0.03727394 171.9214
v -292.8965 0.03727394 171.9214
v -281.0243 0.03550781 177.2469
v -281.0243 0.03550781 177.2469
v -293.0203 0.03550781 176.939
v -293.0203 0.03550781 176.939
v -281.1576 0.03346365 182.2703
v -281.1576 0.03346365 182.2703
v -293.1531 0.03346365 181.9418
v -293.1531 0.03346365 181.9418
v -281.2996 0.03118548 187.312
v -281.2996 0.03118548 187.312
v -293.2946 0.03118548 186.9656
v -293.2946 0.03118548 186.9656
v -281.4484 0.02872979 192.351
v -281.4484 0.02872979 192.351
v -293.443 0.02872979 191.9891
v -293.443 0.02872979 191.9891
v -281.6027 0.0261472 197.3685
v -281.6027 0.0261472 197.3685
v -293.5968 0.0261472 196.993
v -293.5968 0.0261472 196.993
v -281.7633 0.0234454 202.4159
v -281.7633 0.0234454 202.4159
v -293.757 0.0234454 202.0285
v -293.757 0.0234454 202.0285
v -281.9292 0.02066004 207.4809
v -281.9292 0.02066004 207.4809
v -293.9226 0.02066004 207.0828
v -293.9226 0.02066004 207.0828
v -282.0995 0.01782416 212.552
v -282.0995 0.01782416 212.552
v -294.0927 0.01782416 212.1444
v -294.0927 0.01782416 212.1444
v -282.2735 0.01496862 217.618
v -282.2735 0.01496862 217.618
v -294.2663 0.01496862 217.2021
v -294.2663 0.01496862 217.2021
v -282.4503 0.01212179 222.6689
v -282.4503 0.01212179 222.6689
v -294.4429 0.01212179 222.2455
v -294.4429 0.01212179 222.2455
v -282.6292 0.01 227.6949
v -282.6292 0.01 227.6949
v -294.6215 0.01 227.2648
v -294.6215 0.01 227.2648
v -282.8121 0.01 232.7608
v -282.8121 0.01 232.7608
v -294.8042 0.01 232.3249
v -294.8042 0.01 232.3249
v -282.9959 0.01 237.7855
v -282.9959 0.01 237.7855
v -294.9878 0.01 237.3445
v -294.9878 0.01 237.3445
v -283.1826 0.01 242.8355
v -283.1826 0.01 242.8355
v -295.1743 0.01 242.3899
v -295.1743 0.01 242.3899
v -283.3718 0.01 247.9038
v -283.3718 0.01 247.9038
v -295.3633 0.01 247.4543
v -295.3633 0.01 247.4543
v -283.5601 0.01 252.909
v -283.5601 0.01 252.909
v -295.5516 0.01 252.4562
v -295.5516 0.01 252.4562
v -283.7499 0.01 257.9192
v -283.7499 0.01 257.9192
v -295.7412 0.01 257.4635
v -295.7412 0.01 257.4635
v -283.9407 0.01 262.9278
v -283.9407 0.01 262.9278
v -295.932 0.01 262.4699
v -295.932 0.01 262.4699
v -284.1321 0.01 267.9282
v -284.1321 0.01 267.9282
v -296.1233 0.01 267.4685
v -296.1233 0.01 267.4685
v -284.3263 0.01 272.9885
v -284.3263 0.01 272.9885
v -296.3175 0.01 272.5275
v -296.3175 0.01 272.5275
v -284.5201 0.01 278.027
v -284.5201 0.01 278.027
v -296.5112 0.01 277.5654
v -296.5112 0.01 277.5654
v -284.7131 0.01 283.0371
v -284.7131 0.01 283.0371
v -296.7042 0.01 282.5752
v -296.7042 0.01 282.5752
v -284.9074 0.01 288.0847
v -284.9074 0.01 288.0847
v -296.8986 0.01 287.6232
v -296.8986 0.01 287.6232
v -285.0998 0.01 293.0889
v -285.0998 0.01 293.0889
v -297.091 0.01 292.6284
v -297.091 0.01 292.6284
v -285.2925 0.01 298.1141
v -285.2925 0.01 298.1141
v -297.2838 0.01 297.6552
v -297.2838 0.01 297.6552
v -285.4848 0.01 303.1505
v -285.4848 0.01 303.1505
v -297.4762 0.01 302.6937
v -297.4762 0.01 302.6937
v -285.6761 0.01 308.1874
v -285.6761 0.01 308.1874
v -297.6675 0.01 307.7336
v -297.6675 0.01 307.7336
v -285.8655 0.01 313.2141
v -285.8655 0.01 313.2141
v -297.8571 0.01 312.7641
v -297.8571 0.01 312.7641
v -286.0524 0.01040405 318.2182
v -286.0524 0.01040405 318.2182
v -298.0441 0.01040405 317.7729
v -298.0441 0.01040405 317.7729
v -286.2382 0.01415163 323.2529
v -286.2382 0.01415163 323.2529
v -298.2301 0.01415163 322.8134
v -298.2301 0.01415163 322.8134
v -286.4217 0.02520365 328.2997
v -286.4217 0.02520365 328.2997
v -298.4138 0.02520365 327.8673
v -298.4138 0.02520365 327.8673
v -286.6016 0.0474676 333.3387
v -286.6016 0.0474676 333.3387
v -298.5941 0.0474676 332.9149
v -298.5941 0.0474676 332.9149
v -286.7765 0.08462355 338.348
v -286.7765 0.08462355 338.348
v -298.7693 0.08462355 337.9347
v -298.7693 0.08462355 337.9347
v -286.7765 0.08462355 338.348
v -286.7765 0.08462355 338.348
v -286.7765 0.08462355 338.348
v -286.7765 0.08462355 338.348
v -286.9466 -3.99 343.3614
v -286.9466 -3.99 343.3614
v -298.9399 -3.99 342.9609
v -298.9399 -3.99 342.9609
v -287.1117 -3.99 348.4008
v -287.1117 -3.99 348.4008
v -299.1055 -3.99 348.0163
v -299.1055 -3.99 348.0163
v -287.2686 -3.983169 353.4211
v -287.2686 -3.983169 353.4211
v -299.2631 -3.983169 353.0564
v -299.2631 -3.983169 353.0564
v -287.4155 -3.973659 358.42
v -287.4155 -3.973659 358.42
v -299.4107 -3.973659 358.0809
v -299.4107 -3.973659 358.0809
v -287.5501 -3.961906 363.4214
v -287.5501 -3.961906 363.4214
v -299.5462 -3.961906 363.1162
v -299.5462 -3.961906 363.1162
v -287.672 -3.946594 368.4594
v -287.672 -3.946594 368.4594
v -299.6688 -3.946594 368.1828
v -299.6688 -3.946594 368.1828
v -287.7823 -3.926257 373.5088
v -287.7823 -3.926257 373.5088
v -299.7797 -3.926257 373.2617
v -299.7797 -3.926257 373.2617
v -287.8796 -3.900399 378.5573
v -287.8796 -3.900399 378.5573
v -299.8775 -3.900399 378.3431
v -299.8775 -3.900399 378.3431
v -287.9615 -3.868746 383.5633
v -287.9615 -3.868746 383.5633
v -299.9599 -3.868746 383.3859
v -299.9599 -3.868746 383.3859
v -288.0272 0.1496597 388.5764
v -288.0272 0.1496597 388.5764
v -288.0272 0.1496597 388.5764
v -288.0272 0.1496597 388.5764
v -288.0272 0.1496597 388.5764
v -288.0272 0.1496597 388.5764
v -300.026 0.1496597 388.4404
v -300.026 0.1496597 388.4404
v -288.0748 0.1891224 393.6243
v -288.0748 0.1891224 393.6243
v -300.0739 0.1891224 393.5353
v -300.0739 0.1891224 393.5353
v -288.1015 0.2495063 398.6443
v -288.1015 0.2495063 398.6443
v -300.1006 0.2495063 398.6073
v -300.1006 0.2495063 398.6073
v -288.1053 0.3216589 403.6523
v -288.1053 0.3216589 403.6523
v -300.1042 0.3216589 403.6723
v -300.1042 0.3216589 403.6723
v -288.0846 0.3987187 408.6578
v -288.0846 0.3987187 408.6578
v -300.0831 0.3987187 408.7377
v -300.0831 0.3987187 408.7377
v -288.039 0.4778003 413.6756
v -288.039 0.4778003 413.6756
v -300.0367 0.4778003 413.8134
v -300.0367 0.4778003 413.8134
v -287.9712 0.8103907 418.6915
v -287.9712 0.8103907 418.6915
v -299.9682 0.8103907 418.8749
v -299.9682 0.8103907 418.8749
v -287.9712 0.8103907 418.6915
v -287.9712 0.8103907 418.6915
v -287.9712 0.8103907 418.6915
v -287.9712 0.8103907 418.6915
v -287.8895 -3.359376 423.7014
v -287.8895 -3.359376 423.7014
v -299.8863 -3.359376 423.9031
v -299.8863 -3.359376 423.9031
v -287.8081 -3.286531 428.7315
v -287.8081 -3.286531 428.7315
v -299.8058 -3.286531 428.9093
v -299.8058 -3.286531 428.9093
v -287.7462 -3.23053 433.779
v -287.7462 -3.23053 433.779
v -299.7453 -3.23053 433.8868
v -299.7453 -3.23053 433.8868
v -287.7215 -3.197748 438.8511
v -287.7215 -3.197748 438.8511
v -299.7214 -3.197748 438.8559
v -299.7214 -3.197748 438.8559
v -287.7427 -3.190596 443.9211
v -287.7427 -3.190596 443.9211
v -299.7423 -3.190596 443.8298
v -299.7423 -3.190596 443.8298
v -287.7878 -3.208375 449.02
v -287.7878 -3.208375 449.02
v -299.787 -3.208375 448.8998
v -299.787 -3.208375 448.8998
v -287.8439 -3.248766 454.0389
v -287.8439 -3.248766 454.0389
v -299.8424 -3.248766 453.8923
v -299.8424 -3.248766 453.8923
v -287.9113 -3.310889 459.1045
v -287.9113 -3.310889 459.1045
v -299.9089 -3.310889 458.9332
v -299.9089 -3.310889 458.9332
v -287.9886 0.8978859 464.1557
v -287.9886 0.8978859 464.1557
v -287.9886 0.8978859 464.1557
v -287.9886 0.8978859 464.1557
v -287.9886 0.8978859 464.1557
v -287.9886 0.8978859 464.1557
v -299.9851 0.8978859 463.9621
v -299.9851 0.8978859 463.9621
v -288.0745 0.7264201 469.1913
v -288.0745 0.7264201 469.1913
v -300.0699 0.7264201 468.9781
v -300.0699 0.7264201 468.9781
v -288.1681 0.5324242 474.2391
v -288.1681 0.5324242 474.2391
v -300.1625 0.5324242 474.0099
v -300.1625 0.5324242 474.0099
v -288.2664 0.3385287 479.2496
v -288.2664 0.3385287 479.2496
v -300.2602 0.3385287 479.0107
v -300.2602 0.3385287 479.0107
v -288.3658 0.1646089 484.2489
v -288.3658 0.1646089 484.2489
v -300.3599 0.1646089 484.0141
v -300.3599 0.1646089 484.0141

vn -1.53167E-10 1 8.353356E-08
vn 0 0 0
vn -7.024445E-10 1 8.481427E-08
vn 0 0 0
vn -3.622045E-07 1 2.461199E-05
vn 0 0 0
vn -8.181735E-07 1 4.948011E-05
vn 0 0 0
vn -1.970148E-06 1 0.0001122541
vn 0 0 0
vn -2.956811E-06 1 0.0001511853
vn 0 0 0
vn -4.478401E-06 1 0.000219409
vn 0 0 0
vn -5.534518E-06 1 0.0002499475
vn 0 0 0
vn -6.947516E-06 0.9999999 0.0003032624
vn 0 0 0
vn -7.981883E-06 0.9999999 0.0003275527
vn 0 0 0
vn -9.246813E-06 0.9999999 0.0003694882
vn 0 0 0
vn -1.021509E-05 0.9999999 0.0003888941
vn 0 0 0
vn -1.132983E-05 0.9999999 0.0004222107
vn 0 0 0
vn -1.221241E-05 0.9999999 0.0004377019
vn 0 0 0
vn -1.31702E-05 0.9999999 0.0004638596
vn 0 0 0
vn -1.396012E-05 0.9999999 0.0004761556
vn 0 0 0
vn -1.476918E-05 0.9999999 0.0004965061
vn 0 0 0
vn -1.54622E-05 0.9999999 0.0005060729
vn 0 0 0
vn -1.613189E-05 0.9999998 0.0005215668
vn 0 0 0
vn -1.673213E-05 0.9999999 0.0005288214
vn 0 0 0
vn -1.726705E-05 0.9999999 0.0005400444
vn 0 0 0
vn -1.777906E-05 0.9999998 0.0005452919
vn 0 0 0
vn -1.818791E-05 0.9999998 0.0005528144
vn 0 0 0
vn -1.861235E-05 0.9999999 0.0005562449
vn 0 0 0
vn -1.889882E-05 0.9999999 0.0005604138
vn 0 0 0
vn -1.923791E-05 0.9999999 0.0005621886
vn 0 0 0
vn -1.940684E-05 0.9999998 0.0005632933
vn 0 0 0
vn -1.966395E-05 0.9999999 0.0005635461
vn 0 0 0
vn -1.811073E-05 0.9999999 0.0005162484
vn 0 0 0
vn -1.664818E-05 0.9999999 0.0004693256
vn 0 0 0
vn -9.979834E-06 0.9999999 0.0002804659
vn 0 0 0
vn -5.017099E-06 1 0.0001399148
vn 0 0 0
vn 0 1 0
vn 0 0 0
vn 0 0.9999999 0
vn 0 0 0
vn 0 1 0
vn 0 0 0
vn 0 1 0
vn 0 0 0
vn 0 1 0
vn 0 0 0
vn 0 0.9999999 0
vn 0 0 0
vn 0 1 0
vn 0 0 0
vn 0 1 0
vn 0 0 0
vn 0 1 0
vn 0 0 0
vn 0 1 0
vn 0 0 0
vn 0 1 0
vn 0 0 0
vn 0 1 0
vn 0 0 0
vn 0 1 0
vn 0 0 0
vn 0 0.9999999 0
vn 0 0 0
vn 0 0.9999999 0
vn 0 0 0
vn 0 1 0
vn 0 0 0
vn 0 1 0
vn 0 0 0
vn 0 1 0
vn 0 0 0
vn 0 1 0
vn 0 0 0
vn 0 1 0
vn 0 0 0
vn 0 0.9999999 0
vn 0 0 0
vn 0 1 0
vn 0 0 0
vn 0 1 0
vn 0 0 0
vn 0 1 0
vn 0 0 0
vn 0 1 0
vn 0 0 0
vn 0 1 0
vn 0 0 0
vn 0 1 0
vn 0 0 0
vn 0 0.9999999 0
vn 0 0 0
vn 0 1 0
vn 0 0 0
vn 0 1 0
vn 0 0 0
vn 0 0.9999999 0
vn 0 0 0
vn 0 1 0
vn 0 0 0
vn 1.005196E-06 1 -2.678932E-05
vn 0 0 0
vn 2.002276E-06 0.9999999 -5.36429E-05
vn 0 0 0
vn 1.123609E-05 0.9999999 -0.0003023331
vn 0 0 0
vn 1.929756E-05 0.9999999 -0.0005229675
vn 0 0 0
vn 4.500541E-05 0.9999992 -0.001224853
vn 0 0 0
vn 6.205375E-05 0.9999986 -0.001705103
vn 0 0 0
vn 0.0001059531 0.9999958 -0.002926735
vn 0 0 0
vn 0.0001311208 0.9999933 -0.003666207
vn 0 0 0
vn 0.000191998 0.9999854 -0.005404105
vn 0 0 0
vn 0.0002238896 0.9999796 -0.006397633
vn 0 0 0
vn 0.0002582404 0.9999725 -0.007400444
vn 0 0 0
vn 0.0002547551 0.9999726 -0.007392864
vn 0 0 0
vn 0 0 0
vn 0 0 0
vn -0.02104315 0.7762016 0.6301336
vn 0 0 0
vn -0.0125313 0.9268398 0.3752477
vn 0 0 0
vn -0.008686415 0.965539 0.2601133
vn 0 0 0
vn 1.44757E-05 0.9999999 -0.0004514484
vn 0 0 0
vn 2.819922E-05 0.9999996 -0.0009028896
vn 0 0 0
vn 4.748519E-05 0.9999988 -0.001537216
vn 0 0 0
vn 5.077925E-05 0.9999985 -0.001714574
vn 0 0 0
vn 5.920098E-05 0.9999979 -0.00204646
vn 0 0 0
vn 5.971474E-05 0.9999976 -0.002190484
vn 0 0 0
vn 6.765995E-05 0.9999967 -0.00257329
vn 0 0 0
vn 6.873946E-05 0.9999961 -0.002797284
vn 0 0 0
vn 7.988444E-05 0.9999943 -0.003361027
vn 0 0 0
vn 8.161365E-05 0.9999932 -0.003682774
vn 0 0 0
vn 9.354735E-05 0.9999903 -0.004381864
vn 0 0 0
vn 9.287804E-05 0.9999888 -0.004735619
vn 0 0 0
vn 0.000102978 0.9999848 -0.005505933
vn 0 0 0
vn 9.875689E-05 0.9999826 -0.005891233
vn 0 0 0
vn 0.003873252 0.9651948 -0.2615035
vn 0 0 0
vn 0.00552347 0.9276068 -0.3735173
vn 0 0 0
vn 0.009247459 0.780292 -0.625347
vn 0 0 0
vn 0 0 0
vn 0 0 0
vn 8.858719E-05 0.9999694 -0.007816548
vn 0 0 0
vn 7.296058E-05 0.9999697 -0.007780523
vn 0 0 0
vn 7.835709E-05 0.9999578 -0.009186558
vn 0 0 0
vn 6.104251E-05 0.9999443 -0.01054955
vn 0 0 0
vn 5.672784E-05 0.9999184 -0.0127749
vn 0 0 0
vn 1.902519E-05 0.9999087 -0.01351399
vn 0 0 0
vn -1.759801E-06 0.9998922 -0.01467925
vn 0 0 0
vn -5.034194E-05 0.9998882 -0.01494753
vn 0 0 0
vn -7.741471E-05 0.9998806 -0.01545296
vn 0 0 0
vn -0.0001284878 0.9998797 -0.01551421
vn 0 0 0
vn -0.0003476001 0.999473 -0.03245893
vn 0 0 0
vn -0.0006467367 0.9987961 -0.049049
vn 0 0 0
vn -0.0008815915 0.997829 -0.06585202
vn 0 0 0
vn -0.001002207 0.9978485 -0.06555502
vn 0 0 0
vn 0 0 0
vn 0 0 0
vn 0.01075426 0.7686489 0.6395805
vn 0 0 0
vn 0.006351184 0.9258983 0.3777196
vn 0 0 0
vn 0.004352464 0.966056 0.2582962
vn 0 0 0
vn -0.0002077217 0.9999106 -0.01336708
vn 0 0 0
vn -0.0001604733 0.9999245 -0.01229449
vn 0 0 0
vn -0.0001078087 0.999954 -0.009588631
vn 0 0 0
vn -5.400438E-05 0.9999672 -0.00809343
vn 0 0 0
vn -2.055872E-05 0.9999884 -0.004811793
vn 0 0 0
vn 2.5561E-06 0.9999951 -0.003136279
vn 0 0 0
vn -5.529455E-06 1 0.0002294296
vn 0 0 0
vn -1.709752E-05 0.9999983 0.001875693
vn 0 0 0
vn -4.726199E-05 0.9999875 0.005000091
vn 0 0 0
vn -7.134421E-05 0.9999787 0.006534317
vn 0 0 0
vn -0.0001098902 0.9999552 0.009476557
vn 0 0 0
vn -0.0001416588 0.9999405 0.01090137
vn 0 0 0
vn 0.003721536 0.9655654 -0.2601338
vn 0 0 0
vn 0.005424185 0.9249793 -0.379979
vn 0 0 0
vn 0.009136355 0.7682984 -0.6400267
vn 0 0 0
vn 0 0 0
vn 0 0 0
vn -0.0005490435 0.9994209 0.03402114
vn 0 0 0
vn -0.000578057 0.9994187 0.03408715
vn 0 0 0
vn -0.0006129838 0.9993686 0.0355261
vn 0 0 0
vn -0.0006753432 0.9993142 0.03702337
vn 0 0 0
vn -0.0007190658 0.9992577 0.03851879
vn 0 0 0
vn -0.0007487949 0.9992532 0.03863161
vn 0 0 0
vn -0.0007342835 0.9993008 0.03738054
vn 0 0 0
vn -0.0007146071 0.9993491 0.03606959
vn 0 0 0
vn -0.0006861062 0.9993962 0.03473976
vn 0 0 0
vn -0.0006798072 0.9993967 0.03472547
vn 0 0 0

vt 0 120.1974
vt 0 0
vt 1 120.1974
vt 0 0
vt 0 121.2187
vt 0 121.2187
vt 1 121.2187
vt 1 121.2187
vt 0 122.2277
vt 0 122.2277
vt 1 122.2277
vt 1 122.2277
vt 0 123.2348
vt 0 123.2348
vt 1 123.2348
vt 1 123.2348
vt 0 124.2407
vt 0 124.2407
vt 1 124.2407
vt 1 124.2407
vt 0 125.2494
vt 0 125.2494
vt 1 125.2494
vt 1 125.2494
vt 0 126.2545
vt 0 126.2545
vt 1 126.2545
vt 1 126.2545
vt 0 127.2632
vt 0 127.2632
vt 1 127.2632
vt 1 127.2632
vt 0 128.2714
vt 0 128.2714
vt 1 128.2714
vt 1 128.2714
vt 0 129.2754
vt 0 129.2754
vt 1 129.2754
vt 1 129.2754
vt 0 130.2854
vt 0 130.2854
vt 1 130.2854
vt 1 130.2854
vt 0 131.299
vt 0 131.299
vt 1 131.299
vt 1 131.299
vt 0 132.3137
vt 0 132.3137
vt 1 132.3137
vt 1 132.3137
vt 0 133.3275
vt 0 133.3275
vt 1 133.3275
vt 1 133.3275
vt 0 134.3383
vt 0 134.3383
vt 1 134.3383
vt 1 134.3383
vt 0 135.3442
vt 0 135.3442
vt 1 135.3442
vt 1 135.3442
vt 0 136.358
vt 0 136.358
vt 1 136.358
vt 1 136.358
vt 0 137.3636
vt 0 137.3636
vt 1 137.3636
vt 1 137.3636
vt 0 138.3743
vt 0 138.3743
vt 1 138.3743
vt 1 138.3743
vt 0 139.3887
vt 0 139.3887
vt 1 139.3887
vt 1 139.3887
vt 0 140.3904
vt 0 140.3904
vt 1 140.3904
vt 1 140.3904
vt 0 141.3932
vt 0 141.3932
vt 1 141.3932
vt 1 141.3932
vt 0 142.3956
vt 0 142.3956
vt 1 142.3956
vt 1 142.3956
vt 0 143.3964
vt 0 143.3964
vt 1 143.3964
vt 1 143.3964
vt 0 144.4092
vt 0 144.4092
vt 1 144.4092
vt 1 144.4092
vt 0 145.4177
vt 0 145.4177
vt 1 145.4177
vt 1 145.4177
vt 0 146.4204
vt 0 146.4204
vt 1 146.4204
vt 1 146.4204
vt 0 147.4307
vt 0 147.4307
vt 1 147.4307
vt 1 147.4307
vt 0 148.4323
vt 0 148.4323
vt 1 148.4323
vt 1 148.4323
vt 0 149.4381
vt 0 149.4381
vt 1 149.4381
vt 1 149.4381
vt 0 150.4461
vt 0 150.4461
vt 1 150.4461
vt 1 150.4461
vt 0 151.4542
vt 0 151.4542
vt 1 151.4542
vt 1 151.4542
vt 0 152.4602
vt 0 152.4602
vt 1 152.4602
vt 1 152.4602
vt 0 153.4618
vt 0 153.4618
vt 1 153.4618
vt 1 153.4618
vt 0 154.4694
vt 0 154.4694
vt 1 154.4694
vt 1 154.4694
vt 0 155.4794
vt 0 155.4794
vt 1 155.4794
vt 1 155.4794
vt 0 156.4879
vt 0 156.4879
vt 1 156.4879
vt 1 156.4879
vt 0 157.4904
vt 0 157.4904
vt 1 157.4904
vt 1 157.4904
vt 0 157.4904
vt 0 157.4904
vt 1 157.4904
vt 1 157.4904
vt 0 158.7829
vt 0 158.7829
vt 1 158.7829
vt 1 158.7829
vt 0 159.7913
vt 0 159.7913
vt 1 159.7913
vt 1 159.7913
vt 0 160.7959
vt 0 160.7959
vt 1 160.7959
vt 1 160.7959
vt 0 161.7961
vt 0 161.7961
vt 1 161.7961
vt 1 161.7961
vt 0 162.7967
vt 0 162.7967
vt 1 162.7967
vt 1 162.7967
vt 0 163.8046
vt 0 163.8046
vt 1 163.8046
vt 1 163.8046
vt 0 164.8147
vt 0 164.8147
vt 1 164.8147
vt 1 164.8147
vt 0 165.8246
vt 0 165.8246
vt 1 165.8246
vt 1 165.8246
vt 0 166.826
vt 0 166.826
vt 1 166.826
vt 1 166.826
vt 0 168.111
vt 0 168.111
vt 1 168.111
vt 1 168.111
vt 0 168.111
vt 0 168.111
vt 1 168.111
vt 1 168.111
vt 0 169.1207
vt 0 169.1207
vt 1 169.1207
vt 1 169.1207
vt 0 170.1248
vt 0 170.1248
vt 1 170.1248
vt 1 170.1248
vt 0 171.1265
vt 0 171.1265
vt 1 171.1265
vt 1 171.1265
vt 0 172.1277
vt 0 172.1277
vt 1 172.1277
vt 1 172.1277
vt 0 173.1314
vt 0 173.1314
vt 1 173.1314
vt 1 173.1314
vt 0 174.1369
vt 0 174.1369
vt 1 174.1369
vt 1 174.1369
vt 0 174.1369
vt 0 174.1369
vt 1 174.1369
vt 1 174.1369
vt 0 175.4406
vt 0 175.4406
vt 1 175.4406
vt 1 175.4406
vt 0 176.4469
vt 0 176.4469
vt 1 176.4469
vt 1 176.4469
vt 0 177.4565
vt 0 177.4565
vt 1 177.4565
vt 1 177.4565
vt 0 178.471
vt 0 178.471
vt 1 178.471
vt 1 178.471
vt 0 179.485
vt 0 179.485
vt 1 179.485
vt 1 179.485
vt 0 180.5048
vt 0 180.5048
vt 1 180.5048
vt 1 180.5048
vt 0 181.5087
vt 0 181.5087
vt 1 181.5087
vt 1 181.5087
vt 0 182.522
vt 0 182.522
vt 1 182.522
vt 1 182.522
vt 0 183.837
vt 0 183.837
vt 1 183.837
vt 1 183.837
vt 0 183.837
vt 0 183.837
vt 1 183.837
vt 1 183.837
vt 0 184.8449
vt 0 184.8449
vt 1 184.8449
vt 1 184.8449
vt 0 185.8554
vt 0 185.8554
vt 1 185.8554
vt 1 185.8554
vt 0 186.8584
vt 0 186.8584
vt 1 186.8584
vt 1 186.8584
vt 0 187.8591
vt 0 187.8591
vt 1 187.8591
vt 1 187.8591

usemtl GSDWhiteYellowDouble-4L
usemap GSDWhiteYellowDouble-4L
f 5/5/5 1/1/1 3/3/3
f 7/7/7 5/5/5 3/3/3
f 9/9/9 5/5/5 7/7/7
f 11/11/11 9/9/9 7/7/7
f 13/13/13 9/9/9 11/11/11
f 15/15/15 13/13/13 11/11/11
f 17/17/17 13/13/13 15/15/15
f 19/19/19 17/17/17 15/15/15
f 21/21/21 17/17/17 19/19/19
f 23/23/23 21/21/21 19/19/19
f 25/25/25 21/21/21 23/23/23
f 27/27/27 25/25/25 23/23/23
f 29/29/29 25/25/25 27/27/27
f 31/31/31 29/29/29 27/27/27
f 33/33/33 29/29/29 31/31/31
f 35/35/35 33/33/33 31/31/31
f 37/37/37 33/33/33 35/35/35
f 39/39/39 37/37/37 35/35/35
f 41/41/41 37/37/37 39/39/39
f 43/43/43 41/41/41 39/39/39
f 45/45/45 41/41/41 43/43/43
f 47/47/47 45/45/45 43/43/43
f 49/49/49 45/45/45 47/47/47
f 51/51/51 49/49/49 47/47/47
f 53/53/53 49/49/49 51/51/51
f 55/55/55 53/53/53 51/51/51
f 57/57/57 53/53/53 55/55/55
f 59/59/59 57/57/57 55/55/55
f 61/61/61 57/57/57 59/59/59
f 63/63/63 61/61/61 59/59/59
f 65/65/65 61/61/61 63/63/63
f 67/67/67 65/65/65 63/63/63
f 69/69/69 65/65/65 67/67/67
f 71/71/71 69/69/69 67/67/67
f 73/73/73 69/69/69 71/71/71
f 75/75/75 73/73/73 71/71/71
f 77/77/77 73/73/73 75/75/75
f 79/79/79 77/77/77 75/75/75
f 81/81/81 77/77/77 79/79/79
f 83/83/83 81/81/81 79/79/79
f 85/85/85 81/81/81 83/83/83
f 87/87/87 85/85/85 83/83/83
f 89/89/89 85/85/85 87/87/87
f 91/91/91 89/89/89 87/87/87
f 93/93/93 89/89/89 91/91/91
f 95/95/95 93/93/93 91/91/91
f 97/97/97 93/93/93 95/95/95
f 99/99/99 97/97/97 95/95/95
f 101/101/101 97/97/97 99/99/99
f 103/103/103 101/101/101 99/99/99
f 105/105/105 101/101/101 103/103/103
f 107/107/107 105/105/105 103/103/103
f 109/109/109 105/105/105 107/107/107
f 111/111/111 109/109/109 107/107/107
f 113/113/113 109/109/109 111/111/111
f 115/115/115 113/113/113 111/111/111
f 117/117/117 113/113/113 115/115/115
f 119/119/119 117/117/117 115/115/115
f 121/121/121 117/117/117 119/119/119
f 123/123/123 121/121/121 119/119/119
f 125/125/125 121/121/121 123/123/123
f 127/127/127 125/125/125 123/123/123
f 129/129/129 125/125/125 127/127/127
f 131/131/131 129/129/129 127/127/127
f 133/133/133 129/129/129 131/131/131
f 135/135/135 133/133/133 131/131/131
f 137/137/137 133/133/133 135/135/135
f 139/139/139 137/137/137 135/135/135
f 141/141/141 137/137/137 139/139/139
f 143/143/143 141/141/141 139/139/139
f 145/145/145 141/141/141 143/143/143
f 147/147/147 145/145/145 143/143/143
f 149/149/149 145/145/145 147/147/147
f 151/151/151 149/149/149 147/147/147
f 153/153/153 149/149/149 151/151/151
f 155/155/155 153/153/153 151/151/151
f 157/157/157 153/153/153 155/155/155
f 159/159/159 157/157/157 155/155/155
f 161/161/161 157/157/157 159/159/159
f 163/163/163 161/161/161 159/159/159
f 165/165/165 161/161/161 163/163/163
f 167/167/167 165/165/165 163/163/163
f 169/169/169 165/165/165 167/167/167
f 171/171/171 169/169/169 167/167/167
f 173/173/173 169/169/169 171/171/171
f 175/175/175 173/173/173 171/171/171
f 177/177/177 173/173/173 175/175/175
f 179/179/179 177/177/177 175/175/175
f 181/181/181 177/177/177 179/179/179
f 183/183/183 181/181/181 179/179/179
f 185/185/185 181/181/181 183/183/183
f 187/187/187 185/185/185 183/183/183
f 189/189/189 185/185/185 187/187/187
f 191/191/191 189/189/189 187/187/187
f 193/193/193 189/189/189 191/191/191
f 195/195/195 193/193/193 191/191/191
f 197/197/197 193/193/193 195/195/195
f 199/199/199 197/197/197 195/195/195
f 201/201/201 197/197/197 199/199/199
f 203/203/203 201/201/201 199/199/199
f 205/205/205 201/201/201 203/203/203
f 207/207/207 205/205/205 203/203/203
f 209/209/209 205/205/205 207/207/207
f 211/211/211 209/209/209 207/207/207
f 213/213/213 209/209/209 211/211/211
f 215/215/215 213/213/213 211/211/211
f 217/217/217 213/213/213 215/215/215
f 219/219/219 217/217/217 215/215/215
f 221/221/221 217/217/217 219/219/219
f 223/223/223 221/221/221 219/219/219
f 225/225/225 221/221/221 223/223/223
f 227/227/227 225/225/225 223/223/223
f 229/229/229 225/225/225 227/227/227
f 231/231/231 229/229/229 227/227/227
f 233/233/233 229/229/229 231/231/231
f 235/235/235 233/233/233 231/231/231
f 237/237/237 233/233/233 235/235/235
f 239/239/239 237/237/237 235/235/235
f 241/241/241 237/237/237 239/239/239
f 243/243/243 241/241/241 239/239/239
f 245/245/245 241/241/241 243/243/243
f 247/247/247 245/245/245 243/243/243
f 249/249/249 245/245/245 247/247/247
f 251/251/251 249/249/249 247/247/247
f 253/253/253 249/249/249 251/251/251
f 255/255/255 253/253/253 251/251/251
f 257/257/257 253/253/253 255/255/255
f 259/259/259 257/257/257 255/255/255
f 261/261/261 257/257/257 259/259/259
f 263/263/263 261/261/261 259/259/259
f 265/265/265 261/261/261 263/263/263
f 267/267/267 265/265/265 263/263/263
f 269/269/269 265/265/265 267/267/267
f 271/271/271 269/269/269 267/267/267
f 273/273/273 269/269/269 271/271/271
f 275/275/275 273/273/273 271/271/271
f 277/277/277 273/273/273 275/275/275
f 279/279/279 277/277/277 275/275/275
f 281/281/281 277/277/277 279/279/279
f 283/283/283 281/281/281 279/279/279
