mtllib ./Road3_2_18.mtl
g SCutR3
v -151.4901 0.02980594 140.9962
v -151.4901 0.02980594 140.9962
v -148.677 0.02980594 139.9539
v -148.677 0.02980594 139.9539
v -148.677 0.02980594 139.9539
v -148.677 0.02980594 139.9539
v -146.5672 -0.3488016 139.1721
v -146.5672 -0.3488016 139.1721
v -153.7874 0.03 135.7337
v -153.7874 0.03 135.7337
v -151.1183 0.03 134.3641
v -151.1183 0.03 134.3641
v -151.1183 0.03 134.3641
v -151.1183 0.03 134.3641
v -149.1165 -0.3488016 133.3369
v -149.1165 -0.3488016 133.3369
v -156.8215 0.03000012 130.7098
v -156.8215 0.03000012 130.7098
v -154.3755 0.03000012 128.9729
v -154.3755 0.03000012 128.9729
v -154.3755 0.03000012 128.9729
v -154.3755 0.03000012 128.9729
v -152.541 -0.3488016 127.6702
v -152.541 -0.3488016 127.6702
v -160.7106 0.03048129 126.1083
v -160.7106 0.03048129 126.1083
v -158.595 0.03048129 123.9812
v -158.595 0.03048129 123.9812
v -158.595 0.03048129 123.9812
v -158.595 0.03048129 123.9812
v -157.0084 -0.3488016 122.3859
v -157.0084 -0.3488016 122.3859
v -165.3416 0.03376359 122.2332
v -165.3416 0.03376359 122.2332
v -163.6128 0.03376359 119.7814
v -163.6128 0.03376359 119.7814
v -163.6128 0.03376359 119.7814
v -163.6128 0.03376359 119.7814
v -162.3163 -0.3488016 117.9425
v -162.3163 -0.3488016 117.9425
v -170.2935 0.04287318 119.2243
v -170.2935 0.04287318 119.2243
v -168.8939 0.04287318 116.5708
v -168.8939 0.04287318 116.5708
v -168.8939 0.04287318 116.5708
v -168.8939 0.04287318 116.5708
v -167.8442 -0.3488016 114.5806
v -167.8442 -0.3488016 114.5806
v -175.2328 0.06081828 116.8761
v -175.2328 0.06081828 116.8761
v -174.0365 0.06081828 114.1249
v -174.0365 0.06081828 114.1249
v -174.0365 0.06081828 114.1249
v -174.0365 0.06081828 114.1249
v -173.1393 -0.3416279 112.0616
v -173.1393 -0.3416279 112.0616
v -180.0611 0.09076157 114.8776
v -180.0611 0.09076157 114.8776
v -178.9449 0.09076157 112.093
v -178.9449 0.09076157 112.093
v -178.9449 0.09076157 112.093
v -178.9449 0.09076157 112.093
v -178.1078 -0.3298517 110.0046
v -178.1078 -0.3298517 110.0046
v -184.7211 0.13 113.0091
v -184.7211 0.13 113.0091
v -183.5915 0.13 110.2299
v -183.5915 0.13 110.2299
v -183.5915 0.13 110.2299
v -183.5915 0.13 110.2299
v -182.7443 -0.3298517 108.1455
v -182.7443 -0.3298517 108.1455
v -189.212 0.13 111.1212
v -189.212 0.13 111.1212
v -188.0086 0.13 108.3732
v -188.0086 0.13 108.3732
v -188.0086 0.13 108.3732
v -188.0086 0.13 108.3732
v -187.1061 -0.3298517 106.3121
v -187.1061 -0.3298517 106.3121
v -193.5862 0.13 109.105
v -193.5862 0.13 109.105
v -192.2739 0.13 106.4073
v -192.2739 0.13 106.4073
v -192.2739 0.13 106.4073
v -192.2739 0.13 106.4073
v -191.2896 -0.3298517 104.384
v -191.2896 -0.3298517 104.384
v -199.6313 0.13 105.9025
v -199.6313 0.13 105.9025
v -195.4413 0.13 102.7393
v -195.4413 0.13 102.7393
v -195.4413 0.13 102.7393
v -195.4413 0.13 102.7393
v -194.8427 -0.3150287 102.2875
v -194.8427 -0.3150287 102.2875
v -199.6313 0.13 105.9025
v -199.6313 0.13 105.9025
v -195.4413 0.13 102.7393
v -195.4413 0.13 102.7393
v -195.4413 0.13 102.7393
v -195.4413 0.13 102.7393
v -194.8427 -0.3150287 102.2875
v -194.8427 -0.3150287 102.2875
v -199.6313 0.13 105.9025
v -199.6313 0.13 105.9025
v -195.4413 0.13 102.7393
v -195.4413 0.13 102.7393
v -195.4413 0.13 102.7393
v -195.4413 0.13 102.7393
v -194.8427 -0.2931038 102.2875
v -194.8427 -0.2931038 102.2875
v -199.6313 0.13 105.9025
v -199.6313 0.13 105.9025
v -195.4413 0.13 102.7393
v -195.4413 0.13 102.7393
v -195.4413 0.13 102.7393
v -195.4413 0.13 102.7393
v -194.8427 -0.2931038 102.2875
v -194.8427 -0.2931038 102.2875
v -199.6313 0.13 105.9025
v -199.6313 0.13 105.9025
v -195.4413 0.13 102.7393
v -195.4413 0.13 102.7393
v -195.4413 0.13 102.7393
v -195.4413 0.13 102.7393
v -194.8427 -0.2931038 102.2875
v -194.8427 -0.2931038 102.2875
v -199.6313 0.13 105.9025
v -199.6313 0.13 105.9025
v -195.4413 0.13 102.7393
v -195.4413 0.13 102.7393
v -195.4413 0.13 102.7393
v -195.4413 0.13 102.7393
v -194.8427 -0.2931038 102.2875
v -194.8427 -0.2931038 102.2875

vn 1.176143E-05 1 3.174195E-05
vn 0 0 0
vn 1.319915E-05 1 3.000092E-05
vn 0 0 0
vn 0.1523173 0.9860925 -0.06649069
vn 0 0 0
vn 0.1523705 0.9860808 -0.06654195
vn 0 0 0
vn 8.830015E-06 1 2.006915E-05
vn 0 0 0
vn 4.86807E-06 0.9999999 9.48502E-06
vn 0 0 0
vn 0.149044 0.9861253 -0.07309233
vn 0 0 0
vn 0.1457508 0.9861103 -0.07964423
vn 0 0 0
vn 1.536467E-05 0.9999999 2.163831E-05
vn 0 0 0
vn 3.297529E-05 1 3.892832E-05
vn 0 0 0
vn 0.1373641 0.9861194 -0.09327132
vn 0 0 0
vn 0.1323401 0.986095 -0.1005119
vn 0 0 0
vn 0.0001590285 1 0.0001643824
vn 0 0 0
vn 0.0002809067 1 0.0002386124
vn 0 0 0
vn 0.1208334 0.9860883 -0.1141461
vn 0 0 0
vn 0.1143958 0.9860002 -0.1213146
vn 0 0 0
vn 0.0006799169 0.9999996 0.0005161708
vn 0 0 0
vn 0.0009845134 0.9999993 0.0006166772
vn 0 0 0
vn 0.1016486 0.9859114 -0.1328396
vn 0 0 0
vn 0.09562598 0.9856341 -0.139216
vn 0 0 0
vn 0.001801676 0.9999979 0.001026247
vn 0 0 0
vn 0.002331167 0.9999967 0.001141602
vn 0 0 0
vn 0.08502513 0.9853967 -0.1475266
vn 0 0 0
vn 0.08116625 0.9849216 -0.1527792
vn 0 0 0
vn 0.003650015 0.999992 0.001676877
vn 0 0 0
vn 0.004418831 0.9999884 0.001863215
vn 0 0 0
vn 0.07531193 0.9846434 -0.1574974
vn 0 0 0
vn 0.07393298 0.9839201 -0.162589
vn 0 0 0
vn 0.005892525 0.9999797 0.002421953
vn 0 0 0
vn 0.006556071 0.999975 0.002641228
vn 0 0 0
vn 0.07337991 0.9834421 -0.1657021
vn 0 0 0
vn 0.07407608 0.9819445 -0.1740625
vn 0 0 0
vn 0.00488457 0.9999862 0.001971612
vn 0 0 0
vn 0.00247815 0.9999964 0.00100723
vn 0 0 0
vn 0.07586484 0.980861 -0.1793216
vn 0 0 0
vn 0.07653957 0.9797457 -0.1850402
vn 0 0 0
vn 0 1 0
vn 0 0 0
vn 0 1 0
vn 0 0 0
vn 0.07965736 0.9797472 -0.1837117
vn 0 0 0
vn 0.08173072 0.9797454 -0.182809
vn 0 0 0
vn 0 1 0
vn 0 0 0
vn 0 0.9999999 0
vn 0 0 0
vn 0.1100585 0.9794409 -0.1690639
vn 0 0 0
vn 0.1462462 0.9675248 -0.2061742
vn 0 0 0
vn 0 1 0
vn 0 0 0
vn 0 1 0
vn 0 0 0
vn 0.1947116 0.9548122 -0.2245459
vn 0 0 0
vn 0.2766504 0.8421373 -0.4628922
vn 0 0 0
vn 0 0 0
vn 0 0 0
vn 0 0 0
vn 0 0 0
vn 0 0 0
vn 0 0 0
vn 0.6025138 0 0.7981085
vn 0 0 0
vn 0 0 0
vn 0 0 0
vn 0 0 0
vn 0 0 0
vn 0.6025138 0 0.7981085
vn 0 0 0
vn 0.6025138 0 0.7981085
vn 0 0 0
vn 0 0 0
vn 0 0 0
vn 0 0 0
vn 0 0 0
vn 0 0 0
vn 0 0 0
vn 0 0 0
vn 0 0 0
vn 0 0 0
vn 0 0 0
vn 0 0 0
vn 0 0 0
vn 0 0 0
vn 0 0 0
vn 0 0 0
vn 0 0 0
vn 0 0 0
vn 0 0 0
vn 0 0 0
vn 0 0 0
vn 0 0 0
vn 0 0 0
vn 0 0 0
vn 0 0 0

vt 0 0
vt 0 0
vt -0.562619 -0.2084686
vt -0.562619 -0.2084686
vt -0.562619 -0.2084686
vt -0.562619 -0.2084686
vt -0.9845825 -0.3648224
vt -0.9845825 -0.3648224
vt 0.4594696 -1.052496
vt 0.4594696 -1.052496
vt -0.07435303 -1.326416
vt -0.07435303 -1.326416
vt -0.07435303 -1.326416
vt -0.07435303 -1.326416
vt -0.4747193 -1.531857
vt -0.4747193 -1.531857
vt 1.066296 -2.057272
vt 1.066296 -2.057272
vt 0.5770966 -2.404663
vt 0.5770966 -2.404663
vt 0.5770966 -2.404663
vt 0.5770966 -2.404663
vt 0.2101929 -2.66521
vt 0.2101929 -2.66521
vt 1.844101 -2.977579
vt 1.844101 -2.977579
vt 1.420996 -3.402997
vt 1.420996 -3.402997
vt 1.420996 -3.402997
vt 1.420996 -3.402997
vt 1.103668 -3.722063
vt 1.103668 -3.722063
vt 2.7703 -3.752597
vt 2.7703 -3.752597
vt 2.424555 -4.242964
vt 2.424555 -4.242964
vt 2.424555 -4.242964
vt 2.424555 -4.242964
vt 2.165244 -4.610738
vt 2.165244 -4.610738
vt 3.760693 -4.35439
vt 3.760693 -4.35439
vt 3.480771 -4.885089
vt 3.480771 -4.885089
vt 3.480771 -4.885089
vt 3.480771 -4.885089
vt 3.270828 -5.283115
vt 3.270828 -5.283115
vt 4.748538 -4.824019
vt 4.748538 -4.824019
vt 4.509284 -5.374252
vt 4.509284 -5.374252
vt 4.509284 -5.374252
vt 4.509284 -5.374252
vt 4.329843 -5.78693
vt 4.329843 -5.78693
vt 5.714203 -5.223711
vt 5.714203 -5.223711
vt 5.490964 -5.780635
vt 5.490964 -5.780635
vt 5.490964 -5.780635
vt 5.490964 -5.780635
vt 5.323538 -6.198329
vt 5.323538 -6.198329
vt 6.64621 -5.597425
vt 6.64621 -5.597425
vt 6.420291 -6.153265
vt 6.420291 -6.153265
vt 6.420291 -6.153265
vt 6.420291 -6.153265
vt 6.250852 -6.570148
vt 6.250852 -6.570148
vt 7.544394 -5.974994
vt 7.544394 -5.974994
vt 7.303714 -6.524606
vt 7.303714 -6.524606
vt 7.303714 -6.524606
vt 7.303714 -6.524606
vt 7.123206 -6.936815
vt 7.123206 -6.936815
vt 8.419232 -6.378238
vt 8.419232 -6.378238
vt 8.156766 -6.917786
vt 8.156766 -6.917786
vt 8.156766 -6.917786
vt 8.156766 -6.917786
vt 7.959915 -7.322446
vt 7.959915 -7.322446
vt 9.628253 -7.018736
vt 9.628253 -7.018736
vt 8.790237 -7.651372
vt 8.790237 -7.651372
vt 8.790237 -7.651372
vt 8.790237 -7.651372
vt 8.67052 -7.74175
vt 8.67052 -7.74175
vt 9.628253 -7.018736
vt 9.628253 -7.018736
vt 8.790237 -7.651372
vt 8.790237 -7.651372
vt 8.790237 -7.651372
vt 8.790237 -7.651372
vt 8.67052 -7.74175
vt 8.67052 -7.74175
vt 9.628253 -7.018736
vt 9.628253 -7.018736
vt 8.790237 -7.651372
vt 8.790237 -7.651372
vt 8.790237 -7.651372
vt 8.790237 -7.651372
vt 8.67052 -7.74175
vt 8.67052 -7.74175
vt 9.628253 -7.018736
vt 9.628253 -7.018736
vt 8.790237 -7.651372
vt 8.790237 -7.651372
vt 8.790237 -7.651372
vt 8.790237 -7.651372
vt 8.67052 -7.74175
vt 8.67052 -7.74175
vt 9.628253 -7.018736
vt 9.628253 -7.018736
vt 8.790237 -7.651372
vt 8.790237 -7.651372
vt 8.790237 -7.651372
vt 8.790237 -7.651372
vt 8.67052 -7.74175
vt 8.67052 -7.74175
vt 9.628253 -7.018736
vt 9.628253 -7.018736
vt 8.790237 -7.651372
vt 8.790237 -7.651372
vt 8.790237 -7.651372
vt 8.790237 -7.651372
vt 8.67052 -7.74175
vt 8.67052 -7.74175

usemtl GSDShoulder1
usemap GSDShoulder1
f 9/9/9 1/1/1 3/3/3
f 11/11/11 9/9/9 3/3/3
f 13/13/13 5/5/5 7/7/7
f 15/15/15 13/13/13 7/7/7
f 17/17/17 9/9/9 11/11/11
f 19/19/19 17/17/17 11/11/11
f 21/21/21 13/13/13 15/15/15
f 23/23/23 21/21/21 15/15/15
f 25/25/25 17/17/17 19/19/19
f 27/27/27 25/25/25 19/19/19
f 29/29/29 21/21/21 23/23/23
f 31/31/31 29/29/29 23/23/23
f 33/33/33 25/25/25 27/27/27
f 35/35/35 33/33/33 27/27/27
f 37/37/37 29/29/29 31/31/31
f 39/39/39 37/37/37 31/31/31
f 41/41/41 33/33/33 35/35/35
f 43/43/43 41/41/41 35/35/35
f 45/45/45 37/37/37 39/39/39
f 47/47/47 45/45/45 39/39/39
f 49/49/49 41/41/41 43/43/43
f 51/51/51 49/49/49 43/43/43
f 53/53/53 45/45/45 47/47/47
f 55/55/55 53/53/53 47/47/47
f 57/57/57 49/49/49 51/51/51
f 59/59/59 57/57/57 51/51/51
f 61/61/61 53/53/53 55/55/55
f 63/63/63 61/61/61 55/55/55
f 65/65/65 57/57/57 59/59/59
f 67/67/67 65/65/65 59/59/59
f 69/69/69 61/61/61 63/63/63
f 71/71/71 69/69/69 63/63/63
f 73/73/73 65/65/65 67/67/67
f 75/75/75 73/73/73 67/67/67
f 77/77/77 69/69/69 71/71/71
f 79/79/79 77/77/77 71/71/71
f 81/81/81 73/73/73 75/75/75
f 83/83/83 81/81/81 75/75/75
f 85/85/85 77/77/77 79/79/79
f 87/87/87 85/85/85 79/79/79
f 89/89/89 81/81/81 83/83/83
f 91/91/91 89/89/89 83/83/83
f 93/93/93 85/85/85 87/87/87
f 95/95/95 93/93/93 87/87/87
f 97/97/97 89/89/89 91/91/91
f 99/99/99 97/97/97 91/91/91
f 101/101/101 93/93/93 95/95/95
f 103/103/103 101/101/101 95/95/95
f 105/105/105 97/97/97 99/99/99
f 107/107/107 105/105/105 99/99/99
f 109/109/109 101/101/101 103/103/103
f 111/111/111 109/109/109 103/103/103
f 113/113/113 105/105/105 107/107/107
f 115/115/115 113/113/113 107/107/107
f 117/117/117 109/109/109 111/111/111
f 119/119/119 117/117/117 111/111/111
f 121/121/121 113/113/113 115/115/115
f 123/123/123 121/121/121 115/115/115
f 125/125/125 117/117/117 119/119/119
f 127/127/127 125/125/125 119/119/119
f 129/129/129 121/121/121 123/123/123
f 131/131/131 129/129/129 123/123/123
f 133/133/133 125/125/125 127/127/127
f 135/135/135 133/133/133 127/127/127
