mtllib ./Road3_2_20.mtl
g SCutL1
v -166.949 0.07805937 275.2661
v -166.949 0.07805937 275.2661
v -164.073 0.07805937 276.1197
v -164.073 0.07805937 276.1197
v -169.106 -0.3139829 274.6258
v -169.106 -0.3139829 274.6258
v -166.949 0.07805937 275.2661
v -166.949 0.07805937 275.2661
v -165.7397 0.06950267 270.8199
v -165.7397 0.06950267 270.8199
v -162.8283 0.06950267 271.5437
v -162.8283 0.06950267 271.5437
v -167.9232 -0.3204032 270.2771
v -167.9232 -0.3204032 270.2771
v -165.7397 0.06950267 270.8199
v -165.7397 0.06950267 270.8199
v -164.7026 0.06236896 266.2575
v -164.7026 0.06236896 266.2575
v -161.765 0.06236896 266.8662
v -161.765 0.06236896 266.8662
v -166.9058 -0.3256726 265.801
v -166.9058 -0.3256726 265.801
v -164.7026 0.06236896 266.2575
v -164.7026 0.06236896 266.2575
v -163.8233 0.05646401 261.6025
v -163.8233 0.05646401 261.6025
v -160.8666 0.05646401 262.1099
v -160.8666 0.05646401 262.1099
v -166.0409 -0.3301582 261.222
v -166.0409 -0.3301582 261.222
v -163.8233 0.05646401 261.6025
v -163.8233 0.05646401 261.6025
v -163.0867 0.05160184 256.8759
v -163.0867 0.05160184 256.8759
v -160.1161 0.05160184 257.2946
v -160.1161 0.05160184 257.2946
v -165.3147 -0.3338078 256.5619
v -165.3147 -0.3338078 256.5619
v -163.0867 0.05160184 256.8759
v -163.0867 0.05160184 256.8759
v -162.4778 0.04760807 252.0979
v -162.4778 0.04760807 252.0979
v -159.4973 0.04760807 252.4397
v -159.4973 0.04760807 252.4397
v -164.7131 -0.3369111 251.8416
v -164.7131 -0.3369111 251.8416
v -162.4778 0.04760807 252.0979
v -162.4778 0.04760807 252.0979
v -161.9817 0.04431901 247.2879
v -161.9817 0.04431901 247.2879
v -158.9944 0.04431901 247.5634
v -158.9944 0.04431901 247.5634
v -164.2222 -0.3395243 247.0813
v -164.2222 -0.3395243 247.0813
v -161.9817 0.04431901 247.2879
v -161.9817 0.04431901 247.2879
v -161.5841 0.04158097 242.4639
v -161.5841 0.04158097 242.4639
v -158.5921 0.04158097 242.6828
v -158.5921 0.04158097 242.6828
v -163.8281 -0.3421332 242.2996
v -163.8281 -0.3421332 242.2996
v -161.5841 0.04158097 242.4639
v -161.5841 0.04158097 242.4639
v -161.2674 0.03922293 237.5827
v -161.2674 0.03922293 237.5827
v -158.2723 0.03922293 237.7537
v -158.2723 0.03922293 237.7537
v -163.5137 -0.3442296 237.4545
v -163.5137 -0.3442296 237.4545
v -161.2674 0.03922293 237.5827
v -161.2674 0.03922293 237.5827
v -161.0204 0.03711719 232.6587
v -161.0204 0.03711719 232.6587
v -158.0232 0.03711719 232.7898
v -158.0232 0.03711719 232.7898
v -163.2682 -0.3466672 232.5605
v -163.2682 -0.3466672 232.5605
v -161.0204 0.03711719 232.6587
v -161.0204 0.03711719 232.6587
v -160.8315 0.035136 227.7056
v -160.8315 0.035136 227.7056
v -157.8331 0.035136 227.8046
v -157.8331 0.035136 227.8046
v -163.0802 -0.3488016 227.6315
v -163.0802 -0.3488016 227.6315
v -160.8315 0.035136 227.7056
v -160.8315 0.035136 227.7056
v -160.6889 0.03315159 222.7371
v -160.6889 0.03315159 222.7371
v -157.6898 0.03315159 222.8115
v -157.6898 0.03315159 222.8115
v -162.9382 -0.3488016 222.6813
v -162.9382 -0.3488016 222.6813
v -160.6889 0.03315159 222.7371
v -160.6889 0.03315159 222.7371
v -160.5808 0.03103627 217.7666
v -160.5808 0.03103627 217.7666
v -157.5813 0.03103627 217.8239
v -157.5813 0.03103627 217.8239
v -162.8304 -0.3488016 217.7235
v -162.8304 -0.3488016 217.7235
v -160.5808 0.03103627 217.7666
v -160.5808 0.03103627 217.7666
v -160.4906 0.02881213 212.7584
v -160.4906 0.02881213 212.7584
v -157.4911 0.02881213 212.8126
v -157.4911 0.02881213 212.8126
v -162.7403 -0.3488016 212.7177
v -162.7403 -0.3488016 212.7177
v -160.4906 0.02881213 212.7584
v -160.4906 0.02881213 212.7584
v -160.4024 0.02714802 207.7707
v -160.4024 0.02714802 207.7707
v -157.4028 0.02714802 207.8211
v -157.4028 0.02714802 207.8211
v -162.652 -0.3488016 207.7329
v -162.652 -0.3488016 207.7329
v -160.4024 0.02714802 207.7707
v -160.4024 0.02714802 207.7707

vn 0.0005285807 0.9999983 -0.001780769
vn 0 0 0
vn 0.0004813325 0.9999984 -0.00176591
vn 0 0 0
vn -0.1652817 0.985154 -0.04640651
vn 0 0 0
vn -0.1648141 0.9852277 -0.04650372
vn 0 0 0
vn 0.0004435067 0.9999985 -0.001670531
vn 0 0 0
vn 0.0003681227 0.9999987 -0.001562592
vn 0 0 0
vn -0.1652996 0.9852625 -0.04397419
vn 0 0 0
vn -0.1653562 0.985358 -0.04155732
vn 0 0 0
vn 0.0003072753 0.999999 -0.001385633
vn 0 0 0
vn 0.0002535432 0.9999992 -0.001293277
vn 0 0 0
vn -0.166181 0.9854065 -0.03685205
vn 0 0 0
vn -0.1661689 0.9854848 -0.03475289
vn 0 0 0
vn 0.0002102362 0.9999993 -0.001141702
vn 0 0 0
vn 0.0001724235 0.9999995 -0.001064218
vn 0 0 0
vn -0.1667586 0.9855213 -0.03064859
vn 0 0 0
vn -0.1667136 0.9855841 -0.02882172
vn 0 0 0
vn 0.0001422193 0.9999996 -0.0009370644
vn 0 0 0
vn 0.0001159544 0.9999996 -0.0008734209
vn 0 0 0
vn -0.1671076 0.9856148 -0.02526792
vn 0 0 0
vn -0.167042 0.985665 -0.023695
vn 0 0 0
vn 9.535998E-05 0.9999997 -0.0007693291
vn 0 0 0
vn 7.734633E-05 0.9999997 -0.0007183812
vn 0 0 0
vn -0.1673144 0.9856876 -0.02063717
vn 0 0 0
vn -0.1672555 0.985725 -0.01928371
vn 0 0 0
vn 6.366793E-05 0.9999998 -0.0006358734
vn 0 0 0
vn 5.145746E-05 0.9999999 -0.0005965187
vn 0 0 0
vn -0.1674336 0.9857419 -0.01669695
vn 0 0 0
vn -0.1674322 0.985761 -0.0155473
vn 0 0 0
vn 4.261558E-05 0.9999999 -0.0005338278
vn 0 0 0
vn 3.43825E-05 0.9999999 -0.0005049551
vn 0 0 0
vn -0.1676017 0.9857646 -0.01333625
vn 0 0 0
vn -0.1676242 0.9857737 -0.01233869
vn 0 0 0
vn 2.88956E-05 0.9999999 -0.0004612442
vn 0 0 0
vn 2.334164E-05 0.9999999 -0.0004420797
vn 0 0 0
vn -0.1677088 0.9857805 -0.01052087
vn 0 0 0
vn -0.1677696 0.9857785 -0.009699494
vn 0 0 0
vn 2.00939E-05 0.9999999 -0.0004163317
vn 0 0 0
vn 1.634877E-05 0.9999999 -0.0004065012
vn 0 0 0
vn -0.1678958 0.9857706 -0.008193981
vn 0 0 0
vn -0.1679986 0.9857588 -0.007493255
vn 0 0 0
vn 1.456856E-05 0.9999999 -0.0003984172
vn 0 0 0
vn 1.203442E-05 0.9999999 -0.0003976928
vn 0 0 0
vn -0.168073 0.9857553 -0.006153312
vn 0 0 0
vn -0.1678328 0.9857995 -0.005606821
vn 0 0 0
vn 1.118601E-05 0.9999999 -0.0004071542
vn 0 0 0
vn 9.501348E-06 0.9999999 -0.0004154573
vn 0 0 0
vn -0.167583 0.9858475 -0.004552503
vn 0 0 0
vn -0.1670082 0.9859462 -0.004291411
vn 0 0 0
vn 9.046256E-06 0.9999999 -0.0004310998
vn 0 0 0
vn 8.20762E-06 0.9999999 -0.0004372098
vn 0 0 0
vn -0.1667235 0.9859973 -0.00355704
vn 0 0 0
vn -0.1661087 0.9861013 -0.003482536
vn 0 0 0
vn 7.518569E-06 0.9999999 -0.0004071649
vn 0 0 0
vn 6.555886E-06 0.9999999 -0.0003702759
vn 0 0 0
vn -0.1658008 0.9861543 -0.00311392
vn 0 0 0
vn -0.1652467 0.9862471 -0.003197469
vn 0 0 0
vn 5.817567E-06 0.9999999 -0.0003334128
vn 0 0 0
vn 5.60168E-06 0.9999999 -0.0003332881
vn 0 0 0
vn -0.1651302 0.9862669 -0.003087641
vn 0 0 0
vn -0.1647729 0.9863262 -0.003245739
vn 0 0 0

vt 0 0
vt 0 0
vt -0.5751953 0.1707336
vt -0.5751953 0.1707336
vt 0.4313965 -0.1280518
vt 0.4313965 -0.1280518
vt 0 0
vt 0 0
vt -0.2418549 -0.8892212
vt -0.2418549 -0.8892212
vt -0.8241302 -0.7444641
vt -0.8241302 -0.7444641
vt 0.1948517 -0.9977905
vt 0.1948517 -0.9977905
vt -0.2418549 -0.8892212
vt -0.2418549 -0.8892212
vt -0.4492706 -1.801709
vt -0.4492706 -1.801709
vt -1.036792 -1.679974
vt -1.036792 -1.679974
vt -0.008630372 -1.893011
vt -0.008630372 -1.893011
vt -0.4492706 -1.801709
vt -0.4492706 -1.801709
vt -0.6251282 -2.732703
vt -0.6251282 -2.732703
vt -1.216486 -2.631238
vt -1.216486 -2.631238
vt -0.1816101 -2.808801
vt -0.1816101 -2.808801
vt -0.6251282 -2.732703
vt -0.6251282 -2.732703
vt -0.7724549 -3.678027
vt -0.7724549 -3.678027
vt -1.366583 -3.594287
vt -1.366583 -3.594287
vt -0.3268616 -3.740833
vt -0.3268616 -3.740833
vt -0.7724549 -3.678027
vt -0.7724549 -3.678027
vt -0.8942444 -4.633627
vt -0.8942444 -4.633627
vt -1.490338 -4.565277
vt -1.490338 -4.565277
vt -0.4471741 -4.684888
vt -0.4471741 -4.684888
vt -0.8942444 -4.633627
vt -0.8942444 -4.633627
vt -0.993454 -5.59563
vt -0.993454 -5.59563
vt -1.590918 -5.540536
vt -1.590918 -5.540536
vt -0.5453553 -5.636951
vt -0.5453553 -5.636951
vt -0.993454 -5.59563
vt -0.993454 -5.59563
vt -1.072974 -6.560437
vt -1.072974 -6.560437
vt -1.671375 -6.516641
vt -1.671375 -6.516641
vt -0.624176 -6.593283
vt -0.624176 -6.593283
vt -1.072974 -6.560437
vt -1.072974 -6.560437
vt -1.136322 -7.536661
vt -1.136322 -7.536661
vt -1.735345 -7.502466
vt -1.735345 -7.502466
vt -0.6870514 -7.562305
vt -0.6870514 -7.562305
vt -1.136322 -7.536661
vt -1.136322 -7.536661
vt -1.185727 -8.521463
vt -1.185727 -8.521463
vt -1.785153 -8.495255
vt -1.785153 -8.495255
vt -0.7361572 -8.54112
vt -0.7361572 -8.54112
vt -1.185727 -8.521463
vt -1.185727 -8.521463
vt -1.223508 -9.512082
vt -1.223508 -9.512082
vt -1.823181 -9.492297
vt -1.823181 -9.492297
vt -0.7737519 -9.526919
vt -0.7737519 -9.526919
vt -1.223508 -9.512082
vt -1.223508 -9.512082
vt -1.252014 -10.50579
vt -1.252014 -10.50579
vt -1.851831 -10.49091
vt -1.851831 -10.49091
vt -0.8021545 -10.51695
vt -0.8021545 -10.51695
vt -1.252014 -10.50579
vt -1.252014 -10.50579
vt -1.273642 -11.4999
vt -1.273642 -11.4999
vt -1.873532 -11.48843
vt -1.873532 -11.48843
vt -0.8237244 -11.5085
vt -0.8237244 -11.5085
vt -1.273642 -11.4999
vt -1.273642 -11.4999
vt -1.291669 -12.50154
vt -1.291669 -12.50154
vt -1.891568 -12.49068
vt -1.891568 -12.49068
vt -0.841742 -12.50967
vt -0.841742 -12.50967
vt -1.291669 -12.50154
vt -1.291669 -12.50154
vt -1.309326 -13.49907
vt -1.309326 -13.49907
vt -1.909244 -13.48899
vt -1.909244 -13.48899
vt -0.8593903 -13.50664
vt -0.8593903 -13.50664
vt -1.309326 -13.49907
vt -1.309326 -13.49907

usemtl GSDShoulder1
usemap GSDShoulder1
f 9/9/9 1/1/1 3/3/3
f 11/11/11 9/9/9 3/3/3
f 13/13/13 5/5/5 7/7/7
f 15/15/15 13/13/13 7/7/7
f 17/17/17 9/9/9 11/11/11
f 19/19/19 17/17/17 11/11/11
f 21/21/21 13/13/13 15/15/15
f 23/23/23 21/21/21 15/15/15
f 25/25/25 17/17/17 19/19/19
f 27/27/27 25/25/25 19/19/19
f 29/29/29 21/21/21 23/23/23
f 31/31/31 29/29/29 23/23/23
f 33/33/33 25/25/25 27/27/27
f 35/35/35 33/33/33 27/27/27
f 37/37/37 29/29/29 31/31/31
f 39/39/39 37/37/37 31/31/31
f 41/41/41 33/33/33 35/35/35
f 43/43/43 41/41/41 35/35/35
f 45/45/45 37/37/37 39/39/39
f 47/47/47 45/45/45 39/39/39
f 49/49/49 41/41/41 43/43/43
f 51/51/51 49/49/49 43/43/43
f 53/53/53 45/45/45 47/47/47
f 55/55/55 53/53/53 47/47/47
f 57/57/57 49/49/49 51/51/51
f 59/59/59 57/57/57 51/51/51
f 61/61/61 53/53/53 55/55/55
f 63/63/63 61/61/61 55/55/55
f 65/65/65 57/57/57 59/59/59
f 67/67/67 65/65/65 59/59/59
f 69/69/69 61/61/61 63/63/63
f 71/71/71 69/69/69 63/63/63
f 73/73/73 65/65/65 67/67/67
f 75/75/75 73/73/73 67/67/67
f 77/77/77 69/69/69 71/71/71
f 79/79/79 77/77/77 71/71/71
f 81/81/81 73/73/73 75/75/75
f 83/83/83 81/81/81 75/75/75
f 85/85/85 77/77/77 79/79/79
f 87/87/87 85/85/85 79/79/79
f 89/89/89 81/81/81 83/83/83
f 91/91/91 89/89/89 83/83/83
f 93/93/93 85/85/85 87/87/87
f 95/95/95 93/93/93 87/87/87
f 97/97/97 89/89/89 91/91/91
f 99/99/99 97/97/97 91/91/91
f 101/101/101 93/93/93 95/95/95
f 103/103/103 101/101/101 95/95/95
f 105/105/105 97/97/97 99/99/99
f 107/107/107 105/105/105 99/99/99
f 109/109/109 101/101/101 103/103/103
f 111/111/111 109/109/109 103/103/103
f 113/113/113 105/105/105 107/107/107
f 115/115/115 113/113/113 107/107/107
f 117/117/117 109/109/109 111/111/111
f 119/119/119 117/117/117 111/111/111
