mtllib ./Road1_3_27.mtl
g SCutL1
v -257.3334 0.03 21.94063
v -257.3334 0.03 21.94063
v -258.4454 0.03 19.15435
v -258.4454 0.03 19.15435
v -256.4993 -0.3366866 24.03033
v -256.4993 -0.3366866 24.03033
v -257.3334 0.03 21.94063
v -257.3334 0.03 21.94063
v -260.7941 0.03 23.60243
v -260.7941 0.03 23.60243
v -262.259 0.03 20.98439
v -262.259 0.03 20.98439
v -259.6954 -0.3366866 25.56596
v -259.6954 -0.3366866 25.56596
v -260.7941 0.03 23.60243
v -260.7941 0.03 23.60243
v -264.2185 0.03 25.78551
v -264.2185 0.03 25.78551
v -265.9659 0.03 23.34695
v -265.9659 0.03 23.34695
v -262.9079 -0.3366866 27.61444
v -262.9079 -0.3366866 27.61444
v -264.2185 0.03 25.78551
v -264.2185 0.03 25.78551
v -267.4722 0.03 28.37604
v -267.4722 0.03 28.37604
v -269.4533 0.03 26.12324
v -269.4533 0.03 26.12324
v -265.9863 -0.3366866 30.06564
v -265.9863 -0.3366866 30.06564
v -267.4722 0.03 28.37604
v -267.4722 0.03 28.37604
v -270.5034 0.03 31.30606
v -270.5034 0.03 31.30606
v -272.686 0.03 29.24781
v -272.686 0.03 29.24781
v -268.8665 -0.3366866 32.84974
v -268.8665 -0.3366866 32.84974
v -270.5034 0.03 31.30606
v -270.5034 0.03 31.30606
v -273.2416 0.03 34.48626
v -273.2416 0.03 34.48626
v -275.6011 0.03 32.63343
v -275.6011 0.03 32.63343
v -271.472 -0.3366866 35.87589
v -271.472 -0.3366866 35.87589
v -273.2416 0.03 34.48626
v -273.2416 0.03 34.48626
v -275.6719 0.03 37.88783
v -275.6719 0.03 37.88783
v -278.1902 0.03 36.25741
v -278.1902 0.03 36.25741
v -273.7831 -0.3366866 39.11063
v -273.7831 -0.3366866 39.11063
v -275.6719 0.03 37.88783
v -275.6719 0.03 37.88783
v -277.7764 0.03 41.50152
v -277.7764 0.03 41.50152
v -280.4384 0.03 40.11817
v -280.4384 0.03 40.11817
v -275.7799 -0.3366866 42.53904
v -275.7799 -0.3366866 42.53904
v -277.7764 0.03 41.50152
v -277.7764 0.03 41.50152
v -279.5027 0.03 45.27289
v -279.5027 0.03 45.27289
v -282.291 0.03 44.16595
v -282.291 0.03 44.16595
v -277.4114 -0.3366866 46.1031
v -277.4114 -0.3366866 46.1031
v -279.5027 0.03 45.27289
v -279.5027 0.03 45.27289
v -280.7906 0.03 49.09674
v -280.7906 0.03 49.09674
v -283.6814 0.03 48.29473
v -283.6814 0.03 48.29473
v -278.6225 -0.3366866 49.69825
v -278.6225 -0.3366866 49.69825
v -280.7906 0.03 49.09674
v -280.7906 0.03 49.09674
v -281.7032 0.03 53.16822
v -281.7032 0.03 53.16822
v -284.6576 0.03 52.64721
v -284.6576 0.03 52.64721
v -279.4874 -0.3366866 53.55898
v -279.4874 -0.3366866 53.55898
v -281.7032 0.03 53.16822
v -281.7032 0.03 53.16822
v -282.2876 0.03 57.47695
v -282.2876 0.03 57.47695
v -285.273 0.03 57.18115
v -285.273 0.03 57.18115
v -280.0486 -0.3366866 57.69881
v -280.0486 -0.3366866 57.69881
v -282.2876 0.03 57.47695
v -282.2876 0.03 57.47695
v -282.5949 0.03 61.97821
v -282.5949 0.03 61.97821
v -285.5924 0.03 61.85659
v -285.5924 0.03 61.85659
v -280.3467 -0.3366866 62.06943
v -280.3467 -0.3366866 62.06943
v -282.5949 0.03 61.97821
v -282.5949 0.03 61.97821
v -282.6763 0.03 66.6168
v -282.6763 0.03 66.6168
v -285.6763 0.03 66.62623
v -285.6763 0.03 66.62623
v -280.4263 -0.3366866 66.60973
v -280.4263 -0.3366866 66.60973
v -282.6763 0.03 66.6168
v -282.6763 0.03 66.6168

vn -4.516614E-10 1 1.802674E-10
vn 0 0 0
vn -4.167329E-10 1 1.987103E-10
vn 0 0 0
vn 0.06981786 0.9869195 0.1453118
vn 0 0 0
vn 0.06978757 0.9869244 0.1452925
vn 0 0 0
vn -1.428983E-10 1 5.703366E-11
vn 0 0 0
vn 1.195445E-10 1 -8.566208E-11
vn 0 0 0
vn 0.07552142 0.9869698 0.1420811
vn 0 0 0
vn 0.08108746 0.9869763 0.1389339
vn 0 0 0
vn 1.290346E-10 1 -7.219881E-11
vn 0 0 0
vn -1.076339E-10 0.9999999 9.465433E-11
vn 0 0 0
vn 0.09118038 0.9869727 0.1325563
vn 0 0 0
vn 0.09573206 0.9869765 0.1292777
vn 0 0 0
vn -2.272573E-10 1 1.806164E-10
vn 0 0 0
vn -1.063299E-10 1 9.350757E-11
vn 0 0 0
vn 0.1041565 0.9869744 0.1226093
vn 0 0 0
vn 0.108015 0.9869764 0.1192075
vn 0 0 0
vn -9.910498E-11 1 1.050922E-10
vn 0 0 0
vn -1.847116E-10 1 2.145099E-10
vn 0 0 0
vn 0.1152164 0.9869752 0.1122733
vn 0 0 0
vn 0.1185824 0.9869764 0.1087005
vn 0 0 0
vn -9.959217E-11 0.9999999 1.056088E-10
vn 0 0 0
vn 7.734264E-11 1 -1.194608E-10
vn 0 0 0
vn 0.1249566 0.9869758 0.1013145
vn 0 0 0
vn 0.127957 0.9869761 0.09749464
vn 0 0 0
vn 8.985631E-11 1 -1.144249E-10
vn 0 0 0
vn -6.562034E-11 1 1.26275E-10
vn 0 0 0
vn 0.1336752 0.9869762 0.08949259
vn 0 0 0
vn 0.1363928 0.9869754 0.08530121
vn 0 0 0
vn -1.463903E-10 1 2.516274E-10
vn 0 0 0
vn -6.58124E-11 1 1.266445E-10
vn 0 0 0
vn 0.1415175 0.9869761 0.07649274
vn 0 0 0
vn 0.1439547 0.986975 0.07181587
vn 0 0 0
vn 0 1 0
vn 0 0 0
vn 0 1 0
vn 0 0 0
vn 0.1484266 0.9869756 0.06203967
vn 0 0 0
vn 0.1505038 0.9869748 0.0568267
vn 0 0 0
vn 3.968793E-11 1 -1.430534E-10
vn 0 0 0
vn 6.331741E-11 1 -2.797415E-10
vn 0 0 0
vn 0.1541646 0.986975 0.04597607
vn 0 0 0
vn 0.1556523 0.9869778 0.04058762
vn 0 0 0
vn 8.828931E-11 1 -4.213118E-10
vn 0 0 0
vn 6.211174E-11 1 -4.129353E-10
vn 0 0 0
vn 0.157945 0.9869738 0.03059905
vn 0 0 0
vn 0.1587216 0.9869785 0.02609299
vn 0 0 0
vn 2.409243E-11 1 -1.366167E-10
vn 0 0 0
vn -5.485089E-12 1 1.351904E-10
vn 0 0 0
vn 0.1598599 0.9869755 0.01800417
vn 0 0 0
vn 0.1601996 0.9869788 0.01446129
vn 0 0 0
vn -2.41955E-11 1 4.031015E-10
vn 0 0 0
vn -1.030144E-11 1 3.963154E-10
vn 0 0 0
vn 0.1606539 0.9869767 0.008204682
vn 0 0 0
vn 0.1607571 0.9869787 0.005501887
vn 0 0 0
vn -7.404408E-12 1 3.95831E-10
vn 0 0 0
vn 1.227597E-12 1 3.905428E-10
vn 0 0 0
vn 0.1608637 0.9869726 0.002820711
vn 0 0 0
vn 0.1608599 0.9869733 0.002822513
vn 0 0 0

vt 0 0
vt 0 0
vt 0.2224121 -0.5572552
vt 0.2224121 -0.5572552
vt -0.1668091 0.4179413
vt -0.1668091 0.4179413
vt 0 0
vt 0 0
vt 0.6921448 0.3323616
vt 0.6921448 0.3323616
vt 0.9851196 -0.1912468
vt 0.9851196 -0.1912468
vt 0.4724121 0.7250676
vt 0.4724121 0.7250676
vt 0.6921448 0.3323616
vt 0.6921448 0.3323616
vt 1.37702 0.7689778
vt 1.37702 0.7689778
vt 1.726501 0.2812641
vt 1.726501 0.2812641
vt 1.114911 1.134763
vt 1.114911 1.134763
vt 1.37702 0.7689778
vt 1.37702 0.7689778
vt 2.027759 1.287083
vt 2.027759 1.287083
vt 2.423987 0.8365219
vt 2.423987 0.8365219
vt 1.730591 1.625003
vt 1.730591 1.625003
vt 2.027759 1.287083
vt 2.027759 1.287083
vt 2.634015 1.873086
vt 2.634015 1.873086
vt 3.070532 1.461438
vt 3.070532 1.461438
vt 2.306628 2.181823
vt 2.306628 2.181823
vt 2.634015 1.873086
vt 2.634015 1.873086
vt 3.181653 2.509127
vt 3.181653 2.509127
vt 3.65354 2.138561
vt 3.65354 2.138561
vt 2.827734 2.787053
vt 2.827734 2.787053
vt 3.181653 2.509127
vt 3.181653 2.509127
vt 3.6677 3.18944
vt 3.6677 3.18944
vt 4.171356 2.863357
vt 4.171356 2.863357
vt 3.289954 3.434002
vt 3.289954 3.434002
vt 3.6677 3.18944
vt 3.6677 3.18944
vt 4.088611 3.912179
vt 4.088611 3.912179
vt 4.621015 3.635509
vt 4.621015 3.635509
vt 3.689307 4.119682
vt 3.689307 4.119682
vt 4.088611 3.912179
vt 4.088611 3.912179
vt 4.433856 4.666453
vt 4.433856 4.666453
vt 4.991516 4.445066
vt 4.991516 4.445066
vt 4.015607 4.832494
vt 4.015607 4.832494
vt 4.433856 4.666453
vt 4.433856 4.666453
vt 4.691443 5.431222
vt 4.691443 5.431222
vt 5.269605 5.27082
vt 5.269605 5.27082
vt 4.257819 5.551524
vt 4.257819 5.551524
vt 4.691443 5.431222
vt 4.691443 5.431222
vt 4.873969 6.245519
vt 4.873969 6.245519
vt 5.46485 6.141317
vt 5.46485 6.141317
vt 4.430805 6.323671
vt 4.430805 6.323671
vt 4.873969 6.245519
vt 4.873969 6.245519
vt 4.990851 7.107265
vt 4.990851 7.107265
vt 5.587927 7.048105
vt 5.587927 7.048105
vt 4.543042 7.151636
vt 4.543042 7.151636
vt 4.990851 7.107265
vt 4.990851 7.107265
vt 5.052301 8.007517
vt 5.052301 8.007517
vt 5.651813 7.983192
vt 5.651813 7.983192
vt 4.602674 8.02576
vt 4.602674 8.02576
vt 5.052301 8.007517
vt 5.052301 8.007517
vt 5.068579 8.935234
vt 5.068579 8.935234
vt 5.668579 8.93712
vt 5.668579 8.93712
vt 4.618585 8.93382
vt 4.618585 8.93382
vt 5.068579 8.935234
vt 5.068579 8.935234

usemtl GSDShoulder1
usemap GSDShoulder1
f 9/9/9 1/1/1 3/3/3
f 11/11/11 9/9/9 3/3/3
f 13/13/13 5/5/5 7/7/7
f 15/15/15 13/13/13 7/7/7
f 17/17/17 9/9/9 11/11/11
f 19/19/19 17/17/17 11/11/11
f 21/21/21 13/13/13 15/15/15
f 23/23/23 21/21/21 15/15/15
f 25/25/25 17/17/17 19/19/19
f 27/27/27 25/25/25 19/19/19
f 29/29/29 21/21/21 23/23/23
f 31/31/31 29/29/29 23/23/23
f 33/33/33 25/25/25 27/27/27
f 35/35/35 33/33/33 27/27/27
f 37/37/37 29/29/29 31/31/31
f 39/39/39 37/37/37 31/31/31
f 41/41/41 33/33/33 35/35/35
f 43/43/43 41/41/41 35/35/35
f 45/45/45 37/37/37 39/39/39
f 47/47/47 45/45/45 39/39/39
f 49/49/49 41/41/41 43/43/43
f 51/51/51 49/49/49 43/43/43
f 53/53/53 45/45/45 47/47/47
f 55/55/55 53/53/53 47/47/47
f 57/57/57 49/49/49 51/51/51
f 59/59/59 57/57/57 51/51/51
f 61/61/61 53/53/53 55/55/55
f 63/63/63 61/61/61 55/55/55
f 65/65/65 57/57/57 59/59/59
f 67/67/67 65/65/65 59/59/59
f 69/69/69 61/61/61 63/63/63
f 71/71/71 69/69/69 63/63/63
f 73/73/73 65/65/65 67/67/67
f 75/75/75 73/73/73 67/67/67
f 77/77/77 69/69/69 71/71/71
f 79/79/79 77/77/77 71/71/71
f 81/81/81 73/73/73 75/75/75
f 83/83/83 81/81/81 75/75/75
f 85/85/85 77/77/77 79/79/79
f 87/87/87 85/85/85 79/79/79
f 89/89/89 81/81/81 83/83/83
f 91/91/91 89/89/89 83/83/83
f 93/93/93 85/85/85 87/87/87
f 95/95/95 93/93/93 87/87/87
f 97/97/97 89/89/89 91/91/91
f 99/99/99 97/97/97 91/91/91
f 101/101/101 93/93/93 95/95/95
f 103/103/103 101/101/101 95/95/95
f 105/105/105 97/97/97 99/99/99
f 107/107/107 105/105/105 99/99/99
f 109/109/109 101/101/101 103/103/103
f 111/111/111 109/109/109 103/103/103
