mtllib ./Road1_3_18.mtl
g RoadCut2
v -282.291 0.03 44.16595
v -282.291 0.03 44.16595
v -293.4442 0.03 39.7382
v -293.4442 0.03 39.7382
v -283.6814 0.03 48.29473
v -283.6814 0.03 48.29473
v -295.2446 0.03 45.08669
v -295.2446 0.03 45.08669
v -284.6576 0.03 52.64721
v -284.6576 0.03 52.64721
v -296.4753 0.03 50.56316
v -296.4753 0.03 50.56316
v -285.273 0.03 57.18115
v -285.273 0.03 57.18115
v -297.2145 0.03 55.99794
v -297.2145 0.03 55.99794
v -285.5924 0.03 61.85659
v -285.5924 0.03 61.85659
v -297.5826 0.03 61.37009
v -297.5826 0.03 61.37009
v -285.6763 0.03 66.62623
v -285.6763 0.03 66.62623
v -297.6762 0.03 66.66393
v -297.6762 0.03 66.66393
v -285.5797 0.03 71.44205
v -285.5797 0.03 71.44205
v -297.5723 0.03 71.86422
v -297.5723 0.03 71.86422
v -285.3485 0.03 76.31461
v -285.3485 0.03 76.31461
v -297.3282 0.03 77.01323
v -297.3282 0.03 77.01323
v -285.0215 0.03 81.20862
v -285.0215 0.03 81.20862
v -296.9885 0.03 82.09747
v -296.9885 0.03 82.09747
v -284.6265 0.03 86.15311
v -284.6265 0.03 86.15311
v -296.5838 0.03 87.16503
v -296.5838 0.03 87.16503
v -284.1897 0.03 91.1244
v -284.1897 0.03 91.1244
v -296.1409 0.03 92.20496
v -296.1409 0.03 92.20496
v -283.7333 0.03 96.09983
v -283.7333 0.03 96.09983
v -295.6823 0.03 97.20509
v -295.6823 0.03 97.20509
v -283.2694 0.03 101.1278
v -283.2694 0.03 101.1278
v -295.2195 0.03 102.2221
v -295.2195 0.03 102.2221
v -282.8132 0.03 106.1946
v -282.8132 0.03 106.1946
v -294.7668 0.03 107.2482
v -294.7668 0.03 107.2482
v -282.3838 0.03 111.212
v -282.3838 0.03 111.212
v -294.3429 0.03 112.2015
v -294.3429 0.03 112.2015
v -281.9792 0.03 116.3145
v -281.9792 0.03 116.3145
v -293.9451 0.03 117.2188
v -293.9451 0.03 117.2188
v -281.6149 0.03 121.4169
v -281.6149 0.03 121.4169
v -293.588 0.03 122.2194
v -293.588 0.03 122.2194
v -281.2979 0.03 126.5066
v -281.2979 0.03 126.5066
v -293.2782 0.03 127.1939
v -293.2782 0.03 127.1939
v -281.0336 0.03 131.5714
v -281.0336 0.03 131.5714
v -293.0205 0.03 132.133
v -293.0205 0.03 132.133
v -280.8228 0.03 136.6857
v -280.8228 0.03 136.6857
v -292.8152 0.03 137.1111
v -292.8152 0.03 137.1111
v -280.6729 0.03 141.7552
v -280.6729 0.03 141.7552
v -292.6695 0.03 142.0381
v -292.6695 0.03 142.0381
v -280.5842 0.03 146.8589
v -280.5842 0.03 146.8589
v -292.5834 0.03 146.9922
v -292.5834 0.03 146.9922
v -280.5602 0.03 151.9916
v -280.5602 0.03 151.9916
v -292.5602 0.03 151.9696
v -292.5602 0.03 151.9696

vn 0 1 0
vn 0 0 0
vn 0 0.9999999 0
vn 0 0 0
vn 3.448272E-11 1 -1.242914E-10
vn 0 0 0
vn 5.233051E-11 1 -2.312005E-10
vn 0 0 0
vn 7.823783E-11 1 -3.733466E-10
vn 0 0 0
vn 5.30413E-11 1 -3.526322E-10
vn 0 0 0
vn 2.195025E-11 1 -1.244694E-10
vn 0 0 0
vn -4.856843E-12 1 1.197011E-10
vn 0 0 0
vn -2.255918E-11 1 3.758309E-10
vn 0 0 0
vn -9.399363E-12 1 3.6159E-10
vn 0 0 0
vn -5.075304E-12 1 1.250852E-10
vn 0 0 0
vn -4.280023E-12 1 -1.215838E-10
vn 0 0 0
vn -4.792454E-12 1 -2.500339E-10
vn 0 0 0
vn -4.301789E-12 1 -1.222021E-10
vn 0 0 0
vn 0 1 0
vn 0 0 0
vn 0 1 0
vn 0 0 0
vn 0 1 0
vn 0 0 0
vn 0 1 0
vn 0 0 0
vn -1.04475E-11 1 -1.234524E-10
vn 0 0 0
vn -2.146206E-11 0.9999999 -2.452251E-10
vn 0 0 0
vn -2.158665E-11 0.9999999 -2.466487E-10
vn 0 0 0
vn -1.112466E-11 1 -1.230423E-10
vn 0 0 0
vn 2.277314E-11 1 2.462017E-10
vn 0 0 0
vn 4.519428E-11 1 4.910563E-10
vn 0 0 0
vn 2.261076E-11 1 2.444462E-10
vn 0 0 0
vn -2.155869E-11 0.9999999 -2.445872E-10
vn 0 0 0
vn -3.317544E-11 0.9999999 -3.668685E-10
vn 0 0 0
vn -6.614453E-13 1 5.601202E-14
vn 0 0 0
vn 3.112107E-11 1 3.681226E-10
vn 0 0 0
vn 2.959341E-11 1 3.683123E-10
vn 0 0 0
vn 1.00602E-11 1 1.215894E-10
vn 0 0 0
vn -8.215316E-12 1 -1.225771E-10
vn 0 0 0
vn -1.739666E-11 0.9999999 -2.440105E-10
vn 0 0 0
vn -8.250583E-12 1 -1.231033E-10
vn 0 0 0
vn 0 1 0
vn 0 0 0
vn 0 1 0
vn 0 0 0
vn -5.759115E-12 1 -1.229268E-10
vn 0 0 0
vn -1.01819E-11 0.9999999 -2.473709E-10
vn 0 0 0
vn -5.745258E-12 1 -1.226311E-10
vn 0 0 0
vn 2.930785E-12 0.9999999 1.242836E-10
vn 0 0 0
vn 7.2787E-12 1 2.465143E-10
vn 0 0 0
vn 2.929742E-12 1 1.242394E-10
vn 0 0 0
vn 0 1 0
vn 0 0 0
vn 0 1 0
vn 0 0 0
vn 0 1 0
vn 0 0 0
vn 0 0.9999999 0
vn 0 0 0

vt 0 0
vt 0 0
vt 2.230652 -0.88555
vt 2.230652 -0.88555
vt 0.2780884 0.8257546
vt 0.2780884 0.8257546
vt 2.590735 0.1841469
vt 2.590735 0.1841469
vt 0.4733337 1.696251
vt 0.4733337 1.696251
vt 2.836859 1.279442
vt 2.836859 1.279442
vt 0.5964112 2.603039
vt 0.5964112 2.603039
vt 2.984717 2.366398
vt 2.984717 2.366398
vt 0.6602966 3.538126
vt 0.6602966 3.538126
vt 3.058319 3.440827
vt 3.058319 3.440827
vt 0.677063 4.492055
vt 0.677063 4.492055
vt 3.077051 4.499596
vt 3.077051 4.499596
vt 0.6577515 5.45522
vt 0.6577515 5.45522
vt 3.056262 5.539653
vt 3.056262 5.539653
vt 0.6115112 6.42973
vt 0.6115112 6.42973
vt 3.007446 6.569455
vt 3.007446 6.569455
vt 0.546106 7.408533
vt 0.546106 7.408533
vt 2.939514 7.586304
vt 2.939514 7.586304
vt 0.4671143 8.397432
vt 0.4671143 8.397432
vt 2.858569 8.599815
vt 2.858569 8.599815
vt 0.3797486 9.39169
vt 0.3797486 9.39169
vt 2.769995 9.6078
vt 2.769995 9.6078
vt 0.2884705 10.38678
vt 0.2884705 10.38678
vt 2.678265 10.60783
vt 2.678265 10.60783
vt 0.195697 11.39237
vt 0.195697 11.39237
vt 2.5857 11.61122
vt 2.5857 11.61122
vt 0.1044434 12.40573
vt 0.1044434 12.40573
vt 2.495178 12.61646
vt 2.495178 12.61646
vt 0.01856079 13.4092
vt 0.01856079 13.4092
vt 2.410382 13.6071
vt 2.410382 13.6071
vt -0.06235352 14.42972
vt -0.06235352 14.42972
vt 2.330823 14.61057
vt 2.330823 14.61057
vt -0.1352173 15.4502
vt -0.1352173 15.4502
vt 2.259412 15.61069
vt 2.259412 15.61069
vt -0.1986084 16.46814
vt -0.1986084 16.46814
vt 2.197449 16.6056
vt 2.197449 16.6056
vt -0.251471 17.48109
vt -0.251471 17.48109
vt 2.145905 17.59341
vt 2.145905 17.59341
vt -0.2936279 18.50395
vt -0.2936279 18.50395
vt 2.104858 18.58904
vt 2.104858 18.58904
vt -0.3236145 19.51785
vt -0.3236145 19.51785
vt 2.075714 19.57443
vt 2.075714 19.57443
vt -0.3413574 20.53859
vt -0.3413574 20.53859
vt 2.058496 20.56526
vt 2.058496 20.56526
vt -0.3461548 21.56513
vt -0.3461548 21.56513
vt 2.053845 21.56073
vt 2.053845 21.56073

usemtl GSDRoad1
usemap GSDRoad1
f 5/5/5 1/1/1 3/3/3
f 7/7/7 5/5/5 3/3/3
f 9/9/9 5/5/5 7/7/7
f 11/11/11 9/9/9 7/7/7
f 13/13/13 9/9/9 11/11/11
f 15/15/15 13/13/13 11/11/11
f 17/17/17 13/13/13 15/15/15
f 19/19/19 17/17/17 15/15/15
f 21/21/21 17/17/17 19/19/19
f 23/23/23 21/21/21 19/19/19
f 25/25/25 21/21/21 23/23/23
f 27/27/27 25/25/25 23/23/23
f 29/29/29 25/25/25 27/27/27
f 31/31/31 29/29/29 27/27/27
f 33/33/33 29/29/29 31/31/31
f 35/35/35 33/33/33 31/31/31
f 37/37/37 33/33/33 35/35/35
f 39/39/39 37/37/37 35/35/35
f 41/41/41 37/37/37 39/39/39
f 43/43/43 41/41/41 39/39/39
f 45/45/45 41/41/41 43/43/43
f 47/47/47 45/45/45 43/43/43
f 49/49/49 45/45/45 47/47/47
f 51/51/51 49/49/49 47/47/47
f 53/53/53 49/49/49 51/51/51
f 55/55/55 53/53/53 51/51/51
f 57/57/57 53/53/53 55/55/55
f 59/59/59 57/57/57 55/55/55
f 61/61/61 57/57/57 59/59/59
f 63/63/63 61/61/61 59/59/59
f 65/65/65 61/61/61 63/63/63
f 67/67/67 65/65/65 63/63/63
f 69/69/69 65/65/65 67/67/67
f 71/71/71 69/69/69 67/67/67
f 73/73/73 69/69/69 71/71/71
f 75/75/75 73/73/73 71/71/71
f 77/77/77 73/73/73 75/75/75
f 79/79/79 77/77/77 75/75/75
f 81/81/81 77/77/77 79/79/79
f 83/83/83 81/81/81 79/79/79
f 85/85/85 81/81/81 83/83/83
f 87/87/87 85/85/85 83/83/83
f 89/89/89 85/85/85 87/87/87
f 91/91/91 89/89/89 87/87/87
