mtllib ./Road3_2_14.mtl
g Markers3
v -162.7424 0.03980594 145.1656
v -162.7424 0.03980594 145.1656
v -151.4901 0.03980594 140.9962
v -151.4901 0.03980594 140.9962
v -164.4639 0.04 141.2121
v -164.4639 0.04 141.2121
v -153.7874 0.04 135.7337
v -153.7874 0.04 135.7337
v -166.6056 0.04000012 137.6577
v -166.6056 0.04000012 137.6577
v -156.8215 0.04000012 130.7098
v -156.8215 0.04000012 130.7098
v -169.1727 0.04048129 134.6167
v -169.1727 0.04048129 134.6167
v -160.7106 0.04048129 126.1083
v -160.7106 0.04048129 126.1083
v -172.2565 0.04376359 132.0405
v -172.2565 0.04376359 132.0405
v -165.3416 0.04376359 122.2332
v -165.3416 0.04376359 122.2332
v -175.892 0.05287318 129.8383
v -175.892 0.05287318 129.8383
v -170.2935 0.05287318 119.2243
v -170.2935 0.05287318 119.2243
v -180.0178 0.07081828 127.8808
v -180.0178 0.07081828 127.8808
v -175.2328 0.07081828 116.8761
v -175.2328 0.07081828 116.8761
v -184.5258 0.1007616 126.0162
v -184.5258 0.1007616 126.0162
v -180.0611 0.1007616 114.8776
v -180.0611 0.1007616 114.8776
v -184.5258 0.1007616 126.0162
v -184.5258 0.1007616 126.0162
v -184.5258 0.1007616 126.0162
v -184.5258 0.1007616 126.0162
v -189.2395 -3.96 124.1259
v -189.2395 -3.96 124.1259
v -184.7211 -3.96 113.0091
v -184.7211 -3.96 113.0091
v -194.0256 -3.96 122.1135
v -194.0256 -3.96 122.1135
v -189.212 -3.96 111.1212
v -189.212 -3.96 111.1212
v -198.8356 -3.96 119.896
v -198.8356 -3.96 119.896
v -193.5862 -3.96 109.105
v -193.5862 -3.96 109.105
v -203.582 -3.96 117.4499
v -203.582 -3.96 117.4499
v -197.8328 -3.96 106.9168
v -197.8328 -3.96 106.9168
v -208.192 -3.96 114.7852
v -208.192 -3.96 114.7852
v -201.9327 -3.96 104.5469
v -201.9327 -3.96 104.5469
v -208.3726 -3.96 114.6745
v -208.3726 -3.96 114.6745
v -202.0933 -3.96 104.4485
v -202.0933 -3.96 104.4485

vn 1.566143E-05 1 4.226674E-05
vn 0 0 0
vn 1.554605E-05 1 3.533502E-05
vn 0 0 0
vn 1.100966E-05 1 2.502292E-05
vn 0 0 0
vn 5.642198E-06 1 1.099332E-05
vn 0 0 0
vn 1.99671E-05 1 2.811982E-05
vn 0 0 0
vn 3.917782E-05 1 4.625047E-05
vn 0 0 0
vn 0.0002109342 0.9999999 0.0002180354
vn 0 0 0
vn 0.0003339494 0.9999998 0.0002836697
vn 0 0 0
vn 0.0008733355 0.9999993 0.0006630111
vn 0 0 0
vn 0.001133595 0.9999992 0.0007100622
vn 0 0 0
vn 0.002150936 0.9999969 0.001225193
vn 0 0 0
vn 0.002554127 0.999996 0.001250787
vn 0 0 0
vn 0.004011017 0.9999903 0.00184272
vn 0 0 0
vn 0.004605969 0.9999874 0.001942103
vn 0 0 0
vn 0.005468987 0.9999824 0.002284538
vn 0 0 0
vn 0.005319023 0.9999835 0.00213206
vn 0 0 0
vn 0 0 0
vn 0 0 0
vn -0.5785428 0.7810219 -0.2351449
vn 0 0 0
vn -0.3406343 0.9299463 -0.1384486
vn 0 0 0
vn -0.2399742 0.9658672 -0.09753597
vn 0 0 0
vn 0 1 0
vn 0 0 0
vn 0 1 0
vn 0 0 0
vn 0 1 0
vn 0 0 0
vn 0 1 0
vn 0 0 0
vn 0 1 0
vn 0 0 0
vn 0 1 0
vn 0 0 0
vn 0 1 0
vn 0 0 0
vn 0 0.9999999 0
vn 0 0 0
vn 0 1 0
vn 0 0 0
vn 0 1 0
vn 0 0 0

vt 0 60.39561
vt 0 0
vt 1 60.39561
vt 0 0
vt 0 61.25801
vt 0 61.25801
vt 1 61.25801
vt 1 61.25801
vt 0 62.08797
vt 0 62.08797
vt 1 62.08797
vt 1 62.08797
vt 0 62.8839
vt 0 62.8839
vt 1 62.8839
vt 1 62.8839
vt 0 63.68756
vt 0 63.68756
vt 1 63.68756
vt 1 63.68756
vt 0 64.53767
vt 0 64.53767
vt 1 64.53767
vt 1 64.53767
vt 0 65.451
vt 0 65.451
vt 1 65.451
vt 1 65.451
vt 0 66.4267
vt 0 66.4267
vt 1 66.4267
vt 1 66.4267
vt 0 66.4267
vt 0 66.4267
vt 1 66.4267
vt 1 66.4267
vt 0 67.72718
vt 0 67.72718
vt 1 67.72718
vt 1 67.72718
vt 0 68.76559
vt 0 68.76559
vt 1 68.76559
vt 1 68.76559
vt 0 69.82488
vt 0 69.82488
vt 1 69.82488
vt 1 69.82488
vt 0 70.89281
vt 0 70.89281
vt 1 70.89281
vt 1 70.89281
vt 0 71.95776
vt 0 71.95776
vt 1 71.95776
vt 1 71.95776
vt 0 72.00013
vt 0 72.00013
vt 1 72.00013
vt 1 72.00013

usemtl GSDWhiteYellowDouble-4L
usemap GSDWhiteYellowDouble-4L
f 5/5/5 1/1/1 3/3/3
f 7/7/7 5/5/5 3/3/3
f 9/9/9 5/5/5 7/7/7
f 11/11/11 9/9/9 7/7/7
f 13/13/13 9/9/9 11/11/11
f 15/15/15 13/13/13 11/11/11
f 17/17/17 13/13/13 15/15/15
f 19/19/19 17/17/17 15/15/15
f 21/21/21 17/17/17 19/19/19
f 23/23/23 21/21/21 19/19/19
f 25/25/25 21/21/21 23/23/23
f 27/27/27 25/25/25 23/23/23
f 29/29/29 25/25/25 27/27/27
f 31/31/31 29/29/29 27/27/27
f 33/33/33 29/29/29 31/31/31
f 35/35/35 33/33/33 31/31/31
f 37/37/37 33/33/33 35/35/35
f 39/39/39 37/37/37 35/35/35
f 41/41/41 37/37/37 39/39/39
f 43/43/43 41/41/41 39/39/39
f 45/45/45 41/41/41 43/43/43
f 47/47/47 45/45/45 43/43/43
f 49/49/49 45/45/45 47/47/47
f 51/51/51 49/49/49 47/47/47
f 53/53/53 49/49/49 51/51/51
f 55/55/55 53/53/53 51/51/51
f 57/57/57 53/53/53 55/55/55
f 59/59/59 57/57/57 55/55/55
