mtllib ./Road1_0_197.mtl
g SCutR58
v -427.6801 34.31559 750.3886
v -427.6801 34.31559 750.3886
v -427.719 34.31559 753.3884
v -427.719 34.31559 753.3884
v -427.719 34.31559 753.3884
v -427.719 34.31559 753.3884
v -427.7449 33.92947 755.3882
v -427.7449 33.92947 755.3882
v -422.6786 34.31618 750.4639
v -422.6786 34.31618 750.4639
v -422.7347 34.31618 753.4633
v -422.7347 34.31618 753.4633
v -422.7347 34.31618 753.4633
v -422.7347 34.31618 753.4633
v -422.7721 33.92947 755.463
v -422.7721 33.92947 755.463
v -417.5975 34.318 750.5807
v -417.5975 34.318 750.5807
v -417.677 34.318 753.5797
v -417.677 34.318 753.5797
v -417.677 34.318 753.5797
v -417.677 34.318 753.5797
v -417.7299 33.9355 755.579
v -417.7299 33.9355 755.579
v -412.5112 34.32098 750.7242
v -412.5112 34.32098 750.7242
v -412.5979 34.32098 753.7229
v -412.5979 34.32098 753.7229
v -412.5979 34.32098 753.7229
v -412.5979 34.32098 753.7229
v -412.6557 33.9355 755.722
v -412.6557 33.9355 755.722
v -407.4893 34.32354 750.8628
v -407.4893 34.32354 750.8628
v -407.5649 34.32354 753.8618
v -407.5649 34.32354 753.8618
v -407.5649 34.32354 753.8618
v -407.5649 34.32354 753.8618
v -407.6153 33.9355 755.8612
v -407.6153 33.9355 755.8612
v -402.3454 34.3241 750.9686
v -402.3454 34.3241 750.9686
v -402.3901 34.3241 753.9683
v -402.3901 34.3241 753.9683
v -402.3901 34.3241 753.9683
v -402.3901 34.3241 753.9683
v -402.4199 33.93631 755.9681
v -402.4199 33.93631 755.9681
v -397.1426 34.32089 751.0057
v -397.1426 34.32089 751.0057
v -397.1378 34.32089 754.0057
v -397.1378 34.32089 754.0057
v -397.1378 34.32089 754.0057
v -397.1378 34.32089 754.0057
v -397.1346 33.92814 756.0057
v -397.1346 33.92814 756.0057

vn -0.0001174368 0.9999999 -1.523276E-06
vn 0 0 0
vn -0.0001176334 1 -1.862201E-06
vn 0 0 0
vn -0.002965901 0.9818691 0.1895366
vn 0 0 0
vn -0.00291 0.9818423 0.1896767
vn 0 0 0
vn -0.0001989409 0.9999999 -3.495328E-06
vn 0 0 0
vn -0.0002798613 0.9999999 -6.171622E-06
vn 0 0 0
vn -0.003520253 0.9818334 0.1897123
vn 0 0 0
vn -0.004364002 0.9819442 0.1891204
vn 0 0 0
vn -0.0004349442 0.9999999 -1.059067E-05
vn 0 0 0
vn -0.0005108221 0.9999999 -1.401005E-05
vn 0 0 0
vn -0.005362443 0.9820708 0.1884363
vn 0 0 0
vn -0.00556633 0.9821078 0.1882375
vn 0 0 0
vn -0.0005604401 0.9999998 -1.573421E-05
vn 0 0 0
vn -0.000534719 0.9999999 -1.483725E-05
vn 0 0 0
vn -0.005641212 0.9820181 0.1887029
vn 0 0 0
vn -0.005436707 0.9818499 0.189582
vn 0 0 0
vn -0.0003732147 0.9999999 -1.003263E-05
vn 0 0 0
vn -0.0002391614 1 -5.654626E-06
vn 0 0 0
vn -0.004991006 0.9817713 0.1900007
vn 0 0 0
vn -0.004441609 0.9817017 0.1903734
vn 0 0 0
vn 0.000134655 1 1.637519E-06
vn 0 0 0
vn 0.0003743546 0.9999999 2.196698E-06
vn 0 0 0
vn -0.002940791 0.9817099 0.1903601
vn 0 0 0
vn -0.001548413 0.9815648 0.1911236
vn 0 0 0
vn 0.0006129484 0.9999998 4.078091E-06
vn 0 0 0
vn 0.000610096 0.9999998 -9.743761E-07
vn 0 0 0
vn -0.0003060903 0.9814872 0.1915275
vn 0 0 0
vn 0.0001440503 0.9812587 0.1926944
vn 0 0 0

vt 0 0
vt 0 0
vt 0.007781982 0.5999512
vt 0.007781982 0.5999512
vt 0.007781982 0.5999512
vt 0.007781982 0.5999512
vt 0.01296997 0.9999146
vt 0.01296997 0.9999146
vt -1.000281 0.01505127
vt -1.000281 0.01505127
vt -0.9890686 0.6149414
vt -0.9890686 0.6149414
vt -0.9890686 0.6149414
vt -0.9890686 0.6149414
vt -0.9815918 1.014868
vt -0.9815918 1.014868
vt -2.01651 0.03842774
vt -2.01651 0.03842774
vt -2.000617 0.6382203
vt -2.000617 0.6382203
vt -2.000617 0.6382203
vt -2.000617 0.6382203
vt -1.990021 1.038074
vt -1.990021 1.038074
vt -3.033777 0.06711426
vt -3.033777 0.06711426
vt -3.016431 0.6668579
vt -3.016431 0.6668579
vt -3.016431 0.6668579
vt -3.016431 0.6668579
vt -3.004864 1.066687
vt -3.004864 1.066687
vt -4.038141 0.09483643
vt -4.038141 0.09483643
vt -4.023023 0.6946411
vt -4.023023 0.6946411
vt -4.023023 0.6946411
vt -4.023023 0.6946411
vt -4.012946 1.094519
vt -4.012946 1.094519
vt -5.066937 0.1160034
vt -5.066937 0.1160034
vt -5.057996 0.7159302
vt -5.057996 0.7159302
vt -5.057996 0.7159302
vt -5.057996 0.7159302
vt -5.052032 1.115894
vt -5.052032 1.115894
vt -6.107489 0.1234253
vt -6.107489 0.1234253
vt -6.108448 0.7234253
vt -6.108448 0.7234253
vt -6.108448 0.7234253
vt -6.108448 0.7234253
vt -6.109082 1.123425
vt -6.109082 1.123425

usemtl GSDShoulder1
usemap GSDShoulder1
f 9/9/9 1/1/1 3/3/3
f 11/11/11 9/9/9 3/3/3
f 13/13/13 5/5/5 7/7/7
f 15/15/15 13/13/13 7/7/7
f 17/17/17 9/9/9 11/11/11
f 19/19/19 17/17/17 11/11/11
f 21/21/21 13/13/13 15/15/15
f 23/23/23 21/21/21 15/15/15
f 25/25/25 17/17/17 19/19/19
f 27/27/27 25/25/25 19/19/19
f 29/29/29 21/21/21 23/23/23
f 31/31/31 29/29/29 23/23/23
f 33/33/33 25/25/25 27/27/27
f 35/35/35 33/33/33 27/27/27
f 37/37/37 29/29/29 31/31/31
f 39/39/39 37/37/37 31/31/31
f 41/41/41 33/33/33 35/35/35
f 43/43/43 41/41/41 35/35/35
f 45/45/45 37/37/37 39/39/39
f 47/47/47 45/45/45 39/39/39
f 49/49/49 41/41/41 43/43/43
f 51/51/51 49/49/49 43/43/43
f 53/53/53 45/45/45 47/47/47
f 55/55/55 53/53/53 47/47/47
