mtllib ./Road1_0_8.mtl
g RoadCut4
v -365.0549 60.63526 593.4029
v -365.0549 60.63526 593.4029
v -365.8995 60.63526 583.4415
v -365.8995 60.63526 583.4415
v -370.0877 60.80263 593.8169
v -370.0877 60.80263 593.8169
v -370.8369 60.80263 583.8534
v -370.8369 60.80263 583.8534
v -375.1927 61.03433 594.1506
v -375.1927 61.03433 594.1506
v -375.7654 61.03433 584.1799
v -375.7654 61.03433 584.1799
v -380.2665 61.30765 594.4057
v -380.2665 61.30765 594.4057
v -380.7099 61.30765 584.4323
v -380.7099 61.30765 584.4323
v -385.3121 61.61156 594.6022
v -385.3121 61.61156 594.6022
v -385.656 61.61156 584.6282
v -385.656 61.61156 584.6282
v -390.3719 61.94157 594.7543
v -390.3719 61.94157 594.7543
v -390.6359 61.94157 584.7806
v -390.6359 61.94157 584.7806
v -395.3926 62.28922 594.869
v -395.3926 62.28922 594.869
v -395.5915 62.28922 584.8964
v -395.5915 62.28922 584.8964
v -400.4569 62.65672 594.9547
v -400.4569 62.65672 594.9547
v -400.6009 62.65672 584.9832
v -400.6009 62.65672 584.9832
v -405.535 63.03945 595.0148
v -405.535 63.03945 595.0148
v -405.6323 63.03945 585.0447
v -405.6323 63.03945 585.0447
v -410.5995 63.43317 595.053
v -410.5995 63.43317 595.053
v -410.6569 63.43317 585.0842
v -410.6569 63.43317 585.0842
v -415.627 63.8342 595.0723
v -415.627 63.8342 595.0723
v -415.6501 63.8342 585.1049
v -415.6501 63.8342 585.1049
v -420.7337 64.25046 595.0755
v -420.7337 64.25046 595.0755
v -420.7264 64.25046 585.1094
v -420.7264 64.25046 585.1094
v -425.7649 64.66818 595.0646
v -425.7649 64.66818 595.0646
v -425.7315 64.66818 585.0997
v -425.7315 64.66818 585.0997
v -430.8441 65.0965 595.0411
v -430.8441 65.0965 595.0411
v -430.7876 65.0965 585.0772
v -430.7876 65.0965 585.0772
v -435.9575 65.53351 595.0063
v -435.9575 65.53351 595.0063
v -435.8807 65.53351 585.0436
v -435.8807 65.53351 585.0436
v -440.9489 65.9649 594.9631
v -440.9489 65.9649 594.9631
v -440.8549 65.9649 585.0012
v -440.8549 65.9649 585.0012
v -445.9473 66.40096 594.9116
v -445.9473 66.40096 594.9116
v -445.8382 66.40096 584.9504
v -445.8382 66.40096 584.9504
v -450.94 66.83991 594.8535
v -450.94 66.83991 594.8535
v -450.818 66.83991 584.893
v -450.818 66.83991 584.893
v -456.0562 67.29256 594.7876
v -456.0562 67.29256 594.7876
v -455.9231 67.29256 584.8276
v -455.9231 67.29256 584.8276
v -461.1395 67.74453 594.7172
v -461.1395 67.74453 594.7172
v -460.9974 67.74453 584.7577
v -460.9974 67.74453 584.7577
v -466.1759 68.19389 594.6433
v -466.1759 68.19389 594.6433
v -466.0269 68.19389 584.6841
v -466.0269 68.19389 584.6841
v -471.2891 68.65099 594.5654
v -471.2891 68.65099 594.5654
v -471.1352 68.65099 584.6064
v -471.1352 68.65099 584.6064
v -476.3239 69.1013 594.4869
v -476.3239 69.1013 594.4869
v -476.1674 69.1013 584.5279
v -476.1674 69.1013 584.5279
v -481.3965 69.55443 594.4072
v -481.3965 69.55443 594.4072
v -481.2398 69.55443 584.448
v -481.2398 69.55443 584.448
v -486.4831 70.00738 594.3278
v -486.4831 70.00738 594.3278
v -486.3289 70.00738 584.3682
v -486.3289 70.00738 584.3682
v -491.5555 70.45665 594.2508
v -491.5555 70.45665 594.2508
v -491.407 70.45665 584.2906
v -491.407 70.45665 584.2906
v -496.5831 70.89835 594.1785
v -496.5831 70.89835 594.1785
v -496.4442 70.89835 584.2173
v -496.4442 70.89835 584.2173
v -501.6473 71.33815 594.1119
v -501.6473 71.33815 594.1119
v -501.5231 71.33815 584.1495
v -501.5231 71.33815 584.1495
v -506.6922 71.76915 594.0548
v -506.6922 71.76915 594.0548
v -506.5895 71.76915 584.0907
v -506.5895 71.76915 584.0907
v -511.756 72.19181 594.011
v -511.756 72.19181 594.011
v -511.6846 72.19181 584.0447
v -511.6846 72.19181 584.0447

vn 0.0330069 0.9994512 -0.002798573
vn 0 0 0
vn 0.0333339 0.9994407 -0.002666406
vn 0 0 0
vn 0.03732245 0.999299 -0.002912234
vn 0 0 0
vn 0.04188798 0.9991182 -0.002876511
vn 0 0 0
vn 0.04852146 0.9988174 -0.003058007
vn 0 0 0
vn 0.05184928 0.9986512 -0.002741982
vn 0 0 0
vn 0.05624368 0.9984133 -0.002735228
vn 0 0 0
vn 0.05878545 0.9982677 -0.002411319
vn 0 0 0
vn 0.06210106 0.998067 -0.002342207
vn 0 0 0
vn 0.06412107 0.99794 -0.00203513
vn 0 0 0
vn 0.06670522 0.9977708 -0.001940628
vn 0 0 0
vn 0.06835187 0.9976599 -0.001657967
vn 0 0 0
vn 0.070454 0.9975138 -0.001555577
vn 0 0 0
vn 0.07182451 0.9974164 -0.001298367
vn 0 0 0
vn 0.07354967 0.9972908 -0.001195186
vn 0 0 0
vn 0.07471322 0.9972045 -0.0009606757
vn 0 0 0
vn 0.07616153 0.9970951 -0.0008609258
vn 0 0 0
vn 0.0771537 0.9970191 -0.0006489764
vn 0 0 0
vn 0.07837532 0.9969238 -0.0005550161
vn 0 0 0
vn 0.07922655 0.9968565 -0.0003645627
vn 0 0 0
vn 0.08027574 0.9967726 -0.000276735
vn 0 0 0
vn 0.08101375 0.9967129 -0.0001043252
vn 0 0 0
vn 0.08189964 0.9966407 -2.330856E-05
vn 0 0 0
vn 0.08254227 0.9965876 0.0001323653
vn 0 0 0
vn 0.08331586 0.9965231 0.0002069368
vn 0 0 0
vn 0.08387141 0.9964766 0.0003462777
vn 0 0 0
vn 0.08453027 0.9964209 0.0004141479
vn 0 0 0
vn 0.0850163 0.9963794 0.0005399341
vn 0 0 0
vn 0.08557481 0.9963316 0.0006010527
vn 0 0 0
vn 0.08599053 0.9962957 0.0007122227
vn 0 0 0
vn 0.08646613 0.9962545 0.0007665506
vn 0 0 0
vn 0.0868189 0.9962237 0.0008634935
vn 0 0 0
vn 0.08720975 0.9961895 0.0009111592
vn 0 0 0
vn 0.08750796 0.9961634 0.0009961661
vn 0 0 0
vn 0.08782922 0.9961351 0.001038187
vn 0 0 0
vn 0.08807396 0.9961133 0.001111944
vn 0 0 0
vn 0.0883222 0.9960912 0.001147581
vn 0 0 0
vn 0.08851782 0.9960738 0.001209652
vn 0 0 0
vn 0.08869922 0.9960577 0.001238747
vn 0 0 0
vn 0.08883963 0.9960451 0.001287936
vn 0 0 0
vn 0.088947 0.9960355 0.001310192
vn 0 0 0
vn 0.08903258 0.9960278 0.001346542
vn 0 0 0
vn 0.08906361 0.996025 0.001361423
vn 0 0 0
vn 0.0890926 0.9960223 0.001384298
vn 0 0 0
vn 0.08904081 0.996027 0.00139137
vn 0 0 0
vn 0.08900488 0.9960303 0.001399328
vn 0 0 0
vn 0.08886067 0.9960431 0.001397774
vn 0 0 0
vn 0.0887545 0.9960526 0.001389368
vn 0 0 0
vn 0.08850486 0.9960748 0.00137805
vn 0 0 0
vn 0.08831515 0.9960917 0.001350723
vn 0 0 0
vn 0.08793887 0.996125 0.001328104
vn 0 0 0
vn 0.08764936 0.9961506 0.00127879
vn 0 0 0
vn 0.08711214 0.9961978 0.001242858
vn 0 0 0
vn 0.08669698 0.9962341 0.001166393
vn 0 0 0
vn 0.08595787 0.9962981 0.001114318
vn 0 0 0
vn 0.08537451 0.9963484 0.001003396
vn 0 0 0
vn 0.08434436 0.9964362 0.0009305915
vn 0 0 0
vn 0.08352843 0.996505 0.0007739656
vn 0 0 0
vn 0.0829172 0.9965562 0.0007241988
vn 0 0 0
vn 0.08266471 0.9965773 0.0005918075
vn 0 0 0

vt 0 0
vt 0 0
vt 0.1689209 -1.992285
vt 0.1689209 -1.992285
vt 1.006574 0.08280029
vt 1.006574 0.08280029
vt 1.156415 -1.9099
vt 1.156415 -1.9099
vt 2.027557 0.1495361
vt 2.027557 0.1495361
vt 2.142108 -1.844604
vt 2.142108 -1.844604
vt 3.042322 0.2005615
vt 3.042322 0.2005615
vt 3.131006 -1.794116
vt 3.131006 -1.794116
vt 4.051446 0.239856
vt 4.051446 0.239856
vt 4.120233 -1.754944
vt 4.120233 -1.754944
vt 5.063416 0.2702759
vt 5.063416 0.2702759
vt 5.116211 -1.724451
vt 5.116211 -1.724451
vt 6.067548 0.2932251
vt 6.067548 0.2932251
vt 6.10733 -1.701306
vt 6.10733 -1.701306
vt 7.080402 0.3103516
vt 7.080402 0.3103516
vt 7.109198 -1.683936
vt 7.109198 -1.683936
vt 8.096033 0.3223877
vt 8.096033 0.3223877
vt 8.115491 -1.671631
vt 8.115491 -1.671631
vt 9.10893 0.3300171
vt 9.10893 0.3300171
vt 9.120404 -1.663733
vt 9.120404 -1.663733
vt 10.11443 0.3338867
vt 10.11443 0.3338867
vt 10.11904 -1.659595
vt 10.11904 -1.659595
vt 11.13577 0.3345215
vt 11.13577 0.3345215
vt 11.13431 -1.658691
vt 11.13431 -1.658691
vt 12.14201 0.3323486
vt 12.14201 0.3323486
vt 12.13533 -1.660645
vt 12.13533 -1.660645
vt 13.15784 0.3276367
vt 13.15784 0.3276367
vt 13.14655 -1.665137
vt 13.14655 -1.665137
vt 14.18053 0.3206909
vt 14.18053 0.3206909
vt 14.16517 -1.671863
vt 14.16517 -1.671863
vt 15.17881 0.3120361
vt 15.17881 0.3120361
vt 15.16 -1.680347
vt 15.16 -1.680347
vt 16.17849 0.3017456
vt 16.17849 0.3017456
vt 16.15667 -1.690491
vt 16.15667 -1.690491
vt 17.17703 0.2901123
vt 17.17703 0.2901123
vt 17.15263 -1.701978
vt 17.15263 -1.701978
vt 18.20026 0.2769409
vt 18.20026 0.2769409
vt 18.17364 -1.715051
vt 18.17364 -1.715051
vt 19.21692 0.262854
vt 19.21692 0.262854
vt 19.1885 -1.729041
vt 19.1885 -1.729041
vt 20.22421 0.2480835
vt 20.22421 0.2480835
vt 20.19442 -1.743762
vt 20.19442 -1.743762
vt 21.24684 0.2325073
vt 21.24684 0.2325073
vt 21.21606 -1.75929
vt 21.21606 -1.75929
vt 22.25381 0.2167969
vt 22.25381 0.2167969
vt 22.22251 -1.775
vt 22.22251 -1.775
vt 23.26834 0.2008667
vt 23.26834 0.2008667
vt 23.23699 -1.790979
vt 23.23699 -1.790979
vt 24.28564 0.1849854
vt 24.28564 0.1849854
vt 24.2548 -1.806934
vt 24.2548 -1.806934
vt 25.30013 0.1695801
vt 25.30013 0.1695801
vt 25.27044 -1.822461
vt 25.27044 -1.822461
vt 26.30565 0.1551148
vt 26.30565 0.1551148
vt 26.27786 -1.837122
vt 26.27786 -1.837122
vt 27.31848 0.1417969
vt 27.31848 0.1417969
vt 27.29364 -1.850684
vt 27.29364 -1.850684
vt 28.32747 0.1303833
vt 28.32747 0.1303833
vt 28.30692 -1.862439
vt 28.30692 -1.862439
vt 29.34022 0.1216187
vt 29.34022 0.1216187
vt 29.32595 -1.871643
vt 29.32595 -1.871643

usemtl GSDRoad1
usemap GSDRoad1
f 5/5/5 1/1/1 3/3/3
f 7/7/7 5/5/5 3/3/3
f 9/9/9 5/5/5 7/7/7
f 11/11/11 9/9/9 7/7/7
f 13/13/13 9/9/9 11/11/11
f 15/15/15 13/13/13 11/11/11
f 17/17/17 13/13/13 15/15/15
f 19/19/19 17/17/17 15/15/15
f 21/21/21 17/17/17 19/19/19
f 23/23/23 21/21/21 19/19/19
f 25/25/25 21/21/21 23/23/23
f 27/27/27 25/25/25 23/23/23
f 29/29/29 25/25/25 27/27/27
f 31/31/31 29/29/29 27/27/27
f 33/33/33 29/29/29 31/31/31
f 35/35/35 33/33/33 31/31/31
f 37/37/37 33/33/33 35/35/35
f 39/39/39 37/37/37 35/35/35
f 41/41/41 37/37/37 39/39/39
f 43/43/43 41/41/41 39/39/39
f 45/45/45 41/41/41 43/43/43
f 47/47/47 45/45/45 43/43/43
f 49/49/49 45/45/45 47/47/47
f 51/51/51 49/49/49 47/47/47
f 53/53/53 49/49/49 51/51/51
f 55/55/55 53/53/53 51/51/51
f 57/57/57 53/53/53 55/55/55
f 59/59/59 57/57/57 55/55/55
f 61/61/61 57/57/57 59/59/59
f 63/63/63 61/61/61 59/59/59
f 65/65/65 61/61/61 63/63/63
f 67/67/67 65/65/65 63/63/63
f 69/69/69 65/65/65 67/67/67
f 71/71/71 69/69/69 67/67/67
f 73/73/73 69/69/69 71/71/71
f 75/75/75 73/73/73 71/71/71
f 77/77/77 73/73/73 75/75/75
f 79/79/79 77/77/77 75/75/75
f 81/81/81 77/77/77 79/79/79
f 83/83/83 81/81/81 79/79/79
f 85/85/85 81/81/81 83/83/83
f 87/87/87 85/85/85 83/83/83
f 89/89/89 85/85/85 87/87/87
f 91/91/91 89/89/89 87/87/87
f 93/93/93 89/89/89 91/91/91
f 95/95/95 93/93/93 91/91/91
f 97/97/97 93/93/93 95/95/95
f 99/99/99 97/97/97 95/95/95
f 101/101/101 97/97/97 99/99/99
f 103/103/103 101/101/101 99/99/99
f 105/105/105 101/101/101 103/103/103
f 107/107/107 105/105/105 103/103/103
f 109/109/109 105/105/105 107/107/107
f 111/111/111 109/109/109 107/107/107
f 113/113/113 109/109/109 111/111/111
f 115/115/115 113/113/113 111/111/111
f 117/117/117 113/113/113 115/115/115
f 119/119/119 117/117/117 115/115/115
