mtllib ./Road1_0_86.mtl
g RoadCut43
v -884.2939 6.502915 718.6869
v -884.2939 6.502915 718.6869
v -874.4974 6.502915 720.5284
v -874.4974 6.502915 720.5284
v -883.6254 6.896811 714.074
v -883.6254 6.896811 714.074
v -873.7195 6.896811 715.2064
v -873.7195 6.896811 715.2064
v -883.1174 7.284428 709.1134
v -883.1174 7.284428 709.1134
v -873.1948 7.284428 710.0952
v -873.1948 7.284428 710.0952
v -882.5435 7.674246 703.9098
v -882.5435 7.674246 703.9098
v -872.6542 7.674246 705.1788
v -872.6542 7.674246 705.1788
v -881.6959 8.064843 698.6301
v -881.6959 8.064843 698.6301
v -871.9198 8.064843 700.5806
v -871.9198 8.064843 700.5806
v -880.2825 8.475723 693.1337
v -880.2825 8.475723 693.1337
v -870.8015 8.475723 696.2067
v -870.8015 8.475723 696.2067
v -878.0344 8.896405 687.7089
v -878.0344 8.896405 687.7089
v -869.1918 8.896405 692.3026
v -869.1918 8.896405 692.3026

vn -0.01557056 0.996442 0.0828307
vn 0 0 0
vn -0.01167556 0.9969354 0.07735236
vn 0 0 0
vn -0.01072154 0.9969551 0.07723618
vn 0 0 0
vn -0.008165238 0.9971676 0.0747667
vn 0 0 0
vn -0.007827737 0.9971356 0.07522913
vn 0 0 0
vn -0.008212714 0.9971099 0.07552884
vn 0 0 0
vn -0.008845657 0.9971716 0.07463624
vn 0 0 0
vn -0.01172591 0.9969467 0.07719913
vn 0 0 0
vn -0.01314698 0.99712 0.07469307
vn 0 0 0
vn -0.01905915 0.9966831 0.07911655
vn 0 0 0
vn -0.0209521 0.9970173 0.0742804
vn 0 0 0
vn -0.03080325 0.9963472 0.07964518
vn 0 0 0
vn -0.03205863 0.9965448 0.07662047
vn 0 0 0
vn -0.04587445 0.9950365 0.08830515
vn 0 0 0

vt 0 0
vt 0 0
vt -1.959302 0.3683105
vt -1.959302 0.3683105
vt -0.1336914 -0.9225708
vt -0.1336914 -0.9225708
vt -2.114868 -0.696106
vt -2.114868 -0.696106
vt -0.2353027 -1.914697
vt -0.2353027 -1.914697
vt -2.219824 -1.718335
vt -2.219824 -1.718335
vt -0.3500732 -2.95542
vt -0.3500732 -2.95542
vt -2.32793 -2.701611
vt -2.32793 -2.701611
vt -0.5195923 -4.011365
vt -0.5195923 -4.011365
vt -2.474817 -3.621253
vt -2.474817 -3.621253
vt -0.8022828 -5.110645
vt -0.8022828 -5.110645
vt -2.698474 -4.496045
vt -2.698474 -4.496045
vt -1.251892 -6.195606
vt -1.251892 -6.195606
vt -3.020422 -5.276855
vt -3.020422 -5.276855

usemtl GSDRoad1
usemap GSDRoad1
f 5/5/5 1/1/1 3/3/3
f 7/7/7 5/5/5 3/3/3
f 9/9/9 5/5/5 7/7/7
f 11/11/11 9/9/9 7/7/7
f 13/13/13 9/9/9 11/11/11
f 15/15/15 13/13/13 11/11/11
f 17/17/17 13/13/13 15/15/15
f 19/19/19 17/17/17 15/15/15
f 21/21/21 17/17/17 19/19/19
f 23/23/23 21/21/21 19/19/19
f 25/25/25 21/21/21 23/23/23
f 27/27/27 25/25/25 23/23/23
