mtllib ./Road1_0_264.mtl
g SCutL55
v -533.5172 34.59986 734.6455
v -533.5172 34.59986 734.6455
v -533.6927 34.59986 737.6689
v -533.6927 34.59986 737.6689
v -533.401 33.98699 732.6419
v -533.401 33.98699 732.6419
v -533.5172 34.59986 734.6455
v -533.5172 34.59986 734.6455
v -528.6199 34.65067 734.9189
v -528.6199 34.65067 734.9189
v -528.7516 34.65067 737.916
v -528.7516 34.65067 737.916
v -528.532 33.98699 732.9208
v -528.532 33.98699 732.9208
v -528.6199 34.65067 734.9189
v -528.6199 34.65067 734.9189
v -523.5834 34.66335 735.1152
v -523.5834 34.66335 735.1152
v -523.6871 34.66335 738.1135
v -523.6871 34.66335 738.1135
v -523.5143 34.02899 733.1165
v -523.5143 34.02899 733.1165
v -523.5834 34.66335 735.1152
v -523.5834 34.66335 735.1152
v -518.5674 34.64745 735.2711
v -518.5674 34.64745 735.2711
v -518.6511 34.64745 738.2698
v -518.6511 34.64745 738.2698
v -518.5116 34.14016 733.2719
v -518.5116 34.14016 733.2719
v -518.5674 34.64745 735.2711
v -518.5674 34.64745 735.2711
v -513.5054 34.61148 735.4001
v -513.5054 34.61148 735.4001
v -513.5756 34.61148 738.3992
v -513.5756 34.61148 738.3992
v -513.4586 34.12718 733.4008
v -513.4586 34.12718 733.4008
v -513.5054 34.61148 735.4001
v -513.5054 34.61148 735.4001
v -508.4526 34.56323 735.5116
v -508.4526 34.56323 735.5116
v -508.5155 34.56323 738.5107
v -508.5155 34.56323 738.5107
v -508.4106 34.08701 733.5121
v -508.4106 34.08701 733.5121
v -508.4526 34.56323 735.5116
v -508.4526 34.56323 735.5116
v -503.3388 34.50913 735.6169
v -503.3388 34.50913 735.6169
v -503.4005 34.50913 738.6161
v -503.4005 34.50913 738.6161
v -503.2977 34.03994 733.6175
v -503.2977 34.03994 733.6175
v -503.3388 34.50913 735.6169
v -503.3388 34.50913 735.6169
v -498.2293 34.45753 735.7257
v -498.2293 34.45753 735.7257
v -498.2968 34.45753 738.7248
v -498.2968 34.45753 738.7248
v -498.1844 34.01986 733.7263
v -498.1844 34.01986 733.7263
v -498.2293 34.45753 735.7257
v -498.2293 34.45753 735.7257
v -493.0808 34.41739 735.8525
v -493.0808 34.41739 735.8525
v -493.1631 34.41739 738.8513
v -493.1631 34.41739 738.8513
v -493.026 33.99806 733.8533
v -493.026 33.99806 733.8533
v -493.0808 34.41739 735.8525
v -493.0808 34.41739 735.8525

vn -0.01033899 0.9999464 -0.0006000728
vn 0 0 0
vn -0.01029862 0.9999468 -0.0005255857
vn 0 0 0
vn 0.01670372 0.9564005 -0.2915805
vn 0 0 0
vn 0.01219775 0.952808 -0.3033285
vn 0 0 0
vn -0.007672352 0.9999704 -0.0003855613
vn 0 0 0
vn -0.005054431 0.9999872 -0.000214317
vn 0 0 0
vn 0.009528145 0.9515591 -0.3073183
vn 0 0 0
vn 0.007146183 0.9504828 -0.3106949
vn 0 0 0
vn -0.000625211 0.9999999 -2.948669E-05
vn 0 0 0
vn 0.00126326 0.9999993 3.666608E-05
vn 0 0 0
vn 0.000678995 0.9517969 -0.3067281
vn 0 0 0
vn 0.002750526 0.9588454 -0.2839154
vn 0 0 0
vn 0.004479599 0.99999 0.0001320016
vn 0 0 0
vn 0.005784116 0.9999833 0.0001507918
vn 0 0 0
vn 0.002511855 0.9642462 -0.2649961
vn 0 0 0
vn 0.01078719 0.9701765 -0.2421593
vn 0 0 0
vn 0.007906754 0.9999688 0.0001958128
vn 0 0 0
vn 0.008716841 0.999962 0.0001964006
vn 0 0 0
vn 0.01152459 0.9710358 -0.2386564
vn 0 0 0
vn 0.01340459 0.9721749 -0.2338723
vn 0 0 0
vn 0.009885914 0.9999511 0.0002150928
vn 0 0 0
vn 0.0102285 0.9999477 0.0002130304
vn 0 0 0
vn 0.0136795 0.9724694 -0.2326281
vn 0 0 0
vn 0.0143719 0.9730129 -0.230303
vn 0 0 0
vn 0.01041368 0.9999456 0.0002155145
vn 0 0 0
vn 0.01025698 0.9999474 0.0002173288
vn 0 0 0
vn 0.01246875 0.9732826 -0.2292717
vn 0 0 0
vn 0.01269498 0.9746611 -0.2233263
vn 0 0 0
vn 0.009325628 0.9999566 0.0002032226
vn 0 0 0
vn 0.00856595 0.9999632 0.0002055588
vn 0 0 0
vn 0.01081851 0.9757826 -0.2184747
vn 0 0 0
vn 0.01214946 0.9774773 -0.2106905
vn 0 0 0
vn 0.007802293 0.9999695 0.0001948013
vn 0 0 0
vn 0.007813109 0.9999695 0.0002144423
vn 0 0 0
vn 0.01102808 0.9777911 -0.2092916
vn 0 0 0
vn 0.01267595 0.9786937 -0.2049337
vn 0 0 0

vt 0 0
vt 0 0
vt 0.03509521 0.6046753
vt 0.03509521 0.6046753
vt -0.02324219 -0.4007202
vt -0.02324219 -0.4007202
vt 0 0
vt 0 0
vt -0.9794678 0.05467529
vt -0.9794678 0.05467529
vt -0.9531128 0.6540894
vt -0.9531128 0.6540894
vt -0.9970459 -0.3449341
vt -0.9970459 -0.3449341
vt -0.9794678 0.05467529
vt -0.9794678 0.05467529
vt -1.986755 0.09394532
vt -1.986755 0.09394532
vt -1.966028 0.6935913
vt -1.966028 0.6935913
vt -2.000574 -0.3058105
vt -2.000574 -0.3058105
vt -1.986755 0.09394532
vt -1.986755 0.09394532
vt -2.989966 0.1251099
vt -2.989966 0.1251099
vt -2.97323 0.7248657
vt -2.97323 0.7248657
vt -3.001123 -0.2747315
vt -3.001123 -0.2747315
vt -2.989966 0.1251099
vt -2.989966 0.1251099
vt -4.002368 0.1509277
vt -4.002368 0.1509277
vt -3.988318 0.7507324
vt -3.988318 0.7507324
vt -4.011731 -0.2489502
vt -4.011731 -0.2489502
vt -4.002368 0.1509277
vt -4.002368 0.1509277
vt -5.012928 0.1732178
vt -5.012928 0.1732178
vt -5.000348 0.7730469
vt -5.000348 0.7730469
vt -5.021314 -0.2266724
vt -5.021314 -0.2266724
vt -5.012928 0.1732178
vt -5.012928 0.1732178
vt -6.035681 0.1942871
vt -6.035681 0.1942871
vt -6.023352 0.7941284
vt -6.023352 0.7941284
vt -6.043903 -0.205603
vt -6.043903 -0.205603
vt -6.035681 0.1942871
vt -6.035681 0.1942871
vt -7.057575 0.21604
vt -7.057575 0.21604
vt -7.044086 0.8158569
vt -7.044086 0.8158569
vt -7.066565 -0.1838379
vt -7.066565 -0.1838379
vt -7.057575 0.21604
vt -7.057575 0.21604
vt -8.08728 0.241394
vt -8.08728 0.241394
vt -8.070819 0.8411499
vt -8.070819 0.8411499
vt -8.098248 -0.1584473
vt -8.098248 -0.1584473
vt -8.08728 0.241394
vt -8.08728 0.241394

usemtl GSDShoulder1
usemap GSDShoulder1
f 9/9/9 1/1/1 3/3/3
f 11/11/11 9/9/9 3/3/3
f 13/13/13 5/5/5 7/7/7
f 15/15/15 13/13/13 7/7/7
f 17/17/17 9/9/9 11/11/11
f 19/19/19 17/17/17 11/11/11
f 21/21/21 13/13/13 15/15/15
f 23/23/23 21/21/21 15/15/15
f 25/25/25 17/17/17 19/19/19
f 27/27/27 25/25/25 19/19/19
f 29/29/29 21/21/21 23/23/23
f 31/31/31 29/29/29 23/23/23
f 33/33/33 25/25/25 27/27/27
f 35/35/35 33/33/33 27/27/27
f 37/37/37 29/29/29 31/31/31
f 39/39/39 37/37/37 31/31/31
f 41/41/41 33/33/33 35/35/35
f 43/43/43 41/41/41 35/35/35
f 45/45/45 37/37/37 39/39/39
f 47/47/47 45/45/45 39/39/39
f 49/49/49 41/41/41 43/43/43
f 51/51/51 49/49/49 43/43/43
f 53/53/53 45/45/45 47/47/47
f 55/55/55 53/53/53 47/47/47
f 57/57/57 49/49/49 51/51/51
f 59/59/59 57/57/57 51/51/51
f 61/61/61 53/53/53 55/55/55
f 63/63/63 61/61/61 55/55/55
f 65/65/65 57/57/57 59/59/59
f 67/67/67 65/65/65 59/59/59
f 69/69/69 61/61/61 63/63/63
f 71/71/71 69/69/69 63/63/63
