mtllib ./Road1_0_171.mtl
g SCutR32
v -39.77571 0.01222485 802.5792
v -39.77571 0.01222485 802.5792
v -42.71371 0.01222485 801.9726
v -42.71371 0.01222485 801.9726
v -42.71371 0.01222485 801.9726
v -42.71371 0.01222485 801.9726
v -44.67239 -0.3407326 801.5682
v -44.67239 -0.3407326 801.5682
v -40.86498 0.03583005 807.4197
v -40.86498 0.03583005 807.4197
v -43.78833 0.03583005 806.746
v -43.78833 0.03583005 806.746
v -43.78833 0.03583005 806.746
v -43.78833 0.03583005 806.746
v -45.73722 -0.3407326 806.297
v -45.73722 -0.3407326 806.297
v -41.95156 0.07687543 812.556
v -41.95156 0.07687543 812.556
v -44.92255 0.07687543 811.9756
v -44.92255 0.07687543 811.9756
v -44.92255 0.07687543 811.9756
v -44.92255 0.07687543 811.9756
v -46.89205 -0.3407326 811.5909
v -46.89205 -0.3407326 811.5909
v -42.88733 0.1394528 817.5737
v -42.88733 0.1394528 817.5737
v -45.87288 0.1394528 817.0284
v -45.87288 0.1394528 817.0284
v -45.87288 0.1394528 817.0284
v -45.87288 0.1394528 817.0284
v -47.84879 -0.3407326 816.6675
v -47.84879 -0.3407326 816.6675
v -43.81276 0.2245802 822.382
v -43.81276 0.2245802 822.382
v -46.78675 0.2245802 821.7503
v -46.78675 0.2245802 821.7503
v -46.78675 0.2245802 821.7503
v -46.78675 0.2245802 821.7503
v -48.75275 -0.2805278 821.3327
v -48.75275 -0.2805278 821.3327
v -44.9409 0.3309744 826.7467
v -44.9409 0.3309744 826.7467
v -47.83246 0.3309744 825.8008
v -47.83246 0.3309744 825.8008
v -47.83246 0.3309744 825.8008
v -47.83246 0.3309744 825.8008
v -49.7431 -0.2040596 825.1759
v -49.7431 -0.2040596 825.1759
v -46.50919 0.449294 830.2791
v -46.50919 0.449294 830.2791
v -49.10041 0.449294 828.6902
v -49.10041 0.449294 828.6902
v -49.10041 0.449294 828.6902
v -49.10041 0.449294 828.6902
v -50.81356 -0.1116625 827.6398
v -50.81356 -0.1116625 827.6398
v -48.7382 0.5541667 832.8682
v -48.7382 0.5541667 832.8682
v -50.68354 0.5541667 830.5432
v -50.68354 0.5541667 830.5432
v -50.68354 0.5541667 830.5432
v -50.68354 0.5541667 830.5432
v -51.9719 0.07174158 829.0034
v -51.9719 0.07174158 829.0034
v -51.91231 0.6201144 834.8331
v -51.91231 0.6201144 834.8331
v -53.18306 0.6201144 832.1156
v -53.18306 0.6201144 832.1156
v -53.18306 0.6201144 832.1156
v -53.18306 0.6201144 832.1156
v -54.03022 0.1712864 830.304
v -54.03022 0.1712864 830.304
v -55.99555 0.648136 836.3194
v -55.99555 0.648136 836.3194
v -56.81906 0.648136 833.4346
v -56.81906 0.648136 833.4346
v -56.81906 0.648136 833.4346
v -56.81906 0.648136 833.4346
v -57.36806 0.2008086 831.5115
v -57.36806 0.2008086 831.5115

vn 0.0009620886 0.9999887 -0.004660032
vn 0 0 0
vn 0.001022287 0.9999885 -0.004680462
vn 0 0 0
vn -0.1686117 0.9847516 -0.04282812
vn 0 0 0
vn -0.1745458 0.9837639 -0.04174311
vn 0 0 0
vn 0.00127724 0.9999829 -0.005701995
vn 0 0 0
vn 0.00144511 0.9999767 -0.00666945
vn 0 0 0
vn -0.1761802 0.9833982 -0.04345552
vn 0 0 0
vn -0.1865365 0.9814782 -0.0436448
vn 0 0 0
vn 0.001852322 0.9999575 -0.009027363
vn 0 0 0
vn 0.001994905 0.9999432 -0.01046915
vn 0 0 0
vn -0.1920563 0.9802863 -0.0464024
vn 0 0 0
vn -0.2084507 0.9769858 -0.04524617
vn 0 0 0
vn 0.002544948 0.9999036 -0.01365233
vn 0 0 0
vn 0.002978816 0.9998771 -0.01539495
vn 0 0 0
vn -0.2171152 0.9748153 -0.05095326
vn 0 0 0
vn -0.2300878 0.9716756 -0.0539086
vn 0 0 0
vn 0.003876508 0.9998105 -0.01907603
vn 0 0 0
vn 0.005401814 0.9997568 -0.0213828
vn 0 0 0
vn -0.2309549 0.9706218 -0.06747632
vn 0 0 0
vn -0.237058 0.9686479 -0.07432943
vn 0 0 0
vn 0.007341495 0.9996515 -0.02535555
vn 0 0 0
vn 0.01180962 0.9995326 -0.02819761
vn 0 0 0
vn -0.2338419 0.9672346 -0.09886982
vn 0 0 0
vn -0.2344555 0.9652906 -0.1150855
vn 0 0 0
vn 0.01482641 0.9994621 -0.02925229
vn 0 0 0
vn 0.02211955 0.999337 -0.02891681
vn 0 0 0
vn -0.215297 0.9634348 -0.1595014
vn 0 0 0
vn -0.1822577 0.965786 -0.1844983
vn 0 0 0
vn 0.0196101 0.9995869 -0.02101063
vn 0 0 0
vn 0.02112222 0.9996606 -0.01524905
vn 0 0 0
vn -0.1331968 0.9676831 -0.214122
vn 0 0 0
vn -0.09802448 0.97251 -0.2112236
vn 0 0 0
vn 0.01239157 0.9998951 -0.007510417
vn 0 0 0
vn 0.01008 0.99994 -0.004272135
vn 0 0 0
vn -0.08475503 0.974179 -0.2092651
vn 0 0 0
vn -0.07102002 0.9756438 -0.2075458
vn 0 0 0
vn 0.006391668 0.9999767 -0.002389359
vn 0 0 0
vn 0.006983314 0.9999737 -0.001993506
vn 0 0 0
vn -0.06760442 0.9756138 -0.2088235
vn 0 0 0
vn -0.06660629 0.9758642 -0.2079725
vn 0 0 0

vt 0 0
vt 0 0
vt 0.5876015 -0.1213135
vt 0.5876015 -0.1213135
vt 0.5876015 -0.1213135
vt 0.5876015 -0.1213135
vt 0.9793358 -0.2021973
vt 0.9793358 -0.2021973
vt 0.2178551 0.9681031
vt 0.2178551 0.9681031
vt 0.8025238 0.833374
vt 0.8025238 0.833374
vt 0.8025238 0.833374
vt 0.8025238 0.833374
vt 1.192304 0.7435669
vt 1.192304 0.7435669
vt 0.43517 1.995361
vt 0.43517 1.995361
vt 1.029369 1.879285
vt 1.029369 1.879285
vt 1.029369 1.879285
vt 1.029369 1.879285
vt 1.423269 1.802344
vt 1.423269 1.802344
vt 0.6223251 2.998901
vt 0.6223251 2.998901
vt 1.219434 2.889844
vt 1.219434 2.889844
vt 1.219434 2.889844
vt 1.219434 2.889844
vt 1.614616 2.817664
vt 1.614616 2.817664
vt 0.8074097 3.960559
vt 0.8074097 3.960559
vt 1.402208 3.834229
vt 1.402208 3.834229
vt 1.402208 3.834229
vt 1.402208 3.834229
vt 1.795408 3.750708
vt 1.795408 3.750708
vt 1.033038 4.833508
vt 1.033038 4.833508
vt 1.611351 4.644336
vt 1.611351 4.644336
vt 1.611351 4.644336
vt 1.611351 4.644336
vt 1.993479 4.519348
vt 1.993479 4.519348
vt 1.346696 5.53999
vt 1.346696 5.53999
vt 1.864941 5.222217
vt 1.864941 5.222217
vt 1.864941 5.222217
vt 1.864941 5.222217
vt 2.20757 5.012122
vt 2.20757 5.012122
vt 1.792498 6.0578
vt 1.792498 6.0578
vt 2.181567 5.592798
vt 2.181567 5.592798
vt 2.181567 5.592798
vt 2.181567 5.592798
vt 2.439238 5.284851
vt 2.439238 5.284851
vt 2.427321 6.450781
vt 2.427321 6.450781
vt 2.68147 5.907288
vt 2.68147 5.907288
vt 2.68147 5.907288
vt 2.68147 5.907288
vt 2.850903 5.544959
vt 2.850903 5.544959
vt 3.243969 6.748047
vt 3.243969 6.748047
vt 3.40867 6.171094
vt 3.40867 6.171094
vt 3.40867 6.171094
vt 3.40867 6.171094
vt 3.518471 5.786462
vt 3.518471 5.786462

usemtl GSDShoulder1
usemap GSDShoulder1
f 9/9/9 1/1/1 3/3/3
f 11/11/11 9/9/9 3/3/3
f 13/13/13 5/5/5 7/7/7
f 15/15/15 13/13/13 7/7/7
f 17/17/17 9/9/9 11/11/11
f 19/19/19 17/17/17 11/11/11
f 21/21/21 13/13/13 15/15/15
f 23/23/23 21/21/21 15/15/15
f 25/25/25 17/17/17 19/19/19
f 27/27/27 25/25/25 19/19/19
f 29/29/29 21/21/21 23/23/23
f 31/31/31 29/29/29 23/23/23
f 33/33/33 25/25/25 27/27/27
f 35/35/35 33/33/33 27/27/27
f 37/37/37 29/29/29 31/31/31
f 39/39/39 37/37/37 31/31/31
f 41/41/41 33/33/33 35/35/35
f 43/43/43 41/41/41 35/35/35
f 45/45/45 37/37/37 39/39/39
f 47/47/47 45/45/45 39/39/39
f 49/49/49 41/41/41 43/43/43
f 51/51/51 49/49/49 43/43/43
f 53/53/53 45/45/45 47/47/47
f 55/55/55 53/53/53 47/47/47
f 57/57/57 49/49/49 51/51/51
f 59/59/59 57/57/57 51/51/51
f 61/61/61 53/53/53 55/55/55
f 63/63/63 61/61/61 55/55/55
f 65/65/65 57/57/57 59/59/59
f 67/67/67 65/65/65 59/59/59
f 69/69/69 61/61/61 63/63/63
f 71/71/71 69/69/69 63/63/63
f 73/73/73 65/65/65 67/67/67
f 75/75/75 73/73/73 67/67/67
f 77/77/77 69/69/69 71/71/71
f 79/79/79 77/77/77 71/71/71
