mtllib ./Road1_0_0.mtl
g RoadCut0
v -107.9386 52.55458 628.1762
v -107.9386 52.55458 628.1762
v -98.07928 52.55458 626.7038
v -98.07928 52.55458 626.7038
v -108.4959 52.98161 622.8594
v -108.4959 52.98161 622.8594
v -98.56506 52.98161 622.0957
v -98.56506 52.98161 622.0957
v -108.8191 53.44043 617.7299
v -108.8191 53.44043 617.7299
v -98.87591 53.44043 617.2004
v -98.87591 53.44043 617.2004
v -109.0602 53.90855 612.6799
v -109.0602 53.90855 612.6799
v -99.11369 53.90855 612.2427
v -99.11369 53.90855 612.2427
v -109.2724 54.38139 607.6519
v -109.2724 54.38139 607.6519
v -99.32507 54.38139 607.2408
v -99.32507 54.38139 607.2408
v -109.4797 54.85069 602.6845
v -109.4797 54.85069 602.6845
v -99.53281 54.85069 602.2602
v -99.53281 54.85069 602.2602
v -109.706 55.32912 597.6149
v -109.706 55.32912 597.6149
v -99.76041 55.32912 597.1483
v -99.76041 55.32912 597.1483
v -109.9545 55.79494 592.6529
v -109.9545 55.79494 592.6529
v -100.0113 55.79494 592.1218
v -100.0113 55.79494 592.1218
v -110.2388 56.25411 587.7197
v -110.2388 56.25411 587.7197
v -100.2995 56.25411 587.1036
v -100.2995 56.25411 587.1036
v -110.5759 56.71452 582.7147
v -110.5759 56.71452 582.7147
v -100.6425 56.71452 581.9913
v -100.6425 56.71452 581.9913
v -110.9759 57.17087 577.6778
v -110.9759 57.17087 577.6778
v -101.0513 57.17087 576.8232
v -101.0513 57.17087 576.8232
v -111.4488 57.61776 572.6508
v -111.4488 57.61776 572.6508
v -101.5371 57.61776 571.6385
v -101.5371 57.61776 571.6385
v -112.0042 58.04991 567.674
v -112.0042 58.04991 567.674
v -102.1113 58.04991 566.4743
v -102.1113 58.04991 566.4743
v -112.6517 58.462 562.7896
v -112.6517 58.462 562.7896
v -102.7856 58.462 561.3681
v -102.7856 58.462 561.3681
v -113.4238 58.85966 557.9023
v -113.4238 58.85966 557.9023
v -103.5974 58.85966 556.2097
v -103.5974 58.85966 556.2097
v -114.3386 59.23449 553.0747
v -114.3386 59.23449 553.0747
v -104.5717 59.23449 551.0488
v -104.5717 59.23449 551.0488
v -115.4147 59.57701 548.3789
v -115.4147 59.57701 548.3789
v -105.7383 59.57701 545.9397
v -105.7383 59.57701 545.9397
v -116.7043 59.88367 543.7864
v -116.7043 59.88367 543.7864
v -107.1727 59.88367 540.8146
v -107.1727 59.88367 540.8146
v -118.2724 60.14247 539.3322
v -118.2724 60.14247 539.3322
v -108.9874 60.14247 535.6454
v -108.9874 60.14247 535.6454
v -120.1453 60.32639 535.2295
v -120.1453 60.32639 535.2295
v -111.3005 60.32639 530.5719
v -111.3005 60.32639 530.5719

vn 0.01177228 0.9968188 0.07882752
vn 0 0 0
vn 0.009573924 0.9963577 0.08473286
vn 0 0 0
vn 0.008636811 0.9962518 0.08606933
vn 0 0 0
vn 0.00626416 0.9958292 0.09102114
vn 0 0 0
vn 0.005570373 0.9958158 0.09121338
vn 0 0 0
vn 0.004659267 0.9956595 0.09295426
vn 0 0 0
vn 0.004379294 0.9956467 0.09310531
vn 0 0 0
vn 0.004037124 0.9955888 0.09373655
vn 0 0 0
vn 0.003956714 0.9955863 0.09376676
vn 0 0 0
vn 0.003918753 0.9955804 0.09383082
vn 0 0 0
vn 0.003958586 0.9955857 0.09377326
vn 0 0 0
vn 0.004120877 0.9956138 0.09346808
vn 0 0 0
vn 0.00424579 0.9956255 0.09333761
vn 0 0 0
vn 0.004551306 0.9956785 0.09275564
vn 0 0 0
vn 0.004742687 0.9956962 0.09255601
vn 0 0 0
vn 0.005161053 0.9957697 0.09173857
vn 0 0 0
vn 0.005408542 0.9957934 0.09146754
vn 0 0 0
vn 0.005931559 0.995886 0.09042031
vn 0 0 0
vn 0.006232078 0.9959168 0.09006034
vn 0 0 0
vn 0.006856415 0.9960285 0.08877092
vn 0 0 0
vn 0.00720949 0.9960679 0.08829923
vn 0 0 0
vn 0.007929088 0.9961989 0.0867457
vn 0 0 0
vn 0.008331447 0.9962483 0.08613859
vn 0 0 0
vn 0.009138172 0.9964001 0.08428112
vn 0 0 0
vn 0.009585158 0.9964607 0.08351031
vn 0 0 0
vn 0.0104671 0.9966343 0.08130611
vn 0 0 0
vn 0.01095173 0.99671 0.08030775
vn 0 0 0
vn 0.01190789 0.9969088 0.07766029
vn 0 0 0
vn 0.01241786 0.9970041 0.07634584
vn 0 0 0
vn 0.01343414 0.9972318 0.0731325
vn 0 0 0
vn 0.01393608 0.9973536 0.07135564
vn 0 0 0
vn 0.01495201 0.9976124 0.06742322
vn 0 0 0
vn 0.01536258 0.9977708 0.0649413
vn 0 0 0
vn 0.01627633 0.9980625 0.06005188
vn 0 0 0
vn 0.01640069 0.9982713 0.0564405
vn 0 0 0
vn 0.01698268 0.9985932 0.05023247
vn 0 0 0
vn 0.01633917 0.9988644 0.04475462
vn 0 0 0
vn 0.01600973 0.9991904 0.03690649
vn 0 0 0
vn 0.01523834 0.9993355 0.03310844
vn 0 0 0
vn 0.01538537 0.9994546 0.02921718
vn 0 0 0

vt 0 0
vt 0 0
vt -1.971863 -0.2944824
vt -1.971863 -0.2944824
vt 0.1114685 -1.063367
vt 0.1114685 -1.063367
vt -1.874707 -1.216101
vt -1.874707 -1.216101
vt 0.1761032 -2.08927
vt 0.1761032 -2.08927
vt -1.812538 -2.195154
vt -1.812538 -2.195154
vt 0.2243256 -3.099268
vt 0.2243256 -3.099268
vt -1.764981 -3.186694
vt -1.764981 -3.186694
vt 0.2667603 -4.104871
vt 0.2667603 -4.104871
vt -1.722705 -4.187073
vt -1.722705 -4.187073
vt 0.3082275 -5.09834
vt 0.3082275 -5.09834
vt -1.681158 -5.183203
vt -1.681158 -5.183203
vt 0.353476 -6.112256
vt 0.353476 -6.112256
vt -1.635638 -6.205591
vt -1.635638 -6.205591
vt 0.4031708 -7.104663
vt 0.4031708 -7.104663
vt -1.585458 -7.210889
vt -1.585458 -7.210889
vt 0.4600372 -8.091309
vt 0.4600372 -8.091309
vt -1.527823 -8.214526
vt -1.527823 -8.214526
vt 0.5274536 -9.092298
vt 0.5274536 -9.092298
vt -1.459226 -9.236976
vt -1.459226 -9.236976
vt 0.6074585 -10.09968
vt 0.6074585 -10.09968
vt -1.37746 -10.27061
vt -1.37746 -10.27061
vt 0.702031 -11.10509
vt 0.702031 -11.10509
vt -1.280302 -11.30753
vt -1.280302 -11.30753
vt 0.8131287 -12.10044
vt 0.8131287 -12.10044
vt -1.165469 -12.34038
vt -1.165469 -12.34038
vt 0.942627 -13.07732
vt 0.942627 -13.07732
vt -1.030606 -13.36162
vt -1.030606 -13.36162
vt 1.097037 -14.05477
vt 1.097037 -14.05477
vt -0.8682465 -14.3933
vt -0.8682465 -14.3933
vt 1.280003 -15.0203
vt 1.280003 -15.0203
vt -0.673375 -15.42548
vt -0.673375 -15.42548
vt 1.495221 -15.95946
vt 1.495221 -15.95946
vt -0.4400574 -16.4473
vt -0.4400574 -16.4473
vt 1.753137 -16.87797
vt 1.753137 -16.87797
vt -0.1531891 -17.47233
vt -0.1531891 -17.47233
vt 2.066757 -17.7688
vt 2.066757 -17.7688
vt 0.2097656 -18.50615
vt 0.2097656 -18.50615
vt 2.441347 -18.58934
vt 2.441347 -18.58934
vt 0.6723709 -19.52086
vt 0.6723709 -19.52086

usemtl GSDRoad1
usemap GSDRoad1
f 5/5/5 1/1/1 3/3/3
f 7/7/7 5/5/5 3/3/3
f 9/9/9 5/5/5 7/7/7
f 11/11/11 9/9/9 7/7/7
f 13/13/13 9/9/9 11/11/11
f 15/15/15 13/13/13 11/11/11
f 17/17/17 13/13/13 15/15/15
f 19/19/19 17/17/17 15/15/15
f 21/21/21 17/17/17 19/19/19
f 23/23/23 21/21/21 19/19/19
f 25/25/25 21/21/21 23/23/23
f 27/27/27 25/25/25 23/23/23
f 29/29/29 25/25/25 27/27/27
f 31/31/31 29/29/29 27/27/27
f 33/33/33 29/29/29 31/31/31
f 35/35/35 33/33/33 31/31/31
f 37/37/37 33/33/33 35/35/35
f 39/39/39 37/37/37 35/35/35
f 41/41/41 37/37/37 39/39/39
f 43/43/43 41/41/41 39/39/39
f 45/45/45 41/41/41 43/43/43
f 47/47/47 45/45/45 43/43/43
f 49/49/49 45/45/45 47/47/47
f 51/51/51 49/49/49 47/47/47
f 53/53/53 49/49/49 51/51/51
f 55/55/55 53/53/53 51/51/51
f 57/57/57 53/53/53 55/55/55
f 59/59/59 57/57/57 55/55/55
f 61/61/61 57/57/57 59/59/59
f 63/63/63 61/61/61 59/59/59
f 65/65/65 61/61/61 63/63/63
f 67/67/67 65/65/65 63/63/63
f 69/69/69 65/65/65 67/67/67
f 71/71/71 69/69/69 67/67/67
f 73/73/73 69/69/69 71/71/71
f 75/75/75 73/73/73 71/71/71
f 77/77/77 73/73/73 75/75/75
f 79/79/79 77/77/77 75/75/75
