mtllib ./Road1_0_53.mtl
g Markers26
v -122.5623 0.03990139 182.891
v -122.5623 0.03990139 182.891
v -130.5659 0.03990139 188.8862
v -130.5659 0.03990139 188.8862
v -119.4808 0.04 187.0641
v -119.4808 0.04 187.0641
v -127.5742 0.04 192.9376
v -127.5742 0.04 192.9376
v -116.4865 0.04 191.2673
v -116.4865 0.04 191.2673
v -124.6833 0.04 196.9956
v -124.6833 0.04 196.9956
v -113.543 0.04 195.5666
v -113.543 0.04 195.5666
v -121.8493 0.04 201.1347
v -121.8493 0.04 201.1347
v -110.7416 0.04 199.8373
v -110.7416 0.04 199.8373
v -119.1587 0.04 205.2366
v -119.1587 0.04 205.2366
v -108.0077 0.04 204.1998
v -108.0077 0.04 204.1998
v -116.5372 0.04 209.4197
v -116.5372 0.04 209.4197
v -105.3473 0.04 208.6543
v -105.3473 0.04 208.6543
v -113.9874 0.04 213.6891
v -113.9874 0.04 213.6891
v -102.8183 0.04 213.0998
v -102.8183 0.04 213.0998
v -111.5603 0.04 217.9555
v -111.5603 0.04 217.9555
v -100.3436 0.04 217.6597
v -100.3436 0.04 217.6597
v -109.1771 0.04 222.3469
v -109.1771 0.04 222.3469
v -97.95723 0.04 222.2496
v -97.95723 0.04 222.2496
v -106.8654 0.04 226.7931
v -106.8654 0.04 226.7931
v -95.67431 0.04 226.7968
v -95.67431 0.04 226.7968
v -104.6364 0.04 231.2331
v -104.6364 0.04 231.2331
v -93.45044 0.04 231.3359
v -93.45044 0.04 231.3359
v -102.4449 0.04 235.7063
v -102.4449 0.04 235.7063
v -91.24008 0.04 235.904
v -91.24008 0.04 235.904
v -100.2453 0.04 240.252
v -100.2453 0.04 240.252
v -89.04929 0.04 240.4331
v -89.04929 0.04 240.4331
v -98.04517 0.04 244.8005
v -98.04517 0.04 244.8005
v -86.83878 0.04 244.9544
v -86.83878 0.04 244.9544
v -95.80779 0.04 249.3768
v -95.80779 0.04 249.3768
v -84.57501 0.04 249.4949
v -84.57501 0.04 249.4949
v -93.50252 0.04 254.0004
v -93.50252 0.04 254.0004

vn -1.139644E-05 1 -1.521434E-05
vn 0 0 0
vn -1.144765E-05 1 -1.552591E-05
vn 0 0 0
vn -7.607729E-06 1 -1.031801E-05
vn 0 0 0
vn -3.815964E-06 1 -5.258167E-06
vn 0 0 0
vn -2.12014E-10 1 -2.958243E-10
vn 0 0 0
vn -1.961119E-12 1 1.342359E-12
vn 0 0 0
vn 6.958441E-11 1 9.956978E-11
vn 0 0 0
vn -6.691792E-11 1 -1.043211E-10
vn 0 0 0
vn -6.841088E-11 1 -1.020522E-10
vn 0 0 0
vn 6.486273E-11 1 1.059895E-10
vn 0 0 0
vn 1.295112E-10 1 2.066824E-10
vn 0 0 0
vn 6.440126E-11 1 1.052355E-10
vn 0 0 0
vn 0 1 0
vn 0 0 0
vn 0 1 0
vn 0 0 0
vn -5.946257E-11 1 -1.070533E-10
vn 0 0 0
vn -1.177762E-10 1 -2.16911E-10
vn 0 0 0
vn -5.889441E-11 1 -1.060304E-10
vn 0 0 0
vn 5.574993E-11 1 1.093048E-10
vn 0 0 0
vn 1.679963E-10 1 3.250308E-10
vn 0 0 0
vn 1.6718E-10 1 3.310451E-10
vn 0 0 0
vn 1.322666E-12 1 -6.647186E-13
vn 0 0 0
vn -1.635879E-10 1 -3.345864E-10
vn 0 0 0
vn -1.632433E-10 1 -3.31823E-10
vn 0 0 0
vn -2.754508E-13 1 1.333979E-13
vn 0 0 0
vn 1.071487E-10 1 2.21214E-10
vn 0 0 0
vn 5.351522E-11 1 1.108353E-10
vn 0 0 0
vn 0 1 0
vn 0 0 0
vn 0 1 0
vn 0 0 0
vn 0 1 0
vn 0 0 0
vn 0 1 0
vn 0 0 0
vn 0 1 0
vn 0 0 0
vn 0 1 0
vn 0 0 0

vt 0 418.9448
vt 0 0
vt 1 418.9448
vt 0 0
vt 0 419.9823
vt 0 419.9823
vt 1 419.9823
vt 1 419.9823
vt 0 421.0145
vt 0 421.0145
vt 1 421.0145
vt 1 421.0145
vt 0 422.0565
vt 0 422.0565
vt 1 422.0565
vt 1 422.0565
vt 0 423.0781
vt 0 423.0781
vt 1 423.0781
vt 1 423.0781
vt 0 424.1077
vt 0 424.1077
vt 1 424.1077
vt 1 424.1077
vt 0 425.1454
vt 0 425.1454
vt 1 425.1454
vt 1 425.1454
vt 0 426.1683
vt 0 426.1683
vt 1 426.1683
vt 1 426.1683
vt 0 427.206
vt 0 427.206
vt 1 427.206
vt 1 427.206
vt 0 428.2406
vt 0 428.2406
vt 1 428.2406
vt 1 428.2406
vt 0 429.2582
vt 0 429.2582
vt 1 429.2582
vt 1 429.2582
vt 0 430.2691
vt 0 430.2691
vt 1 430.2691
vt 1 430.2691
vt 0 431.2841
vt 0 431.2841
vt 1 431.2841
vt 1 431.2841
vt 0 432.2903
vt 0 432.2903
vt 1 432.2903
vt 1 432.2903
vt 0 433.2969
vt 0 433.2969
vt 1 433.2969
vt 1 433.2969
vt 0 434.3116
vt 0 0
vt 1 434.3116
vt 0 0

usemtl GSDWhiteYellowDouble
usemap GSDWhiteYellowDouble
f 5/5/5 1/1/1 3/3/3
f 7/7/7 5/5/5 3/3/3
f 9/9/9 5/5/5 7/7/7
f 11/11/11 9/9/9 7/7/7
f 13/13/13 9/9/9 11/11/11
f 15/15/15 13/13/13 11/11/11
f 17/17/17 13/13/13 15/15/15
f 19/19/19 17/17/17 15/15/15
f 21/21/21 17/17/17 19/19/19
f 23/23/23 21/21/21 19/19/19
f 25/25/25 21/21/21 23/23/23
f 27/27/27 25/25/25 23/23/23
f 29/29/29 25/25/25 27/27/27
f 31/31/31 29/29/29 27/27/27
f 33/33/33 29/29/29 31/31/31
f 35/35/35 33/33/33 31/31/31
f 37/37/37 33/33/33 35/35/35
f 39/39/39 37/37/37 35/35/35
f 41/41/41 37/37/37 39/39/39
f 43/43/43 41/41/41 39/39/39
f 45/45/45 41/41/41 43/43/43
f 47/47/47 45/45/45 43/43/43
f 49/49/49 45/45/45 47/47/47
f 51/51/51 49/49/49 47/47/47
f 53/53/53 49/49/49 51/51/51
f 55/55/55 53/53/53 51/51/51
f 57/57/57 53/53/53 55/55/55
f 59/59/59 57/57/57 55/55/55
f 61/61/61 57/57/57 59/59/59
f 63/63/63 61/61/61 59/59/59
