mtllib ./Road1_0_66.mtl
g RoadCut33
v -53.25053 0.648136 845.9352
v -53.25053 0.648136 845.9352
v -55.99555 0.648136 836.3194
v -55.99555 0.648136 836.3194
v -58.78761 0.647976 847.1591
v -58.78761 0.647976 847.1591
v -60.26754 0.647976 837.2692
v -60.26754 0.647976 837.2692
v -64.30965 0.6302109 847.6622
v -64.30965 0.6302109 847.6622
v -64.71439 0.6302109 837.6705
v -64.71439 0.6302109 837.6705
v -69.66971 0.6016188 847.6791
v -69.66971 0.6016188 847.6791
v -69.37369 0.6016188 837.6837
v -69.37369 0.6016188 837.6837
v -75.00329 0.5655963 847.3867
v -75.00329 0.5655963 847.3867
v -74.23559 0.5655963 837.4165
v -74.23559 0.5655963 837.4165
v -80.13905 0.5261269 846.9063
v -80.13905 0.5261269 846.9063
v -79.06422 0.5261269 836.9645
v -79.06422 0.5261269 836.9645
v -85.25204 0.4838491 846.2968
v -85.25204 0.4838491 846.2968
v -83.97445 0.4838491 836.379
v -83.97445 0.4838491 836.379
v -90.3054 0.4403746 845.6107
v -90.3054 0.4403746 845.6107
v -88.90321 0.4403746 835.7098
v -88.90321 0.4403746 835.7098
v -95.39423 0.3958729 844.8702
v -95.39423 0.3958729 844.8702
v -93.92594 0.3958729 834.9789
v -93.92594 0.3958729 834.9789
v -100.3648 0.3524672 844.126
v -100.3648 0.3524672 844.126
v -98.87859 0.3524672 834.2374
v -98.87859 0.3524672 834.2374
v -105.3213 0.3098701 843.3848
v -105.3213 0.3098701 843.3848
v -103.8557 0.3098701 833.4931
v -103.8557 0.3098701 833.4931
v -110.2472 0.2687398 842.6673
v -110.2472 0.2687398 842.6673
v -108.8354 0.2687398 832.7678
v -108.8354 0.2687398 832.7678
v -115.2652 0.2285582 841.9724
v -115.2652 0.2285582 841.9724
v -113.9384 0.2285582 832.0611
v -113.9384 0.2285582 832.0611
v -120.2231 0.1909927 841.3361
v -120.2231 0.1909927 841.3361
v -119.0082 0.1909927 831.4105
v -119.0082 0.1909927 831.4105
v -125.251 0.1554786 840.7556
v -125.251 0.1554786 840.7556
v -124.1762 0.1554786 830.8137
v -124.1762 0.1554786 830.8137
v -130.1941 0.1234857 840.2609
v -130.1941 0.1234857 840.2609
v -129.282 0.1234857 830.3028
v -129.282 0.1234857 830.3028
v -135.1861 0.09449637 839.8503
v -135.1861 0.09449637 839.8503
v -134.4632 0.09449637 829.8767
v -134.4632 0.09449637 829.8767
v -140.2193 0.0690307 839.5392
v -140.2193 0.0690307 839.5392
v -139.7122 0.0690307 829.5522
v -139.7122 0.0690307 829.5522
v -145.1352 0.04818428 839.3466
v -145.1352 0.04818428 839.3466
v -144.863 0.04818428 829.3503
v -144.863 0.04818428 829.3503
v -150.0743 0.03162992 839.2755
v -150.0743 0.03162992 839.2755
v -150.0628 0.03162992 829.2755
v -150.0628 0.03162992 829.2755

vn -2.717745E-05 1 7.758297E-06
vn 0 0 0
vn -3.112462E-05 1 6.741596E-06
vn 0 0 0
vn -0.001149082 0.9999993 0.0001732917
vn 0 0 0
vn -0.002470495 0.999997 0.0002347938
vn 0 0 0
vn -0.004161683 0.9999913 0.0002934794
vn 0 0 0
vn -0.005175124 0.9999866 7.116E-05
vn 0 0 0
vn -0.006067389 0.9999816 -4.920754E-05
vn 0 0 0
vn -0.006760933 0.9999771 -0.0003147149
vn 0 0 0
vn -0.00724175 0.9999737 -0.0004465767
vn 0 0 0
vn -0.007698014 0.9999701 -0.0006748181
vn 0 0 0
vn -0.007958949 0.9999681 -0.0007796757
vn 0 0 0
vn -0.00824476 0.9999656 -0.0009494626
vn 0 0 0
vn -0.008364089 0.9999645 -0.001020168
vn 0 0 0
vn -0.008528913 0.999963 -0.001135381
vn 0 0 0
vn -0.008558176 0.9999627 -0.001175751
vn 0 0 0
vn -0.008631005 0.999962 -0.001242111
vn 0 0 0
vn -0.008594322 0.9999623 -0.001256059
vn 0 0 0
vn -0.008595501 0.9999623 -0.001281213
vn 0 0 0
vn -0.008506125 0.999963 -0.001273158
vn 0 0 0
vn -0.008449458 0.9999635 -0.001263952
vn 0 0 0
vn -0.008317352 0.9999647 -0.001238302
vn 0 0 0
vn -0.008212503 0.9999656 -0.001201782
vn 0 0 0
vn -0.00803795 0.999967 -0.001161333
vn 0 0 0
vn -0.00788999 0.9999682 -0.001102402
vn 0 0 0
vn -0.00767846 0.9999699 -0.00105075
vn 0 0 0
vn -0.007492304 0.9999714 -0.0009749191
vn 0 0 0
vn -0.007235425 0.9999734 -0.0009137246
vn 0 0 0
vn -0.007014375 0.9999751 -0.0008257255
vn 0 0 0
vn -0.006720798 0.9999771 -0.0007596528
vn 0 0 0
vn -0.006468451 0.9999788 -0.0006649085
vn 0 0 0
vn -0.006125085 0.9999811 -0.0005957733
vn 0 0 0
vn -0.00584426 0.9999828 -0.0004992482
vn 0 0 0
vn -0.005454567 0.9999851 -0.000431524
vn 0 0 0
vn -0.005144905 0.9999867 -0.0003373048
vn 0 0 0
vn -0.00470749 0.9999889 -0.0002752677
vn 0 0 0
vn -0.004375739 0.9999905 -0.0001901959
vn 0 0 0
vn -0.003877059 0.9999925 -0.0001382244
vn 0 0 0
vn -0.003527037 0.9999938 -6.780498E-05
vn 0 0 0
vn -0.003264814 0.9999947 -4.631875E-05
vn 0 0 0
vn -0.003183594 0.9999949 -3.67248E-06
vn 0 0 0

vt 0 0
vt 0 0
vt 0.5490036 -1.923169
vt 0.5490036 -1.923169
vt 1.107416 0.2447754
vt 1.107416 0.2447754
vt 1.403401 -1.733203
vt 1.403401 -1.733203
vt 2.211824 0.3453979
vt 2.211824 0.3453979
vt 2.292772 -1.652942
vt 2.292772 -1.652942
vt 3.283835 0.3487671
vt 3.283835 0.3487671
vt 3.224631 -1.650305
vt 3.224631 -1.650305
vt 4.350551 0.2902954
vt 4.350551 0.2902954
vt 4.197011 -1.703748
vt 4.197011 -1.703748
vt 5.377704 0.1942017
vt 5.377704 0.1942017
vt 5.162738 -1.794153
vt 5.162738 -1.794153
vt 6.400301 0.07230224
vt 6.400301 0.07230224
vt 6.144783 -1.911243
vt 6.144783 -1.911243
vt 7.410973 -0.06491699
vt 7.410973 -0.06491699
vt 7.130535 -2.045093
vt 7.130535 -2.045093
vt 8.428741 -0.2130127
vt 8.428741 -0.2130127
vt 8.135081 -2.19126
vt 8.135081 -2.19126
vt 9.422856 -0.361853
vt 9.422856 -0.361853
vt 9.125612 -2.339563
vt 9.125612 -2.339563
vt 10.41415 -0.510083
vt 10.41415 -0.510083
vt 10.12103 -2.488428
vt 10.12103 -2.488428
vt 11.39934 -0.6535889
vt 11.39934 -0.6535889
vt 11.11697 -2.633496
vt 11.11697 -2.633496
vt 12.40293 -0.7925782
vt 12.40293 -0.7925782
vt 12.13758 -2.774829
vt 12.13758 -2.774829
vt 13.39451 -0.9198242
vt 13.39451 -0.9198242
vt 13.15154 -2.904956
vt 13.15154 -2.904956
vt 14.4001 -1.035938
vt 14.4001 -1.035938
vt 14.18513 -3.024317
vt 14.18513 -3.024317
vt 15.38871 -1.134863
vt 15.38871 -1.134863
vt 15.2063 -3.126489
vt 15.2063 -3.126489
vt 16.38711 -1.21698
vt 16.38711 -1.21698
vt 16.24253 -3.211707
vt 16.24253 -3.211707
vt 17.39376 -1.279199
vt 17.39376 -1.279199
vt 17.29233 -3.276611
vt 17.29233 -3.276611
vt 18.37693 -1.317737
vt 18.37693 -1.317737
vt 18.32249 -3.31698
vt 18.32249 -3.31698
vt 19.36476 -1.331946
vt 19.36476 -1.331946
vt 19.36245 -3.331946
vt 19.36245 -3.331946

usemtl GSDRoad1
usemap GSDRoad1
f 5/5/5 1/1/1 3/3/3
f 7/7/7 5/5/5 3/3/3
f 9/9/9 5/5/5 7/7/7
f 11/11/11 9/9/9 7/7/7
f 13/13/13 9/9/9 11/11/11
f 15/15/15 13/13/13 11/11/11
f 17/17/17 13/13/13 15/15/15
f 19/19/19 17/17/17 15/15/15
f 21/21/21 17/17/17 19/19/19
f 23/23/23 21/21/21 19/19/19
f 25/25/25 21/21/21 23/23/23
f 27/27/27 25/25/25 23/23/23
f 29/29/29 25/25/25 27/27/27
f 31/31/31 29/29/29 27/27/27
f 33/33/33 29/29/29 31/31/31
f 35/35/35 33/33/33 31/31/31
f 37/37/37 33/33/33 35/35/35
f 39/39/39 37/37/37 35/35/35
f 41/41/41 37/37/37 39/39/39
f 43/43/43 41/41/41 39/39/39
f 45/45/45 41/41/41 43/43/43
f 47/47/47 45/45/45 43/43/43
f 49/49/49 45/45/45 47/47/47
f 51/51/51 49/49/49 47/47/47
f 53/53/53 49/49/49 51/51/51
f 55/55/55 53/53/53 51/51/51
f 57/57/57 53/53/53 55/55/55
f 59/59/59 57/57/57 55/55/55
f 61/61/61 57/57/57 59/59/59
f 63/63/63 61/61/61 59/59/59
f 65/65/65 61/61/61 63/63/63
f 67/67/67 65/65/65 63/63/63
f 69/69/69 65/65/65 67/67/67
f 71/71/71 69/69/69 67/67/67
f 73/73/73 69/69/69 71/71/71
f 75/75/75 73/73/73 71/71/71
f 77/77/77 73/73/73 75/75/75
f 79/79/79 77/77/77 75/75/75
