mtllib ./Road1_0_244.mtl
g SCutL35
v -286.0997 0.02973747 850.124
v -286.0997 0.02973747 850.124
v -286.2578 0.02973747 847.1281
v -286.2578 0.02973747 847.1281
v -285.9943 -0.3341416 852.1212
v -285.9943 -0.3341416 852.1212
v -286.0997 0.02973747 850.124
v -286.0997 0.02973747 850.124
v -291.0872 0.02928868 850.3907
v -291.0872 0.02928868 850.3907
v -291.2541 0.02928868 847.3954
v -291.2541 0.02928868 847.3954
v -290.9759 -0.3341416 852.3876
v -290.9759 -0.3341416 852.3876
v -291.0872 0.02928868 850.3907
v -291.0872 0.02928868 850.3907
v -296.0797 0.02417259 850.6801
v -296.0797 0.02417259 850.6801
v -296.2596 0.02417259 847.6854
v -296.2596 0.02417259 847.6854
v -295.9598 -0.3341416 852.6765
v -295.9598 -0.3341416 852.6765
v -296.0797 0.02417259 850.6801
v -296.0797 0.02417259 850.6801
v -301.1502 0.01479916 850.9944
v -301.1502 0.01479916 850.9944
v -301.3411 0.01479916 848.0005
v -301.3411 0.01479916 848.0005
v -301.0229 -0.3341416 852.9903
v -301.0229 -0.3341416 852.9903
v -301.1502 0.01479916 850.9944
v -301.1502 0.01479916 850.9944
v -306.1701 0.002037905 851.3224
v -306.1701 0.002037905 851.3224
v -306.3701 0.002037905 848.329
v -306.3701 0.002037905 848.329
v -306.0368 -0.3341416 853.3179
v -306.0368 -0.3341416 853.3179
v -306.1701 0.002037905 851.3224
v -306.1701 0.002037905 851.3224
v -311.2513 0 851.6952
v -311.2513 0 851.6952
v -311.4606 0 848.6758
v -311.4606 0 848.6758
v -311.1126 -0.3341416 853.6971
v -311.1126 -0.3341416 853.6971
v -311.2513 0 851.6952
v -311.2513 0 851.6952
v -316.2661 0 852.0513
v -316.2661 0 852.0513
v -316.4813 0 849.0287
v -316.4813 0 849.0287
v -316.1235 -0.3341416 854.0538
v -316.1235 -0.3341416 854.0538
v -316.2661 0 852.0513
v -316.2661 0 852.0513
v -321.3311 0 852.4187
v -321.3311 0 852.4187
v -321.5508 0 849.3936
v -321.5508 0 849.3936
v -321.1855 -0.3341416 854.4217
v -321.1855 -0.3341416 854.4217
v -321.3311 0 852.4187
v -321.3311 0 852.4187
v -326.3134 0 852.7852
v -326.3134 0 852.7852
v -326.5362 0 849.7582
v -326.5362 0 849.7582
v -326.1659 -0.3341416 854.7886
v -326.1659 -0.3341416 854.7886
v -326.3134 0 852.7852
v -326.3134 0 852.7852
v -331.3336 0 853.1577
v -331.3336 0 853.1577
v -331.5581 0 850.1294
v -331.5581 0 850.1294
v -331.1851 -0.3341416 855.1614
v -331.1851 -0.3341416 855.1614
v -331.3336 0 853.1577
v -331.3336 0 853.1577
v -336.3884 0 853.5336
v -336.3884 0 853.5336
v -336.6133 0 850.5045
v -336.6133 0 850.5045
v -336.2397 -0.3341416 855.5374
v -336.2397 -0.3341416 855.5374
v -336.3884 0 853.5336
v -336.3884 0 853.5336
v -341.472 0 853.9103
v -341.472 0 853.9103
v -341.6959 0 850.8812
v -341.6959 0 850.8812
v -341.3238 -0.3341416 855.9142
v -341.3238 -0.3341416 855.9142
v -341.472 0 853.9103
v -341.472 0 853.9103
v -346.5808 0 854.2859
v -346.5808 0 854.2859
v -346.8026 0 851.2571
v -346.8026 0 851.2571
v -346.4341 -0.3341416 856.2897
v -346.4341 -0.3341416 856.2897
v -346.5808 0 854.2859
v -346.5808 0 854.2859
v -351.5782 0 854.6479
v -351.5782 0 854.6479
v -351.7967 0 851.6202
v -351.7967 0 851.6202
v -351.4337 -0.3341416 856.6516
v -351.4337 -0.3341416 856.6516
v -351.5782 0 854.6479
v -351.5782 0 854.6479
v -356.5909 0 855.0042
v -356.5909 0 855.0042
v -356.8048 0 851.978
v -356.8048 0 851.978
v -356.4493 -0.3341416 857.0076
v -356.4493 -0.3341416 857.0076
v -356.5909 0 855.0042
v -356.5909 0 855.0042
v -361.6148 0 855.3523
v -361.6148 0 855.3523
v -361.8229 0 852.3283
v -361.8229 0 852.3283
v -361.4769 -0.3341416 857.3553
v -361.4769 -0.3341416 857.3553
v -361.6148 0 855.3523
v -361.6148 0 855.3523
v -366.6458 0 855.69
v -366.6458 0 855.69
v -366.847 0 852.6687
v -366.847 0 852.6687
v -366.5124 -0.3341416 857.6926
v -366.5124 -0.3341416 857.6926
v -366.6458 0 855.69
v -366.6458 0 855.69
v -371.6809 0 855.991
v -371.6809 0 855.991
v -371.8725 0 852.9971
v -371.8725 0 852.9971
v -371.5533 -0.3341416 857.9869
v -371.5533 -0.3341416 857.9869
v -371.6809 0 855.991
v -371.6809 0 855.991
v -376.7128 0 856.3055
v -376.7128 0 856.3055
v -376.8953 0 853.3111
v -376.8953 0 853.3111
v -376.5911 -0.3341416 858.3018
v -376.5911 -0.3341416 858.3018
v -376.7128 0 856.3055
v -376.7128 0 856.3055
v -381.7396 0 856.6035
v -381.7396 0 856.6035
v -381.9119 0 853.6085
v -381.9119 0 853.6085
v -381.6247 -0.3341416 858.6002
v -381.6247 -0.3341416 858.6002
v -381.7396 0 856.6035
v -381.7396 0 856.6035
v -386.8891 0 856.8899
v -386.8891 0 856.8899
v -387.0496 0 853.8942
v -387.0496 0 853.8942
v -386.7821 -0.3341416 858.887
v -386.7821 -0.3341416 858.887
v -386.8891 0 856.8899
v -386.8891 0 856.8899
v -392.0239 0 857.1539
v -392.0239 0 857.1539
v -392.1712 0 854.1575
v -392.1712 0 854.1575
v -391.9257 -0.3341416 859.1514
v -391.9257 -0.3341416 859.1514
v -392.0239 0 857.1539
v -392.0239 0 857.1539
v -397.1404 0 857.3932
v -397.1404 0 857.3932
v -397.2732 0 854.3961
v -397.2732 0 854.3961
v -397.052 -0.3341416 859.3912
v -397.052 -0.3341416 859.3912
v -397.1404 0 857.3932
v -397.1404 0 857.3932
v -402.2339 0 857.6053
v -402.2339 0 857.6053
v -402.3506 0 854.6076
v -402.3506 0 854.6076
v -402.1562 -0.3341416 859.6038
v -402.1562 -0.3341416 859.6038
v -402.2339 0 857.6053
v -402.2339 0 857.6053
v -407.3007 0 857.7877
v -407.3007 0 857.7877
v -407.3997 0 854.7894
v -407.3997 0 854.7894
v -407.2347 -0.3341416 859.7866
v -407.2347 -0.3341416 859.7866
v -407.3007 0 857.7877
v -407.3007 0 857.7877
v -412.4638 0 857.9727
v -412.4638 0 857.9727
v -412.5438 0 854.9424
v -412.5438 0 854.9424
v -412.4108 -0.3341416 859.9799
v -412.4108 -0.3341416 859.9799
v -412.4638 0 857.9727
v -412.4638 0 857.9727
v -417.5901 0 858.1003
v -417.5901 0 858.1003
v -417.6484 0 855.0593
v -417.6484 0 855.0593
v -417.5515 -0.3341416 860.1103
v -417.5515 -0.3341416 860.1103
v -417.5901 0 858.1003
v -417.5901 0 858.1003
v -422.6747 0 858.1891
v -422.6747 0 858.1891
v -422.7093 0 855.1367
v -422.7093 0 855.1367
v -422.6518 -0.3341416 860.2021
v -422.6518 -0.3341416 860.2021
v -422.6747 0 858.1891
v -422.6747 0 858.1891
v -427.8376 0 858.2374
v -427.8376 0 858.2374
v -427.8455 0 855.1729
v -427.8455 0 855.1729
v -427.8324 -0.3341416 860.2535
v -427.8324 -0.3341416 860.2535
v -427.8376 0 858.2374
v -427.8376 0 858.2374
v -432.947 0 858.2393
v -432.947 0 858.2393
v -432.9257 0 855.1621
v -432.9257 0 855.1621
v -432.961 -0.3341416 860.2585
v -432.961 -0.3341416 860.2585
v -432.947 0 858.2393
v -432.947 0 858.2393
v -438.1213 0 858.1901
v -438.1213 0 858.1901
v -438.067 0 855.0995
v -438.067 0 855.0995
v -438.1568 -0.3341416 860.2124
v -438.1568 -0.3341416 860.2124
v -438.1213 0 858.1901
v -438.1213 0 858.1901
v -443.2294 0 858.0857
v -443.2294 0 858.0857
v -443.139 0 854.9814
v -443.139 0 854.9814
v -443.2884 -0.3341416 860.1111
v -443.2884 -0.3341416 860.1111
v -443.2294 0 858.0857
v -443.2294 0 858.0857
v -448.3851 0.07519178 857.9185
v -448.3851 0.07519178 857.9185
v -448.2541 0.07519178 854.8
v -448.2541 0.07519178 854.8
v -448.4703 -0.3341416 859.9468
v -448.4703 -0.3341416 859.9468
v -448.3851 0.07519178 857.9185
v -448.3851 0.07519178 857.9185

vn -8.973072E-05 0.9999999 4.734793E-06
vn 0 0 0
vn -8.964439E-05 1 4.862587E-06
vn 0 0 0
vn 0.009561723 0.9838485 0.1787479
vn 0 0 0
vn 0.009511681 0.9838679 0.1786433
vn 0 0 0
vn -0.0004003241 0.9999999 2.22177E-05
vn 0 0 0
vn -0.0007100124 0.9999998 4.104255E-05
vn 0 0 0
vn 0.009789011 0.9838745 0.1785921
vn 0 0 0
vn 0.009667121 0.9840347 0.1777139
vn 0 0 0
vn -0.001296561 0.9999992 7.641667E-05
vn 0 0 0
vn -0.001568475 0.9999987 9.650761E-05
vn 0 0 0
vn 0.01015379 0.9841824 0.1768673
vn 0 0 0
vn 0.009644588 0.9845941 0.1745891
vn 0 0 0
vn -0.002068555 0.9999979 0.0001296507
vn 0 0 0
vn -0.002296757 0.9999973 0.0001490382
vn 0 0 0
vn 0.01030948 0.984856 0.1730676
vn 0 0 0
vn 0.009444394 0.985469 0.1695925
vn 0 0 0
vn -0.001813467 0.9999983 0.0001186213
vn 0 0 0
vn -0.001100465 0.9999994 7.386411E-05
vn 0 0 0
vn 0.01062928 0.9858218 0.1674586
vn 0 0 0
vn 0.01077247 0.9862505 0.1649056
vn 0 0 0
vn -0.0002667095 0.9999999 1.81528E-05
vn 0 0 0
vn -0.0001340286 1 9.287451E-06
vn 0 0 0
vn 0.011879 0.986334 0.1643301
vn 0 0 0
vn 0.01163952 0.9864219 0.1638176
vn 0 0 0
vn 0 1 0
vn 0 0 0
vn 0 1 0
vn 0 0 0
vn 0.01173244 0.9864257 0.163789
vn 0 0 0
vn 0.01180264 0.9864326 0.1637419
vn 0 0 0
vn 0 1 0
vn 0 0 0
vn 0 1 0
vn 0 0 0
vn 0.01194369 0.9864358 0.1637118
vn 0 0 0
vn 0.01198906 0.9864416 0.1636747
vn 0 0 0
vn 0 1 0
vn 0 0 0
vn 0 0.9999999 0
vn 0 0 0
vn 0.01208355 0.9864438 0.1636542
vn 0 0 0
vn 0.01211073 0.9864477 0.1636285
vn 0 0 0
vn 0 1 0
vn 0 0 0
vn 0 1 0
vn 0 0 0
vn 0.01215436 0.9864494 0.1636151
vn 0 0 0
vn 0.01215775 0.9864517 0.1636011
vn 0 0 0
vn 0 1 0
vn 0 0 0
vn 0 0.9999999 0
vn 0 0 0
vn 0.01215304 0.9864523 0.1635977
vn 0 0 0
vn 0.01213815 0.9864529 0.1635947
vn 0 0 0
vn 0 1 0
vn 0 0 0
vn 0 1 0
vn 0 0 0
vn 0.01209033 0.9864531 0.1635978
vn 0 0 0
vn 0.01205761 0.9864524 0.1636042
vn 0 0 0
vn 0 1 0
vn 0 0 0
vn 0 0.9999999 0
vn 0 0 0
vn 0.01196555 0.9864516 0.1636154
vn 0 0 0
vn 0.01191066 0.9864497 0.1636312
vn 0 0 0
vn 0 1 0
vn 0 0 0
vn 0 1 0
vn 0 0 0
vn 0.01177228 0.9864484 0.1636486
vn 0 0 0
vn 0.01170127 0.9864452 0.1636731
vn 0 0 0
vn 0 1 0
vn 0 0 0
vn 0 1 0
vn 0 0 0
vn 0.01152436 0.9864432 0.1636978
vn 0 0 0
vn 0.01143563 0.9864385 0.1637326
vn 0 0 0
vn 0 0.9999999 0
vn 0 0 0
vn 0 1 0
vn 0 0 0
vn 0.01121451 0.9864358 0.1637645
vn 0 0 0
vn 0.01110568 0.9864295 0.1638094
vn 0 0 0
vn 0 1 0
vn 0 0 0
vn 0 1 0
vn 0 0 0
vn 0.01051334 0.9864259 0.1638701
vn 0 0 0
vn 0.01013466 0.9863914 0.1641022
vn 0 0 0
vn 0 1 0
vn 0 0 0
vn 0 1 0
vn 0 0 0
vn 0.009895112 0.98636 0.1643048
vn 0 0 0
vn 0.01013202 0.986329 0.1644764
vn 0 0 0
vn 0 1 0
vn 0 0 0
vn 0 1 0
vn 0 0 0
vn 0.01010524 0.9863291 0.1644778
vn 0 0 0
vn 0.009928322 0.9863291 0.1644882
vn 0 0 0
vn 0 0.9999999 0
vn 0 0 0
vn 0 1 0
vn 0 0 0
vn 0.009547487 0.9863292 0.1645101
vn 0 0 0
vn 0.009346938 0.9863293 0.1645213
vn 0 0 0
vn 0 1 0
vn 0 0 0
vn 0 1 0
vn 0 0 0
vn 0.008920108 0.9863293 0.1645452
vn 0 0 0
vn 0.008690405 0.9863291 0.1645585
vn 0 0 0
vn 0 1 0
vn 0 0 0
vn 0 1 0
vn 0 0 0
vn 0.008207315 0.986329 0.1645839
vn 0 0 0
vn 0.007953887 0.986329 0.1645962
vn 0 0 0
vn 0 1 0
vn 0 0 0
vn 0 1 0
vn 0 0 0
vn 0.007419677 0.9863291 0.1646202
vn 0 0 0
vn 0.007138884 0.9863292 0.1646323
vn 0 0 0
vn 0 0.9999999 0
vn 0 0 0
vn 0 0.9999999 0
vn 0 0 0
vn 0.006548504 0.9863291 0.1646573
vn 0 0 0
vn 0.006238594 0.986329 0.1646698
vn 0 0 0
vn 0 1 0
vn 0 0 0
vn 0 1 0
vn 0 0 0
vn 0.006001972 0.9863288 0.1646793
vn 0 0 0
vn 0.005984977 0.9863637 0.1644712
vn 0 0 0
vn 0 1 0
vn 0 0 0
vn 0 1 0
vn 0 0 0
vn 0.005398319 0.9863987 0.1642818
vn 0 0 0
vn 0.004709192 0.9864445 0.1640272
vn 0 0 0
vn 0 1 0
vn 0 0 0
vn 0 1 0
vn 0 0 0
vn 0.003732621 0.986456 0.1639839
vn 0 0 0
vn 0.003297871 0.986479 0.1638542
vn 0 0 0
vn 0 1 0
vn 0 0 0
vn 0 1 0
vn 0 0 0
vn 0.002473037 0.9864914 0.1637945
vn 0 0 0
vn 0.001999231 0.9865163 0.1636507
vn 0 0 0
vn 0 0.9999999 0
vn 0 0 0
vn 0 1 0
vn 0 0 0
vn 0.001106686 0.9865295 0.1635799
vn 0 0 0
vn 0.0005854802 0.9865561 0.1634224
vn 0 0 0
vn 0 1 0
vn 0 0 0
vn 0 1 0
vn 0 0 0
vn -0.0004146953 0.98657 0.163338
vn 0 0 0
vn -0.0009843382 0.9865981 0.1631659
vn 0 0 0
vn 0 0.9999999 0
vn 0 0 0
vn 0 1 0
vn 0 0 0
vn -0.002068029 0.9866129 0.1630664
vn 0 0 0
vn -0.002693299 0.9866427 0.1628769
vn 0 0 0
vn 0.004906949 0.999988 0.0001428379
vn 0 0 0
vn 0.009798408 0.9999519 0.0003485325
vn 0 0 0
vn -0.003904812 0.9866587 0.1627557
vn 0 0 0
vn -0.0001797252 0.9846406 0.1745935
vn 0 0 0
vn 0.01462265 0.999893 0.0005201323
vn 0 0 0
vn 0.01467656 0.9998922 0.0006164426
vn 0 0 0
vn 0.001367092 0.9835843 0.1804439
vn 0 0 0
vn 0.007867759 0.9801437 0.1981325
vn 0 0 0

vt 0 0
vt 0 0
vt 0.03161621 -0.5991699
vt 0.03161621 -0.5991699
vt -0.02108154 0.3994385
vt -0.02108154 0.3994385
vt 0 0
vt 0 0
vt 0.9974915 0.05335693
vt 0.9974915 0.05335693
vt 1.030872 -0.5457153
vt 1.030872 -0.5457153
vt 0.975238 0.4527344
vt 0.975238 0.4527344
vt 0.9974915 0.05335693
vt 0.9974915 0.05335693
vt 1.996002 0.1112183
vt 1.996002 0.1112183
vt 2.031982 -0.4877075
vt 2.031982 -0.4877075
vt 1.972009 0.510498
vt 1.972009 0.510498
vt 1.996002 0.1112183
vt 1.996002 0.1112183
vt 3.010089 0.1740845
vt 3.010089 0.1740845
vt 3.048279 -0.4246948
vt 3.048279 -0.4246948
vt 2.984625 0.5732666
vt 2.984625 0.5732666
vt 3.010089 0.1740845
vt 3.010089 0.1740845
vt 4.014081 0.2396851
vt 4.014081 0.2396851
vt 4.054083 -0.3589844
vt 4.054083 -0.3589844
vt 3.987415 0.6387939
vt 3.987415 0.6387939
vt 4.014081 0.2396851
vt 4.014081 0.2396851
vt 5.030323 0.3142456
vt 5.030323 0.3142456
vt 5.072168 -0.2896362
vt 5.072168 -0.2896362
vt 5.002576 0.714624
vt 5.002576 0.714624
vt 5.030323 0.3142456
vt 5.030323 0.3142456
vt 6.033264 0.3854736
vt 6.033264 0.3854736
vt 6.076313 -0.219043
vt 6.076313 -0.219043
vt 6.004749 0.7859619
vt 6.004749 0.7859619
vt 6.033264 0.3854736
vt 6.033264 0.3854736
vt 7.046265 0.4589477
vt 7.046265 0.4589477
vt 7.090216 -0.1460816
vt 7.090216 -0.1460816
vt 7.017163 0.8595459
vt 7.017163 0.8595459
vt 7.046265 0.4589477
vt 7.046265 0.4589477
vt 8.042731 0.532251
vt 8.042731 0.532251
vt 8.087287 -0.07315674
vt 8.087287 -0.07315674
vt 8.013239 0.9329224
vt 8.013239 0.9329224
vt 8.042731 0.532251
vt 8.042731 0.532251
vt 9.046783 0.6067505
vt 9.046783 0.6067505
vt 9.091681 0.001086426
vt 9.091681 0.001086426
vt 9.017077 1.007483
vt 9.017077 1.007483
vt 9.046783 0.6067505
vt 9.046783 0.6067505
vt 10.05773 0.6819214
vt 10.05773 0.6819214
vt 10.1027 0.07611084
vt 10.1027 0.07611084
vt 10.02798 1.082678
vt 10.02798 1.082678
vt 10.05773 0.6819214
vt 10.05773 0.6819214
vt 11.07445 0.7572754
vt 11.07445 0.7572754
vt 11.11924 0.1514404
vt 11.11924 0.1514404
vt 11.04482 1.158044
vt 11.04482 1.158044
vt 11.07445 0.7572754
vt 11.07445 0.7572754
vt 12.09622 0.8323852
vt 12.09622 0.8323852
vt 12.14057 0.2266357
vt 12.14057 0.2266357
vt 12.06688 1.233142
vt 12.06688 1.233142
vt 12.09622 0.8323852
vt 12.09622 0.8323852
vt 13.0957 0.9047974
vt 13.0957 0.9047974
vt 13.13939 0.2992554
vt 13.13939 0.2992554
vt 13.06679 1.30553
vt 13.06679 1.30553
vt 13.0957 0.9047974
vt 13.0957 0.9047974
vt 14.09824 0.9760376
vt 14.09824 0.9760376
vt 14.14102 0.370813
vt 14.14102 0.370813
vt 14.06992 1.376721
vt 14.06992 1.376721
vt 14.09824 0.9760376
vt 14.09824 0.9760376
vt 15.10301 1.045667
vt 15.10301 1.045667
vt 15.14464 0.4408692
vt 15.14464 0.4408692
vt 15.07543 1.446277
vt 15.07543 1.446277
vt 15.10301 1.045667
vt 15.10301 1.045667
vt 16.10921 1.113208
vt 16.10921 1.113208
vt 16.14946 0.5089478
vt 16.14946 0.5089478
vt 16.08253 1.513721
vt 16.08253 1.513721
vt 16.10921 1.113208
vt 16.10921 1.113208
vt 17.11624 1.173401
vt 17.11624 1.173401
vt 17.15456 0.5746216
vt 17.15456 0.5746216
vt 17.0907 1.572583
vt 17.0907 1.572583
vt 17.11624 1.173401
vt 17.11624 1.173401
vt 18.12261 1.236316
vt 18.12261 1.236316
vt 18.15912 0.6374268
vt 18.15912 0.6374268
vt 18.09827 1.635571
vt 18.09827 1.635571
vt 18.12261 1.236316
vt 18.12261 1.236316
vt 19.12797 1.295911
vt 19.12797 1.295911
vt 19.16243 0.6969116
vt 19.16243 0.6969116
vt 19.10499 1.695251
vt 19.10499 1.695251
vt 19.12797 1.295911
vt 19.12797 1.295911
vt 20.15787 1.353186
vt 20.15787 1.353186
vt 20.18998 0.7540528
vt 20.18998 0.7540528
vt 20.13647 1.752612
vt 20.13647 1.752612
vt 20.15787 1.353186
vt 20.15787 1.353186
vt 21.18484 1.405981
vt 21.18484 1.405981
vt 21.2143 0.8067017
vt 21.2143 0.8067017
vt 21.16519 1.805493
vt 21.16519 1.805493
vt 21.18484 1.405981
vt 21.18484 1.405981
vt 22.20814 1.453845
vt 22.20814 1.453845
vt 22.23469 0.8544312
vt 22.23469 0.8544312
vt 22.19045 1.853455
vt 22.19045 1.853455
vt 22.20814 1.453845
vt 22.20814 1.453845
vt 23.22684 1.496277
vt 23.22684 1.496277
vt 23.25017 0.8967285
vt 23.25017 0.8967285
vt 23.21129 1.895972
vt 23.21129 1.895972
vt 23.22684 1.496277
vt 23.22684 1.496277
vt 24.2402 1.532751
vt 24.2402 1.532751
vt 24.26 0.9330811
vt 24.26 0.9330811
vt 24.227 1.932532
vt 24.227 1.932532
vt 24.2402 1.532751
vt 24.2402 1.532751
vt 25.27281 1.569751
vt 25.27281 1.569751
vt 25.28881 0.9636963
vt 25.28881 0.9636963
vt 25.26221 1.971179
vt 25.26221 1.971179
vt 25.27281 1.569751
vt 25.27281 1.569751
vt 26.29807 1.595264
vt 26.29807 1.595264
vt 26.30974 0.9870605
vt 26.30974 0.9870605
vt 26.29034 1.997266
vt 26.29034 1.997266
vt 26.29807 1.595264
vt 26.29807 1.595264
vt 27.31499 1.613025
vt 27.31499 1.613025
vt 27.32191 1.002551
vt 27.32191 1.002551
vt 27.31041 2.015625
vt 27.31041 2.015625
vt 27.31499 1.613025
vt 27.31499 1.613025
vt 28.34757 1.622681
vt 28.34757 1.622681
vt 28.34916 1.009778
vt 28.34916 1.009778
vt 28.34653 2.025903
vt 28.34653 2.025903
vt 28.34757 1.622681
vt 28.34757 1.622681
vt 29.36945 1.623059
vt 29.36945 1.623059
vt 29.36519 1.007629
vt 29.36519 1.007629
vt 29.37225 2.026904
vt 29.37225 2.026904
vt 29.36945 1.623059
vt 29.36945 1.623059
vt 30.40431 1.61322
vt 30.40431 1.61322
vt 30.39346 0.9951172
vt 30.39346 0.9951172
vt 30.41141 2.017688
vt 30.41141 2.017688
vt 30.40431 1.61322
vt 30.40431 1.61322
vt 31.42593 1.592346
vt 31.42593 1.592346
vt 31.40786 0.9714966
vt 31.40786 0.9714966
vt 31.43773 1.997424
vt 31.43773 1.997424
vt 31.42593 1.592346
vt 31.42593 1.592346
vt 32.45707 1.558899
vt 32.45707 1.558899
vt 32.43088 0.9352051
vt 32.43088 0.9352051
vt 32.47412 1.964563
vt 32.47412 1.964563
vt 32.45707 1.558899
vt 32.45707 1.558899

usemtl GSDShoulder1
usemap GSDShoulder1
f 9/9/9 1/1/1 3/3/3
f 11/11/11 9/9/9 3/3/3
f 13/13/13 5/5/5 7/7/7
f 15/15/15 13/13/13 7/7/7
f 17/17/17 9/9/9 11/11/11
f 19/19/19 17/17/17 11/11/11
f 21/21/21 13/13/13 15/15/15
f 23/23/23 21/21/21 15/15/15
f 25/25/25 17/17/17 19/19/19
f 27/27/27 25/25/25 19/19/19
f 29/29/29 21/21/21 23/23/23
f 31/31/31 29/29/29 23/23/23
f 33/33/33 25/25/25 27/27/27
f 35/35/35 33/33/33 27/27/27
f 37/37/37 29/29/29 31/31/31
f 39/39/39 37/37/37 31/31/31
f 41/41/41 33/33/33 35/35/35
f 43/43/43 41/41/41 35/35/35
f 45/45/45 37/37/37 39/39/39
f 47/47/47 45/45/45 39/39/39
f 49/49/49 41/41/41 43/43/43
f 51/51/51 49/49/49 43/43/43
f 53/53/53 45/45/45 47/47/47
f 55/55/55 53/53/53 47/47/47
f 57/57/57 49/49/49 51/51/51
f 59/59/59 57/57/57 51/51/51
f 61/61/61 53/53/53 55/55/55
f 63/63/63 61/61/61 55/55/55
f 65/65/65 57/57/57 59/59/59
f 67/67/67 65/65/65 59/59/59
f 69/69/69 61/61/61 63/63/63
f 71/71/71 69/69/69 63/63/63
f 73/73/73 65/65/65 67/67/67
f 75/75/75 73/73/73 67/67/67
f 77/77/77 69/69/69 71/71/71
f 79/79/79 77/77/77 71/71/71
f 81/81/81 73/73/73 75/75/75
f 83/83/83 81/81/81 75/75/75
f 85/85/85 77/77/77 79/79/79
f 87/87/87 85/85/85 79/79/79
f 89/89/89 81/81/81 83/83/83
f 91/91/91 89/89/89 83/83/83
f 93/93/93 85/85/85 87/87/87
f 95/95/95 93/93/93 87/87/87
f 97/97/97 89/89/89 91/91/91
f 99/99/99 97/97/97 91/91/91
f 101/101/101 93/93/93 95/95/95
f 103/103/103 101/101/101 95/95/95
f 105/105/105 97/97/97 99/99/99
f 107/107/107 105/105/105 99/99/99
f 109/109/109 101/101/101 103/103/103
f 111/111/111 109/109/109 103/103/103
f 113/113/113 105/105/105 107/107/107
f 115/115/115 113/113/113 107/107/107
f 117/117/117 109/109/109 111/111/111
f 119/119/119 117/117/117 111/111/111
f 121/121/121 113/113/113 115/115/115
f 123/123/123 121/121/121 115/115/115
f 125/125/125 117/117/117 119/119/119
f 127/127/127 125/125/125 119/119/119
f 129/129/129 121/121/121 123/123/123
f 131/131/131 129/129/129 123/123/123
f 133/133/133 125/125/125 127/127/127
f 135/135/135 133/133/133 127/127/127
f 137/137/137 129/129/129 131/131/131
f 139/139/139 137/137/137 131/131/131
f 141/141/141 133/133/133 135/135/135
f 143/143/143 141/141/141 135/135/135
f 145/145/145 137/137/137 139/139/139
f 147/147/147 145/145/145 139/139/139
f 149/149/149 141/141/141 143/143/143
f 151/151/151 149/149/149 143/143/143
f 153/153/153 145/145/145 147/147/147
f 155/155/155 153/153/153 147/147/147
f 157/157/157 149/149/149 151/151/151
f 159/159/159 157/157/157 151/151/151
f 161/161/161 153/153/153 155/155/155
f 163/163/163 161/161/161 155/155/155
f 165/165/165 157/157/157 159/159/159
f 167/167/167 165/165/165 159/159/159
f 169/169/169 161/161/161 163/163/163
f 171/171/171 169/169/169 163/163/163
f 173/173/173 165/165/165 167/167/167
f 175/175/175 173/173/173 167/167/167
f 177/177/177 169/169/169 171/171/171
f 179/179/179 177/177/177 171/171/171
f 181/181/181 173/173/173 175/175/175
f 183/183/183 181/181/181 175/175/175
f 185/185/185 177/177/177 179/179/179
f 187/187/187 185/185/185 179/179/179
f 189/189/189 181/181/181 183/183/183
f 191/191/191 189/189/189 183/183/183
f 193/193/193 185/185/185 187/187/187
f 195/195/195 193/193/193 187/187/187
f 197/197/197 189/189/189 191/191/191
f 199/199/199 197/197/197 191/191/191
f 201/201/201 193/193/193 195/195/195
f 203/203/203 201/201/201 195/195/195
f 205/205/205 197/197/197 199/199/199
f 207/207/207 205/205/205 199/199/199
f 209/209/209 201/201/201 203/203/203
f 211/211/211 209/209/209 203/203/203
f 213/213/213 205/205/205 207/207/207
f 215/215/215 213/213/213 207/207/207
f 217/217/217 209/209/209 211/211/211
f 219/219/219 217/217/217 211/211/211
f 221/221/221 213/213/213 215/215/215
f 223/223/223 221/221/221 215/215/215
f 225/225/225 217/217/217 219/219/219
f 227/227/227 225/225/225 219/219/219
f 229/229/229 221/221/221 223/223/223
f 231/231/231 229/229/229 223/223/223
f 233/233/233 225/225/225 227/227/227
f 235/235/235 233/233/233 227/227/227
f 237/237/237 229/229/229 231/231/231
f 239/239/239 237/237/237 231/231/231
f 241/241/241 233/233/233 235/235/235
f 243/243/243 241/241/241 235/235/235
f 245/245/245 237/237/237 239/239/239
f 247/247/247 245/245/245 239/239/239
f 249/249/249 241/241/241 243/243/243
f 251/251/251 249/249/249 243/243/243
f 253/253/253 245/245/245 247/247/247
f 255/255/255 253/253/253 247/247/247
f 257/257/257 249/249/249 251/251/251
f 259/259/259 257/257/257 251/251/251
f 261/261/261 253/253/253 255/255/255
f 263/263/263 261/261/261 255/255/255
