mtllib ./Road1_0_17.mtl
g Markers8
v -758.2681 78.27314 567.8056
v -758.2681 78.27314 567.8056
v -754.2006 78.27314 558.7141
v -754.2006 78.27314 558.7141
v -763.061 78.70722 565.4824
v -763.061 78.70722 565.4824
v -758.4993 78.70722 556.6254
v -758.4993 78.70722 556.6254
v -767.6597 79.16347 563.009
v -767.6597 79.16347 563.009
v -762.7998 79.16347 554.3193
v -762.7998 79.16347 554.3193
v -772.1237 79.6459 560.4117
v -772.1237 79.6459 560.4117
v -766.9824 79.6459 551.8912
v -766.9824 79.6459 551.8912
v -776.5496 80.15546 557.6389
v -776.5496 80.15546 557.6389
v -771.1334 80.15546 549.2944
v -771.1334 80.15546 549.2944
v -780.8129 80.66919 554.7725
v -780.8129 80.66919 554.7725
v -775.1329 80.66919 546.6073
v -775.1329 80.66919 546.6073
v -785.0092 81.19054 551.7514
v -785.0092 81.19054 551.7514
v -779.0676 81.19054 543.7747
v -779.0676 81.19054 543.7747
v -789.1243 81.71067 548.5805
v -789.1243 81.71067 548.5805
v -782.9216 81.71067 540.8032
v -782.9216 81.71067 540.8032
v -793.1424 82.22057 545.2656
v -793.1424 82.22057 545.2656
v -786.6782 82.22057 537.7003
v -786.6782 82.22057 537.7003
v -797.0482 82.71132 541.812
v -797.0482 82.71132 541.812
v -790.3207 82.71132 534.474
v -790.3207 82.71132 534.474
v -800.8257 83.17393 538.2252
v -800.8257 83.17393 538.2252
v -793.8325 83.17393 531.1321
v -793.8325 83.17393 531.1321
v -804.4601 83.59953 534.5093
v -804.4601 83.59953 534.5093
v -797.1982 83.59953 527.6818
v -797.1982 83.59953 527.6818
v -808.0218 83.98818 530.5698
v -808.0218 83.98818 530.5698
v -800.4815 83.98818 524.0396
v -800.4815 83.98818 524.0396
v -811.3981 84.31881 526.5049
v -811.3981 84.31881 526.5049
v -803.5773 84.31881 520.3011
v -803.5773 84.31881 520.3011
v -814.5711 84.58176 522.3196
v -814.5711 84.58176 522.3196
v -806.4691 84.58176 516.4756
v -806.4691 84.58176 516.4756
v -817.5933 84.77096 517.9096
v -817.5933 84.77096 517.9096
v -809.2046 84.77096 512.4738
v -809.2046 84.77096 512.4738
v -820.3624 84.86854 513.3824
v -820.3624 84.86854 513.3824
v -811.6926 84.86854 508.3999
v -811.6926 84.86854 508.3999

vn 0.07418127 0.9966925 0.03318824
vn 0 0 0
vn 0.07714225 0.9963301 0.03708767
vn 0 0 0
vn 0.07722867 0.9962878 0.03803284
vn 0 0 0
vn 0.07963984 0.9959303 0.04219555
vn 0 0 0
vn 0.07991321 0.9958513 0.04352168
vn 0 0 0
vn 0.0824496 0.9954706 0.04733089
vn 0 0 0
vn 0.08307214 0.9953426 0.04891077
vn 0 0 0
vn 0.08495658 0.9949973 0.05256189
vn 0 0 0
vn 0.08444391 0.9949903 0.05351024
vn 0 0 0
vn 0.08574114 0.9946875 0.05696741
vn 0 0 0
vn 0.08423276 0.9947986 0.05727581
vn 0 0 0
vn 0.08499362 0.9945427 0.06050534
vn 0 0 0
vn 0.08260678 0.9947651 0.06015402
vn 0 0 0
vn 0.08285007 0.9945597 0.06314155
vn 0 0 0
vn 0.0796513 0.994887 0.06209317
vn 0 0 0
vn 0.07939778 0.9947352 0.06479102
vn 0 0 0
vn 0.07544629 0.9951584 0.06298908
vn 0 0 0
vn 0.07471305 0.9950621 0.06534074
vn 0 0 0
vn 0.07006494 0.9955686 0.06272143
vn 0 0 0
vn 0.06886653 0.9955285 0.06465703
vn 0 0 0
vn 0.06357633 0.9961023 0.06114274
vn 0 0 0
vn 0.0619265 0.9961172 0.06257369
vn 0 0 0
vn 0.05598385 0.9967447 0.05801519
vn 0 0 0
vn 0.05385888 0.9968145 0.05882282
vn 0 0 0
vn 0.0474475 0.9974545 0.05322674
vn 0 0 0
vn 0.04486558 0.9975729 0.05324985
vn 0 0 0
vn 0.03797271 0.9982017 0.04638245
vn 0 0 0
vn 0.035028 0.9983521 0.04545448
vn 0 0 0
vn 0.02777484 0.9989228 0.03717348
vn 0 0 0
vn 0.0244944 0.9990858 0.03503509
vn 0 0 0
vn 0.01719771 0.9995289 0.02542076
vn 0 0 0
vn 0.01370352 0.9996687 0.02178882
vn 0 0 0
vn 0.01008907 0.9998127 0.01651931
vn 0 0 0
vn 0.01018714 0.999791 0.01772587
vn 0 0 0

vt 0 154.968
vt 0 0
vt 1 154.968
vt 0 0
vt 0 156.0368
vt 0 156.0368
vt 1 156.0368
vt 1 156.0368
vt 0 157.0851
vt 0 157.0851
vt 1 157.0851
vt 1 157.0851
vt 0 158.1226
vt 0 158.1226
vt 1 158.1226
vt 1 158.1226
vt 0 159.1721
vt 0 159.1721
vt 1 159.1721
vt 1 159.1721
vt 0 160.2047
vt 0 160.2047
vt 1 160.2047
vt 1 160.2047
vt 0 161.244
vt 0 161.244
vt 1 161.244
vt 1 161.244
vt 0 162.2882
vt 0 162.2882
vt 1 162.2882
vt 1 162.2882
vt 0 163.335
vt 0 163.335
vt 1 163.335
vt 1 163.335
vt 0 164.3824
vt 0 164.3824
vt 1 164.3824
vt 1 164.3824
vt 0 165.4283
vt 0 165.4283
vt 1 165.4283
vt 1 165.4283
vt 0 166.4713
vt 0 166.4713
vt 1 166.4713
vt 1 166.4713
vt 0 167.5363
vt 0 167.5363
vt 1 167.5363
vt 1 167.5363
vt 0 168.5952
vt 0 168.5952
vt 1 168.5952
vt 1 168.5952
vt 0 169.647
vt 0 169.647
vt 1 169.647
vt 1 169.647
vt 0 170.7169
vt 0 170.7169
vt 1 170.7169
vt 1 170.7169
vt 0 171.7785
vt 0 171.7785
vt 1 171.7785
vt 1 171.7785

usemtl GSDWhiteYellowDouble
usemap GSDWhiteYellowDouble
f 5/5/5 1/1/1 3/3/3
f 7/7/7 5/5/5 3/3/3
f 9/9/9 5/5/5 7/7/7
f 11/11/11 9/9/9 7/7/7
f 13/13/13 9/9/9 11/11/11
f 15/15/15 13/13/13 11/11/11
f 17/17/17 13/13/13 15/15/15
f 19/19/19 17/17/17 15/15/15
f 21/21/21 17/17/17 19/19/19
f 23/23/23 21/21/21 19/19/19
f 25/25/25 21/21/21 23/23/23
f 27/27/27 25/25/25 23/23/23
f 29/29/29 25/25/25 27/27/27
f 31/31/31 29/29/29 27/27/27
f 33/33/33 29/29/29 31/31/31
f 35/35/35 33/33/33 31/31/31
f 37/37/37 33/33/33 35/35/35
f 39/39/39 37/37/37 35/35/35
f 41/41/41 37/37/37 39/39/39
f 43/43/43 41/41/41 39/39/39
f 45/45/45 41/41/41 43/43/43
f 47/47/47 45/45/45 43/43/43
f 49/49/49 45/45/45 47/47/47
f 51/51/51 49/49/49 47/47/47
f 53/53/53 49/49/49 51/51/51
f 55/55/55 53/53/53 51/51/51
f 57/57/57 53/53/53 55/55/55
f 59/59/59 57/57/57 55/55/55
f 61/61/61 57/57/57 59/59/59
f 63/63/63 61/61/61 59/59/59
f 65/65/65 61/61/61 63/63/63
f 67/67/67 65/65/65 63/63/63
