mtllib ./Road1_0_27.mtl
g Markers13
v -883.8292 56.68105 173.4201
v -883.8292 56.68105 173.4201
v -875.3178 56.68105 178.6052
v -875.3178 56.68105 178.6052
v -881.1565 56.27166 169.098
v -881.1565 56.27166 169.098
v -872.7117 56.27166 174.3927
v -872.7117 56.27166 174.3927
v -878.3992 55.86284 164.7559
v -878.3992 55.86284 164.7559
v -870.0152 55.86284 170.148
v -870.0152 55.86284 170.148
v -875.5932 55.45845 160.4445
v -875.5932 55.45845 160.4445
v -867.268 55.45845 165.9281
v -867.268 55.45845 165.9281
v -872.7665 55.06107 156.2013
v -872.7665 55.06107 156.2013
v -864.4987 55.06107 161.7718
v -864.4987 55.06107 161.7718
v -869.8749 54.66344 151.9567
v -869.8749 54.66344 151.9567
v -861.6646 54.66344 157.6123
v -861.6646 54.66344 157.6123
v -866.9328 54.26693 147.732
v -866.9328 54.26693 147.732
v -858.7807 54.26693 153.4716
v -858.7807 54.26693 153.4716
v -863.9548 53.87292 143.5476
v -863.9548 53.87292 143.5476
v -855.8618 53.87292 149.3706
v -855.8618 53.87292 149.3706
v -860.9536 53.4826 139.4211
v -860.9536 53.4826 139.4211
v -852.9207 53.4826 145.3272
v -852.9207 53.4826 145.3272
v -857.9409 53.09702 135.3676
v -857.9409 53.09702 135.3676
v -849.9698 53.09702 141.3568
v -849.9698 53.09702 141.3568
v -854.8452 52.70681 131.2932
v -854.8452 52.70681 131.2932
v -846.939 52.70681 137.368
v -846.939 52.70681 137.368
v -851.6713 52.3126 127.2099
v -851.6713 52.3126 127.2099
v -843.834 52.3126 133.3731
v -843.834 52.3126 133.3731
v -848.5097 51.92548 123.2363
v -848.5097 51.92548 123.2363
v -840.7435 51.92548 129.4888
v -840.7435 51.92548 129.4888
v -845.2817 51.53563 119.2755
v -845.2817 51.53563 119.2755
v -837.5912 51.53563 125.6208
v -837.5912 51.53563 125.6208
v -841.9919 51.14368 115.3387
v -841.9919 51.14368 115.3387
v -834.3821 51.14368 121.7805
v -834.3821 51.14368 121.7805
v -838.6432 50.75005 111.4356
v -838.6432 50.75005 111.4356
v -831.1202 50.75005 117.9781
v -831.1202 50.75005 117.9781
v -835.24 50.35536 107.5773
v -835.24 50.35536 107.5773
v -827.8102 50.35536 114.2251
v -827.8102 50.35536 114.2251
v -831.7861 49.96012 103.7742
v -831.7861 49.96012 103.7742
v -824.4567 49.96012 110.5324
v -824.4567 49.96012 110.5324
v -828.285 49.56488 100.0371
v -828.285 49.56488 100.0371
v -821.0645 49.56488 106.911
v -821.0645 49.56488 106.911
v -824.7411 49.17023 96.37687
v -824.7411 49.17023 96.37687
v -817.6389 49.17023 103.3725
v -817.6389 49.17023 103.3725
v -821.0594 48.76599 92.70782
v -821.0594 48.76599 92.70782
v -814.0897 48.76599 99.83497
v -814.0897 48.76599 99.83497
v -817.3401 48.36353 89.14252
v -817.3401 48.36353 89.14252
v -810.5157 48.36353 96.40833
v -810.5157 48.36353 96.40833
v -813.5864 47.9634 85.69196
v -813.5864 47.9634 85.69196
v -806.9218 47.9634 93.10403
v -806.9218 47.9634 93.10403
v -809.7015 47.55573 82.28175
v -809.7015 47.55573 82.28175
v -803.2181 47.55573 89.85228
v -803.2181 47.55573 89.85228
v -805.6874 47.14149 78.93548
v -805.6874 47.14149 78.93548
v -799.4109 47.14149 86.67773
v -799.4109 47.14149 86.67773
v -801.6467 46.73184 75.756
v -801.6467 46.73184 75.756
v -795.6016 46.73184 83.67952
v -795.6016 46.73184 83.67952
v -797.4803 46.31738 72.68367
v -797.4803 46.31738 72.68367
v -791.7018 46.31738 80.80301
v -791.7018 46.31738 80.80301
v -793.1909 45.89935 69.74853
v -793.1909 45.89935 69.74853
v -787.7215 45.89935 78.07853
v -787.7215 45.89935 78.07853
v -788.7793 45.47899 66.98232
v -788.7793 45.47899 66.98232
v -783.6705 45.47899 75.53751
v -783.6705 45.47899 75.53751

vn 0.0417794 0.9967705 -0.06858031
vn 0 0 0
vn 0.04275387 0.9966879 -0.06917521
vn 0 0 0
vn 0.04252844 0.9967455 -0.06848227
vn 0 0 0
vn 0.04321345 0.9967257 -0.06833984
vn 0 0 0
vn 0.04276343 0.9968322 -0.06705828
vn 0 0 0
vn 0.04341283 0.9968104 -0.0669665
vn 0 0 0
vn 0.04305141 0.9968982 -0.06588388
vn 0 0 0
vn 0.04369337 0.9968732 -0.0658379
vn 0 0 0
vn 0.04339097 0.9969487 -0.06488781
vn 0 0 0
vn 0.04403576 0.9969212 -0.06487659
vn 0 0 0
vn 0.04378437 0.9969868 -0.06403242
vn 0 0 0
vn 0.04443967 0.9969571 -0.06404449
vn 0 0 0
vn 0.04422645 0.9970157 -0.06327493
vn 0 0 0
vn 0.04489795 0.9969835 -0.0633098
vn 0 0 0
vn 0.04471467 0.9970367 -0.0625975
vn 0 0 0
vn 0.04540365 0.9970022 -0.06265065
vn 0 0 0
vn 0.04524307 0.9970514 -0.0619809
vn 0 0 0
vn 0.04595378 0.9970145 -0.062052
vn 0 0 0
vn 0.04581 0.9970609 -0.06140862
vn 0 0 0
vn 0.04655025 0.9970214 -0.06149106
vn 0 0 0
vn 0.04642657 0.9970653 -0.06087229
vn 0 0 0
vn 0.04720695 0.9970231 -0.06096229
vn 0 0 0
vn 0.04709988 0.9970648 -0.06035986
vn 0 0 0
vn 0.047917 0.9970199 -0.0604589
vn 0 0 0
vn 0.0478131 0.9970615 -0.05985343
vn 0 0 0
vn 0.04867235 0.9970132 -0.05996194
vn 0 0 0
vn 0.04857876 0.997054 -0.05935989
vn 0 0 0
vn 0.04949162 0.9970023 -0.05947227
vn 0 0 0
vn 0.0494044 0.9970428 -0.05886201
vn 0 0 0
vn 0.05037734 0.9969873 -0.05897735
vn 0 0 0
vn 0.05029317 0.9970284 -0.05835211
vn 0 0 0
vn 0.05133296 0.9969686 -0.05846841
vn 0 0 0
vn 0.05124893 0.9970106 -0.05782203
vn 0 0 0
vn 0.05236411 0.9969459 -0.05793891
vn 0 0 0
vn 0.05227542 0.9969895 -0.05726406
vn 0 0 0
vn 0.053474 0.9969194 -0.05737836
vn 0 0 0
vn 0.05337622 0.9969653 -0.05666693
vn 0 0 0
vn 0.05466985 0.9968889 -0.0567773
vn 0 0 0
vn 0.05455616 0.9969384 -0.05601418
vn 0 0 0
vn 0.05596654 0.996855 -0.05610851
vn 0 0 0
vn 0.05584329 0.9969071 -0.05529691
vn 0 0 0
vn 0.05738699 0.9968152 -0.05537157
vn 0 0 0
vn 0.05723306 0.996873 -0.05448598
vn 0 0 0
vn 0.05891671 0.9967718 -0.05454163
vn 0 0 0
vn 0.05871748 0.9968365 -0.05356617
vn 0 0 0
vn 0.06057461 0.9967243 -0.05358549
vn 0 0 0
vn 0.06033189 0.9967962 -0.05251162
vn 0 0 0
vn 0.06240169 0.996671 -0.05247044
vn 0 0 0
vn 0.06209743 0.996752 -0.05127692
vn 0 0 0
vn 0.06439723 0.9966117 -0.05116875
vn 0 0 0
vn 0.06397976 0.9967073 -0.04981123
vn 0 0 0
vn 0.06654722 0.9965491 -0.04961193
vn 0 0 0
vn 0.06600148 0.9966605 -0.04807925
vn 0 0 0
vn 0.06889387 0.996481 -0.04774093
vn 0 0 0
vn 0.0681682 0.9966134 -0.04598709
vn 0 0 0
vn 0.07143673 0.9964086 -0.04546119
vn 0 0 0
vn 0.07107391 0.9964768 -0.04452593
vn 0 0 0
vn 0.07520232 0.9961566 -0.04490735
vn 0 0 0

vt 0 244.7004
vt 0 0
vt 1 244.7004
vt 0 0
vt 0 245.72
vt 0 245.72
vt 1 245.72
vt 1 245.72
vt 0 246.752
vt 0 246.752
vt 1 246.752
vt 1 246.752
vt 0 247.784
vt 0 247.784
vt 1 247.784
vt 1 247.784
vt 0 248.8068
vt 0 248.8068
vt 1 248.8068
vt 1 248.8068
vt 0 249.837
vt 0 249.837
vt 1 249.837
vt 1 249.837
vt 0 250.8697
vt 0 250.8697
vt 1 250.8697
vt 1 250.8697
vt 0 251.8999
vt 0 251.8999
vt 1 251.8999
vt 1 251.8999
vt 0 252.9234
vt 0 252.9234
vt 1 252.9234
vt 1 252.9234
vt 0 253.9364
vt 0 253.9364
vt 1 253.9364
vt 1 253.9364
vt 0 254.9628
vt 0 254.9628
vt 1 254.9628
vt 1 254.9628
vt 0 256.0002
vt 0 256.0002
vt 1 256.0002
vt 1 256.0002
vt 0 257.0187
vt 0 257.0187
vt 1 257.0187
vt 1 257.0187
vt 0 258.0436
vt 0 258.0436
vt 1 258.0436
vt 1 258.0436
vt 0 259.0727
vt 0 259.0727
vt 1 259.0727
vt 1 259.0727
vt 0 260.1042
vt 0 260.1042
vt 1 260.1042
vt 1 260.1042
vt 0 261.1362
vt 0 261.1362
vt 1 261.1362
vt 1 261.1362
vt 0 262.1667
vt 0 262.1667
vt 1 262.1667
vt 1 262.1667
vt 0 263.1939
vt 0 263.1939
vt 1 263.1939
vt 1 263.1939
vt 0 264.2159
vt 0 264.2159
vt 1 264.2159
vt 1 264.2159
vt 0 265.2586
vt 0 265.2586
vt 1 265.2586
vt 1 265.2586
vt 0 266.2922
vt 0 266.2922
vt 1 266.2922
vt 1 266.2922
vt 0 267.3151
vt 0 267.3151
vt 1 267.3151
vt 1 267.3151
vt 0 268.3522
vt 0 268.3522
vt 1 268.3522
vt 1 268.3522
vt 0 269.4007
vt 0 269.4007
vt 1 269.4007
vt 1 269.4007
vt 0 270.4323
vt 0 270.4323
vt 1 270.4323
vt 1 270.4323
vt 0 271.4709
vt 0 271.4709
vt 1 271.4709
vt 1 271.4709
vt 0 272.5138
vt 0 272.5138
vt 1 272.5138
vt 1 272.5138
vt 0 273.5586
vt 0 273.5586
vt 1 273.5586
vt 1 273.5586

usemtl GSDWhiteYellowDouble
usemap GSDWhiteYellowDouble
f 5/5/5 1/1/1 3/3/3
f 7/7/7 5/5/5 3/3/3
f 9/9/9 5/5/5 7/7/7
f 11/11/11 9/9/9 7/7/7
f 13/13/13 9/9/9 11/11/11
f 15/15/15 13/13/13 11/11/11
f 17/17/17 13/13/13 15/15/15
f 19/19/19 17/17/17 15/15/15
f 21/21/21 17/17/17 19/19/19
f 23/23/23 21/21/21 19/19/19
f 25/25/25 21/21/21 23/23/23
f 27/27/27 25/25/25 23/23/23
f 29/29/29 25/25/25 27/27/27
f 31/31/31 29/29/29 27/27/27
f 33/33/33 29/29/29 31/31/31
f 35/35/35 33/33/33 31/31/31
f 37/37/37 33/33/33 35/35/35
f 39/39/39 37/37/37 35/35/35
f 41/41/41 37/37/37 39/39/39
f 43/43/43 41/41/41 39/39/39
f 45/45/45 41/41/41 43/43/43
f 47/47/47 45/45/45 43/43/43
f 49/49/49 45/45/45 47/47/47
f 51/51/51 49/49/49 47/47/47
f 53/53/53 49/49/49 51/51/51
f 55/55/55 53/53/53 51/51/51
f 57/57/57 53/53/53 55/55/55
f 59/59/59 57/57/57 55/55/55
f 61/61/61 57/57/57 59/59/59
f 63/63/63 61/61/61 59/59/59
f 65/65/65 61/61/61 63/63/63
f 67/67/67 65/65/65 63/63/63
f 69/69/69 65/65/65 67/67/67
f 71/71/71 69/69/69 67/67/67
f 73/73/73 69/69/69 71/71/71
f 75/75/75 73/73/73 71/71/71
f 77/77/77 73/73/73 75/75/75
f 79/79/79 77/77/77 75/75/75
f 81/81/81 77/77/77 79/79/79
f 83/83/83 81/81/81 79/79/79
f 85/85/85 81/81/81 83/83/83
f 87/87/87 85/85/85 83/83/83
f 89/89/89 85/85/85 87/87/87
f 91/91/91 89/89/89 87/87/87
f 93/93/93 89/89/89 91/91/91
f 95/95/95 93/93/93 91/91/91
f 97/97/97 93/93/93 95/95/95
f 99/99/99 97/97/97 95/95/95
f 101/101/101 97/97/97 99/99/99
f 103/103/103 101/101/101 99/99/99
f 105/105/105 101/101/101 103/103/103
f 107/107/107 105/105/105 103/103/103
f 109/109/109 105/105/105 107/107/107
f 111/111/111 109/109/109 107/107/107
f 113/113/113 109/109/109 111/111/111
f 115/115/115 113/113/113 111/111/111
