mtllib ./Road1_0_83.mtl
g Markers41
v -891.0729 1.225887 790.6387
v -891.0729 1.225887 790.6387
v -881.4131 1.225887 788.0901
v -881.4131 1.225887 788.0901
v -892.2341 1.468725 785.2598
v -892.2341 1.468725 785.2598
v -882.3699 1.468725 783.7079
v -882.3699 1.468725 783.7079
v -892.791 1.768173 779.6552
v -892.791 1.768173 779.6552
v -882.8215 1.768173 779.1991
v -882.8215 1.768173 779.1991
v -892.7841 2.105788 774.1882
v -892.7841 2.105788 774.1882
v -882.8188 2.105788 774.6306
v -882.8188 2.105788 774.6306
v -892.3389 2.480185 768.7607
v -892.3389 2.480185 768.7607
v -882.434 2.480185 769.9089
v -882.434 2.480185 769.9089
v -891.5948 2.870302 763.5601
v -891.5948 2.870302 763.5601
v -881.7618 2.870302 765.1979
v -881.7618 2.870302 765.1979
v -890.6669 3.273918 758.4986
v -890.6669 3.273918 758.4986
v -880.8865 3.273918 760.4175
v -880.8865 3.273918 760.4175
v -889.6687 3.687196 753.5302
v -889.6687 3.687196 753.5302
v -879.8972 3.687196 755.4923
v -879.8972 3.687196 755.4923
v -888.7513 4.100656 748.6785
v -888.7513 4.100656 748.6785
v -878.9249 4.100656 750.3523
v -878.9249 4.100656 750.3523

vn 0.01125843 0.9990256 0.04267237
vn 0 0 0
vn 0.009982779 0.9988198 0.04753194
vn 0 0 0
vn 0.009363383 0.9987384 0.04933441
vn 0 0 0
vn 0.006687669 0.9983525 0.05698494
vn 0 0 0
vn 0.004838643 0.9982097 0.05961463
vn 0 0 0
vn 0.0009702471 0.997768 0.06676974
vn 0 0 0
vn -0.001041022 0.9977095 0.06763793
vn 0 0 0
vn -0.005052653 0.9972982 0.07328591
vn 0 0 0
vn -0.00676337 0.9972894 0.07326681
vn 0 0 0
vn -0.01028657 0.9969493 0.07737194
vn 0 0 0
vn -0.01153443 0.9969643 0.07700215
vn 0 0 0
vn -0.01405208 0.9967274 0.07960659
vn 0 0 0
vn -0.01478622 0.996738 0.0793396
vn 0 0 0
vn -0.0159082 0.9966319 0.08044677
vn 0 0 0
vn -0.01607017 0.9966133 0.0806452
vn 0 0 0
vn -0.01523385 0.9966847 0.07992153
vn 0 0 0
vn -0.01478523 0.9967098 0.07969215
vn 0 0 0
vn -0.01323302 0.9968901 0.07768609
vn 0 0 0

vt 0 735.2469
vt 0 0
vt 1 735.2469
vt 0 0
vt 0 736.3485
vt 0 736.3485
vt 1 736.3485
vt 1 736.3485
vt 0 737.4766
vt 0 737.4766
vt 1 737.4766
vt 1 737.4766
vt 0 738.572
vt 0 738.572
vt 1 738.572
vt 1 738.572
vt 0 739.6638
vt 0 739.6638
vt 1 739.6638
vt 1 739.6638
vt 0 740.7173
vt 0 740.7173
vt 1 740.7173
vt 1 740.7173
vt 0 741.7497
vt 0 741.7497
vt 1 741.7497
vt 1 741.7497
vt 0 742.7666
vt 0 742.7666
vt 1 742.7666
vt 1 742.7666
vt 0 743.7576
vt 0 743.7576
vt 1 743.7576
vt 1 743.7576

usemtl GSDWhiteYellowDouble
usemap GSDWhiteYellowDouble
f 5/5/5 1/1/1 3/3/3
f 7/7/7 5/5/5 3/3/3
f 9/9/9 5/5/5 7/7/7
f 11/11/11 9/9/9 7/7/7
f 13/13/13 9/9/9 11/11/11
f 15/15/15 13/13/13 11/11/11
f 17/17/17 13/13/13 15/15/15
f 19/19/19 17/17/17 15/15/15
f 21/21/21 17/17/17 19/19/19
f 23/23/23 21/21/21 19/19/19
f 25/25/25 21/21/21 23/23/23
f 27/27/27 25/25/25 23/23/23
f 29/29/29 25/25/25 27/27/27
f 31/31/31 29/29/29 27/27/27
f 33/33/33 29/29/29 31/31/31
f 35/35/35 33/33/33 31/31/31
