mtllib ./Road1_0_2.mtl
g RoadCut1
v -120.1453 60.32639 535.2295
v -120.1453 60.32639 535.2295
v -111.3005 60.32639 530.5719
v -111.3005 60.32639 530.5719
v -122.4552 60.4014 531.509
v -122.4552 60.4014 531.509
v -114.2599 60.4014 525.7787
v -114.2599 60.4014 525.7787
v -125.3083 60.31144 527.6743
v -125.3083 60.31144 527.6743
v -117.4765 60.31144 521.4655
v -117.4765 60.31144 521.4655
v -128.344 60.07079 524.061
v -128.344 60.07079 524.061
v -120.9065 60.07079 517.4043
v -120.9065 60.07079 517.4043
v -131.6171 59.70294 520.6099
v -131.6171 59.70294 520.6099
v -124.6128 59.70294 513.5212
v -124.6128 59.70294 513.5212
v -135.1175 59.23156 517.352
v -135.1175 59.23156 517.352
v -128.5867 59.23156 509.8457
v -128.5867 59.23156 509.8457
v -138.7448 58.69411 514.3858
v -138.7448 58.69411 514.3858
v -132.7177 58.69411 506.4859
v -132.7177 58.69411 506.4859
v -142.57 58.10244 511.6583
v -142.57 58.10244 511.6583
v -137.0905 58.10244 503.3802
v -137.0905 58.10244 503.3802
v -146.5836 57.47855 509.1953
v -146.5836 57.47855 509.1953
v -141.6984 57.47855 500.558
v -141.6984 57.47855 500.558
v -150.6718 56.85982 507.0709
v -150.6718 56.85982 507.0709
v -146.4137 56.85982 498.1068
v -146.4137 56.85982 498.1068
v -154.9233 56.25161 505.2439
v -154.9233 56.25161 505.2439
v -151.3401 56.25161 495.9828
v -151.3401 56.25161 495.9828
v -159.3302 55.67448 503.7361
v -159.3302 55.67448 503.7361
v -156.4681 55.67448 494.2164
v -156.4681 55.67448 494.2164
v -163.772 55.16107 502.593
v -163.772 55.16107 502.593
v -161.6543 55.16107 492.867
v -161.6543 55.16107 492.867
v -168.3523 54.71551 501.7924
v -168.3523 54.71551 501.7924
v -167.0132 54.71551 491.9143
v -167.0132 54.71551 491.9143
v -172.9465 54.36462 501.3606
v -172.9465 54.36462 501.3606
v -172.3904 54.36462 491.394
v -172.3904 54.36462 491.394
v -177.6696 54.11355 501.2917
v -177.6696 54.11355 501.2917
v -177.909 54.11355 491.3016
v -177.909 54.11355 491.3016
v -182.3919 53.98167 501.5925
v -182.3919 53.98167 501.5925
v -183.4055 53.98167 491.6449
v -183.4055 53.98167 491.6449
v -187.1047 53.97545 502.2533
v -187.1047 53.97545 502.2533
v -188.8593 53.97545 492.4091
v -188.8593 53.97545 492.4091

vn 0.007999605 0.9998525 0.01519144
vn 0 0 0
vn 0.007798274 0.9998877 0.01279217
vn 0 0 0
vn 0.001785213 0.9999916 0.003662272
vn 0 0 0
vn -0.004083652 0.9999778 -0.005242857
vn 0 0 0
vn -0.01726735 0.9996008 -0.02236622
vn 0 0 0
vn -0.02372505 0.9993142 -0.02842826
vn 0 0 0
vn -0.03749429 0.9983562 -0.04334798
vn 0 0 0
vn -0.04315898 0.9980069 -0.04603704
vn 0 0 0
vn -0.05634311 0.9967374 -0.05779446
vn 0 0 0
vn -0.06101704 0.9964731 -0.05760401
vn 0 0 0
vn -0.07334834 0.995089 -0.06646725
vn 0 0 0
vn -0.07670007 0.995012 -0.06378112
vn 0 0 0
vn -0.08807828 0.9936413 -0.07013595
vn 0 0 0
vn -0.08989533 0.9938039 -0.06536569
vn 0 0 0
vn -0.09978263 0.9925968 -0.06924561
vn 0 0 0
vn -0.09994078 0.9930099 -0.06279565
vn 0 0 0
vn -0.1080249 0.9920551 -0.06447855
vn 0 0 0
vn -0.106332 0.9927037 -0.05685849
vn 0 0 0
vn -0.1123649 0.9920478 -0.05670225
vn 0 0 0
vn -0.1087581 0.9928885 -0.04841587
vn 0 0 0
vn -0.112204 0.9925874 -0.0466933
vn 0 0 0
vn -0.1067382 0.993552 -0.03822739
vn 0 0 0
vn -0.1072864 0.9935976 -0.0354012
vn 0 0 0
vn -0.1001251 0.9945974 -0.02740655
vn 0 0 0
vn -0.09746996 0.994949 -0.02400159
vn 0 0 0
vn -0.08892153 0.9958932 -0.01701865
vn 0 0 0
vn -0.08303604 0.9964526 -0.01367983
vn 0 0 0
vn -0.07356796 0.9972568 -0.008167129
vn 0 0 0
vn -0.06427753 0.9979172 -0.005464032
vn 0 0 0
vn -0.05441971 0.9985166 -0.001757104
vn 0 0 0
vn -0.04229914 0.999105 -0.0003207463
vn 0 0 0
vn -0.0326273 0.9994665 0.001430973
vn 0 0 0
vn -0.01796017 0.9998381 0.001144772
vn 0 0 0
vn -0.009104135 0.9999581 0.0009572988
vn 0 0 0
vn -0.001198943 0.9999993 0.0001676924
vn 0 0 0
vn -0.001111641 0.9999993 0.0001981356
vn 0 0 0

vt 0 0
vt 0 0
vt -1.768976 -0.9315186
vt -1.768976 -0.9315186
vt 0.4619782 -0.7440918
vt 0.4619782 -0.7440918
vt -1.177091 -1.890161
vt -1.177091 -1.890161
vt 1.0326 -1.511047
vt 1.0326 -1.511047
vt -0.5337601 -2.752795
vt -0.5337601 -2.752795
vt 1.639726 -2.233691
vt 1.639726 -2.233691
vt 0.1522339 -3.565039
vt 0.1522339 -3.565039
vt 2.294344 -2.923914
vt 2.294344 -2.923914
vt 0.8934845 -4.341663
vt 0.8934845 -4.341663
vt 2.994438 -3.5755
vt 2.994438 -3.5755
vt 1.68828 -5.076752
vt 1.68828 -5.076752
vt 3.719896 -4.168738
vt 3.719896 -4.168738
vt 2.514476 -5.748718
vt 2.514476 -5.748718
vt 4.484929 -4.71424
vt 4.484929 -4.71424
vt 3.38903 -6.369855
vt 3.38903 -6.369855
vt 5.287648 -5.206848
vt 5.287648 -5.206848
vt 4.310622 -6.934302
vt 4.310622 -6.934302
vt 6.105284 -5.631714
vt 6.105284 -5.631714
vt 5.253679 -7.424549
vt 5.253679 -7.424549
vt 6.955602 -5.997119
vt 6.955602 -5.997119
vt 6.238951 -7.849341
vt 6.238951 -7.849341
vt 7.836983 -6.298669
vt 7.836983 -6.298669
vt 7.264558 -8.202613
vt 7.264558 -8.202613
vt 8.725341 -6.527301
vt 8.725341 -6.527301
vt 8.301799 -8.472504
vt 8.301799 -8.472504
vt 9.641387 -6.687408
vt 9.641387 -6.687408
vt 9.373576 -8.663032
vt 9.373576 -8.663032
vt 10.56024 -6.773779
vt 10.56024 -6.773779
vt 10.44901 -8.76709
vt 10.44901 -8.76709
vt 11.50486 -6.787567
vt 11.50486 -6.787567
vt 11.55272 -8.785578
vt 11.55272 -8.785578
vt 12.44931 -6.727405
vt 12.44931 -6.727405
vt 12.65203 -8.716919
vt 12.65203 -8.716919
vt 13.39188 -6.595239
vt 13.39188 -6.595239
vt 13.7428 -8.564087
vt 13.7428 -8.564087

usemtl GSDRoad1
usemap GSDRoad1
f 5/5/5 1/1/1 3/3/3
f 7/7/7 5/5/5 3/3/3
f 9/9/9 5/5/5 7/7/7
f 11/11/11 9/9/9 7/7/7
f 13/13/13 9/9/9 11/11/11
f 15/15/15 13/13/13 11/11/11
f 17/17/17 13/13/13 15/15/15
f 19/19/19 17/17/17 15/15/15
f 21/21/21 17/17/17 19/19/19
f 23/23/23 21/21/21 19/19/19
f 25/25/25 21/21/21 23/23/23
f 27/27/27 25/25/25 23/23/23
f 29/29/29 25/25/25 27/27/27
f 31/31/31 29/29/29 27/27/27
f 33/33/33 29/29/29 31/31/31
f 35/35/35 33/33/33 31/31/31
f 37/37/37 33/33/33 35/35/35
f 39/39/39 37/37/37 35/35/35
f 41/41/41 37/37/37 39/39/39
f 43/43/43 41/41/41 39/39/39
f 45/45/45 41/41/41 43/43/43
f 47/47/47 45/45/45 43/43/43
f 49/49/49 45/45/45 47/47/47
f 51/51/51 49/49/49 47/47/47
f 53/53/53 49/49/49 51/51/51
f 55/55/55 53/53/53 51/51/51
f 57/57/57 53/53/53 55/55/55
f 59/59/59 57/57/57 55/55/55
f 61/61/61 57/57/57 59/59/59
f 63/63/63 61/61/61 59/59/59
f 65/65/65 61/61/61 63/63/63
f 67/67/67 65/65/65 63/63/63
f 69/69/69 65/65/65 67/67/67
f 71/71/71 69/69/69 67/67/67
