mtllib ./Road1_0_233.mtl
g SCutL24
v -288.7915 5.537778 44.39168
v -288.7915 5.537778 44.39168
v -289.9749 5.537778 47.29617
v -289.9749 5.537778 47.29617
v -288.0251 3.914848 42.51051
v -288.0251 3.914848 42.51051
v -288.7915 5.537778 44.39168
v -288.7915 5.537778 44.39168
v -284.1115 5.205418 46.29834
v -284.1115 5.205418 46.29834
v -285.3131 5.205418 49.24207
v -285.3131 5.205418 49.24207
v -283.3397 3.914848 44.40772
v -283.3397 3.914848 44.40772
v -284.1115 5.205418 46.29834
v -284.1115 5.205418 46.29834
v -279.6464 4.848789 47.9686
v -279.6464 4.848789 47.9686
v -280.7562 4.848789 50.9953
v -280.7562 4.848789 50.9953
v -278.9397 3.099603 46.04144
v -278.9397 3.099603 46.04144
v -279.6464 4.848789 47.9686
v -279.6464 4.848789 47.9686
v -275.0376 4.477535 49.5822
v -275.0376 4.477535 49.5822
v -276.1145 4.477535 52.65419
v -276.1145 4.477535 52.65419
v -274.3561 2.606894 47.6379
v -274.3561 2.606894 47.6379
v -275.0376 4.477535 49.5822
v -275.0376 4.477535 49.5822
v -270.3121 4.097596 51.20318
v -270.3121 4.097596 51.20318
v -271.3875 4.097596 54.29987
v -271.3875 4.097596 54.29987
v -269.6343 2.606894 49.25158
v -269.6343 2.606894 49.25158
v -270.3121 4.097596 51.20318
v -270.3121 4.097596 51.20318
v -265.5316 3.716886 52.85529
v -265.5316 3.716886 52.85529
v -266.6257 3.716886 55.96235
v -266.6257 3.716886 55.96235
v -264.8441 2.119374 50.90284
v -264.8441 2.119374 50.90284
v -265.5316 3.716886 52.85529
v -265.5316 3.716886 52.85529
v -260.6935 3.337608 54.57142
v -260.6935 3.337608 54.57142
v -261.8205 3.337608 57.67764
v -261.8205 3.337608 57.67764
v -259.9865 1.780868 52.62306
v -259.9865 1.780868 52.62306
v -260.6935 3.337608 54.57142
v -260.6935 3.337608 54.57142
v -255.8739 2.967713 56.34883
v -255.8739 2.967713 56.34883
v -257.0442 2.967713 59.44464
v -257.0442 2.967713 59.44464
v -255.1404 1.450274 54.40871
v -255.1404 1.450274 54.40871
v -255.8739 2.967713 56.34883
v -255.8739 2.967713 56.34883
v -251.0086 2.604098 58.23183
v -251.0086 2.604098 58.23183
v -252.2313 2.604098 61.30835
v -252.2313 2.604098 61.30835
v -250.2424 1.010282 56.30395
v -250.2424 1.010282 56.30395
v -251.0086 2.604098 58.23183
v -251.0086 2.604098 58.23183
v -246.1395 2.251706 60.22424
v -246.1395 2.251706 60.22424
v -247.4218 2.251706 63.27295
v -247.4218 2.251706 63.27295
v -245.3354 0.5417333 58.31246
v -245.3354 0.5417333 58.31246
v -246.1395 2.251706 60.22424
v -246.1395 2.251706 60.22424
v -241.3033 1.914768 62.32809
v -241.3033 1.914768 62.32809
v -242.6511 1.914768 65.34078
v -242.6511 1.914768 65.34078
v -240.4569 0.2799492 60.43629
v -240.4569 0.2799492 60.43629
v -241.3033 1.914768 62.32809
v -241.3033 1.914768 62.32809
v -236.5321 1.596845 64.54372
v -236.5321 1.596845 64.54372
v -237.9503 1.596845 67.5124
v -237.9503 1.596845 67.5124
v -235.6397 0.04581833 62.67574
v -235.6397 0.04581833 62.67574
v -236.5321 1.596845 64.54372
v -236.5321 1.596845 64.54372
v -231.8544 1.300872 66.8697
v -231.8544 1.300872 66.8697
v -233.3466 1.300872 69.78661
v -233.3466 1.300872 69.78661
v -230.9131 -0.08494329 65.02943
v -230.9131 -0.08494329 65.02943
v -231.8544 1.300872 66.8697
v -231.8544 1.300872 66.8697
v -227.1601 1.021427 69.37759
v -227.1601 1.021427 69.37759
v -228.7311 1.021427 72.23336
v -228.7311 1.021427 72.23336
v -226.1657 -0.3407326 67.56995
v -226.1657 -0.3407326 67.56995
v -227.1601 1.021427 69.37759
v -227.1601 1.021427 69.37759
v -222.4707 0.7620592 72.08006
v -222.4707 0.7620592 72.08006
v -224.1246 0.7620592 74.86471
v -224.1246 0.7620592 74.86471
v -221.4196 -0.3407326 70.31042
v -221.4196 -0.3407326 70.31042
v -222.4707 0.7620592 72.08006
v -222.4707 0.7620592 72.08006
v -217.9414 0.5327349 74.90333
v -217.9414 0.5327349 74.90333
v -219.6791 0.5327349 77.6088
v -219.6791 0.5327349 77.6088
v -216.832 -0.3407326 73.17619
v -216.832 -0.3407326 73.17619
v -217.9414 0.5327349 74.90333
v -217.9414 0.5327349 74.90333
v -213.458 0.3289828 77.93388
v -213.458 0.3289828 77.93388
v -215.2818 0.3289828 80.54971
v -215.2818 0.3289828 80.54971
v -212.2877 -0.3407326 76.25524
v -212.2877 -0.3407326 76.25524
v -213.458 0.3289828 77.93388
v -213.458 0.3289828 77.93388
v -209.0421 0.1540976 81.18301
v -209.0421 0.1540976 81.18301
v -210.953 0.1540976 83.69831
v -210.953 0.1540976 83.69831
v -207.8086 -0.3407326 79.55932
v -207.8086 -0.3407326 79.55932
v -209.0421 0.1540976 81.18301
v -209.0421 0.1540976 81.18301

vn 0.06077519 0.9978443 0.02476103
vn 0 0 0
vn 0.06077961 0.9978434 0.0247873
vn 0 0 0
vn 0.2342717 0.7812636 -0.5785706
vn 0 0 0
vn 0.2435984 0.8130877 -0.5287232
vn 0 0 0
vn 0.06345901 0.9976485 0.02588887
vn 0 0 0
vn 0.06602216 0.9974794 0.02599896
vn 0 0 0
vn 0.2675661 0.8221558 -0.5024621
vn 0 0 0
vn 0.284115 0.8150438 -0.5049576
vn 0 0 0
vn 0.06956729 0.9972268 0.0264416
vn 0 0 0
vn 0.07015927 0.997214 0.0253399
vn 0 0 0
vn 0.2948278 0.7859708 -0.5434394
vn 0 0 0
vn 0.2800721 0.7526861 -0.5958384
vn 0 0 0
vn 0.07120999 0.9971395 0.0253386
vn 0 0 0
vn 0.07131672 0.9971423 0.02492128
vn 0 0 0
vn 0.2587473 0.7466626 -0.6128172
vn 0 0 0
vn 0.2468496 0.7632356 -0.5971069
vn 0 0 0
vn 0.07132109 0.997144 0.02484589
vn 0 0 0
vn 0.07113223 0.9971581 0.02481866
vn 0 0 0
vn 0.242764 0.7865341 -0.567829
vn 0 0 0
vn 0.2556374 0.8028175 -0.5386403
vn 0 0 0
vn 0.07046029 0.9972088 0.02469794
vn 0 0 0
vn 0.07005572 0.9972318 0.02491849
vn 0 0 0
vn 0.2571792 0.7965018 -0.5472147
vn 0 0 0
vn 0.254645 0.7931302 -0.5532634
vn 0 0 0
vn 0.06889835 0.9973166 0.0247505
vn 0 0 0
vn 0.06832042 0.9973468 0.02513132
vn 0 0 0
vn 0.2546506 0.795785 -0.5494355
vn 0 0 0
vn 0.256535 0.8009092 -0.5410494
vn 0 0 0
vn 0.0667609 0.9974584 0.02489733
vn 0 0 0
vn 0.06602721 0.9974949 0.0253836
vn 0 0 0
vn 0.2631818 0.8031606 -0.5344796
vn 0 0 0
vn 0.2683939 0.8009729 -0.5351702
vn 0 0 0
vn 0.06414448 0.9976256 0.02507208
vn 0 0 0
vn 0.06326018 0.9976682 0.02562171
vn 0 0 0
vn 0.2806732 0.7959235 -0.5364032
vn 0 0 0
vn 0.2849128 0.7845131 -0.5507848
vn 0 0 0
vn 0.06108292 0.9978142 0.02520983
vn 0 0 0
vn 0.06005736 0.9978619 0.02578449
vn 0 0 0
vn 0.2906692 0.7774291 -0.5577772
vn 0 0 0
vn 0.2898284 0.775296 -0.5611734
vn 0 0 0
vn 0.05762205 0.9980191 0.02525136
vn 0 0 0
vn 0.0564651 0.9980707 0.02581639
vn 0 0 0
vn 0.2912107 0.7798298 -0.5541317
vn 0 0 0
vn 0.2936532 0.7894426 -0.5390252
vn 0 0 0
vn 0.05380601 0.9982348 0.02514214
vn 0 0 0
vn 0.05252873 0.9982896 0.02566519
vn 0 0 0
vn 0.291178 0.7946216 -0.5327213
vn 0 0 0
vn 0.2903185 0.8098062 -0.5098324
vn 0 0 0
vn 0.04963136 0.9984593 0.02481191
vn 0 0 0
vn 0.04822 0.998517 0.02526587
vn 0 0 0
vn 0.2908494 0.8199465 -0.493046
vn 0 0 0
vn 0.2950472 0.8311591 -0.4712979
vn 0 0 0
vn 0.04512261 0.9986877 0.0242195
vn 0 0 0
vn 0.04355862 0.9987487 0.02457166
vn 0 0 0
vn 0.2902426 0.8327165 -0.4715322
vn 0 0 0
vn 0.2821636 0.8501179 -0.4446158
vn 0 0 0
vn 0.04029357 0.9989159 0.02330952
vn 0 0 0
vn 0.03861399 0.9989774 0.02351938
vn 0 0 0
vn 0.266457 0.8658134 -0.4235183
vn 0 0 0
vn 0.254703 0.8943793 -0.367712
vn 0 0 0
vn 0.03513867 0.9991409 0.02197029
vn 0 0 0
vn 0.03336021 0.9992012 0.02199996
vn 0 0 0
vn 0.2370944 0.9076104 -0.3464529
vn 0 0 0
vn 0.2214581 0.930529 -0.2916711
vn 0 0 0
vn 0.02977832 0.9993529 0.0201769
vn 0 0 0
vn 0.02789381 0.9994112 0.01998374
vn 0 0 0
vn 0.2029247 0.9407929 -0.2715331
vn 0 0 0
vn 0.1844205 0.9578587 -0.2202176
vn 0 0 0
vn 0.02608635 0.9994794 0.01898669
vn 0 0 0
vn 0.02600767 0.9994664 0.01975821
vn 0 0 0
vn 0.1749128 0.9615429 -0.211757
vn 0 0 0
vn 0.1644024 0.9714313 -0.1711526
vn 0 0 0

vt 0 0
vt 0 0
vt 0.2366699 0.5808991
vt 0.2366699 0.5808991
vt -0.1532837 -0.3762329
vt -0.1532837 -0.3762329
vt 0 0
vt 0 0
vt -0.9360169 0.3813317
vt -0.9360169 0.3813317
vt -0.6956787 0.9700783
vt -0.6956787 0.9700783
vt -1.090375 0.003208923
vt -1.090375 0.003208923
vt -0.9360169 0.3813317
vt -0.9360169 0.3813317
vt -1.829028 0.7153839
vt -1.829028 0.7153839
vt -1.607062 1.320724
vt -1.607062 1.320724
vt -1.970361 0.3299515
vt -1.970361 0.3299515
vt -1.829028 0.7153839
vt -1.829028 0.7153839
vt -2.750781 1.038104
vt -2.750781 1.038104
vt -2.535407 1.652503
vt -2.535407 1.652503
vt -2.887091 0.6492447
vt -2.887091 0.6492447
vt -2.750781 1.038104
vt -2.750781 1.038104
vt -3.695886 1.3623
vt -3.695886 1.3623
vt -3.480798 1.981638
vt -3.480798 1.981638
vt -3.831439 0.9719803
vt -3.831439 0.9719803
vt -3.695886 1.3623
vt -3.695886 1.3623
vt -4.651984 1.692722
vt -4.651984 1.692722
vt -4.43316 2.314135
vt -4.43316 2.314135
vt -4.78949 1.302232
vt -4.78949 1.302232
vt -4.651984 1.692722
vt -4.651984 1.692722
vt -5.619611 2.035948
vt -5.619611 2.035948
vt -5.394208 2.657193
vt -5.394208 2.657193
vt -5.760999 1.646276
vt -5.760999 1.646276
vt -5.619611 2.035948
vt -5.619611 2.035948
vt -6.583536 2.39143
vt -6.583536 2.39143
vt -6.349463 3.010593
vt -6.349463 3.010593
vt -6.730228 2.003407
vt -6.730228 2.003407
vt -6.583536 2.39143
vt -6.583536 2.39143
vt -7.556586 2.768031
vt -7.556586 2.768031
vt -7.312051 3.383334
vt -7.312051 3.383334
vt -7.709821 2.382455
vt -7.709821 2.382455
vt -7.556586 2.768031
vt -7.556586 2.768031
vt -8.530402 3.166512
vt -8.530402 3.166512
vt -8.273941 3.776254
vt -8.273941 3.776254
vt -8.69122 2.784157
vt -8.69122 2.784157
vt -8.530402 3.166512
vt -8.530402 3.166512
vt -9.497653 3.587283
vt -9.497653 3.587283
vt -9.22808 4.189821
vt -9.22808 4.189821
vt -9.666931 3.208923
vt -9.666931 3.208923
vt -9.497653 3.587283
vt -9.497653 3.587283
vt -10.45189 4.030408
vt -10.45189 4.030408
vt -10.16825 4.624144
vt -10.16825 4.624144
vt -10.63036 3.656813
vt -10.63036 3.656813
vt -10.45189 4.030408
vt -10.45189 4.030408
vt -11.38742 4.495604
vt -11.38742 4.495604
vt -11.08899 5.078987
vt -11.08899 5.078987
vt -11.5757 4.127552
vt -11.5757 4.127552
vt -11.38742 4.495604
vt -11.38742 4.495604
vt -12.32629 4.997183
vt -12.32629 4.997183
vt -12.01209 5.568336
vt -12.01209 5.568336
vt -12.52516 4.635655
vt -12.52516 4.635655
vt -12.32629 4.997183
vt -12.32629 4.997183
vt -13.26418 5.537677
vt -13.26418 5.537677
vt -12.93339 6.094606
vt -12.93339 6.094606
vt -13.47439 5.183748
vt -13.47439 5.183748
vt -13.26418 5.537677
vt -13.26418 5.537677
vt -14.17003 6.10233
vt -14.17003 6.10233
vt -13.82249 6.643424
vt -13.82249 6.643424
vt -14.3919 5.756902
vt -14.3919 5.756902
vt -14.17003 6.10233
vt -14.17003 6.10233
vt -15.0667 6.708441
vt -15.0667 6.708441
vt -14.70195 7.231606
vt -14.70195 7.231606
vt -15.30077 6.372713
vt -15.30077 6.372713
vt -15.0667 6.708441
vt -15.0667 6.708441
vt -15.94988 7.358267
vt -15.94988 7.358267
vt -15.56771 7.861327
vt -15.56771 7.861327
vt -16.19659 7.033528
vt -16.19659 7.033528
vt -15.94988 7.358267
vt -15.94988 7.358267

usemtl GSDShoulder1
usemap GSDShoulder1
f 9/9/9 1/1/1 3/3/3
f 11/11/11 9/9/9 3/3/3
f 13/13/13 5/5/5 7/7/7
f 15/15/15 13/13/13 7/7/7
f 17/17/17 9/9/9 11/11/11
f 19/19/19 17/17/17 11/11/11
f 21/21/21 13/13/13 15/15/15
f 23/23/23 21/21/21 15/15/15
f 25/25/25 17/17/17 19/19/19
f 27/27/27 25/25/25 19/19/19
f 29/29/29 21/21/21 23/23/23
f 31/31/31 29/29/29 23/23/23
f 33/33/33 25/25/25 27/27/27
f 35/35/35 33/33/33 27/27/27
f 37/37/37 29/29/29 31/31/31
f 39/39/39 37/37/37 31/31/31
f 41/41/41 33/33/33 35/35/35
f 43/43/43 41/41/41 35/35/35
f 45/45/45 37/37/37 39/39/39
f 47/47/47 45/45/45 39/39/39
f 49/49/49 41/41/41 43/43/43
f 51/51/51 49/49/49 43/43/43
f 53/53/53 45/45/45 47/47/47
f 55/55/55 53/53/53 47/47/47
f 57/57/57 49/49/49 51/51/51
f 59/59/59 57/57/57 51/51/51
f 61/61/61 53/53/53 55/55/55
f 63/63/63 61/61/61 55/55/55
f 65/65/65 57/57/57 59/59/59
f 67/67/67 65/65/65 59/59/59
f 69/69/69 61/61/61 63/63/63
f 71/71/71 69/69/69 63/63/63
f 73/73/73 65/65/65 67/67/67
f 75/75/75 73/73/73 67/67/67
f 77/77/77 69/69/69 71/71/71
f 79/79/79 77/77/77 71/71/71
f 81/81/81 73/73/73 75/75/75
f 83/83/83 81/81/81 75/75/75
f 85/85/85 77/77/77 79/79/79
f 87/87/87 85/85/85 79/79/79
f 89/89/89 81/81/81 83/83/83
f 91/91/91 89/89/89 83/83/83
f 93/93/93 85/85/85 87/87/87
f 95/95/95 93/93/93 87/87/87
f 97/97/97 89/89/89 91/91/91
f 99/99/99 97/97/97 91/91/91
f 101/101/101 93/93/93 95/95/95
f 103/103/103 101/101/101 95/95/95
f 105/105/105 97/97/97 99/99/99
f 107/107/107 105/105/105 99/99/99
f 109/109/109 101/101/101 103/103/103
f 111/111/111 109/109/109 103/103/103
f 113/113/113 105/105/105 107/107/107
f 115/115/115 113/113/113 107/107/107
f 117/117/117 109/109/109 111/111/111
f 119/119/119 117/117/117 111/111/111
f 121/121/121 113/113/113 115/115/115
f 123/123/123 121/121/121 115/115/115
f 125/125/125 117/117/117 119/119/119
f 127/127/127 125/125/125 119/119/119
f 129/129/129 121/121/121 123/123/123
f 131/131/131 129/129/129 123/123/123
f 133/133/133 125/125/125 127/127/127
f 135/135/135 133/133/133 127/127/127
f 137/137/137 129/129/129 131/131/131
f 139/139/139 137/137/137 131/131/131
f 141/141/141 133/133/133 135/135/135
f 143/143/143 141/141/141 135/135/135
