mtllib ./Road1_0_273.mtl
g SCutL64
v -209.043 40.001 712.5182
v -209.043 40.001 712.5182
v -208.3381 40.001 715.5873
v -208.3381 40.001 715.5873
v -209.4982 37.95303 710.5365
v -209.4982 37.95303 710.5365
v -209.043 40.001 712.5182
v -209.043 40.001 712.5182
v -203.9403 40.40624 711.398
v -203.9403 40.40624 711.398
v -203.2932 40.40624 714.481
v -203.2932 40.40624 714.481
v -204.3581 38.42325 709.4078
v -204.3581 38.42325 709.4078
v -203.9403 40.40624 711.398
v -203.9403 40.40624 711.398
v -198.8581 40.81355 710.3607
v -198.8581 40.81355 710.3607
v -198.2415 40.81355 713.4509
v -198.2415 40.81355 713.4509
v -199.2561 38.73995 708.3661
v -199.2561 38.73995 708.3661
v -198.8581 40.81355 710.3607
v -198.8581 40.81355 710.3607
v -193.9334 41.21329 709.3828
v -193.9334 41.21329 709.3828
v -193.3189 41.21329 712.4744
v -193.3189 41.21329 712.4744
v -194.3299 39.25019 707.3878
v -194.3299 39.25019 707.3878
v -193.9334 41.21329 709.3828
v -193.9334 41.21329 709.3828
v -189.0571 41.61517 708.3964
v -189.0571 41.61517 708.3964
v -188.4179 41.61517 711.4838
v -188.4179 41.61517 711.4838
v -189.4695 39.59959 706.4044
v -189.4695 39.59959 706.4044
v -189.0571 41.61517 708.3964
v -189.0571 41.61517 708.3964
v -184.2448 42.019 707.3615
v -184.2448 42.019 707.3615
v -183.5545 42.019 710.4386
v -183.5545 42.019 710.4386
v -184.6902 40.10262 705.3764
v -184.6902 40.10262 705.3764
v -184.2448 42.019 707.3615
v -184.2448 42.019 707.3615
v -179.5124 42.4246 706.2402
v -179.5124 42.4246 706.2402
v -178.7447 42.4246 709.2995
v -178.7447 42.4246 709.2995
v -180.0076 40.4571 704.2668
v -180.0076 40.4571 704.2668
v -179.5124 42.4246 706.2402
v -179.5124 42.4246 706.2402
v -174.8751 42.83176 704.996
v -174.8751 42.83176 704.996
v -174.0043 42.83176 708.0282
v -174.0043 42.83176 708.0282
v -175.4368 40.76657 703.0404
v -175.4368 40.76657 703.0404
v -174.8751 42.83176 704.996
v -174.8751 42.83176 704.996
v -170.347 43.2403 703.5944
v -170.347 43.2403 703.5944
v -169.3483 43.2403 706.5875
v -169.3483 43.2403 706.5875
v -170.9911 41.23592 701.6642
v -170.9911 41.23592 701.6642
v -170.347 43.2403 703.5944
v -170.347 43.2403 703.5944

vn -0.07537808 0.9970047 0.01731252
vn 0 0 0
vn -0.07596377 0.9969708 0.01669442
vn 0 0 0
vn -0.2132292 0.7034495 -0.6780059
vn 0 0 0
vn -0.2085105 0.7089771 -0.6737024
vn 0 0 0
vn -0.07618091 0.9969577 0.01649044
vn 0 0 0
vn -0.07680195 0.9969202 0.01585467
vn 0 0 0
vn -0.1998284 0.7111491 -0.6740443
vn 0 0 0
vn -0.1941067 0.7096794 -0.6772576
vn 0 0 0
vn -0.07722074 0.9968908 0.01567624
vn 0 0 0
vn -0.07764428 0.996861 0.0154725
vn 0 0 0
vn -0.1955839 0.7043707 -0.6823554
vn 0 0 0
vn -0.1986699 0.7051893 -0.6806161
vn 0 0 0
vn -0.07822476 0.9968142 0.01556774
vn 0 0 0
vn -0.0784332 0.996794 0.01580528
vn 0 0 0
vn -0.1957184 0.7117289 -0.6746379
vn 0 0 0
vn -0.1912806 0.7154061 -0.6720163
vn 0 0 0
vn -0.07916178 0.9967307 0.01617022
vn 0 0 0
vn -0.07915602 0.99672 0.01684403
vn 0 0 0
vn -0.2005127 0.7120715 -0.672866
vn 0 0 0
vn -0.2054982 0.7147706 -0.6684859
vn 0 0 0
vn -0.0800341 0.9966386 0.01749317
vn 0 0 0
vn -0.07978611 0.9966384 0.01860584
vn 0 0 0
vn -0.2104406 0.7204657 -0.6607904
vn 0 0 0
vn -0.2101243 0.7237785 -0.6572614
vn 0 0 0
vn -0.08078627 0.9965396 0.01955512
vn 0 0 0
vn -0.08024385 0.9965519 0.02110187
vn 0 0 0
vn -0.2178595 0.7207047 -0.65812
vn 0 0 0
vn -0.2284655 0.7121838 -0.6637754
vn 0 0 0
vn -0.08131344 0.9964375 0.02236527
vn 0 0 0
vn -0.08040629 0.9964653 0.0243282
vn 0 0 0
vn -0.2482983 0.7061088 -0.6631427
vn 0 0 0
vn -0.2614587 0.7040835 -0.6602316
vn 0 0 0
vn -0.08088081 0.9964078 0.02509556
vn 0 0 0
vn -0.07925539 0.9965035 0.02644513
vn 0 0 0
vn -0.2716406 0.7055016 -0.6545831
vn 0 0 0
vn -0.2655357 0.711655 -0.6504137
vn 0 0 0

vt 0 0
vt 0 0
vt -0.1409821 0.6138306
vt -0.1409821 0.6138306
vt 0.09102783 -0.3963379
vt 0.09102783 -0.3963379
vt 0 0
vt 0 0
vt -1.020541 -0.2240357
vt -1.020541 -0.2240357
vt -1.149966 0.3925537
vt -1.149966 0.3925537
vt -0.9369904 -0.6220703
vt -0.9369904 -0.6220703
vt -1.020541 -0.2240357
vt -1.020541 -0.2240357
vt -2.036975 -0.4315064
vt -2.036975 -0.4315064
vt -2.160297 0.1865479
vt -2.160297 0.1865479
vt -1.957379 -0.8304077
vt -1.957379 -0.8304077
vt -2.036975 -0.4315064
vt -2.036975 -0.4315064
vt -3.02193 -0.6270752
vt -3.02193 -0.6270752
vt -3.144824 -0.008752442
vt -3.144824 -0.008752442
vt -2.942627 -1.026086
vt -2.942627 -1.026086
vt -3.02193 -0.6270752
vt -3.02193 -0.6270752
vt -3.997189 -0.8243653
vt -3.997189 -0.8243653
vt -4.125021 -0.2068848
vt -4.125021 -0.2068848
vt -3.91471 -1.222766
vt -3.91471 -1.222766
vt -3.997189 -0.8243653
vt -3.997189 -0.8243653
vt -4.959634 -1.031335
vt -4.959634 -1.031335
vt -5.097705 -0.415918
vt -5.097705 -0.415918
vt -4.870563 -1.428357
vt -4.870563 -1.428357
vt -4.959634 -1.031335
vt -4.959634 -1.031335
vt -5.906116 -1.255603
vt -5.906116 -1.255603
vt -6.059662 -0.6437378
vt -6.059662 -0.6437378
vt -5.807074 -1.650281
vt -5.807074 -1.650281
vt -5.906116 -1.255603
vt -5.906116 -1.255603
vt -6.833581 -1.504431
vt -6.833581 -1.504431
vt -7.007742 -0.897998
vt -7.007742 -0.897998
vt -6.721252 -1.895557
vt -6.721252 -1.895557
vt -6.833581 -1.504431
vt -6.833581 -1.504431
vt -7.739197 -1.784753
vt -7.739197 -1.784753
vt -7.938934 -1.186145
vt -7.938934 -1.186145
vt -7.610388 -2.170789
vt -7.610388 -2.170789
vt -7.739197 -1.784753
vt -7.739197 -1.784753

usemtl GSDShoulder1
usemap GSDShoulder1
f 9/9/9 1/1/1 3/3/3
f 11/11/11 9/9/9 3/3/3
f 13/13/13 5/5/5 7/7/7
f 15/15/15 13/13/13 7/7/7
f 17/17/17 9/9/9 11/11/11
f 19/19/19 17/17/17 11/11/11
f 21/21/21 13/13/13 15/15/15
f 23/23/23 21/21/21 15/15/15
f 25/25/25 17/17/17 19/19/19
f 27/27/27 25/25/25 19/19/19
f 29/29/29 21/21/21 23/23/23
f 31/31/31 29/29/29 23/23/23
f 33/33/33 25/25/25 27/27/27
f 35/35/35 33/33/33 27/27/27
f 37/37/37 29/29/29 31/31/31
f 39/39/39 37/37/37 31/31/31
f 41/41/41 33/33/33 35/35/35
f 43/43/43 41/41/41 35/35/35
f 45/45/45 37/37/37 39/39/39
f 47/47/47 45/45/45 39/39/39
f 49/49/49 41/41/41 43/43/43
f 51/51/51 49/49/49 43/43/43
f 53/53/53 45/45/45 47/47/47
f 55/55/55 53/53/53 47/47/47
f 57/57/57 49/49/49 51/51/51
f 59/59/59 57/57/57 51/51/51
f 61/61/61 53/53/53 55/55/55
f 63/63/63 61/61/61 55/55/55
f 65/65/65 57/57/57 59/59/59
f 67/67/67 65/65/65 59/59/59
f 69/69/69 61/61/61 63/63/63
f 71/71/71 69/69/69 63/63/63
