mtllib ./Road1_0_114.mtl
g RoadCut57
v -462.8903 34.32325 739.861
v -462.8903 34.32325 739.861
v -463.1705 34.32325 749.8571
v -463.1705 34.32325 749.8571
v -457.8704 34.31551 739.9878
v -457.8704 34.31551 739.9878
v -458.093 34.31551 749.9854
v -458.093 34.31551 749.9854
v -452.8042 34.31086 740.0862
v -452.8042 34.31086 740.0862
v -452.9733 34.31086 750.0848
v -452.9733 34.31086 750.0848
v -447.7682 34.30931 740.1616
v -447.7682 34.30931 740.1616
v -447.9013 34.30931 750.1608
v -447.9013 34.30931 750.1608
v -442.6882 34.30986 740.2233
v -442.6882 34.30986 740.2233
v -442.7997 34.30986 750.2227
v -442.7997 34.30986 750.2227
v -437.6131 34.31164 740.2772
v -437.6131 34.31164 740.2772
v -437.7165 34.31164 750.2767
v -437.7165 34.31164 750.2767
v -432.5925 34.31382 740.33
v -432.5925 34.31382 740.33
v -432.7014 34.31382 750.3294
v -432.7014 34.31382 750.3294
v -427.5504 34.31559 740.3895
v -427.5504 34.31559 740.3895
v -427.6801 34.31559 750.3886
v -427.6801 34.31559 750.3886

vn 0.001542295 0.9999988 4.323389E-05
vn 0 0 0
vn 0.001533606 0.9999988 3.856767E-05
vn 0 0 0
vn 0.001327524 0.999999 3.2502E-05
vn 0 0 0
vn 0.00111592 0.9999994 2.321804E-05
vn 0 0 0
vn 0.0007119774 0.9999998 1.367559E-05
vn 0 0 0
vn 0.0005084007 0.9999999 8.234069E-06
vn 0 0 0
vn 0.0001679928 1 2.604135E-06
vn 0 0 0
vn 3.00043E-05 1 4.771204E-07
vn 0 0 0
vn -0.0001885005 1 -2.179597E-06
vn 0 0 0
vn -0.0002696955 1 -2.912613E-06
vn 0 0 0
vn -0.0003789388 0.9999999 -4.01366E-06
vn 0 0 0
vn -0.0004066844 0.9999999 -4.285233E-06
vn 0 0 0
vn -0.0004065268 0.9999999 -4.348895E-06
vn 0 0 0
vn -0.0003789266 0.9999999 -4.371664E-06
vn 0 0 0
vn -0.0003509613 0.9999999 -4.188108E-06
vn 0 0 0
vn -0.0003516822 0.9999999 -4.561698E-06
vn 0 0 0

vt 0 0
vt 0 0
vt 0.05604248 1.999219
vt 0.05604248 1.999219
vt -1.00398 0.025354
vt -1.00398 0.025354
vt -0.9594604 2.024866
vt -0.9594604 2.024866
vt -2.017212 0.04504395
vt -2.017212 0.04504395
vt -1.983386 2.044751
vt -1.983386 2.044751
vt -3.02442 0.06011963
vt -3.02442 0.06011963
vt -2.997784 2.059949
vt -2.997784 2.059949
vt -4.040405 0.07246094
vt -4.040405 0.07246094
vt -4.018103 2.072339
vt -4.018103 2.072339
vt -5.055439 0.08322754
vt -5.055439 0.08322754
vt -5.03476 2.08313
vt -5.03476 2.08313
vt -6.059552 0.09379883
vt -6.059552 0.09379883
vt -6.037763 2.093677
vt -6.037763 2.093677
vt -7.067981 0.1056885
vt -7.067981 0.1056885
vt -7.042041 2.105518
vt -7.042041 2.105518

usemtl GSDRoad1
usemap GSDRoad1
f 5/5/5 1/1/1 3/3/3
f 7/7/7 5/5/5 3/3/3
f 9/9/9 5/5/5 7/7/7
f 11/11/11 9/9/9 7/7/7
f 13/13/13 9/9/9 11/11/11
f 15/15/15 13/13/13 11/11/11
f 17/17/17 13/13/13 15/15/15
f 19/19/19 17/17/17 15/15/15
f 21/21/21 17/17/17 19/19/19
f 23/23/23 21/21/21 19/19/19
f 25/25/25 21/21/21 23/23/23
f 27/27/27 25/25/25 23/23/23
f 29/29/29 25/25/25 27/27/27
f 31/31/31 29/29/29 27/27/27
