mtllib ./Road1_0_258.mtl
g SCutL49
v -738.9007 19.07756 717.7601
v -738.9007 19.07756 717.7601
v -741.043 19.07756 720.0096
v -741.043 19.07756 720.0096
v -737.5059 17.91816 716.2955
v -737.5059 17.91816 716.2955
v -738.9007 19.07756 717.7601
v -738.9007 19.07756 717.7601
v -735.3774 19.47289 720.9362
v -735.3774 19.47289 720.9362
v -737.4485 19.47289 723.2526
v -737.4485 19.47289 723.2526
v -734.0289 18.29232 719.4281
v -734.0289 18.29232 719.4281
v -735.3774 19.47289 720.9362
v -735.3774 19.47289 720.9362
v -731.6975 19.86127 724.2001
v -731.6975 19.86127 724.2001
v -733.7456 19.86127 726.5406
v -733.7456 19.86127 726.5406
v -730.3648 18.78551 722.6772
v -730.3648 18.78551 722.6772
v -731.6975 19.86127 724.2001
v -731.6975 19.86127 724.2001
v -728.0282 20.2566 727.3137
v -728.0282 20.2566 727.3137
v -729.9962 20.2566 729.7238
v -729.9962 20.2566 729.7238
v -726.748 18.98466 725.746
v -726.748 18.98466 725.746
v -728.0282 20.2566 727.3137
v -728.0282 20.2566 727.3137
v -724.3997 20.65511 730.117
v -724.3997 20.65511 730.117
v -726.2214 20.65511 732.6394
v -726.2214 20.65511 732.6394
v -723.2147 19.48401 728.4762
v -723.2147 19.48401 728.4762
v -724.3997 20.65511 730.117
v -724.3997 20.65511 730.117
v -720.7805 21.0632 732.5077
v -720.7805 21.0632 732.5077
v -722.3632 21.0632 735.1851
v -722.3632 21.0632 735.1851
v -719.7509 19.84317 730.7658
v -719.7509 19.84317 730.7658
v -720.7805 21.0632 732.5077
v -720.7805 21.0632 732.5077
v -717.2717 21.47666 734.304
v -717.2717 21.47666 734.304
v -718.4829 21.47666 737.166
v -718.4829 21.47666 737.166
v -716.4834 20.16814 732.4413
v -716.4834 20.16814 732.4413
v -717.2717 21.47666 734.304
v -717.2717 21.47666 734.304

vn -0.06016665 0.9965425 -0.05729683
vn 0 0 0
vn -0.06042333 0.9966143 -0.05575798
vn 0 0 0
vn 0.2818018 0.8645777 -0.4160445
vn 0 0 0
vn 0.2824702 0.8630745 -0.4187041
vn 0 0 0
vn -0.05983143 0.9967119 -0.05464138
vn 0 0 0
vn -0.05938984 0.9968415 -0.05272471
vn 0 0 0
vn 0.2776926 0.8621601 -0.4237532
vn 0 0 0
vn 0.2700019 0.8678105 -0.4171375
vn 0 0 0
vn -0.05969822 0.9968289 -0.05261507
vn 0 0 0
vn -0.0608343 0.9967915 -0.0520182
vn 0 0 0
vn 0.267477 0.8745755 -0.4044426
vn 0 0 0
vn 0.2748995 0.8697078 -0.4099251
vn 0 0 0
vn -0.06352776 0.9965671 -0.05308653
vn 0 0 0
vn -0.0655082 0.9965293 -0.05136299
vn 0 0 0
vn 0.2727616 0.8571334 -0.4369478
vn 0 0 0
vn 0.2625816 0.8505191 -0.4557061
vn 0 0 0
vn -0.07006905 0.9961478 -0.05272499
vn 0 0 0
vn -0.07299262 0.9961095 -0.04937302
vn 0 0 0
vn 0.2374968 0.8558577 -0.4594593
vn 0 0 0
vn 0.2254485 0.8604564 -0.4569331
vn 0 0 0
vn -0.0801994 0.9954856 -0.05075911
vn 0 0 0
vn -0.08397836 0.9954641 -0.04470839
vn 0 0 0
vn 0.2012763 0.856507 -0.4752722
vn 0 0 0
vn 0.1851675 0.8489082 -0.4950434
vn 0 0 0
vn -0.08853386 0.9950719 -0.04465274
vn 0 0 0
vn -0.08722992 0.995504 -0.0369152
vn 0 0 0
vn 0.1681326 0.844869 -0.5078661
vn 0 0 0
vn 0.1666654 0.838621 -0.5185919
vn 0 0 0

vt 0 0
vt 0 0
vt 0.4284546 0.4499145
vt 0.4284546 0.4499145
vt -0.2789551 -0.2929199
vt -0.2789551 -0.2929199
vt 0 0
vt 0 0
vt -0.7046631 0.6352295
vt -0.7046631 0.6352295
vt -0.2904419 1.098499
vt -0.2904419 1.098499
vt -0.974353 0.333606
vt -0.974353 0.333606
vt -0.7046631 0.6352295
vt -0.7046631 0.6352295
vt -1.440637 1.288013
vt -1.440637 1.288013
vt -1.031018 1.756104
vt -1.031018 1.756104
vt -1.707178 0.9834229
vt -1.707178 0.9834229
vt -1.440637 1.288013
vt -1.440637 1.288013
vt -2.1745 1.91073
vt -2.1745 1.91073
vt -1.780908 2.392737
vt -1.780908 2.392737
vt -2.43053 1.59718
vt -2.43053 1.59718
vt -2.1745 1.91073
vt -2.1745 1.91073
vt -2.900208 2.471387
vt -2.900208 2.471387
vt -2.535864 2.975867
vt -2.535864 2.975867
vt -3.137195 2.143225
vt -3.137195 2.143225
vt -2.900208 2.471387
vt -2.900208 2.471387
vt -3.624036 2.949524
vt -3.624036 2.949524
vt -3.307507 3.484998
vt -3.307507 3.484998
vt -3.829968 2.601147
vt -3.829968 2.601147
vt -3.624036 2.949524
vt -3.624036 2.949524
vt -4.325794 3.308777
vt -4.325794 3.308777
vt -4.083557 3.881177
vt -4.083557 3.881177
vt -4.483459 2.936243
vt -4.483459 2.936243
vt -4.325794 3.308777
vt -4.325794 3.308777

usemtl GSDShoulder1
usemap GSDShoulder1
f 9/9/9 1/1/1 3/3/3
f 11/11/11 9/9/9 3/3/3
f 13/13/13 5/5/5 7/7/7
f 15/15/15 13/13/13 7/7/7
f 17/17/17 9/9/9 11/11/11
f 19/19/19 17/17/17 11/11/11
f 21/21/21 13/13/13 15/15/15
f 23/23/23 21/21/21 15/15/15
f 25/25/25 17/17/17 19/19/19
f 27/27/27 25/25/25 19/19/19
f 29/29/29 21/21/21 23/23/23
f 31/31/31 29/29/29 23/23/23
f 33/33/33 25/25/25 27/27/27
f 35/35/35 33/33/33 27/27/27
f 37/37/37 29/29/29 31/31/31
f 39/39/39 37/37/37 31/31/31
f 41/41/41 33/33/33 35/35/35
f 43/43/43 41/41/41 35/35/35
f 45/45/45 37/37/37 39/39/39
f 47/47/47 45/45/45 39/39/39
f 49/49/49 41/41/41 43/43/43
f 51/51/51 49/49/49 43/43/43
f 53/53/53 45/45/45 47/47/47
f 55/55/55 53/53/53 47/47/47
