mtllib ./Road1_0_130.mtl
g RoadCut65
v -169.3483 43.2403 706.5875
v -169.3483 43.2403 706.5875
v -166.1934 43.2403 716.0429
v -166.1934 43.2403 716.0429
v -164.5822 43.64614 704.967
v -164.5822 43.64614 704.967
v -161.3371 43.64614 714.3927
v -161.3371 43.64614 714.3927
v -159.9317 44.04051 703.3367
v -159.9317 44.04051 703.3367
v -156.5735 44.04051 712.723
v -156.5735 44.04051 712.723
v -155.2488 44.44004 701.6168
v -155.2488 44.44004 701.6168
v -151.7251 44.44004 710.9425
v -151.7251 44.44004 710.9425
v -150.6164 44.84069 699.806
v -150.6164 44.84069 699.806
v -146.8706 44.84069 709.0446
v -146.8706 44.84069 709.0446
v -146.1181 45.23855 697.9039
v -146.1181 45.23855 697.9039
v -142.0855 45.23855 707.0206
v -142.0855 45.23855 707.0206
v -141.7338 45.63963 695.8606
v -141.7338 45.63963 695.8606
v -137.3261 45.63963 704.8014
v -137.3261 45.63963 704.8014
v -137.4822 46.04879 693.6207
v -137.4822 46.04879 693.6207
v -132.5712 46.04879 702.2944
v -132.5712 46.04879 702.2944
v -133.542 46.45868 691.1915
v -133.542 46.45868 691.1915
v -127.9521 46.45868 699.4427
v -127.9521 46.45868 699.4427

vn -0.07622762 0.9967659 0.02543463
vn 0 0 0
vn -0.07539829 0.996826 0.02555747
vn 0 0 0
vn -0.07540801 0.9968216 0.02569171
vn 0 0 0
vn -0.07444344 0.9968873 0.02596042
vn 0 0 0
vn -0.07463602 0.9968622 0.02636814
vn 0 0 0
vn -0.07353362 0.9969326 0.02680094
vn 0 0 0
vn -0.07411837 0.99687 0.02750818
vn 0 0 0
vn -0.07272962 0.9969544 0.02814633
vn 0 0 0
vn -0.07374779 0.9968488 0.02921647
vn 0 0 0
vn -0.07197456 0.9969535 0.03005692
vn 0 0 0
vn -0.07347588 0.9967965 0.03159196
vn 0 0 0
vn -0.07113719 0.9969319 0.03265527
vn 0 0 0
vn -0.07319885 0.9967085 0.03484237
vn 0 0 0
vn -0.06997055 0.9968928 0.03617867
vn 0 0 0
vn -0.07269302 0.9965779 0.03934917
vn 0 0 0
vn -0.06800332 0.9968447 0.04094326
vn 0 0 0
vn -0.06903243 0.9966946 0.04283033
vn 0 0 0
vn -0.06238927 0.9971566 0.04226654
vn 0 0 0

vt 0 0
vt 0 0
vt -0.6309937 1.891089
vt -0.6309937 1.891089
vt -0.9532257 -0.3240845
vt -0.9532257 -0.3240845
vt -1.602243 1.561047
vt -1.602243 1.561047
vt -1.883319 -0.6501587
vt -1.883319 -0.6501587
vt -2.554974 1.227112
vt -2.554974 1.227112
vt -2.81991 -0.9941284
vt -2.81991 -0.9941284
vt -3.524652 0.8710083
vt -3.524652 0.8710083
vt -3.746393 -1.356299
vt -3.746393 -1.356299
vt -4.495544 0.4914307
vt -4.495544 0.4914307
vt -4.646039 -1.736707
vt -4.646039 -1.736707
vt -5.452569 0.0866333
vt -5.452569 0.0866333
vt -5.522903 -2.145374
vt -5.522903 -2.145374
vt -6.40444 -0.3572144
vt -6.40444 -0.3572144
vt -6.37323 -2.593347
vt -6.37323 -2.593347
vt -7.35542 -0.858606
vt -7.35542 -0.858606
vt -7.161267 -3.079187
vt -7.161267 -3.079187
vt -8.27925 -1.428943
vt -8.27925 -1.428943

usemtl GSDRoad1
usemap GSDRoad1
f 5/5/5 1/1/1 3/3/3
f 7/7/7 5/5/5 3/3/3
f 9/9/9 5/5/5 7/7/7
f 11/11/11 9/9/9 7/7/7
f 13/13/13 9/9/9 11/11/11
f 15/15/15 13/13/13 11/11/11
f 17/17/17 13/13/13 15/15/15
f 19/19/19 17/17/17 15/15/15
f 21/21/21 17/17/17 19/19/19
f 23/23/23 21/21/21 19/19/19
f 25/25/25 21/21/21 23/23/23
f 27/27/27 25/25/25 23/23/23
f 29/29/29 25/25/25 27/27/27
f 31/31/31 29/29/29 27/27/27
f 33/33/33 29/29/29 31/31/31
f 35/35/35 33/33/33 31/31/31
