mtllib ./Road1_0_138.mtl
g Markers68 (1)
v -110.1081 50.1593 646.0023
v -110.1081 50.1593 646.0023
v -100.2128 50.1593 647.8239
v -100.2128 50.1593 647.8239
v -109.4043 50.76221 638.5141
v -109.4043 50.76221 638.5141
v -99.49628 50.76221 640.1511
v -99.49628 50.76221 640.1511
v -109.0345 51.36119 631.3746
v -109.0345 51.36119 631.3746
v -99.08028 51.36119 632.1671
v -99.08028 51.36119 632.1671
v -108.8333 51.96111 623.8817
v -108.8333 51.96111 623.8817
v -98.87133 51.96111 624.4202
v -98.87133 51.96111 624.4202

vn -0.009812123 0.9967502 0.07995505
vn 0 0 0
vn -0.009204887 0.9968272 0.07906082
vn 0 0 0
vn -0.009220149 0.9967009 0.08063705
vn 0 0 0
vn -0.007203476 0.996843 0.07906941
vn 0 0 0
vn -0.005756059 0.9967852 0.07991337
vn 0 0 0
vn -0.003699224 0.9969419 0.07805921
vn 0 0 0
vn -0.003537503 0.9968366 0.07939965
vn 0 0 0
vn -0.002815754 0.9969389 0.07813276
vn 0 0 0

vt 0 923.9879
vt 0 0
vt 1 923.9879
vt 0 0
vt 0 924.9995
vt 0 924.9995
vt 1 924.9995
vt 1 924.9995
vt 0 925.9578
vt 0 925.9578
vt 1 925.9578
vt 1 925.9578
vt 0 926.9609
vt 0 0
vt 1 926.9609
vt 0 0

usemtl GSDWhiteYellowDouble
usemap GSDWhiteYellowDouble
f 5/5/5 1/1/1 3/3/3
f 7/7/7 5/5/5 3/3/3
f 9/9/9 5/5/5 7/7/7
f 11/11/11 9/9/9 7/7/7
f 13/13/13 9/9/9 11/11/11
f 15/15/15 13/13/13 11/11/11
