mtllib ./Road1_0_40.mtl
g RoadCut20
v -471.8342 20.0883 27.21941
v -471.8342 20.0883 27.21941
v -472.0663 20.0883 37.18433
v -472.0663 20.0883 37.18433
v -466.6195 19.68184 27.43669
v -466.6195 19.68184 27.43669
v -467.2 19.68184 37.38756
v -467.2 19.68184 37.38756
v -461.5143 19.27883 27.79343
v -461.5143 19.27883 27.79343
v -462.3033 19.27883 37.73006
v -462.3033 19.27883 37.73006
v -456.4246 18.87383 28.23212
v -456.4246 18.87383 28.23212
v -457.3387 18.87383 38.1581
v -457.3387 18.87383 38.1581
v -451.3692 18.47002 28.72051
v -451.3692 18.47002 28.72051
v -452.3674 18.47002 38.63845
v -452.3674 18.47002 38.63845
v -446.3776 18.07046 29.23901
v -446.3776 18.07046 29.23901
v -447.4363 18.07046 39.15073
v -447.4363 18.07046 39.15073
v -441.2841 17.66218 29.79575
v -441.2841 17.66218 29.79575
v -442.3896 17.66218 39.70239
v -442.3896 17.66218 39.70239
v -436.2892 17.26144 30.36259
v -436.2892 17.26144 30.36259
v -437.4305 17.26144 40.26521
v -437.4305 17.26144 40.26521
v -431.3124 16.86188 30.94357
v -431.3124 16.86188 30.94357
v -432.4819 16.86188 40.84293
v -432.4819 16.86188 40.84293
v -426.2516 16.45537 31.54753
v -426.2516 16.45537 31.54753
v -427.4438 16.45537 41.44419
v -427.4438 16.45537 41.44419
v -421.2881 16.0565 32.1501
v -421.2881 16.0565 32.1501
v -422.4978 16.0565 42.04465
v -422.4978 16.0565 42.04465
v -416.3113 15.65642 32.76223
v -416.3113 15.65642 32.76223
v -417.5347 15.65642 42.65511
v -417.5347 15.65642 42.65511
v -411.3524 15.25766 33.3781
v -411.3524 15.25766 33.3781
v -412.5857 15.25766 43.26978
v -412.5857 15.25766 43.26978
v -406.3015 14.85135 34.00962
v -406.3015 14.85135 34.00962
v -407.541 14.85135 43.90051
v -407.541 14.85135 43.90051
v -401.3399 14.45211 34.63222
v -401.3399 14.45211 34.63222
v -402.582 14.45211 44.5228
v -402.582 14.45211 44.5228
v -396.3672 14.05182 35.25648
v -396.3672 14.05182 35.25648
v -397.6076 14.05182 45.14727
v -397.6076 14.05182 45.14727
v -391.305 13.64413 35.88981
v -391.305 13.64413 35.88981
v -392.5385 13.64413 45.78146
v -392.5385 13.64413 45.78146
v -386.356 13.24531 36.50387
v -386.356 13.24531 36.50387
v -387.576 13.24531 46.39719
v -387.576 13.24531 46.39719
v -381.3618 12.84245 37.1142
v -381.3618 12.84245 37.1142
v -382.558 12.84245 47.01041
v -382.558 12.84245 47.01041
v -376.3645 12.43868 37.70876
v -376.3645 12.43868 37.70876
v -377.5197 12.43868 47.60981
v -377.5197 12.43868 47.60981
v -371.4136 12.03727 38.2694
v -371.4136 12.03727 38.2694
v -372.4929 12.03727 48.17897
v -372.4929 12.03727 48.17897

vn 0.0776337 0.9969802 0.001807875
vn 0 0 0
vn 0.08024108 0.9967701 0.003273577
vn 0 0 0
vn 0.07961418 0.9968189 0.003710476
vn 0 0 0
vn 0.08095357 0.9967038 0.005288578
vn 0 0 0
vn 0.07955223 0.996814 0.005758312
vn 0 0 0
vn 0.08032367 0.9967462 0.006717904
vn 0 0 0
vn 0.07945014 0.9968144 0.006979896
vn 0 0 0
vn 0.07991963 0.9967725 0.007587346
vn 0 0 0
vn 0.07935594 0.9968162 0.007759714
vn 0 0 0
vn 0.07967629 0.9967873 0.008182441
vn 0 0 0
vn 0.07927196 0.9968184 0.008305591
vn 0 0 0
vn 0.07950461 0.9967973 0.008619637
vn 0 0 0
vn 0.07920796 0.99682 0.008711839
vn 0 0 0
vn 0.07938483 0.9968038 0.008954591
vn 0 0 0
vn 0.07915089 0.9968218 0.009025197
vn 0 0 0
vn 0.07928871 0.9968091 0.009213886
vn 0 0 0
vn 0.07910421 0.9968232 0.009269072
vn 0 0 0
vn 0.07921179 0.9968133 0.009419397
vn 0 0 0
vn 0.0790673 0.9968243 0.009462953
vn 0 0 0
vn 0.07915188 0.9968166 0.009582262
vn 0 0 0
vn 0.07903603 0.9968253 0.009616068
vn 0 0 0
vn 0.07910213 0.9968192 0.009708442
vn 0 0 0
vn 0.07901423 0.9968259 0.009734355
vn 0 0 0
vn 0.0790632 0.9968213 0.00980378
vn 0 0 0
vn 0.07899833 0.9968264 0.009822489
vn 0 0 0
vn 0.07903147 0.9968233 0.009870289
vn 0 0 0
vn 0.07899068 0.9968264 0.009882149
vn 0 0 0
vn 0.07900806 0.9968247 0.009908314
vn 0 0 0
vn 0.07899098 0.9968261 0.009912982
vn 0 0 0
vn 0.07899188 0.996826 0.009915393
vn 0 0 0
vn 0.07900299 0.9968252 0.009912307
vn 0 0 0
vn 0.07898372 0.9968269 0.009886703
vn 0 0 0
vn 0.07902763 0.9968236 0.009873793
vn 0 0 0
vn 0.07898331 0.9968275 0.009813288
vn 0 0 0
vn 0.07907549 0.9968205 0.009787858
vn 0 0 0
vn 0.07899443 0.9968281 0.009676985
vn 0 0 0
vn 0.07915799 0.9968155 0.009632774
vn 0 0 0
vn 0.07901778 0.9968285 0.009440681
vn 0 0 0
vn 0.07931586 0.9968056 0.009365507
vn 0 0 0
vn 0.07906079 0.996829 0.009020196
vn 0 0 0
vn 0.07919542 0.9968191 0.008932682
vn 0 0 0
vn 0.07863522 0.9968666 0.008564427
vn 0 0 0

vt 0 0
vt 0 0
vt 0.04641113 1.992985
vt 0.04641113 1.992985
vt -1.042938 0.04345665
vt -1.042938 0.04345665
vt -0.9268494 2.03363
vt -0.9268494 2.03363
vt -2.063995 0.1148052
vt -2.063995 0.1148052
vt -1.906195 2.10213
vt -1.906195 2.10213
vt -3.081921 0.2025421
vt -3.081921 0.2025421
vt -2.899109 2.187739
vt -2.899109 2.187739
vt -4.093006 0.3002213
vt -4.093006 0.3002213
vt -3.893359 2.283808
vt -3.893359 2.283808
vt -5.091327 0.4039211
vt -5.091327 0.4039211
vt -4.879584 2.386264
vt -4.879584 2.386264
vt -6.110028 0.515268
vt -6.110028 0.515268
vt -5.888935 2.496596
vt -5.888935 2.496596
vt -7.109003 0.628637
vt -7.109003 0.628637
vt -6.880756 2.609161
vt -6.880756 2.609161
vt -8.104358 0.7448334
vt -8.104358 0.7448334
vt -7.870471 2.724705
vt -7.870471 2.724705
vt -9.116523 0.865625
vt -9.116523 0.865625
vt -8.878082 2.844957
vt -8.878082 2.844957
vt -10.10923 0.9861393
vt -10.10923 0.9861393
vt -9.867279 2.965049
vt -9.867279 2.965049
vt -11.10458 1.108564
vt -11.10458 1.108564
vt -10.85991 3.087141
vt -10.85991 3.087141
vt -12.09636 1.231738
vt -12.09636 1.231738
vt -11.84971 3.210073
vt -11.84971 3.210073
vt -13.10655 1.358043
vt -13.10655 1.358043
vt -12.85864 3.33622
vt -12.85864 3.33622
vt -14.09886 1.482563
vt -14.09886 1.482563
vt -13.85045 3.460679
vt -13.85045 3.460679
vt -15.09341 1.607415
vt -15.09341 1.607415
vt -14.84533 3.585572
vt -14.84533 3.585572
vt -16.10585 1.73408
vt -16.10585 1.73408
vt -15.85914 3.71241
vt -15.85914 3.71241
vt -17.09564 1.856892
vt -17.09564 1.856892
vt -16.85164 3.835556
vt -16.85164 3.835556
vt -18.09449 1.978959
vt -18.09449 1.978959
vt -17.85524 3.9582
vt -17.85524 3.9582
vt -19.09395 2.097871
vt -19.09395 2.097871
vt -18.86291 4.078081
vt -18.86291 4.078081
vt -20.08412 2.209999
vt -20.08412 2.209999
vt -19.86826 4.191913
vt -19.86826 4.191913

usemtl GSDRoad1
usemap GSDRoad1
f 5/5/5 1/1/1 3/3/3
f 7/7/7 5/5/5 3/3/3
f 9/9/9 5/5/5 7/7/7
f 11/11/11 9/9/9 7/7/7
f 13/13/13 9/9/9 11/11/11
f 15/15/15 13/13/13 11/11/11
f 17/17/17 13/13/13 15/15/15
f 19/19/19 17/17/17 15/15/15
f 21/21/21 17/17/17 19/19/19
f 23/23/23 21/21/21 19/19/19
f 25/25/25 21/21/21 23/23/23
f 27/27/27 25/25/25 23/23/23
f 29/29/29 25/25/25 27/27/27
f 31/31/31 29/29/29 27/27/27
f 33/33/33 29/29/29 31/31/31
f 35/35/35 33/33/33 31/31/31
f 37/37/37 33/33/33 35/35/35
f 39/39/39 37/37/37 35/35/35
f 41/41/41 37/37/37 39/39/39
f 43/43/43 41/41/41 39/39/39
f 45/45/45 41/41/41 43/43/43
f 47/47/47 45/45/45 43/43/43
f 49/49/49 45/45/45 47/47/47
f 51/51/51 49/49/49 47/47/47
f 53/53/53 49/49/49 51/51/51
f 55/55/55 53/53/53 51/51/51
f 57/57/57 53/53/53 55/55/55
f 59/59/59 57/57/57 55/55/55
f 61/61/61 57/57/57 59/59/59
f 63/63/63 61/61/61 59/59/59
f 65/65/65 61/61/61 63/63/63
f 67/67/67 65/65/65 63/63/63
f 69/69/69 65/65/65 67/67/67
f 71/71/71 69/69/69 67/67/67
f 73/73/73 69/69/69 71/71/71
f 75/75/75 73/73/73 71/71/71
f 77/77/77 73/73/73 75/75/75
f 79/79/79 77/77/77 75/75/75
f 81/81/81 77/77/77 79/79/79
f 83/83/83 81/81/81 79/79/79
