mtllib ./Road1_0_183.mtl
g SCutR44
v -869.1918 8.896405 692.3026
v -869.1918 8.896405 692.3026
v -866.4164 8.896405 693.7444
v -866.4164 8.896405 693.7444
v -866.4164 8.896405 693.7444
v -866.4164 8.896405 693.7444
v -864.6172 6.781246 694.6791
v -864.6172 6.781246 694.6791
v -866.908 9.316089 688.7358
v -866.908 9.316089 688.7358
v -864.3847 9.316089 690.5973
v -864.3847 9.316089 690.5973
v -864.3847 9.316089 690.5973
v -864.3847 9.316089 690.5973
v -862.7513 7.163259 691.8022
v -862.7513 7.163259 691.8022
v -863.967 9.723183 685.1211
v -863.967 9.723183 685.1211
v -861.6116 9.723183 687.2036
v -861.6116 9.723183 687.2036
v -861.6116 9.723183 687.2036
v -861.6116 9.723183 687.2036
v -860.0891 7.567724 688.5497
v -860.0891 7.567724 688.5497
v -860.7125 10.11512 681.6876
v -860.7125 10.11512 681.6876
v -858.4982 10.11512 683.9258
v -858.4982 10.11512 683.9258
v -858.4982 10.11512 683.9258
v -858.4982 10.11512 683.9258
v -857.0681 8.014894 685.3714
v -857.0681 8.014894 685.3714
v -857.2114 10.50301 678.4258
v -857.2114 10.50301 678.4258
v -855.1329 10.50301 680.7925
v -855.1329 10.50301 680.7925
v -855.1329 10.50301 680.7925
v -855.1329 10.50301 680.7925
v -853.7909 8.859076 682.3207
v -853.7909 8.859076 682.3207
v -853.5319 10.89018 675.382
v -853.5319 10.89018 675.382
v -851.5999 10.89018 677.8672
v -851.5999 10.89018 677.8672
v -851.5999 10.89018 677.8672
v -851.5999 10.89018 677.8672
v -850.3519 8.859076 679.4725
v -850.3519 8.859076 679.4725
v -849.7283 11.27985 672.6201
v -849.7283 11.27985 672.6201
v -847.9731 11.27985 675.2272
v -847.9731 11.27985 675.2272
v -847.9731 11.27985 675.2272
v -847.9731 11.27985 675.2272
v -846.8384 9.162742 676.9127
v -846.8384 9.162742 676.9127
v -845.8046 11.68279 670.2138
v -845.8046 11.68279 670.2138
v -844.3 11.68279 672.9628
v -844.3 11.68279 672.9628
v -844.3 11.68279 672.9628
v -844.3 11.68279 672.9628
v -843.3257 9.69592 674.7429
v -843.3257 9.69592 674.7429
v -841.9633 12.10203 668.4257
v -841.9633 12.10203 668.4257
v -840.892 12.10203 671.3547
v -840.892 12.10203 671.3547
v -840.892 12.10203 671.3547
v -840.892 12.10203 671.3547
v -840.1964 10.0217 673.2565
v -840.1964 10.0217 673.2565

vn -0.04564356 0.9950866 0.08785944
vn 0 0 0
vn -0.05533766 0.9945145 0.08876293
vn 0 0 0
vn 0.5672933 0.6847212 0.4575315
vn 0 0 0
vn 0.5665811 0.685157 0.4577616
vn 0 0 0
vn -0.05400632 0.9951776 0.08188351
vn 0 0 0
vn -0.05926587 0.9953747 0.07560931
vn 0 0 0
vn 0.5505271 0.6845524 0.4778156
vn 0 0 0
vn 0.5343778 0.684805 0.4954621
vn 0 0 0
vn -0.0558098 0.996188 0.06704263
vn 0 0 0
vn -0.05906772 0.9962054 0.06391793
vn 0 0 0
vn 0.5096294 0.6840274 0.5219046
vn 0 0 0
vn 0.4918077 0.6881158 0.5334997
vn 0 0 0
vn -0.0578208 0.9965335 0.05981383
vn 0 0 0
vn -0.06064802 0.9964914 0.05767757
vn 0 0 0
vn 0.467792 0.6906216 0.5515547
vn 0 0 0
vn 0.4151326 0.7200729 0.5560216
vn 0 0 0
vn -0.06043006 0.9966435 0.05522757
vn 0 0 0
vn -0.06341831 0.9965522 0.0534952
vn 0 0 0
vn 0.3751278 0.7461855 0.5499876
vn 0 0 0
vn 0.3752549 0.7518216 0.5421696
vn 0 0 0
vn -0.06410997 0.9965913 0.05191921
vn 0 0 0
vn -0.06779153 0.9964324 0.05026651
vn 0 0 0
vn 0.3908011 0.7296094 0.5611993
vn 0 0 0
vn 0.4010975 0.7023726 0.588042
vn 0 0 0
vn -0.06978247 0.9963432 0.04929997
vn 0 0 0
vn -0.07519016 0.9960459 0.04731738
vn 0 0 0
vn 0.3586033 0.6959862 0.6220989
vn 0 0 0
vn 0.333377 0.6986778 0.6330158
vn 0 0 0
vn -0.07999376 0.9956877 0.04697876
vn 0 0 0
vn -0.09024014 0.9949642 0.04362267
vn 0 0 0
vn 0.2822482 0.7041398 0.6515544
vn 0 0 0
vn 0.2549547 0.7074828 0.6591404
vn 0 0 0
vn -0.09487272 0.9945585 0.04304043
vn 0 0 0
vn -0.1042633 0.9938183 0.03813574
vn 0 0 0
vn 0.2368947 0.7036715 0.6698712
vn 0 0 0
vn 0.2469246 0.6975027 0.6726948
vn 0 0 0

vt 0 0
vt 0 0
vt -0.5550781 0.2883667
vt -0.5550781 0.2883667
vt -0.5550781 0.2883667
vt -0.5550781 0.2883667
vt -0.914917 0.475293
vt -0.914917 0.475293
vt -0.4567627 -0.7133667
vt -0.4567627 -0.7133667
vt -0.9614136 -0.3410645
vt -0.9614136 -0.3410645
vt -0.9614136 -0.3410645
vt -0.9614136 -0.3410645
vt -1.288086 -0.1000732
vt -1.288086 -0.1000732
vt -1.044958 -1.436304
vt -1.044958 -1.436304
vt -1.51604 -1.0198
vt -1.51604 -1.0198
vt -1.51604 -1.0198
vt -1.51604 -1.0198
vt -1.820532 -0.7505738
vt -1.820532 -0.7505738
vt -1.69585 -2.122998
vt -1.69585 -2.122998
vt -2.138709 -1.675354
vt -2.138709 -1.675354
vt -2.138709 -1.675354
vt -2.138709 -1.675354
vt -2.424744 -1.386243
vt -2.424744 -1.386243
vt -2.396082 -2.775354
vt -2.396082 -2.775354
vt -2.811768 -2.302027
vt -2.811768 -2.302027
vt -2.811768 -2.302027
vt -2.811768 -2.302027
vt -3.080176 -1.996387
vt -3.080176 -1.996387
vt -3.131983 -3.384119
vt -3.131983 -3.384119
vt -3.518384 -2.887073
vt -3.518384 -2.887073
vt -3.518384 -2.887073
vt -3.518384 -2.887073
vt -3.767981 -2.566016
vt -3.767981 -2.566016
vt -3.892688 -3.936499
vt -3.892688 -3.936499
vt -4.243726 -3.415088
vt -4.243726 -3.415088
vt -4.243726 -3.415088
vt -4.243726 -3.415088
vt -4.470666 -3.077979
vt -4.470666 -3.077979
vt -4.677442 -4.417761
vt -4.677442 -4.417761
vt -4.978357 -3.867969
vt -4.978357 -3.867969
vt -4.978357 -3.867969
vt -4.978357 -3.867969
vt -5.173218 -3.511939
vt -5.173218 -3.511939
vt -5.445691 -4.775391
vt -5.445691 -4.775391
vt -5.659961 -4.189575
vt -5.659961 -4.189575
vt -5.659961 -4.189575
vt -5.659961 -4.189575
vt -5.799072 -3.809229
vt -5.799072 -3.809229

usemtl GSDShoulder1
usemap GSDShoulder1
f 9/9/9 1/1/1 3/3/3
f 11/11/11 9/9/9 3/3/3
f 13/13/13 5/5/5 7/7/7
f 15/15/15 13/13/13 7/7/7
f 17/17/17 9/9/9 11/11/11
f 19/19/19 17/17/17 11/11/11
f 21/21/21 13/13/13 15/15/15
f 23/23/23 21/21/21 15/15/15
f 25/25/25 17/17/17 19/19/19
f 27/27/27 25/25/25 19/19/19
f 29/29/29 21/21/21 23/23/23
f 31/31/31 29/29/29 23/23/23
f 33/33/33 25/25/25 27/27/27
f 35/35/35 33/33/33 27/27/27
f 37/37/37 29/29/29 31/31/31
f 39/39/39 37/37/37 31/31/31
f 41/41/41 33/33/33 35/35/35
f 43/43/43 41/41/41 35/35/35
f 45/45/45 37/37/37 39/39/39
f 47/47/47 45/45/45 39/39/39
f 49/49/49 41/41/41 43/43/43
f 51/51/51 49/49/49 43/43/43
f 53/53/53 45/45/45 47/47/47
f 55/55/55 53/53/53 47/47/47
f 57/57/57 49/49/49 51/51/51
f 59/59/59 57/57/57 51/51/51
f 61/61/61 53/53/53 55/55/55
f 63/63/63 61/61/61 55/55/55
f 65/65/65 57/57/57 59/59/59
f 67/67/67 65/65/65 59/59/59
f 69/69/69 61/61/61 63/63/63
f 71/71/71 69/69/69 63/63/63
