mtllib ./Road1_0_59.mtl
g Markers29
v -32.90221 0.04 474.8035
v -32.90221 0.04 474.8035
v -42.87729 0.04 475.509
v -42.87729 0.04 475.509
v -32.54277 0.04 479.8153
v -32.54277 0.04 479.8153
v -42.51761 0.04 480.5243
v -42.51761 0.04 480.5243
v -32.18626 0.04 484.9225
v -32.18626 0.04 484.9225
v -42.16286 0.04 485.6062
v -42.16286 0.04 485.6062
v -31.84806 0.04 489.95
v -31.84806 0.04 489.95
v -41.82635 0.04 490.6087
v -41.82635 0.04 490.6087
v -31.51883 0.04 495.0367
v -31.51883 0.04 495.0367
v -41.49876 0.04 495.6698
v -41.49876 0.04 495.6698
v -31.20697 0.04 500.0515
v -31.20697 0.04 500.0515
v -41.18847 0.04 500.6596
v -41.18847 0.04 500.6596
v -30.90391 0.04 505.1311
v -30.90391 0.04 505.1311
v -40.8869 0.04 505.7141
v -40.8869 0.04 505.7141
v -30.61704 0.04 510.1489
v -30.61704 0.04 510.1489
v -40.60142 0.04 510.7075
v -40.60142 0.04 510.7075
v -30.33856 0.04 515.2373
v -30.33856 0.04 515.2373
v -40.32427 0.04 515.7717
v -40.32427 0.04 515.7717
v -30.0748 0.04 520.2758
v -30.0748 0.04 520.2758
v -40.06173 0.04 520.787
v -40.06173 0.04 520.787
v -29.81855 0.04 525.3961
v -29.81855 0.04 525.3961
v -39.8066 0.04 525.8848
v -39.8066 0.04 525.8848
v -29.57537 0.04 530.4783
v -29.57537 0.04 530.4783
v -39.56444 0.04 530.9457
v -39.56444 0.04 530.9457
v -29.344 0.04 535.5311
v -29.344 0.04 535.5311
v -39.33398 0.04 535.9788
v -39.33398 0.04 535.9788
v -29.12319 0.04 540.5629
v -29.12319 0.04 540.5629
v -39.11396 0.04 540.9923
v -39.11396 0.04 540.9923
v -28.91172 0.04 545.5806
v -28.91172 0.04 545.5806
v -38.90319 0.04 545.9935
v -38.90319 0.04 545.9935
v -28.70832 0.04 550.5928
v -28.70832 0.04 550.5928
v -38.70039 0.04 550.991
v -38.70039 0.04 550.991
v -28.51176 0.04 555.6078
v -28.51176 0.04 555.6078
v -38.50433 0.04 555.9932
v -38.50433 0.04 555.9932
v -28.32081 0.04 560.6328
v -28.32081 0.04 560.6328
v -38.3138 0.04 561.0071
v -38.3138 0.04 561.0071
v -28.1342 0.04 565.6762
v -28.1342 0.04 565.6762
v -38.12752 0.04 566.0416
v -38.12752 0.04 566.0416
v -27.9507 0.04 570.7464
v -27.9507 0.04 570.7464
v -37.94427 0.04 571.1047
v -37.94427 0.04 571.1047
v -27.76907 0.04 575.8503
v -27.76907 0.04 575.8503
v -37.76283 0.04 576.2036
v -37.76283 0.04 576.2036
v -27.59247 0.04 580.8712
v -27.59247 0.04 580.8712
v -37.58634 0.04 581.2213
v -37.58634 0.04 581.2213
v -27.41532 0.04 585.9396
v -27.41532 0.04 585.9396
v -37.40924 0.04 586.2884
v -37.40924 0.04 586.2884
v -27.23647 0.04 591.0632
v -27.23647 0.04 591.0632
v -37.23037 0.04 591.4125
v -37.23037 0.04 591.4125
v -27.05934 0.04 596.1188
v -27.05934 0.04 596.1188
v -37.05317 0.04 596.4702
v -37.05317 0.04 596.4702

vn 0 1 0
vn 0 0 0
vn 0 1 0
vn 0 0 0
vn 0 1 0
vn 0 0 0
vn 0 1 0
vn 0 0 0
vn 0 1 0
vn 0 0 0
vn 0 1 0
vn 0 0 0
vn -8.09772E-12 1 -1.226809E-10
vn 0 0 0
vn -1.584814E-11 1 -2.44851E-10
vn 0 0 0
vn -1.583694E-11 1 -2.446779E-10
vn 0 0 0
vn -7.812769E-12 1 -1.23142E-10
vn 0 0 0
vn 7.495582E-12 1 1.230232E-10
vn 0 0 0
vn 1.464344E-11 1 2.454315E-10
vn 0 0 0
vn 7.463216E-12 1 1.22492E-10
vn 0 0 0
vn -6.894616E-12 1 -1.232353E-10
vn 0 0 0
vn -7.180461E-12 0.9999999 -1.229528E-10
vn 0 0 0
vn 6.562175E-12 1 1.226143E-10
vn 0 0 0
vn 1.338245E-11 1 2.445054E-10
vn 0 0 0
vn 6.575211E-12 1 1.228578E-10
vn 0 0 0
vn 0 1 0
vn 0 0 0
vn 0 1 0
vn 0 0 0
vn -5.941535E-12 1 -1.214462E-10
vn 0 0 0
vn -1.167057E-11 1 -2.438609E-10
vn 0 0 0
vn -1.170586E-11 1 -2.445984E-10
vn 0 0 0
vn -5.741624E-12 1 -1.227056E-10
vn 0 0 0
vn 5.509647E-12 1 1.22961E-10
vn 0 0 0
vn 1.082387E-11 1 2.465799E-10
vn 0 0 0
vn 5.530102E-12 0.9999999 1.234174E-10
vn 0 0 0
vn -5.112293E-12 1 -1.236896E-10
vn 0 0 0
vn -5.317002E-12 1 -1.236973E-10
vn 0 0 0
vn 4.936833E-12 1 1.238824E-10
vn 0 0 0
vn 5.115484E-12 1 1.237668E-10
vn 0 0 0
vn -4.777055E-12 1 -1.238662E-10
vn 0 0 0
vn -1.585973E-13 1 6.23061E-15
vn 0 0 0
vn 1.403472E-11 1 3.709727E-10
vn 0 0 0
vn 9.511884E-12 1 2.466375E-10
vn 0 0 0
vn -9.012219E-12 1 -2.465046E-10
vn 0 0 0
vn -1.369046E-11 1 -3.683847E-10
vn 0 0 0
vn -8.68879E-14 1 3.089764E-15
vn 0 0 0
vn 1.321702E-11 1 3.662531E-10
vn 0 0 0
vn 1.304487E-11 1 3.655713E-10
vn 0 0 0
vn 4.380804E-12 1 1.221959E-10
vn 0 0 0
vn -4.305209E-12 1 -1.228962E-10
vn 0 0 0
vn -8.666985E-12 1 -2.462895E-10
vn 0 0 0
vn -4.300796E-12 1 -1.227703E-10
vn 0 0 0
vn -4.254582E-12 1 -1.219192E-10
vn 0 0 0
vn -8.484175E-12 0.9999999 -2.429521E-10
vn 0 0 0
vn -4.242294E-12 1 -1.215671E-10
vn 0 0 0
vn 4.291957E-12 1 1.220918E-10
vn 0 0 0
vn 1.28949E-11 1 3.679044E-10
vn 0 0 0
vn 1.293044E-11 1 3.678277E-10
vn 0 0 0

vt 0 481.3206
vt 0 0
vt 1 481.3206
vt 0 0
vt 0 482.3256
vt 0 482.3256
vt 1 482.3256
vt 1 482.3256
vt 0 483.3495
vt 0 483.3495
vt 1 483.3495
vt 1 483.3495
vt 0 484.3573
vt 0 484.3573
vt 1 484.3573
vt 1 484.3573
vt 0 485.3767
vt 0 485.3767
vt 1 485.3767
vt 1 485.3767
vt 0 486.3816
vt 0 486.3816
vt 1 486.3816
vt 1 486.3816
vt 0 487.3994
vt 0 487.3994
vt 1 487.3994
vt 1 487.3994
vt 0 488.4045
vt 0 488.4045
vt 1 488.4045
vt 1 488.4045
vt 0 489.4238
vt 0 489.4238
vt 1 489.4238
vt 1 489.4238
vt 0 490.4328
vt 0 490.4328
vt 1 490.4328
vt 1 490.4328
vt 0 491.4582
vt 0 491.4582
vt 1 491.4582
vt 1 491.4582
vt 0 492.4758
vt 0 492.4758
vt 1 492.4758
vt 1 492.4758
vt 0 493.4874
vt 0 493.4874
vt 1 493.4874
vt 1 493.4874
vt 0 494.4948
vt 0 494.4948
vt 1 494.4948
vt 1 494.4948
vt 0 495.4992
vt 0 495.4992
vt 1 495.4992
vt 1 495.4992
vt 0 496.5024
vt 0 496.5024
vt 1 496.5024
vt 1 496.5024
vt 0 497.5062
vt 0 497.5062
vt 1 497.5062
vt 1 497.5062
vt 0 498.5119
vt 0 498.5119
vt 1 498.5119
vt 1 498.5119
vt 0 499.5213
vt 0 499.5213
vt 1 499.5213
vt 1 499.5213
vt 0 500.536
vt 0 500.536
vt 1 500.536
vt 1 500.536
vt 0 501.5574
vt 0 501.5574
vt 1 501.5574
vt 1 501.5574
vt 0 502.5622
vt 0 502.5622
vt 1 502.5622
vt 1 502.5622
vt 0 503.5765
vt 0 503.5765
vt 1 503.5765
vt 1 503.5765
vt 0 504.6018
vt 0 504.6018
vt 1 504.6018
vt 1 504.6018
vt 0 505.6136
vt 0 505.6136
vt 1 505.6136
vt 1 505.6136

usemtl GSDWhiteYellowDouble
usemap GSDWhiteYellowDouble
f 5/5/5 1/1/1 3/3/3
f 7/7/7 5/5/5 3/3/3
f 9/9/9 5/5/5 7/7/7
f 11/11/11 9/9/9 7/7/7
f 13/13/13 9/9/9 11/11/11
f 15/15/15 13/13/13 11/11/11
f 17/17/17 13/13/13 15/15/15
f 19/19/19 17/17/17 15/15/15
f 21/21/21 17/17/17 19/19/19
f 23/23/23 21/21/21 19/19/19
f 25/25/25 21/21/21 23/23/23
f 27/27/27 25/25/25 23/23/23
f 29/29/29 25/25/25 27/27/27
f 31/31/31 29/29/29 27/27/27
f 33/33/33 29/29/29 31/31/31
f 35/35/35 33/33/33 31/31/31
f 37/37/37 33/33/33 35/35/35
f 39/39/39 37/37/37 35/35/35
f 41/41/41 37/37/37 39/39/39
f 43/43/43 41/41/41 39/39/39
f 45/45/45 41/41/41 43/43/43
f 47/47/47 45/45/45 43/43/43
f 49/49/49 45/45/45 47/47/47
f 51/51/51 49/49/49 47/47/47
f 53/53/53 49/49/49 51/51/51
f 55/55/55 53/53/53 51/51/51
f 57/57/57 53/53/53 55/55/55
f 59/59/59 57/57/57 55/55/55
f 61/61/61 57/57/57 59/59/59
f 63/63/63 61/61/61 59/59/59
f 65/65/65 61/61/61 63/63/63
f 67/67/67 65/65/65 63/63/63
f 69/69/69 65/65/65 67/67/67
f 71/71/71 69/69/69 67/67/67
f 73/73/73 69/69/69 71/71/71
f 75/75/75 73/73/73 71/71/71
f 77/77/77 73/73/73 75/75/75
f 79/79/79 77/77/77 75/75/75
f 81/81/81 77/77/77 79/79/79
f 83/83/83 81/81/81 79/79/79
f 85/85/85 81/81/81 83/83/83
f 87/87/87 85/85/85 83/83/83
f 89/89/89 85/85/85 87/87/87
f 91/91/91 89/89/89 87/87/87
f 93/93/93 89/89/89 91/91/91
f 95/95/95 93/93/93 91/91/91
f 97/97/97 93/93/93 95/95/95
f 99/99/99 97/97/97 95/95/95
