mtllib ./Road1_0_269.mtl
g SCutL60
v -367.3022 34.22895 736.7965
v -367.3022 34.22895 736.7965
v -367.0892 34.22895 739.7889
v -367.0892 34.22895 739.7889
v -367.4442 33.7958 734.8016
v -367.4442 33.7958 734.8016
v -367.3022 34.22895 736.7965
v -367.3022 34.22895 736.7965
v -362.3794 34.19398 736.428
v -362.3794 34.19398 736.428
v -362.1394 34.19398 739.4183
v -362.1394 34.19398 739.4183
v -362.5393 33.73274 734.4345
v -362.5393 33.73274 734.4345
v -362.3794 34.19398 736.428
v -362.3794 34.19398 736.428
v -357.3794 34.14127 735.996
v -357.3794 34.14127 735.996
v -357.1053 34.14127 738.9833
v -357.1053 34.14127 738.9833
v -357.5621 33.68198 734.0045
v -357.5621 33.68198 734.0045
v -357.3794 34.14127 735.996
v -357.3794 34.14127 735.996
v -352.4584 34.07825 735.4998
v -352.4584 34.07825 735.4998
v -352.1613 34.07825 738.5112
v -352.1613 34.07825 738.5112
v -352.6554 33.60607 733.5031
v -352.6554 33.60607 733.5031
v -352.4584 34.07825 735.4998
v -352.4584 34.07825 735.4998
v -347.4826 34.01092 734.997
v -347.4826 34.01092 734.997
v -347.1735 34.01092 738.0081
v -347.1735 34.01092 738.0081
v -347.6875 33.53486 733.0009
v -347.6875 33.53486 733.0009
v -347.4826 34.01092 734.997
v -347.4826 34.01092 734.997
v -342.4027 33.94456 734.4721
v -342.4027 33.94456 734.4721
v -342.0891 33.94456 737.4811
v -342.0891 33.94456 737.4811
v -342.6107 33.49322 732.4767
v -342.6107 33.49322 732.4767
v -342.4027 33.94456 734.4721
v -342.4027 33.94456 734.4721
v -337.416 33.88727 733.9785
v -337.416 33.88727 733.9785
v -337.1068 33.88727 736.9623
v -337.1068 33.88727 736.9623
v -337.6222 33.4501 731.9892
v -337.6222 33.4501 731.9892
v -337.416 33.88727 733.9785
v -337.416 33.88727 733.9785
v -332.3301 33.84259 733.4576
v -332.3301 33.84259 733.4576
v -332.0295 33.84259 736.4424
v -332.0295 33.84259 736.4424
v -332.5305 33.43781 731.4678
v -332.5305 33.43781 731.4678
v -332.3301 33.84259 733.4576
v -332.3301 33.84259 733.4576
v -327.2128 33.81864 732.9553
v -327.2128 33.81864 732.9553
v -326.9289 33.81864 735.9418
v -326.9289 33.81864 735.9418
v -327.4021 33.43781 730.9642
v -327.4021 33.43781 730.9642
v -327.2128 33.81864 732.9553
v -327.2128 33.81864 732.9553

vn 0.007064928 0.9999748 -0.0005027747
vn 0 0 0
vn 0.007043195 0.9999751 -0.0005332336
vn 0 0 0
vn -0.003296574 0.9772744 -0.2119529
vn 0 0 0
vn -0.006606358 0.9758531 -0.2183283
vn 0 0 0
vn 0.008195439 0.9999662 -0.0006364824
vn 0 0 0
vn 0.009303252 0.9999565 -0.00078673
vn 0 0 0
vn -0.007571967 0.9753644 -0.2204694
vn 0 0 0
vn -0.009478481 0.9744468 -0.2244183
vn 0 0 0
vn 0.01117257 0.9999371 -0.0009847913
vn 0 0 0
vn 0.01189382 0.9999287 -0.001120365
vn 0 0 0
vn -0.008793077 0.9744996 -0.2242163
vn 0 0 0
vn -0.009179429 0.9741548 -0.2256949
vn 0 0 0
vn 0.01290634 0.9999159 -0.001244512
vn 0 0 0
vn 0.01312876 0.9999129 -0.001313236
vn 0 0 0
vn -0.009230508 0.9737371 -0.2274883
vn 0 0 0
vn -0.01001174 0.9731884 -0.2297914
vn 0 0 0
vn 0.01322426 0.9999117 -0.001339836
vn 0 0 0
vn 0.01306265 0.9999138 -0.00134775
vn 0 0 0
vn -0.01176705 0.9730667 -0.2302232
vn 0 0 0
vn -0.01199289 0.9738232 -0.2269903
vn 0 0 0
vn 0.01240874 0.9999222 -0.001286594
vn 0 0 0
vn 0.01189416 0.9999285 -0.001237554
vn 0 0 0
vn -0.0129214 0.9746986 -0.2231494
vn 0 0 0
vn -0.01095396 0.975988 -0.2175484
vn 0 0 0
vn 0.01047016 0.9999446 -0.001087302
vn 0 0 0
vn 0.009580849 0.9999537 -0.0009843012
vn 0 0 0
vn -0.01415229 0.9764658 -0.2152077
vn 0 0 0
vn -0.0137087 0.9779985 -0.2081614
vn 0 0 0
vn 0.00733971 0.9999728 -0.0007476135
vn 0 0 0
vn 0.005994175 0.9999819 -0.0005949248
vn 0 0 0
vn -0.01684246 0.9790804 -0.2027758
vn 0 0 0
vn -0.01494057 0.9808731 -0.194074
vn 0 0 0
vn 0.004644406 0.9999892 -0.0004546423
vn 0 0 0
vn 0.004653269 0.9999892 -0.0004423987
vn 0 0 0
vn -0.01655855 0.9812506 -0.1920232
vn 0 0 0
vn -0.01371926 0.9823423 -0.1865888
vn 0 0 0

vt 0 0
vt 0 0
vt -0.04259033 0.5984741
vt -0.04259033 0.5984741
vt 0.02839966 -0.3989868
vt 0.02839966 -0.3989868
vt 0 0
vt 0 0
vt -0.9845642 -0.07369385
vt -0.9845642 -0.07369385
vt -1.032562 0.5243652
vt -1.032562 0.5243652
vt -0.9525696 -0.4723999
vt -0.9525696 -0.4723999
vt -0.9845642 -0.07369385
vt -0.9845642 -0.07369385
vt -1.984558 -0.1600952
vt -1.984558 -0.1600952
vt -2.039368 0.4373535
vt -2.039368 0.4373535
vt -1.948022 -0.5583984
vt -1.948022 -0.5583984
vt -1.984558 -0.1600952
vt -1.984558 -0.1600952
vt -2.968756 -0.2593384
vt -2.968756 -0.2593384
vt -3.028186 0.3429444
vt -3.028186 0.3429444
vt -2.929358 -0.6586792
vt -2.929358 -0.6586792
vt -2.968756 -0.2593384
vt -2.968756 -0.2593384
vt -3.963922 -0.3598999
vt -3.963922 -0.3598999
vt -4.025739 0.2423218
vt -4.025739 0.2423218
vt -3.922937 -0.7591309
vt -3.922937 -0.7591309
vt -3.963922 -0.3598999
vt -3.963922 -0.3598999
vt -4.979895 -0.4648804
vt -4.979895 -0.4648804
vt -5.042627 0.1369141
vt -5.042627 0.1369141
vt -4.938293 -0.8639649
vt -4.938293 -0.8639649
vt -4.979895 -0.4648804
vt -4.979895 -0.4648804
vt -5.977228 -0.5636109
vt -5.977228 -0.5636109
vt -6.039069 0.03316651
vt -6.039069 0.03316651
vt -5.936005 -0.9614624
vt -5.936005 -0.9614624
vt -5.977228 -0.5636109
vt -5.977228 -0.5636109
vt -6.994415 -0.6677734
vt -6.994415 -0.6677734
vt -7.054535 -0.07081299
vt -7.054535 -0.07081299
vt -6.95434 -1.065747
vt -6.95434 -1.065747
vt -6.994415 -0.6677734
vt -6.994415 -0.6677734
vt -8.017871 -0.7682495
vt -8.017871 -0.7682495
vt -8.074658 -0.1709473
vt -8.074658 -0.1709473
vt -7.980011 -1.166455
vt -7.980011 -1.166455
vt -8.017871 -0.7682495
vt -8.017871 -0.7682495

usemtl GSDShoulder1
usemap GSDShoulder1
f 9/9/9 1/1/1 3/3/3
f 11/11/11 9/9/9 3/3/3
f 13/13/13 5/5/5 7/7/7
f 15/15/15 13/13/13 7/7/7
f 17/17/17 9/9/9 11/11/11
f 19/19/19 17/17/17 11/11/11
f 21/21/21 13/13/13 15/15/15
f 23/23/23 21/21/21 15/15/15
f 25/25/25 17/17/17 19/19/19
f 27/27/27 25/25/25 19/19/19
f 29/29/29 21/21/21 23/23/23
f 31/31/31 29/29/29 23/23/23
f 33/33/33 25/25/25 27/27/27
f 35/35/35 33/33/33 27/27/27
f 37/37/37 29/29/29 31/31/31
f 39/39/39 37/37/37 31/31/31
f 41/41/41 33/33/33 35/35/35
f 43/43/43 41/41/41 35/35/35
f 45/45/45 37/37/37 39/39/39
f 47/47/47 45/45/45 39/39/39
f 49/49/49 41/41/41 43/43/43
f 51/51/51 49/49/49 43/43/43
f 53/53/53 45/45/45 47/47/47
f 55/55/55 53/53/53 47/47/47
f 57/57/57 49/49/49 51/51/51
f 59/59/59 57/57/57 51/51/51
f 61/61/61 53/53/53 55/55/55
f 63/63/63 61/61/61 55/55/55
f 65/65/65 57/57/57 59/59/59
f 67/67/67 65/65/65 59/59/59
f 69/69/69 61/61/61 63/63/63
f 71/71/71 69/69/69 63/63/63
