mtllib ./Road1_0_65.mtl
g Markers32
v -29.98234 0.02222485 804.6013
v -29.98234 0.02222485 804.6013
v -39.77571 0.02222485 802.5792
v -39.77571 0.02222485 802.5792
v -31.12049 0.04583006 809.6649
v -31.12049 0.04583006 809.6649
v -40.86498 0.04583006 807.4197
v -40.86498 0.04583006 807.4197
v -32.13758 0.08687543 814.4731
v -32.13758 0.08687543 814.4731
v -41.95156 0.08687543 812.556
v -41.95156 0.08687543 812.556
v -33.05113 0.1494528 819.3703
v -33.05113 0.1494528 819.3703
v -42.88733 0.1494528 817.5737
v -42.88733 0.1494528 817.5737
v -34.03275 0.2345802 824.4592
v -34.03275 0.2345802 824.4592
v -43.81276 0.2345802 822.382
v -43.81276 0.2345802 822.382
v -35.43891 0.3409744 829.8547
v -35.43891 0.3409744 829.8547
v -44.9409 0.3409744 826.7467
v -44.9409 0.3409744 826.7467
v -37.98651 0.459294 835.5051
v -37.98651 0.459294 835.5051
v -46.50919 0.459294 830.2791
v -46.50919 0.459294 830.2791
v -42.32204 0.5641667 840.5365
v -42.32204 0.5641667 840.5365
v -48.7382 0.5641667 832.8682
v -48.7382 0.5641667 832.8682
v -47.67649 0.6301144 843.8912
v -47.67649 0.6301144 843.8912
v -51.91231 0.6301144 834.8331
v -51.91231 0.6301144 834.8331
v -53.25053 0.658136 845.9352
v -53.25053 0.658136 845.9352
v -55.99555 0.658136 836.3194
v -55.99555 0.658136 836.3194

vn 0.0009198281 0.9999897 -0.004454891
vn 0 0 0
vn 0.0009923592 0.9999892 -0.004543486
vn 0 0 0
vn 0.001280413 0.9999829 -0.005716492
vn 0 0 0
vn 0.001480014 0.9999756 -0.006828692
vn 0 0 0
vn 0.001920235 0.9999545 -0.009355881
vn 0 0 0
vn 0.002028615 0.9999413 -0.01064553
vn 0 0 0
vn 0.002523787 0.9999052 -0.01353779
vn 0 0 0
vn 0.002912664 0.9998825 -0.01505326
vn 0 0 0
vn 0.003519833 0.9998438 -0.01732111
vn 0 0 0
vn 0.004868275 0.9998024 -0.01927239
vn 0 0 0
vn 0.005664629 0.9997925 -0.01956601
vn 0 0 0
vn 0.009085489 0.9997234 -0.02169082
vn 0 0 0
vn 0.009270692 0.9997898 -0.01828879
vn 0 0 0
vn 0.01432296 0.9997222 -0.01871656
vn 0 0 0
vn 0.01147958 0.9998586 -0.01229415
vn 0 0 0
vn 0.01429913 0.9998446 -0.01031126
vn 0 0 0
vn 0.008543868 0.9999501 -0.005170595
vn 0 0 0
vn 0.008029073 0.999962 -0.003402945
vn 0 0 0
vn 0.005105413 0.9999852 -0.001908544
vn 0 0 0
vn 0.006216471 0.9999792 -0.001774605
vn 0 0 0

vt 0 547.3849
vt 0 0
vt 1 547.3849
vt 0 0
vt 0 548.423
vt 0 548.423
vt 1 548.423
vt 1 548.423
vt 0 549.4059
vt 0 549.4059
vt 1 549.4059
vt 1 549.4059
vt 0 550.4023
vt 0 550.4023
vt 1 550.4023
vt 1 550.4023
vt 0 551.439
vt 0 551.439
vt 1 551.439
vt 1 551.439
vt 0 552.5544
vt 0 552.5544
vt 1 552.5544
vt 1 552.5544
vt 0 553.7943
vt 0 553.7943
vt 1 553.7943
vt 1 553.7943
vt 0 555.1227
vt 0 555.1227
vt 1 555.1227
vt 1 555.1227
vt 0 556.3865
vt 0 556.3865
vt 1 556.3865
vt 1 556.3865
vt 0 557.574
vt 0 0
vt 1 557.574
vt 0 0

usemtl GSDWhiteYellowDouble
usemap GSDWhiteYellowDouble
f 5/5/5 1/1/1 3/3/3
f 7/7/7 5/5/5 3/3/3
f 9/9/9 5/5/5 7/7/7
f 11/11/11 9/9/9 7/7/7
f 13/13/13 9/9/9 11/11/11
f 15/15/15 13/13/13 11/11/11
f 17/17/17 13/13/13 15/15/15
f 19/19/19 17/17/17 15/15/15
f 21/21/21 17/17/17 19/19/19
f 23/23/23 21/21/21 19/19/19
f 25/25/25 21/21/21 23/23/23
f 27/27/27 25/25/25 23/23/23
f 29/29/29 25/25/25 27/27/27
f 31/31/31 29/29/29 27/27/27
f 33/33/33 29/29/29 31/31/31
f 35/35/35 33/33/33 31/31/31
f 37/37/37 33/33/33 35/35/35
f 39/39/39 37/37/37 35/35/35
