mtllib ./Road1_0_154.mtl
g SCutR15
v -657.115 35.02357 55.42037
v -657.115 35.02357 55.42037
v -656.7404 35.02357 58.72287
v -656.7404 35.02357 58.72287
v -656.7404 35.02357 58.72287
v -656.7404 35.02357 58.72287
v -656.5062 33.62099 60.78662
v -656.5062 33.62099 60.78662
v -652.0665 34.61907 54.79576
v -652.0665 34.61907 54.79576
v -651.6766 34.61907 58.04652
v -651.6766 34.61907 58.04652
v -651.6766 34.61907 58.04652
v -651.6766 34.61907 58.04652
v -651.4308 33.19229 60.09635
v -651.4308 33.19229 60.09635
v -647.1298 34.21354 54.2464
v -647.1298 34.21354 54.2464
v -646.8061 34.21354 57.44926
v -646.8061 34.21354 57.44926
v -646.8061 34.21354 57.44926
v -646.8061 34.21354 57.44926
v -646.5999 33.19229 59.48966
v -646.5999 33.19229 59.48966
v -642.2249 33.80548 53.82444
v -642.2249 33.80548 53.82444
v -642.0132 33.80548 56.9768
v -642.0132 33.80548 56.9768
v -642.0132 33.80548 56.9768
v -642.0132 33.80548 56.9768
v -641.8767 32.64661 59.0081
v -641.8767 32.64661 59.0081
v -637.5224 33.39869 53.65734
v -637.5224 33.39869 53.65734
v -637.5487 33.39869 56.75323
v -637.5487 33.39869 56.75323
v -637.5487 33.39869 56.75323
v -637.5487 33.39869 56.75323
v -637.5659 32.64661 58.77319
v -637.5659 32.64661 58.77319
v -633.1506 33.00228 54.00707
v -633.1506 33.00228 54.00707
v -633.5621 33.00228 57.03207
v -633.5621 33.00228 57.03207
v -633.5621 33.00228 57.03207
v -633.5621 33.00228 57.03207
v -633.833 32.10212 59.02316
v -633.833 32.10212 59.02316
v -627.3798 32.60205 54.39997
v -627.3798 32.60205 54.39997
v -627.349 32.60205 57.49351
v -627.349 32.60205 57.49351
v -627.349 32.60205 57.49351
v -627.349 32.60205 57.49351
v -627.329 31.72593 59.51287
v -627.329 31.72593 59.51287

vn 0.07876708 0.996853 -0.0089353
vn 0 0 0
vn 0.07857379 0.9968661 -0.009166698
vn 0 0 0
vn 0.1389124 0.826305 0.5458235
vn 0 0 0
vn 0.141744 0.8232481 0.5497009
vn 0 0 0
vn 0.0792978 0.9968072 -0.00933743
vn 0 0 0
vn 0.08034495 0.9967253 -0.009135353
vn 0 0 0
vn 0.1400042 0.8224209 0.5513824
vn 0 0 0
vn 0.1148163 0.8455908 0.5213383
vn 0 0 0
vn 0.08164339 0.996623 -0.008768504
vn 0 0 0
vn 0.08279245 0.996539 -0.007439379
vn 0 0 0
vn 0.1049803 0.8701537 0.4814683
vn 0 0 0
vn 0.1079122 0.8845557 0.4537798
vn 0 0 0
vn 0.08410846 0.9964347 -0.006610455
vn 0 0 0
vn 0.08690033 0.9962103 -0.003673609
vn 0 0 0
vn 0.1242443 0.8748117 0.4682604
vn 0 0 0
vn 0.09491038 0.8900253 0.4459225
vn 0 0 0
vn 0.08891845 0.9960377 -0.001533511
vn 0 0 0
vn 0.0928279 0.9956713 0.004640491
vn 0 0 0
vn 0.0654607 0.9135232 0.401485
vn 0 0 0
vn 0.06209245 0.926022 0.3723274
vn 0 0 0
vn 0.08363063 0.9964665 0.007777573
vn 0 0 0
vn 0.07424326 0.9972195 0.006421137
vn 0 0 0
vn 0.05975711 0.9152314 0.3984727
vn 0 0 0
vn 0.0432246 0.9111149 0.4098797
vn 0 0 0
vn 0.0663526 0.9977877 0.004128911
vn 0 0 0
vn 0.06433149 0.9979284 -0.0006397031
vn 0 0 0
vn 0.02539116 0.9134467 0.4061655
vn 0 0 0
vn 0.02310671 0.9172182 0.3977146
vn 0 0 0

vt 0 0
vt 0 0
vt -0.07492676 0.6604996
vt -0.07492676 0.6604996
vt -0.07492676 0.6604996
vt -0.07492676 0.6604996
vt -0.1217529 1.073249
vt -0.1217529 1.073249
vt -1.009692 -0.1249222
vt -1.009692 -0.1249222
vt -1.087671 0.5252296
vt -1.087671 0.5252296
vt -1.087671 0.5252296
vt -1.087671 0.5252296
vt -1.136841 0.9351959
vt -1.136841 0.9351959
vt -1.997046 -0.2347939
vt -1.997046 -0.2347939
vt -2.06178 0.405777
vt -2.06178 0.405777
vt -2.06178 0.405777
vt -2.06178 0.405777
vt -2.103015 0.813858
vt -2.103015 0.813858
vt -2.978015 -0.3191872
vt -2.978015 -0.3191872
vt -3.020361 0.3112862
vt -3.020361 0.3112862
vt -3.020361 0.3112862
vt -3.020361 0.3112862
vt -3.047656 0.7175453
vt -3.047656 0.7175453
vt -3.918518 -0.3526062
vt -3.918518 -0.3526062
vt -3.913257 0.266571
vt -3.913257 0.266571
vt -3.913257 0.266571
vt -3.913257 0.266571
vt -3.909827 0.6705643
vt -3.909827 0.6705643
vt -4.792871 -0.2826599
vt -4.792871 -0.2826599
vt -4.710571 0.3223404
vt -4.710571 0.3223404
vt -4.710571 0.3223404
vt -4.710571 0.3223404
vt -4.656396 0.7205567
vt -4.656396 0.7205567
vt -5.947046 -0.204081
vt -5.947046 -0.204081
vt -5.953198 0.4146271
vt -5.953198 0.4146271
vt -5.953198 0.4146271
vt -5.953198 0.4146271
vt -5.957202 0.8184997
vt -5.957202 0.8184997

usemtl GSDShoulder1
usemap GSDShoulder1
f 9/9/9 1/1/1 3/3/3
f 11/11/11 9/9/9 3/3/3
f 13/13/13 5/5/5 7/7/7
f 15/15/15 13/13/13 7/7/7
f 17/17/17 9/9/9 11/11/11
f 19/19/19 17/17/17 11/11/11
f 21/21/21 13/13/13 15/15/15
f 23/23/23 21/21/21 15/15/15
f 25/25/25 17/17/17 19/19/19
f 27/27/27 25/25/25 19/19/19
f 29/29/29 21/21/21 23/23/23
f 31/31/31 29/29/29 23/23/23
f 33/33/33 25/25/25 27/27/27
f 35/35/35 33/33/33 27/27/27
f 37/37/37 29/29/29 31/31/31
f 39/39/39 37/37/37 31/31/31
f 41/41/41 33/33/33 35/35/35
f 43/43/43 41/41/41 35/35/35
f 45/45/45 37/37/37 39/39/39
f 47/47/47 45/45/45 39/39/39
f 49/49/49 41/41/41 43/43/43
f 51/51/51 49/49/49 43/43/43
f 53/53/53 45/45/45 47/47/47
f 55/55/55 53/53/53 47/47/47
