mtllib ./Road1_0_211.mtl
g SCutL2
v -186.5687 53.97545 505.2605
v -186.5687 53.97545 505.2605
v -187.1047 53.97545 502.2533
v -187.1047 53.97545 502.2533
v -186.2154 53.62629 507.2429
v -186.2154 53.62629 507.2429
v -186.5687 53.97545 505.2605
v -186.5687 53.97545 505.2605
v -190.7967 54.09477 506.3115
v -190.7967 54.09477 506.3115
v -191.6306 54.09477 503.2453
v -191.6306 54.09477 503.2453
v -190.2603 53.62629 508.2835
v -190.2603 53.62629 508.2835
v -190.7967 54.09477 506.3115
v -190.7967 54.09477 506.3115
v -194.924 54.31219 507.7371
v -194.924 54.31219 507.7371
v -196.042 54.31219 504.6511
v -196.042 54.31219 504.6511
v -194.2192 53.62918 509.6823
v -194.2192 53.62918 509.6823
v -194.924 54.31219 507.7371
v -194.924 54.31219 507.7371
v -199.1235 54.59697 509.4984
v -199.1235 54.59697 509.4984
v -200.4557 54.59697 506.4036
v -200.4557 54.59697 506.4036
v -198.2971 53.91024 511.4181
v -198.2971 53.91024 511.4181
v -199.1235 54.59697 509.4984
v -199.1235 54.59697 509.4984
v -203.3471 54.93003 511.5117
v -203.3471 54.93003 511.5117
v -204.8469 54.93003 508.4128
v -204.8469 54.93003 508.4128
v -202.429 54.06459 513.4088
v -202.429 54.06459 513.4088
v -203.3471 54.93003 511.5117
v -203.3471 54.93003 511.5117
v -207.6053 55.30201 513.7361
v -207.6053 55.30201 513.7361
v -209.2407 55.30201 510.6355
v -209.2407 55.30201 510.6355
v -206.615 54.44339 515.6136
v -206.615 54.44339 515.6136
v -207.6053 55.30201 513.7361
v -207.6053 55.30201 513.7361
v -211.8382 55.70023 516.1048
v -211.8382 55.70023 516.1048
v -213.5841 55.70023 513.0039
v -213.5841 55.70023 513.0039
v -210.7905 54.6753 517.9658
v -210.7905 54.6753 517.9658
v -211.8382 55.70023 516.1048
v -211.8382 55.70023 516.1048
v -216.0003 56.11402 518.5605
v -216.0003 56.11402 518.5605
v -217.8365 56.11402 515.4604
v -217.8365 56.11402 515.4604
v -214.9065 55.07747 520.4073
v -214.9065 55.07747 520.4073
v -216.0003 56.11402 518.5605
v -216.0003 56.11402 518.5605
v -220.1638 56.54585 521.1223
v -220.1638 56.54585 521.1223
v -222.0758 56.54585 518.0239
v -222.0758 56.54585 518.0239
v -219.0318 55.48683 522.9567
v -219.0318 55.48683 522.9567
v -220.1638 56.54585 521.1223
v -220.1638 56.54585 521.1223
v -224.3046 56.98971 523.7579
v -224.3046 56.98971 523.7579
v -226.2798 56.98971 520.6622
v -226.2798 56.98971 520.6622
v -223.1411 55.90105 525.5815
v -223.1411 55.90105 525.5815
v -224.3046 56.98971 523.7579
v -224.3046 56.98971 523.7579
v -228.4027 57.44039 526.4393
v -228.4027 57.44039 526.4393
v -230.4303 57.44039 523.3472
v -230.4303 57.44039 523.3472
v -227.2132 56.31843 528.2534
v -227.2132 56.31843 528.2534
v -228.4027 57.44039 526.4393
v -228.4027 57.44039 526.4393
v -232.5556 57.90615 529.2188
v -232.5556 57.90615 529.2188
v -234.6272 57.90615 526.1312
v -234.6272 57.90615 526.1312
v -231.3442 56.89807 531.0242
v -231.3442 56.89807 531.0242
v -232.5556 57.90615 529.2188
v -232.5556 57.90615 529.2188
v -236.6344 58.37035 531.9994
v -236.6344 58.37035 531.9994
v -238.741 58.37035 528.9175
v -238.741 58.37035 528.9175
v -235.4054 57.42141 533.7974
v -235.4054 57.42141 533.7974
v -236.6344 58.37035 531.9994
v -236.6344 58.37035 531.9994
v -240.7426 58.84267 534.8422
v -240.7426 58.84267 534.8422
v -242.8772 58.84267 531.7669
v -242.8772 58.84267 531.7669
v -239.4994 57.42141 536.6334
v -239.4994 57.42141 536.6334
v -240.7426 58.84267 534.8422
v -240.7426 58.84267 534.8422
v -244.8701 59.32012 537.7321
v -244.8701 59.32012 537.7321
v -247.0256 59.32012 534.6647
v -247.0256 59.32012 534.6647
v -243.6157 57.94874 539.5172
v -243.6157 57.94874 539.5172
v -244.8701 59.32012 537.7321
v -244.8701 59.32012 537.7321
v -249.0054 59.79954 540.6535
v -249.0054 59.79954 540.6535
v -251.1751 59.79954 537.5952
v -251.1751 59.79954 537.5952
v -247.7429 58.37016 542.4331
v -247.7429 58.37016 542.4331
v -249.0054 59.79954 540.6535
v -249.0054 59.79954 540.6535
v -253.1386 60.27793 543.5919
v -253.1386 60.27793 543.5919
v -255.3159 60.27793 540.5438
v -255.3159 60.27793 540.5438
v -251.8709 59.05258 545.3666
v -251.8709 59.05258 545.3666
v -253.1386 60.27793 543.5919
v -253.1386 60.27793 543.5919
v -257.2596 60.75225 546.5322
v -257.2596 60.75225 546.5322
v -259.438 60.75225 543.4957
v -259.438 60.75225 543.4957
v -255.9895 59.57632 548.3027
v -255.9895 59.57632 548.3027
v -257.2596 60.75225 546.5322
v -257.2596 60.75225 546.5322
v -261.3583 61.21944 549.4595
v -261.3583 61.21944 549.4595
v -263.5313 61.21944 546.4357
v -263.5313 61.21944 546.4357
v -260.0887 60.13791 551.2263
v -260.0887 60.13791 551.2263
v -261.3583 61.21944 549.4595
v -261.3583 61.21944 549.4595
v -265.425 61.67646 552.3593
v -265.425 61.67646 552.3593
v -267.5859 61.67646 549.3492
v -267.5859 61.67646 549.3492
v -264.1588 60.64863 554.1231
v -264.1588 60.64863 554.1231
v -265.425 61.67646 552.3593
v -265.425 61.67646 552.3593
v -269.5645 62.13275 555.2979
v -269.5645 62.13275 555.2979
v -271.7061 62.13275 552.303
v -271.7061 62.13275 552.303
v -268.3048 61.14981 557.0593
v -268.3048 61.14981 557.0593
v -269.5645 62.13275 555.2979
v -269.5645 62.13275 555.2979
v -273.7616 62.58359 558.2542
v -273.7616 62.58359 558.2542
v -275.8759 62.58359 555.2762
v -275.8759 62.58359 555.2762
v -272.5121 61.67965 560.014
v -272.5121 61.67965 560.014
v -273.7616 62.58359 558.2542
v -273.7616 62.58359 558.2542
v -277.8904 63.01254 561.1293
v -277.8904 63.01254 561.1293
v -279.9694 63.01254 558.1691
v -279.9694 63.01254 558.1691
v -276.6548 62.15364 562.8886
v -276.6548 62.15364 562.8886
v -277.8904 63.01254 561.1293
v -277.8904 63.01254 561.1293
v -282.1567 63.437 564.0531
v -282.1567 63.437 564.0531
v -284.1895 63.437 561.1125
v -284.1895 63.437 561.1125
v -280.9401 62.15364 565.8131
v -280.9401 62.15364 565.8131
v -282.1567 63.437 564.0531
v -282.1567 63.437 564.0531
v -286.4291 63.83851 566.9179
v -286.4291 63.83851 566.9179
v -288.4041 63.83851 563.998
v -288.4041 63.83851 563.998
v -285.2372 62.95494 568.6802
v -285.2372 62.95494 568.6802
v -286.4291 63.83851 566.9179
v -286.4291 63.83851 566.9179
v -290.7906 64.2183 569.7577
v -290.7906 64.2183 569.7577
v -292.6924 64.2183 566.8599
v -292.6924 64.2183 566.8599
v -289.631 63.40591 571.5245
v -289.631 63.40591 571.5245
v -290.7906 64.2183 569.7577
v -290.7906 64.2183 569.7577
v -295.2094 64.56459 572.5219
v -295.2094 64.56459 572.5219
v -297.0191 64.56459 569.6469
v -297.0191 64.56459 569.6469
v -294.0926 63.78725 574.2963
v -294.0926 63.78725 574.2963
v -295.2094 64.56459 572.5219
v -295.2094 64.56459 572.5219
v -299.748 64.86942 575.2065
v -299.748 64.86942 575.2065
v -301.4384 64.86942 572.3548
v -301.4384 64.86942 572.3548
v -298.689 64.1301 576.993
v -298.689 64.1301 576.993
v -299.748 64.86942 575.2065
v -299.748 64.86942 575.2065
v -304.4538 65.1158 577.7706
v -304.4538 65.1158 577.7706
v -305.984 65.1158 574.942
v -305.984 65.1158 574.942
v -303.477 64.15873 579.5762
v -303.477 64.15873 579.5762
v -304.4538 65.1158 577.7706
v -304.4538 65.1158 577.7706

vn 0.02701442 0.9996234 -0.004814927
vn 0 0 0
vn 0.02588876 0.9996478 -0.005839716
vn 0 0 0
vn 0.04268673 0.9852144 0.1659229
vn 0 0 0
vn 0.06185212 0.9800785 0.188734
vn 0 0 0
vn 0.03324488 0.9994133 -0.008238523
vn 0 0 0
vn 0.03891823 0.9991707 -0.01196969
vn 0 0 0
vn 0.06632113 0.9783255 0.1961652
vn 0 0 0
vn 0.1016379 0.9667062 0.2348379
vn 0 0 0
vn 0.05034988 0.998589 -0.01687386
vn 0 0 0
vn 0.05264158 0.9984056 -0.02037269
vn 0 0 0
vn 0.1356804 0.9575343 0.254399
vn 0 0 0
vn 0.1671716 0.9481246 0.2703949
vn 0 0 0
vn 0.05966815 0.9979199 -0.02440437
vn 0 0 0
vn 0.06073502 0.997781 -0.02728396
vn 0 0 0
vn 0.1729116 0.9481468 0.2666817
vn 0 0 0
vn 0.1881946 0.9405189 0.282855
vn 0 0 0
vn 0.06557814 0.9973777 -0.03061377
vn 0 0 0
vn 0.06603924 0.9972728 -0.03295341
vn 0 0 0
vn 0.2111577 0.9316342 0.2957537
vn 0 0 0
vn 0.2339813 0.9232309 0.3047906
vn 0 0 0
vn 0.06950371 0.9969435 -0.03567574
vn 0 0 0
vn 0.06964011 0.9968643 -0.03757555
vn 0 0 0
vn 0.2342664 0.9240299 0.3021391
vn 0 0 0
vn 0.2456015 0.9166996 0.3151853
vn 0 0 0
vn 0.07220464 0.9965951 -0.03980741
vn 0 0 0
vn 0.07215689 0.9965363 -0.04133891
vn 0 0 0
vn 0.2620719 0.9079515 0.3270204
vn 0 0 0
vn 0.2824389 0.8984545 0.3361662
vn 0 0 0
vn 0.074102 0.9963155 -0.04317769
vn 0 0 0
vn 0.073953 0.9962719 -0.04442181
vn 0 0 0
vn 0.288459 0.8978238 0.3327219
vn 0 0 0
vn 0.2924228 0.8966514 0.3324234
vn 0 0 0
vn 0.07541871 0.996094 -0.04592225
vn 0 0 0
vn 0.0752109 0.9960622 -0.04694139
vn 0 0 0
vn 0.2973257 0.8955059 0.3311593
vn 0 0 0
vn 0.3024904 0.8931993 0.3327079
vn 0 0 0
vn 0.07632725 0.9959186 -0.0481691
vn 0 0 0
vn 0.07608684 0.9958966 -0.04899683
vn 0 0 0
vn 0.306648 0.8916941 0.332939
vn 0 0 0
vn 0.3125069 0.888653 0.3356115
vn 0 0 0
vn 0.07693196 0.995782 -0.04999724
vn 0 0 0
vn 0.076672 0.9957681 -0.05066806
vn 0 0 0
vn 0.3233447 0.8862683 0.3316273
vn 0 0 0
vn 0.3210039 0.8910146 0.321013
vn 0 0 0
vn 0.07727262 0.9956815 -0.05145193
vn 0 0 0
vn 0.07700143 0.9956747 -0.05198556
vn 0 0 0
vn 0.3200174 0.8967326 0.3057116
vn 0 0 0
vn 0.3047099 0.9067751 0.2913947
vn 0 0 0
vn 0.07741552 0.9956108 -0.05259298
vn 0 0 0
vn 0.07713803 0.9956108 -0.05299984
vn 0 0 0
vn 0.2797043 0.9118142 0.3005996
vn 0 0 0
vn 0.3027391 0.8900959 0.3407026
vn 0 0 0
vn 0.07737113 0.9955696 -0.05343147
vn 0 0 0
vn 0.07708896 0.9955754 -0.05372893
vn 0 0 0
vn 0.3332933 0.8635245 0.3784721
vn 0 0 0
vn 0.3761369 0.8378671 0.3956005
vn 0 0 0
vn 0.07715966 0.9955553 -0.05399933
vn 0 0 0
vn 0.07687066 0.9955673 -0.05419053
vn 0 0 0
vn 0.3725676 0.8409597 0.3924029
vn 0 0 0
vn 0.3711377 0.8408017 0.3940932
vn 0 0 0
vn 0.07678482 0.9955679 -0.05430216
vn 0 0 0
vn 0.07648999 0.9955857 -0.05439001
vn 0 0 0
vn 0.3836344 0.8366667 0.3909135
vn 0 0 0
vn 0.3793117 0.8448979 0.3771872
vn 0 0 0
vn 0.07624964 0.9956068 -0.05434285
vn 0 0 0
vn 0.0759455 0.9956309 -0.05432708
vn 0 0 0
vn 0.3716546 0.8563082 0.358621
vn 0 0 0
vn 0.3492579 0.8714927 0.3442664
vn 0 0 0
vn 0.07554836 0.9956723 -0.05411966
vn 0 0 0
vn 0.07523295 0.9957027 -0.05400105
vn 0 0 0
vn 0.3506843 0.8738202 0.3368364
vn 0 0 0
vn 0.3403813 0.8818996 0.3261802
vn 0 0 0
vn 0.07467117 0.9957651 -0.05362799
vn 0 0 0
vn 0.07433724 0.9958023 -0.05340164
vn 0 0 0
vn 0.3368784 0.886807 0.316364
vn 0 0 0
vn 0.3236501 0.8950923 0.3066928
vn 0 0 0
vn 0.07358487 0.9958879 -0.05284408
vn 0 0 0
vn 0.07322485 0.9959326 -0.05250071
vn 0 0 0
vn 0.3214466 0.8977825 0.3010959
vn 0 0 0
vn 0.3126719 0.9030265 0.2945839
vn 0 0 0
vn 0.07226337 0.9960424 -0.05174431
vn 0 0 0
vn 0.07185796 0.9960966 -0.05126455
vn 0 0 0
vn 0.312037 0.9050353 0.2890401
vn 0 0 0
vn 0.3017923 0.9114027 0.2797618
vn 0 0 0
vn 0.07065517 0.9962323 -0.050287
vn 0 0 0
vn 0.07019265 0.9962966 -0.04965948
vn 0 0 0
vn 0.2968931 0.9152259 0.272426
vn 0 0 0
vn 0.2845716 0.9215174 0.2642436
vn 0 0 0
vn 0.06864605 0.9964669 -0.04838753
vn 0 0 0
vn 0.06810165 0.9965432 -0.04758005
vn 0 0 0
vn 0.2582662 0.9253777 0.2774431
vn 0 0 0
vn 0.2804556 0.9051772 0.319373
vn 0 0 0
vn 0.06620197 0.9967448 -0.04601306
vn 0 0 0
vn 0.06552623 0.9968366 -0.04497891
vn 0 0 0
vn 0.3203402 0.8807168 0.3488841
vn 0 0 0
vn 0.3402643 0.8769456 0.3393917
vn 0 0 0
vn 0.06306533 0.9970837 -0.04297614
vn 0 0 0
vn 0.06220105 0.9971936 -0.04166429
vn 0 0 0
vn 0.3157814 0.8990096 0.3034203
vn 0 0 0
vn 0.2662569 0.9246157 0.2723843
vn 0 0 0
vn 0.05905022 0.9974865 -0.03916302
vn 0 0 0
vn 0.05789232 0.9976184 -0.03749455
vn 0 0 0
vn 0.2572917 0.928144 0.268979
vn 0 0 0
vn 0.2448586 0.9330114 0.2636929
vn 0 0 0
vn 0.0536864 0.9979687 -0.03429518
vn 0 0 0
vn 0.05204736 0.9981268 -0.03215504
vn 0 0 0
vn 0.2363657 0.934746 0.2652946
vn 0 0 0
vn 0.2269178 0.9377145 0.2630587
vn 0 0 0
vn 0.04626532 0.9985359 -0.02803137
vn 0 0 0
vn 0.04378514 0.9987216 -0.02525763
vn 0 0 0
vn 0.2024821 0.9402064 0.273885
vn 0 0 0
vn 0.206822 0.9304611 0.3024347
vn 0 0 0
vn 0.04043961 0.9989189 -0.02292845
vn 0 0 0
vn 0.04139557 0.9988918 -0.02239495
vn 0 0 0
vn 0.2016313 0.9248527 0.3224786
vn 0 0 0
vn 0.2386 0.9055125 0.3508805
vn 0 0 0

vt 0 0
vt 0 0
vt 0.1071991 -0.6014466
vt 0.1071991 -0.6014466
vt -0.07066651 0.3964661
vt -0.07066651 0.3964661
vt 0 0
vt 0 0
vt 0.8455841 0.2101868
vt 0.8455841 0.2101868
vt 1.012381 -0.4030518
vt 1.012381 -0.4030518
vt 0.7383087 0.6045899
vt 0.7383087 0.6045899
vt 0.8455841 0.2101868
vt 0.8455841 0.2101868
vt 1.671048 0.4953125
vt 1.671048 0.4953125
vt 1.894656 -0.1218933
vt 1.894656 -0.1218933
vt 1.530096 0.8843628
vt 1.530096 0.8843628
vt 1.671048 0.4953125
vt 1.671048 0.4953125
vt 2.510947 0.8475769
vt 2.510947 0.8475769
vt 2.77739 0.2286194
vt 2.77739 0.2286194
vt 2.345676 1.231506
vt 2.345676 1.231506
vt 2.510947 0.8475769
vt 2.510947 0.8475769
vt 3.355676 1.250226
vt 3.355676 1.250226
vt 3.655634 0.6304566
vt 3.655634 0.6304566
vt 3.172043 1.629645
vt 3.172043 1.629645
vt 3.355676 1.250226
vt 3.355676 1.250226
vt 4.207312 1.695111
vt 4.207312 1.695111
vt 4.53439 1.074988
vt 4.53439 1.074988
vt 4.009244 2.070624
vt 4.009244 2.070624
vt 4.207312 1.695111
vt 4.207312 1.695111
vt 5.0539 2.168854
vt 5.0539 2.168854
vt 5.403073 1.548676
vt 5.403073 1.548676
vt 4.844351 2.541046
vt 4.844351 2.541046
vt 5.0539 2.168854
vt 5.0539 2.168854
vt 5.886316 2.660004
vt 5.886316 2.660004
vt 6.253561 2.039972
vt 6.253561 2.039972
vt 5.667551 3.029352
vt 5.667551 3.029352
vt 5.886316 2.660004
vt 5.886316 2.660004
vt 6.719013 3.172345
vt 6.719013 3.172345
vt 7.101407 2.552667
vt 7.101407 2.552667
vt 6.492618 3.539227
vt 6.492618 3.539227
vt 6.719013 3.172345
vt 6.719013 3.172345
vt 7.547171 3.699481
vt 7.547171 3.699481
vt 7.942215 3.080328
vt 7.942215 3.080328
vt 7.314468 4.064203
vt 7.314468 4.064203
vt 7.547171 3.699481
vt 7.547171 3.699481
vt 8.3668 4.235761
vt 8.3668 4.235761
vt 8.772321 3.617328
vt 8.772321 3.617328
vt 8.128894 4.598578
vt 8.128894 4.598578
vt 8.3668 4.235761
vt 8.3668 4.235761
vt 9.197372 4.791645
vt 9.197372 4.791645
vt 9.611682 4.174127
vt 9.611682 4.174127
vt 8.955093 5.15274
vt 8.955093 5.15274
vt 9.197372 4.791645
vt 9.197372 4.791645
vt 10.01313 5.347772
vt 10.01313 5.347772
vt 10.43445 4.73139
vt 10.43445 4.73139
vt 9.767325 5.707379
vt 9.767325 5.707379
vt 10.01313 5.347772
vt 10.01313 5.347772
vt 10.83478 5.916327
vt 10.83478 5.916327
vt 11.26169 5.301276
vt 11.26169 5.301276
vt 10.58612 6.274579
vt 10.58612 6.274579
vt 10.83478 5.916327
vt 10.83478 5.916327
vt 11.66028 6.494306
vt 11.66028 6.494306
vt 12.09137 5.880829
vt 12.09137 5.880829
vt 11.40939 6.851325
vt 11.40939 6.851325
vt 11.66028 6.494306
vt 11.66028 6.494306
vt 12.48734 7.078595
vt 12.48734 7.078595
vt 12.92128 6.466938
vt 12.92128 6.466938
vt 12.23483 7.434515
vt 12.23483 7.434515
vt 12.48734 7.078595
vt 12.48734 7.078595
vt 13.31398 7.666266
vt 13.31398 7.666266
vt 13.74944 7.056659
vt 13.74944 7.056659
vt 13.06043 8.02121
vt 13.06043 8.02121
vt 13.31398 7.666266
vt 13.31398 7.666266
vt 14.13818 8.25434
vt 14.13818 8.25434
vt 14.57385 7.647027
vt 14.57385 7.647027
vt 13.88415 8.608429
vt 13.88415 8.608429
vt 14.13818 8.25434
vt 14.13818 8.25434
vt 14.95791 8.839801
vt 14.95791 8.839801
vt 15.3925 8.235028
vt 15.3925 8.235028
vt 14.70399 9.193158
vt 14.70399 9.193158
vt 14.95791 8.839801
vt 14.95791 8.839801
vt 15.77124 9.419757
vt 15.77124 9.419757
vt 16.20343 8.817743
vt 16.20343 8.817743
vt 15.518 9.772516
vt 15.518 9.772516
vt 15.77124 9.419757
vt 15.77124 9.419757
vt 16.59915 10.00746
vt 16.59915 10.00746
vt 17.02748 9.408503
vt 17.02748 9.408503
vt 16.34722 10.35975
vt 16.34722 10.35975
vt 16.59915 10.00746
vt 16.59915 10.00746
vt 17.43857 10.59872
vt 17.43857 10.59872
vt 17.86143 10.00313
vt 17.86143 10.00313
vt 17.18867 10.9507
vt 17.18867 10.9507
vt 17.43857 10.59872
vt 17.43857 10.59872
vt 18.26434 11.17376
vt 18.26434 11.17376
vt 18.68014 10.58172
vt 18.68014 10.58172
vt 18.01722 11.52562
vt 18.01722 11.52562
vt 18.26434 11.17376
vt 18.26434 11.17376
vt 19.11759 11.75851
vt 19.11759 11.75851
vt 19.52414 11.1704
vt 19.52414 11.1704
vt 18.87427 12.11052
vt 18.87427 12.11052
vt 19.11759 11.75851
vt 19.11759 11.75851
vt 19.97208 12.33148
vt 19.97208 12.33148
vt 20.36707 11.74749
vt 20.36707 11.74749
vt 19.73369 12.68393
vt 19.73369 12.68393
vt 19.97208 12.33148
vt 19.97208 12.33148
vt 20.84437 12.89943
vt 20.84437 12.89943
vt 21.22473 12.31987
vt 21.22473 12.31987
vt 20.61246 13.2528
vt 20.61246 13.2528
vt 20.84437 12.89943
vt 20.84437 12.89943
vt 21.72814 13.45226
vt 21.72814 13.45226
vt 22.09007 12.87726
vt 22.09007 12.87726
vt 21.50476 13.80715
vt 21.50476 13.80715
vt 21.72814 13.45226
vt 21.72814 13.45226
vt 22.63586 13.98919
vt 22.63586 13.98919
vt 22.97393 13.41885
vt 22.97393 13.41885
vt 22.42406 14.3465
vt 22.42406 14.3465
vt 22.63586 13.98919
vt 22.63586 13.98919
vt 23.57701 14.50201
vt 23.57701 14.50201
vt 23.88306 13.9363
vt 23.88306 13.9363
vt 23.38165 14.86314
vt 23.38165 14.86314
vt 23.57701 14.50201
vt 23.57701 14.50201

usemtl GSDShoulder1
usemap GSDShoulder1
f 9/9/9 1/1/1 3/3/3
f 11/11/11 9/9/9 3/3/3
f 13/13/13 5/5/5 7/7/7
f 15/15/15 13/13/13 7/7/7
f 17/17/17 9/9/9 11/11/11
f 19/19/19 17/17/17 11/11/11
f 21/21/21 13/13/13 15/15/15
f 23/23/23 21/21/21 15/15/15
f 25/25/25 17/17/17 19/19/19
f 27/27/27 25/25/25 19/19/19
f 29/29/29 21/21/21 23/23/23
f 31/31/31 29/29/29 23/23/23
f 33/33/33 25/25/25 27/27/27
f 35/35/35 33/33/33 27/27/27
f 37/37/37 29/29/29 31/31/31
f 39/39/39 37/37/37 31/31/31
f 41/41/41 33/33/33 35/35/35
f 43/43/43 41/41/41 35/35/35
f 45/45/45 37/37/37 39/39/39
f 47/47/47 45/45/45 39/39/39
f 49/49/49 41/41/41 43/43/43
f 51/51/51 49/49/49 43/43/43
f 53/53/53 45/45/45 47/47/47
f 55/55/55 53/53/53 47/47/47
f 57/57/57 49/49/49 51/51/51
f 59/59/59 57/57/57 51/51/51
f 61/61/61 53/53/53 55/55/55
f 63/63/63 61/61/61 55/55/55
f 65/65/65 57/57/57 59/59/59
f 67/67/67 65/65/65 59/59/59
f 69/69/69 61/61/61 63/63/63
f 71/71/71 69/69/69 63/63/63
f 73/73/73 65/65/65 67/67/67
f 75/75/75 73/73/73 67/67/67
f 77/77/77 69/69/69 71/71/71
f 79/79/79 77/77/77 71/71/71
f 81/81/81 73/73/73 75/75/75
f 83/83/83 81/81/81 75/75/75
f 85/85/85 77/77/77 79/79/79
f 87/87/87 85/85/85 79/79/79
f 89/89/89 81/81/81 83/83/83
f 91/91/91 89/89/89 83/83/83
f 93/93/93 85/85/85 87/87/87
f 95/95/95 93/93/93 87/87/87
f 97/97/97 89/89/89 91/91/91
f 99/99/99 97/97/97 91/91/91
f 101/101/101 93/93/93 95/95/95
f 103/103/103 101/101/101 95/95/95
f 105/105/105 97/97/97 99/99/99
f 107/107/107 105/105/105 99/99/99
f 109/109/109 101/101/101 103/103/103
f 111/111/111 109/109/109 103/103/103
f 113/113/113 105/105/105 107/107/107
f 115/115/115 113/113/113 107/107/107
f 117/117/117 109/109/109 111/111/111
f 119/119/119 117/117/117 111/111/111
f 121/121/121 113/113/113 115/115/115
f 123/123/123 121/121/121 115/115/115
f 125/125/125 117/117/117 119/119/119
f 127/127/127 125/125/125 119/119/119
f 129/129/129 121/121/121 123/123/123
f 131/131/131 129/129/129 123/123/123
f 133/133/133 125/125/125 127/127/127
f 135/135/135 133/133/133 127/127/127
f 137/137/137 129/129/129 131/131/131
f 139/139/139 137/137/137 131/131/131
f 141/141/141 133/133/133 135/135/135
f 143/143/143 141/141/141 135/135/135
f 145/145/145 137/137/137 139/139/139
f 147/147/147 145/145/145 139/139/139
f 149/149/149 141/141/141 143/143/143
f 151/151/151 149/149/149 143/143/143
f 153/153/153 145/145/145 147/147/147
f 155/155/155 153/153/153 147/147/147
f 157/157/157 149/149/149 151/151/151
f 159/159/159 157/157/157 151/151/151
f 161/161/161 153/153/153 155/155/155
f 163/163/163 161/161/161 155/155/155
f 165/165/165 157/157/157 159/159/159
f 167/167/167 165/165/165 159/159/159
f 169/169/169 161/161/161 163/163/163
f 171/171/171 169/169/169 163/163/163
f 173/173/173 165/165/165 167/167/167
f 175/175/175 173/173/173 167/167/167
f 177/177/177 169/169/169 171/171/171
f 179/179/179 177/177/177 171/171/171
f 181/181/181 173/173/173 175/175/175
f 183/183/183 181/181/181 175/175/175
f 185/185/185 177/177/177 179/179/179
f 187/187/187 185/185/185 179/179/179
f 189/189/189 181/181/181 183/183/183
f 191/191/191 189/189/189 183/183/183
f 193/193/193 185/185/185 187/187/187
f 195/195/195 193/193/193 187/187/187
f 197/197/197 189/189/189 191/191/191
f 199/199/199 197/197/197 191/191/191
f 201/201/201 193/193/193 195/195/195
f 203/203/203 201/201/201 195/195/195
f 205/205/205 197/197/197 199/199/199
f 207/207/207 205/205/205 199/199/199
f 209/209/209 201/201/201 203/203/203
f 211/211/211 209/209/209 203/203/203
f 213/213/213 205/205/205 207/207/207
f 215/215/215 213/213/213 207/207/207
f 217/217/217 209/209/209 211/211/211
f 219/219/219 217/217/217 211/211/211
f 221/221/221 213/213/213 215/215/215
f 223/223/223 221/221/221 215/215/215
f 225/225/225 217/217/217 219/219/219
f 227/227/227 225/225/225 219/219/219
f 229/229/229 221/221/221 223/223/223
f 231/231/231 229/229/229 223/223/223
