mtllib ./Road1_0_56.mtl
g RoadCut28
v -47.01609 0.03 328.1476
v -47.01609 0.03 328.1476
v -56.74174 0.03 330.4739
v -56.74174 0.03 330.4739
v -45.88957 0.03 333.1581
v -45.88957 0.03 333.1581
v -55.67418 0.03 335.2224
v -55.67418 0.03 335.2224
v -44.8733 0.03 338.2738
v -44.8733 0.03 338.2738
v -54.70252 0.03 340.114
v -54.70252 0.03 340.114
v -43.98142 0.03 343.3
v -43.98142 0.03 343.3
v -53.84274 0.03 344.9596
v -53.84274 0.03 344.9596
v -43.16317 0.03 348.4115
v -43.16317 0.03 348.4115
v -53.0491 0.03 349.9176
v -53.0491 0.03 349.9176
v -42.42825 0.03 353.4614
v -42.42825 0.03 353.4614
v -52.33291 0.03 354.8389
v -52.33291 0.03 354.8389
v -41.75194 0.03 358.5371
v -41.75194 0.03 358.5371
v -51.6714 0.03 359.8038
v -51.6714 0.03 359.8038
v -41.12892 0.03 363.6162
v -41.12892 0.03 363.6162
v -51.06017 0.03 364.7868
v -51.06017 0.03 364.7868
v -40.55427 0.03 368.6783
v -40.55427 0.03 368.6783
v -50.49501 0.03 369.7654
v -50.49501 0.03 369.7654
v -40.02361 0.03 373.7044
v -40.02361 0.03 373.7044
v -49.97202 0.03 374.7188
v -49.97202 0.03 374.7188
v -39.52022 0.03 378.8099
v -39.52022 0.03 378.8099
v -49.47506 0.03 379.7592
v -49.47506 0.03 379.7592
v -39.0543 0.03 383.8502
v -39.0543 0.03 383.8502
v -49.01438 0.03 384.7429
v -49.01438 0.03 384.7429
v -38.61089 0.03 388.9459
v -38.61089 0.03 388.9459
v -48.57536 0.03 389.7881
v -48.57536 0.03 389.7881
v -38.19919 0.03 393.9511
v -38.19919 0.03 393.9511
v -48.16728 0.03 394.7494
v -48.16728 0.03 394.7494
v -37.80572 0.03 398.9904
v -37.80572 0.03 398.9904
v -47.77684 0.03 399.7498
v -47.77684 0.03 399.7498
v -37.42899 0.03 404.0541
v -37.42899 0.03 404.0541
v -47.40266 0.03 404.7793
v -47.40266 0.03 404.7793
v -37.0675 0.03 409.133
v -37.0675 0.03 409.133
v -47.04328 0.03 409.8285
v -47.04328 0.03 409.8285
v -36.7197 0.03 414.2184
v -36.7197 0.03 414.2184
v -46.69723 0.03 414.8883
v -46.69723 0.03 414.8883
v -36.38411 0.03 419.3007
v -36.38411 0.03 419.3007
v -46.36306 0.03 419.9492
v -46.36306 0.03 419.9492
v -36.05921 0.03 424.3711
v -36.05921 0.03 424.3711
v -46.03928 0.03 425.0021
v -46.03928 0.03 425.0021
v -35.74357 0.03 429.4195
v -35.74357 0.03 429.4195
v -45.72448 0.03 430.0371
v -45.72448 0.03 430.0371
v -35.4357 0.03 434.4365
v -35.4357 0.03 434.4365
v -45.4172 0.03 435.0446
v -45.4172 0.03 435.0446
v -35.12595 0.03 439.5483
v -35.12595 0.03 439.5483
v -45.10779 0.03 440.1506
v -45.10779 0.03 440.1506
v -34.82125 0.03 444.6066
v -34.82125 0.03 444.6066
v -44.80318 0.03 445.2076
v -44.80318 0.03 445.2076
v -34.51994 0.03 449.6025
v -34.51994 0.03 449.6025
v -44.50169 0.03 450.2064
v -44.50169 0.03 450.2064
v -34.21255 0.03 454.6541
v -34.21255 0.03 454.6541
v -44.19382 0.03 455.2658
v -44.19382 0.03 455.2658
v -33.89748 0.03 459.7437
v -33.89748 0.03 459.7437
v -43.87792 0.03 460.3687
v -43.87792 0.03 460.3687
v -33.5808 0.03 464.7281
v -33.5808 0.03 464.7281
v -43.56003 0.03 465.3722
v -43.56003 0.03 465.3722
v -33.25252 0.03 469.7173
v -33.25252 0.03 469.7173
v -43.23003 0.03 470.3876
v -43.23003 0.03 470.3876
v -32.90221 0.03 474.8035
v -32.90221 0.03 474.8035
v -42.87729 0.03 475.509
v -42.87729 0.03 475.509

vn -8.438125E-11 1 -3.527769E-10
vn 0 0 0
vn -8.176758E-11 1 -3.633439E-10
vn 0 0 0
vn -5.374337E-11 1 -2.38815E-10
vn 0 0 0
vn -2.551692E-11 1 -1.209462E-10
vn 0 0 0
vn 0 1 0
vn 0 0 0
vn 0 0.9999999 0
vn 0 0 0
vn 0 1 0
vn 0 0 0
vn 0 0.9999999 0
vn 0 0 0
vn 0 1 0
vn 0 0 0
vn 0 1 0
vn 0 0 0
vn 0 1 0
vn 0 0 0
vn 0 1 0
vn 0 0 0
vn 0 1 0
vn 0 0 0
vn 0 1 0
vn 0 0 0
vn 0 1 0
vn 0 0 0
vn 0 1 0
vn 0 0 0
vn 0 1 0
vn 0 0 0
vn 0 1 0
vn 0 0 0
vn 1.245935E-11 1 1.221907E-10
vn 0 0 0
vn 2.410235E-11 1 2.442859E-10
vn 0 0 0
vn 1.238443E-11 1 1.21456E-10
vn 0 0 0
vn -1.098887E-11 1 -1.226055E-10
vn 0 0 0
vn -2.260019E-11 1 -2.44338E-10
vn 0 0 0
vn -1.095089E-11 1 -1.221818E-10
vn 0 0 0
vn 0 1 0
vn 0 0 0
vn 0 0.9999999 0
vn 0 0 0
vn 9.876617E-12 1 1.233291E-10
vn 0 0 0
vn 1.928045E-11 1 2.468013E-10
vn 0 0 0
vn 4.780738E-13 0.9999999 -3.733779E-14
vn 0 0 0
vn -2.719317E-11 1 -3.681616E-10
vn 0 0 0
vn -2.747565E-11 1 -3.662889E-10
vn 0 0 0
vn -3.650658E-13 1 2.590247E-14
vn 0 0 0
vn 8.857364E-12 1 1.21812E-10
vn 0 0 0
vn -8.192791E-12 1 -1.220199E-10
vn 0 0 0
vn -8.487245E-12 1 -1.217468E-10
vn 0 0 0
vn 7.927568E-12 1 1.219876E-10
vn 0 0 0
vn 2.403022E-11 1 3.657269E-10
vn 0 0 0
vn 2.360186E-11 1 3.66482E-10
vn 0 0 0
vn 7.945641E-12 1 1.222657E-10
vn 0 0 0
vn -7.585171E-12 1 -1.225795E-10
vn 0 0 0
vn -1.537259E-11 1 -2.457456E-10
vn 0 0 0
vn -7.624529E-12 1 -1.232156E-10
vn 0 0 0
vn 0 1 0
vn 0 0 0
vn 0 1 0
vn 0 0 0
vn 0 1 0
vn 0 0 0
vn 0 1 0
vn 0 0 0
vn 0 1 0
vn 0 0 0
vn 0 1 0
vn 0 0 0
vn 0 1 0
vn 0 0 0
vn 0 1 0
vn 0 0 0
vn 0 1 0
vn 0 0 0
vn 0 1 0
vn 0 0 0
vn 0 1 0
vn 0 0 0
vn 0 1 0
vn 0 0 0
vn 0 1 0
vn 0 0 0
vn 0 0.9999999 0
vn 0 0 0
vn 0 1 0
vn 0 0 0
vn 0 1 0
vn 0 0 0
vn 0 1 0
vn 0 0 0
vn 0 0.9999999 0
vn 0 0 0

vt 0 0
vt 0 0
vt 1.945131 0.4652588
vt 1.945131 0.4652588
vt -0.2253036 1.0021
vt -0.2253036 1.0021
vt 1.731618 1.414966
vt 1.731618 1.414966
vt -0.4285583 2.02525
vt -0.4285583 2.02525
vt 1.537286 2.393292
vt 1.537286 2.393292
vt -0.6069336 3.030487
vt -0.6069336 3.030487
vt 1.365331 3.362408
vt 1.365331 3.362408
vt -0.7705841 4.052777
vt -0.7705841 4.052777
vt 1.206602 4.353998
vt 1.206602 4.353998
vt -0.9175682 5.062757
vt -0.9175682 5.062757
vt 1.063364 5.338269
vt 1.063364 5.338269
vt -1.05283 6.077911
vt -1.05283 6.077911
vt 0.9310616 6.331244
vt 0.9310616 6.331244
vt -1.177434 7.093726
vt -1.177434 7.093726
vt 0.8088166 7.327844
vt 0.8088166 7.327844
vt -1.292364 8.10614
vt -1.292364 8.10614
vt 0.6957833 8.323572
vt 0.6957833 8.323572
vt -1.398497 9.111365
vt -1.398497 9.111365
vt 0.5911865 9.314246
vt 0.5911865 9.314246
vt -1.499174 10.13246
vt -1.499174 10.13246
vt 0.4917931 10.32233
vt 0.4917931 10.32233
vt -1.592358 11.14053
vt -1.592358 11.14053
vt 0.3996575 11.31907
vt 0.3996575 11.31907
vt -1.681041 12.15966
vt -1.681041 12.15966
vt 0.3118546 12.32809
vt 0.3118546 12.32809
vt -1.76338 13.16071
vt -1.76338 13.16071
vt 0.2302376 13.32036
vt 0.2302376 13.32036
vt -1.842075 14.16857
vt -1.842075 14.16857
vt 0.15215 14.32045
vt 0.15215 14.32045
vt -1.91742 15.1813
vt -1.91742 15.1813
vt 0.077314 15.32635
vt 0.077314 15.32635
vt -1.989719 16.19709
vt -1.989719 16.19709
vt 0.005438232 16.33618
vt 0.005438232 16.33618
vt -2.059279 17.21416
vt -2.059279 17.21416
vt -0.06377258 17.34814
vt -0.06377258 17.34814
vt -2.126397 18.23063
vt -2.126397 18.23063
vt -0.1306068 18.36033
vt -0.1306068 18.36033
vt -2.191376 19.2447
vt -2.191376 19.2447
vt -0.1953629 19.37091
vt -0.1953629 19.37091
vt -2.254504 20.25439
vt -2.254504 20.25439
vt -0.2583221 20.37791
vt -0.2583221 20.37791
vt -2.316077 21.25779
vt -2.316077 21.25779
vt -0.3197777 21.37939
vt -0.3197777 21.37939
vt -2.378029 22.28014
vt -2.378029 22.28014
vt -0.3816605 22.40061
vt -0.3816605 22.40061
vt -2.438967 23.2918
vt -2.438967 23.2918
vt -0.442582 23.41199
vt -0.442582 23.41199
vt -2.499231 24.29099
vt -2.499231 24.29099
vt -0.5028809 24.41176
vt -0.5028809 24.41176
vt -2.560709 25.30131
vt -2.560709 25.30131
vt -0.5644547 25.42365
vt -0.5644547 25.42365
vt -2.623723 26.31921
vt -2.623723 26.31921
vt -0.6276337 26.44421
vt -0.6276337 26.44421
vt -2.687058 27.31611
vt -2.687058 27.31611
vt -0.6912117 27.44493
vt -0.6912117 27.44493
vt -2.752715 28.31395
vt -2.752715 28.31395
vt -0.7572128 28.448
vt -0.7572128 28.448
vt -2.822775 29.33118
vt -2.822775 29.33118
vt -0.8277603 29.47229
vt -0.8277603 29.47229

usemtl GSDRoad1
usemap GSDRoad1
f 5/5/5 1/1/1 3/3/3
f 7/7/7 5/5/5 3/3/3
f 9/9/9 5/5/5 7/7/7
f 11/11/11 9/9/9 7/7/7
f 13/13/13 9/9/9 11/11/11
f 15/15/15 13/13/13 11/11/11
f 17/17/17 13/13/13 15/15/15
f 19/19/19 17/17/17 15/15/15
f 21/21/21 17/17/17 19/19/19
f 23/23/23 21/21/21 19/19/19
f 25/25/25 21/21/21 23/23/23
f 27/27/27 25/25/25 23/23/23
f 29/29/29 25/25/25 27/27/27
f 31/31/31 29/29/29 27/27/27
f 33/33/33 29/29/29 31/31/31
f 35/35/35 33/33/33 31/31/31
f 37/37/37 33/33/33 35/35/35
f 39/39/39 37/37/37 35/35/35
f 41/41/41 37/37/37 39/39/39
f 43/43/43 41/41/41 39/39/39
f 45/45/45 41/41/41 43/43/43
f 47/47/47 45/45/45 43/43/43
f 49/49/49 45/45/45 47/47/47
f 51/51/51 49/49/49 47/47/47
f 53/53/53 49/49/49 51/51/51
f 55/55/55 53/53/53 51/51/51
f 57/57/57 53/53/53 55/55/55
f 59/59/59 57/57/57 55/55/55
f 61/61/61 57/57/57 59/59/59
f 63/63/63 61/61/61 59/59/59
f 65/65/65 61/61/61 63/63/63
f 67/67/67 65/65/65 63/63/63
f 69/69/69 65/65/65 67/67/67
f 71/71/71 69/69/69 67/67/67
f 73/73/73 69/69/69 71/71/71
f 75/75/75 73/73/73 71/71/71
f 77/77/77 73/73/73 75/75/75
f 79/79/79 77/77/77 75/75/75
f 81/81/81 77/77/77 79/79/79
f 83/83/83 81/81/81 79/79/79
f 85/85/85 81/81/81 83/83/83
f 87/87/87 85/85/85 83/83/83
f 89/89/89 85/85/85 87/87/87
f 91/91/91 89/89/89 87/87/87
f 93/93/93 89/89/89 91/91/91
f 95/95/95 93/93/93 91/91/91
f 97/97/97 93/93/93 95/95/95
f 99/99/99 97/97/97 95/95/95
f 101/101/101 97/97/97 99/99/99
f 103/103/103 101/101/101 99/99/99
f 105/105/105 101/101/101 103/103/103
f 107/107/107 105/105/105 103/103/103
f 109/109/109 105/105/105 107/107/107
f 111/111/111 109/109/109 107/107/107
f 113/113/113 109/109/109 111/111/111
f 115/115/115 113/113/113 111/111/111
f 117/117/117 113/113/113 115/115/115
f 119/119/119 117/117/117 115/115/115
