mtllib ./Road1_0_136.mtl
g RoadCut68
v -110.4781 50.4593 652.6723
v -110.4781 50.4593 652.6723
v -100.5828 50.4593 653.8867
v -100.5828 50.4593 653.8867
v -109.7743 50.86667 647.6802
v -109.7743 50.86667 647.6802
v -99.86628 50.86667 648.7715
v -99.86628 50.86667 648.7715
v -109.4045 51.27139 642.9205
v -109.4045 51.27139 642.9205
v -99.45028 51.27139 643.4488
v -99.45028 51.27139 643.4488
v -109.2033 51.67673 637.9252
v -109.2033 51.67673 637.9252
v -99.24133 51.67673 638.2842
v -99.24133 51.67673 638.2842

vn -0.009812123 0.9967502 0.07995505
vn 0 0 0
vn -0.009204887 0.9968272 0.07906082
vn 0 0 0
vn -0.009220149 0.9967009 0.08063705
vn 0 0 0
vn -0.007203476 0.996843 0.07906941
vn 0 0 0
vn -0.005756059 0.9967852 0.07991337
vn 0 0 0
vn -0.003699224 0.9969419 0.07805921
vn 0 0 0
vn -0.003537503 0.9968366 0.07939965
vn 0 0 0
vn -0.002815754 0.9969389 0.07813276
vn 0 0 0

vt 0 0
vt 0 0
vt -1.979059 0.2428711
vt -1.979059 0.2428711
vt -0.1407593 -0.9984253
vt -0.1407593 -0.9984253
vt -2.122372 -0.7801636
vt -2.122372 -0.7801636
vt -0.2147186 -1.950366
vt -0.2147186 -1.950366
vt -2.205573 -1.844702
vt -2.205573 -1.844702
vt -0.2549759 -2.949414
vt -0.2549759 -2.949414
vt -2.247362 -2.877612
vt -2.247362 -2.877612

usemtl GSDRoad1
usemap GSDRoad1
f 5/5/5 1/1/1 3/3/3
f 7/7/7 5/5/5 3/3/3
f 9/9/9 5/5/5 7/7/7
f 11/11/11 9/9/9 7/7/7
f 13/13/13 9/9/9 11/11/11
f 15/15/15 13/13/13 11/11/11
