mtllib ./Road1_0_29.mtl
g Markers14
v -788.7793 45.47898 66.98232
v -788.7793 45.47898 66.98232
v -783.6705 45.47898 75.53751
v -783.6705 45.47898 75.53751
v -784.0988 45.04705 64.34985
v -784.0988 45.04705 64.34985
v -779.4741 45.04705 73.17574
v -779.4741 45.04705 73.17574
v -779.2911 44.61805 62.00925
v -779.2911 44.61805 62.00925
v -775.186 44.61805 71.08868
v -775.186 44.61805 71.08868
v -774.424 44.19327 59.95841
v -774.424 44.19327 59.95841
v -770.7844 44.19327 69.23467
v -770.7844 44.19327 69.23467
v -769.5315 43.7743 58.16517
v -769.5315 43.7743 58.16517
v -766.3066 43.7743 67.5941
v -766.3066 43.7743 67.5941
v -764.5092 43.35131 56.56025
v -764.5092 43.35131 56.56025
v -761.6619 43.35131 66.11053
v -761.6619 43.35131 66.11053
v -759.5117 42.93654 55.16601
v -759.5117 42.93654 55.16601
v -756.9982 42.93654 64.81009
v -756.9982 42.93654 64.81009
v -754.4249 42.51983 53.92618
v -754.4249 42.51983 53.92618
v -752.214 42.51983 63.64465
v -752.214 42.51983 63.64465
v -749.4058 42.11338 52.85735
v -749.4058 42.11338 52.85735
v -747.4613 42.11338 62.63317
v -747.4613 42.11338 62.63317
v -744.3338 41.7069 51.91414
v -744.3338 41.7069 51.91414
v -742.6303 41.7069 61.73533
v -742.6303 41.7069 61.73533
v -739.2238 41.30116 51.08661
v -739.2238 41.30116 51.08661
v -737.7375 41.30116 60.9435
v -737.7375 41.30116 60.9435
v -734.0909 40.89698 50.36514
v -734.0909 40.89698 50.36514
v -732.7996 40.89698 60.24995
v -732.7996 40.89698 60.24995
v -728.9515 40.49531 49.74049
v -728.9515 40.49531 49.74049
v -727.8347 40.49531 59.64695
v -727.8347 40.49531 59.64695
v -723.8203 40.09691 49.20325
v -723.8203 40.09691 49.20325
v -722.8586 40.09691 59.12636
v -722.8586 40.09691 59.12636
v -718.7139 39.70271 48.74441
v -718.7139 39.70271 48.74441
v -717.8889 39.70271 58.68016
v -717.8889 39.70271 58.68016
v -713.6476 39.31349 48.35481
v -713.6476 39.31349 48.35481
v -712.9417 39.31349 58.30004
v -712.9417 39.31349 58.30004
v -708.5003 38.91965 48.01722
v -708.5003 38.91965 48.01722
v -707.899 38.91965 57.96959
v -707.899 38.91965 57.96959
v -703.4296 38.53291 47.73365
v -703.4296 38.53291 47.73365
v -702.9152 38.53291 57.69111
v -702.9152 38.53291 57.69111
v -698.3207 38.1441 47.48859
v -698.3207 38.1441 47.48859
v -697.8771 38.1441 57.44964
v -697.8771 38.1441 57.44964
v -693.2015 37.75494 47.27498
v -693.2015 37.75494 47.27498
v -692.8107 37.75494 57.23836
v -692.8107 37.75494 57.23836
v -688.1041 37.36736 47.08422
v -688.1041 37.36736 47.08422
v -687.7455 37.36736 57.04888
v -687.7455 37.36736 57.04888
v -683.0638 36.98342 46.90612
v -683.0638 36.98342 46.90612
v -682.7137 36.98342 56.87105
v -682.7137 36.98342 56.87105
v -678.006 36.59661 46.72446
v -678.006 36.59661 46.72446
v -677.6346 36.59661 56.68851
v -677.6346 36.59661 56.68851
v -672.9957 36.21075 46.52448
v -672.9957 36.21075 46.52448
v -672.5637 36.21075 56.48586
v -672.5637 36.21075 56.48586
v -668.0104 35.8224 46.28199
v -668.0104 35.8224 46.28199
v -667.4612 35.8224 56.23719
v -667.4612 35.8224 56.23719
v -663.0807 35.43103 45.96386
v -663.0807 35.43103 45.96386
v -662.325 35.43103 55.90484
v -662.325 35.43103 55.90484
v -658.2386 35.03358 45.51538
v -658.2386 35.03358 45.51538
v -657.115 35.03358 55.42037
v -657.115 35.03358 55.42037

vn 0.06886026 0.9967785 -0.04112016
vn 0 0 0
vn 0.07373684 0.9964224 -0.0412931
vn 0 0 0
vn 0.07274913 0.9965534 -0.03986176
vn 0 0 0
vn 0.0769973 0.9962888 -0.03847121
vn 0 0 0
vn 0.07497186 0.9965477 -0.03566526
vn 0 0 0
vn 0.07887543 0.996302 -0.03407295
vn 0 0 0
vn 0.07655266 0.9965664 -0.03154606
vn 0 0 0
vn 0.07982562 0.9963581 -0.0299718
vn 0 0 0
vn 0.07755726 0.9966 -0.02780883
vn 0 0 0
vn 0.08030737 0.9964237 -0.02627806
vn 0 0 0
vn 0.07819451 0.9966382 -0.02445409
vn 0 0 0
vn 0.08051619 0.996488 -0.02299831
vn 0 0 0
vn 0.07849398 0.9966842 -0.0214314
vn 0 0 0
vn 0.08045349 0.9965562 -0.0200742
vn 0 0 0
vn 0.07861125 0.9967288 -0.01875487
vn 0 0 0
vn 0.08027827 0.9966188 -0.01750142
vn 0 0 0
vn 0.0785417 0.9967765 -0.01636796
vn 0 0 0
vn 0.07995971 0.9966819 -0.01522381
vn 0 0 0
vn 0.0783802 0.9968216 -0.01425848
vn 0 0 0
vn 0.07959554 0.9967398 -0.0132036
vn 0 0 0
vn 0.07814806 0.996865 -0.01237362
vn 0 0 0
vn 0.07919019 0.9967942 -0.01140868
vn 0 0 0
vn 0.07786961 0.9969062 -0.01069555
vn 0 0 0
vn 0.07876495 0.9968449 -0.009819607
vn 0 0 0
vn 0.07756716 0.9969446 -0.009207915
vn 0 0 0
vn 0.07833786 0.9968914 -0.008419
vn 0 0 0
vn 0.07725936 0.9969798 -0.007895887
vn 0 0 0
vn 0.07792117 0.9969336 -0.007192193
vn 0 0 0
vn 0.0769589 0.9970114 -0.00674778
vn 0 0 0
vn 0.07752788 0.9969714 -0.006127479
vn 0 0 0
vn 0.07667299 0.9970397 -0.005749191
vn 0 0 0
vn 0.07715461 0.9970056 -0.005203747
vn 0 0 0
vn 0.07642517 0.9970633 -0.004888155
vn 0 0 0
vn 0.07682887 0.9970345 -0.004418933
vn 0 0 0
vn 0.07620516 0.9970835 -0.004158807
vn 0 0 0
vn 0.07653505 0.9970598 -0.003771645
vn 0 0 0
vn 0.07604275 0.9970981 -0.003567013
vn 0 0 0
vn 0.07629842 0.9970797 -0.003262611
vn 0 0 0
vn 0.07594189 0.9971074 -0.003113031
vn 0 0 0
vn 0.07612053 0.9970944 -0.002903236
vn 0 0 0
vn 0.07591913 0.9971101 -0.002813733
vn 0 0 0
vn 0.07601271 0.9971033 -0.002713503
vn 0 0 0
vn 0.07600109 0.9971041 -0.002691529
vn 0 0 0
vn 0.07599372 0.9971046 -0.002724403
vn 0 0 0
vn 0.07622012 0.9970871 -0.002786888
vn 0 0 0
vn 0.07607979 0.9970973 -0.002990494
vn 0 0 0
vn 0.07663298 0.9970543 -0.00316822
vn 0 0 0
vn 0.07630327 0.9970781 -0.003609739
vn 0 0 0
vn 0.07733308 0.9969975 -0.003962724
vn 0 0 0
vn 0.07669223 0.9970434 -0.004764872
vn 0 0 0
vn 0.07851433 0.9968982 -0.00542532
vn 0 0 0
vn 0.07729041 0.9969851 -0.006842515
vn 0 0 0
vn 0.0781493 0.9969143 -0.007400664
vn 0 0 0
vn 0.07527462 0.9971263 -0.00853942
vn 0 0 0

vt 0 273.5586
vt 0 0
vt 1 273.5586
vt 0 0
vt 0 274.636
vt 0 274.636
vt 1 274.636
vt 1 274.636
vt 0 275.7089
vt 0 275.7089
vt 1 275.7089
vt 1 275.7089
vt 0 276.7686
vt 0 276.7686
vt 1 276.7686
vt 1 276.7686
vt 0 277.8141
vt 0 277.8141
vt 1 277.8141
vt 1 277.8141
vt 0 278.872
vt 0 278.872
vt 1 278.872
vt 1 278.872
vt 0 279.913
vt 0 279.913
vt 1 279.913
vt 1 279.913
vt 0 280.9634
vt 0 280.9634
vt 1 280.9634
vt 1 280.9634
vt 0 281.993
vt 0 281.993
vt 1 281.993
vt 1 281.993
vt 0 283.028
vt 0 283.028
vt 1 283.028
vt 1 283.028
vt 0 284.0664
vt 0 284.0664
vt 1 284.0664
vt 1 284.0664
vt 0 285.1063
vt 0 285.1063
vt 1 285.1063
vt 1 285.1063
vt 0 286.1448
vt 0 286.1448
vt 1 286.1448
vt 1 286.1448
vt 0 287.1797
vt 0 287.1797
vt 1 287.1797
vt 1 287.1797
vt 0 288.2081
vt 0 288.2081
vt 1 288.2081
vt 1 288.2081
vt 0 289.2274
vt 0 289.2274
vt 1 289.2274
vt 1 289.2274
vt 0 290.262
vt 0 290.262
vt 1 290.262
vt 1 290.262
vt 0 291.2807
vt 0 291.2807
vt 1 291.2807
vt 1 291.2807
vt 0 292.3066
vt 0 292.3066
vt 1 292.3066
vt 1 292.3066
vt 0 293.3343
vt 0 293.3343
vt 1 293.3343
vt 1 293.3343
vt 0 294.3574
vt 0 294.3574
vt 1 294.3574
vt 1 294.3574
vt 0 295.369
vt 0 295.369
vt 1 295.369
vt 1 295.369
vt 0 296.3842
vt 0 296.3842
vt 1 296.3842
vt 1 296.3842
vt 0 297.39
vt 0 297.39
vt 1 297.39
vt 1 297.39
vt 0 298.3913
vt 0 298.3913
vt 1 298.3913
vt 1 298.3913
vt 0 299.3824
vt 0 299.3824
vt 1 299.3824
vt 1 299.3824
vt 0 300.3582
vt 0 300.3582
vt 1 300.3582
vt 1 300.3582

usemtl GSDWhiteYellowDouble
usemap GSDWhiteYellowDouble
f 5/5/5 1/1/1 3/3/3
f 7/7/7 5/5/5 3/3/3
f 9/9/9 5/5/5 7/7/7
f 11/11/11 9/9/9 7/7/7
f 13/13/13 9/9/9 11/11/11
f 15/15/15 13/13/13 11/11/11
f 17/17/17 13/13/13 15/15/15
f 19/19/19 17/17/17 15/15/15
f 21/21/21 17/17/17 19/19/19
f 23/23/23 21/21/21 19/19/19
f 25/25/25 21/21/21 23/23/23
f 27/27/27 25/25/25 23/23/23
f 29/29/29 25/25/25 27/27/27
f 31/31/31 29/29/29 27/27/27
f 33/33/33 29/29/29 31/31/31
f 35/35/35 33/33/33 31/31/31
f 37/37/37 33/33/33 35/35/35
f 39/39/39 37/37/37 35/35/35
f 41/41/41 37/37/37 39/39/39
f 43/43/43 41/41/41 39/39/39
f 45/45/45 41/41/41 43/43/43
f 47/47/47 45/45/45 43/43/43
f 49/49/49 45/45/45 47/47/47
f 51/51/51 49/49/49 47/47/47
f 53/53/53 49/49/49 51/51/51
f 55/55/55 53/53/53 51/51/51
f 57/57/57 53/53/53 55/55/55
f 59/59/59 57/57/57 55/55/55
f 61/61/61 57/57/57 59/59/59
f 63/63/63 61/61/61 59/59/59
f 65/65/65 61/61/61 63/63/63
f 67/67/67 65/65/65 63/63/63
f 69/69/69 65/65/65 67/67/67
f 71/71/71 69/69/69 67/67/67
f 73/73/73 69/69/69 71/71/71
f 75/75/75 73/73/73 71/71/71
f 77/77/77 73/73/73 75/75/75
f 79/79/79 77/77/77 75/75/75
f 81/81/81 77/77/77 79/79/79
f 83/83/83 81/81/81 79/79/79
f 85/85/85 81/81/81 83/83/83
f 87/87/87 85/85/85 83/83/83
f 89/89/89 85/85/85 87/87/87
f 91/91/91 89/89/89 87/87/87
f 93/93/93 89/89/89 91/91/91
f 95/95/95 93/93/93 91/91/91
f 97/97/97 93/93/93 95/95/95
f 99/99/99 97/97/97 95/95/95
f 101/101/101 97/97/97 99/99/99
f 103/103/103 101/101/101 99/99/99
f 105/105/105 101/101/101 103/103/103
f 107/107/107 105/105/105 103/103/103
