mtllib ./Road1_0_195.mtl
g SCutR56
v -493.4374 34.41739 748.8474
v -493.4374 34.41739 748.8474
v -493.5197 34.41739 751.8461
v -493.5197 34.41739 751.8461
v -493.5197 34.41739 751.8461
v -493.5197 34.41739 751.8461
v -493.5746 33.99806 753.8453
v -493.5746 33.99806 753.8453
v -488.4319 34.39582 748.9998
v -488.4319 34.39582 748.9998
v -488.5289 34.39582 751.9982
v -488.5289 34.39582 751.9982
v -488.5289 34.39582 751.9982
v -488.5289 34.39582 751.9982
v -488.5936 33.98465 753.9971
v -488.5936 33.98465 753.9971
v -483.363 34.37726 749.1705
v -483.363 34.37726 749.1705
v -483.4675 34.37726 752.1687
v -483.4675 34.37726 752.1687
v -483.4675 34.37726 752.1687
v -483.4675 34.37726 752.1687
v -483.5372 33.96725 754.1674
v -483.5372 33.96725 754.1674
v -478.3007 34.36039 749.3507
v -478.3007 34.36039 749.3507
v -478.4087 34.36039 752.3488
v -478.4087 34.36039 752.3488
v -478.4087 34.36039 752.3488
v -478.4087 34.36039 752.3488
v -478.4807 33.95723 754.3475
v -478.4807 33.95723 754.3475
v -473.2849 34.34571 749.5306
v -473.2849 34.34571 749.5306
v -473.3908 34.34571 752.5287
v -473.3908 34.34571 752.5287
v -473.3908 34.34571 752.5287
v -473.3908 34.34571 752.5287
v -473.4615 33.94526 754.5275
v -473.4615 33.94526 754.5275
v -468.2019 34.33322 749.704
v -468.2019 34.33322 749.704
v -468.2995 34.33322 752.7025
v -468.2995 34.33322 752.7025
v -468.2995 34.33322 752.7025
v -468.2995 34.33322 752.7025
v -468.3647 33.93879 754.7014
v -468.3647 33.93879 754.7014
v -463.1705 34.32325 749.8571
v -463.1705 34.32325 749.8571
v -463.2545 34.32325 752.8559
v -463.2545 34.32325 752.8559
v -463.2545 34.32325 752.8559
v -463.2545 34.32325 752.8559
v -463.3105 33.93225 754.8551
v -463.3105 33.93225 754.8551

vn 0.004306049 0.9999908 0.0001181858
vn 0 0 0
vn 0.004312049 0.9999907 0.0001289121
vn 0 0 0
vn -0.002024213 0.9787117 0.2052297
vn 0 0 0
vn -0.00276069 0.9791117 0.203304
vn 0 0 0
vn 0.004091702 0.9999916 0.0001253392
vn 0 0 0
vn 0.003877042 0.9999925 0.0001285023
vn 0 0 0
vn -0.002905591 0.9792455 0.2026571
vn 0 0 0
vn -0.003360611 0.9795451 0.2011964
vn 0 0 0
vn 0.003549492 0.9999937 0.0001206958
vn 0 0 0
vn 0.003440707 0.999994 0.0001212751
vn 0 0 0
vn -0.00348837 0.9795823 0.2010137
vn 0 0 0
vn -0.004121682 0.979841 0.1997366
vn 0 0 0
vn 0.003194711 0.9999949 0.0001138254
vn 0 0 0
vn 0.003058693 0.9999953 0.0001095546
vn 0 0 0
vn -0.004397702 0.9800599 0.1986532
vn 0 0 0
vn -0.004671686 0.980364 0.1971407
vn 0 0 0
vn 0.002764807 0.9999962 9.840196E-05
vn 0 0 0
vn 0.002608025 0.9999966 8.991155E-05
vn 0 0 0
vn -0.004403142 0.980449 0.1967237
vn 0 0 0
vn -0.004782626 0.9807253 0.195333
vn 0 0 0
vn 0.002296456 0.9999974 7.707786E-05
vn 0 0 0
vn 0.002135642 0.9999976 6.657487E-05
vn 0 0 0
vn -0.004533015 0.9809124 0.194397
vn 0 0 0
vn -0.004624496 0.9812077 0.1928989
vn 0 0 0
vn 0.00197586 0.9999981 5.98642E-05
vn 0 0 0
vn 0.001973331 0.999998 5.530565E-05
vn 0 0 0
vn -0.004255362 0.9812606 0.1926383
vn 0 0 0
vn -0.004563923 0.98142 0.1918172
vn 0 0 0

vt 0 0
vt 0 0
vt 0.01646118 0.5997559
vt 0.01646118 0.5997559
vt 0.01646118 0.5997559
vt 0.01646118 0.5997559
vt 0.0274292 0.9995972
vt 0.0274292 0.9995972
vt -1.001099 0.03049316
vt -1.001099 0.03049316
vt -0.9817017 0.6301758
vt -0.9817017 0.6301758
vt -0.9817017 0.6301758
vt -0.9817017 0.6301758
vt -0.9687683 1.029956
vt -0.9687683 1.029956
vt -2.014887 0.06463623
vt -2.014887 0.06463623
vt -1.993976 0.66427
vt -1.993976 0.66427
vt -1.993976 0.66427
vt -1.993976 0.66427
vt -1.980035 1.064014
vt -1.980035 1.064014
vt -3.02735 0.1006714
vt -3.02735 0.1006714
vt -3.005744 0.7002808
vt -3.005744 0.7002808
vt -3.005744 0.7002808
vt -3.005744 0.7002808
vt -2.991333 1.100024
vt -2.991333 1.100024
vt -4.030511 0.1366577
vt -4.030511 0.1366577
vt -4.009314 0.7362793
vt -4.009314 0.7362793
vt -4.009314 0.7362793
vt -4.009314 0.7362793
vt -3.995184 1.136023
vt -3.995184 1.136023
vt -5.047107 0.1713379
vt -5.047107 0.1713379
vt -5.027576 0.7710205
vt -5.027576 0.7710205
vt -5.027576 0.7710205
vt -5.027576 0.7710205
vt -5.014551 1.170813
vt -5.014551 1.170813
vt -6.053388 0.2019531
vt -6.053388 0.2019531
vt -6.036579 0.801709
vt -6.036579 0.801709
vt -6.036579 0.801709
vt -6.036579 0.801709
vt -6.025373 1.20155
vt -6.025373 1.20155

usemtl GSDShoulder1
usemap GSDShoulder1
f 9/9/9 1/1/1 3/3/3
f 11/11/11 9/9/9 3/3/3
f 13/13/13 5/5/5 7/7/7
f 15/15/15 13/13/13 7/7/7
f 17/17/17 9/9/9 11/11/11
f 19/19/19 17/17/17 11/11/11
f 21/21/21 13/13/13 15/15/15
f 23/23/23 21/21/21 15/15/15
f 25/25/25 17/17/17 19/19/19
f 27/27/27 25/25/25 19/19/19
f 29/29/29 21/21/21 23/23/23
f 31/31/31 29/29/29 23/23/23
f 33/33/33 25/25/25 27/27/27
f 35/35/35 33/33/33 27/27/27
f 37/37/37 29/29/29 31/31/31
f 39/39/39 37/37/37 31/31/31
f 41/41/41 33/33/33 35/35/35
f 43/43/43 41/41/41 35/35/35
f 45/45/45 37/37/37 39/39/39
f 47/47/47 45/45/45 39/39/39
f 49/49/49 41/41/41 43/43/43
f 51/51/51 49/49/49 43/43/43
f 53/53/53 45/45/45 47/47/47
f 55/55/55 53/53/53 47/47/47
