mtllib ./Road1_0_57.mtl
g Markers28
v -47.01609 0.04 328.1476
v -47.01609 0.04 328.1476
v -56.74174 0.04 330.4739
v -56.74174 0.04 330.4739
v -45.88957 0.04 333.1581
v -45.88957 0.04 333.1581
v -55.67418 0.04 335.2224
v -55.67418 0.04 335.2224
v -44.8733 0.04 338.2738
v -44.8733 0.04 338.2738
v -54.70252 0.04 340.114
v -54.70252 0.04 340.114
v -43.98142 0.04 343.3
v -43.98142 0.04 343.3
v -53.84274 0.04 344.9596
v -53.84274 0.04 344.9596
v -43.16317 0.04 348.4115
v -43.16317 0.04 348.4115
v -53.0491 0.04 349.9176
v -53.0491 0.04 349.9176
v -42.42825 0.04 353.4614
v -42.42825 0.04 353.4614
v -52.33291 0.04 354.8389
v -52.33291 0.04 354.8389
v -41.75194 0.04 358.5371
v -41.75194 0.04 358.5371
v -51.6714 0.04 359.8038
v -51.6714 0.04 359.8038
v -41.12892 0.04 363.6162
v -41.12892 0.04 363.6162
v -51.06017 0.04 364.7868
v -51.06017 0.04 364.7868
v -40.55427 0.04 368.6783
v -40.55427 0.04 368.6783
v -50.49501 0.04 369.7654
v -50.49501 0.04 369.7654
v -40.02361 0.04 373.7044
v -40.02361 0.04 373.7044
v -49.97202 0.04 374.7188
v -49.97202 0.04 374.7188
v -39.52022 0.04 378.8099
v -39.52022 0.04 378.8099
v -49.47506 0.04 379.7592
v -49.47506 0.04 379.7592
v -39.0543 0.04 383.8502
v -39.0543 0.04 383.8502
v -49.01438 0.04 384.7429
v -49.01438 0.04 384.7429
v -38.61089 0.04 388.9459
v -38.61089 0.04 388.9459
v -48.57536 0.04 389.7881
v -48.57536 0.04 389.7881
v -38.19919 0.04 393.9511
v -38.19919 0.04 393.9511
v -48.16728 0.04 394.7494
v -48.16728 0.04 394.7494
v -37.80572 0.04 398.9904
v -37.80572 0.04 398.9904
v -47.77684 0.04 399.7498
v -47.77684 0.04 399.7498
v -37.42899 0.04 404.0541
v -37.42899 0.04 404.0541
v -47.40266 0.04 404.7793
v -47.40266 0.04 404.7793
v -37.0675 0.04 409.133
v -37.0675 0.04 409.133
v -47.04328 0.04 409.8285
v -47.04328 0.04 409.8285
v -36.7197 0.04 414.2184
v -36.7197 0.04 414.2184
v -46.69723 0.04 414.8883
v -46.69723 0.04 414.8883
v -36.38411 0.04 419.3007
v -36.38411 0.04 419.3007
v -46.36306 0.04 419.9492
v -46.36306 0.04 419.9492
v -36.05921 0.04 424.3711
v -36.05921 0.04 424.3711
v -46.03928 0.04 425.0021
v -46.03928 0.04 425.0021
v -35.74357 0.04 429.4195
v -35.74357 0.04 429.4195
v -45.72448 0.04 430.0371
v -45.72448 0.04 430.0371
v -35.4357 0.04 434.4365
v -35.4357 0.04 434.4365
v -45.4172 0.04 435.0446
v -45.4172 0.04 435.0446
v -35.12595 0.04 439.5483
v -35.12595 0.04 439.5483
v -45.10779 0.04 440.1506
v -45.10779 0.04 440.1506
v -34.82125 0.04 444.6066
v -34.82125 0.04 444.6066
v -44.80318 0.04 445.2076
v -44.80318 0.04 445.2076
v -34.51994 0.04 449.6025
v -34.51994 0.04 449.6025
v -44.50169 0.04 450.2064
v -44.50169 0.04 450.2064
v -34.21255 0.04 454.6541
v -34.21255 0.04 454.6541
v -44.19382 0.04 455.2658
v -44.19382 0.04 455.2658
v -33.89748 0.04 459.7437
v -33.89748 0.04 459.7437
v -43.87792 0.04 460.3687
v -43.87792 0.04 460.3687
v -33.5808 0.04 464.7281
v -33.5808 0.04 464.7281
v -43.56003 0.04 465.3722
v -43.56003 0.04 465.3722
v -33.25252 0.04 469.7173
v -33.25252 0.04 469.7173
v -43.23003 0.04 470.3876
v -43.23003 0.04 470.3876
v -32.90221 0.04 474.8035
v -32.90221 0.04 474.8035
v -42.87729 0.04 475.509
v -42.87729 0.04 475.509

vn -8.438125E-11 1 -3.527769E-10
vn 0 0 0
vn -8.176758E-11 1 -3.633439E-10
vn 0 0 0
vn -5.374337E-11 1 -2.38815E-10
vn 0 0 0
vn -2.551692E-11 1 -1.209462E-10
vn 0 0 0
vn 0 1 0
vn 0 0 0
vn 0 0.9999999 0
vn 0 0 0
vn 0 1 0
vn 0 0 0
vn 0 0.9999999 0
vn 0 0 0
vn 0 1 0
vn 0 0 0
vn 0 1 0
vn 0 0 0
vn 0 1 0
vn 0 0 0
vn 0 1 0
vn 0 0 0
vn 0 1 0
vn 0 0 0
vn 0 1 0
vn 0 0 0
vn 0 1 0
vn 0 0 0
vn 0 1 0
vn 0 0 0
vn 0 1 0
vn 0 0 0
vn 0 1 0
vn 0 0 0
vn 1.245935E-11 1 1.221907E-10
vn 0 0 0
vn 2.410235E-11 1 2.442859E-10
vn 0 0 0
vn 1.238443E-11 1 1.21456E-10
vn 0 0 0
vn -1.098887E-11 1 -1.226055E-10
vn 0 0 0
vn -2.260019E-11 1 -2.44338E-10
vn 0 0 0
vn -1.095089E-11 1 -1.221818E-10
vn 0 0 0
vn 0 1 0
vn 0 0 0
vn 0 0.9999999 0
vn 0 0 0
vn 9.876617E-12 1 1.233291E-10
vn 0 0 0
vn 1.928045E-11 1 2.468013E-10
vn 0 0 0
vn 4.780738E-13 0.9999999 -3.733779E-14
vn 0 0 0
vn -2.719317E-11 1 -3.681616E-10
vn 0 0 0
vn -2.747565E-11 1 -3.662889E-10
vn 0 0 0
vn -3.650658E-13 1 2.590247E-14
vn 0 0 0
vn 8.857364E-12 1 1.21812E-10
vn 0 0 0
vn -8.192791E-12 1 -1.220199E-10
vn 0 0 0
vn -8.487245E-12 1 -1.217468E-10
vn 0 0 0
vn 7.927568E-12 1 1.219876E-10
vn 0 0 0
vn 2.403022E-11 1 3.657269E-10
vn 0 0 0
vn 2.360186E-11 1 3.66482E-10
vn 0 0 0
vn 7.945641E-12 1 1.222657E-10
vn 0 0 0
vn -7.585171E-12 1 -1.225795E-10
vn 0 0 0
vn -1.537259E-11 1 -2.457456E-10
vn 0 0 0
vn -7.624529E-12 1 -1.232156E-10
vn 0 0 0
vn 0 1 0
vn 0 0 0
vn 0 1 0
vn 0 0 0
vn 0 1 0
vn 0 0 0
vn 0 1 0
vn 0 0 0
vn 0 1 0
vn 0 0 0
vn 0 1 0
vn 0 0 0
vn 0 1 0
vn 0 0 0
vn 0 1 0
vn 0 0 0
vn 0 1 0
vn 0 0 0
vn 0 1 0
vn 0 0 0
vn 0 1 0
vn 0 0 0
vn 0 1 0
vn 0 0 0
vn 0 1 0
vn 0 0 0
vn 0 0.9999999 0
vn 0 0 0
vn 0 1 0
vn 0 0 0
vn 0 1 0
vn 0 0 0
vn 0 1 0
vn 0 0 0
vn 0 0.9999999 0
vn 0 0 0

vt 0 451.825
vt 0 0
vt 1 451.825
vt 0 0
vt 0 452.8522
vt 0 452.8522
vt 1 452.8522
vt 1 452.8522
vt 0 453.8953
vt 0 453.8953
vt 1 453.8953
vt 1 453.8953
vt 0 454.9163
vt 0 454.9163
vt 1 454.9163
vt 1 454.9163
vt 0 455.9516
vt 0 455.9516
vt 1 455.9516
vt 1 455.9516
vt 0 456.9722
vt 0 456.9722
vt 1 456.9722
vt 1 456.9722
vt 0 457.9963
vt 0 457.9963
vt 1 457.9963
vt 1 457.9963
vt 0 459.0198
vt 0 459.0198
vt 1 459.0198
vt 1 459.0198
vt 0 460.0387
vt 0 460.0387
vt 1 460.0387
vt 1 460.0387
vt 0 461.0495
vt 0 461.0495
vt 1 461.0495
vt 1 461.0495
vt 0 462.0756
vt 0 462.0756
vt 1 462.0756
vt 1 462.0756
vt 0 463.0879
vt 0 463.0879
vt 1 463.0879
vt 1 463.0879
vt 0 464.1109
vt 0 464.1109
vt 1 464.1109
vt 1 464.1109
vt 0 465.1153
vt 0 465.1153
vt 1 465.1153
vt 1 465.1153
vt 0 466.1263
vt 0 466.1263
vt 1 466.1263
vt 1 466.1263
vt 0 467.1418
vt 0 467.1418
vt 1 467.1418
vt 1 467.1418
vt 0 468.1601
vt 0 468.1601
vt 1 468.1601
vt 1 468.1601
vt 0 469.1796
vt 0 469.1796
vt 1 469.1796
vt 1 469.1796
vt 0 470.1982
vt 0 470.1982
vt 1 470.1982
vt 1 470.1982
vt 0 471.2144
vt 0 471.2144
vt 1 471.2144
vt 1 471.2144
vt 0 472.226
vt 0 472.226
vt 1 472.226
vt 1 472.226
vt 0 473.2313
vt 0 473.2313
vt 1 473.2313
vt 1 473.2313
vt 0 474.2556
vt 0 474.2556
vt 1 474.2556
vt 1 474.2556
vt 0 475.269
vt 0 475.269
vt 1 475.269
vt 1 475.269
vt 0 476.2701
vt 0 476.2701
vt 1 476.2701
vt 1 476.2701
vt 0 477.2822
vt 0 477.2822
vt 1 477.2822
vt 1 477.2822
vt 0 478.3021
vt 0 478.3021
vt 1 478.3021
vt 1 478.3021
vt 0 479.301
vt 0 479.301
vt 1 479.301
vt 1 479.301
vt 0 480.301
vt 0 480.301
vt 1 480.301
vt 1 480.301
vt 0 481.3206
vt 0 0
vt 1 481.3206
vt 0 0

usemtl GSDWhiteYellowDouble
usemap GSDWhiteYellowDouble
f 5/5/5 1/1/1 3/3/3
f 7/7/7 5/5/5 3/3/3
f 9/9/9 5/5/5 7/7/7
f 11/11/11 9/9/9 7/7/7
f 13/13/13 9/9/9 11/11/11
f 15/15/15 13/13/13 11/11/11
f 17/17/17 13/13/13 15/15/15
f 19/19/19 17/17/17 15/15/15
f 21/21/21 17/17/17 19/19/19
f 23/23/23 21/21/21 19/19/19
f 25/25/25 21/21/21 23/23/23
f 27/27/27 25/25/25 23/23/23
f 29/29/29 25/25/25 27/27/27
f 31/31/31 29/29/29 27/27/27
f 33/33/33 29/29/29 31/31/31
f 35/35/35 33/33/33 31/31/31
f 37/37/37 33/33/33 35/35/35
f 39/39/39 37/37/37 35/35/35
f 41/41/41 37/37/37 39/39/39
f 43/43/43 41/41/41 39/39/39
f 45/45/45 41/41/41 43/43/43
f 47/47/47 45/45/45 43/43/43
f 49/49/49 45/45/45 47/47/47
f 51/51/51 49/49/49 47/47/47
f 53/53/53 49/49/49 51/51/51
f 55/55/55 53/53/53 51/51/51
f 57/57/57 53/53/53 55/55/55
f 59/59/59 57/57/57 55/55/55
f 61/61/61 57/57/57 59/59/59
f 63/63/63 61/61/61 59/59/59
f 65/65/65 61/61/61 63/63/63
f 67/67/67 65/65/65 63/63/63
f 69/69/69 65/65/65 67/67/67
f 71/71/71 69/69/69 67/67/67
f 73/73/73 69/69/69 71/71/71
f 75/75/75 73/73/73 71/71/71
f 77/77/77 73/73/73 75/75/75
f 79/79/79 77/77/77 75/75/75
f 81/81/81 77/77/77 79/79/79
f 83/83/83 81/81/81 79/79/79
f 85/85/85 81/81/81 83/83/83
f 87/87/87 85/85/85 83/83/83
f 89/89/89 85/85/85 87/87/87
f 91/91/91 89/89/89 87/87/87
f 93/93/93 89/89/89 91/91/91
f 95/95/95 93/93/93 91/91/91
f 97/97/97 93/93/93 95/95/95
f 99/99/99 97/97/97 95/95/95
f 101/101/101 97/97/97 99/99/99
f 103/103/103 101/101/101 99/99/99
f 105/105/105 101/101/101 103/103/103
f 107/107/107 105/105/105 103/103/103
f 109/109/109 105/105/105 107/107/107
f 111/111/111 109/109/109 107/107/107
f 113/113/113 109/109/109 111/111/111
f 115/115/115 113/113/113 111/111/111
f 117/117/117 113/113/113 115/115/115
f 119/119/119 117/117/117 115/115/115
