mtllib ./Road1_0_172.mtl
g SCutR33
v -55.99555 0.648136 836.3194
v -55.99555 0.648136 836.3194
v -56.81906 0.648136 833.4346
v -56.81906 0.648136 833.4346
v -56.81906 0.648136 833.4346
v -56.81906 0.648136 833.4346
v -57.36806 0.2008086 831.5115
v -57.36806 0.2008086 831.5115
v -60.26754 0.647976 837.2692
v -60.26754 0.647976 837.2692
v -60.71152 0.647976 834.3023
v -60.71152 0.647976 834.3023
v -60.71152 0.647976 834.3023
v -60.71152 0.647976 834.3023
v -61.0075 0.1769587 832.3243
v -61.0075 0.1769587 832.3243
v -64.71439 0.6302109 837.6705
v -64.71439 0.6302109 837.6705
v -64.83582 0.6302109 834.673
v -64.83582 0.6302109 834.673
v -64.83582 0.6302109 834.673
v -64.83582 0.6302109 834.673
v -64.91676 0.1369326 832.6747
v -64.91676 0.1369326 832.6747
v -69.37369 0.6016188 837.6837
v -69.37369 0.6016188 837.6837
v -69.28488 0.6016188 834.6851
v -69.28488 0.6016188 834.6851
v -69.28488 0.6016188 834.6851
v -69.28488 0.6016188 834.6851
v -69.22568 0.1078153 832.686
v -69.22568 0.1078153 832.686
v -74.23559 0.5655963 837.4165
v -74.23559 0.5655963 837.4165
v -74.00294 0.5655963 834.3951
v -74.00294 0.5655963 834.3951
v -74.00294 0.5655963 834.3951
v -74.00294 0.5655963 834.3951
v -73.84882 0.1078153 832.3934
v -73.84882 0.1078153 832.3934
v -79.06422 0.5261269 836.9645
v -79.06422 0.5261269 836.9645
v -78.73801 0.5261269 833.9471
v -78.73801 0.5261269 833.9471
v -78.73801 0.5261269 833.9471
v -78.73801 0.5261269 833.9471
v -78.52211 -0.005787075 831.9501
v -78.52211 -0.005787075 831.9501
v -83.97445 0.4838491 836.379
v -83.97445 0.4838491 836.379
v -83.58627 0.4838491 833.3657
v -83.58627 0.4838491 833.3657
v -83.58627 0.4838491 833.3657
v -83.58627 0.4838491 833.3657
v -83.32953 -0.005787075 831.3726
v -83.32953 -0.005787075 831.3726
v -88.90321 0.4403746 835.7098
v -88.90321 0.4403746 835.7098
v -88.47683 0.4403746 832.6992
v -88.47683 0.4403746 832.6992
v -88.47683 0.4403746 832.6992
v -88.47683 0.4403746 832.6992
v -88.19496 -0.005787075 830.7089
v -88.19496 -0.005787075 830.7089
v -93.92594 0.3958729 834.9789
v -93.92594 0.3958729 834.9789
v -93.47923 0.3958729 831.9697
v -93.47923 0.3958729 831.9697
v -93.47923 0.3958729 831.9697
v -93.47923 0.3958729 831.9697
v -93.18402 -0.1234511 829.981
v -93.18402 -0.1234511 829.981
v -98.87859 0.3524672 834.2374
v -98.87859 0.3524672 834.2374
v -98.42633 0.3524672 831.2283
v -98.42633 0.3524672 831.2283
v -98.42633 0.3524672 831.2283
v -98.42633 0.3524672 831.2283
v -98.12749 -0.1234511 829.2399
v -98.12749 -0.1234511 829.2399
v -103.8557 0.3098701 833.4931
v -103.8557 0.3098701 833.4931
v -103.4097 0.3098701 830.4831
v -103.4097 0.3098701 830.4831
v -103.4097 0.3098701 830.4831
v -103.4097 0.3098701 830.4831
v -103.115 -0.2450579 828.4941
v -103.115 -0.2450579 828.4941
v -108.8354 0.2687398 832.7678
v -108.8354 0.2687398 832.7678
v -108.4058 0.2687398 829.756
v -108.4058 0.2687398 829.756
v -108.4058 0.2687398 829.756
v -108.4058 0.2687398 829.756
v -108.1219 -0.2450579 827.7656
v -108.1219 -0.2450579 827.7656
v -113.9384 0.2285582 832.0611
v -113.9384 0.2285582 832.0611
v -113.535 0.2285582 829.047
v -113.535 0.2285582 829.047
v -113.535 0.2285582 829.047
v -113.535 0.2285582 829.047
v -113.2683 -0.2450579 827.0546
v -113.2683 -0.2450579 827.0546
v -119.0082 0.1909927 831.4105
v -119.0082 0.1909927 831.4105
v -118.639 0.1909927 828.3939
v -118.639 0.1909927 828.3939
v -118.639 0.1909927 828.3939
v -118.639 0.1909927 828.3939
v -118.3948 -0.3341416 826.399
v -118.3948 -0.3341416 826.399
v -124.1762 0.1554786 830.8137
v -124.1762 0.1554786 830.8137
v -123.8498 0.1554786 827.7947
v -123.8498 0.1554786 827.7947
v -123.8498 0.1554786 827.7947
v -123.8498 0.1554786 827.7947
v -123.6339 -0.3341416 825.7972
v -123.6339 -0.3341416 825.7972
v -129.282 0.1234857 830.3028
v -129.282 0.1234857 830.3028
v -129.0054 0.1234857 827.2819
v -129.0054 0.1234857 827.2819
v -129.0054 0.1234857 827.2819
v -129.0054 0.1234857 827.2819
v -128.8222 -0.3341416 825.2819
v -128.8222 -0.3341416 825.2819
v -134.4632 0.09449637 829.8767
v -134.4632 0.09449637 829.8767
v -134.2441 0.09449637 826.8546
v -134.2441 0.09449637 826.8546
v -134.2441 0.09449637 826.8546
v -134.2441 0.09449637 826.8546
v -134.099 -0.3341416 824.8524
v -134.099 -0.3341416 824.8524
v -139.7122 0.0690307 829.5522
v -139.7122 0.0690307 829.5522
v -139.5587 0.0690307 826.5302
v -139.5587 0.0690307 826.5302
v -139.5587 0.0690307 826.5302
v -139.5587 0.0690307 826.5302
v -139.4569 -0.3341416 824.5264
v -139.4569 -0.3341416 824.5264
v -144.863 0.04818428 829.3503
v -144.863 0.04818428 829.3503
v -144.7814 0.04818428 826.3514
v -144.7814 0.04818428 826.3514
v -144.7814 0.04818428 826.3514
v -144.7814 0.04818428 826.3514
v -144.7269 -0.3341416 824.3522
v -144.7269 -0.3341416 824.3522
v -150.0628 0.03162992 829.2755
v -150.0628 0.03162992 829.2755
v -150.0593 0.03162992 826.2756
v -150.0593 0.03162992 826.2756
v -150.0593 0.03162992 826.2756
v -150.0593 0.03162992 826.2756
v -150.057 -0.3341416 824.2756
v -150.057 -0.3341416 824.2756

vn -3.521334E-05 1 1.005225E-05
vn 0 0 0
vn -3.738645E-05 1 8.097954E-06
vn 0 0 0
vn -0.04760583 0.9758081 -0.2133835
vn 0 0 0
vn -0.05179022 0.9745308 -0.2181918
vn 0 0 0
vn -0.001396555 0.999999 0.0002106159
vn 0 0 0
vn -0.002822162 0.999996 0.0002682182
vn 0 0 0
vn -0.0423223 0.9742026 -0.2216713
vn 0 0 0
vn -0.03686428 0.9724866 -0.2300238
vn 0 0 0
vn -0.004822016 0.9999883 0.0003400479
vn 0 0 0
vn -0.005657483 0.999984 7.779233E-05
vn 0 0 0
vn -0.02043037 0.9716983 -0.2353401
vn 0 0 0
vn -0.01454242 0.9708407 -0.2392839
vn 0 0 0
vn -0.006667857 0.9999778 -5.407689E-05
vn 0 0 0
vn -0.007159177 0.9999743 -0.0003340333
vn 0 0 0
vn -0.002005238 0.9708548 -0.2396604
vn 0 0 0
vn 0.005021718 0.9722854 -0.2337434
vn 0 0 0
vn -0.007705199 0.9999702 -0.0004759514
vn 0 0 0
vn -0.007990086 0.9999679 -0.0007004967
vn 0 0 0
vn 0.01139495 0.9736264 -0.2278632
vn 0 0 0
vn 0.009246476 0.9722318 -0.233837
vn 0 0 0
vn -0.00829053 0.9999653 -0.000812237
vn 0 0 0
vn -0.008448099 0.9999639 -0.0009729184
vn 0 0 0
vn 0.01212059 0.9694636 -0.2449356
vn 0 0 0
vn 0.01726983 0.9683176 -0.2491238
vn 0 0 0
vn -0.008585544 0.9999626 -0.001047218
vn 0 0 0
vn -0.008659173 0.9999619 -0.001152741
vn 0 0 0
vn 0.02461048 0.9699755 -0.2419544
vn 0 0 0
vn 0.02698702 0.9731743 -0.2284808
vn 0 0 0
vn -0.008689951 0.9999616 -0.001193879
vn 0 0 0
vn -0.008702792 0.9999614 -0.001252465
vn 0 0 0
vn 0.02514588 0.9747258 -0.221985
vn 0 0 0
vn 0.02184751 0.9735979 -0.2272219
vn 0 0 0
vn -0.00865406 0.9999618 -0.001264817
vn 0 0 0
vn -0.008620568 0.999962 -0.001284964
vn 0 0 0
vn 0.02173826 0.9709341 -0.2383578
vn 0 0 0
vn 0.02550714 0.9698333 -0.2424312
vn 0 0 0
vn -0.00850767 0.999963 -0.00127339
vn 0 0 0
vn -0.008437279 0.9999636 -0.001262129
vn 0 0 0
vn 0.02960142 0.9715102 -0.235142
vn 0 0 0
vn 0.02542429 0.9701285 -0.2412558
vn 0 0 0
vn -0.008272477 0.999965 -0.001231631
vn 0 0 0
vn -0.008170623 0.9999659 -0.001195676
vn 0 0 0
vn 0.02427391 0.967051 -0.2534226
vn 0 0 0
vn 0.02751121 0.9655769 -0.2586589
vn 0 0 0
vn -0.007955263 0.9999676 -0.001149408
vn 0 0 0
vn -0.007824025 0.9999688 -0.001093206
vn 0 0 0
vn 0.0308509 0.9672617 -0.2518986
vn 0 0 0
vn 0.03113176 0.970402 -0.23948
vn 0 0 0
vn -0.007566649 0.9999708 -0.001035463
vn 0 0 0
vn -0.007408243 0.9999721 -0.0009639978
vn 0 0 0
vn 0.02665287 0.9718705 -0.234003
vn 0 0 0
vn 0.02299118 0.9714403 -0.2361679
vn 0 0 0
vn -0.007100645 0.9999744 -0.0008967239
vn 0 0 0
vn -0.006916317 0.9999757 -0.0008142143
vn 0 0 0
vn 0.01999047 0.9694467 -0.2444861
vn 0 0 0
vn 0.0216695 0.9688683 -0.2466267
vn 0 0 0
vn -0.006570993 0.9999781 -0.000742753
vn 0 0 0
vn -0.006362042 0.9999796 -0.0006540075
vn 0 0 0
vn 0.02231963 0.9702245 -0.2411771
vn 0 0 0
vn 0.02218021 0.9727296 -0.2308791
vn 0 0 0
vn -0.005966007 0.999982 -0.000580334
vn 0 0 0
vn -0.005733333 0.9999834 -0.0004898132
vn 0 0 0
vn 0.01736567 0.9738778 -0.2264075
vn 0 0 0
vn 0.01718847 0.9760134 -0.2170304
vn 0 0 0
vn -0.005293782 0.9999859 -0.0004188457
vn 0 0 0
vn -0.005034848 0.9999873 -0.0003301384
vn 0 0 0
vn 0.01255891 0.9769872 -0.2129282
vn 0 0 0
vn 0.01231176 0.9787892 -0.2045003
vn 0 0 0
vn -0.004553031 0.9999895 -0.0002662808
vn 0 0 0
vn -0.004272944 0.9999908 -0.0001859216
vn 0 0 0
vn 0.007660746 0.9795887 -0.2008662
vn 0 0 0
vn 0.007043485 0.9810101 -0.1938288
vn 0 0 0
vn -0.003736831 0.999993 -0.0001334041
vn 0 0 0
vn -0.003434959 0.9999941 -6.60382E-05
vn 0 0 0
vn 0.002883751 0.9816117 -0.1908668
vn 0 0 0
vn 0.002800902 0.9827113 -0.1851238
vn 0 0 0
vn -0.003159245 0.9999951 -4.482441E-05
vn 0 0 0
vn -0.003136433 0.9999951 -3.621342E-06
vn 0 0 0
vn 0.001109624 0.9829525 -0.1838568
vn 0 0 0
vn 0.002587393 0.9836818 -0.1798984
vn 0 0 0

vt 0 0
vt 0 0
vt 0.1647011 -0.5769531
vt 0.1647011 -0.5769531
vt 0.1647011 -0.5769531
vt 0.1647011 -0.5769531
vt 0.2745018 -0.9615845
vt 0.2745018 -0.9615845
vt 0.8543976 0.1899658
vt 0.8543976 0.1899658
vt 0.9431931 -0.403418
vt 0.9431931 -0.403418
vt 0.9431931 -0.403418
vt 0.9431931 -0.403418
vt 1.00239 -0.7990112
vt 1.00239 -0.7990112
vt 1.743768 0.270227
vt 1.743768 0.270227
vt 1.768053 -0.3292725
vt 1.768053 -0.3292725
vt 1.768053 -0.3292725
vt 1.768053 -0.3292725
vt 1.784242 -0.7289429
vt 1.784242 -0.7289429
vt 2.675627 0.2728638
vt 2.675627 0.2728638
vt 2.657866 -0.3268677
vt 2.657866 -0.3268677
vt 2.657866 -0.3268677
vt 2.657866 -0.3268677
vt 2.646025 -0.7266846
vt 2.646025 -0.7266846
vt 3.648007 0.2194214
vt 3.648007 0.2194214
vt 3.601479 -0.3848633
vt 3.601479 -0.3848633
vt 3.601479 -0.3848633
vt 3.601479 -0.3848633
vt 3.570653 -0.7851929
vt 3.570653 -0.7851929
vt 4.613735 0.1290161
vt 4.613735 0.1290161
vt 4.548492 -0.4744507
vt 4.548492 -0.4744507
vt 4.548492 -0.4744507
vt 4.548492 -0.4744507
vt 4.505311 -0.8738526
vt 4.505311 -0.8738526
vt 5.595779 0.01192627
vt 5.595779 0.01192627
vt 5.518144 -0.5907471
vt 5.518144 -0.5907471
vt 5.518144 -0.5907471
vt 5.518144 -0.5907471
vt 5.466795 -0.9893677
vt 5.466795 -0.9893677
vt 6.581531 -0.1219238
vt 6.581531 -0.1219238
vt 6.496255 -0.7240478
vt 6.496255 -0.7240478
vt 6.496255 -0.7240478
vt 6.496255 -0.7240478
vt 6.439882 -1.122095
vt 6.439882 -1.122095
vt 7.586078 -0.2680908
vt 7.586078 -0.2680908
vt 7.496736 -0.8699341
vt 7.496736 -0.8699341
vt 7.496736 -0.8699341
vt 7.496736 -0.8699341
vt 7.437694 -1.267676
vt 7.437694 -1.267676
vt 8.576609 -0.4163941
vt 8.576609 -0.4163941
vt 8.486156 -1.018225
vt 8.486156 -1.018225
vt 8.486156 -1.018225
vt 8.486156 -1.018225
vt 8.426387 -1.415894
vt 8.426387 -1.415894
vt 9.572029 -0.5652588
vt 9.572029 -0.5652588
vt 9.482834 -1.167261
vt 9.482834 -1.167261
vt 9.482834 -1.167261
vt 9.482834 -1.167261
vt 9.423897 -1.565063
vt 9.423897 -1.565063
vt 10.56796 -0.7103271
vt 10.56796 -0.7103271
vt 10.48205 -1.312683
vt 10.48205 -1.312683
vt 10.48205 -1.312683
vt 10.48205 -1.312683
vt 10.42528 -1.710754
vt 10.42528 -1.710754
vt 11.58858 -0.8516602
vt 11.58858 -0.8516602
vt 11.50788 -1.45448
vt 11.50788 -1.45448
vt 11.50788 -1.45448
vt 11.50788 -1.45448
vt 11.45454 -1.852966
vt 11.45454 -1.852966
vt 12.60253 -0.9817871
vt 12.60253 -0.9817871
vt 12.52869 -1.585107
vt 12.52869 -1.585107
vt 12.52869 -1.585107
vt 12.52869 -1.585107
vt 12.47986 -1.98407
vt 12.47986 -1.98407
vt 13.63613 -1.101148
vt 13.63613 -1.101148
vt 13.57085 -1.704944
vt 13.57085 -1.704944
vt 13.57085 -1.704944
vt 13.57085 -1.704944
vt 13.52766 -2.104443
vt 13.52766 -2.104443
vt 14.6573 -1.20332
vt 14.6573 -1.20332
vt 14.60196 -1.807507
vt 14.60196 -1.807507
vt 14.60196 -1.807507
vt 14.60196 -1.807507
vt 14.56532 -2.207507
vt 14.56532 -2.207507
vt 15.69352 -1.288538
vt 15.69352 -1.288538
vt 15.64971 -1.892957
vt 15.64971 -1.892957
vt 15.64971 -1.892957
vt 15.64971 -1.892957
vt 15.62069 -2.293408
vt 15.62069 -2.293408
vt 16.74332 -1.353442
vt 16.74332 -1.353442
vt 16.71263 -1.957837
vt 16.71263 -1.957837
vt 16.71263 -1.957837
vt 16.71263 -1.957837
vt 16.69228 -2.358606
vt 16.69228 -2.358606
vt 17.77349 -1.393811
vt 17.77349 -1.393811
vt 17.75716 -1.993591
vt 17.75716 -1.993591
vt 17.75716 -1.993591
vt 17.75716 -1.993591
vt 17.74627 -2.393433
vt 17.74627 -2.393433
vt 18.81345 -1.408777
vt 18.81345 -1.408777
vt 18.81276 -2.008765
vt 18.81276 -2.008765
vt 18.81276 -2.008765
vt 18.81276 -2.008765
vt 18.81229 -2.408765
vt 18.81229 -2.408765

usemtl GSDShoulder1
usemap GSDShoulder1
f 9/9/9 1/1/1 3/3/3
f 11/11/11 9/9/9 3/3/3
f 13/13/13 5/5/5 7/7/7
f 15/15/15 13/13/13 7/7/7
f 17/17/17 9/9/9 11/11/11
f 19/19/19 17/17/17 11/11/11
f 21/21/21 13/13/13 15/15/15
f 23/23/23 21/21/21 15/15/15
f 25/25/25 17/17/17 19/19/19
f 27/27/27 25/25/25 19/19/19
f 29/29/29 21/21/21 23/23/23
f 31/31/31 29/29/29 23/23/23
f 33/33/33 25/25/25 27/27/27
f 35/35/35 33/33/33 27/27/27
f 37/37/37 29/29/29 31/31/31
f 39/39/39 37/37/37 31/31/31
f 41/41/41 33/33/33 35/35/35
f 43/43/43 41/41/41 35/35/35
f 45/45/45 37/37/37 39/39/39
f 47/47/47 45/45/45 39/39/39
f 49/49/49 41/41/41 43/43/43
f 51/51/51 49/49/49 43/43/43
f 53/53/53 45/45/45 47/47/47
f 55/55/55 53/53/53 47/47/47
f 57/57/57 49/49/49 51/51/51
f 59/59/59 57/57/57 51/51/51
f 61/61/61 53/53/53 55/55/55
f 63/63/63 61/61/61 55/55/55
f 65/65/65 57/57/57 59/59/59
f 67/67/67 65/65/65 59/59/59
f 69/69/69 61/61/61 63/63/63
f 71/71/71 69/69/69 63/63/63
f 73/73/73 65/65/65 67/67/67
f 75/75/75 73/73/73 67/67/67
f 77/77/77 69/69/69 71/71/71
f 79/79/79 77/77/77 71/71/71
f 81/81/81 73/73/73 75/75/75
f 83/83/83 81/81/81 75/75/75
f 85/85/85 77/77/77 79/79/79
f 87/87/87 85/85/85 79/79/79
f 89/89/89 81/81/81 83/83/83
f 91/91/91 89/89/89 83/83/83
f 93/93/93 85/85/85 87/87/87
f 95/95/95 93/93/93 87/87/87
f 97/97/97 89/89/89 91/91/91
f 99/99/99 97/97/97 91/91/91
f 101/101/101 93/93/93 95/95/95
f 103/103/103 101/101/101 95/95/95
f 105/105/105 97/97/97 99/99/99
f 107/107/107 105/105/105 99/99/99
f 109/109/109 101/101/101 103/103/103
f 111/111/111 109/109/109 103/103/103
f 113/113/113 105/105/105 107/107/107
f 115/115/115 113/113/113 107/107/107
f 117/117/117 109/109/109 111/111/111
f 119/119/119 117/117/117 111/111/111
f 121/121/121 113/113/113 115/115/115
f 123/123/123 121/121/121 115/115/115
f 125/125/125 117/117/117 119/119/119
f 127/127/127 125/125/125 119/119/119
f 129/129/129 121/121/121 123/123/123
f 131/131/131 129/129/129 123/123/123
f 133/133/133 125/125/125 127/127/127
f 135/135/135 133/133/133 127/127/127
f 137/137/137 129/129/129 131/131/131
f 139/139/139 137/137/137 131/131/131
f 141/141/141 133/133/133 135/135/135
f 143/143/143 141/141/141 135/135/135
f 145/145/145 137/137/137 139/139/139
f 147/147/147 145/145/145 139/139/139
f 149/149/149 141/141/141 143/143/143
f 151/151/151 149/149/149 143/143/143
f 153/153/153 145/145/145 147/147/147
f 155/155/155 153/153/153 147/147/147
f 157/157/157 149/149/149 151/151/151
f 159/159/159 157/157/157 151/151/151
