mtllib ./Road1_0_39.mtl
g Markers19
v -502.3169 22.5141 32.47011
v -502.3169 22.5141 32.47011
v -501.2506 22.5141 42.38104
v -501.2506 22.5141 42.38104
v -497.6065 22.10595 31.85904
v -497.6065 22.10595 31.85904
v -495.8337 22.10595 41.66873
v -495.8337 22.10595 41.66873
v -493.5027 21.71435 30.7946
v -493.5027 21.71435 30.7946
v -490.2628 21.71435 40.22414
v -490.2628 21.71435 40.22414
v -488.6992 21.32866 29.03454
v -488.6992 21.32866 29.03454
v -485.5885 21.32866 38.50708
v -485.5885 21.32866 38.50708
v -482.8781 20.92543 27.69547
v -482.8781 20.92543 27.69547
v -481.4844 20.92543 37.56549
v -481.4844 20.92543 37.56549
v -477.3114 20.51725 27.23652
v -477.3114 20.51725 27.23652
v -476.9654 20.51725 37.19804
v -476.9654 20.51725 37.19804
v -471.8342 20.0983 27.21941
v -471.8342 20.0983 27.21941
v -472.0663 20.0983 37.18433
v -472.0663 20.0983 37.18433

vn 0.08514035 0.9963268 -0.009159973
vn 0 0 0
vn 0.07886264 0.9968208 -0.01135335
vn 0 0 0
vn 0.08235307 0.9965206 -0.01283369
vn 0 0 0
vn 0.07481908 0.9970449 -0.01742118
vn 0 0 0
vn 0.07407814 0.9970249 -0.0213036
vn 0 0 0
vn 0.06940158 0.9973121 -0.02349487
vn 0 0 0
vn 0.06928516 0.9973295 -0.02309724
vn 0 0 0
vn 0.0757419 0.9969279 -0.01994596
vn 0 0 0
vn 0.07525568 0.9970487 -0.01517521
vn 0 0 0
vn 0.08440146 0.9963922 -0.008891712
vn 0 0 0
vn 0.07875394 0.996879 -0.00548896
vn 0 0 0
vn 0.08329275 0.9965244 -0.00126791
vn 0 0 0
vn 0.08048841 0.9967555 -0.0004602861
vn 0 0 0
vn 0.08521026 0.996361 0.001984312
vn 0 0 0

vt 0 331.7834
vt 0 0
vt 1 331.7834
vt 0 0
vt 0 332.7369
vt 0 332.7369
vt 1 332.7369
vt 1 332.7369
vt 0 333.5884
vt 0 333.5884
vt 1 333.5884
vt 1 333.5884
vt 0 334.6145
vt 0 334.6145
vt 1 334.6145
vt 1 334.6145
vt 0 335.8118
vt 0 335.8118
vt 1 335.8118
vt 1 335.8118
vt 0 336.9319
vt 0 336.9319
vt 1 336.9319
vt 1 336.9319
vt 0 338.0305
vt 0 338.0305
vt 1 338.0305
vt 1 338.0305

usemtl GSDWhiteYellowDouble
usemap GSDWhiteYellowDouble
f 5/5/5 1/1/1 3/3/3
f 7/7/7 5/5/5 3/3/3
f 9/9/9 5/5/5 7/7/7
f 11/11/11 9/9/9 7/7/7
f 13/13/13 9/9/9 11/11/11
f 15/15/15 13/13/13 11/11/11
f 17/17/17 13/13/13 15/15/15
f 19/19/19 17/17/17 15/15/15
f 21/21/21 17/17/17 19/19/19
f 23/23/23 21/21/21 19/19/19
f 25/25/25 21/21/21 23/23/23
f 27/27/27 25/25/25 23/23/23
