mtllib ./Road1_0_15.mtl
g Markers7
v -677.9603 72.07655 582.3854
v -677.9603 72.07655 582.3854
v -676.4216 72.07655 572.5055
v -676.4216 72.07655 572.5055
v -682.8994 72.06715 581.6298
v -682.8994 72.06715 581.6298
v -681.4673 72.06715 571.7332
v -681.4673 72.06715 571.7332
v -687.8077 72.15503 580.9628
v -687.8077 72.15503 580.9628
v -686.5452 72.15503 571.0462
v -686.5452 72.15503 571.0462
v -692.7649 72.32663 580.362
v -692.7649 72.32663 580.362
v -691.6252 72.32663 570.4359
v -691.6252 72.32663 570.4359
v -697.7593 72.573 579.8066
v -697.7593 72.573 579.8066
v -696.6963 72.573 569.8786
v -696.6963 72.573 569.8786
v -702.7806 72.88533 579.2749
v -702.7806 72.88533 579.2749
v -701.7487 72.88533 569.3512
v -701.7487 72.88533 569.3512
v -707.8177 73.2547 578.7452
v -707.8177 73.2547 578.7452
v -706.7711 73.2547 568.8308
v -706.7711 73.2547 568.8308
v -712.8597 73.67223 578.1954
v -712.8597 73.67223 578.1954
v -711.7524 73.67223 568.2949
v -711.7524 73.67223 568.2949
v -717.8959 74.129 577.6028
v -717.8959 74.129 577.6028
v -716.6812 74.129 567.7217
v -716.6812 74.129 567.7217
v -722.9165 74.6162 576.9446
v -722.9165 74.6162 576.9446
v -721.5466 74.6162 567.0895
v -721.5466 74.6162 567.0895
v -728.0388 75.13815 576.1767
v -728.0388 75.13815 576.1767
v -726.4586 75.13815 566.3576
v -726.4586 75.13815 566.3576
v -733.1227 75.67316 575.2892
v -733.1227 75.67316 575.2892
v -731.2791 75.67316 565.519
v -731.2791 75.67316 565.519
v -738.1576 76.21161 574.2557
v -738.1576 76.21161 574.2557
v -735.9956 76.21161 564.552
v -735.9956 76.21161 564.552
v -743.2551 76.75706 573.0168
v -743.2551 76.75706 573.0168
v -740.709 76.75706 563.4053
v -740.709 76.75706 563.4053
v -748.277 77.28581 571.5662
v -748.277 77.28581 571.5662
v -745.2881 77.28581 562.0795
v -745.2881 77.28581 562.0795
v -753.3278 77.79923 569.8293
v -753.3278 77.79923 569.8293
v -749.8267 77.79923 560.5133
v -749.8267 77.79923 560.5133
v -758.2681 78.27314 567.8056
v -758.2681 78.27314 567.8056
v -754.2006 78.27314 558.7141
v -754.2006 78.27314 558.7141

vn -0.001858799 0.9999982 -0.0002894899
vn 0 0 0
vn -0.001840446 0.9999982 -0.0002764605
vn 0 0 0
vn 0.004542864 0.9999894 0.0006505249
vn 0 0 0
vn 0.01085757 0.9999399 0.001471289
vn 0 0 0
vn 0.02284475 0.9997345 0.003008855
vn 0 0 0
vn 0.02807575 0.9995999 0.003434723
vn 0 0 0
vn 0.03865281 0.9992422 0.004578437
vn 0 0 0
vn 0.0432695 0.9990517 0.004843632
vn 0 0 0
vn 0.0526583 0.9985959 0.005762878
vn 0 0 0
vn 0.0567766 0.9983687 0.006016415
vn 0 0 0
vn 0.06492536 0.9978669 0.006814511
vn 0 0 0
vn 0.06863709 0.9976159 0.007175645
vn 0 0 0
vn 0.07550402 0.9971139 0.007932682
vn 0 0 0
vn 0.07888943 0.9968471 0.008499561
vn 0 0 0
vn 0.08443648 0.9963856 0.009272157
vn 0 0 0
vn 0.08755624 0.9961081 0.01012534
vn 0 0 0
vn 0.0917398 0.9957229 0.01094569
vn 0 0 0
vn 0.09463292 0.9954381 0.01215031
vn 0 0 0
vn 0.09742814 0.9951571 0.01303205
vn 0 0 0
vn 0.1001302 0.9948662 0.01466499
vn 0 0 0
vn 0.1014191 0.9947217 0.01558447
vn 0 0 0
vn 0.1039044 0.9944301 0.01768791
vn 0 0 0
vn 0.1036232 0.9944428 0.01859342
vn 0 0 0
vn 0.1058347 0.9941584 0.0211711
vn 0 0 0
vn 0.1038368 0.994352 0.02195428
vn 0 0 0
vn 0.1057003 0.9940829 0.02503049
vn 0 0 0
vn 0.101959 0.9944603 0.02555465
vn 0 0 0
vn 0.1033429 0.9942209 0.02907103
vn 0 0 0
vn 0.09766335 0.9947937 0.02910696
vn 0 0 0
vn 0.09840257 0.9946011 0.03295203
vn 0 0 0
vn 0.0909404 0.9953336 0.03226393
vn 0 0 0
vn 0.09084869 0.9952059 0.03621664
vn 0 0 0
vn 0.08668326 0.9955981 0.03564134
vn 0 0 0
vn 0.09105138 0.9950127 0.04073583
vn 0 0 0

vt 0 138.5282
vt 0 0
vt 1 138.5282
vt 0 0
vt 0 139.5275
vt 0 139.5275
vt 1 139.5275
vt 1 139.5275
vt 0 140.5184
vt 0 140.5184
vt 1 140.5184
vt 1 140.5184
vt 0 141.5177
vt 0 141.5177
vt 1 141.5177
vt 1 141.5177
vt 0 142.5239
vt 0 142.5239
vt 1 142.5239
vt 1 142.5239
vt 0 143.5357
vt 0 143.5357
vt 1 143.5357
vt 1 143.5357
vt 0 144.5514
vt 0 144.5514
vt 1 144.5514
vt 1 144.5514
vt 0 145.5692
vt 0 145.5692
vt 1 145.5692
vt 1 145.5692
vt 0 146.5875
vt 0 146.5875
vt 1 146.5875
vt 1 146.5875
vt 0 147.6049
vt 0 147.6049
vt 1 147.6049
vt 1 147.6049
vt 0 148.646
vt 0 148.646
vt 1 148.646
vt 1 148.646
vt 0 149.6837
vt 0 149.6837
vt 1 149.6837
vt 1 149.6837
vt 0 150.7173
vt 0 150.7173
vt 1 150.7173
vt 1 150.7173
vt 0 151.7722
vt 0 151.7722
vt 1 151.7722
vt 1 151.7722
vt 0 152.823
vt 0 152.823
vt 1 152.823
vt 1 152.823
vt 0 153.8961
vt 0 153.8961
vt 1 153.8961
vt 1 153.8961
vt 0 154.968
vt 0 154.968
vt 1 154.968
vt 1 154.968

usemtl GSDWhiteYellowDouble
usemap GSDWhiteYellowDouble
f 5/5/5 1/1/1 3/3/3
f 7/7/7 5/5/5 3/3/3
f 9/9/9 5/5/5 7/7/7
f 11/11/11 9/9/9 7/7/7
f 13/13/13 9/9/9 11/11/11
f 15/15/15 13/13/13 11/11/11
f 17/17/17 13/13/13 15/15/15
f 19/19/19 17/17/17 15/15/15
f 21/21/21 17/17/17 19/19/19
f 23/23/23 21/21/21 19/19/19
f 25/25/25 21/21/21 23/23/23
f 27/27/27 25/25/25 23/23/23
f 29/29/29 25/25/25 27/27/27
f 31/31/31 29/29/29 27/27/27
f 33/33/33 29/29/29 31/31/31
f 35/35/35 33/33/33 31/31/31
f 37/37/37 33/33/33 35/35/35
f 39/39/39 37/37/37 35/35/35
f 41/41/41 37/37/37 39/39/39
f 43/43/43 41/41/41 39/39/39
f 45/45/45 41/41/41 43/43/43
f 47/47/47 45/45/45 43/43/43
f 49/49/49 45/45/45 47/47/47
f 51/51/51 49/49/49 47/47/47
f 53/53/53 49/49/49 51/51/51
f 55/55/55 53/53/53 51/51/51
f 57/57/57 53/53/53 55/55/55
f 59/59/59 57/57/57 55/55/55
f 61/61/61 57/57/57 59/59/59
f 63/63/63 61/61/61 59/59/59
f 65/65/65 61/61/61 63/63/63
f 67/67/67 65/65/65 63/63/63
