mtllib ./Road1_0_185.mtl
g SCutR46
v -820.6371 14.12091 671.5223
v -820.6371 14.12091 671.5223
v -821.5871 14.12091 674.4631
v -821.5871 14.12091 674.4631
v -821.5871 14.12091 674.4631
v -821.5871 14.12091 674.4631
v -822.2079 12.21664 676.3851
v -822.2079 12.21664 676.3851
v -815.7084 14.44761 673.0103
v -815.7084 14.44761 673.0103
v -816.5904 14.44761 675.9682
v -816.5904 14.44761 675.9682
v -816.5904 14.44761 675.9682
v -816.5904 14.44761 675.9682
v -817.1674 13.30542 677.9033
v -817.1674 13.30542 677.9033
v -810.9786 14.74797 674.4915
v -810.9786 14.74797 674.4915
v -811.9426 14.74797 677.4188
v -811.9426 14.74797 677.4188
v -811.9426 14.74797 677.4188
v -811.9426 14.74797 677.4188
v -812.5739 13.83974 679.336
v -812.5739 13.83974 679.336
v -806.4357 15.01709 676.0781
v -806.4357 15.01709 676.0781
v -807.5055 15.01709 678.9639
v -807.5055 15.01709 678.9639
v -807.5055 15.01709 678.9639
v -807.5055 15.01709 678.9639
v -808.2068 13.83974 680.8559
v -808.2068 13.83974 680.8559
v -801.9213 15.27162 677.8697
v -801.9213 15.27162 677.8697
v -803.1238 15.27162 680.6987
v -803.1238 15.27162 680.6987
v -803.1238 15.27162 680.6987
v -803.1238 15.27162 680.6987
v -803.9129 14.24502 682.5551
v -803.9129 14.24502 682.5551
v -797.6107 15.50745 679.8425
v -797.6107 15.50745 679.8425
v -798.9684 15.50745 682.5968
v -798.9684 15.50745 682.5968
v -798.9684 15.50745 682.5968
v -798.9684 15.50745 682.5968
v -799.8599 14.67272 684.4054
v -799.8599 14.67272 684.4054
v -793.4513 15.73279 682.0642
v -793.4513 15.73279 682.0642
v -794.9889 15.73279 684.7191
v -794.9889 15.73279 684.7191
v -794.9889 15.73279 684.7191
v -794.9889 15.73279 684.7191
v -795.9992 14.97366 686.4634
v -795.9992 14.97366 686.4634

vn -0.06027272 0.9979921 -0.01947001
vn 0 0 0
vn -0.06007342 0.9980196 -0.01865737
vn 0 0 0
vn -0.2411247 0.7272453 0.6426299
vn 0 0 0
vn -0.2751904 0.794179 0.5418023
vn 0 0 0
vn -0.05939505 0.9980683 -0.01821458
vn 0 0 0
vn -0.05880168 0.9981052 -0.01812225
vn 0 0 0
vn -0.2526371 0.8180818 0.5166398
vn 0 0 0
vn -0.2446903 0.8784261 0.4104803
vn 0 0 0
vn -0.05652745 0.9982387 -0.01800273
vn 0 0 0
vn -0.0550818 0.9983037 -0.01886295
vn 0 0 0
vn -0.2001601 0.8961164 0.3961203
vn 0 0 0
vn -0.1894405 0.8953937 0.4029673
vn 0 0 0
vn -0.05189811 0.998481 -0.01850256
vn 0 0 0
vn -0.05076767 0.998516 -0.01971097
vn 0 0 0
vn -0.1936251 0.879688 0.4343484
vn 0 0 0
vn -0.2111198 0.8725643 0.4405225
vn 0 0 0
vn -0.04816289 0.9986478 -0.01956666
vn 0 0 0
vn -0.04722458 0.9986616 -0.02109649
vn 0 0 0
vn -0.2326744 0.8804945 0.4130278
vn 0 0 0
vn -0.2357463 0.9003891 0.365682
vn 0 0 0
vn -0.04493431 0.998767 -0.02110027
vn 0 0 0
vn -0.04409225 0.9987637 -0.02295253
vn 0 0 0
vn -0.2299959 0.9115314 0.3408996
vn 0 0 0
vn -0.2268313 0.9261172 0.3014208
vn 0 0 0
vn -0.0430178 0.9988089 -0.02302602
vn 0 0 0
vn -0.04320846 0.9987525 -0.02502489
vn 0 0 0
vn -0.2212697 0.9285344 0.2981002
vn 0 0 0
vn -0.2213247 0.9345772 0.2785332
vn 0 0 0

vt 0 0
vt 0 0
vt 0.1899902 0.588147
vt 0.1899902 0.588147
vt 0.1899902 0.588147
vt 0.1899902 0.588147
vt 0.3141602 0.9725586
vt 0.3141602 0.9725586
vt -0.9857544 0.2975952
vt -0.9857544 0.2975952
vt -0.8093506 0.8891724
vt -0.8093506 0.8891724
vt -0.8093506 0.8891724
vt -0.8093506 0.8891724
vt -0.6939453 1.276184
vt -0.6939453 1.276184
vt -1.931702 0.5938233
vt -1.931702 0.5938233
vt -1.738916 1.179285
vt -1.738916 1.179285
vt -1.738916 1.179285
vt -1.738916 1.179285
vt -1.612659 1.562732
vt -1.612659 1.562732
vt -2.840296 0.911145
vt -2.840296 0.911145
vt -2.626331 1.488318
vt -2.626331 1.488318
vt -2.626331 1.488318
vt -2.626331 1.488318
vt -2.48606 1.866711
vt -2.48606 1.866711
vt -3.743176 1.26947
vt -3.743176 1.26947
vt -3.502661 1.835278
vt -3.502661 1.835278
vt -3.502661 1.835278
vt -3.502661 1.835278
vt -3.344849 2.206543
vt -3.344849 2.206543
vt -4.605298 1.664038
vt -4.605298 1.664038
vt -4.333753 2.214893
vt -4.333753 2.214893
vt -4.333753 2.214893
vt -4.333753 2.214893
vt -4.155445 2.576611
vt -4.155445 2.576611
vt -5.437171 2.108374
vt -5.437171 2.108374
vt -5.129651 2.639343
vt -5.129651 2.639343
vt -5.129651 2.639343
vt -5.129651 2.639343
vt -4.927588 2.988208
vt -4.927588 2.988208

usemtl GSDShoulder1
usemap GSDShoulder1
f 9/9/9 1/1/1 3/3/3
f 11/11/11 9/9/9 3/3/3
f 13/13/13 5/5/5 7/7/7
f 15/15/15 13/13/13 7/7/7
f 17/17/17 9/9/9 11/11/11
f 19/19/19 17/17/17 11/11/11
f 21/21/21 13/13/13 15/15/15
f 23/23/23 21/21/21 15/15/15
f 25/25/25 17/17/17 19/19/19
f 27/27/27 25/25/25 19/19/19
f 29/29/29 21/21/21 23/23/23
f 31/31/31 29/29/29 23/23/23
f 33/33/33 25/25/25 27/27/27
f 35/35/35 33/33/33 27/27/27
f 37/37/37 29/29/29 31/31/31
f 39/39/39 37/37/37 31/31/31
f 41/41/41 33/33/33 35/35/35
f 43/43/43 41/41/41 35/35/35
f 45/45/45 37/37/37 39/39/39
f 47/47/47 45/45/45 39/39/39
f 49/49/49 41/41/41 43/43/43
f 51/51/51 49/49/49 43/43/43
f 53/53/53 45/45/45 47/47/47
f 55/55/55 53/53/53 47/47/47
