mtllib ./Road1_0_240.mtl
g SCutL31
v -20.98267 0.03 723.2155
v -20.98267 0.03 723.2155
v -23.98235 0.03 723.1716
v -23.98235 0.03 723.1716
v -18.98288 -0.3407326 723.2447
v -18.98288 -0.3407326 723.2447
v -20.98267 0.03 723.2155
v -20.98267 0.03 723.2155
v -21.07263 0.0297339 728.3075
v -21.07263 0.0297339 728.3075
v -24.07206 0.0297339 728.249
v -24.07206 0.0297339 728.249
v -19.07301 -0.3407326 728.3464
v -19.07301 -0.3407326 728.3464
v -21.07263 0.0297339 728.3075
v -21.07263 0.0297339 728.3075
v -21.17876 0.02823543 733.3516
v -21.17876 0.02823543 733.3516
v -24.17799 0.02823543 733.2836
v -24.17799 0.02823543 733.2836
v -19.17928 -0.3407326 733.397
v -19.17928 -0.3407326 733.397
v -21.17876 0.02823543 733.3516
v -21.17876 0.02823543 733.3516
v -21.30379 0.02550809 738.4499
v -21.30379 0.02550809 738.4499
v -24.30274 0.02550809 738.3705
v -24.30274 0.02550809 738.3705
v -19.30449 -0.3407326 738.5028
v -19.30449 -0.3407326 738.5028
v -21.30379 0.02550809 738.4499
v -21.30379 0.02550809 738.4499
v -21.4511 0.02169072 743.5929
v -21.4511 0.02169072 743.5929
v -24.44967 0.02169072 743.5001
v -24.44967 0.02169072 743.5001
v -19.45206 -0.3407326 743.6547
v -19.45206 -0.3407326 743.6547
v -21.4511 0.02169072 743.5929
v -21.4511 0.02169072 743.5929
v -21.62448 0.01696531 748.7686
v -21.62448 0.01696531 748.7686
v -24.62251 0.01696531 748.6602
v -24.62251 0.01696531 748.6602
v -19.62578 -0.3407326 748.8409
v -19.62578 -0.3407326 748.8409
v -21.62448 0.01696531 748.7686
v -21.62448 0.01696531 748.7686
v -21.8221 0.01171356 753.8235
v -21.8221 0.01171356 753.8235
v -24.81944 0.01171356 753.6972
v -24.81944 0.01171356 753.6972
v -19.82388 -0.3407326 753.9078
v -19.82388 -0.3407326 753.9078
v -21.8221 0.01171356 753.8235
v -21.8221 0.01171356 753.8235
v -22.05309 0.006060621 758.8962
v -22.05309 0.006060621 758.8962
v -25.04948 0.006060621 758.7491
v -25.04948 0.006060621 758.7491
v -20.0555 -0.3407326 758.9943
v -20.0555 -0.3407326 758.9943
v -22.05309 0.006060621 758.8962
v -22.05309 0.006060621 758.8962
v -22.32238 0.0003071446 763.9747
v -22.32238 0.0003071446 763.9747
v -25.31749 0.0003071446 763.8035
v -25.31749 0.0003071446 763.8035
v -20.32564 -0.3407326 764.0888
v -20.32564 -0.3407326 764.0888
v -22.32238 0.0003071446 763.9747
v -22.32238 0.0003071446 763.9747
v -22.63546 0 769.047
v -22.63546 0 769.047
v -25.62884 0 768.8478
v -25.62884 0 768.8478
v -20.63987 -0.3407326 769.1797
v -20.63987 -0.3407326 769.1797
v -22.63546 0 769.047
v -22.63546 0 769.047
v -23.00832 0 774.2281
v -23.00832 0 774.2281
v -25.99931 0 773.9957
v -25.99931 0 773.9957
v -21.01433 -0.3407326 774.383
v -21.01433 -0.3407326 774.383
v -23.00832 0 774.2281
v -23.00832 0 774.2281
v -23.4404 0 779.3698
v -23.4404 0 779.3698
v -26.42813 0 779.0988
v -26.42813 0 779.0988
v -21.44857 -0.3407326 779.5505
v -21.44857 -0.3407326 779.5505
v -23.4404 0 779.3698
v -23.4404 0 779.3698
v -23.95218 0 784.577
v -23.95218 0 784.577
v -26.93537 0 784.2599
v -26.93537 0 784.2599
v -21.96338 -0.3407326 784.7883
v -21.96338 -0.3407326 784.7883
v -23.95218 0 784.577
v -23.95218 0 784.577
v -24.54305 0 789.7083
v -24.54305 0 789.7083
v -27.52005 0 789.3375
v -27.52005 0 789.3375
v -22.55838 -0.3407326 789.9554
v -22.55838 -0.3407326 789.9554
v -24.54305 0 789.7083
v -24.54305 0 789.7083
v -25.23953 0 794.8599
v -25.23953 0 794.8599
v -28.20782 0 794.4249
v -28.20782 0 794.4249
v -23.26066 -0.3407326 795.1498
v -23.26066 -0.3407326 795.1498
v -25.23953 0 794.8599
v -25.23953 0 794.8599
v -26.05943 0 800.0029
v -26.05943 0 800.0029
v -29.01542 0 799.491
v -29.01542 0 799.491
v -24.08878 -0.3407326 800.3442
v -24.08878 -0.3407326 800.3442
v -26.05943 0 800.0029
v -26.05943 0 800.0029
v -27.04433 0.01222485 805.2078
v -27.04433 0.01222485 805.2078
v -29.98234 0.01222485 804.6013
v -29.98234 0.01222485 804.6013
v -25.08566 -0.3407326 805.6122
v -25.08566 -0.3407326 805.6122
v -27.04433 0.01222485 805.2078
v -27.04433 0.01222485 805.2078

vn -7.643068E-07 1 5.224366E-05
vn 0 0 0
vn -8.92614E-07 0.9999999 5.231635E-05
vn 0 0 0
vn 0.182234 0.9832499 0.003219432
vn 0 0 0
vn 0.1821701 0.9832617 0.003244067
vn 0 0 0
vn -2.51605E-06 1 0.0001334296
vn 0 0 0
vn -4.511142E-06 1 0.0002152053
vn 0 0 0
vn 0.1821452 0.9832656 0.003438608
vn 0 0 0
vn 0.18186 0.9833174 0.003734679
vn 0 0 0
vn -8.238595E-06 0.9999999 0.0003769865
vn 0 0 0
vn -1.103865E-05 0.9999999 0.0004565922
vn 0 0 0
vn 0.1816123 0.9833615 0.00413028
vn 0 0 0
vn 0.1809326 0.9834853 0.004500625
vn 0 0 0
vn -1.533262E-05 0.9999999 0.0006045031
vn 0 0 0
vn -1.895712E-05 0.9999997 0.0006741146
vn 0 0 0
vn 0.1804915 0.9835646 0.004849848
vn 0 0 0
vn 0.1794394 0.9837548 0.005312373
vn 0 0 0
vn -2.363069E-05 0.9999996 0.0007993773
vn 0 0 0
vn -2.811433E-05 0.9999997 0.0008570292
vn 0 0 0
vn 0.1788235 0.983865 0.005654559
vn 0 0 0
vn 0.1774478 0.9841107 0.006199309
vn 0 0 0
vn -3.291089E-05 0.9999995 0.0009541244
vn 0 0 0
vn -3.812466E-05 0.9999995 0.0009970627
vn 0 0 0
vn 0.1766917 0.9842446 0.006543545
vn 0 0 0
vn 0.1750814 0.984528 0.007153751
vn 0 0 0
vn -4.27679E-05 0.9999994 0.001063634
vn 0 0 0
vn -4.852558E-05 0.9999994 0.001089967
vn 0 0 0
vn 0.1742221 0.9846776 0.007524773
vn 0 0 0
vn 0.1724544 0.9849834 0.00818789
vn 0 0 0
vn -5.238608E-05 0.9999993 0.001119581
vn 0 0 0
vn -5.837982E-05 0.9999993 0.001127115
vn 0 0 0
vn 0.1715331 0.9851409 0.008602836
vn 0 0 0
vn 0.1696751 0.9854561 0.009309225
vn 0 0 0
vn -4.123519E-05 0.9999996 0.0007746621
vn 0 0 0
vn -2.410016E-05 0.9999999 0.0004183123
vn 0 0 0
vn 0.1687283 0.9856138 0.00980515
vn 0 0 0
vn 0.1677324 0.9857792 0.01025876
vn 0 0 0
vn -2.47342E-06 0.9999999 3.999353E-05
vn 0 0 0
vn -1.323224E-06 1 1.988833E-05
vn 0 0 0
vn 0.1676382 0.9857878 0.01094824
vn 0 0 0
vn 0.1675519 0.985796 0.01151452
vn 0 0 0
vn 0 0.9999999 0
vn 0 0 0
vn 0 1 0
vn 0 0 0
vn 0.1674641 0.9857961 0.01272324
vn 0 0 0
vn 0.1674122 0.985796 0.01339244
vn 0 0 0
vn 0 1 0
vn 0 0 0
vn 0 1 0
vn 0 0 0
vn 0.1672877 0.9857961 0.01486098
vn 0 0 0
vn 0.1672166 0.985796 0.01564874
vn 0 0 0
vn 0 1 0
vn 0 0 0
vn 0 1 0
vn 0 0 0
vn 0.1670482 0.985796 0.01735092
vn 0 0 0
vn 0.16695 0.9857959 0.01827889
vn 0 0 0
vn 0 0.9999999 0
vn 0 0 0
vn 0 1 0
vn 0 0 0
vn 0.1667132 0.9857962 0.02031796
vn 0 0 0
vn 0.1665775 0.9857957 0.02141385
vn 0 0 0
vn 0 1 0
vn 0 0 0
vn 0 0.9999999 0
vn 0 0 0
vn 0.1662492 0.985796 0.02382273
vn 0 0 0
vn 0.1660579 0.9857956 0.02513521
vn 0 0 0
vn 0.000133443 0.9999998 -0.0007704776
vn 0 0 0
vn 0.0002916827 0.9999987 -0.001536996
vn 0 0 0
vn 0.1655859 0.9857959 0.02806439
vn 0 0 0
vn 0.1673843 0.9854569 0.02927894
vn 0 0 0
vn 0.000434222 0.9999972 -0.002288094
vn 0 0 0
vn 0.0004753144 0.9999972 -0.002302262
vn 0 0 0
vn 0.1681247 0.9852887 0.03066409
vn 0 0 0
vn 0.1712446 0.9847689 0.03009092
vn 0 0 0

vt 0 0
vt 0 0
vt 0.5999359 -0.008776856
vt 0.5999359 -0.008776856
vt -0.3999569 0.005847168
vt -0.3999569 0.005847168
vt 0 0
vt 0 0
vt 0.01799278 1.018408
vt 0.01799278 1.018408
vt 0.6178791 1.006714
vt 0.6178791 1.006714
vt -0.3819309 1.026196
vt -0.3819309 1.026196
vt 0.01799278 1.018408
vt 0.01799278 1.018408
vt 0.0392189 2.027234
vt 0.0392189 2.027234
vt 0.6390644 2.013623
vt 0.6390644 2.013623
vt -0.3606785 2.036304
vt -0.3606785 2.036304
vt 0.0392189 2.027234
vt 0.0392189 2.027234
vt 0.06422386 3.046887
vt 0.06422386 3.046887
vt 0.6640137 3.031006
vt 0.6640137 3.031006
vt -0.3356361 3.057471
vt -0.3356361 3.057471
vt 0.06422386 3.046887
vt 0.06422386 3.046887
vt 0.09368706 4.075489
vt 0.09368706 4.075489
vt 0.6934002 4.056934
vt 0.6934002 4.056934
vt -0.3061214 4.087854
vt -0.3061214 4.087854
vt 0.09368706 4.075489
vt 0.09368706 4.075489
vt 0.1283615 5.110632
vt 0.1283615 5.110632
vt 0.7279686 5.088941
vt 0.7279686 5.088941
vt -0.2713768 5.125098
vt -0.2713768 5.125098
vt 0.1283615 5.110632
vt 0.1283615 5.110632
vt 0.167886 6.121619
vt 0.167886 6.121619
vt 0.7673535 6.09635
vt 0.7673535 6.09635
vt -0.2317585 6.138464
vt -0.2317585 6.138464
vt 0.167886 6.121619
vt 0.167886 6.121619
vt 0.2140843 7.136145
vt 0.2140843 7.136145
vt 0.8133621 7.106726
vt 0.8133621 7.106726
vt -0.1854343 7.155762
vt -0.1854343 7.155762
vt 0.2140843 7.136145
vt 0.2140843 7.136145
vt 0.2679417 8.151843
vt 0.2679417 8.151843
vt 0.8669636 8.117602
vt 0.8669636 8.117602
vt -0.1314064 8.17467
vt -0.1314064 8.17467
vt 0.2679417 8.151843
vt 0.2679417 8.151843
vt 0.330558 9.166308
vt 0.330558 9.166308
vt 0.9292343 9.126477
vt 0.9292343 9.126477
vt -0.06855965 9.192859
vt -0.06855965 9.192859
vt 0.330558 9.166308
vt 0.330558 9.166308
vt 0.4051308 10.20253
vt 0.4051308 10.20253
vt 1.003328 10.15604
vt 1.003328 10.15604
vt 0.006332779 10.23351
vt 0.006332779 10.23351
vt 0.4051308 10.20253
vt 0.4051308 10.20253
vt 0.4915455 11.23087
vt 0.4915455 11.23087
vt 1.089092 11.17666
vt 1.089092 11.17666
vt 0.09318123 11.26702
vt 0.09318123 11.26702
vt 0.4915455 11.23087
vt 0.4915455 11.23087
vt 0.5939015 12.2723
vt 0.5939015 12.2723
vt 1.190541 12.20889
vt 1.190541 12.20889
vt 0.1961422 12.31458
vt 0.1961422 12.31458
vt 0.5939015 12.2723
vt 0.5939015 12.2723
vt 0.7120766 13.29856
vt 0.7120766 13.29856
vt 1.307476 13.22441
vt 1.307476 13.22441
vt 0.3151432 13.348
vt 0.3151432 13.348
vt 0.7120766 13.29856
vt 0.7120766 13.29856
vt 0.8513718 14.32888
vt 0.8513718 14.32888
vt 1.445031 14.24188
vt 1.445031 14.24188
vt 0.4555984 14.38687
vt 0.4555984 14.38687
vt 0.8513718 14.32888
vt 0.8513718 14.32888
vt 1.015353 15.3575
vt 1.015353 15.3575
vt 1.606551 15.2551
vt 1.606551 15.2551
vt 0.6212215 15.42576
vt 0.6212215 15.42576
vt 1.015353 15.3575
vt 1.015353 15.3575
vt 1.212333 16.39847
vt 1.212333 16.39847
vt 1.799935 16.27716
vt 1.799935 16.27716
vt 0.8205986 16.47936
vt 0.8205986 16.47936
vt 1.212333 16.39847
vt 1.212333 16.39847

usemtl GSDShoulder1
usemap GSDShoulder1
f 9/9/9 1/1/1 3/3/3
f 11/11/11 9/9/9 3/3/3
f 13/13/13 5/5/5 7/7/7
f 15/15/15 13/13/13 7/7/7
f 17/17/17 9/9/9 11/11/11
f 19/19/19 17/17/17 11/11/11
f 21/21/21 13/13/13 15/15/15
f 23/23/23 21/21/21 15/15/15
f 25/25/25 17/17/17 19/19/19
f 27/27/27 25/25/25 19/19/19
f 29/29/29 21/21/21 23/23/23
f 31/31/31 29/29/29 23/23/23
f 33/33/33 25/25/25 27/27/27
f 35/35/35 33/33/33 27/27/27
f 37/37/37 29/29/29 31/31/31
f 39/39/39 37/37/37 31/31/31
f 41/41/41 33/33/33 35/35/35
f 43/43/43 41/41/41 35/35/35
f 45/45/45 37/37/37 39/39/39
f 47/47/47 45/45/45 39/39/39
f 49/49/49 41/41/41 43/43/43
f 51/51/51 49/49/49 43/43/43
f 53/53/53 45/45/45 47/47/47
f 55/55/55 53/53/53 47/47/47
f 57/57/57 49/49/49 51/51/51
f 59/59/59 57/57/57 51/51/51
f 61/61/61 53/53/53 55/55/55
f 63/63/63 61/61/61 55/55/55
f 65/65/65 57/57/57 59/59/59
f 67/67/67 65/65/65 59/59/59
f 69/69/69 61/61/61 63/63/63
f 71/71/71 69/69/69 63/63/63
f 73/73/73 65/65/65 67/67/67
f 75/75/75 73/73/73 67/67/67
f 77/77/77 69/69/69 71/71/71
f 79/79/79 77/77/77 71/71/71
f 81/81/81 73/73/73 75/75/75
f 83/83/83 81/81/81 75/75/75
f 85/85/85 77/77/77 79/79/79
f 87/87/87 85/85/85 79/79/79
f 89/89/89 81/81/81 83/83/83
f 91/91/91 89/89/89 83/83/83
f 93/93/93 85/85/85 87/87/87
f 95/95/95 93/93/93 87/87/87
f 97/97/97 89/89/89 91/91/91
f 99/99/99 97/97/97 91/91/91
f 101/101/101 93/93/93 95/95/95
f 103/103/103 101/101/101 95/95/95
f 105/105/105 97/97/97 99/99/99
f 107/107/107 105/105/105 99/99/99
f 109/109/109 101/101/101 103/103/103
f 111/111/111 109/109/109 103/103/103
f 113/113/113 105/105/105 107/107/107
f 115/115/115 113/113/113 107/107/107
f 117/117/117 109/109/109 111/111/111
f 119/119/119 117/117/117 111/111/111
f 121/121/121 113/113/113 115/115/115
f 123/123/123 121/121/121 115/115/115
f 125/125/125 117/117/117 119/119/119
f 127/127/127 125/125/125 119/119/119
f 129/129/129 121/121/121 123/123/123
f 131/131/131 129/129/129 123/123/123
f 133/133/133 125/125/125 127/127/127
f 135/135/135 133/133/133 127/127/127
