mtllib ./Road1_0_5.mtl
g Markers2
v -187.1047 53.98545 502.2533
v -187.1047 53.98545 502.2533
v -188.8593 53.98545 492.4091
v -188.8593 53.98545 492.4091
v -191.6306 54.10477 503.2453
v -191.6306 54.10477 503.2453
v -194.2537 54.10477 493.6017
v -194.2537 54.10477 493.6017
v -196.042 54.32219 504.6511
v -196.042 54.32219 504.6511
v -199.4439 54.32219 495.2611
v -199.4439 54.32219 495.2611
v -200.4557 54.60696 506.4036
v -200.4557 54.60696 506.4036
v -204.4021 54.60696 497.236
v -204.4021 54.60696 497.236
v -204.8469 54.94003 508.4128
v -204.8469 54.94003 508.4128
v -209.1927 54.94003 499.4334
v -209.1927 54.94003 499.4334
v -209.2407 55.31201 510.6355
v -209.2407 55.31201 510.6355
v -213.8926 55.31201 501.8158
v -213.8926 55.31201 501.8158
v -213.5841 55.71023 513.0039
v -213.5841 55.71023 513.0039
v -218.4743 55.71023 504.3182
v -218.4743 55.71023 504.3182
v -217.8365 56.12402 515.4604
v -217.8365 56.12402 515.4604
v -222.9148 56.12402 506.8867
v -222.9148 56.12402 506.8867
v -222.0758 56.55584 518.0239
v -222.0758 56.55584 518.0239
v -227.3075 56.55584 509.5457
v -227.3075 56.55584 509.5457
v -226.2798 56.99971 520.6622
v -226.2798 56.99971 520.6622
v -231.6374 56.99971 512.2653
v -231.6374 56.99971 512.2653
v -230.4303 57.45039 523.3472
v -230.4303 57.45039 523.3472
v -235.8913 57.45039 515.0189
v -235.8913 57.45039 515.0189
v -234.6272 57.91615 526.1312
v -234.6272 57.91615 526.1312
v -240.1752 57.91615 517.8621
v -240.1752 57.91615 517.8621
v -238.741 58.38036 528.9175
v -238.741 58.38036 528.9175
v -244.3598 58.38036 520.6973
v -244.3598 58.38036 520.6973
v -242.8772 58.85268 531.7669
v -242.8772 58.85268 531.7669
v -248.5544 58.85268 523.5877
v -248.5544 58.85268 523.5877
v -247.0256 59.33012 534.6647
v -247.0256 59.33012 534.6647
v -252.7499 59.33012 526.5187
v -252.7499 59.33012 526.5187
v -251.1751 59.80954 537.5952
v -251.1751 59.80954 537.5952
v -256.936 59.80954 529.475
v -256.936 59.80954 529.475
v -255.3159 60.28793 540.5438
v -255.3159 60.28793 540.5438
v -261.1033 60.28793 532.4421
v -261.1033 60.28793 532.4421
v -259.438 60.76225 543.4957
v -259.438 60.76225 543.4957
v -265.242 60.76225 535.4052
v -265.242 60.76225 535.4052
v -263.5313 61.22945 546.4357
v -263.5313 61.22945 546.4357
v -269.3422 61.22945 538.3491
v -269.3422 61.22945 538.3491
v -267.5859 61.68646 549.3492
v -267.5859 61.68646 549.3492
v -273.3937 61.68646 541.2592
v -273.3937 61.68646 541.2592
v -271.7061 62.14275 552.303
v -271.7061 62.14275 552.303
v -277.4999 62.14275 544.2012
v -277.4999 62.14275 544.2012
v -275.8759 62.59359 555.2762
v -275.8759 62.59359 555.2762
v -281.643 62.59359 547.1531
v -281.643 62.59359 547.1531
v -279.9694 63.02254 558.1691
v -279.9694 63.02254 558.1691
v -285.6963 63.02254 550.015
v -285.6963 63.02254 550.015
v -284.1895 63.447 561.1125
v -284.1895 63.447 561.1125
v -289.8571 63.447 552.9137
v -289.8571 63.447 552.9137
v -288.4041 63.84851 563.998
v -288.4041 63.84851 563.998
v -293.99 63.84851 555.7394
v -293.99 63.84851 555.7394
v -292.6924 64.2283 566.8599
v -292.6924 64.2283 566.8599
v -298.165 64.2283 558.521
v -298.165 64.2283 558.521
v -297.0191 64.57459 569.6469
v -297.0191 64.57459 569.6469
v -302.3349 64.57459 561.2015
v -302.3349 64.57459 561.2015
v -301.4384 64.87942 572.3548
v -301.4384 64.87942 572.3548
v -306.5297 64.87942 563.7657
v -306.5297 64.87942 563.7657
v -305.984 65.1258 574.942
v -305.984 65.1258 574.942
v -310.7382 65.1258 566.1542
v -310.7382 65.1258 566.1542

vn 0.02536413 0.999668 -0.004520828
vn 0 0 0
vn 0.02291567 0.9997241 -0.005147627
vn 0 0 0
vn 0.02993032 0.9995246 -0.007395488
vn 0 0 0
vn 0.03393428 0.9993698 -0.01041275
vn 0 0 0
vn 0.04596949 0.9988245 -0.01537684
vn 0 0 0
vn 0.0471947 0.9987192 -0.01824497
vn 0 0 0
vn 0.05591827 0.998174 -0.02284869
vn 0 0 0
vn 0.05609351 0.9981079 -0.0251839
vn 0 0 0
vn 0.06246927 0.9976212 -0.02914627
vn 0 0 0
vn 0.06217666 0.9975832 -0.03101461
vn 0 0 0
vn 0.06692906 0.9971666 -0.03434234
vn 0 0 0
vn 0.06642626 0.9971477 -0.03583336
vn 0 0 0
vn 0.07006418 0.9967947 -0.03861883
vn 0 0 0
vn 0.06947266 0.9967898 -0.03979527
vn 0 0 0
vn 0.0723169 0.9964914 -0.04213158
vn 0 0 0
vn 0.07170612 0.9964956 -0.04306789
vn 0 0 0
vn 0.07391764 0.9962484 -0.04500379
vn 0 0 0
vn 0.07331787 0.9962584 -0.04575689
vn 0 0 0
vn 0.07506202 0.9960532 -0.0473678
vn 0 0 0
vn 0.07448997 0.9960674 -0.04796659
vn 0 0 0
vn 0.0758708 0.9958979 -0.04930532
vn 0 0 0
vn 0.07533264 0.9959151 -0.04978139
vn 0 0 0
vn 0.07637872 0.9957811 -0.05085551
vn 0 0 0
vn 0.07587624 0.9958006 -0.0512251
vn 0 0 0
vn 0.07667632 0.9956945 -0.05208936
vn 0 0 0
vn 0.07621037 0.995716 -0.05236132
vn 0 0 0
vn 0.07676577 0.9956388 -0.05301277
vn 0 0 0
vn 0.07633457 0.9956618 -0.05320331
vn 0 0 0
vn 0.07667722 0.9956109 -0.05366189
vn 0 0 0
vn 0.07627771 0.9956356 -0.05377261
vn 0 0 0
vn 0.07641805 0.9956102 -0.05404256
vn 0 0 0
vn 0.07604878 0.9956366 -0.05407622
vn 0 0 0
vn 0.07599194 0.9956364 -0.05415952
vn 0 0 0
vn 0.07564947 0.995665 -0.05411605
vn 0 0 0
vn 0.07539696 0.9956897 -0.05401193
vn 0 0 0
vn 0.07508042 0.9957201 -0.05389184
vn 0 0 0
vn 0.07462575 0.9957703 -0.05359526
vn 0 0 0
vn 0.0743293 0.9958033 -0.0533951
vn 0 0 0
vn 0.07364806 0.9958809 -0.05288844
vn 0 0 0
vn 0.07336656 0.9959169 -0.05260157
vn 0 0 0
vn 0.07243827 0.9960232 -0.05186952
vn 0 0 0
vn 0.0721589 0.9960638 -0.05147912
vn 0 0 0
vn 0.07095313 0.9962006 -0.05049854
vn 0 0 0
vn 0.07066954 0.996246 -0.04999587
vn 0 0 0
vn 0.06907609 0.9964225 -0.04869007
vn 0 0 0
vn 0.06877485 0.9964744 -0.0480487
vn 0 0 0
vn 0.06678493 0.9966872 -0.046416
vn 0 0 0
vn 0.06642836 0.9967489 -0.04559477
vn 0 0 0
vn 0.06382062 0.9970134 -0.04348809
vn 0 0 0
vn 0.06337034 0.9970871 -0.0424431
vn 0 0 0
vn 0.06000768 0.9974043 -0.03979332
vn 0 0 0
vn 0.05938151 0.9974945 -0.03845157
vn 0 0 0
vn 0.05487188 0.9978782 -0.03504549
vn 0 0 0
vn 0.05390885 0.9979906 -0.03329454
vn 0 0 0
vn 0.04768973 0.9984445 -0.02888475
vn 0 0 0
vn 0.04604296 0.9985867 -0.02654453
vn 0 0 0
vn 0.04252708 0.9988048 -0.02409505
vn 0 0 0
vn 0.04473377 0.9987057 -0.02420061
vn 0 0 0

vt 0 34.88053
vt 0 0
vt 1 34.88053
vt 0 0
vt 0 35.8075
vt 0 35.8075
vt 1 35.8075
vt 1 35.8075
vt 0 36.73452
vt 0 36.73452
vt 1 36.73452
vt 1 36.73452
vt 0 37.686
vt 0 37.686
vt 1 37.686
vt 1 37.686
vt 0 38.6541
vt 0 38.6541
vt 1 38.6541
vt 1 38.6541
vt 0 39.6417
vt 0 39.6417
vt 1 39.6417
vt 1 39.6417
vt 0 40.63434
vt 0 40.63434
vt 1 40.63434
vt 1 40.63434
vt 0 41.62001
vt 0 41.62001
vt 1 41.62001
vt 1 41.62001
vt 0 42.61458
vt 0 42.61458
vt 1 42.61458
vt 1 42.61458
vt 0 43.61121
vt 0 43.61121
vt 1 43.61121
vt 1 43.61121
vt 0 44.60397
vt 0 44.60397
vt 1 44.60397
vt 1 44.60397
vt 0 45.61551
vt 0 45.61551
vt 1 45.61551
vt 1 45.61551
vt 0 46.61357
vt 0 46.61357
vt 1 46.61357
vt 1 46.61357
vt 0 47.62253
vt 0 47.62253
vt 1 47.62253
vt 1 47.62253
vt 0 48.63908
vt 0 48.63908
vt 1 48.63908
vt 1 48.63908
vt 0 49.6596
vt 0 49.6596
vt 1 49.6596
vt 1 49.6596
vt 0 50.68077
vt 0 50.68077
vt 1 50.68077
vt 1 50.68077
vt 0 51.69919
vt 0 51.69919
vt 1 51.69919
vt 1 51.69919
vt 0 52.71144
vt 0 52.71144
vt 1 52.71144
vt 1 52.71144
vt 0 53.7142
vt 0 53.7142
vt 1 53.7142
vt 1 53.7142
vt 0 54.73222
vt 0 54.73222
vt 1 54.73222
vt 1 54.73222
vt 0 55.76042
vt 0 55.76042
vt 1 55.76042
vt 1 55.76042
vt 0 56.76661
vt 0 56.76661
vt 1 56.76661
vt 1 56.76661
vt 0 57.79913
vt 0 57.79913
vt 1 57.79913
vt 1 57.79913
vt 0 58.82383
vt 0 58.82383
vt 1 58.82383
vt 1 58.82383
vt 0 59.85773
vt 0 59.85773
vt 1 59.85773
vt 1 59.85773
vt 0 60.88938
vt 0 60.88938
vt 1 60.88938
vt 1 60.88938
vt 0 61.92777
vt 0 61.92777
vt 1 61.92777
vt 1 61.92777
vt 0 62.975
vt 0 62.975
vt 1 62.975
vt 1 62.975

usemtl GSDWhiteYellowDouble
usemap GSDWhiteYellowDouble
f 5/5/5 1/1/1 3/3/3
f 7/7/7 5/5/5 3/3/3
f 9/9/9 5/5/5 7/7/7
f 11/11/11 9/9/9 7/7/7
f 13/13/13 9/9/9 11/11/11
f 15/15/15 13/13/13 11/11/11
f 17/17/17 13/13/13 15/15/15
f 19/19/19 17/17/17 15/15/15
f 21/21/21 17/17/17 19/19/19
f 23/23/23 21/21/21 19/19/19
f 25/25/25 21/21/21 23/23/23
f 27/27/27 25/25/25 23/23/23
f 29/29/29 25/25/25 27/27/27
f 31/31/31 29/29/29 27/27/27
f 33/33/33 29/29/29 31/31/31
f 35/35/35 33/33/33 31/31/31
f 37/37/37 33/33/33 35/35/35
f 39/39/39 37/37/37 35/35/35
f 41/41/41 37/37/37 39/39/39
f 43/43/43 41/41/41 39/39/39
f 45/45/45 41/41/41 43/43/43
f 47/47/47 45/45/45 43/43/43
f 49/49/49 45/45/45 47/47/47
f 51/51/51 49/49/49 47/47/47
f 53/53/53 49/49/49 51/51/51
f 55/55/55 53/53/53 51/51/51
f 57/57/57 53/53/53 55/55/55
f 59/59/59 57/57/57 55/55/55
f 61/61/61 57/57/57 59/59/59
f 63/63/63 61/61/61 59/59/59
f 65/65/65 61/61/61 63/63/63
f 67/67/67 65/65/65 63/63/63
f 69/69/69 65/65/65 67/67/67
f 71/71/71 69/69/69 67/67/67
f 73/73/73 69/69/69 71/71/71
f 75/75/75 73/73/73 71/71/71
f 77/77/77 73/73/73 75/75/75
f 79/79/79 77/77/77 75/75/75
f 81/81/81 77/77/77 79/79/79
f 83/83/83 81/81/81 79/79/79
f 85/85/85 81/81/81 83/83/83
f 87/87/87 85/85/85 83/83/83
f 89/89/89 85/85/85 87/87/87
f 91/91/91 89/89/89 87/87/87
f 93/93/93 89/89/89 91/91/91
f 95/95/95 93/93/93 91/91/91
f 97/97/97 93/93/93 95/95/95
f 99/99/99 97/97/97 95/95/95
f 101/101/101 97/97/97 99/99/99
f 103/103/103 101/101/101 99/99/99
f 105/105/105 101/101/101 103/103/103
f 107/107/107 105/105/105 103/103/103
f 109/109/109 105/105/105 107/107/107
f 111/111/111 109/109/109 107/107/107
f 113/113/113 109/109/109 111/111/111
f 115/115/115 113/113/113 111/111/111
