mtllib ./Road1_0_212.mtl
g SCutL3
v -304.4538 65.1158 577.7706
v -304.4538 65.1158 577.7706
v -305.984 65.1158 574.942
v -305.984 65.1158 574.942
v -303.477 64.15873 579.5762
v -303.477 64.15873 579.5762
v -304.4538 65.1158 577.7706
v -304.4538 65.1158 577.7706
v -309.255 65.28027 580.1305
v -309.255 65.28027 580.1305
v -310.6721 65.28027 577.3784
v -310.6721 65.28027 577.3784
v -308.3286 63.6741 581.9296
v -308.3286 63.6741 581.9296
v -309.255 65.28027 580.1305
v -309.255 65.28027 580.1305
v -313.7282 65.31995 582.3673
v -313.7282 65.31995 582.3673
v -315.1231 65.31995 579.6831
v -315.1231 65.31995 579.6831
v -312.803 62.92936 584.1475
v -312.803 62.92936 584.1475
v -313.7282 65.31995 582.3673
v -313.7282 65.31995 582.3673
v -318.207 65.19954 584.8263
v -318.207 65.19954 584.8263
v -319.6559 65.19954 582.0356
v -319.6559 65.19954 582.0356
v -317.2694 62.16898 586.6324
v -317.2694 62.16898 586.6324
v -318.207 65.19954 584.8263
v -318.207 65.19954 584.8263
v -322.7626 64.86382 587.2659
v -322.7626 64.86382 587.2659
v -324.2269 64.86382 584.3653
v -324.2269 64.86382 584.3653
v -321.8356 61.4883 589.1022
v -321.8356 61.4883 589.1022
v -322.7626 64.86382 587.2659
v -322.7626 64.86382 587.2659
v -327.5771 64.24902 589.6428
v -327.5771 64.24902 589.6428
v -328.962 64.24902 586.6227
v -328.962 64.24902 586.6227
v -326.7158 61.04636 591.5211
v -326.7158 61.04636 591.5211
v -327.5771 64.24902 589.6428
v -327.5771 64.24902 589.6428
v -332.8461 63.34987 591.806
v -332.8461 63.34987 591.806
v -333.9835 63.34987 588.6544
v -333.9835 63.34987 588.6544
v -332.1458 60.55903 593.7466
v -332.1458 60.55903 593.7466
v -332.8461 63.34987 591.806
v -332.8461 63.34987 591.806
v -338.4902 62.3405 593.4958
v -338.4902 62.3405 593.4958
v -339.2671 62.3405 590.239
v -339.2671 62.3405 590.239
v -338.0112 60.22833 595.5037
v -338.0112 60.22833 595.5037
v -338.4902 62.3405 593.4958
v -338.4902 62.3405 593.4958
v -344.0574 61.50162 594.5692
v -344.0574 61.50162 594.5692
v -344.5559 61.50162 591.2952
v -344.5559 61.50162 591.2952
v -343.7463 60.22833 596.6117
v -343.7463 60.22833 596.6117
v -344.0574 61.50162 594.5692
v -344.0574 61.50162 594.5692
v -349.4315 60.94948 595.2089
v -349.4315 60.94948 595.2089
v -349.784 60.94948 591.9971
v -349.784 60.94948 591.9971
v -349.2074 60.22833 597.2504
v -349.2074 60.22833 597.2504
v -349.4315 60.94948 595.2089
v -349.4315 60.94948 595.2089
v -354.5869 60.66372 595.629
v -354.5869 60.66372 595.629
v -354.8739 60.66372 592.5177
v -354.8739 60.66372 592.5177
v -354.4004 60.22833 597.6508
v -354.4004 60.22833 597.6508
v -354.5869 60.66372 595.629
v -354.5869 60.66372 595.629
v -359.7804 60.57467 595.9665
v -359.7804 60.57467 595.9665
v -360.0371 60.57467 592.9775
v -360.0371 60.57467 592.9775
v -359.6093 60.22833 597.9592
v -359.6093 60.22833 597.9592
v -359.7804 60.57467 595.9665
v -359.7804 60.57467 595.9665
v -364.7917 60.63526 596.5059
v -364.7917 60.63526 596.5059
v -365.0549 60.63526 593.4029
v -365.0549 60.63526 593.4029
v -364.6204 60.22833 598.5269
v -364.6204 60.22833 598.5269
v -364.7917 60.63526 596.5059
v -364.7917 60.63526 596.5059

vn 0.02704691 0.999527 -0.01463234
vn 0 0 0
vn 0.0273472 0.9995217 -0.01444286
vn 0 0 0
vn 0.1123066 0.9018269 0.4172476
vn 0 0 0
vn 0.2111698 0.8457968 0.4899338
vn 0 0 0
vn 0.02094314 0.9997199 -0.01103123
vn 0 0 0
vn 0.01422009 0.999872 -0.007332769
vn 0 0 0
vn 0.1981454 0.8246283 0.5298364
vn 0 0 0
vn 0.2781942 0.7344797 0.6189892
vn 0 0 0
vn -0.002331258 0.9999966 0.001222775
vn 0 0 0
vn -0.01184169 0.999911 0.006150084
vn 0 0 0
vn 0.2756425 0.6850224 0.674363
vn 0 0 0
vn 0.3437908 0.6117775 0.7124158
vn 0 0 0
vn -0.03339836 0.9992916 0.0173425
vn 0 0 0
vn -0.04581383 0.9986736 0.02349991
vn 0 0 0
vn 0.3377618 0.5831043 0.7388548
vn 0 0 0
vn 0.3638262 0.5443972 0.7558188
vn 0 0 0
vn -0.07309956 0.9966319 0.0371679
vn 0 0 0
vn -0.08907472 0.9950829 0.04330837
vn 0 0 0
vn 0.3483374 0.5315908 0.7720572
vn 0 0 0
vn 0.3432602 0.5273545 0.7772193
vn 0 0 0
vn -0.1171782 0.9915725 0.05525416
vn 0 0 0
vn -0.134504 0.9892923 0.05665158
vn 0 0 0
vn 0.3108358 0.5341796 0.7861508
vn 0 0 0
vn 0.2709535 0.558221 0.7842025
vn 0 0 0
vn -0.1517697 0.9866305 0.05938297
vn 0 0 0
vn -0.1628398 0.9852957 0.05172714
vn 0 0 0
vn 0.2328224 0.5749978 0.7843286
vn 0 0 0
vn 0.1731573 0.6258939 0.7604429
vn 0 0 0
vn -0.1588827 0.9862885 0.04462219
vn 0 0 0
vn -0.1566233 0.9871027 0.03312859
vn 0 0 0
vn 0.1460098 0.6597497 0.7371643
vn 0 0 0
vn 0.07347181 0.7457704 0.6621392
vn 0 0 0
vn -0.1319486 0.9909572 0.02436071
vn 0 0 0
vn -0.1189834 0.9927558 0.01670032
vn 0 0 0
vn 0.06376196 0.7974021 0.6000701
vn 0 0 0
vn -0.005139336 0.8815112 0.4721352
vn 0 0 0
vn -0.0867545 0.9961689 0.01100429
vn 0 0 0
vn -0.07180489 0.99739 0.007569451
vn 0 0 0
vn 0.01202485 0.9141459 0.4052069
vn 0 0 0
vn -0.02281003 0.954683 0.2967492
vn 0 0 0
vn -0.04253688 0.9990858 0.004252345
vn 0 0 0
vn -0.02995682 0.9995474 0.002728309
vn 0 0 0
vn 0.0008582288 0.9674685 0.2529901
vn 0 0 0
vn -0.009993494 0.9800484 0.1985078
vn 0 0 0
vn -0.007717255 0.99997 0.0007004344
vn 0 0 0
vn 0.002221593 0.9999975 -0.0001863799
vn 0 0 0
vn 0.00854856 0.9828926 0.1839807
vn 0 0 0
vn 0.01531334 0.9837843 0.1787005
vn 0 0 0
vn 0.01198493 0.9999277 -0.001022679
vn 0 0 0
vn 0.0119894 0.9999276 -0.001016646
vn 0 0 0
vn 0.02607482 0.9829081 0.182241
vn 0 0 0
vn 0.03280223 0.9803322 0.1946093
vn 0 0 0

vt 0 0
vt 0 0
vt 0.3060486 -0.5657105
vt 0.3060486 -0.5657105
vt -0.1953613 0.3611328
vt -0.1953613 0.3611328
vt 0 0
vt 0 0
vt 0.9602417 0.4719849
vt 0.9602417 0.4719849
vt 1.243658 -0.07844239
vt 1.243658 -0.07844239
vt 0.7749695 0.8317993
vt 0.7749695 0.8317993
vt 0.9602417 0.4719849
vt 0.9602417 0.4719849
vt 1.854877 0.9193482
vt 1.854877 0.9193482
vt 2.133856 0.3825073
vt 2.133856 0.3825073
vt 1.669849 1.275391
vt 1.669849 1.275391
vt 1.854877 0.9193482
vt 1.854877 0.9193482
vt 2.750647 1.411145
vt 2.750647 1.411145
vt 3.040411 0.853003
vt 3.040411 0.853003
vt 2.563117 1.772363
vt 2.563117 1.772363
vt 2.750647 1.411145
vt 2.750647 1.411145
vt 3.661762 1.89906
vt 3.661762 1.89906
vt 3.954614 1.318945
vt 3.954614 1.318945
vt 3.476355 2.266333
vt 3.476355 2.266333
vt 3.661762 1.89906
vt 3.661762 1.89906
vt 4.624664 2.374439
vt 4.624664 2.374439
vt 4.901642 1.770422
vt 4.901642 1.770422
vt 4.452405 2.750098
vt 4.452405 2.750098
vt 4.624664 2.374439
vt 4.624664 2.374439
vt 5.678461 2.807092
vt 5.678461 2.807092
vt 5.905939 2.17677
vt 5.905939 2.17677
vt 5.538397 3.195215
vt 5.538397 3.195215
vt 5.678461 2.807092
vt 5.678461 2.807092
vt 6.807281 3.145044
vt 6.807281 3.145044
vt 6.962665 2.493677
vt 6.962665 2.493677
vt 6.711487 3.546619
vt 6.711487 3.546619
vt 6.807281 3.145044
vt 6.807281 3.145044
vt 7.920715 3.359729
vt 7.920715 3.359729
vt 8.020423 2.704932
vt 8.020423 2.704932
vt 7.858509 3.768225
vt 7.858509 3.768225
vt 7.920715 3.359729
vt 7.920715 3.359729
vt 8.995532 3.487671
vt 8.995532 3.487671
vt 9.06604 2.845313
vt 9.06604 2.845313
vt 8.950721 3.89596
vt 8.950721 3.89596
vt 8.995532 3.487671
vt 8.995532 3.487671
vt 10.02661 3.571692
vt 10.02661 3.571692
vt 10.08402 2.949426
vt 10.08402 2.949426
vt 9.989313 3.97605
vt 9.989313 3.97605
vt 10.02661 3.571692
vt 10.02661 3.571692
vt 11.06533 3.639185
vt 11.06533 3.639185
vt 11.11667 3.041382
vt 11.11667 3.041382
vt 11.03109 4.03772
vt 11.03109 4.03772
vt 11.06533 3.639185
vt 11.06533 3.639185
vt 12.06759 3.74707
vt 12.06759 3.74707
vt 12.12022 3.126465
vt 12.12022 3.126465
vt 12.03332 4.151269
vt 12.03332 4.151269
vt 12.06759 3.74707
vt 12.06759 3.74707

usemtl GSDShoulder1
usemap GSDShoulder1
f 9/9/9 1/1/1 3/3/3
f 11/11/11 9/9/9 3/3/3
f 13/13/13 5/5/5 7/7/7
f 15/15/15 13/13/13 7/7/7
f 17/17/17 9/9/9 11/11/11
f 19/19/19 17/17/17 11/11/11
f 21/21/21 13/13/13 15/15/15
f 23/23/23 21/21/21 15/15/15
f 25/25/25 17/17/17 19/19/19
f 27/27/27 25/25/25 19/19/19
f 29/29/29 21/21/21 23/23/23
f 31/31/31 29/29/29 23/23/23
f 33/33/33 25/25/25 27/27/27
f 35/35/35 33/33/33 27/27/27
f 37/37/37 29/29/29 31/31/31
f 39/39/39 37/37/37 31/31/31
f 41/41/41 33/33/33 35/35/35
f 43/43/43 41/41/41 35/35/35
f 45/45/45 37/37/37 39/39/39
f 47/47/47 45/45/45 39/39/39
f 49/49/49 41/41/41 43/43/43
f 51/51/51 49/49/49 43/43/43
f 53/53/53 45/45/45 47/47/47
f 55/55/55 53/53/53 47/47/47
f 57/57/57 49/49/49 51/51/51
f 59/59/59 57/57/57 51/51/51
f 61/61/61 53/53/53 55/55/55
f 63/63/63 61/61/61 55/55/55
f 65/65/65 57/57/57 59/59/59
f 67/67/67 65/65/65 59/59/59
f 69/69/69 61/61/61 63/63/63
f 71/71/71 69/69/69 63/63/63
f 73/73/73 65/65/65 67/67/67
f 75/75/75 73/73/73 67/67/67
f 77/77/77 69/69/69 71/71/71
f 79/79/79 77/77/77 71/71/71
f 81/81/81 73/73/73 75/75/75
f 83/83/83 81/81/81 75/75/75
f 85/85/85 77/77/77 79/79/79
f 87/87/87 85/85/85 79/79/79
f 89/89/89 81/81/81 83/83/83
f 91/91/91 89/89/89 83/83/83
f 93/93/93 85/85/85 87/87/87
f 95/95/95 93/93/93 87/87/87
f 97/97/97 89/89/89 91/91/91
f 99/99/99 97/97/97 91/91/91
f 101/101/101 93/93/93 95/95/95
f 103/103/103 101/101/101 95/95/95
