mtllib ./Road1_0_6.mtl
g RoadCut3
v -305.984 65.1158 574.942
v -305.984 65.1158 574.942
v -310.7382 65.1158 566.1542
v -310.7382 65.1158 566.1542
v -310.6721 65.28027 577.3784
v -310.6721 65.28027 577.3784
v -315.2489 65.28027 568.4897
v -315.2489 65.28027 568.4897
v -315.1231 65.31995 579.6831
v -315.1231 65.31995 579.6831
v -319.7343 65.31995 570.8099
v -319.7343 65.31995 570.8099
v -319.6559 65.19954 582.0356
v -319.6559 65.19954 582.0356
v -324.2593 65.19954 573.1685
v -324.2593 65.19954 573.1685
v -324.2269 64.86382 584.3653
v -324.2269 64.86382 584.3653
v -328.7145 64.86382 575.4756
v -328.7145 64.86382 575.4756
v -328.962 64.24902 586.6227
v -328.962 64.24902 586.6227
v -333.0827 64.24902 577.6365
v -333.0827 64.24902 577.6365
v -333.9835 63.34987 588.6544
v -333.9835 63.34987 588.6544
v -337.3114 63.34987 579.4329
v -337.3114 63.34987 579.4329
v -339.2671 62.3405 590.239
v -339.2671 62.3405 590.239
v -341.5451 62.3405 580.6896
v -341.5451 62.3405 580.6896
v -344.5559 61.50162 591.2952
v -344.5559 61.50162 591.2952
v -346.047 61.50162 581.5035
v -346.047 61.50162 581.5035
v -349.784 60.94948 591.9971
v -349.784 60.94948 591.9971
v -350.8715 60.94948 582.0889
v -350.8715 60.94948 582.0889
v -354.8739 60.66372 592.5177
v -354.8739 60.66372 592.5177
v -355.7919 60.66372 582.5662
v -355.7919 60.66372 582.5662
v -360.0371 60.57467 592.9775
v -360.0371 60.57467 592.9775
v -360.893 60.57467 583.0142
v -360.893 60.57467 583.0142
v -365.0549 60.63526 593.4029
v -365.0549 60.63526 593.4029
v -365.8995 60.63526 583.4415
v -365.8995 60.63526 583.4415

vn 0.02737009 0.9995157 -0.01480699
vn 0 0 0
vn 0.02805732 0.9994966 -0.01481076
vn 0 0 0
vn 0.02120718 0.9997128 -0.01116499
vn 0 0 0
vn 0.01431063 0.9998704 -0.007379752
vn 0 0 0
vn -0.002396687 0.9999963 0.001256609
vn 0 0 0
vn -0.01169387 0.9999132 0.006073452
vn 0 0 0
vn -0.03332867 0.9992946 0.01730662
vn 0 0 0
vn -0.04612231 0.9986554 0.02366399
vn 0 0 0
vn -0.07421187 0.9965281 0.03774056
vn 0 0 0
vn -0.09245895 0.9946999 0.04498386
vn 0 0 0
vn -0.1227808 0.9907417 0.05793003
vn 0 0 0
vn -0.1474083 0.9871216 0.06214357
vn 0 0 0
vn -0.1657382 0.9840316 0.06490637
vn 0 0 0
vn -0.1877173 0.9804121 0.059618
vn 0 0 0
vn -0.1764401 0.9830638 0.04954239
vn 0 0 0
vn -0.179677 0.9829938 0.03793861
vn 0 0 0
vn -0.1422692 0.9894809 0.02620985
vn 0 0 0
vn -0.1296598 0.9913921 0.01816479
vn 0 0 0
vn -0.09000768 0.995876 0.0113886
vn 0 0 0
vn -0.07467322 0.9971771 0.007862529
vn 0 0 0
vn -0.04306829 0.9990628 0.004298474
vn 0 0 0
vn -0.03028019 0.9995377 0.002756394
vn 0 0 0
vn -0.007626909 0.9999706 0.0006918421
vn 0 0 0
vn 0.002108719 0.9999978 -0.0001767168
vn 0 0 0
vn 0.01200199 0.9999275 -0.001024291
vn 0 0 0
vn 0.01201574 0.9999273 -0.001018784
vn 0 0 0

vt 0 0
vt 0 0
vt 0.9508301 -1.757568
vt 0.9508301 -1.757568
vt 0.9376099 0.4872681
vt 0.9376099 0.4872681
vt 1.852979 -1.290466
vt 1.852979 -1.290466
vt 1.827808 0.9482178
vt 1.827808 0.9482178
vt 2.750049 -0.826416
vt 2.750049 -0.826416
vt 2.734363 1.418713
vt 2.734363 1.418713
vt 3.655054 -0.3546997
vt 3.655054 -0.3546997
vt 3.648566 1.884656
vt 3.648566 1.884656
vt 4.546088 0.1067261
vt 4.546088 0.1067261
vt 4.595593 2.336133
vt 4.595593 2.336133
vt 5.419739 0.5388916
vt 5.419739 0.5388916
vt 5.59989 2.742481
vt 5.59989 2.742481
vt 6.265479 0.898169
vt 6.265479 0.898169
vt 6.656616 3.059387
vt 6.656616 3.059387
vt 7.112207 1.149524
vt 7.112207 1.149524
vt 7.714374 3.270642
vt 7.714374 3.270642
vt 8.012591 1.312292
vt 8.012591 1.312292
vt 8.759992 3.411023
vt 8.759992 3.411023
vt 8.977496 1.429382
vt 8.977496 1.429382
vt 9.777972 3.515137
vt 9.777972 3.515137
vt 9.961578 1.524829
vt 9.961578 1.524829
vt 10.81062 3.607092
vt 10.81062 3.607092
vt 10.98179 1.614441
vt 10.98179 1.614441
vt 11.81417 3.692175
vt 11.81417 3.692175
vt 11.98309 1.69989
vt 11.98309 1.69989

usemtl GSDRoad1
usemap GSDRoad1
f 5/5/5 1/1/1 3/3/3
f 7/7/7 5/5/5 3/3/3
f 9/9/9 5/5/5 7/7/7
f 11/11/11 9/9/9 7/7/7
f 13/13/13 9/9/9 11/11/11
f 15/15/15 13/13/13 11/11/11
f 17/17/17 13/13/13 15/15/15
f 19/19/19 17/17/17 15/15/15
f 21/21/21 17/17/17 19/19/19
f 23/23/23 21/21/21 19/19/19
f 25/25/25 21/21/21 23/23/23
f 27/27/27 25/25/25 23/23/23
f 29/29/29 25/25/25 27/27/27
f 31/31/31 29/29/29 27/27/27
f 33/33/33 29/29/29 31/31/31
f 35/35/35 33/33/33 31/31/31
f 37/37/37 33/33/33 35/35/35
f 39/39/39 37/37/37 35/35/35
f 41/41/41 37/37/37 39/39/39
f 43/43/43 41/41/41 39/39/39
f 45/45/45 41/41/41 43/43/43
f 47/47/47 45/45/45 43/43/43
f 49/49/49 45/45/45 47/47/47
f 51/51/51 49/49/49 47/47/47
