mtllib ./Road1_0_20.mtl
g RoadCut10
v -835.7655 78.29165 428.8262
v -835.7655 78.29165 428.8262
v -826.3303 78.29165 425.6209
v -826.3303 78.29165 425.6209
v -837.4576 77.87534 424.395
v -837.4576 77.87534 424.395
v -828.2622 77.87534 420.5497
v -828.2622 77.87534 420.5497
v -839.4374 77.46188 420.0199
v -839.4374 77.46188 420.0199
v -830.4739 77.46188 415.6608
v -830.4739 77.46188 415.6608
v -841.6472 77.05296 415.7543
v -841.6472 77.05296 415.7543
v -832.9092 77.05296 410.9586
v -832.9092 77.05296 410.9586
v -844.0616 76.64746 411.5702
v -844.0616 76.64746 411.5702
v -835.5292 76.64746 406.4167
v -835.5292 76.64746 406.4167
v -846.6542 76.24437 407.4413
v -846.6542 76.24437 407.4413
v -838.2969 76.24437 402.0076
v -838.2969 76.24437 402.0076
v -849.397 75.84259 403.3417
v -849.397 75.84259 403.3417
v -841.1766 75.84259 397.7025
v -841.1766 75.84259 397.7025
v -852.2604 75.44112 399.2466
v -852.2604 75.44112 399.2466
v -844.1332 75.44112 393.4734
v -844.1332 75.44112 393.4734
v -855.214 75.03886 395.1301
v -855.214 75.03886 395.1301
v -847.1334 75.03886 389.2916
v -847.1334 75.03886 389.2916
v -858.1526 74.64463 391.0684
v -858.1526 74.64463 391.0684
v -850.0717 74.64463 385.2302
v -850.0717 74.64463 385.2302
v -861.117 74.24769 386.9372
v -861.117 74.24769 386.9372
v -852.9915 74.24769 381.1614
v -852.9915 74.24769 381.1614
v -864.0764 73.84702 382.7115
v -864.0764 73.84702 382.7115
v -855.8643 73.84702 377.0598
v -855.8643 73.84702 377.0598
v -866.9268 73.45182 378.4763
v -866.9268 73.45182 378.4763
v -858.5936 73.45182 373.005
v -858.5936 73.45182 373.005
v -869.712 73.05128 374.1045
v -869.712 73.05128 374.1045
v -861.2269 73.05128 368.8726
v -861.2269 73.05128 368.8726
v -872.4018 72.64442 369.5718
v -872.4018 72.64442 369.5718
v -863.7402 72.64442 364.6383
v -863.7402 72.64442 364.6383
v -874.9008 72.24104 364.9792
v -874.9008 72.24104 364.9792
v -866.051 72.24104 360.3924
v -866.051 72.24104 360.3924
v -877.2495 71.83002 360.1925
v -877.2495 71.83002 360.1925
v -868.2037 71.83002 356.0056
v -868.2037 71.83002 356.0056

vn -0.02814325 0.996165 -0.08284399
vn 0 0 0
vn -0.02888115 0.9966654 -0.07631601
vn 0 0 0
vn -0.03023744 0.9965546 -0.07723234
vn 0 0 0
vn -0.03203515 0.996837 -0.0727322
vn 0 0 0
vn -0.03457133 0.9966105 -0.07464721
vn 0 0 0
vn -0.0358761 0.9968451 -0.07080031
vn 0 0 0
vn -0.03810625 0.9966599 -0.07222927
vn 0 0 0
vn -0.03902125 0.9968645 -0.06883656
vn 0 0 0
vn -0.04088704 0.9967185 -0.06986067
vn 0 0 0
vn -0.0414941 0.9968885 -0.06701935
vn 0 0 0
vn -0.04296901 0.9967789 -0.06771607
vn 0 0 0
vn -0.04334957 0.9969115 -0.0654851
vn 0 0 0
vn -0.04443173 0.9968346 -0.06592936
vn 0 0 0
vn -0.04465267 0.9969288 -0.06433544
vn 0 0 0
vn -0.04535198 0.9968809 -0.06458713
vn 0 0 0
vn -0.04546142 0.9969373 -0.0636356
vn 0 0 0
vn -0.04579287 0.9969153 -0.06373995
vn 0 0 0
vn -0.04581916 0.9969348 -0.06341639
vn 0 0 0
vn -0.04580113 0.9969372 -0.06339353
vn 0 0 0
vn -0.04575615 0.9969211 -0.0636773
vn 0 0 0
vn -0.04540209 0.9969468 -0.06352782
vn 0 0 0
vn -0.04528262 0.9968967 -0.06439358
vn 0 0 0
vn -0.04461109 0.9969446 -0.06412028
vn 0 0 0
vn -0.04440184 0.9968625 -0.06552611
vn 0 0 0
vn -0.04340966 0.9969352 -0.06508444
vn 0 0 0
vn -0.04307863 0.996823 -0.0669933
vn 0 0 0
vn -0.04179144 0.9969196 -0.0663676
vn 0 0 0
vn -0.04128633 0.9967801 -0.06873818
vn 0 0 0
vn -0.0397294 0.9969006 -0.06790331
vn 0 0 0
vn -0.03902331 0.9967371 -0.07065721
vn 0 0 0
vn -0.03720376 0.9968855 -0.06953484
vn 0 0 0
vn -0.03625526 0.9967024 -0.07259397
vn 0 0 0
vn -0.03530048 0.9967796 -0.0720022
vn 0 0 0
vn -0.03521658 0.9964791 -0.07608544
vn 0 0 0

vt 0 0
vt 0 0
vt -1.887036 -0.6410522
vt -1.887036 -0.6410522
vt 0.3384278 -0.8862305
vt 0.3384278 -0.8862305
vt -1.500659 -1.655298
vt -1.500659 -1.655298
vt 0.734375 -1.761255
vt 0.734375 -1.761255
vt -1.058325 -2.633069
vt -1.058325 -2.633069
vt 1.176343 -2.61438
vt 1.176343 -2.61438
vt -0.5712647 -3.573511
vt -0.5712647 -3.573511
vt 1.659229 -3.451202
vt 1.659229 -3.451202
vt -0.04726563 -4.481891
vt -0.04726563 -4.481891
vt 2.177747 -4.276966
vt 2.177747 -4.276966
vt 0.5062866 -5.363708
vt 0.5062866 -5.363708
vt 2.726294 -5.096887
vt 2.726294 -5.096887
vt 1.082227 -6.224731
vt 1.082227 -6.224731
vt 3.298987 -5.915912
vt 3.298987 -5.915912
vt 1.673547 -7.07055
vt 1.673547 -7.07055
vt 3.889697 -6.739221
vt 3.889697 -6.739221
vt 2.273584 -7.906921
vt 2.273584 -7.906921
vt 4.477417 -7.551557
vt 4.477417 -7.551557
vt 2.861231 -8.719195
vt 2.861231 -8.719195
vt 5.070301 -8.377795
vt 5.070301 -8.377795
vt 3.445203 -9.532959
vt 3.445203 -9.532959
vt 5.66217 -9.222938
vt 5.66217 -9.222938
vt 4.019763 -10.35328
vt 4.019763 -10.35328
vt 6.232251 -10.06996
vt 6.232251 -10.06996
vt 4.565625 -11.16423
vt 4.565625 -11.16423
vt 6.789307 -10.94434
vt 6.789307 -10.94434
vt 5.092285 -11.99072
vt 5.092285 -11.99072
vt 7.327259 -11.85087
vt 7.327259 -11.85087
vt 5.594934 -12.83758
vt 5.594934 -12.83758
vt 7.827063 -12.7694
vt 7.827063 -12.7694
vt 6.057092 -13.68676
vt 6.057092 -13.68676
vt 8.29679 -13.72673
vt 8.29679 -13.72673
vt 6.487634 -14.56411
vt 6.487634 -14.56411

usemtl GSDRoad1
usemap GSDRoad1
f 5/5/5 1/1/1 3/3/3
f 7/7/7 5/5/5 3/3/3
f 9/9/9 5/5/5 7/7/7
f 11/11/11 9/9/9 7/7/7
f 13/13/13 9/9/9 11/11/11
f 15/15/15 13/13/13 11/11/11
f 17/17/17 13/13/13 15/15/15
f 19/19/19 17/17/17 15/15/15
f 21/21/21 17/17/17 19/19/19
f 23/23/23 21/21/21 19/19/19
f 25/25/25 21/21/21 23/23/23
f 27/27/27 25/25/25 23/23/23
f 29/29/29 25/25/25 27/27/27
f 31/31/31 29/29/29 27/27/27
f 33/33/33 29/29/29 31/31/31
f 35/35/35 33/33/33 31/31/31
f 37/37/37 33/33/33 35/35/35
f 39/39/39 37/37/37 35/35/35
f 41/41/41 37/37/37 39/39/39
f 43/43/43 41/41/41 39/39/39
f 45/45/45 41/41/41 43/43/43
f 47/47/47 45/45/45 43/43/43
f 49/49/49 45/45/45 47/47/47
f 51/51/51 49/49/49 47/47/47
f 53/53/53 49/49/49 51/51/51
f 55/55/55 53/53/53 51/51/51
f 57/57/57 53/53/53 55/55/55
f 59/59/59 57/57/57 55/55/55
f 61/61/61 57/57/57 59/59/59
f 63/63/63 61/61/61 59/59/59
f 65/65/65 61/61/61 63/63/63
f 67/67/67 65/65/65 63/63/63
