mtllib ./Road1_0_85.mtl
g Markers42
v -888.7513 4.100656 748.6785
v -888.7513 4.100656 748.6785
v -878.9249 4.100656 750.3523
v -878.9249 4.100656 750.3523
v -888.1251 4.489776 744.0408
v -888.1251 4.489776 744.0408
v -878.2109 4.489776 745.1038
v -878.2109 4.489776 745.1038
v -887.5499 4.879245 738.9664
v -887.5499 4.879245 738.9664
v -877.6517 4.879245 740.157
v -877.6517 4.879245 740.157
v -886.8852 5.2804 733.856
v -886.8852 5.2804 733.856
v -877.0146 5.2804 735.2448
v -877.0146 5.2804 735.2448
v -886.1096 5.68805 728.783
v -886.1096 5.68805 728.783
v -876.2753 5.68805 730.4024
v -876.2753 5.68805 730.4024
v -885.2243 6.10323 723.7005
v -885.2243 6.10323 723.7005
v -875.4182 6.10323 725.4839
v -875.4182 6.10323 725.4839
v -884.2939 6.512915 718.6869
v -884.2939 6.512915 718.6869
v -874.4974 6.512915 720.5284
v -874.4974 6.512915 720.5284

vn -0.01392265 0.9965568 0.08173463
vn 0 0 0
vn -0.0106798 0.9969714 0.07703318
vn 0 0 0
vn -0.009808413 0.9970174 0.07655147
vn 0 0 0
vn -0.008397198 0.9971284 0.07526175
vn 0 0 0
vn -0.00889479 0.9970147 0.07669719
vn 0 0 0
vn -0.00993409 0.9968937 0.07812971
vn 0 0 0
vn -0.01050637 0.9968625 0.07845191
vn 0 0 0
vn -0.01190269 0.9967208 0.08003835
vn 0 0 0
vn -0.01250067 0.9967349 0.07977039
vn 0 0 0
vn -0.0137735 0.9966337 0.08081799
vn 0 0 0
vn -0.01405522 0.9967107 0.07981389
vn 0 0 0
vn -0.01470697 0.9966884 0.07997411
vn 0 0 0
vn -0.01464671 0.9967508 0.07920402
vn 0 0 0
vn -0.014967 0.9967129 0.07961997
vn 0 0 0

vt 0 743.7576
vt 0 0
vt 1 743.7576
vt 0 0
vt 0 744.6968
vt 0 744.6968
vt 1 744.6968
vt 1 744.6968
vt 0 745.7211
vt 0 745.7211
vt 1 745.7211
vt 1 745.7211
vt 0 746.7549
vt 0 746.7549
vt 1 746.7549
vt 1 746.7549
vt 0 747.7845
vt 0 747.7845
vt 1 747.7845
vt 1 747.7845
vt 0 748.8197
vt 0 748.8197
vt 1 748.8197
vt 1 748.8197
vt 0 749.8428
vt 0 749.8428
vt 1 749.8428
vt 1 749.8428

usemtl GSDWhiteYellowDouble
usemap GSDWhiteYellowDouble
f 5/5/5 1/1/1 3/3/3
f 7/7/7 5/5/5 3/3/3
f 9/9/9 5/5/5 7/7/7
f 11/11/11 9/9/9 7/7/7
f 13/13/13 9/9/9 11/11/11
f 15/15/15 13/13/13 11/11/11
f 17/17/17 13/13/13 15/15/15
f 19/19/19 17/17/17 15/15/15
f 21/21/21 17/17/17 19/19/19
f 23/23/23 21/21/21 19/19/19
f 25/25/25 21/21/21 23/23/23
f 27/27/27 25/25/25 23/23/23
