mtllib ./Road1_0_223.mtl
g SCutL14
v -790.593 45.46899 63.94518
v -790.593 45.46899 63.94518
v -788.7793 45.46899 66.98232
v -788.7793 45.46899 66.98232
v -791.6849 44.30984 62.1165
v -791.6849 44.30984 62.1165
v -790.593 45.46899 63.94518
v -790.593 45.46899 63.94518
v -785.7399 45.03705 61.21801
v -785.7399 45.03705 61.21801
v -784.0988 45.03705 64.34985
v -784.0988 45.03705 64.34985
v -786.7282 43.7851 59.33181
v -786.7282 43.7851 59.33181
v -785.7399 45.03705 61.21801
v -785.7399 45.03705 61.21801
v -780.7516 44.60805 58.77891
v -780.7516 44.60805 58.77891
v -779.2911 44.60805 62.00925
v -779.2911 44.60805 62.00925
v -781.6299 43.50187 56.8364
v -781.6299 43.50187 56.8364
v -780.7516 44.60805 58.77891
v -780.7516 44.60805 58.77891
v -775.7217 44.18327 56.65089
v -775.7217 44.18327 56.65089
v -774.424 44.18327 59.95841
v -774.424 44.18327 59.95841
v -776.5011 43.03992 54.66447
v -776.5011 43.03992 54.66447
v -775.7217 44.18327 56.65089
v -775.7217 44.18327 56.65089
v -770.6833 43.76431 54.79742
v -770.6833 43.76431 54.79742
v -769.5315 43.76431 58.16517
v -769.5315 43.76431 58.16517
v -771.3745 42.64269 52.77687
v -771.3745 42.64269 52.77687
v -770.6833 43.76431 54.79742
v -770.6833 43.76431 54.79742
v -765.5276 43.34131 53.1446
v -765.5276 43.34131 53.1446
v -764.5092 43.34131 56.56025
v -764.5092 43.34131 56.56025
v -766.1381 42.03551 51.0969
v -766.1381 42.03551 51.0969
v -765.5276 43.34131 53.1446
v -765.5276 43.34131 53.1446
v -760.4115 42.92654 51.71359
v -760.4115 42.92654 51.71359
v -759.5117 42.92654 55.16601
v -759.5117 42.92654 55.16601
v -760.9507 41.66708 49.64497
v -760.9507 41.66708 49.64497
v -760.4115 42.92654 51.71359
v -760.4115 42.92654 51.71359
v -755.2169 42.50983 50.44513
v -755.2169 42.50983 50.44513
v -754.4249 42.50983 53.92618
v -754.4249 42.50983 53.92618
v -755.6912 41.30389 48.36006
v -755.6912 41.30389 48.36006
v -755.2169 42.50983 50.44513
v -755.2169 42.50983 50.44513
v -750.1024 42.10339 49.35503
v -750.1024 42.10339 49.35503
v -749.4058 42.10339 52.85735
v -749.4058 42.10339 52.85735
v -750.5196 40.75024 47.25747
v -750.5196 40.75024 47.25747
v -750.1024 42.10339 49.35503
v -750.1024 42.10339 49.35503
v -744.9441 41.6969 48.39602
v -744.9441 41.6969 48.39602
v -744.3338 41.6969 51.91414
v -744.3338 41.6969 51.91414
v -745.3096 40.75024 46.28885
v -745.3096 40.75024 46.28885
v -744.9441 41.6969 48.39602
v -744.9441 41.6969 48.39602
v -739.756 41.29115 47.55737
v -739.756 41.29115 47.55737
v -739.2238 41.29115 51.08661
v -739.2238 41.29115 51.08661
v -740.0749 40.40475 45.44295
v -740.0749 40.40475 45.44295
v -739.756 41.29115 47.55737
v -739.756 41.29115 47.55737
v -734.5528 40.88698 46.82879
v -734.5528 40.88698 46.82879
v -734.0909 40.88698 50.36514
v -734.0909 40.88698 50.36514
v -734.8297 39.89647 44.7091
v -734.8297 39.89647 44.7091
v -734.5528 40.88698 46.82879
v -734.5528 40.88698 46.82879
v -729.3505 40.48531 46.20049
v -729.3505 40.48531 46.20049
v -728.9515 40.48531 49.74049
v -728.9515 40.48531 49.74049
v -729.5899 39.54772 44.07718
v -729.5899 39.54772 44.07718
v -729.3505 40.48531 46.20049
v -729.3505 40.48531 46.20049
v -724.1634 40.08691 45.66263
v -724.1634 40.08691 45.66263
v -723.8203 40.08691 49.20325
v -723.8203 40.08691 49.20325
v -724.3694 39.05988 43.53708
v -724.3694 39.05988 43.53708
v -724.1634 40.08691 45.66263
v -724.1634 40.08691 45.66263
v -719.0078 39.69271 45.20581
v -719.0078 39.69271 45.20581
v -718.7139 39.69271 48.74441
v -718.7139 39.69271 48.74441
v -719.1843 38.57848 43.07919
v -719.1843 38.57848 43.07919
v -719.0078 39.69271 45.20581
v -719.0078 39.69271 45.20581
v -713.8985 39.30349 44.8206
v -713.8985 39.30349 44.8206
v -713.6476 39.30349 48.35481
v -713.6476 39.30349 48.35481
v -714.0494 38.26144 42.69389
v -714.0494 38.26144 42.69389
v -713.8985 39.30349 44.8206
v -713.8985 39.30349 44.8206
v -708.7134 38.90965 44.48972
v -708.7134 38.90965 44.48972
v -708.5003 38.90965 48.01722
v -708.5003 38.90965 48.01722
v -708.8419 37.793 42.36379
v -708.8419 37.793 42.36379
v -708.7134 38.90965 44.48972
v -708.7134 38.90965 44.48972
v -703.6113 38.52291 44.21489
v -703.6113 38.52291 44.21489
v -703.4296 38.52291 47.73365
v -703.4296 38.52291 47.73365
v -703.7211 37.33183 42.09051
v -703.7211 37.33183 42.09051
v -703.6113 38.52291 44.21489
v -703.6113 38.52291 44.21489
v -698.4769 38.1341 43.98073
v -698.4769 38.1341 43.98073
v -698.3207 38.1341 47.48859
v -698.3207 38.1341 47.48859
v -698.5714 37.02288 41.85863
v -698.5714 37.02288 41.85863
v -698.4769 38.1341 43.98073
v -698.4769 38.1341 43.98073
v -693.3386 37.74494 43.7802
v -693.3386 37.74494 43.7802
v -693.2015 37.74494 47.27498
v -693.2015 37.74494 47.27498
v -693.4217 36.57444 41.66108
v -693.4217 36.57444 41.66108
v -693.3386 37.74494 43.7802
v -693.3386 37.74494 43.7802
v -688.2292 37.35735 43.60474
v -688.2292 37.35735 43.60474
v -688.1041 37.35735 47.08422
v -688.1041 37.35735 47.08422
v -688.3053 36.27948 41.48929
v -688.3053 36.27948 41.48929
v -688.2292 37.35735 43.60474
v -688.2292 37.35735 43.60474
v -683.1855 36.97342 43.44424
v -683.1855 36.97342 43.44424
v -683.0638 36.97342 46.90612
v -683.0638 36.97342 46.90612
v -683.2596 35.98833 41.33315
v -683.2596 35.98833 41.33315
v -683.1855 36.97342 43.44424
v -683.1855 36.97342 43.44424
v -678.1343 36.58661 43.28315
v -678.1343 36.58661 43.28315
v -678.006 36.58661 46.72446
v -678.006 36.58661 46.72446
v -678.2128 35.5627 41.17731
v -678.2128 35.5627 41.17731
v -678.1343 36.58661 43.28315
v -678.1343 36.58661 43.28315
v -673.1439 36.20076 43.10715
v -673.1439 36.20076 43.10715
v -672.9957 36.20076 46.52448
v -672.9957 36.20076 46.52448
v -673.2349 35.2864 41.00764
v -673.2349 35.2864 41.00764
v -673.1439 36.20076 43.10715
v -673.1439 36.20076 43.10715
v -668.1974 35.8124 42.89346
v -668.1974 35.8124 42.89346
v -668.0104 35.8124 46.28199
v -668.0104 35.8124 46.28199
v -668.3128 35.01916 40.80193
v -668.3128 35.01916 40.80193
v -668.1974 35.8124 42.89346
v -668.1974 35.8124 42.89346
v -663.3355 35.42103 42.61147
v -663.3355 35.42103 42.61147
v -663.0807 35.42103 45.96386
v -663.0807 35.42103 45.96386
v -663.4937 34.49992 40.53074
v -663.4937 34.49992 40.53074
v -663.3355 35.42103 42.61147
v -663.3355 35.42103 42.61147
v -658.6133 35.02357 42.21288
v -658.6133 35.02357 42.21288
v -658.2386 35.02357 45.51538
v -658.2386 35.02357 45.51538
v -658.8474 33.62099 40.14914
v -658.8474 33.62099 40.14914
v -658.6133 35.02357 42.21288
v -658.6133 35.02357 42.21288

vn 0.06644034 0.9970013 -0.03967559
vn 0 0 0
vn 0.06870291 0.996895 -0.03847461
vn 0 0 0
vn -0.1638691 0.8745146 -0.4564769
vn 0 0 0
vn -0.1763557 0.8678358 -0.4644995
vn 0 0 0
vn 0.06855304 0.9969401 -0.03756288
vn 0 0 0
vn 0.07070634 0.9968715 -0.03532481
vn 0 0 0
vn -0.1790994 0.865437 -0.4679126
vn 0 0 0
vn -0.1714887 0.869423 -0.4633524
vn 0 0 0
vn 0.07058409 0.9969406 -0.03357523
vn 0 0 0
vn 0.0727216 0.9968574 -0.03141313
vn 0 0 0
vn -0.1461292 0.8774087 -0.4569466
vn 0 0 0
vn -0.1239649 0.8837 -0.4513392
vn 0 0 0
vn 0.07257134 0.9969148 -0.02990397
vn 0 0 0
vn 0.07430055 0.9968457 -0.0278965
vn 0 0 0
vn -0.1118236 0.8812301 -0.4592699
vn 0 0 0
vn -0.1061958 0.8809997 -0.4610445
vn 0 0 0
vn 0.07398479 0.9969065 -0.0265271
vn 0 0 0
vn 0.07538797 0.996849 -0.02466807
vn 0 0 0
vn -0.08239459 0.8812981 -0.4653222
vn 0 0 0
vn -0.07983274 0.8723458 -0.482327
vn 0 0 0
vn 0.074977 0.9969094 -0.02344768
vn 0 0 0
vn 0.07611722 0.9968618 -0.02174159
vn 0 0 0
vn -0.07648858 0.8615448 -0.5018865
vn 0 0 0
vn -0.08383351 0.8544907 -0.5126575
vn 0 0 0
vn 0.0756277 0.9969224 -0.0206481
vn 0 0 0
vn 0.07655152 0.9968827 -0.01909986
vn 0 0 0
vn -0.0734942 0.8570988 -0.5098827
vn 0 0 0
vn -0.06210062 0.8631406 -0.5011305
vn 0 0 0
vn 0.0760382 0.9969399 -0.01814046
vn 0 0 0
vn 0.07679107 0.9969068 -0.01674127
vn 0 0 0
vn -0.04296162 0.8655375 -0.4989981
vn 0 0 0
vn -0.03699041 0.8602613 -0.5085098
vn 0 0 0
vn 0.07625111 0.9969621 -0.01589089
vn 0 0 0
vn 0.07686258 0.9969342 -0.01463511
vn 0 0 0
vn -0.05314042 0.8524039 -0.5201766
vn 0 0 0
vn -0.05107764 0.8682763 -0.4934444
vn 0 0 0
vn 0.07633152 0.9969858 -0.01388708
vn 0 0 0
vn 0.07683468 0.9969624 -0.0127472
vn 0 0 0
vn -0.03773909 0.8914917 -0.4514626
vn 0 0 0
vn -0.0002578339 0.9156046 -0.4020796
vn 0 0 0
vn 0.07631813 0.9970103 -0.0120853
vn 0 0 0
vn 0.07673156 0.9969906 -0.01105518
vn 0 0 0
vn 0.01262115 0.9181659 -0.3959951
vn 0 0 0
vn 0.0182607 0.9157956 -0.4012294
vn 0 0 0
vn 0.07623799 0.9970347 -0.01047148
vn 0 0 0
vn 0.07657876 0.9970177 -0.00954651
vn 0 0 0
vn 0.01809634 0.9103873 -0.4133613
vn 0 0 0
vn 0.01379907 0.9082004 -0.4183079
vn 0 0 0
vn 0.07611589 0.997058 -0.009035107
vn 0 0 0
vn 0.07639778 0.9970436 -0.008210393
vn 0 0 0
vn 0.02449948 0.9105289 -0.4127189
vn 0 0 0
vn 0.02945448 0.9084759 -0.416898
vn 0 0 0
vn 0.07597227 0.9970797 -0.007764599
vn 0 0 0
vn 0.07620719 0.9970672 -0.007034383
vn 0 0 0
vn 0.0371585 0.903187 -0.427636
vn 0 0 0
vn 0.03159366 0.8939846 -0.4469825
vn 0 0 0
vn 0.07582536 0.997099 -0.006648531
vn 0 0 0
vn 0.07602397 0.9970879 -0.006008618
vn 0 0 0
vn 0.03023816 0.8892272 -0.4564652
vn 0 0 0
vn 0.02698077 0.888688 -0.457718
vn 0 0 0
vn 0.07568725 0.9971154 -0.00567538
vn 0 0 0
vn 0.07585487 0.9971058 -0.005116423
vn 0 0 0
vn 0.03574951 0.8923482 -0.4499299
vn 0 0 0
vn 0.04165009 0.891884 -0.4503423
vn 0 0 0
vn 0.07557593 0.9971284 -0.004834285
vn 0 0 0
vn 0.07572029 0.9971197 -0.004355548
vn 0 0 0
vn 0.04810973 0.8873171 -0.4586433
vn 0 0 0
vn 0.04380788 0.8791159 -0.4745905
vn 0 0 0
vn 0.07549898 0.9971372 -0.004120487
vn 0 0 0
vn 0.07562713 0.9971292 -0.003726854
vn 0 0 0
vn 0.04139078 0.8749152 -0.4825042
vn 0 0 0
vn 0.03846842 0.8753918 -0.4818808
vn 0 0 0
vn 0.07548098 0.997141 -0.003540526
vn 0 0 0
vn 0.07559645 0.9971332 -0.003232706
vn 0 0 0
vn 0.04493588 0.8796163 -0.4735567
vn 0 0 0
vn 0.05069277 0.8803642 -0.4715814
vn 0 0 0
vn 0.07553532 0.9971383 -0.003096872
vn 0 0 0
vn 0.07564415 0.9971307 -0.002885197
vn 0 0 0
vn 0.0468214 0.8771157 -0.4779916
vn 0 0 0
vn 0.04436971 0.8790218 -0.4747125
vn 0 0 0
vn 0.07568945 0.9971275 -0.002804682
vn 0 0 0
vn 0.07579638 0.9971196 -0.002705442
vn 0 0 0
vn 0.0410563 0.8844317 -0.4648601
vn 0 0 0
vn 0.04812422 0.8943812 -0.4447094
vn 0 0 0
vn 0.07598132 0.9971056 -0.002691554
vn 0 0 0
vn 0.07609457 0.9970969 -0.002728978
vn 0 0 0
vn 0.05183185 0.8992625 -0.4343274
vn 0 0 0
vn 0.05772204 0.9016156 -0.4286697
vn 0 0 0
vn 0.0764681 0.997068 -0.002796375
vn 0 0 0
vn 0.07659574 0.9970577 -0.003010517
vn 0 0 0
vn 0.05098919 0.8997472 -0.4334227
vn 0 0 0
vn 0.04873867 0.9034115 -0.4259954
vn 0 0 0
vn 0.07725033 0.9970065 -0.00319384
vn 0 0 0
vn 0.07740796 0.9969928 -0.003661313
vn 0 0 0
vn 0.04150999 0.9096339 -0.4133315
vn 0 0 0
vn 0.04912395 0.9210726 -0.3862796
vn 0 0 0
vn 0.07850998 0.9969052 -0.004022073
vn 0 0 0
vn 0.07872183 0.9968846 -0.004887572
vn 0 0 0
vn 0.05669134 0.9265413 -0.3718968
vn 0 0 0
vn 0.06245133 0.9252553 -0.3741691
vn 0 0 0
vn 0.08065718 0.9967263 -0.005569486
vn 0 0 0
vn 0.08098687 0.9966894 -0.007161431
vn 0 0 0
vn 0.08860472 0.9156991 -0.3919748
vn 0 0 0
vn 0.06807464 0.8825074 -0.4653455
vn 0 0 0
vn 0.08214142 0.9965904 -0.007769379
vn 0 0 0
vn 0.08096103 0.9966749 -0.009184181
vn 0 0 0
vn 0.0769932 0.8665398 -0.4931337
vn 0 0 0
vn 0.02192129 0.8257115 -0.5636666
vn 0 0 0

vt 0 0
vt 0 0
vt -0.3627319 0.6074272
vt -0.3627319 0.6074272
vt 0.218396 -0.3657364
vt 0.218396 -0.3657364
vt 0 0
vt 0 0
vt -0.9706177 -0.5454338
vt -0.9706177 -0.5454338
vt -1.298828 0.08093338
vt -1.298828 0.08093338
vt -0.7729492 -0.9226738
vt -0.7729492 -0.9226738
vt -0.9706177 -0.5454338
vt -0.9706177 -0.5454338
vt -1.968262 -1.033254
vt -1.968262 -1.033254
vt -2.260376 -0.3871857
vt -2.260376 -0.3871857
vt -1.792603 -1.421757
vt -1.792603 -1.421757
vt -1.968262 -1.033254
vt -1.968262 -1.033254
vt -2.974255 -1.458858
vt -2.974255 -1.458858
vt -3.233801 -0.7973534
vt -3.233801 -0.7973534
vt -2.818372 -1.856142
vt -2.818372 -1.856142
vt -2.974255 -1.458858
vt -2.974255 -1.458858
vt -3.981921 -1.829551
vt -3.981921 -1.829551
vt -4.212293 -1.156001
vt -4.212293 -1.156001
vt -3.843701 -2.233662
vt -3.843701 -2.233662
vt -3.981921 -1.829551
vt -3.981921 -1.829551
vt -5.013074 -2.160117
vt -5.013074 -2.160117
vt -5.216748 -1.476986
vt -5.216748 -1.476986
vt -4.890967 -2.569656
vt -4.890967 -2.569656
vt -5.013074 -2.160117
vt -5.013074 -2.160117
vt -6.036292 -2.446318
vt -6.036292 -2.446318
vt -6.216248 -1.755834
vt -6.216248 -1.755834
vt -5.928455 -2.860041
vt -5.928455 -2.860041
vt -6.036292 -2.446318
vt -6.036292 -2.446318
vt -7.07522 -2.700009
vt -7.07522 -2.700009
vt -7.233606 -2.0038
vt -7.233606 -2.0038
vt -6.980347 -3.117023
vt -6.980347 -3.117023
vt -7.07522 -2.700009
vt -7.07522 -2.700009
vt -8.098108 -2.918031
vt -8.098108 -2.918031
vt -8.237439 -2.217567
vt -8.237439 -2.217567
vt -8.014673 -3.337543
vt -8.014673 -3.337543
vt -8.098108 -2.918031
vt -8.098108 -2.918031
vt -9.129773 -3.109831
vt -9.129773 -3.109831
vt -9.251831 -2.406208
vt -9.251831 -2.406208
vt -9.056678 -3.531267
vt -9.056678 -3.531267
vt -9.129773 -3.109831
vt -9.129773 -3.109831
vt -10.16738 -3.277561
vt -10.16738 -3.277561
vt -10.27383 -2.571714
vt -10.27383 -2.571714
vt -10.10361 -3.700446
vt -10.10361 -3.700446
vt -10.16738 -3.277561
vt -10.16738 -3.277561
vt -11.20803 -3.423277
vt -11.20803 -3.423277
vt -11.30042 -2.716007
vt -11.30042 -2.716007
vt -11.15265 -3.847215
vt -11.15265 -3.847215
vt -11.20803 -3.423277
vt -11.20803 -3.423277
vt -12.24849 -3.548938
vt -12.24849 -3.548938
vt -12.3283 -2.840938
vt -12.3283 -2.840938
vt -12.20061 -3.973599
vt -12.20061 -3.973599
vt -12.24849 -3.548938
vt -12.24849 -3.548938
vt -13.28591 -3.65651
vt -13.28591 -3.65651
vt -13.35454 -2.948385
vt -13.35454 -2.948385
vt -13.24471 -4.081619
vt -13.24471 -4.081619
vt -13.28591 -3.65651
vt -13.28591 -3.65651
vt -14.31704 -3.747874
vt -14.31704 -3.747874
vt -14.37581 -3.040154
vt -14.37581 -3.040154
vt -14.28173 -4.173198
vt -14.28173 -4.173198
vt -14.31704 -3.747874
vt -14.31704 -3.747874
vt -15.33889 -3.824916
vt -15.33889 -3.824916
vt -15.38906 -3.118073
vt -15.38906 -3.118073
vt -15.3087 -4.250257
vt -15.3087 -4.250257
vt -15.33889 -3.824916
vt -15.33889 -3.824916
vt -16.3759 -3.891093
vt -16.3759 -3.891093
vt -16.41853 -3.185592
vt -16.41853 -3.185592
vt -16.35022 -4.316278
vt -16.35022 -4.316278
vt -16.3759 -3.891093
vt -16.3759 -3.891093
vt -17.39633 -3.946059
vt -17.39633 -3.946059
vt -17.43268 -3.242305
vt -17.43268 -3.242305
vt -17.37438 -4.370934
vt -17.37438 -4.370934
vt -17.39633 -3.946059
vt -17.39633 -3.946059
vt -18.42322 -3.992889
vt -18.42322 -3.992889
vt -18.45446 -3.291317
vt -18.45446 -3.291317
vt -18.40431 -4.417309
vt -18.40431 -4.417309
vt -18.42322 -3.992889
vt -18.42322 -3.992889
vt -19.45088 -4.032997
vt -19.45088 -4.032997
vt -19.4783 -3.33404
vt -19.4783 -3.33404
vt -19.43425 -4.45682
vt -19.43425 -4.45682
vt -19.45088 -4.032997
vt -19.45088 -4.032997
vt -20.47275 -4.068088
vt -20.47275 -4.068088
vt -20.49778 -3.372191
vt -20.49778 -3.372191
vt -20.45753 -4.491178
vt -20.45753 -4.491178
vt -20.47275 -4.068088
vt -20.47275 -4.068088
vt -21.48149 -4.100189
vt -21.48149 -4.100189
vt -21.50583 -3.407813
vt -21.50583 -3.407813
vt -21.46666 -4.522406
vt -21.46666 -4.522406
vt -21.48149 -4.100189
vt -21.48149 -4.100189
vt -22.49172 -4.132407
vt -22.49172 -4.132407
vt -22.51738 -3.444144
vt -22.51738 -3.444144
vt -22.47603 -4.553574
vt -22.47603 -4.553574
vt -22.49172 -4.132407
vt -22.49172 -4.132407
vt -23.48981 -4.167606
vt -23.48981 -4.167606
vt -23.51946 -3.484141
vt -23.51946 -3.484141
vt -23.47161 -4.587507
vt -23.47161 -4.587507
vt -23.48981 -4.167606
vt -23.48981 -4.167606
vt -24.47911 -4.210345
vt -24.47911 -4.210345
vt -24.5165 -3.532639
vt -24.5165 -3.532639
vt -24.45603 -4.628651
vt -24.45603 -4.628651
vt -24.47911 -4.210345
vt -24.47911 -4.210345
vt -25.45149 -4.266743
vt -25.45149 -4.266743
vt -25.50245 -3.596264
vt -25.50245 -3.596264
vt -25.41986 -4.682888
vt -25.41986 -4.682888
vt -25.45149 -4.266743
vt -25.45149 -4.266743
vt -26.39594 -4.346459
vt -26.39594 -4.346459
vt -26.47086 -3.68596
vt -26.47086 -3.68596
vt -26.34911 -4.759209
vt -26.34911 -4.759209
vt -26.39594 -4.346459
vt -26.39594 -4.346459

usemtl GSDShoulder1
usemap GSDShoulder1
f 9/9/9 1/1/1 3/3/3
f 11/11/11 9/9/9 3/3/3
f 13/13/13 5/5/5 7/7/7
f 15/15/15 13/13/13 7/7/7
f 17/17/17 9/9/9 11/11/11
f 19/19/19 17/17/17 11/11/11
f 21/21/21 13/13/13 15/15/15
f 23/23/23 21/21/21 15/15/15
f 25/25/25 17/17/17 19/19/19
f 27/27/27 25/25/25 19/19/19
f 29/29/29 21/21/21 23/23/23
f 31/31/31 29/29/29 23/23/23
f 33/33/33 25/25/25 27/27/27
f 35/35/35 33/33/33 27/27/27
f 37/37/37 29/29/29 31/31/31
f 39/39/39 37/37/37 31/31/31
f 41/41/41 33/33/33 35/35/35
f 43/43/43 41/41/41 35/35/35
f 45/45/45 37/37/37 39/39/39
f 47/47/47 45/45/45 39/39/39
f 49/49/49 41/41/41 43/43/43
f 51/51/51 49/49/49 43/43/43
f 53/53/53 45/45/45 47/47/47
f 55/55/55 53/53/53 47/47/47
f 57/57/57 49/49/49 51/51/51
f 59/59/59 57/57/57 51/51/51
f 61/61/61 53/53/53 55/55/55
f 63/63/63 61/61/61 55/55/55
f 65/65/65 57/57/57 59/59/59
f 67/67/67 65/65/65 59/59/59
f 69/69/69 61/61/61 63/63/63
f 71/71/71 69/69/69 63/63/63
f 73/73/73 65/65/65 67/67/67
f 75/75/75 73/73/73 67/67/67
f 77/77/77 69/69/69 71/71/71
f 79/79/79 77/77/77 71/71/71
f 81/81/81 73/73/73 75/75/75
f 83/83/83 81/81/81 75/75/75
f 85/85/85 77/77/77 79/79/79
f 87/87/87 85/85/85 79/79/79
f 89/89/89 81/81/81 83/83/83
f 91/91/91 89/89/89 83/83/83
f 93/93/93 85/85/85 87/87/87
f 95/95/95 93/93/93 87/87/87
f 97/97/97 89/89/89 91/91/91
f 99/99/99 97/97/97 91/91/91
f 101/101/101 93/93/93 95/95/95
f 103/103/103 101/101/101 95/95/95
f 105/105/105 97/97/97 99/99/99
f 107/107/107 105/105/105 99/99/99
f 109/109/109 101/101/101 103/103/103
f 111/111/111 109/109/109 103/103/103
f 113/113/113 105/105/105 107/107/107
f 115/115/115 113/113/113 107/107/107
f 117/117/117 109/109/109 111/111/111
f 119/119/119 117/117/117 111/111/111
f 121/121/121 113/113/113 115/115/115
f 123/123/123 121/121/121 115/115/115
f 125/125/125 117/117/117 119/119/119
f 127/127/127 125/125/125 119/119/119
f 129/129/129 121/121/121 123/123/123
f 131/131/131 129/129/129 123/123/123
f 133/133/133 125/125/125 127/127/127
f 135/135/135 133/133/133 127/127/127
f 137/137/137 129/129/129 131/131/131
f 139/139/139 137/137/137 131/131/131
f 141/141/141 133/133/133 135/135/135
f 143/143/143 141/141/141 135/135/135
f 145/145/145 137/137/137 139/139/139
f 147/147/147 145/145/145 139/139/139
f 149/149/149 141/141/141 143/143/143
f 151/151/151 149/149/149 143/143/143
f 153/153/153 145/145/145 147/147/147
f 155/155/155 153/153/153 147/147/147
f 157/157/157 149/149/149 151/151/151
f 159/159/159 157/157/157 151/151/151
f 161/161/161 153/153/153 155/155/155
f 163/163/163 161/161/161 155/155/155
f 165/165/165 157/157/157 159/159/159
f 167/167/167 165/165/165 159/159/159
f 169/169/169 161/161/161 163/163/163
f 171/171/171 169/169/169 163/163/163
f 173/173/173 165/165/165 167/167/167
f 175/175/175 173/173/173 167/167/167
f 177/177/177 169/169/169 171/171/171
f 179/179/179 177/177/177 171/171/171
f 181/181/181 173/173/173 175/175/175
f 183/183/183 181/181/181 175/175/175
f 185/185/185 177/177/177 179/179/179
f 187/187/187 185/185/185 179/179/179
f 189/189/189 181/181/181 183/183/183
f 191/191/191 189/189/189 183/183/183
f 193/193/193 185/185/185 187/187/187
f 195/195/195 193/193/193 187/187/187
f 197/197/197 189/189/189 191/191/191
f 199/199/199 197/197/197 191/191/191
f 201/201/201 193/193/193 195/195/195
f 203/203/203 201/201/201 195/195/195
f 205/205/205 197/197/197 199/199/199
f 207/207/207 205/205/205 199/199/199
f 209/209/209 201/201/201 203/203/203
f 211/211/211 209/209/209 203/203/203
f 213/213/213 205/205/205 207/207/207
f 215/215/215 213/213/213 207/207/207
