mtllib ./Road1_0_81.mtl
g Markers40
v -863.9375 0.03961978 841.4169
v -863.9375 0.03961978 841.4169
v -856.6298 0.03961978 834.5907
v -856.6298 0.03961978 834.5907
v -867.5007 0.05849331 837.3591
v -867.5007 0.05849331 837.3591
v -859.7883 0.05849331 830.9939
v -859.7883 0.05849331 830.9939
v -870.7879 0.09662899 833.1416
v -870.7879 0.09662899 833.1416
v -862.7393 0.09662899 827.2078
v -862.7393 0.09662899 827.2078
v -873.7968 0.1517519 828.8442
v -873.7968 0.1517519 828.8442
v -865.4724 0.1517519 823.3044
v -865.4724 0.1517519 823.3044
v -876.6107 0.2238392 824.4034
v -876.6107 0.2238392 824.4034
v -868.051 0.2238392 819.2356
v -868.051 0.2238392 819.2356
v -879.2278 0.312162 819.8589
v -879.2278 0.312162 819.8589
v -870.4646 0.312162 815.0453
v -870.4646 0.312162 815.0453
v -881.6435 0.4159746 815.2509
v -881.6435 0.4159746 815.2509
v -872.7021 0.4159746 810.7786
v -872.7021 0.4159746 810.7786
v -883.9088 0.5378469 810.4974
v -883.9088 0.5378469 810.4974
v -874.805 0.5378469 806.3676
v -874.805 0.5378469 806.3676
v -886.001 0.6781478 805.6405
v -886.001 0.6781478 805.6405
v -876.7474 0.6781478 801.8608
v -876.7474 0.6781478 801.8608
v -887.8956 0.8371167 800.7299
v -887.8956 0.8371167 800.7299
v -878.5023 0.8371167 797.3161
v -878.5023 0.8371167 797.3161
v -889.603 1.019345 795.7042
v -889.603 1.019345 795.7042
v -880.0745 1.019345 792.6937
v -880.0745 1.019345 792.6937
v -891.0729 1.225887 790.6387
v -891.0729 1.225887 790.6387
v -881.4131 1.225887 788.0901
v -881.4131 1.225887 788.0901

vn 0.002386853 0.9999939 0.002555239
vn 0 0 0
vn 0.002445136 0.9999931 0.002784108
vn 0 0 0
vn 0.003166732 0.999988 0.003719883
vn 0 0 0
vn 0.003946661 0.9999797 0.00500136
vn 0 0 0
vn 0.005173585 0.9999635 0.006789062
vn 0 0 0
vn 0.005799738 0.9999498 0.008168328
vn 0 0 0
vn 0.006759667 0.9999287 0.009843967
vn 0 0 0
vn 0.007261295 0.9999098 0.01129708
vn 0 0 0
vn 0.008020388 0.9998848 0.0128837
vn 0 0 0
vn 0.008420557 0.9998607 0.01441591
vn 0 0 0
vn 0.009040078 0.9998316 0.01596711
vn 0 0 0
vn 0.009352298 0.9998016 0.01758474
vn 0 0 0
vn 0.009873545 0.9997678 0.01915553
vn 0 0 0
vn 0.01010628 0.9997306 0.0208952
vn 0 0 0
vn 0.01054397 0.9996909 0.02251917
vn 0 0 0
vn 0.01069659 0.9996441 0.02443727
vn 0 0 0
vn 0.01106682 0.9995959 0.0261803
vn 0 0 0
vn 0.01112937 0.9995363 0.02834187
vn 0 0 0
vn 0.01143547 0.9994759 0.030285
vn 0 0 0
vn 0.01137815 0.9993967 0.0328141
vn 0 0 0
vn 0.01159354 0.999319 0.03503057
vn 0 0 0
vn 0.01135206 0.9992082 0.03813183
vn 0 0 0
vn 0.01140676 0.9991594 0.03937261
vn 0 0 0
vn 0.01098337 0.9990727 0.04162981
vn 0 0 0

vt 0 723.6243
vt 0 0
vt 1 723.6243
vt 0 0
vt 0 724.7043
vt 0 724.7043
vt 1 724.7043
vt 1 724.7043
vt 0 725.7737
vt 0 725.7737
vt 1 725.7737
vt 1 725.7737
vt 0 726.823
vt 0 726.823
vt 1 726.823
vt 1 726.823
vt 0 727.8746
vt 0 727.8746
vt 1 727.8746
vt 1 727.8746
vt 0 728.9236
vt 0 728.9236
vt 1 728.9236
vt 1 728.9236
vt 0 729.9644
vt 0 729.9644
vt 1 729.9644
vt 1 729.9644
vt 0 731.0178
vt 0 731.0178
vt 1 731.0178
vt 1 731.0178
vt 0 732.0758
vt 0 732.0758
vt 1 732.0758
vt 1 732.0758
vt 0 733.129
vt 0 733.129
vt 1 733.129
vt 1 733.129
vt 0 734.1912
vt 0 734.1912
vt 1 734.1912
vt 1 734.1912
vt 0 735.2469
vt 0 0
vt 1 735.2469
vt 0 0

usemtl GSDWhiteYellowDouble
usemap GSDWhiteYellowDouble
f 5/5/5 1/1/1 3/3/3
f 7/7/7 5/5/5 3/3/3
f 9/9/9 5/5/5 7/7/7
f 11/11/11 9/9/9 7/7/7
f 13/13/13 9/9/9 11/11/11
f 15/15/15 13/13/13 11/11/11
f 17/17/17 13/13/13 15/15/15
f 19/19/19 17/17/17 15/15/15
f 21/21/21 17/17/17 19/19/19
f 23/23/23 21/21/21 19/19/19
f 25/25/25 21/21/21 23/23/23
f 27/27/27 25/25/25 23/23/23
f 29/29/29 25/25/25 27/27/27
f 31/31/31 29/29/29 27/27/27
f 33/33/33 29/29/29 31/31/31
f 35/35/35 33/33/33 31/31/31
f 37/37/37 33/33/33 35/35/35
f 39/39/39 37/37/37 35/35/35
f 41/41/41 37/37/37 39/39/39
f 43/43/43 41/41/41 39/39/39
f 45/45/45 41/41/41 43/43/43
f 47/47/47 45/45/45 43/43/43
