mtllib ./Road1_0_79.mtl
g Markers39
v -806.1608 1.279826 876.8568
v -806.1608 1.279826 876.8568
v -805.166 1.279826 866.933
v -805.166 1.279826 866.933
v -811.6835 0.987094 875.9838
v -811.6835 0.987094 875.9838
v -809.5571 0.987094 866.2248
v -809.5571 0.987094 866.2248
v -816.9987 0.7645598 874.537
v -816.9987 0.7645598 874.537
v -813.9054 0.7645598 865.0359
v -813.9054 0.7645598 865.0359
v -822.1193 0.582484 872.6254
v -822.1193 0.582484 872.6254
v -818.2467 0.582484 863.4114
v -818.2467 0.582484 863.4114
v -827.0355 0.43558 870.3507
v -827.0355 0.43558 870.3507
v -822.5327 0.43558 861.4255
v -822.5327 0.43558 861.4255
v -831.739 0.3190247 867.799
v -831.739 0.3190247 867.799
v -826.7219 0.3190247 859.151
v -826.7219 0.3190247 859.151
v -836.2215 0.2284342 865.0441
v -836.2215 0.2284342 865.0441
v -830.7797 0.2284342 856.6559
v -830.7797 0.2284342 856.6559
v -840.5891 0.1582338 862.0695
v -840.5891 0.1582338 862.0695
v -834.7832 0.1582338 853.9285
v -834.7832 0.1582338 853.9285
v -844.8247 0.1061581 858.9193
v -844.8247 0.1061581 858.9193
v -838.7028 0.1061581 851.0127
v -838.7028 0.1061581 851.0127
v -848.9106 0.06993032 855.6362
v -848.9106 0.06993032 855.6362
v -842.511 0.06993032 847.9523
v -842.511 0.06993032 847.9523
v -852.8265 0.04729509 852.2639
v -852.8265 0.04729509 852.2639
v -846.1794 0.04729509 844.7929
v -846.1794 0.04729509 844.7929
v -856.6489 0.03581166 848.7543
v -856.6489 0.03581166 848.7543
v -849.7722 0.03581166 841.4941
v -849.7722 0.03581166 841.4941
v -860.3391 0.03385043 845.1511
v -860.3391 0.03385043 845.1511
v -853.2455 0.03385043 838.1026
v -853.2455 0.03385043 838.1026
v -863.9375 0.0396198 841.4169
v -863.9375 0.0396198 841.4169
v -856.6298 0.0396198 834.5907
v -856.6298 0.0396198 834.5907

vn -0.0521063 0.9986278 -0.005223065
vn 0 0 0
vn -0.05750094 0.9983037 -0.009118229
vn 0 0 0
vn -0.05112138 0.9986523 -0.008936733
vn 0 0 0
vn -0.04943654 0.9987009 -0.01234769
vn 0 0 0
vn -0.03890555 0.9991807 -0.01115423
vn 0 0 0
vn -0.03783009 0.9991943 -0.01340498
vn 0 0 0
vn -0.03070772 0.9994582 -0.01184933
vn 0 0 0
vn -0.02940592 0.9994816 -0.01310679
vn 0 0 0
vn -0.02393018 0.9996494 -0.01133667
vn 0 0 0
vn -0.02264461 0.9996723 -0.01193829
vn 0 0 0
vn -0.01841981 0.9997786 -0.01017435
vn 0 0 0
vn -0.01725337 0.9997975 -0.010362
vn 0 0 0
vn -0.01393153 0.9998652 -0.008686849
vn 0 0 0
vn -0.01289749 0.9998797 -0.008614459
vn 0 0 0
vn -0.01028534 0.999922 -0.007088898
vn 0 0 0
vn -0.009378147 0.9999325 -0.006855904
vn 0 0 0
vn -0.007285434 0.9999585 -0.005472769
vn 0 0 0
vn -0.006506083 0.9999656 -0.005146202
vn 0 0 0
vn -0.004830662 0.9999807 -0.003913582
vn 0 0 0
vn -0.004172493 0.999985 -0.003539712
vn 0 0 0
vn -0.002821868 0.999993 -0.00244562
vn 0 0 0
vn -0.002269328 0.9999953 -0.002051219
vn 0 0 0
vn -0.001204823 0.9999987 -0.001108809
vn 0 0 0
vn -0.0007484891 0.9999995 -0.0007144585
vn 0 0 0
vn 8.293353E-05 1 8.901387E-05
vn 0 0 0
vn 0.000443988 0.9999998 0.0004637681
vn 0 0 0
vn 0.0007955637 0.9999993 0.0008257664
vn 0 0 0
vn 0.0008075899 0.9999994 0.000864563
vn 0 0 0

vt 0 709.8002
vt 0 0
vt 1 709.8002
vt 0 0
vt 0 710.92
vt 0 710.92
vt 1 710.92
vt 1 710.92
vt 0 712.0226
vt 0 712.0226
vt 1 712.0226
vt 1 712.0226
vt 0 713.1164
vt 0 713.1164
vt 1 713.1164
vt 1 713.1164
vt 0 714.2002
vt 0 714.2002
vt 1 714.2002
vt 1 714.2002
vt 0 715.2707
vt 0 715.2707
vt 1 715.2707
vt 1 715.2707
vt 0 716.3231
vt 0 716.3231
vt 1 716.3231
vt 1 716.3231
vt 0 717.3801
vt 0 717.3801
vt 1 717.3801
vt 1 717.3801
vt 0 718.4359
vt 0 718.4359
vt 1 718.4359
vt 1 718.4359
vt 0 719.4842
vt 0 719.4842
vt 1 719.4842
vt 1 719.4842
vt 0 720.5178
vt 0 720.5178
vt 1 720.5178
vt 1 720.5178
vt 0 721.5556
vt 0 721.5556
vt 1 721.5556
vt 1 721.5556
vt 0 722.5871
vt 0 722.5871
vt 1 722.5871
vt 1 722.5871
vt 0 723.6243
vt 0 0
vt 1 723.6243
vt 0 0

usemtl GSDWhiteYellowDouble
usemap GSDWhiteYellowDouble
f 5/5/5 1/1/1 3/3/3
f 7/7/7 5/5/5 3/3/3
f 9/9/9 5/5/5 7/7/7
f 11/11/11 9/9/9 7/7/7
f 13/13/13 9/9/9 11/11/11
f 15/15/15 13/13/13 11/11/11
f 17/17/17 13/13/13 15/15/15
f 19/19/19 17/17/17 15/15/15
f 21/21/21 17/17/17 19/19/19
f 23/23/23 21/21/21 19/19/19
f 25/25/25 21/21/21 23/23/23
f 27/27/27 25/25/25 23/23/23
f 29/29/29 25/25/25 27/27/27
f 31/31/31 29/29/29 27/27/27
f 33/33/33 29/29/29 31/31/31
f 35/35/35 33/33/33 31/31/31
f 37/37/37 33/33/33 35/35/35
f 39/39/39 37/37/37 35/35/35
f 41/41/41 37/37/37 39/39/39
f 43/43/43 41/41/41 39/39/39
f 45/45/45 41/41/41 43/43/43
f 47/47/47 45/45/45 43/43/43
f 49/49/49 45/45/45 47/47/47
f 51/51/51 49/49/49 47/47/47
f 53/53/53 49/49/49 51/51/51
f 55/55/55 53/53/53 51/51/51
