mtllib ./Road1_0_257.mtl
g SCutL48
v -758.89 16.88923 695.6505
v -758.89 16.88923 695.6505
v -761.1076 16.88923 697.7706
v -761.1076 16.88923 697.7706
v -757.4329 16.17695 694.2574
v -757.4329 16.17695 694.2574
v -758.89 16.88923 695.6505
v -758.89 16.88923 695.6505
v -755.3445 17.13988 699.2905
v -755.3445 17.13988 699.2905
v -757.5731 17.13988 701.4209
v -757.5731 17.13988 701.4209
v -753.8853 16.35813 697.8956
v -753.8853 16.35813 697.8956
v -755.3445 17.13988 699.2905
v -755.3445 17.13988 699.2905
v -751.7334 17.45199 703.2363
v -751.7334 17.45199 703.2363
v -754.0604 17.45199 705.2749
v -754.0604 17.45199 705.2749
v -750.2136 16.56605 701.9049
v -750.2136 16.56605 701.9049
v -751.7334 17.45199 703.2363
v -751.7334 17.45199 703.2363
v -748.3508 17.82029 707.1954
v -748.3508 17.82029 707.1954
v -750.7283 17.82029 709.1868
v -750.7283 17.82029 709.1868
v -746.801 16.72399 705.8973
v -746.801 16.72399 705.8973
v -748.3508 17.82029 707.1954
v -748.3508 17.82029 707.1954
v -745.1675 18.22628 710.9869
v -745.1675 18.22628 710.9869
v -747.5354 18.22628 712.997
v -747.5354 18.22628 712.997
v -743.626 17.14435 709.6783
v -743.626 17.14435 709.6783
v -745.1675 18.22628 710.9869
v -745.1675 18.22628 710.9869
v -742.0275 18.65716 714.5621
v -742.0275 18.65716 714.5621
v -744.3163 18.65716 716.6641
v -744.3163 18.65716 716.6641
v -740.5379 17.37304 713.1942
v -740.5379 17.37304 713.1942
v -742.0275 18.65716 714.5621
v -742.0275 18.65716 714.5621
v -738.9007 19.07756 717.7601
v -738.9007 19.07756 717.7601
v -741.043 19.07756 720.0096
v -741.043 19.07756 720.0096
v -737.5059 17.91816 716.2955
v -737.5059 17.91816 716.2955
v -738.9007 19.07756 717.7601
v -738.9007 19.07756 717.7601

vn -0.03404729 0.9987855 -0.03561258
vn 0 0 0
vn -0.03404695 0.9987854 -0.03561385
vn 0 0 0
vn 0.2151554 0.9422331 -0.2567195
vn 0 0 0
vn 0.2209612 0.9368973 -0.2709236
vn 0 0 0
vn -0.03619433 0.9986274 -0.03786072
vn 0 0 0
vn -0.037951 0.99844 -0.04095501
vn 0 0 0
vn 0.2282019 0.9352878 -0.2704821
vn 0 0 0
vn 0.2433961 0.9259915 -0.2886141
vn 0 0 0
vn -0.04203106 0.9980252 -0.04667865
vn 0 0 0
vn -0.04391797 0.9977362 -0.05092854
vn 0 0 0
vn 0.2630491 0.920953 -0.2874903
vn 0 0 0
vn 0.2902687 0.9029019 -0.3170367
vn 0 0 0
vn -0.04823721 0.9972218 -0.05676325
vn 0 0 0
vn -0.05030601 0.9969429 -0.0597841
vn 0 0 0
vn 0.3087346 0.89054 -0.3340981
vn 0 0 0
vn 0.3173161 0.8777489 -0.3589811
vn 0 0 0
vn -0.05445971 0.9964348 -0.06443488
vn 0 0 0
vn -0.05681647 0.9962562 -0.06515823
vn 0 0 0
vn 0.3185646 0.8789183 -0.3549918
vn 0 0 0
vn 0.33044 0.8678431 -0.3710226
vn 0 0 0
vn -0.06033765 0.9958961 -0.0674555
vn 0 0 0
vn -0.06249986 0.9959192 -0.06510457
vn 0 0 0
vn 0.3296753 0.854615 -0.4011825
vn 0 0 0
vn 0.319757 0.8489856 -0.4206886
vn 0 0 0
vn -0.06409327 0.9958075 -0.06526554
vn 0 0 0
vn -0.06482246 0.9959856 -0.06173057
vn 0 0 0
vn 0.3028627 0.8521613 -0.426726
vn 0 0 0
vn 0.2961343 0.8657971 -0.4033607
vn 0 0 0

vt 0 0
vt 0 0
vt 0.4435303 0.4240356
vt 0.4435303 0.4240356
vt -0.2914185 -0.2786133
vt -0.2914185 -0.2786133
vt 0 0
vt 0 0
vt -0.7090821 0.7280151
vt -0.7090821 0.7280151
vt -0.2633789 1.154089
vt -0.2633789 1.154089
vt -1.00094 0.4490235
vt -1.00094 0.4490235
vt -0.7090821 0.7280151
vt -0.7090821 0.7280151
vt -1.431311 1.517175
vt -1.431311 1.517175
vt -0.9659058 1.92489
vt -0.9659058 1.92489
vt -1.735278 1.250891
vt -1.735278 1.250891
vt -1.431311 1.517175
vt -1.431311 1.517175
vt -2.107837 2.308985
vt -2.107837 2.308985
vt -1.632324 2.707263
vt -1.632324 2.707263
vt -2.417798 2.049377
vt -2.417798 2.049377
vt -2.107837 2.308985
vt -2.107837 2.308985
vt -2.744483 3.067297
vt -2.744483 3.067297
vt -2.270911 3.469311
vt -2.270911 3.469311
vt -3.052795 2.805579
vt -3.052795 2.805579
vt -2.744483 3.067297
vt -2.744483 3.067297
vt -3.372498 3.782336
vt -3.372498 3.782336
vt -2.914722 4.202734
vt -2.914722 4.202734
vt -3.67041 3.508753
vt -3.67041 3.508753
vt -3.372498 3.782336
vt -3.372498 3.782336
vt -3.997852 4.421924
vt -3.997852 4.421924
vt -3.569397 4.871839
vt -3.569397 4.871839
vt -4.276807 4.129004
vt -4.276807 4.129004
vt -3.997852 4.421924
vt -3.997852 4.421924

usemtl GSDShoulder1
usemap GSDShoulder1
f 9/9/9 1/1/1 3/3/3
f 11/11/11 9/9/9 3/3/3
f 13/13/13 5/5/5 7/7/7
f 15/15/15 13/13/13 7/7/7
f 17/17/17 9/9/9 11/11/11
f 19/19/19 17/17/17 11/11/11
f 21/21/21 13/13/13 15/15/15
f 23/23/23 21/21/21 15/15/15
f 25/25/25 17/17/17 19/19/19
f 27/27/27 25/25/25 19/19/19
f 29/29/29 21/21/21 23/23/23
f 31/31/31 29/29/29 23/23/23
f 33/33/33 25/25/25 27/27/27
f 35/35/35 33/33/33 27/27/27
f 37/37/37 29/29/29 31/31/31
f 39/39/39 37/37/37 31/31/31
f 41/41/41 33/33/33 35/35/35
f 43/43/43 41/41/41 35/35/35
f 45/45/45 37/37/37 39/39/39
f 47/47/47 45/45/45 39/39/39
f 49/49/49 41/41/41 43/43/43
f 51/51/51 49/49/49 43/43/43
f 53/53/53 45/45/45 47/47/47
f 55/55/55 53/53/53 47/47/47
