mtllib ./Road1_0_10.mtl
g RoadCut5
v -511.756 72.19181 594.011
v -511.756 72.19181 594.011
v -511.6846 72.19181 584.0447
v -511.6846 72.19181 584.0447
v -516.8199 72.60354 593.9845
v -516.8199 72.60354 593.9845
v -516.7821 72.60354 584.0182
v -516.7821 72.60354 584.0182
v -521.9142 73.03687 593.9677
v -521.9142 73.03687 593.9677
v -521.8954 73.03687 584.0059
v -521.8954 73.03687 584.0059
v -526.8905 73.48712 593.9602
v -526.8905 73.48712 593.9602
v -526.8885 73.48712 584.0032
v -526.8885 73.48712 584.0032
v -531.8942 73.96605 593.9604
v -531.8942 73.96605 593.9604
v -531.9062 73.96605 584.0083
v -531.9062 73.96605 584.0083
v -536.9041 74.47002 593.9668
v -536.9041 74.47002 593.9668
v -536.9252 74.47002 584.0192
v -536.9252 74.47002 584.0192
v -541.9066 74.9939 593.9764
v -541.9066 74.9939 593.9764
v -541.9295 74.9939 584.0325
v -541.9295 74.9939 584.0325
v -546.8997 75.53116 593.9851
v -546.8997 75.53116 593.9851
v -546.9142 75.53116 584.0436
v -546.9142 75.53116 584.0436
v -551.8926 76.07339 593.9875
v -551.8926 76.07339 593.9875
v -551.8853 76.07339 584.046
v -551.8853 76.07339 584.046
v -556.9095 76.61035 593.9763
v -556.9095 76.61035 593.9763
v -556.8635 76.61035 584.0318
v -556.8635 76.61035 584.0318
v -561.9898 77.12953 593.942
v -561.9898 77.12953 593.942
v -561.8856 77.12953 583.9915
v -561.8856 77.12953 583.9915
v -567.0804 77.60632 593.8746
v -567.0804 77.60632 593.8746
v -566.899 77.60632 583.9155
v -566.899 77.60632 583.9155
v -572.1467 78.01964 593.765
v -572.1467 78.01964 593.765
v -571.873 78.01964 583.7969
v -571.873 78.01964 583.7969
v -577.2664 78.3603 593.6038
v -577.2664 78.3603 593.6038
v -576.8901 78.3603 583.6281
v -576.8901 78.3603 583.6281
v -582.4023 78.61458 593.3873
v -582.4023 78.61458 593.3873
v -581.9202 78.61458 583.4073
v -581.9202 78.61458 583.4073
v -587.4954 78.77668 593.1182
v -587.4954 78.77668 593.1182
v -586.9125 78.77668 583.1379
v -586.9125 78.77668 583.1379
v -592.5801 78.85072 592.7983
v -592.5801 78.85072 592.7983
v -591.9045 78.85072 582.8214
v -591.9045 78.85072 582.8214

vn 0.08103452 0.9967111 0.0005801367
vn 0 0 0
vn 0.08076977 0.9967327 0.0004424609
vn 0 0 0
vn 0.08210112 0.9966239 0.0004021661
vn 0 0 0
vn 0.08323619 0.9965298 0.0002621757
vn 0 0 0
vn 0.08640596 0.9962599 0.0002173744
vn 0 0 0
vn 0.08809025 0.9961125 0.0001159691
vn 0 0 0
vn 0.09173815 0.9957832 6.864403E-05
vn 0 0 0
vn 0.09337313 0.9956312 -2.607431E-05
vn 0 0 0
vn 0.09679612 0.9953042 -7.199793E-05
vn 0 0 0
vn 0.09833971 0.995153 -0.0001488944
vn 0 0 0
vn 0.1013831 0.9948475 -0.0001845035
vn 0 0 0
vn 0.1027232 0.9947098 -0.000224487
vn 0 0 0
vn 0.1050819 0.9944634 -0.0002360914
vn 0 0 0
vn 0.1060844 0.9943571 -0.0002146434
vn 0 0 0
vn 0.1073698 0.9942192 -0.0001871016
vn 0 0 0
vn 0.1078529 0.9941669 -7.833357E-05
vn 0 0 0
vn 0.1076037 0.9941939 1.844635E-07
vn 0 0 0
vn 0.1073617 0.99422 0.0002179193
vn 0 0 0
vn 0.1050885 0.9944628 0.0003485284
vn 0 0 0
vn 0.1038906 0.9945885 0.0006811228
vn 0 0 0
vn 0.09922581 0.9950646 0.000840764
vn 0 0 0
vn 0.09688939 0.9952944 0.001257913
vn 0 0 0
vn 0.08971377 0.9959666 0.001392063
vn 0 0 0
vn 0.0862232 0.9962741 0.001823316
vn 0 0 0
vn 0.07672169 0.9970508 0.001855537
vn 0 0 0
vn 0.07218406 0.9973888 0.002212693
vn 0 0 0
vn 0.0610685 0.9981315 0.00207561
vn 0 0 0
vn 0.05575172 0.9984421 0.002279896
vn 0 0 0
vn 0.04381695 0.9990377 0.001940799
vn 0 0 0
vn 0.03814321 0.9992703 0.001950371
vn 0 0 0
vn 0.02616061 0.9996567 0.001420308
vn 0 0 0
vn 0.02050387 0.9997889 0.00124309
vn 0 0 0
vn 0.01463462 0.9998925 0.0009228878
vn 0 0 0
vn 0.01476601 0.9998904 0.000999986
vn 0 0 0

vt 0 0
vt 0 0
vt -0.01427002 -1.993262
vt -0.01427002 -1.993262
vt 1.012799 -0.005297852
vt 1.012799 -0.005297852
vt 1.005231 -1.99856
vt 1.005231 -1.99856
vt 2.031659 -0.008654785
vt 2.031659 -0.008654785
vt 2.027899 -2.001013
vt 2.027899 -2.001013
vt 3.026911 -0.01015625
vt 3.026911 -0.01015625
vt 3.02652 -2.001563
vt 3.02652 -2.001563
vt 4.027655 -0.01010742
vt 4.027655 -0.01010742
vt 4.030048 -2.000537
vt 4.030048 -2.000537
vt 5.029621 -0.008837891
vt 5.029621 -0.008837891
vt 5.033844 -1.998364
vt 5.033844 -1.998364
vt 6.030121 -0.006921387
vt 6.030121 -0.006921387
vt 6.034711 -1.995691
vt 6.034711 -1.995691
vt 7.028741 -0.005175781
vt 7.028741 -0.005175781
vt 7.031647 -1.993482
vt 7.031647 -1.993482
vt 8.027326 -0.004699707
vt 8.027326 -0.004699707
vt 8.025861 -1.993005
vt 8.025861 -1.993005
vt 9.030719 -0.006945801
vt 9.030719 -0.006945801
vt 9.021515 -1.995837
vt 9.021515 -1.995837
vt 10.04677 -0.01379395
vt 10.04677 -0.01379395
vt 10.02592 -2.003906
vt 10.02592 -2.003906
vt 11.0649 -0.02728271
vt 11.0649 -0.02728271
vt 11.02862 -2.019104
vt 11.02862 -2.019104
vt 12.07816 -0.04919434
vt 12.07816 -0.04919434
vt 12.02342 -2.042822
vt 12.02342 -2.042822
vt 13.10209 -0.08143311
vt 13.10209 -0.08143311
vt 13.02682 -2.076575
vt 13.02682 -2.076575
vt 14.12927 -0.1247314
vt 14.12927 -0.1247314
vt 14.03286 -2.120728
vt 14.03286 -2.120728
vt 15.14789 -0.1785523
vt 15.14789 -0.1785523
vt 15.03132 -2.174622
vt 15.03132 -2.174622
vt 16.16484 -0.2425293
vt 16.16484 -0.2425293
vt 16.02971 -2.237915
vt 16.02971 -2.237915

usemtl GSDRoad1
usemap GSDRoad1
f 5/5/5 1/1/1 3/3/3
f 7/7/7 5/5/5 3/3/3
f 9/9/9 5/5/5 7/7/7
f 11/11/11 9/9/9 7/7/7
f 13/13/13 9/9/9 11/11/11
f 15/15/15 13/13/13 11/11/11
f 17/17/17 13/13/13 15/15/15
f 19/19/19 17/17/17 15/15/15
f 21/21/21 17/17/17 19/19/19
f 23/23/23 21/21/21 19/19/19
f 25/25/25 21/21/21 23/23/23
f 27/27/27 25/25/25 23/23/23
f 29/29/29 25/25/25 27/27/27
f 31/31/31 29/29/29 27/27/27
f 33/33/33 29/29/29 31/31/31
f 35/35/35 33/33/33 31/31/31
f 37/37/37 33/33/33 35/35/35
f 39/39/39 37/37/37 35/35/35
f 41/41/41 37/37/37 39/39/39
f 43/43/43 41/41/41 39/39/39
f 45/45/45 41/41/41 43/43/43
f 47/47/47 45/45/45 43/43/43
f 49/49/49 45/45/45 47/47/47
f 51/51/51 49/49/49 47/47/47
f 53/53/53 49/49/49 51/51/51
f 55/55/55 53/53/53 51/51/51
f 57/57/57 53/53/53 55/55/55
f 59/59/59 57/57/57 55/55/55
f 61/61/61 57/57/57 59/59/59
f 63/63/63 61/61/61 59/59/59
f 65/65/65 61/61/61 63/63/63
f 67/67/67 65/65/65 63/63/63
