mtllib ./Road1_0_272.mtl
g SCutL63
v -248.2144 36.79589 721.3971
v -248.2144 36.79589 721.3971
v -247.5482 36.79589 724.4625
v -247.5482 36.79589 724.4625
v -248.6457 35.07999 719.4122
v -248.6457 35.07999 719.4122
v -248.2144 36.79589 721.3971
v -248.2144 36.79589 721.3971
v -243.3271 37.15087 720.3389
v -243.3271 37.15087 720.3389
v -242.6579 37.15087 723.4045
v -242.6579 37.15087 723.4045
v -243.7602 35.46953 718.3544
v -243.7602 35.46953 718.3544
v -243.3271 37.15087 720.3389
v -243.3271 37.15087 720.3389
v -238.4521 37.52774 719.262
v -238.4521 37.52774 719.262
v -237.7697 37.52774 722.3284
v -237.7697 37.52774 722.3284
v -238.8934 35.72183 717.2787
v -238.8934 35.72183 717.2787
v -238.4521 37.52774 719.262
v -238.4521 37.52774 719.262
v -233.5506 37.92506 718.1603
v -233.5506 37.92506 718.1603
v -232.857 37.92506 721.2273
v -232.857 37.92506 721.2273
v -233.9988 36.14803 716.1783
v -233.9988 36.14803 716.1783
v -233.5506 37.92506 718.1603
v -233.5506 37.92506 718.1603
v -228.7095 38.3309 717.0573
v -228.7095 38.3309 717.0573
v -228.0075 38.3309 720.1246
v -228.0075 38.3309 720.1246
v -229.1629 36.41999 715.0761
v -229.1629 36.41999 715.0761
v -228.7095 38.3309 717.0573
v -228.7095 38.3309 717.0573
v -223.7692 38.75315 715.9207
v -223.7692 38.75315 715.9207
v -223.0617 38.75315 718.9884
v -223.0617 38.75315 718.9884
v -224.226 36.85736 713.9399
v -224.226 36.85736 713.9399
v -223.7692 38.75315 715.9207
v -223.7692 38.75315 715.9207
v -218.809 39.17918 714.7735
v -218.809 39.17918 714.7735
v -218.0993 39.17918 717.8417
v -218.0993 39.17918 717.8417
v -219.2672 37.13609 712.7928
v -219.2672 37.13609 712.7928
v -218.809 39.17918 714.7735
v -218.809 39.17918 714.7735
v -213.9112 39.59593 713.6402
v -213.9112 39.59593 713.6402
v -213.2024 39.59593 716.7089
v -213.2024 39.59593 716.7089
v -214.3687 37.61257 711.6592
v -214.3687 37.61257 711.6592
v -213.9112 39.59593 713.6402
v -213.9112 39.59593 713.6402
v -209.043 40.001 712.5182
v -209.043 40.001 712.5182
v -208.3381 40.001 715.5873
v -208.3381 40.001 715.5873
v -209.4982 37.95303 710.5365
v -209.4982 37.95303 710.5365
v -209.043 40.001 712.5182
v -209.043 40.001 712.5182

vn -0.06919589 0.9974898 0.01503667
vn 0 0 0
vn -0.0691687 0.9974912 0.01506462
vn 0 0 0
vn -0.1943967 0.762577 -0.6169977
vn 0 0 0
vn -0.1912634 0.7658961 -0.6138578
vn 0 0 0
vn -0.07062525 0.9973842 0.01539383
vn 0 0 0
vn -0.07199139 0.9972798 0.01581858
vn 0 0 0
vn -0.1860642 0.7671756 -0.6138582
vn 0 0 0
vn -0.1873966 0.7616928 -0.6202471
vn 0 0 0
vn -0.07460212 0.9970769 0.01649765
vn 0 0 0
vn -0.0756668 0.9969894 0.016931
vn 0 0 0
vn -0.1938975 0.7538993 -0.6277257
vn 0 0 0
vn -0.202486 0.7478747 -0.6322048
vn 0 0 0
vn -0.07771117 0.9968227 0.01748103
vn 0 0 0
vn -0.078485 0.996756 0.01782054
vn 0 0 0
vn -0.1986555 0.7498232 -0.6311111
vn 0 0 0
vn -0.1996026 0.7435991 -0.6381373
vn 0 0 0
vn -0.07989236 0.9966372 0.01821295
vn 0 0 0
vn -0.08033992 0.9965971 0.01843481
vn 0 0 0
vn -0.2038925 0.7353785 -0.6462557
vn 0 0 0
vn -0.2121055 0.7281215 -0.6518055
vn 0 0 0
vn -0.0809913 0.9965406 0.01863154
vn 0 0 0
vn -0.08108982 0.996531 0.01872068
vn 0 0 0
vn -0.2063326 0.7292941 -0.6523473
vn 0 0 0
vn -0.2072656 0.7215208 -0.6606426
vn 0 0 0
vn -0.0809878 0.9965393 0.01871567
vn 0 0 0
vn -0.08074006 0.9965603 0.01866748
vn 0 0 0
vn -0.2115175 0.7128379 -0.6686723
vn 0 0 0
vn -0.2187378 0.707454 -0.6720585
vn 0 0 0
vn -0.07991818 0.9966304 0.01846776
vn 0 0 0
vn -0.07936402 0.9966777 0.01829629
vn 0 0 0
vn -0.2145562 0.7110945 -0.6695597
vn 0 0 0
vn -0.211256 0.7109699 -0.6707404
vn 0 0 0
vn -0.07878552 0.9967264 0.01814573
vn 0 0 0
vn -0.07882673 0.9967239 0.01810459
vn 0 0 0
vn -0.2094571 0.7091682 -0.6732075
vn 0 0 0
vn -0.2147013 0.7033885 -0.6776047
vn 0 0 0

vt 0 0
vt 0 0
vt -0.1332245 0.6130738
vt -0.1332245 0.6130738
vt 0.08626404 -0.3969727
vt 0.08626404 -0.3969727
vt 0 0
vt 0 0
vt -0.9774597 -0.2116455
vt -0.9774597 -0.2116455
vt -1.111298 0.4014893
vt -1.111298 0.4014893
vt -0.8908264 -0.6085327
vt -0.8908264 -0.6085327
vt -0.9774597 -0.2116455
vt -0.9774597 -0.2116455
vt -1.952457 -0.4270264
vt -1.952457 -0.4270264
vt -2.088934 0.1862671
vt -2.088934 0.1862671
vt -1.864194 -0.8236694
vt -1.864194 -0.8236694
vt -1.952457 -0.4270264
vt -1.952457 -0.4270264
vt -2.932749 -0.6473511
vt -2.932749 -0.6473511
vt -3.071463 -0.03395996
vt -3.071463 -0.03395996
vt -2.843103 -1.043762
vt -2.843103 -1.043762
vt -2.932749 -0.6473511
vt -2.932749 -0.6473511
vt -3.90097 -0.8679566
vt -3.90097 -0.8679566
vt -4.04137 -0.2544922
vt -4.04137 -0.2544922
vt -3.810284 -1.264197
vt -3.810284 -1.264197
vt -3.90097 -0.8679566
vt -3.90097 -0.8679566
vt -4.889026 -1.095288
vt -4.889026 -1.095288
vt -5.03053 -0.4817383
vt -5.03053 -0.4817383
vt -4.797662 -1.491443
vt -4.797662 -1.491443
vt -4.889026 -1.095288
vt -4.889026 -1.095288
vt -5.881064 -1.324719
vt -5.881064 -1.324719
vt -6.023014 -0.711084
vt -6.023014 -0.711084
vt -5.789432 -1.72085
vt -5.789432 -1.72085
vt -5.881064 -1.324719
vt -5.881064 -1.324719
vt -6.860635 -1.551379
vt -6.860635 -1.551379
vt -7.002384 -0.9376465
vt -7.002384 -0.9376465
vt -6.769125 -1.947583
vt -6.769125 -1.947583
vt -6.860635 -1.551379
vt -6.860635 -1.551379
vt -7.834268 -1.775781
vt -7.834268 -1.775781
vt -7.97525 -1.161951
vt -7.97525 -1.161951
vt -7.74324 -2.172119
vt -7.74324 -2.172119
vt -7.834268 -1.775781
vt -7.834268 -1.775781

usemtl GSDShoulder1
usemap GSDShoulder1
f 9/9/9 1/1/1 3/3/3
f 11/11/11 9/9/9 3/3/3
f 13/13/13 5/5/5 7/7/7
f 15/15/15 13/13/13 7/7/7
f 17/17/17 9/9/9 11/11/11
f 19/19/19 17/17/17 11/11/11
f 21/21/21 13/13/13 15/15/15
f 23/23/23 21/21/21 15/15/15
f 25/25/25 17/17/17 19/19/19
f 27/27/27 25/25/25 19/19/19
f 29/29/29 21/21/21 23/23/23
f 31/31/31 29/29/29 23/23/23
f 33/33/33 25/25/25 27/27/27
f 35/35/35 33/33/33 27/27/27
f 37/37/37 29/29/29 31/31/31
f 39/39/39 37/37/37 31/31/31
f 41/41/41 33/33/33 35/35/35
f 43/43/43 41/41/41 35/35/35
f 45/45/45 37/37/37 39/39/39
f 47/47/47 45/45/45 39/39/39
f 49/49/49 41/41/41 43/43/43
f 51/51/51 49/49/49 43/43/43
f 53/53/53 45/45/45 47/47/47
f 55/55/55 53/53/53 47/47/47
f 57/57/57 49/49/49 51/51/51
f 59/59/59 57/57/57 51/51/51
f 61/61/61 53/53/53 55/55/55
f 63/63/63 61/61/61 55/55/55
f 65/65/65 57/57/57 59/59/59
f 67/67/67 65/65/65 59/59/59
f 69/69/69 61/61/61 63/63/63
f 71/71/71 69/69/69 63/63/63
