mtllib ./Road1_0_23.mtl
g Markers11
v -877.2495 71.84002 360.1925
v -877.2495 71.84002 360.1925
v -868.2037 71.84002 356.0056
v -868.2037 71.84002 356.0056
v -879.3179 71.43779 355.5216
v -879.3179 71.43779 355.5216
v -870.1826 71.43779 351.5332
v -870.1826 71.43779 351.5332
v -881.3158 71.03992 350.9427
v -881.3158 71.03992 350.9427
v -872.176 71.03992 346.9628
v -872.176 71.03992 346.9628
v -883.3123 70.64452 346.3412
v -883.3123 70.64452 346.3412
v -874.16 70.64452 342.3891
v -874.16 70.64452 342.3891
v -885.337 70.24294 341.6219
v -885.337 70.24294 341.6219
v -876.1645 70.24294 337.7161
v -876.1645 70.24294 337.7161
v -887.3229 69.84592 336.9161
v -887.3229 69.84592 336.9161
v -878.1239 69.84592 333.0726
v -878.1239 69.84592 333.0726
v -889.2536 69.45449 332.2421
v -889.2536 69.45449 332.2421
v -880.0226 69.45449 328.4758
v -880.0226 69.45449 328.4758
v -891.1636 69.05949 327.494
v -891.1636 69.05949 327.494
v -881.8949 69.05949 323.8214
v -881.8949 69.05949 323.8214
v -893.0378 68.66156 322.6824
v -893.0378 68.66156 322.6824
v -883.7261 68.66156 319.1204
v -883.7261 68.66156 319.1204
v -894.8157 68.27157 317.9416
v -894.8157 68.27157 317.9416
v -885.4573 68.27157 314.5047
v -885.4573 68.27157 314.5047
v -896.5316 67.88005 313.1594
v -896.5316 67.88005 313.1594
v -887.1221 67.88005 309.8655
v -887.1221 67.88005 309.8655
v -898.1718 67.48752 308.3436
v -898.1718 67.48752 308.3436
v -888.7071 67.48752 305.2122
v -888.7071 67.48752 305.2122
v -899.7221 67.09464 303.5041
v -899.7221 67.09464 303.5041
v -890.199 67.09464 300.5562
v -890.199 67.09464 300.5562
v -901.2053 66.69163 298.5211
v -901.2053 66.69163 298.5211
v -891.6193 66.69163 295.7854
v -891.6193 66.69163 295.7854
v -902.5636 66.2895 293.531
v -902.5636 66.2895 293.531
v -892.9131 66.2895 291.0342
v -892.9131 66.2895 291.0342
v -903.7819 65.88891 288.5431
v -903.7819 65.88891 288.5431
v -894.0665 65.88891 286.3145
v -894.0665 65.88891 286.3145
v -904.8694 65.48032 283.439
v -904.8694 65.48032 283.439
v -895.0886 65.48032 281.5194
v -895.0886 65.48032 281.5194
v -905.7756 65.07474 278.3559
v -905.7756 65.07474 278.3559
v -895.9335 65.07474 276.7833
v -895.9335 65.07474 276.7833
v -906.4979 64.66286 273.1774
v -906.4979 64.66286 273.1774
v -896.6008 64.66286 272.0042
v -896.6008 64.66286 272.0042
v -907.0006 64.24577 267.9161
v -907.0006 64.24577 267.9161
v -897.0603 64.24577 267.2026
v -897.0603 64.24577 267.2026

vn -0.03297591 0.9969137 -0.07124447
vn 0 0 0
vn -0.03288845 0.9967793 -0.07314109
vn 0 0 0
vn -0.03251427 0.9968008 -0.07301349
vn 0 0 0
vn -0.03210152 0.9967716 -0.07359176
vn 0 0 0
vn -0.03163165 0.996861 -0.07257783
vn 0 0 0
vn -0.03149129 0.9968696 -0.07252032
vn 0 0 0
vn -0.03120563 0.9969116 -0.07206493
vn 0 0 0
vn -0.03102914 0.9969079 -0.07219356
vn 0 0 0
vn -0.03070432 0.9969485 -0.07176868
vn 0 0 0
vn -0.03049431 0.9969337 -0.07206407
vn 0 0 0
vn -0.0301301 0.9969742 -0.07165495
vn 0 0 0
vn -0.02989022 0.9969493 -0.07210248
vn 0 0 0
vn -0.02948536 0.9969906 -0.07169552
vn 0 0 0
vn -0.02920688 0.9969564 -0.07228281
vn 0 0 0
vn -0.02876113 0.9969987 -0.07187665
vn 0 0 0
vn -0.02843572 0.9969553 -0.0726055
vn 0 0 0
vn -0.02794767 0.996999 -0.07219461
vn 0 0 0
vn -0.02757638 0.9969463 -0.07305884
vn 0 0 0
vn -0.02703637 0.9969936 -0.07261512
vn 0 0 0
vn -0.02661197 0.9969315 -0.0736161
vn 0 0 0
vn -0.02602141 0.996982 -0.07314202
vn 0 0 0
vn -0.02552743 0.99691 -0.07428866
vn 0 0 0
vn -0.02487686 0.9969651 -0.07376908
vn 0 0 0
vn -0.02430115 0.9968823 -0.07506853
vn 0 0 0
vn -0.02357805 0.9969437 -0.07448173
vn 0 0 0
vn -0.02289111 0.9968487 -0.07595148
vn 0 0 0
vn -0.02209332 0.9969162 -0.07529871
vn 0 0 0
vn -0.02127382 0.996808 -0.07694993
vn 0 0 0
vn -0.0203851 0.9968855 -0.07618258
vn 0 0 0
vn -0.01942107 0.9967623 -0.07802337
vn 0 0 0
vn -0.01843283 0.9968525 -0.07710659
vn 0 0 0
vn -0.01727499 0.9967121 -0.07916222
vn 0 0 0
vn -0.01618583 0.9968153 -0.07808592
vn 0 0 0
vn -0.01479418 0.9966556 -0.08036617
vn 0 0 0
vn -0.01358078 0.9967794 -0.07903466
vn 0 0 0
vn -0.01190048 0.9965976 -0.08155651
vn 0 0 0
vn -0.01056628 0.9967439 -0.07993771
vn 0 0 0
vn -0.0085064 0.9965371 -0.0827122
vn 0 0 0
vn -0.007786711 0.9966125 -0.0818713
vn 0 0 0
vn -0.006169476 0.9962803 -0.08595151
vn 0 0 0

vt 0 205.2985
vt 0 0
vt 1 205.2985
vt 0 0
vt 0 206.3233
vt 0 206.3233
vt 1 206.3233
vt 1 206.3233
vt 0 207.3256
vt 0 207.3256
vt 1 207.3256
vt 1 207.3256
vt 0 208.3319
vt 0 208.3319
vt 1 208.3319
vt 1 208.3319
vt 0 209.3621
vt 0 209.3621
vt 1 209.3621
vt 1 209.3621
vt 0 210.3867
vt 0 210.3867
vt 1 210.3867
vt 1 210.3867
vt 0 211.4012
vt 0 211.4012
vt 1 211.4012
vt 1 211.4012
vt 0 212.4278
vt 0 212.4278
vt 1 212.4278
vt 1 212.4278
vt 0 213.4636
vt 0 213.4636
vt 1 213.4636
vt 1 213.4636
vt 0 214.4793
vt 0 214.4793
vt 1 214.4793
vt 1 214.4793
vt 0 215.4984
vt 0 215.4984
vt 1 215.4984
vt 1 215.4984
vt 0 216.5189
vt 0 216.5189
vt 1 216.5189
vt 1 216.5189
vt 0 217.5383
vt 0 217.5383
vt 1 217.5383
vt 1 217.5383
vt 0 218.5813
vt 0 218.5813
vt 1 218.5813
vt 1 218.5813
vt 0 219.6187
vt 0 219.6187
vt 1 219.6187
vt 1 219.6187
vt 0 220.6487
vt 0 220.6487
vt 1 220.6487
vt 1 220.6487
vt 0 221.6956
vt 0 221.6956
vt 1 221.6956
vt 1 221.6956
vt 0 222.7315
vt 0 222.7315
vt 1 222.7315
vt 1 222.7315
vt 0 223.7804
vt 0 223.7804
vt 1 223.7804
vt 1 223.7804
vt 0 224.8408
vt 0 0
vt 1 224.8408
vt 0 0

usemtl GSDWhiteYellowDouble
usemap GSDWhiteYellowDouble
f 5/5/5 1/1/1 3/3/3
f 7/7/7 5/5/5 3/3/3
f 9/9/9 5/5/5 7/7/7
f 11/11/11 9/9/9 7/7/7
f 13/13/13 9/9/9 11/11/11
f 15/15/15 13/13/13 11/11/11
f 17/17/17 13/13/13 15/15/15
f 19/19/19 17/17/17 15/15/15
f 21/21/21 17/17/17 19/19/19
f 23/23/23 21/21/21 19/19/19
f 25/25/25 21/21/21 23/23/23
f 27/27/27 25/25/25 23/23/23
f 29/29/29 25/25/25 27/27/27
f 31/31/31 29/29/29 27/27/27
f 33/33/33 29/29/29 31/31/31
f 35/35/35 33/33/33 31/31/31
f 37/37/37 33/33/33 35/35/35
f 39/39/39 37/37/37 35/35/35
f 41/41/41 37/37/37 39/39/39
f 43/43/43 41/41/41 39/39/39
f 45/45/45 41/41/41 43/43/43
f 47/47/47 45/45/45 43/43/43
f 49/49/49 45/45/45 47/47/47
f 51/51/51 49/49/49 47/47/47
f 53/53/53 49/49/49 51/51/51
f 55/55/55 53/53/53 51/51/51
f 57/57/57 53/53/53 55/55/55
f 59/59/59 57/57/57 55/55/55
f 61/61/61 57/57/57 59/59/59
f 63/63/63 61/61/61 59/59/59
f 65/65/65 61/61/61 63/63/63
f 67/67/67 65/65/65 63/63/63
f 69/69/69 65/65/65 67/67/67
f 71/71/71 69/69/69 67/67/67
f 73/73/73 69/69/69 71/71/71
f 75/75/75 73/73/73 71/71/71
f 77/77/77 73/73/73 75/75/75
f 79/79/79 77/77/77 75/75/75
