mtllib ./Road1_0_166.mtl
g SCutR27
v -93.50252 0.03 254.0004
v -93.50252 0.03 254.0004
v -96.18076 0.03 255.3521
v -96.18076 0.03 255.3521
v -96.18076 0.03 255.3521
v -96.18076 0.03 255.3521
v -97.96626 -0.3407326 256.2532
v -97.96626 -0.3407326 256.2532
v -91.15421 0.03 258.5817
v -91.15421 0.03 258.5817
v -93.81015 0.03 259.9767
v -93.81015 0.03 259.9767
v -93.81015 0.03 259.9767
v -93.81015 0.03 259.9767
v -95.58078 -0.3407326 260.9067
v -95.58078 -0.3407326 260.9067
v -88.65833 0.03 263.1825
v -88.65833 0.03 263.1825
v -91.27705 0.03 264.6461
v -91.27705 0.03 264.6461
v -91.27705 0.03 264.6461
v -91.27705 0.03 264.6461
v -93.02287 -0.3407326 265.6219
v -93.02287 -0.3407326 265.6219
v -86.06535 0.03 267.7079
v -86.06535 0.03 267.7079
v -88.6539 0.03 269.2243
v -88.6539 0.03 269.2243
v -88.6539 0.03 269.2243
v -88.6539 0.03 269.2243
v -90.3796 -0.3407326 270.2352
v -90.3796 -0.3407326 270.2352
v -83.45346 0.03 272.0947
v -83.45346 0.03 272.0947
v -86.02208 0.03 273.6446
v -86.02208 0.03 273.6446
v -86.02208 0.03 273.6446
v -86.02208 0.03 273.6446
v -87.73449 -0.3407326 274.6779
v -87.73449 -0.3407326 274.6779
v -80.84122 0.03 276.392
v -80.84122 0.03 276.392
v -83.4017 0.03 277.9554
v -83.4017 0.03 277.9554
v -83.4017 0.03 277.9554
v -83.4017 0.03 277.9554
v -85.10867 -0.3407326 278.9976
v -85.10867 -0.3407326 278.9976
v -78.188 0.03 280.7448
v -78.188 0.03 280.7448
v -80.75297 0.03 282.3008
v -80.75297 0.03 282.3008
v -80.75297 0.03 282.3008
v -80.75297 0.03 282.3008
v -82.46295 -0.3407326 283.3381
v -82.46295 -0.3407326 283.3381
v -75.62807 0.03 285.0104
v -75.62807 0.03 285.0104
v -78.20964 0.03 286.5386
v -78.20964 0.03 286.5386
v -78.20964 0.03 286.5386
v -78.20964 0.03 286.5386
v -79.93068 -0.3407326 287.5575
v -79.93068 -0.3407326 287.5575
v -73.11636 0.03 289.3368
v -73.11636 0.03 289.3368
v -75.72527 0.03 290.8179
v -75.72527 0.03 290.8179
v -75.72527 0.03 290.8179
v -75.72527 0.03 290.8179
v -77.46455 -0.3407326 291.8053
v -77.46455 -0.3407326 291.8053
v -70.72086 0.03 293.6735
v -70.72086 0.03 293.6735
v -73.3649 0.03 295.0909
v -73.3649 0.03 295.0909
v -73.3649 0.03 295.0909
v -73.3649 0.03 295.0909
v -75.12759 -0.3407326 296.0358
v -75.12759 -0.3407326 296.0358
v -68.44851 0.03 298.0602
v -68.44851 0.03 298.0602
v -71.1325 0.03 299.4005
v -71.1325 0.03 299.4005
v -71.1325 0.03 299.4005
v -71.1325 0.03 299.4005
v -72.92183 -0.3407326 300.2939
v -72.92183 -0.3407326 300.2939
v -66.3046 0.03 302.5312
v -66.3046 0.03 302.5312
v -69.0306 0.03 303.7838
v -69.0306 0.03 303.7838
v -69.0306 0.03 303.7838
v -69.0306 0.03 303.7838
v -70.84794 -0.3407326 304.6188
v -70.84794 -0.3407326 304.6188
v -64.34209 0.03 306.998
v -64.34209 0.03 306.998
v -67.1087 0.03 308.1581
v -67.1087 0.03 308.1581
v -67.1087 0.03 308.1581
v -67.1087 0.03 308.1581
v -68.95313 -0.3407326 308.9314
v -68.95313 -0.3407326 308.9314
v -62.51045 0.03 311.5874
v -62.51045 0.03 311.5874
v -65.31558 0.03 312.651
v -65.31558 0.03 312.651
v -65.31558 0.03 312.651
v -65.31558 0.03 312.651
v -67.18568 -0.3407326 313.3601
v -67.18568 -0.3407326 313.3601
v -60.8562 0.03 316.184
v -60.8562 0.03 316.184
v -63.69564 0.03 317.1523
v -63.69564 0.03 317.1523
v -63.69564 0.03 317.1523
v -63.69564 0.03 317.1523
v -65.58861 -0.3407326 317.7978
v -65.58861 -0.3407326 317.7978
v -59.33099 0.03 320.9138
v -59.33099 0.03 320.9138
v -62.20095 0.03 321.7875
v -62.20095 0.03 321.7875
v -62.20095 0.03 321.7875
v -62.20095 0.03 321.7875
v -64.11427 -0.3407326 322.3699
v -64.11427 -0.3407326 322.3699
v -57.97475 0.03 325.6335
v -57.97475 0.03 325.6335
v -60.87048 0.03 326.4176
v -60.87048 0.03 326.4176
v -60.87048 0.03 326.4176
v -60.87048 0.03 326.4176
v -62.80096 -0.3407326 326.9403
v -62.80096 -0.3407326 326.9403
v -56.74174 0.03 330.4739
v -56.74174 0.03 330.4739
v -59.65945 0.03 331.1718
v -59.65945 0.03 331.1718
v -59.65945 0.03 331.1718
v -59.65945 0.03 331.1718
v -61.60458 -0.3407326 331.637
v -61.60458 -0.3407326 331.637

vn 0 0.9999999 0
vn 0 0 0
vn 0 1 0
vn 0 0 0
vn -0.1621961 0.9832496 0.08314261
vn 0 0 0
vn -0.162198 0.9832491 0.08314486
vn 0 0 0
vn 0 1 0
vn 0 0 0
vn 0 1 0
vn 0 0 0
vn -0.1615307 0.9832505 0.08441801
vn 0 0 0
vn -0.1608709 0.9832497 0.08567681
vn 0 0 0
vn 0 1 0
vn 0 0 0
vn 0 1 0
vn 0 0 0
vn -0.1595353 0.9832497 0.08813978
vn 0 0 0
vn -0.1588458 0.98325 0.08937202
vn 0 0 0
vn -6.036447E-11 1 -1.030453E-10
vn 0 0 0
vn -1.226204E-10 1 -2.062348E-10
vn 0 0 0
vn -0.1576469 0.9832495 0.09147513
vn 0 0 0
vn -0.1571338 0.9832501 0.09234951
vn 0 0 0
vn -6.162134E-11 1 -1.051909E-10
vn 0 0 0
vn 6.378222E-11 1 1.044649E-10
vn 0 0 0
vn -0.1563259 0.9832498 0.09371292
vn 0 0 0
vn -0.1560375 0.9832501 0.0941885
vn 0 0 0
vn 1.913863E-10 1 3.146932E-10
vn 0 0 0
vn 1.908774E-10 1 3.133025E-10
vn 0 0 0
vn -0.1557058 0.98325 0.09473637
vn 0 0 0
vn -0.1556669 0.9832501 0.09479932
vn 0 0 0
vn 3.024367E-13 1 -1.84024E-13
vn 0 0 0
vn -1.908416E-10 1 -3.19752E-10
vn 0 0 0
vn -0.1558413 0.9832502 0.09451186
vn 0 0 0
vn -0.1560584 0.98325 0.09415554
vn 0 0 0
vn -1.931003E-10 1 -3.209155E-10
vn 0 0 0
vn -1.966939E-12 1 1.140278E-12
vn 0 0 0
vn -0.1567308 0.9832501 0.09303015
vn 0 0 0
vn -0.1571806 0.9832498 0.0922722
vn 0 0 0
vn 1.253618E-10 1 2.162231E-10
vn 0 0 0
vn 6.220462E-11 0.9999999 1.095733E-10
vn 0 0 0
vn -0.1582654 0.9832501 0.09039466
vn 0 0 0
vn -0.1589053 0.9832497 0.08927003
vn 0 0 0
vn 0 1 0
vn 0 0 0
vn 0 1 0
vn 0 0 0
vn -0.1603174 0.98325 0.08670491
vn 0 0 0
vn -0.1610852 0.9832495 0.08527521
vn 0 0 0
vn 5.641223E-11 1 1.129748E-10
vn 0 0 0
vn 1.097255E-10 1 2.289493E-10
vn 0 0 0
vn -0.1626946 0.98325 0.08215834
vn 0 0 0
vn -0.1635316 0.9832495 0.08048467
vn 0 0 0
vn 5.661977E-11 1 1.133904E-10
vn 0 0 0
vn -4.96201E-11 1 -1.18335E-10
vn 0 0 0
vn -0.1652004 0.9832497 0.07699948
vn 0 0 0
vn -0.1660421 0.9832495 0.07516944
vn 0 0 0
vn -1.026283E-10 1 -2.336418E-10
vn 0 0 0
vn -4.948779E-11 1 -1.180194E-10
vn 0 0 0
vn -0.1677048 0.9832497 0.07138108
vn 0 0 0
vn -0.168509 0.9832496 0.06946227
vn 0 0 0
vn 0 1 0
vn 0 0 0
vn 0 1 0
vn 0 0 0
vn -0.1700393 0.9832496 0.06562599
vn 0 0 0
vn -0.1707774 0.9832498 0.0636784
vn 0 0 0
vn 4.107334E-11 1 1.204484E-10
vn 0 0 0
vn 7.82133E-11 1 2.424386E-10
vn 0 0 0
vn -0.1721857 0.9832496 0.05976673
vn 0 0 0
vn -0.172843 0.9832497 0.05783931
vn 0 0 0
vn 4.07615E-11 1 1.195339E-10
vn 0 0 0
vn -3.33519E-11 1 -1.231725E-10
vn 0 0 0
vn -0.1740562 0.9832495 0.05408198
vn 0 0 0
vn -0.1746246 0.9832497 0.05221387
vn 0 0 0
vn -3.684679E-11 1 -1.210419E-10
vn 0 0 0
vn 2.944255E-11 1 1.230944E-10
vn 0 0 0
vn -0.1756845 0.9832495 0.04853057
vn 0 0 0
vn -0.1761665 0.9832497 0.04674823
vn 0 0 0
vn 9.294396E-11 1 3.645994E-10
vn 0 0 0
vn 8.833058E-11 1 3.692953E-10
vn 0 0 0
vn -0.1766402 0.9832464 0.04499604
vn 0 0 0
vn -0.17664 0.9832464 0.04499586
vn 0 0 0

vt 0 0
vt 0 0
vt 0.5356491 0.2703308
vt 0.5356491 0.2703308
vt 0.5356491 0.2703308
vt 0.5356491 0.2703308
vt 0.892749 0.4505554
vt 0.892749 0.4505554
vt -0.4696625 0.9162598
vt -0.4696625 0.9162598
vt 0.06152649 1.195258
vt 0.06152649 1.195258
vt 0.06152649 1.195258
vt 0.06152649 1.195258
vt 0.4156525 1.381256
vt 0.4156525 1.381256
vt -0.9688385 1.83642
vt -0.9688385 1.83642
vt -0.4450928 2.12915
vt -0.4450928 2.12915
vt -0.4450928 2.12915
vt -0.4450928 2.12915
vt -0.09592896 2.324304
vt -0.09592896 2.324304
vt -1.487434 2.741498
vt -1.487434 2.741498
vt -0.9697235 3.044775
vt -0.9697235 3.044775
vt -0.9697235 3.044775
vt -0.9697235 3.044775
vt -0.6245834 3.246954
vt -0.6245834 3.246954
vt -2.009811 3.618866
vt -2.009811 3.618866
vt -1.496088 3.928845
vt -1.496088 3.928845
vt -1.496088 3.928845
vt -1.496088 3.928845
vt -1.153606 4.135498
vt -1.153606 4.135498
vt -2.532259 4.478326
vt -2.532259 4.478326
vt -2.020164 4.790991
vt -2.020164 4.790991
vt -2.020164 4.790991
vt -2.020164 4.790991
vt -1.678769 4.999439
vt -1.678769 4.999439
vt -3.062903 5.348889
vt -3.062903 5.348889
vt -2.54991 5.660077
vt -2.54991 5.660077
vt -2.54991 5.660077
vt -2.54991 5.660077
vt -2.207913 5.867536
vt -2.207913 5.867536
vt -3.574889 6.201996
vt -3.574889 6.201996
vt -3.058575 6.507648
vt -3.058575 6.507648
vt -3.058575 6.507648
vt -3.058575 6.507648
vt -2.714368 6.711414
vt -2.714368 6.711414
vt -4.077232 7.067285
vt -4.077232 7.067285
vt -3.555449 7.363501
vt -3.555449 7.363501
vt -3.555449 7.363501
vt -3.555449 7.363501
vt -3.207594 7.56098
vt -3.207594 7.56098
vt -4.556331 7.934613
vt -4.556331 7.934613
vt -4.027524 8.218097
vt -4.027524 8.218097
vt -4.027524 8.218097
vt -4.027524 8.218097
vt -3.674986 8.407086
vt -3.674986 8.407086
vt -5.010802 8.811969
vt -5.010802 8.811969
vt -4.474004 9.080011
vt -4.474004 9.080011
vt -4.474004 9.080011
vt -4.474004 9.080011
vt -4.116138 9.25871
vt -4.116138 9.25871
vt -5.439583 9.706159
vt -5.439583 9.706159
vt -4.894383 9.956672
vt -4.894383 9.956672
vt -4.894383 9.956672
vt -4.894383 9.956672
vt -4.530916 10.12368
vt -4.530916 10.12368
vt -5.832086 10.59951
vt -5.832086 10.59951
vt -5.278763 10.83153
vt -5.278763 10.83153
vt -5.278763 10.83153
vt -5.278763 10.83153
vt -4.909879 10.98621
vt -4.909879 10.98621
vt -6.198414 11.51741
vt -6.198414 11.51741
vt -5.637387 11.73012
vt -5.637387 11.73012
vt -5.637387 11.73012
vt -5.637387 11.73012
vt -5.263368 11.87194
vt -5.263368 11.87194
vt -6.529264 12.43672
vt -6.529264 12.43672
vt -5.961375 12.63038
vt -5.961375 12.63038
vt -5.961375 12.63038
vt -5.961375 12.63038
vt -5.582782 12.75949
vt -5.582782 12.75949
vt -6.834306 13.38268
vt -6.834306 13.38268
vt -6.260313 13.55742
vt -6.260313 13.55742
vt -6.260313 13.55742
vt -6.260313 13.55742
vt -5.877651 13.6739
vt -5.877651 13.6739
vt -7.105554 14.32663
vt -7.105554 14.32663
vt -6.526408 14.48345
vt -6.526408 14.48345
vt -6.526408 14.48345
vt -6.526408 14.48345
vt -6.140311 14.58799
vt -6.140311 14.58799
vt -7.352155 15.2947
vt -7.352155 15.2947
vt -6.768614 15.43427
vt -6.768614 15.43427
vt -6.768614 15.43427
vt -6.768614 15.43427
vt -6.379589 15.52732
vt -6.379589 15.52732

usemtl GSDShoulder1
usemap GSDShoulder1
f 9/9/9 1/1/1 3/3/3
f 11/11/11 9/9/9 3/3/3
f 13/13/13 5/5/5 7/7/7
f 15/15/15 13/13/13 7/7/7
f 17/17/17 9/9/9 11/11/11
f 19/19/19 17/17/17 11/11/11
f 21/21/21 13/13/13 15/15/15
f 23/23/23 21/21/21 15/15/15
f 25/25/25 17/17/17 19/19/19
f 27/27/27 25/25/25 19/19/19
f 29/29/29 21/21/21 23/23/23
f 31/31/31 29/29/29 23/23/23
f 33/33/33 25/25/25 27/27/27
f 35/35/35 33/33/33 27/27/27
f 37/37/37 29/29/29 31/31/31
f 39/39/39 37/37/37 31/31/31
f 41/41/41 33/33/33 35/35/35
f 43/43/43 41/41/41 35/35/35
f 45/45/45 37/37/37 39/39/39
f 47/47/47 45/45/45 39/39/39
f 49/49/49 41/41/41 43/43/43
f 51/51/51 49/49/49 43/43/43
f 53/53/53 45/45/45 47/47/47
f 55/55/55 53/53/53 47/47/47
f 57/57/57 49/49/49 51/51/51
f 59/59/59 57/57/57 51/51/51
f 61/61/61 53/53/53 55/55/55
f 63/63/63 61/61/61 55/55/55
f 65/65/65 57/57/57 59/59/59
f 67/67/67 65/65/65 59/59/59
f 69/69/69 61/61/61 63/63/63
f 71/71/71 69/69/69 63/63/63
f 73/73/73 65/65/65 67/67/67
f 75/75/75 73/73/73 67/67/67
f 77/77/77 69/69/69 71/71/71
f 79/79/79 77/77/77 71/71/71
f 81/81/81 73/73/73 75/75/75
f 83/83/83 81/81/81 75/75/75
f 85/85/85 77/77/77 79/79/79
f 87/87/87 85/85/85 79/79/79
f 89/89/89 81/81/81 83/83/83
f 91/91/91 89/89/89 83/83/83
f 93/93/93 85/85/85 87/87/87
f 95/95/95 93/93/93 87/87/87
f 97/97/97 89/89/89 91/91/91
f 99/99/99 97/97/97 91/91/91
f 101/101/101 93/93/93 95/95/95
f 103/103/103 101/101/101 95/95/95
f 105/105/105 97/97/97 99/99/99
f 107/107/107 105/105/105 99/99/99
f 109/109/109 101/101/101 103/103/103
f 111/111/111 109/109/109 103/103/103
f 113/113/113 105/105/105 107/107/107
f 115/115/115 113/113/113 107/107/107
f 117/117/117 109/109/109 111/111/111
f 119/119/119 117/117/117 111/111/111
f 121/121/121 113/113/113 115/115/115
f 123/123/123 121/121/121 115/115/115
f 125/125/125 117/117/117 119/119/119
f 127/127/127 125/125/125 119/119/119
f 129/129/129 121/121/121 123/123/123
f 131/131/131 129/129/129 123/123/123
f 133/133/133 125/125/125 127/127/127
f 135/135/135 133/133/133 127/127/127
f 137/137/137 129/129/129 131/131/131
f 139/139/139 137/137/137 131/131/131
f 141/141/141 133/133/133 135/135/135
f 143/143/143 141/141/141 135/135/135
