mtllib ./Road1_0_205.mtl
g SCutR66
v -127.9521 46.45868 699.4427
v -127.9521 46.45868 699.4427
v -126.1894 46.45868 702.0447
v -126.1894 46.45868 702.0447
v -126.1894 46.45868 702.0447
v -126.1894 46.45868 702.0447
v -125.05 44.38006 703.7266
v -125.05 44.38006 703.7266
v -123.5072 46.87108 696.0482
v -123.5072 46.87108 696.0482
v -121.4536 46.87108 698.4191
v -121.4536 46.87108 698.4191
v -121.4536 46.87108 698.4191
v -121.4536 46.87108 698.4191
v -120.1245 44.84652 699.9534
v -120.1245 44.84652 699.9534
v -119.4722 47.28427 692.1266
v -119.4722 47.28427 692.1266
v -117.1704 47.28427 694.252
v -117.1704 47.28427 694.252
v -117.1704 47.28427 694.252
v -117.1704 47.28427 694.252
v -115.6795 45.24062 695.6285
v -115.6795 45.24062 695.6285
v -115.9624 47.68449 687.9583
v -115.9624 47.68449 687.9583
v -113.4854 47.68449 689.8689
v -113.4854 47.68449 689.8689
v -113.4854 47.68449 689.8689
v -113.4854 47.68449 689.8689
v -111.8795 45.66824 691.1077
v -111.8795 45.66824 691.1077
v -112.8398 48.07839 683.5934
v -112.8398 48.07839 683.5934
v -110.2414 48.07839 685.324
v -110.2414 48.07839 685.324
v -110.2414 48.07839 685.324
v -110.2414 48.07839 685.324
v -108.5546 46.00298 686.4475
v -108.5546 46.00298 686.4475
v -110.0165 48.47019 679.0931
v -110.0165 48.47019 679.0931
v -107.3392 48.47019 680.683
v -107.3392 48.47019 680.683
v -107.3392 48.47019 680.683
v -107.3392 48.47019 680.683
v -105.5983 46.42175 681.7169
v -105.5983 46.42175 681.7169
v -107.4474 48.86036 674.5896
v -107.4474 48.86036 674.5896
v -104.7315 48.86036 676.0908
v -104.7315 48.86036 676.0908
v -104.7315 48.86036 676.0908
v -104.7315 48.86036 676.0908
v -102.9618 46.83288 677.0688
v -102.9618 46.83288 677.0688

vn -0.06098044 0.9972836 0.0413112
vn 0 0 0
vn -0.05647383 0.997463 0.04333928
vn 0 0 0
vn 0.3953861 0.6989397 0.5959473
vn 0 0 0
vn 0.3917106 0.7019291 0.5948598
vn 0 0 0
vn -0.05613825 0.9974141 0.04487361
vn 0 0 0
vn -0.05143825 0.9975216 0.0480089
vn 0 0 0
vn 0.4131462 0.7044894 0.5770656
vn 0 0 0
vn 0.4361004 0.7056056 0.5585133
vn 0 0 0
vn -0.05061699 0.9974229 0.05084977
vn 0 0 0
vn -0.04636279 0.9975045 0.05324643
vn 0 0 0
vn 0.4762858 0.7052331 0.5251649
vn 0 0 0
vn 0.4931581 0.7048227 0.5099218
vn 0 0 0
vn -0.04565593 0.9974038 0.05568899
vn 0 0 0
vn -0.04210124 0.9974715 0.05725635
vn 0 0 0
vn 0.5201006 0.7070105 0.4791988
vn 0 0 0
vn 0.5364895 0.7046549 0.4643711
vn 0 0 0
vn -0.04148789 0.99738 0.0592614
vn 0 0 0
vn -0.0387428 0.9974226 0.06039179
vn 0 0 0
vn 0.5604858 0.7016249 0.4399751
vn 0 0 0
vn 0.5708155 0.6990499 0.4306959
vn 0 0 0
vn -0.0385069 0.9973104 0.06236272
vn 0 0 0
vn -0.03679866 0.9973068 0.06344231
vn 0 0 0
vn 0.5817036 0.7007644 0.4129771
vn 0 0 0
vn 0.5849066 0.7029034 0.4047355
vn 0 0 0
vn -0.03697348 0.9972319 0.06451022
vn 0 0 0
vn -0.03564469 0.9972816 0.0644898
vn 0 0 0
vn 0.5900568 0.7036332 0.3958956
vn 0 0 0
vn 0.5885033 0.7047865 0.3961561
vn 0 0 0

vt 0 0
vt 0 0
vt -0.3525437 0.520398
vt -0.3525437 0.520398
vt -0.3525437 0.520398
vt -0.3525437 0.520398
vt -0.5804276 0.8567749
vt -0.5804276 0.8567749
vt -0.8889801 -0.6789185
vt -0.8889801 -0.6789185
vt -1.299699 -0.2047363
vt -1.299699 -0.2047363
vt -1.299699 -0.2047363
vt -1.299699 -0.2047363
vt -1.565509 0.1021362
vt -1.565509 0.1021362
vt -1.695972 -1.463232
vt -1.695972 -1.463232
vt -2.156345 -1.038159
vt -2.156345 -1.038159
vt -2.156345 -1.038159
vt -2.156345 -1.038159
vt -2.454521 -0.7628418
vt -2.454521 -0.7628418
vt -2.397948 -2.2969
vt -2.397948 -2.2969
vt -2.893338 -1.91477
vt -2.893338 -1.91477
vt -2.893338 -1.91477
vt -2.893338 -1.91477
vt -3.21452 -1.667017
vt -3.21452 -1.667017
vt -3.02245 -3.169873
vt -3.02245 -3.169873
vt -3.542136 -2.823755
vt -3.542136 -2.823755
vt -3.542136 -2.823755
vt -3.542136 -2.823755
vt -3.879503 -2.599048
vt -3.879503 -2.599048
vt -3.587109 -4.069934
vt -3.587109 -4.069934
vt -4.122579 -3.751941
vt -4.122579 -3.751941
vt -4.122579 -3.751941
vt -4.122579 -3.751941
vt -4.470761 -3.545178
vt -4.470761 -3.545178
vt -4.100929 -4.97063
vt -4.100929 -4.97063
vt -4.644121 -4.670398
vt -4.644121 -4.670398
vt -4.644121 -4.670398
vt -4.644121 -4.670398
vt -4.998056 -4.474781
vt -4.998056 -4.474781

usemtl GSDShoulder1
usemap GSDShoulder1
f 9/9/9 1/1/1 3/3/3
f 11/11/11 9/9/9 3/3/3
f 13/13/13 5/5/5 7/7/7
f 15/15/15 13/13/13 7/7/7
f 17/17/17 9/9/9 11/11/11
f 19/19/19 17/17/17 11/11/11
f 21/21/21 13/13/13 15/15/15
f 23/23/23 21/21/21 15/15/15
f 25/25/25 17/17/17 19/19/19
f 27/27/27 25/25/25 19/19/19
f 29/29/29 21/21/21 23/23/23
f 31/31/31 29/29/29 23/23/23
f 33/33/33 25/25/25 27/27/27
f 35/35/35 33/33/33 27/27/27
f 37/37/37 29/29/29 31/31/31
f 39/39/39 37/37/37 31/31/31
f 41/41/41 33/33/33 35/35/35
f 43/43/43 41/41/41 35/35/35
f 45/45/45 37/37/37 39/39/39
f 47/47/47 45/45/45 39/39/39
f 49/49/49 41/41/41 43/43/43
f 51/51/51 49/49/49 43/43/43
f 53/53/53 45/45/45 47/47/47
f 55/55/55 53/53/53 47/47/47
