mtllib ./Road1_0_175.mtl
g SCutR36
v -447.8344 0.07519178 844.8101
v -447.8344 0.07519178 844.8101
v -447.7035 0.07519178 841.6917
v -447.7035 0.07519178 841.6917
v -447.7035 0.07519178 841.6917
v -447.7035 0.07519178 841.6917
v -447.6182 -0.3341416 839.6633
v -447.6182 -0.3341416 839.6633
v -452.7387 0.1654879 844.5529
v -452.7387 0.1654879 844.5529
v -452.5353 0.1654879 841.4169
v -452.5353 0.1654879 841.4169
v -452.5353 0.1654879 841.4169
v -452.5353 0.1654879 841.4169
v -452.4036 -0.3341416 839.3857
v -452.4036 -0.3341416 839.3857
v -457.714 0.2749144 844.1683
v -457.714 0.2749144 844.1683
v -457.4309 0.2749144 841.0165
v -457.4309 0.2749144 841.0165
v -457.4309 0.2749144 841.0165
v -457.4309 0.2749144 841.0165
v -457.2484 -0.3051482 838.9839
v -457.2484 -0.3051482 838.9839
v -462.6012 0.3994114 843.6716
v -462.6012 0.3994114 843.6716
v -462.2421 0.3994114 840.5073
v -462.2421 0.3994114 840.5073
v -462.2421 0.3994114 840.5073
v -462.2421 0.3994114 840.5073
v -462.0115 -0.2431635 838.4747
v -462.0115 -0.2431635 838.4747
v -467.5357 0.541646 843.0554
v -467.5357 0.541646 843.0554
v -467.1032 0.541646 839.8812
v -467.1032 0.541646 839.8812
v -467.1032 0.541646 839.8812
v -467.1032 0.541646 839.8812
v -466.8264 -0.139125 837.8496
v -466.8264 -0.139125 837.8496
v -472.3966 0.6972567 842.3417
v -472.3966 0.6972567 842.3417
v -471.8961 0.6972567 839.1601
v -471.8961 0.6972567 839.1601
v -471.8961 0.6972567 839.1601
v -471.8961 0.6972567 839.1601
v -471.5769 -0.1016875 837.1305
v -471.5769 -0.1016875 837.1305
v -477.3147 0.8693925 841.5198
v -477.3147 0.8693925 841.5198
v -476.751 0.8693925 838.3326
v -476.751 0.8693925 838.3326
v -476.751 0.8693925 838.3326
v -476.751 0.8693925 838.3326
v -476.3925 -0.1016875 836.3057
v -476.3925 -0.1016875 836.3057
v -482.1758 1.05291 840.6174
v -482.1758 1.05291 840.6174
v -481.5561 1.05291 837.4264
v -481.5561 1.05291 837.4264
v -481.5561 1.05291 837.4264
v -481.5561 1.05291 837.4264
v -481.1631 0.282939 835.4025
v -481.1631 0.282939 835.4025
v -487.1094 1.251396 839.6212
v -487.1094 1.251396 839.6212
v -486.4405 1.251396 836.4274
v -486.4405 1.251396 836.4274
v -486.4405 1.251396 836.4274
v -486.4405 1.251396 836.4274
v -486.0172 0.282939 834.4064
v -486.0172 0.282939 834.4064
v -492.0027 1.458874 838.5649
v -492.0027 1.458874 838.5649
v -491.2933 1.458874 835.369
v -491.2933 1.458874 835.369
v -491.2933 1.458874 835.369
v -491.2933 1.458874 835.369
v -490.8454 0.282939 833.3508
v -490.8454 0.282939 833.3508
v -496.867 1.673911 837.4611
v -496.867 1.673911 837.4611
v -496.1264 1.673911 834.2634
v -496.1264 1.673911 834.2634
v -496.1264 1.673911 834.2634
v -496.1264 1.673911 834.2634
v -495.6595 0.6551193 832.2473
v -495.6595 0.6551193 832.2473
v -501.7124 1.895032 836.3218
v -501.7124 1.895032 836.3218
v -500.9503 1.895032 833.1223
v -500.9503 1.895032 833.1223
v -500.9503 1.895032 833.1223
v -500.9503 1.895032 833.1223
v -500.4703 0.6551193 831.1076
v -500.4703 0.6551193 831.1076
v -506.6665 2.126277 835.1317
v -506.6665 2.126277 835.1317
v -505.8924 2.126277 831.9299
v -505.8924 2.126277 831.9299
v -505.8924 2.126277 831.9299
v -505.8924 2.126277 831.9299
v -505.4054 0.945141 829.9157
v -505.4054 0.945141 829.9157
v -511.6225 2.360772 833.9317
v -511.6225 2.360772 833.9317
v -510.8469 2.360772 830.7271
v -510.8469 2.360772 830.7271
v -510.8469 2.360772 830.7271
v -510.8469 2.360772 830.7271
v -510.3593 1.343467 828.7123
v -510.3593 1.343467 828.7123
v -516.5911 2.596931 832.7355
v -516.5911 2.596931 832.7355
v -515.8246 2.596931 829.5276
v -515.8246 2.596931 829.5276
v -515.8246 2.596931 829.5276
v -515.8246 2.596931 829.5276
v -515.3428 1.343467 827.5112
v -515.3428 1.343467 827.5112
v -521.5818 2.83312 831.5578
v -521.5818 2.83312 831.5578
v -520.8351 2.83312 828.3462
v -520.8351 2.83312 828.3462
v -520.8351 2.83312 828.3462
v -520.8351 2.83312 828.3462
v -520.3657 1.693676 826.3271
v -520.3657 1.693676 826.3271
v -526.6068 3.067825 830.4122
v -526.6068 3.067825 830.4122
v -525.8903 3.067825 827.1967
v -525.8903 3.067825 827.1967
v -525.8903 3.067825 827.1967
v -525.8903 3.067825 827.1967
v -525.4395 2.063872 825.174
v -525.4395 2.063872 825.174
v -531.5541 3.293934 829.3391
v -531.5541 3.293934 829.3391
v -530.8768 3.293934 826.1199
v -530.8768 3.293934 826.1199
v -530.8768 3.293934 826.1199
v -530.8768 3.293934 826.1199
v -530.4504 2.063872 824.093
v -530.4504 2.063872 824.093
v -536.5537 3.515642 828.3241
v -536.5537 3.515642 828.3241
v -535.925 3.515642 825.1017
v -535.925 3.515642 825.1017
v -535.925 3.515642 825.1017
v -535.925 3.515642 825.1017
v -535.5287 2.447869 823.0704
v -535.5287 2.447869 823.0704
v -541.6136 3.731405 827.3812
v -541.6136 3.731405 827.3812
v -541.0425 3.731405 824.1567
v -541.0425 3.731405 824.1567
v -541.0425 3.731405 824.1567
v -541.0425 3.731405 824.1567
v -540.6821 2.447869 822.1208
v -540.6821 2.447869 822.1208
v -546.744 3.939793 826.524
v -546.744 3.939793 826.524
v -546.239 3.939793 823.299
v -546.239 3.939793 823.299
v -546.239 3.939793 823.299
v -546.239 3.939793 823.299
v -545.9195 2.931208 821.2587
v -545.9195 2.931208 821.2587
v -551.8257 4.134569 825.7836
v -551.8257 4.134569 825.7836
v -551.3926 4.134569 822.5601
v -551.3926 4.134569 822.5601
v -551.3926 4.134569 822.5601
v -551.3926 4.134569 822.5601
v -551.118 2.931208 820.5162
v -551.118 2.931208 820.5162
v -556.9916 4.31954 825.1509
v -556.9916 4.31954 825.1509
v -556.6369 4.31954 821.9317
v -556.6369 4.31954 821.9317
v -556.6369 4.31954 821.9317
v -556.6369 4.31954 821.9317
v -556.4114 3.406334 819.8852
v -556.4114 3.406334 819.8852
v -562.1173 4.489147 824.6501
v -562.1173 4.489147 824.6501
v -561.8446 4.489147 821.4381
v -561.8446 4.489147 821.4381
v -561.8446 4.489147 821.4381
v -561.8446 4.489147 821.4381
v -561.6708 3.406334 819.3903
v -561.6708 3.406334 819.3903
v -567.3376 4.646842 824.2759
v -567.3376 4.646842 824.2759
v -567.1514 4.646842 821.0746
v -567.1514 4.646842 821.0746
v -567.1514 4.646842 821.0746
v -567.1514 4.646842 821.0746
v -567.0324 4.009004 819.027
v -567.0324 4.009004 819.027
v -572.5231 4.78786 824.0443
v -572.5231 4.78786 824.0443
v -572.4246 4.78786 820.8574
v -572.4246 4.78786 820.8574
v -572.4246 4.78786 820.8574
v -572.4246 4.78786 820.8574
v -572.3614 4.158369 818.8117
v -572.3614 4.158369 818.8117
v -577.6716 4.912026 823.9556
v -577.6716 4.912026 823.9556
v -577.6608 4.912026 820.7865
v -577.6608 4.912026 820.7865
v -577.6608 4.912026 820.7865
v -577.6608 4.912026 820.7865
v -577.6539 4.158369 818.7446
v -577.6539 4.158369 818.7446
v -582.9251 5.022152 824.0117
v -582.9251 5.022152 824.0117
v -583.0035 5.022152 820.8644
v -583.0035 5.022152 820.8644
v -583.0035 5.022152 820.8644
v -583.0035 5.022152 820.8644
v -583.0541 4.158369 818.8282
v -583.0541 4.158369 818.8282

vn 0.01836827 0.9998311 0.0007715012
vn 0 0 0
vn 0.0184915 0.9998286 0.0009884278
vn 0 0 0
vn 0.02949188 0.9800513 -0.1965439
vn 0 0 0
vn 0.02164569 0.9758538 -0.2173495
vn 0 0 0
vn 0.01964094 0.9998065 0.001134404
vn 0 0 0
vn 0.02091219 0.9997801 0.001541293
vn 0 0 0
vn 0.0282157 0.9742389 -0.2237463
vn 0 0 0
vn 0.02782922 0.9681401 -0.248858
vn 0 0 0
vn 0.02309591 0.9997314 0.00189089
vn 0 0 0
vn 0.02432317 0.9997013 0.002384734
vn 0 0 0
vn 0.04090147 0.9649341 -0.259286
vn 0 0 0
vn 0.04193553 0.9592568 -0.2794062
vn 0 0 0
vn 0.02641723 0.999647 0.002799197
vn 0 0 0
vn 0.02758645 0.9996138 0.003349363
vn 0 0 0
vn 0.05453072 0.9564345 -0.2868093
vn 0 0 0
vn 0.05696689 0.9521971 -0.3001256
vn 0 0 0
vn 0.02950586 0.9995574 0.003803512
vn 0 0 0
vn 0.0306026 0.9995221 0.004391029
vn 0 0 0
vn 0.06783353 0.9503567 -0.3036786
vn 0 0 0
vn 0.06638686 0.9433919 -0.3249686
vn 0 0 0
vn 0.03239771 0.9994631 0.004876894
vn 0 0 0
vn 0.03340744 0.9994268 0.005480213
vn 0 0 0
vn 0.0773192 0.9375315 -0.3391998
vn 0 0 0
vn 0.0756285 0.9229786 -0.3773468
vn 0 0 0
vn 0.03500276 0.9993693 0.005967602
vn 0 0 0
vn 0.035914 0.9993334 0.006563876
vn 0 0 0
vn 0.0925599 0.9136481 -0.3958281
vn 0 0 0
vn 0.1071146 0.9151131 -0.3887087
vn 0 0 0
vn 0.03735355 0.9992773 0.007043867
vn 0 0 0
vn 0.03815692 0.9992428 0.007608831
vn 0 0 0
vn 0.118807 0.9253907 -0.3599124
vn 0 0 0
vn 0.1095169 0.9260192 -0.3612403
vn 0 0 0
vn 0.03938414 0.9991918 0.008051586
vn 0 0 0
vn 0.04007138 0.9991601 0.00856236
vn 0 0 0
vn 0.1065784 0.9159368 -0.3869119
vn 0 0 0
vn 0.106227 0.8935323 -0.4362524
vn 0 0 0
vn 0.04110847 0.9991145 0.008955019
vn 0 0 0
vn 0.0416697 0.9990874 0.009384451
vn 0 0 0
vn 0.1267751 0.8812134 -0.455402
vn 0 0 0
vn 0.1387957 0.8781819 -0.4577471
vn 0 0 0
vn 0.04249996 0.9990494 0.009707601
vn 0 0 0
vn 0.04293428 0.9990274 0.01003897
vn 0 0 0
vn 0.1505844 0.8869232 -0.4366825
vn 0 0 0
vn 0.1408674 0.883796 -0.4461624
vn 0 0 0
vn 0.04356874 0.9989976 0.01028396
vn 0 0 0
vn 0.04387878 0.9989816 0.0105054
vn 0 0 0
vn 0.139384 0.8708566 -0.4713604
vn 0 0 0
vn 0.1472488 0.861252 -0.4863771
vn 0 0 0
vn 0.04430801 0.998961 0.01066033
vn 0 0 0
vn 0.04449146 0.9989519 0.01076063
vn 0 0 0
vn 0.1593814 0.8643851 -0.4769025
vn 0 0 0
vn 0.1638602 0.8773559 -0.4509949
vn 0 0 0
vn 0.04472455 0.9989408 0.01082051
vn 0 0 0
vn 0.04477829 0.9989387 0.01079064
vn 0 0 0
vn 0.1569275 0.887128 -0.4340248
vn 0 0 0
vn 0.1452037 0.8834313 -0.4454941
vn 0 0 0
vn 0.04481015 0.9989377 0.01075215
vn 0 0 0
vn 0.04473542 0.9989427 0.01059231
vn 0 0 0
vn 0.1405798 0.8697022 -0.4731337
vn 0 0 0
vn 0.1487108 0.8621929 -0.4842608
vn 0 0 0
vn 0.0445678 0.9989516 0.01045752
vn 0 0 0
vn 0.04436524 0.9989637 0.01017226
vn 0 0 0
vn 0.1567961 0.8686569 -0.469947
vn 0 0 0
vn 0.1574575 0.8830255 -0.4421235
vn 0 0 0
vn 0.04400567 0.9989818 0.009949522
vn 0 0 0
vn 0.04367893 0.999 0.009554272
vn 0 0 0
vn 0.1451567 0.8911858 -0.4297878
vn 0 0 0
vn 0.1323783 0.886454 -0.4434809
vn 0 0 0
vn 0.0431231 0.9990269 0.009252738
vn 0 0 0
vn 0.04267745 0.9990504 0.008762651
vn 0 0 0
vn 0.1252633 0.8731896 -0.4710086
vn 0 0 0
vn 0.1331424 0.869026 -0.4765154
vn 0 0 0
vn 0.04193724 0.999085 0.00839727
vn 0 0 0
vn 0.04137126 0.9991132 0.007825099
vn 0 0 0
vn 0.1371498 0.8783557 -0.4579096
vn 0 0 0
vn 0.1228989 0.8753957 -0.4675237
vn 0 0 0
vn 0.04043873 0.9991546 0.007406704
vn 0 0 0
vn 0.03975554 0.9991865 0.006771851
vn 0 0 0
vn 0.111273 0.8626106 -0.4934787
vn 0 0 0
vn 0.1218217 0.8656203 -0.4856554
vn 0 0 0
vn 0.03865005 0.9992328 0.006322183
vn 0 0 0
vn 0.03786122 0.999267 0.005654596
vn 0 0 0
vn 0.1223228 0.8815928 -0.4558852
vn 0 0 0
vn 0.1060363 0.8866571 -0.4501061
vn 0 0 0
vn 0.0365654 0.9993178 0.005188598
vn 0 0 0
vn 0.03567979 0.9993532 0.004511546
vn 0 0 0
vn 0.08546407 0.8753654 -0.4758477
vn 0 0 0
vn 0.09630245 0.8804243 -0.464305
vn 0 0 0
vn 0.03424742 0.9994051 0.004057386
vn 0 0 0
vn 0.03327638 0.9994404 0.003394502
vn 0 0 0
vn 0.0956665 0.8969668 -0.4316231
vn 0 0 0
vn 0.0799341 0.9040726 -0.4198371
vn 0 0 0
vn 0.03167028 0.999494 0.002962472
vn 0 0 0
vn 0.03062538 0.9995282 0.002334398
vn 0 0 0
vn 0.05633994 0.8946142 -0.4432733
vn 0 0 0
vn 0.07533879 0.9093532 -0.4091463
vn 0 0 0
vn 0.02891421 0.99958 0.001949245
vn 0 0 0
vn 0.02780995 0.9996122 0.001374825
vn 0 0 0
vn 0.07425229 0.9325935 -0.3532081
vn 0 0 0
vn 0.06796534 0.953898 -0.2923343
vn 0 0 0
vn 0.02598132 0.9996619 0.001049213
vn 0 0 0
vn 0.02484505 0.9996912 0.0005504397
vn 0 0 0
vn 0.03435 0.9552639 -0.2937533
vn 0 0 0
vn 0.02314624 0.9500905 -0.3111145
vn 0 0 0
vn 0.02291391 0.9997374 0.000296762
vn 0 0 0
vn 0.02174876 0.9997634 -0.0001220889
vn 0 0 0
vn 0.01500281 0.944191 -0.3290566
vn 0 0 0
vn 0.004116748 0.9324187 -0.3613564
vn 0 0 0
vn 0.02077866 0.9997841 -0.00022247
vn 0 0 0
vn 0.02060075 0.9997877 -0.0005129714
vn 0 0 0
vn 0.003981699 0.9295361 -0.3687096
vn 0 0 0
vn -0.006049368 0.9206281 -0.3903935
vn 0 0 0

vt 0 0
vt 0 0
vt -0.02619629 -0.6236939
vt -0.02619629 -0.6236939
vt -0.02619629 -0.6236939
vt -0.02619629 -0.6236939
vt -0.04324341 -1.029358
vt -0.04324341 -1.029358
vt 0.9808472 -0.05145264
vt 0.9808472 -0.05145264
vt 0.9401795 -0.6786499
vt 0.9401795 -0.6786499
vt 0.9401795 -0.6786499
vt 0.9401795 -0.6786499
vt 0.9138367 -1.084875
vt 0.9138367 -1.084875
vt 1.975903 -0.1283691
vt 1.975903 -0.1283691
vt 1.919299 -0.7587158
vt 1.919299 -0.7587158
vt 1.919299 -0.7587158
vt 1.919299 -0.7587158
vt 1.882794 -1.165234
vt 1.882794 -1.165234
vt 2.953351 -0.2276978
vt 2.953351 -0.2276978
vt 2.881537 -0.8605591
vt 2.881537 -0.8605591
vt 2.881537 -0.8605591
vt 2.881537 -0.8605591
vt 2.835413 -1.26709
vt 2.835413 -1.26709
vt 3.940253 -0.3509521
vt 3.940253 -0.3509521
vt 3.853754 -0.985791
vt 3.853754 -0.985791
vt 3.853754 -0.985791
vt 3.853754 -0.985791
vt 3.798389 -1.392102
vt 3.798389 -1.392102
vt 4.912433 -0.4936768
vt 4.912433 -0.4936768
vt 4.812341 -1.130005
vt 4.812341 -1.130005
vt 4.812341 -1.130005
vt 4.812341 -1.130005
vt 4.748498 -1.535925
vt 4.748498 -1.535925
vt 5.896045 -0.6580688
vt 5.896045 -0.6580688
vt 5.783307 -1.295496
vt 5.783307 -1.295496
vt 5.783307 -1.295496
vt 5.783307 -1.295496
vt 5.711609 -1.700879
vt 5.711609 -1.700879
vt 6.868262 -0.8385498
vt 6.868262 -0.8385498
vt 6.74433 -1.476746
vt 6.74433 -1.476746
vt 6.74433 -1.476746
vt 6.74433 -1.476746
vt 6.665723 -1.881531
vt 6.665723 -1.881531
vt 7.854987 -1.037793
vt 7.854987 -1.037793
vt 7.721204 -1.67655
vt 7.721204 -1.67655
vt 7.721204 -1.67655
vt 7.721204 -1.67655
vt 7.636554 -2.080737
vt 7.636554 -2.080737
vt 8.833649 -1.249048
vt 8.833649 -1.249048
vt 8.691779 -1.88822
vt 8.691779 -1.88822
vt 8.691779 -1.88822
vt 8.691779 -1.88822
vt 8.602185 -2.291858
vt 8.602185 -2.291858
vt 9.806506 -1.469812
vt 9.806506 -1.469812
vt 9.658393 -2.109351
vt 9.658393 -2.109351
vt 9.658393 -2.109351
vt 9.658393 -2.109351
vt 9.565015 -2.512561
vt 9.565015 -2.512561
vt 10.7756 -1.697656
vt 10.7756 -1.697656
vt 10.62316 -2.337573
vt 10.62316 -2.337573
vt 10.62316 -2.337573
vt 10.62316 -2.337573
vt 10.52718 -2.740503
vt 10.52718 -2.740503
vt 11.76642 -1.935681
vt 11.76642 -1.935681
vt 11.61159 -2.57605
vt 11.61159 -2.57605
vt 11.61159 -2.57605
vt 11.61159 -2.57605
vt 11.5142 -2.978882
vt 11.5142 -2.978882
vt 12.75761 -2.175684
vt 12.75761 -2.175684
vt 12.6025 -2.816614
vt 12.6025 -2.816614
vt 12.6025 -2.816614
vt 12.6025 -2.816614
vt 12.50497 -3.219568
vt 12.50497 -3.219568
vt 13.75132 -2.414917
vt 13.75132 -2.414917
vt 13.59804 -3.056494
vt 13.59804 -3.056494
vt 13.59804 -3.056494
vt 13.59804 -3.056494
vt 13.50168 -3.45979
vt 13.50168 -3.45979
vt 14.74948 -2.650464
vt 14.74948 -2.650464
vt 14.60014 -3.292786
vt 14.60014 -3.292786
vt 14.60014 -3.292786
vt 14.60014 -3.292786
vt 14.50624 -3.696606
vt 14.50624 -3.696606
vt 15.75447 -2.879578
vt 15.75447 -2.879578
vt 15.61116 -3.522693
vt 15.61116 -3.522693
vt 15.61116 -3.522693
vt 15.61116 -3.522693
vt 15.521 -3.927234
vt 15.521 -3.927234
vt 16.74394 -3.094202
vt 16.74394 -3.094202
vt 16.60848 -3.738049
vt 16.60848 -3.738049
vt 16.60848 -3.738049
vt 16.60848 -3.738049
vt 16.52319 -4.143421
vt 16.52319 -4.143421
vt 17.74385 -3.297205
vt 17.74385 -3.297205
vt 17.61812 -3.941687
vt 17.61812 -3.941687
vt 17.61812 -3.941687
vt 17.61812 -3.941687
vt 17.53886 -4.34795
vt 17.53886 -4.34795
vt 18.75583 -3.485779
vt 18.75583 -3.485779
vt 18.64162 -4.130689
vt 18.64162 -4.130689
vt 18.64162 -4.130689
vt 18.64162 -4.130689
vt 18.56952 -4.537866
vt 18.56952 -4.537866
vt 19.7819 -3.657227
vt 19.7819 -3.657227
vt 19.6809 -4.302234
vt 19.6809 -4.302234
vt 19.6809 -4.302234
vt 19.6809 -4.302234
vt 19.61701 -4.71029
vt 19.61701 -4.71029
vt 20.79826 -3.80531
vt 20.79826 -3.80531
vt 20.71164 -4.45
vt 20.71164 -4.45
vt 20.71164 -4.45
vt 20.71164 -4.45
vt 20.65672 -4.858777
vt 20.65672 -4.858777
vt 21.83143 -3.931836
vt 21.83143 -3.931836
vt 21.76049 -4.575684
vt 21.76049 -4.575684
vt 21.76049 -4.575684
vt 21.76049 -4.575684
vt 21.7154 -4.984985
vt 21.7154 -4.984985
vt 22.85657 -4.032007
vt 22.85657 -4.032007
vt 22.80203 -4.674402
vt 22.80203 -4.674402
vt 22.80203 -4.674402
vt 22.80203 -4.674402
vt 22.76727 -5.083972
vt 22.76727 -5.083972
vt 23.90063 -4.106848
vt 23.90063 -4.106848
vt 23.8634 -4.747095
vt 23.8634 -4.747095
vt 23.8634 -4.747095
vt 23.8634 -4.747095
vt 23.83959 -5.156629
vt 23.83959 -5.156629
vt 24.93773 -4.153174
vt 24.93773 -4.153174
vt 24.91804 -4.790552
vt 24.91804 -4.790552
vt 24.91804 -4.790552
vt 24.91804 -4.790552
vt 24.90539 -5.199683
vt 24.90539 -5.199683
vt 25.96743 -4.170911
vt 25.96743 -4.170911
vt 25.96528 -4.804724
vt 25.96528 -4.804724
vt 25.96528 -4.804724
vt 25.96528 -4.804724
vt 25.9639 -5.21311
vt 25.9639 -5.21311
vt 27.01813 -4.15968
vt 27.01813 -4.15968
vt 27.03381 -4.789136
vt 27.03381 -4.789136
vt 27.03381 -4.789136
vt 27.03381 -4.789136
vt 27.04394 -5.196374
vt 27.04394 -5.196374

usemtl GSDShoulder1
usemap GSDShoulder1
f 9/9/9 1/1/1 3/3/3
f 11/11/11 9/9/9 3/3/3
f 13/13/13 5/5/5 7/7/7
f 15/15/15 13/13/13 7/7/7
f 17/17/17 9/9/9 11/11/11
f 19/19/19 17/17/17 11/11/11
f 21/21/21 13/13/13 15/15/15
f 23/23/23 21/21/21 15/15/15
f 25/25/25 17/17/17 19/19/19
f 27/27/27 25/25/25 19/19/19
f 29/29/29 21/21/21 23/23/23
f 31/31/31 29/29/29 23/23/23
f 33/33/33 25/25/25 27/27/27
f 35/35/35 33/33/33 27/27/27
f 37/37/37 29/29/29 31/31/31
f 39/39/39 37/37/37 31/31/31
f 41/41/41 33/33/33 35/35/35
f 43/43/43 41/41/41 35/35/35
f 45/45/45 37/37/37 39/39/39
f 47/47/47 45/45/45 39/39/39
f 49/49/49 41/41/41 43/43/43
f 51/51/51 49/49/49 43/43/43
f 53/53/53 45/45/45 47/47/47
f 55/55/55 53/53/53 47/47/47
f 57/57/57 49/49/49 51/51/51
f 59/59/59 57/57/57 51/51/51
f 61/61/61 53/53/53 55/55/55
f 63/63/63 61/61/61 55/55/55
f 65/65/65 57/57/57 59/59/59
f 67/67/67 65/65/65 59/59/59
f 69/69/69 61/61/61 63/63/63
f 71/71/71 69/69/69 63/63/63
f 73/73/73 65/65/65 67/67/67
f 75/75/75 73/73/73 67/67/67
f 77/77/77 69/69/69 71/71/71
f 79/79/79 77/77/77 71/71/71
f 81/81/81 73/73/73 75/75/75
f 83/83/83 81/81/81 75/75/75
f 85/85/85 77/77/77 79/79/79
f 87/87/87 85/85/85 79/79/79
f 89/89/89 81/81/81 83/83/83
f 91/91/91 89/89/89 83/83/83
f 93/93/93 85/85/85 87/87/87
f 95/95/95 93/93/93 87/87/87
f 97/97/97 89/89/89 91/91/91
f 99/99/99 97/97/97 91/91/91
f 101/101/101 93/93/93 95/95/95
f 103/103/103 101/101/101 95/95/95
f 105/105/105 97/97/97 99/99/99
f 107/107/107 105/105/105 99/99/99
f 109/109/109 101/101/101 103/103/103
f 111/111/111 109/109/109 103/103/103
f 113/113/113 105/105/105 107/107/107
f 115/115/115 113/113/113 107/107/107
f 117/117/117 109/109/109 111/111/111
f 119/119/119 117/117/117 111/111/111
f 121/121/121 113/113/113 115/115/115
f 123/123/123 121/121/121 115/115/115
f 125/125/125 117/117/117 119/119/119
f 127/127/127 125/125/125 119/119/119
f 129/129/129 121/121/121 123/123/123
f 131/131/131 129/129/129 123/123/123
f 133/133/133 125/125/125 127/127/127
f 135/135/135 133/133/133 127/127/127
f 137/137/137 129/129/129 131/131/131
f 139/139/139 137/137/137 131/131/131
f 141/141/141 133/133/133 135/135/135
f 143/143/143 141/141/141 135/135/135
f 145/145/145 137/137/137 139/139/139
f 147/147/147 145/145/145 139/139/139
f 149/149/149 141/141/141 143/143/143
f 151/151/151 149/149/149 143/143/143
f 153/153/153 145/145/145 147/147/147
f 155/155/155 153/153/153 147/147/147
f 157/157/157 149/149/149 151/151/151
f 159/159/159 157/157/157 151/151/151
f 161/161/161 153/153/153 155/155/155
f 163/163/163 161/161/161 155/155/155
f 165/165/165 157/157/157 159/159/159
f 167/167/167 165/165/165 159/159/159
f 169/169/169 161/161/161 163/163/163
f 171/171/171 169/169/169 163/163/163
f 173/173/173 165/165/165 167/167/167
f 175/175/175 173/173/173 167/167/167
f 177/177/177 169/169/169 171/171/171
f 179/179/179 177/177/177 171/171/171
f 181/181/181 173/173/173 175/175/175
f 183/183/183 181/181/181 175/175/175
f 185/185/185 177/177/177 179/179/179
f 187/187/187 185/185/185 179/179/179
f 189/189/189 181/181/181 183/183/183
f 191/191/191 189/189/189 183/183/183
f 193/193/193 185/185/185 187/187/187
f 195/195/195 193/193/193 187/187/187
f 197/197/197 189/189/189 191/191/191
f 199/199/199 197/197/197 191/191/191
f 201/201/201 193/193/193 195/195/195
f 203/203/203 201/201/201 195/195/195
f 205/205/205 197/197/197 199/199/199
f 207/207/207 205/205/205 199/199/199
f 209/209/209 201/201/201 203/203/203
f 211/211/211 209/209/209 203/203/203
f 213/213/213 205/205/205 207/207/207
f 215/215/215 213/213/213 207/207/207
f 217/217/217 209/209/209 211/211/211
f 219/219/219 217/217/217 211/211/211
f 221/221/221 213/213/213 215/215/215
f 223/223/223 221/221/221 215/215/215
