mtllib ./Road1_0_129.mtl
g Markers64
v -208.3381 40.011 715.5873
v -208.3381 40.011 715.5873
v -206.1068 40.011 725.3024
v -206.1068 40.011 725.3024
v -203.2932 40.41624 714.481
v -203.2932 40.41624 714.481
v -201.2454 40.41624 724.2367
v -201.2454 40.41624 724.2367
v -198.2415 40.82355 713.4509
v -198.2415 40.82355 713.4509
v -196.2909 40.82355 723.2266
v -196.2909 40.82355 723.2266
v -193.3189 41.22329 712.4744
v -193.3189 41.22329 712.4744
v -191.3757 41.22329 722.2515
v -191.3757 41.22329 722.2515
v -188.4179 41.62517 711.4838
v -188.4179 41.62517 711.4838
v -186.3971 41.62517 721.2451
v -186.3971 41.62517 721.2451
v -183.5545 42.029 710.4386
v -183.5545 42.029 710.4386
v -181.3723 42.029 720.165
v -181.3723 42.029 720.165
v -178.7447 42.4346 709.2995
v -178.7447 42.4346 709.2995
v -176.3185 42.4346 718.9678
v -176.3185 42.4346 718.9678
v -174.0043 42.84176 708.0282
v -174.0043 42.84176 708.0282
v -171.2529 42.84176 717.6089
v -171.2529 42.84176 717.6089
v -169.3483 43.2503 706.5875
v -169.3483 43.2503 706.5875
v -166.1934 43.2503 716.0429
v -166.1934 43.2503 716.0429

vn -0.07623985 0.9969358 0.01751047
vn 0 0 0
vn -0.07780503 0.9968219 0.01709925
vn 0 0 0
vn -0.07756036 0.9968463 0.01678924
vn 0 0 0
vn -0.07840245 0.9967905 0.01618532
vn 0 0 0
vn -0.07789041 0.9968365 0.01581251
vn 0 0 0
vn -0.07820201 0.9968157 0.01558386
vn 0 0 0
vn -0.0781462 0.9968206 0.0155522
vn 0 0 0
vn -0.07793365 0.9968349 0.01570464
vn 0 0 0
vn -0.07834432 0.9967979 0.01600335
vn 0 0 0
vn -0.07762128 0.9968461 0.01651754
vn 0 0 0
vn -0.07846741 0.9967691 0.01715077
vn 0 0 0
vn -0.07721568 0.9968519 0.01800626
vn 0 0 0
vn -0.07845595 0.9967367 0.01899075
vn 0 0 0
vn -0.07663689 0.9968554 0.02015294
vn 0 0 0
vn -0.0782112 0.9967047 0.02151161
vn 0 0 0
vn -0.07577792 0.9968611 0.02292744
vn 0 0 0
vn -0.0764863 0.9967883 0.02373165
vn 0 0 0
vn -0.07297162 0.9970368 0.02434821
vn 0 0 0

vt 0 898.8626
vt 0 0
vt 1 898.8626
vt 0 0
vt 0 899.8987
vt 0 899.8987
vt 1 899.8987
vt 1 899.8987
vt 0 900.933
vt 0 900.933
vt 1 900.933
vt 1 900.933
vt 0 901.9399
vt 0 901.9399
vt 1 901.9399
vt 1 901.9399
vt 0 902.9432
vt 0 902.9432
vt 1 902.9432
vt 1 902.9432
vt 0 903.9413
vt 0 903.9413
vt 1 903.9413
vt 1 903.9413
vt 0 904.9332
vt 0 904.9332
vt 1 904.9332
vt 1 904.9332
vt 0 905.9182
vt 0 905.9182
vt 1 905.9182
vt 1 905.9182
vt 0 906.8964
vt 0 906.8964
vt 1 906.8964
vt 1 906.8964

usemtl GSDWhiteYellowDouble
usemap GSDWhiteYellowDouble
f 5/5/5 1/1/1 3/3/3
f 7/7/7 5/5/5 3/3/3
f 9/9/9 5/5/5 7/7/7
f 11/11/11 9/9/9 7/7/7
f 13/13/13 9/9/9 11/11/11
f 15/15/15 13/13/13 11/11/11
f 17/17/17 13/13/13 15/15/15
f 19/19/19 17/17/17 15/15/15
f 21/21/21 17/17/17 19/19/19
f 23/23/23 21/21/21 19/19/19
f 25/25/25 21/21/21 23/23/23
f 27/27/27 25/25/25 23/23/23
f 29/29/29 25/25/25 27/27/27
f 31/31/31 29/29/29 27/27/27
f 33/33/33 29/29/29 31/31/31
f 35/35/35 33/33/33 31/31/31
