mtllib ./Road1_0_236.mtl
g SCutL27
v -81.89677 0.03 248.1432
v -81.89677 0.03 248.1432
v -84.57501 0.03 249.4949
v -84.57501 0.03 249.4949
v -80.11127 -0.3407326 247.2421
v -80.11127 -0.3407326 247.2421
v -81.89677 0.03 248.1432
v -81.89677 0.03 248.1432
v -79.64511 0.03 252.5368
v -79.64511 0.03 252.5368
v -82.30106 0.03 253.9318
v -82.30106 0.03 253.9318
v -77.87448 -0.3407326 251.6068
v -77.87448 -0.3407326 251.6068
v -79.64511 0.03 252.5368
v -79.64511 0.03 252.5368
v -77.31049 0.03 256.8401
v -77.31049 0.03 256.8401
v -79.92921 0.03 258.3037
v -79.92921 0.03 258.3037
v -75.56467 -0.3407326 255.8643
v -75.56467 -0.3407326 255.8643
v -77.31049 0.03 256.8401
v -77.31049 0.03 256.8401
v -74.84828 0.03 261.1369
v -74.84828 0.03 261.1369
v -77.43684 0.03 262.6533
v -77.43684 0.03 262.6533
v -73.12258 -0.3407326 260.126
v -73.12258 -0.3407326 260.126
v -74.84828 0.03 261.1369
v -74.84828 0.03 261.1369
v -72.32277 0.03 265.3785
v -72.32277 0.03 265.3785
v -74.89139 0.03 266.9284
v -74.89139 0.03 266.9284
v -70.61036 -0.3407326 264.3452
v -70.61036 -0.3407326 264.3452
v -72.32277 0.03 265.3785
v -72.32277 0.03 265.3785
v -69.74587 0.03 269.6176
v -69.74587 0.03 269.6176
v -72.30634 0.03 271.1809
v -72.30634 0.03 271.1809
v -68.03889 -0.3407326 268.5753
v -68.03889 -0.3407326 268.5753
v -69.74587 0.03 269.6176
v -69.74587 0.03 269.6176
v -67.07314 0.03 274.0024
v -67.07314 0.03 274.0024
v -69.63811 0.03 275.5584
v -69.63811 0.03 275.5584
v -65.36316 -0.3407326 272.9651
v -65.36316 -0.3407326 272.9651
v -67.07314 0.03 274.0024
v -67.07314 0.03 274.0024
v -64.4413 0.03 278.388
v -64.4413 0.03 278.388
v -67.02287 0.03 279.9163
v -67.02287 0.03 279.9163
v -62.72026 -0.3407326 277.3692
v -62.72026 -0.3407326 277.3692
v -64.4413 0.03 278.388
v -64.4413 0.03 278.388
v -61.81108 0.03 282.9189
v -61.81108 0.03 282.9189
v -64.41999 0.03 284.3999
v -64.41999 0.03 284.3999
v -60.0718 -0.3407326 281.9315
v -60.0718 -0.3407326 281.9315
v -61.81108 0.03 282.9189
v -61.81108 0.03 282.9189
v -59.26338 0.03 287.5313
v -59.26338 0.03 287.5313
v -61.90742 0.03 288.9487
v -61.90742 0.03 288.9487
v -57.50069 -0.3407326 286.5864
v -57.50069 -0.3407326 286.5864
v -59.26338 0.03 287.5313
v -59.26338 0.03 287.5313
v -56.81786 0.03 292.2527
v -56.81786 0.03 292.2527
v -59.50185 0.03 293.5929
v -59.50185 0.03 293.5929
v -55.02853 -0.3407326 291.3592
v -55.02853 -0.3407326 291.3592
v -56.81786 0.03 292.2527
v -56.81786 0.03 292.2527
v -54.49193 0.03 297.1034
v -54.49193 0.03 297.1034
v -57.21793 0.03 298.356
v -57.21793 0.03 298.356
v -52.67459 -0.3407326 296.2684
v -52.67459 -0.3407326 296.2684
v -54.49193 0.03 297.1034
v -54.49193 0.03 297.1034
v -52.35338 0.03 301.9709
v -52.35338 0.03 301.9709
v -55.12001 0.03 303.131
v -55.12001 0.03 303.131
v -50.50897 -0.3407326 301.1975
v -50.50897 -0.3407326 301.1975
v -52.35338 0.03 301.9709
v -52.35338 0.03 301.9709
v -50.35486 0.03 306.9786
v -50.35486 0.03 306.9786
v -53.15999 0.03 308.0421
v -53.15999 0.03 308.0421
v -48.48476 -0.3407326 306.2695
v -48.48476 -0.3407326 306.2695
v -50.35486 0.03 306.9786
v -50.35486 0.03 306.9786
v -48.55193 0.03 311.9882
v -48.55193 0.03 311.9882
v -51.39138 0.03 312.9565
v -51.39138 0.03 312.9565
v -46.65897 -0.3407326 311.3427
v -46.65897 -0.3407326 311.3427
v -48.55193 0.03 311.9882
v -48.55193 0.03 311.9882
v -46.89446 0.03 317.1279
v -46.89446 0.03 317.1279
v -49.76443 0.03 318.0016
v -49.76443 0.03 318.0016
v -44.98115 -0.3407326 316.5455
v -44.98115 -0.3407326 316.5455
v -46.89446 0.03 317.1279
v -46.89446 0.03 317.1279
v -45.42659 0.03 322.2359
v -45.42659 0.03 322.2359
v -48.32232 0.03 323.02
v -48.32232 0.03 323.02
v -43.49611 -0.3407326 321.7132
v -43.49611 -0.3407326 321.7132
v -45.42659 0.03 322.2359
v -45.42659 0.03 322.2359
v -44.09839 0.03 327.4497
v -44.09839 0.03 327.4497
v -47.01609 0.03 328.1476
v -47.01609 0.03 328.1476
v -42.15326 -0.3407326 326.9845
v -42.15326 -0.3407326 326.9845
v -44.09839 0.03 327.4497
v -44.09839 0.03 327.4497

vn 0 1 0
vn 0 0 0
vn 0 1 0
vn 0 0 0
vn 0.1622054 0.9832495 -0.08312542
vn 0 0 0
vn 0.1622075 0.9832489 -0.08312785
vn 0 0 0
vn 0 1 0
vn 0 0 0
vn 0 1 0
vn 0 0 0
vn 0.1615513 0.9832503 -0.08437978
vn 0 0 0
vn 0.1608871 0.9832497 -0.08564667
vn 0 0 0
vn 0 1 0
vn 0 0 0
vn 0 1 0
vn 0 0 0
vn 0.1595229 0.9832497 -0.08816268
vn 0 0 0
vn 0.1588332 0.9832501 -0.08939443
vn 0 0 0
vn -6.318212E-11 1 -1.078552E-10
vn 0 0 0
vn -1.275604E-10 1 -2.145435E-10
vn 0 0 0
vn 0.1576355 0.9832495 -0.09149481
vn 0 0 0
vn 0.1571225 0.98325 -0.09236874
vn 0 0 0
vn -6.330397E-11 1 -1.080632E-10
vn 0 0 0
vn 6.508766E-11 1 1.06603E-10
vn 0 0 0
vn 0.1563184 0.9832497 -0.09372537
vn 0 0 0
vn 0.1560304 0.9832502 -0.09420034
vn 0 0 0
vn 1.926397E-10 0.9999999 3.16754E-10
vn 0 0 0
vn 1.907908E-10 1 3.131602E-10
vn 0 0 0
vn 0.1557043 0.9832501 -0.09473888
vn 0 0 0
vn 0.1556661 0.9832501 -0.09480065
vn 0 0 0
vn 2.982089E-13 1 -1.814515E-13
vn 0 0 0
vn -1.868893E-10 1 -3.131299E-10
vn 0 0 0
vn 0.1558466 0.9832503 -0.09450319
vn 0 0 0
vn 0.1560643 0.98325 -0.09414571
vn 0 0 0
vn -1.866438E-10 1 -3.101854E-10
vn 0 0 0
vn -1.889247E-12 1 1.095085E-12
vn 0 0 0
vn 0.156741 0.9832502 -0.09301252
vn 0 0 0
vn 0.157191 0.9832499 -0.09225395
vn 0 0 0
vn 1.190704E-10 1 2.053715E-10
vn 0 0 0
vn 5.876132E-11 1 1.035078E-10
vn 0 0 0
vn 0.1582777 0.9832502 -0.09037255
vn 0 0 0
vn 0.1589178 0.9832497 -0.08924757
vn 0 0 0
vn 0 1 0
vn 0 0 0
vn 0 1 0
vn 0 0 0
vn 0.1603289 0.9832501 -0.08668339
vn 0 0 0
vn 0.1610965 0.9832495 -0.08525385
vn 0 0 0
vn 5.225171E-11 1 1.046428E-10
vn 0 0 0
vn 1.013088E-10 1 2.113876E-10
vn 0 0 0
vn 0.1627031 0.98325 -0.0821415
vn 0 0 0
vn 0.1635397 0.9832495 -0.08046842
vn 0 0 0
vn 5.208411E-11 1 1.043071E-10
vn 0 0 0
vn -4.555192E-11 1 -1.086334E-10
vn 0 0 0
vn 0.165205 0.9832497 -0.07698996
vn 0 0 0
vn 0.1660467 0.9832494 -0.07516056
vn 0 0 0
vn -9.408428E-11 1 -2.14191E-10
vn 0 0 0
vn -4.532131E-11 1 -1.080834E-10
vn 0 0 0
vn 0.1677063 0.9832495 -0.07137892
vn 0 0 0
vn 0.1685102 0.9832495 -0.06946059
vn 0 0 0
vn 0 1 0
vn 0 0 0
vn 0 1 0
vn 0 0 0
vn 0.1700382 0.9832496 -0.06562962
vn 0 0 0
vn 0.1707759 0.9832498 -0.06368242
vn 0 0 0
vn 3.770268E-11 1 1.105639E-10
vn 0 0 0
vn 7.182606E-11 1 2.2264E-10
vn 0 0 0
vn 0.1721829 0.9832496 -0.0597748
vn 0 0 0
vn 0.1728401 0.9832497 -0.05784785
vn 0 0 0
vn 3.754088E-11 1 1.100894E-10
vn 0 0 0
vn -3.074324E-11 1 -1.135384E-10
vn 0 0 0
vn 0.1740529 0.9832494 -0.05409273
vn 0 0 0
vn 0.1746213 0.9832497 -0.0522249
vn 0 0 0
vn -3.408408E-11 1 -1.119664E-10
vn 0 0 0
vn 2.726624E-11 1 1.139956E-10
vn 0 0 0
vn 0.1756813 0.9832495 -0.04854218
vn 0 0 0
vn 0.1761634 0.9832497 -0.0467598
vn 0 0 0
vn 8.623094E-11 1 3.382657E-10
vn 0 0 0
vn 8.189716E-11 1 3.423982E-10
vn 0 0 0
vn 0.1766395 0.9832464 -0.04499887
vn 0 0 0
vn 0.1766393 0.9832464 -0.04499873
vn 0 0 0

vt 0 0
vt 0 0
vt 0.5356491 0.2703308
vt 0.5356491 0.2703308
vt -0.3570999 -0.1802216
vt -0.3570999 -0.1802216
vt 0 0
vt 0 0
vt -0.4503311 0.8787171
vt -0.4503311 0.8787171
vt 0.08085785 1.157715
vt 0.08085785 1.157715
vt -0.8044571 0.6927215
vt -0.8044571 0.6927215
vt -0.4503311 0.8787171
vt -0.4503311 0.8787171
vt -0.9172562 1.739368
vt -0.9172562 1.739368
vt -0.3935104 2.032099
vt -0.3935104 2.032099
vt -1.26642 1.544214
vt -1.26642 1.544214
vt -0.9172562 1.739368
vt -0.9172562 1.739368
vt -1.409697 2.598743
vt -1.409697 2.598743
vt -0.8919861 2.90202
vt -0.8919861 2.90202
vt -1.754837 2.396564
vt -1.754837 2.396564
vt -1.409697 2.598743
vt -1.409697 2.598743
vt -1.9148 3.447058
vt -1.9148 3.447058
vt -1.401076 3.757037
vt -1.401076 3.757037
vt -2.257282 3.240405
vt -2.257282 3.240405
vt -1.9148 3.447058
vt -1.9148 3.447058
vt -2.430179 4.294873
vt -2.430179 4.294873
vt -1.918085 4.607538
vt -1.918085 4.607538
vt -2.771574 4.086426
vt -2.771574 4.086426
vt -2.430179 4.294873
vt -2.430179 4.294873
vt -2.964725 5.171844
vt -2.964725 5.171844
vt -2.451732 5.483032
vt -2.451732 5.483032
vt -3.306721 4.964386
vt -3.306721 4.964386
vt -2.964725 5.171844
vt -2.964725 5.171844
vt -3.491093 6.048956
vt -3.491093 6.048956
vt -2.97478 6.354608
vt -2.97478 6.354608
vt -3.835302 5.845191
vt -3.835302 5.845191
vt -3.491093 6.048956
vt -3.491093 6.048956
vt -4.017138 6.955127
vt -4.017138 6.955127
vt -3.495355 7.251343
vt -3.495355 7.251343
vt -4.364994 6.757648
vt -4.364994 6.757648
vt -4.017138 6.955127
vt -4.017138 6.955127
vt -4.526677 7.877618
vt -4.526677 7.877618
vt -3.99787 8.161102
vt -3.99787 8.161102
vt -4.879215 7.688629
vt -4.879215 7.688629
vt -4.526677 7.877618
vt -4.526677 7.877618
vt -5.015781 8.821894
vt -5.015781 8.821894
vt -4.478982 9.089935
vt -4.478982 9.089935
vt -5.373647 8.643195
vt -5.373647 8.643195
vt -5.015781 8.821894
vt -5.015781 8.821894
vt -5.480968 9.792035
vt -5.480968 9.792035
vt -4.935768 10.04255
vt -4.935768 10.04255
vt -5.844434 9.625031
vt -5.844434 9.625031
vt -5.480968 9.792035
vt -5.480968 9.792035
vt -5.908677 10.76554
vt -5.908677 10.76554
vt -5.355352 10.99756
vt -5.355352 10.99756
vt -6.27756 10.61086
vt -6.27756 10.61086
vt -5.908677 10.76554
vt -5.908677 10.76554
vt -6.308382 11.76707
vt -6.308382 11.76707
vt -5.747355 11.97978
vt -5.747355 11.97978
vt -6.682401 11.62526
vt -6.682401 11.62526
vt -6.308382 11.76707
vt -6.308382 11.76707
vt -6.668968 12.769
vt -6.668968 12.769
vt -6.101078 12.96265
vt -6.101078 12.96265
vt -7.04756 12.63989
vt -7.04756 12.63989
vt -6.668968 12.769
vt -6.668968 12.769
vt -7.000462 13.79694
vt -7.000462 13.79694
vt -6.426468 13.97167
vt -6.426468 13.97167
vt -7.383124 13.68046
vt -7.383124 13.68046
vt -7.000462 13.79694
vt -7.000462 13.79694
vt -7.294034 14.81854
vt -7.294034 14.81854
vt -6.714889 14.97536
vt -6.714889 14.97536
vt -7.680131 14.714
vt -7.680131 14.714
vt -7.294034 14.81854
vt -7.294034 14.81854
vt -7.559676 15.8613
vt -7.559676 15.8613
vt -6.976135 16.00087
vt -6.976135 16.00087
vt -7.948701 15.76825
vt -7.948701 15.76825
vt -7.559676 15.8613
vt -7.559676 15.8613

usemtl GSDShoulder1
usemap GSDShoulder1
f 9/9/9 1/1/1 3/3/3
f 11/11/11 9/9/9 3/3/3
f 13/13/13 5/5/5 7/7/7
f 15/15/15 13/13/13 7/7/7
f 17/17/17 9/9/9 11/11/11
f 19/19/19 17/17/17 11/11/11
f 21/21/21 13/13/13 15/15/15
f 23/23/23 21/21/21 15/15/15
f 25/25/25 17/17/17 19/19/19
f 27/27/27 25/25/25 19/19/19
f 29/29/29 21/21/21 23/23/23
f 31/31/31 29/29/29 23/23/23
f 33/33/33 25/25/25 27/27/27
f 35/35/35 33/33/33 27/27/27
f 37/37/37 29/29/29 31/31/31
f 39/39/39 37/37/37 31/31/31
f 41/41/41 33/33/33 35/35/35
f 43/43/43 41/41/41 35/35/35
f 45/45/45 37/37/37 39/39/39
f 47/47/47 45/45/45 39/39/39
f 49/49/49 41/41/41 43/43/43
f 51/51/51 49/49/49 43/43/43
f 53/53/53 45/45/45 47/47/47
f 55/55/55 53/53/53 47/47/47
f 57/57/57 49/49/49 51/51/51
f 59/59/59 57/57/57 51/51/51
f 61/61/61 53/53/53 55/55/55
f 63/63/63 61/61/61 55/55/55
f 65/65/65 57/57/57 59/59/59
f 67/67/67 65/65/65 59/59/59
f 69/69/69 61/61/61 63/63/63
f 71/71/71 69/69/69 63/63/63
f 73/73/73 65/65/65 67/67/67
f 75/75/75 73/73/73 67/67/67
f 77/77/77 69/69/69 71/71/71
f 79/79/79 77/77/77 71/71/71
f 81/81/81 73/73/73 75/75/75
f 83/83/83 81/81/81 75/75/75
f 85/85/85 77/77/77 79/79/79
f 87/87/87 85/85/85 79/79/79
f 89/89/89 81/81/81 83/83/83
f 91/91/91 89/89/89 83/83/83
f 93/93/93 85/85/85 87/87/87
f 95/95/95 93/93/93 87/87/87
f 97/97/97 89/89/89 91/91/91
f 99/99/99 97/97/97 91/91/91
f 101/101/101 93/93/93 95/95/95
f 103/103/103 101/101/101 95/95/95
f 105/105/105 97/97/97 99/99/99
f 107/107/107 105/105/105 99/99/99
f 109/109/109 101/101/101 103/103/103
f 111/111/111 109/109/109 103/103/103
f 113/113/113 105/105/105 107/107/107
f 115/115/115 113/113/113 107/107/107
f 117/117/117 109/109/109 111/111/111
f 119/119/119 117/117/117 111/111/111
f 121/121/121 113/113/113 115/115/115
f 123/123/123 121/121/121 115/115/115
f 125/125/125 117/117/117 119/119/119
f 127/127/127 125/125/125 119/119/119
f 129/129/129 121/121/121 123/123/123
f 131/131/131 129/129/129 123/123/123
f 133/133/133 125/125/125 127/127/127
f 135/135/135 133/133/133 127/127/127
f 137/137/137 129/129/129 131/131/131
f 139/139/139 137/137/137 131/131/131
f 141/141/141 133/133/133 135/135/135
f 143/143/143 141/141/141 135/135/135
