mtllib ./Road1_0_148.mtl
g SCutR9
v -811.6926 84.85854 508.3999
v -811.6926 84.85854 508.3999
v -809.0592 84.85854 506.8864
v -809.0592 84.85854 506.8864
v -809.0592 84.85854 506.8864
v -809.0592 84.85854 506.8864
v -807.3171 83.71892 505.8853
v -807.3171 83.71892 505.8853
v -813.8962 84.85281 504.2489
v -813.8962 84.85281 504.2489
v -811.1396 84.85281 502.9523
v -811.1396 84.85281 502.9523
v -811.1396 84.85281 502.9523
v -811.1396 84.85281 502.9523
v -809.3194 83.93964 502.0961
v -809.3194 83.93964 502.0961
v -815.6094 84.74313 500.0738
v -815.6094 84.74313 500.0738
v -812.6682 84.74313 499.0285
v -812.6682 84.74313 499.0285
v -812.6682 84.74313 499.0285
v -812.6682 84.74313 499.0285
v -810.7556 83.89795 498.3488
v -810.7556 83.89795 498.3488
v -816.9937 84.54058 495.5924
v -816.9937 84.54058 495.5924
v -813.9126 84.54058 494.7744
v -813.9126 84.54058 494.7744
v -813.9126 84.54058 494.7744
v -813.9126 84.54058 494.7744
v -811.9355 83.61053 494.2495
v -811.9355 83.61053 494.2495
v -818.0638 84.26314 490.9455
v -818.0638 84.26314 490.9455
v -814.8809 84.26314 490.3182
v -814.8809 84.26314 490.3182
v -814.8809 84.26314 490.3182
v -814.8809 84.26314 490.3182
v -812.861 83.24341 489.9201
v -812.861 83.24341 489.9201
v -818.8771 83.9258 486.1821
v -818.8771 83.9258 486.1821
v -815.6198 83.9258 485.7078
v -815.6198 83.9258 485.7078
v -815.6198 83.9258 485.7078
v -815.6198 83.9258 485.7078
v -813.5716 82.83392 485.4095
v -813.5716 82.83392 485.4095
v -819.4878 83.54214 481.3496
v -819.4878 83.54214 481.3496
v -816.1759 83.54214 480.9922
v -816.1759 83.54214 480.9922
v -816.1759 83.54214 480.9922
v -816.1759 83.54214 480.9922
v -814.1091 82.36672 480.7692
v -814.1091 82.36672 480.7692
v -819.9469 83.1243 476.491
v -819.9469 83.1243 476.491
v -816.5952 83.1243 476.2172
v -816.5952 83.1243 476.2172
v -816.5952 83.1243 476.2172
v -816.5952 83.1243 476.2172
v -814.5161 81.84508 476.0473
v -814.5161 81.84508 476.0473
v -820.3103 82.67113 471.5154
v -820.3103 82.67113 471.5154
v -816.9293 82.67113 471.2956
v -816.9293 82.67113 471.2956
v -816.9293 82.67113 471.2956
v -816.9293 82.67113 471.2956
v -814.8419 81.46044 471.1599
v -814.8419 81.46044 471.1599
v -820.6104 82.20307 466.5809
v -820.6104 82.20307 466.5809
v -817.2092 82.20307 466.3859
v -817.2092 82.20307 466.3859
v -817.2092 82.20307 466.3859
v -817.2092 82.20307 466.3859
v -815.1167 80.85002 466.266
v -815.1167 80.85002 466.266
v -820.8961 81.71606 461.5847
v -820.8961 81.71606 461.5847
v -817.4826 81.71606 461.3871
v -817.4826 81.71606 461.3871
v -817.4826 81.71606 461.3871
v -817.4826 81.71606 461.3871
v -815.3874 80.41739 461.2659
v -815.3874 80.41739 461.2659
v -821.2068 81.21744 456.5508
v -821.2068 81.21744 456.5508
v -817.7887 81.21744 456.3232
v -817.7887 81.21744 456.3232
v -817.7887 81.21744 456.3232
v -817.7887 81.21744 456.3232
v -815.6932 79.96172 456.1837
v -815.6932 79.96172 456.1837
v -821.583 80.71431 451.5004
v -821.583 80.71431 451.5004
v -818.1688 80.71431 451.2147
v -818.1688 80.71431 451.2147
v -818.1688 80.71431 451.2147
v -818.1688 80.71431 451.2147
v -816.076 79.22274 451.0396
v -816.076 79.22274 451.0396
v -822.0812 80.2009 446.323
v -822.0812 80.2009 446.323
v -818.6815 80.2009 445.9477
v -818.6815 80.2009 445.9477
v -818.6815 80.2009 445.9477
v -818.6815 80.2009 445.9477
v -816.5954 78.92768 445.7174
v -816.5954 78.92768 445.7174
v -822.7386 79.69827 441.174
v -822.7386 79.69827 441.174
v -819.3665 79.69827 440.6779
v -819.3665 79.69827 440.6779
v -819.3665 79.69827 440.6779
v -819.3665 79.69827 440.6779
v -817.2928 78.37818 440.3729
v -817.2928 78.37818 440.3729
v -823.6295 79.20207 435.9451
v -823.6295 79.20207 435.9451
v -820.3033 79.20207 435.2919
v -820.3033 79.20207 435.2919
v -820.3033 79.20207 435.2919
v -820.3033 79.20207 435.2919
v -818.2509 77.73626 434.8888
v -818.2509 77.73626 434.8888
v -824.7936 78.7338 430.7933
v -824.7936 78.7338 430.7933
v -821.5367 78.7338 429.9496
v -821.5367 78.7338 429.9496
v -821.5367 78.7338 429.9496
v -821.5367 78.7338 429.9496
v -819.5175 77.49841 429.4265
v -819.5175 77.49841 429.4265
v -826.3303 78.29165 425.6209
v -826.3303 78.29165 425.6209
v -823.1757 78.29165 424.5493
v -823.1757 78.29165 424.5493
v -823.1757 78.29165 424.5493
v -823.1757 78.29165 424.5493
v -821.2077 77.18744 423.8807
v -821.2077 77.18744 423.8807

vn -0.0006070258 0.9999992 -0.001056224
vn 0 0 0
vn -0.000578209 0.9999991 -0.001109071
vn 0 0 0
vn 0.4357828 0.8697159 -0.231706
vn 0 0 0
vn 0.4123316 0.8903173 -0.1931784
vn 0 0 0
vn -0.003810548 0.9999607 -0.008020799
vn 0 0 0
vn -0.006538735 0.999853 -0.01585252
vn 0 0 0
vn 0.4007804 0.8970087 -0.1864145
vn 0 0 0
vn 0.3729004 0.9145622 -0.1565933
vn 0 0 0
vn -0.0112864 0.9995039 -0.02940213
vn 0 0 0
vn -0.01173718 0.999254 -0.03679208
vn 0 0 0
vn 0.362386 0.9189622 -0.1555146
vn 0 0 0
vn 0.3643368 0.9180716 -0.1562153
vn 0 0 0
vn -0.01373568 0.9987932 -0.04715216
vn 0 0 0
vn -0.01282748 0.9984872 -0.05346739
vn 0 0 0
vn 0.3759388 0.9137619 -0.1539784
vn 0 0 0
vn 0.3970299 0.9037956 -0.1597525
vn 0 0 0
vn -0.01339092 0.9980197 -0.0614612
vn 0 0 0
vn -0.0118784 0.9977145 -0.06651904
vn 0 0 0
vn 0.4117217 0.8994452 -0.1465729
vn 0 0 0
vn 0.4308614 0.8899357 -0.1495756
vn 0 0 0
vn -0.01172914 0.9972989 -0.07250825
vn 0 0 0
vn -0.01011711 0.9970241 -0.07642472
vn 0 0 0
vn 0.4421487 0.886515 -0.136366
vn 0 0 0
vn 0.4595981 0.8771254 -0.1393584
vn 0 0 0
vn -0.00970589 0.9966754 -0.08089499
vn 0 0 0
vn -0.008288841 0.9964444 -0.08384512
vn 0 0 0
vn 0.470646 0.8728945 -0.1286374
vn 0 0 0
vn 0.4902107 0.8614185 -0.1328597
vn 0 0 0
vn -0.007860645 0.9961585 -0.0872149
vn 0 0 0
vn -0.006787881 0.9959753 -0.08937158
vn 0 0 0
vn 0.5023637 0.8558637 -0.1229956
vn 0 0 0
vn 0.5064529 0.8542721 -0.1171522
vn 0 0 0
vn -0.006472072 0.9957529 -0.09183856
vn 0 0 0
vn -0.005822946 0.9956194 -0.09331688
vn 0 0 0
vn 0.5005997 0.8588907 -0.1081983
vn 0 0 0
vn 0.5071858 0.8540758 -0.1154
vn 0 0 0
vn -0.005691882 0.9954487 -0.09512848
vn 0 0 0
vn -0.005519982 0.9953665 -0.09599576
vn 0 0 0
vn 0.5208917 0.8453532 -0.1185328
vn 0 0 0
vn 0.529301 0.840541 -0.1154608
vn 0 0 0
vn -0.005606689 0.9952492 -0.09719877
vn 0 0 0
vn -0.005927427 0.9952181 -0.09749731
vn 0 0 0
vn 0.5245586 0.8443558 -0.1090945
vn 0 0 0
vn 0.5147507 0.8505274 -0.1078658
vn 0 0 0
vn -0.006251492 0.9951515 -0.09815495
vn 0 0 0
vn -0.007076737 0.9951729 -0.09788293
vn 0 0 0
vn 0.5095527 0.8527759 -0.1145831
vn 0 0 0
vn 0.5260624 0.8404728 -0.1298606
vn 0 0 0
vn -0.007644187 0.995159 -0.09798006
vn 0 0 0
vn -0.008992524 0.995235 -0.09709036
vn 0 0 0
vn 0.5467582 0.8257433 -0.1385768
vn 0 0 0
vn 0.5483468 0.8260313 -0.1303385
vn 0 0 0
vn -0.009791641 0.9952787 -0.09656329
vn 0 0 0
vn -0.01163433 0.9954106 -0.09498657
vn 0 0 0
vn 0.528269 0.8396323 -0.1262912
vn 0 0 0
vn 0.5097289 0.8500332 -0.1327407
vn 0 0 0
vn -0.01262814 0.9955198 -0.09370717
vn 0 0 0
vn -0.01491691 0.9957085 -0.09133522
vn 0 0 0
vn 0.5100301 0.8459167 -0.1558657
vn 0 0 0
vn 0.5244856 0.8340865 -0.170923
vn 0 0 0
vn -0.01601054 0.995885 -0.08919989
vn 0 0 0
vn -0.01861191 0.9961267 -0.08593759
vn 0 0 0
vn 0.5341858 0.8248458 -0.1851348
vn 0 0 0
vn 0.5264543 0.83094 -0.1799574
vn 0 0 0
vn -0.01964353 0.9963794 -0.08271727
vn 0 0 0
vn -0.02235446 0.9966657 -0.07847275
vn 0 0 0
vn 0.5010644 0.8449433 -0.1870967
vn 0 0 0
vn 0.4636425 0.8671767 -0.1817694
vn 0 0 0
vn -0.02285657 0.9968069 -0.07650781
vn 0 0 0
vn -0.02513728 0.9969416 -0.0739959
vn 0 0 0
vn 0.451621 0.870138 -0.1972263
vn 0 0 0
vn 0.4335311 0.8826458 -0.1816233
vn 0 0 0

vt 0 0
vt 0 0
vt -0.5266724 -0.3026856
vt -0.5266724 -0.3026856
vt -0.5266724 -0.3026856
vt -0.5266724 -0.3026856
vt -0.8750855 -0.5029236
vt -0.8750855 -0.5029236
vt 0.4407349 -0.8301941
vt 0.4407349 -0.8301941
vt -0.1105957 -1.08952
vt -0.1105957 -1.08952
vt -0.1105957 -1.08952
vt -0.1105957 -1.08952
vt -0.4746338 -1.260754
vt -0.4746338 -1.260754
vt 0.783374 -1.66521
vt 0.783374 -1.66521
vt 0.1951172 -1.874268
vt 0.1951172 -1.874268
vt 0.1951172 -1.874268
vt 0.1951172 -1.874268
vt -0.1874024 -2.010211
vt -0.1874024 -2.010211
vt 1.060217 -2.561499
vt 1.060217 -2.561499
vt 0.4440064 -2.725098
vt 0.4440064 -2.725098
vt 0.4440064 -2.725098
vt 0.4440064 -2.725098
vt 0.04859619 -2.830078
vt 0.04859619 -2.830078
vt 1.274255 -3.490881
vt 1.274255 -3.490881
vt 0.6376587 -3.616339
vt 0.6376587 -3.616339
vt 0.6376587 -3.616339
vt 0.6376587 -3.616339
vt 0.2336792 -3.69596
vt 0.2336792 -3.69596
vt 1.436914 -4.443549
vt 1.436914 -4.443549
vt 0.785437 -4.538415
vt 0.785437 -4.538415
vt 0.785437 -4.538415
vt 0.785437 -4.538415
vt 0.3758057 -4.598065
vt 0.3758057 -4.598065
vt 1.559045 -5.410047
vt 1.559045 -5.410047
vt 0.8966675 -5.481525
vt 0.8966675 -5.481525
vt 0.8966675 -5.481525
vt 0.8966675 -5.481525
vt 0.483313 -5.526129
vt 0.483313 -5.526129
vt 1.650867 -6.381775
vt 1.650867 -6.381775
vt 0.9805298 -6.436542
vt 0.9805298 -6.436542
vt 0.9805298 -6.436542
vt 0.9805298 -6.436542
vt 0.5647095 -6.470514
vt 0.5647095 -6.470514
vt 1.723547 -7.376904
vt 1.723547 -7.376904
vt 1.047339 -7.420856
vt 1.047339 -7.420856
vt 1.047339 -7.420856
vt 1.047339 -7.420856
vt 0.6298584 -7.447986
vt 0.6298584 -7.447986
vt 1.783557 -8.3638
vt 1.783557 -8.3638
vt 1.103333 -8.402789
vt 1.103333 -8.402789
vt 1.103333 -8.402789
vt 1.103333 -8.402789
vt 0.6848267 -8.426776
vt 0.6848267 -8.426776
vt 1.840698 -9.363044
vt 1.840698 -9.363044
vt 1.158008 -9.402545
vt 1.158008 -9.402545
vt 1.158008 -9.402545
vt 1.158008 -9.402545
vt 0.7389649 -9.426795
vt 0.7389649 -9.426795
vt 1.902844 -10.36981
vt 1.902844 -10.36981
vt 1.219226 -10.41533
vt 1.219226 -10.41533
vt 1.219226 -10.41533
vt 1.219226 -10.41533
vt 0.8001343 -10.44324
vt 0.8001343 -10.44324
vt 1.978088 -11.37989
vt 1.978088 -11.37989
vt 1.295251 -11.43703
vt 1.295251 -11.43703
vt 1.295251 -11.43703
vt 1.295251 -11.43703
vt 0.8766846 -11.47206
vt 0.8766846 -11.47206
vt 2.077734 -12.41537
vt 2.077734 -12.41537
vt 1.397791 -12.49044
vt 1.397791 -12.49044
vt 1.397791 -12.49044
vt 1.397791 -12.49044
vt 0.9805664 -12.53649
vt 0.9805664 -12.53649
vt 2.209216 -13.44517
vt 2.209216 -13.44517
vt 1.53479 -13.54439
vt 1.53479 -13.54439
vt 1.53479 -13.54439
vt 1.53479 -13.54439
vt 1.120056 -13.6054
vt 1.120056 -13.6054
vt 2.38739 -14.49096
vt 2.38739 -14.49096
vt 1.722156 -14.62159
vt 1.722156 -14.62159
vt 1.722156 -14.62159
vt 1.722156 -14.62159
vt 1.31167 -14.70221
vt 1.31167 -14.70221
vt 2.620203 -15.52131
vt 2.620203 -15.52131
vt 1.968835 -15.69006
vt 1.968835 -15.69006
vt 1.968835 -15.69006
vt 1.968835 -15.69006
vt 1.564978 -15.79468
vt 1.564978 -15.79468
vt 2.927551 -16.55579
vt 2.927551 -16.55579
vt 2.296631 -16.77012
vt 2.296631 -16.77012
vt 2.296631 -16.77012
vt 2.296631 -16.77012
vt 1.903027 -16.90384
vt 1.903027 -16.90384

usemtl GSDShoulder1
usemap GSDShoulder1
f 9/9/9 1/1/1 3/3/3
f 11/11/11 9/9/9 3/3/3
f 13/13/13 5/5/5 7/7/7
f 15/15/15 13/13/13 7/7/7
f 17/17/17 9/9/9 11/11/11
f 19/19/19 17/17/17 11/11/11
f 21/21/21 13/13/13 15/15/15
f 23/23/23 21/21/21 15/15/15
f 25/25/25 17/17/17 19/19/19
f 27/27/27 25/25/25 19/19/19
f 29/29/29 21/21/21 23/23/23
f 31/31/31 29/29/29 23/23/23
f 33/33/33 25/25/25 27/27/27
f 35/35/35 33/33/33 27/27/27
f 37/37/37 29/29/29 31/31/31
f 39/39/39 37/37/37 31/31/31
f 41/41/41 33/33/33 35/35/35
f 43/43/43 41/41/41 35/35/35
f 45/45/45 37/37/37 39/39/39
f 47/47/47 45/45/45 39/39/39
f 49/49/49 41/41/41 43/43/43
f 51/51/51 49/49/49 43/43/43
f 53/53/53 45/45/45 47/47/47
f 55/55/55 53/53/53 47/47/47
f 57/57/57 49/49/49 51/51/51
f 59/59/59 57/57/57 51/51/51
f 61/61/61 53/53/53 55/55/55
f 63/63/63 61/61/61 55/55/55
f 65/65/65 57/57/57 59/59/59
f 67/67/67 65/65/65 59/59/59
f 69/69/69 61/61/61 63/63/63
f 71/71/71 69/69/69 63/63/63
f 73/73/73 65/65/65 67/67/67
f 75/75/75 73/73/73 67/67/67
f 77/77/77 69/69/69 71/71/71
f 79/79/79 77/77/77 71/71/71
f 81/81/81 73/73/73 75/75/75
f 83/83/83 81/81/81 75/75/75
f 85/85/85 77/77/77 79/79/79
f 87/87/87 85/85/85 79/79/79
f 89/89/89 81/81/81 83/83/83
f 91/91/91 89/89/89 83/83/83
f 93/93/93 85/85/85 87/87/87
f 95/95/95 93/93/93 87/87/87
f 97/97/97 89/89/89 91/91/91
f 99/99/99 97/97/97 91/91/91
f 101/101/101 93/93/93 95/95/95
f 103/103/103 101/101/101 95/95/95
f 105/105/105 97/97/97 99/99/99
f 107/107/107 105/105/105 99/99/99
f 109/109/109 101/101/101 103/103/103
f 111/111/111 109/109/109 103/103/103
f 113/113/113 105/105/105 107/107/107
f 115/115/115 113/113/113 107/107/107
f 117/117/117 109/109/109 111/111/111
f 119/119/119 117/117/117 111/111/111
f 121/121/121 113/113/113 115/115/115
f 123/123/123 121/121/121 115/115/115
f 125/125/125 117/117/117 119/119/119
f 127/127/127 125/125/125 119/119/119
f 129/129/129 121/121/121 123/123/123
f 131/131/131 129/129/129 123/123/123
f 133/133/133 125/125/125 127/127/127
f 135/135/135 133/133/133 127/127/127
f 137/137/137 129/129/129 131/131/131
f 139/139/139 137/137/137 131/131/131
f 141/141/141 133/133/133 135/135/135
f 143/143/143 141/141/141 135/135/135
