mtllib ./Road1_0_191.mtl
g SCutR52
v -649.8386 27.12843 746.9481
v -649.8386 27.12843 746.9481
v -649.7122 27.12843 750.0983
v -649.7122 27.12843 750.0983
v -649.7122 27.12843 750.0983
v -649.7122 27.12843 750.0983
v -649.6306 25.21686 752.1308
v -649.6306 25.21686 752.1308
v -644.8122 27.53051 746.7478
v -644.8122 27.53051 746.7478
v -644.6832 27.53051 749.895
v -644.6832 27.53051 749.895
v -644.6832 27.53051 749.895
v -644.6832 27.53051 749.895
v -644.5998 25.525 751.9267
v -644.5998 25.525 751.9267
v -639.7307 27.93654 746.5335
v -639.7307 27.93654 746.5335
v -639.595 27.93654 749.6794
v -639.595 27.93654 749.6794
v -639.595 27.93654 749.6794
v -639.595 27.93654 749.6794
v -639.5073 25.99199 751.7108
v -639.5073 25.99199 751.7108
v -634.6871 28.33998 746.3127
v -634.6871 28.33998 746.3127
v -634.548 28.33998 749.4575
v -634.548 28.33998 749.4575
v -634.548 28.33998 749.4575
v -634.548 28.33998 749.4575
v -634.4581 26.46446 751.4885
v -634.4581 26.46446 751.4885
v -629.6821 28.74074 746.0908
v -629.6821 28.74074 746.0908
v -629.5429 28.74074 749.2345
v -629.5429 28.74074 749.2345
v -629.5429 28.74074 749.2345
v -629.5429 28.74074 749.2345
v -629.453 26.46446 751.2652
v -629.453 26.46446 751.2652
v -624.5917 29.14878 745.8679
v -624.5917 29.14878 745.8679
v -624.456 29.14878 749.0105
v -624.456 29.14878 749.0105
v -624.456 29.14878 749.0105
v -624.456 29.14878 749.0105
v -624.3683 27.24682 751.041
v -624.3683 27.24682 751.041
v -619.5466 29.55365 745.6552
v -619.5466 29.55365 745.6552
v -619.418 29.55365 748.7968
v -619.418 29.55365 748.7968
v -619.418 29.55365 748.7968
v -619.418 29.55365 748.7968
v -619.335 27.5619 750.8272
v -619.335 27.5619 750.8272
v -614.5493 29.95512 745.4587
v -614.5493 29.95512 745.4587
v -614.4316 29.95512 748.5995
v -614.4316 29.95512 748.5995
v -614.4316 29.95512 748.5995
v -614.4316 29.95512 748.5995
v -614.3554 28.0277 750.6298
v -614.3554 28.0277 750.6298
v -609.4772 30.36306 745.28
v -609.4772 30.36306 745.28
v -609.3746 30.36306 748.42
v -609.3746 30.36306 748.42
v -609.3746 30.36306 748.42
v -609.3746 30.36306 748.42
v -609.3082 28.49665 750.4503
v -609.3082 28.49665 750.4503

vn -0.0796113 0.9968209 0.003194509
vn 0 0 0
vn -0.07958835 0.9968227 0.003228275
vn 0 0 0
vn -0.030455 0.7275022 0.685429
vn 0 0 0
vn -0.02267164 0.7193797 0.6942468
vn 0 0 0
vn -0.07956289 0.9968246 0.003238884
vn 0 0 0
vn -0.07949285 0.9968299 0.003315705
vn 0 0 0
vn -0.02412353 0.7165133 0.6971561
vn 0 0 0
vn -0.02626963 0.7144485 0.6991947
vn 0 0 0
vn -0.07949927 0.9968292 0.00337213
vn 0 0 0
vn -0.07950389 0.9968286 0.003458081
vn 0 0 0
vn -0.03033105 0.7178108 0.6955773
vn 0 0 0
vn -0.03424495 0.7252703 0.6876119
vn 0 0 0
vn -0.0795908 0.9968215 0.003491117
vn 0 0 0
vn -0.07961591 0.9968194 0.003522479
vn 0 0 0
vn -0.03148337 0.7294881 0.6832685
vn 0 0 0
vn -0.009973057 0.7107244 0.7033998
vn 0 0 0
vn -0.07969064 0.9968134 0.00352672
vn 0 0 0
vn -0.07973882 0.9968097 0.00350057
vn 0 0 0
vn -0.004612496 0.6876707 0.7260081
vn 0 0 0
vn -0.02160283 0.6858666 0.7274067
vn 0 0 0
vn -0.07980067 0.9968048 0.003474477
vn 0 0 0
vn -0.07987276 0.9967993 0.003388973
vn 0 0 0
vn -0.04327936 0.7060995 0.7067888
vn 0 0 0
vn -0.04201604 0.7229549 0.6896165
vn 0 0 0
vn -0.07992111 0.9967957 0.003331356
vn 0 0 0
vn -0.08001659 0.9967885 0.003183717
vn 0 0 0
vn -0.02466991 0.7184397 0.6951516
vn 0 0 0
vn -0.02822876 0.7167869 0.6967206
vn 0 0 0
vn -0.08004986 0.9967861 0.003092288
vn 0 0 0
vn -0.08017112 0.9967771 0.002876615
vn 0 0 0
vn -0.03465778 0.720353 0.6927412
vn 0 0 0
vn -0.03949862 0.7276253 0.6848368
vn 0 0 0
vn -0.08018935 0.9967757 0.002813922
vn 0 0 0
vn -0.08031455 0.9967661 0.002625893
vn 0 0 0
vn -0.0390427 0.7294675 0.6829002
vn 0 0 0
vn -0.04419519 0.7347628 0.6768829
vn 0 0 0

vt 0 0
vt 0 0
vt -0.02528076 0.6300293
vt -0.02528076 0.6300293
vt -0.02528076 0.6300293
vt -0.02528076 0.6300293
vt -0.04160156 1.036536
vt -0.04160156 1.036536
vt -1.005286 -0.04006348
vt -1.005286 -0.04006348
vt -1.031091 0.5893677
vt -1.031091 0.5893677
vt -1.031091 0.5893677
vt -1.031091 0.5893677
vt -1.047766 0.9957153
vt -1.047766 0.9957153
vt -2.021594 -0.08292236
vt -2.021594 -0.08292236
vt -2.048731 0.5462646
vt -2.048731 0.5462646
vt -2.048731 0.5462646
vt -2.048731 0.5462646
vt -2.06626 0.9525391
vt -2.06626 0.9525391
vt -3.03031 -0.1270752
vt -3.03031 -0.1270752
vt -3.05813 0.5018799
vt -3.05813 0.5018799
vt -3.05813 0.5018799
vt -3.05813 0.5018799
vt -3.076099 0.9080811
vt -3.076099 0.9080811
vt -4.031311 -0.17146
vt -4.031311 -0.17146
vt -4.059143 0.4572754
vt -4.059143 0.4572754
vt -4.059143 0.4572754
vt -4.059143 0.4572754
vt -4.077124 0.8634155
vt -4.077124 0.8634155
vt -5.04939 -0.2160522
vt -5.04939 -0.2160522
vt -5.076526 0.4124756
vt -5.076526 0.4124756
vt -5.076526 0.4124756
vt -5.076526 0.4124756
vt -5.094068 0.8185791
vt -5.094068 0.8185791
vt -6.058399 -0.2585938
vt -6.058399 -0.2585938
vt -6.084119 0.3697388
vt -6.084119 0.3697388
vt -6.084119 0.3697388
vt -6.084119 0.3697388
vt -6.100732 0.7758179
vt -6.100732 0.7758179
vt -7.057861 -0.2978882
vt -7.057861 -0.2978882
vt -7.081409 0.3302734
vt -7.081409 0.3302734
vt -7.081409 0.3302734
vt -7.081409 0.3302734
vt -7.096643 0.7363403
vt -7.096643 0.7363403
vt -8.072278 -0.3336182
vt -8.072278 -0.3336182
vt -8.092811 0.2943726
vt -8.092811 0.2943726
vt -8.092811 0.2943726
vt -8.092811 0.2943726
vt -8.106091 0.7004395
vt -8.106091 0.7004395

usemtl GSDShoulder1
usemap GSDShoulder1
f 9/9/9 1/1/1 3/3/3
f 11/11/11 9/9/9 3/3/3
f 13/13/13 5/5/5 7/7/7
f 15/15/15 13/13/13 7/7/7
f 17/17/17 9/9/9 11/11/11
f 19/19/19 17/17/17 11/11/11
f 21/21/21 13/13/13 15/15/15
f 23/23/23 21/21/21 15/15/15
f 25/25/25 17/17/17 19/19/19
f 27/27/27 25/25/25 19/19/19
f 29/29/29 21/21/21 23/23/23
f 31/31/31 29/29/29 23/23/23
f 33/33/33 25/25/25 27/27/27
f 35/35/35 33/33/33 27/27/27
f 37/37/37 29/29/29 31/31/31
f 39/39/39 37/37/37 31/31/31
f 41/41/41 33/33/33 35/35/35
f 43/43/43 41/41/41 35/35/35
f 45/45/45 37/37/37 39/39/39
f 47/47/47 45/45/45 39/39/39
f 49/49/49 41/41/41 43/43/43
f 51/51/51 49/49/49 43/43/43
f 53/53/53 45/45/45 47/47/47
f 55/55/55 53/53/53 47/47/47
f 57/57/57 49/49/49 51/51/51
f 59/59/59 57/57/57 51/51/51
f 61/61/61 53/53/53 55/55/55
f 63/63/63 61/61/61 55/55/55
f 65/65/65 57/57/57 59/59/59
f 67/67/67 65/65/65 59/59/59
f 69/69/69 61/61/61 63/63/63
f 71/71/71 69/69/69 63/63/63
