mtllib ./Road1_0_26.mtl
g RoadCut13
v -883.8292 56.67105 173.4201
v -883.8292 56.67105 173.4201
v -875.3178 56.67105 178.6052
v -875.3178 56.67105 178.6052
v -881.1565 56.26166 169.098
v -881.1565 56.26166 169.098
v -872.7117 56.26166 174.3927
v -872.7117 56.26166 174.3927
v -878.3992 55.85284 164.7559
v -878.3992 55.85284 164.7559
v -870.0152 55.85284 170.148
v -870.0152 55.85284 170.148
v -875.5932 55.44845 160.4445
v -875.5932 55.44845 160.4445
v -867.268 55.44845 165.9281
v -867.268 55.44845 165.9281
v -872.7665 55.05107 156.2013
v -872.7665 55.05107 156.2013
v -864.4987 55.05107 161.7718
v -864.4987 55.05107 161.7718
v -869.8749 54.65344 151.9567
v -869.8749 54.65344 151.9567
v -861.6646 54.65344 157.6123
v -861.6646 54.65344 157.6123
v -866.9328 54.25694 147.732
v -866.9328 54.25694 147.732
v -858.7807 54.25694 153.4716
v -858.7807 54.25694 153.4716
v -863.9548 53.86293 143.5476
v -863.9548 53.86293 143.5476
v -855.8618 53.86293 149.3706
v -855.8618 53.86293 149.3706
v -860.9536 53.47261 139.4211
v -860.9536 53.47261 139.4211
v -852.9207 53.47261 145.3272
v -852.9207 53.47261 145.3272
v -857.9409 53.08702 135.3676
v -857.9409 53.08702 135.3676
v -849.9698 53.08702 141.3568
v -849.9698 53.08702 141.3568
v -854.8452 52.69681 131.2932
v -854.8452 52.69681 131.2932
v -846.939 52.69681 137.368
v -846.939 52.69681 137.368
v -851.6713 52.3026 127.2099
v -851.6713 52.3026 127.2099
v -843.834 52.3026 133.3731
v -843.834 52.3026 133.3731
v -848.5097 51.91547 123.2363
v -848.5097 51.91547 123.2363
v -840.7435 51.91547 129.4888
v -840.7435 51.91547 129.4888
v -845.2817 51.52563 119.2755
v -845.2817 51.52563 119.2755
v -837.5912 51.52563 125.6208
v -837.5912 51.52563 125.6208
v -841.9919 51.13367 115.3387
v -841.9919 51.13367 115.3387
v -834.3821 51.13367 121.7805
v -834.3821 51.13367 121.7805
v -838.6432 50.74005 111.4356
v -838.6432 50.74005 111.4356
v -831.1202 50.74005 117.9781
v -831.1202 50.74005 117.9781
v -835.24 50.34536 107.5773
v -835.24 50.34536 107.5773
v -827.8102 50.34536 114.2251
v -827.8102 50.34536 114.2251
v -831.7861 49.95012 103.7742
v -831.7861 49.95012 103.7742
v -824.4567 49.95012 110.5324
v -824.4567 49.95012 110.5324
v -828.285 49.55488 100.0371
v -828.285 49.55488 100.0371
v -821.0645 49.55488 106.911
v -821.0645 49.55488 106.911
v -824.7411 49.16023 96.37687
v -824.7411 49.16023 96.37687
v -817.6389 49.16023 103.3725
v -817.6389 49.16023 103.3725
v -821.0594 48.75599 92.70782
v -821.0594 48.75599 92.70782
v -814.0897 48.75599 99.83497
v -814.0897 48.75599 99.83497
v -817.3401 48.35353 89.14252
v -817.3401 48.35353 89.14252
v -810.5157 48.35353 96.40833
v -810.5157 48.35353 96.40833
v -813.5864 47.9534 85.69196
v -813.5864 47.9534 85.69196
v -806.9218 47.9534 93.10403
v -806.9218 47.9534 93.10403
v -809.7015 47.54573 82.28175
v -809.7015 47.54573 82.28175
v -803.2181 47.54573 89.85228
v -803.2181 47.54573 89.85228
v -805.6874 47.13148 78.93548
v -805.6874 47.13148 78.93548
v -799.4109 47.13148 86.67773
v -799.4109 47.13148 86.67773
v -801.6467 46.72184 75.756
v -801.6467 46.72184 75.756
v -795.6016 46.72184 83.67952
v -795.6016 46.72184 83.67952
v -797.4803 46.30738 72.68367
v -797.4803 46.30738 72.68367
v -791.7018 46.30738 80.80301
v -791.7018 46.30738 80.80301
v -793.1909 45.88935 69.74853
v -793.1909 45.88935 69.74853
v -787.7215 45.88935 78.07853
v -787.7215 45.88935 78.07853
v -788.7793 45.46899 66.98232
v -788.7793 45.46899 66.98232
v -783.6705 45.46899 75.53751
v -783.6705 45.46899 75.53751

vn 0.0417794 0.9967705 -0.06858031
vn 0 0 0
vn 0.04275387 0.9966879 -0.06917521
vn 0 0 0
vn 0.04252844 0.9967455 -0.06848227
vn 0 0 0
vn 0.04321345 0.9967257 -0.06833984
vn 0 0 0
vn 0.04276343 0.9968322 -0.06705828
vn 0 0 0
vn 0.04341283 0.9968104 -0.0669665
vn 0 0 0
vn 0.04305141 0.9968982 -0.06588388
vn 0 0 0
vn 0.04369337 0.9968732 -0.0658379
vn 0 0 0
vn 0.04339097 0.9969487 -0.06488781
vn 0 0 0
vn 0.04403576 0.9969212 -0.06487659
vn 0 0 0
vn 0.04378437 0.9969868 -0.06403242
vn 0 0 0
vn 0.04443967 0.9969571 -0.06404449
vn 0 0 0
vn 0.04422645 0.9970157 -0.06327493
vn 0 0 0
vn 0.04489795 0.9969835 -0.0633098
vn 0 0 0
vn 0.04471467 0.9970367 -0.0625975
vn 0 0 0
vn 0.04540365 0.9970022 -0.06265065
vn 0 0 0
vn 0.04524307 0.9970514 -0.0619809
vn 0 0 0
vn 0.04595378 0.9970145 -0.062052
vn 0 0 0
vn 0.04581 0.9970609 -0.06140862
vn 0 0 0
vn 0.04655025 0.9970214 -0.06149106
vn 0 0 0
vn 0.04642657 0.9970653 -0.06087229
vn 0 0 0
vn 0.04720695 0.9970231 -0.06096229
vn 0 0 0
vn 0.04709988 0.9970648 -0.06035986
vn 0 0 0
vn 0.047917 0.9970199 -0.0604589
vn 0 0 0
vn 0.0478131 0.9970615 -0.05985343
vn 0 0 0
vn 0.04867235 0.9970132 -0.05996194
vn 0 0 0
vn 0.04857876 0.997054 -0.05935989
vn 0 0 0
vn 0.04949162 0.9970023 -0.05947227
vn 0 0 0
vn 0.0494044 0.9970428 -0.05886201
vn 0 0 0
vn 0.05037734 0.9969873 -0.05897735
vn 0 0 0
vn 0.05029317 0.9970284 -0.05835211
vn 0 0 0
vn 0.05133296 0.9969686 -0.05846841
vn 0 0 0
vn 0.05124893 0.9970106 -0.05782203
vn 0 0 0
vn 0.05236411 0.9969459 -0.05793891
vn 0 0 0
vn 0.05227542 0.9969895 -0.05726406
vn 0 0 0
vn 0.053474 0.9969194 -0.05737836
vn 0 0 0
vn 0.05337622 0.9969653 -0.05666693
vn 0 0 0
vn 0.05466985 0.9968889 -0.0567773
vn 0 0 0
vn 0.05455616 0.9969384 -0.05601418
vn 0 0 0
vn 0.05596654 0.996855 -0.05610851
vn 0 0 0
vn 0.05584329 0.9969071 -0.05529691
vn 0 0 0
vn 0.05738699 0.9968152 -0.05537157
vn 0 0 0
vn 0.05723306 0.996873 -0.05448598
vn 0 0 0
vn 0.05891671 0.9967718 -0.05454163
vn 0 0 0
vn 0.05871748 0.9968365 -0.05356617
vn 0 0 0
vn 0.06057461 0.9967243 -0.05358549
vn 0 0 0
vn 0.06033189 0.9967962 -0.05251162
vn 0 0 0
vn 0.06240169 0.996671 -0.05247044
vn 0 0 0
vn 0.06209743 0.996752 -0.05127692
vn 0 0 0
vn 0.06439723 0.9966117 -0.05116875
vn 0 0 0
vn 0.06397976 0.9967073 -0.04981123
vn 0 0 0
vn 0.06654722 0.9965491 -0.04961193
vn 0 0 0
vn 0.06600148 0.9966605 -0.04807925
vn 0 0 0
vn 0.06889387 0.996481 -0.04774093
vn 0 0 0
vn 0.0681682 0.9966134 -0.04598709
vn 0 0 0
vn 0.07143673 0.9964086 -0.04546119
vn 0 0 0
vn 0.07107391 0.9964768 -0.04452593
vn 0 0 0
vn 0.07520232 0.9961566 -0.04490735
vn 0 0 0

vt 0 0
vt 0 0
vt -1.702271 1.03703
vt -1.702271 1.03703
vt -0.5345337 -0.8644134
vt -0.5345337 -0.8644134
vt -2.223499 0.194516
vt -2.223499 0.194516
vt -1.085986 -1.732837
vt -1.085986 -1.732837
vt -2.762793 -0.6544129
vt -2.762793 -0.6544129
vt -1.647192 -2.59512
vt -1.647192 -2.59512
vt -3.312232 -1.498398
vt -3.312232 -1.498398
vt -2.212537 -3.443759
vt -2.212537 -3.443759
vt -3.866101 -2.32966
vt -3.866101 -2.32966
vt -2.790845 -4.292679
vt -2.790845 -4.292679
vt -4.43291 -3.161557
vt -4.43291 -3.161557
vt -3.379272 -5.137622
vt -3.379272 -5.137622
vt -5.009693 -3.989697
vt -5.009693 -3.989697
vt -3.974878 -5.974494
vt -3.974878 -5.974494
vt -5.593482 -4.809894
vt -5.593482 -4.809894
vt -4.575122 -6.799798
vt -4.575122 -6.799798
vt -6.18169 -5.618579
vt -6.18169 -5.618579
vt -5.177661 -7.610507
vt -5.177661 -7.610507
vt -6.771875 -6.412668
vt -6.771875 -6.412668
vt -5.796802 -8.425387
vt -5.796802 -8.425387
vt -7.378027 -7.210428
vt -7.378027 -7.210428
vt -6.43158 -9.24204
vt -6.43158 -9.24204
vt -7.999036 -8.009391
vt -7.999036 -8.009391
vt -7.063892 -10.03675
vt -7.063892 -10.03675
vt -8.617139 -8.786252
vt -8.617139 -8.786252
vt -7.709485 -10.82891
vt -7.709485 -10.82891
vt -9.247596 -9.559868
vt -9.247596 -9.559868
vt -8.367456 -11.61627
vt -8.367456 -11.61627
vt -9.889404 -10.32792
vt -9.889404 -10.32792
vt -9.037183 -12.3969
vt -9.037183 -12.3969
vt -10.5418 -11.0884
vt -10.5418 -11.0884
vt -9.717834 -13.16856
vt -9.717834 -13.16856
vt -11.2038 -11.83899
vt -11.2038 -11.83899
vt -10.40862 -13.92917
vt -10.40862 -13.92917
vt -11.87449 -12.57753
vt -11.87449 -12.57753
vt -11.10884 -14.6766
vt -11.10884 -14.6766
vt -12.55293 -13.30181
vt -12.55293 -13.30181
vt -11.81761 -15.40864
vt -11.81761 -15.40864
vt -13.23805 -14.00952
vt -13.23805 -14.00952
vt -12.55394 -16.14245
vt -12.55394 -16.14245
vt -13.94789 -14.71702
vt -13.94789 -14.71702
vt -13.2978 -16.85551
vt -13.2978 -16.85551
vt -14.6627 -15.40235
vt -14.6627 -15.40235
vt -14.04855 -17.54563
vt -14.04855 -17.54563
vt -15.38148 -16.06321
vt -15.38148 -16.06321
vt -14.82553 -18.22767
vt -14.82553 -18.22767
vt -16.12221 -16.71356
vt -16.12221 -16.71356
vt -15.62836 -18.89692
vt -15.62836 -18.89692
vt -16.88366 -17.34847
vt -16.88366 -17.34847
vt -16.43649 -19.53282
vt -16.43649 -19.53282
vt -17.64552 -17.94811
vt -17.64552 -17.94811
vt -17.26976 -20.14728
vt -17.26976 -20.14728
vt -18.42548 -18.52342
vt -18.42548 -18.52342
vt -18.12766 -20.73431
vt -18.12766 -20.73431
vt -19.22153 -19.06831
vt -19.22153 -19.06831
vt -19.00997 -21.28756
vt -19.00997 -21.28756
vt -20.03173 -19.57652
vt -20.03173 -19.57652

usemtl GSDRoad1
usemap GSDRoad1
f 5/5/5 1/1/1 3/3/3
f 7/7/7 5/5/5 3/3/3
f 9/9/9 5/5/5 7/7/7
f 11/11/11 9/9/9 7/7/7
f 13/13/13 9/9/9 11/11/11
f 15/15/15 13/13/13 11/11/11
f 17/17/17 13/13/13 15/15/15
f 19/19/19 17/17/17 15/15/15
f 21/21/21 17/17/17 19/19/19
f 23/23/23 21/21/21 19/19/19
f 25/25/25 21/21/21 23/23/23
f 27/27/27 25/25/25 23/23/23
f 29/29/29 25/25/25 27/27/27
f 31/31/31 29/29/29 27/27/27
f 33/33/33 29/29/29 31/31/31
f 35/35/35 33/33/33 31/31/31
f 37/37/37 33/33/33 35/35/35
f 39/39/39 37/37/37 35/35/35
f 41/41/41 37/37/37 39/39/39
f 43/43/43 41/41/41 39/39/39
f 45/45/45 41/41/41 43/43/43
f 47/47/47 45/45/45 43/43/43
f 49/49/49 45/45/45 47/47/47
f 51/51/51 49/49/49 47/47/47
f 53/53/53 49/49/49 51/51/51
f 55/55/55 53/53/53 51/51/51
f 57/57/57 53/53/53 55/55/55
f 59/59/59 57/57/57 55/55/55
f 61/61/61 57/57/57 59/59/59
f 63/63/63 61/61/61 59/59/59
f 65/65/65 61/61/61 63/63/63
f 67/67/67 65/65/65 63/63/63
f 69/69/69 65/65/65 67/67/67
f 71/71/71 69/69/69 67/67/67
f 73/73/73 69/69/69 71/71/71
f 75/75/75 73/73/73 71/71/71
f 77/77/77 73/73/73 75/75/75
f 79/79/79 77/77/77 75/75/75
f 81/81/81 77/77/77 79/79/79
f 83/83/83 81/81/81 79/79/79
f 85/85/85 81/81/81 83/83/83
f 87/87/87 85/85/85 83/83/83
f 89/89/89 85/85/85 87/87/87
f 91/91/91 89/89/89 87/87/87
f 93/93/93 89/89/89 91/91/91
f 95/95/95 93/93/93 91/91/91
f 97/97/97 93/93/93 95/95/95
f 99/99/99 97/97/97 95/95/95
f 101/101/101 97/97/97 99/99/99
f 103/103/103 101/101/101 99/99/99
f 105/105/105 101/101/101 103/103/103
f 107/107/107 105/105/105 103/103/103
f 109/109/109 105/105/105 107/107/107
f 111/111/111 109/109/109 107/107/107
f 113/113/113 109/109/109 111/111/111
f 115/115/115 113/113/113 111/111/111
