mtllib ./Road1_0_177.mtl
g SCutR38
v -748.2236 6.053186 852.2006
v -748.2236 6.053186 852.2006
v -748.8027 6.053186 849.1608
v -748.8027 6.053186 849.1608
v -748.8027 6.053186 849.1608
v -748.8027 6.053186 849.1608
v -749.1815 4.397124 847.1731
v -749.1815 4.397124 847.1731
v -753.3901 5.95215 853.2112
v -753.3901 5.95215 853.2112
v -754.0226 5.95215 850.15
v -754.0226 5.95215 850.15
v -754.0226 5.95215 850.15
v -754.0226 5.95215 850.15
v -754.4336 4.016432 848.1609
v -754.4336 4.016432 848.1609
v -758.4003 5.813162 854.3104
v -758.4003 5.813162 854.3104
v -759.1147 5.813162 851.2333
v -759.1147 5.813162 851.2333
v -759.1147 5.813162 851.2333
v -759.1147 5.813162 851.2333
v -759.5759 4.016432 849.247
v -759.5759 4.016432 849.247
v -763.5461 5.619736 855.5812
v -763.5461 5.619736 855.5812
v -764.3536 5.619736 852.4933
v -764.3536 5.619736 852.4933
v -764.3536 5.619736 852.4933
v -764.3536 5.619736 852.4933
v -764.8715 3.54157 850.5131
v -764.8715 3.54157 850.5131
v -768.5391 5.373588 856.9675
v -768.5391 5.373588 856.9675
v -769.4446 5.373588 853.8758
v -769.4446 5.373588 853.8758
v -769.4446 5.373588 853.8758
v -769.4446 5.373588 853.8758
v -770.0219 3.073637 851.9051
v -770.0219 3.073637 851.9051
v -773.4689 5.062663 858.4968
v -773.4689 5.062663 858.4968
v -774.4751 5.062663 855.4088
v -774.4751 5.062663 855.4088
v -774.4751 5.062663 855.4088
v -774.4751 5.062663 855.4088
v -775.113 2.47802 853.4511
v -775.113 2.47802 853.4511
v -778.3679 4.67313 860.1788
v -778.3679 4.67313 860.1788
v -779.4683 4.67313 857.1005
v -779.4683 4.67313 857.1005
v -779.4683 4.67313 857.1005
v -779.4683 4.67313 857.1005
v -780.1627 1.985616 855.1582
v -780.1627 1.985616 855.1582
v -783.2231 4.192178 861.9846
v -783.2231 4.192178 861.9846
v -784.3895 4.192178 858.9158
v -784.3895 4.192178 858.9158
v -784.3895 4.192178 858.9158
v -784.3895 4.192178 858.9158
v -785.1229 1.608963 856.9865
v -785.1229 1.608963 856.9865
v -787.906 3.62499 863.7824
v -787.906 3.62499 863.7824
v -789.0659 3.62499 860.7076
v -789.0659 3.62499 860.7076
v -789.0659 3.62499 860.7076
v -789.0659 3.62499 860.7076
v -789.7939 1.163877 858.778
v -789.7939 1.163877 858.778
v -792.3625 2.989573 865.3794
v -792.3625 2.989573 865.3794
v -793.3766 2.989573 862.2627
v -793.3766 2.989573 862.2627
v -793.3766 2.989573 862.2627
v -793.3766 2.989573 862.2627
v -794.0136 0.9840465 860.3052
v -794.0136 0.9840465 860.3052
v -796.6783 2.320795 866.5504
v -796.6783 2.320795 866.5504
v -797.3377 2.320795 863.361
v -797.3377 2.320795 863.361
v -797.3377 2.320795 863.361
v -797.3377 2.320795 863.361
v -797.7535 0.618382 861.3497
v -797.7535 0.618382 861.3497
v -800.8586 1.723461 867.0742
v -800.8586 1.723461 867.0742
v -801.0133 1.723461 863.8531
v -801.0133 1.723461 863.8531
v -801.0133 1.723461 863.8531
v -801.0133 1.723461 863.8531
v -801.1116 0.618382 861.8063
v -801.1116 0.618382 861.8063
v -805.166 1.269826 866.933
v -805.166 1.269826 866.933
v -804.8489 1.269826 863.7692
v -804.8489 1.269826 863.7692
v -804.8489 1.269826 863.7692
v -804.8489 1.269826 863.7692
v -804.6453 0.4420867 861.7379
v -804.6453 0.4420867 861.7379

vn -0.01884961 0.9998159 0.003591357
vn 0 0 0
vn -0.0187353 0.9998175 0.003720858
vn 0 0 0
vn -0.1323603 0.7737907 -0.6194584
vn 0 0 0
vn -0.1561447 0.7482401 -0.6447912
vn 0 0 0
vn -0.02128934 0.9997641 0.004297801
vn 0 0 0
vn -0.0236776 0.9997065 0.00511482
vn 0 0 0
vn -0.1582851 0.7401025 -0.6536008
vn 0 0 0
vn -0.1593775 0.7324095 -0.661948
vn 0 0 0
vn -0.02941423 0.9995455 0.006608292
vn 0 0 0
vn -0.03214149 0.9994528 0.007810012
vn 0 0 0
vn -0.1601916 0.7414715 -0.6515817
vn 0 0 0
vn -0.1824701 0.7334421 -0.6548033
vn 0 0 0
vn -0.03865377 0.999205 0.00976285
vn 0 0 0
vn -0.04172393 0.9990643 0.01138208
vn 0 0 0
vn -0.2086431 0.7170849 -0.6650242
vn 0 0 0
vn -0.2315785 0.6889846 -0.6867837
vn 0 0 0
vn -0.04942836 0.9986795 0.01400292
vn 0 0 0
vn -0.05283277 0.9984737 0.0160981
vn 0 0 0
vn -0.2417545 0.6770305 -0.6951147
vn 0 0 0
vn -0.2670176 0.6505281 -0.7109957
vn 0 0 0
vn -0.061709 0.997904 0.01948239
vn 0 0 0
vn -0.06559905 0.9976009 0.02211581
vn 0 0 0
vn -0.2816113 0.636067 -0.7184106
vn 0 0 0
vn -0.2982154 0.617467 -0.7278751
vn 0 0 0
vn -0.07590181 0.996766 0.02639042
vn 0 0 0
vn -0.08057302 0.9963135 0.02945107
vn 0 0 0
vn -0.3093177 0.6126685 -0.7272963
vn 0 0 0
vn -0.3149451 0.6132058 -0.7244226
vn 0 0 0
vn -0.09233769 0.9951319 0.03443885
vn 0 0 0
vn -0.09837474 0.9944504 0.03729232
vn 0 0 0
vn -0.3273301 0.617956 -0.7148324
vn 0 0 0
vn -0.3276361 0.6290509 -0.7049465
vn 0 0 0
vn -0.1113777 0.9928853 0.04211728
vn 0 0 0
vn -0.1197664 0.9918699 0.0430147
vn 0 0 0
vn -0.3381208 0.6344397 -0.6950975
vn 0 0 0
vn -0.3143155 0.6636077 -0.678845
vn 0 0 0
vn -0.1318367 0.990244 0.0451177
vn 0 0 0
vn -0.1425145 0.9889616 0.0405537
vn 0 0 0
vn -0.3036531 0.6878065 -0.6593307
vn 0 0 0
vn -0.2687186 0.7298938 -0.6285262
vn 0 0 0
vn -0.1452591 0.9887421 0.03589836
vn 0 0 0
vn -0.1512647 0.9882133 0.02352403
vn 0 0 0
vn -0.2511484 0.747623 -0.6148043
vn 0 0 0
vn -0.1805615 0.8023215 -0.5689268
vn 0 0 0
vn -0.132914 0.9910291 0.013979
vn 0 0 0
vn -0.1260755 0.9920205 0.0004885917
vn 0 0 0
vn -0.1272867 0.8421103 -0.5240691
vn 0 0 0
vn -0.06687772 0.8942192 -0.4426052
vn 0 0 0
vn -0.1106553 0.9938549 -0.00281586
vn 0 0 0
vn -0.1171903 0.99304 -0.01174729
vn 0 0 0
vn -0.06814729 0.9008649 -0.428717
vn 0 0 0
vn -0.03873344 0.9240118 -0.380397
vn 0 0 0

vt 0 0
vt 0 0
vt 0.1158325 -0.607959
vt 0.1158325 -0.607959
vt 0.1158325 -0.607959
vt 0.1158325 -0.607959
vt 0.1915772 -1.005505
vt 0.1915772 -1.005505
vt 1.033313 0.2021118
vt 1.033313 0.2021118
vt 1.159814 -0.4101318
vt 1.159814 -0.4101318
vt 1.159814 -0.4101318
vt 1.159814 -0.4101318
vt 1.242004 -0.8079468
vt 1.242004 -0.8079468
vt 2.035352 0.4219604
vt 2.035352 0.4219604
vt 2.178235 -0.1934692
vt 2.178235 -0.1934692
vt 2.178235 -0.1934692
vt 2.178235 -0.1934692
vt 2.270471 -0.5907227
vt 2.270471 -0.5907227
vt 3.064502 0.6761231
vt 3.064502 0.6761231
vt 3.226013 0.05853271
vt 3.226013 0.05853271
vt 3.226013 0.05853271
vt 3.226013 0.05853271
vt 3.32959 -0.3375
vt 3.32959 -0.3375
vt 4.063098 0.9533691
vt 4.063098 0.9533691
vt 4.244214 0.3350342
vt 4.244214 0.3350342
vt 4.244214 0.3350342
vt 4.244214 0.3350342
vt 4.359668 -0.05910645
vt 4.359668 -0.05910645
vt 5.04906 1.259229
vt 5.04906 1.259229
vt 5.250305 0.641626
vt 5.250305 0.641626
vt 5.250305 0.641626
vt 5.250305 0.641626
vt 5.377881 0.2500977
vt 5.377881 0.2500977
vt 6.028858 1.59563
vt 6.028858 1.59563
vt 6.24895 0.9799805
vt 6.24895 0.9799805
vt 6.24895 0.9799805
vt 6.24895 0.9799805
vt 6.387817 0.5915161
vt 6.387817 0.5915161
vt 6.999902 1.956787
vt 6.999902 1.956787
vt 7.233179 1.343042
vt 7.233179 1.343042
vt 7.233179 1.343042
vt 7.233179 1.343042
vt 7.379858 0.9571778
vt 7.379858 0.9571778
vt 7.936487 2.316357
vt 7.936487 2.316357
vt 8.168469 1.701404
vt 8.168469 1.701404
vt 8.168469 1.701404
vt 8.168469 1.701404
vt 8.314063 1.315466
vt 8.314063 1.315466
vt 8.827784 2.635754
vt 8.827784 2.635754
vt 9.030616 2.012415
vt 9.030616 2.012415
vt 9.030616 2.012415
vt 9.030616 2.012415
vt 9.158008 1.620923
vt 9.158008 1.620923
vt 9.690955 2.869959
vt 9.690955 2.869959
vt 9.822827 2.23208
vt 9.822827 2.23208
vt 9.822827 2.23208
vt 9.822827 2.23208
vt 9.905982 1.829822
vt 9.905982 1.829822
vt 10.52701 2.974707
vt 10.52701 2.974707
vt 10.55795 2.330493
vt 10.55795 2.330493
vt 10.55795 2.330493
vt 10.55795 2.330493
vt 10.5776 1.92113
vt 10.5776 1.92113
vt 11.38849 2.946472
vt 11.38849 2.946472
vt 11.32506 2.313721
vt 11.32506 2.313721
vt 11.32506 2.313721
vt 11.32506 2.313721
vt 11.28434 1.907446
vt 11.28434 1.907446

usemtl GSDShoulder1
usemap GSDShoulder1
f 9/9/9 1/1/1 3/3/3
f 11/11/11 9/9/9 3/3/3
f 13/13/13 5/5/5 7/7/7
f 15/15/15 13/13/13 7/7/7
f 17/17/17 9/9/9 11/11/11
f 19/19/19 17/17/17 11/11/11
f 21/21/21 13/13/13 15/15/15
f 23/23/23 21/21/21 15/15/15
f 25/25/25 17/17/17 19/19/19
f 27/27/27 25/25/25 19/19/19
f 29/29/29 21/21/21 23/23/23
f 31/31/31 29/29/29 23/23/23
f 33/33/33 25/25/25 27/27/27
f 35/35/35 33/33/33 27/27/27
f 37/37/37 29/29/29 31/31/31
f 39/39/39 37/37/37 31/31/31
f 41/41/41 33/33/33 35/35/35
f 43/43/43 41/41/41 35/35/35
f 45/45/45 37/37/37 39/39/39
f 47/47/47 45/45/45 39/39/39
f 49/49/49 41/41/41 43/43/43
f 51/51/51 49/49/49 43/43/43
f 53/53/53 45/45/45 47/47/47
f 55/55/55 53/53/53 47/47/47
f 57/57/57 49/49/49 51/51/51
f 59/59/59 57/57/57 51/51/51
f 61/61/61 53/53/53 55/55/55
f 63/63/63 61/61/61 55/55/55
f 65/65/65 57/57/57 59/59/59
f 67/67/67 65/65/65 59/59/59
f 69/69/69 61/61/61 63/63/63
f 71/71/71 69/69/69 63/63/63
f 73/73/73 65/65/65 67/67/67
f 75/75/75 73/73/73 67/67/67
f 77/77/77 69/69/69 71/71/71
f 79/79/79 77/77/77 71/71/71
f 81/81/81 73/73/73 75/75/75
f 83/83/83 81/81/81 75/75/75
f 85/85/85 77/77/77 79/79/79
f 87/87/87 85/85/85 79/79/79
f 89/89/89 81/81/81 83/83/83
f 91/91/91 89/89/89 83/83/83
f 93/93/93 85/85/85 87/87/87
f 95/95/95 93/93/93 87/87/87
f 97/97/97 89/89/89 91/91/91
f 99/99/99 97/97/97 91/91/91
f 101/101/101 93/93/93 95/95/95
f 103/103/103 101/101/101 95/95/95
