mtllib ./Road1_0_35.mtl
g Markers17
v -587.6735 29.37849 40.92161
v -587.6735 29.37849 40.92161
v -586.6605 29.37849 50.83816
v -586.6605 29.37849 50.83816
v -582.6257 28.97036 40.39588
v -582.6257 28.97036 40.39588
v -581.5602 28.97036 50.30693
v -581.5602 28.97036 50.30693
v -577.6379 28.56683 39.84558
v -577.6379 28.56683 39.84558
v -576.5206 28.56683 49.75092
v -576.5206 28.56683 49.75092
v -572.6138 28.16105 39.27008
v -572.6138 28.16105 39.27008
v -571.4659 28.16105 49.17192
v -571.4659 28.16105 49.17192
v -567.6639 27.76203 38.693
v -567.6639 27.76203 38.693
v -566.5065 27.76203 48.59373
v -566.5065 27.76203 48.59373
v -562.6541 27.35896 38.10911
v -562.6541 27.35896 38.10911
v -561.5067 27.35896 48.01102
v -561.5067 27.35896 48.01102
v -557.572 26.95092 37.52702
v -557.572 26.95092 37.52702
v -556.4537 26.95092 47.43224
v -556.4537 26.95092 47.43224
v -552.5356 26.54737 36.96946
v -552.5356 26.54737 36.96946
v -551.4628 26.54737 46.87972
v -551.4628 26.54737 46.87972
v -547.5407 26.14797 36.4435
v -547.5407 26.14797 36.4435
v -546.5279 26.14797 46.36007
v -546.5279 26.14797 46.36007

vn 0.07974328 0.9967821 -0.008145486
vn 0 0 0
vn 0.07931156 0.9968152 -0.008313595
vn 0 0 0
vn 0.07943928 0.9968044 -0.008397326
vn 0 0 0
vn 0.07913757 0.9968263 -0.008646434
vn 0 0 0
vn 0.07933788 0.9968088 -0.008809263
vn 0 0 0
vn 0.07909708 0.9968262 -0.009004816
vn 0 0 0
vn 0.07924573 0.9968135 -0.009103917
vn 0 0 0
vn 0.07912678 0.9968221 -0.009198958
vn 0 0 0
vn 0.07917633 0.996818 -0.009230674
vn 0 0 0
vn 0.07917804 0.9968178 -0.009229046
vn 0 0 0
vn 0.07913138 0.9968218 -0.009196232
vn 0 0 0
vn 0.0792466 0.9968134 -0.009103501
vn 0 0 0
vn 0.07911365 0.9968249 -0.009010466
vn 0 0 0
vn 0.07933155 0.9968091 -0.008833825
vn 0 0 0
vn 0.07911414 0.9968277 -0.008686906
vn 0 0 0
vn 0.07942221 0.9968054 -0.008435854
vn 0 0 0
vn 0.07931086 0.996815 -0.008342658
vn 0 0 0
vn 0.07981478 0.9967763 -0.008151795
vn 0 0 0

vt 0 314.5723
vt 0 0
vt 1 314.5723
vt 0 0
vt 0 315.5906
vt 0 315.5906
vt 1 315.5906
vt 1 315.5906
vt 0 316.5974
vt 0 316.5974
vt 1 316.5974
vt 1 316.5974
vt 0 317.6121
vt 0 317.6121
vt 1 317.6121
vt 1 317.6121
vt 0 318.6119
vt 0 318.6119
vt 1 318.6119
vt 1 318.6119
vt 0 319.6239
vt 0 319.6239
vt 1 319.6239
vt 1 319.6239
vt 0 320.6502
vt 0 320.6502
vt 1 320.6502
vt 1 320.6502
vt 0 321.6668
vt 0 321.6668
vt 1 321.6668
vt 1 321.6668
vt 0 322.6745
vt 0 322.6745
vt 1 322.6745
vt 1 322.6745

usemtl GSDWhiteYellowDouble
usemap GSDWhiteYellowDouble
f 5/5/5 1/1/1 3/3/3
f 7/7/7 5/5/5 3/3/3
f 9/9/9 5/5/5 7/7/7
f 11/11/11 9/9/9 7/7/7
f 13/13/13 9/9/9 11/11/11
f 15/15/15 13/13/13 11/11/11
f 17/17/17 13/13/13 15/15/15
f 19/19/19 17/17/17 15/15/15
f 21/21/21 17/17/17 19/19/19
f 23/23/23 21/21/21 19/19/19
f 25/25/25 21/21/21 23/23/23
f 27/27/27 25/25/25 23/23/23
f 29/29/29 25/25/25 27/27/27
f 31/31/31 29/29/29 27/27/27
f 33/33/33 29/29/29 31/31/31
f 35/35/35 33/33/33 31/31/31
