mtllib ./Road1_0_109.mtl
g Markers54
v -574.1937 33.2322 734.4104
v -574.1937 33.2322 734.4104
v -574.4381 33.2322 744.39
v -574.4381 33.2322 744.39
v -569.0411 33.50459 734.6083
v -569.0411 33.50459 734.6083
v -569.5807 33.50459 744.5809
v -569.5807 33.50459 744.5809
v -563.9363 33.74308 734.9476
v -563.9363 33.74308 734.9476
v -564.7131 33.74308 744.9074
v -564.7131 33.74308 744.9074
v -558.8231 33.9537 735.3884
v -558.8231 33.9537 735.3884
v -559.7541 33.9537 745.3374
v -559.7541 33.9537 745.3374
v -553.702 34.13727 735.8895
v -553.702 34.13727 735.8895
v -554.7081 34.13727 745.8333
v -554.7081 34.13727 745.8333
v -548.7029 34.29098 736.3973
v -548.7029 34.29098 736.3973
v -549.7081 34.29098 746.3428
v -549.7081 34.29098 746.3428
v -543.7004 34.42047 736.887
v -543.7004 34.42047 736.887
v -544.6337 34.42047 746.8406
v -544.6337 34.42047 746.8406
v -538.696 34.52652 737.3227
v -538.696 34.52652 737.3227
v -539.4871 34.52652 747.2896
v -539.4871 34.52652 747.2896
v -533.6927 34.60986 737.6689
v -533.6927 34.60986 737.6689
v -534.2719 34.60986 747.6511
v -534.2719 34.60986 747.6511

vn -0.0527419 0.9986074 -0.001291565
vn 0 0 0
vn -0.05426086 0.9985244 -0.002131952
vn 0 0 0
vn -0.05163844 0.9986633 -0.002261761
vn 0 0 0
vn -0.05028496 0.9987301 -0.003102478
vn 0 0 0
vn -0.045299 0.9989685 -0.003157158
vn 0 0 0
vn -0.04382376 0.9990327 -0.003635673
vn 0 0 0
vn -0.03946103 0.9992151 -0.003478337
vn 0 0 0
vn -0.0378251 0.9992777 -0.003630986
vn 0 0 0
vn -0.03398957 0.9994165 -0.003347992
vn 0 0 0
vn -0.03228824 0.9994732 -0.003265872
vn 0 0 0
vn -0.02881914 0.9995804 -0.002913983
vn 0 0 0
vn -0.02709624 0.9996291 -0.002676532
vn 0 0 0
vn -0.02397897 0.9997098 -0.002310433
vn 0 0 0
vn -0.02224936 0.9997505 -0.001986531
vn 0 0 0
vn -0.01935871 0.9998112 -0.00163632
vn 0 0 0
vn -0.01765029 0.9998435 -0.001285587
vn 0 0 0
vn -0.01623289 0.9998676 -0.001114985
vn 0 0 0
vn -0.015915 0.9998729 -0.0009234805
vn 0 0 0

vt 0 825.168
vt 0 0
vt 1 825.168
vt 0 0
vt 0 826.2007
vt 0 826.2007
vt 1 826.2007
vt 1 826.2007
vt 0 827.225
vt 0 827.225
vt 1 827.225
vt 1 827.225
vt 0 828.2523
vt 0 828.2523
vt 1 828.2523
vt 1 828.2523
vt 0 829.282
vt 0 829.282
vt 1 829.282
vt 1 829.282
vt 0 830.2875
vt 0 830.2875
vt 1 830.2875
vt 1 830.2875
vt 0 831.2931
vt 0 831.2931
vt 1 831.2931
vt 1 831.2931
vt 0 832.298
vt 0 832.298
vt 1 832.298
vt 1 832.298
vt 0 833.3011
vt 0 833.3011
vt 1 833.3011
vt 1 833.3011

usemtl GSDWhiteYellowDouble
usemap GSDWhiteYellowDouble
f 5/5/5 1/1/1 3/3/3
f 7/7/7 5/5/5 3/3/3
f 9/9/9 5/5/5 7/7/7
f 11/11/11 9/9/9 7/7/7
f 13/13/13 9/9/9 11/11/11
f 15/15/15 13/13/13 11/11/11
f 17/17/17 13/13/13 15/15/15
f 19/19/19 17/17/17 15/15/15
f 21/21/21 17/17/17 19/19/19
f 23/23/23 21/21/21 19/19/19
f 25/25/25 21/21/21 23/23/23
f 27/27/27 25/25/25 23/23/23
f 29/29/29 25/25/25 27/27/27
f 31/31/31 29/29/29 27/27/27
f 33/33/33 29/29/29 31/31/31
f 35/35/35 33/33/33 31/31/31
