mtllib ./Road1_0_70.mtl
g RoadCut35
v -286.2578 0.02973747 847.1281
v -286.2578 0.02973747 847.1281
v -286.7849 0.02973747 837.142
v -286.7849 0.02973747 837.142
v -291.2541 0.02928868 847.3954
v -291.2541 0.02928868 847.3954
v -291.8105 0.02928868 837.4109
v -291.8105 0.02928868 837.4109
v -296.2596 0.02417259 847.6854
v -296.2596 0.02417259 847.6854
v -296.8593 0.02417259 837.7035
v -296.8593 0.02417259 837.7035
v -301.3411 0.01479916 848.0005
v -301.3411 0.01479916 848.0005
v -301.9777 0.01479916 838.0208
v -301.9777 0.01479916 838.0208
v -306.3701 0.002037905 848.329
v -306.3701 0.002037905 848.329
v -307.0368 0.002037905 838.3514
v -307.0368 0.002037905 838.3514
v -311.4606 0 848.6758
v -311.4606 0 848.6758
v -312.1519 0 838.6997
v -312.1519 0 838.6997
v -316.4813 0 849.0287
v -316.4813 0 849.0287
v -317.1916 0 839.054
v -317.1916 0 839.054
v -321.5508 0 849.3936
v -321.5508 0 849.3936
v -322.2754 0 839.4199
v -322.2754 0 839.4199
v -326.5362 0 849.7582
v -326.5362 0 849.7582
v -327.2702 0 839.7853
v -327.2702 0 839.7853
v -331.5581 0 850.1294
v -331.5581 0 850.1294
v -332.2973 0 840.1569
v -332.2973 0 840.1569
v -336.6133 0 850.5045
v -336.6133 0 850.5045
v -337.3535 0 840.5321
v -337.3535 0 840.5321
v -341.6959 0 850.8812
v -341.6959 0 850.8812
v -342.4332 0 840.9085
v -342.4332 0 840.9085
v -346.8026 0 851.2571
v -346.8026 0 851.2571
v -347.5329 0 841.284
v -347.5329 0 841.284
v -351.7967 0 851.6202
v -351.7967 0 851.6202
v -352.5162 0 841.6462
v -352.5162 0 841.6462
v -356.8048 0 851.978
v -356.8048 0 851.978
v -357.5099 0 842.0031
v -357.5099 0 842.0031
v -361.8229 0 852.3283
v -361.8229 0 852.3283
v -362.5097 0 842.352
v -362.5097 0 842.352
v -366.847 0 852.6687
v -366.847 0 852.6687
v -367.5116 0 842.6909
v -367.5116 0 842.6909
v -371.8725 0 852.9971
v -371.8725 0 852.9971
v -372.5111 0 843.0176
v -372.5111 0 843.0176
v -376.8953 0 853.3111
v -376.8953 0 853.3111
v -377.5038 0 843.3297
v -377.5038 0 843.3297
v -381.9119 0 853.6085
v -381.9119 0 853.6085
v -382.4863 0 843.625
v -382.4863 0 843.625
v -387.0496 0 853.8942
v -387.0496 0 853.8942
v -387.5847 0 843.9085
v -387.5847 0 843.9085
v -392.1712 0 854.1575
v -392.1712 0 854.1575
v -392.6624 0 844.1696
v -392.6624 0 844.1696
v -397.2732 0 854.3961
v -397.2732 0 854.3961
v -397.7156 0 844.4059
v -397.7156 0 844.4059
v -402.3506 0 854.6076
v -402.3506 0 854.6076
v -402.7394 0 844.6152
v -402.7394 0 844.6152
v -407.3997 0 854.7894
v -407.3997 0 854.7894
v -407.7297 0 844.7949
v -407.7297 0 844.7949
v -412.5438 0 854.9424
v -412.5438 0 854.9424
v -412.8078 0 844.946
v -412.8078 0 844.946
v -417.6484 0 855.0593
v -417.6484 0 855.0593
v -417.8404 0 845.0612
v -417.8404 0 845.0612
v -422.7093 0 855.1367
v -422.7093 0 855.1367
v -422.8228 0 845.1376
v -422.8228 0 845.1376
v -427.8455 0 855.1729
v -427.8455 0 855.1729
v -427.8715 0 845.1732
v -427.8715 0 845.1732
v -432.9257 0 855.1621
v -432.9257 0 855.1621
v -432.8563 0 845.1628
v -432.8563 0 845.1628
v -438.067 0 855.0995
v -438.067 0 855.0995
v -437.8916 0 845.1017
v -437.8916 0 845.1017
v -443.139 0 854.9814
v -443.139 0 854.9814
v -442.8481 0 844.9867
v -442.8481 0 844.9867
v -448.2541 0.07519178 854.8
v -448.2541 0.07519178 854.8
v -447.8344 0.07519178 844.8101
v -447.8344 0.07519178 844.8101

vn -8.957226E-05 1 4.727382E-06
vn 0 0 0
vn -8.930283E-05 0.9999999 4.844817E-06
vn 0 0 0
vn -0.000398961 0.9999999 2.214471E-05
vn 0 0 0
vn -0.000705979 0.9999998 4.081205E-05
vn 0 0 0
vn -0.001290792 0.9999992 7.607975E-05
vn 0 0 0
vn -0.001559098 0.9999988 9.593379E-05
vn 0 0 0
vn -0.002060818 0.9999978 0.0001291716
vn 0 0 0
vn -0.002285274 0.9999974 0.0001482923
vn 0 0 0
vn -0.001807906 0.9999984 0.0001182536
vn 0 0 0
vn -0.001098057 0.9999994 7.369312E-05
vn 0 0 0
vn -0.0002664349 0.9999999 1.813167E-05
vn 0 0 0
vn -0.0001336444 1 9.260784E-06
vn 0 0 0
vn 0 1 0
vn 0 0 0
vn 0 1 0
vn 0 0 0
vn 0 1 0
vn 0 0 0
vn 0 1 0
vn 0 0 0
vn 0 1 0
vn 0 0 0
vn 0 1 0
vn 0 0 0
vn 0 1 0
vn 0 0 0
vn 0 1 0
vn 0 0 0
vn 0 1 0
vn 0 0 0
vn 0 1 0
vn 0 0 0
vn 0 1 0
vn 0 0 0
vn 0 1 0
vn 0 0 0
vn 0 1 0
vn 0 0 0
vn 0 1 0
vn 0 0 0
vn 0 1 0
vn 0 0 0
vn 0 1 0
vn 0 0 0
vn 0 1 0
vn 0 0 0
vn 0 1 0
vn 0 0 0
vn 0 1 0
vn 0 0 0
vn 0 1 0
vn 0 0 0
vn 0 1 0
vn 0 0 0
vn 0 1 0
vn 0 0 0
vn 0 1 0
vn 0 0 0
vn 0 1 0
vn 0 0 0
vn 0 1 0
vn 0 0 0
vn 0 1 0
vn 0 0 0
vn 0 1 0
vn 0 0 0
vn 0 1 0
vn 0 0 0
vn 0 1 0
vn 0 0 0
vn 0 1 0
vn 0 0 0
vn 0 1 0
vn 0 0 0
vn 0 1 0
vn 0 0 0
vn 0 1 0
vn 0 0 0
vn 0 1 0
vn 0 0 0
vn 0 1 0
vn 0 0 0
vn 0 1 0
vn 0 0 0
vn 0 1 0
vn 0 0 0
vn 0 1 0
vn 0 0 0
vn 0 1 0
vn 0 0 0
vn 0 0.9999999 0
vn 0 0 0
vn 0 1 0
vn 0 0 0
vn 0 1 0
vn 0 0 0
vn 0 1 0
vn 0 0 0
vn 0 1 0
vn 0 0 0
vn 0 1 0
vn 0 0 0
vn 0 1 0
vn 0 0 0
vn 0 1 0
vn 0 0 0
vn 0 1 0
vn 0 0 0
vn 0 1 0
vn 0 0 0
vn 0 1 0
vn 0 0 0
vn 0.00496118 0.9999877 0.0001444236
vn 0 0 0
vn 0.009975033 0.9999502 0.0003547018
vn 0 0 0
vn 0.01486695 0.9998893 0.0005286534
vn 0 0 0
vn 0.01505539 0.9998865 0.0006324819
vn 0 0 0

vt 0 0
vt 0 0
vt 0.1054077 -1.997217
vt 0.1054077 -1.997217
vt 0.9992554 0.05345459
vt 0.9992554 0.05345459
vt 1.110535 -1.943445
vt 1.110535 -1.943445
vt 2.000366 0.1114624
vt 2.000366 0.1114624
vt 2.1203 -1.884924
vt 2.1203 -1.884924
vt 3.016663 0.1744751
vt 3.016663 0.1744751
vt 3.14397 -1.821472
vt 3.14397 -1.821472
vt 4.022467 0.2401855
vt 4.022467 0.2401855
vt 4.155792 -1.755347
vt 4.155792 -1.755347
vt 5.040552 0.3095337
vt 5.040552 0.3095337
vt 5.178809 -1.685681
vt 5.178809 -1.685681
vt 6.044696 0.380127
vt 6.044696 0.380127
vt 6.186761 -1.614819
vt 6.186761 -1.614819
vt 7.0586 0.4530884
vt 7.0586 0.4530884
vt 7.20351 -1.541638
vt 7.20351 -1.541638
vt 8.055671 0.5260132
vt 8.055671 0.5260132
vt 8.202472 -1.468567
vt 8.202472 -1.468567
vt 9.060065 0.6002564
vt 9.060065 0.6002564
vt 9.207904 -1.394251
vt 9.207904 -1.394251
vt 10.07109 0.6752807
vt 10.07109 0.6752807
vt 10.21915 -1.319202
vt 10.21915 -1.319202
vt 11.08762 0.7506104
vt 11.08762 0.7506104
vt 11.23508 -1.243921
vt 11.23508 -1.243921
vt 12.10895 0.8258057
vt 12.10895 0.8258057
vt 12.25501 -1.168823
vt 12.25501 -1.168823
vt 13.10778 0.8984253
vt 13.10778 0.8984253
vt 13.25169 -1.096375
vt 13.25169 -1.096375
vt 14.10941 0.9699829
vt 14.10941 0.9699829
vt 14.25042 -1.025012
vt 14.25042 -1.025012
vt 15.11302 1.040039
vt 15.11302 1.040039
vt 15.25038 -0.9552246
vt 15.25038 -0.9552246
vt 16.11784 1.108118
vt 16.11784 1.108118
vt 16.25076 -0.887439
vt 16.25076 -0.887439
vt 17.12294 1.173792
vt 17.12294 1.173792
vt 17.25065 -0.822107
vt 17.25065 -0.822107
vt 18.1275 1.236597
vt 18.1275 1.236597
vt 18.24921 -0.7596924
vt 18.24921 -0.7596924
vt 19.13082 1.296082
vt 19.13082 1.296082
vt 19.2457 -0.7006226
vt 19.2457 -0.7006226
vt 20.15836 1.353223
vt 20.15836 1.353223
vt 20.26537 -0.6439209
vt 20.26537 -0.6439209
vt 21.18268 1.405872
vt 21.18268 1.405872
vt 21.28091 -0.5917115
vt 21.28091 -0.5917115
vt 22.20308 1.453601
vt 22.20308 1.453601
vt 22.29156 -0.5444458
vt 22.29156 -0.5444458
vt 23.21856 1.495898
vt 23.21856 1.495898
vt 23.29631 -0.5025879
vt 23.29631 -0.5025879
vt 24.22838 1.532251
vt 24.22838 1.532251
vt 24.29439 -0.4666504
vt 24.29439 -0.4666504
vt 25.2572 1.562866
vt 25.2572 1.562866
vt 25.31 -0.4364258
vt 25.31 -0.4364258
vt 26.27813 1.586231
vt 26.27813 1.586231
vt 26.31652 -0.4133789
vt 26.31652 -0.4133789
vt 27.2903 1.601721
vt 27.2903 1.601721
vt 27.31299 -0.3981079
vt 27.31299 -0.3981079
vt 28.31754 1.608948
vt 28.31754 1.608948
vt 28.32273 -0.390979
vt 28.32273 -0.390979
vt 29.33357 1.606799
vt 29.33357 1.606799
vt 29.3197 -0.3930542
vt 29.3197 -0.3930542
vt 30.36185 1.594287
vt 30.36185 1.594287
vt 30.32675 -0.4052734
vt 30.32675 -0.4052734
vt 31.37625 1.570667
vt 31.37625 1.570667
vt 31.31805 -0.4282837
vt 31.31805 -0.4282837
vt 32.39926 1.534375
vt 32.39926 1.534375
vt 32.31533 -0.4635986
vt 32.31533 -0.4635986

usemtl GSDRoad1
usemap GSDRoad1
f 5/5/5 1/1/1 3/3/3
f 7/7/7 5/5/5 3/3/3
f 9/9/9 5/5/5 7/7/7
f 11/11/11 9/9/9 7/7/7
f 13/13/13 9/9/9 11/11/11
f 15/15/15 13/13/13 11/11/11
f 17/17/17 13/13/13 15/15/15
f 19/19/19 17/17/17 15/15/15
f 21/21/21 17/17/17 19/19/19
f 23/23/23 21/21/21 19/19/19
f 25/25/25 21/21/21 23/23/23
f 27/27/27 25/25/25 23/23/23
f 29/29/29 25/25/25 27/27/27
f 31/31/31 29/29/29 27/27/27
f 33/33/33 29/29/29 31/31/31
f 35/35/35 33/33/33 31/31/31
f 37/37/37 33/33/33 35/35/35
f 39/39/39 37/37/37 35/35/35
f 41/41/41 37/37/37 39/39/39
f 43/43/43 41/41/41 39/39/39
f 45/45/45 41/41/41 43/43/43
f 47/47/47 45/45/45 43/43/43
f 49/49/49 45/45/45 47/47/47
f 51/51/51 49/49/49 47/47/47
f 53/53/53 49/49/49 51/51/51
f 55/55/55 53/53/53 51/51/51
f 57/57/57 53/53/53 55/55/55
f 59/59/59 57/57/57 55/55/55
f 61/61/61 57/57/57 59/59/59
f 63/63/63 61/61/61 59/59/59
f 65/65/65 61/61/61 63/63/63
f 67/67/67 65/65/65 63/63/63
f 69/69/69 65/65/65 67/67/67
f 71/71/71 69/69/69 67/67/67
f 73/73/73 69/69/69 71/71/71
f 75/75/75 73/73/73 71/71/71
f 77/77/77 73/73/73 75/75/75
f 79/79/79 77/77/77 75/75/75
f 81/81/81 77/77/77 79/79/79
f 83/83/83 81/81/81 79/79/79
f 85/85/85 81/81/81 83/83/83
f 87/87/87 85/85/85 83/83/83
f 89/89/89 85/85/85 87/87/87
f 91/91/91 89/89/89 87/87/87
f 93/93/93 89/89/89 91/91/91
f 95/95/95 93/93/93 91/91/91
f 97/97/97 93/93/93 95/95/95
f 99/99/99 97/97/97 95/95/95
f 101/101/101 97/97/97 99/99/99
f 103/103/103 101/101/101 99/99/99
f 105/105/105 101/101/101 103/103/103
f 107/107/107 105/105/105 103/103/103
f 109/109/109 105/105/105 107/107/107
f 111/111/111 109/109/109 107/107/107
f 113/113/113 109/109/109 111/111/111
f 115/115/115 113/113/113 111/111/111
f 117/117/117 113/113/113 115/115/115
f 119/119/119 117/117/117 115/115/115
f 121/121/121 117/117/117 119/119/119
f 123/123/123 121/121/121 119/119/119
f 125/125/125 121/121/121 123/123/123
f 127/127/127 125/125/125 123/123/123
f 129/129/129 125/125/125 127/127/127
f 131/131/131 129/129/129 127/127/127
