mtllib ./Road1_0_209.mtl
g SCutL0
v -111.0897 52.55458 628.6467
v -111.0897 52.55458 628.6467
v -107.9386 52.55458 628.1762
v -107.9386 52.55458 628.1762
v -113.1098 52.21415 628.9484
v -113.1098 52.21415 628.9484
v -111.0897 52.55458 628.6467
v -111.0897 52.55458 628.6467
v -111.7827 52.98161 623.1121
v -111.7827 52.98161 623.1121
v -108.4959 52.98161 622.8594
v -108.4959 52.98161 622.8594
v -113.8458 52.21415 623.2708
v -113.8458 52.21415 623.2708
v -111.7827 52.98161 623.1121
v -111.7827 52.98161 623.1121
v -112.1828 53.44043 617.9089
v -112.1828 53.44043 617.9089
v -108.8191 53.44043 617.7299
v -108.8191 53.44043 617.7299
v -114.2666 52.44981 618.0199
v -114.2666 52.44981 618.0199
v -112.1828 53.44043 617.9089
v -112.1828 53.44043 617.9089
v -112.4764 53.90855 612.83
v -112.4764 53.90855 612.83
v -109.0602 53.90855 612.6799
v -109.0602 53.90855 612.6799
v -114.5738 52.21415 612.9222
v -114.5738 52.21415 612.9222
v -112.4764 53.90855 612.83
v -112.4764 53.90855 612.83
v -112.7263 54.38139 607.7946
v -112.7263 54.38139 607.7946
v -109.2724 54.38139 607.6519
v -109.2724 54.38139 607.6519
v -114.8332 52.44981 607.8817
v -114.8332 52.44981 607.8817
v -112.7263 54.38139 607.7946
v -112.7263 54.38139 607.7946
v -112.9603 54.85069 602.833
v -112.9603 54.85069 602.833
v -109.4797 54.85069 602.6845
v -109.4797 54.85069 602.6845
v -115.0738 52.73025 602.9232
v -115.0738 52.73025 602.9232
v -112.9603 54.85069 602.833
v -112.9603 54.85069 602.833
v -113.2048 55.32912 597.7791
v -113.2048 55.32912 597.7791
v -109.706 55.32912 597.6149
v -109.706 55.32912 597.6149
v -115.3227 53.22073 597.8785
v -115.3227 53.22073 597.8785
v -113.2048 55.32912 597.7791
v -113.2048 55.32912 597.7791
v -113.4634 55.79494 592.8404
v -113.4634 55.79494 592.8404
v -109.9545 55.79494 592.6529
v -109.9545 55.79494 592.6529
v -115.5836 53.22073 592.9536
v -115.5836 53.22073 592.9536
v -113.4634 55.79494 592.8404
v -113.4634 55.79494 592.8404
v -113.7509 56.25411 587.9373
v -113.7509 56.25411 587.9373
v -110.2388 56.25411 587.7197
v -110.2388 56.25411 587.7197
v -115.8713 53.57021 588.0688
v -115.8713 53.57021 588.0688
v -113.7509 56.25411 587.9373
v -113.7509 56.25411 587.9373
v -114.0842 56.71452 582.9702
v -114.0842 56.71452 582.9702
v -110.5759 56.71452 582.7147
v -110.5759 56.71452 582.7147
v -116.203 53.93104 583.1245
v -116.203 53.93104 583.1245
v -114.0842 56.71452 582.9702
v -114.0842 56.71452 582.9702
v -114.4734 57.17087 577.979
v -114.4734 57.17087 577.979
v -110.9759 57.17087 577.6778
v -110.9759 57.17087 577.6778
v -116.5883 54.48688 578.1611
v -116.5883 54.48688 578.1611
v -114.4734 57.17087 577.979
v -114.4734 57.17087 577.979
v -114.9278 57.61776 573.0061
v -114.9278 57.61776 573.0061
v -111.4488 57.61776 572.6508
v -111.4488 57.61776 572.6508
v -117.0366 55.05022 573.2214
v -117.0366 55.05022 573.2214
v -114.9278 57.61776 573.0061
v -114.9278 57.61776 573.0061
v -115.4568 58.04991 568.0927
v -115.4568 58.04991 568.0927
v -112.0042 58.04991 567.674
v -112.0042 58.04991 567.674
v -117.5566 55.62645 568.3473
v -117.5566 55.62645 568.3473
v -115.4568 58.04991 568.0927
v -115.4568 58.04991 568.0927
v -116.069 58.462 563.282
v -116.069 58.462 563.282
v -112.6517 58.462 562.7896
v -112.6517 58.462 562.7896
v -118.1566 56.19355 563.5828
v -118.1566 56.19355 563.5828
v -116.069 58.462 563.282
v -116.069 58.462 563.282
v -116.7943 58.85966 558.483
v -116.7943 58.85966 558.483
v -113.4238 58.85966 557.9023
v -113.4238 58.85966 557.9023
v -118.8652 56.56983 558.8397
v -118.8652 56.56983 558.8397
v -116.7943 58.85966 558.483
v -116.7943 58.85966 558.483
v -117.6484 59.23449 553.7612
v -117.6484 59.23449 553.7612
v -114.3386 59.23449 553.0747
v -114.3386 59.23449 553.0747
v -119.6967 56.56983 554.1862
v -119.6967 56.56983 554.1862
v -117.6484 59.23449 553.7612
v -117.6484 59.23449 553.7612
v -118.6457 59.57701 549.1934
v -118.6457 59.57701 549.1934
v -115.4147 59.57701 548.3789
v -115.4147 59.57701 548.3789
v -120.663 57.12983 549.7018
v -120.663 57.12983 549.7018
v -118.6457 59.57701 549.1934
v -118.6457 59.57701 549.1934
v -119.8296 59.88367 544.7608
v -119.8296 59.88367 544.7608
v -116.7043 59.88367 543.7864
v -116.7043 59.88367 543.7864
v -121.8023 57.70306 545.3759
v -121.8023 57.70306 545.3759
v -119.8296 59.88367 544.7608
v -119.8296 59.88367 544.7608
v -121.2481 60.14247 540.5138
v -121.2481 60.14247 540.5138
v -118.2724 60.14247 539.3322
v -118.2724 60.14247 539.3322
v -123.1527 58.0681 541.27
v -123.1527 58.0681 541.27
v -121.2481 60.14247 540.5138
v -121.2481 60.14247 540.5138
v -122.9007 60.32639 536.6805
v -122.9007 60.32639 536.6805
v -120.1453 60.32639 535.2295
v -120.1453 60.32639 535.2295
v -124.6952 58.98659 537.6254
v -124.6952 58.98659 537.6254
v -122.9007 60.32639 536.6805
v -122.9007 60.32639 536.6805

vn 0.01127666 0.9970806 0.07551938
vn 0 0 0
vn 0.008702647 0.9969573 0.07746291
vn 0 0 0
vn -0.1630667 0.9863885 0.02113778
vn 0 0 0
vn -0.2539694 0.9647399 0.06911311
vn 0 0 0
vn 0.008052159 0.9967066 0.08069183
vn 0 0 0
vn 0.005849554 0.9963515 0.0851443
vn 0 0 0
vn -0.283293 0.956525 0.06931688
vn 0 0 0
vn -0.3683614 0.9243774 0.09917726
vn 0 0 0
vn 0.005437055 0.9959986 0.08920266
vn 0 0 0
vn 0.004548107 0.9958588 0.09079795
vn 0 0 0
vn -0.3996775 0.9149626 0.05569054
vn 0 0 0
vn -0.5015156 0.8622487 0.07077657
vn 0 0 0
vn 0.004338598 0.9957217 0.09230048
vn 0 0 0
vn 0.004003521 0.9956623 0.09295525
vn 0 0 0
vn -0.5691617 0.820234 0.0571928
vn 0 0 0
vn -0.639919 0.7627875 0.0930533
vn 0 0 0
vn 0.003949186 0.995604 0.09357908
vn 0 0 0
vn 0.003917955 0.9955852 0.09378017
vn 0 0 0
vn -0.6566141 0.7497507 0.08204816
vn 0 0 0
vn -0.6820692 0.7254359 0.09232771
vn 0 0 0
vn 0.00396826 0.9955665 0.0939767
vn 0 0 0
vn 0.004140944 0.9955729 0.09390067
vn 0 0 0
vn -0.6929575 0.7149849 0.09277166
vn 0 0 0
vn -0.7014745 0.7054662 0.1012477
vn 0 0 0
vn 0.004268993 0.9955792 0.09382853
vn 0 0 0
vn 0.004591476 0.9956039 0.09355076
vn 0 0 0
vn -0.7022975 0.7072772 0.08085271
vn 0 0 0
vn -0.7257113 0.6832755 0.08048342
vn 0 0 0
vn 0.004781466 0.9956284 0.09328116
vn 0 0 0
vn 0.005223913 0.9956673 0.09283966
vn 0 0 0
vn -0.7480823 0.6590669 0.07748268
vn 0 0 0
vn -0.7703008 0.6300792 0.09816745
vn 0 0 0
vn 0.005463782 0.9957067 0.09240276
vn 0 0 0
vn 0.006021396 0.9957588 0.09180409
vn 0 0 0
vn -0.7745692 0.6249568 0.09732258
vn 0 0 0
vn -0.7816339 0.6150997 0.1034446
vn 0 0 0
vn 0.006310598 0.9958124 0.09120263
vn 0 0 0
vn 0.006984886 0.9958776 0.09043799
vn 0 0 0
vn -0.7842258 0.6103001 0.1119089
vn 0 0 0
vn -0.7833696 0.6101864 0.118341
vn 0 0 0
vn 0.007320454 0.9959457 0.08965801
vn 0 0 0
vn 0.008108872 0.9960241 0.0887146
vn 0 0 0
vn -0.778378 0.614431 0.12885
vn 0 0 0
vn -0.7703042 0.6246601 0.1281843
vn 0 0 0
vn 0.008485606 0.9961079 0.08773297
vn 0 0 0
vn 0.009386037 0.9962006 0.0865821
vn 0 0 0
vn -0.7639255 0.6297117 0.1409998
vn 0 0 0
vn -0.7534714 0.6424021 0.1400016
vn 0 0 0
vn 0.00979617 0.9963011 0.08537025
vn 0 0 0
vn 0.01080817 0.9964087 0.08398171
vn 0 0 0
vn -0.745005 0.6489012 0.1545792
vn 0 0 0
vn -0.7319551 0.6640584 0.1525385
vn 0 0 0
vn 0.01124345 0.9965305 0.08246424
vn 0 0 0
vn 0.01238039 0.9966564 0.08076336
vn 0 0 0
vn -0.7232189 0.6717127 0.160488
vn 0 0 0
vn -0.7172865 0.6785479 0.1583437
vn 0 0 0
vn 0.0128232 0.9968032 0.07885984
vn 0 0 0
vn 0.01409169 0.9969509 0.07674721
vn 0 0 0
vn -0.7198942 0.6772698 0.1518489
vn 0 0 0
vn -0.7374901 0.65575 0.1615559
vn 0 0 0
vn 0.01450376 0.9971306 0.07429699
vn 0 0 0
vn 0.01587676 0.9973041 0.07164004
vn 0 0 0
vn -0.7486388 0.6361883 0.1865595
vn 0 0 0
vn -0.7501367 0.6266184 0.2112921
vn 0 0 0
vn 0.01616496 0.9975286 0.06837772
vn 0 0 0
vn 0.01758825 0.9977335 0.06494921
vn 0 0 0
vn -0.7334536 0.635989 0.2399245
vn 0 0 0
vn -0.712692 0.6599939 0.2376516
vn 0 0 0
vn 0.01754464 0.9980183 0.06042887
vn 0 0 0
vn 0.0188509 0.9982625 0.05582576
vn 0 0 0
vn -0.6919307 0.6727118 0.2620893
vn 0 0 0
vn -0.673681 0.6923808 0.2583849
vn 0 0 0
vn 0.01795433 0.9986256 0.04923972
vn 0 0 0
vn 0.01857231 0.9989073 0.04288647
vn 0 0 0
vn -0.6429592 0.6958405 0.3200147
vn 0 0 0
vn -0.5905315 0.742698 0.315709
vn 0 0 0
vn 0.01766701 0.999104 0.03846105
vn 0 0 0
vn 0.01901607 0.9991668 0.03611078
vn 0 0 0
vn -0.5456455 0.7633991 0.3456772
vn 0 0 0
vn -0.4905234 0.8343457 0.2515034
vn 0 0 0

vt 0 0
vt 0 0
vt -0.6302109 -0.09410401
vt -0.6302109 -0.09410401
vt 0.404036 0.06033936
vt 0.404036 0.06033936
vt 0 0
vt 0 0
vt 0.1386169 -1.106921
vt 0.1386169 -1.106921
vt -0.5187424 -1.157471
vt -0.5187424 -1.157471
vt 0.5512299 -1.075183
vt 0.5512299 -1.075183
vt 0.1386169 -1.106921
vt 0.1386169 -1.106921
vt 0.2186203 -2.147559
vt 0.2186203 -2.147559
vt -0.4541077 -2.183374
vt -0.4541077 -2.183374
vt 0.6353836 -2.125366
vt 0.6353836 -2.125366
vt 0.2186203 -2.147559
vt 0.2186203 -2.147559
vt 0.2773514 -3.163342
vt 0.2773514 -3.163342
vt -0.4058853 -3.193372
vt -0.4058853 -3.193372
vt 0.6968231 -3.144897
vt 0.6968231 -3.144897
vt 0.2773514 -3.163342
vt 0.2773514 -3.163342
vt 0.3273361 -4.170423
vt 0.3273361 -4.170423
vt -0.3634506 -4.198975
vt -0.3634506 -4.198975
vt 0.7487168 -4.153015
vt 0.7487168 -4.153015
vt 0.3273361 -4.170423
vt 0.3273361 -4.170423
vt 0.3741333 -5.162744
vt 0.3741333 -5.162744
vt -0.3219833 -5.192444
vt -0.3219833 -5.192444
vt 0.7968354 -5.144714
vt 0.7968354 -5.144714
vt 0.3741333 -5.162744
vt 0.3741333 -5.162744
vt 0.4230286 -6.173523
vt 0.4230286 -6.173523
vt -0.2767349 -6.20636
vt -0.2767349 -6.20636
vt 0.8466095 -6.15365
vt 0.8466095 -6.15365
vt 0.4230286 -6.173523
vt 0.4230286 -6.173523
vt 0.4747559 -7.161267
vt 0.4747559 -7.161267
vt -0.2270401 -7.198767
vt -0.2270401 -7.198767
vt 0.8987839 -7.138623
vt 0.8987839 -7.138623
vt 0.4747559 -7.161267
vt 0.4747559 -7.161267
vt 0.5322495 -8.141883
vt 0.5322495 -8.141883
vt -0.1701736 -8.185412
vt -0.1701736 -8.185412
vt 0.956337 -8.115588
vt 0.956337 -8.115588
vt 0.5322495 -8.141883
vt 0.5322495 -8.141883
vt 0.5989181 -9.135303
vt 0.5989181 -9.135303
vt -0.1027573 -9.186401
vt -0.1027573 -9.186401
vt 1.022673 -9.104444
vt 1.022673 -9.104444
vt 0.5989181 -9.135303
vt 0.5989181 -9.135303
vt 0.6767471 -10.13354
vt 0.6767471 -10.13354
vt -0.02275238 -10.19379
vt -0.02275238 -10.19379
vt 1.099736 -10.09712
vt 1.099736 -10.09712
vt 0.6767471 -10.13354
vt 0.6767471 -10.13354
vt 0.7676361 -11.12813
vt 0.7676361 -11.12813
vt 0.07182007 -11.19919
vt 0.07182007 -11.19919
vt 1.189381 -11.08506
vt 1.189381 -11.08506
vt 0.7676361 -11.12813
vt 0.7676361 -11.12813
vt 0.8734345 -12.11082
vt 0.8734345 -12.11082
vt 0.1829178 -12.19454
vt 0.1829178 -12.19454
vt 1.293388 -12.05989
vt 1.293388 -12.05989
vt 0.8734345 -12.11082
vt 0.8734345 -12.11082
vt 0.9958664 -13.07294
vt 0.9958664 -13.07294
vt 0.3124161 -13.17142
vt 0.3124161 -13.17142
vt 1.413383 -13.01278
vt 1.413383 -13.01278
vt 0.9958664 -13.07294
vt 0.9958664 -13.07294
vt 1.140932 -14.03275
vt 1.140932 -14.03275
vt 0.4668259 -14.14888
vt 0.4668259 -14.14888
vt 1.555119 -13.96141
vt 1.555119 -13.96141
vt 1.140932 -14.03275
vt 1.140932 -14.03275
vt 1.311745 -14.9771
vt 1.311745 -14.9771
vt 0.6497925 -15.1144
vt 0.6497925 -15.1144
vt 1.721403 -14.89211
vt 1.721403 -14.89211
vt 1.311745 -14.9771
vt 1.311745 -14.9771
vt 1.511218 -15.89067
vt 1.511218 -15.89067
vt 0.8650101 -16.05356
vt 0.8650101 -16.05356
vt 1.914679 -15.78898
vt 1.914679 -15.78898
vt 1.511218 -15.89067
vt 1.511218 -15.89067
vt 1.747981 -16.77719
vt 1.747981 -16.77719
vt 1.122926 -16.97207
vt 1.122926 -16.97207
vt 2.142537 -16.65417
vt 2.142537 -16.65417
vt 1.747981 -16.77719
vt 1.747981 -16.77719
vt 2.031691 -17.62659
vt 2.031691 -17.62659
vt 1.436546 -17.8629
vt 1.436546 -17.8629
vt 2.412601 -17.47534
vt 2.412601 -17.47534
vt 2.031691 -17.62659
vt 2.031691 -17.62659
vt 2.36221 -18.39325
vt 2.36221 -18.39325
vt 1.811136 -18.68345
vt 1.811136 -18.68345
vt 2.7211 -18.20427
vt 2.7211 -18.20427
vt 2.36221 -18.39325
vt 2.36221 -18.39325

usemtl GSDShoulder1
usemap GSDShoulder1
f 9/9/9 1/1/1 3/3/3
f 11/11/11 9/9/9 3/3/3
f 13/13/13 5/5/5 7/7/7
f 15/15/15 13/13/13 7/7/7
f 17/17/17 9/9/9 11/11/11
f 19/19/19 17/17/17 11/11/11
f 21/21/21 13/13/13 15/15/15
f 23/23/23 21/21/21 15/15/15
f 25/25/25 17/17/17 19/19/19
f 27/27/27 25/25/25 19/19/19
f 29/29/29 21/21/21 23/23/23
f 31/31/31 29/29/29 23/23/23
f 33/33/33 25/25/25 27/27/27
f 35/35/35 33/33/33 27/27/27
f 37/37/37 29/29/29 31/31/31
f 39/39/39 37/37/37 31/31/31
f 41/41/41 33/33/33 35/35/35
f 43/43/43 41/41/41 35/35/35
f 45/45/45 37/37/37 39/39/39
f 47/47/47 45/45/45 39/39/39
f 49/49/49 41/41/41 43/43/43
f 51/51/51 49/49/49 43/43/43
f 53/53/53 45/45/45 47/47/47
f 55/55/55 53/53/53 47/47/47
f 57/57/57 49/49/49 51/51/51
f 59/59/59 57/57/57 51/51/51
f 61/61/61 53/53/53 55/55/55
f 63/63/63 61/61/61 55/55/55
f 65/65/65 57/57/57 59/59/59
f 67/67/67 65/65/65 59/59/59
f 69/69/69 61/61/61 63/63/63
f 71/71/71 69/69/69 63/63/63
f 73/73/73 65/65/65 67/67/67
f 75/75/75 73/73/73 67/67/67
f 77/77/77 69/69/69 71/71/71
f 79/79/79 77/77/77 71/71/71
f 81/81/81 73/73/73 75/75/75
f 83/83/83 81/81/81 75/75/75
f 85/85/85 77/77/77 79/79/79
f 87/87/87 85/85/85 79/79/79
f 89/89/89 81/81/81 83/83/83
f 91/91/91 89/89/89 83/83/83
f 93/93/93 85/85/85 87/87/87
f 95/95/95 93/93/93 87/87/87
f 97/97/97 89/89/89 91/91/91
f 99/99/99 97/97/97 91/91/91
f 101/101/101 93/93/93 95/95/95
f 103/103/103 101/101/101 95/95/95
f 105/105/105 97/97/97 99/99/99
f 107/107/107 105/105/105 99/99/99
f 109/109/109 101/101/101 103/103/103
f 111/111/111 109/109/109 103/103/103
f 113/113/113 105/105/105 107/107/107
f 115/115/115 113/113/113 107/107/107
f 117/117/117 109/109/109 111/111/111
f 119/119/119 117/117/117 111/111/111
f 121/121/121 113/113/113 115/115/115
f 123/123/123 121/121/121 115/115/115
f 125/125/125 117/117/117 119/119/119
f 127/127/127 125/125/125 119/119/119
f 129/129/129 121/121/121 123/123/123
f 131/131/131 129/129/129 123/123/123
f 133/133/133 125/125/125 127/127/127
f 135/135/135 133/133/133 127/127/127
f 137/137/137 129/129/129 131/131/131
f 139/139/139 137/137/137 131/131/131
f 141/141/141 133/133/133 135/135/135
f 143/143/143 141/141/141 135/135/135
f 145/145/145 137/137/137 139/139/139
f 147/147/147 145/145/145 139/139/139
f 149/149/149 141/141/141 143/143/143
f 151/151/151 149/149/149 143/143/143
f 153/153/153 145/145/145 147/147/147
f 155/155/155 153/153/153 147/147/147
f 157/157/157 149/149/149 151/151/151
f 159/159/159 157/157/157 151/151/151
