mtllib ./Road1_0_207.mtl
g SCutR68
v -100.5828 50.4593 653.8867
v -100.5828 50.4593 653.8867
v -97.55334 50.4593 654.2584
v -97.55334 50.4593 654.2584
v -97.55334 50.4593 654.2584
v -97.55334 50.4593 654.2584
v -95.55904 48.40675 654.5032
v -95.55904 48.40675 654.5032
v -99.86628 50.86667 648.7715
v -99.86628 50.86667 648.7715
v -96.82484 50.86667 649.1065
v -96.82484 50.86667 649.1065
v -96.82484 50.86667 649.1065
v -96.82484 50.86667 649.1065
v -94.82598 48.78781 649.3267
v -94.82598 48.78781 649.3267
v -99.45028 51.27139 643.4488
v -99.45028 51.27139 643.4488
v -96.397 51.27139 643.6108
v -96.397 51.27139 643.6108
v -96.397 51.27139 643.6108
v -96.397 51.27139 643.6108
v -94.3894 50.57139 643.7173
v -94.3894 50.57139 643.7173
v -99.24133 51.67673 638.2842
v -99.24133 51.67673 638.2842
v -96.2042 51.67673 638.3937
v -96.2042 51.67673 638.3937
v -96.2042 51.67673 638.3937
v -96.2042 51.67673 638.3937
v -94.19968 50.97674 638.4659
v -94.19968 50.97674 638.4659

vn -0.009578141 0.9969033 0.07805219
vn 0 0 0
vn -0.009061779 0.996925 0.07783613
vn 0 0 0
vn 0.6993998 0.6979244 0.1540834
vn 0 0 0
vn 0.7020034 0.6956667 0.1524436
vn 0 0 0
vn -0.008795986 0.9969978 0.07692962
vn 0 0 0
vn -0.006857937 0.9971398 0.07526934
vn 0 0 0
vn 0.7053177 0.6956071 0.1365936
vn 0 0 0
vn 0.6057273 0.7738331 0.1851402
vn 0 0 0
vn -0.005431691 0.9971377 0.0754115
vn 0 0 0
vn -0.003608848 0.9970914 0.07613008
vn 0 0 0
vn 0.4867629 0.8567846 0.1702405
vn 0 0 0
vn 0.3172723 0.9335418 0.1668477
vn 0 0 0
vn -0.003464397 0.9969693 0.07771936
vn 0 0 0
vn -0.00278908 0.9969992 0.07736102
vn 0 0 0
vn 0.3249005 0.9419372 0.08481773
vn 0 0 0
vn 0.3257939 0.941661 0.08445583
vn 0 0 0

vt 0 0
vt 0 0
vt -0.6059021 0.07435303
vt -0.6059021 0.07435303
vt -0.6059021 0.07435303
vt -0.6059021 0.07435303
vt -1.004761 0.1233032
vt -1.004761 0.1233032
vt -0.1433136 -1.023035
vt -0.1433136 -1.023035
vt -0.7516007 -0.9560303
vt -0.7516007 -0.9560303
vt -0.7516007 -0.9560303
vt -0.7516007 -0.9560303
vt -1.151373 -0.9119995
vt -1.151373 -0.9119995
vt -0.2265137 -2.087573
vt -0.2265137 -2.087573
vt -0.8371689 -2.055176
vt -0.8371689 -2.055176
vt -0.8371689 -2.055176
vt -0.8371689 -2.055176
vt -1.23869 -2.033862
vt -1.23869 -2.033862
vt -0.2683029 -3.120483
vt -0.2683029 -3.120483
vt -0.8757294 -3.098584
vt -0.8757294 -3.098584
vt -0.8757294 -3.098584
vt -0.8757294 -3.098584
vt -1.276634 -3.084143
vt -1.276634 -3.084143

usemtl GSDShoulder1
usemap GSDShoulder1
f 9/9/9 1/1/1 3/3/3
f 11/11/11 9/9/9 3/3/3
f 13/13/13 5/5/5 7/7/7
f 15/15/15 13/13/13 7/7/7
f 17/17/17 9/9/9 11/11/11
f 19/19/19 17/17/17 11/11/11
f 21/21/21 13/13/13 15/15/15
f 23/23/23 21/21/21 15/15/15
f 25/25/25 17/17/17 19/19/19
f 27/27/27 25/25/25 19/19/19
f 29/29/29 21/21/21 23/23/23
f 31/31/31 29/29/29 23/23/23
