mtllib ./Road1_0_255.mtl
g SCutL46
v -816.6202 14.12091 659.087
v -816.6202 14.12091 659.087
v -817.5701 14.12091 662.0277
v -817.5701 14.12091 662.0277
v -815.9993 12.21664 657.1649
v -815.9993 12.21664 657.1649
v -816.6202 14.12091 659.087
v -816.6202 14.12091 659.087
v -811.9742 14.44761 660.4879
v -811.9742 14.44761 660.4879
v -812.8562 14.44761 663.4457
v -812.8562 14.44761 663.4457
v -811.3972 13.30542 658.5528
v -811.3972 13.30542 658.5528
v -811.9742 14.44761 660.4879
v -811.9742 14.44761 660.4879
v -806.892 14.74797 662.0807
v -806.892 14.74797 662.0807
v -807.856 14.74797 665.0081
v -807.856 14.74797 665.0081
v -806.2607 13.83974 660.1635
v -806.2607 13.83974 660.1635
v -806.892 14.74797 662.0807
v -806.892 14.74797 662.0807
v -801.8947 15.01709 663.8283
v -801.8947 15.01709 663.8283
v -802.9645 15.01709 666.7142
v -802.9645 15.01709 666.7142
v -801.1933 13.83974 661.9363
v -801.1933 13.83974 661.9363
v -801.8947 15.01709 663.8283
v -801.8947 15.01709 663.8283
v -796.8112 15.27162 665.8484
v -796.8112 15.27162 665.8484
v -798.0138 15.27162 668.6774
v -798.0138 15.27162 668.6774
v -796.0222 14.24502 663.9921
v -796.0222 14.24502 663.9921
v -796.8112 15.27162 665.8484
v -796.8112 15.27162 665.8484
v -791.8361 15.50745 668.1282
v -791.8361 15.50745 668.1282
v -793.1938 15.50745 670.8824
v -793.1938 15.50745 670.8824
v -790.9445 14.67272 666.3196
v -790.9445 14.67272 666.3196
v -791.8361 15.50745 668.1282
v -791.8361 15.50745 668.1282
v -786.9066 15.73279 670.7642
v -786.9066 15.73279 670.7642
v -788.4442 15.73279 673.4191
v -788.4442 15.73279 673.4191
v -785.8963 14.97366 669.0199
v -785.8963 14.97366 669.0199
v -786.9066 15.73279 670.7642
v -786.9066 15.73279 670.7642

vn -0.06393207 0.9977406 -0.0206521
vn 0 0 0
vn -0.06369455 0.9977734 -0.019782
vn 0 0 0
vn 0.04060071 0.716326 -0.6965835
vn 0 0 0
vn 0.06167666 0.7924808 -0.6067703
vn 0 0 0
vn -0.06026621 0.9980112 -0.01848174
vn 0 0 0
vn -0.05712514 0.9982117 -0.01760555
vn 0 0 0
vn 0.06270156 0.8195451 -0.5695736
vn 0 0 0
vn 0.07434124 0.8831574 -0.4631484
vn 0 0 0
vn -0.05218748 0.998499 -0.01662054
vn 0 0 0
vn -0.0504201 0.9985788 -0.01726654
vn 0 0 0
vn 0.09092146 0.8977285 -0.4310648
vn 0 0 0
vn 0.1118877 0.8959354 -0.4298616
vn 0 0 0
vn -0.04677787 0.998766 -0.01667711
vn 0 0 0
vn -0.04535251 0.9988159 -0.01760849
vn 0 0 0
vn 0.1292668 0.8795288 -0.4579512
vn 0 0 0
vn 0.1271492 0.8718914 -0.4729044
vn 0 0 0
vn -0.04237846 0.9989533 -0.01721668
vn 0 0 0
vn -0.04114453 0.9989841 -0.01838037
vn 0 0 0
vn 0.1274749 0.8809167 -0.4557804
vn 0 0 0
vn 0.1263798 0.9011647 -0.4146447
vn 0 0 0
vn -0.03852554 0.9990939 -0.01809083
vn 0 0 0
vn -0.03738368 0.9991115 -0.01946034
vn 0 0 0
vn 0.128972 0.912474 -0.3882751
vn 0 0 0
vn 0.1313778 0.9270474 -0.3511738
vn 0 0 0
vn -0.03617484 0.9991578 -0.01936321
vn 0 0 0
vn -0.03620382 0.9991243 -0.02096803
vn 0 0 0
vn 0.1351937 0.9290373 -0.3444017
vn 0 0 0
vn 0.1334599 0.9346853 -0.3294717
vn 0 0 0

vt 0 0
vt 0 0
vt 0.1899902 0.588147
vt 0.1899902 0.588147
vt -0.1241699 -0.3844116
vt -0.1241699 -0.3844116
vt 0 0
vt 0 0
vt -0.9291992 0.2801758
vt -0.9291992 0.2801758
vt -0.7527954 0.8717529
vt -0.7527954 0.8717529
vt -1.044605 -0.1068359
vt -1.044605 -0.1068359
vt -0.9291992 0.2801758
vt -0.9291992 0.2801758
vt -1.94563 0.5987549
vt -1.94563 0.5987549
vt -1.752844 1.184216
vt -1.752844 1.184216
vt -2.071887 0.2153076
vt -2.071887 0.2153076
vt -1.94563 0.5987549
vt -1.94563 0.5987549
vt -2.945105 0.9482666
vt -2.945105 0.9482666
vt -2.73114 1.52544
vt -2.73114 1.52544
vt -3.085376 0.569873
vt -3.085376 0.569873
vt -2.945105 0.9482666
vt -2.945105 0.9482666
vt -3.961792 1.352283
vt -3.961792 1.352283
vt -3.721277 1.918091
vt -3.721277 1.918091
vt -4.119605 0.9810181
vt -4.119605 0.9810181
vt -3.961792 1.352283
vt -3.961792 1.352283
vt -4.956824 1.80824
vt -4.956824 1.80824
vt -4.685278 2.359094
vt -4.685278 2.359094
vt -5.135132 1.446521
vt -5.135132 1.446521
vt -4.956824 1.80824
vt -4.956824 1.80824
vt -5.942712 2.335449
vt -5.942712 2.335449
vt -5.635193 2.866419
vt -5.635193 2.866419
vt -6.144775 1.986585
vt -6.144775 1.986585
vt -5.942712 2.335449
vt -5.942712 2.335449

usemtl GSDShoulder1
usemap GSDShoulder1
f 9/9/9 1/1/1 3/3/3
f 11/11/11 9/9/9 3/3/3
f 13/13/13 5/5/5 7/7/7
f 15/15/15 13/13/13 7/7/7
f 17/17/17 9/9/9 11/11/11
f 19/19/19 17/17/17 11/11/11
f 21/21/21 13/13/13 15/15/15
f 23/23/23 21/21/21 15/15/15
f 25/25/25 17/17/17 19/19/19
f 27/27/27 25/25/25 19/19/19
f 29/29/29 21/21/21 23/23/23
f 31/31/31 29/29/29 23/23/23
f 33/33/33 25/25/25 27/27/27
f 35/35/35 33/33/33 27/27/27
f 37/37/37 29/29/29 31/31/31
f 39/39/39 37/37/37 31/31/31
f 41/41/41 33/33/33 35/35/35
f 43/43/43 41/41/41 35/35/35
f 45/45/45 37/37/37 39/39/39
f 47/47/47 45/45/45 39/39/39
f 49/49/49 41/41/41 43/43/43
f 51/51/51 49/49/49 43/43/43
f 53/53/53 45/45/45 47/47/47
f 55/55/55 53/53/53 47/47/47
