mtllib ./Road1_0_45.mtl
g Markers22
v -341.4843 9.629633 40.97096
v -341.4843 9.629633 40.97096
v -342.2271 9.629633 50.91142
v -342.2271 9.629633 50.91142
v -336.3652 9.223384 41.38385
v -336.3652 9.223384 41.38385
v -337.2218 9.223384 51.31512
v -337.2218 9.223384 51.31512
v -331.373 8.817895 41.77957
v -331.373 8.817895 41.77957
v -332.1037 8.817895 51.72096
v -332.1037 8.817895 51.72096
v -326.3142 8.410555 42.13457
v -326.3142 8.410555 42.13457
v -326.9922 8.410555 52.07971
v -326.9922 8.410555 52.07971
v -321.2379 8.00526 42.48495
v -321.2379 8.00526 42.48495
v -321.9481 8.00526 52.42783
v -321.9481 8.00526 52.42783
v -316.1978 7.606462 42.87445
v -316.1978 7.606462 42.87445
v -317.043 7.606462 52.8067
v -317.043 7.606462 52.8067
v -311.0146 7.200852 43.38269
v -311.0146 7.200852 43.38269
v -312.1436 7.200852 53.28661
v -312.1436 7.200852 53.28661

vn 0.07863781 0.996886 0.005875703
vn 0 0 0
vn 0.0794801 0.9968159 0.00639691
vn 0 0 0
vn 0.07978701 0.9967902 0.006574862
vn 0 0 0
vn 0.07974806 0.9967936 0.006539677
vn 0 0 0
vn 0.07958671 0.9968088 0.006187383
vn 0 0 0
vn 0.0791429 0.9968471 0.005676463
vn 0 0 0
vn 0.07937577 0.9968293 0.005552748
vn 0 0 0
vn 0.07932498 0.9968337 0.005493844
vn 0 0 0
vn 0.07912079 0.9968495 0.005564952
vn 0 0 0
vn 0.07954268 0.9968132 0.006041671
vn 0 0 0
vn 0.07874665 0.9968745 0.006344316
vn 0 0 0
vn 0.0797798 0.9967839 0.007560512
vn 0 0 0
vn 0.07942587 0.9968094 0.007904815
vn 0 0 0
vn 0.08159548 0.9966221 0.00930073
vn 0 0 0

vt 0 364.3346
vt 0 0
vt 1 364.3346
vt 0 0
vt 0 365.365
vt 0 365.365
vt 1 365.365
vt 1 365.365
vt 0 366.3698
vt 0 366.3698
vt 1 366.3698
vt 1 366.3698
vt 0 367.3873
vt 0 367.3873
vt 1 367.3873
vt 1 367.3873
vt 0 368.4082
vt 0 368.4082
vt 1 368.4082
vt 1 368.4082
vt 0 369.4224
vt 0 369.4224
vt 1 369.4224
vt 1 369.4224
vt 0 370.4672
vt 0 370.4672
vt 1 370.4672
vt 1 370.4672

usemtl GSDWhiteYellowDouble
usemap GSDWhiteYellowDouble
f 5/5/5 1/1/1 3/3/3
f 7/7/7 5/5/5 3/3/3
f 9/9/9 5/5/5 7/7/7
f 11/11/11 9/9/9 7/7/7
f 13/13/13 9/9/9 11/11/11
f 15/15/15 13/13/13 11/11/11
f 17/17/17 13/13/13 15/15/15
f 19/19/19 17/17/17 15/15/15
f 21/21/21 17/17/17 19/19/19
f 23/23/23 21/21/21 19/19/19
f 25/25/25 21/21/21 23/23/23
f 27/27/27 25/25/25 23/23/23
