mtllib ./Road1_0_11.mtl
g Markers5
v -511.756 72.20181 594.011
v -511.756 72.20181 594.011
v -511.6846 72.20181 584.0447
v -511.6846 72.20181 584.0447
v -516.8199 72.61354 593.9845
v -516.8199 72.61354 593.9845
v -516.7821 72.61354 584.0182
v -516.7821 72.61354 584.0182
v -521.9142 73.04688 593.9677
v -521.9142 73.04688 593.9677
v -521.8954 73.04688 584.0059
v -521.8954 73.04688 584.0059
v -526.8905 73.49712 593.9602
v -526.8905 73.49712 593.9602
v -526.8885 73.49712 584.0032
v -526.8885 73.49712 584.0032
v -531.8942 73.97605 593.9604
v -531.8942 73.97605 593.9604
v -531.9062 73.97605 584.0083
v -531.9062 73.97605 584.0083
v -536.9041 74.48003 593.9668
v -536.9041 74.48003 593.9668
v -536.9252 74.48003 584.0192
v -536.9252 74.48003 584.0192
v -541.9066 75.0039 593.9764
v -541.9066 75.0039 593.9764
v -541.9295 75.0039 584.0325
v -541.9295 75.0039 584.0325
v -546.8997 75.54116 593.9851
v -546.8997 75.54116 593.9851
v -546.9142 75.54116 584.0436
v -546.9142 75.54116 584.0436
v -551.8926 76.08339 593.9875
v -551.8926 76.08339 593.9875
v -551.8853 76.08339 584.046
v -551.8853 76.08339 584.046
v -556.9095 76.62035 593.9763
v -556.9095 76.62035 593.9763
v -556.8635 76.62035 584.0318
v -556.8635 76.62035 584.0318
v -561.9898 77.13953 593.942
v -561.9898 77.13953 593.942
v -561.8856 77.13953 583.9915
v -561.8856 77.13953 583.9915
v -567.0804 77.61632 593.8746
v -567.0804 77.61632 593.8746
v -566.899 77.61632 583.9155
v -566.899 77.61632 583.9155
v -572.1467 78.02964 593.765
v -572.1467 78.02964 593.765
v -571.873 78.02964 583.7969
v -571.873 78.02964 583.7969
v -577.2664 78.3703 593.6038
v -577.2664 78.3703 593.6038
v -576.8901 78.3703 583.6281
v -576.8901 78.3703 583.6281
v -582.4023 78.62458 593.3873
v -582.4023 78.62458 593.3873
v -581.9202 78.62458 583.4073
v -581.9202 78.62458 583.4073
v -587.4954 78.78668 593.1182
v -587.4954 78.78668 593.1182
v -586.9125 78.78668 583.1379
v -586.9125 78.78668 583.1379
v -592.5801 78.86072 592.7983
v -592.5801 78.86072 592.7983
v -591.9045 78.86072 582.8214
v -591.9045 78.86072 582.8214

vn 0.08103452 0.9967111 0.0005801367
vn 0 0 0
vn 0.08076977 0.9967327 0.0004424609
vn 0 0 0
vn 0.08210112 0.9966239 0.0004021661
vn 0 0 0
vn 0.08323619 0.9965298 0.0002621757
vn 0 0 0
vn 0.08640596 0.9962599 0.0002173744
vn 0 0 0
vn 0.08809025 0.9961125 0.0001159691
vn 0 0 0
vn 0.09173815 0.9957832 6.864403E-05
vn 0 0 0
vn 0.09337313 0.9956312 -2.607431E-05
vn 0 0 0
vn 0.09679612 0.9953042 -7.199793E-05
vn 0 0 0
vn 0.09833971 0.995153 -0.0001488944
vn 0 0 0
vn 0.1013831 0.9948475 -0.0001845035
vn 0 0 0
vn 0.1027232 0.9947098 -0.000224487
vn 0 0 0
vn 0.1050819 0.9944634 -0.0002360914
vn 0 0 0
vn 0.1060844 0.9943571 -0.0002146434
vn 0 0 0
vn 0.1073698 0.9942192 -0.0001871016
vn 0 0 0
vn 0.1078529 0.9941669 -7.833357E-05
vn 0 0 0
vn 0.1076037 0.9941939 1.844635E-07
vn 0 0 0
vn 0.1073617 0.99422 0.0002179193
vn 0 0 0
vn 0.1050885 0.9944628 0.0003485284
vn 0 0 0
vn 0.1038906 0.9945885 0.0006811228
vn 0 0 0
vn 0.09922581 0.9950646 0.000840764
vn 0 0 0
vn 0.09688939 0.9952944 0.001257913
vn 0 0 0
vn 0.08971377 0.9959666 0.001392063
vn 0 0 0
vn 0.0862232 0.9962741 0.001823316
vn 0 0 0
vn 0.07672169 0.9970508 0.001855537
vn 0 0 0
vn 0.07218406 0.9973888 0.002212693
vn 0 0 0
vn 0.0610685 0.9981315 0.00207561
vn 0 0 0
vn 0.05575172 0.9984421 0.002279896
vn 0 0 0
vn 0.04381695 0.9990377 0.001940799
vn 0 0 0
vn 0.03814321 0.9992703 0.001950371
vn 0 0 0
vn 0.02616061 0.9996567 0.001420308
vn 0 0 0
vn 0.02050387 0.9997889 0.00124309
vn 0 0 0
vn 0.01463462 0.9998925 0.0009228878
vn 0 0 0
vn 0.01476601 0.9998904 0.000999986
vn 0 0 0

vt 0 105.0261
vt 0 0
vt 1 105.0261
vt 0 0
vt 0 106.0423
vt 0 106.0423
vt 1 106.0423
vt 1 106.0423
vt 0 107.0648
vt 0 107.0648
vt 1 107.0648
vt 1 107.0648
vt 0 108.0641
vt 0 108.0641
vt 1 108.0641
vt 1 108.0641
vt 0 109.0694
vt 0 109.0694
vt 1 109.0694
vt 1 109.0694
vt 0 110.0765
vt 0 110.0765
vt 1 110.0765
vt 1 110.0765
vt 0 111.0824
vt 0 111.0824
vt 1 111.0824
vt 1 111.0824
vt 0 112.0868
vt 0 112.0868
vt 1 112.0868
vt 1 112.0868
vt 0 113.0913
vt 0 113.0913
vt 1 113.0913
vt 1 113.0913
vt 0 114.1004
vt 0 114.1004
vt 1 114.1004
vt 1 114.1004
vt 0 115.1218
vt 0 115.1218
vt 1 115.1218
vt 1 115.1218
vt 0 116.1445
vt 0 116.1445
vt 1 116.1445
vt 1 116.1445
vt 0 117.1613
vt 0 117.1613
vt 1 117.1613
vt 1 117.1613
vt 0 118.188
vt 0 118.188
vt 1 118.188
vt 1 118.188
vt 0 119.2174
vt 0 119.2174
vt 1 119.2174
vt 1 119.2174
vt 0 120.2379
vt 0 120.2379
vt 1 120.2379
vt 1 120.2379
vt 0 121.257
vt 0 121.257
vt 1 121.257
vt 1 121.257

usemtl GSDWhiteYellowDouble
usemap GSDWhiteYellowDouble
f 5/5/5 1/1/1 3/3/3
f 7/7/7 5/5/5 3/3/3
f 9/9/9 5/5/5 7/7/7
f 11/11/11 9/9/9 7/7/7
f 13/13/13 9/9/9 11/11/11
f 15/15/15 13/13/13 11/11/11
f 17/17/17 13/13/13 15/15/15
f 19/19/19 17/17/17 15/15/15
f 21/21/21 17/17/17 19/19/19
f 23/23/23 21/21/21 19/19/19
f 25/25/25 21/21/21 23/23/23
f 27/27/27 25/25/25 23/23/23
f 29/29/29 25/25/25 27/27/27
f 31/31/31 29/29/29 27/27/27
f 33/33/33 29/29/29 31/31/31
f 35/35/35 33/33/33 31/31/31
f 37/37/37 33/33/33 35/35/35
f 39/39/39 37/37/37 35/35/35
f 41/41/41 37/37/37 39/39/39
f 43/43/43 41/41/41 39/39/39
f 45/45/45 41/41/41 43/43/43
f 47/47/47 45/45/45 43/43/43
f 49/49/49 45/45/45 47/47/47
f 51/51/51 49/49/49 47/47/47
f 53/53/53 49/49/49 51/51/51
f 55/55/55 53/53/53 51/51/51
f 57/57/57 53/53/53 55/55/55
f 59/59/59 57/57/57 55/55/55
f 61/61/61 57/57/57 59/59/59
f 63/63/63 61/61/61 59/59/59
f 65/65/65 61/61/61 63/63/63
f 67/67/67 65/65/65 63/63/63
