mtllib ./Road1_0_118.mtl
g RoadCut59
v -397.1586 34.32089 741.0057
v -397.1586 34.32089 741.0057
v -397.1426 34.32089 751.0057
v -397.1426 34.32089 751.0057
v -392.2057 34.31303 740.9507
v -392.2057 34.31303 740.9507
v -392.0214 34.31303 750.949
v -392.0214 34.31303 750.949
v -387.1424 34.30386 740.8301
v -387.1424 34.30386 740.8301
v -386.8477 34.30386 750.8257
v -386.8477 34.30386 750.8257
v -382.1534 34.29293 740.6537
v -382.1534 34.29293 740.6537
v -381.7413 34.29293 750.6452
v -381.7413 34.29293 750.6452
v -377.1025 34.27767 740.4158
v -377.1025 34.27767 740.4158
v -376.5751 34.27767 750.4018
v -376.5751 34.27767 750.4018
v -372.1081 34.25672 740.1261
v -372.1081 34.25672 740.1261
v -371.4803 34.25672 750.1062
v -371.4803 34.25672 750.1062
v -367.0892 34.22895 739.7889
v -367.0892 34.22895 739.7889
v -366.3793 34.22895 749.7635
v -366.3793 34.22895 749.7635

vn 0.001587328 0.9999988 -2.538329E-06
vn 0 0 0
vn 0.001560668 0.9999988 -1.562802E-05
vn 0 0 0
vn 0.00164446 0.9999987 -2.156633E-05
vn 0 0 0
vn 0.001705854 0.9999986 -3.803561E-05
vn 0 0 0
vn 0.001920971 0.9999982 -4.997652E-05
vn 0 0 0
vn 0.002029195 0.9999979 -6.82219E-05
vn 0 0 0
vn 0.002446156 0.999997 -9.241055E-05
vn 0 0 0
vn 0.002699431 0.9999963 -0.0001228326
vn 0 0 0
vn 0.003375486 0.9999943 -0.0001667008
vn 0 0 0
vn 0.00373552 0.999993 -0.0002111235
vn 0 0 0
vn 0.004594895 0.9999894 -0.0002751262
vn 0 0 0
vn 0.005006784 0.9999875 -0.0003299945
vn 0 0 0
vn 0.005464498 0.999985 -0.0003663413
vn 0 0 0
vn 0.005419065 0.9999852 -0.0003856786
vn 0 0 0

vt 0 0
vt 0 0
vt -0.003198242 2
vt -0.003198242 2
vt -0.9905884 -0.01101074
vt -0.9905884 -0.01101074
vt -1.027441 1.988647
vt -1.027441 1.988647
vt -2.003247 -0.03513184
vt -2.003247 -0.03513184
vt -2.062183 1.963989
vt -2.062183 1.963989
vt -3.00105 -0.07039795
vt -3.00105 -0.07039795
vt -3.08346 1.927893
vt -3.08346 1.927893
vt -4.011212 -0.117981
vt -4.011212 -0.117981
vt -4.116705 1.879211
vt -4.116705 1.879211
vt -5.010095 -0.1759277
vt -5.010095 -0.1759277
vt -5.135669 1.820093
vt -5.135669 1.820093
vt -6.013874 -0.2433716
vt -6.013874 -0.2433716
vt -6.155853 1.75155
vt -6.155853 1.75155

usemtl GSDRoad1
usemap GSDRoad1
f 5/5/5 1/1/1 3/3/3
f 7/7/7 5/5/5 3/3/3
f 9/9/9 5/5/5 7/7/7
f 11/11/11 9/9/9 7/7/7
f 13/13/13 9/9/9 11/11/11
f 15/15/15 13/13/13 11/11/11
f 17/17/17 13/13/13 15/15/15
f 19/19/19 17/17/17 15/15/15
f 21/21/21 17/17/17 19/19/19
f 23/23/23 21/21/21 19/19/19
f 25/25/25 21/21/21 23/23/23
f 27/27/27 25/25/25 23/23/23
