mtllib ./Road1_0_271.mtl
g SCutL62
v -292.171 34.15979 730.1719
v -292.171 34.15979 730.1719
v -291.7994 34.15979 733.208
v -291.7994 34.15979 733.208
v -292.4157 33.46354 728.1727
v -292.4157 33.46354 728.1727
v -292.171 34.15979 730.1719
v -292.171 34.15979 730.1719
v -287.3676 34.34238 729.4921
v -287.3676 34.34238 729.4921
v -286.9024 34.34238 732.5353
v -286.9024 34.34238 732.5353
v -287.6725 33.46354 727.4966
v -287.6725 33.46354 727.4966
v -287.3676 34.34238 729.4921
v -287.3676 34.34238 729.4921
v -282.5196 34.57023 728.6735
v -282.5196 34.57023 728.6735
v -281.9818 34.57023 731.7244
v -281.9818 34.57023 731.7244
v -282.8707 33.55328 726.6812
v -282.8707 33.55328 726.6812
v -282.5196 34.57023 728.6735
v -282.5196 34.57023 728.6735
v -277.7084 34.83036 727.7688
v -277.7084 34.83036 727.7688
v -277.1177 34.83036 730.8253
v -277.1177 34.83036 730.8253
v -278.0929 33.65536 725.7792
v -278.0929 33.65536 725.7792
v -277.7084 34.83036 727.7688
v -277.7084 34.83036 727.7688
v -272.886 35.11689 726.7947
v -272.886 35.11689 726.7947
v -272.2564 35.11689 729.8553
v -272.2564 35.11689 729.8553
v -273.2948 33.79487 724.8074
v -273.2948 33.79487 724.8074
v -272.886 35.11689 726.7947
v -272.886 35.11689 726.7947
v -267.9826 35.42849 725.7554
v -267.9826 35.42849 725.7554
v -267.3253 35.42849 728.8189
v -267.3253 35.42849 728.8189
v -268.4086 33.98654 723.7698
v -268.4086 33.98654 723.7698
v -267.9826 35.42849 725.7554
v -267.9826 35.42849 725.7554
v -263.0446 35.75778 724.6761
v -263.0446 35.75778 724.6761
v -262.3698 35.75778 727.7414
v -262.3698 35.75778 727.7414
v -263.4814 34.21996 722.6917
v -263.4814 34.21996 722.6917
v -263.0446 35.75778 724.6761
v -263.0446 35.75778 724.6761
v -258.1154 36.0975 723.5818
v -258.1154 36.0975 723.5818
v -257.4329 36.0975 726.6479
v -257.4329 36.0975 726.6479
v -258.5569 34.51657 721.5979
v -258.5569 34.51657 721.5979
v -258.1154 36.0975 723.5818
v -258.1154 36.0975 723.5818
v -253.2391 36.44025 722.4979
v -253.2391 36.44025 722.4979
v -252.559 36.44025 725.5641
v -252.559 36.44025 725.5641
v -253.6792 34.71931 720.514
v -253.6792 34.71931 720.514
v -253.2391 36.44025 722.4979
v -253.2391 36.44025 722.4979
v -248.2144 36.79589 721.3971
v -248.2144 36.79589 721.3971
v -247.5482 36.79589 724.4625
v -247.5482 36.79589 724.4625
v -248.6457 35.07999 719.4122
v -248.6457 35.07999 719.4122
v -248.2144 36.79589 721.3971
v -248.2144 36.79589 721.3971

vn -0.03733703 0.9992923 0.004569554
vn 0 0 0
vn -0.03690974 0.9993057 0.005079837
vn 0 0 0
vn -0.04611747 0.9450991 -0.3235133
vn 0 0 0
vn -0.06862675 0.9312855 -0.3577676
vn 0 0 0
vn -0.03987792 0.9991882 0.005721506
vn 0 0 0
vn -0.04241273 0.9990768 0.006837321
vn 0 0 0
vn -0.07369346 0.9264687 -0.3690868
vn 0 0 0
vn -0.09662479 0.908773 -0.4059498
vn 0 0 0
vn -0.04764528 0.9988319 0.008043173
vn 0 0 0
vn -0.04957373 0.9987297 0.00903109
vn 0 0 0
vn -0.1004968 0.9010501 -0.4219114
vn 0 0 0
vn -0.118626 0.8836001 -0.4529666
vn 0 0 0
vn -0.05363793 0.9985097 0.0100723
vn 0 0 0
vn -0.055058 0.9984239 0.01087608
vn 0 0 0
vn -0.1213862 0.8741927 -0.4701621
vn 0 0 0
vn -0.1393179 0.8553621 -0.498945
vn 0 0 0
vn -0.05814327 0.9982393 0.01172573
vn 0 0 0
vn -0.05922941 0.9981679 0.01236301
vn 0 0 0
vn -0.1417107 0.846319 -0.5134804
vn 0 0 0
vn -0.1568123 0.8295054 -0.5360324
vn 0 0 0
vn -0.06156682 0.9980179 0.01303114
vn 0 0 0
vn -0.06240089 0.9979597 0.01350707
vn 0 0 0
vn -0.1584163 0.8221247 -0.5468227
vn 0 0 0
vn -0.1698609 0.8084647 -0.5634999
vn 0 0 0
vn -0.06413312 0.9978431 0.01400073
vn 0 0 0
vn -0.06475566 0.9977985 0.01430927
vn 0 0 0
vn -0.1722198 0.8025053 -0.5712491
vn 0 0 0
vn -0.1801684 0.7936772 -0.5810472
vn 0 0 0
vn -0.0659337 0.9977168 0.01462275
vn 0 0 0
vn -0.06636692 0.9976861 0.01475524
vn 0 0 0
vn -0.1751938 0.7912394 -0.5858732
vn 0 0 0
vn -0.1802161 0.7797578 -0.5995832
vn 0 0 0
vn -0.06700866 0.9976414 0.0148803
vn 0 0 0
vn -0.06726105 0.9976254 0.01481689
vn 0 0 0
vn -0.1821652 0.7709185 -0.6103281
vn 0 0 0
vn -0.1901906 0.7623276 -0.6186148
vn 0 0 0
vn -0.06745541 0.9976124 0.01481032
vn 0 0 0
vn -0.06757553 0.9976062 0.01468456
vn 0 0 0
vn -0.1897604 0.7624531 -0.6185921
vn 0 0 0
vn -0.1894391 0.7627977 -0.6182658
vn 0 0 0

vt 0 0
vt 0 0
vt -0.0743164 0.6072266
vt -0.0743164 0.6072266
vt 0.04893189 -0.3998291
vt 0.04893189 -0.3998291
vt 0 0
vt 0 0
vt -0.9606934 -0.1359619
vt -0.9606934 -0.1359619
vt -1.053717 0.4726929
vt -1.053717 0.4726929
vt -0.8997009 -0.5350586
vt -0.8997009 -0.5350586
vt -0.9606934 -0.1359619
vt -0.9606934 -0.1359619
vt -1.930292 -0.2996826
vt -1.930292 -0.2996826
vt -2.037842 0.3105102
vt -2.037842 0.3105102
vt -1.860059 -0.6981446
vt -1.860059 -0.6981446
vt -1.930292 -0.2996826
vt -1.930292 -0.2996826
vt -2.892529 -0.4806152
vt -2.892529 -0.4806152
vt -3.010669 0.1306885
vt -3.010669 0.1306885
vt -2.815625 -0.8785278
vt -2.815625 -0.8785278
vt -2.892529 -0.4806152
vt -2.892529 -0.4806152
vt -3.857013 -0.6754395
vt -3.857013 -0.6754395
vt -3.982922 -0.06331787
vt -3.982922 -0.06331787
vt -3.77525 -1.0729
vt -3.77525 -1.0729
vt -3.857013 -0.6754395
vt -3.857013 -0.6754395
vt -4.837689 -0.8832886
vt -4.837689 -0.8832886
vt -4.969147 -0.2705933
vt -4.969147 -0.2705933
vt -4.752478 -1.28042
vt -4.752478 -1.28042
vt -4.837689 -0.8832886
vt -4.837689 -0.8832886
vt -5.825287 -1.099158
vt -5.825287 -1.099158
vt -5.960254 -0.4860962
vt -5.960254 -0.4860962
vt -5.737915 -1.496045
vt -5.737915 -1.496045
vt -5.825287 -1.099158
vt -5.825287 -1.099158
vt -6.811127 -1.318018
vt -6.811127 -1.318018
vt -6.947626 -0.7047852
vt -6.947626 -0.7047852
vt -6.722815 -1.714795
vt -6.722815 -1.714795
vt -6.811127 -1.318018
vt -6.811127 -1.318018
vt -7.786386 -1.53479
vt -7.786386 -1.53479
vt -7.922406 -0.9215576
vt -7.922406 -0.9215576
vt -7.69837 -1.93158
vt -7.69837 -1.93158
vt -7.786386 -1.53479
vt -7.786386 -1.53479
vt -8.791333 -1.754956
vt -8.791333 -1.754956
vt -8.924558 -1.141882
vt -8.924558 -1.141882
vt -8.70507 -2.151929
vt -8.70507 -2.151929
vt -8.791333 -1.754956
vt -8.791333 -1.754956

usemtl GSDShoulder1
usemap GSDShoulder1
f 9/9/9 1/1/1 3/3/3
f 11/11/11 9/9/9 3/3/3
f 13/13/13 5/5/5 7/7/7
f 15/15/15 13/13/13 7/7/7
f 17/17/17 9/9/9 11/11/11
f 19/19/19 17/17/17 11/11/11
f 21/21/21 13/13/13 15/15/15
f 23/23/23 21/21/21 15/15/15
f 25/25/25 17/17/17 19/19/19
f 27/27/27 25/25/25 19/19/19
f 29/29/29 21/21/21 23/23/23
f 31/31/31 29/29/29 23/23/23
f 33/33/33 25/25/25 27/27/27
f 35/35/35 33/33/33 27/27/27
f 37/37/37 29/29/29 31/31/31
f 39/39/39 37/37/37 31/31/31
f 41/41/41 33/33/33 35/35/35
f 43/43/43 41/41/41 35/35/35
f 45/45/45 37/37/37 39/39/39
f 47/47/47 45/45/45 39/39/39
f 49/49/49 41/41/41 43/43/43
f 51/51/51 49/49/49 43/43/43
f 53/53/53 45/45/45 47/47/47
f 55/55/55 53/53/53 47/47/47
f 57/57/57 49/49/49 51/51/51
f 59/59/59 57/57/57 51/51/51
f 61/61/61 53/53/53 55/55/55
f 63/63/63 61/61/61 55/55/55
f 65/65/65 57/57/57 59/59/59
f 67/67/67 65/65/65 59/59/59
f 69/69/69 61/61/61 63/63/63
f 71/71/71 69/69/69 63/63/63
f 73/73/73 65/65/65 67/67/67
f 75/75/75 73/73/73 67/67/67
f 77/77/77 69/69/69 71/71/71
f 79/79/79 77/77/77 71/71/71
