mtllib ./Road1_0_19.mtl
g Markers9
v -820.3624 84.86854 513.3824
v -820.3624 84.86854 513.3824
v -811.6926 84.86854 508.3999
v -811.6926 84.86854 508.3999
v -822.9446 84.86282 508.5049
v -822.9446 84.86282 508.5049
v -813.8962 84.86282 504.2489
v -813.8962 84.86282 504.2489
v -825.0275 84.75314 503.4209
v -825.0275 84.75314 503.4209
v -815.6094 84.75314 500.0738
v -815.6094 84.75314 500.0738
v -826.6478 84.55058 498.1555
v -826.6478 84.55058 498.1555
v -816.9937 84.55058 495.5924
v -816.9937 84.55058 495.5924
v -827.8571 84.27314 492.8755
v -827.8571 84.27314 492.8755
v -818.0638 84.27314 490.9455
v -818.0638 84.27314 490.9455
v -828.7476 83.93581 487.6194
v -828.7476 83.93581 487.6194
v -818.8771 83.93581 486.1821
v -818.8771 83.93581 486.1821
v -829.3984 83.55215 482.4192
v -829.3984 83.55215 482.4192
v -819.4878 83.55215 481.3496
v -819.4878 83.55215 481.3496
v -829.8766 83.1343 477.3022
v -829.8766 83.1343 477.3022
v -819.9469 83.1343 476.491
v -819.9469 83.1343 476.491
v -830.2474 82.68113 472.1612
v -830.2474 82.68113 472.1612
v -820.3103 82.68113 471.5154
v -820.3103 82.68113 471.5154
v -830.5485 82.21307 467.1505
v -830.5485 82.21307 467.1505
v -820.6104 82.21307 466.5809
v -820.6104 82.21307 466.5809
v -830.8311 81.72606 462.1595
v -830.8311 81.72606 462.1595
v -820.8961 81.72606 461.5847
v -820.8961 81.72606 461.5847
v -831.1346 81.22744 457.2119
v -831.1346 81.22744 457.2119
v -821.2068 81.22744 456.5508
v -821.2068 81.22744 456.5508
v -831.4974 80.72431 452.3301
v -831.4974 80.72431 452.3301
v -821.583 80.72431 451.5004
v -821.583 80.72431 451.5004
v -831.9705 80.21091 447.4147
v -831.9705 80.21091 447.4147
v -822.0812 80.21091 446.323
v -822.0812 80.21091 446.323
v -832.5836 79.70827 442.6224
v -832.5836 79.70827 442.6224
v -822.7386 79.70827 441.174
v -822.7386 79.70827 441.174
v -833.397 79.21207 437.8632
v -833.397 79.21207 437.8632
v -823.6295 79.21207 435.9451
v -823.6295 79.21207 435.9451
v -834.434 78.7438 433.2908
v -834.434 78.7438 433.2908
v -824.7936 78.7438 430.7933
v -824.7936 78.7438 430.7933
v -835.7655 78.30165 428.8262
v -835.7655 78.30165 428.8262
v -826.3303 78.30165 425.6209
v -826.3303 78.30165 425.6209

vn -0.0005169294 0.9999994 -0.0008994696
vn 0 0 0
vn -0.0005178028 0.9999993 -0.0009930668
vn 0 0 0
vn -0.003310712 0.9999703 -0.006968556
vn 0 0 0
vn -0.005843327 0.9998829 -0.01414222
vn 0 0 0
vn -0.009754365 0.9996305 -0.0253758
vn 0 0 0
vn -0.01064308 0.9993883 -0.03331352
vn 0 0 0
vn -0.01222855 0.9990461 -0.0419207
vn 0 0 0
vn -0.01187851 0.9987059 -0.04945128
vn 0 0 0
vn -0.01223545 0.9983508 -0.05608865
vn 0 0 0
vn -0.01119821 0.997973 -0.06264643
vn 0 0 0
vn -0.01095629 0.9976481 -0.06766101
vn 0 0 0
vn -0.009682472 0.9972789 -0.07308367
vn 0 0 0
vn -0.009237468 0.9969941 -0.07692418
vn 0 0 0
vn -0.008034395 0.9966637 -0.08122128
vn 0 0 0
vn -0.007601934 0.9964122 -0.08429202
vn 0 0 0
vn -0.006651653 0.996138 -0.0875493
vn 0 0 0
vn -0.006347951 0.9959173 -0.09004751
vn 0 0 0
vn -0.005762358 0.995711 -0.09233764
vn 0 0 0
vn -0.005656099 0.9955071 -0.09451782
vn 0 0 0
vn -0.005513185 0.995378 -0.09587615
vn 0 0 0
vn -0.00564158 0.9951899 -0.0978011
vn 0 0 0
vn -0.005973388 0.9951432 -0.09825668
vn 0 0 0
vn -0.00636978 0.9949654 -0.1000165
vn 0 0 0
vn -0.00719696 0.9950071 -0.09954382
vn 0 0 0
vn -0.007893655 0.9948375 -0.1011737
vn 0 0 0
vn -0.00923502 0.9949752 -0.09969494
vn 0 0 0
vn -0.01025435 0.9948217 -0.1011167
vn 0 0 0
vn -0.01207068 0.995061 -0.09852904
vn 0 0 0
vn -0.01343782 0.994927 -0.0996978
vn 0 0 0
vn -0.01565759 0.9952742 -0.09583429
vn 0 0 0
vn -0.01733492 0.995178 -0.09654169
vn 0 0 0
vn -0.01977752 0.9956295 -0.09127223
vn 0 0 0
vn -0.02169093 0.9955876 -0.09129679
vn 0 0 0
vn -0.02408308 0.9961333 -0.08448867
vn 0 0 0
vn -0.02509408 0.9961548 -0.08393987
vn 0 0 0
vn -0.02628921 0.9966546 -0.07738633
vn 0 0 0

vt 0 171.7785
vt 0 0
vt 1 171.7785
vt 0 0
vt 0 172.8822
vt 0 172.8822
vt 1 172.8822
vt 1 172.8822
vt 0 173.9813
vt 0 173.9813
vt 1 173.9813
vt 1 173.9813
vt 0 175.0838
vt 0 175.0838
vt 1 175.0838
vt 1 175.0838
vt 0 176.1686
vt 0 176.1686
vt 1 176.1686
vt 1 176.1686
vt 0 177.2369
vt 0 177.2369
vt 1 177.2369
vt 1 177.2369
vt 0 178.2879
vt 0 178.2879
vt 1 178.2879
vt 1 178.2879
vt 0 179.3191
vt 0 179.3191
vt 1 179.3191
vt 1 179.3191
vt 0 180.354
vt 0 180.354
vt 1 180.354
vt 1 180.354
vt 0 181.3623
vt 0 181.3623
vt 1 181.3623
vt 1 181.3623
vt 0 182.3668
vt 0 182.3668
vt 1 182.3668
vt 1 182.3668
vt 0 183.3632
vt 0 183.3632
vt 1 183.3632
vt 1 183.3632
vt 0 184.3474
vt 0 184.3474
vt 1 184.3474
vt 1 184.3474
vt 0 185.3404
vt 0 185.3404
vt 1 185.3404
vt 1 185.3404
vt 0 186.3119
vt 0 186.3119
vt 1 186.3119
vt 1 186.3119
vt 0 187.2826
vt 0 187.2826
vt 1 187.2826
vt 1 187.2826
vt 0 188.225
vt 0 188.225
vt 1 188.225
vt 1 188.225
vt 0 189.1609
vt 0 0
vt 1 189.1609
vt 0 0

usemtl GSDWhiteYellowDouble
usemap GSDWhiteYellowDouble
f 5/5/5 1/1/1 3/3/3
f 7/7/7 5/5/5 3/3/3
f 9/9/9 5/5/5 7/7/7
f 11/11/11 9/9/9 7/7/7
f 13/13/13 9/9/9 11/11/11
f 15/15/15 13/13/13 11/11/11
f 17/17/17 13/13/13 15/15/15
f 19/19/19 17/17/17 15/15/15
f 21/21/21 17/17/17 19/19/19
f 23/23/23 21/21/21 19/19/19
f 25/25/25 21/21/21 23/23/23
f 27/27/27 25/25/25 23/23/23
f 29/29/29 25/25/25 27/27/27
f 31/31/31 29/29/29 27/27/27
f 33/33/33 29/29/29 31/31/31
f 35/35/35 33/33/33 31/31/31
f 37/37/37 33/33/33 35/35/35
f 39/39/39 37/37/37 35/35/35
f 41/41/41 37/37/37 39/39/39
f 43/43/43 41/41/41 39/39/39
f 45/45/45 41/41/41 43/43/43
f 47/47/47 45/45/45 43/43/43
f 49/49/49 45/45/45 47/47/47
f 51/51/51 49/49/49 47/47/47
f 53/53/53 49/49/49 51/51/51
f 55/55/55 53/53/53 51/51/51
f 57/57/57 53/53/53 55/55/55
f 59/59/59 57/57/57 55/55/55
f 61/61/61 57/57/57 59/59/59
f 63/63/63 61/61/61 59/59/59
f 65/65/65 61/61/61 63/63/63
f 67/67/67 65/65/65 63/63/63
f 69/69/69 65/65/65 67/67/67
f 71/71/71 69/69/69 67/67/67
