mtllib ./Road1_0_180.mtl
g SCutR41
v -881.4131 1.215887 788.0901
v -881.4131 1.215887 788.0901
v -878.4115 1.215887 787.2981
v -878.4115 1.215887 787.2981
v -878.4115 1.215887 787.2981
v -878.4115 1.215887 787.2981
v -876.4536 0.1935484 786.7816
v -876.4536 0.1935484 786.7816
v -882.3699 1.458725 783.7079
v -882.3699 1.458725 783.7079
v -879.2861 1.458725 783.2228
v -879.2861 1.458725 783.2228
v -879.2861 1.458725 783.2228
v -879.2861 1.458725 783.2228
v -877.2821 0.339541 782.9075
v -877.2821 0.339541 782.9075
v -882.8215 1.758173 779.1991
v -882.8215 1.758173 779.1991
v -879.6847 1.758173 779.0556
v -879.6847 1.758173 779.0556
v -879.6847 1.758173 779.0556
v -879.6847 1.758173 779.0556
v -877.6543 0.339541 778.9628
v -877.6543 0.339541 778.9628
v -882.8188 2.095788 774.6306
v -882.8188 2.095788 774.6306
v -879.6686 2.095788 774.7704
v -879.6686 2.095788 774.7704
v -879.6686 2.095788 774.7704
v -879.6686 2.095788 774.7704
v -877.6354 0.5241325 774.8606
v -877.6354 0.5241325 774.8606
v -882.434 2.470185 769.9089
v -882.434 2.470185 769.9089
v -879.2932 2.470185 770.2729
v -879.2932 2.470185 770.2729
v -879.2932 2.470185 770.2729
v -879.2932 2.470185 770.2729
v -877.2699 0.7093716 770.5075
v -877.2699 0.7093716 770.5075
v -881.7618 2.860302 765.1979
v -881.7618 2.860302 765.1979
v -878.6397 2.860302 765.718
v -878.6397 2.860302 765.718
v -878.6397 2.860302 765.718
v -878.6397 2.860302 765.718
v -876.6301 0.8866653 766.0527
v -876.6301 0.8866653 766.0527
v -880.8865 3.263918 760.4175
v -880.8865 3.263918 760.4175
v -877.7824 3.263918 761.0266
v -877.7824 3.263918 761.0266
v -877.7824 3.263918 761.0266
v -877.7824 3.263918 761.0266
v -875.7839 1.215537 761.4186
v -875.7839 1.215537 761.4186
v -879.8972 3.677196 755.4923
v -879.8972 3.677196 755.4923
v -876.8036 3.677196 756.1135
v -876.8036 3.677196 756.1135
v -876.8036 3.677196 756.1135
v -876.8036 3.677196 756.1135
v -874.8088 1.440709 756.514
v -874.8088 1.440709 756.514
v -878.9249 4.090656 750.3523
v -878.9249 4.090656 750.3523
v -875.8292 4.090656 750.8796
v -875.8292 4.090656 750.8796
v -875.8292 4.090656 750.8796
v -875.8292 4.090656 750.8796
v -873.8269 2.132448 751.2206
v -873.8269 2.132448 751.2206

vn 0.013805 0.998535 0.05231982
vn 0 0 0
vn 0.01150998 0.9984286 0.05484308
vn 0 0 0
vn 0.45322 0.8903016 -0.04421125
vn 0 0 0
vn 0.4655414 0.8832186 -0.05653607
vn 0 0 0
vn 0.011081 0.9982304 0.05842459
vn 0 0 0
vn 0.007589051 0.9978722 0.06475616
vn 0 0 0
vn 0.4740504 0.8799254 -0.03174185
vn 0 0 0
vn 0.5144103 0.8568211 -0.03521241
vn 0 0 0
vn 0.005678126 0.9975244 0.07009064
vn 0 0 0
vn 0.001076215 0.9972172 0.07454432
vn 0 0 0
vn 0.5466359 0.8372969 0.01109885
vn 0 0 0
vn 0.5858094 0.8102283 0.01890762
vn 0 0 0
vn -0.001191875 0.9970309 0.07699311
vn 0 0 0
vn -0.005507257 0.9967936 0.07982616
vn 0 0 0
vn 0.5965691 0.7990395 0.07510784
vn 0 0 0
vn 0.6218048 0.778887 0.08181605
vn 0 0 0
vn -0.007451934 0.9967117 0.08068576
vn 0 0 0
vn -0.01093323 0.996554 0.08222408
vn 0 0 0
vn 0.630864 0.7664986 0.1203768
vn 0 0 0
vn 0.6577455 0.7429659 0.123986
vn 0 0 0
vn -0.01229212 0.9965526 0.08204681
vn 0 0 0
vn -0.01457591 0.9964786 0.08257159
vn 0 0 0
vn 0.6658341 0.7294939 0.156537
vn 0 0 0
vn 0.6817479 0.7131709 0.1631172
vn 0 0 0
vn -0.0152079 0.9965488 0.08160302
vn 0 0 0
vn -0.01606614 0.9965642 0.08125082
vn 0 0 0
vn 0.681263 0.7081796 0.1853707
vn 0 0 0
vn 0.6973525 0.6933307 0.1816368
vn 0 0 0
vn -0.0158228 0.9967164 0.07941072
vn 0 0 0
vn -0.01487341 0.9968406 0.07802434
vn 0 0 0
vn 0.7069414 0.682607 0.1851527
vn 0 0 0
vn 0.7004196 0.6873038 0.192421
vn 0 0 0
vn -0.01424909 0.9969451 0.07679411
vn 0 0 0
vn -0.01300232 0.9969972 0.07633877
vn 0 0 0
vn 0.6911142 0.6941451 0.201305
vn 0 0 0
vn 0.6634796 0.7161396 0.2166537
vn 0 0 0

vt 0 0
vt 0 0
vt -0.6003174 -0.1583984
vt -0.6003174 -0.1583984
vt -0.6003174 -0.1583984
vt -0.6003174 -0.1583984
vt -0.9918945 -0.2617066
vt -0.9918945 -0.2617066
vt 0.1913696 -0.8764282
vt 0.1913696 -0.8764282
vt -0.4254028 -0.9734619
vt -0.4254028 -0.9734619
vt -0.4254028 -0.9734619
vt -0.4254028 -0.9734619
vt -0.8261963 -1.036511
vt -0.8261963 -1.036511
vt 0.2816772 -1.778198
vt 0.2816772 -1.778198
vt -0.3456787 -1.806897
vt -0.3456787 -1.806897
vt -0.3456787 -1.806897
vt -0.3456787 -1.806897
vt -0.7517578 -1.825464
vt -0.7517578 -1.825464
vt 0.2811401 -2.691907
vt 0.2811401 -2.691907
vt -0.3489014 -2.66394
vt -0.3489014 -2.66394
vt -0.3489014 -2.66394
vt -0.3489014 -2.66394
vt -0.755542 -2.645899
vt -0.755542 -2.645899
vt 0.2041748 -3.636243
vt 0.2041748 -3.636243
vt -0.4239746 -3.563428
vt -0.4239746 -3.563428
vt -0.4239746 -3.563428
vt -0.4239746 -3.563428
vt -0.8286377 -3.516516
vt -0.8286377 -3.516516
vt 0.06975098 -4.578443
vt 0.06975098 -4.578443
vt -0.5546753 -4.474426
vt -0.5546753 -4.474426
vt -0.5546753 -4.474426
vt -0.5546753 -4.474426
vt -0.956604 -4.407483
vt -0.956604 -4.407483
vt -0.1053223 -5.534509
vt -0.1053223 -5.534509
vt -0.7261353 -5.412708
vt -0.7261353 -5.412708
vt -0.7261353 -5.412708
vt -0.7261353 -5.412708
vt -1.125842 -5.33429
vt -1.125842 -5.33429
vt -0.3031738 -6.519556
vt -0.3031738 -6.519556
vt -0.9218994 -6.395325
vt -0.9218994 -6.395325
vt -0.9218994 -6.395325
vt -0.9218994 -6.395325
vt -1.320862 -6.31521
vt -1.320862 -6.31521
vt -0.4976318 -7.547559
vt -0.4976318 -7.547559
vt -1.116785 -7.442102
vt -1.116785 -7.442102
vt -1.116785 -7.442102
vt -1.116785 -7.442102
vt -1.517236 -7.373889
vt -1.517236 -7.373889

usemtl GSDShoulder1
usemap GSDShoulder1
f 9/9/9 1/1/1 3/3/3
f 11/11/11 9/9/9 3/3/3
f 13/13/13 5/5/5 7/7/7
f 15/15/15 13/13/13 7/7/7
f 17/17/17 9/9/9 11/11/11
f 19/19/19 17/17/17 11/11/11
f 21/21/21 13/13/13 15/15/15
f 23/23/23 21/21/21 15/15/15
f 25/25/25 17/17/17 19/19/19
f 27/27/27 25/25/25 19/19/19
f 29/29/29 21/21/21 23/23/23
f 31/31/31 29/29/29 23/23/23
f 33/33/33 25/25/25 27/27/27
f 35/35/35 33/33/33 27/27/27
f 37/37/37 29/29/29 31/31/31
f 39/39/39 37/37/37 31/31/31
f 41/41/41 33/33/33 35/35/35
f 43/43/43 41/41/41 35/35/35
f 45/45/45 37/37/37 39/39/39
f 47/47/47 45/45/45 39/39/39
f 49/49/49 41/41/41 43/43/43
f 51/51/51 49/49/49 43/43/43
f 53/53/53 45/45/45 47/47/47
f 55/55/55 53/53/53 47/47/47
f 57/57/57 49/49/49 51/51/51
f 59/59/59 57/57/57 51/51/51
f 61/61/61 53/53/53 55/55/55
f 63/63/63 61/61/61 55/55/55
f 65/65/65 57/57/57 59/59/59
f 67/67/67 65/65/65 59/59/59
f 69/69/69 61/61/61 63/63/63
f 71/71/71 69/69/69 63/63/63
