mtllib ./Road1_0_194.mtl
g SCutR55
v -534.2719 34.59986 747.6511
v -534.2719 34.59986 747.6511
v -534.4474 34.59986 750.6744
v -534.4474 34.59986 750.6744
v -534.4474 34.59986 750.6744
v -534.4474 34.59986 750.6744
v -534.5636 33.98699 752.678
v -534.5636 33.98699 752.678
v -529.1911 34.65067 747.9061
v -529.1911 34.65067 747.9061
v -529.3229 34.65067 750.9031
v -529.3229 34.65067 750.9031
v -529.3229 34.65067 750.9031
v -529.3229 34.65067 750.9031
v -529.4108 33.98699 752.9012
v -529.4108 33.98699 752.9012
v -524.0325 34.66335 748.1075
v -524.0325 34.66335 748.1075
v -524.1362 34.66335 751.1057
v -524.1362 34.66335 751.1057
v -524.1362 34.66335 751.1057
v -524.1362 34.66335 751.1057
v -524.2053 34.02899 753.1045
v -524.2053 34.02899 753.1045
v -518.93 34.64745 748.2658
v -518.93 34.64745 748.2658
v -519.0137 34.64745 751.2646
v -519.0137 34.64745 751.2646
v -519.0137 34.64745 751.2646
v -519.0137 34.64745 751.2646
v -519.0695 34.14016 753.2638
v -519.0695 34.14016 753.2638
v -513.8098 34.61148 748.3961
v -513.8098 34.61148 748.3961
v -513.88 34.61148 751.3951
v -513.88 34.61148 751.3951
v -513.88 34.61148 751.3951
v -513.88 34.61148 751.3951
v -513.9268 34.12718 753.3945
v -513.9268 34.12718 753.3945
v -508.7252 34.56323 748.5081
v -508.7252 34.56323 748.5081
v -508.7881 34.56323 751.5072
v -508.7881 34.56323 751.5072
v -508.7881 34.56323 751.5072
v -508.7881 34.56323 751.5072
v -508.83 34.08701 753.5067
v -508.83 34.08701 753.5067
v -503.606 34.50913 748.6135
v -503.606 34.50913 748.6135
v -503.6677 34.50913 751.6127
v -503.6677 34.50913 751.6127
v -503.6677 34.50913 751.6127
v -503.6677 34.50913 751.6127
v -503.7088 34.03994 753.6121
v -503.7088 34.03994 753.6121
v -498.5215 34.45753 748.7219
v -498.5215 34.45753 748.7219
v -498.589 34.45753 751.7209
v -498.589 34.45753 751.7209
v -498.589 34.45753 751.7209
v -498.589 34.45753 751.7209
v -498.6339 34.01986 753.7203
v -498.6339 34.01986 753.7203
v -493.4374 34.41739 748.8474
v -493.4374 34.41739 748.8474
v -493.5197 34.41739 751.8461
v -493.5197 34.41739 751.8461
v -493.5197 34.41739 751.8461
v -493.5197 34.41739 751.8461
v -493.5746 33.99806 753.8453
v -493.5746 33.99806 753.8453

vn -0.00996893 0.9999501 -0.0005785944
vn 0 0 0
vn -0.009931139 0.9999506 -0.0005068315
vn 0 0 0
vn -0.02247846 0.9563855 0.291241
vn 0 0 0
vn -0.01803246 0.9528099 0.3030316
vn 0 0 0
vn -0.0074294 0.9999724 -0.0003733521
vn 0 0 0
vn -0.004915052 0.999988 -0.000208407
vn 0 0 0
vn -0.01688293 0.9515833 0.3069269
vn 0 0 0
vn -0.01590911 0.9504833 0.3103683
vn 0 0 0
vn -0.0006118239 0.9999999 -2.885532E-05
vn 0 0 0
vn 0.00123907 0.9999993 3.596399E-05
vn 0 0 0
vn -0.01354089 0.9518447 0.3062814
vn 0 0 0
vn -0.01812509 0.9588079 0.2834765
vn 0 0 0
vn 0.004412113 0.9999902 0.000130013
vn 0 0 0
vn 0.005707784 0.9999837 0.0001488018
vn 0 0 0
vn -0.01147151 0.9642463 0.2647591
vn 0 0 0
vn -0.01053236 0.9701785 0.2421626
vn 0 0 0
vn 0.00783036 0.9999694 0.0001939209
vn 0 0 0
vn 0.008647528 0.9999626 0.0001948389
vn 0 0 0
vn 0.0003318025 0.9710305 0.2389555
vn 0 0 0
vn 0.001006331 0.9721873 0.234202
vn 0 0 0
vn 0.009841368 0.9999515 0.0002141235
vn 0 0 0
vn 0.01020011 0.999948 0.000212439
vn 0 0 0
vn 0.00403506 0.9724647 0.2330153
vn 0 0 0
vn 0.004106877 0.9730182 0.2306919
vn 0 0 0
vn 0.0104233 0.9999456 0.0002157137
vn 0 0 0
vn 0.01028685 0.9999471 0.0002179618
vn 0 0 0
vn 0.00492111 0.9732653 0.229631
vn 0 0 0
vn 0.002864118 0.9746609 0.223669
vn 0 0 0
vn 0.009395553 0.9999558 0.0002047464
vn 0 0 0
vn 0.008652432 0.9999626 0.0002076341
vn 0 0 0
vn 0.002262707 0.9757724 0.2187759
vn 0 0 0
vn 0.0003026525 0.9774855 0.2110023
vn 0 0 0
vn 0.007901287 0.9999688 0.0001972729
vn 0 0 0
vn 0.007912382 0.9999686 0.000217167
vn 0 0 0
vn 0.0008025349 0.9777898 0.2095865
vn 0 0 0
vn -0.0008540225 0.978707 0.2052608
vn 0 0 0

vt 0 0
vt 0 0
vt 0.03509521 0.6046753
vt 0.03509521 0.6046753
vt 0.03509521 0.6046753
vt 0.03509521 0.6046753
vt 0.0583374 1.005396
vt 0.0583374 1.005396
vt -1.016162 0.05100098
vt -1.016162 0.05100098
vt -0.9898071 0.6504151
vt -0.9898071 0.6504151
vt -0.9898071 0.6504151
vt -0.9898071 0.6504151
vt -0.972229 1.050024
vt -0.972229 1.050024
vt -2.047876 0.09128418
vt -2.047876 0.09128418
vt -2.027148 0.6909302
vt -2.027148 0.6909302
vt -2.027148 0.6909302
vt -2.027148 0.6909302
vt -2.01333 1.090686
vt -2.01333 1.090686
vt -3.068384 0.1229492
vt -3.068384 0.1229492
vt -3.051648 0.7227051
vt -3.051648 0.7227051
vt -3.051648 0.7227051
vt -3.051648 0.7227051
vt -3.040491 1.122546
vt -3.040491 1.122546
vt -4.092432 0.1490112
vt -4.092432 0.1490112
vt -4.078382 0.748816
vt -4.078382 0.748816
vt -4.078382 0.748816
vt -4.078382 0.748816
vt -4.069019 1.148694
vt -4.069019 1.148694
vt -5.109344 0.1713989
vt -5.109344 0.1713989
vt -5.096765 0.771228
vt -5.096765 0.771228
vt -5.096765 0.771228
vt -5.096765 0.771228
vt -5.088379 1.171118
vt -5.088379 1.171118
vt -6.133179 0.1924805
vt -6.133179 0.1924805
vt -6.12085 0.7923218
vt -6.12085 0.7923218
vt -6.12085 0.7923218
vt -6.12085 0.7923218
vt -6.112628 1.192212
vt -6.112628 1.192212
vt -7.150079 0.2141602
vt -7.150079 0.2141602
vt -7.13659 0.8139771
vt -7.13659 0.8139771
vt -7.13659 0.8139771
vt -7.13659 0.8139771
vt -7.1276 1.213855
vt -7.1276 1.213855
vt -8.166901 0.2392578
vt -8.166901 0.2392578
vt -8.150439 0.8390137
vt -8.150439 0.8390137
vt -8.150439 0.8390137
vt -8.150439 0.8390137
vt -8.139472 1.238855
vt -8.139472 1.238855

usemtl GSDShoulder1
usemap GSDShoulder1
f 9/9/9 1/1/1 3/3/3
f 11/11/11 9/9/9 3/3/3
f 13/13/13 5/5/5 7/7/7
f 15/15/15 13/13/13 7/7/7
f 17/17/17 9/9/9 11/11/11
f 19/19/19 17/17/17 11/11/11
f 21/21/21 13/13/13 15/15/15
f 23/23/23 21/21/21 15/15/15
f 25/25/25 17/17/17 19/19/19
f 27/27/27 25/25/25 19/19/19
f 29/29/29 21/21/21 23/23/23
f 31/31/31 29/29/29 23/23/23
f 33/33/33 25/25/25 27/27/27
f 35/35/35 33/33/33 27/27/27
f 37/37/37 29/29/29 31/31/31
f 39/39/39 37/37/37 31/31/31
f 41/41/41 33/33/33 35/35/35
f 43/43/43 41/41/41 35/35/35
f 45/45/45 37/37/37 39/39/39
f 47/47/47 45/45/45 39/39/39
f 49/49/49 41/41/41 43/43/43
f 51/51/51 49/49/49 43/43/43
f 53/53/53 45/45/45 47/47/47
f 55/55/55 53/53/53 47/47/47
f 57/57/57 49/49/49 51/51/51
f 59/59/59 57/57/57 51/51/51
f 61/61/61 53/53/53 55/55/55
f 63/63/63 61/61/61 55/55/55
f 65/65/65 57/57/57 59/59/59
f 67/67/67 65/65/65 59/59/59
f 69/69/69 61/61/61 63/63/63
f 71/71/71 69/69/69 63/63/63
