mtllib ./Road1_0_7.mtl
g Markers3
v -305.984 65.1258 574.942
v -305.984 65.1258 574.942
v -310.7382 65.1258 566.1542
v -310.7382 65.1258 566.1542
v -310.6721 65.29027 577.3784
v -310.6721 65.29027 577.3784
v -315.2489 65.29027 568.4897
v -315.2489 65.29027 568.4897
v -315.1231 65.32996 579.6831
v -315.1231 65.32996 579.6831
v -319.7343 65.32996 570.8099
v -319.7343 65.32996 570.8099
v -319.6559 65.20954 582.0356
v -319.6559 65.20954 582.0356
v -324.2593 65.20954 573.1685
v -324.2593 65.20954 573.1685
v -324.2269 64.87382 584.3653
v -324.2269 64.87382 584.3653
v -328.7145 64.87382 575.4756
v -328.7145 64.87382 575.4756
v -328.962 64.25903 586.6227
v -328.962 64.25903 586.6227
v -333.0827 64.25903 577.6365
v -333.0827 64.25903 577.6365
v -333.9835 63.35987 588.6544
v -333.9835 63.35987 588.6544
v -337.3114 63.35987 579.4329
v -337.3114 63.35987 579.4329
v -339.2671 62.35049 590.239
v -339.2671 62.35049 590.239
v -341.5451 62.35049 580.6896
v -341.5451 62.35049 580.6896
v -344.5559 61.51162 591.2952
v -344.5559 61.51162 591.2952
v -346.047 61.51162 581.5035
v -346.047 61.51162 581.5035
v -349.784 60.95948 591.9971
v -349.784 60.95948 591.9971
v -350.8715 60.95948 582.0889
v -350.8715 60.95948 582.0889
v -354.8739 60.67372 592.5177
v -354.8739 60.67372 592.5177
v -355.7919 60.67372 582.5662
v -355.7919 60.67372 582.5662
v -360.0371 60.58466 592.9775
v -360.0371 60.58466 592.9775
v -360.893 60.58466 583.0142
v -360.893 60.58466 583.0142
v -365.0549 60.64526 593.4029
v -365.0549 60.64526 593.4029
v -365.8995 60.64526 583.4415
v -365.8995 60.64526 583.4415

vn 0.02737009 0.9995157 -0.01480699
vn 0 0 0
vn 0.02805732 0.9994966 -0.01481076
vn 0 0 0
vn 0.02120718 0.9997128 -0.01116499
vn 0 0 0
vn 0.01431063 0.9998704 -0.007379752
vn 0 0 0
vn -0.002396687 0.9999963 0.001256609
vn 0 0 0
vn -0.01169387 0.9999132 0.006073452
vn 0 0 0
vn -0.03332867 0.9992946 0.01730662
vn 0 0 0
vn -0.04612231 0.9986554 0.02366399
vn 0 0 0
vn -0.07421187 0.9965281 0.03774056
vn 0 0 0
vn -0.09245895 0.9946999 0.04498386
vn 0 0 0
vn -0.1227808 0.9907417 0.05793003
vn 0 0 0
vn -0.1474083 0.9871216 0.06214357
vn 0 0 0
vn -0.1657382 0.9840316 0.06490637
vn 0 0 0
vn -0.1877173 0.9804121 0.059618
vn 0 0 0
vn -0.1764401 0.9830638 0.04954239
vn 0 0 0
vn -0.179677 0.9829938 0.03793861
vn 0 0 0
vn -0.1422692 0.9894809 0.02620985
vn 0 0 0
vn -0.1296598 0.9913921 0.01816479
vn 0 0 0
vn -0.09000768 0.995876 0.0113886
vn 0 0 0
vn -0.07467322 0.9971771 0.007862529
vn 0 0 0
vn -0.04306829 0.9990628 0.004298474
vn 0 0 0
vn -0.03028019 0.9995377 0.002756394
vn 0 0 0
vn -0.007626909 0.9999706 0.0006918421
vn 0 0 0
vn 0.002108719 0.9999978 -0.0001767168
vn 0 0 0
vn 0.01200199 0.9999275 -0.001024291
vn 0 0 0
vn 0.01201574 0.9999273 -0.001018784
vn 0 0 0

vt 0 62.975
vt 0 0
vt 1 62.975
vt 0 0
vt 0 64.03218
vt 0 64.03218
vt 1 64.03218
vt 1 64.03218
vt 0 65.03468
vt 0 65.03468
vt 1 65.03468
vt 1 65.03468
vt 0 66.05634
vt 0 66.05634
vt 1 66.05634
vt 1 66.05634
vt 0 67.08463
vt 0 67.08463
vt 1 67.08463
vt 1 67.08463
vt 0 68.14095
vt 0 68.14095
vt 1 68.14095
vt 1 68.14095
vt 0 69.23916
vt 0 69.23916
vt 1 69.23916
vt 1 69.23916
vt 0 70.3607
vt 0 70.3607
vt 1 70.3607
vt 1 70.3607
vt 0 71.45232
vt 0 71.45232
vt 1 71.45232
vt 1 71.45232
vt 0 72.51308
vt 0 72.51308
vt 1 72.51308
vt 1 72.51308
vt 0 73.53796
vt 0 73.53796
vt 1 73.53796
vt 1 73.53796
vt 0 74.57485
vt 0 74.57485
vt 1 74.57485
vt 1 74.57485
vt 0 75.58207
vt 0 75.58207
vt 1 75.58207
vt 1 75.58207

usemtl GSDWhiteYellowDouble
usemap GSDWhiteYellowDouble
f 5/5/5 1/1/1 3/3/3
f 7/7/7 5/5/5 3/3/3
f 9/9/9 5/5/5 7/7/7
f 11/11/11 9/9/9 7/7/7
f 13/13/13 9/9/9 11/11/11
f 15/15/15 13/13/13 11/11/11
f 17/17/17 13/13/13 15/15/15
f 19/19/19 17/17/17 15/15/15
f 21/21/21 17/17/17 19/19/19
f 23/23/23 21/21/21 19/19/19
f 25/25/25 21/21/21 23/23/23
f 27/27/27 25/25/25 23/23/23
f 29/29/29 25/25/25 27/27/27
f 31/31/31 29/29/29 27/27/27
f 33/33/33 29/29/29 31/31/31
f 35/35/35 33/33/33 31/31/31
f 37/37/37 33/33/33 35/35/35
f 39/39/39 37/37/37 35/35/35
f 41/41/41 37/37/37 39/39/39
f 43/43/43 41/41/41 39/39/39
f 45/45/45 41/41/41 43/43/43
f 47/47/47 45/45/45 43/43/43
f 49/49/49 45/45/45 47/47/47
f 51/51/51 49/49/49 47/47/47
