mtllib ./Road1_0_111.mtl
g Markers55
v -533.6927 34.60986 737.6689
v -533.6927 34.60986 737.6689
v -534.2719 34.60986 747.6511
v -534.2719 34.60986 747.6511
v -528.7516 34.66066 737.916
v -528.7516 34.66066 737.916
v -529.1911 34.66066 747.9061
v -529.1911 34.66066 747.9061
v -523.6871 34.67335 738.1135
v -523.6871 34.67335 738.1135
v -524.0325 34.67335 748.1075
v -524.0325 34.67335 748.1075
v -518.6511 34.65745 738.2698
v -518.6511 34.65745 738.2698
v -518.93 34.65745 748.2658
v -518.93 34.65745 748.2658
v -513.5756 34.62148 738.3992
v -513.5756 34.62148 738.3992
v -513.8098 34.62148 748.3961
v -513.8098 34.62148 748.3961
v -508.5155 34.57323 738.5107
v -508.5155 34.57323 738.5107
v -508.7252 34.57323 748.5081
v -508.7252 34.57323 748.5081
v -503.4005 34.51913 738.6161
v -503.4005 34.51913 738.6161
v -503.606 34.51913 748.6135
v -503.606 34.51913 748.6135
v -498.2968 34.46753 738.7248
v -498.2968 34.46753 738.7248
v -498.5215 34.46753 748.7219
v -498.5215 34.46753 748.7219
v -493.1631 34.42739 738.8513
v -493.1631 34.42739 738.8513
v -493.4374 34.42739 748.8474
v -493.4374 34.42739 748.8474

vn -0.01025102 0.9999472 -0.0005948232
vn 0 0 0
vn -0.01011156 0.9999488 -0.000515735
vn 0 0 0
vn -0.007557248 0.9999713 -0.0003795673
vn 0 0 0
vn -0.004967903 0.9999876 -0.0002107348
vn 0 0 0
vn -0.0006193858 0.9999998 -2.922925E-05
vn 0 0 0
vn 0.001248362 0.9999992 3.62336E-05
vn 0 0 0
vn 0.004450188 0.9999901 0.0001311348
vn 0 0 0
vn 0.005736958 0.9999835 0.0001495512
vn 0 0 0
vn 0.007872774 0.999969 0.0001949458
vn 0 0 0
vn 0.008673125 0.9999624 0.0001954088
vn 0 0 0
vn 0.009864525 0.9999513 0.0002146517
vn 0 0 0
vn 0.01020859 0.9999478 0.0002126834
vn 0 0 0
vn 0.01041395 0.9999458 0.0002155972
vn 0 0 0
vn 0.01027092 0.9999471 0.0002176527
vn 0 0 0
vn 0.009349858 0.9999563 0.0002037281
vn 0 0 0
vn 0.008612732 0.9999628 0.0002066139
vn 0 0 0
vn 0.00785148 0.9999692 0.0001959706
vn 0 0 0
vn 0.007889259 0.9999689 0.0002164806
vn 0 0 0

vt 0 833.3011
vt 0 0
vt 1 833.3011
vt 0 0
vt 0 834.2906
vt 0 834.2906
vt 1 834.2906
vt 1 834.2906
vt 0 835.3043
vt 0 835.3043
vt 1 835.3043
vt 1 835.3043
vt 0 836.312
vt 0 836.312
vt 1 836.312
vt 1 836.312
vt 0 837.3275
vt 0 837.3275
vt 1 837.3275
vt 1 837.3275
vt 0 838.3398
vt 0 838.3398
vt 1 838.3398
vt 1 838.3398
vt 0 839.363
vt 0 839.363
vt 1 839.363
vt 1 839.363
vt 0 840.384
vt 0 840.384
vt 1 840.384
vt 1 840.384
vt 0 841.4111
vt 0 841.4111
vt 1 841.4111
vt 1 841.4111

usemtl GSDWhiteYellowDouble
usemap GSDWhiteYellowDouble
f 5/5/5 1/1/1 3/3/3
f 7/7/7 5/5/5 3/3/3
f 9/9/9 5/5/5 7/7/7
f 11/11/11 9/9/9 7/7/7
f 13/13/13 9/9/9 11/11/11
f 15/15/15 13/13/13 11/11/11
f 17/17/17 13/13/13 15/15/15
f 19/19/19 17/17/17 15/15/15
f 21/21/21 17/17/17 19/19/19
f 23/23/23 21/21/21 19/19/19
f 25/25/25 21/21/21 23/23/23
f 27/27/27 25/25/25 23/23/23
f 29/29/29 25/25/25 27/27/27
f 31/31/31 29/29/29 27/27/27
f 33/33/33 29/29/29 31/31/31
f 35/35/35 33/33/33 31/31/31
