mtllib ./Road1_0_150.mtl
g SCutR11
v -868.2037 71.83002 356.0056
v -868.2037 71.83002 356.0056
v -865.1709 71.83002 354.6018
v -865.1709 71.83002 354.6018
v -865.1709 71.83002 354.6018
v -865.1709 71.83002 354.6018
v -863.282 70.88025 353.7275
v -863.282 70.88025 353.7275
v -870.1826 71.42779 351.5332
v -870.1826 71.42779 351.5332
v -867.1129 71.42779 350.193
v -867.1129 71.42779 350.193
v -867.1129 71.42779 350.193
v -867.1129 71.42779 350.193
v -865.2036 70.39856 349.3594
v -865.2036 70.39856 349.3594
v -872.176 71.02992 346.9628
v -872.176 71.02992 346.9628
v -869.0985 71.02992 345.6227
v -869.0985 71.02992 345.6227
v -869.0985 71.02992 345.6227
v -869.0985 71.02992 345.6227
v -867.1866 70.06277 344.7902
v -867.1866 70.06277 344.7902
v -874.16 70.63451 342.3891
v -874.16 70.63451 342.3891
v -871.0726 70.63451 341.056
v -871.0726 70.63451 341.056
v -871.0726 70.63451 341.056
v -871.0726 70.63451 341.056
v -869.1567 69.73131 340.2286
v -869.1567 69.73131 340.2286
v -876.1645 70.23294 337.7161
v -876.1645 70.23294 337.7161
v -873.0653 70.23294 336.3964
v -873.0653 70.23294 336.3964
v -873.0653 70.23294 336.3964
v -873.0653 70.23294 336.3964
v -871.144 69.26996 335.5782
v -871.144 69.26996 335.5782
v -878.1239 69.83592 333.0726
v -878.1239 69.83592 333.0726
v -875.0115 69.83592 331.7722
v -875.0115 69.83592 331.7722
v -875.0115 69.83592 331.7722
v -875.0115 69.83592 331.7722
v -873.0835 68.81379 330.9667
v -873.0835 68.81379 330.9667
v -880.0226 69.44449 328.4758
v -880.0226 69.44449 328.4758
v -876.8958 69.44449 327.2001
v -876.8958 69.44449 327.2001
v -876.8958 69.44449 327.2001
v -876.8958 69.44449 327.2001
v -874.9603 68.494 326.4104
v -874.9603 68.494 326.4104
v -881.8949 69.04948 323.8214
v -881.8949 69.04948 323.8214
v -878.7524 69.04948 322.5762
v -878.7524 69.04948 322.5762
v -878.7524 69.04948 322.5762
v -878.7524 69.04948 322.5762
v -876.8081 68.0452 321.8058
v -876.8081 68.0452 321.8058
v -883.7261 68.65156 319.1204
v -883.7261 68.65156 319.1204
v -880.5665 68.65156 317.9118
v -880.5665 68.65156 317.9118
v -880.5665 68.65156 317.9118
v -880.5665 68.65156 317.9118
v -878.6127 67.59979 317.1644
v -878.6127 67.59979 317.1644
v -885.4573 68.26157 314.5047
v -885.4573 68.26157 314.5047
v -882.2801 68.26157 313.3378
v -882.2801 68.26157 313.3378
v -882.2801 68.26157 313.3378
v -882.2801 68.26157 313.3378
v -880.316 67.28871 312.6165
v -880.316 67.28871 312.6165
v -887.1221 67.87005 309.8655
v -887.1221 67.87005 309.8655
v -883.9263 67.87005 308.7468
v -883.9263 67.87005 308.7468
v -883.9263 67.87005 308.7468
v -883.9263 67.87005 308.7468
v -881.9511 66.84972 308.0554
v -881.9511 66.84972 308.0554
v -888.7071 67.47752 305.2122
v -888.7071 67.47752 305.2122
v -885.492 67.47752 304.1485
v -885.492 67.47752 304.1485
v -885.492 67.47752 304.1485
v -885.492 67.47752 304.1485
v -883.5051 66.41454 303.4911
v -883.5051 66.41454 303.4911
v -890.199 67.08463 300.5562
v -890.199 67.08463 300.5562
v -886.9639 67.08463 299.5548
v -886.9639 67.08463 299.5548
v -886.9639 67.08463 299.5548
v -886.9639 67.08463 299.5548
v -884.9648 65.98381 298.9359
v -884.9648 65.98381 298.9359
v -891.6193 66.68163 295.7854
v -891.6193 66.68163 295.7854
v -888.3635 66.68163 294.8562
v -888.3635 66.68163 294.8562
v -888.3635 66.68163 294.8562
v -888.3635 66.68163 294.8562
v -886.3513 65.5586 294.282
v -886.3513 65.5586 294.282
v -892.9131 66.2795 291.0342
v -892.9131 66.2795 291.0342
v -889.6365 66.2795 290.1865
v -889.6365 66.2795 290.1865
v -889.6365 66.2795 290.1865
v -889.6365 66.2795 290.1865
v -887.611 65.16797 289.6624
v -887.611 65.16797 289.6624
v -894.0665 65.87891 286.3145
v -894.0665 65.87891 286.3145
v -890.7695 65.87891 285.5582
v -890.7695 65.87891 285.5582
v -890.7695 65.87891 285.5582
v -890.7695 65.87891 285.5582
v -888.7308 64.75375 285.0906
v -888.7308 64.75375 285.0906
v -895.0886 65.47032 281.5194
v -895.0886 65.47032 281.5194
v -891.772 65.47032 280.8685
v -891.772 65.47032 280.8685
v -891.772 65.47032 280.8685
v -891.772 65.47032 280.8685
v -889.7203 64.36814 280.4658
v -889.7203 64.36814 280.4658
v -895.9335 65.06474 276.7833
v -895.9335 65.06474 276.7833
v -892.5994 65.06474 276.2505
v -892.5994 65.06474 276.2505
v -892.5994 65.06474 276.2505
v -892.5994 65.06474 276.2505
v -890.5355 63.97218 275.9208
v -890.5355 63.97218 275.9208
v -896.6008 64.65285 272.0042
v -896.6008 64.65285 272.0042
v -893.252 64.65285 271.6072
v -893.252 64.65285 271.6072
v -893.252 64.65285 271.6072
v -893.252 64.65285 271.6072
v -891.1776 63.58736 271.3613
v -891.1776 63.58736 271.3613
v -897.0603 64.23576 267.2026
v -897.0603 64.23576 267.2026
v -893.7015 64.23576 266.9615
v -893.7015 64.23576 266.9615
v -893.7015 64.23576 266.9615
v -893.7015 64.23576 266.9615
v -891.6193 63.17634 266.812
v -891.6193 63.17634 266.812

vn -0.03443557 0.9966341 -0.07439592
vn 0 0 0
vn -0.03386688 0.9965842 -0.07531817
vn 0 0 0
vn 0.3472516 0.9076514 -0.2357653
vn 0 0 0
vn 0.3575572 0.9003417 -0.2480674
vn 0 0 0
vn -0.03317392 0.9966694 -0.0744959
vn 0 0 0
vn -0.03228649 0.9967343 -0.0740148
vn 0 0 0
vn 0.364135 0.8983195 -0.2458206
vn 0 0 0
vn 0.3684987 0.8977187 -0.2414745
vn 0 0 0
vn -0.03172299 0.9968429 -0.07278579
vn 0 0 0
vn -0.03158367 0.9968513 -0.07273236
vn 0 0 0
vn 0.3647677 0.90162 -0.2324349
vn 0 0 0
vn 0.3524693 0.9088557 -0.2230395
vn 0 0 0
vn -0.03139362 0.9968742 -0.07249974
vn 0 0 0
vn -0.03118731 0.9968761 -0.07256296
vn 0 0 0
vn 0.3439535 0.9121781 -0.2227713
vn 0 0 0
vn 0.3422981 0.9121666 -0.2253534
vn 0 0 0
vn -0.03097581 0.9968942 -0.07240387
vn 0 0 0
vn -0.03071007 0.9968901 -0.07257393
vn 0 0 0
vn 0.3479948 0.9088058 -0.2301556
vn 0 0 0
vn 0.3602175 0.9020698 -0.2377257
vn 0 0 0
vn -0.03047713 0.9969041 -0.07248031
vn 0 0 0
vn -0.03015795 0.9968942 -0.0727488
vn 0 0 0
vn 0.3690628 0.8991388 -0.2352487
vn 0 0 0
vn 0.3700855 0.9000645 -0.2300446
vn 0 0 0
vn -0.02990248 0.9969047 -0.0727106
vn 0 0 0
vn -0.02952395 0.9968899 -0.0730684
vn 0 0 0
vn 0.3646385 0.904364 -0.2217306
vn 0 0 0
vn 0.362105 0.9050739 -0.2229826
vn 0 0 0
vn -0.0292433 0.9968972 -0.07308229
vn 0 0 0
vn -0.02879875 0.9968768 -0.07353313
vn 0 0 0
vn 0.3675942 0.9019569 -0.2266015
vn 0 0 0
vn 0.3785217 0.8960557 -0.2319604
vn 0 0 0
vn -0.02848971 0.9968811 -0.07359584
vn 0 0 0
vn -0.02798093 0.9968557 -0.07413225
vn 0 0 0
vn 0.3863903 0.8937544 -0.2278281
vn 0 0 0
vn 0.385886 0.8956716 -0.221053
vn 0 0 0
vn -0.02763841 0.9968578 -0.07423408
vn 0 0 0
vn -0.02705915 0.9968272 -0.07485544
vn 0 0 0
vn 0.3798814 0.9004014 -0.2120547
vn 0 0 0
vn 0.3764634 0.9018292 -0.2120835
vn 0 0 0
vn -0.02667954 0.9968271 -0.0749943
vn 0 0 0
vn -0.02601421 0.9967906 -0.07570673
vn 0 0 0
vn 0.3817443 0.899036 -0.2144892
vn 0 0 0
vn 0.3921064 0.8936427 -0.2183011
vn 0 0 0
vn -0.02558883 0.9967885 -0.07588091
vn 0 0 0
vn -0.02482513 0.996746 -0.07668757
vn 0 0 0
vn 0.3998496 0.8915991 -0.2125356
vn 0 0 0
vn 0.4092929 0.886653 -0.2152339
vn 0 0 0
vn -0.02434213 0.9967419 -0.07689667
vn 0 0 0
vn -0.0234506 0.9966924 -0.07780892
vn 0 0 0
vn 0.4165881 0.8848309 -0.2086351
vn 0 0 0
vn 0.4242528 0.8810381 -0.2092403
vn 0 0 0
vn -0.02289965 0.9966866 -0.07804708
vn 0 0 0
vn -0.02185971 0.9966294 -0.07906902
vn 0 0 0
vn 0.4298221 0.8801162 -0.2016141
vn 0 0 0
vn 0.4330361 0.8792412 -0.1985315
vn 0 0 0
vn -0.02122614 0.9966227 -0.07932631
vn 0 0 0
vn -0.02002601 0.9965571 -0.08045445
vn 0 0 0
vn 0.4348886 0.8802049 -0.1900295
vn 0 0 0
vn 0.4369061 0.8796924 -0.1877611
vn 0 0 0
vn -0.01929667 0.9965499 -0.08072046
vn 0 0 0
vn -0.01788787 0.9964741 -0.08197016
vn 0 0 0
vn 0.4410117 0.8791091 -0.1807648
vn 0 0 0
vn 0.4425559 0.8793563 -0.1757185
vn 0 0 0
vn -0.01704476 0.9964676 -0.08222944
vn 0 0 0
vn -0.01538918 0.9963808 -0.08359718
vn 0 0 0
vn 0.4432117 0.8809923 -0.1655779
vn 0 0 0
vn 0.4421798 0.882468 -0.1603976
vn 0 0 0
vn -0.01440456 0.9963762 -0.08382701
vn 0 0 0
vn -0.01244952 0.9962763 -0.08531298
vn 0 0 0
vn 0.4437765 0.8832542 -0.1514084
vn 0 0 0
vn 0.4426072 0.8849582 -0.1447343
vn 0 0 0
vn -0.0113001 0.9962758 -0.08548032
vn 0 0 0
vn -0.0089575 0.9961611 -0.08707967
vn 0 0 0
vn 0.4424141 0.8868204 -0.1334893
vn 0 0 0
vn 0.4415447 0.8881285 -0.1275377
vn 0 0 0
vn -0.008291976 0.9961598 -0.08716132
vn 0 0 0
vn -0.006375227 0.9960285 -0.08880615
vn 0 0 0
vn 0.4424425 0.8883364 -0.1228943
vn 0 0 0
vn 0.4429771 0.8880211 -0.1232475
vn 0 0 0

vt 0 0
vt 0 0
vt -0.6065552 -0.2807556
vt -0.6065552 -0.2807556
vt -0.6065552 -0.2807556
vt -0.6065552 -0.2807556
vt -0.9843384 -0.4556153
vt -0.9843384 -0.4556153
vt 0.3957764 -0.8944885
vt 0.3957764 -0.8944885
vt -0.2181519 -1.162524
vt -0.2181519 -1.162524
vt -0.2181519 -1.162524
vt -0.2181519 -1.162524
vt -0.6000244 -1.329242
vt -0.6000244 -1.329242
vt 0.7944703 -1.808557
vt 0.7944703 -1.808557
vt 0.1789673 -2.076587
vt 0.1789673 -2.076587
vt 0.1789673 -2.076587
vt 0.1789673 -2.076587
vt -0.2034058 -2.243091
vt -0.2034058 -2.243091
vt 1.191272 -2.723297
vt 1.191272 -2.723297
vt 0.5737915 -2.989929
vt 0.5737915 -2.989929
vt 0.5737915 -2.989929
vt 0.5737915 -2.989929
vt 0.1906128 -3.155396
vt 0.1906128 -3.155396
vt 1.592163 -3.65791
vt 1.592163 -3.65791
vt 0.9723267 -3.921851
vt 0.9723267 -3.921851
vt 0.9723267 -3.921851
vt 0.9723267 -3.921851
vt 0.5880615 -4.085486
vt 0.5880615 -4.085486
vt 1.984045 -4.586597
vt 1.984045 -4.586597
vt 1.36156 -4.84668
vt 1.36156 -4.84668
vt 1.36156 -4.84668
vt 1.36156 -4.84668
vt 0.9759644 -5.007788
vt 0.9759644 -5.007788
vt 2.363794 -5.505957
vt 2.363794 -5.505957
vt 1.738428 -5.761108
vt 1.738428 -5.761108
vt 1.738428 -5.761108
vt 1.738428 -5.761108
vt 1.351318 -5.919049
vt 1.351318 -5.919049
vt 2.738245 -6.436847
vt 2.738245 -6.436847
vt 2.109741 -6.685889
vt 2.109741 -6.685889
vt 2.109741 -6.685889
vt 2.109741 -6.685889
vt 1.720886 -6.839966
vt 1.720886 -6.839966
vt 3.104492 -7.377038
vt 3.104492 -7.377038
vt 2.472571 -7.618762
vt 2.472571 -7.618762
vt 2.472571 -7.618762
vt 2.472571 -7.618762
vt 2.081799 -7.768243
vt 2.081799 -7.768243
vt 3.450732 -8.300189
vt 3.450732 -8.300189
vt 2.815283 -8.533557
vt 2.815283 -8.533557
vt 2.815283 -8.533557
vt 2.815283 -8.533557
vt 2.422461 -8.677826
vt 2.422461 -8.677826
vt 3.783679 -9.228027
vt 3.783679 -9.228027
vt 3.144519 -9.451764
vt 3.144519 -9.451764
vt 3.144519 -9.451764
vt 3.144519 -9.451764
vt 2.749487 -9.590045
vt 2.749487 -9.590045
vt 4.100684 -10.15869
vt 4.100684 -10.15869
vt 3.457666 -10.37143
vt 3.457666 -10.37143
vt 3.457666 -10.37143
vt 3.457666 -10.37143
vt 3.060291 -10.5029
vt 3.060291 -10.5029
vt 4.399072 -11.08989
vt 4.399072 -11.08989
vt 3.752051 -11.29017
vt 3.752051 -11.29017
vt 3.752051 -11.29017
vt 3.752051 -11.29017
vt 3.352222 -11.41393
vt 3.352222 -11.41393
vt 4.68313 -12.04404
vt 4.68313 -12.04404
vt 4.031958 -12.22988
vt 4.031958 -12.22988
vt 4.031958 -12.22988
vt 4.031958 -12.22988
vt 3.629517 -12.34473
vt 3.629517 -12.34473
vt 4.941883 -12.99429
vt 4.941883 -12.99429
vt 4.28656 -13.16383
vt 4.28656 -13.16383
vt 4.28656 -13.16383
vt 4.28656 -13.16383
vt 3.88147 -13.26864
vt 3.88147 -13.26864
vt 5.172559 -13.93823
vt 5.172559 -13.93823
vt 4.513172 -14.08948
vt 4.513172 -14.08948
vt 4.513172 -14.08948
vt 4.513172 -14.08948
vt 4.105432 -14.183
vt 4.105432 -14.183
vt 5.37699 -14.89725
vt 5.37699 -14.89725
vt 4.713672 -15.02743
vt 4.713672 -15.02743
vt 4.713672 -15.02743
vt 4.713672 -15.02743
vt 4.30332 -15.10797
vt 4.30332 -15.10797
vt 5.545972 -15.84446
vt 5.545972 -15.84446
vt 4.879138 -15.95101
vt 4.879138 -15.95101
vt 4.879138 -15.95101
vt 4.879138 -15.95101
vt 4.46637 -16.01697
vt 4.46637 -16.01697
vt 5.679431 -16.80029
vt 5.679431 -16.80029
vt 5.009656 -16.87969
vt 5.009656 -16.87969
vt 5.009656 -16.87969
vt 5.009656 -16.87969
vt 4.594776 -16.92886
vt 4.594776 -16.92886
vt 5.771326 -17.76061
vt 5.771326 -17.76061
vt 5.099573 -17.80883
vt 5.099573 -17.80883
vt 5.099573 -17.80883
vt 5.099573 -17.80883
vt 4.68313 -17.83872
vt 4.68313 -17.83872

usemtl GSDShoulder1
usemap GSDShoulder1
f 9/9/9 1/1/1 3/3/3
f 11/11/11 9/9/9 3/3/3
f 13/13/13 5/5/5 7/7/7
f 15/15/15 13/13/13 7/7/7
f 17/17/17 9/9/9 11/11/11
f 19/19/19 17/17/17 11/11/11
f 21/21/21 13/13/13 15/15/15
f 23/23/23 21/21/21 15/15/15
f 25/25/25 17/17/17 19/19/19
f 27/27/27 25/25/25 19/19/19
f 29/29/29 21/21/21 23/23/23
f 31/31/31 29/29/29 23/23/23
f 33/33/33 25/25/25 27/27/27
f 35/35/35 33/33/33 27/27/27
f 37/37/37 29/29/29 31/31/31
f 39/39/39 37/37/37 31/31/31
f 41/41/41 33/33/33 35/35/35
f 43/43/43 41/41/41 35/35/35
f 45/45/45 37/37/37 39/39/39
f 47/47/47 45/45/45 39/39/39
f 49/49/49 41/41/41 43/43/43
f 51/51/51 49/49/49 43/43/43
f 53/53/53 45/45/45 47/47/47
f 55/55/55 53/53/53 47/47/47
f 57/57/57 49/49/49 51/51/51
f 59/59/59 57/57/57 51/51/51
f 61/61/61 53/53/53 55/55/55
f 63/63/63 61/61/61 55/55/55
f 65/65/65 57/57/57 59/59/59
f 67/67/67 65/65/65 59/59/59
f 69/69/69 61/61/61 63/63/63
f 71/71/71 69/69/69 63/63/63
f 73/73/73 65/65/65 67/67/67
f 75/75/75 73/73/73 67/67/67
f 77/77/77 69/69/69 71/71/71
f 79/79/79 77/77/77 71/71/71
f 81/81/81 73/73/73 75/75/75
f 83/83/83 81/81/81 75/75/75
f 85/85/85 77/77/77 79/79/79
f 87/87/87 85/85/85 79/79/79
f 89/89/89 81/81/81 83/83/83
f 91/91/91 89/89/89 83/83/83
f 93/93/93 85/85/85 87/87/87
f 95/95/95 93/93/93 87/87/87
f 97/97/97 89/89/89 91/91/91
f 99/99/99 97/97/97 91/91/91
f 101/101/101 93/93/93 95/95/95
f 103/103/103 101/101/101 95/95/95
f 105/105/105 97/97/97 99/99/99
f 107/107/107 105/105/105 99/99/99
f 109/109/109 101/101/101 103/103/103
f 111/111/111 109/109/109 103/103/103
f 113/113/113 105/105/105 107/107/107
f 115/115/115 113/113/113 107/107/107
f 117/117/117 109/109/109 111/111/111
f 119/119/119 117/117/117 111/111/111
f 121/121/121 113/113/113 115/115/115
f 123/123/123 121/121/121 115/115/115
f 125/125/125 117/117/117 119/119/119
f 127/127/127 125/125/125 119/119/119
f 129/129/129 121/121/121 123/123/123
f 131/131/131 129/129/129 123/123/123
f 133/133/133 125/125/125 127/127/127
f 135/135/135 133/133/133 127/127/127
f 137/137/137 129/129/129 131/131/131
f 139/139/139 137/137/137 131/131/131
f 141/141/141 133/133/133 135/135/135
f 143/143/143 141/141/141 135/135/135
f 145/145/145 137/137/137 139/139/139
f 147/147/147 145/145/145 139/139/139
f 149/149/149 141/141/141 143/143/143
f 151/151/151 149/149/149 143/143/143
f 153/153/153 145/145/145 147/147/147
f 155/155/155 153/153/153 147/147/147
f 157/157/157 149/149/149 151/151/151
f 159/159/159 157/157/157 151/151/151
