mtllib ./Road1_0_274.mtl
g SCutL65
v -170.347 43.2403 703.5944
v -170.347 43.2403 703.5944
v -169.3483 43.2403 706.5875
v -169.3483 43.2403 706.5875
v -170.9911 41.23592 701.6642
v -170.9911 41.23592 701.6642
v -170.347 43.2403 703.5944
v -170.347 43.2403 703.5944
v -165.611 43.64614 701.9789
v -165.611 43.64614 701.9789
v -164.5822 43.64614 704.967
v -164.5822 43.64614 704.967
v -166.2738 41.65228 700.0536
v -166.2738 41.65228 700.0536
v -165.611 43.64614 701.9789
v -165.611 43.64614 701.9789
v -160.9975 44.04051 700.358
v -160.9975 44.04051 700.358
v -159.9317 44.04051 703.3367
v -159.9317 44.04051 703.3367
v -161.6837 41.95415 698.4401
v -161.6837 41.95415 698.4401
v -160.9975 44.04051 700.358
v -160.9975 44.04051 700.358
v -156.3675 44.44004 698.6561
v -156.3675 44.44004 698.6561
v -155.2488 44.44004 701.6168
v -155.2488 44.44004 701.6168
v -157.0876 42.37442 696.7503
v -157.0876 42.37442 696.7503
v -156.3675 44.44004 698.6561
v -156.3675 44.44004 698.6561
v -151.8054 44.84069 696.8733
v -151.8054 44.84069 696.8733
v -150.6164 44.84069 699.806
v -150.6164 44.84069 699.806
v -152.5709 42.73855 694.9853
v -152.5709 42.73855 694.9853
v -151.8054 44.84069 696.8733
v -151.8054 44.84069 696.8733
v -147.3974 45.23855 695.0119
v -147.3974 45.23855 695.0119
v -146.1181 45.23855 697.9039
v -146.1181 45.23855 697.9039
v -148.2213 43.18076 693.1493
v -148.2213 43.18076 693.1493
v -147.3974 45.23855 695.0119
v -147.3974 45.23855 695.0119
v -143.1303 45.63963 693.0279
v -143.1303 45.63963 693.0279
v -141.7338 45.63963 695.8606
v -141.7338 45.63963 695.8606
v -144.0303 43.5534 691.2021
v -144.0303 43.5534 691.2021
v -143.1303 45.63963 693.0279
v -143.1303 45.63963 693.0279
v -139.0351 46.04879 690.8781
v -139.0351 46.04879 690.8781
v -137.4822 46.04879 693.6207
v -137.4822 46.04879 693.6207
v -140.0372 44.00151 689.1082
v -140.0372 44.00151 689.1082
v -139.0351 46.04879 690.8781
v -139.0351 46.04879 690.8781
v -135.3047 46.45868 688.5895
v -135.3047 46.45868 688.5895
v -133.542 46.45868 691.1915
v -133.542 46.45868 691.1915
v -136.4442 44.38006 686.9077
v -136.4442 44.38006 686.9077
v -135.3047 46.45868 688.5895
v -135.3047 46.45868 688.5895

vn -0.07668271 0.9967272 0.02558671
vn 0 0 0
vn -0.07633074 0.9967468 0.02587387
vn 0 0 0
vn -0.2826166 0.7109373 -0.6439691
vn 0 0 0
vn -0.2814251 0.712155 -0.6431447
vn 0 0 0
vn -0.07622594 0.9967523 0.02597061
vn 0 0 0
vn -0.07570211 0.9967809 0.02639944
vn 0 0 0
vn -0.2788756 0.7126442 -0.6437133
vn 0 0 0
vn -0.2813177 0.7082133 -0.6475294
vn 0 0 0
vn -0.07571068 0.996771 0.02674795
vn 0 0 0
vn -0.07526536 0.9967861 0.02743211
vn 0 0 0
vn -0.2889008 0.7027553 -0.6501317
vn 0 0 0
vn -0.2970129 0.6986983 -0.6508487
vn 0 0 0
vn -0.07564814 0.9967393 0.0280758
vn 0 0 0
vn -0.07511459 0.9967511 0.02906887
vn 0 0 0
vn -0.3030064 0.6997778 -0.6469142
vn 0 0 0
vn -0.3067332 0.699138 -0.6458488
vn 0 0 0
vn -0.07581289 0.9966696 0.03003419
vn 0 0 0
vn -0.07514492 0.9966787 0.03138025
vn 0 0 0
vn -0.32004 0.6967602 -0.6419499
vn 0 0 0
vn -0.3272704 0.6973068 -0.6376969
vn 0 0 0
vn -0.07622701 0.9965517 0.0327743
vn 0 0 0
vn -0.07533631 0.9965583 0.03458156
vn 0 0 0
vn -0.3395544 0.6994908 -0.6288208
vn 0 0 0
vn -0.3449762 0.700766 -0.6244345
vn 0 0 0
vn -0.07692183 0.9963647 0.0366129
vn 0 0 0
vn -0.07564131 0.9963679 0.03910815
vn 0 0 0
vn -0.3660935 0.6985593 -0.6148092
vn 0 0 0
vn -0.3771597 0.6993575 -0.6071652
vn 0 0 0
vn -0.07792908 0.9960662 0.04218133
vn 0 0 0
vn -0.07593072 0.9960647 0.04571157
vn 0 0 0
vn -0.3998832 0.7008171 -0.5907189
vn 0 0 0
vn -0.4116512 0.7018595 -0.5813231
vn 0 0 0
vn -0.07703767 0.9958822 0.04779136
vn 0 0 0
vn -0.07309198 0.9960952 0.04951638
vn 0 0 0
vn -0.4263582 0.7002947 -0.5725435
vn 0 0 0
vn -0.4283808 0.6985711 -0.573139
vn 0 0 0

vt 0 0
vt 0 0
vt -0.1997375 0.5986084
vt -0.1997375 0.5986084
vt 0.1288086 -0.3860352
vt 0.1288086 -0.3860352
vt 0 0
vt 0 0
vt -0.9472107 -0.3231079
vt -0.9472107 -0.3231079
vt -1.152963 0.2745239
vt -1.152963 0.2745239
vt -0.8146454 -0.7081543
vt -0.8146454 -0.7081543
vt -0.9472107 -0.3231079
vt -0.9472107 -0.3231079
vt -1.869916 -0.6472778
vt -1.869916 -0.6472778
vt -2.083057 -0.0515503
vt -2.083057 -0.0515503
vt -1.732672 -1.030872
vt -1.732672 -1.030872
vt -1.869916 -0.6472778
vt -1.869916 -0.6472778
vt -2.795911 -0.9876587
vt -2.795911 -0.9876587
vt -3.019647 -0.39552
vt -3.019647 -0.39552
vt -2.651883 -1.368823
vt -2.651883 -1.368823
vt -2.795911 -0.9876587
vt -2.795911 -0.9876587
vt -3.708325 -1.344226
vt -3.708325 -1.344226
vt -3.946131 -0.7576904
vt -3.946131 -0.7576904
vt -3.555228 -1.721826
vt -3.555228 -1.721826
vt -3.708325 -1.344226
vt -3.708325 -1.344226
vt -4.589926 -1.716504
vt -4.589926 -1.716504
vt -4.845777 -1.138098
vt -4.845777 -1.138098
vt -4.425149 -2.089026
vt -4.425149 -2.089026
vt -4.589926 -1.716504
vt -4.589926 -1.716504
vt -5.44335 -2.113306
vt -5.44335 -2.113306
vt -5.722641 -1.546765
vt -5.722641 -1.546765
vt -5.263336 -2.478455
vt -5.263336 -2.478455
vt -5.44335 -2.113306
vt -5.44335 -2.113306
vt -6.262393 -2.543262
vt -6.262393 -2.543262
vt -6.572968 -1.994739
vt -6.572968 -1.994739
vt -6.061975 -2.897241
vt -6.061975 -2.897241
vt -6.262393 -2.543262
vt -6.262393 -2.543262
vt -7.00846 -3.000977
vt -7.00846 -3.000977
vt -7.361005 -2.480579
vt -7.361005 -2.480579
vt -6.780576 -3.337353
vt -6.780576 -3.337353
vt -7.00846 -3.000977
vt -7.00846 -3.000977

usemtl GSDShoulder1
usemap GSDShoulder1
f 9/9/9 1/1/1 3/3/3
f 11/11/11 9/9/9 3/3/3
f 13/13/13 5/5/5 7/7/7
f 15/15/15 13/13/13 7/7/7
f 17/17/17 9/9/9 11/11/11
f 19/19/19 17/17/17 11/11/11
f 21/21/21 13/13/13 15/15/15
f 23/23/23 21/21/21 15/15/15
f 25/25/25 17/17/17 19/19/19
f 27/27/27 25/25/25 19/19/19
f 29/29/29 21/21/21 23/23/23
f 31/31/31 29/29/29 23/23/23
f 33/33/33 25/25/25 27/27/27
f 35/35/35 33/33/33 27/27/27
f 37/37/37 29/29/29 31/31/31
f 39/39/39 37/37/37 31/31/31
f 41/41/41 33/33/33 35/35/35
f 43/43/43 41/41/41 35/35/35
f 45/45/45 37/37/37 39/39/39
f 47/47/47 45/45/45 39/39/39
f 49/49/49 41/41/41 43/43/43
f 51/51/51 49/49/49 43/43/43
f 53/53/53 45/45/45 47/47/47
f 55/55/55 53/53/53 47/47/47
f 57/57/57 49/49/49 51/51/51
f 59/59/59 57/57/57 51/51/51
f 61/61/61 53/53/53 55/55/55
f 63/63/63 61/61/61 55/55/55
f 65/65/65 57/57/57 59/59/59
f 67/67/67 65/65/65 59/59/59
f 69/69/69 61/61/61 63/63/63
f 71/71/71 69/69/69 63/63/63
