mtllib ./Road1_0_243.mtl
g SCutL34
v -150.0778 0.03162992 842.2755
v -150.0778 0.03162992 842.2755
v -150.0743 0.03162992 839.2755
v -150.0743 0.03162992 839.2755
v -150.0801 -0.3341416 844.2755
v -150.0801 -0.3341416 844.2755
v -150.0778 0.03162992 842.2755
v -150.0778 0.03162992 842.2755
v -154.9976 0.01904038 842.3063
v -154.9976 0.01904038 842.3063
v -155.0329 0.01904038 839.3065
v -155.0329 0.01904038 839.3065
v -154.9741 -0.3341416 844.3061
v -154.9741 -0.3341416 844.3061
v -154.9976 0.01904038 842.3063
v -154.9976 0.01904038 842.3063
v -159.9742 0.008692972 842.3895
v -159.9742 0.008692972 842.3895
v -160.0387 0.008692972 839.3903
v -160.0387 0.008692972 839.3903
v -159.9311 -0.3341416 844.3891
v -159.9311 -0.3341416 844.3891
v -159.9742 0.008692972 842.3895
v -159.9742 0.008692972 842.3895
v -164.9518 0.0003963504 842.5184
v -164.9518 0.0003963504 842.5184
v -165.0418 0.0003963504 839.5197
v -165.0418 0.0003963504 839.5197
v -164.8918 -0.3341416 844.5175
v -164.8918 -0.3341416 844.5175
v -164.9518 0.0003963504 842.5184
v -164.9518 0.0003963504 842.5184
v -169.9185 0 842.6863
v -169.9185 0 842.6863
v -170.0307 0 839.6885
v -170.0307 0 839.6885
v -169.8436 -0.3341416 844.6849
v -169.8436 -0.3341416 844.6849
v -169.9185 0 842.6863
v -169.9185 0 842.6863
v -174.8637 0 842.8877
v -174.8637 0 842.8877
v -174.9952 0 839.8906
v -174.9952 0 839.8906
v -174.776 -0.3341416 844.8858
v -174.776 -0.3341416 844.8858
v -174.8637 0 842.8877
v -174.8637 0 842.8877
v -179.8956 0 843.123
v -179.8956 0 843.123
v -180.0441 0 840.1267
v -180.0441 0 840.1267
v -179.7966 -0.3341416 845.1205
v -179.7966 -0.3341416 845.1205
v -179.8956 0 843.123
v -179.8956 0 843.123
v -184.8891 0 843.3829
v -184.8891 0 843.3829
v -185.0521 0 840.3874
v -185.0521 0 840.3874
v -184.7805 -0.3341416 845.38
v -184.7805 -0.3341416 845.38
v -184.8891 0 843.3829
v -184.8891 0 843.3829
v -189.9577 0 843.6698
v -189.9577 0 843.6698
v -190.1333 0 840.6749
v -190.1333 0 840.6749
v -189.8406 -0.3341416 845.6664
v -189.8406 -0.3341416 845.6664
v -189.9577 0 843.6698
v -189.9577 0 843.6698
v -194.9742 0 843.9732
v -194.9742 0 843.9732
v -195.1605 0 840.979
v -195.1605 0 840.979
v -194.85 -0.3341416 845.9694
v -194.85 -0.3341416 845.9694
v -194.9742 0 843.9732
v -194.9742 0 843.9732
v -200.0555 0 844.2973
v -200.0555 0 844.2973
v -200.2507 0 841.3036
v -200.2507 0 841.3036
v -199.9253 -0.3341416 846.2931
v -199.9253 -0.3341416 846.2931
v -200.0555 0 844.2973
v -200.0555 0 844.2973
v -205.071 0 844.6308
v -205.071 0 844.6308
v -205.2735 0 841.6376
v -205.2735 0 841.6376
v -204.936 -0.3341416 846.6262
v -204.936 -0.3341416 846.6262
v -205.071 0 844.6308
v -205.071 0 844.6308
v -210.1422 0 844.979
v -210.1422 0 844.979
v -210.3506 0 841.9863
v -210.3506 0 841.9863
v -210.0033 -0.3341416 846.9742
v -210.0033 -0.3341416 846.9742
v -210.1422 0 844.979
v -210.1422 0 844.979
v -215.1372 0 845.3307
v -215.1372 0 845.3307
v -215.35 0 842.3383
v -215.35 0 842.3383
v -214.9954 -0.3341416 847.3256
v -214.9954 -0.3341416 847.3256
v -215.1372 0 845.3307
v -215.1372 0 845.3307
v -220.179 0 845.692
v -220.179 0 845.692
v -220.3949 0 842.6998
v -220.3949 0 842.6998
v -220.0351 -0.3341416 847.6868
v -220.0351 -0.3341416 847.6868
v -220.179 0 845.692
v -220.179 0 845.692
v -225.2642 0 846.0608
v -225.2642 0 846.0608
v -225.482 0 843.0687
v -225.482 0 843.0687
v -225.119 -0.3341416 848.0555
v -225.119 -0.3341416 848.0555
v -225.2642 0 846.0608
v -225.2642 0 846.0608
v -230.2591 0 846.425
v -230.2591 0 846.425
v -230.4776 0 843.433
v -230.4776 0 843.433
v -230.1134 -0.3341416 848.4197
v -230.1134 -0.3341416 848.4197
v -230.2591 0 846.425
v -230.2591 0 846.425
v -235.2909 0.00047764 846.7922
v -235.2909 0.00047764 846.7922
v -235.509 0.00047764 843.8002
v -235.509 0.00047764 843.8002
v -235.1455 -0.3341416 848.7869
v -235.1455 -0.3341416 848.7869
v -235.2909 0.00047764 846.7922
v -235.2909 0.00047764 846.7922
v -240.3565 0.004102264 847.1604
v -240.3565 0.004102264 847.1604
v -240.5731 0.004102264 844.1682
v -240.5731 0.004102264 844.1682
v -240.2121 -0.3341416 849.1552
v -240.2121 -0.3341416 849.1552
v -240.3565 0.004102264 847.1604
v -240.3565 0.004102264 847.1604
v -245.4534 0.007769562 847.5273
v -245.4534 0.007769562 847.5273
v -245.6675 0.007769562 844.535
v -245.6675 0.007769562 844.535
v -245.3107 -0.3341416 849.5222
v -245.3107 -0.3341416 849.5222
v -245.4534 0.007769562 847.5273
v -245.4534 0.007769562 847.5273
v -250.5797 0.01140743 847.8911
v -250.5797 0.01140743 847.8911
v -250.7901 0.01140743 844.8985
v -250.7901 0.01140743 844.8985
v -250.4393 -0.3341416 849.8862
v -250.4393 -0.3341416 849.8862
v -250.5797 0.01140743 847.8911
v -250.5797 0.01140743 847.8911
v -255.5967 0.01485203 848.2403
v -255.5967 0.01485203 848.2403
v -255.8026 0.01485203 845.2474
v -255.8026 0.01485203 845.2474
v -255.4594 -0.3341416 850.2356
v -255.4594 -0.3341416 850.2356
v -255.5967 0.01485203 848.2403
v -255.5967 0.01485203 848.2403
v -260.6368 0.01813303 848.5825
v -260.6368 0.01813303 848.5825
v -260.8372 0.01813303 845.5892
v -260.8372 0.01813303 845.5892
v -260.5032 -0.3341416 850.5781
v -260.5032 -0.3341416 850.5781
v -260.6368 0.01813303 848.5825
v -260.6368 0.01813303 848.5825
v -265.6973 0.02118312 848.916
v -265.6973 0.02118312 848.916
v -265.8913 0.02118312 845.9222
v -265.8913 0.02118312 845.9222
v -265.568 -0.3341416 850.9117
v -265.568 -0.3341416 850.9117
v -265.6973 0.02118312 848.916
v -265.6973 0.02118312 848.916
v -270.7759 0.0239354 849.2387
v -270.7759 0.0239354 849.2387
v -270.9624 0.0239354 846.2445
v -270.9624 0.0239354 846.2445
v -270.6516 -0.3341416 851.2348
v -270.6516 -0.3341416 851.2348
v -270.7759 0.0239354 849.2387
v -270.7759 0.0239354 849.2387
v -275.8708 0.02632327 849.5489
v -275.8708 0.02632327 849.5489
v -276.0488 0.02632327 846.5542
v -276.0488 0.02632327 846.5542
v -275.7521 -0.3341416 851.5453
v -275.7521 -0.3341416 851.5453
v -275.8708 0.02632327 849.5489
v -275.8708 0.02632327 849.5489
v -280.9795 0.0282796 849.8447
v -280.9795 0.0282796 849.8447
v -281.1481 0.0282796 846.8494
v -281.1481 0.0282796 846.8494
v -280.8671 -0.3341416 851.8415
v -280.8671 -0.3341416 851.8415
v -280.9795 0.0282796 849.8447
v -280.9795 0.0282796 849.8447
v -286.0997 0.02973747 850.124
v -286.0997 0.02973747 850.124
v -286.2578 0.02973747 847.1281
v -286.2578 0.02973747 847.1281
v -285.9943 -0.3341416 852.1212
v -285.9943 -0.3341416 852.1212
v -286.0997 0.02973747 850.124
v -286.0997 0.02973747 850.124

vn -0.002558955 0.9999967 -2.954582E-06
vn 0 0 0
vn -0.002548812 0.9999967 1.352193E-05
vn 0 0 0
vn 0.001126312 0.9836838 0.179903
vn 0 0 0
vn -0.0001546309 0.9842266 0.1769122
vn 0 0 0
vn -0.002391346 0.9999971 1.718591E-05
vn 0 0 0
vn -0.002227267 0.9999976 3.295788E-05
vn 0 0 0
vn 0.0008741371 0.9844084 0.1758959
vn 0 0 0
vn 0.0007585359 0.9850521 0.1722549
vn 0 0 0
vn -0.001937219 0.9999981 3.494374E-05
vn 0 0 0
vn -0.001796647 0.9999984 4.337049E-05
vn 0 0 0
vn 0.002684516 0.9853398 0.1705819
vn 0 0 0
vn 0.002589529 0.9858495 0.1676128
vn 0 0 0
vn -0.001135769 0.9999995 2.938531E-05
vn 0 0 0
vn -0.000607057 0.9999998 1.842446E-05
vn 0 0 0
vn 0.004188637 0.9860746 0.1662514
vn 0 0 0
vn 0.004562461 0.9863078 0.1648519
vn 0 0 0
vn -5.31336E-05 1 1.792266E-06
vn 0 0 0
vn -2.65649E-05 1 9.944866E-07
vn 0 0 0
vn 0.005922981 0.9863184 0.1647446
vn 0 0 0
vn 0.006298705 0.9863293 0.1646658
vn 0 0 0
vn 0 1 0
vn 0 0 0
vn 0 1 0
vn 0 0 0
vn 0.007038848 0.9863294 0.1646351
vn 0 0 0
vn 0.007369346 0.9863295 0.1646202
vn 0 0 0
vn 0 1 0
vn 0 0 0
vn 0 1 0
vn 0 0 0
vn 0.007985223 0.9863294 0.164592
vn 0 0 0
vn 0.008275349 0.9863294 0.1645777
vn 0 0 0
vn 0 1 0
vn 0 0 0
vn 0 1 0
vn 0 0 0
vn 0.00881744 0.9863294 0.1645492
vn 0 0 0
vn 0.009065485 0.9863296 0.1645356
vn 0 0 0
vn 0 1 0
vn 0 0 0
vn 0 1 0
vn 0 0 0
vn 0.009522142 0.9863294 0.1645101
vn 0 0 0
vn 0.009734502 0.9863294 0.164498
vn 0 0 0
vn 0 1 0
vn 0 0 0
vn 0 1 0
vn 0 0 0
vn 0.01013027 0.9863294 0.1644741
vn 0 0 0
vn 0.0103105 0.9863294 0.1644624
vn 0 0 0
vn 0 1 0
vn 0 0 0
vn 0 1 0
vn 0 0 0
vn 0.01063543 0.9863296 0.1644413
vn 0 0 0
vn 0.01078322 0.9863294 0.1644324
vn 0 0 0
vn 0 0.9999999 0
vn 0 0 0
vn 0 1 0
vn 0 0 0
vn 0.01105205 0.9863293 0.1644158
vn 0 0 0
vn 0.01117093 0.9863291 0.1644083
vn 0 0 0
vn 0 1 0
vn 0 0 0
vn 0 1 0
vn 0 0 0
vn 0.01138216 0.9863291 0.1643931
vn 0 0 0
vn 0.01147707 0.9863291 0.1643869
vn 0 0 0
vn 0 1 0
vn 0 0 0
vn 0 1 0
vn 0 0 0
vn 0.01164263 0.986329 0.1643764
vn 0 0 0
vn 0.01171171 0.9863289 0.1643718
vn 0 0 0
vn 0 1 0
vn 0 0 0
vn 0 1 0
vn 0 0 0
vn 0.0118269 0.986329 0.1643628
vn 0 0 0
vn 0.01187292 0.9863293 0.164358
vn 0 0 0
vn 0 1 0
vn 0 0 0
vn 0 1 0
vn 0 0 0
vn 0.0119407 0.9863294 0.1643522
vn 0 0 0
vn 0.0119626 0.9863295 0.1643505
vn 0 0 0
vn 3.162733E-05 0.9999999 -2.309533E-06
vn 0 0 0
vn 6.310098E-05 1 -4.603661E-06
vn 0 0 0
vn 0.01198752 0.9863293 0.1643494
vn 0 0 0
vn 0.01202716 0.9863164 0.1644245
vn 0 0 0
vn 0.0003011278 0.9999999 -2.195359E-05
vn 0 0 0
vn 0.0005069725 0.9999999 -3.683526E-05
vn 0 0 0
vn 0.01201893 0.9863035 0.1645023
vn 0 0 0
vn 0.01228522 0.9861932 0.1651425
vn 0 0 0
vn 0.0007131887 0.9999997 -5.174779E-05
vn 0 0 0
vn 0.0007146597 0.9999998 -5.153172E-05
vn 0 0 0
vn 0.01224126 0.9860957 0.1657267
vn 0 0 0
vn 0.01252276 0.9858986 0.1668748
vn 0 0 0
vn 0.0007126638 0.9999998 -5.118579E-05
vn 0 0 0
vn 0.000709614 0.9999998 -5.047727E-05
vn 0 0 0
vn 0.01223563 0.9857991 0.1674827
vn 0 0 0
vn 0.01249321 0.9855998 0.1686332
vn 0 0 0
vn 0.0006987543 0.9999997 -4.942631E-05
vn 0 0 0
vn 0.0006913744 0.9999997 -4.827523E-05
vn 0 0 0
vn 0.01216828 0.9855009 0.1692326
vn 0 0 0
vn 0.01239495 0.985306 0.1703481
vn 0 0 0
vn 0.0006716654 0.9999997 -4.655766E-05
vn 0 0 0
vn 0.0006601668 0.9999998 -4.502026E-05
vn 0 0 0
vn 0.01202438 0.98521 0.1709284
vn 0 0 0
vn 0.01221347 0.9850231 0.171989
vn 0 0 0
vn 0.0006322062 0.9999998 -4.27269E-05
vn 0 0 0
vn 0.0006165336 0.9999998 -4.084351E-05
vn 0 0 0
vn 0.01181193 0.9849316 0.1725404
vn 0 0 0
vn 0.01196088 0.9847538 0.1735422
vn 0 0 0
vn 0.0005801847 0.9999998 -3.801949E-05
vn 0 0 0
vn 0.0005603607 0.9999999 -3.584923E-05
vn 0 0 0
vn 0.01152913 0.9846679 0.1740583
vn 0 0 0
vn 0.01163098 0.9845036 0.1749785
vn 0 0 0
vn 0.0005156797 0.9999998 -3.25646E-05
vn 0 0 0
vn 0.0004916979 0.9999999 -3.017835E-05
vn 0 0 0
vn 0.01117063 0.9844256 0.1754468
vn 0 0 0
vn 0.01121871 0.9842793 0.1762625
vn 0 0 0
vn 0.0004387033 0.9999999 -2.651799E-05
vn 0 0 0
vn 0.0004105359 0.9999999 -2.400013E-05
vn 0 0 0
vn 0.01073316 0.9842112 0.1766718
vn 0 0 0
vn 0.01072354 0.984087 0.1773634
vn 0 0 0
vn 0.0003492295 0.9999999 -2.005731E-05
vn 0 0 0
vn 0.0003168538 0.9999999 -1.74999E-05
vn 0 0 0
vn 0.01021459 0.9840309 0.1777042
vn 0 0 0
vn 0.01014016 0.9839326 0.178252
vn 0 0 0
vn 0.0002841743 0.9999999 -1.549442E-05
vn 0 0 0
vn 0.0002844935 0.9999999 -1.501178E-05
vn 0 0 0
vn 0.009870124 0.9839116 0.1783832
vn 0 0 0
vn 0.01002905 0.9838483 0.1787232
vn 0 0 0

vt 0 0
vt 0 0
vt -0.000692749 -0.5999878
vt -0.000692749 -0.5999878
vt 0.0004608154 0.4
vt 0.0004608154 0.4
vt 0 0
vt 0 0
vt 0.983963 0.006164551
vt 0.983963 0.006164551
vt 0.9910218 -0.5937988
vt 0.9910218 -0.5937988
vt 0.9792603 0.4061279
vt 0.9792603 0.4061279
vt 0.983963 0.006164551
vt 0.983963 0.006164551
vt 1.979272 0.02281494
vt 1.979272 0.02281494
vt 1.992181 -0.5770386
vt 1.992181 -0.5770386
vt 1.97067 0.4227295
vt 1.97067 0.4227295
vt 1.979272 0.02281494
vt 1.979272 0.02281494
vt 2.974799 0.04858398
vt 2.974799 0.04858398
vt 2.992807 -0.5511475
vt 2.992807 -0.5511475
vt 2.962793 0.4484009
vt 2.962793 0.4484009
vt 2.974799 0.04858398
vt 2.974799 0.04858398
vt 3.968134 0.08217774
vt 3.968134 0.08217774
vt 3.990579 -0.517395
vt 3.990579 -0.517395
vt 3.953171 0.481897
vt 3.953171 0.481897
vt 3.968134 0.08217774
vt 3.968134 0.08217774
vt 4.957181 0.1224487
vt 4.957181 0.1224487
vt 4.983475 -0.4769776
vt 4.983475 -0.4769776
vt 4.939651 0.5220703
vt 4.939651 0.5220703
vt 4.957181 0.1224487
vt 4.957181 0.1224487
vt 5.963568 0.1695068
vt 5.963568 0.1695068
vt 5.993259 -0.4297485
vt 5.993259 -0.4297485
vt 5.943771 0.5690185
vt 5.943771 0.5690185
vt 5.963568 0.1695068
vt 5.963568 0.1695068
vt 6.962268 0.2214966
vt 6.962268 0.2214966
vt 6.99487 -0.3776123
vt 6.99487 -0.3776123
vt 6.940534 0.6209106
vt 6.940534 0.6209106
vt 6.962268 0.2214966
vt 6.962268 0.2214966
vt 7.975976 0.2788696
vt 7.975976 0.2788696
vt 8.011111 -0.320105
vt 8.011111 -0.320105
vt 7.952554 0.6781861
vt 7.952554 0.6781861
vt 7.975976 0.2788696
vt 7.975976 0.2788696
vt 8.979281 0.3395508
vt 8.979281 0.3395508
vt 9.016541 -0.2592896
vt 9.016541 -0.2592896
vt 8.954447 0.7387818
vt 8.954447 0.7387818
vt 8.979281 0.3395508
vt 8.979281 0.3395508
vt 9.995539 0.4043701
vt 9.995539 0.4043701
vt 10.03459 -0.1943604
vt 10.03459 -0.1943604
vt 9.969501 0.8035278
vt 9.969501 0.8035278
vt 9.995539 0.4043701
vt 9.995539 0.4043701
vt 10.99864 0.4710693
vt 10.99864 0.4710693
vt 11.03915 -0.1275635
vt 11.03915 -0.1275635
vt 10.97163 0.8701538
vt 10.97163 0.8701538
vt 10.99864 0.4710693
vt 10.99864 0.4710693
vt 12.01289 0.5407104
vt 12.01289 0.5407104
vt 12.05456 -0.05783692
vt 12.05456 -0.05783692
vt 11.9851 0.9397461
vt 11.9851 0.9397461
vt 12.01289 0.5407104
vt 12.01289 0.5407104
vt 13.01188 0.6110474
vt 13.01188 0.6110474
vt 13.05444 0.01256104
vt 13.05444 0.01256104
vt 12.98351 1.010034
vt 12.98351 1.010034
vt 13.01188 0.6110474
vt 13.01188 0.6110474
vt 14.02024 0.683313
vt 14.02024 0.683313
vt 14.06342 0.08487549
vt 14.06342 0.08487549
vt 13.99146 1.082275
vt 13.99146 1.082275
vt 14.02024 0.683313
vt 14.02024 0.683313
vt 15.03729 0.7570679
vt 15.03729 0.7570679
vt 15.08085 0.1586548
vt 15.08085 0.1586548
vt 15.00825 1.156018
vt 15.00825 1.156018
vt 15.03729 0.7570679
vt 15.03729 0.7570679
vt 16.03626 0.8299195
vt 16.03626 0.8299195
vt 16.07996 0.2315063
vt 16.07996 0.2315063
vt 16.00713 1.228857
vt 16.00713 1.228857
vt 16.03626 0.8299195
vt 16.03626 0.8299195
vt 17.04262 0.903357
vt 17.04262 0.903357
vt 17.08624 0.3049439
vt 17.08624 0.3049439
vt 17.01354 1.302295
vt 17.01354 1.302295
vt 17.04262 0.903357
vt 17.04262 0.903357
vt 18.05573 0.9769897
vt 18.05573 0.9769897
vt 18.09906 0.3785523
vt 18.09906 0.3785523
vt 18.02685 1.37594
vt 18.02685 1.37594
vt 18.05573 0.9769897
vt 18.05573 0.9769897
vt 19.07512 1.050378
vt 19.07512 1.050378
vt 19.11794 0.4519043
vt 19.11794 0.4519043
vt 19.04658 1.449353
vt 19.04658 1.449353
vt 19.07512 1.050378
vt 19.07512 1.050378
vt 20.10037 1.123132
vt 20.10037 1.123132
vt 20.14246 0.5246094
vt 20.14246 0.5246094
vt 20.07231 1.522144
vt 20.07231 1.522144
vt 20.10037 1.123132
vt 20.10037 1.123132
vt 21.10378 1.192969
vt 21.10378 1.192969
vt 21.14496 0.5943848
vt 21.14496 0.5943848
vt 21.07632 1.592029
vt 21.07632 1.592029
vt 21.10378 1.192969
vt 21.10378 1.192969
vt 22.1118 1.261414
vt 22.1118 1.261414
vt 22.15189 0.6627564
vt 22.15189 0.6627564
vt 22.08508 1.660522
vt 22.08508 1.660522
vt 22.1118 1.261414
vt 22.1118 1.261414
vt 23.12391 1.328101
vt 23.12391 1.328101
vt 23.16269 0.7293579
vt 23.16269 0.7293579
vt 23.09805 1.727258
vt 23.09805 1.727258
vt 23.12391 1.328101
vt 23.12391 1.328101
vt 24.13962 1.392651
vt 24.13962 1.392651
vt 24.17692 0.793811
vt 24.17692 0.793811
vt 24.11476 1.79187
vt 24.11476 1.79187
vt 24.13962 1.392651
vt 24.13962 1.392651
vt 25.1586 1.454687
vt 25.1586 1.454687
vt 25.1942 0.8557495
vt 25.1942 0.8557495
vt 25.13486 1.853979
vt 25.13486 1.853979
vt 25.1586 1.454687
vt 25.1586 1.454687
vt 26.18034 1.513843
vt 26.18034 1.513843
vt 26.21406 0.9147949
vt 26.21406 0.9147949
vt 26.15787 1.913208
vt 26.15787 1.913208
vt 26.18034 1.513843
vt 26.18034 1.513843
vt 27.20439 1.569702
vt 27.20439 1.569702
vt 27.23601 0.9705322
vt 27.23601 0.9705322
vt 27.18331 1.969141
vt 27.18331 1.969141
vt 27.20439 1.569702
vt 27.20439 1.569702

usemtl GSDShoulder1
usemap GSDShoulder1
f 9/9/9 1/1/1 3/3/3
f 11/11/11 9/9/9 3/3/3
f 13/13/13 5/5/5 7/7/7
f 15/15/15 13/13/13 7/7/7
f 17/17/17 9/9/9 11/11/11
f 19/19/19 17/17/17 11/11/11
f 21/21/21 13/13/13 15/15/15
f 23/23/23 21/21/21 15/15/15
f 25/25/25 17/17/17 19/19/19
f 27/27/27 25/25/25 19/19/19
f 29/29/29 21/21/21 23/23/23
f 31/31/31 29/29/29 23/23/23
f 33/33/33 25/25/25 27/27/27
f 35/35/35 33/33/33 27/27/27
f 37/37/37 29/29/29 31/31/31
f 39/39/39 37/37/37 31/31/31
f 41/41/41 33/33/33 35/35/35
f 43/43/43 41/41/41 35/35/35
f 45/45/45 37/37/37 39/39/39
f 47/47/47 45/45/45 39/39/39
f 49/49/49 41/41/41 43/43/43
f 51/51/51 49/49/49 43/43/43
f 53/53/53 45/45/45 47/47/47
f 55/55/55 53/53/53 47/47/47
f 57/57/57 49/49/49 51/51/51
f 59/59/59 57/57/57 51/51/51
f 61/61/61 53/53/53 55/55/55
f 63/63/63 61/61/61 55/55/55
f 65/65/65 57/57/57 59/59/59
f 67/67/67 65/65/65 59/59/59
f 69/69/69 61/61/61 63/63/63
f 71/71/71 69/69/69 63/63/63
f 73/73/73 65/65/65 67/67/67
f 75/75/75 73/73/73 67/67/67
f 77/77/77 69/69/69 71/71/71
f 79/79/79 77/77/77 71/71/71
f 81/81/81 73/73/73 75/75/75
f 83/83/83 81/81/81 75/75/75
f 85/85/85 77/77/77 79/79/79
f 87/87/87 85/85/85 79/79/79
f 89/89/89 81/81/81 83/83/83
f 91/91/91 89/89/89 83/83/83
f 93/93/93 85/85/85 87/87/87
f 95/95/95 93/93/93 87/87/87
f 97/97/97 89/89/89 91/91/91
f 99/99/99 97/97/97 91/91/91
f 101/101/101 93/93/93 95/95/95
f 103/103/103 101/101/101 95/95/95
f 105/105/105 97/97/97 99/99/99
f 107/107/107 105/105/105 99/99/99
f 109/109/109 101/101/101 103/103/103
f 111/111/111 109/109/109 103/103/103
f 113/113/113 105/105/105 107/107/107
f 115/115/115 113/113/113 107/107/107
f 117/117/117 109/109/109 111/111/111
f 119/119/119 117/117/117 111/111/111
f 121/121/121 113/113/113 115/115/115
f 123/123/123 121/121/121 115/115/115
f 125/125/125 117/117/117 119/119/119
f 127/127/127 125/125/125 119/119/119
f 129/129/129 121/121/121 123/123/123
f 131/131/131 129/129/129 123/123/123
f 133/133/133 125/125/125 127/127/127
f 135/135/135 133/133/133 127/127/127
f 137/137/137 129/129/129 131/131/131
f 139/139/139 137/137/137 131/131/131
f 141/141/141 133/133/133 135/135/135
f 143/143/143 141/141/141 135/135/135
f 145/145/145 137/137/137 139/139/139
f 147/147/147 145/145/145 139/139/139
f 149/149/149 141/141/141 143/143/143
f 151/151/151 149/149/149 143/143/143
f 153/153/153 145/145/145 147/147/147
f 155/155/155 153/153/153 147/147/147
f 157/157/157 149/149/149 151/151/151
f 159/159/159 157/157/157 151/151/151
f 161/161/161 153/153/153 155/155/155
f 163/163/163 161/161/161 155/155/155
f 165/165/165 157/157/157 159/159/159
f 167/167/167 165/165/165 159/159/159
f 169/169/169 161/161/161 163/163/163
f 171/171/171 169/169/169 163/163/163
f 173/173/173 165/165/165 167/167/167
f 175/175/175 173/173/173 167/167/167
f 177/177/177 169/169/169 171/171/171
f 179/179/179 177/177/177 171/171/171
f 181/181/181 173/173/173 175/175/175
f 183/183/183 181/181/181 175/175/175
f 185/185/185 177/177/177 179/179/179
f 187/187/187 185/185/185 179/179/179
f 189/189/189 181/181/181 183/183/183
f 191/191/191 189/189/189 183/183/183
f 193/193/193 185/185/185 187/187/187
f 195/195/195 193/193/193 187/187/187
f 197/197/197 189/189/189 191/191/191
f 199/199/199 197/197/197 191/191/191
f 201/201/201 193/193/193 195/195/195
f 203/203/203 201/201/201 195/195/195
f 205/205/205 197/197/197 199/199/199
f 207/207/207 205/205/205 199/199/199
f 209/209/209 201/201/201 203/203/203
f 211/211/211 209/209/209 203/203/203
f 213/213/213 205/205/205 207/207/207
f 215/215/215 213/213/213 207/207/207
f 217/217/217 209/209/209 211/211/211
f 219/219/219 217/217/217 211/211/211
f 221/221/221 213/213/213 215/215/215
f 223/223/223 221/221/221 215/215/215
