mtllib ./Road1_0_30.mtl
g RoadCut15
v -658.2386 35.02357 45.51538
v -658.2386 35.02357 45.51538
v -657.115 35.02357 55.42037
v -657.115 35.02357 55.42037
v -653.2537 34.61907 44.89864
v -653.2537 34.61907 44.89864
v -652.0665 34.61907 54.79576
v -652.0665 34.61907 54.79576
v -648.1318 34.21354 44.32887
v -648.1318 34.21354 44.32887
v -647.1298 34.21354 54.2464
v -647.1298 34.21354 54.2464
v -642.893 33.80548 43.87881
v -642.893 33.80548 43.87881
v -642.2249 33.80548 53.82444
v -642.2249 33.80548 53.82444
v -637.4377 33.39869 43.68937
v -637.4377 33.39869 43.68937
v -637.5224 33.39869 53.65734
v -637.5224 33.39869 53.65734
v -631.8068 33.00228 44.12843
v -631.8068 33.00228 44.12843
v -633.1506 33.00228 54.00707
v -633.1506 33.00228 54.00707
v -627.4788 32.60205 44.43216
v -627.4788 32.60205 44.43216
v -627.3798 32.60205 54.39997
v -627.3798 32.60205 54.39997

vn 0.07976364 0.9967728 -0.00904867
vn 0 0 0
vn 0.07923082 0.9968134 -0.009245775
vn 0 0 0
vn 0.0787795 0.9968488 -0.009278661
vn 0 0 0
vn 0.07916766 0.9968208 -0.008995917
vn 0 0 0
vn 0.07857595 0.9968724 -0.008432874
vn 0 0 0
vn 0.0800618 0.996764 -0.007182131
vn 0 0 0
vn 0.07772668 0.9969561 -0.006097934
vn 0 0 0
vn 0.08063025 0.9967384 -0.003381499
vn 0 0 0
vn 0.07634129 0.9970808 -0.001290468
vn 0 0 0
vn 0.08101114 0.9967048 0.004082202
vn 0 0 0
vn 0.08239026 0.9965705 0.007695755
vn 0 0 0
vn 0.08190405 0.9966148 0.00712022
vn 0 0 0
vn 0.07867603 0.996888 0.00493497
vn 0 0 0
vn 0.06923456 0.9976002 -0.0006876288
vn 0 0 0

vt 0 0
vt 0 0
vt -0.2247314 1.980998
vt -0.2247314 1.980998
vt -0.9969971 -0.1233475
vt -0.9969971 -0.1233475
vt -1.234424 1.856076
vt -1.234424 1.856076
vt -2.021362 -0.2373024
vt -2.021362 -0.2373024
vt -2.221777 1.746204
vt -2.221777 1.746204
vt -3.069129 -0.327314
vt -3.069129 -0.327314
vt -3.202747 1.661811
vt -3.202747 1.661811
vt -4.160193 -0.3652023
vt -4.160193 -0.3652023
vt -4.14325 1.628392
vt -4.14325 1.628392
vt -5.286377 -0.277391
vt -5.286377 -0.277391
vt -5.017602 1.698338
vt -5.017602 1.698338
vt -6.151978 -0.216645
vt -6.151978 -0.216645
vt -6.171777 1.776917
vt -6.171777 1.776917

usemtl GSDRoad1
usemap GSDRoad1
f 5/5/5 1/1/1 3/3/3
f 7/7/7 5/5/5 3/3/3
f 9/9/9 5/5/5 7/7/7
f 11/11/11 9/9/9 7/7/7
f 13/13/13 9/9/9 11/11/11
f 15/15/15 13/13/13 11/11/11
f 17/17/17 13/13/13 15/15/15
f 19/19/19 17/17/17 15/15/15
f 21/21/21 17/17/17 19/19/19
f 23/23/23 21/21/21 19/19/19
f 25/25/25 21/21/21 23/23/23
f 27/27/27 25/25/25 23/23/23
