mtllib ./Road1_0_228.mtl
g SCutL19
v -502.6541 22.5041 29.3367
v -502.6541 22.5041 29.3367
v -502.3169 22.5041 32.47011
v -502.3169 22.5041 32.47011
v -502.8716 21.41717 27.31448
v -502.8716 21.41717 27.31448
v -502.6541 22.5041 29.3367
v -502.6541 22.5041 29.3367
v -498.1608 22.09595 28.79182
v -498.1608 22.09595 28.79182
v -497.6065 22.09595 31.85904
v -497.6065 22.09595 31.85904
v -498.521 20.92948 26.7988
v -498.521 20.92948 26.7988
v -498.1608 22.09595 28.79182
v -498.1608 22.09595 28.79182
v -494.5028 21.70435 27.88408
v -494.5028 21.70435 27.88408
v -493.5027 21.70435 30.7946
v -493.5027 21.70435 30.7946
v -495.1578 20.23354 25.97776
v -495.1578 20.23354 25.97776
v -494.5028 21.70435 27.88408
v -494.5028 21.70435 27.88408
v -489.6589 21.31866 26.11193
v -489.6589 21.31866 26.11193
v -488.6992 21.31866 29.03454
v -488.6992 21.31866 29.03454
v -490.2877 20.23354 24.19721
v -490.2877 20.23354 24.19721
v -489.6589 21.31866 26.11193
v -489.6589 21.31866 26.11193
v -483.3137 20.91543 24.61021
v -483.3137 20.91543 24.61021
v -482.8781 20.91543 27.69547
v -482.8781 20.91543 27.69547
v -483.5968 18.95157 22.60514
v -483.5968 18.95157 22.60514
v -483.3137 20.91543 24.61021
v -483.3137 20.91543 24.61021
v -477.4213 20.50725 24.07255
v -477.4213 20.50725 24.07255
v -477.3114 20.50725 27.23652
v -477.3114 20.50725 27.23652
v -477.492 18.95157 22.03636
v -477.492 18.95157 22.03636
v -477.4213 20.50725 24.07255
v -477.4213 20.50725 24.07255
v -471.7593 20.0883 24.00381
v -471.7593 20.0883 24.00381
v -471.8342 20.0883 27.21941
v -471.8342 20.0883 27.21941
v -471.7116 18.95157 21.95429
v -471.7116 18.95157 21.95429
v -471.7593 20.0883 24.00381
v -471.7593 20.0883 24.00381

vn 0.08930292 0.9959581 -0.009608219
vn 0 0 0
vn 0.08678309 0.9961491 -0.01247657
vn 0 0 0
vn 0.04195624 0.8781611 -0.4765213
vn 0 0 0
vn 0.02906859 0.8698946 -0.4923806
vn 0 0 0
vn 0.09113926 0.9957371 -0.01418693
vn 0 0 0
vn 0.0905211 0.9956723 -0.02103668
vn 0 0 0
vn 0.0357138 0.8665413 -0.4978259
vn 0 0 0
vn 0.0006585568 0.84196 -0.5395396
vn 0 0 0
vn 0.08496907 0.9960848 -0.02439593
vn 0 0 0
vn 0.07574367 0.9967975 -0.02564242
vn 0 0 0
vn -0.09151 0.8240375 -0.5590958
vn 0 0 0
vn -0.1288908 0.8336719 -0.5370088
vn 0 0 0
vn 0.06629668 0.9975552 -0.02210127
vn 0 0 0
vn 0.06527557 0.9977198 -0.01715366
vn 0 0 0
vn -0.07596813 0.8556975 -0.5118699
vn 0 0 0
vn -0.0569002 0.8179441 -0.5724768
vn 0 0 0
vn 0.06451897 0.9978321 -0.01297606
vn 0 0 0
vn 0.06930844 0.9975688 -0.007275768
vn 0 0 0
vn -0.04943595 0.7689182 -0.6374331
vn 0 0 0
vn -0.06445205 0.7424069 -0.6668419
vn 0 0 0
vn 0.07160056 0.997421 -0.004964158
vn 0 0 0
vn 0.07431412 0.9972342 -0.00111628
vn 0 0 0
vn -0.02650747 0.76796 -0.639949
vn 0 0 0
vn 0.0150149 0.821148 -0.5705178
vn 0 0 0
vn 0.07500629 0.997183 -0.0004119058
vn 0 0 0
vn 0.07627307 0.9970854 0.001776371
vn 0 0 0
vn 0.02331059 0.8347122 -0.5501928
vn 0 0 0
vn 0.0587729 0.8735673 -0.4831417
vn 0 0 0

vt 0 0
vt 0 0
vt -0.06742554 0.6266819
vt -0.06742554 0.6266819
vt 0.04351196 -0.4044437
vt 0.04351196 -0.4044437
vt 0 0
vt 0 0
vt -0.8986511 -0.1089771
vt -0.8986511 -0.1089771
vt -1.009515 0.5044681
vt -1.009515 0.5044681
vt -0.8266174 -0.5075802
vt -0.8266174 -0.5075802
vt -0.8986511 -0.1089771
vt -0.8986511 -0.1089771
vt -1.630255 -0.2905247
vt -1.630255 -0.2905247
vt -1.830267 0.2915798
vt -1.830267 0.2915798
vt -1.499255 -0.6717892
vt -1.499255 -0.6717892
vt -1.630255 -0.2905247
vt -1.630255 -0.2905247
vt -2.59903 -0.6449539
vt -2.59903 -0.6449539
vt -2.790979 -0.06043205
vt -2.790979 -0.06043205
vt -2.473273 -1.027898
vt -2.473273 -1.027898
vt -2.59903 -0.6449539
vt -2.59903 -0.6449539
vt -3.868067 -0.9452991
vt -3.868067 -0.9452991
vt -3.9552 -0.3282459
vt -3.9552 -0.3282459
vt -3.811444 -1.346313
vt -3.811444 -1.346313
vt -3.868067 -0.9452991
vt -3.868067 -0.9452991
vt -5.046552 -1.052831
vt -5.046552 -1.052831
vt -5.068536 -0.4200363
vt -5.068536 -0.4200363
vt -5.03241 -1.460068
vt -5.03241 -1.460068
vt -5.046552 -1.052831
vt -5.046552 -1.052831
vt -6.178943 -1.066579
vt -6.178943 -1.066579
vt -6.163965 -0.4234589
vt -6.163965 -0.4234589
vt -6.188483 -1.476482
vt -6.188483 -1.476482
vt -6.178943 -1.066579
vt -6.178943 -1.066579

usemtl GSDShoulder1
usemap GSDShoulder1
f 9/9/9 1/1/1 3/3/3
f 11/11/11 9/9/9 3/3/3
f 13/13/13 5/5/5 7/7/7
f 15/15/15 13/13/13 7/7/7
f 17/17/17 9/9/9 11/11/11
f 19/19/19 17/17/17 11/11/11
f 21/21/21 13/13/13 15/15/15
f 23/23/23 21/21/21 15/15/15
f 25/25/25 17/17/17 19/19/19
f 27/27/27 25/25/25 19/19/19
f 29/29/29 21/21/21 23/23/23
f 31/31/31 29/29/29 23/23/23
f 33/33/33 25/25/25 27/27/27
f 35/35/35 33/33/33 27/27/27
f 37/37/37 29/29/29 31/31/31
f 39/39/39 37/37/37 31/31/31
f 41/41/41 33/33/33 35/35/35
f 43/43/43 41/41/41 35/35/35
f 45/45/45 37/37/37 39/39/39
f 47/47/47 45/45/45 39/39/39
f 49/49/49 41/41/41 43/43/43
f 51/51/51 49/49/49 43/43/43
f 53/53/53 45/45/45 47/47/47
f 55/55/55 53/53/53 47/47/47
