mtllib ./Road12_2_19.mtl
g Markers0
v -399.61 0.04 578.0373
v -399.61 0.04 578.0373
v -399.7214 0.04 568.0379
v -399.7214 0.04 568.0379
v -404.6568 0.04 578.0797
v -404.6568 0.04 578.0797
v -404.7201 0.04 568.08
v -404.7201 0.04 568.08
v -409.6987 0.04 578.105
v -409.6987 0.04 578.105
v -409.7381 0.04 568.1052
v -409.7381 0.04 568.1052
v -414.7491 0.04 578.1212
v -414.7491 0.04 578.1212
v -414.7746 0.04 568.1212
v -414.7746 0.04 568.1212
v -419.763 0.04 578.1317
v -419.763 0.04 578.1317
v -419.7797 0.04 568.1317
v -419.7797 0.04 568.1317
v -424.7936 0.04 578.1384
v -424.7936 0.04 578.1384
v -424.8047 0.04 568.1384
v -424.8047 0.04 568.1384
v -429.803 0.04 578.1431
v -429.803 0.04 578.1431
v -429.8106 0.04 568.1431
v -429.8106 0.04 568.1431
v -434.8337 0.04 578.1464
v -434.8337 0.04 578.1464
v -434.8393 0.04 568.1464
v -434.8393 0.04 568.1464
v -439.8379 0.04 578.1489
v -439.8379 0.04 578.1489
v -439.8427 0.04 568.1489
v -439.8427 0.04 568.1489
v -444.8946 0.04 578.1512
v -444.8946 0.04 578.1512
v -444.8994 0.04 568.1512
v -444.8994 0.04 568.1512
v -449.9151 0.04 578.1539
v -449.9151 0.04 578.1539
v -449.9207 0.04 568.1539
v -449.9207 0.04 568.1539
v -454.9342 0.04 578.157
v -454.9342 0.04 578.157
v -454.9412 0.04 568.157
v -454.9412 0.04 568.157
v -459.9952 0.04 578.1611
v -459.9952 0.04 578.1611
v -460.0043 0.04 568.1611
v -460.0043 0.04 568.1611
v -465.0163 0.04 578.1661
v -465.0163 0.04 578.1661
v -465.0278 0.04 568.1661
v -465.0278 0.04 568.1661
v -470.046 0.04 578.1727
v -470.046 0.04 578.1727
v -470.0606 0.04 568.1727
v -470.0606 0.04 568.1727
v -475.0705 0.04 578.1809
v -475.0705 0.04 578.1809
v -475.0887 0.04 568.1809
v -475.0887 0.04 568.1809
v -480.0771 0.04 578.191
v -480.0771 0.04 578.191
v -480.0992 0.04 568.191
v -480.0992 0.04 568.191
v -485.1221 0.04 578.2032
v -485.1221 0.04 578.2032
v -485.1487 0.04 568.2032
v -485.1487 0.04 568.2032
v -490.1263 0.04 578.2177
v -490.1263 0.04 578.2177
v -490.1579 0.04 568.2177
v -490.1579 0.04 568.2177
v -495.148 0.04 578.2349
v -495.148 0.04 578.2349
v -495.1851 0.04 568.235
v -495.1851 0.04 568.235
v -500.1772 0.04 578.2551
v -500.1772 0.04 578.2551
v -500.2204 0.04 568.2552
v -500.2204 0.04 568.2552
v -505.2041 0.04 578.2784
v -505.2041 0.04 578.2784
v -505.254 0.04 568.2786
v -505.254 0.04 568.2786
v -510.2189 0.04 578.3053
v -510.2189 0.04 578.3053
v -510.2761 0.04 568.3054
v -510.2761 0.04 568.3054
v -515.2797 0.04 578.3362
v -515.2797 0.04 578.3362
v -515.3452 0.04 568.3365
v -515.3452 0.04 568.3365
v -520.3076 0.04 578.3713
v -520.3076 0.04 578.3713
v -520.382 0.04 568.3716
v -520.382 0.04 568.3716
v -525.3592 0.04 578.4113
v -525.3592 0.04 578.4113
v -525.4434 0.04 568.4117
v -525.4434 0.04 568.4117
v -530.3556 0.04 578.4561
v -530.3556 0.04 578.4561
v -530.4508 0.04 568.4566
v -530.4508 0.04 568.4566
v -535.3514 0.04 578.5067
v -535.3514 0.04 578.5067
v -535.4587 0.04 568.5073
v -535.4587 0.04 568.5073
v -540.3963 0.04 578.5642
v -540.3963 0.04 578.5642
v -540.5174 0.04 568.5649
v -540.5174 0.04 568.5649
v -545.409 0.04 578.6287
v -545.409 0.04 578.6287
v -545.5456 0.04 568.6297
v -545.5456 0.04 568.6297
v -550.4338 0.04 578.7017
v -550.4338 0.04 578.7017
v -550.588 0.04 568.7029
v -550.588 0.04 568.7029
v -555.4483 0.04 578.784
v -555.4483 0.04 578.784
v -555.6227 0.04 568.7855
v -555.6227 0.04 568.7855
v -560.4849 0.04 578.8776
v -560.4849 0.04 578.8776
v -560.683 0.04 568.8796
v -560.683 0.04 568.8796
v -565.5093 0.04 578.984
v -565.5093 0.04 578.984
v -565.7355 0.04 568.9866
v -565.7355 0.04 568.9866
v -570.5361 0.04 579.106
v -570.5361 0.04 579.106
v -570.7961 0.04 569.1094
v -570.7961 0.04 569.1094
v -575.5629 0.04 579.2469
v -575.5629 0.04 579.2469
v -575.865 0.04 569.2515
v -575.865 0.04 569.2515
v -580.5672 0.04 579.4111
v -580.5672 0.04 579.4111
v -580.9232 0.04 569.4174
v -580.9232 0.04 569.4174
v -585.5419 0.04 579.6053
v -585.5419 0.04 579.6053
v -585.9703 0.04 569.6145
v -585.9703 0.04 569.6145
v -590.5029 0.04 579.8423
v -590.5029 0.04 579.8423
v -591.036 0.04 569.8566
v -591.036 0.04 569.8566
v -595.4083 0.04 580.1423
v -595.4083 0.04 580.1423
v -596.1124 0.04 570.1671
v -596.1124 0.04 570.1671

vn 0 1 0
vn 0 0 0
vn 0 1 0
vn 0 0 0
vn 1.234511E-10 1 -7.81384E-13
vn 0 0 0
vn 2.473787E-10 1 -1.270587E-12
vn 0 0 0
vn 1.232658E-10 0.9999999 -7.802112E-13
vn 0 0 0
vn -1.233127E-10 1 3.138512E-13
vn 0 0 0
vn -3.700391E-10 1 1.114217E-12
vn 0 0 0
vn -3.711556E-10 1 8.366708E-13
vn 0 0 0
vn -1.23767E-10 1 3.150075E-13
vn 0 0 0
vn 1.236751E-10 1 -1.373832E-13
vn 0 0 0
vn 2.472802E-10 1 -3.441155E-13
vn 0 0 0
vn 1.238436E-10 1 -1.375704E-13
vn 0 0 0
vn 1.237969E-10 1 -9.444957E-14
vn 0 0 0
vn 2.472764E-10 0.9999999 -1.637542E-13
vn 0 0 0
vn 1.23652E-10 1 -9.4339E-14
vn 0 0 0
vn -1.238769E-10 1 5.897459E-14
vn 0 0 0
vn -3.709396E-10 1 1.871603E-13
vn 0 0 0
vn -3.696516E-10 1 1.759816E-13
vn 0 0 0
vn -1.230775E-10 1 5.859405E-14
vn 0 0 0
vn 1.233661E-10 1 -6.852001E-14
vn 0 0 0
vn 2.473487E-10 1 -1.275694E-13
vn 0 0 0
vn 1.236741E-10 1 -6.869104E-14
vn 0 0 0
vn -1.233484E-10 1 8.657876E-14
vn 0 0 0
vn -2.459799E-10 1 1.974265E-13
vn 0 0 0
vn -2.459719E-10 1 1.974201E-13
vn 0 0 0
vn -1.232915E-10 1 1.113717E-13
vn 0 0 0
vn 0 1 0
vn 0 0 0
vn 0 1 0
vn 0 0 0
vn 2.469195E-10 1 -3.601914E-13
vn 0 0 0
vn 4.938926E-10 1 -8.078811E-13
vn 0 0 0
vn 3.710626E-10 1 -5.850698E-13
vn 0 0 0
vn 0 1 4.911583E-14
vn 0 0 0
vn -2.473271E-10 1 4.974016E-13
vn 0 0 0
vn -1.233129E-10 1 2.724565E-13
vn 0 0 0
vn 1.233646E-10 1 -3.282896E-13
vn 0 0 0
vn 2.473142E-10 1 -7.192702E-13
vn 0 0 0
vn 1.238854E-10 1 -3.296754E-13
vn 0 0 0
vn -1.236951E-10 1 4.590303E-13
vn 0 0 0
vn -2.470632E-10 1 8.482294E-13
vn 0 0 0
vn -1.234197E-10 0.9999999 4.580083E-13
vn 0 0 0
vn 1.234219E-10 1 -5.325948E-13
vn 0 0 0
vn 2.467712E-10 0.9999999 -1.147717E-12
vn 0 0 0
vn 1.235533E-10 1 -5.33162E-13
vn 0 0 0
vn -1.235927E-10 1 7.068344E-13
vn 0 0 0
vn -2.467387E-10 1 1.320755E-12
vn 0 0 0
vn -1.229268E-10 1 7.03026E-13
vn 0 0 0
vn 1.228779E-10 1 -8.040056E-13
vn 0 0 0
vn 2.461459E-10 1 -1.720239E-12
vn 0 0 0
vn 1.232148E-10 1 -8.062101E-13
vn 0 0 0
vn -1.229399E-10 1 1.035542E-12
vn 0 0 0
vn -3.698061E-10 1 2.993035E-12
vn 0 0 0
vn -3.708875E-10 1 3.259886E-12
vn 0 0 0
vn -1.241703E-10 1 1.045906E-12
vn 0 0 0
vn 1.240719E-10 1 -1.331371E-12
vn 0 0 0
vn 2.475244E-10 1 -2.506503E-12
vn 0 0 0
vn 1.232454E-10 1 -1.322501E-12
vn 0 0 0
vn -1.232031E-10 1 1.492022E-12
vn 0 0 0
vn -2.466747E-10 1 3.178557E-12
vn 0 0 0
vn -2.472264E-10 1 3.185666E-12
vn 0 0 0
vn -1.233675E-10 1 1.685324E-12
vn 0 0 0
vn 0 1 0
vn 0 0 0
vn 0 1 0
vn 0 0 0
vn 2.468679E-10 1 -4.306956E-12
vn 0 0 0
vn 4.922231E-10 1 -9.170664E-12
vn 0 0 0
vn 3.694103E-10 1 -6.736642E-12
vn 0 0 0
vn 7.508842E-15 1 3.454067E-13
vn 0 0 0
vn -2.465301E-10 1 5.231521E-12
vn 0 0 0
vn -1.229649E-10 1 2.782135E-12
vn 0 0 0
vn 0 1 0
vn 0 0 0
vn 0 1 0
vn 0 0 0
vn -1.232437E-10 1 3.725171E-12
vn 0 0 0
vn -2.459419E-10 1 8.096883E-12
vn 0 0 0
vn -1.237376E-10 1 3.7401E-12
vn 0 0 0
vn 1.233203E-10 1 -5.287202E-12
vn 0 0 0
vn 2.482258E-10 1 -9.741746E-12
vn 0 0 0
vn 1.233313E-10 1 -5.287672E-12
vn 0 0 0
vn 0 1 0
vn 0 0 0
vn 0 1 0
vn 0 0 0
vn 0 1 0
vn 0 0 0
vn 0 1 0
vn 0 0 0

vt 0 0
vt 0 0
vt 1 0
vt 0 0
vt 0 1.009405
vt 0 1.009405
vt 1 1.009405
vt 1 1.009405
vt 0 2.017791
vt 0 2.017791
vt 1 2.017791
vt 1 2.017791
vt 0 3.027892
vt 0 3.027892
vt 1 3.027892
vt 1 3.027892
vt 0 4.030659
vt 0 4.030659
vt 1 4.030659
vt 1 4.030659
vt 0 5.036788
vt 0 5.036788
vt 1 5.036788
vt 1 5.036788
vt 0 6.038662
vt 0 6.038662
vt 1 6.038662
vt 1 6.038662
vt 0 7.044802
vt 0 7.044802
vt 1 7.044802
vt 1 7.044802
vt 0 8.045645
vt 0 8.045645
vt 1 8.045645
vt 1 8.045645
vt 0 9.056985
vt 0 9.056985
vt 1 9.056985
vt 1 9.056985
vt 0 10.06109
vt 0 10.06109
vt 1 10.06109
vt 1 10.06109
vt 0 11.0649
vt 0 11.0649
vt 1 11.0649
vt 1 11.0649
vt 0 12.07712
vt 0 12.07712
vt 1 12.07712
vt 1 12.07712
vt 0 13.08132
vt 0 13.08132
vt 1 13.08132
vt 1 13.08132
vt 0 14.08727
vt 0 14.08727
vt 1 14.08727
vt 1 14.08727
vt 0 15.09218
vt 0 15.09218
vt 1 15.09218
vt 1 15.09218
vt 0 16.0935
vt 0 16.0935
vt 1 16.0935
vt 1 16.0935
vt 0 17.10249
vt 0 17.10249
vt 1 17.10249
vt 1 17.10249
vt 0 18.10334
vt 0 18.10334
vt 1 18.10334
vt 1 18.10334
vt 0 19.10768
vt 0 19.10768
vt 1 19.10768
vt 1 19.10768
vt 0 20.11354
vt 0 20.11354
vt 1 20.11354
vt 1 20.11354
vt 0 21.11893
vt 0 21.11893
vt 1 21.11893
vt 1 21.11893
vt 0 22.12189
vt 0 22.12189
vt 1 22.12189
vt 1 22.12189
vt 0 23.13408
vt 0 23.13408
vt 1 23.13408
vt 1 23.13408
vt 0 24.13969
vt 0 24.13969
vt 1 24.13969
vt 1 24.13969
vt 0 25.15003
vt 0 25.15003
vt 1 25.15003
vt 1 25.15003
vt 0 26.14935
vt 0 26.14935
vt 1 26.14935
vt 1 26.14935
vt 0 27.14856
vt 0 27.14856
vt 1 27.14856
vt 1 27.14856
vt 0 28.15761
vt 0 28.15761
vt 1 28.15761
vt 1 28.15761
vt 0 29.16023
vt 0 29.16023
vt 1 29.16023
vt 1 29.16023
vt 0 30.16531
vt 0 30.16531
vt 1 30.16531
vt 1 30.16531
vt 0 31.16834
vt 0 31.16834
vt 1 31.16834
vt 1 31.16834
vt 0 32.17582
vt 0 32.17582
vt 1 32.17582
vt 1 32.17582
vt 0 33.18094
vt 0 33.18094
vt 1 33.18094
vt 1 33.18094
vt 0 34.18658
vt 0 34.18658
vt 1 34.18658
vt 1 34.18658
vt 0 35.19234
vt 0 35.19234
vt 1 35.19234
vt 1 35.19234
vt 0 36.19374
vt 0 36.19374
vt 1 36.19374
vt 1 36.19374
vt 0 37.18945
vt 0 37.18945
vt 1 37.18945
vt 1 37.18945
vt 0 38.18278
vt 0 38.18278
vt 1 38.18278
vt 1 38.18278
vt 0 39.16568
vt 0 0
vt 1 39.16568
vt 0 0

usemtl GSDWhiteYellowDouble
usemap GSDWhiteYellowDouble
f 5/5/5 1/1/1 3/3/3
f 7/7/7 5/5/5 3/3/3
f 9/9/9 5/5/5 7/7/7
f 11/11/11 9/9/9 7/7/7
f 13/13/13 9/9/9 11/11/11
f 15/15/15 13/13/13 11/11/11
f 17/17/17 13/13/13 15/15/15
f 19/19/19 17/17/17 15/15/15
f 21/21/21 17/17/17 19/19/19
f 23/23/23 21/21/21 19/19/19
f 25/25/25 21/21/21 23/23/23
f 27/27/27 25/25/25 23/23/23
f 29/29/29 25/25/25 27/27/27
f 31/31/31 29/29/29 27/27/27
f 33/33/33 29/29/29 31/31/31
f 35/35/35 33/33/33 31/31/31
f 37/37/37 33/33/33 35/35/35
f 39/39/39 37/37/37 35/35/35
f 41/41/41 37/37/37 39/39/39
f 43/43/43 41/41/41 39/39/39
f 45/45/45 41/41/41 43/43/43
f 47/47/47 45/45/45 43/43/43
f 49/49/49 45/45/45 47/47/47
f 51/51/51 49/49/49 47/47/47
f 53/53/53 49/49/49 51/51/51
f 55/55/55 53/53/53 51/51/51
f 57/57/57 53/53/53 55/55/55
f 59/59/59 57/57/57 55/55/55
f 61/61/61 57/57/57 59/59/59
f 63/63/63 61/61/61 59/59/59
f 65/65/65 61/61/61 63/63/63
f 67/67/67 65/65/65 63/63/63
f 69/69/69 65/65/65 67/67/67
f 71/71/71 69/69/69 67/67/67
f 73/73/73 69/69/69 71/71/71
f 75/75/75 73/73/73 71/71/71
f 77/77/77 73/73/73 75/75/75
f 79/79/79 77/77/77 75/75/75
f 81/81/81 77/77/77 79/79/79
f 83/83/83 81/81/81 79/79/79
f 85/85/85 81/81/81 83/83/83
f 87/87/87 85/85/85 83/83/83
f 89/89/89 85/85/85 87/87/87
f 91/91/91 89/89/89 87/87/87
f 93/93/93 89/89/89 91/91/91
f 95/95/95 93/93/93 91/91/91
f 97/97/97 93/93/93 95/95/95
f 99/99/99 97/97/97 95/95/95
f 101/101/101 97/97/97 99/99/99
f 103/103/103 101/101/101 99/99/99
f 105/105/105 101/101/101 103/103/103
f 107/107/107 105/105/105 103/103/103
f 109/109/109 105/105/105 107/107/107
f 111/111/111 109/109/109 107/107/107
f 113/113/113 109/109/109 111/111/111
f 115/115/115 113/113/113 111/111/111
f 117/117/117 113/113/113 115/115/115
f 119/119/119 117/117/117 115/115/115
f 121/121/121 117/117/117 119/119/119
f 123/123/123 121/121/121 119/119/119
f 125/125/125 121/121/121 123/123/123
f 127/127/127 125/125/125 123/123/123
f 129/129/129 125/125/125 127/127/127
f 131/131/131 129/129/129 127/127/127
f 133/133/133 129/129/129 131/131/131
f 135/135/135 133/133/133 131/131/131
f 137/137/137 133/133/133 135/135/135
f 139/139/139 137/137/137 135/135/135
f 141/141/141 137/137/137 139/139/139
f 143/143/143 141/141/141 139/139/139
f 145/145/145 141/141/141 143/143/143
f 147/147/147 145/145/145 143/143/143
f 149/149/149 145/145/145 147/147/147
f 151/151/151 149/149/149 147/147/147
f 153/153/153 149/149/149 151/151/151
f 155/155/155 153/153/153 151/151/151
f 157/157/157 153/153/153 155/155/155
f 159/159/159 157/157/157 155/155/155
