mtllib ./Road1_0_91.mtl
g Markers45
v -845.3854 12.11203 659.0698
v -845.3854 12.11203 659.0698
v -841.9633 12.11203 668.4257
v -841.9633 12.11203 668.4257
v -839.2829 12.55752 657.6719
v -839.2829 12.55752 657.6719
v -838.295 12.55752 667.5837
v -838.295 12.55752 667.5837
v -833.1434 12.9969 657.7602
v -833.1434 12.9969 657.7602
v -834.3317 12.9969 667.654
v -834.3317 12.9969 667.654
v -827.4482 13.40884 658.8887
v -827.4482 13.40884 658.8887
v -830.0116 13.40884 668.5239
v -830.0116 13.40884 668.5239
v -822.3855 13.77876 660.4265
v -822.3855 13.77876 660.4265
v -825.5181 13.77876 669.8965
v -825.5181 13.77876 669.8965
v -817.5701 14.13091 662.0277
v -817.5701 14.13091 662.0277
v -820.6371 14.13091 671.5223
v -820.6371 14.13091 671.5223

vn -0.06718382 0.9974379 0.02457408
vn 0 0 0
vn -0.08630019 0.9960734 0.01975271
vn 0 0 0
vn -0.08067579 0.9966282 0.01495659
vn 0 0 0
vn -0.09513947 0.9954607 0.002553592
vn 0 0 0
vn -0.08073578 0.9967288 -0.003648867
vn 0 0 0
vn -0.08763874 0.996045 -0.01462195
vn 0 0 0
vn -0.07503222 0.9970508 -0.01611718
vn 0 0 0
vn -0.07670228 0.9968118 -0.02198216
vn 0 0 0
vn -0.06907852 0.9973834 -0.02131766
vn 0 0 0
vn -0.06824777 0.9974169 -0.02240147
vn 0 0 0
vn -0.06535348 0.9976334 -0.02136411
vn 0 0 0
vn -0.064987 0.9976652 -0.02099252
vn 0 0 0

vt 0 765.0613
vt 0 0
vt 1 765.0613
vt 0 0
vt 0 766.3167
vt 0 766.3167
vt 1 766.3167
vt 1 766.3167
vt 0 767.5478
vt 0 767.5478
vt 1 767.5478
vt 1 767.5478
vt 0 768.7119
vt 0 768.7119
vt 1 768.7119
vt 1 768.7119
vt 0 769.7727
vt 0 769.7727
vt 1 769.7727
vt 1 769.7727
vt 0 770.7901
vt 0 0
vt 1 770.7901
vt 0 0

usemtl GSDWhiteYellowDouble
usemap GSDWhiteYellowDouble
f 5/5/5 1/1/1 3/3/3
f 7/7/7 5/5/5 3/3/3
f 9/9/9 5/5/5 7/7/7
f 11/11/11 9/9/9 7/7/7
f 13/13/13 9/9/9 11/11/11
f 15/15/15 13/13/13 11/11/11
f 17/17/17 13/13/13 15/15/15
f 19/19/19 17/17/17 15/15/15
f 21/21/21 17/17/17 19/19/19
f 23/23/23 21/21/21 19/19/19
