mtllib ./Road8_2_16.mtl
g Markers0
v -325.6151 0.2466993 288.6593
v -325.6151 0.2466993 288.6593
v -325.7422 0.2466993 278.6637
v -325.7422 0.2466993 278.6637
v -327.6051 0.3012833 288.6855
v -327.6051 0.3012833 288.6855
v -327.742 0.3012833 278.6903
v -327.742 0.3012833 278.6903
v -332.6466 0.4466124 288.7599
v -332.6466 0.4466124 288.7599
v -332.805 0.4466124 278.7655
v -332.805 0.4466124 278.7655
v -337.6492 0.599524 288.8434
v -337.6492 0.599524 288.8434
v -337.825 0.599524 278.8498
v -337.825 0.599524 278.8498
v -342.6571 0.7599874 288.9349
v -342.6571 0.7599874 288.9349
v -342.8471 0.7599874 278.942
v -342.8471 0.7599874 278.942
v -347.7267 0.9289007 289.0342
v -347.7267 0.9289007 289.0342
v -347.9286 0.9289007 279.042
v -347.9286 0.9289007 279.042
v -352.7601 1.10219 289.1382
v -352.7601 1.10219 289.1382
v -352.9716 1.10219 279.1465
v -352.9716 1.10219 279.1465
v -357.8206 1.281303 289.2473
v -357.8206 1.281303 289.2473
v -358.0399 1.281303 279.256
v -358.0399 1.281303 279.256
v -362.8951 1.465225 289.3601
v -362.8951 1.465225 289.3601
v -363.1206 1.465225 279.3694
v -363.1206 1.465225 279.3694
v -367.9704 1.652978 289.4759
v -367.9704 1.652978 289.4759
v -368.2008 1.652978 279.4854
v -368.2008 1.652978 279.4854
v -373.0352 1.843673 289.5935
v -373.0352 1.843673 289.5935
v -373.2691 1.843673 279.6034
v -373.2691 1.843673 279.6034
v -378.0786 2.03648 289.7122
v -378.0786 2.03648 289.7122
v -378.315 2.03648 279.7224
v -378.315 2.03648 279.7224
v -383.0904 2.230617 289.8311
v -383.0904 2.230617 289.8311
v -383.3282 2.230617 279.8415
v -383.3282 2.230617 279.8415
v -388.1517 2.42893 289.9516
v -388.1517 2.42893 289.9516
v -388.39 2.42893 279.9622
v -388.39 2.42893 279.9622
v -393.165 2.627317 290.071
v -393.165 2.627317 290.071
v -393.403 2.627317 280.0818
v -393.403 2.627317 280.0818
v -398.2138 2.82881 290.191
v -398.2138 2.82881 290.191
v -398.4504 2.82881 280.2018
v -398.4504 2.82881 280.2018
v -403.2922 3.03297 290.3107
v -403.2922 3.03297 290.3107
v -403.5267 3.03297 280.3216
v -403.5267 3.03297 280.3216
v -408.301 3.235562 290.4275
v -408.301 3.235562 290.4275
v -408.5326 3.235562 280.4384
v -408.5326 3.235562 280.4384
v -413.3263 3.439835 290.5432
v -413.3263 3.439835 290.5432
v -413.5541 3.439835 280.554
v -413.5541 3.439835 280.554
v -418.3617 3.645339 290.6569
v -418.3617 3.645339 290.6569
v -418.585 3.645339 280.6677
v -418.585 3.645339 280.6677
v -423.402 3.851659 290.7682
v -423.402 3.851659 290.7682
v -423.6199 3.851659 280.7789
v -423.6199 3.851659 280.7789
v -428.4418 4.058381 290.8766
v -428.4418 4.058381 290.8766
v -428.6535 4.058381 280.8872
v -428.6535 4.058381 280.8872
v -433.4751 4.265062 290.9814
v -433.4751 4.265062 290.9814
v -433.6796 4.265062 280.9919
v -433.6796 4.265062 280.9919
v -438.4957 4.471263 291.0822
v -438.4957 4.471263 291.0822
v -438.6923 4.471263 281.0926
v -438.6923 4.471263 281.0926
v -443.4985 4.676569 291.1784
v -443.4985 4.676569 291.1784
v -443.686 4.676569 281.1886
v -443.686 4.676569 281.1886
v -448.5691 4.884294 291.2711
v -448.5691 4.884294 291.2711
v -448.7465 4.884294 281.2811
v -448.7465 4.884294 281.2811
v -453.609 5.090184 291.3579
v -453.609 5.090184 291.3579
v -453.7751 5.090184 281.3676
v -453.7751 5.090184 281.3676
v -458.6116 5.293766 291.438
v -458.6116 5.293766 291.438
v -458.7654 5.293766 281.4475
v -458.7654 5.293766 281.4475
v -463.6611 5.498226 291.5124
v -463.6611 5.498226 291.5124
v -463.801 5.498226 281.5215
v -463.801 5.498226 281.5215
v -468.748 5.702898 291.5798
v -468.748 5.702898 291.5798
v -468.8724 5.702898 281.5887
v -468.8724 5.702898 281.5887
v -473.7751 5.903601 291.6383
v -473.7751 5.903601 291.6383
v -473.8825 5.903601 281.6468
v -473.8825 5.903601 281.6468
v -478.8223 6.10324 291.6879
v -478.8223 6.10324 291.6879
v -478.9107 6.10324 281.6961
v -478.9107 6.10324 281.6961
v -483.8783 6.301003 291.7274
v -483.8783 6.301003 291.7274
v -483.9455 6.301003 281.7352
v -483.9455 6.301003 281.7352
v -488.9316 6.496056 291.7556
v -488.9316 6.496056 291.7556
v -488.975 6.496056 281.7631
v -488.975 6.496056 281.7631
v -493.9697 6.68747 291.771
v -493.9697 6.68747 291.771
v -493.9864 6.68747 281.7781
v -493.9864 6.68747 281.7781
v -499.0592 6.877233 291.772
v -499.0592 6.877233 291.772
v -499.0453 6.877233 281.7789
v -499.0453 6.877233 281.7789
v -504.1017 7.061042 291.7567
v -504.1017 7.061042 291.7567
v -504.0533 7.061042 281.7633
v -504.0533 7.061042 281.7633
v -509.1572 7.240388 291.7225
v -509.1572 7.240388 291.7225
v -509.069 7.240388 281.7291
v -509.069 7.240388 281.7291
v -514.2014 7.413492 291.6669
v -514.2014 7.413492 291.6669
v -514.067 7.413492 281.6735
v -514.067 7.413492 281.6735
v -519.278 7.58066 291.5853
v -519.278 7.58066 291.5853
v -519.0887 7.58066 281.5923
v -519.0887 7.58066 281.5923
v -524.3493 7.739102 291.4733
v -524.3493 7.739102 291.4733
v -524.0942 7.739102 281.4812
v -524.0942 7.739102 281.4812
v -529.4364 7.887437 291.3239
v -529.4364 7.887437 291.3239
v -529.1002 7.887437 281.3335
v -529.1002 7.887437 281.3335
v -534.5411 8.022814 291.1273
v -534.5411 8.022814 291.1273
v -534.1022 8.022814 281.1401
v -534.1022 8.022814 281.1401
v -539.6404 8.140479 290.8708
v -539.6404 8.140479 290.8708
v -539.0666 8.140479 280.8896
v -539.0666 8.140479 280.8896
v -544.7328 8.234098 290.5335
v -544.7328 8.234098 290.5335
v -543.9718 8.234098 280.5637
v -543.9718 8.234098 280.5637

vn 0.02741399 0.9996242 -0.0003485191
vn 0 0 0
vn 0.02734632 0.9996259 -0.0003611076
vn 0 0 0
vn 0.02816279 0.9996033 -0.0003797984
vn 0 0 0
vn 0.02850466 0.9995936 -0.0004162288
vn 0 0 0
vn 0.02934224 0.9995694 -0.0004443263
vn 0 0 0
vn 0.02988486 0.9995532 -0.0004912455
vn 0 0 0
vn 0.03099851 0.9995193 -0.0005275382
vn 0 0 0
vn 0.03145833 0.9995049 -0.000568507
vn 0 0 0
vn 0.03241205 0.9994744 -0.0006011521
vn 0 0 0
vn 0.03281016 0.9994614 -0.0006370387
vn 0 0 0
vn 0.03362813 0.9994341 -0.0006661049
vn 0 0 0
vn 0.03397438 0.9994224 -0.0006973172
vn 0 0 0
vn 0.034693 0.9993979 -0.0007232698
vn 0 0 0
vn 0.03499549 0.9993872 -0.0007499567
vn 0 0 0
vn 0.03562041 0.999365 -0.000772626
vn 0 0 0
vn 0.03588789 0.9993554 -0.0007952421
vn 0 0 0
vn 0.03643679 0.9993356 -0.0008149706
vn 0 0 0
vn 0.03667348 0.999327 -0.0008337917
vn 0 0 0
vn 0.03715524 0.9993092 -0.0008507227
vn 0 0 0
vn 0.03736477 0.9993013 -0.000866034
vn 0 0 0
vn 0.03778702 0.9992854 -0.000880365
vn 0 0 0
vn 0.03797283 0.9992784 -0.0008923625
vn 0 0 0
vn 0.038342 0.9992643 -0.0009041645
vn 0 0 0
vn 0.03850639 0.9992579 -0.000913072
vn 0 0 0
vn 0.03883074 0.9992453 -0.0009226777
vn 0 0 0
vn 0.03897762 0.9992397 -0.0009287103
vn 0 0 0
vn 0.03925725 0.9992287 -0.0009360119
vn 0 0 0
vn 0.0393878 0.9992235 -0.0009392143
vn 0 0 0
vn 0.03963224 0.9992139 -0.0009444808
vn 0 0 0
vn 0.03974798 0.9992093 -0.0009449743
vn 0 0 0
vn 0.03995624 0.999201 -0.0009482199
vn 0 0 0
vn 0.04005912 0.9991968 -0.0009460911
vn 0 0 0
vn 0.04023341 0.9991899 -0.0009473613
vn 0 0 0
vn 0.04032294 0.9991863 -0.0009426597
vn 0 0 0
vn 0.04046727 0.9991805 -0.0009420581
vn 0 0 0
vn 0.04054491 0.9991773 -0.0009348617
vn 0 0 0
vn 0.04065846 0.9991727 -0.0009324303
vn 0 0 0
vn 0.04072499 0.9991699 -0.0009226713
vn 0 0 0
vn 0.04081004 0.9991665 -0.0009183685
vn 0 0 0
vn 0.04086587 0.9991642 -0.0009060529
vn 0 0 0
vn 0.04092257 0.999162 -0.0008999768
vn 0 0 0
vn 0.04096765 0.9991601 -0.0008851085
vn 0 0 0
vn 0.04099658 0.9991589 -0.0008772212
vn 0 0 0
vn 0.04103174 0.9991574 -0.000859665
vn 0 0 0
vn 0.04103307 0.9991574 -0.0008499169
vn 0 0 0
vn 0.04105785 0.9991564 -0.0008296847
vn 0 0 0
vn 0.04103091 0.9991575 -0.0008181974
vn 0 0 0
vn 0.04104549 0.999157 -0.0007952426
vn 0 0 0
vn 0.04098941 0.9991593 -0.000781814
vn 0 0 0
vn 0.04099357 0.9991592 -0.0007556613
vn 0 0 0
vn 0.04090838 0.9991626 -0.000740267
vn 0 0 0
vn 0.04090155 0.9991629 -0.0007108987
vn 0 0 0
vn 0.04078475 0.9991677 -0.0006935923
vn 0 0 0
vn 0.04076679 0.9991685 -0.0006611528
vn 0 0 0
vn 0.04061642 0.9991746 -0.0006418305
vn 0 0 0
vn 0.04058665 0.9991758 -0.0006058057
vn 0 0 0
vn 0.04040108 0.9991833 -0.0005843742
vn 0 0 0
vn 0.04035767 0.9991851 -0.000544204
vn 0 0 0
vn 0.04013446 0.9991942 -0.0005205721
vn 0 0 0
vn 0.04007693 0.9991965 -0.0004764126
vn 0 0 0
vn 0.03980892 0.9992073 -0.0004505781
vn 0 0 0
vn 0.03973627 0.9992101 -0.000402013
vn 0 0 0
vn 0.03942277 0.9992225 -0.0003738265
vn 0 0 0
vn 0.03933221 0.9992262 -0.0003201118
vn 0 0 0
vn 0.03896559 0.9992405 -0.0002895542
vn 0 0 0
vn 0.03885531 0.9992449 -0.0002304375
vn 0 0 0
vn 0.0384285 0.9992613 -0.0001975172
vn 0 0 0
vn 0.03829509 0.9992664 -0.0001323721
vn 0 0 0
vn 0.0377954 0.9992855 -9.682428E-05
vn 0 0 0
vn 0.03763473 0.9992916 -2.455332E-05
vn 0 0 0
vn 0.03705797 0.9993131 1.325727E-05
vn 0 0 0
vn 0.03686426 0.9993202 9.31354E-05
vn 0 0 0
vn 0.0361842 0.9993451 0.000133217
vn 0 0 0
vn 0.03595241 0.9993533 0.0002214577
vn 0 0 0
vn 0.03515837 0.9993817 0.00026307
vn 0 0 0
vn 0.0348772 0.9993916 0.0003609165
vn 0 0 0
vn 0.03393114 0.999424 0.000403437
vn 0 0 0
vn 0.03358708 0.9994357 0.000512536
vn 0 0 0
vn 0.03245746 0.999473 0.0005544189
vn 0 0 0
vn 0.03202953 0.9994867 0.0006758924
vn 0 0 0
vn 0.03064725 0.99953 0.0007137593
vn 0 0 0
vn 0.03010571 0.9995464 0.0008483285
vn 0 0 0
vn 0.02838785 0.9995966 0.0008761398
vn 0 0 0
vn 0.02768345 0.9996163 0.001023673
vn 0 0 0
vn 0.02549138 0.9996746 0.001028868
vn 0 0 0
vn 0.02454317 0.9996981 0.001184179
vn 0 0 0
vn 0.02163502 0.9997653 0.001139037
vn 0 0 0
vn 0.0202953 0.9997933 0.001284123
vn 0 0 0
vn 0.01864244 0.9998255 0.001247285
vn 0 0 0
vn 0.01898596 0.9998187 0.001449184
vn 0 0 0

vt 0 0
vt 0 0
vt 1 0
vt 0 0
vt 0 0.3981883
vt 0 0.3981883
vt 1 0.3981883
vt 1 0.3981883
vt 0 1.407012
vt 0 1.407012
vt 1 1.407012
vt 1 1.407012
vt 0 2.408143
vt 0 2.408143
vt 1 2.408143
vt 1 2.408143
vt 0 3.410411
vt 0 3.410411
vt 1 3.410411
vt 1 3.410411
vt 0 4.42509
vt 0 4.42509
vt 1 4.42509
vt 1 4.42509
vt 0 5.432579
vt 0 5.432579
vt 1 5.432579
vt 1 5.432579
vt 0 6.445551
vt 0 6.445551
vt 1 6.445551
vt 1 6.445551
vt 0 7.461355
vt 0 7.461355
vt 1 7.461355
vt 1 7.461355
vt 0 8.477383
vt 0 8.477383
vt 1 8.477383
vt 1 8.477383
vt 0 9.491325
vt 0 9.491325
vt 1 9.491325
vt 1 9.491325
vt 0 10.50102
vt 0 10.50102
vt 1 10.50102
vt 1 10.50102
vt 0 11.50441
vt 0 11.50441
vt 1 11.50441
vt 1 11.50441
vt 0 12.51774
vt 0 12.51774
vt 1 12.51774
vt 1 12.51774
vt 0 13.52148
vt 0 13.52148
vt 1 13.52148
vt 1 13.52148
vt 0 14.53231
vt 0 14.53231
vt 1 14.53231
vt 1 14.53231
vt 0 15.5491
vt 0 15.5491
vt 1 15.5491
vt 1 15.5491
vt 0 16.55196
vt 0 16.55196
vt 1 16.55196
vt 1 16.55196
vt 0 17.5581
vt 0 17.5581
vt 1 17.5581
vt 1 17.5581
vt 0 18.56629
vt 0 18.56629
vt 1 18.56629
vt 1 18.56629
vt 0 19.57543
vt 0 19.57543
vt 1 19.57543
vt 1 19.57543
vt 0 20.58448
vt 0 20.58448
vt 1 20.58448
vt 1 20.58448
vt 0 21.59219
vt 0 21.59219
vt 1 21.59219
vt 1 21.59219
vt 0 22.59737
vt 0 22.59737
vt 1 22.59737
vt 1 22.59737
vt 0 23.59895
vt 0 23.59895
vt 1 23.59895
vt 1 23.59895
vt 0 24.61409
vt 0 24.61409
vt 1 24.61409
vt 1 24.61409
vt 0 25.62306
vt 0 25.62306
vt 1 25.62306
vt 1 25.62306
vt 0 26.62454
vt 0 26.62454
vt 1 26.62454
vt 1 26.62454
vt 0 27.63537
vt 0 27.63537
vt 1 27.63537
vt 1 27.63537
vt 0 28.65366
vt 0 28.65366
vt 1 28.65366
vt 1 28.65366
vt 0 29.65995
vt 0 29.65995
vt 1 29.65995
vt 1 29.65995
vt 0 30.67023
vt 0 30.67023
vt 1 30.67023
vt 1 30.67023
vt 0 31.68224
vt 0 31.68224
vt 1 31.68224
vt 1 31.68224
vt 0 32.69368
vt 0 32.69368
vt 1 32.69368
vt 1 32.69368
vt 0 33.70202
vt 0 33.70202
vt 1 33.70202
vt 1 33.70202
vt 0 34.72062
vt 0 34.72062
vt 1 34.72062
vt 1 34.72062
vt 0 35.7298
vt 0 35.7298
vt 1 35.7298
vt 1 35.7298
vt 0 36.74156
vt 0 36.74156
vt 1 36.74156
vt 1 36.74156
vt 0 37.75106
vt 0 37.75106
vt 1 37.75106
vt 1 37.75106
vt 0 38.76707
vt 0 38.76707
vt 1 38.76707
vt 1 38.76707
vt 0 39.78207
vt 0 39.78207
vt 1 39.78207
vt 1 39.78207
vt 0 40.80036
vt 0 40.80036
vt 1 40.80036
vt 1 40.80036
vt 0 41.82242
vt 0 41.82242
vt 1 41.82242
vt 1 41.82242
vt 0 42.84384
vt 0 42.84384
vt 1 42.84384
vt 1 42.84384
vt 0 43.86472
vt 0 43.86472
vt 1 43.86472
vt 1 43.86472

usemtl GSDWhiteYellowDouble
usemap GSDWhiteYellowDouble
f 5/5/5 1/1/1 3/3/3
f 7/7/7 5/5/5 3/3/3
f 9/9/9 5/5/5 7/7/7
f 11/11/11 9/9/9 7/7/7
f 13/13/13 9/9/9 11/11/11
f 15/15/15 13/13/13 11/11/11
f 17/17/17 13/13/13 15/15/15
f 19/19/19 17/17/17 15/15/15
f 21/21/21 17/17/17 19/19/19
f 23/23/23 21/21/21 19/19/19
f 25/25/25 21/21/21 23/23/23
f 27/27/27 25/25/25 23/23/23
f 29/29/29 25/25/25 27/27/27
f 31/31/31 29/29/29 27/27/27
f 33/33/33 29/29/29 31/31/31
f 35/35/35 33/33/33 31/31/31
f 37/37/37 33/33/33 35/35/35
f 39/39/39 37/37/37 35/35/35
f 41/41/41 37/37/37 39/39/39
f 43/43/43 41/41/41 39/39/39
f 45/45/45 41/41/41 43/43/43
f 47/47/47 45/45/45 43/43/43
f 49/49/49 45/45/45 47/47/47
f 51/51/51 49/49/49 47/47/47
f 53/53/53 49/49/49 51/51/51
f 55/55/55 53/53/53 51/51/51
f 57/57/57 53/53/53 55/55/55
f 59/59/59 57/57/57 55/55/55
f 61/61/61 57/57/57 59/59/59
f 63/63/63 61/61/61 59/59/59
f 65/65/65 61/61/61 63/63/63
f 67/67/67 65/65/65 63/63/63
f 69/69/69 65/65/65 67/67/67
f 71/71/71 69/69/69 67/67/67
f 73/73/73 69/69/69 71/71/71
f 75/75/75 73/73/73 71/71/71
f 77/77/77 73/73/73 75/75/75
f 79/79/79 77/77/77 75/75/75
f 81/81/81 77/77/77 79/79/79
f 83/83/83 81/81/81 79/79/79
f 85/85/85 81/81/81 83/83/83
f 87/87/87 85/85/85 83/83/83
f 89/89/89 85/85/85 87/87/87
f 91/91/91 89/89/89 87/87/87
f 93/93/93 89/89/89 91/91/91
f 95/95/95 93/93/93 91/91/91
f 97/97/97 93/93/93 95/95/95
f 99/99/99 97/97/97 95/95/95
f 101/101/101 97/97/97 99/99/99
f 103/103/103 101/101/101 99/99/99
f 105/105/105 101/101/101 103/103/103
f 107/107/107 105/105/105 103/103/103
f 109/109/109 105/105/105 107/107/107
f 111/111/111 109/109/109 107/107/107
f 113/113/113 109/109/109 111/111/111
f 115/115/115 113/113/113 111/111/111
f 117/117/117 113/113/113 115/115/115
f 119/119/119 117/117/117 115/115/115
f 121/121/121 117/117/117 119/119/119
f 123/123/123 121/121/121 119/119/119
f 125/125/125 121/121/121 123/123/123
f 127/127/127 125/125/125 123/123/123
f 129/129/129 125/125/125 127/127/127
f 131/131/131 129/129/129 127/127/127
f 133/133/133 129/129/129 131/131/131
f 135/135/135 133/133/133 131/131/131
f 137/137/137 133/133/133 135/135/135
f 139/139/139 137/137/137 135/135/135
f 141/141/141 137/137/137 139/139/139
f 143/143/143 141/141/141 139/139/139
f 145/145/145 141/141/141 143/143/143
f 147/147/147 145/145/145 143/143/143
f 149/149/149 145/145/145 147/147/147
f 151/151/151 149/149/149 147/147/147
f 153/153/153 149/149/149 151/151/151
f 155/155/155 153/153/153 151/151/151
f 157/157/157 153/153/153 155/155/155
f 159/159/159 157/157/157 155/155/155
f 161/161/161 157/157/157 159/159/159
f 163/163/163 161/161/161 159/159/159
f 165/165/165 161/161/161 163/163/163
f 167/167/167 165/165/165 163/163/163
f 169/169/169 165/165/165 167/167/167
f 171/171/171 169/169/169 167/167/167
f 173/173/173 169/169/169 171/171/171
f 175/175/175 173/173/173 171/171/171
f 177/177/177 173/173/173 175/175/175
f 179/179/179 177/177/177 175/175/175
