mtllib ./Road1_0_143.mtl
g SCutR4
v -365.8995 60.63526 583.4415
v -365.8995 60.63526 583.4415
v -366.1626 60.63526 580.3384
v -366.1626 60.63526 580.3384
v -366.1626 60.63526 580.3384
v -366.1626 60.63526 580.3384
v -366.334 60.22833 578.3174
v -366.334 60.22833 578.3174
v -370.8369 60.80263 583.8534
v -370.8369 60.80263 583.8534
v -371.0782 60.80263 580.6453
v -371.0782 60.80263 580.6453
v -371.0782 60.80263 580.6453
v -371.0782 60.80263 580.6453
v -371.2321 60.22833 578.5979
v -371.2321 60.22833 578.5979
v -375.7654 61.03433 584.1799
v -375.7654 61.03433 584.1799
v -375.9543 61.03433 580.8918
v -375.9543 61.03433 580.8918
v -375.9543 61.03433 580.8918
v -375.9543 61.03433 580.8918
v -376.0731 60.38558 578.8234
v -376.0731 60.38558 578.8234
v -380.7099 61.30765 584.4323
v -380.7099 61.30765 584.4323
v -380.8591 61.30765 581.0772
v -380.8591 61.30765 581.0772
v -380.8591 61.30765 581.0772
v -380.8591 61.30765 581.0772
v -380.9518 60.53307 578.9918
v -380.9518 60.53307 578.9918
v -385.656 61.61156 584.6282
v -385.656 61.61156 584.6282
v -385.7737 61.61156 581.2159
v -385.7737 61.61156 581.2159
v -385.7737 61.61156 581.2159
v -385.7737 61.61156 581.2159
v -385.8461 60.71052 579.116
v -385.8461 60.71052 579.116
v -390.6359 61.94157 584.7806
v -390.6359 61.94157 584.7806
v -390.7276 61.94157 581.3185
v -390.7276 61.94157 581.3185
v -390.7276 61.94157 581.3185
v -390.7276 61.94157 581.3185
v -390.7835 60.91667 579.2063
v -390.7835 60.91667 579.2063
v -395.5915 62.28922 584.8964
v -395.5915 62.28922 584.8964
v -395.6614 62.28922 581.3911
v -395.6614 62.28922 581.3911
v -395.6614 62.28922 581.3911
v -395.6614 62.28922 581.3911
v -395.7038 61.25082 579.2681
v -395.7038 61.25082 579.2681
v -400.6009 62.65672 584.9832
v -400.6009 62.65672 584.9832
v -400.652 62.65672 581.4397
v -400.652 62.65672 581.4397
v -400.652 62.65672 581.4397
v -400.652 62.65672 581.4397
v -400.6828 61.49553 579.3074
v -400.6828 61.49553 579.3074
v -405.6323 63.03945 585.0447
v -405.6323 63.03945 585.0447
v -405.6672 63.03945 581.4677
v -405.6672 63.03945 581.4677
v -405.6672 63.03945 581.4677
v -405.6672 63.03945 581.4677
v -405.6881 61.88414 579.3271
v -405.6881 61.88414 579.3271
v -410.6569 63.43317 585.0842
v -410.6569 63.43317 585.0842
v -410.6776 63.43317 581.478
v -410.6776 63.43317 581.478
v -410.6776 63.43317 581.478
v -410.6776 63.43317 581.478
v -410.69 62.15858 579.3304
v -410.69 62.15858 579.3304
v -415.6501 63.8342 585.1049
v -415.6501 63.8342 585.1049
v -415.6585 63.8342 581.4736
v -415.6585 63.8342 581.4736
v -415.6585 63.8342 581.4736
v -415.6585 63.8342 581.4736
v -415.6635 62.5856 579.3198
v -415.6635 62.5856 579.3198
v -420.7264 64.25046 585.1094
v -420.7264 64.25046 585.1094
v -420.7238 64.25046 581.4562
v -420.7238 64.25046 581.4562
v -420.7238 64.25046 581.4562
v -420.7238 64.25046 581.4562
v -420.7222 63.03024 579.2971
v -420.7222 63.03024 579.2971
v -425.7315 64.66818 585.0997
v -425.7315 64.66818 585.0997
v -425.7192 64.66818 581.4283
v -425.7192 64.66818 581.4283
v -425.7192 64.66818 581.4283
v -425.7192 64.66818 581.4283
v -425.712 63.48974 579.2648
v -425.712 63.48974 579.2648
v -430.7876 65.0965 585.0772
v -430.7876 65.0965 585.0772
v -430.7668 65.0965 581.3907
v -430.7668 65.0965 581.3907
v -430.7668 65.0965 581.3907
v -430.7668 65.0965 581.3907
v -430.7545 63.80425 579.2236
v -430.7545 63.80425 579.2236
v -435.8807 65.53351 585.0436
v -435.8807 65.53351 585.0436
v -435.8522 65.53351 581.345
v -435.8522 65.53351 581.345
v -435.8522 65.53351 581.345
v -435.8522 65.53351 581.345
v -435.8355 64.2837 579.1749
v -435.8355 64.2837 579.1749
v -440.8549 65.9649 585.0012
v -440.8549 65.9649 585.0012
v -440.8199 65.9649 581.2937
v -440.8199 65.9649 581.2937
v -440.8199 65.9649 581.2937
v -440.8199 65.9649 581.2937
v -440.7994 64.77269 579.1216
v -440.7994 64.77269 579.1216
v -445.8382 66.40096 584.9504
v -445.8382 66.40096 584.9504
v -445.7975 66.40096 581.2371
v -445.7975 66.40096 581.2371
v -445.7975 66.40096 581.2371
v -445.7975 66.40096 581.2371
v -445.7737 65.26981 579.0635
v -445.7737 65.26981 579.0635
v -450.818 66.83991 584.893
v -450.818 66.83991 584.893
v -450.7725 66.83991 581.1765
v -450.7725 66.83991 581.1765
v -450.7725 66.83991 581.1765
v -450.7725 66.83991 581.1765
v -450.7459 65.77376 579.0023
v -450.7459 65.77376 579.0023
v -455.9231 67.29256 584.8276
v -455.9231 67.29256 584.8276
v -455.8734 67.29256 581.111
v -455.8734 67.29256 581.111
v -455.8734 67.29256 581.111
v -455.8734 67.29256 581.111
v -455.8444 66.28341 578.9368
v -455.8444 66.28341 578.9368
v -460.9974 67.74453 584.7577
v -460.9974 67.74453 584.7577
v -460.9444 67.74453 581.0438
v -460.9444 67.74453 581.0438
v -460.9444 67.74453 581.0438
v -460.9444 67.74453 581.0438
v -460.9134 66.28341 578.8704
v -460.9134 66.28341 578.8704
v -466.0269 68.19389 584.6841
v -466.0269 68.19389 584.6841
v -465.9715 68.19389 580.9761
v -465.9715 68.19389 580.9761
v -465.9715 68.19389 580.9761
v -465.9715 68.19389 580.9761
v -465.939 66.62608 578.8041
v -465.939 66.62608 578.8041
v -471.1352 68.65099 584.6064
v -471.1352 68.65099 584.6064
v -471.078 68.65099 580.9075
v -471.078 68.65099 580.9075
v -471.078 68.65099 580.9075
v -471.078 68.65099 580.9075
v -471.0445 67.14297 578.7379
v -471.0445 67.14297 578.7379
v -476.1674 69.1013 584.5279
v -476.1674 69.1013 584.5279
v -476.1095 69.1013 580.8413
v -476.1095 69.1013 580.8413
v -476.1095 69.1013 580.8413
v -476.1095 69.1013 580.8413
v -476.0754 67.66291 578.6748
v -476.0754 67.66291 578.6748
v -481.2398 69.55443 584.448
v -481.2398 69.55443 584.448
v -481.182 69.55443 580.7774
v -481.182 69.55443 580.7774
v -481.182 69.55443 580.7774
v -481.182 69.55443 580.7774
v -481.148 68.18491 578.6149
v -481.148 68.18491 578.6149
v -486.3289 70.00738 584.3682
v -486.3289 70.00738 584.3682
v -486.2723 70.00738 580.7175
v -486.2723 70.00738 580.7175
v -486.2723 70.00738 580.7175
v -486.2723 70.00738 580.7175
v -486.2389 68.70801 578.5599
v -486.2389 68.70801 578.5599
v -491.407 70.45665 584.2906
v -491.407 70.45665 584.2906
v -491.353 70.45665 580.6639
v -491.353 70.45665 580.6639
v -491.353 70.45665 580.6639
v -491.353 70.45665 580.6639
v -491.3209 69.23114 578.5123
v -491.3209 69.23114 578.5123
v -496.4442 70.89835 584.2173
v -496.4442 70.89835 584.2173
v -496.394 70.89835 580.6192
v -496.394 70.89835 580.6192
v -496.394 70.89835 580.6192
v -496.394 70.89835 580.6192
v -496.3641 69.5792 578.4745
v -496.3641 69.5792 578.4745
v -501.5231 71.33815 584.1495
v -501.5231 71.33815 584.1495
v -501.4786 71.33815 580.5854
v -501.4786 71.33815 580.5854
v -501.4786 71.33815 580.5854
v -501.4786 71.33815 580.5854
v -501.452 70.09956 578.4492
v -501.452 70.09956 578.4492
v -506.5895 71.76915 584.0907
v -506.5895 71.76915 584.0907
v -506.5531 71.76915 580.567
v -506.5531 71.76915 580.567
v -506.5531 71.76915 580.567
v -506.5531 71.76915 580.567
v -506.5312 70.09956 578.4405
v -506.5312 70.09956 578.4405
v -511.6846 72.19181 584.0447
v -511.6846 72.19181 584.0447
v -511.6597 72.19181 580.569
v -511.6597 72.19181 580.569
v -511.6597 72.19181 580.569
v -511.6597 72.19181 580.569
v -511.6446 71.29707 578.4543
v -511.6446 71.29707 578.4543

vn 0.03364059 0.9994299 -0.002852568
vn 0 0 0
vn 0.03375688 0.9994265 -0.00269775
vn 0 0 0
vn 0.02093287 0.9797655 -0.1990513
vn 0 0 0
vn 0.002534897 0.9720767 -0.2346497
vn 0 0 0
vn 0.03812936 0.9992684 -0.00297287
vn 0 0 0
vn 0.04267123 0.9990849 -0.002926129
vn 0 0 0
vn 0.01240556 0.9688589 -0.2473024
vn 0 0 0
vn 0.01117243 0.9597734 -0.2805534
vn 0 0 0
vn 0.04973353 0.9987576 -0.003129848
vn 0 0 0
vn 0.05267094 0.998608 -0.002782432
vn 0 0 0
vn 0.03026683 0.9561497 -0.2913102
vn 0 0 0
vn 0.02498846 0.9480686 -0.3170828
vn 0 0 0
vn 0.05728561 0.998354 -0.002783012
vn 0 0 0
vn 0.05949368 0.9982256 -0.002438342
vn 0 0 0
vn 0.03533784 0.9420606 -0.3335762
vn 0 0 0
vn 0.02919059 0.9306164 -0.3648299
vn 0 0 0
vn 0.06299756 0.9980108 -0.002373637
vn 0 0 0
vn 0.06473431 0.9979004 -0.002052708
vn 0 0 0
vn 0.0414078 0.9239088 -0.3803656
vn 0 0 0
vn 0.0352598 0.9116437 -0.4094659
vn 0 0 0
vn 0.06747997 0.9977187 -0.001961456
vn 0 0 0
vn 0.06888423 0.9976233 -0.001669761
vn 0 0 0
vn 0.04639164 0.9047289 -0.4234544
vn 0 0 0
vn 0.04726077 0.8977711 -0.4379198
vn 0 0 0
vn 0.07112928 0.997466 -0.001569277
vn 0 0 0
vn 0.07229165 0.9973827 -0.001305901
vn 0 0 0
vn 0.05798233 0.8967394 -0.4387443
vn 0 0 0
vn 0.05203361 0.8900573 -0.4528691
vn 0 0 0
vn 0.07414137 0.997247 -0.001203972
vn 0 0 0
vn 0.07512414 0.9971737 -0.0009654121
vn 0 0 0
vn 0.05506958 0.8832586 -0.4656408
vn 0 0 0
vn 0.056658 0.8771076 -0.4769404
vn 0 0 0
vn 0.07668249 0.9970552 -0.0008662282
vn 0 0 0
vn 0.07751685 0.9969908 -0.0006515282
vn 0 0 0
vn 0.06615234 0.8771719 -0.4755979
vn 0 0 0
vn 0.0602597 0.8715584 -0.4865746
vn 0 0 0
vn 0.07883611 0.9968873 -0.0005577082
vn 0 0 0
vn 0.07954894 0.9968309 -0.0003654766
vn 0 0 0
vn 0.06138769 0.8648689 -0.4982302
vn 0 0 0
vn 0.06378441 0.8598048 -0.5066234
vn 0 0 0
vn 0.08068549 0.9967395 -0.0002774984
vn 0 0 0
vn 0.08130137 0.9966895 -0.0001039877
vn 0 0 0
vn 0.07241771 0.8610467 -0.5033431
vn 0 0 0
vn 0.0754092 0.8644557 -0.4970207
vn 0 0 0
vn 0.08226334 0.9966106 -2.262498E-05
vn 0 0 0
vn 0.08279747 0.9965664 0.0001333527
vn 0 0 0
vn 0.07547718 0.866277 -0.4938292
vn 0 0 0
vn 0.07915522 0.8704278 -0.4858906
vn 0 0 0
vn 0.08363947 0.996496 0.0002081312
vn 0 0 0
vn 0.08409883 0.9964574 0.000347259
vn 0 0 0
vn 0.07894489 0.8730134 -0.4812643
vn 0 0 0
vn 0.07293562 0.8695722 -0.4883896
vn 0 0 0
vn 0.08481743 0.9963965 0.0004154984
vn 0 0 0
vn 0.08521826 0.9963622 0.000541112
vn 0 0 0
vn 0.07122804 0.8632993 -0.4996408
vn 0 0 0
vn 0.07406399 0.8593051 -0.5060723
vn 0 0 0
vn 0.08582827 0.9963097 0.0006028286
vn 0 0 0
vn 0.08616818 0.9962803 0.0007137521
vn 0 0 0
vn 0.08153564 0.8613629 -0.5014039
vn 0 0 0
vn 0.0858509 0.8669987 -0.4908593
vn 0 0 0
vn 0.08668897 0.9962352 0.0007685941
vn 0 0 0
vn 0.08697515 0.99621 0.0008652524
vn 0 0 0
vn 0.08443922 0.870493 -0.4848835
vn 0 0 0
vn 0.08893567 0.877016 -0.4721582
vn 0 0 0
vn 0.08740436 0.9961724 0.0009135593
vn 0 0 0
vn 0.08764374 0.9961514 0.0009978677
vn 0 0 0
vn 0.08642124 0.8806759 -0.4657696
vn 0 0 0
vn 0.0910863 0.8874054 -0.4519015
vn 0 0 0
vn 0.08799619 0.9961202 0.001039966
vn 0 0 0
vn 0.08818936 0.9961032 0.001112851
vn 0 0 0
vn 0.08819012 0.8912489 -0.4448572
vn 0 0 0
vn 0.09220876 0.8975888 -0.4310822
vn 0 0 0
vn 0.08846121 0.9960788 0.001148846
vn 0 0 0
vn 0.08861278 0.9960655 0.001210524
vn 0 0 0
vn 0.08894919 0.9008714 -0.4248748
vn 0 0 0
vn 0.06173442 0.8810021 -0.4690675
vn 0 0 0
vn 0.08881077 0.9960477 0.001239997
vn 0 0 0
vn 0.08891447 0.9960384 0.001288964
vn 0 0 0
vn 0.05766967 0.8554087 -0.5147331
vn 0 0 0
vn 0.0505926 0.8228535 -0.5659969
vn 0 0 0
vn 0.08903062 0.9960281 0.00131151
vn 0 0 0
vn 0.08908639 0.9960229 0.001347579
vn 0 0 0
vn 0.07485428 0.8153794 -0.5740673
vn 0 0 0
vn 0.07781523 0.812363 -0.5779371
vn 0 0 0
vn 0.08911765 0.9960201 0.001362469
vn 0 0 0
vn 0.08912422 0.9960195 0.001385111
vn 0 0 0
vn 0.08374199 0.8154069 -0.5727991
vn 0 0 0
vn 0.08789221 0.8225455 -0.5618664
vn 0 0 0
vn 0.08906331 0.996025 0.001392145
vn 0 0 0
vn 0.08901267 0.9960296 0.001400072
vn 0 0 0
vn 0.0848551 0.8267475 -0.5561367
vn 0 0 0
vn 0.0888999 0.8343519 -0.5440163
vn 0 0 0
vn 0.08884826 0.9960442 0.001398281
vn 0 0 0
vn 0.08873535 0.9960543 0.001389732
vn 0 0 0
vn 0.08508746 0.8384896 -0.5382335
vn 0 0 0
vn 0.08911183 0.8460305 -0.5256342
vn 0 0 0
vn 0.08845226 0.9960796 0.001377743
vn 0 0 0
vn 0.088265 0.9960961 0.001350309
vn 0 0 0
vn 0.08513792 0.8502073 -0.5195182
vn 0 0 0
vn 0.08929804 0.8579128 -0.5059757
vn 0 0 0
vn 0.08783924 0.9961337 0.001326896
vn 0 0 0
vn 0.08756281 0.9961582 0.00127773
vn 0 0 0
vn 0.08500058 0.8622707 -0.4992636
vn 0 0 0
vn 0.07885455 0.8610924 -0.5022966
vn 0 0 0
vn 0.08695444 0.9962116 0.001240699
vn 0 0 0
vn 0.08656501 0.9962455 0.001164769
vn 0 0 0
vn 0.07327525 0.8556777 -0.5122954
vn 0 0 0
vn 0.07671025 0.8541687 -0.5143068
vn 0 0 0
vn 0.08572685 0.996318 0.001111523
vn 0 0 0
vn 0.08518467 0.9963647 0.001001771
vn 0 0 0
vn 0.08090468 0.8583076 -0.5067174
vn 0 0 0
vn 0.05417724 0.8382819 -0.5425388
vn 0 0 0
vn 0.08401428 0.9964641 0.0009277154
vn 0 0 0
vn 0.08325948 0.9965276 0.0007725016
vn 0 0 0
vn 0.0463198 0.812203 -0.581533
vn 0 0 0
vn 0.08766365 0.8299634 -0.5508865
vn 0 0 0
vn 0.08257457 0.9965847 0.0007222098
vn 0 0 0
vn 0.08248576 0.9965921 0.00059026
vn 0 0 0
vn 0.1337324 0.8485708 -0.5119016
vn 0 0 0
vn 0.2099757 0.9009657 -0.3796985
vn 0 0 0

vt 0 0
vt 0 0
vt 0.05262451 -0.6206055
vt 0.05262451 -0.6206055
vt 0.05262451 -0.6206055
vt 0.05262451 -0.6206055
vt 0.08689576 -1.024805
vt 0.08689576 -1.024805
vt 0.9874939 0.08238526
vt 0.9874939 0.08238526
vt 1.035742 -0.5592285
vt 1.035742 -0.5592285
vt 1.035742 -0.5592285
vt 1.035742 -0.5592285
vt 1.066534 -0.9687134
vt 1.066534 -0.9687134
vt 1.973187 0.1476807
vt 1.973187 0.1476807
vt 2.010962 -0.5099365
vt 2.010962 -0.5099365
vt 2.010962 -0.5099365
vt 2.010962 -0.5099365
vt 2.034723 -0.9236206
vt 2.034723 -0.9236206
vt 2.962085 0.1981689
vt 2.962085 0.1981689
vt 2.991925 -0.4728516
vt 2.991925 -0.4728516
vt 2.991925 -0.4728516
vt 2.991925 -0.4728516
vt 3.010468 -0.8899414
vt 3.010468 -0.8899414
vt 3.951312 0.2373413
vt 3.951312 0.2373413
vt 3.974841 -0.4451172
vt 3.974841 -0.4451172
vt 3.974841 -0.4451172
vt 3.974841 -0.4451172
vt 3.989325 -0.8650879
vt 3.989325 -0.8650879
vt 4.94729 0.2678345
vt 4.94729 0.2678345
vt 4.965619 -0.424585
vt 4.965619 -0.424585
vt 4.965619 -0.424585
vt 4.965619 -0.424585
vt 4.976807 -0.8470337
vt 4.976807 -0.8470337
vt 5.938409 0.290979
vt 5.938409 0.290979
vt 5.952393 -0.410083
vt 5.952393 -0.410083
vt 5.952393 -0.410083
vt 5.952393 -0.410083
vt 5.960865 -0.834668
vt 5.960865 -0.834668
vt 6.940277 0.3083496
vt 6.940277 0.3083496
vt 6.950513 -0.400354
vt 6.950513 -0.400354
vt 6.950513 -0.400354
vt 6.950513 -0.400354
vt 6.956671 -0.8268189
vt 6.956671 -0.8268189
vt 7.94657 0.3206543
vt 7.94657 0.3206543
vt 7.953552 -0.3947632
vt 7.953552 -0.3947632
vt 7.953552 -0.3947632
vt 7.953552 -0.3947632
vt 7.957727 -0.8228638
vt 7.957727 -0.8228638
vt 8.951484 0.3285522
vt 8.951484 0.3285522
vt 8.955634 -0.392688
vt 8.955634 -0.392688
vt 8.955634 -0.392688
vt 8.955634 -0.392688
vt 8.958106 -0.8222168
vt 8.958106 -0.8222168
vt 9.950122 0.3326904
vt 9.950122 0.3326904
vt 9.9518 -0.3935791
vt 9.9518 -0.3935791
vt 9.9518 -0.3935791
vt 9.9518 -0.3935791
vt 9.952796 -0.8243286
vt 9.952796 -0.8243286
vt 10.96539 0.3335938
vt 10.96539 0.3335938
vt 10.96486 -0.3970581
vt 10.96486 -0.3970581
vt 10.96486 -0.3970581
vt 10.96486 -0.3970581
vt 10.96455 -0.8288696
vt 10.96455 -0.8288696
vt 11.96641 0.3316406
vt 11.96641 0.3316406
vt 11.96395 -0.4026367
vt 11.96395 -0.4026367
vt 11.96395 -0.4026367
vt 11.96395 -0.4026367
vt 11.96251 -0.8353271
vt 11.96251 -0.8353271
vt 12.97763 0.3271484
vt 12.97763 0.3271484
vt 12.97346 -0.4101563
vt 12.97346 -0.4101563
vt 12.97346 -0.4101563
vt 12.97346 -0.4101563
vt 12.971 -0.8435791
vt 12.971 -0.8435791
vt 13.99625 0.3204224
vt 13.99625 0.3204224
vt 13.99055 -0.4192993
vt 13.99055 -0.4192993
vt 13.99055 -0.4192993
vt 13.99055 -0.4192993
vt 13.98721 -0.8533081
vt 13.98721 -0.8533081
vt 14.99108 0.3119385
vt 14.99108 0.3119385
vt 14.98408 -0.4295532
vt 14.98408 -0.4295532
vt 14.98408 -0.4295532
vt 14.98408 -0.4295532
vt 14.97998 -0.8639771
vt 14.97998 -0.8639771
vt 15.98775 0.3017944
vt 15.98775 0.3017944
vt 15.97961 -0.4408813
vt 15.97961 -0.4408813
vt 15.97961 -0.4408813
vt 15.97961 -0.4408813
vt 15.97485 -0.875586
vt 15.97485 -0.875586
vt 16.98371 0.2903076
vt 16.98371 0.2903076
vt 16.97461 -0.4530029
vt 16.97461 -0.4530029
vt 16.97461 -0.4530029
vt 16.97461 -0.4530029
vt 16.96928 -0.8878296
vt 16.96928 -0.8878296
vt 18.00472 0.2772339
vt 18.00472 0.2772339
vt 17.99479 -0.4661011
vt 17.99479 -0.4661011
vt 17.99479 -0.4661011
vt 17.99479 -0.4661011
vt 17.98898 -0.9009399
vt 17.98898 -0.9009399
vt 19.01958 0.2632446
vt 19.01958 0.2632446
vt 19.00899 -0.479541
vt 19.00899 -0.479541
vt 19.00899 -0.479541
vt 19.00899 -0.479541
vt 19.00278 -0.9142212
vt 19.00278 -0.9142212
vt 20.0255 0.248523
vt 20.0255 0.248523
vt 20.0144 -0.4930786
vt 20.0144 -0.4930786
vt 20.0144 -0.4930786
vt 20.0144 -0.4930786
vt 20.0079 -0.9274659
vt 20.0079 -0.9274659
vt 21.04714 0.2329956
vt 21.04714 0.2329956
vt 21.03571 -0.5067871
vt 21.03571 -0.5067871
vt 21.03571 -0.5067871
vt 21.03571 -0.5067871
vt 21.02901 -0.9407105
vt 21.02901 -0.9407105
vt 22.05359 0.2172852
vt 22.05359 0.2172852
vt 22.042 -0.5200318
vt 22.042 -0.5200318
vt 22.042 -0.5200318
vt 22.042 -0.5200318
vt 22.03519 -0.9533325
vt 22.03519 -0.9533325
vt 23.06807 0.2013061
vt 23.06807 0.2013061
vt 23.05651 -0.5328125
vt 23.05651 -0.5328125
vt 23.05651 -0.5328125
vt 23.05651 -0.5328125
vt 23.0497 -0.9653198
vt 23.0497 -0.9653198
vt 24.08588 0.1853516
vt 24.08588 0.1853516
vt 24.07457 -0.5447876
vt 24.07457 -0.5447876
vt 24.07457 -0.5447876
vt 24.07457 -0.5447876
vt 24.06788 -0.9763061
vt 24.06788 -0.9763061
vt 25.10151 0.1698242
vt 25.10151 0.1698242
vt 25.0907 -0.5555054
vt 25.0907 -0.5555054
vt 25.0907 -0.5555054
vt 25.0907 -0.5555054
vt 25.08428 -0.9858398
vt 25.08428 -0.9858398
vt 26.10894 0.1551636
vt 26.10894 0.1551636
vt 26.09891 -0.5644531
vt 26.09891 -0.5644531
vt 26.09891 -0.5644531
vt 26.09891 -0.5644531
vt 26.09293 -0.9933838
vt 26.09293 -0.9933838
vt 27.12472 0.1416016
vt 27.12472 0.1416016
vt 27.11583 -0.5712036
vt 27.11583 -0.5712036
vt 27.11583 -0.5712036
vt 27.11583 -0.5712036
vt 27.1105 -0.9984619
vt 27.1105 -0.9984619
vt 28.138 0.1298462
vt 28.138 0.1298462
vt 28.13073 -0.5749024
vt 28.13073 -0.5749024
vt 28.13073 -0.5749024
vt 28.13073 -0.5749024
vt 28.12635 -1.000195
vt 28.12635 -1.000195
vt 29.15703 0.1206421
vt 29.15703 0.1206421
vt 29.15205 -0.5744995
vt 29.15205 -0.5744995
vt 29.15205 -0.5744995
vt 29.15205 -0.5744995
vt 29.14902 -0.9974365
vt 29.14902 -0.9974365

usemtl GSDShoulder1
usemap GSDShoulder1
f 9/9/9 1/1/1 3/3/3
f 11/11/11 9/9/9 3/3/3
f 13/13/13 5/5/5 7/7/7
f 15/15/15 13/13/13 7/7/7
f 17/17/17 9/9/9 11/11/11
f 19/19/19 17/17/17 11/11/11
f 21/21/21 13/13/13 15/15/15
f 23/23/23 21/21/21 15/15/15
f 25/25/25 17/17/17 19/19/19
f 27/27/27 25/25/25 19/19/19
f 29/29/29 21/21/21 23/23/23
f 31/31/31 29/29/29 23/23/23
f 33/33/33 25/25/25 27/27/27
f 35/35/35 33/33/33 27/27/27
f 37/37/37 29/29/29 31/31/31
f 39/39/39 37/37/37 31/31/31
f 41/41/41 33/33/33 35/35/35
f 43/43/43 41/41/41 35/35/35
f 45/45/45 37/37/37 39/39/39
f 47/47/47 45/45/45 39/39/39
f 49/49/49 41/41/41 43/43/43
f 51/51/51 49/49/49 43/43/43
f 53/53/53 45/45/45 47/47/47
f 55/55/55 53/53/53 47/47/47
f 57/57/57 49/49/49 51/51/51
f 59/59/59 57/57/57 51/51/51
f 61/61/61 53/53/53 55/55/55
f 63/63/63 61/61/61 55/55/55
f 65/65/65 57/57/57 59/59/59
f 67/67/67 65/65/65 59/59/59
f 69/69/69 61/61/61 63/63/63
f 71/71/71 69/69/69 63/63/63
f 73/73/73 65/65/65 67/67/67
f 75/75/75 73/73/73 67/67/67
f 77/77/77 69/69/69 71/71/71
f 79/79/79 77/77/77 71/71/71
f 81/81/81 73/73/73 75/75/75
f 83/83/83 81/81/81 75/75/75
f 85/85/85 77/77/77 79/79/79
f 87/87/87 85/85/85 79/79/79
f 89/89/89 81/81/81 83/83/83
f 91/91/91 89/89/89 83/83/83
f 93/93/93 85/85/85 87/87/87
f 95/95/95 93/93/93 87/87/87
f 97/97/97 89/89/89 91/91/91
f 99/99/99 97/97/97 91/91/91
f 101/101/101 93/93/93 95/95/95
f 103/103/103 101/101/101 95/95/95
f 105/105/105 97/97/97 99/99/99
f 107/107/107 105/105/105 99/99/99
f 109/109/109 101/101/101 103/103/103
f 111/111/111 109/109/109 103/103/103
f 113/113/113 105/105/105 107/107/107
f 115/115/115 113/113/113 107/107/107
f 117/117/117 109/109/109 111/111/111
f 119/119/119 117/117/117 111/111/111
f 121/121/121 113/113/113 115/115/115
f 123/123/123 121/121/121 115/115/115
f 125/125/125 117/117/117 119/119/119
f 127/127/127 125/125/125 119/119/119
f 129/129/129 121/121/121 123/123/123
f 131/131/131 129/129/129 123/123/123
f 133/133/133 125/125/125 127/127/127
f 135/135/135 133/133/133 127/127/127
f 137/137/137 129/129/129 131/131/131
f 139/139/139 137/137/137 131/131/131
f 141/141/141 133/133/133 135/135/135
f 143/143/143 141/141/141 135/135/135
f 145/145/145 137/137/137 139/139/139
f 147/147/147 145/145/145 139/139/139
f 149/149/149 141/141/141 143/143/143
f 151/151/151 149/149/149 143/143/143
f 153/153/153 145/145/145 147/147/147
f 155/155/155 153/153/153 147/147/147
f 157/157/157 149/149/149 151/151/151
f 159/159/159 157/157/157 151/151/151
f 161/161/161 153/153/153 155/155/155
f 163/163/163 161/161/161 155/155/155
f 165/165/165 157/157/157 159/159/159
f 167/167/167 165/165/165 159/159/159
f 169/169/169 161/161/161 163/163/163
f 171/171/171 169/169/169 163/163/163
f 173/173/173 165/165/165 167/167/167
f 175/175/175 173/173/173 167/167/167
f 177/177/177 169/169/169 171/171/171
f 179/179/179 177/177/177 171/171/171
f 181/181/181 173/173/173 175/175/175
f 183/183/183 181/181/181 175/175/175
f 185/185/185 177/177/177 179/179/179
f 187/187/187 185/185/185 179/179/179
f 189/189/189 181/181/181 183/183/183
f 191/191/191 189/189/189 183/183/183
f 193/193/193 185/185/185 187/187/187
f 195/195/195 193/193/193 187/187/187
f 197/197/197 189/189/189 191/191/191
f 199/199/199 197/197/197 191/191/191
f 201/201/201 193/193/193 195/195/195
f 203/203/203 201/201/201 195/195/195
f 205/205/205 197/197/197 199/199/199
f 207/207/207 205/205/205 199/199/199
f 209/209/209 201/201/201 203/203/203
f 211/211/211 209/209/209 203/203/203
f 213/213/213 205/205/205 207/207/207
f 215/215/215 213/213/213 207/207/207
f 217/217/217 209/209/209 211/211/211
f 219/219/219 217/217/217 211/211/211
f 221/221/221 213/213/213 215/215/215
f 223/223/223 221/221/221 215/215/215
f 225/225/225 217/217/217 219/219/219
f 227/227/227 225/225/225 219/219/219
f 229/229/229 221/221/221 223/223/223
f 231/231/231 229/229/229 223/223/223
f 233/233/233 225/225/225 227/227/227
f 235/235/235 233/233/233 227/227/227
f 237/237/237 229/229/229 231/231/231
f 239/239/239 237/237/237 231/231/231
