mtllib ./Road1_0_206.mtl
g SCutR67
v -107.4474 48.86036 674.5896
v -107.4474 48.86036 674.5896
v -104.7315 48.86036 676.0908
v -104.7315 48.86036 676.0908
v -104.7315 48.86036 676.0908
v -104.7315 48.86036 676.0908
v -102.9618 46.83288 677.0688
v -102.9618 46.83288 677.0688
v -104.9908 49.26243 670.1067
v -104.9908 49.26243 670.1067
v -102.2694 49.26243 671.5654
v -102.2694 49.26243 671.5654
v -102.2694 49.26243 671.5654
v -102.2694 49.26243 671.5654
v -100.4909 47.26485 672.5187
v -100.4909 47.26485 672.5187
v -102.6251 49.67426 664.718
v -102.6251 49.67426 664.718
v -99.72148 49.67426 665.7076
v -99.72148 49.67426 665.7076
v -99.72148 49.67426 665.7076
v -99.72148 49.67426 665.7076
v -97.81624 47.65731 666.3571
v -97.81624 47.65731 666.3571
v -101.2276 50.07268 659.0192
v -101.2276 50.07268 659.0192
v -98.2121 50.07268 659.504
v -98.2121 50.07268 659.504
v -98.2121 50.07268 659.504
v -98.2121 50.07268 659.504
v -96.2278 48.0767 659.8231
v -96.2278 48.0767 659.8231
v -100.5828 50.4593 653.8867
v -100.5828 50.4593 653.8867
v -97.55334 50.4593 654.2584
v -97.55334 50.4593 654.2584
v -97.55334 50.4593 654.2584
v -97.55334 50.4593 654.2584
v -95.55904 48.40675 654.5032
v -95.55904 48.40675 654.5032

vn -0.03793174 0.996921 0.0686276
vn 0 0 0
vn -0.0373449 0.9969448 0.06860378
vn 0 0 0
vn 0.5945656 0.7052512 0.3861506
vn 0 0 0
vn 0.5918291 0.7072544 0.3866907
vn 0 0 0
vn -0.0357968 0.9971705 0.06610333
vn 0 0 0
vn -0.02970716 0.9975375 0.06353261
vn 0 0 0
vn 0.6050208 0.708977 0.3623552
vn 0 0 0
vn 0.6190768 0.7078547 0.340126
vn 0 0 0
vn -0.02518108 0.9977362 0.06235686
vn 0 0 0
vn -0.01745138 0.9979028 0.0623323
vn 0 0 0
vn 0.6464048 0.7076796 0.2852198
vn 0 0 0
vn 0.6632743 0.7061582 0.247806
vn 0 0 0
vn -0.01454369 0.9977041 0.0661428
vn 0 0 0
vn -0.01018299 0.9975838 0.06872347
vn 0 0 0
vn 0.6808968 0.7074084 0.1896124
vn 0 0 0
vn 0.6896695 0.7052688 0.16417
vn 0 0 0
vn -0.01034444 0.997278 0.07300346
vn 0 0 0
vn -0.008883417 0.9973367 0.07239088
vn 0 0 0
vn 0.6971878 0.703995 0.1353522
vn 0 0 0
vn 0.703063 0.6988189 0.1317364
vn 0 0 0

vt 0 0
vt 0 0
vt -0.5431916 0.3002319
vt -0.5431916 0.3002319
vt -0.5431916 0.3002319
vt -0.5431916 0.3002319
vt -0.8971268 0.4958496
vt -0.8971268 0.4958496
vt -0.4913223 -0.8965821
vt -0.4913223 -0.8965821
vt -1.035617 -0.604834
vt -1.035617 -0.604834
vt -1.035617 -0.604834
vt -1.035617 -0.604834
vt -1.391306 -0.4141724
vt -1.391306 -0.4141724
vt -0.9644745 -1.974329
vt -0.9644745 -1.974329
vt -1.545194 -1.776392
vt -1.545194 -1.776392
vt -1.545194 -1.776392
vt -1.545194 -1.776392
vt -1.926242 -1.646509
vt -1.926242 -1.646509
vt -1.243967 -3.114075
vt -1.243967 -3.114075
vt -1.847069 -3.017114
vt -1.847069 -3.017114
vt -1.847069 -3.017114
vt -1.847069 -3.017114
vt -2.24393 -2.953308
vt -2.24393 -2.953308
vt -1.37292 -4.140588
vt -1.37292 -4.140588
vt -1.978822 -4.066236
vt -1.978822 -4.066236
vt -1.978822 -4.066236
vt -1.978822 -4.066236
vt -2.377681 -4.017285
vt -2.377681 -4.017285

usemtl GSDShoulder1
usemap GSDShoulder1
f 9/9/9 1/1/1 3/3/3
f 11/11/11 9/9/9 3/3/3
f 13/13/13 5/5/5 7/7/7
f 15/15/15 13/13/13 7/7/7
f 17/17/17 9/9/9 11/11/11
f 19/19/19 17/17/17 11/11/11
f 21/21/21 13/13/13 15/15/15
f 23/23/23 21/21/21 15/15/15
f 25/25/25 17/17/17 19/19/19
f 27/27/27 25/25/25 19/19/19
f 29/29/29 21/21/21 23/23/23
f 31/31/31 29/29/29 23/23/23
f 33/33/33 25/25/25 27/27/27
f 35/35/35 33/33/33 27/27/27
f 37/37/37 29/29/29 31/31/31
f 39/39/39 37/37/37 31/31/31
