mtllib ./Road12_2_22.mtl
g RoadCut2
v -611.1913 0.03 588.4095
v -611.1913 0.03 588.4095
v -621.0754 0.03 586.8915
v -621.0754 0.03 586.8915
v -612.1413 0.03 593.4279
v -612.1413 0.03 593.4279
v -622.0014 0.03 591.7609
v -622.0014 0.03 591.7609
v -612.8352 0.03 598.1882
v -612.8352 0.03 598.1882
v -622.755 0.03 596.924
v -622.755 0.03 596.924
v -613.3943 0.03 603.0591
v -613.3943 0.03 603.0591
v -623.3407 0.03 602.025
v -623.3407 0.03 602.025
v -613.8681 0.03 608.0109
v -613.8681 0.03 608.0109
v -623.8293 0.03 607.1306
v -623.8293 0.03 607.1306
v -614.276 0.03 612.9547
v -614.276 0.03 612.9547
v -624.2463 0.03 612.1846
v -624.2463 0.03 612.1846
v -614.6389 0.03 617.9395
v -614.6389 0.03 617.9395
v -624.6153 0.03 617.2541
v -624.6153 0.03 617.2541
v -614.9653 0.03 622.9459
v -614.9653 0.03 622.9459
v -624.9462 0.03 622.3273
v -624.9462 0.03 622.3273
v -615.2628 0.03 627.9758
v -615.2628 0.03 627.9758
v -625.2469 0.03 627.4117
v -625.2469 0.03 627.4117
v -615.534 0.03 632.9796
v -615.534 0.03 632.9796
v -625.5204 0.03 632.4601
v -625.5204 0.03 632.4601
v -615.7846 0.03 637.9816
v -615.7846 0.03 637.9816
v -625.773 0.03 637.4993
v -625.773 0.03 637.4993
v -616.0194 0.03 643.0134
v -616.0194 0.03 643.0134
v -626.0093 0.03 642.5624
v -626.0093 0.03 642.5624
v -616.2396 0.03 648.0399
v -616.2396 0.03 648.0399
v -626.2305 0.03 647.6149
v -626.2305 0.03 647.6149
v -616.4462 0.03 653.0264
v -616.4462 0.03 653.0264
v -626.438 0.03 652.623
v -626.438 0.03 652.623
v -616.6452 0.03 658.0698
v -616.6452 0.03 658.0698
v -626.6378 0.03 657.6837
v -626.6378 0.03 657.6837
v -616.8347 0.03 663.0612
v -616.8347 0.03 663.0612
v -626.8278 0.03 662.688
v -626.8278 0.03 662.688
v -617.0198 0.03 668.0794
v -617.0198 0.03 668.0794
v -627.0131 0.03 667.7145
v -627.0131 0.03 667.7145
v -617.2029 0.03 673.1177
v -617.2029 0.03 673.1177
v -627.1963 0.03 672.7556
v -627.1963 0.03 672.7556
v -617.3857 0.03 678.1434
v -617.3857 0.03 678.1434
v -627.379 0.03 677.7762
v -627.379 0.03 677.7762
v -617.5749 0.03 683.1868
v -617.5749 0.03 683.1868
v -627.5674 0.03 682.8025
v -627.5674 0.03 682.8025
v -617.7773 0.03 688.2234
v -617.7773 0.03 688.2234
v -627.7683 0.03 687.7986
v -627.7683 0.03 687.7986
v -618.0143 0.03 693.2889
v -618.0143 0.03 693.2889
v -628.0004 0.03 692.7609
v -628.0004 0.03 692.7609

vn 0 0.9999999 0
vn 0 0 0
vn 0 1 0
vn 0 0 0
vn 0 1 0
vn 0 0 0
vn 0 1 0
vn 0 0 0
vn 0 1 0
vn 0 0 0
vn 0 1 0
vn 0 0 0
vn 0 1 0
vn 0 0 0
vn 0 1 0
vn 0 0 0
vn -1.088452E-11 1 1.231727E-10
vn 0 0 0
vn -2.027559E-11 1 2.448834E-10
vn 0 0 0
vn -1.090904E-11 1 1.234502E-10
vn 0 0 0
vn 8.425994E-12 1 -1.226414E-10
vn 0 0 0
vn 2.641241E-11 1 -3.691698E-10
vn 0 0 0
vn 2.440449E-11 1 -3.672084E-10
vn 0 0 0
vn 8.432884E-12 1 -1.227416E-10
vn 0 0 0
vn -6.905239E-12 0.9999999 1.222202E-10
vn 0 0 0
vn -7.608095E-12 1 1.22767E-10
vn 0 0 0
vn 6.383167E-12 1 -1.226975E-10
vn 0 0 0
vn 1.338882E-11 1 -2.467498E-10
vn 0 0 0
vn 6.404548E-12 1 -1.231085E-10
vn 0 0 0
vn -5.952858E-12 1 1.232834E-10
vn 0 0 0
vn -1.147415E-11 1 2.456031E-10
vn 0 0 0
vn -1.1485E-11 1 2.458354E-10
vn 0 0 0
vn -5.542871E-12 1 1.227637E-10
vn 0 0 0
vn 0 1 0
vn 0 0 0
vn 0 1 0
vn 0 0 0
vn 0 1 0
vn 0 0 0
vn 0 1 0
vn 0 0 0
vn 0 1 0
vn 0 0 0
vn 0 1 0
vn 0 0 0
vn 0 1 0
vn 0 0 0
vn 0 1 0
vn 0 0 0
vn 0 1 0
vn 0 0 0
vn 0 1 0
vn 0 0 0
vn -4.463263E-12 1 1.231512E-10
vn 0 0 0
vn -8.998716E-12 1 2.465889E-10
vn 0 0 0
vn -4.467705E-12 1 1.232737E-10
vn 0 0 0
vn 4.739986E-12 1 -1.232562E-10
vn 0 0 0
vn 4.524187E-12 1 -1.231292E-10
vn 0 0 0
vn -5.250369E-12 1 1.234832E-10
vn 0 0 0
vn -4.73653E-12 1 1.231663E-10
vn 0 0 0
vn 6.539032E-12 1 -1.236837E-10
vn 0 0 0
vn 1.767815E-11 1 -3.706681E-10
vn 0 0 0
vn 1.979574E-11 1 -3.744302E-10
vn 0 0 0

vt 0 0
vt 0 0
vt 1.976831 -0.3036133
vt 1.976831 -0.3036133
vt 0.1900024 1.003662
vt 0.1900024 1.003662
vt 2.162024 0.6702637
vt 2.162024 0.6702637
vt 0.3287842 1.955737
vt 0.3287842 1.955737
vt 2.312744 1.702881
vt 2.312744 1.702881
vt 0.4406006 2.929907
vt 0.4406006 2.929907
vt 2.429883 2.723096
vt 2.429883 2.723096
vt 0.5353638 3.920264
vt 0.5353638 3.920264
vt 2.5276 3.744214
vt 2.5276 3.744214
vt 0.6169434 4.909021
vt 0.6169434 4.909021
vt 2.611011 4.755017
vt 2.611011 4.755017
vt 0.6895142 5.905994
vt 0.6895142 5.905994
vt 2.684802 5.768909
vt 2.684802 5.768909
vt 0.7548096 6.907263
vt 0.7548096 6.907263
vt 2.750977 6.783557
vt 2.750977 6.783557
vt 0.8142945 7.913245
vt 0.8142945 7.913245
vt 2.811121 7.800427
vt 2.811121 7.800427
vt 0.8685425 8.914014
vt 0.8685425 8.914014
vt 2.865833 8.810107
vt 2.865833 8.810107
vt 0.9186646 9.914416
vt 0.9186646 9.914416
vt 2.916345 9.817957
vt 2.916345 9.817957
vt 0.965625 10.92078
vt 0.965625 10.92078
vt 2.963599 10.83057
vt 2.963599 10.83057
vt 1.009656 11.92606
vt 1.009656 11.92606
vt 3.007849 11.84108
vt 3.007849 11.84108
vt 1.050977 12.92338
vt 1.050977 12.92338
vt 3.049341 12.84269
vt 3.049341 12.84269
vt 1.090784 13.93204
vt 1.090784 13.93204
vt 3.089294 13.85482
vt 3.089294 13.85482
vt 1.128687 14.93034
vt 1.128687 14.93034
vt 3.127295 14.8557
vt 3.127295 14.8557
vt 1.16571 15.93397
vt 1.16571 15.93397
vt 3.164368 15.861
vt 3.164368 15.861
vt 1.202319 16.94164
vt 1.202319 16.94164
vt 3.201001 16.8692
vt 3.201001 16.8692
vt 1.238892 17.94677
vt 1.238892 17.94677
vt 3.237549 17.87333
vt 3.237549 17.87333
vt 1.276721 18.95544
vt 1.276721 18.95544
vt 3.275232 18.87859
vt 3.275232 18.87859
vt 1.317212 19.96277
vt 1.317212 19.96277
vt 3.315405 19.87781
vt 3.315405 19.87781
vt 1.364612 20.97587
vt 1.364612 20.97587
vt 3.361829 20.87028
vt 3.361829 20.87028

usemtl GSDRoad1
usemap GSDRoad1
f 5/5/5 1/1/1 3/3/3
f 7/7/7 5/5/5 3/3/3
f 9/9/9 5/5/5 7/7/7
f 11/11/11 9/9/9 7/7/7
f 13/13/13 9/9/9 11/11/11
f 15/15/15 13/13/13 11/11/11
f 17/17/17 13/13/13 15/15/15
f 19/19/19 17/17/17 15/15/15
f 21/21/21 17/17/17 19/19/19
f 23/23/23 21/21/21 19/19/19
f 25/25/25 21/21/21 23/23/23
f 27/27/27 25/25/25 23/23/23
f 29/29/29 25/25/25 27/27/27
f 31/31/31 29/29/29 27/27/27
f 33/33/33 29/29/29 31/31/31
f 35/35/35 33/33/33 31/31/31
f 37/37/37 33/33/33 35/35/35
f 39/39/39 37/37/37 35/35/35
f 41/41/41 37/37/37 39/39/39
f 43/43/43 41/41/41 39/39/39
f 45/45/45 41/41/41 43/43/43
f 47/47/47 45/45/45 43/43/43
f 49/49/49 45/45/45 47/47/47
f 51/51/51 49/49/49 47/47/47
f 53/53/53 49/49/49 51/51/51
f 55/55/55 53/53/53 51/51/51
f 57/57/57 53/53/53 55/55/55
f 59/59/59 57/57/57 55/55/55
f 61/61/61 57/57/57 59/59/59
f 63/63/63 61/61/61 59/59/59
f 65/65/65 61/61/61 63/63/63
f 67/67/67 65/65/65 63/63/63
f 69/69/69 65/65/65 67/67/67
f 71/71/71 69/69/69 67/67/67
f 73/73/73 69/69/69 71/71/71
f 75/75/75 73/73/73 71/71/71
f 77/77/77 73/73/73 75/75/75
f 79/79/79 77/77/77 75/75/75
f 81/81/81 77/77/77 79/79/79
f 83/83/83 81/81/81 79/79/79
f 85/85/85 81/81/81 83/83/83
f 87/87/87 85/85/85 83/83/83
