mtllib ./Road1_0_179.mtl
g SCutR40
v -856.6298 0.02961979 834.5907
v -856.6298 0.02961979 834.5907
v -854.4374 0.02961979 832.5428
v -854.4374 0.02961979 832.5428
v -854.4374 0.02961979 832.5428
v -854.4374 0.02961979 832.5428
v -852.9759 -0.3476103 831.1776
v -852.9759 -0.3476103 831.1776
v -859.7883 0.04849331 830.9939
v -859.7883 0.04849331 830.9939
v -857.4746 0.04849331 829.0844
v -857.4746 0.04849331 829.0844
v -857.4746 0.04849331 829.0844
v -857.4746 0.04849331 829.0844
v -855.9321 -0.3476103 827.8113
v -855.9321 -0.3476103 827.8113
v -862.7393 0.08662899 827.2078
v -862.7393 0.08662899 827.2078
v -860.3026 0.08662899 825.4113
v -860.3026 0.08662899 825.4113
v -860.3026 0.08662899 825.4113
v -860.3026 0.08662899 825.4113
v -858.6873 -0.3476103 824.2204
v -858.6873 -0.3476103 824.2204
v -865.4724 0.1417519 823.3044
v -865.4724 0.1417519 823.3044
v -862.9436 0.1417519 821.6215
v -862.9436 0.1417519 821.6215
v -862.9436 0.1417519 821.6215
v -862.9436 0.1417519 821.6215
v -861.2709 -0.3476103 820.5084
v -861.2709 -0.3476103 820.5084
v -868.051 0.2138392 819.2356
v -868.051 0.2138392 819.2356
v -865.4423 0.2138392 817.6606
v -865.4423 0.2138392 817.6606
v -865.4423 0.2138392 817.6606
v -865.4423 0.2138392 817.6606
v -863.7202 -0.3476103 816.6209
v -863.7202 -0.3476103 816.6209
v -870.4646 0.302162 815.0453
v -870.4646 0.302162 815.0453
v -867.7857 0.302162 813.5738
v -867.7857 0.302162 813.5738
v -867.7857 0.302162 813.5738
v -867.7857 0.302162 813.5738
v -866.0206 -0.3474876 812.6042
v -866.0206 -0.3474876 812.6042
v -872.7021 0.4059746 810.7786
v -872.7021 0.4059746 810.7786
v -869.9606 0.4059746 809.4073
v -869.9606 0.4059746 809.4073
v -869.9606 0.4059746 809.4073
v -869.9606 0.4059746 809.4073
v -868.1576 -0.3245345 808.5055
v -868.1576 -0.3245345 808.5055
v -874.805 0.5278469 806.3676
v -874.805 0.5278469 806.3676
v -872.0057 0.5278469 805.0978
v -872.0057 0.5278469 805.0978
v -872.0057 0.5278469 805.0978
v -872.0057 0.5278469 805.0978
v -870.168 -0.2793708 804.2642
v -870.168 -0.2793708 804.2642
v -876.7474 0.6681478 801.8608
v -876.7474 0.6681478 801.8608
v -873.8943 0.6681478 800.6955
v -873.8943 0.6681478 800.6955
v -873.8943 0.6681478 800.6955
v -873.8943 0.6681478 800.6955
v -872.0244 -0.231004 799.9317
v -872.0244 -0.231004 799.9317
v -878.5023 0.8271167 797.3161
v -878.5023 0.8271167 797.3161
v -875.5984 0.8271167 796.2607
v -875.5984 0.8271167 796.2607
v -875.5984 0.8271167 796.2607
v -875.5984 0.8271167 796.2607
v -873.6983 -0.1470845 795.5701
v -873.6983 -0.1470845 795.5701
v -880.0745 1.009345 792.6937
v -880.0745 1.009345 792.6937
v -877.1212 1.009345 791.7606
v -877.1212 1.009345 791.7606
v -877.1212 1.009345 791.7606
v -877.1212 1.009345 791.7606
v -875.1918 -0.05805585 791.1511
v -875.1918 -0.05805585 791.1511
v -881.4131 1.215887 788.0901
v -881.4131 1.215887 788.0901
v -878.4115 1.215887 787.2981
v -878.4115 1.215887 787.2981
v -878.4115 1.215887 787.2981
v -878.4115 1.215887 787.2981
v -876.4536 0.1935485 786.7816
v -876.4536 0.1935485 786.7816

vn 0.00269269 0.9999923 0.002882652
vn 0 0 0
vn 0.002652772 0.999992 0.003020546
vn 0 0 0
vn 0.1420794 0.9826266 -0.1194084
vn 0 0 0
vn 0.1440401 0.9818 -0.1237787
vn 0 0 0
vn 0.003466712 0.9999856 0.004072299
vn 0 0 0
vn 0.004200301 0.999977 0.005324146
vn 0 0 0
vn 0.1491561 0.981515 -0.1199195
vn 0 0 0
vn 0.1577616 0.9797816 -0.1230429
vn 0 0 0
vn 0.00560944 0.9999572 0.007362626
vn 0 0 0
vn 0.006127256 0.999944 0.008630391
vn 0 0 0
vn 0.1691834 0.9785559 -0.117496
vn 0 0 0
vn 0.1808991 0.9755105 -0.1251185
vn 0 0 0
vn 0.007267693 0.9999176 0.01058477
vn 0 0 0
vn 0.007631452 0.9999004 0.01187411
vn 0 0 0
vn 0.194517 0.9735196 -0.1200938
vn 0 0 0
vn 0.2102298 0.9688739 -0.1307165
vn 0 0 0
vn 0.008570004 0.9998684 0.01376783
vn 0 0 0
vn 0.008815133 0.9998473 0.01509246
vn 0 0 0
vn 0.2262788 0.9660003 -0.1250653
vn 0 0 0
vn 0.2456706 0.9594772 -0.1380195
vn 0 0 0
vn 0.009617873 0.9998094 0.01698846
vn 0 0 0
vn 0.009764647 0.9997838 0.01836082
vn 0 0 0
vn 0.2638729 0.9555575 -0.1314567
vn 0 0 0
vn 0.2844343 0.9479474 -0.1431527
vn 0 0 0
vn 0.01047787 0.9997384 0.02032898
vn 0 0 0
vn 0.01053748 0.9997071 0.02178843
vn 0 0 0
vn 0.3018505 0.9439256 -0.1337562
vn 0 0 0
vn 0.3208849 0.9362817 -0.1428611
vn 0 0 0
vn 0.01117754 0.9996525 0.02387449
vn 0 0 0
vn 0.01114982 0.9996132 0.02547543
vn 0 0 0
vn 0.3368878 0.9322017 -0.1323126
vn 0 0 0
vn 0.3565923 0.9235086 -0.1413284
vn 0 0 0
vn 0.01174138 0.9995452 0.02777893
vn 0 0 0
vn 0.01161445 0.999495 0.0295801
vn 0 0 0
vn 0.3737414 0.9183482 -0.1302074
vn 0 0 0
vn 0.3931846 0.9092801 -0.1364389
vn 0 0 0
vn 0.01217345 0.999406 0.03224238
vn 0 0 0
vn 0.01191295 0.9993386 0.03435973
vn 0 0 0
vn 0.4083224 0.904727 -0.1214158
vn 0 0 0
vn 0.4271131 0.8952768 -0.1267032
vn 0 0 0
vn 0.01242515 0.9992176 0.03754677
vn 0 0 0
vn 0.0119591 0.9991211 0.040174
vn 0 0 0
vn 0.4432811 0.8895221 -0.1106902
vn 0 0 0
vn 0.4509217 0.8868122 -0.101162
vn 0 0 0
vn 0.01216479 0.9990439 0.0419923
vn 0 0 0
vn 0.01133541 0.9990125 0.04296032
vn 0 0 0
vn 0.4526394 0.8876567 -0.08475319
vn 0 0 0
vn 0.4453875 0.8919984 -0.07725755
vn 0 0 0

vt 0 0
vt 0 0
vt -0.4384644 -0.4095703
vt -0.4384644 -0.4095703
vt -0.4384644 -0.4095703
vt -0.4384644 -0.4095703
vt -0.7307739 -0.6826172
vt -0.7307739 -0.6826172
vt 0.6317139 -0.7193604
vt 0.6317139 -0.7193604
vt 0.1689697 -1.10127
vt 0.1689697 -1.10127
vt 0.1689697 -1.10127
vt 0.1689697 -1.10127
vt -0.1395264 -1.355872
vt -0.1395264 -1.355872
vt 1.221912 -1.476587
vt 1.221912 -1.476587
vt 0.7345581 -1.835889
vt 0.7345581 -1.835889
vt 0.7345581 -1.835889
vt 0.7345581 -1.835889
vt 0.4115112 -2.07406
vt 0.4115112 -2.07406
vt 1.76853 -2.257263
vt 1.76853 -2.257263
vt 1.262769 -2.593836
vt 1.262769 -2.593836
vt 1.262769 -2.593836
vt 1.262769 -2.593836
vt 0.9282227 -2.816467
vt 0.9282227 -2.816467
vt 2.284253 -3.071021
vt 2.284253 -3.071021
vt 1.762512 -3.386011
vt 1.762512 -3.386011
vt 1.762512 -3.386011
vt 1.762512 -3.386011
vt 1.418091 -3.593958
vt 1.418091 -3.593958
vt 2.766968 -3.90907
vt 2.766968 -3.90907
vt 2.231189 -4.203382
vt 2.231189 -4.203382
vt 2.231189 -4.203382
vt 2.231189 -4.203382
vt 1.878162 -4.397302
vt 1.878162 -4.397302
vt 3.214465 -4.762427
vt 3.214465 -4.762427
vt 2.666174 -5.03667
vt 2.666174 -5.03667
vt 2.666174 -5.03667
vt 2.666174 -5.03667
vt 2.305567 -5.217041
vt 2.305567 -5.217041
vt 3.635046 -5.644617
vt 3.635046 -5.644617
vt 3.075195 -5.898572
vt 3.075195 -5.898572
vt 3.075195 -5.898572
vt 3.075195 -5.898572
vt 2.707642 -6.065308
vt 2.707642 -6.065308
vt 4.023535 -6.545972
vt 4.023535 -6.545972
vt 3.452905 -6.779041
vt 3.452905 -6.779041
vt 3.452905 -6.779041
vt 3.452905 -6.779041
vt 3.078918 -6.931799
vt 3.078918 -6.931799
vt 4.374512 -7.454919
vt 4.374512 -7.454919
vt 3.793726 -7.665991
vt 3.793726 -7.665991
vt 3.793726 -7.665991
vt 3.793726 -7.665991
vt 3.413708 -7.804114
vt 3.413708 -7.804114
vt 4.688953 -8.379395
vt 4.688953 -8.379395
vt 4.098279 -8.566016
vt 4.098279 -8.566016
vt 4.098279 -8.566016
vt 4.098279 -8.566016
vt 3.712402 -8.687927
vt 3.712402 -8.687927
vt 4.956665 -9.300122
vt 4.956665 -9.300122
vt 4.356348 -9.458521
vt 4.356348 -9.458521
vt 4.356348 -9.458521
vt 4.356348 -9.458521
vt 3.964771 -9.561829
vt 3.964771 -9.561829

usemtl GSDShoulder1
usemap GSDShoulder1
f 9/9/9 1/1/1 3/3/3
f 11/11/11 9/9/9 3/3/3
f 13/13/13 5/5/5 7/7/7
f 15/15/15 13/13/13 7/7/7
f 17/17/17 9/9/9 11/11/11
f 19/19/19 17/17/17 11/11/11
f 21/21/21 13/13/13 15/15/15
f 23/23/23 21/21/21 15/15/15
f 25/25/25 17/17/17 19/19/19
f 27/27/27 25/25/25 19/19/19
f 29/29/29 21/21/21 23/23/23
f 31/31/31 29/29/29 23/23/23
f 33/33/33 25/25/25 27/27/27
f 35/35/35 33/33/33 27/27/27
f 37/37/37 29/29/29 31/31/31
f 39/39/39 37/37/37 31/31/31
f 41/41/41 33/33/33 35/35/35
f 43/43/43 41/41/41 35/35/35
f 45/45/45 37/37/37 39/39/39
f 47/47/47 45/45/45 39/39/39
f 49/49/49 41/41/41 43/43/43
f 51/51/51 49/49/49 43/43/43
f 53/53/53 45/45/45 47/47/47
f 55/55/55 53/53/53 47/47/47
f 57/57/57 49/49/49 51/51/51
f 59/59/59 57/57/57 51/51/51
f 61/61/61 53/53/53 55/55/55
f 63/63/63 61/61/61 55/55/55
f 65/65/65 57/57/57 59/59/59
f 67/67/67 65/65/65 59/59/59
f 69/69/69 61/61/61 63/63/63
f 71/71/71 69/69/69 63/63/63
f 73/73/73 65/65/65 67/67/67
f 75/75/75 73/73/73 67/67/67
f 77/77/77 69/69/69 71/71/71
f 79/79/79 77/77/77 71/71/71
f 81/81/81 73/73/73 75/75/75
f 83/83/83 81/81/81 75/75/75
f 85/85/85 77/77/77 79/79/79
f 87/87/87 85/85/85 79/79/79
f 89/89/89 81/81/81 83/83/83
f 91/91/91 89/89/89 83/83/83
f 93/93/93 85/85/85 87/87/87
f 95/95/95 93/93/93 87/87/87
