mtllib ./Road7_2_16.mtl
g SCutR0
v -169.4942 0.03 394.7562
v -169.4942 0.03 394.7562
v -168.4523 0.03 397.5694
v -168.4523 0.03 397.5694
v -168.4523 0.03 397.5694
v -168.4523 0.03 397.5694
v -167.3235 -0.67 400.6171
v -167.3235 -0.67 400.6171
v -165.3973 0.03 393.489
v -165.3973 0.03 393.489
v -164.5695 0.03 396.3725
v -164.5695 0.03 396.3725
v -164.5695 0.03 396.3725
v -164.5695 0.03 396.3725
v -163.6727 -0.67 399.4963
v -163.6727 -0.67 399.4963
v -160.5885 0.03 392.1274
v -160.5885 0.03 392.1274
v -159.7705 0.03 395.0137
v -159.7705 0.03 395.0137
v -159.7705 0.03 395.0137
v -159.7705 0.03 395.0137
v -158.8843 -0.67 398.1406
v -158.8843 -0.67 398.1406
v -155.6021 0.03 390.6853
v -155.6021 0.03 390.6853
v -154.748 0.03 393.5612
v -154.748 0.03 393.5612
v -154.748 0.03 393.5612
v -154.748 0.03 393.5612
v -153.8227 -0.67 396.6767
v -153.8227 -0.67 396.6767
v -150.6016 0.03 389.1433
v -150.6016 0.03 389.1433
v -149.6834 0.03 391.9994
v -149.6834 0.03 391.9994
v -149.6834 0.03 391.9994
v -149.6834 0.03 391.9994
v -148.6887 -0.67 395.0934
v -148.6887 -0.67 395.0934
v -145.4896 0.03 387.411
v -145.4896 0.03 387.411
v -144.4771 0.03 390.235
v -144.4771 0.03 390.235
v -144.4771 0.03 390.235
v -144.4771 0.03 390.235
v -143.3802 -0.67 393.2943
v -143.3802 -0.67 393.2943
v -140.361 0.03 385.4416
v -140.361 0.03 385.4416
v -139.2156 0.03 388.2143
v -139.2156 0.03 388.2143
v -139.2156 0.03 388.2143
v -139.2156 0.03 388.2143
v -137.9747 -0.67 391.2181
v -137.9747 -0.67 391.2181
v -135.1534 0.03 383.0842
v -135.1534 0.03 383.0842
v -133.8134 0.03 385.7683
v -133.8134 0.03 385.7683
v -133.8134 0.03 385.7683
v -133.8134 0.03 385.7683
v -132.3618 -0.67 388.6761
v -132.3618 -0.67 388.6761
v -129.7623 0.03 380.0133
v -129.7623 0.03 380.0133
v -128.1141 0.03 382.52
v -128.1141 0.03 382.52
v -128.1141 0.03 382.52
v -128.1141 0.03 382.52
v -126.3286 -0.67 385.2356
v -126.3286 -0.67 385.2356

vn 0 0.9999999 0
vn 0 0 0
vn 0 1 0
vn 0 0 0
vn 0.06211765 0.9775143 0.2015125
vn 0 0 0
vn 0.06196454 0.9775435 0.201418
vn 0 0 0
vn 1.34186E-10 1 -3.852379E-11
vn 0 0 0
vn 2.550146E-10 1 -7.274348E-11
vn 0 0 0
vn 0.06017987 0.9775608 0.2018745
vn 0 0 0
vn 0.0585914 0.9775816 0.2022404
vn 0 0 0
vn 2.360541E-10 1 -6.733495E-11
vn 0 0 0
vn 1.163187E-10 1 -3.296632E-11
vn 0 0 0
vn 0.05775279 0.9775815 0.2024822
vn 0 0 0
vn 0.05813356 0.9775813 0.2023743
vn 0 0 0
vn 0 1 0
vn 0 0 0
vn 0 1 0
vn 0 0 0
vn 0.05969131 0.977582 0.2019172
vn 0 0 0
vn 0.06087858 0.977581 0.2015664
vn 0 0 0
vn -1.11323E-10 0.9999999 3.57889E-11
vn 0 0 0
vn -2.177893E-10 1 7.402986E-11
vn 0 0 0
vn 0.06393419 0.9775819 0.2006146
vn 0 0 0
vn 0.06578458 0.9775802 0.200023
vn 0 0 0
vn -2.152265E-10 1 7.31587E-11
vn 0 0 0
vn -1.054766E-10 1 3.781887E-11
vn 0 0 0
vn 0.07025585 0.9775818 0.1984891
vn 0 0 0
vn 0.07290644 0.977579 0.1975446
vn 0 0 0
vn 0 1 0
vn 0 0 0
vn 0 0.9999999 0
vn 0 0 0
vn 0.07940238 0.9775822 0.1950087
vn 0 0 0
vn 0.0832222 0.9775749 0.1934462
vn 0 0 0
vn 0 1 0
vn 0 0 0
vn 0 1 0
vn 0 0 0
vn 0.0930666 0.9775832 0.1888643
vn 0 0 0
vn 0.09896608 0.9775595 0.1859654
vn 0 0 0
vn 0 1 0
vn 0 0 0
vn 0 1 0
vn 0 0 0
vn 0.1044591 0.9775048 0.183228
vn 0 0 0
vn 0.1045037 0.9774945 0.1832576
vn 0 0 0

vt 0 0
vt 0 0
vt -0.2083893 0.5626465
vt -0.2083893 0.5626465
vt -0.2083893 0.5626465
vt -0.2083893 0.5626465
vt -0.4341431 1.17218
vt -0.4341431 1.17218
vt -0.8193817 -0.2534363
vt -0.8193817 -0.2534363
vt -0.9849488 0.3232666
vt -0.9849488 0.3232666
vt -0.9849488 0.3232666
vt -0.9849488 0.3232666
vt -1.16431 0.9480286
vt -1.16431 0.9480286
vt -1.781143 -0.5257508
vt -1.781143 -0.5257508
vt -1.944748 0.05151367
vt -1.944748 0.05151367
vt -1.944748 0.05151367
vt -1.944748 0.05151367
vt -2.121988 0.6768799
vt -2.121988 0.6768799
vt -2.778421 -0.8141724
vt -2.778421 -0.8141724
vt -2.949243 -0.2390015
vt -2.949243 -0.2390015
vt -2.949243 -0.2390015
vt -2.949243 -0.2390015
vt -3.134299 0.3841003
vt -3.134299 0.3841003
vt -3.778522 -1.122571
vt -3.778522 -1.122571
vt -3.962158 -0.5513611
vt -3.962158 -0.5513611
vt -3.962158 -0.5513611
vt -3.962158 -0.5513611
vt -4.161099 0.06744385
vt -4.161099 0.06744385
vt -4.800922 -1.469025
vt -4.800922 -1.469025
vt -5.00343 -0.9042298
vt -5.00343 -0.9042298
vt -5.00343 -0.9042298
vt -5.00343 -0.9042298
vt -5.222812 -0.2923706
vt -5.222812 -0.2923706
vt -5.826639 -1.862915
vt -5.826639 -1.862915
vt -6.055725 -1.308368
vt -6.055725 -1.308368
vt -6.055725 -1.308368
vt -6.055725 -1.308368
vt -6.303903 -0.7076111
vt -6.303903 -0.7076111
vt -6.868167 -2.334399
vt -6.868167 -2.334399
vt -7.136158 -1.797571
vt -7.136158 -1.797571
vt -7.136158 -1.797571
vt -7.136158 -1.797571
vt -7.42648 -1.216016
vt -7.42648 -1.216016
vt -7.946393 -2.948578
vt -7.946393 -2.948578
vt -8.276019 -2.447229
vt -8.276019 -2.447229
vt -8.276019 -2.447229
vt -8.276019 -2.447229
vt -8.633118 -1.904108
vt -8.633118 -1.904108

usemtl GSDShoulder1
usemap GSDShoulder1
f 9/9/9 1/1/1 3/3/3
f 11/11/11 9/9/9 3/3/3
f 13/13/13 5/5/5 7/7/7
f 15/15/15 13/13/13 7/7/7
f 17/17/17 9/9/9 11/11/11
f 19/19/19 17/17/17 11/11/11
f 21/21/21 13/13/13 15/15/15
f 23/23/23 21/21/21 15/15/15
f 25/25/25 17/17/17 19/19/19
f 27/27/27 25/25/25 19/19/19
f 29/29/29 21/21/21 23/23/23
f 31/31/31 29/29/29 23/23/23
f 33/33/33 25/25/25 27/27/27
f 35/35/35 33/33/33 27/27/27
f 37/37/37 29/29/29 31/31/31
f 39/39/39 37/37/37 31/31/31
f 41/41/41 33/33/33 35/35/35
f 43/43/43 41/41/41 35/35/35
f 45/45/45 37/37/37 39/39/39
f 47/47/47 45/45/45 39/39/39
f 49/49/49 41/41/41 43/43/43
f 51/51/51 49/49/49 43/43/43
f 53/53/53 45/45/45 47/47/47
f 55/55/55 53/53/53 47/47/47
f 57/57/57 49/49/49 51/51/51
f 59/59/59 57/57/57 51/51/51
f 61/61/61 53/53/53 55/55/55
f 63/63/63 61/61/61 55/55/55
f 65/65/65 57/57/57 59/59/59
f 67/67/67 65/65/65 59/59/59
f 69/69/69 61/61/61 63/63/63
f 71/71/71 69/69/69 63/63/63
