mtllib ./Road7_2_25.mtl
g SCutL1
v -142.398 0.03 360.7951
v -142.398 0.03 360.7951
v -140.7499 0.03 363.3018
v -140.7499 0.03 363.3018
v -144.1835 -0.67 358.0795
v -144.1835 -0.67 358.0795
v -142.398 0.03 360.7951
v -142.398 0.03 360.7951
v -139.4798 0.03 358.5998
v -139.4798 0.03 358.5998
v -137.5712 0.03 360.9144
v -137.5712 0.03 360.9144
v -141.5474 -0.67 356.0923
v -141.5474 -0.67 356.0923
v -139.4798 0.03 358.5998
v -139.4798 0.03 358.5998
v -136.4765 0.03 355.9156
v -136.4765 0.03 355.9156
v -134.3963 0.03 358.0773
v -134.3963 0.03 358.0773
v -138.7301 -0.67 353.5739
v -138.7301 -0.67 353.5739
v -136.4765 0.03 355.9156
v -136.4765 0.03 355.9156
v -133.5483 0.03 352.901
v -133.5483 0.03 352.901
v -131.3305 0.03 354.9212
v -131.3305 0.03 354.9212
v -135.951 -0.67 350.7124
v -135.951 -0.67 350.7124
v -133.5483 0.03 352.901
v -133.5483 0.03 352.901
v -130.7861 0.03 349.6805
v -130.7861 0.03 349.6805
v -128.4532 0.03 351.5666
v -128.4532 0.03 351.5666
v -133.3135 -0.67 347.6372
v -133.3135 -0.67 347.6372
v -130.7861 0.03 349.6805
v -130.7861 0.03 349.6805
v -128.2015 0.03 346.2909
v -128.2015 0.03 346.2909
v -125.7653 0.03 348.0415
v -125.7653 0.03 348.0415
v -130.8408 -0.67 344.3943
v -130.8408 -0.67 344.3943
v -128.2015 0.03 346.2909
v -128.2015 0.03 346.2909
v -125.8253 0.03 342.7722
v -125.8253 0.03 342.7722
v -123.2898 0.03 344.3757
v -123.2898 0.03 344.3757
v -128.5721 -0.67 341.0351
v -128.5721 -0.67 341.0351
v -125.8253 0.03 342.7722
v -125.8253 0.03 342.7722
v -123.731 0.03 339.2091
v -123.731 0.03 339.2091
v -121.0928 0.03 340.6374
v -121.0928 0.03 340.6374
v -126.589 -0.67 337.6617
v -126.589 -0.67 337.6617
v -123.731 0.03 339.2091
v -123.731 0.03 339.2091

vn 0 1 0
vn 0 0 0
vn 0 0.9999999 0
vn 0 0 0
vn -0.1269948 0.9774919 -0.1684692
vn 0 0 0
vn -0.1268387 0.9775164 -0.1684446
vn 0 0 0
vn 1.234563E-10 1 -1.017991E-10
vn 0 0 0
vn 2.268575E-10 1 -2.021515E-10
vn 0 0 0
vn -0.131633 0.9775622 -0.1644532
vn 0 0 0
vn -0.1360515 0.9775798 -0.1607101
vn 0 0 0
vn 1.151525E-10 1 -9.495206E-11
vn 0 0 0
vn -9.759069E-11 0.9999999 1.071347E-10
vn 0 0 0
vn -0.1440437 0.9775764 -0.1536094
vn 0 0 0
vn -0.1475906 0.9775801 -0.1501804
vn 0 0 0
vn -2.999307E-10 1 3.151006E-10
vn 0 0 0
vn -2.818309E-10 1 3.218726E-10
vn 0 0 0
vn -0.1540258 0.9775779 -0.143588
vn 0 0 0
vn -0.1569414 0.9775802 -0.140379
vn 0 0 0
vn -9.708764E-11 1 1.065824E-10
vn 0 0 0
vn 8.291071E-11 1 -1.153805E-10
vn 0 0 0
vn -0.1624009 0.9775792 -0.134033
vn 0 0 0
vn -0.1649341 0.9775802 -0.1308961
vn 0 0 0
vn 1.745482E-10 1 -2.289026E-10
vn 0 0 0
vn 8.29943E-11 1 -1.154968E-10
vn 0 0 0
vn -0.1698099 0.97758 -0.1245071
vn 0 0 0
vn -0.1721689 0.9775796 -0.1212274
vn 0 0 0
vn 0 1 0
vn 0 0 0
vn 0 1 0
vn 0 0 0
vn -0.1768237 0.9775801 -0.1143259
vn 0 0 0
vn -0.1791865 0.9775779 -0.1106055
vn 0 0 0
vn 0 1 0
vn 0 0 0
vn 0 1 0
vn 0 0 0
vn -0.1816183 0.9775568 -0.1067581
vn 0 0 0
vn -0.1816303 0.9775549 -0.1067561
vn 0 0 0

vt 0 0
vt 0 0
vt -0.3296265 0.5013489
vt -0.3296265 0.5013489
vt 0.3570984 -0.5431213
vt 0.3570984 -0.5431213
vt 0 0
vt 0 0
vt -0.5836487 -0.4390564
vt -0.5836487 -0.4390564
vt -0.9653625 0.02386475
vt -0.9653625 0.02386475
vt -0.1701263 -0.9405518
vt -0.1701263 -0.9405518
vt -0.5836487 -0.4390564
vt -0.5836487 -0.4390564
vt -1.184296 -0.9758911
vt -1.184296 -0.9758911
vt -1.600336 -0.5435608
vt -1.600336 -0.5435608
vt -0.7335877 -1.44425
vt -0.7335877 -1.44425
vt -1.184296 -0.9758911
vt -1.184296 -0.9758911
vt -1.769931 -1.578827
vt -1.769931 -1.578827
vt -2.213492 -1.17478
vt -2.213492 -1.17478
vt -1.289407 -2.016541
vt -1.289407 -2.016541
vt -1.769931 -1.578827
vt -1.769931 -1.578827
vt -2.322369 -2.222925
vt -2.322369 -2.222925
vt -2.788962 -1.845709
vt -2.788962 -1.845709
vt -1.816892 -2.631573
vt -1.816892 -2.631573
vt -2.322369 -2.222925
vt -2.322369 -2.222925
vt -2.839301 -2.900848
vt -2.839301 -2.900848
vt -3.326547 -2.55072
vt -3.326547 -2.55072
vt -2.311447 -3.280158
vt -2.311447 -3.280158
vt -2.839301 -2.900848
vt -2.839301 -2.900848
vt -3.314542 -3.604578
vt -3.314542 -3.604578
vt -3.821646 -3.283887
vt -3.821646 -3.283887
vt -2.765177 -3.951996
vt -2.765177 -3.951996
vt -3.314542 -3.604578
vt -3.314542 -3.604578
vt -3.7334 -4.317206
vt -3.7334 -4.317206
vt -4.261034 -4.031543
vt -4.261034 -4.031543
vt -3.161798 -4.626672
vt -3.161798 -4.626672
vt -3.7334 -4.317206
vt -3.7334 -4.317206

usemtl GSDShoulder1
usemap GSDShoulder1
f 9/9/9 1/1/1 3/3/3
f 11/11/11 9/9/9 3/3/3
f 13/13/13 5/5/5 7/7/7
f 15/15/15 13/13/13 7/7/7
f 17/17/17 9/9/9 11/11/11
f 19/19/19 17/17/17 11/11/11
f 21/21/21 13/13/13 15/15/15
f 23/23/23 21/21/21 15/15/15
f 25/25/25 17/17/17 19/19/19
f 27/27/27 25/25/25 19/19/19
f 29/29/29 21/21/21 23/23/23
f 31/31/31 29/29/29 23/23/23
f 33/33/33 25/25/25 27/27/27
f 35/35/35 33/33/33 27/27/27
f 37/37/37 29/29/29 31/31/31
f 39/39/39 37/37/37 31/31/31
f 41/41/41 33/33/33 35/35/35
f 43/43/43 41/41/41 35/35/35
f 45/45/45 37/37/37 39/39/39
f 47/47/47 45/45/45 39/39/39
f 49/49/49 41/41/41 43/43/43
f 51/51/51 49/49/49 43/43/43
f 53/53/53 45/45/45 47/47/47
f 55/55/55 53/53/53 47/47/47
f 57/57/57 49/49/49 51/51/51
f 59/59/59 57/57/57 51/51/51
f 61/61/61 53/53/53 55/55/55
f 63/63/63 61/61/61 55/55/55
