mtllib ./Road8_2_25.mtl
g RoadCut5
v -426.5461 3.951046 211.003
v -426.5461 3.951046 211.003
v -416.7741 3.951046 212.8562
v -416.7741 3.951046 212.8562
v -426.4427 3.583169 207.5058
v -426.4427 3.583169 207.5058
v -416.5257 3.583169 206.3191
v -416.5257 3.583169 206.3191
v -427.3761 3.398721 203.6691
v -427.3761 3.398721 203.6691
v -417.9384 3.398721 200.3729
v -417.9384 3.398721 200.3729
v -429.1103 3.309582 199.7561
v -429.1103 3.309582 199.7561
v -420.2862 3.309582 195.0524
v -420.2862 3.309582 195.0524
v -431.4246 3.283795 196.0131
v -431.4246 3.283795 196.0131
v -423.2512 3.283795 190.2515
v -423.2512 3.283795 190.2515
v -434.2304 3.303741 192.4754
v -434.2304 3.303741 192.4754
v -426.7473 3.303741 185.8424
v -426.7473 3.303741 185.8424
v -437.3932 3.358477 189.2601
v -437.3932 3.358477 189.2601
v -430.6329 3.358477 181.8927
v -430.6329 3.358477 181.8927
v -440.858 3.440343 186.3843
v -440.858 3.440343 186.3843
v -434.8602 3.440343 178.3849
v -434.8602 3.440343 178.3849
v -444.6127 3.544826 183.8464
v -444.6127 3.544826 183.8464
v -439.426 3.544826 175.2997
v -439.426 3.544826 175.2997
v -448.6021 3.667309 181.6827
v -448.6021 3.667309 181.6827
v -444.2679 3.667309 172.6745
v -444.2679 3.667309 172.6745
v -452.7774 3.803689 179.915
v -452.7774 3.803689 179.915
v -449.3255 3.803689 170.534
v -449.3255 3.803689 170.534

vn 0.01972573 0.9943799 -0.1040172
vn 0 0 0
vn 0.002472337 0.9973258 -0.07304116
vn 0 0 0
vn 0.0001899735 0.9978478 -0.06557295
vn 0 0 0
vn -0.007674343 0.9990089 -0.0438454
vn 0 0 0
vn -0.007856029 0.999491 -0.03092332
vn 0 0 0
vn -0.008182264 0.9997488 -0.02086422
vn 0 0 0
vn -0.005771622 0.999901 -0.01283406
vn 0 0 0
vn -0.004355212 0.9999605 -0.007740919
vn 0 0 0
vn -0.001066304 0.9999977 -0.001894451
vn 0 0 0
vn 0.0006259553 0.9999996 0.0006441515
vn 0 0 0
vn 0.004171269 0.9999791 0.004934038
vn 0 0 0
vn 0.005739964 0.9999659 0.005933218
vn 0 0 0
vn 0.009422024 0.9999136 0.009171512
vn 0 0 0
vn 0.01070652 0.9999012 0.009115877
vn 0 0 0
vn 0.01442984 0.9998295 0.01151664
vn 0 0 0
vn 0.01536236 0.9998248 0.01069584
vn 0 0 0
vn 0.01905834 0.9997416 0.01238599
vn 0 0 0
vn 0.0195856 0.9997477 0.010993
vn 0 0 0
vn 0.02319945 0.999658 0.0120658
vn 0 0 0
vn 0.02327555 0.9996763 0.01026557
vn 0 0 0
vn 0.02504302 0.9996301 0.0106034
vn 0 0 0
vn 0.02332483 0.9996911 0.008582924
vn 0 0 0

vt 0 0
vt 0 0
vt -1.954395 0.3706299
vt -1.954395 0.3706299
vt -0.0206665 -0.6994446
vt -0.0206665 -0.6994446
vt -2.004065 -0.9367859
vt -2.004065 -0.9367859
vt 0.1660095 -1.466794
vt 0.1660095 -1.466794
vt -1.721527 -2.126016
vt -1.721527 -2.126016
vt 0.5128479 -2.249393
vt 0.5128479 -2.249393
vt -1.251971 -3.190128
vt -1.251971 -3.190128
vt 0.9757141 -2.997992
vt 0.9757141 -2.997992
vt -0.6589661 -4.150299
vt -0.6589661 -4.150299
vt 1.536871 -3.705524
vt 1.536871 -3.705524
vt 0.04024048 -5.032123
vt 0.04024048 -5.032123
vt 2.169428 -4.348581
vt 2.169428 -4.348581
vt 0.8173767 -5.822073
vt 0.8173767 -5.822073
vt 2.86239 -4.923737
vt 2.86239 -4.923737
vt 1.66283 -6.523633
vt 1.66283 -6.523633
vt 3.613324 -5.431324
vt 3.613324 -5.431324
vt 2.575983 -7.140668
vt 2.575983 -7.140668
vt 4.411212 -5.864057
vt 4.411212 -5.864057
vt 3.544379 -7.665699
vt 3.544379 -7.665699
vt 5.246277 -6.217599
vt 5.246277 -6.217599
vt 4.555884 -8.093802
vt 4.555884 -8.093802

usemtl GSDRoad1
usemap GSDRoad1
f 5/5/5 1/1/1 3/3/3
f 7/7/7 5/5/5 3/3/3
f 9/9/9 5/5/5 7/7/7
f 11/11/11 9/9/9 7/7/7
f 13/13/13 9/9/9 11/11/11
f 15/15/15 13/13/13 11/11/11
f 17/17/17 13/13/13 15/15/15
f 19/19/19 17/17/17 15/15/15
f 21/21/21 17/17/17 19/19/19
f 23/23/23 21/21/21 19/19/19
f 25/25/25 21/21/21 23/23/23
f 27/27/27 25/25/25 23/23/23
f 29/29/29 25/25/25 27/27/27
f 31/31/31 29/29/29 27/27/27
f 33/33/33 29/29/29 31/31/31
f 35/35/35 33/33/33 31/31/31
f 37/37/37 33/33/33 35/35/35
f 39/39/39 37/37/37 35/35/35
f 41/41/41 37/37/37 39/39/39
f 43/43/43 41/41/41 39/39/39
