mtllib ./Road1_0_47.mtl
g Markers23
v -311.0146 7.200853 43.38269
v -311.0146 7.200853 43.38269
v -312.1436 7.200853 53.28661
v -312.1436 7.200853 53.28661
v -306.1708 6.792834 43.98971
v -306.1708 6.792834 43.98971
v -306.9869 6.792834 53.92019
v -306.9869 6.792834 53.92019
v -301.2701 6.315719 43.91918
v -301.2701 6.315719 43.91918
v -301.8357 6.315719 53.85773
v -301.8357 6.315719 53.85773
v -294.9665 5.899813 45.38682
v -294.9665 5.899813 45.38682
v -298.2456 5.899813 54.80612
v -298.2456 5.899813 54.80612
v -289.9749 5.547778 47.29617
v -289.9749 5.547778 47.29617
v -293.7395 5.547778 56.53647
v -293.7395 5.547778 56.53647

vn 0.08275952 0.9965249 0.009433415
vn 0 0 0
vn 0.08035568 0.996735 0.007879867
vn 0 0 0
vn 0.08579666 0.9962812 0.007910283
vn 0 0 0
vn 0.08896507 0.9960133 0.006523645
vn 0 0 0
vn 0.08310111 0.9965261 0.005460585
vn 0 0 0
vn 0.08410002 0.9963816 0.01228632
vn 0 0 0
vn 0.07375026 0.9971167 0.0178643
vn 0 0 0
vn 0.07554661 0.9967577 0.02768893
vn 0 0 0
vn 0.06460756 0.9976127 0.02438833
vn 0 0 0
vn 0.06737681 0.9973499 0.02745042
vn 0 0 0

vt 0 370.4672
vt 0 0
vt 1 370.4672
vt 0 0
vt 0 371.4469
vt 0 371.4469
vt 1 371.4469
vt 1 371.4469
vt 0 372.4318
vt 0 372.4318
vt 1 372.4318
vt 1 372.4318
vt 0 373.7289
vt 0 373.7289
vt 1 373.7289
vt 1 373.7289
vt 0 374.8001
vt 0 374.8001
vt 1 374.8001
vt 1 374.8001

usemtl GSDWhiteYellowDouble
usemap GSDWhiteYellowDouble
f 5/5/5 1/1/1 3/3/3
f 7/7/7 5/5/5 3/3/3
f 9/9/9 5/5/5 7/7/7
f 11/11/11 9/9/9 7/7/7
f 13/13/13 9/9/9 11/11/11
f 15/15/15 13/13/13 11/11/11
f 17/17/17 13/13/13 15/15/15
f 19/19/19 17/17/17 15/15/15
