mtllib ./Road1_0_160.mtl
g SCutR21
v -372.4929 12.03727 48.17897
v -372.4929 12.03727 48.17897
v -372.8465 12.03727 51.4258
v -372.8465 12.03727 51.4258
v -372.8465 12.03727 51.4258
v -372.8465 12.03727 51.4258
v -373.0698 10.57694 53.4762
v -373.0698 10.57694 53.4762
v -367.4686 11.63504 48.71031
v -367.4686 11.63504 48.71031
v -367.8018 11.63504 51.91753
v -367.8018 11.63504 51.91753
v -367.8018 11.63504 51.91753
v -367.8018 11.63504 51.91753
v -368.0139 10.13224 53.95869
v -368.0139 10.13224 53.95869
v -362.4485 11.23308 49.22146
v -362.4485 11.23308 49.22146
v -362.7639 11.23308 52.39188
v -362.7639 11.23308 52.39188
v -362.7639 11.23308 52.39188
v -362.7639 11.23308 52.39188
v -362.9661 10.13224 54.42438
v -362.9661 10.13224 54.42438
v -357.3455 10.82556 49.71317
v -357.3455 10.82556 49.71317
v -357.6362 10.82556 52.84661
v -357.6362 10.82556 52.84661
v -357.6362 10.82556 52.84661
v -357.6362 10.82556 52.84661
v -357.8239 9.838669 54.87067
v -357.8239 9.838669 54.87067
v -352.2963 10.42394 50.15826
v -352.2963 10.42394 50.15826
v -352.5535 10.42394 53.25862
v -352.5535 10.42394 53.25862
v -352.5535 10.42394 53.25862
v -352.5535 10.42394 53.25862
v -352.7208 8.731933 55.27546
v -352.7208 8.731933 55.27546
v -347.2704 10.02486 50.54742
v -347.2704 10.02486 50.54742
v -347.4939 10.02486 53.62609
v -347.4939 10.02486 53.62609
v -347.4939 10.02486 53.62609
v -347.4939 10.02486 53.62609
v -347.64 8.731933 55.6385
v -347.64 8.731933 55.6385
v -342.2271 9.619633 50.91142
v -342.2271 9.619633 50.91142
v -342.4572 9.619633 53.99181
v -342.4572 9.619633 53.99181
v -342.4572 9.619633 53.99181
v -342.4572 9.619633 53.99181
v -342.6076 8.431835 56.00447
v -342.6076 8.431835 56.00447

vn 0.07889469 0.996846 0.008592307
vn 0 0 0
vn 0.07879084 0.996856 0.008385152
vn 0 0 0
vn 0.008303856 0.8140749 0.5807006
vn 0 0 0
vn 0.01121316 0.8092983 0.5872909
vn 0 0 0
vn 0.07885433 0.9968514 0.008326069
vn 0 0 0
vn 0.0788221 0.996856 0.008074553
vn 0 0 0
vn 0.01025589 0.8078184 0.5893423
vn 0 0 0
vn -0.005927348 0.8304068 0.5571262
vn 0 0 0
vn 0.07887705 0.9968525 0.007963036
vn 0 0 0
vn 0.0787423 0.9968655 0.007657507
vn 0 0 0
vn -0.002116511 0.8551981 0.518297
vn 0 0 0
vn -0.0008815147 0.8859776 0.463727
vn 0 0 0
vn 0.07869323 0.9968709 0.007478753
vn 0 0 0
vn 0.07849263 0.9968899 0.007028716
vn 0 0 0
vn 0.02521764 0.8911328 0.4530411
vn 0 0 0
vn 0.05753427 0.8523028 0.5198748
vn 0 0 0
vn 0.07851657 0.9968898 0.006773472
vn 0 0 0
vn 0.07837401 0.9969046 0.006233802
vn 0 0 0
vn 0.05567124 0.8074805 0.5872613
vn 0 0 0
vn 0.03220105 0.7891856 0.61331
vn 0 0 0
vn 0.078849 0.9968685 0.005997356
vn 0 0 0
vn 0.07921873 0.9968404 0.005808053
vn 0 0 0
vn 0.001496683 0.8160385 0.5779957
vn 0 0 0
vn 0.001176678 0.8479192 0.5301242
vn 0 0 0
vn 0.07971859 0.9968002 0.005872442
vn 0 0 0
vn 0.07976332 0.996796 0.005959832
vn 0 0 0
vn 0.0213686 0.8504055 0.5256937
vn 0 0 0
vn 0.01430831 0.8606505 0.5089949
vn 0 0 0

vt 0 0
vt 0 0
vt 0.07072144 0.6493652
vt 0.07072144 0.6493652
vt 0.07072144 0.6493652
vt 0.07072144 0.6493652
vt 0.1153809 1.059446
vt 0.1153809 1.059446
vt -1.004865 0.1062675
vt -1.004865 0.1062675
vt -0.9382141 0.7477127
vt -0.9382141 0.7477127
vt -0.9382141 0.7477127
vt -0.9382141 0.7477127
vt -0.8958008 1.155943
vt -0.8958008 1.155943
vt -2.008875 0.2084984
vt -2.008875 0.2084984
vt -1.945801 0.8425812
vt -1.945801 0.8425812
vt -1.945801 0.8425812
vt -1.945801 0.8425812
vt -1.905365 1.249081
vt -1.905365 1.249081
vt -3.029492 0.306839
vt -3.029492 0.306839
vt -2.97135 0.9335289
vt -2.97135 0.9335289
vt -2.97135 0.9335289
vt -2.97135 0.9335289
vt -2.933795 1.33834
vt -2.933795 1.33834
vt -4.039331 0.395858
vt -4.039331 0.395858
vt -3.987885 1.015929
vt -3.987885 1.015929
vt -3.987885 1.015929
vt -3.987885 1.015929
vt -3.954419 1.419298
vt -3.954419 1.419298
vt -5.044507 0.47369
vt -5.044507 0.47369
vt -4.999799 1.089423
vt -4.999799 1.089423
vt -4.999799 1.089423
vt -4.999799 1.089423
vt -4.970575 1.491907
vt -4.970575 1.491907
vt -6.053174 0.5464905
vt -6.053174 0.5464905
vt -6.007141 1.162569
vt -6.007141 1.162569
vt -6.007141 1.162569
vt -6.007141 1.162569
vt -5.977063 1.565099
vt -5.977063 1.565099

usemtl GSDShoulder1
usemap GSDShoulder1
f 9/9/9 1/1/1 3/3/3
f 11/11/11 9/9/9 3/3/3
f 13/13/13 5/5/5 7/7/7
f 15/15/15 13/13/13 7/7/7
f 17/17/17 9/9/9 11/11/11
f 19/19/19 17/17/17 11/11/11
f 21/21/21 13/13/13 15/15/15
f 23/23/23 21/21/21 15/15/15
f 25/25/25 17/17/17 19/19/19
f 27/27/27 25/25/25 19/19/19
f 29/29/29 21/21/21 23/23/23
f 31/31/31 29/29/29 23/23/23
f 33/33/33 25/25/25 27/27/27
f 35/35/35 33/33/33 27/27/27
f 37/37/37 29/29/29 31/31/31
f 39/39/39 37/37/37 31/31/31
f 41/41/41 33/33/33 35/35/35
f 43/43/43 41/41/41 35/35/35
f 45/45/45 37/37/37 39/39/39
f 47/47/47 45/45/45 39/39/39
f 49/49/49 41/41/41 43/43/43
f 51/51/51 49/49/49 43/43/43
f 53/53/53 45/45/45 47/47/47
f 55/55/55 53/53/53 47/47/47
