mtllib ./Road8_2_29.mtl
g RoadCut7
v -552.2931 7.757323 177.0594
v -552.2931 7.757323 177.0594
v -550.4425 7.757323 167.2323
v -550.4425 7.757323 167.2323
v -557.5138 7.647469 175.9282
v -557.5138 7.647469 175.9282
v -555.1306 7.647469 166.2236
v -555.1306 7.647469 166.2236
v -562.6454 7.377153 174.4856
v -562.6454 7.377153 174.4856
v -559.6406 7.377153 164.9739
v -559.6406 7.377153 164.9739
v -567.7921 6.930449 172.617
v -567.7921 6.930449 172.617
v -564.03 6.930449 163.4115
v -564.03 6.930449 163.4115
v -572.7923 6.312752 170.2522
v -572.7923 6.312752 170.2522
v -568.1118 6.312752 161.5252
v -568.1118 6.312752 161.5252
v -577.5425 5.542827 167.2631
v -577.5425 5.542827 167.2631
v -571.7407 5.542827 159.2927
v -571.7407 5.542827 159.2927
v -581.968 4.65097 163.3657
v -581.968 4.65097 163.3657
v -574.781 4.65097 156.6544
v -574.781 4.65097 156.6544
v -585.634 3.771665 158.308
v -585.634 3.771665 158.308
v -576.9017 3.771665 153.6998
v -576.9017 3.771665 153.6998
v -587.7637 3.179582 151.9618
v -587.7637 3.179582 151.9618
v -577.8786 3.179582 150.5823
v -577.8786 3.179582 150.5823

vn -0.02021278 0.9997884 -0.003806366
vn 0 0 0
vn -0.02117645 0.9997653 -0.004590285
vn 0 0 0
vn -0.03084429 0.9994985 -0.007174702
vn 0 0 0
vn -0.04232002 0.9990365 -0.01161492
vn 0 0 0
vn -0.06101419 0.9979731 -0.01808232
vn 0 0 0
vn -0.07388595 0.9969298 -0.025919
vn 0 0 0
vn -0.08975752 0.9953776 -0.03416301
vn 0 0 0
vn -0.1035998 0.9935064 -0.04703225
vn 0 0 0
vn -0.1140111 0.9918717 -0.05649689
vn 0 0 0
vn -0.1272755 0.9889157 -0.07646167
vn 0 0 0
vn -0.1271238 0.9882948 -0.08433751
vn 0 0 0
vn -0.1360359 0.9841757 -0.1135438
vn 0 0 0
vn -0.1184663 0.9866599 -0.1116589
vn 0 0 0
vn -0.1152164 0.9823251 -0.1475214
vn 0 0 0
vn -0.07761943 0.9900561 -0.1173204
vn 0 0 0
vn -0.05648811 0.9886727 -0.1390515
vn 0 0 0
vn -0.03614569 0.9930068 -0.112387
vn 0 0 0
vn -0.02497567 0.9835374 -0.1789709
vn 0 0 0

vt 0 0
vt 0 0
vt -0.3701172 -1.965418
vt -0.3701172 -1.965418
vt 1.044141 -0.2262299
vt 1.044141 -0.2262299
vt 0.5675049 -2.167154
vt 0.5675049 -2.167154
vt 2.070459 -0.5147492
vt 2.070459 -0.5147492
vt 1.469507 -2.417105
vt 1.469507 -2.417105
vt 3.099805 -0.8884766
vt 3.099805 -0.8884766
vt 2.347388 -2.729578
vt 2.347388 -2.729578
vt 4.099842 -1.361429
vt 4.099842 -1.361429
vt 3.163733 -3.106845
vt 3.163733 -3.106845
vt 5.049878 -1.959253
vt 5.049878 -1.959253
vt 3.889526 -3.553345
vt 3.889526 -3.553345
vt 5.934986 -2.738739
vt 5.934986 -2.738739
vt 4.497583 -4.080987
vt 4.497583 -4.080987
vt 6.668189 -3.750281
vt 6.668189 -3.750281
vt 4.921729 -4.671924
vt 4.921729 -4.671924
vt 7.094129 -5.019522
vt 7.094129 -5.019522
vt 5.117102 -5.295419
vt 5.117102 -5.295419

usemtl GSDRoad1
usemap GSDRoad1
f 5/5/5 1/1/1 3/3/3
f 7/7/7 5/5/5 3/3/3
f 9/9/9 5/5/5 7/7/7
f 11/11/11 9/9/9 7/7/7
f 13/13/13 9/9/9 11/11/11
f 15/15/15 13/13/13 11/11/11
f 17/17/17 13/13/13 15/15/15
f 19/19/19 17/17/17 15/15/15
f 21/21/21 17/17/17 19/19/19
f 23/23/23 21/21/21 19/19/19
f 25/25/25 21/21/21 23/23/23
f 27/27/27 25/25/25 23/23/23
f 29/29/29 25/25/25 27/27/27
f 31/31/31 29/29/29 27/27/27
f 33/33/33 29/29/29 31/31/31
f 35/35/35 33/33/33 31/31/31
