mtllib ./Road1_0_33.mtl
g SCutL1
v -294.6532 0.03 396.245
v -294.6532 0.03 396.245
v -295.4944 0.03 393.3653
v -295.4944 0.03 393.3653
v -293.742 -0.35 399.3646
v -293.742 -0.35 399.3646
v -294.6532 0.03 396.245
v -294.6532 0.03 396.245
v -300.2961 0.03 397.8361
v -300.2961 0.03 397.8361
v -300.9527 0.03 394.9088
v -300.9527 0.03 394.9088
v -299.5849 -0.35 401.0073
v -299.5849 -0.35 401.0073
v -300.2961 0.03 397.8361
v -300.2961 0.03 397.8361
v -308.3458 0.03 398.75
v -308.3458 0.03 398.75
v -308.294 0.03 395.7504
v -308.294 0.03 395.7504
v -308.4019 -0.35 401.9995
v -308.4019 -0.35 401.9995
v -308.3458 0.03 398.75
v -308.3458 0.03 398.75
v -297.3899 0.03 381.8599
v -297.3899 0.03 381.8599
v -300.0595 0.03 383.2286
v -300.0595 0.03 383.2286
v -294.4979 -0.35 380.3771
v -294.4979 -0.35 380.3771
v -297.3899 0.03 381.8599
v -297.3899 0.03 381.8599
v -294.6993 0.03 388.7436
v -294.6993 0.03 388.7436
v -297.5745 0.03 389.5999
v -297.5745 0.03 389.5999
v -291.5845 -0.35 387.8159
v -291.5845 -0.35 387.8159
v -294.6993 0.03 388.7436
v -294.6993 0.03 388.7436
v -293.2182 0.03 394.811
v -293.2182 0.03 394.811
v -296.1609 0.03 395.3947
v -296.1609 0.03 395.3947
v -290.0303 -0.35 394.1786
v -290.0303 -0.35 394.1786
v -293.2182 0.03 394.811
v -293.2182 0.03 394.811
v -292.2673 0.03 400.559
v -292.2673 0.03 400.559
v -295.2399 0.03 400.9637
v -295.2399 0.03 400.9637
v -289.047 -0.35 400.1205
v -289.047 -0.35 400.1205
v -292.2673 0.03 400.559
v -292.2673 0.03 400.559
v -291.6347 0.03 406.1577
v -291.6347 0.03 406.1577
v -294.6222 0.03 406.432
v -294.6222 0.03 406.432
v -288.3984 -0.35 405.8606
v -288.3984 -0.35 405.8606
v -291.6347 0.03 406.1577
v -291.6347 0.03 406.1577
v -291.2262 0.03 411.6625
v -291.2262 0.03 411.6625
v -294.2212 0.03 411.8359
v -294.2212 0.03 411.8359
v -287.9816 -0.35 411.4747
v -287.9816 -0.35 411.4747
v -291.2262 0.03 411.6625
v -291.2262 0.03 411.6625
v -290.9858 0.03 417.1583
v -290.9858 0.03 417.1583
v -293.9844 0.03 417.2497
v -293.9844 0.03 417.2497
v -287.7373 -0.35 417.0593
v -287.7373 -0.35 417.0593
v -290.9858 0.03 417.1583
v -290.9858 0.03 417.1583
v -290.8842 0.03 422.4854
v -290.8842 0.03 422.4854
v -293.8841 0.03 422.5102
v -293.8841 0.03 422.5102
v -287.6343 -0.35 422.4585
v -287.6343 -0.35 422.4585
v -290.8842 0.03 422.4854
v -290.8842 0.03 422.4854
v -290.8928 0.03 427.8847
v -290.8928 0.03 427.8847
v -293.8926 0.03 427.8519
v -293.8926 0.03 427.8519
v -287.6429 -0.35 427.9203
v -287.6429 -0.35 427.9203
v -290.8928 0.03 427.8847
v -290.8928 0.03 427.8847

vn -3.049699E-10 1 8.907895E-11
vn 0 0 0
vn -3.127957E-10 1 8.067376E-11
vn 0 0 0
vn 0.03143319 0.993233 0.1118036
vn 0 0 0
vn 0.03149677 0.9932237 0.1118688
vn 0 0 0
vn -1.841287E-10 1 4.748898E-11
vn 0 0 0
vn -8.636564E-11 1 1.937084E-11
vn 0 0 0
vn 0.02365926 0.9932376 0.1136637
vn 0 0 0
vn 0.0178852 0.9931911 0.1151154
vn 0 0 0
vn -3.947851E-10 1 -6.812042E-12
vn 0 0 0
vn -9.443115E-11 -1 1.515804E-10
vn 0 0 0
vn -0.5677931 0.8187377 0.08531987
vn 0 0 0
vn -0.2704109 -0.9551237 -0.1208997
vn 0 0 0
vn -2.535862E-10 -1 -1.579756E-10
vn 0 0 0
vn -2.820583E-10 1 -7.707112E-10
vn 0 0 0
vn -0.2221539 -0.9545798 -0.1985576
vn 0 0 0
vn -0.053287 0.9375805 -0.3436615
vn 0 0 0
vn -1.09346E-10 1 -2.499276E-10
vn 0 0 0
vn -8.90467E-12 0.9999999 2.204491E-12
vn 0 0 0
vn 0.1099105 0.9932135 -0.03803489
vn 0 0 0
vn 0.1113319 0.9932351 -0.03300586
vn 0 0 0
vn 4.961659E-11 1 2.004558E-10
vn 0 0 0
vn 2.079789E-11 0.9999999 1.04855E-10
vn 0 0 0
vn 0.1134823 0.9932299 -0.02482222
vn 0 0 0
vn 0.1140398 0.993234 -0.0219337
vn 0 0 0
vn 0 0.9999999 0
vn 0 0 0
vn 0 1 0
vn 0 0 0
vn 0.1148885 0.9932325 -0.01702499
vn 0 0 0
vn 0.1151535 0.9932337 -0.01504291
vn 0 0 0
vn 0 1 0
vn 0 0 0
vn 0 1 0
vn 0 0 0
vn 0.1155596 0.9932331 -0.01157416
vn 0 0 0
vn 0.1156939 0.9932337 -0.01008943
vn 0 0 0
vn 0 0.9999999 0
vn 0 0 0
vn 0 0.9999999 0
vn 0 0 0
vn 0.1158977 0.9932334 -0.00742194
vn 0 0 0
vn 0.1159642 0.9932338 -0.006245849
vn 0 0 0
vn 0 1 0
vn 0 0 0
vn 0 1 0
vn 0 0 0
vn 0.1160598 0.9932337 -0.004139024
vn 0 0 0
vn 0.116088 0.9932339 -0.003184351
vn 0 0 0
vn 0 1 0
vn 0 0 0
vn 0 1 0
vn 0 0 0
vn 0.1161239 0.9932338 -0.00140544
vn 0 0 0
vn 0.1161301 0.9932339 -0.000605108
vn 0 0 0
vn 0 1 0
vn 0 0 0
vn 0 1 0
vn 0 0 0
vn 0.1161366 0.9932333 0.0001843712
vn 0 0 0
vn 0.1161364 0.9932334 0.0001844541
vn 0 0 0

vt 0 0
vt 0 0
vt 0.1682251 -0.5759339
vt 0.1682251 -0.5759339
vt -0.1822449 0.6239258
vt -0.1822449 0.6239258
vt 0 0
vt 0 0
vt 1.128577 0.3182251
vt 1.128577 0.3182251
vt 1.259888 -0.2672302
vt 1.259888 -0.2672302
vt 0.9863281 0.9524658
vt 0.9863281 0.9524658
vt 1.128577 0.3182251
vt 1.128577 0.3182251
vt 2.738513 0.5010071
vt 2.738513 0.5010071
vt 2.728162 -0.09890747
vt 2.728162 -0.09890747
vt 2.749725 1.150909
vt 2.749725 1.150909
vt 2.738513 0.5010071
vt 2.738513 0.5010071
vt 0.5473389 -2.877014
vt 0.5473389 -2.877014
vt 1.08125 -2.603266
vt 1.08125 -2.603266
vt -0.031073 -3.173566
vt -0.031073 -3.173566
vt 0.5473389 -2.877014
vt 0.5473389 -2.877014
vt 0.009210206 -1.500281
vt 0.009210206 -1.500281
vt 0.5842468 -1.32901
vt 0.5842468 -1.32901
vt -0.6137452 -1.685822
vt -0.6137452 -1.685822
vt 0.009210206 -1.500281
vt 0.009210206 -1.500281
vt -0.2869995 -0.2867981
vt -0.2869995 -0.2867981
vt 0.3015381 -0.1700623
vt 0.3015381 -0.1700623
vt -0.9245788 -0.4132629
vt -0.9245788 -0.4132629
vt -0.2869995 -0.2867981
vt -0.2869995 -0.2867981
vt -0.4771851 0.8627991
vt -0.4771851 0.8627991
vt 0.1173279 0.94375
vt 0.1173279 0.94375
vt -1.121246 0.7751037
vt -1.121246 0.7751037
vt -0.4771851 0.8627991
vt -0.4771851 0.8627991
vt -0.6036987 1.982556
vt -0.6036987 1.982556
vt -0.006207276 2.037415
vt -0.006207276 2.037415
vt -1.25097 1.92312
vt -1.25097 1.92312
vt -0.6036987 1.982556
vt -0.6036987 1.982556
vt -0.6854126 3.083514
vt -0.6854126 3.083514
vt -0.08641358 3.118195
vt -0.08641358 3.118195
vt -1.334326 3.045941
vt -1.334326 3.045941
vt -0.6854126 3.083514
vt -0.6854126 3.083514
vt -0.73349 4.182666
vt -0.73349 4.182666
vt -0.1337707 4.20094
vt -0.1337707 4.20094
vt -1.383191 4.162866
vt -1.383191 4.162866
vt -0.73349 4.182666
vt -0.73349 4.182666
vt -0.7538086 5.248077
vt -0.7538086 5.248077
vt -0.153833 5.253046
vt -0.153833 5.253046
vt -1.40379 5.2427
vt -1.40379 5.2427
vt -0.7538086 5.248077
vt -0.7538086 5.248077
vt -0.7520935 6.327948
vt -0.7520935 6.327948
vt -0.1521301 6.321381
vt -0.1521301 6.321381
vt -1.402057 6.335065
vt -1.402057 6.335065
vt -0.7520935 6.327948
vt -0.7520935 6.327948

usemtl GSDShoulder1
usemap GSDShoulder1
f 9/9/9 1/1/1 3/3/3
f 11/11/11 9/9/9 3/3/3
f 13/13/13 5/5/5 7/7/7
f 15/15/15 13/13/13 7/7/7
f 17/17/17 9/9/9 11/11/11
f 19/19/19 17/17/17 11/11/11
f 21/21/21 13/13/13 15/15/15
f 23/23/23 21/21/21 15/15/15
f 25/25/25 17/17/17 19/19/19
f 27/27/27 25/25/25 19/19/19
f 29/29/29 21/21/21 23/23/23
f 31/31/31 29/29/29 23/23/23
f 33/33/33 25/25/25 27/27/27
f 35/35/35 33/33/33 27/27/27
f 37/37/37 29/29/29 31/31/31
f 39/39/39 37/37/37 31/31/31
f 41/41/41 33/33/33 35/35/35
f 43/43/43 41/41/41 35/35/35
f 45/45/45 37/37/37 39/39/39
f 47/47/47 45/45/45 39/39/39
f 49/49/49 41/41/41 43/43/43
f 51/51/51 49/49/49 43/43/43
f 53/53/53 45/45/45 47/47/47
f 55/55/55 53/53/53 47/47/47
f 57/57/57 49/49/49 51/51/51
f 59/59/59 57/57/57 51/51/51
f 61/61/61 53/53/53 55/55/55
f 63/63/63 61/61/61 55/55/55
f 65/65/65 57/57/57 59/59/59
f 67/67/67 65/65/65 59/59/59
f 69/69/69 61/61/61 63/63/63
f 71/71/71 69/69/69 63/63/63
f 73/73/73 65/65/65 67/67/67
f 75/75/75 73/73/73 67/67/67
f 77/77/77 69/69/69 71/71/71
f 79/79/79 77/77/77 71/71/71
f 81/81/81 73/73/73 75/75/75
f 83/83/83 81/81/81 75/75/75
f 85/85/85 77/77/77 79/79/79
f 87/87/87 85/85/85 79/79/79
f 89/89/89 81/81/81 83/83/83
f 91/91/91 89/89/89 83/83/83
f 93/93/93 85/85/85 87/87/87
f 95/95/95 93/93/93 87/87/87
