mtllib ./Road1_0_101.mtl
g Markers50
v -718.4829 21.48666 737.166
v -718.4829 21.48666 737.166
v -722.3668 21.48666 746.3436
v -722.3668 21.48666 746.3436
v -714.5403 21.90467 738.4487
v -714.5403 21.90467 738.4487
v -716.7825 21.90467 748.159
v -716.7825 21.90467 748.159
v -710.3599 22.31268 739.0637
v -710.3599 22.31268 739.0637
v -711.0998 22.31268 749.004
v -711.0998 22.31268 749.004
v -705.7896 22.7135 739.1517
v -705.7896 22.7135 739.1517
v -705.5554 22.7135 749.1185
v -705.5554 22.7135 749.1185
v -700.8917 23.10844 738.9221
v -700.8917 23.10844 738.9221
v -700.2887 23.10844 748.874
v -700.2887 23.10844 748.874
v -695.7898 23.50197 738.6206
v -695.7898 23.50197 738.6206
v -695.2753 23.50197 748.5769
v -695.2753 23.50197 748.5769
v -690.5555 23.90078 738.4395
v -690.5555 23.90078 738.4395
v -690.4116 23.90078 748.4068
v -690.4116 23.90078 748.4068

vn -0.09271794 0.994919 -0.03923768
vn 0 0 0
vn -0.07910479 0.9965361 -0.02565678
vn 0 0 0
vn -0.08351764 0.9962055 -0.02448071
vn 0 0 0
vn -0.07650335 0.9969759 -0.01364493
vn 0 0 0
vn -0.08272381 0.996518 -0.01043023
vn 0 0 0
vn -0.07602604 0.9971007 -0.003187208
vn 0 0 0
vn -0.07939818 0.9968427 -0.0007339467
vn 0 0 0
vn -0.07549731 0.9971424 0.00270232
vn 0 0 0
vn -0.07709279 0.997017 0.003716137
vn 0 0 0
vn -0.07637705 0.9970693 0.004401224
vn 0 0 0
vn -0.07681224 0.9970368 0.004196734
vn 0 0 0
vn -0.07844038 0.996914 0.003074962
vn 0 0 0
vn -0.07865153 0.9968988 0.002599325
vn 0 0 0
vn -0.08168091 0.9966578 0.001179417
vn 0 0 0

vt 0 796.1449
vt 0 0
vt 1 796.1449
vt 0 0
vt 0 796.9783
vt 0 796.9783
vt 1 796.9783
vt 1 796.9783
vt 0 797.8273
vt 0 797.8273
vt 1 797.8273
vt 1 797.8273
vt 0 798.7451
vt 0 798.7451
vt 1 798.7451
vt 1 798.7451
vt 0 799.7289
vt 0 799.7289
vt 1 799.7289
vt 1 799.7289
vt 0 800.7541
vt 0 800.7541
vt 1 800.7541
vt 1 800.7541
vt 0 801.8046
vt 0 801.8046
vt 1 801.8046
vt 1 801.8046

usemtl GSDWhiteYellowDouble
usemap GSDWhiteYellowDouble
f 5/5/5 1/1/1 3/3/3
f 7/7/7 5/5/5 3/3/3
f 9/9/9 5/5/5 7/7/7
f 11/11/11 9/9/9 7/7/7
f 13/13/13 9/9/9 11/11/11
f 15/15/15 13/13/13 11/11/11
f 17/17/17 13/13/13 15/15/15
f 19/19/19 17/17/17 15/15/15
f 21/21/21 17/17/17 19/19/19
f 23/23/23 21/21/21 19/19/19
f 25/25/25 21/21/21 23/23/23
f 27/27/27 25/25/25 23/23/23
