mtllib ./Road1_0_60.mtl
g RoadCut30
v -27.05934 0.03 596.1188
v -27.05934 0.03 596.1188
v -37.05317 0.03 596.4702
v -37.05317 0.03 596.4702
v -26.88204 0.03 601.1257
v -26.88204 0.03 601.1257
v -36.87567 0.03 601.4825
v -36.87567 0.03 601.4825
v -26.70124 0.03 606.1572
v -26.70124 0.03 606.1572
v -36.69472 0.03 606.5182
v -36.69472 0.03 606.5182
v -26.51596 0.03 611.2672
v -26.51596 0.03 611.2672
v -36.50936 0.03 611.6305
v -36.50936 0.03 611.6305
v -26.33227 0.03 616.3158
v -26.33227 0.03 616.3158
v -36.32565 0.03 616.6794
v -36.32565 0.03 616.6794
v -26.14682 0.03 621.4199
v -26.14682 0.03 621.4199
v -36.14026 0.03 621.7822
v -36.14026 0.03 621.7822
v -25.96559 0.03 626.4383
v -25.96559 0.03 626.4383
v -35.95914 0.03 626.7975
v -35.95914 0.03 626.7975
v -25.78498 0.03 631.4928
v -25.78498 0.03 631.4928
v -35.77868 0.03 631.8475
v -35.77868 0.03 631.8475
v -25.60612 0.03 636.5743
v -25.60612 0.03 636.5743
v -35.60004 0.03 636.9228
v -35.60004 0.03 636.9228
v -25.43015 0.03 641.6743
v -25.43015 0.03 641.6743
v -35.42434 0.03 642.0151
v -35.42434 0.03 642.0151
v -25.25819 0.03 646.7849
v -25.25819 0.03 646.7849
v -35.2527 0.03 647.1163
v -35.2527 0.03 647.1163
v -25.09139 0.03 651.8973
v -25.09139 0.03 651.8973
v -35.08625 0.03 652.2178
v -35.08625 0.03 652.2178
v -24.93086 0.03 657.0034
v -24.93086 0.03 657.0034
v -34.92613 0.03 657.3111
v -34.92613 0.03 657.3111
v -24.77776 0.03 662.094
v -24.77776 0.03 662.094
v -34.77346 0.03 662.3872
v -34.77346 0.03 662.3872
v -24.63323 0.03 667.1608
v -24.63323 0.03 667.1608
v -34.6294 0.03 667.4375
v -34.6294 0.03 667.4375
v -24.49838 0.03 672.1957
v -24.49838 0.03 672.1957
v -34.49504 0.03 672.454
v -34.49504 0.03 672.454
v -24.37124 0.03 677.3212
v -24.37124 0.03 677.3212
v -34.36842 0.03 677.5584
v -34.36842 0.03 677.5584
v -24.25675 0.03 682.3945
v -24.25675 0.03 682.3945
v -34.25447 0.03 682.6082
v -34.25447 0.03 682.6082
v -24.15611 0.03 687.4074
v -24.15611 0.03 687.4074
v -34.15435 0.03 687.5948
v -34.15435 0.03 687.5948
v -24.06858 0.03 692.4758
v -24.06858 0.03 692.4758
v -34.06734 0.03 692.6332
v -34.06734 0.03 692.6332
v -23.99675 0.03 697.5842
v -23.99675 0.03 697.5842
v -33.99599 0.03 697.7074
v -33.99599 0.03 697.7074
v -23.94341 0.03 702.716
v -23.94341 0.03 702.716
v -33.94306 0.03 702.7999
v -33.94306 0.03 702.7999
v -23.91166 0.03 707.8514
v -23.91166 0.03 707.8514
v -33.91158 0.03 707.8901
v -33.91158 0.03 707.8901
v -23.90482 0.03 712.9697
v -23.90482 0.03 712.9697
v -33.90481 0.03 712.9564
v -33.90481 0.03 712.9564
v -23.92655 0.03 718.0491
v -23.92655 0.03 718.0491
v -33.92628 0.03 717.9752
v -33.92628 0.03 717.9752
v -23.98235 0.03 723.1716
v -23.98235 0.03 723.1716
v -33.98128 0.03 723.0255
v -33.98128 0.03 723.0255

vn 1.306157E-11 1 3.715579E-10
vn 0 0 0
vn 1.315647E-11 1 3.713506E-10
vn 0 0 0
vn 4.345109E-12 1 1.236038E-10
vn 0 0 0
vn -4.457295E-12 1 -1.233616E-10
vn 0 0 0
vn -8.804703E-12 1 -2.45134E-10
vn 0 0 0
vn -4.405098E-12 1 -1.219169E-10
vn 0 0 0
vn 0 1 0
vn 0 0 0
vn 0 1 0
vn 0 0 0
vn 0 0.9999999 0
vn 0 0 0
vn 0 1 0
vn 0 0 0
vn 0 1 0
vn 0 0 0
vn 0 1 0
vn 0 0 0
vn 0 1 0
vn 0 0 0
vn 0 1 0
vn 0 0 0
vn -4.348293E-12 1 -1.22501E-10
vn 0 0 0
vn -8.608564E-12 1 -2.446719E-10
vn 0 0 0
vn -7.595953E-14 1 2.652998E-15
vn 0 0 0
vn 1.256023E-11 1 3.655623E-10
vn 0 0 0
vn 1.2625E-11 1 3.647214E-10
vn 0 0 0
vn 1.143331E-13 1 -3.851319E-15
vn 0 0 0
vn -4.140344E-12 1 -1.214112E-10
vn 0 0 0
vn 3.895066E-12 1 1.214933E-10
vn 0 0 0
vn 4.02744E-12 1 1.214537E-10
vn 0 0 0
vn -3.744377E-12 1 -1.216161E-10
vn 0 0 0
vn -7.648825E-12 1 -2.434055E-10
vn 0 0 0
vn -3.754518E-12 1 -1.219455E-10
vn 0 0 0
vn 0 1 0
vn 0 0 0
vn 0 1 0
vn 0 0 0
vn 0 1 0
vn 0 0 0
vn 0 1 0
vn 0 0 0
vn 3.169009E-12 1 1.226459E-10
vn 0 0 0
vn 6.051312E-12 0.9999999 2.441838E-10
vn 0 0 0
vn 3.143009E-12 1 1.216396E-10
vn 0 0 0
vn -2.612356E-12 1 -1.222602E-10
vn 0 0 0
vn -5.546358E-12 1 -2.460016E-10
vn 0 0 0
vn -2.643433E-12 1 -1.237146E-10
vn 0 0 0
vn 0 1 0
vn 0 0 0
vn 0 1 0
vn 0 0 0
vn 1.926009E-12 1 1.223888E-10
vn 0 0 0
vn 3.432394E-12 1 2.446943E-10
vn 0 0 0
vn 4.156834E-13 1 -5.868744E-15
vn 0 0 0
vn -3.5415E-12 1 -3.652189E-10
vn 0 0 0
vn -4.004126E-12 1 -3.637682E-10
vn 0 0 0
vn -5.491899E-13 1 3.386053E-15
vn 0 0 0
vn 1.957493E-12 1 3.641676E-10
vn 0 0 0
vn 7.814858E-13 0.9999999 3.658228E-10
vn 0 0 0
vn 4.722082E-13 1 1.220284E-10
vn 0 0 0
vn 9.071281E-13 1 -1.228263E-10
vn 0 0 0
vn 1.066587E-12 1 -2.447439E-10
vn 0 0 0
vn 9.054785E-13 1 -1.22603E-10
vn 0 0 0
vn 0 1 0
vn 0 0 0
vn 0 1 0
vn 0 0 0

vt 0 0
vt 0 0
vt 1.998766 0.07026368
vt 1.998766 0.07026368
vt -0.03545914 1.001367
vt -0.03545914 1.001367
vt 1.963267 1.072729
vt 1.963267 1.072729
vt -0.0716198 2.007666
vt -0.0716198 2.007666
vt 1.927076 2.079883
vt 1.927076 2.079883
vt -0.1086754 3.029675
vt -0.1086754 3.029675
vt 1.890005 3.102332
vt 1.890005 3.102332
vt -0.1454136 4.039392
vt -0.1454136 4.039392
vt 1.853263 4.112122
vt 1.853263 4.112122
vt -0.1825027 5.060205
vt -0.1825027 5.060205
vt 1.816184 5.132666
vt 1.816184 5.132666
vt -0.2187489 6.063892
vt -0.2187489 6.063892
vt 1.77996 6.135742
vt 1.77996 6.135742
vt -0.2548725 7.074792
vt -0.2548725 7.074792
vt 1.743869 7.14574
vt 1.743869 7.14574
vt -0.2906445 8.091089
vt -0.2906445 8.091089
vt 1.708141 8.160791
vt 1.708141 8.160791
vt -0.3258377 9.111096
vt -0.3258377 9.111096
vt 1.673 9.17926
vt 1.673 9.17926
vt -0.3602295 10.13322
vt -0.3602295 10.13322
vt 1.638672 10.1995
vt 1.638672 10.1995
vt -0.3935898 11.1557
vt -0.3935898 11.1557
vt 1.605383 11.21979
vt 1.605383 11.21979
vt -0.425695 12.1769
vt -0.425695 12.1769
vt 1.573358 12.23845
vt 1.573358 12.23845
vt -0.4563152 13.19503
vt -0.4563152 13.19503
vt 1.542825 13.25367
vt 1.542825 13.25367
vt -0.4852219 14.20839
vt -0.4852219 14.20839
vt 1.514012 14.26373
vt 1.514012 14.26373
vt -0.5121922 15.21537
vt -0.5121922 15.21537
vt 1.487141 15.26703
vt 1.487141 15.26703
vt -0.5376198 16.24048
vt -0.5376198 16.24048
vt 1.461817 16.28792
vt 1.461817 16.28792
vt -0.5605179 17.25514
vt -0.5605179 17.25514
vt 1.439026 17.29786
vt 1.439026 17.29786
vt -0.5806465 18.25772
vt -0.5806465 18.25772
vt 1.419003 18.29519
vt 1.419003 18.29519
vt -0.598151 19.2714
vt -0.598151 19.2714
vt 1.401601 19.30287
vt 1.401601 19.30287
vt -0.6125175 20.29308
vt -0.6125175 20.29308
vt 1.387331 20.31771
vt 1.387331 20.31771
vt -0.6231846 21.31943
vt -0.6231846 21.31943
vt 1.376745 21.33621
vt 1.376745 21.33621
vt -0.6295361 22.34652
vt -0.6295361 22.34652
vt 1.370449 22.35426
vt 1.370449 22.35426
vt -0.6309032 23.37018
vt -0.6309032 23.37018
vt 1.369095 23.36752
vt 1.369095 23.36752
vt -0.6265579 24.38605
vt -0.6265579 24.38605
vt 1.373388 24.37128
vt 1.373388 24.37128
vt -0.615398 25.41055
vt -0.615398 25.41055
vt 1.384388 25.38132
vt 1.384388 25.38132

usemtl GSDRoad1
usemap GSDRoad1
f 5/5/5 1/1/1 3/3/3
f 7/7/7 5/5/5 3/3/3
f 9/9/9 5/5/5 7/7/7
f 11/11/11 9/9/9 7/7/7
f 13/13/13 9/9/9 11/11/11
f 15/15/15 13/13/13 11/11/11
f 17/17/17 13/13/13 15/15/15
f 19/19/19 17/17/17 15/15/15
f 21/21/21 17/17/17 19/19/19
f 23/23/23 21/21/21 19/19/19
f 25/25/25 21/21/21 23/23/23
f 27/27/27 25/25/25 23/23/23
f 29/29/29 25/25/25 27/27/27
f 31/31/31 29/29/29 27/27/27
f 33/33/33 29/29/29 31/31/31
f 35/35/35 33/33/33 31/31/31
f 37/37/37 33/33/33 35/35/35
f 39/39/39 37/37/37 35/35/35
f 41/41/41 37/37/37 39/39/39
f 43/43/43 41/41/41 39/39/39
f 45/45/45 41/41/41 43/43/43
f 47/47/47 45/45/45 43/43/43
f 49/49/49 45/45/45 47/47/47
f 51/51/51 49/49/49 47/47/47
f 53/53/53 49/49/49 51/51/51
f 55/55/55 53/53/53 51/51/51
f 57/57/57 53/53/53 55/55/55
f 59/59/59 57/57/57 55/55/55
f 61/61/61 57/57/57 59/59/59
f 63/63/63 61/61/61 59/59/59
f 65/65/65 61/61/61 63/63/63
f 67/67/67 65/65/65 63/63/63
f 69/69/69 65/65/65 67/67/67
f 71/71/71 69/69/69 67/67/67
f 73/73/73 69/69/69 71/71/71
f 75/75/75 73/73/73 71/71/71
f 77/77/77 73/73/73 75/75/75
f 79/79/79 77/77/77 75/75/75
f 81/81/81 77/77/77 79/79/79
f 83/83/83 81/81/81 79/79/79
f 85/85/85 81/81/81 83/83/83
f 87/87/87 85/85/85 83/83/83
f 89/89/89 85/85/85 87/87/87
f 91/91/91 89/89/89 87/87/87
f 93/93/93 89/89/89 91/91/91
f 95/95/95 93/93/93 91/91/91
f 97/97/97 93/93/93 95/95/95
f 99/99/99 97/97/97 95/95/95
f 101/101/101 97/97/97 99/99/99
f 103/103/103 101/101/101 99/99/99
