mtllib ./Road12_2_28.mtl
g SCutL1
v -595.197 0.03 583.1348
v -595.197 0.03 583.1348
v -595.4083 0.03 580.1423
v -595.4083 0.03 580.1423
v -595.0562 -0.35 585.1298
v -595.0562 -0.35 585.1298
v -595.197 0.03 583.1348
v -595.197 0.03 583.1348
v -600.2634 0.03 583.489
v -600.2634 0.03 583.489
v -600.4473 0.03 580.4946
v -600.4473 0.03 580.4946
v -600.1407 -0.35 585.4852
v -600.1407 -0.35 585.4852
v -600.2634 0.03 583.489
v -600.2634 0.03 583.489
v -605.5459 0.03 583.7521
v -605.5459 0.03 583.7521
v -605.6572 0.03 580.7542
v -605.6572 0.03 580.7542
v -605.4717 -0.35 585.7507
v -605.4717 -0.35 585.7507
v -605.5459 0.03 583.7521
v -605.5459 0.03 583.7521
v -610.8842 0.03 583.8668
v -610.8842 0.03 583.8668
v -610.8962 0.03 580.8668
v -610.8962 0.03 580.8668
v -610.8762 -0.35 585.8668
v -610.8762 -0.35 585.8668
v -610.8842 0.03 583.8668
v -610.8842 0.03 583.8668
v -616.2584 0.03 583.7715
v -616.2584 0.03 583.7715
v -616.1389 0.03 580.7739
v -616.1389 0.03 580.7739
v -616.338 -0.35 585.77
v -616.338 -0.35 585.77
v -616.2584 0.03 583.7715
v -616.2584 0.03 583.7715
v -610.4139 0.03 573.8219
v -610.4139 0.03 573.8219
v -613.0154 0.03 575.316
v -613.0154 0.03 575.316
v -608.6796 -0.35 572.8258
v -608.6796 -0.35 572.8258
v -610.4139 0.03 573.8219
v -610.4139 0.03 573.8219
v -607.9565 0.03 581.8628
v -607.9565 0.03 581.8628
v -610.9437 0.03 582.1397
v -610.9437 0.03 582.1397
v -605.965 -0.35 581.6781
v -605.965 -0.35 581.6781
v -607.9565 0.03 581.8628
v -607.9565 0.03 581.8628
v -608.2261 0.03 588.865
v -608.2261 0.03 588.865
v -611.1913 0.03 588.4095
v -611.1913 0.03 588.4095
v -606.2493 -0.35 589.1686
v -606.2493 -0.35 589.1686
v -608.2261 0.03 588.865
v -608.2261 0.03 588.865

vn 0 1 0
vn 0 0 0
vn 0 1 0
vn 0 0 0
vn 0.01301604 0.9824237 0.1862101
vn 0 0 0
vn 0.01301713 0.9824232 0.1862123
vn 0 0 0
vn 0 0.9999999 0
vn 0 0 0
vn 0 1 0
vn 0 0 0
vn 0.01173332 0.9824243 0.1862922
vn 0 0 0
vn 0.01049314 0.9824234 0.1863707
vn 0 0 0
vn 0 1 0
vn 0 0 0
vn 0 1 0
vn 0 0 0
vn 0.007506276 0.9824239 0.1865119
vn 0 0 0
vn 0.005748861 0.9824232 0.1865786
vn 0 0 0
vn 0 1 0
vn 0 0 0
vn 0 1 0
vn 0 0 0
vn 0.001541757 0.9824246 0.1866539
vn 0 0 0
vn -0.0008931783 0.9824233 0.1866651
vn 0 0 0
vn 0 1 0
vn 0 0 0
vn 0 -1 0
vn 0 0 0
vn -0.5543493 0.8214109 0.1340934
vn 0 0 0
vn -0.4964244 -0.8501482 -0.1755302
vn 0 0 0
vn 2.186995E-09 -1 3.808009E-09
vn 0 0 0
vn 9.159281E-11 1 2.890369E-10
vn 0 0 0
vn -0.4772675 -0.6843724 -0.551226
vn 0 0 0
vn 0.111738 0.9777966 -0.1772811
vn 0 0 0
vn 4.191828E-11 1 7.298839E-11
vn 0 0 0
vn 1.402113E-11 0.9999999 -9.128576E-11
vn 0 0 0
vn 0.1842691 0.9821815 -0.03693757
vn 0 0 0
vn 0.1858887 0.9824453 -0.0157038
vn 0 0 0
vn 8.408716E-12 1 -2.803595E-10
vn 0 0 0
vn 4.535522E-11 0.9999999 -2.952891E-10
vn 0 0 0
vn 0.1878886 0.9821641 0.007180103
vn 0 0 0
vn 0.1876978 0.9822002 0.00722657
vn 0 0 0

vt 0 0
vt 0 0
vt 0.04224854 -0.5985107
vt 0.04224854 -0.5985107
vt -0.02816162 0.398999
vt -0.02816162 0.398999
vt 0 0
vt 0 0
vt 1.013269 0.0708374
vt 1.013269 0.0708374
vt 1.050049 -0.5280396
vt 1.050049 -0.5280396
vt 0.9887452 0.4700806
vt 0.9887452 0.4700806
vt 1.013269 0.0708374
vt 1.013269 0.0708374
vt 2.069775 0.1234619
vt 2.069775 0.1234619
vt 2.092041 -0.4761231
vt 2.092041 -0.4761231
vt 2.054932 0.5231811
vt 2.054932 0.5231811
vt 2.069775 0.1234619
vt 2.069775 0.1234619
vt 3.137439 0.1463867
vt 3.137439 0.1463867
vt 3.139832 -0.4536133
vt 3.139832 -0.4536133
vt 3.13584 0.5463867
vt 3.13584 0.5463867
vt 3.137439 0.1463867
vt 3.137439 0.1463867
vt 4.212268 0.1273438
vt 4.212268 0.1273438
vt 4.188367 -0.4721802
vt 4.188367 -0.4721802
vt 4.228199 0.5270264
vt 4.228199 0.5270264
vt 4.212268 0.1273438
vt 4.212268 0.1273438
vt 3.043384 -1.862585
vt 3.043384 -1.862585
vt 3.563684 -1.56377
vt 3.563684 -1.56377
vt 2.696521 -2.061804
vt 2.696521 -2.061804
vt 3.043384 -1.862585
vt 3.043384 -1.862585
vt 2.551892 -0.2544068
vt 2.551892 -0.2544068
vt 3.149329 -0.1990234
vt 3.149329 -0.1990234
vt 2.153601 -0.2913452
vt 2.153601 -0.2913452
vt 2.551892 -0.2544068
vt 2.551892 -0.2544068
vt 2.605811 1.146033
vt 2.605811 1.146033
vt 3.198853 1.054944
vt 3.198853 1.054944
vt 2.210449 1.206751
vt 2.210449 1.206751
vt 2.605811 1.146033
vt 2.605811 1.146033

usemtl GSDShoulder1
usemap GSDShoulder1
f 9/9/9 1/1/1 3/3/3
f 11/11/11 9/9/9 3/3/3
f 13/13/13 5/5/5 7/7/7
f 15/15/15 13/13/13 7/7/7
f 17/17/17 9/9/9 11/11/11
f 19/19/19 17/17/17 11/11/11
f 21/21/21 13/13/13 15/15/15
f 23/23/23 21/21/21 15/15/15
f 25/25/25 17/17/17 19/19/19
f 27/27/27 25/25/25 19/19/19
f 29/29/29 21/21/21 23/23/23
f 31/31/31 29/29/29 23/23/23
f 33/33/33 25/25/25 27/27/27
f 35/35/35 33/33/33 27/27/27
f 37/37/37 29/29/29 31/31/31
f 39/39/39 37/37/37 31/31/31
f 41/41/41 33/33/33 35/35/35
f 43/43/43 41/41/41 35/35/35
f 45/45/45 37/37/37 39/39/39
f 47/47/47 45/45/45 39/39/39
f 49/49/49 41/41/41 43/43/43
f 51/51/51 49/49/49 43/43/43
f 53/53/53 45/45/45 47/47/47
f 55/55/55 53/53/53 47/47/47
f 57/57/57 49/49/49 51/51/51
f 59/59/59 57/57/57 51/51/51
f 61/61/61 53/53/53 55/55/55
f 63/63/63 61/61/61 55/55/55
