mtllib ./Road1_0_23.mtl
g RoadCut0
v -167.7845 0.03 394.3116
v -167.7845 0.03 394.3116
v -167.744 0.03 374.3116
v -167.744 0.03 374.3116
v -173.0921 0.03 394.2086
v -173.0921 0.03 394.2086
v -172.4621 0.03 374.2185
v -172.4621 0.03 374.2185
v -178.2438 0.03 394.013
v -178.2438 0.03 394.013
v -177.3847 0.03 374.0314
v -177.3847 0.03 374.0314
v -183.3389 0.03 393.778
v -183.3389 0.03 393.778
v -182.3676 0.03 373.8017
v -182.3676 0.03 373.8017
v -188.367 0.03 393.5256
v -188.367 0.03 393.5256
v -187.3392 0.03 373.552
v -187.3392 0.03 373.552
v -193.3961 0.03 393.2632
v -193.3961 0.03 393.2632
v -192.3435 0.03 373.2909
v -192.3435 0.03 373.2909
v -198.4504 0.03 392.996
v -198.4504 0.03 392.996
v -197.3945 0.03 373.0239
v -197.3945 0.03 373.0239
v -203.46 0.03 392.7325
v -203.46 0.03 392.7325
v -202.4167 0.03 372.7597
v -202.4167 0.03 372.7597
v -208.5021 0.03 392.472
v -208.5021 0.03 392.472
v -207.4843 0.03 372.498
v -207.4843 0.03 372.498
v -213.5365 0.03 392.2199
v -213.5365 0.03 392.2199
v -212.5555 0.03 372.244
v -212.5555 0.03 372.244
v -218.5277 0.03 391.9805
v -218.5277 0.03 391.9805
v -217.5935 0.03 372.0023
v -217.5935 0.03 372.0023
v -223.516 0.03 391.7542
v -223.516 0.03 391.7542
v -222.6387 0.03 371.7734
v -222.6387 0.03 371.7734
v -228.5475 0.03 391.5416
v -228.5475 0.03 391.5416
v -227.7383 0.03 371.5579
v -227.7383 0.03 371.5579
v -233.5263 0.03 391.3496
v -233.5263 0.03 391.3496
v -232.7959 0.03 371.3629
v -232.7959 0.03 371.3629
v -238.5012 0.03 391.1789
v -238.5012 0.03 391.1789
v -237.862 0.03 371.1891
v -237.862 0.03 371.1891
v -243.4492 0.03 391.0333
v -243.4492 0.03 391.0333
v -242.9149 0.03 371.0404
v -242.9149 0.03 371.0404
v -248.4175 0.03 390.9153
v -248.4175 0.03 390.9153
v -248.0056 0.03 370.9196
v -248.0056 0.03 370.9196
v -253.3789 0.03 390.8304
v -253.3789 0.03 390.8304
v -253.1097 0.03 370.8322
v -253.1097 0.03 370.8322
v -258.3036 0.03 390.7841
v -258.3036 0.03 390.7841
v -258.2014 0.03 370.7843
v -258.2014 0.03 370.7843
v -263.2245 0.03 390.7827
v -263.2245 0.03 390.7827
v -263.3217 0.03 370.783
v -263.3217 0.03 370.783
v -268.1609 0.03 390.8358
v -268.1609 0.03 390.8358
v -268.5019 0.03 370.8387
v -268.5019 0.03 370.8387
v -273.0535 0.03 390.9547
v -273.0535 0.03 390.9547
v -273.6962 0.03 370.965
v -273.6962 0.03 370.965
v -277.8862 0.03 391.1545
v -277.8862 0.03 391.1545
v -278.914 0.03 371.181
v -278.914 0.03 371.181
v -282.6598 0.03 391.4586
v -282.6598 0.03 391.4586
v -284.204 0.03 371.5183
v -284.204 0.03 371.5183
v -287.3003 0.03 391.898
v -287.3003 0.03 391.898
v -289.5786 0.03 372.0282
v -289.5786 0.03 372.0282
v -291.6829 0.03 392.5173
v -291.6829 0.03 392.5173
v -295.1119 0.03 372.8134
v -295.1119 0.03 372.8134
v -295.4944 0.03 393.3653
v -295.4944 0.03 393.3653
v -301.1019 0.03 374.1675
v -301.1019 0.03 374.1675

vn 0 1 0
vn 0 0 0
vn 0 1 0
vn 0 0 0
vn 0 1 0
vn 0 0 0
vn 0 1 0
vn 0 0 0
vn 0 1 0
vn 0 0 0
vn 0 1 0
vn 0 0 0
vn 0 1 0
vn 0 0 0
vn 0 1 0
vn 0 0 0
vn -1.236158E-10 1 -6.36103E-12
vn 0 0 0
vn -2.476057E-10 1 -1.289514E-11
vn 0 0 0
vn -1.231222E-10 1 -6.335633E-12
vn 0 0 0
vn 1.229331E-10 1 6.498992E-12
vn 0 0 0
vn 2.457789E-10 1 1.297303E-11
vn 0 0 0
vn 1.23151E-10 1 6.510512E-12
vn 0 0 0
vn 1.232305E-10 1 6.437109E-12
vn 0 0 0
vn 2.455293E-10 1 1.266832E-11
vn 0 0 0
vn 1.22667E-10 1 6.407671E-12
vn 0 0 0
vn -1.224544E-10 1 -6.013729E-12
vn 0 0 0
vn -1.230699E-10 1 -6.27111E-12
vn 0 0 0
vn 1.230701E-10 1 5.754919E-12
vn 0 0 0
vn 1.237458E-10 0.9999999 6.077151E-12
vn 0 0 0
vn -1.233371E-10 1 -5.414941E-12
vn 0 0 0
vn -3.701863E-10 1 -1.660511E-11
vn 0 0 0
vn -3.675202E-10 1 -1.571726E-11
vn 0 0 0
vn 1.766648E-14 0.9999999 -4.192969E-13
vn 0 0 0
vn 3.686263E-10 1 1.39565E-11
vn 0 0 0
vn 3.717079E-10 1 1.456184E-11
vn 0 0 0
vn -1.956463E-14 1 5.622951E-13
vn 0 0 0
vn -1.241183E-10 1 -4.536069E-12
vn 0 0 0
vn 1.235204E-10 1 3.300659E-12
vn 0 0 0
vn -1.897959E-14 1 6.528978E-13
vn 0 0 0
vn -3.695535E-10 1 -8.366973E-12
vn 0 0 0
vn -2.478691E-10 0.9999999 -6.623453E-12
vn 0 0 0
vn 2.45724E-10 1 3.307693E-12
vn 0 0 0
vn 4.968988E-10 1 8.462494E-12
vn 0 0 0
vn 2.463321E-10 1 3.31588E-12
vn 0 0 0
vn -1.246937E-10 1 -6.370231E-13
vn 0 0 0
vn -2.461683E-10 1 -3.042583E-14
vn 0 0 0
vn -1.243599E-10 1 -6.353181E-13
vn 0 0 0
vn 1.222251E-10 1 -2.083892E-12
vn 0 0 0
vn 2.481534E-10 1 -2.718559E-12
vn 0 0 0
vn 1.21964E-10 1 -2.07944E-12
vn 0 0 0
vn -1.247267E-10 1 4.010161E-12
vn 0 0 0
vn -2.439877E-10 1 1.01991E-11
vn 0 0 0
vn -2.50772E-10 1 1.04827E-11
vn 0 0 0
vn -1.215387E-10 1 6.254334E-12
vn 0 0 0
vn 0 1 0
vn 0 0 0
vn 0 1 0
vn 0 0 0
vn 0 1 0
vn 0 0 0
vn 0 1 0
vn 0 0 0
vn 1.319147E-10 0.9999999 -2.295722E-11
vn 0 0 0
vn 2.320089E-10 1 -5.389424E-11
vn 0 0 0
vn 3.612238E-10 1 -8.391009E-11
vn 0 0 0
vn 2.917009E-10 1 -8.520373E-11
vn 0 0 0

vt 0 0
vt 0 0
vt -0.008087158 -3.999988
vt -0.008087158 -3.999988
vt 1.06153 -0.02059326
vt 1.06153 -0.02059326
vt 0.9355286 -4.018604
vt 0.9355286 -4.018604
vt 2.091855 -0.05971069
vt 2.091855 -0.05971069
vt 1.920047 -4.056024
vt 1.920047 -4.056024
vt 3.110889 -0.1067017
vt 3.110889 -0.1067017
vt 2.916626 -4.101978
vt 2.916626 -4.101978
vt 4.116498 -0.15719
vt 4.116498 -0.15719
vt 3.910938 -4.151905
vt 3.910938 -4.151905
vt 5.122314 -0.2096802
vt 5.122314 -0.2096802
vt 4.911804 -4.204138
vt 4.911804 -4.204138
vt 6.133176 -0.2631104
vt 6.133176 -0.2631104
vt 5.922006 -4.257532
vt 5.922006 -4.257532
vt 7.135108 -0.3158203
vt 7.135108 -0.3158203
vt 6.926446 -4.310376
vt 6.926446 -4.310376
vt 8.143527 -0.3679016
vt 8.143527 -0.3679016
vt 7.939969 -4.362714
vt 7.939969 -4.362714
vt 9.150413 -0.4183289
vt 9.150413 -0.4183289
vt 8.954208 -4.413519
vt 8.954208 -4.413519
vt 10.14865 -0.466217
vt 10.14865 -0.466217
vt 9.96181 -4.461847
vt 9.96181 -4.461847
vt 11.1463 -0.5114746
vt 11.1463 -0.5114746
vt 10.97085 -4.507629
vt 10.97085 -4.507629
vt 12.1526 -0.5539978
vt 12.1526 -0.5539978
vt 11.99077 -4.550726
vt 11.99077 -4.550726
vt 13.14836 -0.592395
vt 13.14836 -0.592395
vt 13.00228 -4.589722
vt 13.00228 -4.589722
vt 14.14334 -0.6265381
vt 14.14334 -0.6265381
vt 14.0155 -4.6245
vt 14.0155 -4.6245
vt 15.13293 -0.6556579
vt 15.13293 -0.6556579
vt 15.02609 -4.65423
vt 15.02609 -4.65423
vt 16.1266 -0.679242
vt 16.1266 -0.679242
vt 16.04421 -4.6784
vt 16.04421 -4.6784
vt 17.11889 -0.6962342
vt 17.11889 -0.6962342
vt 17.06505 -4.695868
vt 17.06505 -4.695868
vt 18.10383 -0.7054932
vt 18.10383 -0.7054932
vt 18.08339 -4.705444
vt 18.08339 -4.705444
vt 19.088 -0.7057678
vt 19.088 -0.7057678
vt 19.10745 -4.705719
vt 19.10745 -4.705719
vt 20.07529 -0.6951599
vt 20.07529 -0.6951599
vt 20.14348 -4.694574
vt 20.14348 -4.694574
vt 21.0538 -0.6713806
vt 21.0538 -0.6713806
vt 21.18234 -4.669318
vt 21.18234 -4.669318
vt 22.02034 -0.6314026
vt 22.02034 -0.6314026
vt 22.2259 -4.626117
vt 22.2259 -4.626117
vt 22.97507 -0.5705872
vt 22.97507 -0.5705872
vt 23.28391 -4.558649
vt 23.28391 -4.558649
vt 23.90317 -0.4827026
vt 23.90317 -0.4827026
vt 24.35883 -4.456665
vt 24.35883 -4.456665
vt 24.77968 -0.3588501
vt 24.77968 -0.3588501
vt 25.46549 -4.299622
vt 25.46549 -4.299622
vt 25.54198 -0.1892517
vt 25.54198 -0.1892517
vt 26.66348 -4.028815
vt 26.66348 -4.028815

usemtl GSDRoad1
usemap GSDRoad1
f 5/5/5 1/1/1 3/3/3
f 7/7/7 5/5/5 3/3/3
f 9/9/9 5/5/5 7/7/7
f 11/11/11 9/9/9 7/7/7
f 13/13/13 9/9/9 11/11/11
f 15/15/15 13/13/13 11/11/11
f 17/17/17 13/13/13 15/15/15
f 19/19/19 17/17/17 15/15/15
f 21/21/21 17/17/17 19/19/19
f 23/23/23 21/21/21 19/19/19
f 25/25/25 21/21/21 23/23/23
f 27/27/27 25/25/25 23/23/23
f 29/29/29 25/25/25 27/27/27
f 31/31/31 29/29/29 27/27/27
f 33/33/33 29/29/29 31/31/31
f 35/35/35 33/33/33 31/31/31
f 37/37/37 33/33/33 35/35/35
f 39/39/39 37/37/37 35/35/35
f 41/41/41 37/37/37 39/39/39
f 43/43/43 41/41/41 39/39/39
f 45/45/45 41/41/41 43/43/43
f 47/47/47 45/45/45 43/43/43
f 49/49/49 45/45/45 47/47/47
f 51/51/51 49/49/49 47/47/47
f 53/53/53 49/49/49 51/51/51
f 55/55/55 53/53/53 51/51/51
f 57/57/57 53/53/53 55/55/55
f 59/59/59 57/57/57 55/55/55
f 61/61/61 57/57/57 59/59/59
f 63/63/63 61/61/61 59/59/59
f 65/65/65 61/61/61 63/63/63
f 67/67/67 65/65/65 63/63/63
f 69/69/69 65/65/65 67/67/67
f 71/71/71 69/69/69 67/67/67
f 73/73/73 69/69/69 71/71/71
f 75/75/75 73/73/73 71/71/71
f 77/77/77 73/73/73 75/75/75
f 79/79/79 77/77/77 75/75/75
f 81/81/81 77/77/77 79/79/79
f 83/83/83 81/81/81 79/79/79
f 85/85/85 81/81/81 83/83/83
f 87/87/87 85/85/85 83/83/83
f 89/89/89 85/85/85 87/87/87
f 91/91/91 89/89/89 87/87/87
f 93/93/93 89/89/89 91/91/91
f 95/95/95 93/93/93 91/91/91
f 97/97/97 93/93/93 95/95/95
f 99/99/99 97/97/97 95/95/95
f 101/101/101 97/97/97 99/99/99
f 103/103/103 101/101/101 99/99/99
f 105/105/105 101/101/101 103/103/103
f 107/107/107 105/105/105 103/103/103
