mtllib ./Road1_0_55.mtl
g Markers27
v -84.57501 0.04 249.4949
v -84.57501 0.04 249.4949
v -93.50252 0.04 254.0004
v -93.50252 0.04 254.0004
v -82.30106 0.04 253.9318
v -82.30106 0.04 253.9318
v -91.15421 0.04 258.5817
v -91.15421 0.04 258.5817
v -79.92921 0.04 258.3037
v -79.92921 0.04 258.3037
v -88.65833 0.04 263.1825
v -88.65833 0.04 263.1825
v -77.43684 0.04 262.6533
v -77.43684 0.04 262.6533
v -86.06535 0.04 267.7079
v -86.06535 0.04 267.7079
v -74.89139 0.04 266.9284
v -74.89139 0.04 266.9284
v -83.45346 0.04 272.0947
v -83.45346 0.04 272.0947
v -72.30634 0.04 271.1809
v -72.30634 0.04 271.1809
v -80.84122 0.04 276.392
v -80.84122 0.04 276.392
v -69.63811 0.04 275.5584
v -69.63811 0.04 275.5584
v -78.188 0.04 280.7448
v -78.188 0.04 280.7448
v -67.02287 0.04 279.9163
v -67.02287 0.04 279.9163
v -75.62807 0.04 285.0104
v -75.62807 0.04 285.0104
v -64.41999 0.04 284.3999
v -64.41999 0.04 284.3999
v -73.11636 0.04 289.3368
v -73.11636 0.04 289.3368
v -61.90742 0.04 288.9487
v -61.90742 0.04 288.9487
v -70.72086 0.04 293.6735
v -70.72086 0.04 293.6735
v -59.50185 0.04 293.5929
v -59.50185 0.04 293.5929
v -68.44851 0.04 298.0602
v -68.44851 0.04 298.0602
v -57.21793 0.04 298.356
v -57.21793 0.04 298.356
v -66.3046 0.04 302.5312
v -66.3046 0.04 302.5312
v -55.12001 0.04 303.131
v -55.12001 0.04 303.131
v -64.34209 0.04 306.998
v -64.34209 0.04 306.998
v -53.15999 0.04 308.0421
v -53.15999 0.04 308.0421
v -62.51045 0.04 311.5874
v -62.51045 0.04 311.5874
v -51.39138 0.04 312.9565
v -51.39138 0.04 312.9565
v -60.8562 0.04 316.184
v -60.8562 0.04 316.184
v -49.76443 0.04 318.0016
v -49.76443 0.04 318.0016
v -59.33099 0.04 320.9138
v -59.33099 0.04 320.9138
v -48.32232 0.04 323.02
v -48.32232 0.04 323.02
v -57.97475 0.04 325.6335
v -57.97475 0.04 325.6335
v -47.01609 0.04 328.1476
v -47.01609 0.04 328.1476
v -56.74174 0.04 330.4739
v -56.74174 0.04 330.4739

vn 0 0.9999999 0
vn 0 0 0
vn 0 1 0
vn 0 0 0
vn 0 1 0
vn 0 0 0
vn 0 1 0
vn 0 0 0
vn 0 0.9999999 0
vn 0 0 0
vn 0 0.9999999 0
vn 0 0 0
vn -6.192542E-11 1 -1.057112E-10
vn 0 0 0
vn -1.244617E-10 1 -2.09333E-10
vn 0 0 0
vn -6.252671E-11 1 -1.067376E-10
vn 0 0 0
vn 6.423474E-11 1 1.05205E-10
vn 0 0 0
vn 1.918835E-10 1 3.155087E-10
vn 0 0 0
vn 1.906054E-10 1 3.12854E-10
vn 0 0 0
vn 3.000634E-13 1 -1.827119E-13
vn 0 0 0
vn -1.889689E-10 1 -3.166176E-10
vn 0 0 0
vn -1.890246E-10 1 -3.14144E-10
vn 0 0 0
vn -1.931609E-12 1 1.119898E-12
vn 0 0 0
vn 1.214608E-10 1 2.094968E-10
vn 0 0 0
vn 6.068728E-11 1 1.069011E-10
vn 0 0 0
vn 0 1 0
vn 0 0 0
vn 0 0.9999999 0
vn 0 0 0
vn 5.385405E-11 1 1.078523E-10
vn 0 0 0
vn 1.060532E-10 1 2.212872E-10
vn 0 0 0
vn 5.384329E-11 1 1.078308E-10
vn 0 0 0
vn -4.785627E-11 1 -1.1413E-10
vn 0 0 0
vn -9.739699E-11 0.9999999 -2.217332E-10
vn 0 0 0
vn -4.768155E-11 1 -1.137133E-10
vn 0 0 0
vn 0 1 0
vn 0 0 0
vn 0 1 0
vn 0 0 0
vn 3.902001E-11 1 1.144269E-10
vn 0 0 0
vn 7.546825E-11 1 2.339281E-10
vn 0 0 0
vn 3.881044E-11 1 1.138124E-10
vn 0 0 0
vn -3.22389E-11 1 -1.190666E-10
vn 0 0 0
vn -3.517403E-11 1 -1.155452E-10
vn 0 0 0
vn 2.85159E-11 0.9999999 1.192179E-10
vn 0 0 0
vn 8.946074E-11 1 3.509395E-10
vn 0 0 0
vn 8.675884E-11 1 3.627171E-10
vn 0 0 0

vt 0 434.3116
vt 0 0
vt 1 434.3116
vt 0 0
vt 0 435.3087
vt 0 435.3087
vt 1 435.3087
vt 1 435.3087
vt 0 436.3035
vt 0 436.3035
vt 1 436.3035
vt 1 436.3035
vt 0 437.3061
vt 0 437.3061
vt 1 437.3061
vt 1 437.3061
vt 0 438.3012
vt 0 438.3012
vt 1 438.3012
vt 1 438.3012
vt 0 439.2965
vt 0 439.2965
vt 1 439.2965
vt 1 439.2965
vt 0 440.3218
vt 0 440.3218
vt 1 440.3218
vt 1 440.3218
vt 0 441.3383
vt 0 441.3383
vt 1 441.3383
vt 1 441.3383
vt 0 442.3752
vt 0 442.3752
vt 1 442.3752
vt 1 442.3752
vt 0 443.4145
vt 0 443.4145
vt 1 443.4145
vt 1 443.4145
vt 0 444.4606
vt 0 444.4606
vt 1 444.4606
vt 1 444.4606
vt 0 445.517
vt 0 445.517
vt 1 445.517
vt 1 445.517
vt 0 446.5602
vt 0 446.5602
vt 1 446.5602
vt 1 446.5602
vt 0 447.6177
vt 0 447.6177
vt 1 447.6177
vt 1 447.6177
vt 0 448.6623
vt 0 448.6623
vt 1 448.6623
vt 1 448.6623
vt 0 449.7225
vt 0 449.7225
vt 1 449.7225
vt 1 449.7225
vt 0 450.7668
vt 0 450.7668
vt 1 450.7668
vt 1 450.7668
vt 0 451.825
vt 0 0
vt 1 451.825
vt 0 0

usemtl GSDWhiteYellowDouble
usemap GSDWhiteYellowDouble
f 5/5/5 1/1/1 3/3/3
f 7/7/7 5/5/5 3/3/3
f 9/9/9 5/5/5 7/7/7
f 11/11/11 9/9/9 7/7/7
f 13/13/13 9/9/9 11/11/11
f 15/15/15 13/13/13 11/11/11
f 17/17/17 13/13/13 15/15/15
f 19/19/19 17/17/17 15/15/15
f 21/21/21 17/17/17 19/19/19
f 23/23/23 21/21/21 19/19/19
f 25/25/25 21/21/21 23/23/23
f 27/27/27 25/25/25 23/23/23
f 29/29/29 25/25/25 27/27/27
f 31/31/31 29/29/29 27/27/27
f 33/33/33 29/29/29 31/31/31
f 35/35/35 33/33/33 31/31/31
f 37/37/37 33/33/33 35/35/35
f 39/39/39 37/37/37 35/35/35
f 41/41/41 37/37/37 39/39/39
f 43/43/43 41/41/41 39/39/39
f 45/45/45 41/41/41 43/43/43
f 47/47/47 45/45/45 43/43/43
f 49/49/49 45/45/45 47/47/47
f 51/51/51 49/49/49 47/47/47
f 53/53/53 49/49/49 51/51/51
f 55/55/55 53/53/53 51/51/51
f 57/57/57 53/53/53 55/55/55
f 59/59/59 57/57/57 55/55/55
f 61/61/61 57/57/57 59/59/59
f 63/63/63 61/61/61 59/59/59
f 65/65/65 61/61/61 63/63/63
f 67/67/67 65/65/65 63/63/63
f 69/69/69 65/65/65 67/67/67
f 71/71/71 69/69/69 67/67/67
