mtllib ./Road7_2_11.mtl
g Markers5
v -151.7556 0.04 294.5429
v -151.7556 0.04 294.5429
v -147.8459 0.04 274.9287
v -147.8459 0.04 274.9287
v -156.6954 0.04 293.5954
v -156.6954 0.04 293.5954
v -152.7271 0.04 273.993
v -152.7271 0.04 273.993
v -160.475 0.04 292.8359
v -160.475 0.04 292.8359
v -158.8155 0.04 272.9049
v -158.8155 0.04 272.9049
v -164.7543 0.04 292.7332
v -164.7543 0.04 292.7332
v -164.6368 0.04 272.7336
v -164.6368 0.04 272.7336
v -169.7898 0.04 292.7205
v -169.7898 0.04 292.7205
v -169.7674 0.04 272.7205
v -169.7674 0.04 272.7205
v -174.8526 0.04 292.7143
v -174.8526 0.04 292.7143
v -174.8203 0.04 272.7143
v -174.8203 0.04 272.7143
v -179.9003 0.04 292.703
v -179.9003 0.04 292.703
v -179.8425 0.04 272.7031
v -179.8425 0.04 272.7031

vn 0 1 0
vn 0 0 0
vn 0 1 0
vn 0 0 0
vn 0 1 0
vn 0 0 0
vn 0 1 0
vn 0 0 0
vn 1.299341E-10 1 1.08183E-11
vn 0 0 0
vn 2.288101E-10 1 1.018224E-11
vn 0 0 0
vn 2.457798E-10 1 1.09374E-11
vn 0 0 0
vn 1.164983E-10 1 6.843975E-13
vn 0 0 0
vn -2.446193E-10 1 -2.739724E-13
vn 0 0 0
vn -4.88681E-10 1 -6.684914E-13
vn 0 0 0
vn -3.685148E-10 1 -4.736516E-13
vn 0 0 0
vn -3.758774E-16 1 1.567409E-13
vn 0 0 0
vn 3.699396E-10 1 8.331782E-13
vn 0 0 0
vn 3.708764E-10 0.9999999 1.071276E-12
vn 0 0 0

vt 0 27.01906
vt 0 0
vt 1 27.01906
vt 0 0
vt 0 28.02503
vt 0 28.02503
vt 1 28.02503
vt 1 28.02503
vt 0 28.79606
vt 0 28.79606
vt 1 28.79606
vt 1 28.79606
vt 0 29.65217
vt 0 29.65217
vt 1 29.65217
vt 1 29.65217
vt 0 30.65928
vt 0 30.65928
vt 1 30.65928
vt 1 30.65928
vt 0 31.67183
vt 0 31.67183
vt 1 31.67183
vt 1 31.67183
vt 0 32.68137
vt 0 32.68137
vt 1 32.68137
vt 1 32.68137

usemtl GSDWhiteYellowDouble-4L
usemap GSDWhiteYellowDouble-4L
f 5/5/5 1/1/1 3/3/3
f 7/7/7 5/5/5 3/3/3
f 9/9/9 5/5/5 7/7/7
f 11/11/11 9/9/9 7/7/7
f 13/13/13 9/9/9 11/11/11
f 15/15/15 13/13/13 11/11/11
f 17/17/17 13/13/13 15/15/15
f 19/19/19 17/17/17 15/15/15
f 21/21/21 17/17/17 19/19/19
f 23/23/23 21/21/21 19/19/19
f 25/25/25 21/21/21 23/23/23
f 27/27/27 25/25/25 23/23/23
