mtllib ./Road8_2_17.mtl
g RoadCut1
v -544.7328 8.224098 290.5335
v -544.7328 8.224098 290.5335
v -543.9718 8.224098 280.5637
v -543.9718 8.224098 280.5637
v -549.8419 8.284991 290.0832
v -549.8419 8.284991 290.0832
v -548.8419 8.284991 280.1336
v -548.8419 8.284991 280.1336
v -555.1 8.305555 289.4781
v -555.1 8.305555 289.4781
v -553.8013 8.305555 279.5628
v -553.8013 8.305555 279.5628
v -560.3253 8.273252 288.6945
v -560.3253 8.273252 288.6945
v -558.6427 8.273252 278.8379
v -558.6427 8.273252 278.8379
v -565.5287 8.173623 287.6711
v -565.5287 8.173623 287.6711
v -563.3323 8.173623 277.9193
v -563.3323 8.173623 277.9193
v -570.7719 7.981562 286.2878
v -570.7719 7.981562 286.2878
v -567.8429 7.981562 276.7392
v -567.8429 7.981562 276.7392
v -576.0694 7.654206 284.3228
v -576.0694 7.654206 284.3228
v -572.0241 7.654206 275.2144
v -572.0241 7.654206 275.2144
v -581.2733 7.128333 281.3648
v -581.2733 7.128333 281.3648
v -575.4849 7.128333 273.3173
v -575.4849 7.128333 273.3173
v -585.9437 6.302227 276.5579
v -585.9437 6.302227 276.5579
v -577.7941 6.302227 271.102
v -577.7941 6.302227 271.102
v -588.4744 5.226271 270.2531
v -588.4744 5.226271 270.2531
v -578.9102 5.226271 268.3392
v -578.9102 5.226271 268.3392
v -589.1331 4.193063 264.8888
v -589.1331 4.193063 264.8888
v -579.3441 4.193063 263.9667
v -579.3441 4.193063 263.9667

vn 0.01183799 0.9999295 0.0009035848
vn 0 0 0
vn 0.01210859 0.999926 0.001070472
vn 0 0 0
vn 0.009259433 0.9999567 0.0008347623
vn 0 0 0
vn 0.006685502 0.9999774 0.0007128936
vn 0 0 0
vn 0.0005666055 0.9999999 3.416091E-05
vn 0 0 0
vn -0.002866568 0.9999958 -0.0004588612
vn 0 0 0
vn -0.01047068 0.9999437 -0.00170523
vn 0 0 0
vn -0.01517513 0.9998806 -0.002944342
vn 0 0 0
vn -0.02469075 0.9996815 -0.005215644
vn 0 0 0
vn -0.03149959 0.999471 -0.008101152
vn 0 0 0
vn -0.04346598 0.9989784 -0.01236166
vn 0 0 0
vn -0.053891 0.9983601 -0.01931055
vn 0 0 0
vn -0.06794318 0.9973102 -0.02749809
vn 0 0 0
vn -0.08388073 0.9954415 -0.04539122
vn 0 0 0
vn -0.09516738 0.9936243 -0.06044836
vn 0 0 0
vn -0.1126879 0.9878938 -0.106617
vn 0 0 0
vn -0.1041892 0.9867818 -0.1241218
vn 0 0 0
vn -0.09742607 0.9745187 -0.2020428
vn 0 0 0
vn -0.06627846 0.9788364 -0.1936142
vn 0 0 0
vn -0.03896193 0.9708498 -0.2365011
vn 0 0 0
vn -0.02993734 0.9784514 -0.2042955
vn 0 0 0
vn -0.02146637 0.9734489 -0.2278956
vn 0 0 0

vt 0 0
vt 0 0
vt -0.1521973 -1.993958
vt -0.1521973 -1.993958
vt 1.021826 -0.09006958
vt 1.021826 -0.09006958
vt 0.8218262 -2.079974
vt 0.8218262 -2.079974
vt 2.07345 -0.2110901
vt 2.07345 -0.2110901
vt 1.813709 -2.194147
vt 1.813709 -2.194147
vt 3.118506 -0.3677917
vt 3.118506 -0.3677917
vt 2.781982 -2.339118
vt 2.781982 -2.339118
vt 4.15918 -0.5724792
vt 4.15918 -0.5724792
vt 3.719898 -2.522846
vt 3.719898 -2.522846
vt 5.207813 -0.8491394
vt 5.207813 -0.8491394
vt 4.622022 -2.758856
vt 4.622022 -2.758856
vt 6.267322 -1.242145
vt 6.267322 -1.242145
vt 5.458264 -3.063812
vt 5.458264 -3.063812
vt 7.308105 -1.833746
vt 7.308105 -1.833746
vt 6.150415 -3.443244
vt 6.150415 -3.443244
vt 8.242175 -2.795123
vt 8.242175 -2.795123
vt 6.612268 -3.88631
vt 6.612268 -3.88631
vt 8.748316 -4.056079
vt 8.748316 -4.056079
vt 6.835474 -4.438867
vt 6.835474 -4.438867
vt 8.880054 -5.128943
vt 8.880054 -5.128943
vt 6.922266 -5.313354
vt 6.922266 -5.313354

usemtl GSDRoad1
usemap GSDRoad1
f 5/5/5 1/1/1 3/3/3
f 7/7/7 5/5/5 3/3/3
f 9/9/9 5/5/5 7/7/7
f 11/11/11 9/9/9 7/7/7
f 13/13/13 9/9/9 11/11/11
f 15/15/15 13/13/13 11/11/11
f 17/17/17 13/13/13 15/15/15
f 19/19/19 17/17/17 15/15/15
f 21/21/21 17/17/17 19/19/19
f 23/23/23 21/21/21 19/19/19
f 25/25/25 21/21/21 23/23/23
f 27/27/27 25/25/25 23/23/23
f 29/29/29 25/25/25 27/27/27
f 31/31/31 29/29/29 27/27/27
f 33/33/33 29/29/29 31/31/31
f 35/35/35 33/33/33 31/31/31
f 37/37/37 33/33/33 35/35/35
f 39/39/39 37/37/37 35/35/35
f 41/41/41 37/37/37 39/39/39
f 43/43/43 41/41/41 39/39/39
