mtllib ./Road12_2_29.mtl
g SCutL2
v -608.2261 0.03 588.865
v -608.2261 0.03 588.865
v -611.1913 0.03 588.4095
v -611.1913 0.03 588.4095
v -606.2493 -0.35 589.1686
v -606.2493 -0.35 589.1686
v -608.2261 0.03 588.865
v -608.2261 0.03 588.865
v -609.1833 0.03 593.9279
v -609.1833 0.03 593.9279
v -612.1413 0.03 593.4279
v -612.1413 0.03 593.4279
v -607.2112 -0.35 594.2614
v -607.2112 -0.35 594.2614
v -609.1833 0.03 593.9279
v -609.1833 0.03 593.9279
v -609.8593 0.03 598.5675
v -609.8593 0.03 598.5675
v -612.8352 0.03 598.1882
v -612.8352 0.03 598.1882
v -607.8754 -0.35 598.8204
v -607.8754 -0.35 598.8204
v -609.8593 0.03 598.5675
v -609.8593 0.03 598.5675
v -610.4104 0.03 603.3693
v -610.4104 0.03 603.3693
v -613.3943 0.03 603.0591
v -613.3943 0.03 603.0591
v -608.4211 -0.35 603.5761
v -608.4211 -0.35 603.5761
v -610.4104 0.03 603.3693
v -610.4104 0.03 603.3693
v -610.8798 0.03 608.275
v -610.8798 0.03 608.275
v -613.8681 0.03 608.0109
v -613.8681 0.03 608.0109
v -608.8875 -0.35 608.451
v -608.8875 -0.35 608.451
v -610.8798 0.03 608.275
v -610.8798 0.03 608.275
v -611.2849 0.03 613.1856
v -611.2849 0.03 613.1856
v -614.276 0.03 612.9547
v -614.276 0.03 612.9547
v -609.2908 -0.35 613.3396
v -609.2908 -0.35 613.3396
v -611.2849 0.03 613.1856
v -611.2849 0.03 613.1856
v -611.6459 0.03 618.1451
v -611.6459 0.03 618.1451
v -614.6389 0.03 617.9395
v -614.6389 0.03 617.9395
v -609.6506 -0.35 618.2822
v -609.6506 -0.35 618.2822
v -611.6459 0.03 618.1451
v -611.6459 0.03 618.1451
v -611.9711 0.03 623.1314
v -611.9711 0.03 623.1314
v -614.9653 0.03 622.9459
v -614.9653 0.03 622.9459
v -609.9749 -0.35 623.2551
v -609.9749 -0.35 623.2551
v -611.9711 0.03 623.1314
v -611.9711 0.03 623.1314
v -612.2676 0.03 628.145
v -612.2676 0.03 628.145
v -615.2628 0.03 627.9758
v -615.2628 0.03 627.9758
v -610.2708 -0.35 628.2578
v -610.2708 -0.35 628.2578
v -612.2676 0.03 628.145
v -612.2676 0.03 628.145
v -612.538 0.03 633.1354
v -612.538 0.03 633.1354
v -615.534 0.03 632.9796
v -615.534 0.03 632.9796
v -610.5407 -0.35 633.2394
v -610.5407 -0.35 633.2394
v -612.538 0.03 633.1354
v -612.538 0.03 633.1354
v -612.7881 0.03 638.1263
v -612.7881 0.03 638.1263
v -615.7846 0.03 637.9816
v -615.7846 0.03 637.9816
v -610.7905 -0.35 638.2228
v -610.7905 -0.35 638.2228
v -612.7881 0.03 638.1263
v -612.7881 0.03 638.1263
v -613.0225 0.03 643.1487
v -613.0225 0.03 643.1487
v -616.0194 0.03 643.0134
v -616.0194 0.03 643.0134
v -611.0245 -0.35 643.239
v -611.0245 -0.35 643.239
v -613.0225 0.03 643.1487
v -613.0225 0.03 643.1487
v -613.2422 0.03 648.1673
v -613.2422 0.03 648.1673
v -616.2396 0.03 648.0399
v -616.2396 0.03 648.0399
v -611.2441 -0.35 648.2523
v -611.2441 -0.35 648.2523
v -613.2422 0.03 648.1673
v -613.2422 0.03 648.1673
v -613.4486 0.03 653.1475
v -613.4486 0.03 653.1475
v -616.4462 0.03 653.0264
v -616.4462 0.03 653.0264
v -611.4502 -0.35 653.2282
v -611.4502 -0.35 653.2282
v -613.4486 0.03 653.1475
v -613.4486 0.03 653.1475
v -613.6475 0.03 658.1856
v -613.6475 0.03 658.1856
v -616.6452 0.03 658.0698
v -616.6452 0.03 658.0698
v -611.6489 -0.35 658.2628
v -611.6489 -0.35 658.2628
v -613.6475 0.03 658.1856
v -613.6475 0.03 658.1856
v -613.8368 0.03 663.1732
v -613.8368 0.03 663.1732
v -616.8347 0.03 663.0612
v -616.8347 0.03 663.0612
v -611.8382 -0.35 663.2479
v -611.8382 -0.35 663.2479
v -613.8368 0.03 663.1732
v -613.8368 0.03 663.1732
v -614.0218 0.03 668.1889
v -614.0218 0.03 668.1889
v -617.0198 0.03 668.0794
v -617.0198 0.03 668.0794
v -612.0231 -0.35 668.2618
v -612.0231 -0.35 668.2618
v -614.0218 0.03 668.1889
v -614.0218 0.03 668.1889
v -614.2048 0.03 673.2264
v -614.2048 0.03 673.2264
v -617.2029 0.03 673.1177
v -617.2029 0.03 673.1177
v -612.2061 -0.35 673.2988
v -612.2061 -0.35 673.2988
v -614.2048 0.03 673.2264
v -614.2048 0.03 673.2264
v -614.3878 0.03 678.2535
v -614.3878 0.03 678.2535
v -617.3857 0.03 678.1434
v -617.3857 0.03 678.1434
v -612.3891 -0.35 678.327
v -612.3891 -0.35 678.327
v -614.3878 0.03 678.2535
v -614.3878 0.03 678.2535
v -614.5771 0.03 683.3021
v -614.5771 0.03 683.3021
v -617.5749 0.03 683.1868
v -617.5749 0.03 683.1868
v -612.5786 -0.35 683.379
v -612.5786 -0.35 683.379
v -614.5771 0.03 683.3021
v -614.5771 0.03 683.3021
v -614.78 0.03 688.3508
v -614.78 0.03 688.3508
v -617.7773 0.03 688.2234
v -617.7773 0.03 688.2234
v -612.7819 -0.35 688.4357
v -612.7819 -0.35 688.4357
v -614.78 0.03 688.3508
v -614.78 0.03 688.3508
v -615.0186 0.03 693.4472
v -615.0186 0.03 693.4472
v -618.0143 0.03 693.2889
v -618.0143 0.03 693.2889
v -613.0213 -0.35 693.5528
v -613.0213 -0.35 693.5528
v -615.0186 0.03 693.4472
v -615.0186 0.03 693.4472

vn 0 1 0
vn 0 0 0
vn 0 1 0
vn 0 0 0
vn 0.183523 0.9824039 0.03466569
vn 0 0 0
vn 0.1834823 0.9824113 0.03467385
vn 0 0 0
vn 0 1 0
vn 0 0 0
vn 0 1 0
vn 0 0 0
vn 0.1838758 0.9824193 0.03228119
vn 0 0 0
vn 0.1842825 0.982425 0.02968571
vn 0 0 0
vn 0 0.9999999 0
vn 0 0 0
vn 0 1 0
vn 0 0 0
vn 0.1849891 0.9824225 0.02500041
vn 0 0 0
vn 0.1852202 0.9824247 0.02312893
vn 0 0 0
vn 0 0.9999999 0
vn 0 0 0
vn 0 1 0
vn 0 0 0
vn 0.1855756 0.9824244 0.02010049
vn 0 0 0
vn 0.1856948 0.9824251 0.01893424
vn 0 0 0
vn -1.105741E-11 1 1.251171E-10
vn 0 0 0
vn -2.068172E-11 1 2.497997E-10
vn 0 0 0
vn 0.185887 0.9824246 0.01696913
vn 0 0 0
vn 0.1859588 0.9824247 0.01615945
vn 0 0 0
vn -1.103437E-11 1 1.248564E-10
vn 0 0 0
vn 8.550593E-12 1 -1.244569E-10
vn 0 0 0
vn 0.1860766 0.9824246 0.01474554
vn 0 0 0
vn 0.1861227 0.9824246 0.01414635
vn 0 0 0
vn 2.664014E-11 0.9999999 -3.723846E-10
vn 0 0 0
vn 2.468326E-11 1 -3.714151E-10
vn 0 0 0
vn 0.1862012 0.9824245 0.01308153
vn 0 0 0
vn 0.1862342 0.9824243 0.01261432
vn 0 0 0
vn 8.490854E-12 1 -1.235874E-10
vn 0 0 0
vn -6.969428E-12 1 1.23336E-10
vn 0 0 0
vn 0.1862901 0.9824243 0.01177085
vn 0 0 0
vn 0.1863132 0.9824243 0.01139472
vn 0 0 0
vn -7.650281E-12 1 1.234564E-10
vn 0 0 0
vn 6.429485E-12 1 -1.236184E-10
vn 0 0 0
vn 0.1863529 0.9824244 0.01071439
vn 0 0 0
vn 0.1863692 0.9824246 0.01040833
vn 0 0 0
vn 1.345003E-11 0.9999999 -2.478861E-10
vn 0 0 0
vn 6.442699E-12 1 -1.238724E-10
vn 0 0 0
vn 0.1863994 0.9824247 0.009848293
vn 0 0 0
vn 0.1864125 0.9824246 0.009595739
vn 0 0 0
vn -5.976815E-12 1 1.237561E-10
vn 0 0 0
vn -1.153468E-11 1 2.468743E-10
vn 0 0 0
vn 0.1864363 0.9824246 0.00912809
vn 0 0 0
vn 0.1864483 0.9824243 0.008913464
vn 0 0 0
vn -1.152309E-11 1 2.466262E-10
vn 0 0 0
vn -5.566859E-12 1 1.232945E-10
vn 0 0 0
vn 0.1864681 0.9824241 0.008522291
vn 0 0 0
vn 0.1864771 0.9824238 0.008344407
vn 0 0 0
vn 0 1 0
vn 0 0 0
vn 0 1 0
vn 0 0 0
vn 0.1864908 0.9824239 0.008020484
vn 0 0 0
vn 0.1864946 0.9824244 0.00787421
vn 0 0 0
vn 0 1 0
vn 0 0 0
vn 0 1 0
vn 0 0 0
vn 0.1865039 0.9824247 0.007604191
vn 0 0 0
vn 0.1865073 0.982425 0.007482921
vn 0 0 0
vn 0 0.9999999 0
vn 0 0 0
vn 0 1 0
vn 0 0 0
vn 0.1865163 0.982425 0.007269195
vn 0 0 0
vn 0.1865214 0.9824247 0.007175359
vn 0 0 0
vn 0 1 0
vn 0 0 0
vn 0 1 0
vn 0 0 0
vn 0.1865287 0.9824245 0.007013978
vn 0 0 0
vn 0.1865323 0.9824242 0.006946734
vn 0 0 0
vn 0 1 0
vn 0 0 0
vn 0 1 0
vn 0 0 0
vn 0.1865361 0.9824243 0.006845521
vn 0 0 0
vn 0.1865361 0.9824246 0.006811471
vn 0 0 0
vn -4.463303E-12 1 1.231671E-10
vn 0 0 0
vn -8.996377E-12 1 2.465258E-10
vn 0 0 0
vn 0.186536 0.9824247 0.006780972
vn 0 0 0
vn 0.1865353 0.9824249 0.006784607
vn 0 0 0
vn -4.463725E-12 0.9999999 1.231788E-10
vn 0 0 0
vn 4.734416E-12 1 -1.230347E-10
vn 0 0 0
vn 0.1865334 0.9824247 0.006857146
vn 0 0 0
vn 0.1865314 0.9824246 0.006926075
vn 0 0 0
vn 4.514398E-12 1 -1.228491E-10
vn 0 0 0
vn -5.223637E-12 1 1.229144E-10
vn 0 0 0
vn 0.1865223 0.9824246 0.007163071
vn 0 0 0
vn 0.1865169 0.9824245 0.007330471
vn 0 0 0
vn -4.713428E-12 1 1.224893E-10
vn 0 0 0
vn 6.461406E-12 1 -1.222611E-10
vn 0 0 0
vn 0.1864941 0.9824243 0.007910511
vn 0 0 0
vn 0.1864763 0.9824242 0.008319491
vn 0 0 0
vn 1.743746E-11 1 -3.65777E-10
vn 0 0 0
vn 1.938541E-11 1 -3.668057E-10
vn 0 0 0
vn 0.1864583 0.9824242 0.008725783
vn 0 0 0
vn 0.186456 0.9824245 0.008726588
vn 0 0 0

vt 0 0
vt 0 0
vt 0.593042 -0.09108887
vt 0.593042 -0.09108887
vt -0.3953613 0.06071777
vt -0.3953613 0.06071777
vt 0 0
vt 0 0
vt 0.1914429 1.012586
vt 0.1914429 1.012586
vt 0.7830445 0.9125733
vt 0.7830445 0.9125733
vt -0.2029663 1.079273
vt -0.2029663 1.079273
vt 0.1914429 1.012586
vt 0.1914429 1.012586
vt 0.326648 1.940503
vt 0.326648 1.940503
vt 0.9218262 1.864648
vt 0.9218262 1.864648
vt -0.07014161 1.991077
vt -0.07014161 1.991077
vt 0.326648 1.940503
vt 0.326648 1.940503
vt 0.4368652 2.900855
vt 0.4368652 2.900855
vt 1.033643 2.838818
vt 1.033643 2.838818
vt 0.03900146 2.942224
vt 0.03900146 2.942224
vt 0.4368652 2.900855
vt 0.4368652 2.900855
vt 0.5307373 3.881995
vt 0.5307373 3.881995
vt 1.128406 3.829175
vt 1.128406 3.829175
vt 0.1322876 3.9172
vt 0.1322876 3.9172
vt 0.5307373 3.881995
vt 0.5307373 3.881995
vt 0.6117676 4.864124
vt 0.6117676 4.864124
vt 1.209985 4.817932
vt 1.209985 4.817932
vt 0.2129517 4.894922
vt 0.2129517 4.894922
vt 0.6117676 4.864124
vt 0.6117676 4.864124
vt 0.68396 5.85603
vt 0.68396 5.85603
vt 1.282556 5.814905
vt 1.282556 5.814905
vt 0.2848999 5.883447
vt 0.2848999 5.883447
vt 0.68396 5.85603
vt 0.68396 5.85603
vt 0.7489991 6.853284
vt 0.7489991 6.853284
vt 1.347852 6.816175
vt 1.347852 6.816175
vt 0.3497681 6.878027
vt 0.3497681 6.878027
vt 0.7489991 6.853284
vt 0.7489991 6.853284
vt 0.8083008 7.856006
vt 0.8083008 7.856006
vt 1.407336 7.822156
vt 1.407336 7.822156
vt 0.4089355 7.878564
vt 0.4089355 7.878564
vt 0.8083008 7.856006
vt 0.8083008 7.856006
vt 0.8623902 8.85409
vt 0.8623902 8.85409
vt 1.461584 8.822925
vt 1.461584 8.822925
vt 0.4629273 8.874878
vt 0.4629273 8.874878
vt 0.8623902 8.85409
vt 0.8623902 8.85409
vt 0.9124146 9.852271
vt 0.9124146 9.852271
vt 1.511707 9.823328
vt 1.511707 9.823328
vt 0.5128784 9.87157
vt 0.5128784 9.87157
vt 0.9124146 9.852271
vt 0.9124146 9.852271
vt 0.9592773 10.85675
vt 0.9592773 10.85675
vt 1.558667 10.82969
vt 1.558667 10.82969
vt 0.5596924 10.87479
vt 0.5596924 10.87479
vt 0.9592773 10.85675
vt 0.9592773 10.85675
vt 1.003235 11.86046
vt 1.003235 11.86046
vt 1.602698 11.83497
vt 1.602698 11.83497
vt 0.6036011 11.87747
vt 0.6036011 11.87747
vt 1.003235 11.86046
vt 1.003235 11.86046
vt 1.044507 12.85651
vt 1.044507 12.85651
vt 1.644019 12.83229
vt 1.644019 12.83229
vt 0.6448242 12.87264
vt 0.6448242 12.87264
vt 1.044507 12.85651
vt 1.044507 12.85651
vt 1.084277 13.86412
vt 1.084277 13.86412
vt 1.683826 13.84095
vt 1.683826 13.84095
vt 0.6845703 13.87957
vt 0.6845703 13.87957
vt 1.084277 13.86412
vt 1.084277 13.86412
vt 1.122144 14.86165
vt 1.122144 14.86165
vt 1.721729 14.83925
vt 1.721729 14.83925
vt 0.7224243 14.87657
vt 0.7224243 14.87657
vt 1.122144 14.86165
vt 1.122144 14.86165
vt 1.159143 15.86478
vt 1.159143 15.86478
vt 1.758752 15.84288
vt 1.758752 15.84288
vt 0.7594116 15.87937
vt 0.7594116 15.87937
vt 1.159143 15.86478
vt 1.159143 15.86478
vt 1.195752 16.87228
vt 1.195752 16.87228
vt 1.795361 16.85055
vt 1.795361 16.85055
vt 0.7960083 16.88677
vt 0.7960083 16.88677
vt 1.195752 16.87228
vt 1.195752 16.87228
vt 1.232336 17.87771
vt 1.232336 17.87771
vt 1.831934 17.85568
vt 1.831934 17.85568
vt 0.832605 17.8924
vt 0.832605 17.8924
vt 1.232336 17.87771
vt 1.232336 17.87771
vt 1.270203 18.88743
vt 1.270203 18.88743
vt 1.869763 18.86436
vt 1.869763 18.86436
vt 0.8704956 18.9028
vt 0.8704956 18.9028
vt 1.270203 18.88743
vt 1.270203 18.88743
vt 1.310791 19.89716
vt 1.310791 19.89716
vt 1.910254 19.87168
vt 1.910254 19.87168
vt 0.9111573 19.91415
vt 0.9111573 19.91415
vt 1.310791 19.89716
vt 1.310791 19.89716
vt 1.358496 20.91644
vt 1.358496 20.91644
vt 1.957654 20.88478
vt 1.957654 20.88478
vt 0.9590454 20.93756
vt 0.9590454 20.93756
vt 1.358496 20.91644
vt 1.358496 20.91644

usemtl GSDShoulder1
usemap GSDShoulder1
f 9/9/9 1/1/1 3/3/3
f 11/11/11 9/9/9 3/3/3
f 13/13/13 5/5/5 7/7/7
f 15/15/15 13/13/13 7/7/7
f 17/17/17 9/9/9 11/11/11
f 19/19/19 17/17/17 11/11/11
f 21/21/21 13/13/13 15/15/15
f 23/23/23 21/21/21 15/15/15
f 25/25/25 17/17/17 19/19/19
f 27/27/27 25/25/25 19/19/19
f 29/29/29 21/21/21 23/23/23
f 31/31/31 29/29/29 23/23/23
f 33/33/33 25/25/25 27/27/27
f 35/35/35 33/33/33 27/27/27
f 37/37/37 29/29/29 31/31/31
f 39/39/39 37/37/37 31/31/31
f 41/41/41 33/33/33 35/35/35
f 43/43/43 41/41/41 35/35/35
f 45/45/45 37/37/37 39/39/39
f 47/47/47 45/45/45 39/39/39
f 49/49/49 41/41/41 43/43/43
f 51/51/51 49/49/49 43/43/43
f 53/53/53 45/45/45 47/47/47
f 55/55/55 53/53/53 47/47/47
f 57/57/57 49/49/49 51/51/51
f 59/59/59 57/57/57 51/51/51
f 61/61/61 53/53/53 55/55/55
f 63/63/63 61/61/61 55/55/55
f 65/65/65 57/57/57 59/59/59
f 67/67/67 65/65/65 59/59/59
f 69/69/69 61/61/61 63/63/63
f 71/71/71 69/69/69 63/63/63
f 73/73/73 65/65/65 67/67/67
f 75/75/75 73/73/73 67/67/67
f 77/77/77 69/69/69 71/71/71
f 79/79/79 77/77/77 71/71/71
f 81/81/81 73/73/73 75/75/75
f 83/83/83 81/81/81 75/75/75
f 85/85/85 77/77/77 79/79/79
f 87/87/87 85/85/85 79/79/79
f 89/89/89 81/81/81 83/83/83
f 91/91/91 89/89/89 83/83/83
f 93/93/93 85/85/85 87/87/87
f 95/95/95 93/93/93 87/87/87
f 97/97/97 89/89/89 91/91/91
f 99/99/99 97/97/97 91/91/91
f 101/101/101 93/93/93 95/95/95
f 103/103/103 101/101/101 95/95/95
f 105/105/105 97/97/97 99/99/99
f 107/107/107 105/105/105 99/99/99
f 109/109/109 101/101/101 103/103/103
f 111/111/111 109/109/109 103/103/103
f 113/113/113 105/105/105 107/107/107
f 115/115/115 113/113/113 107/107/107
f 117/117/117 109/109/109 111/111/111
f 119/119/119 117/117/117 111/111/111
f 121/121/121 113/113/113 115/115/115
f 123/123/123 121/121/121 115/115/115
f 125/125/125 117/117/117 119/119/119
f 127/127/127 125/125/125 119/119/119
f 129/129/129 121/121/121 123/123/123
f 131/131/131 129/129/129 123/123/123
f 133/133/133 125/125/125 127/127/127
f 135/135/135 133/133/133 127/127/127
f 137/137/137 129/129/129 131/131/131
f 139/139/139 137/137/137 131/131/131
f 141/141/141 133/133/133 135/135/135
f 143/143/143 141/141/141 135/135/135
f 145/145/145 137/137/137 139/139/139
f 147/147/147 145/145/145 139/139/139
f 149/149/149 141/141/141 143/143/143
f 151/151/151 149/149/149 143/143/143
f 153/153/153 145/145/145 147/147/147
f 155/155/155 153/153/153 147/147/147
f 157/157/157 149/149/149 151/151/151
f 159/159/159 157/157/157 151/151/151
f 161/161/161 153/153/153 155/155/155
f 163/163/163 161/161/161 155/155/155
f 165/165/165 157/157/157 159/159/159
f 167/167/167 165/165/165 159/159/159
f 169/169/169 161/161/161 163/163/163
f 171/171/171 169/169/169 163/163/163
f 173/173/173 165/165/165 167/167/167
f 175/175/175 173/173/173 167/167/167
