mtllib ./Road8_2_40.mtl
g Markers12
v -459.2399 8.333725 51.15726
v -459.2399 8.333725 51.15726
v -458.2464 8.333725 41.20917
v -458.2464 8.333725 41.20917
v -464.1527 8.220712 50.70922
v -464.1527 8.220712 50.70922
v -463.3247 8.220712 40.74622
v -463.3247 8.220712 40.74622
v -469.1128 8.102413 50.32921
v -469.1128 8.102413 50.32921
v -468.4071 8.102413 40.35699
v -468.4071 8.102413 40.35699
v -474.1033 7.980337 50.00005
v -474.1033 7.980337 50.00005
v -473.4893 7.980337 40.02192
v -473.4893 7.980337 40.02192
v -479.117 7.855356 49.71032
v -479.117 7.855356 49.71032
v -478.5751 7.855356 39.72812
v -478.5751 7.855356 39.72812
v -484.13 7.728546 49.45343
v -484.13 7.728546 49.45343
v -483.647 7.728546 39.4683
v -483.647 7.728546 39.4683
v -489.1432 7.600238 49.22363
v -489.1432 7.600238 49.22363
v -488.7094 7.600238 39.23631
v -488.7094 7.600238 39.23631
v -494.1766 7.470159 49.01599
v -494.1766 7.470159 49.01599
v -493.7853 7.470159 39.02699
v -493.7853 7.470159 39.02699
v -499.1939 7.33944 48.82895
v -499.1939 7.33944 48.82895
v -498.8397 7.33944 38.83862
v -498.8397 7.33944 38.83862
v -504.2375 7.207137 48.65854
v -504.2375 7.207137 48.65854
v -503.9161 7.207137 38.66714
v -503.9161 7.207137 38.66714
v -509.2841 7.073969 48.50379
v -509.2841 7.073969 48.50379
v -508.9923 7.073969 38.51152
v -508.9923 7.073969 38.51152
v -514.313 6.940587 48.36373
v -514.313 6.940587 48.36373
v -514.0479 6.940587 38.37075
v -514.0479 6.940587 38.37075
v -519.3047 6.807604 48.23741
v -519.3047 6.807604 48.23741
v -519.0639 6.807604 38.24385
v -519.0639 6.807604 38.24385
v -524.3245 6.673351 48.12212
v -524.3245 6.673351 48.12212
v -524.1061 6.673351 38.12807
v -524.1061 6.673351 38.12807
v -529.3613 6.538177 48.0174
v -529.3613 6.538177 48.0174
v -529.1639 6.538177 38.02294
v -529.1639 6.538177 38.02294
v -534.4045 6.402417 47.92279
v -534.4045 6.402417 47.92279
v -534.2267 6.402417 37.92799
v -534.2267 6.402417 37.92799
v -539.4439 6.266385 47.83788
v -539.4439 6.266385 47.83788
v -539.2847 6.266385 37.84278
v -539.2847 6.266385 37.84278
v -544.4702 6.130384 47.76222
v -544.4702 6.130384 47.76222
v -544.3283 6.130384 37.76688
v -544.3283 6.130384 37.76688
v -549.4747 5.99468 47.6954
v -549.4747 5.99468 47.6954
v -549.3494 5.99468 37.69985
v -549.3494 5.99468 37.69985
v -554.5402 5.857057 47.63599
v -554.5402 5.857057 47.63599
v -554.431 5.857057 37.64027
v -554.431 5.857057 37.64027
v -559.5699 5.720177 47.58487
v -559.5699 5.720177 47.58487
v -559.476 5.720177 37.589
v -559.476 5.720177 37.589
v -564.6497 5.581729 47.54086
v -564.6497 5.581729 47.54086
v -564.5704 5.581729 37.54488
v -564.5704 5.581729 37.54488
v -569.6807 5.444425 47.5046
v -569.6807 5.444425 47.5046
v -569.6157 5.444425 37.50853
v -569.6157 5.444425 37.50853
v -574.7512 5.305883 47.47518
v -574.7512 5.305883 47.47518
v -574.7002 5.305883 37.47903
v -574.7002 5.305883 37.47903
v -579.7622 5.168835 47.45294
v -579.7622 5.168835 47.45294
v -579.7245 5.168835 37.45674
v -579.7245 5.168835 37.45674
v -584.8029 5.03086 47.43726
v -584.8029 5.03086 47.43726
v -584.7783 5.03086 37.44103
v -584.7783 5.03086 37.44103
v -589.869 4.892085 47.42815
v -589.869 4.892085 47.42815
v -589.8575 4.892085 37.43189
v -589.8575 4.892085 37.43189
v -594.8608 4.755268 47.42556
v -594.8608 4.755268 47.42556
v -594.8619 4.755268 37.4293
v -594.8619 4.755268 37.4293
v -599.8699 4.617922 47.42924
v -599.8699 4.617922 47.42924
v -599.8834 4.617922 37.433
v -599.8834 4.617922 37.433
v -604.8922 4.480165 47.43921
v -604.8922 4.480165 47.43921
v -604.9182 4.480165 37.44299
v -604.9182 4.480165 37.44299
v -609.9242 4.342114 47.45541
v -609.9242 4.342114 47.45541
v -609.9625 4.342114 37.45924
v -609.9625 4.342114 37.45924
v -614.9617 4.203899 47.47787
v -614.9617 4.203899 47.47787
v -615.0125 4.203899 37.48175
v -615.0125 4.203899 37.48175
v -620.0012 4.065634 47.50655
v -620.0012 4.065634 47.50655
v -620.0643 4.065634 37.5105
v -620.0643 4.065634 37.5105
v -625.0385 3.927448 47.54144
v -625.0385 3.927448 47.54144
v -625.114 3.927448 37.54548
v -625.114 3.927448 37.54548
v -630.0706 3.789443 47.58254
v -630.0706 3.789443 47.58254
v -630.1584 3.789443 37.58667
v -630.1584 3.789443 37.58667
v -635.093 3.651754 47.62981
v -635.093 3.651754 47.62981
v -635.1934 3.651754 37.63406
v -635.1934 3.651754 37.63406
v -640.1022 3.514497 47.68327
v -640.1022 3.514497 47.68327
v -640.2152 3.514497 37.68765
v -640.2152 3.514497 37.68765
v -645.0943 3.377792 47.74287
v -645.0943 3.377792 47.74287
v -645.22 3.377792 37.7474
v -645.22 3.377792 37.7474
v -650.1609 3.23915 47.80996
v -650.1609 3.23915 47.80996
v -650.2999 3.23915 37.81465
v -650.2999 3.23915 37.81465
v -655.2016 3.101343 47.88339
v -655.2016 3.101343 47.88339
v -655.3539 3.101343 37.88828
v -655.3539 3.101343 37.88828
v -660.2129 2.964481 47.96319
v -660.2129 2.964481 47.96319
v -660.3789 2.964481 37.96828
v -660.3789 2.964481 37.96828
v -665.2839 2.826152 48.05101
v -665.2839 2.826152 48.05101
v -665.4641 2.826152 38.05634
v -665.4641 2.826152 38.05634
v -670.3156 2.689078 48.14539
v -670.3156 2.689078 48.14539
v -670.5104 2.689078 38.15098
v -670.5104 2.689078 38.15098
v -675.3956 2.550904 48.24825
v -675.3956 2.550904 48.24825
v -675.6055 2.550904 38.25414
v -675.6055 2.550904 38.25414
v -680.426 2.41431 48.35788
v -680.426 2.41431 48.35788
v -680.6517 2.41431 38.36409
v -680.6517 2.41431 38.36409
v -685.4918 2.277015 48.47645
v -685.4918 2.277015 48.47645
v -685.734 2.277015 38.48303
v -685.734 2.277015 38.48303
v -690.4969 2.14166 48.60199
v -690.4969 2.14166 48.60199
v -690.7562 2.14166 38.60899
v -690.7562 2.14166 38.60899
v -695.5241 2.006035 48.73693
v -695.5241 2.006035 48.73693
v -695.8015 2.006035 38.7444
v -695.8015 2.006035 38.7444
v -700.564 1.870426 48.88163
v -700.564 1.870426 48.88163
v -700.8605 1.870426 38.88961
v -700.8605 1.870426 38.88961
v -705.6078 1.73512 49.03643
v -705.6078 1.73512 49.03643
v -705.9249 1.73512 39.04502
v -705.9249 1.73512 39.04502
v -710.6456 1.600436 49.20172
v -710.6456 1.600436 49.20172
v -710.9844 1.600436 39.21101
v -710.9844 1.600436 39.21101
v -715.6663 1.466707 49.37786
v -715.6663 1.466707 49.37786
v -716.0286 1.466707 39.38794
v -716.0286 1.466707 39.38794
v -720.6587 1.3343 49.56521
v -720.6587 1.3343 49.56521
v -721.0464 1.3343 39.57621
v -721.0464 1.3343 39.57621
v -725.6884 1.201543 49.76738
v -725.6884 1.201543 49.76738
v -726.1041 1.201543 39.77946
v -726.1041 1.201543 39.77946
v -730.7362 1.069049 49.98517
v -730.7362 1.069049 49.98517
v -731.1829 1.069049 39.99855
v -731.1829 1.069049 39.99855
v -735.7808 0.9374809 50.21938
v -735.7808 0.9374809 50.21938
v -736.262 0.9374809 40.23431
v -736.262 0.9374809 40.23431
v -740.7993 0.8075614 50.47084
v -740.7993 0.8075614 50.47084
v -741.3193 0.8075614 40.48767
v -741.3193 0.8075614 40.48767
v -745.8337 0.6783581 50.74419
v -745.8337 0.6783581 50.74419
v -746.3986 0.6783581 40.76338
v -746.3986 0.6783581 40.76338
v -750.8479 0.5510077 51.04073
v -750.8479 0.5510077 51.04073
v -751.4647 0.5510077 41.06292
v -751.4647 0.5510077 41.06292
v -755.862 0.4252591 51.36594
v -755.862 0.4252591 51.36594
v -756.541 0.4252591 41.39206
v -756.541 0.4252591 41.39206
v -760.8196 0.3028612 51.7216
v -760.8196 0.3028612 51.7216
v -761.5739 0.3028612 41.75301
v -761.5739 0.3028612 41.75301
v -765.7626 0.1832438 52.11846
v -765.7626 0.1832438 52.11846
v -766.6123 0.1832438 42.15741
v -766.6123 0.1832438 42.15741
v -770.6855 0.06726646 52.56857
v -770.6855 0.06726646 52.56857
v -771.6627 0.06726646 42.61901
v -771.6627 0.06726646 42.61901

vn -0.02279019 0.9997377 -0.002275948
vn 0 0 0
vn -0.02242998 0.9997463 -0.002051901
vn 0 0 0
vn -0.0228485 0.9997368 -0.002024431
vn 0 0 0
vn -0.0229668 0.9997346 -0.001812698
vn 0 0 0
vn -0.02372218 0.999717 -0.001775122
vn 0 0 0
vn -0.02379712 0.9997154 -0.001609913
vn 0 0 0
vn -0.02436103 0.999702 -0.001573357
vn 0 0 0
vn -0.02441088 0.999701 -0.001442658
vn 0 0 0
vn -0.02484478 0.9996903 -0.001408417
vn 0 0 0
vn -0.02487859 0.9996896 -0.001301256
vn 0 0 0
vn -0.02522562 0.9996809 -0.00126977
vn 0 0 0
vn -0.02524859 0.9996805 -0.001179588
vn 0 0 0
vn -0.02553433 0.9996732 -0.001150791
vn 0 0 0
vn -0.02555026 0.9996729 -0.001073111
vn 0 0 0
vn -0.0257898 0.9996669 -0.001046657
vn 0 0 0
vn -0.0258003 0.9996666 -0.0009785701
vn 0 0 0
vn -0.02600585 0.9996613 -0.0009541503
vn 0 0 0
vn -0.02601206 0.9996613 -0.0008936652
vn 0 0 0
vn -0.02618943 0.9996566 -0.0008710346
vn 0 0 0
vn -0.02619275 0.9996566 -0.0008165353
vn 0 0 0
vn -0.02634824 0.9996526 -0.0007954353
vn 0 0 0
vn -0.02634879 0.9996525 -0.0007460024
vn 0 0 0
vn -0.02648599 0.9996489 -0.00072634
vn 0 0 0
vn -0.02648416 0.999649 -0.0006812341
vn 0 0 0
vn -0.02660676 0.9996457 -0.0006627259
vn 0 0 0
vn -0.02660317 0.9996459 -0.0006211328
vn 0 0 0
vn -0.02671281 0.9996429 -0.0006036881
vn 0 0 0
vn -0.02670789 0.9996431 -0.000564851
vn 0 0 0
vn -0.02680686 0.9996404 -0.0005481804
vn 0 0 0
vn -0.0268005 0.9996406 -0.0005117043
vn 0 0 0
vn -0.02689054 0.9996383 -0.0004958052
vn 0 0 0
vn -0.02688316 0.9996384 -0.0004614034
vn 0 0 0
vn -0.02696485 0.9996363 -0.0004461276
vn 0 0 0
vn -0.02695609 0.9996365 -0.0004137118
vn 0 0 0
vn -0.02703057 0.9996345 -0.000399236
vn 0 0 0
vn -0.02702079 0.9996348 -0.0003685055
vn 0 0 0
vn -0.02708956 0.999633 -0.0003543618
vn 0 0 0
vn -0.02707909 0.9996333 -0.0003247908
vn 0 0 0
vn -0.02714163 0.9996315 -0.0003111589
vn 0 0 0
vn -0.02712985 0.9996319 -0.0002827472
vn 0 0 0
vn -0.02718782 0.9996303 -0.0002694382
vn 0 0 0
vn -0.0271755 0.9996307 -0.0002421024
vn 0 0 0
vn -0.02722865 0.9996291 -0.0002292514
vn 0 0 0
vn -0.0272154 0.9996296 -0.0002027705
vn 0 0 0
vn -0.0272648 0.9996282 -0.0001900779
vn 0 0 0
vn -0.02725053 0.9996287 -0.0001643545
vn 0 0 0
vn -0.02729553 0.9996275 -0.0001520426
vn 0 0 0
vn -0.02728058 0.9996278 -0.0001271932
vn 0 0 0
vn -0.02732249 0.9996268 -0.0001151945
vn 0 0 0
vn -0.02730646 0.9996272 -9.100687E-05
vn 0 0 0
vn -0.02734491 0.999626 -7.911738E-05
vn 0 0 0
vn -0.02732817 0.9996264 -5.515237E-05
vn 0 0 0
vn -0.02736368 0.9996256 -4.338502E-05
vn 0 0 0
vn -0.02734605 0.999626 -1.997946E-05
vn 0 0 0
vn -0.02737886 0.9996252 -8.455145E-06
vn 0 0 0
vn -0.02736007 0.9996256 1.438138E-05
vn 0 0 0
vn -0.02738985 0.9996248 2.576585E-05
vn 0 0 0
vn -0.02737026 0.9996254 4.847545E-05
vn 0 0 0
vn -0.02739772 0.9996247 5.989629E-05
vn 0 0 0
vn -0.02737717 0.9996251 8.247382E-05
vn 0 0 0
vn -0.02740249 0.9996246 9.381265E-05
vn 0 0 0
vn -0.02738081 0.9996251 0.0001163643
vn 0 0 0
vn -0.02740355 0.9996244 0.0001278359
vn 0 0 0
vn -0.02738067 0.9996251 0.0001503552
vn 0 0 0
vn -0.02740127 0.9996245 0.0001617307
vn 0 0 0
vn -0.02737743 0.9996251 0.0001841024
vn 0 0 0
vn -0.02739584 0.9996247 0.0001954873
vn 0 0 0
vn -0.02737073 0.9996253 0.0002179269
vn 0 0 0
vn -0.02738689 0.9996248 0.0002294239
vn 0 0 0
vn -0.02736048 0.9996256 0.0002519251
vn 0 0 0
vn -0.02737469 0.9996252 0.0002634201
vn 0 0 0
vn -0.02734682 0.999626 0.0002860861
vn 0 0 0
vn -0.02735881 0.9996256 0.000297792
vn 0 0 0
vn -0.02732955 0.9996265 0.000320617
vn 0 0 0
vn -0.02733979 0.9996262 0.0003323834
vn 0 0 0
vn -0.02730897 0.999627 0.0003555824
vn 0 0 0
vn -0.02731658 0.9996268 0.000367613
vn 0 0 0
vn -0.02728365 0.9996276 0.000391387
vn 0 0 0
vn -0.02728911 0.9996275 0.0004036848
vn 0 0 0
vn -0.02725441 0.9996284 0.0004278078
vn 0 0 0
vn -0.02725788 0.9996283 0.0004403665
vn 0 0 0
vn -0.02722123 0.9996294 0.0004650494
vn 0 0 0
vn -0.02722246 0.9996292 0.0004778453
vn 0 0 0
vn -0.02718334 0.9996304 0.0005032831
vn 0 0 0
vn -0.02718157 0.9996303 0.0005166099
vn 0 0 0
vn -0.02713968 0.9996316 0.0005427852
vn 0 0 0
vn -0.02713576 0.9996316 0.0005563227
vn 0 0 0
vn -0.02709146 0.9996328 0.00058333
vn 0 0 0
vn -0.02708489 0.999633 0.0005974995
vn 0 0 0
vn -0.02703738 0.9996343 0.0006255289
vn 0 0 0
vn -0.02702782 0.9996344 0.0006400764
vn 0 0 0
vn -0.02697659 0.9996359 0.0006690835
vn 0 0 0
vn -0.02696355 0.9996362 0.0006842233
vn 0 0 0
vn -0.02690863 0.9996377 0.0007144061
vn 0 0 0
vn -0.02689258 0.9996381 0.0007301868
vn 0 0 0
vn -0.02683345 0.9996396 0.0007619323
vn 0 0 0
vn -0.0268134 0.9996402 0.000778507
vn 0 0 0
vn -0.02674877 0.9996418 0.0008120612
vn 0 0 0
vn -0.02672387 0.9996426 0.0008295905
vn 0 0 0
vn -0.02665341 0.9996443 0.0008651038
vn 0 0 0
vn -0.02662418 0.9996451 0.0008835684
vn 0 0 0
vn -0.02654775 0.9996471 0.000921187
vn 0 0 0
vn -0.02651312 0.9996481 0.000940724
vn 0 0 0
vn -0.02642847 0.9996502 0.000980828
vn 0 0 0
vn -0.02638681 0.9996513 0.001001762
vn 0 0 0
vn -0.0262931 0.9996537 0.001045079
vn 0 0 0
vn -0.02624373 0.999655 0.0010676
vn 0 0 0
vn -0.02613857 0.9996578 0.00111484
vn 0 0 0
vn -0.02607956 0.9996592 0.001139315
vn 0 0 0
vn -0.0259613 0.9996622 0.001191055
vn 0 0 0
vn -0.02589082 0.9996641 0.001217685
vn 0 0 0
vn -0.02575596 0.9996675 0.001274549
vn 0 0 0
vn -0.02567105 0.9996696 0.001303778
vn 0 0 0
vn -0.02551584 0.9996735 0.001367315
vn 0 0 0
vn -0.02541329 0.9996761 0.001399834
vn 0 0 0
vn -0.02523145 0.9996806 0.001471616
vn 0 0 0
vn -0.02510453 0.9996837 0.001507996
vn 0 0 0
vn -0.02488778 0.999689 0.001590195
vn 0 0 0
vn -0.02472963 0.9996929 0.0016314
vn 0 0 0
vn -0.02446599 0.9996991 0.001726812
vn 0 0 0
vn -0.02426269 0.9997041 0.001773947
vn 0 0 0
vn -0.02393269 0.9997119 0.001887143
vn 0 0 0
vn -0.02366294 0.9997181 0.00194172
vn 0 0 0
vn -0.02323079 0.999728 0.002080551
vn 0 0 0
vn -0.02305799 0.9997319 0.002115695
vn 0 0 0
vn -0.02275393 0.9997385 0.002234726
vn 0 0 0

vt 0 184.8726
vt 0 0
vt 1 184.8726
vt 0 0
vt 0 185.8595
vt 0 185.8595
vt 1 185.8595
vt 1 185.8595
vt 0 186.8547
vt 0 186.8547
vt 1 186.8547
vt 1 186.8547
vt 0 187.8553
vt 0 187.8553
vt 1 187.8553
vt 1 187.8553
vt 0 188.86
vt 0 188.86
vt 1 188.86
vt 1 188.86
vt 0 189.8643
vt 0 189.8643
vt 1 189.8643
vt 1 189.8643
vt 0 190.8683
vt 0 190.8683
vt 1 190.8683
vt 1 190.8683
vt 0 191.8762
vt 0 191.8762
vt 1 191.8762
vt 1 191.8762
vt 0 192.8807
vt 0 192.8807
vt 1 192.8807
vt 1 192.8807
vt 0 193.8903
vt 0 193.8903
vt 1 193.8903
vt 1 193.8903
vt 0 194.9005
vt 0 194.9005
vt 1 194.9005
vt 1 194.9005
vt 0 195.907
vt 0 195.907
vt 1 195.907
vt 1 195.907
vt 0 196.906
vt 0 196.906
vt 1 196.906
vt 1 196.906
vt 0 197.9106
vt 0 197.9106
vt 1 197.9106
vt 1 197.9106
vt 0 198.9185
vt 0 198.9185
vt 1 198.9185
vt 1 198.9185
vt 0 199.9277
vt 0 199.9277
vt 1 199.9277
vt 1 199.9277
vt 0 200.9361
vt 0 200.9361
vt 1 200.9361
vt 1 200.9361
vt 0 201.9418
vt 0 201.9418
vt 1 201.9418
vt 1 201.9418
vt 0 202.9432
vt 0 202.9432
vt 1 202.9432
vt 1 202.9432
vt 0 203.9567
vt 0 203.9567
vt 1 203.9567
vt 1 203.9567
vt 0 204.9631
vt 0 204.9631
vt 1 204.9631
vt 1 204.9631
vt 0 205.9794
vt 0 205.9794
vt 1 205.9794
vt 1 205.9794
vt 0 206.986
vt 0 206.986
vt 1 206.986
vt 1 206.986
vt 0 208.0005
vt 0 208.0005
vt 1 208.0005
vt 1 208.0005
vt 0 209.0031
vt 0 209.0031
vt 1 209.0031
vt 1 209.0031
vt 0 210.0116
vt 0 210.0116
vt 1 210.0116
vt 1 210.0116
vt 0 211.0253
vt 0 211.0253
vt 1 211.0253
vt 1 211.0253
vt 0 212.024
vt 0 212.024
vt 1 212.024
vt 1 212.024
vt 0 213.0262
vt 0 213.0262
vt 1 213.0262
vt 1 213.0262
vt 0 214.031
vt 0 214.031
vt 1 214.031
vt 1 214.031
vt 0 215.0378
vt 0 215.0378
vt 1 215.0378
vt 1 215.0378
vt 0 216.0457
vt 0 216.0457
vt 1 216.0457
vt 1 216.0457
vt 0 217.054
vt 0 217.054
vt 1 217.054
vt 1 217.054
vt 0 218.0619
vt 0 218.0619
vt 1 218.0619
vt 1 218.0619
vt 0 219.0687
vt 0 219.0687
vt 1 219.0687
vt 1 219.0687
vt 0 220.0736
vt 0 220.0736
vt 1 220.0736
vt 1 220.0736
vt 0 221.0759
vt 0 221.0759
vt 1 221.0759
vt 1 221.0759
vt 0 222.0747
vt 0 222.0747
vt 1 222.0747
vt 1 222.0747
vt 0 223.0885
vt 0 223.0885
vt 1 223.0885
vt 1 223.0885
vt 0 224.0971
vt 0 224.0971
vt 1 224.0971
vt 1 224.0971
vt 0 225.0999
vt 0 225.0999
vt 1 225.0999
vt 1 225.0999
vt 0 226.1146
vt 0 226.1146
vt 1 226.1146
vt 1 226.1146
vt 0 227.1215
vt 0 227.1215
vt 1 227.1215
vt 1 227.1215
vt 0 228.1381
vt 0 228.1381
vt 1 228.1381
vt 1 228.1381
vt 0 229.1448
vt 0 229.1448
vt 1 229.1448
vt 1 229.1448
vt 0 230.1586
vt 0 230.1586
vt 1 230.1586
vt 1 230.1586
vt 0 231.1603
vt 0 231.1603
vt 1 231.1603
vt 1 231.1603
vt 0 232.1665
vt 0 232.1665
vt 1 232.1665
vt 1 232.1665
vt 0 233.1752
vt 0 233.1752
vt 1 233.1752
vt 1 233.1752
vt 0 234.1848
vt 0 234.1848
vt 1 234.1848
vt 1 234.1848
vt 0 235.1933
vt 0 235.1933
vt 1 235.1933
vt 1 235.1933
vt 0 236.1984
vt 0 236.1984
vt 1 236.1984
vt 1 236.1984
vt 0 237.1979
vt 0 237.1979
vt 1 237.1979
vt 1 237.1979
vt 0 238.205
vt 0 238.205
vt 1 238.205
vt 1 238.205
vt 0 239.2159
vt 0 239.2159
vt 1 239.2159
vt 1 239.2159
vt 0 240.2262
vt 0 240.2262
vt 1 240.2262
vt 1 240.2262
vt 0 241.2315
vt 0 241.2315
vt 1 241.2315
vt 1 241.2315
vt 0 242.2402
vt 0 242.2402
vt 1 242.2402
vt 1 242.2402
vt 0 243.2451
vt 0 243.2451
vt 1 243.2451
vt 1 243.2451
vt 0 244.2504
vt 0 244.2504
vt 1 244.2504
vt 1 244.2504
vt 0 245.2448
vt 0 245.2448
vt 1 245.2448
vt 1 245.2448
vt 0 246.2368
vt 0 246.2368
vt 1 246.2368
vt 1 246.2368
vt 0 247.2258
vt 0 247.2258
vt 1 247.2258
vt 1 247.2258

usemtl GSDWhiteYellowDouble
usemap GSDWhiteYellowDouble
f 5/5/5 1/1/1 3/3/3
f 7/7/7 5/5/5 3/3/3
f 9/9/9 5/5/5 7/7/7
f 11/11/11 9/9/9 7/7/7
f 13/13/13 9/9/9 11/11/11
f 15/15/15 13/13/13 11/11/11
f 17/17/17 13/13/13 15/15/15
f 19/19/19 17/17/17 15/15/15
f 21/21/21 17/17/17 19/19/19
f 23/23/23 21/21/21 19/19/19
f 25/25/25 21/21/21 23/23/23
f 27/27/27 25/25/25 23/23/23
f 29/29/29 25/25/25 27/27/27
f 31/31/31 29/29/29 27/27/27
f 33/33/33 29/29/29 31/31/31
f 35/35/35 33/33/33 31/31/31
f 37/37/37 33/33/33 35/35/35
f 39/39/39 37/37/37 35/35/35
f 41/41/41 37/37/37 39/39/39
f 43/43/43 41/41/41 39/39/39
f 45/45/45 41/41/41 43/43/43
f 47/47/47 45/45/45 43/43/43
f 49/49/49 45/45/45 47/47/47
f 51/51/51 49/49/49 47/47/47
f 53/53/53 49/49/49 51/51/51
f 55/55/55 53/53/53 51/51/51
f 57/57/57 53/53/53 55/55/55
f 59/59/59 57/57/57 55/55/55
f 61/61/61 57/57/57 59/59/59
f 63/63/63 61/61/61 59/59/59
f 65/65/65 61/61/61 63/63/63
f 67/67/67 65/65/65 63/63/63
f 69/69/69 65/65/65 67/67/67
f 71/71/71 69/69/69 67/67/67
f 73/73/73 69/69/69 71/71/71
f 75/75/75 73/73/73 71/71/71
f 77/77/77 73/73/73 75/75/75
f 79/79/79 77/77/77 75/75/75
f 81/81/81 77/77/77 79/79/79
f 83/83/83 81/81/81 79/79/79
f 85/85/85 81/81/81 83/83/83
f 87/87/87 85/85/85 83/83/83
f 89/89/89 85/85/85 87/87/87
f 91/91/91 89/89/89 87/87/87
f 93/93/93 89/89/89 91/91/91
f 95/95/95 93/93/93 91/91/91
f 97/97/97 93/93/93 95/95/95
f 99/99/99 97/97/97 95/95/95
f 101/101/101 97/97/97 99/99/99
f 103/103/103 101/101/101 99/99/99
f 105/105/105 101/101/101 103/103/103
f 107/107/107 105/105/105 103/103/103
f 109/109/109 105/105/105 107/107/107
f 111/111/111 109/109/109 107/107/107
f 113/113/113 109/109/109 111/111/111
f 115/115/115 113/113/113 111/111/111
f 117/117/117 113/113/113 115/115/115
f 119/119/119 117/117/117 115/115/115
f 121/121/121 117/117/117 119/119/119
f 123/123/123 121/121/121 119/119/119
f 125/125/125 121/121/121 123/123/123
f 127/127/127 125/125/125 123/123/123
f 129/129/129 125/125/125 127/127/127
f 131/131/131 129/129/129 127/127/127
f 133/133/133 129/129/129 131/131/131
f 135/135/135 133/133/133 131/131/131
f 137/137/137 133/133/133 135/135/135
f 139/139/139 137/137/137 135/135/135
f 141/141/141 137/137/137 139/139/139
f 143/143/143 141/141/141 139/139/139
f 145/145/145 141/141/141 143/143/143
f 147/147/147 145/145/145 143/143/143
f 149/149/149 145/145/145 147/147/147
f 151/151/151 149/149/149 147/147/147
f 153/153/153 149/149/149 151/151/151
f 155/155/155 153/153/153 151/151/151
f 157/157/157 153/153/153 155/155/155
f 159/159/159 157/157/157 155/155/155
f 161/161/161 157/157/157 159/159/159
f 163/163/163 161/161/161 159/159/159
f 165/165/165 161/161/161 163/163/163
f 167/167/167 165/165/165 163/163/163
f 169/169/169 165/165/165 167/167/167
f 171/171/171 169/169/169 167/167/167
f 173/173/173 169/169/169 171/171/171
f 175/175/175 173/173/173 171/171/171
f 177/177/177 173/173/173 175/175/175
f 179/179/179 177/177/177 175/175/175
f 181/181/181 177/177/177 179/179/179
f 183/183/183 181/181/181 179/179/179
f 185/185/185 181/181/181 183/183/183
f 187/187/187 185/185/185 183/183/183
f 189/189/189 185/185/185 187/187/187
f 191/191/191 189/189/189 187/187/187
f 193/193/193 189/189/189 191/191/191
f 195/195/195 193/193/193 191/191/191
f 197/197/197 193/193/193 195/195/195
f 199/199/199 197/197/197 195/195/195
f 201/201/201 197/197/197 199/199/199
f 203/203/203 201/201/201 199/199/199
f 205/205/205 201/201/201 203/203/203
f 207/207/207 205/205/205 203/203/203
f 209/209/209 205/205/205 207/207/207
f 211/211/211 209/209/209 207/207/207
f 213/213/213 209/209/209 211/211/211
f 215/215/215 213/213/213 211/211/211
f 217/217/217 213/213/213 215/215/215
f 219/219/219 217/217/217 215/215/215
f 221/221/221 217/217/217 219/219/219
f 223/223/223 221/221/221 219/219/219
f 225/225/225 221/221/221 223/223/223
f 227/227/227 225/225/225 223/223/223
f 229/229/229 225/225/225 227/227/227
f 231/231/231 229/229/229 227/227/227
f 233/233/233 229/229/229 231/231/231
f 235/235/235 233/233/233 231/231/231
f 237/237/237 233/233/233 235/235/235
f 239/239/239 237/237/237 235/235/235
f 241/241/241 237/237/237 239/239/239
f 243/243/243 241/241/241 239/239/239
f 245/245/245 241/241/241 243/243/243
f 247/247/247 245/245/245 243/243/243
f 249/249/249 245/245/245 247/247/247
f 251/251/251 249/249/249 247/247/247
