mtllib ./Road8_2_47.mtl
g RoadCut16
v -656.4913 0.03 105.2978
v -656.4913 0.03 105.2978
v -657.844 0.03 115.2059
v -657.844 0.03 115.2059
v -651.053 0.03 106.2665
v -651.053 0.03 106.2665
v -653.1948 0.03 116.0344
v -653.1948 0.03 116.0344
v -645.8423 0.03 107.6007
v -645.8423 0.03 107.6007
v -648.6822 0.03 117.1889
v -648.6822 0.03 117.1889
v -640.6189 0.03 109.402
v -640.6189 0.03 109.402
v -644.3237 0.03 118.6904
v -644.3237 0.03 118.6904
v -635.5572 0.03 111.7536
v -635.5572 0.03 111.7536
v -640.3019 0.03 120.5562
v -640.3019 0.03 120.5562
v -630.6786 0.03 114.8457
v -630.6786 0.03 114.8457
v -636.6517 0.03 122.8659
v -636.6517 0.03 122.8659
v -626.2692 0.03 118.7589
v -626.2692 0.03 118.7589
v -633.549 0.03 125.6149
v -633.549 0.03 125.6149
v -622.6123 0.03 123.4758
v -622.6123 0.03 123.4758
v -631.0715 0.03 128.8089
v -631.0715 0.03 128.8089
v -619.914 0.03 128.8256
v -619.914 0.03 128.8256
v -629.2195 0.03 132.4872
v -629.2195 0.03 132.4872
v -618.228 0.03 134.3671
v -618.228 0.03 134.3671
v -627.9818 0.03 136.5723
v -627.9818 0.03 136.5723

vn 0 1 0
vn 0 0 0
vn 0 1 0
vn 0 0 0
vn 1.165279E-10 1 2.555144E-11
vn 0 0 0
vn 2.444503E-10 1 6.291392E-11
vn 0 0 0
vn 2.151807E-12 1 -8.360848E-12
vn 0 0 0
vn -3.549685E-10 1 -1.291761E-10
vn 0 0 0
vn -4.47984E-10 1 -1.553192E-10
vn 0 0 0
vn -2.369532E-10 1 -9.451284E-11
vn 0 0 0
vn 0 1 0
vn 0 0 0
vn 0 1 0
vn 0 0 0
vn 9.370351E-11 1 6.978555E-11
vn 0 0 0
vn 1.936415E-10 1 1.725104E-10
vn 0 0 0
vn 1.737983E-10 0.9999999 1.548327E-10
vn 0 0 0
vn 9.061791E-11 1 9.62196E-11
vn 0 0 0
vn 0 1 0
vn 0 0 0
vn 0 1 0
vn 0 0 0
vn 0 1 0
vn 0 0 0
vn 0 1 0
vn 0 0 0
vn 0 1 0
vn 0 0 0
vn 0 1 0
vn 0 0 0

vt 0 0
vt 0 0
vt 0.2705322 1.981619
vt 0.2705322 1.981619
vt -1.087671 0.1937271
vt -1.087671 0.1937271
vt -0.6593018 2.147313
vt -0.6593018 2.147313
vt -2.129797 0.4605667
vt -2.129797 0.4605667
vt -1.561829 2.378224
vt -1.561829 2.378224
vt -3.174487 0.8208267
vt -3.174487 0.8208267
vt -2.433521 2.678505
vt -2.433521 2.678505
vt -4.186829 1.291151
vt -4.186829 1.291151
vt -3.237879 3.051683
vt -3.237879 3.051683
vt -5.162537 1.909584
vt -5.162537 1.909584
vt -3.967932 3.513622
vt -3.967932 3.513622
vt -6.044434 2.692224
vt -6.044434 2.692224
vt -4.588477 4.063419
vt -4.588477 4.063419
vt -6.775806 3.6356
vt -6.775806 3.6356
vt -5.08396 4.702211
vt -5.08396 4.702211
vt -7.315466 4.705559
vt -7.315466 4.705559
vt -5.454358 5.437865
vt -5.454358 5.437865
vt -7.652673 5.81385
vt -7.652673 5.81385
vt -5.701917 6.25489
vt -5.701917 6.25489

usemtl GSDRoad1
usemap GSDRoad1
f 5/5/5 1/1/1 3/3/3
f 7/7/7 5/5/5 3/3/3
f 9/9/9 5/5/5 7/7/7
f 11/11/11 9/9/9 7/7/7
f 13/13/13 9/9/9 11/11/11
f 15/15/15 13/13/13 11/11/11
f 17/17/17 13/13/13 15/15/15
f 19/19/19 17/17/17 15/15/15
f 21/21/21 17/17/17 19/19/19
f 23/23/23 21/21/21 19/19/19
f 25/25/25 21/21/21 23/23/23
f 27/27/27 25/25/25 23/23/23
f 29/29/29 25/25/25 27/27/27
f 31/31/31 29/29/29 27/27/27
f 33/33/33 29/29/29 31/31/31
f 35/35/35 33/33/33 31/31/31
f 37/37/37 33/33/33 35/35/35
f 39/39/39 37/37/37 35/35/35
