mtllib ./Road8_2_41.mtl
g RoadCut13
v -770.6855 0.0572663 52.56857
v -770.6855 0.0572663 52.56857
v -771.6627 0.0572663 42.61901
v -771.6627 0.0572663 42.61901
v -775.6512 0 53.09989
v -775.6512 0 53.09989
v -776.808 0 43.16935
v -776.808 0 43.16935
v -780.6649 0 53.73775
v -780.6649 0 53.73775
v -782.0368 0 43.83435
v -782.0368 0 43.83435
v -785.632 0 54.48885
v -785.632 0 54.48885
v -787.2564 0 44.62339
v -787.2564 0 44.62339
v -790.4833 0 55.36072
v -790.4833 0 55.36072
v -792.4047 0 45.54844
v -792.4047 0 45.54844
v -795.282 0 56.38961
v -795.282 0 56.38961
v -797.5649 0 46.65474
v -797.5649 0 46.65474
v -799.9163 0 57.58405
v -799.9163 0 57.58405
v -802.6407 0 47.96301
v -802.6407 0 47.96301
v -804.473 0 59.01519
v -804.473 0 59.01519
v -807.7653 0 49.57306
v -807.7653 0 49.57306
v -808.8276 0 60.72055
v -808.8276 0 60.72055
v -812.864 0 51.57143
v -812.864 0 51.57143
v -812.8553 0 62.755
v -812.8553 0 62.755
v -817.8888 0 54.11423
v -817.8888 0 54.11423
v -816.319 0 65.13243
v -816.319 0 65.13243
v -822.6673 0 57.40671
v -822.6673 0 57.40671
v -819.0071 0 67.8708
v -819.0071 0 67.8708
v -826.9537 0 61.80429
v -826.9537 0 61.80429
v -820.7287 0 70.95064
v -820.7287 0 70.95064
v -830.0869 0 67.43929
v -830.0869 0 67.43929
v -821.5041 0 74.50613
v -821.5041 0 74.50613
v -831.4599 0 73.6246
v -831.4599 0 73.6246
v -821.4911 0 78.76641
v -821.4911 0 78.76641
v -831.4689 0 79.39417
v -831.4689 0 79.39417

vn -0.01141156 0.9999343 0.00112076
vn 0 0 0
vn -0.01119813 0.9999366 0.001201996
vn 0 0 0
vn -0.007480576 0.9999716 0.000802958
vn 0 0 0
vn -0.003670011 0.9999931 0.0004274935
vn 0 0 0
vn 0 1 0
vn 0 0 0
vn 0 1 0
vn 0 0 0
vn 0 1 0
vn 0 0 0
vn 0 1 0
vn 0 0 0
vn 0 1 0
vn 0 0 0
vn 0 1 0
vn 0 0 0
vn 0 1 0
vn 0 0 0
vn 0 1 0
vn 0 0 0
vn 0 1 0
vn 0 0 0
vn 0 1 0
vn 0 0 0
vn 0 1 0
vn 0 0 0
vn 0 0.9999999 0
vn 0 0 0
vn 0 1 0
vn 0 0 0
vn 0 1 0
vn 0 0 0
vn 0 1 0
vn 0 0 0
vn 0 1 0
vn 0 0 0
vn 0 1 0
vn 0 0 0
vn 0 1 0
vn 0 0 0
vn 0 1 0
vn 0 0 0
vn 0 1 0
vn 0 0 0
vn 0 1 0
vn 0 0 0
vn 0 1 0
vn 0 0 0
vn 0 1 0
vn 0 0 0
vn 0 1 0
vn 0 0 0
vn 0 0.9999999 0
vn 0 0 0
vn 0 1 0
vn 0 0 0

vt 0 0
vt 0 0
vt 0.1954346 -1.989911
vt 0.1954346 -1.989911
vt 0.9931518 0.1062645
vt 0.9931518 0.1062645
vt 1.2245 -1.879844
vt 1.2245 -1.879844
vt 1.995874 0.2338371
vt 1.995874 0.2338371
vt 2.270264 -1.746842
vt 2.270264 -1.746842
vt 2.989307 0.3840561
vt 2.989307 0.3840561
vt 3.314185 -1.589035
vt 3.314185 -1.589035
vt 3.95957 0.5584313
vt 3.95957 0.5584313
vt 4.343848 -1.404024
vt 4.343848 -1.404024
vt 4.9193 0.764209
vt 4.9193 0.764209
vt 5.375891 -1.182765
vt 5.375891 -1.182765
vt 5.846167 1.003097
vt 5.846167 1.003097
vt 6.39104 -0.9211113
vt 6.39104 -0.9211113
vt 6.757495 1.289326
vt 6.757495 1.289326
vt 7.415967 -0.599102
vt 7.415967 -0.599102
vt 7.62843 1.630397
vt 7.62843 1.630397
vt 8.435706 -0.1994263
vt 8.435706 -0.1994263
vt 8.433972 2.037288
vt 8.433972 2.037288
vt 9.440661 0.3091339
vt 9.440661 0.3091339
vt 9.126709 2.512773
vt 9.126709 2.512773
vt 10.39636 0.9676285
vt 10.39636 0.9676285
vt 9.664319 3.060448
vt 9.664319 3.060448
vt 11.25365 1.847145
vt 11.25365 1.847145
vt 10.00864 3.676414
vt 10.00864 3.676414
vt 11.88027 2.974144
vt 11.88027 2.974144
vt 10.16372 4.387512
vt 10.16372 4.387512
vt 12.15488 4.211206
vt 12.15488 4.211206
vt 10.16113 5.239569
vt 10.16113 5.239569
vt 12.15669 5.365121
vt 12.15669 5.365121

usemtl GSDRoad1
usemap GSDRoad1
f 5/5/5 1/1/1 3/3/3
f 7/7/7 5/5/5 3/3/3
f 9/9/9 5/5/5 7/7/7
f 11/11/11 9/9/9 7/7/7
f 13/13/13 9/9/9 11/11/11
f 15/15/15 13/13/13 11/11/11
f 17/17/17 13/13/13 15/15/15
f 19/19/19 17/17/17 15/15/15
f 21/21/21 17/17/17 19/19/19
f 23/23/23 21/21/21 19/19/19
f 25/25/25 21/21/21 23/23/23
f 27/27/27 25/25/25 23/23/23
f 29/29/29 25/25/25 27/27/27
f 31/31/31 29/29/29 27/27/27
f 33/33/33 29/29/29 31/31/31
f 35/35/35 33/33/33 31/31/31
f 37/37/37 33/33/33 35/35/35
f 39/39/39 37/37/37 35/35/35
f 41/41/41 37/37/37 39/39/39
f 43/43/43 41/41/41 39/39/39
f 45/45/45 41/41/41 43/43/43
f 47/47/47 45/45/45 43/43/43
f 49/49/49 45/45/45 47/47/47
f 51/51/51 49/49/49 47/47/47
f 53/53/53 49/49/49 51/51/51
f 55/55/55 53/53/53 51/51/51
f 57/57/57 53/53/53 55/55/55
f 59/59/59 57/57/57 55/55/55
