mtllib ./Road1_0_142.mtl
g SCutR3
v -310.7382 65.1158 566.1542
v -310.7382 65.1158 566.1542
v -312.2684 65.1158 563.3256
v -312.2684 65.1158 563.3256
v -312.2684 65.1158 563.3256
v -312.2684 65.1158 563.3256
v -313.2452 64.15873 561.52
v -313.2452 64.15873 561.52
v -315.2489 65.28027 568.4897
v -315.2489 65.28027 568.4897
v -316.666 65.28027 565.7375
v -316.666 65.28027 565.7375
v -316.666 65.28027 565.7375
v -316.666 65.28027 565.7375
v -317.5924 63.6741 563.9385
v -317.5924 63.6741 563.9385
v -319.7343 65.31995 570.8099
v -319.7343 65.31995 570.8099
v -321.1292 65.31995 568.1257
v -321.1292 65.31995 568.1257
v -321.1292 65.31995 568.1257
v -321.1292 65.31995 568.1257
v -322.0543 62.92936 566.3455
v -322.0543 62.92936 566.3455
v -324.2593 65.19954 573.1685
v -324.2593 65.19954 573.1685
v -325.7081 65.19954 570.3778
v -325.7081 65.19954 570.3778
v -325.7081 65.19954 570.3778
v -325.7081 65.19954 570.3778
v -326.6458 62.16898 568.5717
v -326.6458 62.16898 568.5717
v -328.7145 64.86382 575.4756
v -328.7145 64.86382 575.4756
v -330.1787 64.86382 572.5751
v -330.1787 64.86382 572.5751
v -330.1787 64.86382 572.5751
v -330.1787 64.86382 572.5751
v -331.1058 61.4883 570.7387
v -331.1058 61.4883 570.7387
v -333.0827 64.24902 577.6365
v -333.0827 64.24902 577.6365
v -334.4676 64.24902 574.6164
v -334.4676 64.24902 574.6164
v -334.4676 64.24902 574.6164
v -334.4676 64.24902 574.6164
v -335.3289 61.04636 572.7381
v -335.3289 61.04636 572.7381
v -337.3114 63.34987 579.4329
v -337.3114 63.34987 579.4329
v -338.4488 63.34987 576.2813
v -338.4488 63.34987 576.2813
v -338.4488 63.34987 576.2813
v -338.4488 63.34987 576.2813
v -339.1491 60.55903 574.3406
v -339.1491 60.55903 574.3406
v -341.5451 62.3405 580.6896
v -341.5451 62.3405 580.6896
v -342.322 62.3405 577.4328
v -342.322 62.3405 577.4328
v -342.322 62.3405 577.4328
v -342.322 62.3405 577.4328
v -342.801 60.22833 575.4249
v -342.801 60.22833 575.4249
v -346.047 61.50162 581.5035
v -346.047 61.50162 581.5035
v -346.5455 61.50162 578.2295
v -346.5455 61.50162 578.2295
v -346.5455 61.50162 578.2295
v -346.5455 61.50162 578.2295
v -346.8566 60.22833 576.187
v -346.8566 60.22833 576.187
v -350.8715 60.94948 582.0889
v -350.8715 60.94948 582.0889
v -351.2241 60.94948 578.8771
v -351.2241 60.94948 578.8771
v -351.2241 60.94948 578.8771
v -351.2241 60.94948 578.8771
v -351.4481 60.22833 576.8357
v -351.4481 60.22833 576.8357
v -355.7919 60.66372 582.5662
v -355.7919 60.66372 582.5662
v -356.079 60.66372 579.4548
v -356.079 60.66372 579.4548
v -356.079 60.66372 579.4548
v -356.079 60.66372 579.4548
v -356.2655 60.22833 577.433
v -356.2655 60.22833 577.433
v -360.893 60.57467 583.0142
v -360.893 60.57467 583.0142
v -361.1497 60.57467 580.0252
v -361.1497 60.57467 580.0252
v -361.1497 60.57467 580.0252
v -361.1497 60.57467 580.0252
v -361.3209 60.22833 578.0325
v -361.3209 60.22833 578.0325
v -365.8995 60.63526 583.4415
v -365.8995 60.63526 583.4415
v -366.1626 60.63526 580.3384
v -366.1626 60.63526 580.3384
v -366.1626 60.63526 580.3384
v -366.1626 60.63526 580.3384
v -366.334 60.22833 578.3174
v -366.334 60.22833 578.3174

vn 0.02846789 0.9994761 -0.01540109
vn 0 0 0
vn 0.02879915 0.9994695 -0.01520968
vn 0 0 0
vn -0.1769873 0.9060103 -0.3844748
vn 0 0 0
vn -0.2812339 0.8459587 -0.4530577
vn 0 0 0
vn 0.02162248 0.9997013 -0.01138906
vn 0 0 0
vn 0.01438322 0.999869 -0.007416893
vn 0 0 0
vn -0.2840157 0.8251608 -0.488308
vn 0 0 0
vn -0.3745989 0.731703 -0.5694615
vn 0 0 0
vn -0.002316948 0.9999965 0.001215269
vn 0 0 0
vn -0.01181225 0.9999114 0.006134794
vn 0 0 0
vn -0.3681654 0.6862121 -0.6273493
vn 0 0 0
vn -0.4128972 0.611163 -0.6752746
vn 0 0 0
vn -0.03375464 0.9992763 0.01752751
vn 0 0 0
vn -0.04674076 0.9986193 0.02397537
vn 0 0 0
vn -0.3983364 0.5837329 -0.7075197
vn 0 0 0
vn -0.4242814 0.5441039 -0.7238345
vn 0 0 0
vn -0.07699866 0.9962623 0.03915042
vn 0 0 0
vn -0.09597316 0.9942896 0.04666241
vn 0 0 0
vn -0.4214354 0.5319214 -0.7344739
vn 0 0 0
vn -0.4233648 0.5265347 -0.7372406
vn 0 0 0
vn -0.1340909 0.9889498 0.06322916
vn 0 0 0
vn -0.1603591 0.9847453 0.06754144
vn 0 0 0
vn -0.4192804 0.5333673 -0.7346586
vn 0 0 0
vn -0.4034502 0.5558194 -0.7268375
vn 0 0 0
vn -0.1920922 0.9784945 0.07515997
vn 0 0 0
vn -0.2122714 0.9748816 0.06742944
vn 0 0 0
vn -0.3914684 0.5728223 -0.7201578
vn 0 0 0
vn -0.3411037 0.6222835 -0.7045649
vn 0 0 0
vn -0.2062404 0.9767854 0.05792261
vn 0 0 0
vn -0.1994465 0.9790003 0.04218645
vn 0 0 0
vn -0.3024568 0.6588229 -0.6888195
vn 0 0 0
vn -0.2158675 0.7470522 -0.6287402
vn 0 0 0
vn -0.1576953 0.9870586 0.02911412
vn 0 0 0
vn -0.1375163 0.9903114 0.01930156
vn 0 0 0
vn -0.1850636 0.7985229 -0.5728111
vn 0 0 0
vn -0.107894 0.8845467 -0.4538018
vn 0 0 0
vn -0.09465218 0.995438 0.01200606
vn 0 0 0
vn -0.07676952 0.997016 0.008092807
vn 0 0 0
vn -0.1066586 0.9142462 -0.3908679
vn 0 0 0
vn -0.0561714 0.9561115 -0.2875686
vn 0 0 0
vn -0.0440695 0.9990187 0.004405559
vn 0 0 0
vn -0.03074019 0.9995234 0.002799654
vn 0 0 0
vn -0.05400158 0.9674867 -0.24709
vn 0 0 0
vn -0.02891237 0.9804044 -0.194862
vn 0 0 0
vn -0.007808361 0.9999694 0.0007087034
vn 0 0 0
vn 0.002237809 0.9999975 -0.0001877404
vn 0 0 0
vn -0.02005054 0.9829345 -0.1828603
vn 0 0 0
vn -0.01007389 0.983762 -0.179195
vn 0 0 0
vn 0.01201914 0.9999272 -0.001025598
vn 0 0 0
vn 0.0120235 0.9999272 -0.001019538
vn 0 0 0
vn -0.005038841 0.9829066 -0.1840359
vn 0 0 0
vn -0.01116593 0.9804469 -0.196467
vn 0 0 0

vt 0 0
vt 0 0
vt 0.3060486 -0.5657105
vt 0.3060486 -0.5657105
vt 0.3060486 -0.5657105
vt 0.3060486 -0.5657105
vt 0.5014099 -0.9268433
vt 0.5014099 -0.9268433
vt 0.9021484 0.4671021
vt 0.9021484 0.4671021
vt 1.185565 -0.0833252
vt 1.185565 -0.0833252
vt 1.185565 -0.0833252
vt 1.185565 -0.0833252
vt 1.370837 -0.4431396
vt 1.370837 -0.4431396
vt 1.799219 0.9311523
vt 1.799219 0.9311523
vt 2.078198 0.3943115
vt 2.078198 0.3943115
vt 2.078198 0.3943115
vt 2.078198 0.3943115
vt 2.263226 0.03826904
vt 2.263226 0.03826904
vt 2.704224 1.402869
vt 2.704224 1.402869
vt 2.993988 0.8447266
vt 2.993988 0.8447266
vt 2.993988 0.8447266
vt 2.993988 0.8447266
vt 3.181519 0.4835083
vt 3.181519 0.4835083
vt 3.595258 1.864294
vt 3.595258 1.864294
vt 3.88811 1.28418
vt 3.88811 1.28418
vt 3.88811 1.28418
vt 3.88811 1.28418
vt 4.073517 0.9169068
vt 4.073517 0.9169068
vt 4.468909 2.29646
vt 4.468909 2.29646
vt 4.745886 1.692444
vt 4.745886 1.692444
vt 4.745886 1.692444
vt 4.745886 1.692444
vt 4.918146 1.316785
vt 4.918146 1.316785
vt 5.314649 2.655737
vt 5.314649 2.655737
vt 5.542127 2.025415
vt 5.542127 2.025415
vt 5.542127 2.025415
vt 5.542127 2.025415
vt 5.68219 1.637293
vt 5.68219 1.637293
vt 6.161377 2.907092
vt 6.161377 2.907092
vt 6.316761 2.255725
vt 6.316761 2.255725
vt 6.316761 2.255725
vt 6.316761 2.255725
vt 6.412555 1.85415
vt 6.412555 1.85415
vt 7.061761 3.069861
vt 7.061761 3.069861
vt 7.161469 2.415064
vt 7.161469 2.415064
vt 7.161469 2.415064
vt 7.161469 2.415064
vt 7.223676 2.006567
vt 7.223676 2.006567
vt 8.026667 3.186951
vt 8.026667 3.186951
vt 8.097175 2.544592
vt 8.097175 2.544592
vt 8.097175 2.544592
vt 8.097175 2.544592
vt 8.141986 2.136304
vt 8.141986 2.136304
vt 9.010749 3.282398
vt 9.010749 3.282398
vt 9.068158 2.660132
vt 9.068158 2.660132
vt 9.068158 2.660132
vt 9.068158 2.660132
vt 9.105456 2.255774
vt 9.105456 2.255774
vt 10.03096 3.372009
vt 10.03096 3.372009
vt 10.0823 2.774207
vt 10.0823 2.774207
vt 10.0823 2.774207
vt 10.0823 2.774207
vt 10.11653 2.375671
vt 10.11653 2.375671
vt 11.03226 3.457458
vt 11.03226 3.457458
vt 11.08488 2.836853
vt 11.08488 2.836853
vt 11.08488 2.836853
vt 11.08488 2.836853
vt 11.11915 2.432654
vt 11.11915 2.432654

usemtl GSDShoulder1
usemap GSDShoulder1
f 9/9/9 1/1/1 3/3/3
f 11/11/11 9/9/9 3/3/3
f 13/13/13 5/5/5 7/7/7
f 15/15/15 13/13/13 7/7/7
f 17/17/17 9/9/9 11/11/11
f 19/19/19 17/17/17 11/11/11
f 21/21/21 13/13/13 15/15/15
f 23/23/23 21/21/21 15/15/15
f 25/25/25 17/17/17 19/19/19
f 27/27/27 25/25/25 19/19/19
f 29/29/29 21/21/21 23/23/23
f 31/31/31 29/29/29 23/23/23
f 33/33/33 25/25/25 27/27/27
f 35/35/35 33/33/33 27/27/27
f 37/37/37 29/29/29 31/31/31
f 39/39/39 37/37/37 31/31/31
f 41/41/41 33/33/33 35/35/35
f 43/43/43 41/41/41 35/35/35
f 45/45/45 37/37/37 39/39/39
f 47/47/47 45/45/45 39/39/39
f 49/49/49 41/41/41 43/43/43
f 51/51/51 49/49/49 43/43/43
f 53/53/53 45/45/45 47/47/47
f 55/55/55 53/53/53 47/47/47
f 57/57/57 49/49/49 51/51/51
f 59/59/59 57/57/57 51/51/51
f 61/61/61 53/53/53 55/55/55
f 63/63/63 61/61/61 55/55/55
f 65/65/65 57/57/57 59/59/59
f 67/67/67 65/65/65 59/59/59
f 69/69/69 61/61/61 63/63/63
f 71/71/71 69/69/69 63/63/63
f 73/73/73 65/65/65 67/67/67
f 75/75/75 73/73/73 67/67/67
f 77/77/77 69/69/69 71/71/71
f 79/79/79 77/77/77 71/71/71
f 81/81/81 73/73/73 75/75/75
f 83/83/83 81/81/81 75/75/75
f 85/85/85 77/77/77 79/79/79
f 87/87/87 85/85/85 79/79/79
f 89/89/89 81/81/81 83/83/83
f 91/91/91 89/89/89 83/83/83
f 93/93/93 85/85/85 87/87/87
f 95/95/95 93/93/93 87/87/87
f 97/97/97 89/89/89 91/91/91
f 99/99/99 97/97/97 91/91/91
f 101/101/101 93/93/93 95/95/95
f 103/103/103 101/101/101 95/95/95
