mtllib ./Road1_0_190.mtl
g SCutR51
v -690.4116 23.89078 748.4068
v -690.4116 23.89078 748.4068
v -690.3663 23.89078 751.5344
v -690.3663 23.89078 751.5344
v -690.3663 23.89078 751.5344
v -690.3663 23.89078 751.5344
v -690.337 21.84061 753.5622
v -690.337 21.84061 753.5622
v -685.3896 24.29005 748.3337
v -685.3896 24.29005 748.3337
v -685.3236 24.29005 751.4744
v -685.3236 24.29005 751.4744
v -685.3236 24.29005 751.4744
v -685.3236 24.29005 751.4744
v -685.2809 22.32126 753.5053
v -685.2809 22.32126 753.5053
v -680.2971 24.69376 748.1996
v -680.2971 24.69376 748.1996
v -680.1996 24.69376 751.3492
v -680.1996 24.69376 751.3492
v -680.1996 24.69376 751.3492
v -680.1996 24.69376 751.3492
v -680.1367 22.68894 753.382
v -680.1367 22.68894 753.382
v -675.2111 25.09833 748.0246
v -675.2111 25.09833 748.0246
v -675.0931 25.09833 751.1801
v -675.0931 25.09833 751.1801
v -675.0931 25.09833 751.1801
v -675.0931 25.09833 751.1801
v -675.017 23.17821 753.2141
v -675.017 23.17821 753.2141
v -670.106 25.50539 747.8224
v -670.106 25.50539 747.8224
v -669.9749 25.50539 750.9813
v -669.9749 25.50539 750.9813
v -669.9749 25.50539 750.9813
v -669.9749 25.50539 750.9813
v -669.8905 23.56723 753.016
v -669.8905 23.56723 753.016
v -665.0617 25.90832 747.6069
v -665.0617 25.90832 747.6069
v -664.9236 25.90832 750.767
v -664.9236 25.90832 750.767
v -664.9236 25.90832 750.767
v -664.9236 25.90832 750.767
v -664.8348 24.01016 752.8018
v -664.8348 24.01016 752.8018
v -660.019 26.31177 747.3845
v -660.019 26.31177 747.3845
v -659.8792 26.31177 750.5435
v -659.8792 26.31177 750.5435
v -659.8792 26.31177 750.5435
v -659.8792 26.31177 750.5435
v -659.7892 24.30623 752.5781
v -659.7892 24.30623 752.5781
v -654.9169 26.72066 747.1606
v -654.9169 26.72066 747.1606
v -654.7807 26.72066 750.3164
v -654.7807 26.72066 750.3164
v -654.7807 26.72066 750.3164
v -654.7807 26.72066 750.3164
v -654.6929 24.75842 752.3502
v -654.6929 24.75842 752.3502
v -649.8386 27.12843 746.9481
v -649.8386 27.12843 746.9481
v -649.7122 27.12843 750.0983
v -649.7122 27.12843 750.0983
v -649.7122 27.12843 750.0983
v -649.7122 27.12843 750.0983
v -649.6306 25.21686 752.1308
v -649.6306 25.21686 752.1308

vn -0.0792402 0.9968549 0.001145854
vn 0 0 0
vn -0.0790754 0.9968676 0.00140366
vn 0 0 0
vn -0.04712845 0.7020918 0.7105251
vn 0 0 0
vn -0.05364106 0.7090798 0.703085
vn 0 0 0
vn -0.07904372 0.99687 0.001490189
vn 0 0 0
vn -0.07879103 0.9968892 0.001918784
vn 0 0 0
vn -0.04891152 0.7117639 0.7007139
vn 0 0 0
vn -0.04446469 0.7147468 0.6979684
vn 0 0 0
vn -0.07889178 0.9968808 0.002181339
vn 0 0 0
vn -0.07885905 0.9968823 0.002610668
vn 0 0 0
vn -0.03550728 0.7130513 0.7002122
vn 0 0 0
vn -0.0379066 0.715862 0.6972122
vn 0 0 0
vn -0.07915356 0.9968585 0.002791095
vn 0 0 0
vn -0.07913417 0.9968593 0.003068048
vn 0 0 0
vn -0.0369805 0.7209373 0.6920129
vn 0 0 0
vn -0.0353635 0.7249993 0.6878412
vn 0 0 0
vn -0.0793343 0.996843 0.003182984
vn 0 0 0
vn -0.07933547 0.9968423 0.003349234
vn 0 0 0
vn -0.02923418 0.7242112 0.6889583
vn 0 0 0
vn -0.03052997 0.7254601 0.6875867
vn 0 0 0
vn -0.07948469 0.9968303 0.003414203
vn 0 0 0
vn -0.07951276 0.9968277 0.00348907
vn 0 0 0
vn -0.03053913 0.7278485 0.6850575
vn 0 0 0
vn -0.02451039 0.7240818 0.6892785
vn 0 0 0
vn -0.07963379 0.996818 0.003509697
vn 0 0 0
vn -0.07969663 0.9968131 0.003498449
vn 0 0 0
vn -0.02148657 0.7178106 0.6959067
vn 0 0 0
vn -0.02304352 0.7139663 0.6998008
vn 0 0 0
vn -0.07980454 0.9968045 0.003474194
vn 0 0 0
vn -0.0799125 0.9967962 0.00336881
vn 0 0 0
vn -0.02878788 0.7162204 0.6972801
vn 0 0 0
vn -0.03224368 0.7215135 0.6916494
vn 0 0 0
vn -0.07997497 0.9967913 0.003330839
vn 0 0 0
vn -0.08005526 0.9967853 0.003212323
vn 0 0 0
vn -0.03201296 0.7230018 0.6901041
vn 0 0 0
vn -0.03615198 0.7272497 0.6854204
vn 0 0 0

vt 0 0
vt 0 0
vt -0.00904541 0.6255249
vt -0.00904541 0.6255249
vt -0.00904541 0.6255249
vt -0.00904541 0.6255249
vt -0.01490478 1.031079
vt -0.01490478 1.031079
vt -1.004382 -0.01461182
vt -1.004382 -0.01461182
vt -1.01759 0.6135132
vt -1.01759 0.6135132
vt -1.01759 0.6135132
vt -1.01759 0.6135132
vt -1.026135 1.019702
vt -1.026135 1.019702
vt -2.0229 -0.04144287
vt -2.0229 -0.04144287
vt -2.042395 0.5884766
vt -2.042395 0.5884766
vt -2.042395 0.5884766
vt -2.042395 0.5884766
vt -2.054981 0.9950318
vt -2.054981 0.9950318
vt -3.040088 -0.07644043
vt -3.040088 -0.07644043
vt -3.063696 0.5546631
vt -3.063696 0.5546631
vt -3.063696 0.5546631
vt -3.063696 0.5546631
vt -3.078906 0.9614624
vt -3.078906 0.9614624
vt -4.061121 -0.1168823
vt -4.061121 -0.1168823
vt -4.087329 0.5149048
vt -4.087329 0.5149048
vt -4.087329 0.5149048
vt -4.087329 0.5149048
vt -4.104211 0.9218384
vt -4.104211 0.9218384
vt -5.069971 -0.1599853
vt -5.069971 -0.1599853
vt -5.097583 0.4720337
vt -5.097583 0.4720337
vt -5.097583 0.4720337
vt -5.097583 0.4720337
vt -5.115356 0.8790039
vt -5.115356 0.8790039
vt -6.078504 -0.2044678
vt -6.078504 -0.2044678
vt -6.10647 0.4273438
vt -6.10647 0.4273438
vt -6.10647 0.4273438
vt -6.10647 0.4273438
vt -6.124475 0.834253
vt -6.124475 0.834253
vt -7.098926 -0.2492432
vt -7.098926 -0.2492432
vt -7.126172 0.3819214
vt -7.126172 0.3819214
vt -7.126172 0.3819214
vt -7.126172 0.3819214
vt -7.143738 0.7886841
vt -7.143738 0.7886841
vt -8.114588 -0.2917359
vt -8.114588 -0.2917359
vt -8.139869 0.3382935
vt -8.139869 0.3382935
vt -8.139869 0.3382935
vt -8.139869 0.3382935
vt -8.156189 0.7447998
vt -8.156189 0.7447998

usemtl GSDShoulder1
usemap GSDShoulder1
f 9/9/9 1/1/1 3/3/3
f 11/11/11 9/9/9 3/3/3
f 13/13/13 5/5/5 7/7/7
f 15/15/15 13/13/13 7/7/7
f 17/17/17 9/9/9 11/11/11
f 19/19/19 17/17/17 11/11/11
f 21/21/21 13/13/13 15/15/15
f 23/23/23 21/21/21 15/15/15
f 25/25/25 17/17/17 19/19/19
f 27/27/27 25/25/25 19/19/19
f 29/29/29 21/21/21 23/23/23
f 31/31/31 29/29/29 23/23/23
f 33/33/33 25/25/25 27/27/27
f 35/35/35 33/33/33 27/27/27
f 37/37/37 29/29/29 31/31/31
f 39/39/39 37/37/37 31/31/31
f 41/41/41 33/33/33 35/35/35
f 43/43/43 41/41/41 35/35/35
f 45/45/45 37/37/37 39/39/39
f 47/47/47 45/45/45 39/39/39
f 49/49/49 41/41/41 43/43/43
f 51/51/51 49/49/49 43/43/43
f 53/53/53 45/45/45 47/47/47
f 55/55/55 53/53/53 47/47/47
f 57/57/57 49/49/49 51/51/51
f 59/59/59 57/57/57 51/51/51
f 61/61/61 53/53/53 55/55/55
f 63/63/63 61/61/61 55/55/55
f 65/65/65 57/57/57 59/59/59
f 67/67/67 65/65/65 59/59/59
f 69/69/69 61/61/61 63/63/63
f 71/71/71 69/69/69 63/63/63
