mtllib ./Road7_2_30.mtl
g SCutL6
v -179.909 0.03 295.703
v -179.909 0.03 295.703
v -179.9003 0.03 292.703
v -179.9003 0.03 292.703
v -179.9184 -0.67 298.953
v -179.9184 -0.67 298.953
v -179.909 0.03 295.703
v -179.909 0.03 295.703
v -184.9073 0.02376523 295.6898
v -184.9073 0.02376523 295.6898
v -184.9027 0.02376523 292.6898
v -184.9027 0.02376523 292.6898
v -184.9122 -0.6762347 298.9397
v -184.9122 -0.6762347 298.9397
v -184.9073 0.02376523 295.6898
v -184.9073 0.02376523 295.6898
v -189.8843 0 295.7209
v -189.8843 0 295.7209
v -189.886 0 292.6875
v -189.886 0 292.6875
v -189.8824 -0.35 298.9792
v -189.8824 -0.35 298.9792
v -189.8843 0 295.7209
v -189.8843 0 295.7209
v -194.881 0 295.7412
v -194.881 0 295.7412
v -194.8876 0 292.6943
v -194.8876 0 292.6943
v -194.8739 -0.35 299.0029
v -194.8739 -0.35 299.0029
v -194.881 0 295.7412
v -194.881 0 295.7412
v -199.8716 0 295.7649
v -199.8716 0 295.7649
v -199.8821 0 292.7083
v -199.8821 0 292.7083
v -199.8604 -0.35 299.0289
v -199.8604 -0.35 299.0289
v -199.8716 0 295.7649
v -199.8716 0 295.7649
v -204.8951 0 295.7913
v -204.8951 0 295.7913
v -204.9087 0 292.7281
v -204.9087 0 292.7281
v -204.8806 -0.35 299.0569
v -204.8806 -0.35 299.0569
v -204.8951 0 295.7913
v -204.8951 0 295.7913
v -209.9117 0 295.8193
v -209.9117 0 295.8193
v -209.9278 0 292.7524
v -209.9278 0 292.7524
v -209.8946 -0.35 299.0858
v -209.8946 -0.35 299.0858
v -209.9117 0 295.8193
v -209.9117 0 295.8193
v -214.9373 0 295.8486
v -214.9373 0 295.8486
v -214.9554 0 292.7804
v -214.9554 0 292.7804
v -214.9181 -0.35 299.1154
v -214.9181 -0.35 299.1154
v -214.9373 0 295.8486
v -214.9373 0 295.8486
v -219.9437 0 295.8787
v -219.9437 0 295.8787
v -219.9634 0 292.8113
v -219.9634 0 292.8113
v -219.9227 -0.35 299.1453
v -219.9227 -0.35 299.1453
v -219.9437 0 295.8787
v -219.9437 0 295.8787
v -224.9607 0 295.9093
v -224.9607 0 295.9093
v -224.9817 0 292.8448
v -224.9817 0 292.8448
v -224.9383 -0.35 299.1753
v -224.9383 -0.35 299.1753
v -224.9607 0 295.9093
v -224.9607 0 295.9093
v -229.9691 0 295.9401
v -229.9691 0 295.9401
v -229.9911 0 292.8801
v -229.9911 0 292.8801
v -229.9455 -0.35 299.2049
v -229.9455 -0.35 299.2049
v -229.9691 0 295.9401
v -229.9691 0 295.9401
v -235.0099 0 295.9711
v -235.0099 0 295.9711
v -235.0328 0 292.9173
v -235.0328 0 292.9173
v -234.9855 -0.35 299.2344
v -234.9855 -0.35 299.2344
v -235.0099 0 295.9711
v -235.0099 0 295.9711
v -240.0099 0 296.0016
v -240.0099 0 296.0016
v -240.0334 0 292.9554
v -240.0334 0 292.9554
v -239.9847 -0.35 299.2631
v -239.9847 -0.35 299.2631
v -240.0099 0 296.0016
v -240.0099 0 296.0016
v -245.0151 0 296.0319
v -245.0151 0 296.0319
v -245.0391 0 292.9947
v -245.0391 0 292.9947
v -244.9894 -0.35 299.291
v -244.9894 -0.35 299.291
v -245.0151 0 296.0319
v -245.0151 0 296.0319
v -250.0144 0 296.0615
v -250.0144 0 296.0615
v -250.0387 0 293.0345
v -250.0387 0 293.0345
v -249.9883 -0.35 299.3181
v -249.9883 -0.35 299.3181
v -250.0144 0 296.0615
v -250.0144 0 296.0615
v -255.0628 0 296.0753
v -255.0628 0 296.0753
v -255.0872 0 293.0754
v -255.0872 0 293.0754
v -255.0364 -0.35 299.3252
v -255.0364 -0.35 299.3252
v -255.0628 0 296.0753
v -255.0628 0 296.0753
v -260.0871 0 296.1164
v -260.0871 0 296.1164
v -260.1117 0 293.1165
v -260.1117 0 293.1165
v -260.0605 -0.35 299.3662
v -260.0605 -0.35 299.3662
v -260.0871 0 296.1164
v -260.0871 0 296.1164
v -265.1457 0 296.1579
v -265.1457 0 296.1579
v -265.1704 0 293.1581
v -265.1704 0 293.1581
v -265.119 -0.35 299.4078
v -265.119 -0.35 299.4078
v -265.1457 0 296.1579
v -265.1457 0 296.1579
v -270.1636 0 296.225
v -270.1636 0 296.225
v -270.1886 0 293.1994
v -270.1886 0 293.1994
v -270.1367 -0.35 299.4813
v -270.1367 -0.35 299.4813
v -270.1636 0 296.225
v -270.1636 0 296.225
v -275.2027 0 296.2822
v -275.2027 0 296.2822
v -275.2278 0 293.2409
v -275.2278 0 293.2409
v -275.1758 -0.35 299.5424
v -275.1758 -0.35 299.5424
v -275.2027 0 296.2822
v -275.2027 0 296.2822
v -280.2577 0 296.3404
v -280.2577 0 296.3404
v -280.2828 0 293.2824
v -280.2828 0 293.2824
v -280.2309 -0.35 299.6048
v -280.2309 -0.35 299.6048
v -280.2577 0 296.3404
v -280.2577 0 296.3404
v -285.3238 0 296.3993
v -285.3238 0 296.3993
v -285.3489 0 293.3237
v -285.3489 0 293.3237
v -285.2971 -0.35 299.668
v -285.2971 -0.35 299.668
v -285.3238 0 296.3993
v -285.3238 0 296.3993
v -290.3962 0 296.4588
v -290.3962 0 296.4588
v -290.4212 0 293.3647
v -290.4212 0 293.3647
v -290.3697 -0.35 299.7321
v -290.3697 -0.35 299.7321
v -290.3962 0 296.4588
v -290.3962 0 296.4588
v -295.4703 0 296.5187
v -295.4703 0 296.5187
v -295.4952 0 293.4054
v -295.4952 0 293.4054
v -295.444 -0.35 299.7967
v -295.444 -0.35 299.7967
v -295.4703 0 296.5187
v -295.4703 0 296.5187
v -300.5417 0 296.5789
v -300.5417 0 296.5789
v -300.5665 0 293.4455
v -300.5665 0 293.4455
v -300.5157 -0.35 299.8618
v -300.5157 -0.35 299.8618
v -300.5417 0 296.5789
v -300.5417 0 296.5789
v -305.6062 0 296.639
v -305.6062 0 296.639
v -305.6308 0 293.4849
v -305.6308 0 293.4849
v -305.5805 -0.35 299.9271
v -305.5805 -0.35 299.9271
v -305.6062 0 296.639
v -305.6062 0 296.639
v -310.6595 0 296.6991
v -310.6595 0 296.6991
v -310.6839 0 293.5237
v -310.6839 0 293.5237
v -310.6342 -0.3408029 299.9924
v -310.6342 -0.3408029 299.9924
v -310.6595 0 296.6991
v -310.6595 0 296.6991
v -315.6977 0 296.7591
v -315.6977 0 296.7591
v -315.7218 0 293.5616
v -315.7218 0 293.5616
v -315.6728 -0.2276264 300.0578
v -315.6728 -0.2276264 300.0578
v -315.6977 0 296.7591
v -315.6977 0 296.7591

vn -0.001247358 0.9999992 -3.603651E-06
vn 0 0 0
vn -0.001246852 0.9999992 -2.755548E-06
vn 0 0 0
vn -0.00178019 0.9775812 0.2105508
vn 0 0 0
vn -0.001778755 0.9775808 0.2105529
vn 0 0 0
vn -0.002419233 0.999997 -4.269109E-06
vn 0 0 0
vn -0.003597612 0.9999936 -2.140674E-06
vn 0 0 0
vn 0.02067759 0.9773661 0.2105417
vn 0 0 0
vn 0.02007698 0.984087 0.1765496
vn 0 0 0
vn -0.00317192 0.999995 -1.500109E-06
vn 0 0 0
vn -0.001583937 0.9999988 9.083029E-07
vn 0 0 0
vn 0.02095259 0.989669 0.1418324
vn 0 0 0
vn -0.001042165 0.9942834 0.1067679
vn 0 0 0
vn 0 1 0
vn 0 0 0
vn 0 1 0
vn 0 0 0
vn 0.0004996234 0.9942879 0.1067309
vn 0 0 0
vn 0.0004993566 0.9942945 0.1066689
vn 0 0 0
vn 0 1 0
vn 0 0 0
vn 0 1 0
vn 0 0 0
vn 0.0005522682 0.9942973 0.1066428
vn 0 0 0
vn 0.0005526387 0.9943019 0.1065997
vn 0 0 0
vn 0 1 0
vn 0 0 0
vn 0 0.9999999 0
vn 0 0 0
vn 0.0005890652 0.9943037 0.1065824
vn 0 0 0
vn 0.0005896984 0.9943067 0.1065548
vn 0 0 0
vn 0 1 0
vn 0 0 0
vn 0 1 0
vn 0 0 0
vn 0.0006129678 0.9943078 0.1065443
vn 0 0 0
vn 0.000615005 0.9943092 0.1065306
vn 0 0 0
vn 0 1 0
vn 0 0 0
vn 0 1 0
vn 0 0 0
vn 0.0006286502 0.9943096 0.1065271
vn 0 0 0
vn 0.0006326006 0.9943097 0.1065258
vn 0 0 0
vn 0 1 0
vn 0 0 0
vn 0 1 0
vn 0 0 0
vn 0.0006373613 0.9943095 0.106528
vn 0 0 0
vn 0.0006420807 0.9943085 0.1065373
vn 0 0 0
vn 0 1 0
vn 0 0 0
vn 0 1 0
vn 0 0 0
vn 0.0006390609 0.9943078 0.1065444
vn 0 0 0
vn 0.0006455423 0.9943057 0.1065636
vn 0 0 0
vn 0 1 0
vn 0 0 0
vn 0 1 0
vn 0 0 0
vn 0.0006366382 0.9943044 0.1065757
vn 0 0 0
vn 0.0006448728 0.9943014 0.1066041
vn 0 0 0
vn 0 1 0
vn 0 0 0
vn 0 1 0
vn 0 0 0
vn 0.0006302594 0.9942995 0.1066205
vn 0 0 0
vn 0.0006397275 0.9942956 0.1066571
vn 0 0 0
vn 0 1 0
vn 0 0 0
vn 0 1 0
vn 0 0 0
vn 0.0006199123 0.9942934 0.1066777
vn 0 0 0
vn 0.0006309859 0.9942887 0.1067219
vn 0 0 0
vn 0 0.9999999 0
vn 0 0 0
vn 0 1 0
vn 0 0 0
vn 0.0006064324 0.9942861 0.1067461
vn 0 0 0
vn 0.0006186735 0.9942806 0.1067977
vn 0 0 0
vn 0 1 0
vn 0 0 0
vn 0 1 0
vn 0 0 0
vn 0.0004526249 0.9942775 0.1068268
vn 0 0 0
vn 0.0003575358 0.9942667 0.1069283
vn 0 0 0
vn 0 1 0
vn 0 0 0
vn 0 1 0
vn 0 0 0
vn 0.0004381756 0.9942589 0.1070004
vn 0 0 0
vn 0.0006804939 0.9942511 0.1070717
vn 0 0 0
vn 0 1 0
vn 0 0 0
vn 0 1 0
vn 0 0 0
vn 0.0008768566 0.9942511 0.10707
vn 0 0 0
vn 0.0008783071 0.9942511 0.10707
vn 0 0 0
vn 0 1 0
vn 0 0 0
vn 0 1 0
vn 0 0 0
vn 0.001108157 0.9942511 0.1070681
vn 0 0 0
vn 0.001291465 0.9942585 0.1069972
vn 0 0 0
vn 0 1 0
vn 0 0 0
vn 0 1 0
vn 0 0 0
vn 0.001431034 0.9942659 0.1069263
vn 0 0 0
vn 0.00131201 0.994278 0.1068154
vn 0 0 0
vn 0 0.9999999 0
vn 0 0 0
vn 0 1 0
vn 0 0 0
vn 0.001274467 0.9942826 0.1067732
vn 0 0 0
vn 0.001251245 0.9942919 0.1066862
vn 0 0 0
vn 0 1 0
vn 0 0 0
vn 0 0.9999999 0
vn 0 0 0
vn 0.001291154 0.9942967 0.1066412
vn 0 0 0
vn 0.001265132 0.9943066 0.1065498
vn 0 0 0
vn 0 1 0
vn 0 0 0
vn 0 1 0
vn 0 0 0
vn 0.001304367 0.9943116 0.1065026
vn 0 0 0
vn 0.001276413 0.9943218 0.1064072
vn 0 0 0
vn 0 1 0
vn 0 0 0
vn 0 1 0
vn 0 0 0
vn 0.001315228 0.994327 0.1063582
vn 0 0 0
vn 0.001284678 0.9943377 0.1062589
vn 0 0 0
vn 0 1 0
vn 0 0 0
vn 0 1 0
vn 0 0 0
vn 0.001323089 0.9943431 0.1062077
vn 0 0 0
vn 0.001290999 0.9943541 0.1061048
vn 0 0 0
vn 0 0.9999999 0
vn 0 0 0
vn 0 1 0
vn 0 0 0
vn 0.001328605 0.9943597 0.1060522
vn 0 0 0
vn 0.001293444 0.9943711 0.105946
vn 0 0 0
vn 0 1 0
vn 0 0 0
vn 0 1 0
vn 0 0 0
vn 0.001933062 0.9943763 0.1058869
vn 0 0 0
vn 0.001885942 0.994485 0.1048619
vn 0 0 0
vn 0 1 0
vn 0 0 0
vn 0 1 0
vn 0 0 0
vn 0.009347606 0.9945512 0.1038297
vn 0 0 0
vn 0.008570153 0.9957651 0.09153451
vn 0 0 0
vn 0 1 0
vn 0 0 0
vn 0 1 0
vn 0 0 0
vn 0.01225599 0.996236 0.08581202
vn 0 0 0
vn 0.0008188889 0.9976277 0.06883486
vn 0 0 0

vt 0 0
vt 0 0
vt -0.001733398 -0.5999939
vt -0.001733398 -0.5999939
vt 0.001879883 0.65
vt 0.001879883 0.65
vt 0 0
vt 0 0
vt 0.9996673 -0.002648926
vt 0.9996673 -0.002648926
vt 0.9987488 -0.6026428
vt 0.9987488 -0.6026428
vt 1.000659 0.647345
vt 1.000659 0.647345
vt 0.9996673 -0.002648926
vt 0.9996673 -0.002648926
vt 1.995065 0.00357666
vt 1.995065 0.00357666
vt 1.995413 -0.6031067
vt 1.995413 -0.6031067
vt 1.994693 0.6552368
vt 1.994693 0.6552368
vt 1.995065 0.00357666
vt 1.995065 0.00357666
vt 2.9944 0.007647705
vt 2.9944 0.007647705
vt 2.995728 -0.6017395
vt 2.995728 -0.6017395
vt 2.992981 0.6599731
vt 2.992981 0.6599731
vt 2.9944 0.007647705
vt 2.9944 0.007647705
vt 3.992538 0.01238403
vt 3.992538 0.01238403
vt 3.994635 -0.5989441
vt 3.994635 -0.5989441
vt 3.990299 0.6651856
vt 3.990299 0.6651856
vt 3.992538 0.01238403
vt 3.992538 0.01238403
vt 4.997232 0.01765137
vt 4.997232 0.01765137
vt 4.999948 -0.5949829
vt 4.999948 -0.5949829
vt 4.994339 0.6707703
vt 4.994339 0.6707703
vt 4.997232 0.01765137
vt 4.997232 0.01765137
vt 6.000558 0.02325439
vt 6.000558 0.02325439
vt 6.003769 -0.5901245
vt 6.003769 -0.5901245
vt 5.997138 0.6765625
vt 5.997138 0.6765625
vt 6.000558 0.02325439
vt 6.000558 0.02325439
vt 7.005676 0.02911987
vt 7.005676 0.02911987
vt 7.00929 -0.5845215
vt 7.00929 -0.5845215
vt 7.001825 0.682489
vt 7.001825 0.682489
vt 7.005676 0.02911987
vt 7.005676 0.02911987
vt 8.006949 0.03513794
vt 8.006949 0.03513794
vt 8.010886 -0.5783325
vt 8.010886 -0.5783325
vt 8.002753 0.6884643
vt 8.002753 0.6884643
vt 8.006949 0.03513794
vt 8.006949 0.03513794
vt 9.010355 0.04125977
vt 9.010355 0.04125977
vt 9.014554 -0.5716492
vt 9.014554 -0.5716492
vt 9.005877 0.6944519
vt 9.005877 0.6944519
vt 9.010355 0.04125977
vt 9.010355 0.04125977
vt 10.01202 0.04741821
vt 10.01202 0.04741821
vt 10.01643 -0.5645813
vt 10.01643 -0.5645813
vt 10.00732 0.7003846
vt 10.00732 0.7003846
vt 10.01202 0.04741821
vt 10.01202 0.04741821
vt 11.0202 0.05361938
vt 11.0202 0.05361938
vt 11.02477 -0.5571411
vt 11.02477 -0.5571411
vt 11.01531 0.7062805
vt 11.01531 0.7062805
vt 11.0202 0.05361938
vt 11.0202 0.05361938
vt 12.02019 0.05972901
vt 12.02019 0.05972901
vt 12.02489 -0.5495117
vt 12.02489 -0.5495117
vt 12.01515 0.7120118
vt 12.01515 0.7120118
vt 12.02019 0.05972901
vt 12.02019 0.05972901
vt 13.02124 0.06577148
vt 13.02124 0.06577148
vt 13.02603 -0.5416687
vt 13.02603 -0.5416687
vt 13.01609 0.7176086
vt 13.01609 0.7176086
vt 13.02124 0.06577148
vt 13.02124 0.06577148
vt 14.02109 0.071698
vt 14.02109 0.071698
vt 14.02596 -0.5336914
vt 14.02596 -0.5336914
vt 14.01586 0.7230225
vt 14.01586 0.7230225
vt 14.02109 0.071698
vt 14.02109 0.071698
vt 15.03077 0.07445679
vt 15.03077 0.07445679
vt 15.03565 -0.5255249
vt 15.03565 -0.5255249
vt 15.02549 0.7244324
vt 15.02549 0.7244324
vt 15.03077 0.07445679
vt 15.03077 0.07445679
vt 16.03563 0.08267212
vt 16.03563 0.08267212
vt 16.04055 -0.5173096
vt 16.04055 -0.5173096
vt 16.0303 0.7326477
vt 16.0303 0.7326477
vt 16.03563 0.08267212
vt 16.03563 0.08267212
vt 17.04735 0.09098511
vt 17.04735 0.09098511
vt 17.0523 -0.5089905
vt 17.0523 -0.5089905
vt 17.042 0.7409607
vt 17.042 0.7409607
vt 17.04735 0.09098511
vt 17.04735 0.09098511
vt 18.05094 0.1044067
vt 18.05094 0.1044067
vt 18.05593 -0.5007202
vt 18.05593 -0.5007202
vt 18.04556 0.7556641
vt 18.04556 0.7556641
vt 18.05094 0.1044067
vt 18.05094 0.1044067
vt 19.05876 0.1158447
vt 19.05876 0.1158447
vt 19.06377 -0.4924195
vt 19.06377 -0.4924195
vt 19.05338 0.7678894
vt 19.05338 0.7678894
vt 19.05876 0.1158447
vt 19.05876 0.1158447
vt 20.06975 0.127478
vt 20.06975 0.127478
vt 20.07478 -0.4841247
vt 20.07478 -0.4841247
vt 20.0644 0.7803528
vt 20.0644 0.7803528
vt 20.06975 0.127478
vt 20.06975 0.127478
vt 21.08298 0.1392578
vt 21.08298 0.1392578
vt 21.08799 -0.4758606
vt 21.08799 -0.4758606
vt 21.07764 0.7930054
vt 21.07764 0.7930054
vt 21.08298 0.1392578
vt 21.08298 0.1392578
vt 22.09745 0.1511597
vt 22.09745 0.1511597
vt 22.10246 -0.4676514
vt 22.10246 -0.4676514
vt 22.09215 0.8058167
vt 22.09215 0.8058167
vt 22.09745 0.1511597
vt 22.09745 0.1511597
vt 23.11227 0.1631348
vt 23.11227 0.1631348
vt 23.11726 -0.4595276
vt 23.11726 -0.4595276
vt 23.10702 0.8187439
vt 23.10702 0.8187439
vt 23.11227 0.1631348
vt 23.11227 0.1631348
vt 24.12655 0.1751709
vt 24.12655 0.1751709
vt 24.13151 -0.4515015
vt 24.13151 -0.4515015
vt 24.12135 0.8317627
vt 24.12135 0.8317627
vt 24.12655 0.1751709
vt 24.12655 0.1751709
vt 25.13944 0.1872009
vt 25.13944 0.1872009
vt 25.14437 -0.4436157
vt 25.14437 -0.4436157
vt 25.13431 0.844812
vt 25.13431 0.844812
vt 25.13944 0.1872009
vt 25.13944 0.1872009
vt 26.15011 0.1992249
vt 26.15011 0.1992249
vt 26.15499 -0.4358704
vt 26.15499 -0.4358704
vt 26.14505 0.8578858
vt 26.14505 0.8578858
vt 26.15011 0.1992249
vt 26.15011 0.1992249
vt 27.15775 0.2112122
vt 27.15775 0.2112122
vt 27.16258 -0.4282898
vt 27.16258 -0.4282898
vt 27.15276 0.8709534
vt 27.15276 0.8709534
vt 27.15775 0.2112122
vt 27.15775 0.2112122

usemtl GSDShoulder1
usemap GSDShoulder1
f 9/9/9 1/1/1 3/3/3
f 11/11/11 9/9/9 3/3/3
f 13/13/13 5/5/5 7/7/7
f 15/15/15 13/13/13 7/7/7
f 17/17/17 9/9/9 11/11/11
f 19/19/19 17/17/17 11/11/11
f 21/21/21 13/13/13 15/15/15
f 23/23/23 21/21/21 15/15/15
f 25/25/25 17/17/17 19/19/19
f 27/27/27 25/25/25 19/19/19
f 29/29/29 21/21/21 23/23/23
f 31/31/31 29/29/29 23/23/23
f 33/33/33 25/25/25 27/27/27
f 35/35/35 33/33/33 27/27/27
f 37/37/37 29/29/29 31/31/31
f 39/39/39 37/37/37 31/31/31
f 41/41/41 33/33/33 35/35/35
f 43/43/43 41/41/41 35/35/35
f 45/45/45 37/37/37 39/39/39
f 47/47/47 45/45/45 39/39/39
f 49/49/49 41/41/41 43/43/43
f 51/51/51 49/49/49 43/43/43
f 53/53/53 45/45/45 47/47/47
f 55/55/55 53/53/53 47/47/47
f 57/57/57 49/49/49 51/51/51
f 59/59/59 57/57/57 51/51/51
f 61/61/61 53/53/53 55/55/55
f 63/63/63 61/61/61 55/55/55
f 65/65/65 57/57/57 59/59/59
f 67/67/67 65/65/65 59/59/59
f 69/69/69 61/61/61 63/63/63
f 71/71/71 69/69/69 63/63/63
f 73/73/73 65/65/65 67/67/67
f 75/75/75 73/73/73 67/67/67
f 77/77/77 69/69/69 71/71/71
f 79/79/79 77/77/77 71/71/71
f 81/81/81 73/73/73 75/75/75
f 83/83/83 81/81/81 75/75/75
f 85/85/85 77/77/77 79/79/79
f 87/87/87 85/85/85 79/79/79
f 89/89/89 81/81/81 83/83/83
f 91/91/91 89/89/89 83/83/83
f 93/93/93 85/85/85 87/87/87
f 95/95/95 93/93/93 87/87/87
f 97/97/97 89/89/89 91/91/91
f 99/99/99 97/97/97 91/91/91
f 101/101/101 93/93/93 95/95/95
f 103/103/103 101/101/101 95/95/95
f 105/105/105 97/97/97 99/99/99
f 107/107/107 105/105/105 99/99/99
f 109/109/109 101/101/101 103/103/103
f 111/111/111 109/109/109 103/103/103
f 113/113/113 105/105/105 107/107/107
f 115/115/115 113/113/113 107/107/107
f 117/117/117 109/109/109 111/111/111
f 119/119/119 117/117/117 111/111/111
f 121/121/121 113/113/113 115/115/115
f 123/123/123 121/121/121 115/115/115
f 125/125/125 117/117/117 119/119/119
f 127/127/127 125/125/125 119/119/119
f 129/129/129 121/121/121 123/123/123
f 131/131/131 129/129/129 123/123/123
f 133/133/133 125/125/125 127/127/127
f 135/135/135 133/133/133 127/127/127
f 137/137/137 129/129/129 131/131/131
f 139/139/139 137/137/137 131/131/131
f 141/141/141 133/133/133 135/135/135
f 143/143/143 141/141/141 135/135/135
f 145/145/145 137/137/137 139/139/139
f 147/147/147 145/145/145 139/139/139
f 149/149/149 141/141/141 143/143/143
f 151/151/151 149/149/149 143/143/143
f 153/153/153 145/145/145 147/147/147
f 155/155/155 153/153/153 147/147/147
f 157/157/157 149/149/149 151/151/151
f 159/159/159 157/157/157 151/151/151
f 161/161/161 153/153/153 155/155/155
f 163/163/163 161/161/161 155/155/155
f 165/165/165 157/157/157 159/159/159
f 167/167/167 165/165/165 159/159/159
f 169/169/169 161/161/161 163/163/163
f 171/171/171 169/169/169 163/163/163
f 173/173/173 165/165/165 167/167/167
f 175/175/175 173/173/173 167/167/167
f 177/177/177 169/169/169 171/171/171
f 179/179/179 177/177/177 171/171/171
f 181/181/181 173/173/173 175/175/175
f 183/183/183 181/181/181 175/175/175
f 185/185/185 177/177/177 179/179/179
f 187/187/187 185/185/185 179/179/179
f 189/189/189 181/181/181 183/183/183
f 191/191/191 189/189/189 183/183/183
f 193/193/193 185/185/185 187/187/187
f 195/195/195 193/193/193 187/187/187
f 197/197/197 189/189/189 191/191/191
f 199/199/199 197/197/197 191/191/191
f 201/201/201 193/193/193 195/195/195
f 203/203/203 201/201/201 195/195/195
f 205/205/205 197/197/197 199/199/199
f 207/207/207 205/205/205 199/199/199
f 209/209/209 201/201/201 203/203/203
f 211/211/211 209/209/209 203/203/203
f 213/213/213 205/205/205 207/207/207
f 215/215/215 213/213/213 207/207/207
f 217/217/217 209/209/209 211/211/211
f 219/219/219 217/217/217 211/211/211
f 221/221/221 213/213/213 215/215/215
f 223/223/223 221/221/221 215/215/215
