mtllib ./Road1_0_238.mtl
g SCutL29
v -29.90969 0.03 474.5918
v -29.90969 0.03 474.5918
v -32.90221 0.03 474.8035
v -32.90221 0.03 474.8035
v -27.91467 -0.3407326 474.4507
v -27.91467 -0.3407326 474.4507
v -29.90969 0.03 474.5918
v -29.90969 0.03 474.5918
v -29.55033 0.03 479.6026
v -29.55033 0.03 479.6026
v -32.54277 0.03 479.8153
v -32.54277 0.03 479.8153
v -27.55536 -0.3407326 479.4608
v -27.55536 -0.3407326 479.4608
v -29.55033 0.03 479.6026
v -29.55033 0.03 479.6026
v -29.19328 0.03 484.7174
v -29.19328 0.03 484.7174
v -32.18626 0.03 484.9225
v -32.18626 0.03 484.9225
v -27.19797 -0.3407326 484.5807
v -27.19797 -0.3407326 484.5807
v -29.19328 0.03 484.7174
v -29.19328 0.03 484.7174
v -28.85457 0.03 489.7524
v -28.85457 0.03 489.7524
v -31.84806 0.03 489.95
v -31.84806 0.03 489.95
v -26.85892 -0.3407326 489.6207
v -26.85892 -0.3407326 489.6207
v -28.85457 0.03 489.7524
v -28.85457 0.03 489.7524
v -28.52485 0.03 494.8467
v -28.52485 0.03 494.8467
v -31.51883 0.03 495.0367
v -31.51883 0.03 495.0367
v -26.52886 -0.3407326 494.7201
v -26.52886 -0.3407326 494.7201
v -28.52485 0.03 494.8467
v -28.52485 0.03 494.8467
v -28.21253 0.03 499.869
v -28.21253 0.03 499.869
v -31.20697 0.03 500.0515
v -31.20697 0.03 500.0515
v -26.21623 -0.3407326 499.7474
v -26.21623 -0.3407326 499.7474
v -28.21253 0.03 499.869
v -28.21253 0.03 499.869
v -27.90902 0.03 504.9562
v -27.90902 0.03 504.9562
v -30.90391 0.03 505.1311
v -30.90391 0.03 505.1311
v -25.91242 -0.3407326 504.8396
v -25.91242 -0.3407326 504.8396
v -27.90902 0.03 504.9562
v -27.90902 0.03 504.9562
v -27.62172 0.03 509.9813
v -27.62172 0.03 509.9813
v -30.61704 0.03 510.1489
v -30.61704 0.03 510.1489
v -25.62484 -0.3407326 509.8696
v -25.62484 -0.3407326 509.8696
v -27.62172 0.03 509.9813
v -27.62172 0.03 509.9813
v -27.34285 0.03 515.077
v -27.34285 0.03 515.077
v -30.33856 0.03 515.2373
v -30.33856 0.03 515.2373
v -25.3457 -0.3407326 514.9701
v -25.3457 -0.3407326 514.9701
v -27.34285 0.03 515.077
v -27.34285 0.03 515.077
v -27.07873 0.03 520.1224
v -27.07873 0.03 520.1224
v -30.0748 0.03 520.2758
v -30.0748 0.03 520.2758
v -25.08134 -0.3407326 520.0201
v -25.08134 -0.3407326 520.0201
v -27.07873 0.03 520.1224
v -27.07873 0.03 520.1224
v -26.82213 0.03 525.2495
v -26.82213 0.03 525.2495
v -29.81855 0.03 525.3961
v -29.81855 0.03 525.3961
v -24.82452 -0.3407326 525.1518
v -24.82452 -0.3407326 525.1518
v -26.82213 0.03 525.2495
v -26.82213 0.03 525.2495
v -26.57865 0.03 530.338
v -26.57865 0.03 530.338
v -29.57537 0.03 530.4783
v -29.57537 0.03 530.4783
v -24.58084 -0.3407326 530.2446
v -24.58084 -0.3407326 530.2446
v -26.57865 0.03 530.338
v -26.57865 0.03 530.338
v -26.34701 0.03 535.3969
v -26.34701 0.03 535.3969
v -29.344 0.03 535.5311
v -29.344 0.03 535.5311
v -24.34901 -0.3407326 535.3073
v -24.34901 -0.3407326 535.3073
v -26.34701 0.03 535.3969
v -26.34701 0.03 535.3969
v -26.12596 0.03 540.434
v -26.12596 0.03 540.434
v -29.12319 0.03 540.5629
v -29.12319 0.03 540.5629
v -24.1278 -0.3407326 540.3481
v -24.1278 -0.3407326 540.3481
v -26.12596 0.03 540.434
v -26.12596 0.03 540.434
v -25.91428 0.03 545.4567
v -25.91428 0.03 545.4567
v -28.91172 0.03 545.5806
v -28.91172 0.03 545.5806
v -23.91599 -0.3407326 545.3741
v -23.91599 -0.3407326 545.3741
v -25.91428 0.03 545.4567
v -25.91428 0.03 545.4567
v -25.7107 0.03 550.4733
v -25.7107 0.03 550.4733
v -28.70832 0.03 550.5928
v -28.70832 0.03 550.5928
v -23.71229 -0.3407326 550.3937
v -23.71229 -0.3407326 550.3937
v -25.7107 0.03 550.4733
v -25.7107 0.03 550.4733
v -25.51399 0.03 555.4922
v -25.51399 0.03 555.4922
v -28.51176 0.03 555.6078
v -28.51176 0.03 555.6078
v -23.51547 -0.3407326 555.4151
v -23.51547 -0.3407326 555.4151
v -25.51399 0.03 555.4922
v -25.51399 0.03 555.4922
v -25.32291 0.03 560.5204
v -25.32291 0.03 560.5204
v -28.32081 0.03 560.6328
v -28.32081 0.03 560.6328
v -23.32431 -0.3407326 560.4456
v -23.32431 -0.3407326 560.4456
v -25.32291 0.03 560.5204
v -25.32291 0.03 560.5204
v -25.1362 0.03 565.5666
v -25.1362 0.03 565.5666
v -28.1342 0.03 565.6762
v -28.1342 0.03 565.6762
v -23.13754 -0.3407326 565.4935
v -23.13754 -0.3407326 565.4935
v -25.1362 0.03 565.5666
v -25.1362 0.03 565.5666
v -24.95262 0.03 570.6389
v -24.95262 0.03 570.6389
v -27.9507 0.03 570.7464
v -27.9507 0.03 570.7464
v -22.95391 -0.3407326 570.5672
v -22.95391 -0.3407326 570.5672
v -24.95262 0.03 570.6389
v -24.95262 0.03 570.6389
v -24.77094 0.03 575.7444
v -24.77094 0.03 575.7444
v -27.76907 0.03 575.8503
v -27.76907 0.03 575.8503
v -22.77219 -0.3407326 575.6738
v -22.77219 -0.3407326 575.6738
v -24.77094 0.03 575.7444
v -24.77094 0.03 575.7444
v -24.59431 0.03 580.7662
v -24.59431 0.03 580.7662
v -27.59247 0.03 580.8712
v -27.59247 0.03 580.8712
v -22.59554 -0.3407326 580.6962
v -22.59554 -0.3407326 580.6962
v -24.59431 0.03 580.7662
v -24.59431 0.03 580.7662
v -24.41715 0.03 585.835
v -24.41715 0.03 585.835
v -27.41532 0.03 585.9396
v -27.41532 0.03 585.9396
v -22.41837 -0.3407326 585.7652
v -22.41837 -0.3407326 585.7652
v -24.41715 0.03 585.835
v -24.41715 0.03 585.835
v -24.2383 0.03 590.9584
v -24.2383 0.03 590.9584
v -27.23647 0.03 591.0632
v -27.23647 0.03 591.0632
v -22.23952 -0.3407326 590.8886
v -22.23952 -0.3407326 590.8886
v -24.2383 0.03 590.9584
v -24.2383 0.03 590.9584
v -24.06119 0.03 596.0134
v -24.06119 0.03 596.0134
v -27.05934 0.03 596.1188
v -27.05934 0.03 596.1188
v -22.06242 -0.3407326 595.9432
v -22.06242 -0.3407326 595.9432
v -24.06119 0.03 596.0134
v -24.06119 0.03 596.0134

vn 0 1 0
vn 0 0 0
vn 0 1 0
vn 0 0 0
vn 0.1817946 0.9832501 -0.01303792
vn 0 0 0
vn 0.1817946 0.9832501 -0.01303795
vn 0 0 0
vn 0 1 0
vn 0 0 0
vn 0 1 0
vn 0 0 0
vn 0.181803 0.9832501 -0.01292097
vn 0 0 0
vn 0.1818112 0.9832501 -0.0128057
vn 0 0 0
vn 0 1 0
vn 0 0 0
vn 0 1 0
vn 0 0 0
vn 0.1818296 0.98325 -0.0125406
vn 0 0 0
vn 0.1818401 0.9832501 -0.0123877
vn 0 0 0
vn -8.076712E-12 1 -1.223551E-10
vn 0 0 0
vn -1.57875E-11 1 -2.43914E-10
vn 0 0 0
vn 0.1818609 0.9832501 -0.01207838
vn 0 0 0
vn 0.181871 0.9832501 -0.01192477
vn 0 0 0
vn -1.579463E-11 1 -2.440242E-10
vn 0 0 0
vn -7.782316E-12 1 -1.2267E-10
vn 0 0 0
vn 0.1818906 0.9832501 -0.01162044
vn 0 0 0
vn 0.1819003 0.9832502 -0.01146705
vn 0 0 0
vn 7.475244E-12 1 1.226975E-10
vn 0 0 0
vn 1.458831E-11 1 2.44499E-10
vn 0 0 0
vn 0.1819194 0.9832501 -0.01115843
vn 0 0 0
vn 0.1819287 0.9832501 -0.01100594
vn 0 0 0
vn 7.443078E-12 1 1.221696E-10
vn 0 0 0
vn -6.869678E-12 1 -1.227717E-10
vn 0 0 0
vn 0.1819467 0.9832502 -0.01070547
vn 0 0 0
vn 0.1819555 0.9832502 -0.010555
vn 0 0 0
vn -7.162958E-12 1 -1.22636E-10
vn 0 0 0
vn 6.538562E-12 0.9999999 1.221637E-10
vn 0 0 0
vn 0.1819728 0.9832501 -0.01025408
vn 0 0 0
vn 0.1819811 0.9832501 -0.01010628
vn 0 0 0
vn 1.33502E-11 1 2.43889E-10
vn 0 0 0
vn 6.552169E-12 1 1.224179E-10
vn 0 0 0
vn 0.1819969 0.98325 -0.00981684
vn 0 0 0
vn 0.1820046 0.98325 -0.009672916
vn 0 0 0
vn 0 1 0
vn 0 0 0
vn 0 1 0
vn 0 0 0
vn 0.1820196 0.98325 -0.009387239
vn 0 0 0
vn 0.1820268 0.9832501 -0.009247947
vn 0 0 0
vn -5.928193E-12 1 -1.211634E-10
vn 0 0 0
vn -1.163425E-11 1 -2.430607E-10
vn 0 0 0
vn 0.1820403 0.98325 -0.008977752
vn 0 0 0
vn 0.1820468 0.98325 -0.008844724
vn 0 0 0
vn -1.168204E-11 0.9999999 -2.440591E-10
vn 0 0 0
vn -5.725356E-12 1 -1.22326E-10
vn 0 0 0
vn 0.1820592 0.98325 -0.008586829
vn 0 0 0
vn 0.182065 0.9832501 -0.008462128
vn 0 0 0
vn 5.497804E-12 1 1.227078E-10
vn 0 0 0
vn 1.079281E-11 1 2.458722E-10
vn 0 0 0
vn 0.1820759 0.9832501 -0.008221857
vn 0 0 0
vn 0.1820811 0.9832501 -0.008106418
vn 0 0 0
vn 5.519135E-12 1 1.231839E-10
vn 0 0 0
vn -5.099361E-12 0.9999999 -1.233645E-10
vn 0 0 0
vn 0.1820908 0.9832501 -0.007885503
vn 0 0 0
vn 0.1820953 0.9832501 -0.007780115
vn 0 0 0
vn -5.308389E-12 1 -1.234851E-10
vn 0 0 0
vn 4.92715E-12 1 1.235889E-10
vn 0 0 0
vn 0.1821037 0.9832501 -0.007579811
vn 0 0 0
vn 0.1821077 0.9832501 -0.007485022
vn 0 0 0
vn 5.108142E-12 1 1.235769E-10
vn 0 0 0
vn -4.76655E-12 1 -1.236069E-10
vn 0 0 0
vn 0.182115 0.9832501 -0.007306157
vn 0 0 0
vn 0.1821183 0.98325 -0.007222165
vn 0 0 0
vn -1.609012E-13 0.9999999 6.285203E-15
vn 0 0 0
vn 1.401305E-11 1 3.703068E-10
vn 0 0 0
vn 0.1821244 0.9832501 -0.007065723
vn 0 0 0
vn 0.1821272 0.98325 -0.006993354
vn 0 0 0
vn 9.500188E-12 1 2.463603E-10
vn 0 0 0
vn -8.999646E-12 0.9999999 -2.461331E-10
vn 0 0 0
vn 0.1821324 0.9832501 -0.006860314
vn 0 0 0
vn 0.1821346 0.9832501 -0.006799658
vn 0 0 0
vn -1.368245E-11 1 -3.68048E-10
vn 0 0 0
vn -8.47888E-14 1 3.195166E-15
vn 0 0 0
vn 0.1821386 0.9832501 -0.006690001
vn 0 0 0
vn 0.1821403 0.9832501 -0.006641015
vn 0 0 0
vn 1.321317E-11 1 3.659949E-10
vn 0 0 0
vn 1.303715E-11 1 3.652441E-10
vn 0 0 0
vn 0.1821434 0.9832501 -0.006555195
vn 0 0 0
vn 0.1821449 0.9832501 -0.006518357
vn 0 0 0
vn 4.381129E-12 0.9999999 1.221356E-10
vn 0 0 0
vn -4.303123E-12 1 -1.228225E-10
vn 0 0 0
vn 0.1821472 0.9832501 -0.006456923
vn 0 0 0
vn 0.1821481 0.9832501 -0.006431927
vn 0 0 0
vn -8.663926E-12 1 -2.462169E-10
vn 0 0 0
vn -4.299909E-12 1 -1.227307E-10
vn 0 0 0
vn 0.1821494 0.9832501 -0.006393186
vn 0 0 0
vn 0.1821498 0.9832501 -0.006379803
vn 0 0 0
vn -4.256122E-12 1 -1.219065E-10
vn 0 0 0
vn -8.48673E-12 1 -2.429404E-10
vn 0 0 0
vn 0.1821503 0.9832502 -0.006363793
vn 0 0 0
vn 0.1821504 0.98325 -0.006361092
vn 0 0 0
vn -4.244609E-12 1 -1.215767E-10
vn 0 0 0
vn 4.293346E-12 1 1.221171E-10
vn 0 0 0
vn 0.1821503 0.9832501 -0.006366205
vn 0 0 0
vn 0.18215 0.98325 -0.006374058
vn 0 0 0
vn 1.290057E-11 1 3.680021E-10
vn 0 0 0
vn 1.293725E-11 0.9999999 3.679785E-10
vn 0 0 0
vn 0.1821497 0.9832501 -0.00638197
vn 0 0 0
vn 0.1821497 0.9832501 -0.006381939
vn 0 0 0

vt 0 0
vt 0 0
vt 0.5985047 0.04233399
vt 0.5985047 0.04233399
vt -0.3990032 -0.02822266
vt -0.3990032 -0.02822266
vt 0 0
vt 0 0
vt -0.07187309 1.002161
vt -0.07187309 1.002161
vt 0.5266167 1.044702
vt 0.5266167 1.044702
vt -0.4708664 0.9738037
vt -0.4708664 0.9738037
vt -0.07187309 1.002161
vt -0.07187309 1.002161
vt -0.1432812 2.025122
vt -0.1432812 2.025122
vt 0.4553146 2.066144
vt 0.4553146 2.066144
vt -0.542345 1.997772
vt -0.542345 1.997772
vt -0.1432812 2.025122
vt -0.1432812 2.025122
vt -0.2110233 3.032129
vt -0.2110233 3.032129
vt 0.3876739 3.071649
vt 0.3876739 3.071649
vt -0.6101547 3.005786
vt -0.6101547 3.005786
vt -0.2110233 3.032129
vt -0.2110233 3.032129
vt -0.2769692 4.050983
vt -0.2769692 4.050983
vt 0.3218269 4.088971
vt 0.3218269 4.088971
vt -0.6761665 4.025653
vt -0.6761665 4.025653
vt -0.2769692 4.050983
vt -0.2769692 4.050983
vt -0.3394325 5.055444
vt -0.3394325 5.055444
vt 0.2594566 5.091931
vt 0.2594566 5.091931
vt -0.7386925 5.031116
vt -0.7386925 5.031116
vt -0.3394325 5.055444
vt -0.3394325 5.055444
vt -0.4001347 6.072876
vt -0.4001347 6.072876
vt 0.1988445 6.107862
vt 0.1988445 6.107862
vt -0.7994545 6.049554
vt -0.7994545 6.049554
vt -0.4001347 6.072876
vt -0.4001347 6.072876
vt -0.4575939 7.077893
vt -0.4575939 7.077893
vt 0.1414692 7.111413
vt 0.1414692 7.111413
vt -0.8569695 7.055554
vt -0.8569695 7.055554
vt -0.4575939 7.077893
vt -0.4575939 7.077893
vt -0.513369 8.097034
vt -0.513369 8.097034
vt 0.08577347 8.129102
vt 0.08577347 8.129102
vt -0.9127976 8.07566
vt -0.9127976 8.07566
vt -0.513369 8.097034
vt -0.513369 8.097034
vt -0.566193 9.106116
vt -0.566193 9.106116
vt 0.03302231 9.136792
vt 0.03302231 9.136792
vt -0.96567 9.08567
vt -0.96567 9.08567
vt -0.566193 9.106116
vt -0.566193 9.106116
vt -0.6175122 10.13154
vt -0.6175122 10.13154
vt -0.01822891 10.16086
vt -0.01822891 10.16086
vt -1.017034 10.112
vt -1.017034 10.112
vt -0.6175122 10.13154
vt -0.6175122 10.13154
vt -0.6662079 11.14924
vt -0.6662079 11.14924
vt -0.06686363 11.17729
vt -0.06686363 11.17729
vt -1.065771 11.13055
vt -1.065771 11.13055
vt -0.6662079 11.14924
vt -0.6662079 11.14924
vt -0.7125363 12.16101
vt -0.7125363 12.16101
vt -0.1131378 12.18787
vt -0.1131378 12.18787
vt -1.112135 12.1431
vt -1.112135 12.1431
vt -0.7125363 12.16101
vt -0.7125363 12.16101
vt -0.7567467 13.16844
vt -0.7567467 13.16844
vt -0.1573006 13.19421
vt -0.1573006 13.19421
vt -1.156378 13.15127
vt -1.156378 13.15127
vt -0.7567467 13.16844
vt -0.7567467 13.16844
vt -0.7990822 14.17297
vt -0.7990822 14.17297
vt -0.1995941 14.19775
vt -0.1995941 14.19775
vt -1.198741 14.15646
vt -1.198741 14.15646
vt -0.7990822 14.17297
vt -0.7990822 14.17297
vt -0.839798 15.17631
vt -0.839798 15.17631
vt -0.2402741 15.20021
vt -0.2402741 15.20021
vt -1.239481 15.16038
vt -1.239481 15.16038
vt -0.839798 15.17631
vt -0.839798 15.17631
vt -0.8791405 16.18008
vt -0.8791405 16.18008
vt -0.279586 16.2032
vt -0.279586 16.2032
vt -1.278843 16.16466
vt -1.278843 16.16466
vt -0.8791405 16.18008
vt -0.8791405 16.18008
vt -0.9173557 17.18572
vt -0.9173557 17.18572
vt -0.3177765 17.20819
vt -0.3177765 17.20819
vt -1.317075 17.17075
vt -1.317075 17.17075
vt -0.9173557 17.18572
vt -0.9173557 17.18572
vt -0.9546978 18.19496
vt -0.9546978 18.19496
vt -0.3550987 18.21688
vt -0.3550987 18.21688
vt -1.354431 18.18033
vt -1.354431 18.18033
vt -0.9546978 18.19496
vt -0.9546978 18.19496
vt -0.9914139 19.20941
vt -0.9914139 19.20941
vt -0.3917992 19.23092
vt -0.3917992 19.23092
vt -1.391157 19.19508
vt -1.391157 19.19508
vt -0.9914139 19.20941
vt -0.9914139 19.20941
vt -1.02775 20.23052
vt -1.02775 20.23052
vt -0.4281242 20.25171
vt -0.4281242 20.25171
vt -1.4275 20.21639
vt -1.4275 20.21639
vt -1.02775 20.23052
vt -1.02775 20.23052
vt -1.063076 21.23488
vt -1.063076 21.23488
vt -0.4634434 21.25588
vt -0.4634434 21.25588
vt -1.46283 21.22087
vt -1.46283 21.22087
vt -1.063076 21.23488
vt -1.063076 21.23488
vt -1.098508 22.24863
vt -1.098508 22.24863
vt -0.4988735 22.26957
vt -0.4988735 22.26957
vt -1.498265 22.23468
vt -1.498265 22.23468
vt -1.098508 22.24863
vt -1.098508 22.24863
vt -1.134278 23.27333
vt -1.134278 23.27333
vt -0.5346439 23.29429
vt -0.5346439 23.29429
vt -1.534034 23.25936
vt -1.534034 23.25936
vt -1.134278 23.27333
vt -1.134278 23.27333
vt -1.1697 24.28433
vt -1.1697 24.28433
vt -0.5700707 24.30541
vt -0.5700707 24.30541
vt -1.569453 24.27028
vt -1.569453 24.27028
vt -1.1697 24.28433
vt -1.1697 24.28433

usemtl GSDShoulder1
usemap GSDShoulder1
f 9/9/9 1/1/1 3/3/3
f 11/11/11 9/9/9 3/3/3
f 13/13/13 5/5/5 7/7/7
f 15/15/15 13/13/13 7/7/7
f 17/17/17 9/9/9 11/11/11
f 19/19/19 17/17/17 11/11/11
f 21/21/21 13/13/13 15/15/15
f 23/23/23 21/21/21 15/15/15
f 25/25/25 17/17/17 19/19/19
f 27/27/27 25/25/25 19/19/19
f 29/29/29 21/21/21 23/23/23
f 31/31/31 29/29/29 23/23/23
f 33/33/33 25/25/25 27/27/27
f 35/35/35 33/33/33 27/27/27
f 37/37/37 29/29/29 31/31/31
f 39/39/39 37/37/37 31/31/31
f 41/41/41 33/33/33 35/35/35
f 43/43/43 41/41/41 35/35/35
f 45/45/45 37/37/37 39/39/39
f 47/47/47 45/45/45 39/39/39
f 49/49/49 41/41/41 43/43/43
f 51/51/51 49/49/49 43/43/43
f 53/53/53 45/45/45 47/47/47
f 55/55/55 53/53/53 47/47/47
f 57/57/57 49/49/49 51/51/51
f 59/59/59 57/57/57 51/51/51
f 61/61/61 53/53/53 55/55/55
f 63/63/63 61/61/61 55/55/55
f 65/65/65 57/57/57 59/59/59
f 67/67/67 65/65/65 59/59/59
f 69/69/69 61/61/61 63/63/63
f 71/71/71 69/69/69 63/63/63
f 73/73/73 65/65/65 67/67/67
f 75/75/75 73/73/73 67/67/67
f 77/77/77 69/69/69 71/71/71
f 79/79/79 77/77/77 71/71/71
f 81/81/81 73/73/73 75/75/75
f 83/83/83 81/81/81 75/75/75
f 85/85/85 77/77/77 79/79/79
f 87/87/87 85/85/85 79/79/79
f 89/89/89 81/81/81 83/83/83
f 91/91/91 89/89/89 83/83/83
f 93/93/93 85/85/85 87/87/87
f 95/95/95 93/93/93 87/87/87
f 97/97/97 89/89/89 91/91/91
f 99/99/99 97/97/97 91/91/91
f 101/101/101 93/93/93 95/95/95
f 103/103/103 101/101/101 95/95/95
f 105/105/105 97/97/97 99/99/99
f 107/107/107 105/105/105 99/99/99
f 109/109/109 101/101/101 103/103/103
f 111/111/111 109/109/109 103/103/103
f 113/113/113 105/105/105 107/107/107
f 115/115/115 113/113/113 107/107/107
f 117/117/117 109/109/109 111/111/111
f 119/119/119 117/117/117 111/111/111
f 121/121/121 113/113/113 115/115/115
f 123/123/123 121/121/121 115/115/115
f 125/125/125 117/117/117 119/119/119
f 127/127/127 125/125/125 119/119/119
f 129/129/129 121/121/121 123/123/123
f 131/131/131 129/129/129 123/123/123
f 133/133/133 125/125/125 127/127/127
f 135/135/135 133/133/133 127/127/127
f 137/137/137 129/129/129 131/131/131
f 139/139/139 137/137/137 131/131/131
f 141/141/141 133/133/133 135/135/135
f 143/143/143 141/141/141 135/135/135
f 145/145/145 137/137/137 139/139/139
f 147/147/147 145/145/145 139/139/139
f 149/149/149 141/141/141 143/143/143
f 151/151/151 149/149/149 143/143/143
f 153/153/153 145/145/145 147/147/147
f 155/155/155 153/153/153 147/147/147
f 157/157/157 149/149/149 151/151/151
f 159/159/159 157/157/157 151/151/151
f 161/161/161 153/153/153 155/155/155
f 163/163/163 161/161/161 155/155/155
f 165/165/165 157/157/157 159/159/159
f 167/167/167 165/165/165 159/159/159
f 169/169/169 161/161/161 163/163/163
f 171/171/171 169/169/169 163/163/163
f 173/173/173 165/165/165 167/167/167
f 175/175/175 173/173/173 167/167/167
f 177/177/177 169/169/169 171/171/171
f 179/179/179 177/177/177 171/171/171
f 181/181/181 173/173/173 175/175/175
f 183/183/183 181/181/181 175/175/175
f 185/185/185 177/177/177 179/179/179
f 187/187/187 185/185/185 179/179/179
f 189/189/189 181/181/181 183/183/183
f 191/191/191 189/189/189 183/183/183
f 193/193/193 185/185/185 187/187/187
f 195/195/195 193/193/193 187/187/187
f 197/197/197 189/189/189 191/191/191
f 199/199/199 197/197/197 191/191/191
