mtllib ./Road1_0_121.mtl
g Markers60
v -367.0892 34.23895 739.7889
v -367.0892 34.23895 739.7889
v -366.3793 34.23895 749.7635
v -366.3793 34.23895 749.7635
v -362.1394 34.20398 739.4183
v -362.1394 34.20398 739.4183
v -361.3394 34.20398 749.3859
v -361.3394 34.20398 749.3859
v -357.1053 34.15127 738.9833
v -357.1053 34.15127 738.9833
v -356.192 34.15127 748.9408
v -356.192 34.15127 748.9408
v -352.1613 34.08825 738.5112
v -352.1613 34.08825 738.5112
v -351.1794 34.08825 748.462
v -351.1794 34.08825 748.462
v -347.1735 34.02092 738.0081
v -347.1735 34.02092 738.0081
v -346.1524 34.02092 747.955
v -346.1524 34.02092 747.955
v -342.0891 33.95456 737.4811
v -342.0891 33.95456 737.4811
v -341.0523 33.95456 747.4264
v -341.0523 33.95456 747.4264
v -337.1068 33.89727 736.9623
v -337.1068 33.89727 736.9623
v -336.0763 33.89727 746.9085
v -336.0763 33.89727 746.9085
v -332.0295 33.85259 736.4424
v -332.0295 33.85259 736.4424
v -331.0276 33.85259 746.3919
v -331.0276 33.85259 746.3919
v -326.9289 33.82864 735.9418
v -326.9289 33.82864 735.9418
v -325.9824 33.82864 745.8969
v -325.9824 33.82864 745.8969

vn 0.00702633 0.9999752 -0.0005000688
vn 0 0 0
vn 0.006960598 0.9999756 -0.0005270107
vn 0 0 0
vn 0.008112954 0.9999669 -0.0006301071
vn 0 0 0
vn 0.009158056 0.9999577 -0.0007744328
vn 0 0 0
vn 0.01104838 0.9999385 -0.0009737756
vn 0 0 0
vn 0.01173226 0.9999306 -0.001104871
vn 0 0 0
vn 0.01281854 0.999917 -0.001235763
vn 0 0 0
vn 0.01302435 0.9999143 -0.001302736
vn 0 0 0
vn 0.01317539 0.9999123 -0.001334877
vn 0 0 0
vn 0.01301139 0.9999144 -0.001342507
vn 0 0 0
vn 0.01239342 0.9999223 -0.001285047
vn 0 0 0
vn 0.01188665 0.9999287 -0.00123675
vn 0 0 0
vn 0.0104792 0.9999445 -0.001088179
vn 0 0 0
vn 0.009608416 0.9999534 -0.0009870578
vn 0 0 0
vn 0.007365704 0.9999725 -0.0007502113
vn 0 0 0
vn 0.006033955 0.9999816 -0.0005988518
vn 0 0 0
vn 0.004677441 0.999989 -0.0004578677
vn 0 0 0
vn 0.004704454 0.9999889 -0.0004472727
vn 0 0 0

vt 0 866.6376
vt 0 0
vt 1 866.6376
vt 0 0
vt 0 867.6304
vt 0 867.6304
vt 1 867.6304
vt 1 867.6304
vt 0 868.641
vt 0 868.641
vt 1 868.641
vt 1 868.641
vt 0 869.6344
vt 0 869.6344
vt 1 869.6344
vt 1 869.6344
vt 0 870.6371
vt 0 870.6371
vt 1 870.6371
vt 1 870.6371
vt 0 871.6595
vt 0 871.6595
vt 1 871.6595
vt 1 871.6595
vt 0 872.6614
vt 0 872.6614
vt 1 872.6614
vt 1 872.6614
vt 0 873.6822
vt 0 873.6822
vt 1 873.6822
vt 1 873.6822
vt 0 874.7072
vt 0 874.7072
vt 1 874.7072
vt 1 874.7072

usemtl GSDWhiteYellowDouble
usemap GSDWhiteYellowDouble
f 5/5/5 1/1/1 3/3/3
f 7/7/7 5/5/5 3/3/3
f 9/9/9 5/5/5 7/7/7
f 11/11/11 9/9/9 7/7/7
f 13/13/13 9/9/9 11/11/11
f 15/15/15 13/13/13 11/11/11
f 17/17/17 13/13/13 15/15/15
f 19/19/19 17/17/17 15/15/15
f 21/21/21 17/17/17 19/19/19
f 23/23/23 21/21/21 19/19/19
f 25/25/25 21/21/21 23/23/23
f 27/27/27 25/25/25 23/23/23
f 29/29/29 25/25/25 27/27/27
f 31/31/31 29/29/29 27/27/27
f 33/33/33 29/29/29 31/31/31
f 35/35/35 33/33/33 31/31/31
