mtllib ./Road1_0_105.mtl
g Markers52
v -650.2383 27.13843 736.988
v -650.2383 27.13843 736.988
v -649.8386 27.13843 746.9481
v -649.8386 27.13843 746.9481
v -645.2208 27.54051 736.788
v -645.2208 27.54051 736.788
v -644.8122 27.54051 746.7478
v -644.8122 27.54051 746.7478
v -640.1603 27.94654 736.5746
v -640.1603 27.94654 736.5746
v -639.7307 27.94654 746.5335
v -639.7307 27.94654 746.5335
v -635.1275 28.34998 736.3544
v -635.1275 28.34998 736.3544
v -634.6871 28.34998 746.3127
v -634.6871 28.34998 746.3127
v -630.1229 28.75074 736.1324
v -630.1229 28.75074 736.1324
v -629.6821 28.75074 746.0908
v -629.6821 28.75074 746.0908
v -625.0217 29.15878 735.909
v -625.0217 29.15878 735.909
v -624.5917 29.15878 745.8679
v -624.5917 29.15878 745.8679
v -619.9543 29.56365 735.6953
v -619.9543 29.56365 735.6953
v -619.5466 29.56365 745.6552
v -619.5466 29.56365 745.6552
v -614.9229 29.96512 735.4975
v -614.9229 29.96512 735.4975
v -614.5493 29.96512 745.4587
v -614.5493 29.96512 745.4587
v -609.803 30.37306 735.3173
v -609.803 30.37306 735.3173
v -609.4772 30.37306 745.28
v -609.4772 30.37306 745.28

vn -0.07975172 0.9968097 0.003200117
vn 0 0 0
vn -0.07968002 0.9968153 0.003232924
vn 0 0 0
vn -0.07973436 0.9968109 0.003247109
vn 0 0 0
vn -0.07965189 0.9968172 0.003324043
vn 0 0 0
vn -0.07969992 0.9968132 0.003382185
vn 0 0 0
vn -0.07961278 0.9968199 0.003463613
vn 0 0 0
vn -0.0796672 0.9968154 0.003494681
vn 0 0 0
vn -0.07963662 0.9968178 0.003523069
vn 0 0 0
vn -0.07963686 0.9968178 0.003524063
vn 0 0 0
vn -0.07966552 0.9968155 0.003497428
vn 0 0 0
vn -0.07961093 0.99682 0.003466595
vn 0 0 0
vn -0.07970153 0.996813 0.003382205
vn 0 0 0
vn -0.07958788 0.9968224 0.003317778
vn 0 0 0
vn -0.07974219 0.9968104 0.003173213
vn 0 0 0
vn -0.07956301 0.9968251 0.003074192
vn 0 0 0
vn -0.07978527 0.996808 0.002863612
vn 0 0 0
vn -0.07969874 0.9968151 0.002797466
vn 0 0 0
vn -0.08007807 0.9967852 0.002618739
vn 0 0 0

vt 0 809.8996
vt 0 0
vt 1 809.8996
vt 0 0
vt 0 810.9071
vt 0 810.9071
vt 1 810.9071
vt 1 810.9071
vt 0 811.9233
vt 0 811.9233
vt 1 811.9233
vt 1 811.9233
vt 0 812.9341
vt 0 812.9341
vt 1 812.9341
vt 1 812.9341
vt 0 813.9392
vt 0 813.9392
vt 1 813.9392
vt 1 813.9392
vt 0 814.9637
vt 0 814.9637
vt 1 814.9637
vt 1 814.9637
vt 0 815.9813
vt 0 815.9813
vt 1 815.9813
vt 1 815.9813
vt 0 816.9915
vt 0 816.9915
vt 1 816.9915
vt 1 816.9915
vt 0 818.0193
vt 0 818.0193
vt 1 818.0193
vt 1 818.0193

usemtl GSDWhiteYellowDouble
usemap GSDWhiteYellowDouble
f 5/5/5 1/1/1 3/3/3
f 7/7/7 5/5/5 3/3/3
f 9/9/9 5/5/5 7/7/7
f 11/11/11 9/9/9 7/7/7
f 13/13/13 9/9/9 11/11/11
f 15/15/15 13/13/13 11/11/11
f 17/17/17 13/13/13 15/15/15
f 19/19/19 17/17/17 15/15/15
f 21/21/21 17/17/17 19/19/19
f 23/23/23 21/21/21 19/19/19
f 25/25/25 21/21/21 23/23/23
f 27/27/27 25/25/25 23/23/23
f 29/29/29 25/25/25 27/27/27
f 31/31/31 29/29/29 27/27/27
f 33/33/33 29/29/29 31/31/31
f 35/35/35 33/33/33 31/31/31
