mtllib ./Road1_0_71.mtl
g Markers35
v -286.2578 0.03973747 847.1281
v -286.2578 0.03973747 847.1281
v -286.7849 0.03973747 837.142
v -286.7849 0.03973747 837.142
v -291.2541 0.03928868 847.3954
v -291.2541 0.03928868 847.3954
v -291.8105 0.03928868 837.4109
v -291.8105 0.03928868 837.4109
v -296.2596 0.03417259 847.6854
v -296.2596 0.03417259 847.6854
v -296.8593 0.03417259 837.7035
v -296.8593 0.03417259 837.7035
v -301.3411 0.02479916 848.0005
v -301.3411 0.02479916 848.0005
v -301.9777 0.02479916 838.0208
v -301.9777 0.02479916 838.0208
v -306.3701 0.0120379 848.329
v -306.3701 0.0120379 848.329
v -307.0368 0.0120379 838.3514
v -307.0368 0.0120379 838.3514
v -311.4606 0.01 848.6758
v -311.4606 0.01 848.6758
v -312.1519 0.01 838.6997
v -312.1519 0.01 838.6997
v -316.4813 0.01 849.0287
v -316.4813 0.01 849.0287
v -317.1916 0.01 839.054
v -317.1916 0.01 839.054
v -321.5508 0.01 849.3936
v -321.5508 0.01 849.3936
v -322.2754 0.01 839.4199
v -322.2754 0.01 839.4199
v -326.5362 0.01 849.7582
v -326.5362 0.01 849.7582
v -327.2702 0.01 839.7853
v -327.2702 0.01 839.7853
v -331.5581 0.01 850.1294
v -331.5581 0.01 850.1294
v -332.2973 0.01 840.1569
v -332.2973 0.01 840.1569
v -336.6133 0.01 850.5045
v -336.6133 0.01 850.5045
v -337.3535 0.01 840.5321
v -337.3535 0.01 840.5321
v -341.6959 0.01 850.8812
v -341.6959 0.01 850.8812
v -342.4332 0.01 840.9085
v -342.4332 0.01 840.9085
v -346.8026 0.01 851.2571
v -346.8026 0.01 851.2571
v -347.5329 0.01 841.284
v -347.5329 0.01 841.284
v -351.7967 0.01 851.6202
v -351.7967 0.01 851.6202
v -352.5162 0.01 841.6462
v -352.5162 0.01 841.6462
v -356.8048 0.01 851.978
v -356.8048 0.01 851.978
v -357.5099 0.01 842.0031
v -357.5099 0.01 842.0031
v -361.8229 0.01 852.3283
v -361.8229 0.01 852.3283
v -362.5097 0.01 842.352
v -362.5097 0.01 842.352
v -366.847 0.01 852.6687
v -366.847 0.01 852.6687
v -367.5116 0.01 842.6909
v -367.5116 0.01 842.6909
v -371.8725 0.01 852.9971
v -371.8725 0.01 852.9971
v -372.5111 0.01 843.0176
v -372.5111 0.01 843.0176
v -376.8953 0.01 853.3111
v -376.8953 0.01 853.3111
v -377.5038 0.01 843.3297
v -377.5038 0.01 843.3297
v -381.9119 0.01 853.6085
v -381.9119 0.01 853.6085
v -382.4863 0.01 843.625
v -382.4863 0.01 843.625
v -387.0496 0.01 853.8942
v -387.0496 0.01 853.8942
v -387.5847 0.01 843.9085
v -387.5847 0.01 843.9085
v -392.1712 0.01 854.1575
v -392.1712 0.01 854.1575
v -392.6624 0.01 844.1696
v -392.6624 0.01 844.1696
v -397.2732 0.01 854.3961
v -397.2732 0.01 854.3961
v -397.7156 0.01 844.4059
v -397.7156 0.01 844.4059
v -402.3506 0.01 854.6076
v -402.3506 0.01 854.6076
v -402.7394 0.01 844.6152
v -402.7394 0.01 844.6152
v -407.3997 0.01 854.7894
v -407.3997 0.01 854.7894
v -407.7297 0.01 844.7949
v -407.7297 0.01 844.7949
v -412.5438 0.01 854.9424
v -412.5438 0.01 854.9424
v -412.8078 0.01 844.946
v -412.8078 0.01 844.946
v -417.6484 0.01 855.0593
v -417.6484 0.01 855.0593
v -417.8404 0.01 845.0612
v -417.8404 0.01 845.0612
v -422.7093 0.01 855.1367
v -422.7093 0.01 855.1367
v -422.8228 0.01 845.1376
v -422.8228 0.01 845.1376
v -427.8455 0.01 855.1729
v -427.8455 0.01 855.1729
v -427.8715 0.01 845.1732
v -427.8715 0.01 845.1732
v -432.9257 0.01 855.1621
v -432.9257 0.01 855.1621
v -432.8563 0.01 845.1628
v -432.8563 0.01 845.1628
v -438.067 0.01 855.0995
v -438.067 0.01 855.0995
v -437.8916 0.01 845.1017
v -437.8916 0.01 845.1017
v -443.139 0.01 854.9814
v -443.139 0.01 854.9814
v -442.8481 0.01 844.9867
v -442.8481 0.01 844.9867
v -448.2541 0.08519178 854.8
v -448.2541 0.08519178 854.8
v -447.8344 0.08519178 844.8101
v -447.8344 0.08519178 844.8101

vn -8.957226E-05 1 4.727382E-06
vn 0 0 0
vn -8.930283E-05 0.9999999 4.844817E-06
vn 0 0 0
vn -0.000398961 0.9999999 2.214471E-05
vn 0 0 0
vn -0.000705979 0.9999998 4.081205E-05
vn 0 0 0
vn -0.001290792 0.9999992 7.607975E-05
vn 0 0 0
vn -0.001559098 0.9999988 9.593379E-05
vn 0 0 0
vn -0.002060818 0.9999978 0.0001291716
vn 0 0 0
vn -0.002285274 0.9999974 0.0001482923
vn 0 0 0
vn -0.001807906 0.9999984 0.0001182536
vn 0 0 0
vn -0.001098057 0.9999994 7.369312E-05
vn 0 0 0
vn -0.0002664349 0.9999999 1.813167E-05
vn 0 0 0
vn -0.0001336444 1 9.260784E-06
vn 0 0 0
vn 0 1 0
vn 0 0 0
vn 0 1 0
vn 0 0 0
vn 0 1 0
vn 0 0 0
vn 0 1 0
vn 0 0 0
vn 0 1 0
vn 0 0 0
vn 0 1 0
vn 0 0 0
vn 0 1 0
vn 0 0 0
vn 0 1 0
vn 0 0 0
vn 0 1 0
vn 0 0 0
vn 0 1 0
vn 0 0 0
vn 0 1 0
vn 0 0 0
vn 0 1 0
vn 0 0 0
vn 0 1 0
vn 0 0 0
vn 0 1 0
vn 0 0 0
vn 0 1 0
vn 0 0 0
vn 0 1 0
vn 0 0 0
vn 0 1 0
vn 0 0 0
vn 0 1 0
vn 0 0 0
vn 0 1 0
vn 0 0 0
vn 0 1 0
vn 0 0 0
vn 0 1 0
vn 0 0 0
vn 0 1 0
vn 0 0 0
vn 0 1 0
vn 0 0 0
vn 0 1 0
vn 0 0 0
vn 0 1 0
vn 0 0 0
vn 0 1 0
vn 0 0 0
vn 0 1 0
vn 0 0 0
vn 0 1 0
vn 0 0 0
vn 0 1 0
vn 0 0 0
vn 0 1 0
vn 0 0 0
vn 0 1 0
vn 0 0 0
vn 0 1 0
vn 0 0 0
vn 0 1 0
vn 0 0 0
vn 0 1 0
vn 0 0 0
vn 0 1 0
vn 0 0 0
vn 0 1 0
vn 0 0 0
vn 0 1 0
vn 0 0 0
vn 0 1 0
vn 0 0 0
vn 0 1 0
vn 0 0 0
vn 0 0.9999999 0
vn 0 0 0
vn 0 1 0
vn 0 0 0
vn 0 1 0
vn 0 0 0
vn 0 1 0
vn 0 0 0
vn 0 1 0
vn 0 0 0
vn 0 1 0
vn 0 0 0
vn 0 1 0
vn 0 0 0
vn 0 1 0
vn 0 0 0
vn 0 1 0
vn 0 0 0
vn 0 1 0
vn 0 0 0
vn 0 1 0
vn 0 0 0
vn 0.00496118 0.9999877 0.0001444236
vn 0 0 0
vn 0.009975033 0.9999502 0.0003547018
vn 0 0 0
vn 0.01486695 0.9998893 0.0005286534
vn 0 0 0
vn 0.01505539 0.9998865 0.0006324819
vn 0 0 0

vt 0 604.3581
vt 0 0
vt 1 604.3581
vt 0 0
vt 0 605.3588
vt 0 605.3588
vt 1 605.3588
vt 1 605.3588
vt 0 606.3616
vt 0 606.3616
vt 1 606.3616
vt 1 606.3616
vt 0 607.3798
vt 0 607.3798
vt 1 607.3798
vt 1 607.3798
vt 0 608.3878
vt 0 608.3878
vt 1 608.3878
vt 1 608.3878
vt 0 609.4082
vt 0 609.4082
vt 1 609.4082
vt 1 609.4082
vt 0 610.4149
vt 0 610.4149
vt 1 610.4149
vt 1 610.4149
vt 0 611.4314
vt 0 611.4314
vt 1 611.4314
vt 1 611.4314
vt 0 612.4312
vt 0 612.4312
vt 1 612.4312
vt 1 612.4312
vt 0 613.4383
vt 0 613.4383
vt 1 613.4383
vt 1 613.4383
vt 0 614.4521
vt 0 614.4521
vt 1 614.4521
vt 1 614.4521
vt 0 615.4714
vt 0 615.4714
vt 1 615.4714
vt 1 615.4714
vt 0 616.4955
vt 0 616.4955
vt 1 616.4955
vt 1 616.4955
vt 0 617.497
vt 0 617.497
vt 1 617.497
vt 1 617.497
vt 0 618.5012
vt 0 618.5012
vt 1 618.5012
vt 1 618.5012
vt 0 619.5073
vt 0 619.5073
vt 1 619.5073
vt 1 619.5073
vt 0 620.5144
vt 0 620.5144
vt 1 620.5144
vt 1 620.5144
vt 0 621.5217
vt 0 621.5217
vt 1 621.5217
vt 1 621.5217
vt 0 622.5282
vt 0 622.5282
vt 1 622.5282
vt 1 622.5282
vt 0 623.5333
vt 0 623.5333
vt 1 623.5333
vt 1 623.5333
vt 0 624.5624
vt 0 624.5624
vt 1 624.5624
vt 1 624.5624
vt 0 625.5881
vt 0 625.5881
vt 1 625.5881
vt 1 625.5881
vt 0 626.6096
vt 0 626.6096
vt 1 626.6096
vt 1 626.6096
vt 0 627.6259
vt 0 627.6259
vt 1 627.6259
vt 1 627.6259
vt 0 628.6364
vt 0 628.6364
vt 1 628.6364
vt 1 628.6364
vt 0 629.6657
vt 0 629.6657
vt 1 629.6657
vt 1 629.6657
vt 0 630.6869
vt 0 630.6869
vt 1 630.6869
vt 1 630.6869
vt 0 631.6992
vt 0 631.6992
vt 1 631.6992
vt 1 631.6992
vt 0 632.7264
vt 0 632.7264
vt 1 632.7264
vt 1 632.7264
vt 0 633.7425
vt 0 633.7425
vt 1 633.7425
vt 1 633.7425
vt 0 634.7709
vt 0 634.7709
vt 1 634.7709
vt 1 634.7709
vt 0 635.7855
vt 0 635.7855
vt 1 635.7855
vt 1 635.7855
vt 0 636.8093
vt 0 636.8093
vt 1 636.8093
vt 1 636.8093

usemtl GSDWhiteYellowDouble
usemap GSDWhiteYellowDouble
f 5/5/5 1/1/1 3/3/3
f 7/7/7 5/5/5 3/3/3
f 9/9/9 5/5/5 7/7/7
f 11/11/11 9/9/9 7/7/7
f 13/13/13 9/9/9 11/11/11
f 15/15/15 13/13/13 11/11/11
f 17/17/17 13/13/13 15/15/15
f 19/19/19 17/17/17 15/15/15
f 21/21/21 17/17/17 19/19/19
f 23/23/23 21/21/21 19/19/19
f 25/25/25 21/21/21 23/23/23
f 27/27/27 25/25/25 23/23/23
f 29/29/29 25/25/25 27/27/27
f 31/31/31 29/29/29 27/27/27
f 33/33/33 29/29/29 31/31/31
f 35/35/35 33/33/33 31/31/31
f 37/37/37 33/33/33 35/35/35
f 39/39/39 37/37/37 35/35/35
f 41/41/41 37/37/37 39/39/39
f 43/43/43 41/41/41 39/39/39
f 45/45/45 41/41/41 43/43/43
f 47/47/47 45/45/45 43/43/43
f 49/49/49 45/45/45 47/47/47
f 51/51/51 49/49/49 47/47/47
f 53/53/53 49/49/49 51/51/51
f 55/55/55 53/53/53 51/51/51
f 57/57/57 53/53/53 55/55/55
f 59/59/59 57/57/57 55/55/55
f 61/61/61 57/57/57 59/59/59
f 63/63/63 61/61/61 59/59/59
f 65/65/65 61/61/61 63/63/63
f 67/67/67 65/65/65 63/63/63
f 69/69/69 65/65/65 67/67/67
f 71/71/71 69/69/69 67/67/67
f 73/73/73 69/69/69 71/71/71
f 75/75/75 73/73/73 71/71/71
f 77/77/77 73/73/73 75/75/75
f 79/79/79 77/77/77 75/75/75
f 81/81/81 77/77/77 79/79/79
f 83/83/83 81/81/81 79/79/79
f 85/85/85 81/81/81 83/83/83
f 87/87/87 85/85/85 83/83/83
f 89/89/89 85/85/85 87/87/87
f 91/91/91 89/89/89 87/87/87
f 93/93/93 89/89/89 91/91/91
f 95/95/95 93/93/93 91/91/91
f 97/97/97 93/93/93 95/95/95
f 99/99/99 97/97/97 95/95/95
f 101/101/101 97/97/97 99/99/99
f 103/103/103 101/101/101 99/99/99
f 105/105/105 101/101/101 103/103/103
f 107/107/107 105/105/105 103/103/103
f 109/109/109 105/105/105 107/107/107
f 111/111/111 109/109/109 107/107/107
f 113/113/113 109/109/109 111/111/111
f 115/115/115 113/113/113 111/111/111
f 117/117/117 113/113/113 115/115/115
f 119/119/119 117/117/117 115/115/115
f 121/121/121 117/117/117 119/119/119
f 123/123/123 121/121/121 119/119/119
f 125/125/125 121/121/121 123/123/123
f 127/127/127 125/125/125 123/123/123
f 129/129/129 125/125/125 127/127/127
f 131/131/131 129/129/129 127/127/127
