mtllib ./Road8_2_53.mtl
g RoadCut19
v -728.6271 0.03 175.8016
v -728.6271 0.03 175.8016
v -728.1735 0.03 165.8119
v -728.1735 0.03 165.8119
v -733.4697 0.03 175.6696
v -733.4697 0.03 175.6696
v -733.3344 0.03 165.6705
v -733.3344 0.03 165.6705
v -738.5732 0.03 175.6085
v -738.5732 0.03 175.6085
v -738.4738 0.03 165.609
v -738.4738 0.03 165.609
v -743.5631 0.03 175.5801
v -743.5631 0.03 175.5801
v -743.5791 0.03 165.5801
v -743.5791 0.03 165.5801

vn -3.841626E-10 1 -1.744406E-11
vn 0 0 0
vn -3.720975E-10 1 -1.096194E-11
vn 0 0 0
vn -2.464088E-10 0.9999999 -7.259169E-12
vn 0 0 0
vn -1.208926E-10 1 -1.635269E-12
vn 0 0 0
vn 0 1 0
vn 0 0 0
vn 0 1 0
vn 0 0 0
vn 0 0.9999999 0
vn 0 0 0
vn 0 1 0
vn 0 0 0

vt 0 0
vt 0 0
vt -0.09072266 -1.997943
vt -0.09072266 -1.997943
vt 0.9685181 -0.02640991
vt 0.9685181 -0.02640991
vt 0.9414673 -2.026227
vt 0.9414673 -2.026227
vt 1.989221 -0.03862
vt 1.989221 -0.03862
vt 1.969348 -2.038522
vt 1.969348 -2.038522
vt 2.987207 -0.04430847
vt 2.987207 -0.04430847
vt 2.990405 -2.044308
vt 2.990405 -2.044308

usemtl GSDRoad1
usemap GSDRoad1
f 5/5/5 1/1/1 3/3/3
f 7/7/7 5/5/5 3/3/3
f 9/9/9 5/5/5 7/7/7
f 11/11/11 9/9/9 7/7/7
f 13/13/13 9/9/9 11/11/11
f 15/15/15 13/13/13 11/11/11
