mtllib ./Road1_0_94.mtl
g RoadCut47
v -788.4442 15.73279 673.4191
v -788.4442 15.73279 673.4191
v -793.4513 15.73279 682.0642
v -793.4513 15.73279 682.0642
v -783.8789 15.94583 676.3009
v -783.8789 15.94583 676.3009
v -789.5665 15.94583 684.516
v -789.5665 15.94583 684.516
v -779.5142 16.12698 679.6119
v -779.5142 16.12698 679.6119
v -785.861 16.12698 687.3331
v -785.861 16.12698 687.3331
v -775.5246 16.27457 683.0922
v -775.5246 16.27457 683.0922
v -782.2905 16.27457 690.4507
v -782.2905 16.27457 690.4507
v -771.6829 16.41144 686.7703
v -771.6829 16.41144 686.7703
v -778.7222 16.41144 693.8682
v -778.7222 16.41144 693.8682
v -768.0839 16.54701 690.4288
v -768.0839 16.54701 690.4288
v -775.2804 16.54701 697.3666
v -775.2804 16.54701 697.3666
v -764.5483 16.70132 694.1402
v -764.5483 16.70132 694.1402
v -771.8086 16.70132 701.009
v -771.8086 16.70132 701.009
v -761.1076 16.88923 697.7706
v -761.1076 16.88923 697.7706
v -768.3292 16.88923 704.6749
v -768.3292 16.88923 704.6749

vn -0.03414602 0.9992211 -0.01977664
vn 0 0 0
vn -0.03597529 0.9990922 -0.02281968
vn 0 0 0
vn -0.03286806 0.9992304 -0.02140737
vn 0 0 0
vn -0.03151269 0.9992375 -0.0230499
vn 0 0 0
vn -0.02611941 0.9994543 -0.02021841
vn 0 0 0
vn -0.02468429 0.9994744 -0.02101134
vn 0 0 0
vn -0.02106351 0.9996043 -0.01864339
vn 0 0 0
vn -0.02043531 0.9996057 -0.01925769
vn 0 0 0
vn -0.01910976 0.9996467 -0.01847897
vn 0 0 0
vn -0.01918882 0.9996292 -0.01931648
vn 0 0 0
vn -0.01960722 0.9996067 -0.02004952
vn 0 0 0
vn -0.02038519 0.9995655 -0.02128414
vn 0 0 0
vn -0.02256646 0.9994642 -0.02371356
vn 0 0 0
vn -0.02417913 0.9993834 -0.02546223
vn 0 0 0
vn -0.02573723 0.9993024 -0.02706162
vn 0 0 0
vn -0.02567465 0.9993095 -0.02685443
vn 0 0 0

vt 0 0
vt 0 0
vt 1.001416 1.729028
vt 1.001416 1.729028
vt -0.9130616 0.5763672
vt -0.9130616 0.5763672
vt 0.2244629 2.219385
vt 0.2244629 2.219385
vt -1.785999 1.238562
vt -1.785999 1.238562
vt -0.5166382 2.7828
vt -0.5166382 2.7828
vt -2.583923 1.934619
vt -2.583923 1.934619
vt -1.230749 3.406323
vt -1.230749 3.406323
vt -3.352271 2.670239
vt -3.352271 2.670239
vt -1.944409 4.089819
vt -1.944409 4.089819
vt -4.072071 3.401953
vt -4.072071 3.401953
vt -2.632764 4.789502
vt -2.632764 4.789502
vt -4.779175 4.144226
vt -4.779175 4.144226
vt -3.327124 5.517981
vt -3.327124 5.517981
vt -5.467322 4.870313
vt -5.467322 4.870313
vt -4.02301 6.251172
vt -4.02301 6.251172

usemtl GSDRoad1
usemap GSDRoad1
f 5/5/5 1/1/1 3/3/3
f 7/7/7 5/5/5 3/3/3
f 9/9/9 5/5/5 7/7/7
f 11/11/11 9/9/9 7/7/7
f 13/13/13 9/9/9 11/11/11
f 15/15/15 13/13/13 11/11/11
f 17/17/17 13/13/13 15/15/15
f 19/19/19 17/17/17 15/15/15
f 21/21/21 17/17/17 19/19/19
f 23/23/23 21/21/21 19/19/19
f 25/25/25 21/21/21 23/23/23
f 27/27/27 25/25/25 23/23/23
f 29/29/29 25/25/25 27/27/27
f 31/31/31 29/29/29 27/27/27
