mtllib ./Road8_2_42.mtl
g Markers13
v -770.6855 0.0672663 52.56857
v -770.6855 0.0672663 52.56857
v -771.6627 0.0672663 42.61901
v -771.6627 0.0672663 42.61901
v -775.6512 0.009999998 53.09989
v -775.6512 0.009999998 53.09989
v -776.808 0.009999998 43.16935
v -776.808 0.009999998 43.16935
v -780.6649 0.009999998 53.73775
v -780.6649 0.009999998 53.73775
v -782.0368 0.009999998 43.83435
v -782.0368 0.009999998 43.83435
v -785.632 0.009999998 54.48885
v -785.632 0.009999998 54.48885
v -787.2564 0.009999998 44.62339
v -787.2564 0.009999998 44.62339
v -790.4833 0.009999998 55.36072
v -790.4833 0.009999998 55.36072
v -792.4047 0.009999998 45.54844
v -792.4047 0.009999998 45.54844
v -795.282 0.009999998 56.38961
v -795.282 0.009999998 56.38961
v -797.5649 0.009999998 46.65474
v -797.5649 0.009999998 46.65474
v -799.9163 0.009999998 57.58405
v -799.9163 0.009999998 57.58405
v -802.6407 0.009999998 47.96301
v -802.6407 0.009999998 47.96301
v -804.473 0.009999998 59.01519
v -804.473 0.009999998 59.01519
v -807.7653 0.009999998 49.57306
v -807.7653 0.009999998 49.57306
v -808.8276 0.009999998 60.72055
v -808.8276 0.009999998 60.72055
v -812.864 0.009999998 51.57143
v -812.864 0.009999998 51.57143
v -812.8553 0.009999998 62.755
v -812.8553 0.009999998 62.755
v -817.8888 0.009999998 54.11423
v -817.8888 0.009999998 54.11423
v -816.319 0.009999998 65.13243
v -816.319 0.009999998 65.13243
v -822.6673 0.009999998 57.40671
v -822.6673 0.009999998 57.40671
v -819.0071 0.009999998 67.8708
v -819.0071 0.009999998 67.8708
v -826.9537 0.009999998 61.80429
v -826.9537 0.009999998 61.80429
v -820.7287 0.009999998 70.95064
v -820.7287 0.009999998 70.95064
v -830.0869 0.009999998 67.43929
v -830.0869 0.009999998 67.43929
v -821.5041 0.009999998 74.50613
v -821.5041 0.009999998 74.50613
v -831.4599 0.009999998 73.6246
v -831.4599 0.009999998 73.6246
v -821.4911 0.009999998 78.76641
v -821.4911 0.009999998 78.76641
v -831.4689 0.009999998 79.39417
v -831.4689 0.009999998 79.39417

vn -0.01141156 0.9999343 0.00112076
vn 0 0 0
vn -0.01119813 0.9999366 0.001201996
vn 0 0 0
vn -0.007480576 0.9999716 0.000802958
vn 0 0 0
vn -0.003670011 0.9999931 0.0004274935
vn 0 0 0
vn 0 1 0
vn 0 0 0
vn 0 1 0
vn 0 0 0
vn 0 1 0
vn 0 0 0
vn 0 1 0
vn 0 0 0
vn 0 1 0
vn 0 0 0
vn 0 1 0
vn 0 0 0
vn 0 1 0
vn 0 0 0
vn 0 1 0
vn 0 0 0
vn 0 1 0
vn 0 0 0
vn 0 1 0
vn 0 0 0
vn 0 1 0
vn 0 0 0
vn 0 0.9999999 0
vn 0 0 0
vn 0 1 0
vn 0 0 0
vn 0 1 0
vn 0 0 0
vn 0 1 0
vn 0 0 0
vn 0 1 0
vn 0 0 0
vn 0 1 0
vn 0 0 0
vn 0 1 0
vn 0 0 0
vn 0 1 0
vn 0 0 0
vn 0 1 0
vn 0 0 0
vn 0 1 0
vn 0 0 0
vn 0 1 0
vn 0 0 0
vn 0 1 0
vn 0 0 0
vn 0 1 0
vn 0 0 0
vn 0 0.9999999 0
vn 0 0 0
vn 0 1 0
vn 0 0 0

vt 0 247.2258
vt 0 0
vt 1 247.2258
vt 0 0
vt 0 248.2247
vt 0 248.2247
vt 1 248.2247
vt 1 248.2247
vt 0 249.2355
vt 0 249.2355
vt 1 249.2355
vt 1 249.2355
vt 0 250.2402
vt 0 250.2402
vt 1 250.2402
vt 1 250.2402
vt 0 251.226
vt 0 251.226
vt 1 251.226
vt 1 251.226
vt 0 252.2076
vt 0 252.2076
vt 1 252.2076
vt 1 252.2076
vt 0 253.1647
vt 0 253.1647
vt 1 253.1647
vt 1 253.1647
vt 0 254.1199
vt 0 254.1199
vt 1 254.1199
vt 1 254.1199
vt 0 255.0553
vt 0 255.0553
vt 1 255.0553
vt 1 255.0553
vt 0 255.9577
vt 0 255.9577
vt 1 255.9577
vt 1 255.9577
vt 0 256.7979
vt 0 256.7979
vt 1 256.7979
vt 1 256.7979
vt 0 257.5654
vt 0 257.5654
vt 1 257.5654
vt 1 257.5654
vt 0 258.2711
vt 0 258.2711
vt 1 258.2711
vt 1 258.2711
vt 0 258.9989
vt 0 258.9989
vt 1 258.9989
vt 1 258.9989
vt 0 259.8509
vt 0 259.8509
vt 1 259.8509
vt 1 259.8509

usemtl GSDWhiteYellowDouble
usemap GSDWhiteYellowDouble
f 5/5/5 1/1/1 3/3/3
f 7/7/7 5/5/5 3/3/3
f 9/9/9 5/5/5 7/7/7
f 11/11/11 9/9/9 7/7/7
f 13/13/13 9/9/9 11/11/11
f 15/15/15 13/13/13 11/11/11
f 17/17/17 13/13/13 15/15/15
f 19/19/19 17/17/17 15/15/15
f 21/21/21 17/17/17 19/19/19
f 23/23/23 21/21/21 19/19/19
f 25/25/25 21/21/21 23/23/23
f 27/27/27 25/25/25 23/23/23
f 29/29/29 25/25/25 27/27/27
f 31/31/31 29/29/29 27/27/27
f 33/33/33 29/29/29 31/31/31
f 35/35/35 33/33/33 31/31/31
f 37/37/37 33/33/33 35/35/35
f 39/39/39 37/37/37 35/35/35
f 41/41/41 37/37/37 39/39/39
f 43/43/43 41/41/41 39/39/39
f 45/45/45 41/41/41 43/43/43
f 47/47/47 45/45/45 43/43/43
f 49/49/49 45/45/45 47/47/47
f 51/51/51 49/49/49 47/47/47
f 53/53/53 49/49/49 51/51/51
f 55/55/55 53/53/53 51/51/51
f 57/57/57 53/53/53 55/55/55
f 59/59/59 57/57/57 55/55/55
