mtllib ./Road12_2_20.mtl
g RoadCut1
v -595.4083 0.03 580.1423
v -595.4083 0.03 580.1423
v -596.1124 0.03 570.1671
v -596.1124 0.03 570.1671
v -600.4473 0.03 580.4946
v -600.4473 0.03 580.4946
v -601.0602 0.03 570.5134
v -601.0602 0.03 570.5134
v -605.6572 0.03 580.7542
v -605.6572 0.03 580.7542
v -606.0283 0.03 570.761
v -606.0283 0.03 570.761
v -610.8962 0.03 580.8668
v -610.8962 0.03 580.8668
v -610.9361 0.03 570.8669
v -610.9361 0.03 570.8669
v -616.1389 0.03 580.7739
v -616.1389 0.03 580.7739
v -615.7404 0.03 570.7819
v -615.7404 0.03 570.7819
v -613.0154 0.03 575.316
v -613.0154 0.03 575.316
v -621.6871 0.03 580.2962
v -621.6871 0.03 580.2962
v -610.9437 0.03 582.1397
v -610.9437 0.03 582.1397
v -620.9009 0.03 583.0629
v -620.9009 0.03 583.0629
v -611.1913 0.03 588.4095
v -611.1913 0.03 588.4095
v -621.0754 0.03 586.8915
v -621.0754 0.03 586.8915

vn 0 0.9999999 0
vn 0 0 0
vn 0 1 0
vn 0 0 0
vn 0 1 0
vn 0 0 0
vn 0 1 0
vn 0 0 0
vn 0 1 0
vn 0 0 0
vn 0 1 0
vn 0 0 0
vn 0 0.9999999 0
vn 0 0 0
vn 0 1 0
vn 0 0 0
vn 0 1 0
vn 0 0 0
vn 0 1 0
vn 0 0 0
vn 9.937719E-11 1 1.730368E-10
vn 0 0 0
vn 7.298818E-11 1 2.303216E-10
vn 0 0 0
vn 5.798923E-11 1 1.009716E-10
vn 0 0 0
vn 2.199051E-11 1 -1.431806E-10
vn 0 0 0
vn 1.104581E-11 1 -3.684378E-10
vn 0 0 0
vn 7.420227E-11 1 -4.831322E-10
vn 0 0 0

vt 0 0
vt 0 0
vt 0.1408203 -1.995044
vt 0.1408203 -1.995044
vt 1.0078 0.07047119
vt 1.0078 0.07047119
vt 1.130383 -1.925769
vt 1.130383 -1.925769
vt 2.049793 0.1223877
vt 2.049793 0.1223877
vt 2.124011 -1.876245
vt 2.124011 -1.876245
vt 3.097583 0.1448975
vt 3.097583 0.1448975
vt 3.105567 -1.855078
vt 3.105567 -1.855078
vt 4.146118 0.1263306
vt 4.146118 0.1263306
vt 4.066431 -1.872083
vt 4.066431 -1.872083
vt 3.521435 -0.9652588
vt 3.521435 -0.9652588
vt 5.255762 0.03078613
vt 5.255762 0.03078613
vt 3.10708 0.3994873
vt 3.10708 0.3994873
vt 5.098535 0.5841309
vt 5.098535 0.5841309
vt 3.156604 1.653455
vt 3.156604 1.653455
vt 5.133435 1.349841
vt 5.133435 1.349841

usemtl GSDRoad1
usemap GSDRoad1
f 5/5/5 1/1/1 3/3/3
f 7/7/7 5/5/5 3/3/3
f 9/9/9 5/5/5 7/7/7
f 11/11/11 9/9/9 7/7/7
f 13/13/13 9/9/9 11/11/11
f 15/15/15 13/13/13 11/11/11
f 17/17/17 13/13/13 15/15/15
f 19/19/19 17/17/17 15/15/15
f 21/21/21 17/17/17 19/19/19
f 23/23/23 21/21/21 19/19/19
f 25/25/25 21/21/21 23/23/23
f 27/27/27 25/25/25 23/23/23
f 29/29/29 25/25/25 27/27/27
f 31/31/31 29/29/29 27/27/27
