mtllib ./Road1_0_218.mtl
g SCutL9
v -822.9957 84.85854 514.8959
v -822.9957 84.85854 514.8959
v -820.3624 84.85854 513.3824
v -820.3624 84.85854 513.3824
v -824.7378 83.71892 515.8971
v -824.7378 83.71892 515.8971
v -822.9957 84.85854 514.8959
v -822.9957 84.85854 514.8959
v -825.7012 84.85281 509.8015
v -825.7012 84.85281 509.8015
v -822.9446 84.85281 508.5049
v -822.9446 84.85281 508.5049
v -827.5214 83.93964 510.6577
v -827.5214 83.93964 510.6577
v -825.7012 84.85281 509.8015
v -825.7012 84.85281 509.8015
v -827.9688 84.74313 504.4662
v -827.9688 84.74313 504.4662
v -825.0275 84.74313 503.4209
v -825.0275 84.74313 503.4209
v -829.8814 83.89795 505.1459
v -829.8814 83.89795 505.1459
v -827.9688 84.74313 504.4662
v -827.9688 84.74313 504.4662
v -829.7289 84.54058 498.9735
v -829.7289 84.54058 498.9735
v -826.6478 84.54058 498.1555
v -826.6478 84.54058 498.1555
v -831.7059 83.61053 499.4984
v -831.7059 83.61053 499.4984
v -829.7289 84.54058 498.9735
v -829.7289 84.54058 498.9735
v -831.04 84.26314 493.5028
v -831.04 84.26314 493.5028
v -827.8571 84.26314 492.8755
v -827.8571 84.26314 492.8755
v -833.0599 83.24341 493.9009
v -833.0599 83.24341 493.9009
v -831.04 84.26314 493.5028
v -831.04 84.26314 493.5028
v -832.005 83.9258 488.0937
v -832.005 83.9258 488.0937
v -828.7476 83.9258 487.6194
v -828.7476 83.9258 487.6194
v -834.0532 82.83392 488.392
v -834.0532 82.83392 488.392
v -832.005 83.9258 488.0937
v -832.005 83.9258 488.0937
v -832.7103 83.54214 482.7766
v -832.7103 83.54214 482.7766
v -829.3984 83.54214 482.4192
v -829.3984 83.54214 482.4192
v -834.7771 82.36672 482.9996
v -834.7771 82.36672 482.9996
v -832.7103 83.54214 482.7766
v -832.7103 83.54214 482.7766
v -833.2283 83.1243 477.576
v -833.2283 83.1243 477.576
v -829.8766 83.1243 477.3022
v -829.8766 83.1243 477.3022
v -835.3074 81.84508 477.7459
v -835.3074 81.84508 477.7459
v -833.2283 83.1243 477.576
v -833.2283 83.1243 477.576
v -833.6285 82.67113 472.3809
v -833.6285 82.67113 472.3809
v -830.2474 82.67113 472.1612
v -830.2474 82.67113 472.1612
v -835.7159 81.46044 472.5166
v -835.7159 81.46044 472.5166
v -833.6285 82.67113 472.3809
v -833.6285 82.67113 472.3809
v -833.9496 82.20307 467.3455
v -833.9496 82.20307 467.3455
v -830.5485 82.20307 467.1505
v -830.5485 82.20307 467.1505
v -836.0421 80.85002 467.4654
v -836.0421 80.85002 467.4654
v -833.9496 82.20307 467.3455
v -833.9496 82.20307 467.3455
v -834.2446 81.71606 462.3571
v -834.2446 81.71606 462.3571
v -830.8311 81.71606 462.1595
v -830.8311 81.71606 462.1595
v -836.3398 80.41739 462.4783
v -836.3398 80.41739 462.4783
v -834.2446 81.71606 462.3571
v -834.2446 81.71606 462.3571
v -834.5527 81.21744 457.4395
v -834.5527 81.21744 457.4395
v -831.1346 81.21744 457.2119
v -831.1346 81.21744 457.2119
v -836.6482 79.96172 457.579
v -836.6482 79.96172 457.579
v -834.5527 81.21744 457.4395
v -834.5527 81.21744 457.4395
v -834.9116 80.71431 452.6158
v -834.9116 80.71431 452.6158
v -831.4974 80.71431 452.3301
v -831.4974 80.71431 452.3301
v -837.0045 79.22274 452.791
v -837.0045 79.22274 452.791
v -834.9116 80.71431 452.6158
v -834.9116 80.71431 452.6158
v -835.3702 80.2009 447.79
v -835.3702 80.2009 447.79
v -831.9705 80.2009 447.4147
v -831.9705 80.2009 447.4147
v -837.4564 78.92768 448.0203
v -837.4564 78.92768 448.0203
v -835.3702 80.2009 447.79
v -835.3702 80.2009 447.79
v -835.9557 79.69827 443.1185
v -835.9557 79.69827 443.1185
v -832.5836 79.69827 442.6224
v -832.5836 79.69827 442.6224
v -838.0294 78.37818 443.4236
v -838.0294 78.37818 443.4236
v -835.9557 79.69827 443.1185
v -835.9557 79.69827 443.1185
v -836.7231 79.20207 438.5164
v -836.7231 79.20207 438.5164
v -833.397 79.20207 437.8632
v -833.397 79.20207 437.8632
v -838.7756 77.73626 438.9195
v -838.7756 77.73626 438.9195
v -836.7231 79.20207 438.5164
v -836.7231 79.20207 438.5164
v -837.6908 78.7338 434.1345
v -837.6908 78.7338 434.1345
v -834.434 78.7338 433.2908
v -834.434 78.7338 433.2908
v -839.7101 77.49841 434.6576
v -839.7101 77.49841 434.6576
v -837.6908 78.7338 434.1345
v -837.6908 78.7338 434.1345
v -838.9201 78.29165 429.8978
v -838.9201 78.29165 429.8978
v -835.7655 78.29165 428.8262
v -835.7655 78.29165 428.8262
v -840.8881 77.18744 430.5664
v -840.8881 77.18744 430.5664
v -838.9201 78.29165 429.8978
v -838.9201 78.29165 429.8978

vn -0.0004945722 0.9999996 -0.0008605547
vn 0 0 0
vn -0.0004687315 0.9999996 -0.0008990809
vn 0 0 0
vn -0.4197298 0.8697216 0.2596366
vn 0 0 0
vn -0.3942097 0.8903091 0.2279217
vn 0 0 0
vn -0.003046865 0.9999747 -0.006413329
vn 0 0 0
vn -0.005123984 0.9999097 -0.0124226
vn 0 0 0
vn -0.3906578 0.8975624 0.2043725
vn 0 0 0
vn -0.3699592 0.9149061 0.1614843
vn 0 0 0
vn -0.008876414 0.9996932 -0.02312389
vn 0 0 0
vn -0.009337127 0.9995279 -0.02926874
vn 0 0 0
vn -0.3748888 0.9189389 0.1225136
vn 0 0 0
vn -0.3814396 0.9187871 0.1016566
vn 0 0 0
vn -0.01129322 0.9991844 -0.03876763
vn 0 0 0
vn -0.01067246 0.998953 -0.04448488
vn 0 0 0
vn -0.3999428 0.9137938 0.0709005
vn 0 0 0
vn -0.4200127 0.9051435 0.06560995
vn 0 0 0
vn -0.01147331 0.9985467 -0.05265985
vn 0 0 0
vn -0.01029113 0.9982849 -0.05763033
vn 0 0 0
vn -0.4351253 0.8995427 0.03858447
vn 0 0 0
vn -0.4520271 0.8913456 0.03427184
vn 0 0 0
vn -0.01041892 0.9978693 -0.06440862
vn 0 0 0
vn -0.009077485 0.9976049 -0.06857138
vn 0 0 0
vn -0.4624893 0.8865694 0.009916797
vn 0 0 0
vn -0.4777912 0.8784527 0.006045054
vn 0 0 0
vn -0.008894538 0.9972088 -0.07413267
vn 0 0 0
vn -0.007664266 0.9969609 -0.07752728
vn 0 0 0
vn -0.4877418 0.8728539 -0.01529915
vn 0 0 0
vn -0.5054986 0.862673 -0.01632406
vn 0 0 0
vn -0.007403058 0.9965936 -0.08213791
vn 0 0 0
vn -0.006445282 0.996372 -0.0848608
vn 0 0 0
vn -0.5158549 0.8563261 -0.02447848
vn 0 0 0
vn -0.5178896 0.8550916 -0.0246736
vn 0 0 0
vn -0.006245016 0.9960462 -0.08861663
vn 0 0 0
vn -0.00566157 0.9958593 -0.09073073
vn 0 0 0
vn -0.5110441 0.8584868 -0.04282784
vn 0 0 0
vn -0.5173966 0.8542696 -0.05024036
vn 0 0 0
vn -0.005618216 0.9955661 -0.09389731
vn 0 0 0
vn -0.005488164 0.9954199 -0.09544241
vn 0 0 0
vn -0.5311298 0.8457233 -0.05150861
vn 0 0 0
vn -0.5389718 0.8411242 -0.04493926
vn 0 0 0
vn -0.005655393 0.995166 -0.09804311
vn 0 0 0
vn -0.006021977 0.995064 -0.09905252
vn 0 0 0
vn -0.5336421 0.8444715 -0.04576183
vn 0 0 0
vn -0.5241851 0.8501063 -0.05049108
vn 0 0 0
vn -0.006444809 0.9948462 -0.1011902
vn 0 0 0
vn -0.007349023 0.9947932 -0.1016491
vn 0 0 0
vn -0.5203127 0.851567 -0.06409588
vn 0 0 0
vn -0.5392951 0.839794 -0.06250522
vn 0 0 0
vn -0.008063637 0.9946117 -0.1033564
vn 0 0 0
vn -0.009559162 0.9946138 -0.1032082
vn 0 0 0
vn -0.5610357 0.8266938 -0.04261828
vn 0 0 0
vn -0.5629579 0.8260837 -0.02577163
vn 0 0 0
vn -0.01058704 0.9944782 -0.1044073
vn 0 0 0
vn -0.0126834 0.9945432 -0.1035516
vn 0 0 0
vn -0.5435913 0.8390146 -0.0237288
vn 0 0 0
vn -0.5289233 0.848011 -0.03342931
vn 0 0 0
vn -0.01403877 0.99446 -0.1041748
vn 0 0 0
vn -0.01673097 0.9945982 -0.1024425
vn 0 0 0
vn -0.5343236 0.8447507 -0.02990787
vn 0 0 0
vn -0.5536304 0.8326359 -0.01452186
vn 0 0 0
vn -0.01835762 0.9945866 -0.1022762
vn 0 0 0
vn -0.02154319 0.9948071 -0.09947233
vn 0 0 0
vn -0.563937 0.8256077 0.01863112
vn 0 0 0
vn -0.5568745 0.8297994 0.03638433
vn 0 0 0
vn -0.023326 0.9948909 -0.09822386
vn 0 0 0
vn -0.02680469 0.9952024 -0.09409475
vn 0 0 0
vn -0.5317081 0.8447645 0.06049259
vn 0 0 0
vn -0.5002043 0.8644985 0.04937731
vn 0 0 0
vn -0.02777616 0.995281 -0.09297516
vn 0 0 0
vn -0.0304116 0.9955205 -0.08952179
vn 0 0 0
vn -0.4909137 0.8689033 0.0633306
vn 0 0 0
vn -0.4766723 0.8778399 0.04669612
vn 0 0 0

vt 0 0
vt 0 0
vt -0.5266724 -0.3026856
vt -0.5266724 -0.3026856
vt 0.3484131 0.2002441
vt 0.3484131 0.2002441
vt 0 0
vt 0 0
vt 0.5411011 -1.018872
vt 0.5411011 -1.018872
vt -0.01022949 -1.278198
vt -0.01022949 -1.278198
vt 0.9051391 -0.847638
vt 0.9051391 -0.847638
vt 0.5411011 -1.018872
vt 0.5411011 -1.018872
vt 0.9946167 -2.085944
vt 0.9946167 -2.085944
vt 0.4063599 -2.295001
vt 0.4063599 -2.295001
vt 1.377136 -1.95
vt 1.377136 -1.95
vt 0.9946167 -2.085944
vt 0.9946167 -2.085944
vt 1.346631 -3.184479
vt 1.346631 -3.184479
vt 0.7304199 -3.348078
vt 0.7304199 -3.348078
vt 1.742041 -3.079498
vt 1.742041 -3.079498
vt 1.346631 -3.184479
vt 1.346631 -3.184479
vt 1.608862 -4.278614
vt 1.608862 -4.278614
vt 0.9722657 -4.404071
vt 0.9722657 -4.404071
vt 2.012842 -4.198993
vt 2.012842 -4.198993
vt 1.608862 -4.278614
vt 1.608862 -4.278614
vt 1.801855 -5.360431
vt 1.801855 -5.360431
vt 1.150378 -5.455298
vt 1.150378 -5.455298
vt 2.211487 -5.300781
vt 2.211487 -5.300781
vt 1.801855 -5.360431
vt 1.801855 -5.360431
vt 1.94292 -6.423865
vt 1.94292 -6.423865
vt 1.280542 -6.495343
vt 1.280542 -6.495343
vt 2.356274 -6.379261
vt 2.356274 -6.379261
vt 1.94292 -6.423865
vt 1.94292 -6.423865
vt 2.046509 -7.463965
vt 2.046509 -7.463965
vt 1.376172 -7.518732
vt 1.376172 -7.518732
vt 2.462329 -7.429993
vt 2.462329 -7.429993
vt 2.046509 -7.463965
vt 2.046509 -7.463965
vt 2.12655 -8.502991
vt 2.12655 -8.502991
vt 1.450342 -8.546943
vt 1.450342 -8.546943
vt 2.544031 -8.475861
vt 2.544031 -8.475861
vt 2.12655 -8.502991
vt 2.12655 -8.502991
vt 2.190772 -9.510083
vt 2.190772 -9.510083
vt 1.510547 -9.549072
vt 1.510547 -9.549072
vt 2.609277 -9.486096
vt 2.609277 -9.486096
vt 2.190772 -9.510083
vt 2.190772 -9.510083
vt 2.249768 -10.50776
vt 2.249768 -10.50776
vt 1.567078 -10.54727
vt 1.567078 -10.54727
vt 2.668811 -10.48351
vt 2.668811 -10.48351
vt 2.249768 -10.50776
vt 2.249768 -10.50776
vt 2.311401 -11.49128
vt 2.311401 -11.49128
vt 1.627783 -11.5368
vt 1.627783 -11.5368
vt 2.730493 -11.46337
vt 2.730493 -11.46337
vt 2.311401 -11.49128
vt 2.311401 -11.49128
vt 2.383179 -12.45601
vt 2.383179 -12.45601
vt 1.700342 -12.51315
vt 1.700342 -12.51315
vt 2.801746 -12.42098
vt 2.801746 -12.42098
vt 2.383179 -12.45601
vt 2.383179 -12.45601
vt 2.474902 -13.42118
vt 2.474902 -13.42118
vt 1.794958 -13.49624
vt 1.794958 -13.49624
vt 2.892127 -13.37512
vt 2.892127 -13.37512
vt 2.474902 -13.42118
vt 2.474902 -13.42118
vt 2.592005 -14.35547
vt 2.592005 -14.35547
vt 1.917578 -14.45469
vt 1.917578 -14.45469
vt 3.006738 -14.29446
vt 3.006738 -14.29446
vt 2.592005 -14.35547
vt 2.592005 -14.35547
vt 2.745483 -15.2759
vt 2.745483 -15.2759
vt 2.080249 -15.40653
vt 2.080249 -15.40653
vt 3.155969 -15.19528
vt 3.155969 -15.19528
vt 2.745483 -15.2759
vt 2.745483 -15.2759
vt 2.939014 -16.15227
vt 2.939014 -16.15227
vt 2.287647 -16.32102
vt 2.287647 -16.32102
vt 3.342871 -16.04765
vt 3.342871 -16.04765
vt 2.939014 -16.15227
vt 2.939014 -16.15227
vt 3.184875 -16.99961
vt 3.184875 -16.99961
vt 2.553955 -17.21394
vt 2.553955 -17.21394
vt 3.578479 -16.86589
vt 3.578479 -16.86589
vt 3.184875 -16.99961
vt 3.184875 -16.99961

usemtl GSDShoulder1
usemap GSDShoulder1
f 9/9/9 1/1/1 3/3/3
f 11/11/11 9/9/9 3/3/3
f 13/13/13 5/5/5 7/7/7
f 15/15/15 13/13/13 7/7/7
f 17/17/17 9/9/9 11/11/11
f 19/19/19 17/17/17 11/11/11
f 21/21/21 13/13/13 15/15/15
f 23/23/23 21/21/21 15/15/15
f 25/25/25 17/17/17 19/19/19
f 27/27/27 25/25/25 19/19/19
f 29/29/29 21/21/21 23/23/23
f 31/31/31 29/29/29 23/23/23
f 33/33/33 25/25/25 27/27/27
f 35/35/35 33/33/33 27/27/27
f 37/37/37 29/29/29 31/31/31
f 39/39/39 37/37/37 31/31/31
f 41/41/41 33/33/33 35/35/35
f 43/43/43 41/41/41 35/35/35
f 45/45/45 37/37/37 39/39/39
f 47/47/47 45/45/45 39/39/39
f 49/49/49 41/41/41 43/43/43
f 51/51/51 49/49/49 43/43/43
f 53/53/53 45/45/45 47/47/47
f 55/55/55 53/53/53 47/47/47
f 57/57/57 49/49/49 51/51/51
f 59/59/59 57/57/57 51/51/51
f 61/61/61 53/53/53 55/55/55
f 63/63/63 61/61/61 55/55/55
f 65/65/65 57/57/57 59/59/59
f 67/67/67 65/65/65 59/59/59
f 69/69/69 61/61/61 63/63/63
f 71/71/71 69/69/69 63/63/63
f 73/73/73 65/65/65 67/67/67
f 75/75/75 73/73/73 67/67/67
f 77/77/77 69/69/69 71/71/71
f 79/79/79 77/77/77 71/71/71
f 81/81/81 73/73/73 75/75/75
f 83/83/83 81/81/81 75/75/75
f 85/85/85 77/77/77 79/79/79
f 87/87/87 85/85/85 79/79/79
f 89/89/89 81/81/81 83/83/83
f 91/91/91 89/89/89 83/83/83
f 93/93/93 85/85/85 87/87/87
f 95/95/95 93/93/93 87/87/87
f 97/97/97 89/89/89 91/91/91
f 99/99/99 97/97/97 91/91/91
f 101/101/101 93/93/93 95/95/95
f 103/103/103 101/101/101 95/95/95
f 105/105/105 97/97/97 99/99/99
f 107/107/107 105/105/105 99/99/99
f 109/109/109 101/101/101 103/103/103
f 111/111/111 109/109/109 103/103/103
f 113/113/113 105/105/105 107/107/107
f 115/115/115 113/113/113 107/107/107
f 117/117/117 109/109/109 111/111/111
f 119/119/119 117/117/117 111/111/111
f 121/121/121 113/113/113 115/115/115
f 123/123/123 121/121/121 115/115/115
f 125/125/125 117/117/117 119/119/119
f 127/127/127 125/125/125 119/119/119
f 129/129/129 121/121/121 123/123/123
f 131/131/131 129/129/129 123/123/123
f 133/133/133 125/125/125 127/127/127
f 135/135/135 133/133/133 127/127/127
f 137/137/137 129/129/129 131/131/131
f 139/139/139 137/137/137 131/131/131
f 141/141/141 133/133/133 135/135/135
f 143/143/143 141/141/141 135/135/135
