mtllib ./Road1_0_32.mtl
g SCutL0
v -167.7906 0.03 397.3116
v -167.7906 0.03 397.3116
v -167.7845 0.03 394.3116
v -167.7845 0.03 394.3116
v -167.7971 -0.35 400.5616
v -167.7971 -0.35 400.5616
v -167.7906 0.03 397.3116
v -167.7906 0.03 397.3116
v -173.1866 0.03 397.2071
v -173.1866 0.03 397.2071
v -173.0921 0.03 394.2086
v -173.0921 0.03 394.2086
v -173.289 -0.35 400.4555
v -173.289 -0.35 400.4555
v -173.1866 0.03 397.2071
v -173.1866 0.03 397.2071
v -178.3726 0.03 397.0102
v -178.3726 0.03 397.0102
v -178.2438 0.03 394.013
v -178.2438 0.03 394.013
v -178.5122 -0.35 400.2572
v -178.5122 -0.35 400.2572
v -178.3726 0.03 397.0102
v -178.3726 0.03 397.0102
v -183.4846 0.03 396.7745
v -183.4846 0.03 396.7745
v -183.3389 0.03 393.778
v -183.3389 0.03 393.778
v -183.6425 -0.35 400.0207
v -183.6425 -0.35 400.0207
v -183.4846 0.03 396.7745
v -183.4846 0.03 396.7745
v -188.5211 0.03 396.5216
v -188.5211 0.03 396.5216
v -188.367 0.03 393.5256
v -188.367 0.03 393.5256
v -188.6882 -0.35 399.7673
v -188.6882 -0.35 399.7673
v -188.5211 0.03 396.5216
v -188.5211 0.03 396.5216
v -193.5539 0.03 396.259
v -193.5539 0.03 396.259
v -193.3961 0.03 393.2632
v -193.3961 0.03 393.2632
v -193.725 -0.35 399.5045
v -193.725 -0.35 399.5045
v -193.5539 0.03 396.259
v -193.5539 0.03 396.259
v -198.6087 0.03 395.9918
v -198.6087 0.03 395.9918
v -198.4504 0.03 392.996
v -198.4504 0.03 392.996
v -198.7803 -0.35 399.2373
v -198.7803 -0.35 399.2373
v -198.6087 0.03 395.9918
v -198.6087 0.03 395.9918
v -203.6165 0.03 395.7284
v -203.6165 0.03 395.7284
v -203.46 0.03 392.7325
v -203.46 0.03 392.7325
v -203.7861 -0.35 398.9739
v -203.7861 -0.35 398.9739
v -203.6165 0.03 395.7284
v -203.6165 0.03 395.7284
v -208.6548 0.03 395.4682
v -208.6548 0.03 395.4682
v -208.5021 0.03 392.472
v -208.5021 0.03 392.472
v -208.8202 -0.35 398.714
v -208.8202 -0.35 398.714
v -208.6548 0.03 395.4682
v -208.6548 0.03 395.4682
v -213.6837 0.03 395.2163
v -213.6837 0.03 395.2163
v -213.5365 0.03 392.2199
v -213.5365 0.03 392.2199
v -213.8431 -0.35 398.4624
v -213.8431 -0.35 398.4624
v -213.6837 0.03 395.2163
v -213.6837 0.03 395.2163
v -218.6679 0.03 394.9772
v -218.6679 0.03 394.9772
v -218.5277 0.03 391.9805
v -218.5277 0.03 391.9805
v -218.8197 -0.35 398.2237
v -218.8197 -0.35 398.2237
v -218.6679 0.03 394.9772
v -218.6679 0.03 394.9772
v -223.6476 0.03 394.7513
v -223.6476 0.03 394.7513
v -223.516 0.03 391.7542
v -223.516 0.03 391.7542
v -223.7901 -0.35 397.9982
v -223.7901 -0.35 397.9982
v -223.6476 0.03 394.7513
v -223.6476 0.03 394.7513
v -228.6689 0.03 394.5391
v -228.6689 0.03 394.5391
v -228.5475 0.03 391.5416
v -228.5475 0.03 391.5416
v -228.8003 -0.35 397.7864
v -228.8003 -0.35 397.7864
v -228.6689 0.03 394.5391
v -228.6689 0.03 394.5391
v -233.6359 0.03 394.3476
v -233.6359 0.03 394.3476
v -233.5263 0.03 391.3496
v -233.5263 0.03 391.3496
v -233.7546 -0.35 397.5954
v -233.7546 -0.35 397.5954
v -233.6359 0.03 394.3476
v -233.6359 0.03 394.3476
v -238.5971 0.03 394.1773
v -238.5971 0.03 394.1773
v -238.5012 0.03 391.1789
v -238.5012 0.03 391.1789
v -238.701 -0.35 397.4257
v -238.701 -0.35 397.4257
v -238.5971 0.03 394.1773
v -238.5971 0.03 394.1773
v -243.5293 0.03 394.0322
v -243.5293 0.03 394.0322
v -243.4492 0.03 391.0333
v -243.4492 0.03 391.0333
v -243.6161 -0.35 397.281
v -243.6161 -0.35 397.281
v -243.5293 0.03 394.0322
v -243.5293 0.03 394.0322
v -248.4793 0.03 393.9147
v -248.4793 0.03 393.9147
v -248.4175 0.03 390.9153
v -248.4175 0.03 390.9153
v -248.5462 -0.35 397.164
v -248.5462 -0.35 397.164
v -248.4793 0.03 393.9147
v -248.4793 0.03 393.9147
v -253.4193 0.03 393.8301
v -253.4193 0.03 393.8301
v -253.3789 0.03 390.8304
v -253.3789 0.03 390.8304
v -253.4631 -0.35 397.0798
v -253.4631 -0.35 397.0798
v -253.4193 0.03 393.8301
v -253.4193 0.03 393.8301
v -258.3189 0.03 393.784
v -258.3189 0.03 393.784
v -258.3036 0.03 390.7841
v -258.3036 0.03 390.7841
v -258.3355 -0.35 397.034
v -258.3355 -0.35 397.034
v -258.3189 0.03 393.784
v -258.3189 0.03 393.784
v -263.2099 0.03 393.7827
v -263.2099 0.03 393.7827
v -263.2245 0.03 390.7827
v -263.2245 0.03 390.7827
v -263.1941 -0.35 397.0327
v -263.1941 -0.35 397.0327
v -263.2099 0.03 393.7827
v -263.2099 0.03 393.7827
v -268.1098 0.03 393.8353
v -268.1098 0.03 393.8353
v -268.1609 0.03 390.8358
v -268.1609 0.03 390.8358
v -268.0544 -0.35 397.0849
v -268.0544 -0.35 397.0849
v -268.1098 0.03 393.8353
v -268.1098 0.03 393.8353
v -272.9571 0.03 393.9531
v -272.9571 0.03 393.9531
v -273.0535 0.03 390.9547
v -273.0535 0.03 390.9547
v -272.8526 -0.35 397.2014
v -272.8526 -0.35 397.2014
v -272.9571 0.03 393.9531
v -272.9571 0.03 393.9531
v -277.732 0.03 394.1506
v -277.732 0.03 394.1506
v -277.8862 0.03 391.1545
v -277.8862 0.03 391.1545
v -277.5649 -0.35 397.3963
v -277.5649 -0.35 397.3963
v -277.732 0.03 394.1506
v -277.732 0.03 394.1506
v -282.4282 0.03 394.4496
v -282.4282 0.03 394.4496
v -282.6598 0.03 391.4586
v -282.6598 0.03 391.4586
v -282.1773 -0.35 397.6899
v -282.1773 -0.35 397.6899
v -282.4282 0.03 394.4496
v -282.4282 0.03 394.4496
v -286.9586 0.03 394.8785
v -286.9586 0.03 394.8785
v -287.3003 0.03 391.898
v -287.3003 0.03 391.898
v -286.5883 -0.35 398.1074
v -286.5883 -0.35 398.1074
v -286.9586 0.03 394.8785
v -286.9586 0.03 394.8785
v -291.1685 0.03 395.4729
v -291.1685 0.03 395.4729
v -291.6829 0.03 392.5173
v -291.6829 0.03 392.5173
v -290.6112 -0.35 398.6747
v -290.6112 -0.35 398.6747
v -291.1685 0.03 395.4729
v -291.1685 0.03 395.4729
v -294.6532 0.03 396.245
v -294.6532 0.03 396.245
v -295.4944 0.03 393.3653
v -295.4944 0.03 393.3653
v -293.742 -0.35 399.3646
v -293.742 -0.35 399.3646
v -294.6532 0.03 396.245
v -294.6532 0.03 396.245

vn 0 1 0
vn 0 0 0
vn 0 1 0
vn 0 0 0
vn -0.002242417 0.9932319 0.1161272
vn 0 0 0
vn -0.002244818 0.9932323 0.116123
vn 0 0 0
vn 0 1 0
vn 0 0 0
vn 0 1 0
vn 0 0 0
vn -0.002945533 0.9932332 0.1160997
vn 0 0 0
vn -0.003669078 0.9932339 0.1160737
vn 0 0 0
vn 0 1 0
vn 0 0 0
vn 0 1 0
vn 0 0 0
vn -0.00471716 0.9932337 0.1160366
vn 0 0 0
vn -0.005032172 0.9932339 0.1160224
vn 0 0 0
vn 0 1 0
vn 0 0 0
vn 0 1 0
vn 0 0 0
vn -0.005505787 0.9932339 0.1160009
vn 0 0 0
vn -0.00566402 0.9932339 0.1159934
vn 0 0 0
vn -1.230535E-10 0.9999999 -6.332291E-12
vn 0 0 0
vn -2.462124E-10 1 -1.282212E-11
vn 0 0 0
vn -0.005899759 0.9932337 0.115982
vn 0 0 0
vn -0.005975859 0.9932338 0.1159785
vn 0 0 0
vn -1.228861E-10 1 -6.323678E-12
vn 0 0 0
vn 1.227011E-10 0.9999999 6.487093E-12
vn 0 0 0
vn -0.00607813 0.9932337 0.1159732
vn 0 0 0
vn -0.00610401 0.9932337 0.1159719
vn 0 0 0
vn 2.457477E-10 0.9999999 1.297111E-11
vn 0 0 0
vn 1.232421E-10 0.9999999 6.515699E-12
vn 0 0 0
vn -0.006120272 0.9932337 0.1159711
vn 0 0 0
vn -0.006110729 0.9932337 0.1159714
vn 0 0 0
vn 1.233799E-10 1 6.444862E-12
vn 0 0 0
vn 2.462111E-10 1 1.270323E-11
vn 0 0 0
vn -0.006063753 0.9932339 0.1159737
vn 0 0 0
vn -0.006026589 0.9932339 0.1159755
vn 0 0 0
vn 1.229494E-10 0.9999999 6.422377E-12
vn 0 0 0
vn -1.23003E-10 1 -6.04022E-12
vn 0 0 0
vn -0.005929582 0.9932337 0.1159805
vn 0 0 0
vn -0.005869628 0.9932338 0.1159835
vn 0 0 0
vn -1.234744E-10 1 -6.291501E-12
vn 0 0 0
vn 1.238141E-10 1 5.789305E-12
vn 0 0 0
vn -0.005728266 0.9932337 0.1159904
vn 0 0 0
vn -0.005646446 0.9932337 0.1159944
vn 0 0 0
vn 1.242609E-10 1 6.101988E-12
vn 0 0 0
vn -1.242624E-10 1 -5.455911E-12
vn 0 0 0
vn -0.005463891 0.9932337 0.1160031
vn 0 0 0
vn -0.005363632 0.9932339 0.1160077
vn 0 0 0
vn -3.720567E-10 1 -1.668929E-11
vn 0 0 0
vn -3.708258E-10 1 -1.585922E-11
vn 0 0 0
vn -0.005142701 0.9932339 0.1160176
vn 0 0 0
vn -0.005022675 0.9932339 0.1160229
vn 0 0 0
vn 1.764654E-14 1 -4.222564E-13
vn 0 0 0
vn 3.725315E-10 1 1.410356E-11
vn 0 0 0
vn -0.004761373 0.9932338 0.116034
vn 0 0 0
vn -0.004618262 0.9932338 0.11604
vn 0 0 0
vn 3.743042E-10 1 1.466301E-11
vn 0 0 0
vn -1.777411E-14 1 5.687714E-13
vn 0 0 0
vn -0.004310885 0.9932338 0.1160518
vn 0 0 0
vn -0.0041474 0.9932339 0.1160577
vn 0 0 0
vn -1.251267E-10 0.9999999 -4.572573E-12
vn 0 0 0
vn 1.252836E-10 1 3.347899E-12
vn 0 0 0
vn -0.003795283 0.9932339 0.1160696
vn 0 0 0
vn -0.003605842 0.9932339 0.1160757
vn 0 0 0
vn -2.043481E-14 1 6.590227E-13
vn 0 0 0
vn -3.756596E-10 0.9999999 -8.504851E-12
vn 0 0 0
vn -0.003195473 0.9932337 0.1160878
vn 0 0 0
vn -0.002975494 0.9932337 0.1160941
vn 0 0 0
vn -2.505734E-10 1 -6.695965E-12
vn 0 0 0
vn 2.504579E-10 1 3.372309E-12
vn 0 0 0
vn -0.002500671 0.9932337 0.1161053
vn 0 0 0
vn -0.002244713 0.9932337 0.1161104
vn 0 0 0
vn 5.032502E-10 1 8.57106E-12
vn 0 0 0
vn 2.51911E-10 1 3.391874E-12
vn 0 0 0
vn -0.001691799 0.9932339 0.1161194
vn 0 0 0
vn -0.001393221 0.9932339 0.1161231
vn 0 0 0
vn -1.265745E-10 1 -6.463795E-13
vn 0 0 0
vn -2.527893E-10 1 -3.085854E-14
vn 0 0 0
vn -0.0007402519 0.9932339 0.1161291
vn 0 0 0
vn -0.0003865987 0.9932339 0.1161312
vn 0 0 0
vn -1.266064E-10 1 -6.465427E-13
vn 0 0 0
vn 1.261982E-10 1 -2.151878E-12
vn 0 0 0
vn 0.0003937063 0.9932338 0.116131
vn 0 0 0
vn 0.0008204923 0.9932338 0.1161291
vn 0 0 0
vn 2.536546E-10 0.9999999 -2.779204E-12
vn 0 0 0
vn 1.268734E-10 1 -2.163392E-12
vn 0 0 0
vn 0.001765928 0.9932339 0.1161182
vn 0 0 0
vn 0.002290656 0.9932338 0.1161096
vn 0 0 0
vn -1.282047E-10 1 4.121996E-12
vn 0 0 0
vn -2.565181E-10 1 1.072422E-11
vn 0 0 0
vn 0.003469751 0.9932338 0.1160801
vn 0 0 0
vn 0.004130056 0.9932336 0.1160596
vn 0 0 0
vn -2.598929E-10 1 1.086531E-11
vn 0 0 0
vn -1.298572E-10 1 6.683728E-12
vn 0 0 0
vn 0.005643667 0.9932337 0.115995
vn 0 0 0
vn 0.006506047 0.9932336 0.1159518
vn 0 0 0
vn 0 1 0
vn 0 0 0
vn 0 1 0
vn 0 0 0
vn 0.008527629 0.9932339 0.1158187
vn 0 0 0
vn 0.009719474 0.9932333 0.1157288
vn 0 0 0
vn 0 1 0
vn 0 0 0
vn 0 0.9999999 0
vn 0 0 0
vn 0.01258869 0.9932338 0.1154473
vn 0 0 0
vn 0.01436323 0.9932324 0.1152522
vn 0 0 0
vn 1.499285E-10 1 -2.60929E-11
vn 0 0 0
vn 3.048198E-10 1 -7.080828E-11
vn 0 0 0
vn 0.01867615 0.9932339 0.1146195
vn 0 0 0
vn 0.02168234 0.9932272 0.1141469
vn 0 0 0
vn 4.855334E-10 1 -1.127873E-10
vn 0 0 0
vn 4.588719E-10 1 -1.340323E-10
vn 0 0 0
vn 0.0250993 0.993212 0.113578
vn 0 0 0
vn 0.02517589 0.9932044 0.1136279
vn 0 0 0

vt 0 0
vt 0 0
vt -0.0012146 -0.6
vt -0.0012146 -0.6
vt 0.001312256 0.65
vt 0.001312256 0.65
vt 0 0
vt 0 0
vt 1.079218 -0.02088623
vt 1.079218 -0.02088623
vt 1.060315 -0.6205932
vt 1.060315 -0.6205932
vt 1.099692 0.6287903
vt 1.099692 0.6287903
vt 1.079218 -0.02088623
vt 1.079218 -0.02088623
vt 2.116412 -0.06026611
vt 2.116412 -0.06026611
vt 2.09064 -0.6597107
vt 2.09064 -0.6597107
vt 2.144333 0.5891358
vt 2.144333 0.5891358
vt 2.116412 -0.06026611
vt 2.116412 -0.06026611
vt 3.138812 -0.1074097
vt 3.138812 -0.1074097
vt 3.109674 -0.7067017
vt 3.109674 -0.7067017
vt 3.17038 0.5418274
vt 3.17038 0.5418274
vt 3.138812 -0.1074097
vt 3.138812 -0.1074097
vt 4.146118 -0.1579834
vt 4.146118 -0.1579834
vt 4.115283 -0.7571899
vt 4.115283 -0.7571899
vt 4.179523 0.491156
vt 4.179523 0.491156
vt 4.146118 -0.1579834
vt 4.146118 -0.1579834
vt 5.152673 -0.2105103
vt 5.152673 -0.2105103
vt 5.1211 -0.8096802
vt 5.1211 -0.8096802
vt 5.186881 0.4385864
vt 5.186881 0.4385864
vt 5.152673 -0.2105103
vt 5.152673 -0.2105103
vt 6.163639 -0.2639465
vt 6.163639 -0.2639465
vt 6.131961 -0.8631104
vt 6.131961 -0.8631104
vt 6.197952 0.3851441
vt 6.197952 0.3851441
vt 6.163639 -0.2639465
vt 6.163639 -0.2639465
vt 7.165192 -0.3166382
vt 7.165192 -0.3166382
vt 7.133893 -0.9158203
vt 7.133893 -0.9158203
vt 7.1991 0.3324768
vt 7.1991 0.3324768
vt 7.165192 -0.3166382
vt 7.165192 -0.3166382
vt 8.172846 -0.3686768
vt 8.172846 -0.3686768
vt 8.142313 -0.9679016
vt 8.142313 -0.9679016
vt 8.205924 0.280481
vt 8.205924 0.280481
vt 8.172846 -0.3686768
vt 8.172846 -0.3686768
vt 9.178626 -0.4190552
vt 9.178626 -0.4190552
vt 9.149198 -1.018329
vt 9.149198 -1.018329
vt 9.21051 0.2301636
vt 9.21051 0.2301636
vt 9.178626 -0.4190552
vt 9.178626 -0.4190552
vt 10.17546 -0.4668701
vt 10.17546 -0.4668701
vt 10.14744 -1.066217
vt 10.14744 -1.066217
vt 10.20582 0.1824219
vt 10.20582 0.1824219
vt 10.17546 -0.4668701
vt 10.17546 -0.4668701
vt 11.1714 -0.5120544
vt 11.1714 -0.5120544
vt 11.14508 -1.111475
vt 11.14508 -1.111475
vt 11.19991 0.137323
vt 11.19991 0.137323
vt 11.1714 -0.5120544
vt 11.1714 -0.5120544
vt 12.17566 -0.5544922
vt 12.17566 -0.5544922
vt 12.15139 -1.153998
vt 12.15139 -1.153998
vt 12.20196 0.09497681
vt 12.20196 0.09497681
vt 12.17566 -0.5544922
vt 12.17566 -0.5544922
vt 13.16906 -0.5927917
vt 13.16906 -0.5927917
vt 13.14715 -1.192395
vt 13.14715 -1.192395
vt 13.1928 0.0567749
vt 13.1928 0.0567749
vt 13.16906 -0.5927917
vt 13.16906 -0.5927917
vt 14.16131 -0.6268494
vt 14.16131 -0.6268494
vt 14.14213 -1.226538
vt 14.14213 -1.226538
vt 14.18208 0.02282104
vt 14.18208 0.02282104
vt 14.16131 -0.6268494
vt 14.16131 -0.6268494
vt 15.14775 -0.6558716
vt 15.14775 -0.6558716
vt 15.13172 -1.255658
vt 15.13172 -1.255658
vt 15.16511 -0.006103516
vt 15.16511 -0.006103516
vt 15.14775 -0.6558716
vt 15.14775 -0.6558716
vt 16.13774 -0.6793701
vt 16.13774 -0.6793701
vt 16.12539 -1.279242
vt 16.12539 -1.279242
vt 16.15113 -0.0295105
vt 16.15113 -0.0295105
vt 16.13774 -0.6793701
vt 16.13774 -0.6793701
vt 17.12575 -0.6962891
vt 17.12575 -0.6962891
vt 17.11767 -1.296234
vt 17.11767 -1.296234
vt 17.1345 -0.04634399
vt 17.1345 -0.04634399
vt 17.12575 -0.6962891
vt 17.12575 -0.6962891
vt 18.10568 -0.7055054
vt 18.10568 -0.7055054
vt 18.10261 -1.305493
vt 18.10261 -1.305493
vt 18.109 -0.05551147
vt 18.109 -0.05551147
vt 18.10568 -0.7055054
vt 18.10568 -0.7055054
vt 19.08387 -0.7057739
vt 19.08387 -0.7057739
vt 19.08679 -1.305768
vt 19.08679 -1.305768
vt 19.08071 -0.05578003
vt 19.08071 -0.05578003
vt 19.08387 -0.7057739
vt 19.08387 -0.7057739
vt 20.06385 -0.6952454
vt 20.06385 -0.6952454
vt 20.07408 -1.29516
vt 20.07408 -1.29516
vt 20.05277 -0.04533691
vt 20.05277 -0.04533691
vt 20.06385 -0.6952454
vt 20.06385 -0.6952454
vt 21.0333 -0.6716919
vt 21.0333 -0.6716919
vt 21.05258 -1.271381
vt 21.05258 -1.271381
vt 21.01241 -0.02202759
vt 21.01241 -0.02202759
vt 21.0333 -0.6716919
vt 21.0333 -0.6716919
vt 21.98828 -0.6321961
vt 21.98828 -0.6321961
vt 22.01912 -1.231403
vt 22.01912 -1.231403
vt 21.95488 0.01694336
vt 21.95488 0.01694336
vt 21.98828 -0.6321961
vt 21.98828 -0.6321961
vt 22.92753 -0.5723816
vt 22.92753 -0.5723816
vt 22.97385 -1.170587
vt 22.97385 -1.170587
vt 22.87734 0.07567749
vt 22.87734 0.07567749
vt 22.92753 -0.5723816
vt 22.92753 -0.5723816
vt 23.8336 -0.4866089
vt 23.8336 -0.4866089
vt 23.90195 -1.082703
vt 23.90195 -1.082703
vt 23.75955 0.1591614
vt 23.75955 0.1591614
vt 23.8336 -0.4866089
vt 23.8336 -0.4866089
vt 24.67559 -0.3677368
vt 24.67559 -0.3677368
vt 24.77846 -0.9588501
vt 24.77846 -0.9588501
vt 24.56414 0.2726379
vt 24.56414 0.2726379
vt 24.67559 -0.3677368
vt 24.67559 -0.3677368
vt 25.37253 -0.2133179
vt 25.37253 -0.2133179
vt 25.54076 -0.7892517
vt 25.54076 -0.7892517
vt 25.19029 0.4106079
vt 25.19029 0.4106079
vt 25.37253 -0.2133179
vt 25.37253 -0.2133179

usemtl GSDShoulder1
usemap GSDShoulder1
f 9/9/9 1/1/1 3/3/3
f 11/11/11 9/9/9 3/3/3
f 13/13/13 5/5/5 7/7/7
f 15/15/15 13/13/13 7/7/7
f 17/17/17 9/9/9 11/11/11
f 19/19/19 17/17/17 11/11/11
f 21/21/21 13/13/13 15/15/15
f 23/23/23 21/21/21 15/15/15
f 25/25/25 17/17/17 19/19/19
f 27/27/27 25/25/25 19/19/19
f 29/29/29 21/21/21 23/23/23
f 31/31/31 29/29/29 23/23/23
f 33/33/33 25/25/25 27/27/27
f 35/35/35 33/33/33 27/27/27
f 37/37/37 29/29/29 31/31/31
f 39/39/39 37/37/37 31/31/31
f 41/41/41 33/33/33 35/35/35
f 43/43/43 41/41/41 35/35/35
f 45/45/45 37/37/37 39/39/39
f 47/47/47 45/45/45 39/39/39
f 49/49/49 41/41/41 43/43/43
f 51/51/51 49/49/49 43/43/43
f 53/53/53 45/45/45 47/47/47
f 55/55/55 53/53/53 47/47/47
f 57/57/57 49/49/49 51/51/51
f 59/59/59 57/57/57 51/51/51
f 61/61/61 53/53/53 55/55/55
f 63/63/63 61/61/61 55/55/55
f 65/65/65 57/57/57 59/59/59
f 67/67/67 65/65/65 59/59/59
f 69/69/69 61/61/61 63/63/63
f 71/71/71 69/69/69 63/63/63
f 73/73/73 65/65/65 67/67/67
f 75/75/75 73/73/73 67/67/67
f 77/77/77 69/69/69 71/71/71
f 79/79/79 77/77/77 71/71/71
f 81/81/81 73/73/73 75/75/75
f 83/83/83 81/81/81 75/75/75
f 85/85/85 77/77/77 79/79/79
f 87/87/87 85/85/85 79/79/79
f 89/89/89 81/81/81 83/83/83
f 91/91/91 89/89/89 83/83/83
f 93/93/93 85/85/85 87/87/87
f 95/95/95 93/93/93 87/87/87
f 97/97/97 89/89/89 91/91/91
f 99/99/99 97/97/97 91/91/91
f 101/101/101 93/93/93 95/95/95
f 103/103/103 101/101/101 95/95/95
f 105/105/105 97/97/97 99/99/99
f 107/107/107 105/105/105 99/99/99
f 109/109/109 101/101/101 103/103/103
f 111/111/111 109/109/109 103/103/103
f 113/113/113 105/105/105 107/107/107
f 115/115/115 113/113/113 107/107/107
f 117/117/117 109/109/109 111/111/111
f 119/119/119 117/117/117 111/111/111
f 121/121/121 113/113/113 115/115/115
f 123/123/123 121/121/121 115/115/115
f 125/125/125 117/117/117 119/119/119
f 127/127/127 125/125/125 119/119/119
f 129/129/129 121/121/121 123/123/123
f 131/131/131 129/129/129 123/123/123
f 133/133/133 125/125/125 127/127/127
f 135/135/135 133/133/133 127/127/127
f 137/137/137 129/129/129 131/131/131
f 139/139/139 137/137/137 131/131/131
f 141/141/141 133/133/133 135/135/135
f 143/143/143 141/141/141 135/135/135
f 145/145/145 137/137/137 139/139/139
f 147/147/147 145/145/145 139/139/139
f 149/149/149 141/141/141 143/143/143
f 151/151/151 149/149/149 143/143/143
f 153/153/153 145/145/145 147/147/147
f 155/155/155 153/153/153 147/147/147
f 157/157/157 149/149/149 151/151/151
f 159/159/159 157/157/157 151/151/151
f 161/161/161 153/153/153 155/155/155
f 163/163/163 161/161/161 155/155/155
f 165/165/165 157/157/157 159/159/159
f 167/167/167 165/165/165 159/159/159
f 169/169/169 161/161/161 163/163/163
f 171/171/171 169/169/169 163/163/163
f 173/173/173 165/165/165 167/167/167
f 175/175/175 173/173/173 167/167/167
f 177/177/177 169/169/169 171/171/171
f 179/179/179 177/177/177 171/171/171
f 181/181/181 173/173/173 175/175/175
f 183/183/183 181/181/181 175/175/175
f 185/185/185 177/177/177 179/179/179
f 187/187/187 185/185/185 179/179/179
f 189/189/189 181/181/181 183/183/183
f 191/191/191 189/189/189 183/183/183
f 193/193/193 185/185/185 187/187/187
f 195/195/195 193/193/193 187/187/187
f 197/197/197 189/189/189 191/191/191
f 199/199/199 197/197/197 191/191/191
f 201/201/201 193/193/193 195/195/195
f 203/203/203 201/201/201 195/195/195
f 205/205/205 197/197/197 199/199/199
f 207/207/207 205/205/205 199/199/199
f 209/209/209 201/201/201 203/203/203
f 211/211/211 209/209/209 203/203/203
f 213/213/213 205/205/205 207/207/207
f 215/215/215 213/213/213 207/207/207
