mtllib ./Road1_0_107.mtl
g Markers53
v -609.803 30.37306 735.3173
v -609.803 30.37306 735.3173
v -609.4772 30.37306 745.28
v -609.4772 30.37306 745.28
v -604.7452 30.79557 735.1329
v -604.7452 30.79557 735.1329
v -604.343 30.79557 745.0886
v -604.343 30.79557 745.0886
v -599.7621 31.23065 734.9238
v -599.7621 31.23065 734.9238
v -599.3328 31.23065 744.876
v -599.3328 31.23065 744.876
v -594.6909 31.678 734.7098
v -594.6909 31.678 734.7098
v -594.2899 31.678 744.6632
v -594.2899 31.678 744.6632
v -589.6129 32.11512 734.5235
v -589.6129 32.11512 734.5235
v -589.2979 32.11512 744.4826
v -589.2979 32.11512 744.4826
v -584.4865 32.53025 734.3932
v -584.4865 32.53025 734.3932
v -584.3134 32.53025 744.3608
v -584.3134 32.53025 744.3608
v -579.4001 32.90278 734.3478
v -579.4001 32.90278 734.3478
v -579.4148 32.90278 744.3234
v -579.4148 32.90278 744.3234
v -574.1937 33.2322 734.4104
v -574.1937 33.2322 734.4104
v -574.4381 33.2322 744.39
v -574.4381 33.2322 744.39

vn -0.0831478 0.9965336 0.002719126
vn 0 0 0
vn -0.08251584 0.9965852 0.003015986
vn 0 0 0
vn -0.08393428 0.9964663 0.003177657
vn 0 0 0
vn -0.08499941 0.9963748 0.003512371
vn 0 0 0
vn -0.08697034 0.9962041 0.003673138
vn 0 0 0
vn -0.08742885 0.9961639 0.003687706
vn 0 0 0
vn -0.08718456 0.9961857 0.00359596
vn 0 0 0
vn -0.08699089 0.9962038 0.003255288
vn 0 0 0
vn -0.0844484 0.9964236 0.002918518
vn 0 0 0
vn -0.08355737 0.9965004 0.002251926
vn 0 0 0
vn -0.07886203 0.996884 0.001757354
vn 0 0 0
vn -0.07725729 0.9970108 0.0008741643
vn 0 0 0
vn -0.07054867 0.9975083 0.0003568455
vn 0 0 0
vn -0.06821764 0.9976703 -0.0006018847
vn 0 0 0
vn -0.06455262 0.9979141 -0.0008379405
vn 0 0 0
vn -0.06602535 0.9978166 -0.001616855
vn 0 0 0

vt 0 818.0193
vt 0 0
vt 1 818.0193
vt 0 0
vt 0 819.0351
vt 0 819.0351
vt 1 819.0351
vt 1 819.0351
vt 0 820.0364
vt 0 820.0364
vt 1 820.0364
vt 1 820.0364
vt 0 821.0555
vt 0 821.0555
vt 1 821.0555
vt 1 821.0555
vt 0 822.0755
vt 0 822.0755
vt 1 822.0755
vt 1 822.0755
vt 0 823.1045
vt 0 823.1045
vt 1 823.1045
vt 1 823.1045
vt 0 824.1245
vt 0 824.1245
vt 1 824.1245
vt 1 824.1245
vt 0 825.168
vt 0 0
vt 1 825.168
vt 0 0

usemtl GSDWhiteYellowDouble
usemap GSDWhiteYellowDouble
f 5/5/5 1/1/1 3/3/3
f 7/7/7 5/5/5 3/3/3
f 9/9/9 5/5/5 7/7/7
f 11/11/11 9/9/9 7/7/7
f 13/13/13 9/9/9 11/11/11
f 15/15/15 13/13/13 11/11/11
f 17/17/17 13/13/13 15/15/15
f 19/19/19 17/17/17 15/15/15
f 21/21/21 17/17/17 19/19/19
f 23/23/23 21/21/21 19/19/19
f 25/25/25 21/21/21 23/23/23
f 27/27/27 25/25/25 23/23/23
f 29/29/29 25/25/25 27/27/27
f 31/31/31 29/29/29 27/27/27
