mtllib ./Road8_2_19.mtl
g RoadCut2
v -589.1331 4.193063 264.8888
v -589.1331 4.193063 264.8888
v -579.3441 4.193063 263.9667
v -579.3441 4.193063 263.9667
v -590.1196 3.498719 260.354
v -590.1196 3.498719 260.354
v -580.3072 3.498719 258.7722
v -580.3072 3.498719 258.7722
v -589.7746 2.99307 253.3104
v -589.7746 2.99307 253.3104
v -580.142 2.99307 255.8509
v -580.142 2.99307 255.8509
v -586.8828 2.63552 247.1858
v -586.8828 2.63552 247.1858
v -578.7402 2.63552 252.9651
v -578.7402 2.63552 252.9651
v -582.5337 2.43804 242.576
v -582.5337 2.43804 242.576
v -576.2057 2.43804 250.315
v -576.2057 2.43804 250.315
v -577.5091 2.370456 239.2484
v -577.5091 2.370456 239.2484
v -572.7741 2.370456 248.0563
v -572.7741 2.370456 248.0563
v -572.3228 2.399659 236.9207
v -572.3228 2.399659 236.9207
v -568.8302 2.399659 246.29
v -568.8302 2.399659 246.29
v -567.0368 2.499095 235.2665
v -567.0368 2.499095 235.2665
v -564.5209 2.499095 244.9415
v -564.5209 2.499095 244.9415
v -561.6206 2.654986 234.0994
v -561.6206 2.654986 234.0994
v -559.8943 2.654986 243.9432
v -559.8943 2.654986 243.9432

vn -0.01397507 0.9888339 -0.148365
vn 0 0 0
vn -0.01760497 0.9903008 -0.1378203
vn 0 0 0
vn -0.01516202 0.9937124 -0.1109316
vn 0 0 0
vn -0.004075577 0.9938603 -0.110567
vn 0 0 0
vn 0.00849359 0.9966822 -0.08094665
vn 0 0 0
vn 0.03351938 0.9955256 -0.08834695
vn 0 0 0
vn 0.02558728 0.9984461 -0.04950525
vn 0 0 0
vn 0.03618934 0.9983722 -0.0440831
vn 0 0 0
vn 0.0200714 0.9995852 -0.02065404
vn 0 0 0
vn 0.01927788 0.9997083 -0.01454848
vn 0 0 0
vn 0.005464855 0.9999776 -0.003867524
vn 0 0 0
vn 0.0004579369 0.9999998 -0.0005665825
vn 0 0 0
vn -0.009427121 0.9999484 0.003787365
vn 0 0 0
vn -0.01510032 0.9998741 0.004873276
vn 0 0 0
vn -0.02184002 0.9997413 0.006353471
vn 0 0 0
vn -0.0271061 0.9996136 0.006169259
vn 0 0 0
vn -0.02964183 0.9995399 0.006442341
vn 0 0 0
vn -0.03244798 0.9994572 0.005690486
vn 0 0 0

vt 0 0
vt 0 0
vt -1.957788 -0.1844116
vt -1.957788 -0.1844116
vt 0.1973023 -0.906958
vt 0.1973023 -0.906958
vt -1.765173 -1.223315
vt -1.765173 -1.223315
vt 0.1283081 -2.315674
vt 0.1283081 -2.315674
vt -1.798206 -1.807587
vt -1.798206 -1.807587
vt -0.4500488 -3.540601
vt -0.4500488 -3.540601
vt -2.078564 -2.384741
vt -2.078564 -2.384741
vt -1.319873 -4.462564
vt -1.319873 -4.462564
vt -2.585474 -2.914749
vt -2.585474 -2.914749
vt -2.324793 -5.128088
vt -2.324793 -5.128088
vt -3.27179 -3.366498
vt -3.27179 -3.366498
vt -3.362061 -5.593622
vt -3.362061 -5.593622
vt -4.060571 -3.719757
vt -4.060571 -3.719757
vt -4.41925 -5.92446
vt -4.41925 -5.92446
vt -4.922424 -3.989462
vt -4.922424 -3.989462
vt -5.502491 -6.157871
vt -5.502491 -6.157871
vt -5.847754 -4.189126
vt -5.847754 -4.189126

usemtl GSDRoad1
usemap GSDRoad1
f 5/5/5 1/1/1 3/3/3
f 7/7/7 5/5/5 3/3/3
f 9/9/9 5/5/5 7/7/7
f 11/11/11 9/9/9 7/7/7
f 13/13/13 9/9/9 11/11/11
f 15/15/15 13/13/13 11/11/11
f 17/17/17 13/13/13 15/15/15
f 19/19/19 17/17/17 15/15/15
f 21/21/21 17/17/17 19/19/19
f 23/23/23 21/21/21 19/19/19
f 25/25/25 21/21/21 23/23/23
f 27/27/27 25/25/25 23/23/23
f 29/29/29 25/25/25 27/27/27
f 31/31/31 29/29/29 27/27/27
f 33/33/33 29/29/29 31/31/31
f 35/35/35 33/33/33 31/31/31
