mtllib ./Road1_0_26.mtl
g Markers1
v -295.4944 0.04 393.3653
v -295.4944 0.04 393.3653
v -301.1019 0.04 374.1675
v -301.1019 0.04 374.1675
v -300.9527 0.04 394.9088
v -300.9527 0.04 394.9088
v -305.3296 0.04 375.3936
v -305.3296 0.04 375.3936
v -308.294 0.04 395.7504
v -308.294 0.04 395.7504
v -307.9489 0.04 375.7534
v -307.9489 0.04 375.7534
v -300.0595 0.04 383.2286
v -300.0595 0.04 383.2286
v -317.8566 0.04 392.3535
v -317.8566 0.04 392.3535
v -297.5745 0.04 389.5999
v -297.5745 0.04 389.5999
v -316.7423 0.04 395.3089
v -316.7423 0.04 395.3089
v -296.1609 0.04 395.3947
v -296.1609 0.04 395.3947
v -315.7787 0.04 399.2858
v -315.7787 0.04 399.2858
v -295.2399 0.04 400.9637
v -295.2399 0.04 400.9637
v -315.057 0.04 403.662
v -315.057 0.04 403.662
v -294.6222 0.04 406.432
v -294.6222 0.04 406.432
v -314.5384 0.04 408.2608
v -314.5384 0.04 408.2608
v -294.2212 0.04 411.8359
v -294.2212 0.04 411.8359
v -314.1877 0.04 412.9921
v -314.1877 0.04 412.9921
v -293.9844 0.04 417.2497
v -293.9844 0.04 417.2497
v -313.9751 0.04 417.8589
v -313.9751 0.04 417.8589
v -293.8841 0.04 422.5102
v -293.8841 0.04 422.5102
v -313.8834 0.04 422.6757
v -313.8834 0.04 422.6757
v -293.8926 0.04 427.8519
v -293.8926 0.04 427.8519
v -313.8914 0.04 427.633
v -313.8914 0.04 427.633

vn -3.15213E-10 1 9.207146E-11
vn 0 0 0
vn -3.581886E-10 1 9.238066E-11
vn 0 0 0
vn -2.0705E-10 1 5.34004E-11
vn 0 0 0
vn -1.266202E-10 1 2.839894E-11
vn 0 0 0
vn -9.584734E-10 1 -1.654059E-11
vn 0 0 0
vn -2.089105E-10 1 3.353428E-10
vn 0 0 0
vn -3.00107E-10 1 -1.869596E-10
vn 0 0 0
vn -9.468831E-11 1 -2.587342E-10
vn 0 0 0
vn -1.402379E-10 1 -3.205411E-10
vn 0 0 0
vn -1.282932E-11 1 3.175562E-12
vn 0 0 0
vn 5.699392E-11 1 2.302614E-10
vn 0 0 0
vn 2.558606E-11 1 1.28995E-10
vn 0 0 0
vn 0 1 0
vn 0 0 0
vn 0 1 0
vn 0 0 0
vn 0 1 0
vn 0 0 0
vn 0 1 0
vn 0 0 0
vn 0 1 0
vn 0 0 0
vn 0 0.9999999 0
vn 0 0 0
vn 0 1 0
vn 0 0 0
vn 0 1 0
vn 0 0 0
vn 0 0.9999999 0
vn 0 0 0
vn 0 1 0
vn 0 0 0
vn 0 1 0
vn 0 0 0
vn 0 1 0
vn 0 0 0

vt 0 25.59193
vt 0 0
vt 1 25.59193
vt 0 0
vt 0 26.72641
vt 0 26.72641
vt 1 26.72641
vt 1 26.72641
vt 0 28.2043
vt 0 28.2043
vt 1 28.2043
vt 1 28.2043
vt 0 31.20165
vt 0 31.20165
vt 1 31.20165
vt 1 31.20165
vt 0 32.5694
vt 0 32.5694
vt 1 32.5694
vt 1 32.5694
vt 0 33.76233
vt 0 33.76233
vt 1 33.76233
vt 1 33.76233
vt 0 34.89127
vt 0 34.89127
vt 1 34.89127
vt 1 34.89127
vt 0 35.99189
vt 0 35.99189
vt 1 35.99189
vt 1 35.99189
vt 0 37.07565
vt 0 37.07565
vt 1 37.07565
vt 1 37.07565
vt 0 38.15943
vt 0 38.15943
vt 1 38.15943
vt 1 38.15943
vt 0 39.21172
vt 0 39.21172
vt 1 39.21172
vt 1 39.21172
vt 0 40.28006
vt 0 0
vt 1 40.28006
vt 0 0

usemtl GSDWhiteYellowDouble-4L
usemap GSDWhiteYellowDouble-4L
f 5/5/5 1/1/1 3/3/3
f 7/7/7 5/5/5 3/3/3
f 9/9/9 5/5/5 7/7/7
f 11/11/11 9/9/9 7/7/7
f 13/13/13 9/9/9 11/11/11
f 15/15/15 13/13/13 11/11/11
f 17/17/17 13/13/13 15/15/15
f 19/19/19 17/17/17 15/15/15
f 21/21/21 17/17/17 19/19/19
f 23/23/23 21/21/21 19/19/19
f 25/25/25 21/21/21 23/23/23
f 27/27/27 25/25/25 23/23/23
f 29/29/29 25/25/25 27/27/27
f 31/31/31 29/29/29 27/27/27
f 33/33/33 29/29/29 31/31/31
f 35/35/35 33/33/33 31/31/31
f 37/37/37 33/33/33 35/35/35
f 39/39/39 37/37/37 35/35/35
f 41/41/41 37/37/37 39/39/39
f 43/43/43 41/41/41 39/39/39
f 45/45/45 41/41/41 43/43/43
f 47/47/47 45/45/45 43/43/43
