mtllib ./Road2_1_8.mtl
g SCutR0
v -319.3326 0.03 560.2856
v -319.3326 0.03 560.2856
v -319.4036 0.03 557.2864
v -319.4036 0.03 557.2864
v -319.4036 0.03 557.2864
v -319.4036 0.03 557.2864
v -319.4805 -0.35 554.0374
v -319.4805 -0.35 554.0374
v -324.3511 0.03 560.4044
v -324.3511 0.03 560.4044
v -324.4221 0.03 557.4053
v -324.4221 0.03 557.4053
v -324.4221 0.03 557.4053
v -324.4221 0.03 557.4053
v -324.4991 -0.35 554.1561
v -324.4991 -0.35 554.1561
v -329.3586 0.03 560.5229
v -329.3586 0.03 560.5229
v -329.4295 0.03 557.5239
v -329.4295 0.03 557.5239
v -329.4295 0.03 557.5239
v -329.4295 0.03 557.5239
v -329.5065 -0.35 554.2748
v -329.5065 -0.35 554.2748
v -334.3667 0.03 560.6416
v -334.3667 0.03 560.6416
v -334.4377 0.03 557.6425
v -334.4377 0.03 557.6425
v -334.4377 0.03 557.6425
v -334.4377 0.03 557.6425
v -334.5146 -0.35 554.3934
v -334.5146 -0.35 554.3934
v -339.3768 0.03 560.7603
v -339.3768 0.03 560.7603
v -339.4478 0.03 557.7611
v -339.4478 0.03 557.7611
v -339.4478 0.03 557.7611
v -339.4478 0.03 557.7611
v -339.5247 -0.35 554.512
v -339.5247 -0.35 554.512
v -344.4264 0.03 560.8798
v -344.4264 0.03 560.8798
v -344.4974 0.03 557.8807
v -344.4974 0.03 557.8807
v -344.4974 0.03 557.8807
v -344.4974 0.03 557.8807
v -344.5744 -0.35 554.6315
v -344.5744 -0.35 554.6315
v -349.4568 0.03 560.9989
v -349.4568 0.03 560.9989
v -349.5278 0.03 557.9998
v -349.5278 0.03 557.9998
v -349.5278 0.03 557.9998
v -349.5278 0.03 557.9998
v -349.6047 -0.35 554.7507
v -349.6047 -0.35 554.7507
v -354.5049 0.03 561.1185
v -354.5049 0.03 561.1185
v -354.5759 0.03 558.1193
v -354.5759 0.03 558.1193
v -354.5759 0.03 558.1193
v -354.5759 0.03 558.1193
v -354.6529 -0.35 554.8702
v -354.6529 -0.35 554.8702
v -359.503 0.03 561.2368
v -359.503 0.03 561.2368
v -359.574 0.03 558.2376
v -359.574 0.03 558.2376
v -359.574 0.03 558.2376
v -359.574 0.03 558.2376
v -359.651 -0.35 554.9885
v -359.651 -0.35 554.9885
v -364.5208 0.03 561.3557
v -364.5208 0.03 561.3557
v -364.5918 0.03 558.3565
v -364.5918 0.03 558.3565
v -364.5918 0.03 558.3565
v -364.5918 0.03 558.3565
v -364.6687 -0.35 555.1074
v -364.6687 -0.35 555.1074
v -369.5663 0.03 561.4752
v -369.5663 0.03 561.4752
v -369.6373 0.03 558.476
v -369.6373 0.03 558.476
v -369.6373 0.03 558.476
v -369.6373 0.03 558.476
v -369.7142 -0.35 555.2269
v -369.7142 -0.35 555.2269
v -374.5796 0.03 561.5938
v -374.5796 0.03 561.5938
v -374.6506 0.03 558.5947
v -374.6506 0.03 558.5947
v -374.6506 0.03 558.5947
v -374.6506 0.03 558.5947
v -374.7275 -0.35 555.3456
v -374.7275 -0.35 555.3456
v -379.6151 0.03 561.7131
v -379.6151 0.03 561.7131
v -379.6861 0.03 558.714
v -379.6861 0.03 558.714
v -379.6861 0.03 558.714
v -379.6861 0.03 558.714
v -379.763 -0.35 555.4648
v -379.763 -0.35 555.4648
v -384.6403 0.03 561.832
v -384.6403 0.03 561.832
v -384.7113 0.03 558.8329
v -384.7113 0.03 558.8329
v -384.7113 0.03 558.8329
v -384.7113 0.03 558.8329
v -384.7883 -0.35 555.5838
v -384.7883 -0.35 555.5838
v -389.6404 0.03 561.9504
v -389.6404 0.03 561.9504
v -389.7114 0.03 558.9513
v -389.7114 0.03 558.9513
v -389.7114 0.03 558.9513
v -389.7114 0.03 558.9513
v -389.7884 -0.35 555.7022
v -389.7884 -0.35 555.7022
v -394.6641 0.03 562.0693
v -394.6641 0.03 562.0693
v -394.735 0.03 559.0703
v -394.735 0.03 559.0703
v -394.735 0.03 559.0703
v -394.735 0.03 559.0703
v -394.812 -0.35 555.8212
v -394.812 -0.35 555.8212
v -399.694 0.03 562.1885
v -399.694 0.03 562.1885
v -399.765 0.03 559.1894
v -399.765 0.03 559.1894
v -399.765 0.03 559.1894
v -399.765 0.03 559.1894
v -399.8419 -0.35 555.9404
v -399.8419 -0.35 555.9404

vn 0 1 0
vn 0 0 0
vn 0 1 0
vn 0 0 0
vn -0.002747752 0.9932338 -0.1160996
vn 0 0 0
vn -0.002747745 0.9932338 -0.1160996
vn 0 0 0
vn 0 1 0
vn 0 0 0
vn 0 1 0
vn 0 0 0
vn -0.002748823 0.9932338 -0.1160996
vn 0 0 0
vn -0.002749899 0.9932337 -0.1160995
vn 0 0 0
vn 1.239159E-10 1 -2.934107E-12
vn 0 0 0
vn 2.478208E-10 1 -5.867952E-12
vn 0 0 0
vn -0.002750388 0.9932338 -0.1160995
vn 0 0 0
vn -0.002749799 0.9932337 -0.1160995
vn 0 0 0
vn 2.47777E-10 1 -5.866918E-12
vn 0 0 0
vn 1.238721E-10 1 -2.93307E-12
vn 0 0 0
vn -0.002749314 0.9932337 -0.1160996
vn 0 0 0
vn -0.002749423 0.9932338 -0.1160996
vn 0 0 0
vn -2.47063E-10 1 5.850008E-12
vn 0 0 0
vn -4.928355E-10 1 1.166946E-11
vn 0 0 0
vn -0.002748911 0.9932338 -0.1160996
vn 0 0 0
vn -0.002748299 0.9932337 -0.1160996
vn 0 0 0
vn -4.921775E-10 1 1.165388E-11
vn 0 0 0
vn -2.464023E-10 1 5.834366E-12
vn 0 0 0
vn -0.002748375 0.9932338 -0.1160996
vn 0 0 0
vn -0.002749063 0.9932337 -0.1160996
vn 0 0 0
vn 0 1 0
vn 0 0 0
vn 0 1 0
vn 0 0 0
vn -0.002749323 0.9932338 -0.1160996
vn 0 0 0
vn -0.002748895 0.9932337 -0.1160996
vn 0 0 0
vn 0 1 0
vn 0 0 0
vn 0 1 0
vn 0 0 0
vn -0.002748662 0.9932338 -0.1160996
vn 0 0 0
vn -0.002748856 0.9932337 -0.1160996
vn 0 0 0
vn 2.479829E-10 0.9999999 -5.871794E-12
vn 0 0 0
vn 4.953184E-10 1 -1.172825E-11
vn 0 0 0
vn -0.002749707 0.9932338 -0.1160996
vn 0 0 0
vn -0.002750359 0.9932338 -0.1160996
vn 0 0 0
vn 2.468804E-10 0.9999999 -5.845687E-12
vn 0 0 0
vn -2.464262E-10 1 5.834932E-12
vn 0 0 0
vn -0.002750168 0.9932338 -0.1160996
vn 0 0 0
vn -0.002749329 0.9932337 -0.1160996
vn 0 0 0
vn -3.697483E-10 1 8.754982E-12
vn 0 0 0
vn 0 0.9999999 0
vn 0 0 0
vn -0.002748732 0.9932337 -0.1160996
vn 0 0 0
vn -0.002748975 0.9932338 -0.1160996
vn 0 0 0
vn 2.471906E-10 1 -5.853032E-12
vn 0 0 0
vn 1.23413E-10 1 -2.922199E-12
vn 0 0 0
vn -0.002749391 0.9932338 -0.1160996
vn 0 0 0
vn -0.002749566 0.9932339 -0.1160996
vn 0 0 0
vn 0 1 0
vn 0 0 0
vn 0 1 0
vn 0 0 0
vn -0.002749256 0.9932337 -0.1160996
vn 0 0 0
vn -0.002748779 0.9932339 -0.1160996
vn 0 0 0
vn -1.236896E-10 1 2.928748E-12
vn 0 0 0
vn -2.477941E-10 1 5.867321E-12
vn 0 0 0
vn -0.002748661 0.9932338 -0.1160996
vn 0 0 0
vn -0.002749024 0.9932337 -0.1160996
vn 0 0 0
vn -1.239106E-10 1 2.933982E-12
vn 0 0 0
vn 1.237166E-10 1 -2.929389E-12
vn 0 0 0
vn -0.002749324 0.9932338 -0.1160996
vn 0 0 0
vn -0.002749264 0.9932338 -0.1160995
vn 0 0 0
vn 2.469429E-10 1 -5.847168E-12
vn 0 0 0
vn 1.234197E-10 1 -2.922359E-12
vn 0 0 0
vn -0.00274946 0.9932338 -0.1160996
vn 0 0 0
vn -0.002749719 0.9932339 -0.1160996
vn 0 0 0
vn 0 1 0
vn 0 0 0
vn 0 1 0
vn 0 0 0
vn -0.002749968 0.9932338 -0.1160996
vn 0 0 0
vn -0.002749967 0.9932338 -0.1160996
vn 0 0 0

vt 0 0
vt 0 0
vt 0.01420288 -0.5998291
vt 0.01420288 -0.5998291
vt 0.01420288 -0.5998291
vt 0.01420288 -0.5998291
vt 0.02958984 -1.249646
vt 0.02958984 -1.249646
vt 1.003705 0.02375488
vt 1.003705 0.02375488
vt 1.017908 -0.5760742
vt 1.017908 -0.5760742
vt 1.017908 -0.5760742
vt 1.017908 -0.5760742
vt 1.033301 -1.225891
vt 1.033301 -1.225891
vt 2.0052 0.04748535
vt 2.0052 0.04748535
vt 2.019403 -0.5523438
vt 2.019403 -0.5523438
vt 2.019403 -0.5523438
vt 2.019403 -0.5523438
vt 2.034796 -1.202161
vt 2.034796 -1.202161
vt 3.00683 0.07120361
vt 3.00683 0.07120361
vt 3.021033 -0.5286255
vt 3.021033 -0.5286255
vt 3.021033 -0.5286255
vt 3.021033 -0.5286255
vt 3.03642 -1.178442
vt 3.03642 -1.178442
vt 4.008856 0.09493408
vt 4.008856 0.09493408
vt 4.023059 -0.504895
vt 4.023059 -0.504895
vt 4.023059 -0.504895
vt 4.023059 -0.504895
vt 4.038446 -1.154712
vt 4.038446 -1.154712
vt 5.018775 0.1188354
vt 5.018775 0.1188354
vt 5.032978 -0.4809937
vt 5.032978 -0.4809937
vt 5.032978 -0.4809937
vt 5.032978 -0.4809937
vt 5.048364 -1.130811
vt 5.048364 -1.130811
vt 6.024841 0.1426636
vt 6.024841 0.1426636
vt 6.039044 -0.4571655
vt 6.039044 -0.4571655
vt 6.039044 -0.4571655
vt 6.039044 -0.4571655
vt 6.054431 -1.106982
vt 6.054431 -1.106982
vt 7.034473 0.1665649
vt 7.034473 0.1665649
vt 7.048676 -0.4332642
vt 7.048676 -0.4332642
vt 7.048676 -0.4332642
vt 7.048676 -0.4332642
vt 7.064063 -1.083081
vt 7.064063 -1.083081
vt 8.034095 0.1902344
vt 8.034095 0.1902344
vt 8.048297 -0.4095947
vt 8.048297 -0.4095947
vt 8.048297 -0.4095947
vt 8.048297 -0.4095947
vt 8.063684 -1.059412
vt 8.063684 -1.059412
vt 9.037641 0.2140137
vt 9.037641 0.2140137
vt 9.051844 -0.3858154
vt 9.051844 -0.3858154
vt 9.051844 -0.3858154
vt 9.051844 -0.3858154
vt 9.06723 -1.035632
vt 9.06723 -1.035632
vt 10.04675 0.2379028
vt 10.04675 0.2379028
vt 10.06095 -0.3619263
vt 10.06095 -0.3619263
vt 10.06095 -0.3619263
vt 10.06095 -0.3619263
vt 10.07634 -1.011743
vt 10.07634 -1.011743
vt 11.0494 0.2616455
vt 11.0494 0.2616455
vt 11.06361 -0.3381836
vt 11.06361 -0.3381836
vt 11.06361 -0.3381836
vt 11.06361 -0.3381836
vt 11.07899 -0.9880005
vt 11.07899 -0.9880005
vt 12.05651 0.2854981
vt 12.05651 0.2854981
vt 12.07071 -0.3143311
vt 12.07071 -0.3143311
vt 12.07071 -0.3143311
vt 12.07071 -0.3143311
vt 12.0861 -0.964148
vt 12.0861 -0.964148
vt 13.06156 0.3092895
vt 13.06156 0.3092895
vt 13.07576 -0.2905396
vt 13.07576 -0.2905396
vt 13.07576 -0.2905396
vt 13.07576 -0.2905396
vt 13.09115 -0.9403564
vt 13.09115 -0.9403564
vt 14.06157 0.3329712
vt 14.06157 0.3329712
vt 14.07578 -0.2668579
vt 14.07578 -0.2668579
vt 14.07578 -0.2668579
vt 14.07578 -0.2668579
vt 14.09117 -0.9166748
vt 14.09117 -0.9166748
vt 15.0663 0.3567627
vt 15.0663 0.3567627
vt 15.0805 -0.2430664
vt 15.0805 -0.2430664
vt 15.0805 -0.2430664
vt 15.0805 -0.2430664
vt 15.09589 -0.8928833
vt 15.09589 -0.8928833
vt 16.07228 0.3805908
vt 16.07228 0.3805908
vt 16.08649 -0.2192383
vt 16.08649 -0.2192383
vt 16.08649 -0.2192383
vt 16.08649 -0.2192383
vt 16.10187 -0.8690552
vt 16.10187 -0.8690552

usemtl GSDShoulder1
usemap GSDShoulder1
f 9/9/9 1/1/1 3/3/3
f 11/11/11 9/9/9 3/3/3
f 13/13/13 5/5/5 7/7/7
f 15/15/15 13/13/13 7/7/7
f 17/17/17 9/9/9 11/11/11
f 19/19/19 17/17/17 11/11/11
f 21/21/21 13/13/13 15/15/15
f 23/23/23 21/21/21 15/15/15
f 25/25/25 17/17/17 19/19/19
f 27/27/27 25/25/25 19/19/19
f 29/29/29 21/21/21 23/23/23
f 31/31/31 29/29/29 23/23/23
f 33/33/33 25/25/25 27/27/27
f 35/35/35 33/33/33 27/27/27
f 37/37/37 29/29/29 31/31/31
f 39/39/39 37/37/37 31/31/31
f 41/41/41 33/33/33 35/35/35
f 43/43/43 41/41/41 35/35/35
f 45/45/45 37/37/37 39/39/39
f 47/47/47 45/45/45 39/39/39
f 49/49/49 41/41/41 43/43/43
f 51/51/51 49/49/49 43/43/43
f 53/53/53 45/45/45 47/47/47
f 55/55/55 53/53/53 47/47/47
f 57/57/57 49/49/49 51/51/51
f 59/59/59 57/57/57 51/51/51
f 61/61/61 53/53/53 55/55/55
f 63/63/63 61/61/61 55/55/55
f 65/65/65 57/57/57 59/59/59
f 67/67/67 65/65/65 59/59/59
f 69/69/69 61/61/61 63/63/63
f 71/71/71 69/69/69 63/63/63
f 73/73/73 65/65/65 67/67/67
f 75/75/75 73/73/73 67/67/67
f 77/77/77 69/69/69 71/71/71
f 79/79/79 77/77/77 71/71/71
f 81/81/81 73/73/73 75/75/75
f 83/83/83 81/81/81 75/75/75
f 85/85/85 77/77/77 79/79/79
f 87/87/87 85/85/85 79/79/79
f 89/89/89 81/81/81 83/83/83
f 91/91/91 89/89/89 83/83/83
f 93/93/93 85/85/85 87/87/87
f 95/95/95 93/93/93 87/87/87
f 97/97/97 89/89/89 91/91/91
f 99/99/99 97/97/97 91/91/91
f 101/101/101 93/93/93 95/95/95
f 103/103/103 101/101/101 95/95/95
f 105/105/105 97/97/97 99/99/99
f 107/107/107 105/105/105 99/99/99
f 109/109/109 101/101/101 103/103/103
f 111/111/111 109/109/109 103/103/103
f 113/113/113 105/105/105 107/107/107
f 115/115/115 113/113/113 107/107/107
f 117/117/117 109/109/109 111/111/111
f 119/119/119 117/117/117 111/111/111
f 121/121/121 113/113/113 115/115/115
f 123/123/123 121/121/121 115/115/115
f 125/125/125 117/117/117 119/119/119
f 127/127/127 125/125/125 119/119/119
f 129/129/129 121/121/121 123/123/123
f 131/131/131 129/129/129 123/123/123
f 133/133/133 125/125/125 127/127/127
f 135/135/135 133/133/133 127/127/127
