mtllib ./Road1_0_192.mtl
g SCutR53
v -609.4772 30.36306 745.28
v -609.4772 30.36306 745.28
v -609.3746 30.36306 748.42
v -609.3746 30.36306 748.42
v -609.3746 30.36306 748.42
v -609.3746 30.36306 748.42
v -609.3082 28.49665 750.4503
v -609.3082 28.49665 750.4503
v -604.343 30.78557 745.0886
v -604.343 30.78557 745.0886
v -604.2159 30.78557 748.2327
v -604.2159 30.78557 748.2327
v -604.2159 30.78557 748.2327
v -604.2159 30.78557 748.2327
v -604.1339 28.81095 750.2631
v -604.1339 28.81095 750.2631
v -599.3328 31.22065 744.876
v -599.3328 31.22065 744.876
v -599.1971 31.22065 748.0214
v -599.1971 31.22065 748.0214
v -599.1971 31.22065 748.0214
v -599.1971 31.22065 748.0214
v -599.1096 29.28615 750.0518
v -599.1096 29.28615 750.0518
v -594.2899 31.668 744.6632
v -594.2899 31.668 744.6632
v -594.1632 31.668 747.8075
v -594.1632 31.668 747.8075
v -594.1632 31.668 747.8075
v -594.1632 31.668 747.8075
v -594.0814 29.60491 749.8378
v -594.0814 29.60491 749.8378
v -589.2979 32.10512 744.4826
v -589.2979 32.10512 744.4826
v -589.1987 32.10512 747.623
v -589.1987 32.10512 747.623
v -589.1987 32.10512 747.623
v -589.1987 32.10512 747.623
v -589.1345 30.08218 749.653
v -589.1345 30.08218 749.653
v -584.3134 32.52026 744.3608
v -584.3134 32.52026 744.3608
v -584.259 32.52026 747.494
v -584.259 32.52026 747.494
v -584.259 32.52026 747.494
v -584.259 32.52026 747.494
v -584.2237 30.39324 749.5231
v -584.2237 30.39324 749.5231
v -579.4148 32.89278 744.3234
v -579.4148 32.89278 744.3234
v -579.4193 32.89278 747.4452
v -579.4193 32.89278 747.4452
v -579.4193 32.89278 747.4452
v -579.4193 32.89278 747.4452
v -579.4223 30.89623 749.4725
v -579.4223 30.89623 749.4725
v -574.4381 33.2222 744.39
v -574.4381 33.2222 744.39
v -574.5141 33.2222 747.4954
v -574.5141 33.2222 747.4954
v -574.5141 33.2222 747.4954
v -574.5141 33.2222 747.4954
v -574.5637 31.24601 749.5192
v -574.5637 31.24601 749.5192

vn -0.08191643 0.9966355 0.002678267
vn 0 0 0
vn -0.08171364 0.9966514 0.002986571
vn 0 0 0
vn -0.03563112 0.7351543 0.6769627
vn 0 0 0
vn -0.02683426 0.72574 0.6874455
vn 0 0 0
vn -0.08323848 0.9965247 0.003151244
vn 0 0 0
vn -0.08466678 0.9964032 0.003498427
vn 0 0 0
vn -0.02877059 0.7224946 0.6907777
vn 0 0 0
vn -0.02995936 0.7182868 0.6951017
vn 0 0 0
vn -0.08692771 0.9962079 0.003671135
vn 0 0 0
vn -0.0875937 0.9961494 0.003694252
vn 0 0 0
vn -0.03563152 0.720414 0.6926283
vn 0 0 0
vn -0.0292871 0.7154633 0.6980361
vn 0 0 0
vn -0.08789337 0.9961233 0.003624601
vn 0 0 0
vn -0.0876957 0.9961419 0.003280792
vn 0 0 0
vn -0.02796438 0.7080477 0.7056106
vn 0 0 0
vn -0.03025652 0.7028255 0.7107186
vn 0 0 0
vn -0.08588218 0.9963009 0.002966863
vn 0 0 0
vn -0.08475059 0.9963996 0.002283455
vn 0 0 0
vn -0.03931183 0.7047921 0.7083238
vn 0 0 0
vn -0.03573468 0.7013323 0.7119383
vn 0 0 0
vn -0.08084413 0.996725 0.001801296
vn 0 0 0
vn -0.07878484 0.9968913 0.0008929644
vn 0 0 0
vn -0.03703894 0.6953956 0.717672
vn 0 0 0
vn -0.04543718 0.6966056 0.7160141
vn 0 0 0
vn -0.07282559 0.9973447 0.0003705456
vn 0 0 0
vn -0.06988546 0.9975549 -0.0006131755
vn 0 0 0
vn -0.05580046 0.7038119 0.7081915
vn 0 0 0
vn -0.06003063 0.7124673 0.6991329
vn 0 0 0
vn -0.06651244 0.9977853 -0.0008598781
vn 0 0 0
vn -0.06698827 0.9977524 -0.001639223
vn 0 0 0
vn -0.05653894 0.713207 0.6986696
vn 0 0 0
vn -0.05815863 0.7149742 0.6967277
vn 0 0 0

vt 0 0
vt 0 0
vt -0.02053223 0.6279907
vt -0.02053223 0.6279907
vt -0.02053223 0.6279907
vt -0.02053223 0.6279907
vt -0.03381348 1.034058
vt -0.03381348 1.034058
vt -1.026855 -0.03828125
vt -1.026855 -0.03828125
vt -1.052258 0.5905274
vt -1.052258 0.5905274
vt -1.052258 0.5905274
vt -1.052258 0.5905274
vt -1.068665 0.9966187
vt -1.068665 0.9966187
vt -2.028882 -0.08081055
vt -2.028882 -0.08081055
vt -2.056018 0.5482788
vt -2.056018 0.5482788
vt -2.056018 0.5482788
vt -2.056018 0.5482788
vt -2.073535 0.9543579
vt -2.073535 0.9543579
vt -3.037476 -0.1233643
vt -3.037476 -0.1233643
vt -3.062805 0.5054932
vt -3.062805 0.5054932
vt -3.062805 0.5054932
vt -3.062805 0.5054932
vt -3.079163 0.9115478
vt -3.079163 0.9115478
vt -4.035864 -0.1594849
vt -4.035864 -0.1594849
vt -4.055713 0.4686035
vt -4.055713 0.4686035
vt -4.055713 0.4686035
vt -4.055713 0.4686035
vt -4.068555 0.8745972
vt -4.068555 0.8745972
vt -5.032776 -0.1838379
vt -5.032776 -0.1838379
vt -5.043653 0.4427857
vt -5.043653 0.4427857
vt -5.043653 0.4427857
vt -5.043653 0.4427857
vt -5.050708 0.8486206
vt -5.050708 0.8486206
vt -6.012488 -0.191333
vt -6.012488 -0.191333
vt -6.011585 0.4330322
vt -6.011585 0.4330322
vt -6.011585 0.4330322
vt -6.011585 0.4330322
vt -6.010986 0.838501
vt -6.010986 0.838501
vt -7.007825 -0.1780029
vt -7.007825 -0.1780029
vt -6.992627 0.4430664
vt -6.992627 0.4430664
vt -6.992627 0.4430664
vt -6.992627 0.4430664
vt -6.982715 0.8478271
vt -6.982715 0.8478271

usemtl GSDShoulder1
usemap GSDShoulder1
f 9/9/9 1/1/1 3/3/3
f 11/11/11 9/9/9 3/3/3
f 13/13/13 5/5/5 7/7/7
f 15/15/15 13/13/13 7/7/7
f 17/17/17 9/9/9 11/11/11
f 19/19/19 17/17/17 11/11/11
f 21/21/21 13/13/13 15/15/15
f 23/23/23 21/21/21 15/15/15
f 25/25/25 17/17/17 19/19/19
f 27/27/27 25/25/25 19/19/19
f 29/29/29 21/21/21 23/23/23
f 31/31/31 29/29/29 23/23/23
f 33/33/33 25/25/25 27/27/27
f 35/35/35 33/33/33 27/27/27
f 37/37/37 29/29/29 31/31/31
f 39/39/39 37/37/37 31/31/31
f 41/41/41 33/33/33 35/35/35
f 43/43/43 41/41/41 35/35/35
f 45/45/45 37/37/37 39/39/39
f 47/47/47 45/45/45 39/39/39
f 49/49/49 41/41/41 43/43/43
f 51/51/51 49/49/49 43/43/43
f 53/53/53 45/45/45 47/47/47
f 55/55/55 53/53/53 47/47/47
f 57/57/57 49/49/49 51/51/51
f 59/59/59 57/57/57 51/51/51
f 61/61/61 53/53/53 55/55/55
f 63/63/63 61/61/61 55/55/55
