mtllib ./Road1_0_215.mtl
g SCutL6
v -592.7845 78.85072 595.8165
v -592.7845 78.85072 595.8165
v -592.5801 78.85072 592.7983
v -592.5801 78.85072 592.7983
v -592.92 77.68874 597.8182
v -592.92 77.68874 597.8182
v -592.7845 78.85072 595.8165
v -592.7845 78.85072 595.8165
v -597.8693 78.83566 595.4875
v -597.8693 78.83566 595.4875
v -597.6356 78.83566 592.4336
v -597.6356 78.83566 592.4336
v -598.0231 77.37333 597.4972
v -598.0231 77.37333 597.4972
v -597.8693 78.83566 595.4875
v -597.8693 78.83566 595.4875
v -602.9919 78.69258 595.1741
v -602.9919 78.69258 595.1741
v -602.7229 78.69258 592.0183
v -602.7229 78.69258 592.0183
v -603.1652 77.37333 597.2076
v -603.1652 77.37333 597.2076
v -602.9919 78.69258 595.1741
v -602.9919 78.69258 595.1741
v -608.1495 78.42883 594.7967
v -608.1495 78.42883 594.7967
v -607.8472 78.42883 591.5551
v -607.8472 78.42883 591.5551
v -608.3411 77.37333 596.8492
v -608.3411 77.37333 596.8492
v -608.1495 78.42883 594.7967
v -608.1495 78.42883 594.7967
v -613.2094 78.07221 594.3715
v -613.2094 78.07221 594.3715
v -612.8764 78.07221 591.0612
v -612.8764 78.07221 591.0612
v -613.4174 75.56349 596.4389
v -613.4174 75.56349 596.4389
v -613.2094 78.07221 594.3715
v -613.2094 78.07221 594.3715
v -618.2912 77.63427 593.8945
v -618.2912 77.63427 593.8945
v -617.9298 77.63427 590.5294
v -617.9298 77.63427 590.5294
v -618.5144 75.56349 595.9732
v -618.5144 75.56349 595.9732
v -618.2912 77.63427 593.8945
v -618.2912 77.63427 593.8945
v -623.3892 77.13151 593.3696
v -623.3892 77.13151 593.3696
v -623.002 77.13151 589.9633
v -623.002 77.13151 589.9633
v -623.6264 75.56349 595.4565
v -623.6264 75.56349 595.4565
v -623.3892 77.13151 593.3696
v -623.3892 77.13151 593.3696
v -628.4978 76.58051 592.8008
v -628.4978 76.58051 592.8008
v -628.0873 76.58051 589.3661
v -628.0873 76.58051 589.3661
v -628.7479 74.00726 594.8929
v -628.7479 74.00726 594.8929
v -628.4978 76.58051 592.8008
v -628.4978 76.58051 592.8008
v -633.4836 76.01265 592.207
v -633.4836 76.01265 592.207
v -633.0531 76.01265 588.757
v -633.0531 76.01265 588.757
v -633.7449 74.00726 594.3016
v -633.7449 74.00726 594.3016
v -633.4836 76.01265 592.207
v -633.4836 76.01265 592.207
v -638.4689 75.43002 591.5775
v -638.4689 75.43002 591.5775
v -638.0213 75.43002 588.1241
v -638.0213 75.43002 588.1241
v -638.7405 74.00726 593.6721
v -638.7405 74.00726 593.6721
v -638.4689 75.43002 591.5775
v -638.4689 75.43002 591.5775
v -643.4487 74.84796 590.9151
v -643.4487 74.84796 590.9151
v -642.9867 74.84796 587.4701
v -642.9867 74.84796 587.4701
v -643.7292 72.48984 593.0071
v -643.7292 72.48984 593.0071
v -643.4487 74.84796 590.9151
v -643.4487 74.84796 590.9151
v -648.4169 74.28186 590.2224
v -648.4169 74.28186 590.2224
v -647.9436 74.28186 586.7977
v -647.9436 74.28186 586.7977
v -648.7053 72.48984 592.3093
v -648.7053 72.48984 592.3093
v -648.4169 74.28186 590.2224
v -648.4169 74.28186 590.2224
v -653.3693 73.74699 589.5015
v -653.3693 73.74699 589.5015
v -652.8878 73.74699 586.1089
v -652.8878 73.74699 586.1089
v -653.6644 72.48984 591.5807
v -653.6644 72.48984 591.5807
v -653.3693 73.74699 589.5015
v -653.3693 73.74699 589.5015
v -658.4261 73.24699 588.7352
v -658.4261 73.24699 588.7352
v -657.9394 73.24699 585.3883
v -657.9394 73.24699 585.3883
v -658.7269 71.79204 590.8036
v -658.7269 71.79204 590.8036
v -658.4261 73.24699 588.7352
v -658.4261 73.24699 588.7352
v -663.4544 72.81255 587.9434
v -663.4544 72.81255 587.9434
v -662.9661 72.81255 584.6555
v -662.9661 72.81255 584.6555
v -663.7596 71.79204 589.998
v -663.7596 71.79204 589.998
v -663.4544 72.81255 587.9434
v -663.4544 72.81255 587.9434
v -668.4483 72.46027 587.1279
v -668.4483 72.46027 587.1279
v -667.9619 72.46027 583.9126
v -667.9619 72.46027 583.9126
v -668.7565 71.78495 589.1654
v -668.7565 71.78495 589.1654
v -668.4483 72.46027 587.1279
v -668.4483 72.46027 587.1279
v -673.4019 72.20669 586.29
v -673.4019 72.20669 586.29
v -672.9212 72.20669 583.1616
v -672.9212 72.20669 583.1616
v -673.7119 71.78495 588.3067
v -673.7119 71.78495 588.3067
v -673.4019 72.20669 586.29
v -673.4019 72.20669 586.29
v -678.4313 72.06654 585.4092
v -678.4313 72.06654 585.4092
v -677.9603 72.06654 582.3854
v -677.9603 72.06654 582.3854
v -678.7414 71.78495 587.4001
v -678.7414 71.78495 587.4001
v -678.4313 72.06654 585.4092
v -678.4313 72.06654 585.4092

vn -0.002948932 0.9999956 -0.0001996567
vn 0 0 0
vn -0.002955837 0.9999956 -0.0002132386
vn 0 0 0
vn -0.08461124 0.8642152 0.4959567
vn 0 0 0
vn -0.06182318 0.837263 0.5432942
vn 0 0 0
vn -0.01132451 0.9999354 -0.0008580299
vn 0 0 0
vn -0.01970696 0.9998045 -0.001591015
vn 0 0 0
vn -0.05195427 0.8280033 0.558311
vn 0 0 0
vn -0.04317807 0.8196711 0.5712049
vn 0 0 0
vn -0.03563257 0.9993606 -0.002958311
vn 0 0 0
vn -0.04334671 0.9990527 -0.003833983
vn 0 0 0
vn -0.04224889 0.8298024 0.5564559
vn 0 0 0
vn -0.0571963 0.8569814 0.5121636
vn 0 0 0
vn -0.05716189 0.9983513 -0.00519734
vn 0 0 0
vn -0.06358001 0.9979581 -0.006102716
vn 0 0 0
vn -0.1521501 0.868611 0.4715563
vn 0 0 0
vn -0.1732179 0.7969204 0.5787169
vn 0 0 0
vn -0.07502297 0.9971545 -0.007379365
vn 0 0 0
vn -0.08022154 0.9967428 -0.00826574
vn 0 0 0
vn -0.160026 0.7120482 0.6836513
vn 0 0 0
vn -0.1010642 0.660992 0.7435561
vn 0 0 0
vn -0.08921547 0.995968 -0.009390618
vn 0 0 0
vn -0.09332628 0.9955831 -0.01022829
vn 0 0 0
vn -0.0884606 0.6853445 0.7228261
vn 0 0 0
vn -0.111247 0.739499 0.6639017
vn 0 0 0
vn -0.1001536 0.9949092 -0.01118316
vn 0 0 0
vn -0.1032036 0.9945886 -0.01193983
vn 0 0 0
vn -0.1677837 0.7667803 0.619594
vn 0 0 0
vn -0.195722 0.7359917 0.6480812
vn 0 0 0
vn -0.1078887 0.994082 -0.01268812
vn 0 0 0
vn -0.10989 0.9938543 -0.01332951
vn 0 0 0
vn -0.1750085 0.6825895 0.7095376
vn 0 0 0
vn -0.1346345 0.6615754 0.7376934
vn 0 0 0
vn -0.1125997 0.9935438 -0.01385512
vn 0 0 0
vn -0.1136013 0.9934226 -0.01436012
vn 0 0 0
vn -0.1124084 0.69279 0.7123248
vn 0 0 0
vn -0.1370589 0.7578052 0.6379234
vn 0 0 0
vn -0.1143411 0.9933337 -0.01463658
vn 0 0 0
vn -0.1143832 0.9933234 -0.01499763
vn 0 0 0
vn -0.1857876 0.7892078 0.5853495
vn 0 0 0
vn -0.2168258 0.7655271 0.6057678
vn 0 0 0
vn -0.1132352 0.9934547 -0.01501529
vn 0 0 0
vn -0.1123207 0.9935555 -0.0152153
vn 0 0 0
vn -0.1918107 0.7143015 0.6730395
vn 0 0 0
vn -0.1500028 0.6960654 0.702134
vn 0 0 0
vn -0.1092764 0.9938989 -0.0149505
vn 0 0 0
vn -0.1073893 0.9941043 -0.01497254
vn 0 0 0
vn -0.1233532 0.7283956 0.6739613
vn 0 0 0
vn -0.1438767 0.7920659 0.5932379
vn 0 0 0
vn -0.1023284 0.9946465 -0.01439406
vn 0 0 0
vn -0.09941013 0.9949449 -0.01422237
vn 0 0 0
vn -0.1489248 0.8239938 0.5466769
vn 0 0 0
vn -0.1736642 0.8414229 0.511711
vn 0 0 0
vn -0.09236592 0.995636 -0.01331894
vn 0 0 0
vn -0.08835471 0.9960052 -0.01293442
vn 0 0 0
vn -0.1488732 0.831176 0.5357081
vn 0 0 0
vn -0.1330274 0.8454149 0.5172789
vn 0 0 0
vn -0.07910311 0.9967983 -0.01166031
vn 0 0 0
vn -0.07398918 0.9971978 -0.0110511
vn 0 0 0
vn -0.1026557 0.8720742 0.4784858
vn 0 0 0
vn -0.1112771 0.9149914 0.3878249
vn 0 0 0
vn -0.06252966 0.9979988 -0.009394914
vn 0 0 0
vn -0.05627405 0.9983787 -0.008551571
vn 0 0 0
vn -0.08088865 0.9335839 0.3491104
vn 0 0 0
vn -0.08393074 0.9601216 0.2666869
vn 0 0 0
vn -0.04228488 0.9990848 -0.006457274
vn 0 0 0
vn -0.03473211 0.9993823 -0.005355489
vn 0 0 0
vn -0.0571386 0.9705862 0.2338751
vn 0 0 0
vn -0.05633101 0.9829965 0.1747704
vn 0 0 0
vn -0.02713686 0.9996229 -0.004197682
vn 0 0 0
vn -0.02714939 0.9996225 -0.004228426
vn 0 0 0
vn -0.04325789 0.9851432 0.1661979
vn 0 0 0
vn -0.05072326 0.9899362 0.1321113
vn 0 0 0

vt 0 0
vt 0 0
vt -0.04086914 -0.6036377
vt -0.04086914 -0.6036377
vt 0.02711182 0.4003296
vt 0.02711182 0.4003296
vt 0 0
vt 0 0
vt 1.016956 -0.06580811
vt 1.016956 -0.06580811
vt 0.9702148 -0.6765869
vt 0.9702148 -0.6765869
vt 1.047717 0.3361328
vt 1.047717 0.3361328
vt 1.016956 -0.06580811
vt 1.016956 -0.06580811
vt 2.04148 -0.128479
vt 2.04148 -0.128479
vt 1.987683 -0.7596436
vt 1.987683 -0.7596436
vt 2.076135 0.2782105
vt 2.076135 0.2782105
vt 2.04148 -0.128479
vt 2.04148 -0.128479
vt 3.07301 -0.2039673
vt 3.07301 -0.2039673
vt 3.012537 -0.8522827
vt 3.012537 -0.8522827
vt 3.111316 0.206543
vt 3.111316 0.206543
vt 3.07301 -0.2039673
vt 3.07301 -0.2039673
vt 4.084985 -0.2890015
vt 4.084985 -0.2890015
vt 4.018384 -0.9510742
vt 4.018384 -0.9510742
vt 4.126587 0.1244751
vt 4.126587 0.1244751
vt 4.084985 -0.2890015
vt 4.084985 -0.2890015
vt 5.101343 -0.3843994
vt 5.101343 -0.3843994
vt 5.029065 -1.057422
vt 5.029065 -1.057422
vt 5.145984 0.03133545
vt 5.145984 0.03133545
vt 5.101343 -0.3843994
vt 5.101343 -0.3843994
vt 6.120935 -0.4893799
vt 6.120935 -0.4893799
vt 6.043494 -1.170654
vt 6.043494 -1.170654
vt 6.168384 -0.07199707
vt 6.168384 -0.07199707
vt 6.120935 -0.4893799
vt 6.120935 -0.4893799
vt 7.142663 -0.6031494
vt 7.142663 -0.6031494
vt 7.060559 -1.290076
vt 7.060559 -1.290076
vt 7.192676 -0.1847168
vt 7.192676 -0.1847168
vt 7.142663 -0.6031494
vt 7.142663 -0.6031494
vt 8.139819 -0.7219116
vt 8.139819 -0.7219116
vt 8.053723 -1.411902
vt 8.053723 -1.411902
vt 8.19209 -0.3029907
vt 8.19209 -0.3029907
vt 8.139819 -0.7219116
vt 8.139819 -0.7219116
vt 9.136889 -0.8478028
vt 9.136889 -0.8478028
vt 9.047363 -1.538477
vt 9.047363 -1.538477
vt 9.191199 -0.428894
vt 9.191199 -0.428894
vt 9.136889 -0.8478028
vt 9.136889 -0.8478028
vt 10.13285 -0.9802856
vt 10.13285 -0.9802856
vt 10.04044 -1.669287
vt 10.04044 -1.669287
vt 10.18895 -0.5618896
vt 10.18895 -0.5618896
vt 10.13285 -0.9802856
vt 10.13285 -0.9802856
vt 11.12649 -1.118823
vt 11.12649 -1.118823
vt 11.03182 -1.803772
vt 11.03182 -1.803772
vt 11.18417 -0.7014527
vt 11.18417 -0.7014527
vt 11.12649 -1.118823
vt 11.12649 -1.118823
vt 12.11697 -1.263
vt 12.11697 -1.263
vt 12.02065 -1.941516
vt 12.02065 -1.941516
vt 12.17599 -0.847168
vt 12.17599 -0.847168
vt 12.11697 -1.263
vt 12.11697 -1.263
vt 13.12832 -1.416272
vt 13.12832 -1.416272
vt 13.03098 -2.085644
vt 13.03098 -2.085644
vt 13.18849 -1.002576
vt 13.18849 -1.002576
vt 13.12832 -1.416272
vt 13.12832 -1.416272
vt 14.13398 -1.574622
vt 14.13398 -1.574622
vt 14.03632 -2.232214
vt 14.03632 -2.232214
vt 14.19502 -1.163696
vt 14.19502 -1.163696
vt 14.13398 -1.574622
vt 14.13398 -1.574622
vt 15.13276 -1.73772
vt 15.13276 -1.73772
vt 15.03549 -2.380786
vt 15.03549 -2.380786
vt 15.19441 -1.330225
vt 15.19441 -1.330225
vt 15.13276 -1.73772
vt 15.13276 -1.73772
vt 16.12349 -1.905298
vt 16.12349 -1.905298
vt 16.02734 -2.530982
vt 16.02734 -2.530982
vt 16.18547 -1.501965
vt 16.18547 -1.501965
vt 16.12349 -1.905298
vt 16.12349 -1.905298
vt 17.12936 -2.08147
vt 17.12936 -2.08147
vt 17.03517 -2.68623
vt 17.03517 -2.68623
vt 17.19138 -1.683276
vt 17.19138 -1.683276
vt 17.12936 -2.08147
vt 17.12936 -2.08147

usemtl GSDShoulder1
usemap GSDShoulder1
f 9/9/9 1/1/1 3/3/3
f 11/11/11 9/9/9 3/3/3
f 13/13/13 5/5/5 7/7/7
f 15/15/15 13/13/13 7/7/7
f 17/17/17 9/9/9 11/11/11
f 19/19/19 17/17/17 11/11/11
f 21/21/21 13/13/13 15/15/15
f 23/23/23 21/21/21 15/15/15
f 25/25/25 17/17/17 19/19/19
f 27/27/27 25/25/25 19/19/19
f 29/29/29 21/21/21 23/23/23
f 31/31/31 29/29/29 23/23/23
f 33/33/33 25/25/25 27/27/27
f 35/35/35 33/33/33 27/27/27
f 37/37/37 29/29/29 31/31/31
f 39/39/39 37/37/37 31/31/31
f 41/41/41 33/33/33 35/35/35
f 43/43/43 41/41/41 35/35/35
f 45/45/45 37/37/37 39/39/39
f 47/47/47 45/45/45 39/39/39
f 49/49/49 41/41/41 43/43/43
f 51/51/51 49/49/49 43/43/43
f 53/53/53 45/45/45 47/47/47
f 55/55/55 53/53/53 47/47/47
f 57/57/57 49/49/49 51/51/51
f 59/59/59 57/57/57 51/51/51
f 61/61/61 53/53/53 55/55/55
f 63/63/63 61/61/61 55/55/55
f 65/65/65 57/57/57 59/59/59
f 67/67/67 65/65/65 59/59/59
f 69/69/69 61/61/61 63/63/63
f 71/71/71 69/69/69 63/63/63
f 73/73/73 65/65/65 67/67/67
f 75/75/75 73/73/73 67/67/67
f 77/77/77 69/69/69 71/71/71
f 79/79/79 77/77/77 71/71/71
f 81/81/81 73/73/73 75/75/75
f 83/83/83 81/81/81 75/75/75
f 85/85/85 77/77/77 79/79/79
f 87/87/87 85/85/85 79/79/79
f 89/89/89 81/81/81 83/83/83
f 91/91/91 89/89/89 83/83/83
f 93/93/93 85/85/85 87/87/87
f 95/95/95 93/93/93 87/87/87
f 97/97/97 89/89/89 91/91/91
f 99/99/99 97/97/97 91/91/91
f 101/101/101 93/93/93 95/95/95
f 103/103/103 101/101/101 95/95/95
f 105/105/105 97/97/97 99/99/99
f 107/107/107 105/105/105 99/99/99
f 109/109/109 101/101/101 103/103/103
f 111/111/111 109/109/109 103/103/103
f 113/113/113 105/105/105 107/107/107
f 115/115/115 113/113/113 107/107/107
f 117/117/117 109/109/109 111/111/111
f 119/119/119 117/117/117 111/111/111
f 121/121/121 113/113/113 115/115/115
f 123/123/123 121/121/121 115/115/115
f 125/125/125 117/117/117 119/119/119
f 127/127/127 125/125/125 119/119/119
f 129/129/129 121/121/121 123/123/123
f 131/131/131 129/129/129 123/123/123
f 133/133/133 125/125/125 127/127/127
f 135/135/135 133/133/133 127/127/127
f 137/137/137 129/129/129 131/131/131
f 139/139/139 137/137/137 131/131/131
f 141/141/141 133/133/133 135/135/135
f 143/143/143 141/141/141 135/135/135
