mtllib ./Road1_0_37.mtl
g Markers18
v -547.5407 26.14797 36.4435
v -547.5407 26.14797 36.4435
v -546.5279 26.14797 46.36007
v -546.5279 26.14797 46.36007
v -542.4658 25.7435 35.94629
v -542.4658 25.7435 35.94629
v -541.5397 25.7435 45.87135
v -541.5397 25.7435 45.87135
v -537.3661 25.33668 35.48959
v -537.3661 25.33668 35.48959
v -536.5084 25.33668 45.42079
v -536.5084 25.33668 45.42079
v -532.3793 24.93799 35.06996
v -532.3793 24.93799 35.06996
v -531.5615 24.93799 45.00452
v -531.5615 24.93799 45.00452
v -527.3207 24.53284 34.65918
v -527.3207 24.53284 34.65918
v -526.5215 24.53284 44.59526
v -526.5215 24.53284 44.59526
v -522.2569 24.12649 34.25245
v -522.2569 24.12649 34.25245
v -521.4566 24.12649 44.18845
v -521.4566 24.12649 44.18845
v -517.2554 23.72427 33.84515
v -517.2554 23.72427 33.84515
v -516.434 23.72427 43.77941
v -516.434 23.72427 43.77941
v -512.2582 23.32131 33.42176
v -512.2582 23.32131 33.42176
v -511.3922 23.32131 43.35222
v -511.3922 23.32131 43.35222
v -507.2355 22.91469 32.96576
v -507.2355 22.91469 32.96576
v -506.2926 22.91469 42.88921
v -506.2926 22.91469 42.88921
v -502.3169 22.5141 32.47011
v -502.3169 22.5141 32.47011
v -501.2506 22.5141 42.38104
v -501.2506 22.5141 42.38104

vn 0.07866196 0.9968691 -0.008034053
vn 0 0 0
vn 0.07937011 0.996815 -0.007755725
vn 0 0 0
vn 0.07920033 0.9968296 -0.007622115
vn 0 0 0
vn 0.07964017 0.9967974 -0.007245876
vn 0 0 0
vn 0.0793201 0.9968243 -0.007034822
vn 0 0 0
vn 0.07962722 0.9968017 -0.006770272
vn 0 0 0
vn 0.07940163 0.9968205 -0.006642999
vn 0 0 0
vn 0.07956551 0.9968084 -0.006499837
vn 0 0 0
vn 0.07946561 0.9968168 -0.006441772
vn 0 0 0
vn 0.07951546 0.9968132 -0.006398662
vn 0 0 0
vn 0.07952392 0.9968123 -0.00640228
vn 0 0 0
vn 0.07946308 0.9968169 -0.006456819
vn 0 0 0
vn 0.07958402 0.9968068 -0.006523642
vn 0 0 0
vn 0.07939981 0.9968204 -0.006685105
vn 0 0 0
vn 0.07965551 0.9967991 -0.00682722
vn 0 0 0
vn 0.07931512 0.9968241 -0.007124217
vn 0 0 0
vn 0.07974885 0.9967877 -0.007368845
vn 0 0 0
vn 0.07917839 0.9968296 -0.007852975
vn 0 0 0
vn 0.07936882 0.9968129 -0.008039795
vn 0 0 0
vn 0.07835429 0.9968899 -0.008429881
vn 0 0 0

vt 0 322.6745
vt 0 0
vt 1 322.6745
vt 0 0
vt 0 323.6975
vt 0 323.6975
vt 1 323.6975
vt 1 323.6975
vt 0 324.7248
vt 0 324.7248
vt 1 324.7248
vt 1 324.7248
vt 0 325.7289
vt 0 325.7289
vt 1 325.7289
vt 1 325.7289
vt 0 326.7471
vt 0 326.7471
vt 1 326.7471
vt 1 326.7471
vt 0 327.7664
vt 0 327.7664
vt 1 327.7664
vt 1 327.7664
vt 0 328.7733
vt 0 328.7733
vt 1 328.7733
vt 1 328.7733
vt 0 329.7795
vt 0 329.7795
vt 1 329.7795
vt 1 329.7795
vt 0 330.7914
vt 0 330.7914
vt 1 330.7914
vt 1 330.7914
vt 0 331.7834
vt 0 0
vt 1 331.7834
vt 0 0

usemtl GSDWhiteYellowDouble
usemap GSDWhiteYellowDouble
f 5/5/5 1/1/1 3/3/3
f 7/7/7 5/5/5 3/3/3
f 9/9/9 5/5/5 7/7/7
f 11/11/11 9/9/9 7/7/7
f 13/13/13 9/9/9 11/11/11
f 15/15/15 13/13/13 11/11/11
f 17/17/17 13/13/13 15/15/15
f 19/19/19 17/17/17 15/15/15
f 21/21/21 17/17/17 19/19/19
f 23/23/23 21/21/21 19/19/19
f 25/25/25 21/21/21 23/23/23
f 27/27/27 25/25/25 23/23/23
f 29/29/29 25/25/25 27/27/27
f 31/31/31 29/29/29 27/27/27
f 33/33/33 29/29/29 31/31/31
f 35/35/35 33/33/33 31/31/31
f 37/37/37 33/33/33 35/35/35
f 39/39/39 37/37/37 35/35/35
