mtllib ./Road1_0_152.mtl
g SCutR13
v -875.3178 56.67105 178.6052
v -875.3178 56.67105 178.6052
v -872.3678 56.67105 180.4024
v -872.3678 56.67105 180.4024
v -872.3678 56.67105 180.4024
v -872.3678 56.67105 180.4024
v -870.5664 55.58776 181.4998
v -870.5664 55.58776 181.4998
v -872.7117 56.26166 174.3927
v -872.7117 56.26166 174.3927
v -869.7682 56.26166 176.2381
v -869.7682 56.26166 176.2381
v -869.7682 56.26166 176.2381
v -869.7682 56.26166 176.2381
v -867.9767 55.21986 177.3613
v -867.9767 55.21986 177.3613
v -870.0152 55.85284 170.148
v -870.0152 55.85284 170.148
v -867.0784 55.85284 172.0368
v -867.0784 55.85284 172.0368
v -867.0784 55.85284 172.0368
v -867.0784 55.85284 172.0368
v -865.2963 54.90042 173.183
v -865.2963 54.90042 173.183
v -867.268 55.44845 165.9281
v -867.268 55.44845 165.9281
v -864.339 55.44845 167.8574
v -864.339 55.44845 167.8574
v -864.339 55.44845 167.8574
v -864.339 55.44845 167.8574
v -862.5661 54.53849 169.0252
v -862.5661 54.53849 169.0252
v -864.4987 55.05107 161.7718
v -864.4987 55.05107 161.7718
v -861.5786 55.05107 163.7392
v -861.5786 55.05107 163.7392
v -861.5786 55.05107 163.7392
v -861.5786 55.05107 163.7392
v -859.815 54.14045 164.9274
v -859.815 54.14045 164.9274
v -861.6646 54.65344 157.6123
v -861.6646 54.65344 157.6123
v -858.7548 54.65344 159.6167
v -858.7548 54.65344 159.6167
v -858.7548 54.65344 159.6167
v -858.7548 54.65344 159.6167
v -857.0011 53.73161 160.8247
v -857.0011 53.73161 160.8247
v -858.7807 54.25694 153.4716
v -858.7807 54.25694 153.4716
v -855.8827 54.25694 155.512
v -855.8827 54.25694 155.512
v -855.8827 54.25694 155.512
v -855.8827 54.25694 155.512
v -854.1392 53.37735 156.7395
v -854.1392 53.37735 156.7395
v -855.8618 53.86293 149.3706
v -855.8618 53.86293 149.3706
v -852.977 53.86293 151.4462
v -852.977 53.86293 151.4462
v -852.977 53.86293 151.4462
v -852.977 53.86293 151.4462
v -851.2441 52.9286 152.693
v -851.2441 52.9286 152.693
v -852.9207 53.47261 145.3272
v -852.9207 53.47261 145.3272
v -850.0507 53.47261 147.4374
v -850.0507 53.47261 147.4374
v -850.0507 53.47261 147.4374
v -850.0507 53.47261 147.4374
v -848.3291 52.57652 148.7032
v -848.3291 52.57652 148.7032
v -849.9698 53.08702 141.3568
v -849.9698 53.08702 141.3568
v -847.1159 53.08702 143.501
v -847.1159 53.08702 143.501
v -847.1159 53.08702 143.501
v -847.1159 53.08702 143.501
v -845.4061 52.12564 144.7857
v -845.4061 52.12564 144.7857
v -846.939 52.69681 137.368
v -846.939 52.69681 137.368
v -844.1034 52.69681 139.5468
v -844.1034 52.69681 139.5468
v -844.1034 52.69681 139.5468
v -844.1034 52.69681 139.5468
v -842.4062 51.77314 140.8508
v -842.4062 51.77314 140.8508
v -843.834 52.3026 133.3731
v -843.834 52.3026 133.3731
v -841.0186 52.3026 135.5871
v -841.0186 52.3026 135.5871
v -841.0186 52.3026 135.5871
v -841.0186 52.3026 135.5871
v -839.3351 51.31936 136.911
v -839.3351 51.31936 136.911
v -840.7435 51.91547 129.4888
v -840.7435 51.91547 129.4888
v -837.9501 51.91547 131.7377
v -837.9501 51.91547 131.7377
v -837.9501 51.91547 131.7377
v -837.9501 51.91547 131.7377
v -836.281 50.86068 133.0815
v -836.281 50.86068 133.0815
v -837.5912 51.52563 125.6208
v -837.5912 51.52563 125.6208
v -834.8222 51.52563 127.9054
v -834.8222 51.52563 127.9054
v -834.8222 51.52563 127.9054
v -834.8222 51.52563 127.9054
v -833.1686 50.50689 129.2697
v -833.1686 50.50689 129.2697
v -834.3821 51.13367 121.7805
v -834.3821 51.13367 121.7805
v -831.6401 51.13367 124.1017
v -831.6401 51.13367 124.1017
v -831.6401 51.13367 124.1017
v -831.6401 51.13367 124.1017
v -830.0033 50.04131 125.4872
v -830.0033 50.04131 125.4872
v -831.1202 50.74005 117.9781
v -831.1202 50.74005 117.9781
v -828.4078 50.74005 120.337
v -828.4078 50.74005 120.337
v -828.4078 50.74005 120.337
v -828.4078 50.74005 120.337
v -826.7892 49.68312 121.7445
v -826.7892 49.68312 121.7445
v -827.8102 50.34536 114.2251
v -827.8102 50.34536 114.2251
v -825.1304 50.34536 116.6228
v -825.1304 50.34536 116.6228
v -825.1304 50.34536 116.6228
v -825.1304 50.34536 116.6228
v -823.5317 49.21126 118.0532
v -823.5317 49.21126 118.0532
v -824.4567 49.95012 110.5324
v -824.4567 49.95012 110.5324
v -821.813 49.95012 112.9702
v -821.813 49.95012 112.9702
v -821.813 49.95012 112.9702
v -821.813 49.95012 112.9702
v -820.2358 48.72958 114.4244
v -820.2358 48.72958 114.4244
v -821.0645 49.55488 106.911
v -821.0645 49.55488 106.911
v -818.4603 49.55488 109.3903
v -818.4603 49.55488 109.3903
v -818.4603 49.55488 109.3903
v -818.4603 49.55488 109.3903
v -816.9067 48.36054 110.8694
v -816.9067 48.36054 110.8694
v -817.6389 49.16023 103.3725
v -817.6389 49.16023 103.3725
v -815.0782 49.16023 105.8947
v -815.0782 49.16023 105.8947
v -815.0782 49.16023 105.8947
v -815.0782 49.16023 105.8947
v -813.5503 47.99212 107.3997
v -813.5503 47.99212 107.3997
v -814.0897 48.75599 99.83497
v -814.0897 48.75599 99.83497
v -811.5783 48.75599 102.4031
v -811.5783 48.75599 102.4031
v -811.5783 48.75599 102.4031
v -811.5783 48.75599 102.4031
v -810.0793 47.48866 103.936
v -810.0793 47.48866 103.936
v -810.5157 48.35353 96.40833
v -810.5157 48.35353 96.40833
v -808.0587 48.35353 99.02421
v -808.0587 48.35353 99.02421
v -808.0587 48.35353 99.02421
v -808.0587 48.35353 99.02421
v -806.5914 47.09035 100.5864
v -806.5914 47.09035 100.5864
v -806.9218 47.9534 93.10403
v -806.9218 47.9534 93.10403
v -804.5248 47.9534 95.76967
v -804.5248 47.9534 95.76967
v -804.5248 47.9534 95.76967
v -804.5248 47.9534 95.76967
v -803.0925 46.67629 97.36259
v -803.0925 46.67629 97.36259
v -803.2181 47.54573 89.85228
v -803.2181 47.54573 89.85228
v -800.8896 47.54573 92.57119
v -800.8896 47.54573 92.57119
v -800.8896 47.54573 92.57119
v -800.8896 47.54573 92.57119
v -799.4971 46.28963 94.19723
v -799.4971 46.28963 94.19723
v -799.4109 47.13148 86.67773
v -799.4109 47.13148 86.67773
v -797.1605 47.13148 89.45364
v -797.1605 47.13148 89.45364
v -797.1605 47.13148 89.45364
v -797.1605 47.13148 89.45364
v -795.8133 45.84609 91.1154
v -795.8133 45.84609 91.1154
v -795.6016 46.72184 83.67952
v -795.6016 46.72184 83.67952
v -793.4384 46.72184 86.51489
v -793.4384 46.72184 86.51489
v -793.4384 46.72184 86.51489
v -793.4384 46.72184 86.51489
v -792.1419 45.5603 88.21418
v -792.1419 45.5603 88.21418
v -791.7018 46.30738 80.80301
v -791.7018 46.30738 80.80301
v -789.6387 46.30738 83.70181
v -789.6387 46.30738 83.70181
v -789.6387 46.30738 83.70181
v -789.6387 46.30738 83.70181
v -788.4006 45.07585 85.44144
v -788.4006 45.07585 85.44144
v -787.7215 45.88935 78.07853
v -787.7215 45.88935 78.07853
v -785.7739 45.88935 81.04469
v -785.7739 45.88935 81.04469
v -785.7739 45.88935 81.04469
v -785.7739 45.88935 81.04469
v -784.6034 44.76917 82.82748
v -784.6034 44.76917 82.82748
v -783.6705 45.46899 75.53751
v -783.6705 45.46899 75.53751
v -781.8569 45.46899 78.57464
v -781.8569 45.46899 78.57464
v -781.8569 45.46899 78.57464
v -781.8569 45.46899 78.57464
v -780.7649 44.30984 80.40332
v -780.7649 44.30984 80.40332

vn 0.0428529 0.9966021 -0.07034222
vn 0 0 0
vn 0.04349844 0.9965717 -0.07037709
vn 0 0 0
vn 0.4251372 0.8874243 0.1781471
vn 0 0 0
vn 0.4174416 0.8912065 0.1774642
vn 0 0 0
vn 0.0433446 0.9966193 -0.0697941
vn 0 0 0
vn 0.04378738 0.9966382 -0.06924542
vn 0 0 0
vn 0.4150387 0.8924519 0.1768405
vn 0 0 0
vn 0.3988278 0.9002267 0.1747238
vn 0 0 0
vn 0.04350871 0.9967209 -0.06822463
vn 0 0 0
vn 0.04395051 0.9967308 -0.06779362
vn 0 0 0
vn 0.389625 0.9051651 0.1699074
vn 0 0 0
vn 0.3744804 0.9124951 0.1646726
vn 0 0 0
vn 0.0437669 0.9967942 -0.06697664
vn 0 0 0
vn 0.04421332 0.9967983 -0.0666199
vn 0 0 0
vn 0.3713987 0.9145955 0.1599309
vn 0 0 0
vn 0.3664607 0.9168637 0.1583276
vn 0 0 0
vn 0.04409196 0.9968492 -0.06593499
vn 0 0 0
vn 0.04454869 0.996849 -0.06563172
vn 0 0 0
vn 0.3662865 0.9168529 0.1587922
vn 0 0 0
vn 0.3671043 0.9162545 0.1603501
vn 0 0 0
vn 0.04448086 0.9968901 -0.06505046
vn 0 0 0
vn 0.0449525 0.9968863 -0.06478319
vn 0 0 0
vn 0.3666301 0.9158535 0.1636908
vn 0 0 0
vn 0.3615322 0.917677 0.1648125
vn 0 0 0
vn 0.04492765 0.9969202 -0.06427778
vn 0 0 0
vn 0.0454165 0.9969133 -0.06404078
vn 0 0 0
vn 0.3555478 0.9200351 0.1646853
vn 0 0 0
vn 0.3579783 0.9192042 0.1640583
vn 0 0 0
vn 0.04542773 0.9969413 -0.06359556
vn 0 0 0
vn 0.04593352 0.9969319 -0.06338117
vn 0 0 0
vn 0.3632021 0.9163823 0.1683087
vn 0 0 0
vn 0.362911 0.9156904 0.1726463
vn 0 0 0
vn 0.04597589 0.996955 -0.06298364
vn 0 0 0
vn 0.04649998 0.9969429 -0.06278872
vn 0 0 0
vn 0.3558963 0.9180098 0.1749164
vn 0 0 0
vn 0.3601482 0.916363 0.174849
vn 0 0 0
vn 0.04656934 0.9969625 -0.06242663
vn 0 0 0
vn 0.04711843 0.9969482 -0.06224198
vn 0 0 0
vn 0.3661313 0.9129404 0.1802431
vn 0 0 0
vn 0.3667513 0.9116625 0.1853784
vn 0 0 0
vn 0.04721856 0.9969641 -0.06191043
vn 0 0 0
vn 0.04780199 0.9969475 -0.06173027
vn 0 0 0
vn 0.3593918 0.914011 0.1882058
vn 0 0 0
vn 0.362971 0.9125805 0.1882784
vn 0 0 0
vn 0.04792883 0.9969605 -0.0614222
vn 0 0 0
vn 0.04854094 0.9969416 -0.06124623
vn 0 0 0
vn 0.3680496 0.909471 0.193396
vn 0 0 0
vn 0.3816864 0.9021356 0.2011641
vn 0 0 0
vn 0.04869124 0.9969524 -0.06095229
vn 0 0 0
vn 0.04933616 0.9969313 -0.06077892
vn 0 0 0
vn 0.3839893 0.8986309 0.212167
vn 0 0 0
vn 0.385065 0.8967892 0.2179317
vn 0 0 0
vn 0.04951191 0.9969395 -0.06049934
vn 0 0 0
vn 0.05019903 0.9969159 -0.06032142
vn 0 0 0
vn 0.3774765 0.8991446 0.2214735
vn 0 0 0
vn 0.3826827 0.8967202 0.2223665
vn 0 0 0
vn 0.05040237 0.9969221 -0.06004985
vn 0 0 0
vn 0.05113627 0.9968958 -0.05986453
vn 0 0 0
vn 0.388054 0.8926905 0.2291677
vn 0 0 0
vn 0.3891628 0.8906219 0.2352552
vn 0 0 0
vn 0.05136681 0.9969001 -0.05959651
vn 0 0 0
vn 0.05215115 0.9968711 -0.05940002
vn 0 0 0
vn 0.3813123 0.8929763 0.2391533
vn 0 0 0
vn 0.3868022 0.8902444 0.2405183
vn 0 0 0
vn 0.05240934 0.9968734 -0.05913181
vn 0 0 0
vn 0.05325168 0.9968413 -0.05892145
vn 0 0 0
vn 0.3918217 0.8859659 0.2480733
vn 0 0 0
vn 0.4067927 0.8762395 0.25831
vn 0 0 0
vn 0.05353945 0.996842 -0.05864818
vn 0 0 0
vn 0.05444446 0.9968065 -0.05841853
vn 0 0 0
vn 0.4075106 0.8717862 0.2718895
vn 0 0 0
vn 0.4099366 0.8682432 0.2794742
vn 0 0 0
vn 0.05476043 0.9968057 -0.05813563
vn 0 0 0
vn 0.05573478 0.9967663 -0.05788352
vn 0 0 0
vn 0.4016611 0.8701934 0.2853629
vn 0 0 0
vn 0.3957633 0.8730885 0.2847595
vn 0 0 0
vn 0.05608469 0.9967641 -0.05758451
vn 0 0 0
vn 0.05714826 0.9967203 -0.05729456
vn 0 0 0
vn 0.3915936 0.8746434 0.2857502
vn 0 0 0
vn 0.3995726 0.8697975 0.2894715
vn 0 0 0
vn 0.05753563 0.9967164 -0.0569736
vn 0 0 0
vn 0.0587003 0.9966676 -0.05663964
vn 0 0 0
vn 0.403642 0.864227 0.3003078
vn 0 0 0
vn 0.4085412 0.8584219 0.3101711
vn 0 0 0
vn 0.05912508 0.9966624 -0.05628835
vn 0 0 0
vn 0.06038998 0.9966079 -0.05590721
vn 0 0 0
vn 0.400018 0.8591875 0.3190338
vn 0 0 0
vn 0.3996695 0.8582525 0.3219738
vn 0 0 0
vn 0.06085294 0.9966016 -0.05551611
vn 0 0 0
vn 0.06224674 0.9965406 -0.05506653
vn 0 0 0
vn 0.3959484 0.8576041 0.3282377
vn 0 0 0
vn 0.3928885 0.8577391 0.3315455
vn 0 0 0
vn 0.06275692 0.9965329 -0.05462383
vn 0 0 0
vn 0.06431133 0.9964635 -0.05407789
vn 0 0 0
vn 0.3856546 0.8591933 0.3362401
vn 0 0 0
vn 0.3854285 0.85817 0.3391004
vn 0 0 0
vn 0.06486847 0.996455 -0.05356705
vn 0 0 0
vn 0.06658971 0.9963765 -0.0529129
vn 0 0 0
vn 0.3820314 0.8566206 0.3467753
vn 0 0 0
vn 0.3687834 0.8620812 0.3475842
vn 0 0 0
vn 0.06719127 0.9963677 -0.05231313
vn 0 0 0
vn 0.06910517 0.9962781 -0.05152025
vn 0 0 0
vn 0.3531935 0.8695909 0.3450593
vn 0 0 0
vn 0.3506952 0.8718926 0.3417839
vn 0 0 0
vn 0.06974735 0.9962699 -0.05080903
vn 0 0 0
vn 0.07189806 0.9961667 -0.0498247
vn 0 0 0
vn 0.3530049 0.8676779 0.3500322
vn 0 0 0
vn 0.3426618 0.8699216 0.3547103
vn 0 0 0
vn 0.07258104 0.9961598 -0.04896662
vn 0 0 0
vn 0.07500273 0.9960402 -0.04773435
vn 0 0 0
vn 0.3242846 0.8768122 0.3550212
vn 0 0 0
vn 0.3188703 0.8801121 0.3517449
vn 0 0 0
vn 0.07539009 0.9960347 -0.04723403
vn 0 0 0
vn 0.07764101 0.9959027 -0.04636426
vn 0 0 0
vn 0.3221873 0.8785452 0.352638
vn 0 0 0
vn 0.3299781 0.8739172 0.3569078
vn 0 0 0

vt 0 0
vt 0 0
vt -0.5900025 0.359433
vt -0.5900025 0.359433
vt -0.5900025 0.359433
vt -0.5900025 0.359433
vt -0.9502808 0.5789215
vt -0.9502808 0.5789215
vt -0.521228 -0.842514
vt -0.521228 -0.842514
vt -1.109912 -0.4734283
vt -1.109912 -0.4734283
vt -1.109912 -0.4734283
vt -1.109912 -0.4734283
vt -1.468213 -0.2487915
vt -1.468213 -0.2487915
vt -1.060522 -1.691443
vt -1.060522 -1.691443
vt -1.647876 -1.313687
vt -1.647876 -1.313687
vt -1.647876 -1.313687
vt -1.647876 -1.313687
vt -2.004309 -1.084445
vt -2.004309 -1.084445
vt -1.609961 -2.535428
vt -1.609961 -2.535428
vt -2.195764 -2.14957
vt -2.195764 -2.14957
vt -2.195764 -2.14957
vt -2.195764 -2.14957
vt -2.550342 -1.916013
vt -2.550342 -1.916013
vt -2.163831 -3.36669
vt -2.163831 -3.36669
vt -2.747852 -2.973206
vt -2.747852 -2.973206
vt -2.747852 -2.973206
vt -2.747852 -2.973206
vt -3.100562 -2.735574
vt -3.100562 -2.735574
vt -2.73064 -4.198587
vt -2.73064 -4.198587
vt -3.312598 -3.797714
vt -3.312598 -3.797714
vt -3.312598 -3.797714
vt -3.312598 -3.797714
vt -3.663342 -3.556103
vt -3.663342 -3.556103
vt -3.307422 -5.026727
vt -3.307422 -5.026727
vt -3.887024 -4.618652
vt -3.887024 -4.618652
vt -3.887024 -4.618652
vt -3.887024 -4.618652
vt -4.23573 -4.373145
vt -4.23573 -4.373145
vt -3.891211 -5.846924
vt -3.891211 -5.846924
vt -4.468164 -5.431806
vt -4.468164 -5.431806
vt -4.468164 -5.431806
vt -4.468164 -5.431806
vt -4.814734 -5.182449
vt -4.814734 -5.182449
vt -4.479419 -6.655609
vt -4.479419 -6.655609
vt -5.053418 -6.233572
vt -5.053418 -6.233572
vt -5.053418 -6.233572
vt -5.053418 -6.233572
vt -5.397742 -5.980411
vt -5.397742 -5.980411
vt -5.069604 -7.449698
vt -5.069604 -7.449698
vt -5.640381 -7.020847
vt -5.640381 -7.020847
vt -5.640381 -7.020847
vt -5.640381 -7.020847
vt -5.982349 -6.763904
vt -5.982349 -6.763904
vt -5.675757 -8.247458
vt -5.675757 -8.247458
vt -6.242883 -7.811695
vt -6.242883 -7.811695
vt -6.242883 -7.811695
vt -6.242883 -7.811695
vt -6.582325 -7.550885
vt -6.582325 -7.550885
vt -6.296765 -9.04642
vt -6.296765 -9.04642
vt -6.859839 -8.603625
vt -6.859839 -8.603625
vt -6.859839 -8.603625
vt -6.859839 -8.603625
vt -7.196533 -8.338846
vt -7.196533 -8.338846
vt -6.914868 -9.823282
vt -6.914868 -9.823282
vt -7.473535 -9.373502
vt -7.473535 -9.373502
vt -7.473535 -9.373502
vt -7.473535 -9.373502
vt -7.807361 -9.104746
vt -7.807361 -9.104746
vt -7.545325 -10.5969
vt -7.545325 -10.5969
vt -8.099121 -10.13998
vt -8.099121 -10.13998
vt -8.099121 -10.13998
vt -8.099121 -10.13998
vt -8.429834 -9.867114
vt -8.429834 -9.867114
vt -8.187134 -11.36495
vt -8.187134 -11.36495
vt -8.735547 -10.90071
vt -8.735547 -10.90071
vt -8.735547 -10.90071
vt -8.735547 -10.90071
vt -9.062903 -10.6236
vt -9.062903 -10.6236
vt -8.839526 -12.12543
vt -8.839526 -12.12543
vt -9.382007 -11.65365
vt -9.382007 -11.65365
vt -9.382007 -11.65365
vt -9.382007 -11.65365
vt -9.705713 -11.37214
vt -9.705713 -11.37214
vt -9.501526 -12.87602
vt -9.501526 -12.87602
vt -10.03749 -12.39648
vt -10.03749 -12.39648
vt -10.03749 -12.39648
vt -10.03749 -12.39648
vt -10.35721 -12.1104
vt -10.35721 -12.1104
vt -10.17222 -13.61456
vt -10.17222 -13.61456
vt -10.70096 -13.12701
vt -10.70096 -13.12701
vt -10.70096 -13.12701
vt -10.70096 -13.12701
vt -11.01639 -12.83616
vt -11.01639 -12.83616
vt -10.85066 -14.33884
vt -10.85066 -14.33884
vt -11.3715 -13.84299
vt -11.3715 -13.84299
vt -11.3715 -13.84299
vt -11.3715 -13.84299
vt -11.68223 -13.54718
vt -11.68223 -13.54718
vt -11.53578 -15.04655
vt -11.53578 -15.04655
vt -12.04792 -14.5421
vt -12.04792 -14.5421
vt -12.04792 -14.5421
vt -12.04792 -14.5421
vt -12.3535 -14.2411
vt -12.3535 -14.2411
vt -12.24562 -15.75405
vt -12.24562 -15.75405
vt -12.7479 -15.24043
vt -12.7479 -15.24043
vt -12.7479 -15.24043
vt -12.7479 -15.24043
vt -13.04771 -14.93384
vt -13.04771 -14.93384
vt -12.96043 -16.43938
vt -12.96043 -16.43938
vt -13.45183 -15.91621
vt -13.45183 -15.91621
vt -13.45183 -15.91621
vt -13.45183 -15.91621
vt -13.74529 -15.60377
vt -13.74529 -15.60377
vt -13.67921 -17.10024
vt -13.67921 -17.10024
vt -14.15859 -16.56711
vt -14.15859 -16.56711
vt -14.15859 -16.56711
vt -14.15859 -16.56711
vt -14.44506 -16.24853
vt -14.44506 -16.24853
vt -14.41993 -17.75059
vt -14.41993 -17.75059
vt -14.88563 -17.20681
vt -14.88563 -17.20681
vt -14.88563 -17.20681
vt -14.88563 -17.20681
vt -15.16414 -16.8816
vt -15.16414 -16.8816
vt -15.18138 -18.3855
vt -15.18138 -18.3855
vt -15.63147 -17.83032
vt -15.63147 -17.83032
vt -15.63147 -17.83032
vt -15.63147 -17.83032
vt -15.9009 -17.49797
vt -15.9009 -17.49797
vt -15.94325 -18.98514
vt -15.94325 -18.98514
vt -16.37589 -18.41807
vt -16.37589 -18.41807
vt -16.37589 -18.41807
vt -16.37589 -18.41807
vt -16.63518 -18.07821
vt -16.63518 -18.07821
vt -16.72321 -19.56045
vt -16.72321 -19.56045
vt -17.13582 -18.98069
vt -17.13582 -18.98069
vt -17.13582 -18.98069
vt -17.13582 -18.98069
vt -17.38344 -18.63276
vt -17.38344 -18.63276
vt -17.51926 -20.10534
vt -17.51926 -20.10534
vt -17.90878 -19.51211
vt -17.90878 -19.51211
vt -17.90878 -19.51211
vt -17.90878 -19.51211
vt -18.14288 -19.15555
vt -18.14288 -19.15555
vt -18.32946 -20.61355
vt -18.32946 -20.61355
vt -18.69219 -20.00612
vt -18.69219 -20.00612
vt -18.69219 -20.00612
vt -18.69219 -20.00612
vt -18.91058 -19.64038
vt -18.91058 -19.64038

usemtl GSDShoulder1
usemap GSDShoulder1
f 9/9/9 1/1/1 3/3/3
f 11/11/11 9/9/9 3/3/3
f 13/13/13 5/5/5 7/7/7
f 15/15/15 13/13/13 7/7/7
f 17/17/17 9/9/9 11/11/11
f 19/19/19 17/17/17 11/11/11
f 21/21/21 13/13/13 15/15/15
f 23/23/23 21/21/21 15/15/15
f 25/25/25 17/17/17 19/19/19
f 27/27/27 25/25/25 19/19/19
f 29/29/29 21/21/21 23/23/23
f 31/31/31 29/29/29 23/23/23
f 33/33/33 25/25/25 27/27/27
f 35/35/35 33/33/33 27/27/27
f 37/37/37 29/29/29 31/31/31
f 39/39/39 37/37/37 31/31/31
f 41/41/41 33/33/33 35/35/35
f 43/43/43 41/41/41 35/35/35
f 45/45/45 37/37/37 39/39/39
f 47/47/47 45/45/45 39/39/39
f 49/49/49 41/41/41 43/43/43
f 51/51/51 49/49/49 43/43/43
f 53/53/53 45/45/45 47/47/47
f 55/55/55 53/53/53 47/47/47
f 57/57/57 49/49/49 51/51/51
f 59/59/59 57/57/57 51/51/51
f 61/61/61 53/53/53 55/55/55
f 63/63/63 61/61/61 55/55/55
f 65/65/65 57/57/57 59/59/59
f 67/67/67 65/65/65 59/59/59
f 69/69/69 61/61/61 63/63/63
f 71/71/71 69/69/69 63/63/63
f 73/73/73 65/65/65 67/67/67
f 75/75/75 73/73/73 67/67/67
f 77/77/77 69/69/69 71/71/71
f 79/79/79 77/77/77 71/71/71
f 81/81/81 73/73/73 75/75/75
f 83/83/83 81/81/81 75/75/75
f 85/85/85 77/77/77 79/79/79
f 87/87/87 85/85/85 79/79/79
f 89/89/89 81/81/81 83/83/83
f 91/91/91 89/89/89 83/83/83
f 93/93/93 85/85/85 87/87/87
f 95/95/95 93/93/93 87/87/87
f 97/97/97 89/89/89 91/91/91
f 99/99/99 97/97/97 91/91/91
f 101/101/101 93/93/93 95/95/95
f 103/103/103 101/101/101 95/95/95
f 105/105/105 97/97/97 99/99/99
f 107/107/107 105/105/105 99/99/99
f 109/109/109 101/101/101 103/103/103
f 111/111/111 109/109/109 103/103/103
f 113/113/113 105/105/105 107/107/107
f 115/115/115 113/113/113 107/107/107
f 117/117/117 109/109/109 111/111/111
f 119/119/119 117/117/117 111/111/111
f 121/121/121 113/113/113 115/115/115
f 123/123/123 121/121/121 115/115/115
f 125/125/125 117/117/117 119/119/119
f 127/127/127 125/125/125 119/119/119
f 129/129/129 121/121/121 123/123/123
f 131/131/131 129/129/129 123/123/123
f 133/133/133 125/125/125 127/127/127
f 135/135/135 133/133/133 127/127/127
f 137/137/137 129/129/129 131/131/131
f 139/139/139 137/137/137 131/131/131
f 141/141/141 133/133/133 135/135/135
f 143/143/143 141/141/141 135/135/135
f 145/145/145 137/137/137 139/139/139
f 147/147/147 145/145/145 139/139/139
f 149/149/149 141/141/141 143/143/143
f 151/151/151 149/149/149 143/143/143
f 153/153/153 145/145/145 147/147/147
f 155/155/155 153/153/153 147/147/147
f 157/157/157 149/149/149 151/151/151
f 159/159/159 157/157/157 151/151/151
f 161/161/161 153/153/153 155/155/155
f 163/163/163 161/161/161 155/155/155
f 165/165/165 157/157/157 159/159/159
f 167/167/167 165/165/165 159/159/159
f 169/169/169 161/161/161 163/163/163
f 171/171/171 169/169/169 163/163/163
f 173/173/173 165/165/165 167/167/167
f 175/175/175 173/173/173 167/167/167
f 177/177/177 169/169/169 171/171/171
f 179/179/179 177/177/177 171/171/171
f 181/181/181 173/173/173 175/175/175
f 183/183/183 181/181/181 175/175/175
f 185/185/185 177/177/177 179/179/179
f 187/187/187 185/185/185 179/179/179
f 189/189/189 181/181/181 183/183/183
f 191/191/191 189/189/189 183/183/183
f 193/193/193 185/185/185 187/187/187
f 195/195/195 193/193/193 187/187/187
f 197/197/197 189/189/189 191/191/191
f 199/199/199 197/197/197 191/191/191
f 201/201/201 193/193/193 195/195/195
f 203/203/203 201/201/201 195/195/195
f 205/205/205 197/197/197 199/199/199
f 207/207/207 205/205/205 199/199/199
f 209/209/209 201/201/201 203/203/203
f 211/211/211 209/209/209 203/203/203
f 213/213/213 205/205/205 207/207/207
f 215/215/215 213/213/213 207/207/207
f 217/217/217 209/209/209 211/211/211
f 219/219/219 217/217/217 211/211/211
f 221/221/221 213/213/213 215/215/215
f 223/223/223 221/221/221 215/215/215
f 225/225/225 217/217/217 219/219/219
f 227/227/227 225/225/225 219/219/219
f 229/229/229 221/221/221 223/223/223
f 231/231/231 229/229/229 223/223/223
