mtllib ./Road1_0_262.mtl
g SCutL53
v -609.9057 30.36306 732.1773
v -609.9057 30.36306 732.1773
v -609.803 30.36306 735.3173
v -609.803 30.36306 735.3173
v -609.9721 28.49665 730.147
v -609.9721 28.49665 730.147
v -609.9057 30.36306 732.1773
v -609.9057 30.36306 732.1773
v -604.8722 30.78557 731.9889
v -604.8722 30.78557 731.9889
v -604.7452 30.78557 735.1329
v -604.7452 30.78557 735.1329
v -604.9542 28.81095 729.9584
v -604.9542 28.81095 729.9584
v -604.8722 30.78557 731.9889
v -604.8722 30.78557 731.9889
v -599.8978 31.22065 731.7784
v -599.8978 31.22065 731.7784
v -599.7621 31.22065 734.9238
v -599.7621 31.22065 734.9238
v -599.9854 29.28615 729.748
v -599.9854 29.28615 729.748
v -599.8978 31.22065 731.7784
v -599.8978 31.22065 731.7784
v -594.8175 31.668 731.5656
v -594.8175 31.668 731.5656
v -594.6909 31.668 734.7098
v -594.6909 31.668 734.7098
v -594.8993 29.60491 729.5353
v -594.8993 29.60491 729.5353
v -594.8175 31.668 731.5656
v -594.8175 31.668 731.5656
v -589.7121 32.10512 731.3831
v -589.7121 32.10512 731.3831
v -589.6129 32.10512 734.5235
v -589.6129 32.10512 734.5235
v -589.7763 30.08218 729.3531
v -589.7763 30.08218 729.3531
v -589.7121 32.10512 731.3831
v -589.7121 32.10512 731.3831
v -584.5408 32.52026 731.2601
v -584.5408 32.52026 731.2601
v -584.4865 32.52026 734.3932
v -584.4865 32.52026 734.3932
v -584.5761 30.39324 729.2309
v -584.5761 30.39324 729.2309
v -584.5408 32.52026 731.2601
v -584.5408 32.52026 731.2601
v -579.3956 32.89278 731.226
v -579.3956 32.89278 731.226
v -579.4001 32.89278 734.3478
v -579.4001 32.89278 734.3478
v -579.3926 30.89623 729.1986
v -579.3926 30.89623 729.1986
v -579.3956 32.89278 731.226
v -579.3956 32.89278 731.226
v -574.1177 33.2222 731.3051
v -574.1177 33.2222 731.3051
v -574.1937 33.2222 734.4104
v -574.1937 33.2222 734.4104
v -574.0682 31.24601 729.2813
v -574.0682 31.24601 729.2813
v -574.1177 33.2222 731.3051
v -574.1177 33.2222 731.3051

vn -0.08354462 0.9965003 0.002731501
vn 0 0 0
vn -0.0833339 0.996517 0.003045791
vn 0 0 0
vn -0.07138248 0.7354869 -0.6737683
vn 0 0 0
vn -0.07882802 0.7256677 -0.6835148
vn 0 0 0
vn -0.08453989 0.996415 0.003200513
vn 0 0 0
vn -0.08563126 0.9963206 0.00353828
vn 0 0 0
vn -0.0851447 0.7222916 -0.6863274
vn 0 0 0
vn -0.0919647 0.7180939 -0.6898433
vn 0 0 0
vn -0.08712438 0.9961907 0.003679441
vn 0 0 0
vn -0.08737101 0.9961691 0.003684859
vn 0 0 0
vn -0.08792929 0.7206943 -0.6876541
vn 0 0 0
vn -0.08588689 0.7155024 -0.6933107
vn 0 0 0
vn -0.08681894 0.9962177 0.003580293
vn 0 0 0
vn -0.08618934 0.9962736 0.003224438
vn 0 0 0
vn -0.08540986 0.7080145 -0.701014
vn 0 0 0
vn -0.08913865 0.7025833 -0.7059963
vn 0 0 0
vn -0.08358677 0.9964963 0.002887566
vn 0 0 0
vn -0.08208706 0.9966227 0.002211691
vn 0 0 0
vn -0.07827009 0.7052281 -0.7046468
vn 0 0 0
vn -0.07226602 0.7013766 -0.709118
vn 0 0 0
vn -0.07761973 0.9969816 0.001729453
vn 0 0 0
vn -0.07531796 0.9971591 0.0008536701
vn 0 0 0
vn -0.06764136 0.6953872 -0.7154448
vn 0 0 0
vn -0.06680375 0.6964112 -0.714527
vn 0 0 0
vn -0.06911388 0.9976087 0.00035166
vn 0 0 0
vn -0.06609109 0.9978135 -0.0005798837
vn 0 0 0
vn -0.05449904 0.7041911 -0.7079158
vn 0 0 0
vn -0.04193962 0.7127025 -0.7002116
vn 0 0 0
vn -0.06270483 0.9980318 -0.0008106529
vn 0 0 0
vn -0.06312594 0.9980044 -0.001544711
vn 0 0 0
vn -0.03501731 0.7133175 -0.6999657
vn 0 0 0
vn -0.03413239 0.7146388 -0.6986603
vn 0 0 0

vt 0 0
vt 0 0
vt -0.02053223 0.6279907
vt -0.02053223 0.6279907
vt 0.01328125 -0.4060669
vt 0.01328125 -0.4060669
vt 0 0
vt 0 0
vt -1.006702 -0.03768311
vt -1.006702 -0.03768311
vt -1.032104 0.5911255
vt -1.032104 0.5911255
vt -0.9902954 -0.4437744
vt -0.9902954 -0.4437744
vt -1.006702 -0.03768311
vt -1.006702 -0.03768311
vt -2.001575 -0.07978516
vt -2.001575 -0.07978516
vt -2.028711 0.5493042
vt -2.028711 0.5493042
vt -1.984058 -0.4858643
vt -1.984058 -0.4858643
vt -2.001575 -0.07978516
vt -2.001575 -0.07978516
vt -3.017639 -0.1223511
vt -3.017639 -0.1223511
vt -3.042969 0.5065064
vt -3.042969 0.5065064
vt -3.001282 -0.5284058
vt -3.001282 -0.5284058
vt -3.017639 -0.1223511
vt -3.017639 -0.1223511
vt -4.038721 -0.1588501
vt -4.038721 -0.1588501
vt -4.058569 0.4692383
vt -4.058569 0.4692383
vt -4.025879 -0.5648438
vt -4.025879 -0.5648438
vt -4.038721 -0.1588501
vt -4.038721 -0.1588501
vt -5.072974 -0.1834473
vt -5.072974 -0.1834473
vt -5.08385 0.4431763
vt -5.08385 0.4431763
vt -5.065918 -0.5892822
vt -5.065918 -0.5892822
vt -5.072974 -0.1834473
vt -5.072974 -0.1834473
vt -6.102014 -0.190271
vt -6.102014 -0.190271
vt -6.101111 0.4340943
vt -6.101111 0.4340943
vt -6.102612 -0.5957398
vt -6.102612 -0.5957398
vt -6.102014 -0.190271
vt -6.102014 -0.190271
vt -7.157593 -0.1744507
vt -7.157593 -0.1744507
vt -7.142395 0.4466186
vt -7.142395 0.4466186
vt -7.167505 -0.5792114
vt -7.167505 -0.5792114
vt -7.157593 -0.1744507
vt -7.157593 -0.1744507

usemtl GSDShoulder1
usemap GSDShoulder1
f 9/9/9 1/1/1 3/3/3
f 11/11/11 9/9/9 3/3/3
f 13/13/13 5/5/5 7/7/7
f 15/15/15 13/13/13 7/7/7
f 17/17/17 9/9/9 11/11/11
f 19/19/19 17/17/17 11/11/11
f 21/21/21 13/13/13 15/15/15
f 23/23/23 21/21/21 15/15/15
f 25/25/25 17/17/17 19/19/19
f 27/27/27 25/25/25 19/19/19
f 29/29/29 21/21/21 23/23/23
f 31/31/31 29/29/29 23/23/23
f 33/33/33 25/25/25 27/27/27
f 35/35/35 33/33/33 27/27/27
f 37/37/37 29/29/29 31/31/31
f 39/39/39 37/37/37 31/31/31
f 41/41/41 33/33/33 35/35/35
f 43/43/43 41/41/41 35/35/35
f 45/45/45 37/37/37 39/39/39
f 47/47/47 45/45/45 39/39/39
f 49/49/49 41/41/41 43/43/43
f 51/51/51 49/49/49 43/43/43
f 53/53/53 45/45/45 47/47/47
f 55/55/55 53/53/53 47/47/47
f 57/57/57 49/49/49 51/51/51
f 59/59/59 57/57/57 51/51/51
f 61/61/61 53/53/53 55/55/55
f 63/63/63 61/61/61 55/55/55
