mtllib ./Road1_0_261.mtl
g SCutL52
v -650.3647 27.12843 733.8379
v -650.3647 27.12843 733.8379
v -650.2383 27.12843 736.988
v -650.2383 27.12843 736.988
v -650.4463 25.21686 731.8054
v -650.4463 25.21686 731.8054
v -650.3647 27.12843 733.8379
v -650.3647 27.12843 733.8379
v -645.3498 27.53051 733.6408
v -645.3498 27.53051 733.6408
v -645.2208 27.53051 736.788
v -645.2208 27.53051 736.788
v -645.4332 25.525 731.6091
v -645.4332 25.525 731.6091
v -645.3498 27.53051 733.6408
v -645.3498 27.53051 733.6408
v -640.296 27.93654 733.4287
v -640.296 27.93654 733.4287
v -640.1603 27.93654 736.5746
v -640.1603 27.93654 736.5746
v -640.3837 25.99199 731.3973
v -640.3837 25.99199 731.3973
v -640.296 27.93654 733.4287
v -640.296 27.93654 733.4287
v -635.2666 28.33998 733.2096
v -635.2666 28.33998 733.2096
v -635.1275 28.33998 736.3544
v -635.1275 28.33998 736.3544
v -635.3564 26.46446 731.1786
v -635.3564 26.46446 731.1786
v -635.2666 28.33998 733.2096
v -635.2666 28.33998 733.2096
v -630.262 28.74074 732.9888
v -630.262 28.74074 732.9888
v -630.1229 28.74074 736.1324
v -630.1229 28.74074 736.1324
v -630.3519 26.46446 730.9581
v -630.3519 26.46446 730.9581
v -630.262 28.74074 732.9888
v -630.262 28.74074 732.9888
v -625.1574 29.14878 732.7664
v -625.1574 29.14878 732.7664
v -625.0217 29.14878 735.909
v -625.0217 29.14878 735.909
v -625.2451 27.24682 730.7358
v -625.2451 27.24682 730.7358
v -625.1574 29.14878 732.7664
v -625.1574 29.14878 732.7664
v -620.0829 29.55365 732.5536
v -620.0829 29.55365 732.5536
v -619.9543 29.55365 735.6953
v -619.9543 29.55365 735.6953
v -620.166 27.5619 730.5233
v -620.166 27.5619 730.5233
v -620.0829 29.55365 732.5536
v -620.0829 29.55365 732.5536
v -615.0406 29.95512 732.3567
v -615.0406 29.95512 732.3567
v -614.9229 29.95512 735.4975
v -614.9229 29.95512 735.4975
v -615.1168 28.0277 730.3264
v -615.1168 28.0277 730.3264
v -615.0406 29.95512 732.3567
v -615.0406 29.95512 732.3567
v -609.9057 30.36306 732.1773
v -609.9057 30.36306 732.1773
v -609.803 30.36306 735.3173
v -609.803 30.36306 735.3173
v -609.9721 28.49665 730.147
v -609.9721 28.49665 730.147
v -609.9057 30.36306 732.1773
v -609.9057 30.36306 732.1773

vn -0.07979502 0.9968062 0.003201881
vn 0 0 0
vn -0.07977197 0.9968078 0.003235723
vn 0 0 0
vn -0.07144573 0.7280191 -0.6818239
vn 0 0 0
vn -0.07802533 0.7194104 -0.6901889
vn 0 0 0
vn -0.0798307 0.9968031 0.003249785
vn 0 0 0
vn -0.07984403 0.9968018 0.003330353
vn 0 0 0
vn -0.08374151 0.7164066 -0.6926392
vn 0 0 0
vn -0.08874843 0.7142679 -0.6942226
vn 0 0 0
vn -0.07986355 0.9968001 0.003387581
vn 0 0 0
vn -0.0797976 0.996805 0.003470856
vn 0 0 0
vn -0.09312321 0.7176383 -0.6901618
vn 0 0 0
vn -0.09088616 0.7254105 -0.6822898
vn 0 0 0
vn -0.07974241 0.9968093 0.003497767
vn 0 0 0
vn -0.07969562 0.996813 0.003526006
vn 0 0 0
vn -0.07216544 0.7302135 -0.6793972
vn 0 0 0
vn -0.06876291 0.7107872 -0.700038
vn 0 0 0
vn -0.0796214 0.996819 0.003523655
vn 0 0 0
vn -0.07959368 0.9968213 0.003494198
vn 0 0 0
vn -0.08544432 0.6871204 -0.7215018
vn 0 0 0
vn -0.1031882 0.6851158 -0.7210884
vn 0 0 0
vn -0.07950122 0.9968287 0.003461439
vn 0 0 0
vn -0.07949317 0.9968297 0.003372867
vn 0 0 0
vn -0.09969531 0.7063819 -0.700775
vn 0 0 0
vn -0.08258107 0.7237596 -0.6850931
vn 0 0 0
vn -0.07937862 0.996839 0.003308744
vn 0 0 0
vn -0.07938985 0.9968387 0.00315878
vn 0 0 0
vn -0.08427937 0.7183563 -0.6905515
vn 0 0 0
vn -0.08779023 0.7166083 -0.6919288
vn 0 0 0
vn -0.07925103 0.99685 0.00306143
vn 0 0 0
vn -0.07928257 0.9968482 0.002844733
vn 0 0 0
vn -0.08906358 0.7203119 -0.6879088
vn 0 0 0
vn -0.08541153 0.7277728 -0.680479
vn 0 0 0
vn -0.07921412 0.9968538 0.002779699
vn 0 0 0
vn -0.07933633 0.9968446 0.00259391
vn 0 0 0
vn -0.08591263 0.7295102 -0.6785527
vn 0 0 0
vn -0.08190889 0.7350622 -0.6730338
vn 0 0 0

vt 0 0
vt 0 0
vt -0.02528076 0.6300293
vt -0.02528076 0.6300293
vt 0.0163208 -0.4065064
vt 0.0163208 -0.4065064
vt 0 0
vt 0 0
vt -1.002979 -0.0394165
vt -1.002979 -0.0394165
vt -1.028784 0.5900146
vt -1.028784 0.5900146
vt -0.9863037 -0.4457642
vt -0.9863037 -0.4457642
vt -1.002979 -0.0394165
vt -1.002979 -0.0394165
vt -2.013733 -0.08183594
vt -2.013733 -0.08183594
vt -2.040869 0.5473511
vt -2.040869 0.5473511
vt -1.996204 -0.4881104
vt -1.996204 -0.4881104
vt -2.013733 -0.08183594
vt -2.013733 -0.08183594
vt -3.019617 -0.1256592
vt -3.019617 -0.1256592
vt -3.047436 0.5032959
vt -3.047436 0.5032959
vt -3.001648 -0.5318604
vt -3.001648 -0.5318604
vt -3.019617 -0.1256592
vt -3.019617 -0.1256592
vt -4.020532 -0.1698242
vt -4.020532 -0.1698242
vt -4.048364 0.4589112
vt -4.048364 0.4589112
vt -4.002552 -0.5759644
vt -4.002552 -0.5759644
vt -4.020532 -0.1698242
vt -4.020532 -0.1698242
vt -5.041455 -0.2143066
vt -5.041455 -0.2143066
vt -5.068592 0.4142212
vt -5.068592 0.4142212
vt -5.023914 -0.6204101
vt -5.023914 -0.6204101
vt -5.041455 -0.2143066
vt -5.041455 -0.2143066
vt -6.056348 -0.2568482
vt -6.056348 -0.2568482
vt -6.082068 0.3714844
vt -6.082068 0.3714844
vt -6.039734 -0.6629273
vt -6.039734 -0.6629273
vt -6.056348 -0.2568482
vt -6.056348 -0.2568482
vt -7.064819 -0.2962402
vt -7.064819 -0.2962402
vt -7.088367 0.3319214
vt -7.088367 0.3319214
vt -7.049585 -0.7023072
vt -7.049585 -0.7023072
vt -7.064819 -0.2962402
vt -7.064819 -0.2962402
vt -8.091797 -0.3321167
vt -8.091797 -0.3321167
vt -8.112329 0.295874
vt -8.112329 0.295874
vt -8.078516 -0.7381836
vt -8.078516 -0.7381836
vt -8.091797 -0.3321167
vt -8.091797 -0.3321167

usemtl GSDShoulder1
usemap GSDShoulder1
f 9/9/9 1/1/1 3/3/3
f 11/11/11 9/9/9 3/3/3
f 13/13/13 5/5/5 7/7/7
f 15/15/15 13/13/13 7/7/7
f 17/17/17 9/9/9 11/11/11
f 19/19/19 17/17/17 11/11/11
f 21/21/21 13/13/13 15/15/15
f 23/23/23 21/21/21 15/15/15
f 25/25/25 17/17/17 19/19/19
f 27/27/27 25/25/25 19/19/19
f 29/29/29 21/21/21 23/23/23
f 31/31/31 29/29/29 23/23/23
f 33/33/33 25/25/25 27/27/27
f 35/35/35 33/33/33 27/27/27
f 37/37/37 29/29/29 31/31/31
f 39/39/39 37/37/37 31/31/31
f 41/41/41 33/33/33 35/35/35
f 43/43/43 41/41/41 35/35/35
f 45/45/45 37/37/37 39/39/39
f 47/47/47 45/45/45 39/39/39
f 49/49/49 41/41/41 43/43/43
f 51/51/51 49/49/49 43/43/43
f 53/53/53 45/45/45 47/47/47
f 55/55/55 53/53/53 47/47/47
f 57/57/57 49/49/49 51/51/51
f 59/59/59 57/57/57 51/51/51
f 61/61/61 53/53/53 55/55/55
f 63/63/63 61/61/61 55/55/55
f 65/65/65 57/57/57 59/59/59
f 67/67/67 65/65/65 59/59/59
f 69/69/69 61/61/61 63/63/63
f 71/71/71 69/69/69 63/63/63
