mtllib ./Road1_0_201.mtl
g SCutR62
v -290.5852 34.15979 743.129
v -290.5852 34.15979 743.129
v -290.2136 34.15979 746.1652
v -290.2136 34.15979 746.1652
v -290.2136 34.15979 746.1652
v -290.2136 34.15979 746.1652
v -289.969 33.46354 748.1643
v -289.969 33.46354 748.1643
v -285.3929 34.34238 742.4125
v -285.3929 34.34238 742.4125
v -284.9277 34.34238 745.4558
v -284.9277 34.34238 745.4558
v -284.9277 34.34238 745.4558
v -284.9277 34.34238 745.4558
v -284.6228 33.46354 747.4513
v -284.6228 33.46354 747.4513
v -280.2481 34.57023 741.5611
v -280.2481 34.57023 741.5611
v -279.7104 34.57023 744.6121
v -279.7104 34.57023 744.6121
v -279.7104 34.57023 744.6121
v -279.7104 34.57023 744.6121
v -279.3592 33.55328 746.6044
v -279.3592 33.55328 746.6044
v -275.223 34.83036 740.629
v -275.223 34.83036 740.629
v -274.6323 34.83036 743.6855
v -274.6323 34.83036 743.6855
v -274.6323 34.83036 743.6855
v -274.6323 34.83036 743.6855
v -274.2478 33.65536 745.6751
v -274.2478 33.65536 745.6751
v -270.2451 35.11689 739.633
v -270.2451 35.11689 739.633
v -269.6156 35.11689 742.6936
v -269.6156 35.11689 742.6936
v -269.6156 35.11689 742.6936
v -269.6156 35.11689 742.6936
v -269.2068 33.79487 744.6809
v -269.2068 33.79487 744.6809
v -265.2315 35.42849 738.577
v -265.2315 35.42849 738.577
v -264.5742 35.42849 741.6404
v -264.5742 35.42849 741.6404
v -264.5742 35.42849 741.6404
v -264.5742 35.42849 741.6404
v -264.1482 33.98654 743.6261
v -264.1482 33.98654 743.6261
v -260.2244 35.75778 737.4864
v -260.2244 35.75778 737.4864
v -259.5496 35.75778 740.5517
v -259.5496 35.75778 740.5517
v -259.5496 35.75778 740.5517
v -259.5496 35.75778 740.5517
v -259.1127 34.21996 742.5361
v -259.1127 34.21996 742.5361
v -255.2653 36.0975 736.3866
v -255.2653 36.0975 736.3866
v -254.5828 36.0975 739.4528
v -254.5828 36.0975 739.4528
v -254.5828 36.0975 739.4528
v -254.5828 36.0975 739.4528
v -254.1412 34.51657 741.4366
v -254.1412 34.51657 741.4366
v -250.3987 36.44025 735.3035
v -250.3987 36.44025 735.3035
v -249.7186 36.44025 738.3696
v -249.7186 36.44025 738.3696
v -249.7186 36.44025 738.3696
v -249.7186 36.44025 738.3696
v -249.2785 34.71931 740.3536
v -249.2785 34.71931 740.3536
v -245.4299 36.79589 734.2106
v -245.4299 36.79589 734.2106
v -244.7638 36.79589 737.276
v -244.7638 36.79589 737.276
v -244.7638 36.79589 737.276
v -244.7638 36.79589 737.276
v -244.3324 35.07999 739.2609
v -244.3324 35.07999 739.2609

vn -0.03455885 0.9993937 0.004229541
vn 0 0 0
vn -0.03418886 0.9994043 0.004705365
vn 0 0 0
vn 0.0113361 0.9447337 0.3276427
vn 0 0 0
vn 0.03253502 0.9313196 0.3627469
vn 0 0 0
vn -0.03715766 0.9992952 0.005331215
vn 0 0 0
vn -0.03977557 0.9991881 0.006412186
vn 0 0 0
vn 0.02990251 0.9264681 0.3751832
vn 0 0 0
vn 0.04486313 0.9090437 0.4142788
vn 0 0 0
vn -0.04517369 0.99895 0.007625935
vn 0 0 0
vn -0.04725796 0.9988456 0.008609214
vn 0 0 0
vn 0.0393589 0.9009899 0.4320509
vn 0 0 0
vn 0.05553802 0.8838651 0.464433
vn 0 0 0
vn -0.05159115 0.9986213 0.009687952
vn 0 0 0
vn -0.05316762 0.9985304 0.01050266
vn 0 0 0
vn 0.05323578 0.8741119 0.4827984
vn 0 0 0
vn 0.0688963 0.8556595 0.5129328
vn 0 0 0
vn -0.05653584 0.9983354 0.01140156
vn 0 0 0
vn -0.05777472 0.9982569 0.01205937
vn 0 0 0
vn 0.0651731 0.8462476 0.5287887
vn 0 0 0
vn 0.07805324 0.8297848 0.5525985
vn 0 0 0
vn -0.06040184 0.9980924 0.01278457
vn 0 0 0
vn -0.0613885 0.9980255 0.01328793
vn 0 0 0
vn 0.07411467 0.8220571 0.5645609
vn 0 0 0
vn 0.08419325 0.8086967 0.5821693
vn 0 0 0
vn -0.06342452 0.9978906 0.01384603
vn 0 0 0
vn -0.06420502 0.9978359 0.01418738
vn 0 0 0
vn 0.08076986 0.8024964 0.5911649
vn 0 0 0
vn 0.08609428 0.793868 0.6019645
vn 0 0 0
vn -0.06571204 0.9977322 0.01457316
vn 0 0 0
vn -0.06631801 0.9976896 0.01474392
vn 0 0 0
vn 0.08209326 0.7909896 0.606297
vn 0 0 0
vn 0.09286281 0.7798635 0.6190231
vn 0 0 0
vn -0.06734345 0.9976177 0.01495442
vn 0 0 0
vn -0.06780155 0.9975871 0.01493595
vn 0 0 0
vn 0.09258539 0.7709316 0.6301526
vn 0 0 0
vn 0.09425166 0.7625949 0.6399732
vn 0 0 0
vn -0.06819995 0.9975593 0.01497379
vn 0 0 0
vn -0.06832249 0.9975528 0.01484687
vn 0 0 0
vn 0.08644405 0.7624369 0.6412625
vn 0 0 0
vn 0.0859421 0.7628679 0.6408169
vn 0 0 0

vt 0 0
vt 0 0
vt -0.0743164 0.6072266
vt -0.0743164 0.6072266
vt -0.0743164 0.6072266
vt -0.0743164 0.6072266
vt -0.1232483 1.007056
vt -0.1232483 1.007056
vt -1.038471 -0.1432983
vt -1.038471 -0.1432983
vt -1.131494 0.4653564
vt -1.131494 0.4653564
vt -1.131494 0.4653564
vt -1.131494 0.4653564
vt -1.192487 0.8644531
vt -1.192487 0.8644531
vt -2.06742 -0.3135864
vt -2.06742 -0.3135864
vt -2.174969 0.2966065
vt -2.174969 0.2966065
vt -2.174969 0.2966065
vt -2.174969 0.2966065
vt -2.245203 0.6950684
vt -2.245203 0.6950684
vt -3.072437 -0.5
vt -3.072437 -0.5
vt -3.190576 0.1113037
vt -3.190576 0.1113037
vt -3.190576 0.1113037
vt -3.190576 0.1113037
vt -3.267481 0.5092163
vt -3.267481 0.5092163
vt -4.068017 -0.6992065
vt -4.068017 -0.6992065
vt -4.193927 -0.08708496
vt -4.193927 -0.08708496
vt -4.193927 -0.08708496
vt -4.193927 -0.08708496
vt -4.27569 0.310376
vt -4.27569 0.310376
vt -5.070734 -0.9104126
vt -5.070734 -0.9104126
vt -5.202191 -0.2977173
vt -5.202191 -0.2977173
vt -5.202191 -0.2977173
vt -5.202191 -0.2977173
vt -5.287403 0.09941407
vt -5.287403 0.09941407
vt -6.072156 -1.128528
vt -6.072156 -1.128528
vt -6.207123 -0.5154663
vt -6.207123 -0.5154663
vt -6.207123 -0.5154663
vt -6.207123 -0.5154663
vt -6.294495 -0.1185791
vt -6.294495 -0.1185791
vt -7.063986 -1.348486
vt -7.063986 -1.348486
vt -7.200479 -0.7352539
vt -7.200479 -0.7352539
vt -7.200479 -0.7352539
vt -7.200479 -0.7352539
vt -7.288794 -0.3384766
vt -7.288794 -0.3384766
vt -8.037305 -1.565112
vt -8.037305 -1.565112
vt -8.173325 -0.9518799
vt -8.173325 -0.9518799
vt -8.173325 -0.9518799
vt -8.173325 -0.9518799
vt -8.26134 -0.5550904
vt -8.26134 -0.5550904
vt -9.031064 -1.783679
vt -9.031064 -1.783679
vt -9.164289 -1.170606
vt -9.164289 -1.170606
vt -9.164289 -1.170606
vt -9.164289 -1.170606
vt -9.250552 -0.7736328
vt -9.250552 -0.7736328

usemtl GSDShoulder1
usemap GSDShoulder1
f 9/9/9 1/1/1 3/3/3
f 11/11/11 9/9/9 3/3/3
f 13/13/13 5/5/5 7/7/7
f 15/15/15 13/13/13 7/7/7
f 17/17/17 9/9/9 11/11/11
f 19/19/19 17/17/17 11/11/11
f 21/21/21 13/13/13 15/15/15
f 23/23/23 21/21/21 15/15/15
f 25/25/25 17/17/17 19/19/19
f 27/27/27 25/25/25 19/19/19
f 29/29/29 21/21/21 23/23/23
f 31/31/31 29/29/29 23/23/23
f 33/33/33 25/25/25 27/27/27
f 35/35/35 33/33/33 27/27/27
f 37/37/37 29/29/29 31/31/31
f 39/39/39 37/37/37 31/31/31
f 41/41/41 33/33/33 35/35/35
f 43/43/43 41/41/41 35/35/35
f 45/45/45 37/37/37 39/39/39
f 47/47/47 45/45/45 39/39/39
f 49/49/49 41/41/41 43/43/43
f 51/51/51 49/49/49 43/43/43
f 53/53/53 45/45/45 47/47/47
f 55/55/55 53/53/53 47/47/47
f 57/57/57 49/49/49 51/51/51
f 59/59/59 57/57/57 51/51/51
f 61/61/61 53/53/53 55/55/55
f 63/63/63 61/61/61 55/55/55
f 65/65/65 57/57/57 59/59/59
f 67/67/67 65/65/65 59/59/59
f 69/69/69 61/61/61 63/63/63
f 71/71/71 69/69/69 63/63/63
f 73/73/73 65/65/65 67/67/67
f 75/75/75 73/73/73 67/67/67
f 77/77/77 69/69/69 71/71/71
f 79/79/79 77/77/77 71/71/71
