mtllib ./Road1_0_174.mtl
g SCutR35
v -286.7849 0.02973747 837.142
v -286.7849 0.02973747 837.142
v -286.9429 0.02973747 834.1462
v -286.9429 0.02973747 834.1462
v -286.9429 0.02973747 834.1462
v -286.9429 0.02973747 834.1462
v -287.0483 -0.3341416 832.149
v -287.0483 -0.3341416 832.149
v -291.8105 0.02928868 837.4109
v -291.8105 0.02928868 837.4109
v -291.9774 0.02928868 834.4155
v -291.9774 0.02928868 834.4155
v -291.9774 0.02928868 834.4155
v -291.9774 0.02928868 834.4155
v -292.0887 -0.3341416 832.4186
v -292.0887 -0.3341416 832.4186
v -296.8593 0.02417259 837.7035
v -296.8593 0.02417259 837.7035
v -297.0392 0.02417259 834.7089
v -297.0392 0.02417259 834.7089
v -297.0392 0.02417259 834.7089
v -297.0392 0.02417259 834.7089
v -297.1592 -0.3341416 832.7125
v -297.1592 -0.3341416 832.7125
v -301.9777 0.01479916 838.0208
v -301.9777 0.01479916 838.0208
v -302.1686 0.01479916 835.0269
v -302.1686 0.01479916 835.0269
v -302.1686 0.01479916 835.0269
v -302.1686 0.01479916 835.0269
v -302.2959 -0.3341416 833.0309
v -302.2959 -0.3341416 833.0309
v -307.0368 0.002037905 838.3514
v -307.0368 0.002037905 838.3514
v -307.2368 0.002037905 835.358
v -307.2368 0.002037905 835.358
v -307.2368 0.002037905 835.358
v -307.2368 0.002037905 835.358
v -307.3701 -0.3341416 833.3625
v -307.3701 -0.3341416 833.3625
v -312.1519 0 838.6997
v -312.1519 0 838.6997
v -312.3611 0 835.6803
v -312.3611 0 835.6803
v -312.3611 0 835.6803
v -312.3611 0 835.6803
v -312.4998 -0.3341416 833.6784
v -312.4998 -0.3341416 833.6784
v -317.1916 0 839.054
v -317.1916 0 839.054
v -317.4069 0 836.0314
v -317.4069 0 836.0314
v -317.4069 0 836.0314
v -317.4069 0 836.0314
v -317.5494 -0.3341416 834.029
v -317.5494 -0.3341416 834.029
v -322.2754 0 839.4199
v -322.2754 0 839.4199
v -322.4951 0 836.3948
v -322.4951 0 836.3948
v -322.4951 0 836.3948
v -322.4951 0 836.3948
v -322.6406 -0.3341416 834.3918
v -322.6406 -0.3341416 834.3918
v -327.2702 0 839.7853
v -327.2702 0 839.7853
v -327.493 0 836.7582
v -327.493 0 836.7582
v -327.493 0 836.7582
v -327.493 0 836.7582
v -327.6404 -0.3341416 834.7549
v -327.6404 -0.3341416 834.7549
v -332.2973 0 840.1569
v -332.2973 0 840.1569
v -332.5218 0 837.1285
v -332.5218 0 837.1285
v -332.5218 0 837.1285
v -332.5218 0 837.1285
v -332.6703 -0.3341416 835.1249
v -332.6703 -0.3341416 835.1249
v -337.3535 0 840.5321
v -337.3535 0 840.5321
v -337.5784 0 837.5031
v -337.5784 0 837.5031
v -337.5784 0 837.5031
v -337.5784 0 837.5031
v -337.7271 -0.3341416 835.4993
v -337.7271 -0.3341416 835.4993
v -342.4332 0 840.9085
v -342.4332 0 840.9085
v -342.6572 0 837.8793
v -342.6572 0 837.8793
v -342.6572 0 837.8793
v -342.6572 0 837.8793
v -342.8053 -0.3341416 835.8755
v -342.8053 -0.3341416 835.8755
v -347.5329 0 841.284
v -347.5329 0 841.284
v -347.7546 0 838.2552
v -347.7546 0 838.2552
v -347.7546 0 838.2552
v -347.7546 0 838.2552
v -347.9013 -0.3341416 836.2515
v -347.9013 -0.3341416 836.2515
v -352.5162 0 841.6462
v -352.5162 0 841.6462
v -352.7347 0 838.6185
v -352.7347 0 838.6185
v -352.7347 0 838.6185
v -352.7347 0 838.6185
v -352.8792 -0.3341416 836.6149
v -352.8792 -0.3341416 836.6149
v -357.5099 0 842.0031
v -357.5099 0 842.0031
v -357.7238 0 838.9769
v -357.7238 0 838.9769
v -357.7238 0 838.9769
v -357.7238 0 838.9769
v -357.8654 -0.3341416 836.9735
v -357.8654 -0.3341416 836.9735
v -362.5097 0 842.352
v -362.5097 0 842.352
v -362.7179 0 839.328
v -362.7179 0 839.328
v -362.7179 0 839.328
v -362.7179 0 839.328
v -362.8558 -0.3341416 837.325
v -362.8558 -0.3341416 837.325
v -367.5116 0 842.6909
v -367.5116 0 842.6909
v -367.7129 0 839.6696
v -367.7129 0 839.6696
v -367.7129 0 839.6696
v -367.7129 0 839.6696
v -367.8463 -0.3341416 837.6671
v -367.8463 -0.3341416 837.6671
v -372.5111 0 843.0176
v -372.5111 0 843.0176
v -372.7027 0 840.0237
v -372.7027 0 840.0237
v -372.7027 0 840.0237
v -372.7027 0 840.0237
v -372.8304 -0.3341416 838.0278
v -372.8304 -0.3341416 838.0278
v -377.5038 0 843.3297
v -377.5038 0 843.3297
v -377.6864 0 840.3352
v -377.6864 0 840.3352
v -377.6864 0 840.3352
v -377.6864 0 840.3352
v -377.8081 -0.3341416 838.3389
v -377.8081 -0.3341416 838.3389
v -382.4863 0 843.625
v -382.4863 0 843.625
v -382.6586 0 840.63
v -382.6586 0 840.63
v -382.6586 0 840.63
v -382.6586 0 840.63
v -382.7735 -0.3341416 838.6333
v -382.7735 -0.3341416 838.6333
v -387.5847 0 843.9085
v -387.5847 0 843.9085
v -387.7452 0 840.9128
v -387.7452 0 840.9128
v -387.7452 0 840.9128
v -387.7452 0 840.9128
v -387.8522 -0.3341416 838.9157
v -387.8522 -0.3341416 838.9157
v -392.6624 0 844.1696
v -392.6624 0 844.1696
v -392.8097 0 841.1732
v -392.8097 0 841.1732
v -392.8097 0 841.1732
v -392.8097 0 841.1732
v -392.9079 -0.3341416 839.1756
v -392.9079 -0.3341416 839.1756
v -397.7156 0 844.4059
v -397.7156 0 844.4059
v -397.8484 0 841.4088
v -397.8484 0 841.4088
v -397.8484 0 841.4088
v -397.8484 0 841.4088
v -397.9369 -0.3341416 839.4108
v -397.9369 -0.3341416 839.4108
v -402.7394 0 844.6152
v -402.7394 0 844.6152
v -402.856 0 841.6174
v -402.856 0 841.6174
v -402.856 0 841.6174
v -402.856 0 841.6174
v -402.9338 -0.3341416 839.619
v -402.9338 -0.3341416 839.619
v -407.7297 0 844.7949
v -407.7297 0 844.7949
v -407.8287 0 841.7965
v -407.8287 0 841.7965
v -407.8287 0 841.7965
v -407.8287 0 841.7965
v -407.8947 -0.3341416 839.7976
v -407.8947 -0.3341416 839.7976
v -412.8078 0 844.946
v -412.8078 0 844.946
v -412.8878 0 841.9157
v -412.8878 0 841.9157
v -412.8878 0 841.9157
v -412.8878 0 841.9157
v -412.9409 -0.3341416 839.9086
v -412.9409 -0.3341416 839.9086
v -417.8404 0 845.0612
v -417.8404 0 845.0612
v -417.8988 0 842.0202
v -417.8988 0 842.0202
v -417.8988 0 842.0202
v -417.8988 0 842.0202
v -417.9374 -0.3341416 840.0102
v -417.9374 -0.3341416 840.0102
v -422.8228 0 845.1376
v -422.8228 0 845.1376
v -422.8574 0 842.0852
v -422.8574 0 842.0852
v -422.8574 0 842.0852
v -422.8574 0 842.0852
v -422.8802 -0.3341416 840.0722
v -422.8802 -0.3341416 840.0722
v -427.8715 0 845.1732
v -427.8715 0 845.1732
v -427.8794 0 842.1087
v -427.8794 0 842.1087
v -427.8794 0 842.1087
v -427.8794 0 842.1087
v -427.8846 -0.3341416 840.0926
v -427.8846 -0.3341416 840.0926
v -432.8563 0 845.1628
v -432.8563 0 845.1628
v -432.835 0 842.0857
v -432.835 0 842.0857
v -432.835 0 842.0857
v -432.835 0 842.0857
v -432.821 -0.3341416 840.0665
v -432.821 -0.3341416 840.0665
v -437.8916 0 845.1017
v -437.8916 0 845.1017
v -437.8373 0 842.0112
v -437.8373 0 842.0112
v -437.8373 0 842.0112
v -437.8373 0 842.0112
v -437.8018 -0.3341416 839.9889
v -437.8018 -0.3341416 839.9889
v -442.8481 0 844.9867
v -442.8481 0 844.9867
v -442.7577 0 841.8824
v -442.7577 0 841.8824
v -442.7577 0 841.8824
v -442.7577 0 841.8824
v -442.6988 -0.3341416 839.8571
v -442.6988 -0.3341416 839.8571
v -447.8344 0.07519178 844.8101
v -447.8344 0.07519178 844.8101
v -447.7035 0.07519178 841.6917
v -447.7035 0.07519178 841.6917
v -447.7035 0.07519178 841.6917
v -447.7035 0.07519178 841.6917
v -447.6182 -0.3341416 839.6633
v -447.6182 -0.3341416 839.6633

vn -8.904906E-05 1 4.698823E-06
vn 0 0 0
vn -8.896397E-05 1 4.825679E-06
vn 0 0 0
vn -0.009650636 0.9838483 -0.1787432
vn 0 0 0
vn -0.009601006 0.983868 -0.1786384
vn 0 0 0
vn -0.0003968097 0.9999999 2.202266E-05
vn 0 0 0
vn -0.0007029459 0.9999997 4.063406E-05
vn 0 0 0
vn -0.01018088 0.9838745 -0.1785702
vn 0 0 0
vn -0.01036385 0.9840351 -0.1776723
vn 0 0 0
vn -0.0012829 0.9999992 7.56115E-05
vn 0 0 0
vn -0.001552893 0.9999987 9.554885E-05
vn 0 0 0
vn -0.0114186 0.9841818 -0.1767934
vn 0 0 0
vn -0.01118432 0.9845945 -0.1744957
vn 0 0 0
vn -0.002050314 0.9999979 0.0001285075
vn 0 0 0
vn -0.002277755 0.9999973 0.0001478052
vn 0 0 0
vn -0.01233315 0.9848548 -0.1729417
vn 0 0 0
vn -0.0117024 0.9854698 -0.1694477
vn 0 0 0
vn -0.001800331 0.9999983 0.0001177621
vn 0 0 0
vn -0.001093041 0.9999994 7.33658E-05
vn 0 0 0
vn -0.01175695 0.9858211 -0.1673871
vn 0 0 0
vn -0.01056515 0.9862502 -0.164921
vn 0 0 0
vn -0.0002651574 0.9999999 1.804716E-05
vn 0 0 0
vn -0.0001333092 1 9.237597E-06
vn 0 0 0
vn -0.0107614 0.986334 -0.1644066
vn 0 0 0
vn -0.01095269 0.9864219 -0.1638653
vn 0 0 0
vn 0 1 0
vn 0 0 0
vn 0 1 0
vn 0 0 0
vn -0.01149024 0.9864256 -0.1638061
vn 0 0 0
vn -0.01157798 0.9864326 -0.163758
vn 0 0 0
vn 0 1 0
vn 0 0 0
vn 0 1 0
vn 0 0 0
vn -0.0117541 0.9864359 -0.1637255
vn 0 0 0
vn -0.01181761 0.9864415 -0.1636873
vn 0 0 0
vn 0 1 0
vn 0 0 0
vn 0 0.9999999 0
vn 0 0 0
vn -0.01194672 0.9864437 -0.1636642
vn 0 0 0
vn -0.01199026 0.9864476 -0.1636374
vn 0 0 0
vn 0 1 0
vn 0 0 0
vn 0 1 0
vn 0 0 0
vn -0.0120676 0.9864494 -0.1636215
vn 0 0 0
vn -0.0120884 0.9864517 -0.1636062
vn 0 0 0
vn 0 0.9999999 0
vn 0 0 0
vn 0 1 0
vn 0 0 0
vn -0.01211682 0.9864522 -0.1636004
vn 0 0 0
vn -0.01211768 0.986453 -0.1635962
vn 0 0 0
vn 0 0.9999999 0
vn 0 0 0
vn 0 1 0
vn 0 0 0
vn -0.01210178 0.986453 -0.1635969
vn 0 0 0
vn -0.01208524 0.9864523 -0.1636022
vn 0 0 0
vn 0 1 0
vn 0 0 0
vn 0 0.9999999 0
vn 0 0 0
vn -0.01202455 0.9864516 -0.1636111
vn 0 0 0
vn -0.01198514 0.9864497 -0.1636258
vn 0 0 0
vn 0 1 0
vn 0 0 0
vn 0 1 0
vn 0 0 0
vn -0.0118795 0.9864485 -0.1636409
vn 0 0 0
vn -0.01182555 0.9864452 -0.1636642
vn 0 0 0
vn 0 1 0
vn 0 0 0
vn 0 1 0
vn 0 0 0
vn -0.01167961 0.9864432 -0.1636867
vn 0 0 0
vn -0.01160499 0.9864385 -0.1637207
vn 0 0 0
vn 0 0.9999999 0
vn 0 0 0
vn 0 1 0
vn 0 0 0
vn -0.01141412 0.9864358 -0.1637506
vn 0 0 0
vn -0.01132178 0.9864295 -0.1637947
vn 0 0 0
vn 0 1 0
vn 0 0 0
vn 0 1 0
vn 0 0 0
vn -0.01135225 0.9864259 -0.1638141
vn 0 0 0
vn -0.01158329 0.9863911 -0.1640074
vn 0 0 0
vn 0 1 0
vn 0 0 0
vn 0 1 0
vn 0 0 0
vn -0.01126748 0.9863603 -0.1642151
vn 0 0 0
vn -0.01081942 0.986329 -0.1644325
vn 0 0 0
vn 0 1 0
vn 0 0 0
vn 0 1 0
vn 0 0 0
vn -0.010105 0.9863291 -0.1644779
vn 0 0 0
vn -0.009928901 0.9863291 -0.1644882
vn 0 0 0
vn 0 1 0
vn 0 0 0
vn 0 1 0
vn 0 0 0
vn -0.009548214 0.9863293 -0.16451
vn 0 0 0
vn -0.009346966 0.9863292 -0.1645212
vn 0 0 0
vn 0 1 0
vn 0 0 0
vn 0 1 0
vn 0 0 0
vn -0.008919539 0.9863293 -0.1645452
vn 0 0 0
vn -0.008689874 0.986329 -0.1645585
vn 0 0 0
vn 0 1 0
vn 0 0 0
vn 0 0.9999999 0
vn 0 0 0
vn -0.008206531 0.986329 -0.1645839
vn 0 0 0
vn -0.00795277 0.986329 -0.1645962
vn 0 0 0
vn 0 1 0
vn 0 0 0
vn 0 0.9999999 0
vn 0 0 0
vn -0.007419436 0.9863292 -0.1646203
vn 0 0 0
vn -0.007139805 0.9863292 -0.1646323
vn 0 0 0
vn 0 1 0
vn 0 0 0
vn 0 1 0
vn 0 0 0
vn -0.006551047 0.986329 -0.1646572
vn 0 0 0
vn -0.006241537 0.9863291 -0.1646697
vn 0 0 0
vn 0 1 0
vn 0 0 0
vn 0 1 0
vn 0 0 0
vn -0.005239367 0.986329 -0.1647045
vn 0 0 0
vn -0.004464083 0.9863642 -0.1645166
vn 0 0 0
vn 0 1 0
vn 0 0 0
vn 0 1 0
vn 0 0 0
vn -0.003638161 0.9863982 -0.1643333
vn 0 0 0
vn -0.003455609 0.9864446 -0.1640586
vn 0 0 0
vn 0 1 0
vn 0 0 0
vn 0 1 0
vn 0 0 0
vn -0.002970953 0.9864559 -0.1640003
vn 0 0 0
vn -0.002514848 0.9864791 -0.1638672
vn 0 0 0
vn 0 1 0
vn 0 0 0
vn 0 1 0
vn 0 0 0
vn -0.001652086 0.9864912 -0.163806
vn 0 0 0
vn -0.001157754 0.9865165 -0.1636579
vn 0 0 0
vn 0 1 0
vn 0 0 0
vn 0 1 0
vn 0 0 0
vn -0.0002279173 0.9865292 -0.1635848
vn 0 0 0
vn 0.0003153794 0.9865562 -0.1634219
vn 0 0 0
vn 0 1 0
vn 0 0 0
vn 0 1 0
vn 0 0 0
vn 0.001355381 0.9865698 -0.1633344
vn 0 0 0
vn 0.00194832 0.9865984 -0.1631559
vn 0 0 0
vn 0 1 0
vn 0 0 0
vn 0 0.9999999 0
vn 0 0 0
vn 0.003072341 0.9866126 -0.1630524
vn 0 0 0
vn 0.003721882 0.9866431 -0.162855
vn 0 0 0
vn 0.005062597 0.9999871 0.0001473688
vn 0 0 0
vn 0.01012084 0.9999486 0.0003600014
vn 0 0 0
vn 0.009999546 0.9866447 -0.1625802
vn 0 0 0
vn 0.0111585 0.9846491 -0.1741887
vn 0 0 0
vn 0.01511954 0.9998856 0.0005378068
vn 0 0 0
vn 0.015177 0.9998847 0.0006374618
vn 0 0 0
vn 0.01450802 0.9835818 -0.1798788
vn 0 0 0
vn 0.007777471 0.9802719 -0.1975009
vn 0 0 0

vt 0 0
vt 0 0
vt 0.03161621 -0.5991699
vt 0.03161621 -0.5991699
vt 0.03161621 -0.5991699
vt 0.03161621 -0.5991699
vt 0.05269776 -0.9986084
vt 0.05269776 -0.9986084
vt 1.005127 0.05377197
vt 1.005127 0.05377197
vt 1.038507 -0.5453003
vt 1.038507 -0.5453003
vt 1.038507 -0.5453003
vt 1.038507 -0.5453003
vt 1.06076 -0.9446778
vt 1.06076 -0.9446778
vt 2.014893 0.1122925
vt 2.014893 0.1122925
vt 2.050873 -0.4866333
vt 2.050873 -0.4866333
vt 2.050873 -0.4866333
vt 2.050873 -0.4866333
vt 2.074866 -0.8859131
vt 2.074866 -0.8859131
vt 3.038562 0.1757446
vt 3.038562 0.1757446
vt 3.076752 -0.4230347
vt 3.076752 -0.4230347
vt 3.076752 -0.4230347
vt 3.076752 -0.4230347
vt 3.102216 -0.8222168
vt 3.102216 -0.8222168
vt 4.050385 0.2418701
vt 4.050385 0.2418701
vt 4.090387 -0.3567993
vt 4.090387 -0.3567993
vt 4.090387 -0.3567993
vt 4.090387 -0.3567993
vt 4.117054 -0.7559082
vt 4.117054 -0.7559082
vt 5.073401 0.3115357
vt 5.073401 0.3115357
vt 5.115247 -0.2923462
vt 5.115247 -0.2923462
vt 5.115247 -0.2923462
vt 5.115247 -0.2923462
vt 5.142993 -0.6927246
vt 5.142993 -0.6927246
vt 6.081354 0.3823975
vt 6.081354 0.3823975
vt 6.124402 -0.2221191
vt 6.124402 -0.2221191
vt 6.124402 -0.2221191
vt 6.124402 -0.2221191
vt 6.152917 -0.6226074
vt 6.152917 -0.6226074
vt 7.098102 0.4555786
vt 7.098102 0.4555786
vt 7.142053 -0.1494507
vt 7.142053 -0.1494507
vt 7.142053 -0.1494507
vt 7.142053 -0.1494507
vt 7.171155 -0.5500488
vt 7.171155 -0.5500488
vt 8.097064 0.5286499
vt 8.097064 0.5286499
vt 8.14162 -0.07675781
vt 8.14162 -0.07675781
vt 8.14162 -0.07675781
vt 8.14162 -0.07675781
vt 8.171112 -0.4774292
vt 8.171112 -0.4774292
vt 9.102496 0.6029663
vt 9.102496 0.6029663
vt 9.147394 -0.002697754
vt 9.147394 -0.002697754
vt 9.147394 -0.002697754
vt 9.147394 -0.002697754
vt 9.1771 -0.4034302
vt 9.1771 -0.4034302
vt 10.11374 0.6780152
vt 10.11374 0.6780152
vt 10.15871 0.07220459
vt 10.15871 0.07220459
vt 10.15871 0.07220459
vt 10.15871 0.07220459
vt 10.18846 -0.3285522
vt 10.18846 -0.3285522
vt 11.12968 0.7532959
vt 11.12968 0.7532959
vt 11.17446 0.1474609
vt 11.17446 0.1474609
vt 11.17446 0.1474609
vt 11.17446 0.1474609
vt 11.2041 -0.2533081
vt 11.2041 -0.2533081
vt 12.1496 0.8283936
vt 12.1496 0.8283936
vt 12.19396 0.222644
vt 12.19396 0.222644
vt 12.19396 0.222644
vt 12.19396 0.222644
vt 12.2233 -0.1781128
vt 12.2233 -0.1781128
vt 13.14628 0.9008423
vt 13.14628 0.9008423
vt 13.18997 0.2953003
vt 13.18997 0.2953003
vt 13.18997 0.2953003
vt 13.18997 0.2953003
vt 13.21888 -0.1054321
vt 13.21888 -0.1054321
vt 14.14501 0.9722046
vt 14.14501 0.9722046
vt 14.18779 0.36698
vt 14.18779 0.36698
vt 14.18779 0.36698
vt 14.18779 0.36698
vt 14.21611 -0.03370361
vt 14.21611 -0.03370361
vt 15.14497 1.041992
vt 15.14497 1.041992
vt 15.1866 0.4371948
vt 15.1866 0.4371948
vt 15.1866 0.4371948
vt 15.1866 0.4371948
vt 15.21418 0.03658447
vt 15.21418 0.03658447
vt 16.14536 1.109778
vt 16.14536 1.109778
vt 16.1856 0.5055176
vt 16.1856 0.5055176
vt 16.1856 0.5055176
vt 16.1856 0.5055176
vt 16.21228 0.1050049
vt 16.21228 0.1050049
vt 17.14525 1.17511
vt 17.14525 1.17511
vt 17.18356 0.5763306
vt 17.18356 0.5763306
vt 17.18356 0.5763306
vt 17.18356 0.5763306
vt 17.2091 0.1771484
vt 17.2091 0.1771484
vt 18.1438 1.237524
vt 18.1438 1.237524
vt 18.18031 0.6386353
vt 18.18031 0.6386353
vt 18.18031 0.6386353
vt 18.18031 0.6386353
vt 18.20465 0.2393799
vt 18.20465 0.2393799
vt 19.14029 1.296594
vt 19.14029 1.296594
vt 19.17476 0.6975952
vt 19.17476 0.6975952
vt 19.17476 0.6975952
vt 19.17476 0.6975952
vt 19.19774 0.2982544
vt 19.19774 0.2982544
vt 20.15996 1.353296
vt 20.15996 1.353296
vt 20.19207 0.7541626
vt 20.19207 0.7541626
vt 20.19207 0.7541626
vt 20.19207 0.7541626
vt 20.21347 0.3547363
vt 20.21347 0.3547363
vt 21.17551 1.405505
vt 21.17551 1.405505
vt 21.20497 0.8062256
vt 21.20497 0.8062256
vt 21.20497 0.8062256
vt 21.20497 0.8062256
vt 21.22462 0.4067139
vt 21.22462 0.4067139
vt 22.18616 1.452771
vt 22.18616 1.452771
vt 22.21271 0.853357
vt 22.21271 0.853357
vt 22.21271 0.853357
vt 22.21271 0.853357
vt 22.2304 0.4537476
vt 22.2304 0.4537476
vt 23.19091 1.494629
vt 23.19091 1.494629
vt 23.21424 0.8950806
vt 23.21424 0.8950806
vt 23.21424 0.8950806
vt 23.21424 0.8950806
vt 23.22979 0.4953857
vt 23.22979 0.4953857
vt 24.18898 1.530566
vt 24.18898 1.530566
vt 24.20878 0.930896
vt 24.20878 0.930896
vt 24.20878 0.930896
vt 24.20878 0.930896
vt 24.22197 0.5311157
vt 24.22197 0.5311157
vt 25.2046 1.560791
vt 25.2046 1.560791
vt 25.2206 0.9547364
vt 25.2206 0.9547364
vt 25.2206 0.9547364
vt 25.2206 0.9547364
vt 25.2312 0.5533081
vt 25.2312 0.5533081
vt 26.21111 1.583838
vt 26.21111 1.583838
vt 26.22278 0.9756348
vt 26.22278 0.9756348
vt 26.22278 0.9756348
vt 26.22278 0.9756348
vt 26.2305 0.5736328
vt 26.2305 0.5736328
vt 27.20758 1.599109
vt 27.20758 1.599109
vt 27.21451 0.9886352
vt 27.21451 0.9886352
vt 27.21451 0.9886352
vt 27.21451 0.9886352
vt 27.21908 0.5860352
vt 27.21908 0.5860352
vt 28.21732 1.606238
vt 28.21732 1.606238
vt 28.21891 0.9933349
vt 28.21891 0.9933349
vt 28.21891 0.9933349
vt 28.21891 0.9933349
vt 28.21995 0.5901123
vt 28.21995 0.5901123
vt 29.21429 1.604163
vt 29.21429 1.604163
vt 29.21003 0.9887329
vt 29.21003 0.9887329
vt 29.21003 0.9887329
vt 29.21003 0.9887329
vt 29.20723 0.5848877
vt 29.20723 0.5848877
vt 30.22134 1.591943
vt 30.22134 1.591943
vt 30.2105 0.9738404
vt 30.2105 0.9738404
vt 30.2105 0.9738404
vt 30.2105 0.9738404
vt 30.2034 0.5693726
vt 30.2034 0.5693726
vt 31.21265 1.568933
vt 31.21265 1.568933
vt 31.19457 0.9480835
vt 31.19457 0.9480835
vt 31.19457 0.9480835
vt 31.19457 0.9480835
vt 31.18278 0.5430054
vt 31.18278 0.5430054
vt 32.20992 1.533618
vt 32.20992 1.533618
vt 32.18372 0.9099243
vt 32.18372 0.9099243
vt 32.18372 0.9099243
vt 32.18372 0.9099243
vt 32.16668 0.5042602
vt 32.16668 0.5042602

usemtl GSDShoulder1
usemap GSDShoulder1
f 9/9/9 1/1/1 3/3/3
f 11/11/11 9/9/9 3/3/3
f 13/13/13 5/5/5 7/7/7
f 15/15/15 13/13/13 7/7/7
f 17/17/17 9/9/9 11/11/11
f 19/19/19 17/17/17 11/11/11
f 21/21/21 13/13/13 15/15/15
f 23/23/23 21/21/21 15/15/15
f 25/25/25 17/17/17 19/19/19
f 27/27/27 25/25/25 19/19/19
f 29/29/29 21/21/21 23/23/23
f 31/31/31 29/29/29 23/23/23
f 33/33/33 25/25/25 27/27/27
f 35/35/35 33/33/33 27/27/27
f 37/37/37 29/29/29 31/31/31
f 39/39/39 37/37/37 31/31/31
f 41/41/41 33/33/33 35/35/35
f 43/43/43 41/41/41 35/35/35
f 45/45/45 37/37/37 39/39/39
f 47/47/47 45/45/45 39/39/39
f 49/49/49 41/41/41 43/43/43
f 51/51/51 49/49/49 43/43/43
f 53/53/53 45/45/45 47/47/47
f 55/55/55 53/53/53 47/47/47
f 57/57/57 49/49/49 51/51/51
f 59/59/59 57/57/57 51/51/51
f 61/61/61 53/53/53 55/55/55
f 63/63/63 61/61/61 55/55/55
f 65/65/65 57/57/57 59/59/59
f 67/67/67 65/65/65 59/59/59
f 69/69/69 61/61/61 63/63/63
f 71/71/71 69/69/69 63/63/63
f 73/73/73 65/65/65 67/67/67
f 75/75/75 73/73/73 67/67/67
f 77/77/77 69/69/69 71/71/71
f 79/79/79 77/77/77 71/71/71
f 81/81/81 73/73/73 75/75/75
f 83/83/83 81/81/81 75/75/75
f 85/85/85 77/77/77 79/79/79
f 87/87/87 85/85/85 79/79/79
f 89/89/89 81/81/81 83/83/83
f 91/91/91 89/89/89 83/83/83
f 93/93/93 85/85/85 87/87/87
f 95/95/95 93/93/93 87/87/87
f 97/97/97 89/89/89 91/91/91
f 99/99/99 97/97/97 91/91/91
f 101/101/101 93/93/93 95/95/95
f 103/103/103 101/101/101 95/95/95
f 105/105/105 97/97/97 99/99/99
f 107/107/107 105/105/105 99/99/99
f 109/109/109 101/101/101 103/103/103
f 111/111/111 109/109/109 103/103/103
f 113/113/113 105/105/105 107/107/107
f 115/115/115 113/113/113 107/107/107
f 117/117/117 109/109/109 111/111/111
f 119/119/119 117/117/117 111/111/111
f 121/121/121 113/113/113 115/115/115
f 123/123/123 121/121/121 115/115/115
f 125/125/125 117/117/117 119/119/119
f 127/127/127 125/125/125 119/119/119
f 129/129/129 121/121/121 123/123/123
f 131/131/131 129/129/129 123/123/123
f 133/133/133 125/125/125 127/127/127
f 135/135/135 133/133/133 127/127/127
f 137/137/137 129/129/129 131/131/131
f 139/139/139 137/137/137 131/131/131
f 141/141/141 133/133/133 135/135/135
f 143/143/143 141/141/141 135/135/135
f 145/145/145 137/137/137 139/139/139
f 147/147/147 145/145/145 139/139/139
f 149/149/149 141/141/141 143/143/143
f 151/151/151 149/149/149 143/143/143
f 153/153/153 145/145/145 147/147/147
f 155/155/155 153/153/153 147/147/147
f 157/157/157 149/149/149 151/151/151
f 159/159/159 157/157/157 151/151/151
f 161/161/161 153/153/153 155/155/155
f 163/163/163 161/161/161 155/155/155
f 165/165/165 157/157/157 159/159/159
f 167/167/167 165/165/165 159/159/159
f 169/169/169 161/161/161 163/163/163
f 171/171/171 169/169/169 163/163/163
f 173/173/173 165/165/165 167/167/167
f 175/175/175 173/173/173 167/167/167
f 177/177/177 169/169/169 171/171/171
f 179/179/179 177/177/177 171/171/171
f 181/181/181 173/173/173 175/175/175
f 183/183/183 181/181/181 175/175/175
f 185/185/185 177/177/177 179/179/179
f 187/187/187 185/185/185 179/179/179
f 189/189/189 181/181/181 183/183/183
f 191/191/191 189/189/189 183/183/183
f 193/193/193 185/185/185 187/187/187
f 195/195/195 193/193/193 187/187/187
f 197/197/197 189/189/189 191/191/191
f 199/199/199 197/197/197 191/191/191
f 201/201/201 193/193/193 195/195/195
f 203/203/203 201/201/201 195/195/195
f 205/205/205 197/197/197 199/199/199
f 207/207/207 205/205/205 199/199/199
f 209/209/209 201/201/201 203/203/203
f 211/211/211 209/209/209 203/203/203
f 213/213/213 205/205/205 207/207/207
f 215/215/215 213/213/213 207/207/207
f 217/217/217 209/209/209 211/211/211
f 219/219/219 217/217/217 211/211/211
f 221/221/221 213/213/213 215/215/215
f 223/223/223 221/221/221 215/215/215
f 225/225/225 217/217/217 219/219/219
f 227/227/227 225/225/225 219/219/219
f 229/229/229 221/221/221 223/223/223
f 231/231/231 229/229/229 223/223/223
f 233/233/233 225/225/225 227/227/227
f 235/235/235 233/233/233 227/227/227
f 237/237/237 229/229/229 231/231/231
f 239/239/239 237/237/237 231/231/231
f 241/241/241 233/233/233 235/235/235
f 243/243/243 241/241/241 235/235/235
f 245/245/245 237/237/237 239/239/239
f 247/247/247 245/245/245 239/239/239
f 249/249/249 241/241/241 243/243/243
f 251/251/251 249/249/249 243/243/243
f 253/253/253 245/245/245 247/247/247
f 255/255/255 253/253/253 247/247/247
f 257/257/257 249/249/249 251/251/251
f 259/259/259 257/257/257 251/251/251
f 261/261/261 253/253/253 255/255/255
f 263/263/263 261/261/261 255/255/255
