mtllib ./Road1_0_133.mtl
g Markers66
v -133.542 46.46867 691.1915
v -133.542 46.46867 691.1915
v -127.9521 46.46867 699.4427
v -127.9521 46.46867 699.4427
v -130.0324 46.88108 688.5148
v -130.0324 46.88108 688.5148
v -123.5072 46.88108 696.0482
v -123.5072 46.88108 696.0482
v -126.7956 47.29427 685.3647
v -126.7956 47.29427 685.3647
v -119.4722 47.29427 692.1266
v -119.4722 47.29427 692.1266
v -123.8557 47.69449 681.8695
v -123.8557 47.69449 681.8695
v -115.9624 47.69449 687.9583
v -115.9624 47.69449 687.9583
v -121.1377 48.08839 678.0668
v -121.1377 48.08839 678.0668
v -112.8398 48.08839 683.5934
v -112.8398 48.08839 683.5934
v -118.5891 48.48019 674.0023
v -118.5891 48.48019 674.0023
v -110.0165 48.48019 679.0931
v -110.0165 48.48019 679.0931
v -116.173 48.87035 669.767
v -116.173 48.87035 669.767
v -107.4474 48.87035 674.5896
v -107.4474 48.87035 674.5896

vn -0.0771403 0.9956497 0.05225984
vn 0 0 0
vn -0.06516579 0.9966201 0.05001688
vn 0 0 0
vn -0.06635172 0.9963853 0.05304454
vn 0 0 0
vn -0.05738707 0.996914 0.05356526
vn 0 0 0
vn -0.05861995 0.9965417 0.05889356
vn 0 0 0
vn -0.05080662 0.9970022 0.05835349
vn 0 0 0
vn -0.05137343 0.9967114 0.06266662
vn 0 0 0
vn -0.04530763 0.9970708 0.06162034
vn 0 0 0
vn -0.04544655 0.996855 0.06491935
vn 0 0 0
vn -0.04096575 0.9971176 0.06386062
vn 0 0 0
vn -0.04102108 0.9969469 0.06643932
vn 0 0 0
vn -0.0381448 0.9971055 0.06576808
vn 0 0 0
vn -0.03845064 0.9970055 0.06709319
vn 0 0 0
vn -0.03630299 0.9971799 0.06568276
vn 0 0 0

vt 0 914.7389
vt 0 0
vt 1 914.7389
vt 0 0
vt 0 915.6255
vt 0 915.6255
vt 1 915.6255
vt 1 915.6255
vt 0 916.5326
vt 0 916.5326
vt 1 916.5326
vt 1 916.5326
vt 0 917.4495
vt 0 917.4495
vt 1 917.4495
vt 1 917.4495
vt 0 918.3877
vt 0 918.3877
vt 1 918.3877
vt 1 918.3877
vt 0 919.3504
vt 0 919.3504
vt 1 919.3504
vt 1 919.3504
vt 0 920.3287
vt 0 920.3287
vt 1 920.3287
vt 1 920.3287

usemtl GSDWhiteYellowDouble
usemap GSDWhiteYellowDouble
f 5/5/5 1/1/1 3/3/3
f 7/7/7 5/5/5 3/3/3
f 9/9/9 5/5/5 7/7/7
f 11/11/11 9/9/9 7/7/7
f 13/13/13 9/9/9 11/11/11
f 15/15/15 13/13/13 11/11/11
f 17/17/17 13/13/13 15/15/15
f 19/19/19 17/17/17 15/15/15
f 21/21/21 17/17/17 19/19/19
f 23/23/23 21/21/21 19/19/19
f 25/25/25 21/21/21 23/23/23
f 27/27/27 25/25/25 23/23/23
