mtllib ./Road8_2_39.mtl
g RoadCut12
v -459.2399 8.323725 51.15726
v -459.2399 8.323725 51.15726
v -458.2464 8.323725 41.20917
v -458.2464 8.323725 41.20917
v -464.1527 8.210711 50.70922
v -464.1527 8.210711 50.70922
v -463.3247 8.210711 40.74622
v -463.3247 8.210711 40.74622
v -469.1128 8.092413 50.32921
v -469.1128 8.092413 50.32921
v -468.4071 8.092413 40.35699
v -468.4071 8.092413 40.35699
v -474.1033 7.970337 50.00005
v -474.1033 7.970337 50.00005
v -473.4893 7.970337 40.02192
v -473.4893 7.970337 40.02192
v -479.117 7.845356 49.71032
v -479.117 7.845356 49.71032
v -478.5751 7.845356 39.72812
v -478.5751 7.845356 39.72812
v -484.13 7.718546 49.45343
v -484.13 7.718546 49.45343
v -483.647 7.718546 39.4683
v -483.647 7.718546 39.4683
v -489.1432 7.590238 49.22363
v -489.1432 7.590238 49.22363
v -488.7094 7.590238 39.23631
v -488.7094 7.590238 39.23631
v -494.1766 7.460158 49.01599
v -494.1766 7.460158 49.01599
v -493.7853 7.460158 39.02699
v -493.7853 7.460158 39.02699
v -499.1939 7.329441 48.82895
v -499.1939 7.329441 48.82895
v -498.8397 7.329441 38.83862
v -498.8397 7.329441 38.83862
v -504.2375 7.197137 48.65854
v -504.2375 7.197137 48.65854
v -503.9161 7.197137 38.66714
v -503.9161 7.197137 38.66714
v -509.2841 7.063969 48.50379
v -509.2841 7.063969 48.50379
v -508.9923 7.063969 38.51152
v -508.9923 7.063969 38.51152
v -514.313 6.930587 48.36373
v -514.313 6.930587 48.36373
v -514.0479 6.930587 38.37075
v -514.0479 6.930587 38.37075
v -519.3047 6.797604 48.23741
v -519.3047 6.797604 48.23741
v -519.0639 6.797604 38.24385
v -519.0639 6.797604 38.24385
v -524.3245 6.663352 48.12212
v -524.3245 6.663352 48.12212
v -524.1061 6.663352 38.12807
v -524.1061 6.663352 38.12807
v -529.3613 6.528177 48.0174
v -529.3613 6.528177 48.0174
v -529.1639 6.528177 38.02294
v -529.1639 6.528177 38.02294
v -534.4045 6.392417 47.92279
v -534.4045 6.392417 47.92279
v -534.2267 6.392417 37.92799
v -534.2267 6.392417 37.92799
v -539.4439 6.256385 47.83788
v -539.4439 6.256385 47.83788
v -539.2847 6.256385 37.84278
v -539.2847 6.256385 37.84278
v -544.4702 6.120385 47.76222
v -544.4702 6.120385 47.76222
v -544.3283 6.120385 37.76688
v -544.3283 6.120385 37.76688
v -549.4747 5.984681 47.6954
v -549.4747 5.984681 47.6954
v -549.3494 5.984681 37.69985
v -549.3494 5.984681 37.69985
v -554.5402 5.847056 47.63599
v -554.5402 5.847056 47.63599
v -554.431 5.847056 37.64027
v -554.431 5.847056 37.64027
v -559.5699 5.710176 47.58487
v -559.5699 5.710176 47.58487
v -559.476 5.710176 37.589
v -559.476 5.710176 37.589
v -564.6497 5.571729 47.54086
v -564.6497 5.571729 47.54086
v -564.5704 5.571729 37.54488
v -564.5704 5.571729 37.54488
v -569.6807 5.434425 47.5046
v -569.6807 5.434425 47.5046
v -569.6157 5.434425 37.50853
v -569.6157 5.434425 37.50853
v -574.7512 5.295884 47.47518
v -574.7512 5.295884 47.47518
v -574.7002 5.295884 37.47903
v -574.7002 5.295884 37.47903
v -579.7622 5.158835 47.45294
v -579.7622 5.158835 47.45294
v -579.7245 5.158835 37.45674
v -579.7245 5.158835 37.45674
v -584.8029 5.02086 47.43726
v -584.8029 5.02086 47.43726
v -584.7783 5.02086 37.44103
v -584.7783 5.02086 37.44103
v -589.869 4.882085 47.42815
v -589.869 4.882085 47.42815
v -589.8575 4.882085 37.43189
v -589.8575 4.882085 37.43189
v -594.8608 4.745268 47.42556
v -594.8608 4.745268 47.42556
v -594.8619 4.745268 37.4293
v -594.8619 4.745268 37.4293
v -599.8699 4.607922 47.42924
v -599.8699 4.607922 47.42924
v -599.8834 4.607922 37.433
v -599.8834 4.607922 37.433
v -604.8922 4.470164 47.43921
v -604.8922 4.470164 47.43921
v -604.9182 4.470164 37.44299
v -604.9182 4.470164 37.44299
v -609.9242 4.332114 47.45541
v -609.9242 4.332114 47.45541
v -609.9625 4.332114 37.45924
v -609.9625 4.332114 37.45924
v -614.9617 4.193899 47.47787
v -614.9617 4.193899 47.47787
v -615.0125 4.193899 37.48175
v -615.0125 4.193899 37.48175
v -620.0012 4.055634 47.50655
v -620.0012 4.055634 47.50655
v -620.0643 4.055634 37.5105
v -620.0643 4.055634 37.5105
v -625.0385 3.917448 47.54144
v -625.0385 3.917448 47.54144
v -625.114 3.917448 37.54548
v -625.114 3.917448 37.54548
v -630.0706 3.779443 47.58254
v -630.0706 3.779443 47.58254
v -630.1584 3.779443 37.58667
v -630.1584 3.779443 37.58667
v -635.093 3.641754 47.62981
v -635.093 3.641754 47.62981
v -635.1934 3.641754 37.63406
v -635.1934 3.641754 37.63406
v -640.1022 3.504497 47.68327
v -640.1022 3.504497 47.68327
v -640.2152 3.504497 37.68765
v -640.2152 3.504497 37.68765
v -645.0943 3.367792 47.74287
v -645.0943 3.367792 47.74287
v -645.22 3.367792 37.7474
v -645.22 3.367792 37.7474
v -650.1609 3.229149 47.80996
v -650.1609 3.229149 47.80996
v -650.2999 3.229149 37.81465
v -650.2999 3.229149 37.81465
v -655.2016 3.091343 47.88339
v -655.2016 3.091343 47.88339
v -655.3539 3.091343 37.88828
v -655.3539 3.091343 37.88828
v -660.2129 2.954481 47.96319
v -660.2129 2.954481 47.96319
v -660.3789 2.954481 37.96828
v -660.3789 2.954481 37.96828
v -665.2839 2.816152 48.05101
v -665.2839 2.816152 48.05101
v -665.4641 2.816152 38.05634
v -665.4641 2.816152 38.05634
v -670.3156 2.679078 48.14539
v -670.3156 2.679078 48.14539
v -670.5104 2.679078 38.15098
v -670.5104 2.679078 38.15098
v -675.3956 2.540904 48.24825
v -675.3956 2.540904 48.24825
v -675.6055 2.540904 38.25414
v -675.6055 2.540904 38.25414
v -680.426 2.404309 48.35788
v -680.426 2.404309 48.35788
v -680.6517 2.404309 38.36409
v -680.6517 2.404309 38.36409
v -685.4918 2.267015 48.47645
v -685.4918 2.267015 48.47645
v -685.734 2.267015 38.48303
v -685.734 2.267015 38.48303
v -690.4969 2.13166 48.60199
v -690.4969 2.13166 48.60199
v -690.7562 2.13166 38.60899
v -690.7562 2.13166 38.60899
v -695.5241 1.996035 48.73693
v -695.5241 1.996035 48.73693
v -695.8015 1.996035 38.7444
v -695.8015 1.996035 38.7444
v -700.564 1.860426 48.88163
v -700.564 1.860426 48.88163
v -700.8605 1.860426 38.88961
v -700.8605 1.860426 38.88961
v -705.6078 1.72512 49.03643
v -705.6078 1.72512 49.03643
v -705.9249 1.72512 39.04502
v -705.9249 1.72512 39.04502
v -710.6456 1.590436 49.20172
v -710.6456 1.590436 49.20172
v -710.9844 1.590436 39.21101
v -710.9844 1.590436 39.21101
v -715.6663 1.456707 49.37786
v -715.6663 1.456707 49.37786
v -716.0286 1.456707 39.38794
v -716.0286 1.456707 39.38794
v -720.6587 1.324299 49.56521
v -720.6587 1.324299 49.56521
v -721.0464 1.324299 39.57621
v -721.0464 1.324299 39.57621
v -725.6884 1.191543 49.76738
v -725.6884 1.191543 49.76738
v -726.1041 1.191543 39.77946
v -726.1041 1.191543 39.77946
v -730.7362 1.059049 49.98517
v -730.7362 1.059049 49.98517
v -731.1829 1.059049 39.99855
v -731.1829 1.059049 39.99855
v -735.7808 0.9274807 50.21938
v -735.7808 0.9274807 50.21938
v -736.262 0.9274807 40.23431
v -736.262 0.9274807 40.23431
v -740.7993 0.7975612 50.47084
v -740.7993 0.7975612 50.47084
v -741.3193 0.7975612 40.48767
v -741.3193 0.7975612 40.48767
v -745.8337 0.6683578 50.74419
v -745.8337 0.6683578 50.74419
v -746.3986 0.6683578 40.76338
v -746.3986 0.6683578 40.76338
v -750.8479 0.5410075 51.04073
v -750.8479 0.5410075 51.04073
v -751.4647 0.5410075 41.06292
v -751.4647 0.5410075 41.06292
v -755.862 0.4152589 51.36594
v -755.862 0.4152589 51.36594
v -756.541 0.4152589 41.39206
v -756.541 0.4152589 41.39206
v -760.8196 0.292861 51.7216
v -760.8196 0.292861 51.7216
v -761.5739 0.292861 41.75301
v -761.5739 0.292861 41.75301
v -765.7626 0.1732435 52.11846
v -765.7626 0.1732435 52.11846
v -766.6123 0.1732435 42.15741
v -766.6123 0.1732435 42.15741
v -770.6855 0.05726624 52.56857
v -770.6855 0.05726624 52.56857
v -771.6627 0.05726624 42.61901
v -771.6627 0.05726624 42.61901

vn -0.02279019 0.9997377 -0.002275948
vn 0 0 0
vn -0.02242998 0.9997463 -0.002051901
vn 0 0 0
vn -0.0228485 0.9997368 -0.002024431
vn 0 0 0
vn -0.0229668 0.9997346 -0.001812698
vn 0 0 0
vn -0.02372218 0.999717 -0.001775122
vn 0 0 0
vn -0.02379712 0.9997154 -0.001609913
vn 0 0 0
vn -0.02436103 0.999702 -0.001573357
vn 0 0 0
vn -0.02441088 0.999701 -0.001442658
vn 0 0 0
vn -0.02484478 0.9996903 -0.001408417
vn 0 0 0
vn -0.02487859 0.9996896 -0.001301256
vn 0 0 0
vn -0.02522562 0.9996809 -0.00126977
vn 0 0 0
vn -0.02524859 0.9996805 -0.001179588
vn 0 0 0
vn -0.02553433 0.9996732 -0.001150791
vn 0 0 0
vn -0.02555026 0.9996729 -0.001073111
vn 0 0 0
vn -0.0257898 0.9996669 -0.001046657
vn 0 0 0
vn -0.0258003 0.9996666 -0.0009785701
vn 0 0 0
vn -0.02600585 0.9996613 -0.0009541503
vn 0 0 0
vn -0.02601206 0.9996613 -0.0008936652
vn 0 0 0
vn -0.02618943 0.9996566 -0.0008710346
vn 0 0 0
vn -0.02619275 0.9996566 -0.0008165353
vn 0 0 0
vn -0.02634824 0.9996526 -0.0007954353
vn 0 0 0
vn -0.02634879 0.9996525 -0.0007460024
vn 0 0 0
vn -0.02648599 0.9996489 -0.00072634
vn 0 0 0
vn -0.02648416 0.999649 -0.0006812341
vn 0 0 0
vn -0.02660676 0.9996457 -0.0006627259
vn 0 0 0
vn -0.02660317 0.9996459 -0.0006211328
vn 0 0 0
vn -0.02671281 0.9996429 -0.0006036881
vn 0 0 0
vn -0.02670789 0.9996431 -0.000564851
vn 0 0 0
vn -0.02680686 0.9996404 -0.0005481804
vn 0 0 0
vn -0.0268005 0.9996406 -0.0005117043
vn 0 0 0
vn -0.02689054 0.9996383 -0.0004958052
vn 0 0 0
vn -0.02688316 0.9996384 -0.0004614034
vn 0 0 0
vn -0.02696485 0.9996363 -0.0004461276
vn 0 0 0
vn -0.02695609 0.9996365 -0.0004137118
vn 0 0 0
vn -0.02703057 0.9996345 -0.000399236
vn 0 0 0
vn -0.02702079 0.9996348 -0.0003685055
vn 0 0 0
vn -0.02708956 0.999633 -0.0003543618
vn 0 0 0
vn -0.02707909 0.9996333 -0.0003247908
vn 0 0 0
vn -0.02714163 0.9996315 -0.0003111589
vn 0 0 0
vn -0.02712985 0.9996319 -0.0002827472
vn 0 0 0
vn -0.02718782 0.9996303 -0.0002694382
vn 0 0 0
vn -0.0271755 0.9996307 -0.0002421024
vn 0 0 0
vn -0.02722865 0.9996291 -0.0002292514
vn 0 0 0
vn -0.0272154 0.9996296 -0.0002027705
vn 0 0 0
vn -0.0272648 0.9996282 -0.0001900779
vn 0 0 0
vn -0.02725053 0.9996287 -0.0001643545
vn 0 0 0
vn -0.02729553 0.9996275 -0.0001520426
vn 0 0 0
vn -0.02728058 0.9996278 -0.0001271932
vn 0 0 0
vn -0.02732249 0.9996268 -0.0001151945
vn 0 0 0
vn -0.02730646 0.9996272 -9.100687E-05
vn 0 0 0
vn -0.02734491 0.999626 -7.911738E-05
vn 0 0 0
vn -0.02732817 0.9996264 -5.515237E-05
vn 0 0 0
vn -0.02736368 0.9996256 -4.338502E-05
vn 0 0 0
vn -0.02734605 0.999626 -1.997946E-05
vn 0 0 0
vn -0.02737886 0.9996252 -8.455145E-06
vn 0 0 0
vn -0.02736007 0.9996256 1.438138E-05
vn 0 0 0
vn -0.02738985 0.9996248 2.576585E-05
vn 0 0 0
vn -0.02737026 0.9996254 4.847545E-05
vn 0 0 0
vn -0.02739772 0.9996247 5.989629E-05
vn 0 0 0
vn -0.02737717 0.9996251 8.247382E-05
vn 0 0 0
vn -0.02740249 0.9996246 9.381265E-05
vn 0 0 0
vn -0.02738081 0.9996251 0.0001163643
vn 0 0 0
vn -0.02740355 0.9996244 0.0001278359
vn 0 0 0
vn -0.02738067 0.9996251 0.0001503552
vn 0 0 0
vn -0.02740127 0.9996245 0.0001617307
vn 0 0 0
vn -0.02737743 0.9996251 0.0001841024
vn 0 0 0
vn -0.02739584 0.9996247 0.0001954873
vn 0 0 0
vn -0.02737073 0.9996253 0.0002179269
vn 0 0 0
vn -0.02738689 0.9996248 0.0002294239
vn 0 0 0
vn -0.02736048 0.9996256 0.0002519251
vn 0 0 0
vn -0.02737469 0.9996252 0.0002634201
vn 0 0 0
vn -0.02734682 0.999626 0.0002860861
vn 0 0 0
vn -0.02735881 0.9996256 0.000297792
vn 0 0 0
vn -0.02732955 0.9996265 0.000320617
vn 0 0 0
vn -0.02733979 0.9996262 0.0003323834
vn 0 0 0
vn -0.02730897 0.999627 0.0003555824
vn 0 0 0
vn -0.02731658 0.9996268 0.000367613
vn 0 0 0
vn -0.02728365 0.9996276 0.000391387
vn 0 0 0
vn -0.02728911 0.9996275 0.0004036848
vn 0 0 0
vn -0.02725441 0.9996284 0.0004278078
vn 0 0 0
vn -0.02725788 0.9996283 0.0004403665
vn 0 0 0
vn -0.02722123 0.9996294 0.0004650494
vn 0 0 0
vn -0.02722246 0.9996292 0.0004778453
vn 0 0 0
vn -0.02718334 0.9996304 0.0005032831
vn 0 0 0
vn -0.02718157 0.9996303 0.0005166099
vn 0 0 0
vn -0.02713968 0.9996316 0.0005427852
vn 0 0 0
vn -0.02713576 0.9996316 0.0005563227
vn 0 0 0
vn -0.02709146 0.9996328 0.00058333
vn 0 0 0
vn -0.02708489 0.999633 0.0005974995
vn 0 0 0
vn -0.02703738 0.9996343 0.0006255289
vn 0 0 0
vn -0.02702782 0.9996344 0.0006400764
vn 0 0 0
vn -0.02697659 0.9996359 0.0006690835
vn 0 0 0
vn -0.02696355 0.9996362 0.0006842233
vn 0 0 0
vn -0.02690863 0.9996377 0.0007144061
vn 0 0 0
vn -0.02689258 0.9996381 0.0007301868
vn 0 0 0
vn -0.02683345 0.9996396 0.0007619323
vn 0 0 0
vn -0.0268134 0.9996402 0.000778507
vn 0 0 0
vn -0.02674877 0.9996418 0.0008120612
vn 0 0 0
vn -0.02672387 0.9996426 0.0008295905
vn 0 0 0
vn -0.02665341 0.9996443 0.0008651038
vn 0 0 0
vn -0.02662418 0.9996451 0.0008835684
vn 0 0 0
vn -0.02654775 0.9996471 0.000921187
vn 0 0 0
vn -0.02651312 0.9996481 0.000940724
vn 0 0 0
vn -0.02642847 0.9996502 0.000980828
vn 0 0 0
vn -0.02638681 0.9996513 0.001001762
vn 0 0 0
vn -0.0262931 0.9996537 0.001045079
vn 0 0 0
vn -0.02624373 0.999655 0.0010676
vn 0 0 0
vn -0.02613857 0.9996578 0.00111484
vn 0 0 0
vn -0.02607956 0.9996592 0.001139315
vn 0 0 0
vn -0.0259613 0.9996622 0.001191055
vn 0 0 0
vn -0.02589082 0.9996641 0.001217685
vn 0 0 0
vn -0.02575596 0.9996675 0.001274549
vn 0 0 0
vn -0.02567105 0.9996696 0.001303778
vn 0 0 0
vn -0.02551584 0.9996735 0.001367315
vn 0 0 0
vn -0.02541329 0.9996761 0.001399834
vn 0 0 0
vn -0.02523145 0.9996806 0.001471616
vn 0 0 0
vn -0.02510453 0.9996837 0.001507996
vn 0 0 0
vn -0.02488778 0.999689 0.001590195
vn 0 0 0
vn -0.02472963 0.9996929 0.0016314
vn 0 0 0
vn -0.02446599 0.9996991 0.001726812
vn 0 0 0
vn -0.02426269 0.9997041 0.001773947
vn 0 0 0
vn -0.02393269 0.9997119 0.001887143
vn 0 0 0
vn -0.02366294 0.9997181 0.00194172
vn 0 0 0
vn -0.02323079 0.999728 0.002080551
vn 0 0 0
vn -0.02305799 0.9997319 0.002115695
vn 0 0 0
vn -0.02275393 0.9997385 0.002234726
vn 0 0 0

vt 0 0
vt 0 0
vt -0.1986939 -1.989619
vt -0.1986939 -1.989619
vt 0.9825622 -0.08960877
vt 0.9825622 -0.08960877
vt 0.8169617 -2.082208
vt 0.8169617 -2.082208
vt 1.974579 -0.1656113
vt 1.974579 -0.1656113
vt 1.833453 -2.160054
vt 1.833453 -2.160054
vt 2.972681 -0.231443
vt 2.972681 -0.231443
vt 2.849878 -2.22707
vt 2.849878 -2.22707
vt 3.975421 -0.2893883
vt 3.975421 -0.2893883
vt 3.867047 -2.285828
vt 3.867047 -2.285828
vt 4.978027 -0.3407669
vt 4.978027 -0.3407669
vt 4.881421 -2.337793
vt 4.881421 -2.337793
vt 5.980658 -0.3867279
vt 5.980658 -0.3867279
vt 5.893915 -2.38419
vt 5.893915 -2.38419
vt 6.987341 -0.4282547
vt 6.987341 -0.4282547
vt 6.909094 -2.426056
vt 6.909094 -2.426056
vt 7.990808 -0.4656632
vt 7.990808 -0.4656632
vt 7.919959 -2.46373
vt 7.919959 -2.46373
vt 8.999524 -0.4997452
vt 8.999524 -0.4997452
vt 8.935254 -2.498024
vt 8.935254 -2.498024
vt 10.00884 -0.5306954
vt 10.00884 -0.5306954
vt 9.950482 -2.529148
vt 9.950482 -2.529148
vt 11.01464 -0.5587074
vt 11.01464 -0.5587074
vt 10.96161 -2.557302
vt 10.96161 -2.557302
vt 12.01298 -0.5839714
vt 12.01298 -0.5839714
vt 11.96481 -2.582682
vt 11.96481 -2.582682
vt 13.01693 -0.6070297
vt 13.01693 -0.6070297
vt 12.97325 -2.605838
vt 12.97325 -2.605838
vt 14.02429 -0.627974
vt 14.02429 -0.627974
vt 13.98481 -2.626865
vt 13.98481 -2.626865
vt 15.03292 -0.6468941
vt 15.03292 -0.6468941
vt 14.99738 -2.645855
vt 14.99738 -2.645855
vt 16.04081 -0.6638771
vt 16.04081 -0.6638771
vt 16.00897 -2.662896
vt 16.00897 -2.662896
vt 17.04606 -0.6790093
vt 17.04606 -0.6790093
vt 17.01769 -2.678077
vt 17.01769 -2.678077
vt 18.04696 -0.6923737
vt 18.04696 -0.6923737
vt 18.02191 -2.691483
vt 18.02191 -2.691483
vt 19.06007 -0.7042542
vt 19.06007 -0.7042542
vt 19.03822 -2.703398
vt 19.03822 -2.703398
vt 20.06602 -0.7144799
vt 20.06602 -0.7144799
vt 20.04722 -2.713653
vt 20.04722 -2.713653
vt 21.08196 -0.7232804
vt 21.08196 -0.7232804
vt 21.06611 -2.722476
vt 21.06611 -2.722476
vt 22.08816 -0.7305336
vt 22.08816 -0.7305336
vt 22.07517 -2.729748
vt 22.07517 -2.729748
vt 23.10227 -0.7364174
vt 23.10227 -0.7364174
vt 23.09207 -2.735647
vt 23.09207 -2.735647
vt 24.10447 -0.7408653
vt 24.10447 -0.7408653
vt 24.09692 -2.740105
vt 24.09692 -2.740105
vt 25.1126 -0.744001
vt 25.1126 -0.744001
vt 25.10769 -2.743247
vt 25.10769 -2.743247
vt 26.12583 -0.7458237
vt 26.12583 -0.7458237
vt 26.12354 -2.745075
vt 26.12354 -2.745075
vt 27.1242 -0.7463417
vt 27.1242 -0.7463417
vt 27.12441 -2.745593
vt 27.12441 -2.745593
vt 28.126 -0.7456047
vt 28.126 -0.7456047
vt 28.12871 -2.744853
vt 28.12871 -2.744853
vt 29.13047 -0.7436119
vt 29.13047 -0.7436119
vt 29.13567 -2.742855
vt 29.13567 -2.742855
vt 30.13687 -0.7403702
vt 30.13687 -0.7403702
vt 30.14453 -2.739604
vt 30.14453 -2.739604
vt 31.14436 -0.7358795
vt 31.14436 -0.7358795
vt 31.15452 -2.735103
vt 31.15452 -2.735103
vt 32.15226 -0.730143
vt 32.15226 -0.730143
vt 32.16488 -2.729353
vt 32.16488 -2.729353
vt 33.15973 -0.7231644
vt 33.15973 -0.7231644
vt 33.17482 -2.722357
vt 33.17482 -2.722357
vt 34.16614 -0.7149453
vt 34.16614 -0.7149453
vt 34.18372 -2.714118
vt 34.18372 -2.714118
vt 35.17063 -0.7054909
vt 35.17063 -0.7054909
vt 35.1907 -2.704641
vt 35.1907 -2.704641
vt 36.17246 -0.6947991
vt 36.17246 -0.6947991
vt 36.19507 -2.693923
vt 36.19507 -2.693923
vt 37.17089 -0.6828781
vt 37.17089 -0.6828781
vt 37.19603 -2.681973
vt 37.19603 -2.681973
vt 38.18422 -0.6694618
vt 38.18422 -0.6694618
vt 38.212 -2.668524
vt 38.212 -2.668524
vt 39.19235 -0.6547745
vt 39.19235 -0.6547745
vt 39.22282 -2.653798
vt 39.22282 -2.653798
vt 40.19461 -0.6388146
vt 40.19461 -0.6388146
vt 40.22781 -2.637797
vt 40.22781 -2.637797
vt 41.2088 -0.6212502
vt 41.2088 -0.6212502
vt 41.24484 -2.620185
vt 41.24484 -2.620185
vt 42.21514 -0.6023743
vt 42.21514 -0.6023743
vt 42.2541 -2.601257
vt 42.2541 -2.601257
vt 43.23114 -0.5818024
vt 43.23114 -0.5818024
vt 43.27313 -2.580626
vt 43.27313 -2.580626
vt 44.23722 -0.5598763
vt 44.23722 -0.5598763
vt 44.28236 -2.558634
vt 44.28236 -2.558634
vt 45.25039 -0.5361633
vt 45.25039 -0.5361633
vt 45.29883 -2.534847
vt 45.29883 -2.534847
vt 46.25142 -0.5110542
vt 46.25142 -0.5110542
vt 46.30327 -2.509655
vt 46.30327 -2.509655
vt 47.25685 -0.484066
vt 47.25685 -0.484066
vt 47.31232 -2.482574
vt 47.31232 -2.482574
vt 48.26483 -0.4551277
vt 48.26483 -0.4551277
vt 48.32413 -2.45353
vt 48.32413 -2.45353
vt 49.2736 -0.4241661
vt 49.2736 -0.4241661
vt 49.337 -2.422448
vt 49.337 -2.422448
vt 50.28114 -0.3911087
vt 50.28114 -0.3911087
vt 50.34892 -2.389252
vt 50.34892 -2.389252
vt 51.28529 -0.3558815
vt 51.28529 -0.3558815
vt 51.35775 -2.353866
vt 51.35775 -2.353866
vt 52.28376 -0.3184105
vt 52.28376 -0.3184105
vt 52.36131 -2.316212
vt 52.36131 -2.316212
vt 53.28971 -0.277977
vt 53.28971 -0.277977
vt 53.37284 -2.275562
vt 53.37284 -2.275562
vt 54.29927 -0.2344185
vt 54.29927 -0.2344185
vt 54.3886 -2.231744
vt 54.3886 -2.231744
vt 55.30818 -0.1875771
vt 55.30818 -0.1875771
vt 55.40442 -2.184591
vt 55.40442 -2.184591
vt 56.31189 -0.1372841
vt 56.31189 -0.1372841
vt 56.41589 -2.133919
vt 56.41589 -2.133919
vt 57.31878 -0.0826149
vt 57.31878 -0.0826149
vt 57.43174 -2.078777
vt 57.43174 -2.078777
vt 58.32161 -0.02330627
vt 58.32161 -0.02330627
vt 58.44497 -2.018869
vt 58.44497 -2.018869
vt 59.32443 0.04173432
vt 59.32443 0.04173432
vt 59.46022 -1.953041
vt 59.46022 -1.953041
vt 60.31596 0.1128662
vt 60.31596 0.1128662
vt 60.46681 -1.88085
vt 60.46681 -1.88085
vt 61.30454 0.1922386
vt 61.30454 0.1922386
vt 61.47449 -1.79997
vt 61.47449 -1.79997
vt 62.28912 0.2822601
vt 62.28912 0.2822601
vt 62.48456 -1.707651
vt 62.48456 -1.707651

usemtl GSDRoad1
usemap GSDRoad1
f 5/5/5 1/1/1 3/3/3
f 7/7/7 5/5/5 3/3/3
f 9/9/9 5/5/5 7/7/7
f 11/11/11 9/9/9 7/7/7
f 13/13/13 9/9/9 11/11/11
f 15/15/15 13/13/13 11/11/11
f 17/17/17 13/13/13 15/15/15
f 19/19/19 17/17/17 15/15/15
f 21/21/21 17/17/17 19/19/19
f 23/23/23 21/21/21 19/19/19
f 25/25/25 21/21/21 23/23/23
f 27/27/27 25/25/25 23/23/23
f 29/29/29 25/25/25 27/27/27
f 31/31/31 29/29/29 27/27/27
f 33/33/33 29/29/29 31/31/31
f 35/35/35 33/33/33 31/31/31
f 37/37/37 33/33/33 35/35/35
f 39/39/39 37/37/37 35/35/35
f 41/41/41 37/37/37 39/39/39
f 43/43/43 41/41/41 39/39/39
f 45/45/45 41/41/41 43/43/43
f 47/47/47 45/45/45 43/43/43
f 49/49/49 45/45/45 47/47/47
f 51/51/51 49/49/49 47/47/47
f 53/53/53 49/49/49 51/51/51
f 55/55/55 53/53/53 51/51/51
f 57/57/57 53/53/53 55/55/55
f 59/59/59 57/57/57 55/55/55
f 61/61/61 57/57/57 59/59/59
f 63/63/63 61/61/61 59/59/59
f 65/65/65 61/61/61 63/63/63
f 67/67/67 65/65/65 63/63/63
f 69/69/69 65/65/65 67/67/67
f 71/71/71 69/69/69 67/67/67
f 73/73/73 69/69/69 71/71/71
f 75/75/75 73/73/73 71/71/71
f 77/77/77 73/73/73 75/75/75
f 79/79/79 77/77/77 75/75/75
f 81/81/81 77/77/77 79/79/79
f 83/83/83 81/81/81 79/79/79
f 85/85/85 81/81/81 83/83/83
f 87/87/87 85/85/85 83/83/83
f 89/89/89 85/85/85 87/87/87
f 91/91/91 89/89/89 87/87/87
f 93/93/93 89/89/89 91/91/91
f 95/95/95 93/93/93 91/91/91
f 97/97/97 93/93/93 95/95/95
f 99/99/99 97/97/97 95/95/95
f 101/101/101 97/97/97 99/99/99
f 103/103/103 101/101/101 99/99/99
f 105/105/105 101/101/101 103/103/103
f 107/107/107 105/105/105 103/103/103
f 109/109/109 105/105/105 107/107/107
f 111/111/111 109/109/109 107/107/107
f 113/113/113 109/109/109 111/111/111
f 115/115/115 113/113/113 111/111/111
f 117/117/117 113/113/113 115/115/115
f 119/119/119 117/117/117 115/115/115
f 121/121/121 117/117/117 119/119/119
f 123/123/123 121/121/121 119/119/119
f 125/125/125 121/121/121 123/123/123
f 127/127/127 125/125/125 123/123/123
f 129/129/129 125/125/125 127/127/127
f 131/131/131 129/129/129 127/127/127
f 133/133/133 129/129/129 131/131/131
f 135/135/135 133/133/133 131/131/131
f 137/137/137 133/133/133 135/135/135
f 139/139/139 137/137/137 135/135/135
f 141/141/141 137/137/137 139/139/139
f 143/143/143 141/141/141 139/139/139
f 145/145/145 141/141/141 143/143/143
f 147/147/147 145/145/145 143/143/143
f 149/149/149 145/145/145 147/147/147
f 151/151/151 149/149/149 147/147/147
f 153/153/153 149/149/149 151/151/151
f 155/155/155 153/153/153 151/151/151
f 157/157/157 153/153/153 155/155/155
f 159/159/159 157/157/157 155/155/155
f 161/161/161 157/157/157 159/159/159
f 163/163/163 161/161/161 159/159/159
f 165/165/165 161/161/161 163/163/163
f 167/167/167 165/165/165 163/163/163
f 169/169/169 165/165/165 167/167/167
f 171/171/171 169/169/169 167/167/167
f 173/173/173 169/169/169 171/171/171
f 175/175/175 173/173/173 171/171/171
f 177/177/177 173/173/173 175/175/175
f 179/179/179 177/177/177 175/175/175
f 181/181/181 177/177/177 179/179/179
f 183/183/183 181/181/181 179/179/179
f 185/185/185 181/181/181 183/183/183
f 187/187/187 185/185/185 183/183/183
f 189/189/189 185/185/185 187/187/187
f 191/191/191 189/189/189 187/187/187
f 193/193/193 189/189/189 191/191/191
f 195/195/195 193/193/193 191/191/191
f 197/197/197 193/193/193 195/195/195
f 199/199/199 197/197/197 195/195/195
f 201/201/201 197/197/197 199/199/199
f 203/203/203 201/201/201 199/199/199
f 205/205/205 201/201/201 203/203/203
f 207/207/207 205/205/205 203/203/203
f 209/209/209 205/205/205 207/207/207
f 211/211/211 209/209/209 207/207/207
f 213/213/213 209/209/209 211/211/211
f 215/215/215 213/213/213 211/211/211
f 217/217/217 213/213/213 215/215/215
f 219/219/219 217/217/217 215/215/215
f 221/221/221 217/217/217 219/219/219
f 223/223/223 221/221/221 219/219/219
f 225/225/225 221/221/221 223/223/223
f 227/227/227 225/225/225 223/223/223
f 229/229/229 225/225/225 227/227/227
f 231/231/231 229/229/229 227/227/227
f 233/233/233 229/229/229 231/231/231
f 235/235/235 233/233/233 231/231/231
f 237/237/237 233/233/233 235/235/235
f 239/239/239 237/237/237 235/235/235
f 241/241/241 237/237/237 239/239/239
f 243/243/243 241/241/241 239/239/239
f 245/245/245 241/241/241 243/243/243
f 247/247/247 245/245/245 243/243/243
f 249/249/249 245/245/245 247/247/247
f 251/251/251 249/249/249 247/247/247
