mtllib ./Road1_0_204.mtl
g SCutR65
v -166.1934 43.2403 716.0429
v -166.1934 43.2403 716.0429
v -165.1947 43.2403 719.0359
v -165.1947 43.2403 719.0359
v -165.1947 43.2403 719.0359
v -165.1947 43.2403 719.0359
v -164.5506 41.23592 720.9661
v -164.5506 41.23592 720.9661
v -161.3371 43.64614 714.3927
v -161.3371 43.64614 714.3927
v -160.3084 43.64614 717.3809
v -160.3084 43.64614 717.3809
v -160.3084 43.64614 717.3809
v -160.3084 43.64614 717.3809
v -159.6455 41.65228 719.3061
v -159.6455 41.65228 719.3061
v -156.5735 44.04051 712.723
v -156.5735 44.04051 712.723
v -155.5078 44.04051 715.7017
v -155.5078 44.04051 715.7017
v -155.5078 44.04051 715.7017
v -155.5078 44.04051 715.7017
v -154.8215 41.95415 717.6196
v -154.8215 41.95415 717.6196
v -151.7251 44.44004 710.9425
v -151.7251 44.44004 710.9425
v -150.6064 44.44004 713.9032
v -150.6064 44.44004 713.9032
v -150.6064 44.44004 713.9032
v -150.6064 44.44004 713.9032
v -149.8863 42.37442 715.809
v -149.8863 42.37442 715.809
v -146.8706 44.84069 709.0446
v -146.8706 44.84069 709.0446
v -145.6816 44.84069 711.9773
v -145.6816 44.84069 711.9773
v -145.6816 44.84069 711.9773
v -145.6816 44.84069 711.9773
v -144.9161 42.73855 713.8653
v -144.9161 42.73855 713.8653
v -142.0855 45.23855 707.0206
v -142.0855 45.23855 707.0206
v -140.8062 45.23855 709.9127
v -140.8062 45.23855 709.9127
v -140.8062 45.23855 709.9127
v -140.8062 45.23855 709.9127
v -139.9824 43.18076 711.7753
v -139.9824 43.18076 711.7753
v -137.3261 45.63963 704.8014
v -137.3261 45.63963 704.8014
v -135.9297 45.63963 707.6341
v -135.9297 45.63963 707.6341
v -135.9297 45.63963 707.6341
v -135.9297 45.63963 707.6341
v -135.0296 43.5534 709.4598
v -135.0296 43.5534 709.4598
v -132.5712 46.04879 702.2944
v -132.5712 46.04879 702.2944
v -131.0184 46.04879 705.037
v -131.0184 46.04879 705.037
v -131.0184 46.04879 705.037
v -131.0184 46.04879 705.037
v -130.0163 44.00151 706.8069
v -130.0163 44.00151 706.8069
v -127.9521 46.45868 699.4427
v -127.9521 46.45868 699.4427
v -126.1894 46.45868 702.0447
v -126.1894 46.45868 702.0447
v -126.1894 46.45868 702.0447
v -126.1894 46.45868 702.0447
v -125.05 44.38006 703.7266
v -125.05 44.38006 703.7266

vn -0.07482579 0.996884 0.02496711
vn 0 0 0
vn -0.07448808 0.9969023 0.02524926
vn 0 0 0
vn 0.1717374 0.7114165 0.6814638
vn 0 0 0
vn 0.1706951 0.7122872 0.6808158
vn 0 0 0
vn -0.07421165 0.9969218 0.02528433
vn 0 0 0
vn -0.07353443 0.9969629 0.02564351
vn 0 0 0
vn 0.1732287 0.7126997 0.6797433
vn 0 0 0
vn 0.1817859 0.7081838 0.6822239
vn 0 0 0
vn -0.07301615 0.9969971 0.02579599
vn 0 0 0
vn -0.07225745 0.9970382 0.02633581
vn 0 0 0
vn 0.1906208 0.7029791 0.6851891
vn 0 0 0
vn 0.1950909 0.6988369 0.6881618
vn 0 0 0
vn -0.07189552 0.9970552 0.02668307
vn 0 0 0
vn -0.07102759 0.9970955 0.02748723
vn 0 0 0
vn 0.1992215 0.7000738 0.6857167
vn 0 0 0
vn 0.2063938 0.6990707 0.6846179
vn 0 0 0
vn -0.07082435 0.9970941 0.02805792
vn 0 0 0
vn -0.06976891 0.9971377 0.02913524
vn 0 0 0
vn 0.219349 0.6972451 0.6824482
vn 0 0 0
vn 0.2240642 0.6973377 0.6808196
vn 0 0 0
vn -0.06964853 0.997122 0.02994584
vn 0 0 0
vn -0.06827588 0.9971741 0.03134062
vn 0 0 0
vn 0.2359876 0.7001051 0.673916
vn 0 0 0
vn 0.2456416 0.7006439 0.6698942
vn 0 0 0
vn -0.06813042 0.9971492 0.0324284
vn 0 0 0
vn -0.06621227 0.9972182 0.03423314
vn 0 0 0
vn 0.2673226 0.6993873 0.6628696
vn 0 0 0
vn 0.2771566 0.6993581 0.6588494
vn 0 0 0
vn -0.0658486 0.9971929 0.03564243
vn 0 0 0
vn -0.06300358 0.9972923 0.03792915
vn 0 0 0
vn 0.300354 0.7020173 0.6457236
vn 0 0 0
vn 0.3174003 0.7016681 0.637902
vn 0 0 0
vn -0.062534 0.9972886 0.03879372
vn 0 0 0
vn -0.05962793 0.997403 0.04039495
vn 0 0 0
vn 0.3342997 0.7007635 0.6302176
vn 0 0 0
vn 0.3388165 0.6970438 0.6319281
vn 0 0 0

vt 0 0
vt 0 0
vt -0.1997375 0.5986084
vt -0.1997375 0.5986084
vt -0.1997375 0.5986084
vt -0.1997375 0.5986084
vt -0.3285461 0.9846436
vt -0.3285461 0.9846436
vt -0.9712494 -0.3300415
vt -0.9712494 -0.3300415
vt -1.177002 0.2675903
vt -1.177002 0.2675903
vt -1.177002 0.2675903
vt -1.177002 0.2675903
vt -1.309567 0.6526367
vt -1.309567 0.6526367
vt -1.923981 -0.6639771
vt -1.923981 -0.6639771
vt -2.137122 -0.06824952
vt -2.137122 -0.06824952
vt -2.137122 -0.06824952
vt -2.137122 -0.06824952
vt -2.274365 0.3153442
vt -2.274365 0.3153442
vt -2.893658 -1.020081
vt -2.893658 -1.020081
vt -3.117395 -0.4279419
vt -3.117395 -0.4279419
vt -3.117395 -0.4279419
vt -3.117395 -0.4279419
vt -3.261423 -0.04677735
vt -3.261423 -0.04677735
vt -3.864551 -1.399658
vt -3.864551 -1.399658
vt -4.102356 -0.8131226
vt -4.102356 -0.8131226
vt -4.102356 -0.8131226
vt -4.102356 -0.8131226
vt -4.255454 -0.4355225
vt -4.255454 -0.4355225
vt -4.821576 -1.804456
vt -4.821576 -1.804456
vt -5.077426 -1.22605
vt -5.077426 -1.22605
vt -5.077426 -1.22605
vt -5.077426 -1.22605
vt -5.242203 -0.8535278
vt -5.242203 -0.8535278
vt -5.773447 -2.248303
vt -5.773447 -2.248303
vt -6.052738 -1.681763
vt -6.052738 -1.681763
vt -6.052738 -1.681763
vt -6.052738 -1.681763
vt -6.232751 -1.316614
vt -6.232751 -1.316614
vt -6.724426 -2.749695
vt -6.724426 -2.749695
vt -7.035001 -2.201172
vt -7.035001 -2.201172
vt -7.035001 -2.201172
vt -7.035001 -2.201172
vt -7.235419 -1.847192
vt -7.235419 -1.847192
vt -7.648256 -3.320032
vt -7.648256 -3.320032
vt -8.0008 -2.799634
vt -8.0008 -2.799634
vt -8.0008 -2.799634
vt -8.0008 -2.799634
vt -8.228683 -2.463257
vt -8.228683 -2.463257

usemtl GSDShoulder1
usemap GSDShoulder1
f 9/9/9 1/1/1 3/3/3
f 11/11/11 9/9/9 3/3/3
f 13/13/13 5/5/5 7/7/7
f 15/15/15 13/13/13 7/7/7
f 17/17/17 9/9/9 11/11/11
f 19/19/19 17/17/17 11/11/11
f 21/21/21 13/13/13 15/15/15
f 23/23/23 21/21/21 15/15/15
f 25/25/25 17/17/17 19/19/19
f 27/27/27 25/25/25 19/19/19
f 29/29/29 21/21/21 23/23/23
f 31/31/31 29/29/29 23/23/23
f 33/33/33 25/25/25 27/27/27
f 35/35/35 33/33/33 27/27/27
f 37/37/37 29/29/29 31/31/31
f 39/39/39 37/37/37 31/31/31
f 41/41/41 33/33/33 35/35/35
f 43/43/43 41/41/41 35/35/35
f 45/45/45 37/37/37 39/39/39
f 47/47/47 45/45/45 39/39/39
f 49/49/49 41/41/41 43/43/43
f 51/51/51 49/49/49 43/43/43
f 53/53/53 45/45/45 47/47/47
f 55/55/55 53/53/53 47/47/47
f 57/57/57 49/49/49 51/51/51
f 59/59/59 57/57/57 51/51/51
f 61/61/61 53/53/53 55/55/55
f 63/63/63 61/61/61 55/55/55
f 65/65/65 57/57/57 59/59/59
f 67/67/67 65/65/65 59/59/59
f 69/69/69 61/61/61 63/63/63
f 71/71/71 69/69/69 63/63/63
