mtllib ./Road7_2_23.mtl
g SCutR7
v -315.8728 0 273.5669
v -315.8728 0 273.5669
v -315.897 0 270.3694
v -315.897 0 270.3694
v -315.897 0 270.3694
v -315.897 0 270.3694
v -315.9219 -0.2276264 267.0707
v -315.9219 -0.2276264 267.0707
v -317.4412 0.03 273.5789
v -317.4412 0.03 273.5789
v -317.4652 0.03 270.3744
v -317.4652 0.03 270.3744
v -317.4652 0.03 270.3744
v -317.4652 0.03 270.3744
v -317.49 -0.2276264 267.074
v -317.49 -0.2276264 267.074

vn 0.01912367 0.9998171 -0.0001443729
vn 0 0 0
vn 0.01912455 0.9998171 -0.0001439485
vn 0 0 0
vn 0.01886031 0.9974405 -0.06897068
vn 0 0 0
vn 0.009344669 0.9972587 -0.07340175
vn 0 0 0
vn 0.01912455 0.9998171 -0.0001439485
vn 0 0 0
vn 0.01912543 0.9998171 -0.0001435249
vn 0 0 0
vn 0.009344669 0.9972587 -0.07340175
vn 0 0 0
vn -0.0001635688 0.9969673 -0.07782083
vn 0 0 0

vt 0 0
vt 0 0
vt 0.004827881 -0.639502
vt 0.004827881 -0.639502
vt 0.004827881 -0.639502
vt 0.004827881 -0.639502
vt 0.009814453 -1.299243
vt 0.009814453 -1.299243
vt 0.3136719 0.002398682
vt 0.3136719 0.002398682
vt 0.3184814 -0.638501
vt 0.3184814 -0.638501
vt 0.3184814 -0.638501
vt 0.3184814 -0.638501
vt 0.3234375 -1.298584
vt 0.3234375 -1.298584

usemtl GSDShoulder1
usemap GSDShoulder1
f 9/9/9 1/1/1 3/3/3
f 11/11/11 9/9/9 3/3/3
f 13/13/13 5/5/5 7/7/7
f 15/15/15 13/13/13 7/7/7
