mtllib ./Road7_2_12.mtl
g RoadCut6
v -179.9003 0.03 292.703
v -179.9003 0.03 292.703
v -179.8425 0.03 272.7031
v -179.8425 0.03 272.7031
v -184.9027 0.02376523 292.6898
v -184.9027 0.02376523 292.6898
v -184.8722 0.02376523 272.6899
v -184.8722 0.02376523 272.6899
v -189.886 0 292.6875
v -189.886 0 292.6875
v -189.8974 0 272.688
v -189.8974 0 272.688
v -194.8876 0 292.6943
v -194.8876 0 292.6943
v -194.9311 0 272.6952
v -194.9311 0 272.6952
v -199.8821 0 292.7083
v -199.8821 0 292.7083
v -199.9507 0 272.7096
v -199.9507 0 272.7096
v -204.9087 0 292.7281
v -204.9087 0 292.7281
v -204.9973 0 272.7296
v -204.9973 0 272.7296
v -209.9278 0 292.7524
v -209.9278 0 292.7524
v -210.0325 0 272.754
v -210.0325 0 272.754
v -214.9554 0 292.7804
v -214.9554 0 292.7804
v -215.0732 0 272.782
v -215.0732 0 272.782
v -219.9634 0 292.8113
v -219.9634 0 292.8113
v -220.0918 0 272.8129
v -220.0918 0 272.8129
v -224.9817 0 292.8448
v -224.9817 0 292.8448
v -225.1188 0 272.8462
v -225.1188 0 272.8462
v -229.9911 0 292.8801
v -229.9911 0 292.8801
v -230.1352 0 272.8814
v -230.1352 0 272.8814
v -235.0328 0 292.9173
v -235.0328 0 292.9173
v -235.1827 0 272.9185
v -235.1827 0 272.9185
v -240.0334 0 292.9554
v -240.0334 0 292.9554
v -240.1878 0 272.9565
v -240.1878 0 272.9565
v -245.0391 0 292.9947
v -245.0391 0 292.9947
v -245.1971 0 272.9956
v -245.1971 0 272.9956
v -250.0387 0 293.0345
v -250.0387 0 293.0345
v -250.1994 0 273.0353
v -250.1994 0 273.0353
v -255.0872 0 293.0754
v -255.0872 0 293.0754
v -255.2499 0 273.0761
v -255.2499 0 273.0761
v -260.1117 0 293.1165
v -260.1117 0 293.1165
v -260.2757 0 273.1171
v -260.2757 0 273.1171
v -265.1704 0 293.1581
v -265.1704 0 293.1581
v -265.3352 0 273.1587
v -265.3352 0 273.1587
v -270.1886 0 293.1994
v -270.1886 0 293.1994
v -270.3536 0 273.2002
v -270.3536 0 273.2002
v -275.2278 0 293.2409
v -275.2278 0 293.2409
v -275.3926 0 273.2418
v -275.3926 0 273.2418
v -280.2828 0 293.2824
v -280.2828 0 293.2824
v -280.4471 0 273.2835
v -280.4471 0 273.2835
v -285.3489 0 293.3237
v -285.3489 0 293.3237
v -285.5122 0 273.3252
v -285.5122 0 273.3252
v -290.4212 0 293.3647
v -290.4212 0 293.3647
v -290.5832 0 273.3666
v -290.5832 0 273.3666
v -295.4952 0 293.4054
v -295.4952 0 293.4054
v -295.6555 0 273.4077
v -295.6555 0 273.4077
v -300.5665 0 293.4455
v -300.5665 0 293.4455
v -300.7248 0 273.4485
v -300.7248 0 273.4485
v -305.6308 0 293.4849
v -305.6308 0 293.4849
v -305.7869 0 273.4886
v -305.7869 0 273.4886
v -310.6839 0 293.5237
v -310.6839 0 293.5237
v -310.8376 0 273.5281
v -310.8376 0 273.5281
v -315.7218 0 293.5616
v -315.7218 0 293.5616
v -315.8728 0 273.5669
v -315.8728 0 273.5669

vn -0.001246342 0.9999992 -3.600057E-06
vn 0 0 0
vn -0.001242959 0.9999992 -2.743451E-06
vn 0 0 0
vn -0.002413156 0.999997 -4.247993E-06
vn 0 0 0
vn -0.003575199 0.9999936 -2.142152E-06
vn 0 0 0
vn -0.003166548 0.999995 -1.512367E-06
vn 0 0 0
vn -0.001577992 0.9999987 9.005482E-07
vn 0 0 0
vn 0 1 0
vn 0 0 0
vn 0 1 0
vn 0 0 0
vn 0 1 0
vn 0 0 0
vn 0 1 0
vn 0 0 0
vn 0 1 0
vn 0 0 0
vn 0 1 0
vn 0 0 0
vn 0 1 0
vn 0 0 0
vn 0 0.9999999 0
vn 0 0 0
vn 0 1 0
vn 0 0 0
vn 0 1 0
vn 0 0 0
vn 0 1 0
vn 0 0 0
vn 0 1 0
vn 0 0 0
vn 0 1 0
vn 0 0 0
vn 0 1 0
vn 0 0 0
vn 0 1 0
vn 0 0 0
vn 0 1 0
vn 0 0 0
vn 0 1 0
vn 0 0 0
vn 0 1 0
vn 0 0 0
vn 0 1 0
vn 0 0 0
vn 0 0.9999999 0
vn 0 0 0
vn 0 1 0
vn 0 0 0
vn 0 1 0
vn 0 0 0
vn 0 1 0
vn 0 0 0
vn 0 1 0
vn 0 0 0
vn 0 1 0
vn 0 0 0
vn 0 1 0
vn 0 0 0
vn 0 1 0
vn 0 0 0
vn 0 1 0
vn 0 0 0
vn 0 1 0
vn 0 0 0
vn 0 1 0
vn 0 0 0
vn 0 1 0
vn 0 0 0
vn 0 1 0
vn 0 0 0
vn 0 1 0
vn 0 0 0
vn 0 1 0
vn 0 0 0
vn 0 1 0
vn 0 0 0
vn 0 1 0
vn 0 0 0
vn 0 0.9999999 0
vn 0 0 0
vn 0 1 0
vn 0 0 0
vn 0 1 0
vn 0 0 0
vn 0 1 0
vn 0 0 0
vn 0 1 0
vn 0 0 0
vn 0 0.9999999 0
vn 0 0 0
vn 0 1 0
vn 0 0 0
vn 0 1 0
vn 0 0 0
vn 0 1 0
vn 0 0 0
vn 0 1 0
vn 0 0 0
vn 0 1 0
vn 0 0 0
vn 0 1 0
vn 0 0 0
vn 0 0.9999999 0
vn 0 0 0
vn 0 1 0
vn 0 0 0

vt 0 0
vt 0 0
vt -0.01155396 -3.999988
vt -0.01155396 -3.999988
vt 1.000482 -0.002648926
vt 1.000482 -0.002648926
vt 0.9943787 -4.002625
vt 0.9943787 -4.002625
vt 1.997147 -0.003112793
vt 1.997147 -0.003112793
vt 1.999429 -4.003015
vt 1.999429 -4.003015
vt 2.997461 -0.001745605
vt 2.997461 -0.001745605
vt 3.006165 -4.001563
vt 3.006165 -4.001563
vt 3.996368 0.001049805
vt 3.996368 0.001049805
vt 4.010083 -3.998694
vt 4.010083 -3.998694
vt 5.001682 0.005010986
vt 5.001682 0.005010986
vt 5.019406 -3.994684
vt 5.019406 -3.994684
vt 6.005502 0.009869385
vt 6.005502 0.009869385
vt 6.02645 -3.989801
vt 6.02645 -3.989801
vt 7.011023 0.01547241
vt 7.011023 0.01547241
vt 7.034583 -3.984198
vt 7.034583 -3.984198
vt 8.012619 0.02166138
vt 8.012619 0.02166138
vt 8.038302 -3.978021
vt 8.038302 -3.978021
vt 9.016288 0.02834473
vt 9.016288 0.02834473
vt 9.043704 -3.971362
vt 9.043704 -3.971362
vt 10.01816 0.0354126
vt 10.01816 0.0354126
vt 10.04698 -3.964319
vt 10.04698 -3.964319
vt 11.02651 0.04285279
vt 11.02651 0.04285279
vt 11.05648 -3.956915
vt 11.05648 -3.956915
vt 12.02662 0.05048218
vt 12.02662 0.05048218
vt 12.0575 -3.94931
vt 12.0575 -3.94931
vt 13.02777 0.0583252
vt 13.02777 0.0583252
vt 13.05935 -3.941492
vt 13.05935 -3.941492
vt 14.02769 0.06630249
vt 14.02769 0.06630249
vt 14.05982 -3.933539
vt 14.05982 -3.933539
vt 15.03739 0.07446899
vt 15.03739 0.07446899
vt 15.06992 -3.925385
vt 15.06992 -3.925385
vt 16.04228 0.08268433
vt 16.04228 0.08268433
vt 16.07508 -3.917181
vt 16.07508 -3.917181
vt 17.05403 0.09100342
vt 17.05403 0.09100342
vt 17.08699 -3.908862
vt 17.08699 -3.908862
vt 18.05766 0.09927368
vt 18.05766 0.09927368
vt 18.09067 -3.900568
vt 18.09067 -3.900568
vt 19.0655 0.1075745
vt 19.0655 0.1075745
vt 19.09847 -3.892242
vt 19.09847 -3.892242
vt 20.07651 0.1158691
vt 20.07651 0.1158691
vt 20.10936 -3.883899
vt 20.10936 -3.883899
vt 21.08973 0.1241333
vt 21.08973 0.1241333
vt 21.12238 -3.875574
vt 21.12238 -3.875574
vt 22.10419 0.1323425
vt 22.10419 0.1323425
vt 22.13658 -3.867279
vt 22.13658 -3.867279
vt 23.11899 0.1404663
vt 23.11899 0.1404663
vt 23.15105 -3.859058
vt 23.15105 -3.859058
vt 24.13324 0.1484924
vt 24.13324 0.1484924
vt 24.16491 -3.850909
vt 24.16491 -3.850909
vt 25.1461 0.1563782
vt 25.1461 0.1563782
vt 25.17733 -3.84289
vt 25.17733 -3.84289
vt 26.15672 0.1641235
vt 26.15672 0.1641235
vt 26.18746 -3.834985
vt 26.18746 -3.834985
vt 27.16431 0.1717041
vt 27.16431 0.1717041
vt 27.19451 -3.827222
vt 27.19451 -3.827222

usemtl GSDRoad1
usemap GSDRoad1
f 5/5/5 1/1/1 3/3/3
f 7/7/7 5/5/5 3/3/3
f 9/9/9 5/5/5 7/7/7
f 11/11/11 9/9/9 7/7/7
f 13/13/13 9/9/9 11/11/11
f 15/15/15 13/13/13 11/11/11
f 17/17/17 13/13/13 15/15/15
f 19/19/19 17/17/17 15/15/15
f 21/21/21 17/17/17 19/19/19
f 23/23/23 21/21/21 19/19/19
f 25/25/25 21/21/21 23/23/23
f 27/27/27 25/25/25 23/23/23
f 29/29/29 25/25/25 27/27/27
f 31/31/31 29/29/29 27/27/27
f 33/33/33 29/29/29 31/31/31
f 35/35/35 33/33/33 31/31/31
f 37/37/37 33/33/33 35/35/35
f 39/39/39 37/37/37 35/35/35
f 41/41/41 37/37/37 39/39/39
f 43/43/43 41/41/41 39/39/39
f 45/45/45 41/41/41 43/43/43
f 47/47/47 45/45/45 43/43/43
f 49/49/49 45/45/45 47/47/47
f 51/51/51 49/49/49 47/47/47
f 53/53/53 49/49/49 51/51/51
f 55/55/55 53/53/53 51/51/51
f 57/57/57 53/53/53 55/55/55
f 59/59/59 57/57/57 55/55/55
f 61/61/61 57/57/57 59/59/59
f 63/63/63 61/61/61 59/59/59
f 65/65/65 61/61/61 63/63/63
f 67/67/67 65/65/65 63/63/63
f 69/69/69 65/65/65 67/67/67
f 71/71/71 69/69/69 67/67/67
f 73/73/73 69/69/69 71/71/71
f 75/75/75 73/73/73 71/71/71
f 77/77/77 73/73/73 75/75/75
f 79/79/79 77/77/77 75/75/75
f 81/81/81 77/77/77 79/79/79
f 83/83/83 81/81/81 79/79/79
f 85/85/85 81/81/81 83/83/83
f 87/87/87 85/85/85 83/83/83
f 89/89/89 85/85/85 87/87/87
f 91/91/91 89/89/89 87/87/87
f 93/93/93 89/89/89 91/91/91
f 95/95/95 93/93/93 91/91/91
f 97/97/97 93/93/93 95/95/95
f 99/99/99 97/97/97 95/95/95
f 101/101/101 97/97/97 99/99/99
f 103/103/103 101/101/101 99/99/99
f 105/105/105 101/101/101 103/103/103
f 107/107/107 105/105/105 103/103/103
f 109/109/109 105/105/105 107/107/107
f 111/111/111 109/109/109 107/107/107
