mtllib ./Road7_2_18.mtl
g SCutR2
v -103.5051 0.03 350.1595
v -103.5051 0.03 350.1595
v -100.8669 0.03 351.5878
v -100.8669 0.03 351.5878
v -100.8669 0.03 351.5878
v -100.8669 0.03 351.5878
v -98.00888 -0.67 353.1351
v -98.00888 -0.67 353.1351
v -100.8874 0.03 344.7872
v -100.8874 0.03 344.7872
v -98.12991 0.03 345.9689
v -98.12991 0.03 345.9689
v -98.12991 0.03 345.9689
v -98.12991 0.03 345.9689
v -95.14264 -0.67 347.249
v -95.14264 -0.67 347.249
v -98.77516 0.03 338.8478
v -98.77516 0.03 338.8478
v -95.89111 0.03 339.6738
v -95.89111 0.03 339.6738
v -95.89111 0.03 339.6738
v -95.89111 0.03 339.6738
v -92.76672 -0.67 340.5686
v -92.76672 -0.67 340.5686
v -97.42241 0.03 332.7167
v -97.42241 0.03 332.7167
v -94.45867 0.03 333.1818
v -94.45867 0.03 333.1818
v -94.45867 0.03 333.1818
v -94.45867 0.03 333.1818
v -91.24796 -0.67 333.6856
v -91.24796 -0.67 333.6856
v -96.83217 0.03 326.4922
v -96.83217 0.03 326.4922
v -93.83383 0.03 326.5921
v -93.83383 0.03 326.5921
v -93.83383 0.03 326.5921
v -93.83383 0.03 326.5921
v -90.58563 -0.67 326.7003
v -90.58563 -0.67 326.7003
v -97.01644 0.03 320.1992
v -97.01644 0.03 320.1992
v -94.02931 0.03 319.9216
v -94.02931 0.03 319.9216
v -94.02931 0.03 319.9216
v -94.02931 0.03 319.9216
v -90.79326 -0.67 319.6208
v -90.79326 -0.67 319.6208
v -98.0354 0.03 313.8768
v -98.0354 0.03 313.8768
v -95.11359 0.03 313.1963
v -95.11359 0.03 313.1963
v -95.11359 0.03 313.1963
v -95.11359 0.03 313.1963
v -91.9483 -0.67 312.4591
v -91.9483 -0.67 312.4591

vn 0 1 0
vn 0 0 0
vn 0 1 0
vn 0 0 0
vn 0.1894609 0.9775417 0.09228658
vn 0 0 0
vn 0.1894889 0.9775363 0.09228558
vn 0 0 0
vn 0 1 0
vn 0 0 0
vn 0 1 0
vn 0 0 0
vn 0.1926797 0.977583 0.08488709
vn 0 0 0
vn 0.1957911 0.9775661 0.07765547
vn 0 0 0
vn 2.667436E-11 1 -9.31373E-11
vn 0 0 0
vn 4.095825E-11 0.9999999 -1.855248E-10
vn 0 0 0
vn 0.2011275 0.9775707 0.06247582
vn 0 0 0
vn 0.2035349 0.9775739 0.05406274
vn 0 0 0
vn 4.187269E-11 0.9999999 -1.896669E-10
vn 0 0 0
vn 1.481923E-11 0.9999999 -9.44468E-11
vn 0 0 0
vn 0.2073046 0.9775716 0.03713186
vn 0 0 0
vn 0.2086407 0.9775736 0.02861617
vn 0 0 0
vn 0 1 0
vn 0 0 0
vn 0 1 0
vn 0 0 0
vn 0.2102924 0.9775727 0.01133945
vn 0 0 0
vn 0.2105863 0.9775717 0.00263259
vn 0 0 0
vn 0 1 0
vn 0 0 0
vn 0 1 0
vn 0 0 0
vn 0.2100404 0.9775736 -0.01525806
vn 0 0 0
vn 0.2091998 0.9775681 -0.02441536
vn 0 0 0
vn 0 1 0
vn 0 0 0
vn 0 1 0
vn 0 0 0
vn 0.2083321 0.9774811 -0.03359436
vn 0 0 0
vn 0.2083424 0.9774786 -0.03360158
vn 0 0 0

vt 0 0
vt 0 0
vt -0.5276337 0.2856629
vt -0.5276337 0.2856629
vt -0.5276337 0.2856629
vt -0.5276337 0.2856629
vt -1.099236 0.5951294
vt -1.099236 0.5951294
vt -0.5235352 -1.074451
vt -0.5235352 -1.074451
vt -1.075031 -0.8381225
vt -1.075031 -0.8381225
vt -1.075031 -0.8381225
vt -1.075031 -0.8381225
vt -1.672484 -0.5820923
vt -1.672484 -0.5820923
vt -0.9459793 -2.262335
vt -0.9459793 -2.262335
vt -1.522791 -2.097137
vt -1.522791 -2.097137
vt -1.522791 -2.097137
vt -1.522791 -2.097137
vt -2.147669 -1.918176
vt -2.147669 -1.918176
vt -1.21653 -3.48855
vt -1.21653 -3.48855
vt -1.809277 -3.395545
vt -1.809277 -3.395545
vt -1.809277 -3.395545
vt -1.809277 -3.395545
vt -2.451421 -3.294781
vt -2.451421 -3.294781
vt -1.334578 -4.733459
vt -1.334578 -4.733459
vt -1.934245 -4.713483
vt -1.934245 -4.713483
vt -1.934245 -4.713483
vt -1.934245 -4.713483
vt -2.583885 -4.69184
vt -2.583885 -4.69184
vt -1.297723 -5.992065
vt -1.297723 -5.992065
vt -1.895149 -6.047583
vt -1.895149 -6.047583
vt -1.895149 -6.047583
vt -1.895149 -6.047583
vt -2.54236 -6.107727
vt -2.54236 -6.107727
vt -1.093932 -7.256537
vt -1.093932 -7.256537
vt -1.678293 -7.392633
vt -1.678293 -7.392633
vt -1.678293 -7.392633
vt -1.678293 -7.392633
vt -2.311351 -7.54007
vt -2.311351 -7.54007

usemtl GSDShoulder1
usemap GSDShoulder1
f 9/9/9 1/1/1 3/3/3
f 11/11/11 9/9/9 3/3/3
f 13/13/13 5/5/5 7/7/7
f 15/15/15 13/13/13 7/7/7
f 17/17/17 9/9/9 11/11/11
f 19/19/19 17/17/17 11/11/11
f 21/21/21 13/13/13 15/15/15
f 23/23/23 21/21/21 15/15/15
f 25/25/25 17/17/17 19/19/19
f 27/27/27 25/25/25 19/19/19
f 29/29/29 21/21/21 23/23/23
f 31/31/31 29/29/29 23/23/23
f 33/33/33 25/25/25 27/27/27
f 35/35/35 33/33/33 27/27/27
f 37/37/37 29/29/29 31/31/31
f 39/39/39 37/37/37 31/31/31
f 41/41/41 33/33/33 35/35/35
f 43/43/43 41/41/41 35/35/35
f 45/45/45 37/37/37 39/39/39
f 47/47/47 45/45/45 39/39/39
f 49/49/49 41/41/41 43/43/43
f 51/51/51 49/49/49 43/43/43
f 53/53/53 45/45/45 47/47/47
f 55/55/55 53/53/53 47/47/47
