mtllib ./Road1_0_51.mtl
g Markers25
v -210.953 0.1640974 83.69831
v -210.953 0.1640974 83.69831
v -216.9995 0.1640974 91.65728
v -216.9995 0.1640974 91.65728
v -206.8292 0.02469876 86.96889
v -206.8292 0.02469876 86.96889
v -213.2012 0.02469876 94.6721
v -213.2012 0.02469876 94.6721
v -202.8666 0.01000001 90.35073
v -202.8666 0.01000001 90.35073
v -209.4667 0.01000001 97.86097
v -209.4667 0.01000001 97.86097
v -198.9893 0.01000001 93.84469
v -198.9893 0.01000001 93.84469
v -205.7701 0.01000001 101.1932
v -205.7701 0.01000001 101.1932
v -195.2173 0.01000001 97.39752
v -195.2173 0.01000001 97.39752
v -202.144 0.01000001 104.6093
v -202.144 0.01000001 104.6093
v -191.5681 0.01000001 100.9629
v -191.5681 0.01000001 100.9629
v -198.6145 0.01000001 108.0581
v -198.6145 0.01000001 108.0581
v -187.9673 0.01000001 104.5921
v -187.9673 0.01000001 104.5921
v -195.1159 0.01000001 111.5847
v -195.1159 0.01000001 111.5847
v -184.4261 0.01000001 108.2593
v -184.4261 0.01000001 108.2593
v -191.6626 0.01000001 115.161
v -191.6626 0.01000001 115.161
v -180.9542 0.01000001 111.9413
v -180.9542 0.01000001 111.9413
v -188.2671 0.01000001 118.762
v -188.2671 0.01000001 118.762
v -177.4684 0.01000001 115.7174
v -177.4684 0.01000001 115.7174
v -184.85 0.01000001 122.4637
v -184.85 0.01000001 122.4637
v -174.0694 0.01000001 119.4708
v -174.0694 0.01000001 119.4708
v -181.5114 0.01000001 126.1503
v -181.5114 0.01000001 126.1503
v -170.6717 0.01000001 123.2884
v -170.6717 0.01000001 123.2884
v -178.1688 0.01000001 129.9061
v -178.1688 0.01000001 129.9061
v -167.2833 0.01000001 127.1573
v -167.2833 0.01000001 127.1573
v -174.8307 0.01000001 133.7174
v -174.8307 0.01000001 133.7174
v -163.9112 0.01000001 131.0651
v -163.9112 0.01000001 131.0651
v -171.5049 0.01000001 137.5716
v -171.5049 0.01000001 137.5716
v -160.563 0.01000001 134.9992
v -160.563 0.01000001 134.9992
v -168.1993 0.01000001 141.4556
v -168.1993 0.01000001 141.4556
v -157.2465 0.01000001 138.9467
v -157.2465 0.01000001 138.9467
v -164.9223 0.01000001 145.356
v -164.9223 0.01000001 145.356
v -153.9685 0.01000001 142.8956
v -153.9685 0.01000001 142.8956
v -161.6809 0.01000001 149.2608
v -161.6809 0.01000001 149.2608
v -150.7366 0.01000001 146.8334
v -150.7366 0.01000001 146.8334
v -158.4833 0.01000001 153.1568
v -158.4833 0.01000001 153.1568
v -147.5586 0.01000001 150.7471
v -147.5586 0.01000001 150.7471
v -155.3373 0.01000001 157.0311
v -155.3373 0.01000001 157.0311
v -144.3587 0.01000001 154.7282
v -144.3587 0.01000001 154.7282
v -152.1683 0.01000001 160.9738
v -152.1683 0.01000001 160.9738
v -141.1503 0.01000001 158.7599
v -141.1503 0.01000001 158.7599
v -148.9896 0.01000001 164.9681
v -148.9896 0.01000001 164.9681
v -138.0278 0.01000001 162.7213
v -138.0278 0.01000001 162.7213
v -145.8952 0.01000001 168.8938
v -145.8952 0.01000001 168.8938
v -134.9232 0.01000001 166.6966
v -134.9232 0.01000001 166.6966
v -142.818 0.01000001 172.8341
v -142.818 0.01000001 172.8341
v -131.7808 0.01000001 170.7574
v -131.7808 0.01000001 170.7574
v -139.7029 0.01000001 176.8597
v -139.7029 0.01000001 176.8597
v -128.6996 0.01712552 174.7756
v -128.6996 0.01712552 174.7756
v -136.6484 0.01712552 180.8431
v -136.6484 0.01712552 180.8431
v -125.6353 0.03283348 178.8085
v -125.6353 0.03283348 178.8085
v -133.611 0.03283348 184.8406
v -133.611 0.03283348 184.8406
v -122.5623 0.03990138 182.891
v -122.5623 0.03990138 182.891
v -130.5659 0.03990138 188.8862
v -130.5659 0.03990138 188.8862

vn 0.02108652 0.9996493 0.01601956
vn 0 0 0
vn 0.02159433 0.9996202 0.017122
vn 0 0 0
vn 0.01499347 0.9998166 0.01191356
vn 0 0 0
vn 0.008670039 0.9999365 0.007209784
vn 0 0 0
vn 0.001458254 0.9999981 0.001243407
vn 0 0 0
vn 0.0007309067 0.9999995 0.0006423275
vn 0 0 0
vn 0 1 0
vn 0 0 0
vn 0 1 0
vn 0 0 0
vn 0 1 0
vn 0 0 0
vn 0 1 0
vn 0 0 0
vn 0 1 0
vn 0 0 0
vn 0 1 0
vn 0 0 0
vn 0 1 0
vn 0 0 0
vn 0 1 0
vn 0 0 0
vn 0 0.9999999 0
vn 0 0 0
vn 0 1 0
vn 0 0 0
vn 0 1 0
vn 0 0 0
vn 0 1 0
vn 0 0 0
vn 0 1 0
vn 0 0 0
vn 0 1 0
vn 0 0 0
vn 0 1 0
vn 0 0 0
vn 0 1 0
vn 0 0 0
vn 0 1 0
vn 0 0 0
vn 0 1 0
vn 0 0 0
vn 0 1 0
vn 0 0 0
vn 0 1 0
vn 0 0 0
vn 0 1 0
vn 0 0 0
vn 0 1 0
vn 0 0 0
vn 0 1 0
vn 0 0 0
vn 0 0.9999999 0
vn 0 0 0
vn 0 0.9999999 0
vn 0 0 0
vn 0 1 0
vn 0 0 0
vn 0 1 0
vn 0 0 0
vn 0 1 0
vn 0 0 0
vn 0 1 0
vn 0 0 0
vn 0 1 0
vn 0 0 0
vn 0 0.9999999 0
vn 0 0 0
vn 0 1 0
vn 0 0 0
vn 0 1 0
vn 0 0 0
vn 0 1 0
vn 0 0 0
vn 0 0.9999999 0
vn 0 0 0
vn 0 1 0
vn 0 0 0
vn 0 1 0
vn 0 0 0
vn 0 1 0
vn 0 0 0
vn 0 1 0
vn 0 0 0
vn 0 1 0
vn 0 0 0
vn -0.0002844168 0.9999999 -0.0003692341
vn 0 0 0
vn -0.0005715092 0.9999995 -0.0007453181
vn 0 0 0
vn -0.00120163 0.999998 -0.001570811
vn 0 0 0
vn -0.001544472 0.9999968 -0.002030978
vn 0 0 0
vn -0.001531365 0.9999968 -0.00201717
vn 0 0 0
vn -0.001183116 0.9999981 -0.001567899
vn 0 0 0
vn -0.0008355989 0.999999 -0.001110169
vn 0 0 0
vn -0.0008368369 0.999999 -0.001117185
vn 0 0 0

vt 0 392.3093
vt 0 0
vt 1 392.3093
vt 0 0
vt 0 393.3623
vt 0 393.3623
vt 1 393.3623
vt 1 393.3623
vt 0 394.4042
vt 0 394.4042
vt 1 394.4042
vt 1 394.4042
vt 0 395.4481
vt 0 395.4481
vt 1 395.4481
vt 1 395.4481
vt 0 396.4844
vt 0 396.4844
vt 1 396.4844
vt 1 396.4844
vt 0 397.5048
vt 0 397.5048
vt 1 397.5048
vt 1 397.5048
vt 0 398.5273
vt 0 398.5273
vt 1 398.5273
vt 1 398.5273
vt 0 399.5468
vt 0 399.5468
vt 1 399.5468
vt 1 399.5468
vt 0 400.559
vt 0 400.559
vt 1 400.559
vt 1 400.559
vt 0 401.5868
vt 0 401.5868
vt 1 401.5868
vt 1 401.5868
vt 0 402.5995
vt 0 402.5995
vt 1 402.5995
vt 1 402.5995
vt 0 403.6217
vt 0 403.6217
vt 1 403.6217
vt 1 403.6217
vt 0 404.6503
vt 0 404.6503
vt 1 404.6503
vt 1 404.6503
vt 0 405.6826
vt 0 405.6826
vt 1 405.6826
vt 1 405.6826
vt 0 406.7158
vt 0 406.7158
vt 1 406.7158
vt 1 406.7158
vt 0 407.7469
vt 0 407.7469
vt 1 407.7469
vt 1 407.7469
vt 0 408.7734
vt 0 408.7734
vt 1 408.7734
vt 1 408.7734
vt 0 409.7922
vt 0 409.7922
vt 1 409.7922
vt 1 409.7922
vt 0 410.8005
vt 0 410.8005
vt 1 410.8005
vt 1 410.8005
vt 0 411.8221
vt 0 411.8221
vt 1 411.8221
vt 1 411.8221
vt 0 412.8526
vt 0 412.8526
vt 1 412.8526
vt 1 412.8526
vt 0 413.8614
vt 0 413.8614
vt 1 413.8614
vt 1 413.8614
vt 0 414.8702
vt 0 414.8702
vt 1 414.8702
vt 1 414.8702
vt 0 415.8971
vt 0 415.8971
vt 1 415.8971
vt 1 415.8971
vt 0 416.9099
vt 0 416.9099
vt 1 416.9099
vt 1 416.9099
vt 0 417.9229
vt 0 417.9229
vt 1 417.9229
vt 1 417.9229
vt 0 418.9448
vt 0 418.9448
vt 1 418.9448
vt 1 418.9448

usemtl GSDWhiteYellowDouble
usemap GSDWhiteYellowDouble
f 5/5/5 1/1/1 3/3/3
f 7/7/7 5/5/5 3/3/3
f 9/9/9 5/5/5 7/7/7
f 11/11/11 9/9/9 7/7/7
f 13/13/13 9/9/9 11/11/11
f 15/15/15 13/13/13 11/11/11
f 17/17/17 13/13/13 15/15/15
f 19/19/19 17/17/17 15/15/15
f 21/21/21 17/17/17 19/19/19
f 23/23/23 21/21/21 19/19/19
f 25/25/25 21/21/21 23/23/23
f 27/27/27 25/25/25 23/23/23
f 29/29/29 25/25/25 27/27/27
f 31/31/31 29/29/29 27/27/27
f 33/33/33 29/29/29 31/31/31
f 35/35/35 33/33/33 31/31/31
f 37/37/37 33/33/33 35/35/35
f 39/39/39 37/37/37 35/35/35
f 41/41/41 37/37/37 39/39/39
f 43/43/43 41/41/41 39/39/39
f 45/45/45 41/41/41 43/43/43
f 47/47/47 45/45/45 43/43/43
f 49/49/49 45/45/45 47/47/47
f 51/51/51 49/49/49 47/47/47
f 53/53/53 49/49/49 51/51/51
f 55/55/55 53/53/53 51/51/51
f 57/57/57 53/53/53 55/55/55
f 59/59/59 57/57/57 55/55/55
f 61/61/61 57/57/57 59/59/59
f 63/63/63 61/61/61 59/59/59
f 65/65/65 61/61/61 63/63/63
f 67/67/67 65/65/65 63/63/63
f 69/69/69 65/65/65 67/67/67
f 71/71/71 69/69/69 67/67/67
f 73/73/73 69/69/69 71/71/71
f 75/75/75 73/73/73 71/71/71
f 77/77/77 73/73/73 75/75/75
f 79/79/79 77/77/77 75/75/75
f 81/81/81 77/77/77 79/79/79
f 83/83/83 81/81/81 79/79/79
f 85/85/85 81/81/81 83/83/83
f 87/87/87 85/85/85 83/83/83
f 89/89/89 85/85/85 87/87/87
f 91/91/91 89/89/89 87/87/87
f 93/93/93 89/89/89 91/91/91
f 95/95/95 93/93/93 91/91/91
f 97/97/97 93/93/93 95/95/95
f 99/99/99 97/97/97 95/95/95
f 101/101/101 97/97/97 99/99/99
f 103/103/103 101/101/101 99/99/99
f 105/105/105 101/101/101 103/103/103
f 107/107/107 105/105/105 103/103/103
