mtllib ./Road1_0_96.mtl
g RoadCut48
v -761.1076 16.88923 697.7706
v -761.1076 16.88923 697.7706
v -768.3292 16.88923 704.6749
v -768.3292 16.88923 704.6749
v -757.5731 17.13988 701.4209
v -757.5731 17.13988 701.4209
v -764.79 17.13988 708.3201
v -764.79 17.13988 708.3201
v -754.0604 17.45199 705.2749
v -754.0604 17.45199 705.2749
v -761.5648 17.45199 711.8491
v -761.5648 17.45199 711.8491
v -750.7283 17.82029 709.1868
v -750.7283 17.82029 709.1868
v -758.3715 17.82029 715.5884
v -758.3715 17.82029 715.5884
v -747.5354 18.22628 712.997
v -747.5354 18.22628 712.997
v -755.1324 18.22628 719.4459
v -755.1324 18.22628 719.4459
v -744.3163 18.65716 716.6641
v -744.3163 18.65716 716.6641
v -751.6551 18.65716 723.4037
v -751.6551 18.65716 723.4037
v -741.043 19.07756 720.0096
v -741.043 19.07756 720.0096
v -747.9165 19.07756 727.2272
v -747.9165 19.07756 727.2272

vn -0.03404861 0.9987854 -0.03561318
vn 0 0 0
vn -0.0340494 0.9987854 -0.03561579
vn 0 0 0
vn -0.03650773 0.9986035 -0.03818795
vn 0 0 0
vn -0.03937602 0.9983206 -0.04248881
vn 0 0 0
vn -0.04379074 0.9978565 -0.04862862
vn 0 0 0
vn -0.04604896 0.997511 -0.05339815
vn 0 0 0
vn -0.04909565 0.9971218 -0.05777241
vn 0 0 0
vn -0.05075601 0.9968877 -0.06032105
vn 0 0 0
vn -0.0537032 0.9965332 -0.06354243
vn 0 0 0
vn -0.05467528 0.9965333 -0.06270476
vn 0 0 0
vn -0.05743728 0.9962819 -0.06421399
vn 0 0 0
vn -0.05737332 0.9965624 -0.05976337
vn 0 0 0
vn -0.05854224 0.9965035 -0.05961235
vn 0 0 0
vn -0.05679056 0.9969202 -0.05408387
vn 0 0 0

vt 0 0
vt 0 0
vt 1.444311 1.380859
vt 1.444311 1.380859
vt -0.7069092 0.7300537
vt -0.7069092 0.7300537
vt 0.7364746 2.109888
vt 0.7364746 2.109888
vt -1.409436 1.500854
vt -1.409436 1.500854
vt 0.09144288 2.815698
vt 0.09144288 2.815698
vt -2.075855 2.283228
vt -2.075855 2.283228
vt -0.5472168 3.56355
vt -0.5472168 3.56355
vt -2.714441 3.045276
vt -2.714441 3.045276
vt -1.195032 4.335046
vt -1.195032 4.335046
vt -3.358252 3.778699
vt -3.358252 3.778699
vt -1.890503 5.126624
vt -1.890503 5.126624
vt -4.012928 4.447803
vt -4.012928 4.447803
vt -2.63822 5.891309
vt -2.63822 5.891309

usemtl GSDRoad1
usemap GSDRoad1
f 5/5/5 1/1/1 3/3/3
f 7/7/7 5/5/5 3/3/3
f 9/9/9 5/5/5 7/7/7
f 11/11/11 9/9/9 7/7/7
f 13/13/13 9/9/9 11/11/11
f 15/15/15 13/13/13 11/11/11
f 17/17/17 13/13/13 15/15/15
f 19/19/19 17/17/17 15/15/15
f 21/21/21 17/17/17 19/19/19
f 23/23/23 21/21/21 19/19/19
f 25/25/25 21/21/21 23/23/23
f 27/27/27 25/25/25 23/23/23
