mtllib ./Road1_0_74.mtl
g RoadCut37
v -582.6762 5.022152 834.0066
v -582.6762 5.022152 834.0066
v -582.9251 5.022152 824.0117
v -582.9251 5.022152 824.0117
v -587.6294 5.11992 834.1877
v -587.6294 5.11992 834.1877
v -588.1039 5.11992 824.2007
v -588.1039 5.11992 824.2007
v -592.6364 5.213027 834.4756
v -592.6364 5.213027 834.4756
v -593.3044 5.213027 824.4996
v -593.3044 5.213027 824.4996
v -597.5593 5.299578 834.8471
v -597.5593 5.299578 834.8471
v -598.3917 5.299578 824.8832
v -598.3917 5.299578 824.8832
v -602.4895 5.381761 835.2958
v -602.4895 5.381761 835.2958
v -603.4657 5.381761 825.3448
v -603.4657 5.381761 825.3448
v -607.4054 5.459569 835.8102
v -607.4054 5.459569 835.8102
v -608.5079 5.459569 825.8724
v -608.5079 5.459569 825.8724
v -612.4182 5.534942 836.3963
v -612.4182 5.534942 836.3963
v -613.6351 5.534942 826.4716
v -613.6351 5.534942 826.4716
v -617.3844 5.605877 837.0314
v -617.3844 5.605877 837.0314
v -618.7025 5.605877 827.1197
v -618.7025 5.605877 827.1197
v -622.421 5.674196 837.7256
v -622.421 5.674196 837.7256
v -623.8314 5.674196 827.8265
v -623.8314 5.674196 827.8265
v -627.3842 5.738075 838.4541
v -627.3842 5.738075 838.4541
v -628.8765 5.738075 828.5669
v -628.8765 5.738075 828.5669
v -632.3954 5.799201 839.2302
v -632.3954 5.799201 839.2302
v -633.9625 5.799201 829.3545
v -633.9625 5.799201 829.3545
v -637.309 5.855913 840.0273
v -637.309 5.855913 840.0273
v -638.9429 5.855913 830.1623
v -638.9429 5.855913 830.1623
v -642.2507 5.909768 840.8618
v -642.2507 5.909768 840.8618
v -643.9457 5.909768 831.007
v -643.9457 5.909768 831.007
v -647.2123 5.960646 841.73
v -647.2123 5.960646 841.73
v -648.9633 5.960646 831.885
v -648.9633 5.960646 831.885
v -652.1865 6.008433 842.6282
v -652.1865 6.008433 842.6282
v -653.9886 6.008433 832.7924
v -653.9886 6.008433 832.7924
v -657.1636 6.052996 843.5526
v -657.1636 6.052996 843.5526
v -659.0124 6.052996 833.7253
v -659.0124 6.052996 833.7253
v -662.1362 6.094216 844.4994
v -662.1362 6.094216 844.4994
v -664.0274 6.094216 834.6802
v -664.0274 6.094216 834.6802
v -667.0949 6.131966 845.4647
v -667.0949 6.131966 845.4647
v -669.0245 6.131966 835.6529
v -669.0245 6.131966 835.6529
v -672.0327 6.166129 846.4449
v -672.0327 6.166129 846.4449
v -673.9966 6.166129 836.6399
v -673.9966 6.166129 836.6399
v -676.9401 6.196573 847.436
v -676.9401 6.196573 847.436
v -678.9347 6.196573 837.6371
v -678.9347 6.196573 837.6371
v -681.9443 6.223866 848.4623
v -681.9443 6.223866 848.4623
v -683.9666 6.223866 838.6691
v -683.9666 6.223866 838.6691
v -686.8998 6.246975 849.4921
v -686.8998 6.246975 849.4921
v -688.9462 6.246975 839.7037
v -688.9462 6.246975 839.7037
v -691.7968 6.265762 850.5213
v -691.7968 6.265762 850.5213
v -693.8633 6.265762 840.7372
v -693.8633 6.265762 840.7372
v -696.7565 6.280419 851.5734
v -696.7565 6.280419 851.5734
v -698.8397 6.280419 841.7928
v -698.8397 6.280419 841.7928
v -701.7628 6.290424 852.6434
v -701.7628 6.290424 852.6434
v -703.8589 6.290424 842.8656
v -703.8589 6.290424 842.8656
v -706.6746 6.295174 853.6988
v -706.6746 6.295174 853.6988
v -708.7792 6.295174 843.9228
v -708.7792 6.295174 843.9228
v -711.6032 6.294418 854.761
v -711.6032 6.294418 854.761
v -713.7116 6.294418 844.9859
v -713.7116 6.294418 844.9859
v -716.5281 6.287558 855.8232
v -716.5281 6.287558 855.8232
v -718.6349 6.287558 846.0477
v -718.6349 6.287558 846.0477
v -721.4285 6.273951 856.8775
v -721.4285 6.273951 856.8775
v -723.5274 6.273951 847.1003
v -723.5274 6.273951 847.1003
v -726.3907 6.252346 857.9388
v -726.3907 6.252346 857.9388
v -728.4739 6.252346 848.1583
v -728.4739 6.252346 848.1583
v -731.3759 6.221476 858.9941
v -731.3759 6.221476 858.9941
v -733.4329 6.221476 849.2083
v -733.4329 6.221476 849.2083
v -736.34 6.179957 860.0279
v -736.34 6.179957 860.0279
v -738.3577 6.179957 850.2341
v -738.3577 6.179957 850.2341
v -741.3276 6.125115 861.0407
v -741.3276 6.125115 861.0407
v -743.2869 6.125115 851.2353
v -743.2869 6.125115 851.2353
v -746.3521 6.053186 862.0226
v -746.3521 6.053186 862.0226
v -748.2236 6.053186 852.2006
v -748.2236 6.053186 852.2006

vn 0.01971668 0.9998055 -0.0004910025
vn 0 0 0
vn 0.01926992 0.9998141 -0.0006976167
vn 0 0 0
vn 0.01902885 0.9998186 -0.0007582823
vn 0 0 0
vn 0.01840278 0.9998301 -0.0009916486
vn 0 0 0
vn 0.01795531 0.9998382 -0.00108311
vn 0 0 0
vn 0.01741095 0.9998475 -0.001259733
vn 0 0 0
vn 0.01697746 0.999855 -0.001322857
vn 0 0 0
vn 0.01649881 0.9998628 -0.001456945
vn 0 0 0
vn 0.01608573 0.9998695 -0.001498482
vn 0 0 0
vn 0.01565685 0.9998761 -0.001601685
vn 0 0 0
vn 0.01525022 0.9998823 -0.001625881
vn 0 0 0
vn 0.01485963 0.9998881 -0.001705723
vn 0 0 0
vn 0.01446622 0.9998939 -0.00171632
vn 0 0 0
vn 0.01410698 0.9998989 -0.001777457
vn 0 0 0
vn 0.01371289 0.9999045 -0.00177558
vn 0 0 0
vn 0.01338026 0.9999089 -0.00182114
vn 0 0 0
vn 0.01299803 0.9999139 -0.001809846
vn 0 0 0
vn 0.0126873 0.9999177 -0.001842571
vn 0 0 0
vn 0.01230261 0.9999228 -0.00182166
vn 0 0 0
vn 0.01201069 0.9999262 -0.001843368
vn 0 0 0
vn 0.01163594 0.9999306 -0.001815625
vn 0 0 0
vn 0.0113594 0.9999338 -0.001828175
vn 0 0 0
vn 0.01097991 0.9999381 -0.001792714
vn 0 0 0
vn 0.0107164 0.9999411 -0.001797299
vn 0 0 0
vn 0.01033835 0.999945 -0.001755844
vn 0 0 0
vn 0.01008263 0.9999477 -0.001753538
vn 0 0 0
vn 0.00969852 0.9999516 -0.001705616
vn 0 0 0
vn 0.00944877 0.9999539 -0.001697043
vn 0 0 0
vn 0.009057228 0.9999576 -0.001642889
vn 0 0 0
vn 0.008811525 0.9999598 -0.00162851
vn 0 0 0
vn 0.008411043 0.9999633 -0.001568216
vn 0 0 0
vn 0.008167812 0.9999654 -0.001548441
vn 0 0 0
vn 0.00775695 0.9999688 -0.001482105
vn 0 0 0
vn 0.00751463 0.9999708 -0.001457204
vn 0 0 0
vn 0.007091496 0.9999739 -0.001384703
vn 0 0 0
vn 0.006848422 0.9999756 -0.001354836
vn 0 0 0
vn 0.006410938 0.9999786 -0.001276048
vn 0 0 0
vn 0.006165353 0.9999802 -0.001241367
vn 0 0 0
vn 0.005703805 0.9999831 -0.001154644
vn 0 0 0
vn 0.005450984 0.9999846 -0.001114744
vn 0 0 0
vn 0.004972106 0.9999871 -0.001021613
vn 0 0 0
vn 0.00470948 0.9999884 -0.0009763155
vn 0 0 0
vn 0.004200245 0.9999908 -0.0008742964
vn 0 0 0
vn 0.003929307 0.999992 -0.000824091
vn 0 0 0
vn 0.003385141 0.999994 -0.0007123702
vn 0 0 0
vn 0.003099595 0.999995 -0.0006563641
vn 0 0 0
vn 0.002517719 0.9999967 -0.0005345976
vn 0 0 0
vn 0.002210336 0.9999974 -0.0004716832
vn 0 0 0
vn 0.001585036 0.9999987 -0.0003389179
vn 0 0 0
vn 0.001255495 0.9999992 -0.0002694313
vn 0 0 0
vn 0.0005661771 0.9999998 -0.0001216114
vn 0 0 0
vn 0.0002094054 1 -4.506176E-05
vn 0 0 0
vn -0.0005410193 0.9999999 0.0001166725
vn 0 0 0
vn -0.0009359305 0.9999996 0.000201795
vn 0 0 0
vn -0.001770693 0.9999983 0.0003816941
vn 0 0 0
vn -0.002212926 0.9999975 0.0004761778
vn 0 0 0
vn -0.003162669 0.9999948 0.000679679
vn 0 0 0
vn -0.003670312 0.999993 0.0007855577
vn 0 0 0
vn -0.004757323 0.9999881 0.001015585
vn 0 0 0
vn -0.005355873 0.999985 0.001135206
vn 0 0 0
vn -0.006631407 0.9999771 0.001399452
vn 0 0 0
vn -0.007350132 0.9999719 0.001533793
vn 0 0 0
vn -0.008887365 0.9999588 0.001842144
vn 0 0 0
vn -0.009779039 0.9999501 0.001992622
vn 0 0 0
vn -0.01168175 0.9999291 0.002356016
vn 0 0 0
vn -0.01284338 0.9999143 0.002523083
vn 0 0 0
vn -0.0139098 0.9998996 0.002714777
vn 0 0 0
vn -0.01404553 0.9998978 0.002676196
vn 0 0 0

vt 0 0
vt 0 0
vt 0.04978028 -1.998975
vt 0.04978028 -1.998975
vt 0.9906372 0.03621826
vt 0.9906372 0.03621826
vt 1.085535 -1.961169
vt 1.085535 -1.961169
vt 1.992029 0.09381104
vt 1.992029 0.09381104
vt 2.125647 -1.901404
vt 2.125647 -1.901404
vt 2.976611 0.168103
vt 2.976611 0.168103
vt 3.143091 -1.82467
vt 3.143091 -1.82467
vt 3.962659 0.2578369
vt 3.962659 0.2578369
vt 4.157898 -1.732349
vt 4.157898 -1.732349
vt 4.945837 0.36073
vt 4.945837 0.36073
vt 5.166345 -1.626843
vt 5.166345 -1.626843
vt 5.948401 0.4779419
vt 5.948401 0.4779419
vt 6.191785 -1.506995
vt 6.191785 -1.506995
vt 6.941638 0.6049682
vt 6.941638 0.6049682
vt 7.205261 -1.37738
vt 7.205261 -1.37738
vt 7.948963 0.7438111
vt 7.948963 0.7438111
vt 8.231043 -1.236023
vt 8.231043 -1.236023
vt 8.941602 0.889502
vt 8.941602 0.889502
vt 9.240064 -1.08794
vt 9.240064 -1.08794
vt 9.943835 1.044727
vt 9.943835 1.044727
vt 10.25726 -0.9304199
vt 10.25726 -0.9304199
vt 10.92656 1.204138
vt 10.92656 1.204138
vt 11.25334 -0.7688599
vt 11.25334 -0.7688599
vt 11.91489 1.371033
vt 11.91489 1.371033
vt 12.25391 -0.5999146
vt 12.25391 -0.5999146
vt 12.90723 1.544678
vt 12.90723 1.544678
vt 13.25742 -0.4243164
vt 13.25742 -0.4243164
vt 13.90205 1.724329
vt 13.90205 1.724329
vt 14.26248 -0.2428345
vt 14.26248 -0.2428345
vt 14.89749 1.909204
vt 14.89749 1.909204
vt 15.26724 -0.05625
vt 15.26724 -0.05625
vt 15.89199 2.09856
vt 15.89199 2.09856
vt 16.27024 0.1347168
vt 16.27024 0.1347168
vt 16.88374 2.291614
vt 16.88374 2.291614
vt 17.26965 0.3292603
vt 17.26965 0.3292603
vt 17.87129 2.487671
vt 17.87129 2.487671
vt 18.26409 0.5266601
vt 18.26409 0.5266601
vt 18.85277 2.685877
vt 18.85277 2.685877
vt 19.2517 0.7261109
vt 19.2517 0.7261109
vt 19.85361 2.891138
vt 19.85361 2.891138
vt 20.25808 0.9324951
vt 20.25808 0.9324951
vt 20.84472 3.097095
vt 20.84472 3.097095
vt 21.25399 1.139429
vt 21.25399 1.139429
vt 21.82412 3.302942
vt 21.82412 3.302942
vt 22.23743 1.34613
vt 22.23743 1.34613
vt 22.81605 3.513355
vt 22.81605 3.513355
vt 23.2327 1.557251
vt 23.2327 1.557251
vt 23.81731 3.727368
vt 23.81731 3.727368
vt 24.23655 1.771802
vt 24.23655 1.771802
vt 24.79968 3.93844
vt 24.79968 3.93844
vt 25.22061 1.98324
vt 25.22061 1.98324
vt 25.7854 4.150891
vt 25.7854 4.150891
vt 26.20708 2.195862
vt 26.20708 2.195862
vt 26.77039 4.363318
vt 26.77039 4.363318
vt 27.19175 2.408215
vt 27.19175 2.408215
vt 27.75046 4.574182
vt 27.75046 4.574182
vt 28.17024 2.618738
vt 28.17024 2.618738
vt 28.74291 4.78645
vt 28.74291 4.78645
vt 29.15953 2.830347
vt 29.15953 2.830347
vt 29.73994 4.99751
vt 29.73994 4.99751
vt 30.15134 3.040332
vt 30.15134 3.040332
vt 30.73275 5.20426
vt 30.73275 5.20426
vt 31.13629 3.245496
vt 31.13629 3.245496
vt 31.73029 5.406824
vt 31.73029 5.406824
vt 32.12213 3.44574
vt 32.12213 3.44574
vt 32.73518 5.60321
vt 32.73518 5.60321
vt 33.10947 3.638806
vt 33.10947 3.638806

usemtl GSDRoad1
usemap GSDRoad1
f 5/5/5 1/1/1 3/3/3
f 7/7/7 5/5/5 3/3/3
f 9/9/9 5/5/5 7/7/7
f 11/11/11 9/9/9 7/7/7
f 13/13/13 9/9/9 11/11/11
f 15/15/15 13/13/13 11/11/11
f 17/17/17 13/13/13 15/15/15
f 19/19/19 17/17/17 15/15/15
f 21/21/21 17/17/17 19/19/19
f 23/23/23 21/21/21 19/19/19
f 25/25/25 21/21/21 23/23/23
f 27/27/27 25/25/25 23/23/23
f 29/29/29 25/25/25 27/27/27
f 31/31/31 29/29/29 27/27/27
f 33/33/33 29/29/29 31/31/31
f 35/35/35 33/33/33 31/31/31
f 37/37/37 33/33/33 35/35/35
f 39/39/39 37/37/37 35/35/35
f 41/41/41 37/37/37 39/39/39
f 43/43/43 41/41/41 39/39/39
f 45/45/45 41/41/41 43/43/43
f 47/47/47 45/45/45 43/43/43
f 49/49/49 45/45/45 47/47/47
f 51/51/51 49/49/49 47/47/47
f 53/53/53 49/49/49 51/51/51
f 55/55/55 53/53/53 51/51/51
f 57/57/57 53/53/53 55/55/55
f 59/59/59 57/57/57 55/55/55
f 61/61/61 57/57/57 59/59/59
f 63/63/63 61/61/61 59/59/59
f 65/65/65 61/61/61 63/63/63
f 67/67/67 65/65/65 63/63/63
f 69/69/69 65/65/65 67/67/67
f 71/71/71 69/69/69 67/67/67
f 73/73/73 69/69/69 71/71/71
f 75/75/75 73/73/73 71/71/71
f 77/77/77 73/73/73 75/75/75
f 79/79/79 77/77/77 75/75/75
f 81/81/81 77/77/77 79/79/79
f 83/83/83 81/81/81 79/79/79
f 85/85/85 81/81/81 83/83/83
f 87/87/87 85/85/85 83/83/83
f 89/89/89 85/85/85 87/87/87
f 91/91/91 89/89/89 87/87/87
f 93/93/93 89/89/89 91/91/91
f 95/95/95 93/93/93 91/91/91
f 97/97/97 93/93/93 95/95/95
f 99/99/99 97/97/97 95/95/95
f 101/101/101 97/97/97 99/99/99
f 103/103/103 101/101/101 99/99/99
f 105/105/105 101/101/101 103/103/103
f 107/107/107 105/105/105 103/103/103
f 109/109/109 105/105/105 107/107/107
f 111/111/111 109/109/109 107/107/107
f 113/113/113 109/109/109 111/111/111
f 115/115/115 113/113/113 111/111/111
f 117/117/117 113/113/113 115/115/115
f 119/119/119 117/117/117 115/115/115
f 121/121/121 117/117/117 119/119/119
f 123/123/123 121/121/121 119/119/119
f 125/125/125 121/121/121 123/123/123
f 127/127/127 125/125/125 123/123/123
f 129/129/129 125/125/125 127/127/127
f 131/131/131 129/129/129 127/127/127
f 133/133/133 129/129/129 131/131/131
f 135/135/135 133/133/133 131/131/131
