mtllib ./Road8_2_48.mtl
g Markers16
v -656.4913 0.04 105.2978
v -656.4913 0.04 105.2978
v -657.844 0.04 115.2059
v -657.844 0.04 115.2059
v -651.053 0.04 106.2665
v -651.053 0.04 106.2665
v -653.1948 0.04 116.0344
v -653.1948 0.04 116.0344
v -645.8423 0.04 107.6007
v -645.8423 0.04 107.6007
v -648.6822 0.04 117.1889
v -648.6822 0.04 117.1889
v -640.6189 0.04 109.402
v -640.6189 0.04 109.402
v -644.3237 0.04 118.6904
v -644.3237 0.04 118.6904
v -635.5572 0.04 111.7536
v -635.5572 0.04 111.7536
v -640.3019 0.04 120.5562
v -640.3019 0.04 120.5562
v -630.6786 0.04 114.8457
v -630.6786 0.04 114.8457
v -636.6517 0.04 122.8659
v -636.6517 0.04 122.8659
v -626.2692 0.04 118.7589
v -626.2692 0.04 118.7589
v -633.549 0.04 125.6149
v -633.549 0.04 125.6149
v -622.6123 0.04 123.4758
v -622.6123 0.04 123.4758
v -631.0715 0.04 128.8089
v -631.0715 0.04 128.8089
v -619.914 0.04 128.8256
v -619.914 0.04 128.8256
v -629.2195 0.04 132.4872
v -629.2195 0.04 132.4872
v -618.228 0.04 134.3671
v -618.228 0.04 134.3671
v -627.9818 0.04 136.5723
v -627.9818 0.04 136.5723

vn 0 1 0
vn 0 0 0
vn 0 1 0
vn 0 0 0
vn 1.165279E-10 1 2.555144E-11
vn 0 0 0
vn 2.444503E-10 1 6.291392E-11
vn 0 0 0
vn 2.151807E-12 1 -8.360848E-12
vn 0 0 0
vn -3.549685E-10 1 -1.291761E-10
vn 0 0 0
vn -4.47984E-10 1 -1.553192E-10
vn 0 0 0
vn -2.369532E-10 1 -9.451284E-11
vn 0 0 0
vn 0 1 0
vn 0 0 0
vn 0 1 0
vn 0 0 0
vn 9.370351E-11 1 6.978555E-11
vn 0 0 0
vn 1.936415E-10 1 1.725104E-10
vn 0 0 0
vn 1.737983E-10 0.9999999 1.548327E-10
vn 0 0 0
vn 9.061791E-11 1 9.62196E-11
vn 0 0 0
vn 0 1 0
vn 0 0 0
vn 0 1 0
vn 0 0 0
vn 0 1 0
vn 0 0 0
vn 0 1 0
vn 0 0 0
vn 0 1 0
vn 0 0 0
vn 0 1 0
vn 0 0 0

vt 0 294.7461
vt 0 0
vt 1 294.7461
vt 0 0
vt 0 295.8509
vt 0 295.8509
vt 1 295.8509
vt 1 295.8509
vt 0 296.9266
vt 0 296.9266
vt 1 296.9266
vt 1 296.9266
vt 0 298.0317
vt 0 298.0317
vt 1 298.0317
vt 1 298.0317
vt 0 299.148
vt 0 299.148
vt 1 299.148
vt 1 299.148
vt 0 300.3032
vt 0 300.3032
vt 1 300.3032
vt 1 300.3032
vt 0 301.4823
vt 0 301.4823
vt 1 301.4823
vt 1 301.4823
vt 0 302.6759
vt 0 302.6759
vt 1 302.6759
vt 1 302.6759
vt 0 303.8743
vt 0 303.8743
vt 1 303.8743
vt 1 303.8743
vt 0 305.0327
vt 0 0
vt 1 305.0327
vt 0 0

usemtl GSDWhiteYellowDouble
usemap GSDWhiteYellowDouble
f 5/5/5 1/1/1 3/3/3
f 7/7/7 5/5/5 3/3/3
f 9/9/9 5/5/5 7/7/7
f 11/11/11 9/9/9 7/7/7
f 13/13/13 9/9/9 11/11/11
f 15/15/15 13/13/13 11/11/11
f 17/17/17 13/13/13 15/15/15
f 19/19/19 17/17/17 15/15/15
f 21/21/21 17/17/17 19/19/19
f 23/23/23 21/21/21 19/19/19
f 25/25/25 21/21/21 23/23/23
f 27/27/27 25/25/25 23/23/23
f 29/29/29 25/25/25 27/27/27
f 31/31/31 29/29/29 27/27/27
f 33/33/33 29/29/29 31/31/31
f 35/35/35 33/33/33 31/31/31
f 37/37/37 33/33/33 35/35/35
f 39/39/39 37/37/37 35/35/35
