mtllib ./Road1_0_123.mtl
g Markers61
v -326.9289 33.82864 735.9418
v -326.9289 33.82864 735.9418
v -325.9824 33.82864 745.8969
v -325.9824 33.82864 745.8969
v -321.8246 33.8301 735.4839
v -321.8246 33.8301 735.4839
v -321.0133 33.8301 745.451
v -321.0133 33.8301 745.451
v -316.7062 33.83551 735.109
v -316.7062 33.83551 735.109
v -316.0439 33.83551 745.087
v -316.0439 33.83551 745.087
v -311.6151 33.84855 734.7921
v -311.6151 33.84855 734.7921
v -311.0197 33.84855 744.7742
v -311.0197 33.84855 744.7742
v -306.6218 33.8792 734.4915
v -306.6218 33.8792 734.4915
v -305.999 33.8792 744.4717
v -305.999 33.8792 744.4717
v -301.6594 33.9376 734.1557
v -301.6594 33.9376 734.1557
v -300.9154 33.9376 744.1269
v -300.9154 33.9376 744.1269
v -296.6583 34.03386 733.7341
v -296.6583 34.03386 733.7341
v -295.7072 34.03386 743.6862
v -295.7072 34.03386 743.6862
v -291.7994 34.16979 733.208
v -291.7994 34.16979 733.208
v -290.5852 34.16979 743.129
v -290.5852 34.16979 743.129

vn -0.0002852945 0.9999999 2.712418E-05
vn 0 0 0
vn -0.0002892991 1 2.552519E-05
vn 0 0 0
vn -0.0005450543 0.9999998 4.567709E-05
vn 0 0 0
vn -0.0008102368 0.9999997 6.058984E-05
vn 0 0 0
vn -0.001563127 0.9999988 0.0001090678
vn 0 0 0
vn -0.002078088 0.9999977 0.0001321452
vn 0 0 0
vn -0.003740845 0.9999929 0.0002289278
vn 0 0 0
vn -0.004925677 0.9999878 0.0002994149
vn 0 0 0
vn -0.007962104 0.9999682 0.0004912537
vn 0 0 0
vn -0.009743331 0.9999523 0.0006551228
vn 0 0 0
vn -0.01408441 0.9999002 0.001003754
vn 0 0 0
vn -0.01629869 0.9998662 0.001347012
vn 0 0 0
vn -0.02161366 0.9997646 0.001932702
vn 0 0 0
vn -0.02397311 0.9997094 0.002528048
vn 0 0 0
vn -0.02690965 0.9996336 0.002932045
vn 0 0 0
vn -0.02618048 0.999652 0.003204228
vn 0 0 0

vt 0 874.7072
vt 0 0
vt 1 874.7072
vt 0 0
vt 0 875.7322
vt 0 875.7322
vt 1 875.7322
vt 1 875.7322
vt 0 876.7586
vt 0 876.7586
vt 1 876.7586
vt 1 876.7586
vt 0 877.7788
vt 0 877.7788
vt 1 877.7788
vt 1 877.7788
vt 0 878.7793
vt 0 878.7793
vt 1 878.7793
vt 1 878.7793
vt 0 879.7741
vt 0 879.7741
vt 1 879.7741
vt 1 879.7741
vt 0 880.7781
vt 0 880.7781
vt 1 880.7781
vt 1 880.7781
vt 0 881.7559
vt 0 0
vt 1 881.7559
vt 0 0

usemtl GSDWhiteYellowDouble
usemap GSDWhiteYellowDouble
f 5/5/5 1/1/1 3/3/3
f 7/7/7 5/5/5 3/3/3
f 9/9/9 5/5/5 7/7/7
f 11/11/11 9/9/9 7/7/7
f 13/13/13 9/9/9 11/11/11
f 15/15/15 13/13/13 11/11/11
f 17/17/17 13/13/13 15/15/15
f 19/19/19 17/17/17 15/15/15
f 21/21/21 17/17/17 19/19/19
f 23/23/23 21/21/21 19/19/19
f 25/25/25 21/21/21 23/23/23
f 27/27/27 25/25/25 23/23/23
f 29/29/29 25/25/25 27/27/27
f 31/31/31 29/29/29 27/27/27
