mtllib ./Road1_0_189.mtl
g SCutR50
v -722.3668 21.47666 746.3436
v -722.3668 21.47666 746.3436
v -723.578 21.47666 749.2056
v -723.578 21.47666 749.2056
v -723.578 21.47666 749.2056
v -723.578 21.47666 749.2056
v -724.3663 20.16814 751.0682
v -724.3663 20.16814 751.0682
v -716.7825 21.89467 748.159
v -716.7825 21.89467 748.159
v -717.4802 21.89467 751.1807
v -717.4802 21.89467 751.1807
v -717.4802 21.89467 751.1807
v -717.4802 21.89467 751.1807
v -717.9349 20.77014 753.1498
v -717.9349 20.77014 753.1498
v -711.0998 22.30268 749.004
v -711.0998 22.30268 749.004
v -711.3297 22.30268 752.0925
v -711.3297 22.30268 752.0925
v -711.3297 22.30268 752.0925
v -711.3297 22.30268 752.0925
v -711.4797 21.16289 754.1072
v -711.4797 21.16289 754.1072
v -705.5554 22.7035 749.1185
v -705.5554 22.7035 749.1185
v -705.4825 22.7035 752.2162
v -705.4825 22.7035 752.2162
v -705.4825 22.7035 752.2162
v -705.4825 22.7035 752.2162
v -705.435 21.84061 754.2365
v -705.435 21.84061 754.2365
v -700.2887 23.09844 748.874
v -700.2887 23.09844 748.874
v -700.1009 23.09844 751.9732
v -700.1009 23.09844 751.9732
v -700.1009 23.09844 751.9732
v -700.1009 23.09844 751.9732
v -699.9786 21.84061 753.992
v -699.9786 21.84061 753.992
v -695.2753 23.49197 748.5769
v -695.2753 23.49197 748.5769
v -695.1145 23.49197 751.6877
v -695.1145 23.49197 751.6877
v -695.1145 23.49197 751.6877
v -695.1145 23.49197 751.6877
v -695.01 21.84061 753.71
v -695.01 21.84061 753.71
v -690.4116 23.89078 748.4068
v -690.4116 23.89078 748.4068
v -690.3663 23.89078 751.5344
v -690.3663 23.89078 751.5344
v -690.3663 23.89078 751.5344
v -690.3663 23.89078 751.5344
v -690.337 21.84061 753.5622
v -690.337 21.84061 753.5622

vn -0.0656333 0.9974573 -0.02777563
vn 0 0 0
vn -0.06459781 0.9976913 -0.02095854
vn 0 0 0
vn -0.2186264 0.839591 0.4972821
vn 0 0 0
vn -0.2218324 0.85413 0.4703747
vn 0 0 0
vn -0.06607745 0.9976264 -0.01937499
vn 0 0 0
vn -0.06601469 0.9977491 -0.01177842
vn 0 0 0
vn -0.1922508 0.8611683 0.4705623
vn 0 0 0
vn -0.1603892 0.8705993 0.4651153
vn 0 0 0
vn -0.06877715 0.9975944 -0.0086762
vn 0 0 0
vn -0.06850759 0.9976465 -0.002871608
vn 0 0 0
vn -0.1082877 0.870829 0.4795109
vn 0 0 0
vn -0.1026106 0.8841664 0.4557639
vn 0 0 0
vn -0.07159742 0.9974334 -0.0006605758
vn 0 0 0
vn -0.07192004 0.997407 0.002576614
vn 0 0 0
vn -0.07793625 0.9010978 0.4265545
vn 0 0 0
vn -0.04626254 0.896533 0.4405547
vn 0 0 0
vn -0.07516192 0.9971648 0.003625051
vn 0 0 0
vn -0.07638702 0.9970685 0.004401534
vn 0 0 0
vn -0.01952386 0.873398 0.4866155
vn 0 0 0
vn 0.00892811 0.8249705 0.5651053
vn 0 0 0
vn -0.07931101 0.9968405 0.004332901
vn 0 0 0
vn -0.08118579 0.9966939 0.003180333
vn 0 0 0
vn -0.01402481 0.7991428 0.6009776
vn 0 0 0
vn 0.005543406 0.7507797 0.6605294
vn 0 0 0
vn -0.08260613 0.9965785 0.002727649
vn 0 0 0
vn -0.08365791 0.9964938 0.001209736
vn 0 0 0
vn -0.009673321 0.7379557 0.6747798
vn 0 0 0
vn 0.02247143 0.7031985 0.7106385
vn 0 0 0

vt 0 0
vt 0 0
vt 0.2422363 0.5723999
vt 0.2422363 0.5723999
vt 0.2422363 0.5723999
vt 0.2422363 0.5723999
vt 0.3999023 0.9449341
vt 0.3999023 0.9449341
vt -1.11687 0.363086
vt -1.11687 0.363086
vt -0.9773194 0.9674194
vt -0.9773194 0.9674194
vt -0.9773194 0.9674194
vt -0.9773194 0.9674194
vt -0.8863892 1.361255
vt -0.8863892 1.361255
vt -2.253406 0.5320923
vt -2.253406 0.5320923
vt -2.207422 1.149793
vt -2.207422 1.149793
vt -2.207422 1.149793
vt -2.207422 1.149793
vt -2.177429 1.552722
vt -2.177429 1.552722
vt -3.362293 0.5549927
vt -3.362293 0.5549927
vt -3.376868 1.174536
vt -3.376868 1.174536
vt -3.376868 1.174536
vt -3.376868 1.174536
vt -3.386365 1.578589
vt -3.386365 1.578589
vt -4.415625 0.5060913
vt -4.415625 0.5060913
vt -4.453186 1.125928
vt -4.453186 1.125928
vt -4.453186 1.125928
vt -4.453186 1.125928
vt -4.477649 1.529688
vt -4.477649 1.529688
vt -5.418311 0.4466675
vt -5.418311 0.4466675
vt -5.450464 1.068835
vt -5.450464 1.068835
vt -5.450464 1.068835
vt -5.450464 1.068835
vt -5.471363 1.473279
vt -5.471363 1.473279
vt -6.391052 0.4126465
vt -6.391052 0.4126465
vt -6.400098 1.038171
vt -6.400098 1.038171
vt -6.400098 1.038171
vt -6.400098 1.038171
vt -6.405957 1.443726
vt -6.405957 1.443726

usemtl GSDShoulder1
usemap GSDShoulder1
f 9/9/9 1/1/1 3/3/3
f 11/11/11 9/9/9 3/3/3
f 13/13/13 5/5/5 7/7/7
f 15/15/15 13/13/13 7/7/7
f 17/17/17 9/9/9 11/11/11
f 19/19/19 17/17/17 11/11/11
f 21/21/21 13/13/13 15/15/15
f 23/23/23 21/21/21 15/15/15
f 25/25/25 17/17/17 19/19/19
f 27/27/27 25/25/25 19/19/19
f 29/29/29 21/21/21 23/23/23
f 31/31/31 29/29/29 23/23/23
f 33/33/33 25/25/25 27/27/27
f 35/35/35 33/33/33 27/27/27
f 37/37/37 29/29/29 31/31/31
f 39/39/39 37/37/37 31/31/31
f 41/41/41 33/33/33 35/35/35
f 43/43/43 41/41/41 35/35/35
f 45/45/45 37/37/37 39/39/39
f 47/47/47 45/45/45 39/39/39
f 49/49/49 41/41/41 43/43/43
f 51/51/51 49/49/49 43/43/43
f 53/53/53 45/45/45 47/47/47
f 55/55/55 53/53/53 47/47/47
