mtllib ./Road2_1_6.mtl
g RoadMesh
v -318.8591 0.03 580.28
v -318.8591 0.03 580.28
v -319.3326 0.03 560.2856
v -319.3326 0.03 560.2856
v -323.8776 0.03 580.3987
v -323.8776 0.03 580.3987
v -324.3511 0.03 560.4044
v -324.3511 0.03 560.4044
v -328.8851 0.03 580.5174
v -328.8851 0.03 580.5174
v -329.3586 0.03 560.5229
v -329.3586 0.03 560.5229
v -333.8933 0.03 580.636
v -333.8933 0.03 580.636
v -334.3667 0.03 560.6416
v -334.3667 0.03 560.6416
v -338.9034 0.03 580.7546
v -338.9034 0.03 580.7546
v -339.3768 0.03 560.7603
v -339.3768 0.03 560.7603
v -343.953 0.03 580.8742
v -343.953 0.03 580.8742
v -344.4264 0.03 560.8798
v -344.4264 0.03 560.8798
v -348.9833 0.03 580.9933
v -348.9833 0.03 580.9933
v -349.4568 0.03 560.9989
v -349.4568 0.03 560.9989
v -354.0315 0.03 581.1128
v -354.0315 0.03 581.1128
v -354.5049 0.03 561.1185
v -354.5049 0.03 561.1185
v -359.0296 0.03 581.2311
v -359.0296 0.03 581.2311
v -359.503 0.03 561.2368
v -359.503 0.03 561.2368
v -364.0473 0.03 581.35
v -364.0473 0.03 581.35
v -364.5208 0.03 561.3557
v -364.5208 0.03 561.3557
v -369.0928 0.03 581.4695
v -369.0928 0.03 581.4695
v -369.5663 0.03 561.4752
v -369.5663 0.03 561.4752
v -374.1061 0.03 581.5883
v -374.1061 0.03 581.5883
v -374.5796 0.03 561.5938
v -374.5796 0.03 561.5938
v -379.1416 0.03 581.7075
v -379.1416 0.03 581.7075
v -379.6151 0.03 561.7131
v -379.6151 0.03 561.7131
v -384.1669 0.03 581.8264
v -384.1669 0.03 581.8264
v -384.6403 0.03 561.832
v -384.6403 0.03 561.832
v -389.167 0.03 581.9448
v -389.167 0.03 581.9448
v -389.6404 0.03 561.9504
v -389.6404 0.03 561.9504
v -394.1906 0.03 582.0638
v -394.1906 0.03 582.0638
v -394.6641 0.03 562.0693
v -394.6641 0.03 562.0693
v -399.2205 0.03 582.183
v -399.2205 0.03 582.183
v -399.694 0.03 562.1885
v -399.694 0.03 562.1885

vn 0 1 0
vn 0 0 0
vn 0 1 0
vn 0 0 0
vn 0 1 0
vn 0 0 0
vn 0 1 0
vn 0 0 0
vn 1.239159E-10 1 -2.93422E-12
vn 0 0 0
vn 2.478207E-10 1 -5.868182E-12
vn 0 0 0
vn 2.47777E-10 0.9999999 -5.867146E-12
vn 0 0 0
vn 1.238721E-10 1 -2.933183E-12
vn 0 0 0
vn -2.47063E-10 1 5.850237E-12
vn 0 0 0
vn -4.928354E-10 1 1.166992E-11
vn 0 0 0
vn -4.921774E-10 1 1.165433E-11
vn 0 0 0
vn -2.464023E-10 1 5.834593E-12
vn 0 0 0
vn 0 1 0
vn 0 0 0
vn 0 1 0
vn 0 0 0
vn 0 1 0
vn 0 0 0
vn 0 1 0
vn 0 0 0
vn 2.479829E-10 1 -5.872022E-12
vn 0 0 0
vn 4.953184E-10 1 -1.172871E-11
vn 0 0 0
vn 2.468804E-10 1 -5.845915E-12
vn 0 0 0
vn -2.464262E-10 1 5.835159E-12
vn 0 0 0
vn -3.697483E-10 1 8.755323E-12
vn 0 0 0
vn 0 1 0
vn 0 0 0
vn 2.471906E-10 1 -5.853259E-12
vn 0 0 0
vn 1.23413E-10 1 -2.922313E-12
vn 0 0 0
vn 0 1 0
vn 0 0 0
vn 0 1 0
vn 0 0 0
vn -1.236895E-10 1 2.928863E-12
vn 0 0 0
vn -2.477941E-10 1 5.867549E-12
vn 0 0 0
vn -1.239106E-10 1 2.934097E-12
vn 0 0 0
vn 1.237166E-10 1 -2.929502E-12
vn 0 0 0
vn 2.469429E-10 1 -5.847396E-12
vn 0 0 0
vn 1.234197E-10 1 -2.922473E-12
vn 0 0 0
vn 0 1 0
vn 0 0 0
vn 0 1 0
vn 0 0 0

vt 0 0
vt 0 0
vt 1 0
vt 0 0
vt 0 1.003986
vt 0 1.003986
vt 1 1.003986
vt 1 1.003986
vt 0 2.005762
vt 0 2.005762
vt 1 2.005762
vt 1 2.005762
vt 0 3.007673
vt 0 3.007673
vt 1 3.007673
vt 1 3.007673
vt 0 4.00998
vt 0 4.00998
vt 1 4.00998
vt 1 4.00998
vt 0 5.020181
vt 0 5.020181
vt 1 5.020181
vt 1 5.020181
vt 0 6.02653
vt 0 6.02653
vt 1 6.02653
vt 1 6.02653
vt 0 7.036445
vt 0 7.036445
vt 1 7.036445
vt 1 7.036445
vt 0 8.036346
vt 0 8.036346
vt 1 8.036346
vt 1 8.036346
vt 0 9.040174
vt 0 9.040174
vt 1 9.040174
vt 1 9.040174
vt 0 10.04956
vt 0 10.04956
vt 1 10.04956
vt 1 10.04956
vt 0 11.0525
vt 0 11.0525
vt 1 11.0525
vt 1 11.0525
vt 0 12.05989
vt 0 12.05989
vt 1 12.05989
vt 1 12.05989
vt 0 13.06522
vt 0 13.06522
vt 1 13.06522
vt 1 13.06522
vt 0 14.06551
vt 0 14.06551
vt 1 14.06551
vt 1 14.06551
vt 0 15.07052
vt 0 15.07052
vt 1 15.07052
vt 1 15.07052
vt 0 16.07679
vt 0 16.07679
vt 1 16.07679
vt 1 16.07679

usemtl GSDWhiteYellowDouble-4L
usemap GSDWhiteYellowDouble-4L
f 5/5/5 1/1/1 3/3/3
f 7/7/7 5/5/5 3/3/3
f 9/9/9 5/5/5 7/7/7
f 11/11/11 9/9/9 7/7/7
f 13/13/13 9/9/9 11/11/11
f 15/15/15 13/13/13 11/11/11
f 17/17/17 13/13/13 15/15/15
f 19/19/19 17/17/17 15/15/15
f 21/21/21 17/17/17 19/19/19
f 23/23/23 21/21/21 19/19/19
f 25/25/25 21/21/21 23/23/23
f 27/27/27 25/25/25 23/23/23
f 29/29/29 25/25/25 27/27/27
f 31/31/31 29/29/29 27/27/27
f 33/33/33 29/29/29 31/31/31
f 35/35/35 33/33/33 31/31/31
f 37/37/37 33/33/33 35/35/35
f 39/39/39 37/37/37 35/35/35
f 41/41/41 37/37/37 39/39/39
f 43/43/43 41/41/41 39/39/39
f 45/45/45 41/41/41 43/43/43
f 47/47/47 45/45/45 43/43/43
f 49/49/49 45/45/45 47/47/47
f 51/51/51 49/49/49 47/47/47
f 53/53/53 49/49/49 51/51/51
f 55/55/55 53/53/53 51/51/51
f 57/57/57 53/53/53 55/55/55
f 59/59/59 57/57/57 55/55/55
f 61/61/61 57/57/57 59/59/59
f 63/63/63 61/61/61 59/59/59
f 65/65/65 61/61/61 63/63/63
f 67/67/67 65/65/65 63/63/63
