mtllib ./Road1_0_100.mtl
g RoadCut50
v -718.4829 21.47666 737.166
v -718.4829 21.47666 737.166
v -722.3668 21.47666 746.3436
v -722.3668 21.47666 746.3436
v -714.5403 21.89467 738.4487
v -714.5403 21.89467 738.4487
v -716.7825 21.89467 748.159
v -716.7825 21.89467 748.159
v -710.3599 22.30268 739.0637
v -710.3599 22.30268 739.0637
v -711.0998 22.30268 749.004
v -711.0998 22.30268 749.004
v -705.7896 22.7035 739.1517
v -705.7896 22.7035 739.1517
v -705.5554 22.7035 749.1185
v -705.5554 22.7035 749.1185
v -700.8917 23.09844 738.9221
v -700.8917 23.09844 738.9221
v -700.2887 23.09844 748.874
v -700.2887 23.09844 748.874
v -695.7898 23.49197 738.6206
v -695.7898 23.49197 738.6206
v -695.2753 23.49197 748.5769
v -695.2753 23.49197 748.5769
v -690.5555 23.89078 738.4395
v -690.5555 23.89078 738.4395
v -690.4116 23.89078 748.4068
v -690.4116 23.89078 748.4068

vn -0.09271794 0.994919 -0.03923768
vn 0 0 0
vn -0.07910479 0.9965361 -0.02565678
vn 0 0 0
vn -0.08351764 0.9962055 -0.02448071
vn 0 0 0
vn -0.07650335 0.9969759 -0.01364493
vn 0 0 0
vn -0.08272381 0.996518 -0.01043023
vn 0 0 0
vn -0.07602604 0.9971007 -0.003187208
vn 0 0 0
vn -0.07939818 0.9968427 -0.0007339467
vn 0 0 0
vn -0.07549731 0.9971424 0.00270232
vn 0 0 0
vn -0.07709279 0.997017 0.003716137
vn 0 0 0
vn -0.07637705 0.9970693 0.004401224
vn 0 0 0
vn -0.07681224 0.9970368 0.004196734
vn 0 0 0
vn -0.07844038 0.996914 0.003074962
vn 0 0 0
vn -0.07865153 0.9968988 0.002599325
vn 0 0 0
vn -0.08168091 0.9966578 0.001179417
vn 0 0 0

vt 0 0
vt 0 0
vt 0.7767822 1.835523
vt 0.7767822 1.835523
vt -0.7885254 0.256543
vt -0.7885254 0.256543
vt -0.3400879 2.198608
vt -0.3400879 2.198608
vt -1.624597 0.3795532
vt -1.624597 0.3795532
vt -1.476624 2.367615
vt -1.476624 2.367615
vt -2.53866 0.3971558
vt -2.53866 0.3971558
vt -2.58551 2.390515
vt -2.58551 2.390515
vt -3.518237 0.3512329
vt -3.518237 0.3512329
vt -3.638843 2.341614
vt -3.638843 2.341614
vt -4.538623 0.2909302
vt -4.538623 0.2909302
vt -4.641529 2.28219
vt -4.641529 2.28219
vt -5.585486 0.2547119
vt -5.585486 0.2547119
vt -5.61427 2.248169
vt -5.61427 2.248169

usemtl GSDRoad1
usemap GSDRoad1
f 5/5/5 1/1/1 3/3/3
f 7/7/7 5/5/5 3/3/3
f 9/9/9 5/5/5 7/7/7
f 11/11/11 9/9/9 7/7/7
f 13/13/13 9/9/9 11/11/11
f 15/15/15 13/13/13 11/11/11
f 17/17/17 13/13/13 15/15/15
f 19/19/19 17/17/17 15/15/15
f 21/21/21 17/17/17 19/19/19
f 23/23/23 21/21/21 19/19/19
f 25/25/25 21/21/21 23/23/23
f 27/27/27 25/25/25 23/23/23
