mtllib ./Road1_0_203.mtl
g SCutR64
v -206.1068 40.001 725.3024
v -206.1068 40.001 725.3024
v -205.4019 40.001 728.3716
v -205.4019 40.001 728.3716
v -205.4019 40.001 728.3716
v -205.4019 40.001 728.3716
v -204.9467 37.95303 730.3533
v -204.9467 37.95303 730.3533
v -201.2454 40.40624 724.2367
v -201.2454 40.40624 724.2367
v -200.5983 40.40624 727.3196
v -200.5983 40.40624 727.3196
v -200.5983 40.40624 727.3196
v -200.5983 40.40624 727.3196
v -200.1805 38.42325 729.3098
v -200.1805 38.42325 729.3098
v -196.2909 40.81355 723.2266
v -196.2909 40.81355 723.2266
v -195.6743 40.81355 726.3168
v -195.6743 40.81355 726.3168
v -195.6743 40.81355 726.3168
v -195.6743 40.81355 726.3168
v -195.2764 38.73995 728.3113
v -195.2764 38.73995 728.3113
v -191.3757 41.21329 722.2515
v -191.3757 41.21329 722.2515
v -190.7612 41.21329 725.3431
v -190.7612 41.21329 725.3431
v -190.7612 41.21329 725.3431
v -190.7612 41.21329 725.3431
v -190.3647 39.25019 727.3382
v -190.3647 39.25019 727.3382
v -186.3971 41.61517 721.2451
v -186.3971 41.61517 721.2451
v -185.7579 41.61517 724.3325
v -185.7579 41.61517 724.3325
v -185.7579 41.61517 724.3325
v -185.7579 41.61517 724.3325
v -185.3455 39.59959 726.3245
v -185.3455 39.59959 726.3245
v -181.3723 42.019 720.165
v -181.3723 42.019 720.165
v -180.682 42.019 723.2421
v -180.682 42.019 723.2421
v -180.682 42.019 723.2421
v -180.682 42.019 723.2421
v -180.2366 40.10262 725.2272
v -180.2366 40.10262 725.2272
v -176.3185 42.4246 718.9678
v -176.3185 42.4246 718.9678
v -175.5508 42.4246 722.0272
v -175.5508 42.4246 722.0272
v -175.5508 42.4246 722.0272
v -175.5508 42.4246 722.0272
v -175.0556 40.4571 724.0005
v -175.0556 40.4571 724.0005
v -171.2529 42.83176 717.6089
v -171.2529 42.83176 717.6089
v -170.3821 42.83176 720.6411
v -170.3821 42.83176 720.6411
v -170.3821 42.83176 720.6411
v -170.3821 42.83176 720.6411
v -169.8204 40.76657 722.5967
v -169.8204 40.76657 722.5967
v -166.1934 43.2403 716.0429
v -166.1934 43.2403 716.0429
v -165.1947 43.2403 719.0359
v -165.1947 43.2403 719.0359
v -165.1947 43.2403 719.0359
v -165.1947 43.2403 719.0359
v -164.5506 41.23592 720.9661
v -164.5506 41.23592 720.9661

vn -0.07910094 0.9967011 0.01816757
vn 0 0 0
vn -0.07973757 0.9966619 0.01752378
vn 0 0 0
vn 0.09502251 0.7030606 0.7047528
vn 0 0 0
vn 0.08840662 0.7087654 0.6998828
vn 0 0 0
vn -0.07934669 0.9966992 0.01717572
vn 0 0 0
vn -0.07938898 0.996709 0.01638873
vn 0 0 0
vn 0.08637293 0.7107301 0.6981421
vn 0 0 0
vn 0.08775961 0.7095234 0.6991958
vn 0 0 0
vn -0.07859849 0.9967787 0.01595593
vn 0 0 0
vn -0.07841489 0.9967983 0.01562607
vn 0 0 0
vn 0.08840955 0.7044236 0.7042522
vn 0 0 0
vn 0.08204339 0.7054592 0.7039859
vn 0 0 0
vn -0.07778963 0.9968497 0.01548114
vn 0 0 0
vn -0.07741436 0.9968769 0.01559997
vn 0 0 0
vn 0.07628728 0.711744 0.6982841
vn 0 0 0
vn 0.07898147 0.7151787 0.6944649
vn 0 0 0
vn -0.0769762 0.9969089 0.01572378
vn 0 0 0
vn -0.07641033 0.9969438 0.01625977
vn 0 0 0
vn 0.08911412 0.7124284 0.6960635
vn 0 0 0
vn 0.08696304 0.7149209 0.6937764
vn 0 0 0
vn -0.07611594 0.9969602 0.01663677
vn 0 0 0
vn -0.07534102 0.997003 0.01756926
vn 0 0 0
vn 0.09080468 0.7208343 0.6871334
vn 0 0 0
vn 0.09759045 0.7235759 0.683311
vn 0 0 0
vn -0.07514518 0.9970067 0.01818964
vn 0 0 0
vn -0.07412715 0.9970583 0.01949335
vn 0 0 0
vn 0.1146809 0.7209755 0.6834052
vn 0 0 0
vn 0.129014 0.7121884 0.6900313
vn 0 0 0
vn -0.07397544 0.9970525 0.02034695
vn 0 0 0
vn -0.07267213 0.9971135 0.02198811
vn 0 0 0
vn 0.14439 0.7067368 0.6925855
vn 0 0 0
vn 0.1517012 0.7042068 0.693599
vn 0 0 0
vn -0.07254319 0.9971112 0.02250858
vn 0 0 0
vn -0.07118474 0.9971803 0.0237522
vn 0 0 0
vn 0.1546336 0.7058617 0.6912652
vn 0 0 0
vn 0.1495396 0.710358 0.6877714
vn 0 0 0

vt 0 0
vt 0 0
vt -0.1409821 0.6138306
vt -0.1409821 0.6138306
vt -0.1409821 0.6138306
vt -0.1409821 0.6138306
vt -0.2320099 1.010168
vt -0.2320099 1.010168
vt -0.9722778 -0.213147
vt -0.9722778 -0.213147
vt -1.101703 0.4034424
vt -1.101703 0.4034424
vt -1.101703 0.4034424
vt -1.101703 0.4034424
vt -1.185254 0.8014771
vt -1.185254 0.8014771
vt -1.963168 -0.4151734
vt -1.963168 -0.4151734
vt -2.08649 0.2028809
vt -2.08649 0.2028809
vt -2.08649 0.2028809
vt -2.08649 0.2028809
vt -2.166086 0.6017823
vt -2.166086 0.6017823
vt -2.946225 -0.6101807
vt -2.946225 -0.6101807
vt -3.069119 0.00814209
vt -3.069119 0.00814209
vt -3.069119 0.00814209
vt -3.069119 0.00814209
vt -3.148422 0.4071533
vt -3.148422 0.4071533
vt -3.941943 -0.8114624
vt -3.941943 -0.8114624
vt -4.069776 -0.1939819
vt -4.069776 -0.1939819
vt -4.069776 -0.1939819
vt -4.069776 -0.1939819
vt -4.152256 0.2044189
vt -4.152256 0.2044189
vt -4.94689 -1.027478
vt -4.94689 -1.027478
vt -5.084961 -0.4120606
vt -5.084961 -0.4120606
vt -5.084961 -0.4120606
vt -5.084961 -0.4120606
vt -5.174033 -0.01503906
vt -5.174033 -0.01503906
vt -5.957657 -1.266919
vt -5.957657 -1.266919
vt -6.111203 -0.6550537
vt -6.111203 -0.6550537
vt -6.111203 -0.6550537
vt -6.111203 -0.6550537
vt -6.210245 -0.260376
vt -6.210245 -0.260376
vt -6.970783 -1.538709
vt -6.970783 -1.538709
vt -7.144943 -0.9322754
vt -7.144943 -0.9322754
vt -7.144943 -0.9322754
vt -7.144943 -0.9322754
vt -7.257272 -0.5411499
vt -7.257272 -0.5411499
vt -7.982681 -1.851904
vt -7.982681 -1.851904
vt -8.182419 -1.253296
vt -8.182419 -1.253296
vt -8.182419 -1.253296
vt -8.182419 -1.253296
vt -8.311228 -0.8672608
vt -8.311228 -0.8672608

usemtl GSDShoulder1
usemap GSDShoulder1
f 9/9/9 1/1/1 3/3/3
f 11/11/11 9/9/9 3/3/3
f 13/13/13 5/5/5 7/7/7
f 15/15/15 13/13/13 7/7/7
f 17/17/17 9/9/9 11/11/11
f 19/19/19 17/17/17 11/11/11
f 21/21/21 13/13/13 15/15/15
f 23/23/23 21/21/21 15/15/15
f 25/25/25 17/17/17 19/19/19
f 27/27/27 25/25/25 19/19/19
f 29/29/29 21/21/21 23/23/23
f 31/31/31 29/29/29 23/23/23
f 33/33/33 25/25/25 27/27/27
f 35/35/35 33/33/33 27/27/27
f 37/37/37 29/29/29 31/31/31
f 39/39/39 37/37/37 31/31/31
f 41/41/41 33/33/33 35/35/35
f 43/43/43 41/41/41 35/35/35
f 45/45/45 37/37/37 39/39/39
f 47/47/47 45/45/45 39/39/39
f 49/49/49 41/41/41 43/43/43
f 51/51/51 49/49/49 43/43/43
f 53/53/53 45/45/45 47/47/47
f 55/55/55 53/53/53 47/47/47
f 57/57/57 49/49/49 51/51/51
f 59/59/59 57/57/57 51/51/51
f 61/61/61 53/53/53 55/55/55
f 63/63/63 61/61/61 55/55/55
f 65/65/65 57/57/57 59/59/59
f 67/67/67 65/65/65 59/59/59
f 69/69/69 61/61/61 63/63/63
f 71/71/71 69/69/69 63/63/63
