mtllib ./Road1_0_108.mtl
g RoadCut54
v -574.1937 33.2222 734.4104
v -574.1937 33.2222 734.4104
v -574.4381 33.2222 744.39
v -574.4381 33.2222 744.39
v -569.0411 33.49459 734.6083
v -569.0411 33.49459 734.6083
v -569.5807 33.49459 744.5809
v -569.5807 33.49459 744.5809
v -563.9363 33.73309 734.9476
v -563.9363 33.73309 734.9476
v -564.7131 33.73309 744.9074
v -564.7131 33.73309 744.9074
v -558.8231 33.94371 735.3884
v -558.8231 33.94371 735.3884
v -559.7541 33.94371 745.3374
v -559.7541 33.94371 745.3374
v -553.702 34.12727 735.8895
v -553.702 34.12727 735.8895
v -554.7081 34.12727 745.8333
v -554.7081 34.12727 745.8333
v -548.7029 34.28098 736.3973
v -548.7029 34.28098 736.3973
v -549.7081 34.28098 746.3428
v -549.7081 34.28098 746.3428
v -543.7004 34.41047 736.887
v -543.7004 34.41047 736.887
v -544.6337 34.41047 746.8406
v -544.6337 34.41047 746.8406
v -538.696 34.51652 737.3227
v -538.696 34.51652 737.3227
v -539.4871 34.51652 747.2896
v -539.4871 34.51652 747.2896
v -533.6927 34.59986 737.6689
v -533.6927 34.59986 737.6689
v -534.2719 34.59986 747.6511
v -534.2719 34.59986 747.6511

vn -0.0527419 0.9986074 -0.001291565
vn 0 0 0
vn -0.05426086 0.9985244 -0.002131952
vn 0 0 0
vn -0.05163844 0.9986633 -0.002261761
vn 0 0 0
vn -0.05028496 0.9987301 -0.003102478
vn 0 0 0
vn -0.045299 0.9989685 -0.003157158
vn 0 0 0
vn -0.04382376 0.9990327 -0.003635673
vn 0 0 0
vn -0.03946103 0.9992151 -0.003478337
vn 0 0 0
vn -0.0378251 0.9992777 -0.003630986
vn 0 0 0
vn -0.03398957 0.9994165 -0.003347992
vn 0 0 0
vn -0.03228824 0.9994732 -0.003265872
vn 0 0 0
vn -0.02881914 0.9995804 -0.002913983
vn 0 0 0
vn -0.02709624 0.9996291 -0.002676532
vn 0 0 0
vn -0.02397897 0.9997098 -0.002310433
vn 0 0 0
vn -0.02224936 0.9997505 -0.001986531
vn 0 0 0
vn -0.01935871 0.9998112 -0.00163632
vn 0 0 0
vn -0.01765029 0.9998435 -0.001285587
vn 0 0 0
vn -0.01623289 0.9998676 -0.001114985
vn 0 0 0
vn -0.015915 0.9998729 -0.0009234805
vn 0 0 0

vt 0 0
vt 0 0
vt 0.04887695 1.995923
vt 0.04887695 1.995923
vt -1.030518 0.0395874
vt -1.030518 0.0395874
vt -0.9226074 2.034094
vt -0.9226074 2.034094
vt -2.051477 0.1074341
vt -2.051477 0.1074341
vt -1.89613 2.099402
vt -1.89613 2.099402
vt -3.074133 0.1956055
vt -3.074133 0.1956055
vt -2.887927 2.1854
vt -2.887927 2.1854
vt -4.09834 0.2958252
vt -4.09834 0.2958252
vt -3.897119 2.28457
vt -3.897119 2.28457
vt -5.098169 0.3973877
vt -5.098169 0.3973877
vt -4.897119 2.386475
vt -4.897119 2.386475
vt -6.098657 0.4953125
vt -6.098657 0.4953125
vt -5.912012 2.486035
vt -5.912012 2.486035
vt -7.099536 0.5824585
vt -7.099536 0.5824585
vt -6.941333 2.575842
vt -6.941333 2.575842
vt -8.100207 0.6516968
vt -8.100207 0.6516968
vt -7.984363 2.648132
vt -7.984363 2.648132

usemtl GSDRoad1
usemap GSDRoad1
f 5/5/5 1/1/1 3/3/3
f 7/7/7 5/5/5 3/3/3
f 9/9/9 5/5/5 7/7/7
f 11/11/11 9/9/9 7/7/7
f 13/13/13 9/9/9 11/11/11
f 15/15/15 13/13/13 11/11/11
f 17/17/17 13/13/13 15/15/15
f 19/19/19 17/17/17 15/15/15
f 21/21/21 17/17/17 19/19/19
f 23/23/23 21/21/21 19/19/19
f 25/25/25 21/21/21 23/23/23
f 27/27/27 25/25/25 23/23/23
f 29/29/29 25/25/25 27/27/27
f 31/31/31 29/29/29 27/27/27
f 33/33/33 29/29/29 31/31/31
f 35/35/35 33/33/33 31/31/31
