mtllib ./Road8_2_34.mtl
g Markers9
v -558.6985 6.531506 112.9638
v -558.6985 6.531506 112.9638
v -555.2044 6.531506 122.3191
v -555.2044 6.531506 122.3191
v -553.3423 6.75166 111.2967
v -553.3423 6.75166 111.2967
v -550.9827 6.75166 121.0072
v -550.9827 6.75166 121.0072
v -547.8567 6.919006 110.3014
v -547.8567 6.919006 110.3014
v -546.5653 6.919006 120.2131
v -546.5653 6.919006 120.2131
v -542.4955 7.058662 109.7916
v -542.4955 7.058662 109.7916
v -541.851 7.058662 119.7676
v -541.851 7.058662 119.7676
v -537.2903 7.177641 109.571
v -537.2903 7.177641 109.571
v -537.0635 7.177641 119.566
v -537.0635 7.177641 119.566
v -532.1279 7.283273 109.5322
v -532.1279 7.283273 109.5322
v -532.1882 7.283273 119.53
v -532.1882 7.283273 119.53
v -527.0062 7.37844 109.6173
v -527.0062 7.37844 109.6173
v -527.2669 7.37844 119.6122
v -527.2669 7.37844 119.6122
v -521.9006 7.465566 109.7881
v -521.9006 7.465566 109.7881
v -522.3004 7.465566 119.7788
v -522.3004 7.465566 119.7788
v -516.8606 7.5453 110.0144
v -516.8606 7.5453 110.0144
v -517.3511 7.5453 120.0012
v -517.3511 7.5453 120.0012
v -511.8373 7.619559 110.2757
v -511.8373 7.619559 110.2757
v -512.3802 7.619559 120.2599
v -512.3802 7.619559 120.2599
v -506.774 7.689941 110.5571
v -506.774 7.689941 110.5571
v -507.3356 7.689941 120.5404
v -507.3356 7.689941 120.5404
v -501.7043 7.756579 110.8401
v -501.7043 7.756579 110.8401
v -502.252 7.756579 120.8243
v -502.252 7.756579 120.8243
v -496.6613 7.819617 111.1064
v -496.6613 7.819617 111.1064
v -497.1626 7.819617 121.0931
v -497.1626 7.819617 121.0931
v -491.6805 7.879189 111.3377
v -491.6805 7.879189 111.3377
v -492.1011 7.879189 121.3282
v -492.1011 7.879189 121.3282
v -486.709 7.936424 111.5188
v -486.709 7.936424 111.5188
v -487.0089 7.936424 121.5136
v -487.0089 7.936424 121.5136
v -481.7912 7.991295 111.6273
v -481.7912 7.991295 111.6273
v -481.9234 7.991295 121.6258
v -481.9234 7.991295 121.6258
v -476.897 8.044646 111.6386
v -476.897 8.044646 111.6386
v -476.7992 8.044646 121.6376
v -476.7992 8.044646 121.6376
v -472.0206 8.097122 111.5178
v -472.0206 8.097122 111.5178
v -471.6053 8.097122 121.5086
v -471.6053 8.097122 121.5086
v -467.1954 8.149159 111.2156
v -467.1954 8.149159 111.2156
v -466.3333 8.149159 121.1779
v -466.3333 8.149159 121.1779
v -462.5127 8.201002 110.667
v -462.5127 8.201002 110.667
v -461.0021 8.201002 120.5517
v -461.0021 8.201002 120.5517
v -458.0993 8.253365 109.7825
v -458.0993 8.253365 109.7825
v -455.5959 8.253365 119.4635
v -455.5959 8.253365 119.4635

vn -0.03679323 0.9992285 0.01374197
vn 0 0 0
vn -0.04192306 0.9990379 0.01287154
vn 0 0 0
vn -0.0373808 0.9992426 0.0108089
vn 0 0 0
vn -0.03748735 0.9992666 0.007816598
vn 0 0 0
vn -0.03025331 0.9995291 0.005128673
vn 0 0 0
vn -0.0303862 0.9995327 0.003332182
vn 0 0 0
vn -0.02587123 0.9996628 0.002264816
vn 0 0 0
vn -0.02558415 0.9996719 0.001314622
vn 0 0 0
vn -0.02263622 0.9997435 0.0008418157
vn 0 0 0
vn -0.02226223 0.9997521 0.0003005998
vn 0 0 0
vn -0.02020806 0.9997957 7.816686E-05
vn 0 0 0
vn -0.01983202 0.9998033 -0.0002474877
vn 0 0 0
vn -0.01830437 0.9998325 -0.0003515729
vn 0 0 0
vn -0.01795057 0.9998388 -0.0005491112
vn 0 0 0
vn -0.0167821 0.9998589 -0.0005913394
vn 0 0 0
vn -0.01645663 0.9998643 -0.0007069155
vn 0 0 0
vn -0.01553292 0.9998791 -0.0007146466
vn 0 0 0
vn -0.01523413 0.9998837 -0.0007742894
vn 0 0 0
vn -0.0144956 0.9998947 -0.000762361
vn 0 0 0
vn -0.01421601 0.9998987 -0.0007817748
vn 0 0 0
vn -0.01362148 0.999907 -0.0007575831
vn 0 0 0
vn -0.0133576 0.9999105 -0.0007453361
vn 0 0 0
vn -0.01287845 0.9999168 -0.000712648
vn 0 0 0
vn -0.01262802 0.9999201 -0.0006735502
vn 0 0 0
vn -0.01225066 0.9999248 -0.0006343483
vn 0 0 0
vn -0.01201084 0.9999277 -0.0005710571
vn 0 0 0
vn -0.01172402 0.9999312 -0.0005255749
vn 0 0 0
vn -0.0114884 0.999934 -0.0004379121
vn 0 0 0
vn -0.0112903 0.9999362 -0.0003849039
vn 0 0 0
vn -0.01105314 0.9999389 -0.0002706767
vn 0 0 0
vn -0.01094337 0.9999401 -0.0002064369
vn 0 0 0
vn -0.01069575 0.9999428 -6.011967E-05
vn 0 0 0
vn -0.01068535 0.9999429 2.218281E-05
vn 0 0 0
vn -0.01041358 0.9999457 0.0002115252
vn 0 0 0
vn -0.01052534 0.9999446 0.0003255819
vn 0 0 0
vn -0.01020681 0.9999478 0.0005764856
vn 0 0 0
vn -0.01048606 0.9999447 0.0007496959
vn 0 0 0
vn -0.01007505 0.9999486 0.001093015
vn 0 0 0
vn -0.01061172 0.9999427 0.001386797
vn 0 0 0
vn -0.01000141 0.9999483 0.001877325
vn 0 0 0
vn -0.01024218 0.9999453 0.002101221
vn 0 0 0
vn -0.009206067 0.9999549 0.002380546
vn 0 0 0

vt 0 142.2556
vt 0 0
vt 1 142.2556
vt 0 0
vt 0 143.3784
vt 0 143.3784
vt 1 143.3784
vt 1 143.3784
vt 0 144.4939
vt 0 144.4939
vt 1 144.4939
vt 1 144.4939
vt 0 145.5714
vt 0 145.5714
vt 1 145.5714
vt 1 145.5714
vt 0 146.6136
vt 0 146.6136
vt 1 146.6136
vt 1 146.6136
vt 0 147.6463
vt 0 147.6463
vt 1 147.6463
vt 1 147.6463
vt 0 148.671
vt 0 148.671
vt 1 148.671
vt 1 148.671
vt 0 149.6928
vt 0 149.6928
vt 1 149.6928
vt 1 149.6928
vt 0 150.702
vt 0 150.702
vt 1 150.702
vt 1 150.702
vt 0 151.7081
vt 0 151.7081
vt 1 151.7081
vt 1 151.7081
vt 0 152.7224
vt 0 152.7224
vt 1 152.7224
vt 1 152.7224
vt 0 153.738
vt 0 153.738
vt 1 153.738
vt 1 153.738
vt 0 154.7481
vt 0 154.7481
vt 1 154.7481
vt 1 154.7481
vt 0 155.7454
vt 0 155.7454
vt 1 155.7454
vt 1 155.7454
vt 0 156.7404
vt 0 156.7404
vt 1 156.7404
vt 1 156.7404
vt 0 157.7243
vt 0 157.7243
vt 1 157.7243
vt 1 157.7243
vt 0 158.7032
vt 0 158.7032
vt 1 158.7032
vt 1 158.7032
vt 0 159.6788
vt 0 159.6788
vt 1 159.6788
vt 1 159.6788
vt 0 160.6458
vt 0 160.6458
vt 1 160.6458
vt 1 160.6458
vt 0 161.5888
vt 0 161.5888
vt 1 161.5888
vt 1 161.5888
vt 0 162.4891
vt 0 162.4891
vt 1 162.4891
vt 1 162.4891

usemtl GSDWhiteYellowDouble
usemap GSDWhiteYellowDouble
f 5/5/5 1/1/1 3/3/3
f 7/7/7 5/5/5 3/3/3
f 9/9/9 5/5/5 7/7/7
f 11/11/11 9/9/9 7/7/7
f 13/13/13 9/9/9 11/11/11
f 15/15/15 13/13/13 11/11/11
f 17/17/17 13/13/13 15/15/15
f 19/19/19 17/17/17 15/15/15
f 21/21/21 17/17/17 19/19/19
f 23/23/23 21/21/21 19/19/19
f 25/25/25 21/21/21 23/23/23
f 27/27/27 25/25/25 23/23/23
f 29/29/29 25/25/25 27/27/27
f 31/31/31 29/29/29 27/27/27
f 33/33/33 29/29/29 31/31/31
f 35/35/35 33/33/33 31/31/31
f 37/37/37 33/33/33 35/35/35
f 39/39/39 37/37/37 35/35/35
f 41/41/41 37/37/37 39/39/39
f 43/43/43 41/41/41 39/39/39
f 45/45/45 41/41/41 43/43/43
f 47/47/47 45/45/45 43/43/43
f 49/49/49 45/45/45 47/47/47
f 51/51/51 49/49/49 47/47/47
f 53/53/53 49/49/49 51/51/51
f 55/55/55 53/53/53 51/51/51
f 57/57/57 53/53/53 55/55/55
f 59/59/59 57/57/57 55/55/55
f 61/61/61 57/57/57 59/59/59
f 63/63/63 61/61/61 59/59/59
f 65/65/65 61/61/61 63/63/63
f 67/67/67 65/65/65 63/63/63
f 69/69/69 65/65/65 67/67/67
f 71/71/71 69/69/69 67/67/67
f 73/73/73 69/69/69 71/71/71
f 75/75/75 73/73/73 71/71/71
f 77/77/77 73/73/73 75/75/75
f 79/79/79 77/77/77 75/75/75
f 81/81/81 77/77/77 79/79/79
f 83/83/83 81/81/81 79/79/79
