mtllib ./Road7_2_19.mtl
g SCutR3
v -98.0354 0.03 313.8768
v -98.0354 0.03 313.8768
v -95.11359 0.03 313.1963
v -95.11359 0.03 313.1963
v -95.11359 0.03 313.1963
v -95.11359 0.03 313.1963
v -91.9483 -0.67 312.4591
v -91.9483 -0.67 312.4591
v -100.1029 0.03 307.4216
v -100.1029 0.03 307.4216
v -97.34542 0.03 306.2399
v -97.34542 0.03 306.2399
v -97.34542 0.03 306.2399
v -97.34542 0.03 306.2399
v -94.35814 -0.67 304.9598
v -94.35814 -0.67 304.9598
v -103.4386 0.03 301.3793
v -103.4386 0.03 301.3793
v -100.9557 0.03 299.6955
v -100.9557 0.03 299.6955
v -100.9557 0.03 299.6955
v -100.9557 0.03 299.6955
v -98.26585 -0.67 297.8714
v -98.26585 -0.67 297.8714
v -107.4066 0.03 296.3427
v -107.4066 0.03 296.3427
v -105.1767 0.03 294.3358
v -105.1767 0.03 294.3358
v -105.1767 0.03 294.3358
v -105.1767 0.03 294.3358
v -102.761 -0.67 292.1617
v -102.761 -0.67 292.1617
v -111.6994 0.03 292.0515
v -111.6994 0.03 292.0515
v -109.6849 0.03 289.8285
v -109.6849 0.03 289.8285
v -109.6849 0.03 289.8285
v -109.6849 0.03 289.8285
v -107.5025 -0.67 287.4202
v -107.5025 -0.67 287.4202
v -116.1955 0.03 288.3034
v -116.1955 0.03 288.3034
v -114.3659 0.03 285.9259
v -114.3659 0.03 285.9259
v -114.3659 0.03 285.9259
v -114.3659 0.03 285.9259
v -112.3838 -0.67 283.3503
v -112.3838 -0.67 283.3503
v -120.8157 0.03 284.9955
v -120.8157 0.03 284.9955
v -119.1518 0.03 282.4992
v -119.1518 0.03 282.4992
v -119.1518 0.03 282.4992
v -119.1518 0.03 282.4992
v -117.3493 -0.67 279.7949
v -117.3493 -0.67 279.7949

vn 6.253725E-11 1 2.685185E-10
vn 0 0 0
vn 8.241148E-11 1 2.513474E-10
vn 0 0 0
vn 0.2011304 0.9774367 -0.06452888
vn 0 0 0
vn 0.2012227 0.9774123 -0.0646118
vn 0 0 0
vn 2.021834E-11 1 8.681223E-11
vn 0 0 0
vn -4.843626E-11 1 -7.142491E-11
vn 0 0 0
vn 0.1959882 0.9775774 -0.07701298
vn 0 0 0
vn 0.1906391 0.9775661 -0.08956174
vn 0 0 0
vn -3.543231E-11 1 -8.26853E-11
vn 0 0 0
vn 6.03536E-11 1 6.705898E-11
vn 0 0 0
vn 0.1792997 0.9775326 -0.1108227
vn 0 0 0
vn 0.1728725 0.9775839 -0.1201866
vn 0 0 0
vn 5.426701E-11 1 8.002303E-11
vn 0 0 0
vn -7.175058E-11 1 -6.502228E-11
vn 0 0 0
vn 0.1605949 0.9775583 -0.1363419
vn 0 0 0
vn 0.155042 0.977582 -0.142462
vn 0 0 0
vn -6.817487E-11 1 -7.574919E-11
vn 0 0 0
vn 8.063967E-11 1 6.205619E-11
vn 0 0 0
vn 0.1445792 0.9775702 -0.1531455
vn 0 0 0
vn 0.1398859 0.9775808 -0.1573767
vn 0 0 0
vn 2.45927E-10 0.9999999 1.99961E-10
vn 0 0 0
vn 2.550598E-10 1 1.872372E-10
vn 0 0 0
vn 0.1309958 0.9775753 -0.164884
vn 0 0 0
vn 0.1269061 0.9775805 -0.1680216
vn 0 0 0
vn 2.617281E-10 1 1.876053E-10
vn 0 0 0
vn 2.634586E-10 1 1.756085E-10
vn 0 0 0
vn 0.1226457 0.9775567 -0.1712921
vn 0 0 0
vn 0.1226452 0.9775575 -0.171288
vn 0 0 0

vt 0 0
vt 0 0
vt -0.5843613 -0.1360962
vt -0.5843613 -0.1360962
vt -0.5843613 -0.1360962
vt -0.5843613 -0.1360962
vt -1.21742 -0.2835327
vt -1.21742 -0.2835327
vt 0.4135025 -1.291046
vt 0.4135025 -1.291046
vt -0.1379959 -1.527374
vt -0.1379959 -1.527374
vt -0.1379959 -1.527374
vt -0.1379959 -1.527374
vt -0.7354523 -1.783392
vt -0.7354523 -1.783392
vt 1.080641 -2.4995
vt 1.080641 -2.4995
vt 0.5840561 -2.836255
vt 0.5840561 -2.836255
vt 0.5840561 -2.836255
vt 0.5840561 -2.836255
vt 0.0460907 -3.201074
vt 0.0460907 -3.201074
vt 1.874236 -3.506812
vt 1.874236 -3.506812
vt 1.428262 -3.908191
vt 1.428262 -3.908191
vt 1.428262 -3.908191
vt 1.428262 -3.908191
vt 0.9451248 -4.343024
vt 0.9451248 -4.343024
vt 2.73281 -4.36507
vt 2.73281 -4.36507
vt 2.329903 -4.809668
vt 2.329903 -4.809668
vt 2.329903 -4.809668
vt 2.329903 -4.809668
vt 1.893422 -5.291315
vt 1.893422 -5.291315
vt 3.632016 -5.114685
vt 3.632016 -5.114685
vt 3.266095 -5.590186
vt 3.266095 -5.590186
vt 3.266095 -5.590186
vt 3.266095 -5.590186
vt 2.869679 -6.10531
vt 2.869679 -6.10531
vt 4.556059 -5.776264
vt 4.556059 -5.776264
vt 4.22328 -6.275519
vt 4.22328 -6.275519
vt 4.22328 -6.275519
vt 4.22328 -6.275519
vt 3.862772 -6.816382
vt 3.862772 -6.816382

usemtl GSDShoulder1
usemap GSDShoulder1
f 9/9/9 1/1/1 3/3/3
f 11/11/11 9/9/9 3/3/3
f 13/13/13 5/5/5 7/7/7
f 15/15/15 13/13/13 7/7/7
f 17/17/17 9/9/9 11/11/11
f 19/19/19 17/17/17 11/11/11
f 21/21/21 13/13/13 15/15/15
f 23/23/23 21/21/21 15/15/15
f 25/25/25 17/17/17 19/19/19
f 27/27/27 25/25/25 19/19/19
f 29/29/29 21/21/21 23/23/23
f 31/31/31 29/29/29 23/23/23
f 33/33/33 25/25/25 27/27/27
f 35/35/35 33/33/33 27/27/27
f 37/37/37 29/29/29 31/31/31
f 39/39/39 37/37/37 31/31/31
f 41/41/41 33/33/33 35/35/35
f 43/43/43 41/41/41 35/35/35
f 45/45/45 37/37/37 39/39/39
f 47/47/47 45/45/45 39/39/39
f 49/49/49 41/41/41 43/43/43
f 51/51/51 49/49/49 43/43/43
f 53/53/53 45/45/45 47/47/47
f 55/55/55 53/53/53 47/47/47
