mtllib ./Road8_2_44.mtl
g Markers14
v -821.4911 0.01 78.76641
v -821.4911 0.01 78.76641
v -831.4689 0.01 79.39417
v -831.4689 0.01 79.39417
v -821.2092 0.04 83.0638
v -821.2092 0.04 83.0638
v -831.0034 0.04 85.08207
v -831.0034 0.04 85.08207
v -819.9462 0.04 85.20264
v -819.9462 0.04 85.20264
v -827.5339 0.04 91.71622
v -827.5339 0.04 91.71622
v -817.0325 0.04 87.8522
v -817.0325 0.04 87.8522
v -823.0616 0.04 95.8303
v -823.0616 0.04 95.8303
v -813.3216 0.04 90.30155
v -813.3216 0.04 90.30155
v -818.3821 0.04 98.92654
v -818.3821 0.04 98.92654
v -809.1812 0.04 92.50904
v -809.1812 0.04 92.50904
v -813.5664 0.04 101.4962
v -813.5664 0.04 101.4962
v -804.8351 0.04 94.47455
v -804.8351 0.04 94.47455
v -808.7118 0.04 103.6926
v -808.7118 0.04 103.6926
v -800.3486 0.04 96.24148
v -800.3486 0.04 96.24148
v -803.8132 0.04 105.6221
v -803.8132 0.04 105.6221
v -795.7744 0.04 97.83255
v -795.7744 0.04 97.83255
v -798.8881 0.04 107.3354
v -798.8881 0.04 107.3354
v -791.1158 0.04 99.27345
v -791.1158 0.04 99.27345
v -793.9168 0.04 108.8731
v -793.9168 0.04 108.8731
v -786.3426 0.04 100.5874
v -786.3426 0.04 100.5874
v -788.8528 0.04 110.2672
v -788.8528 0.04 110.2672
v -781.6062 0.04 101.745
v -781.6062 0.04 101.745
v -783.8461 0.04 111.4909
v -783.8461 0.04 111.4909
v -776.7481 0.04 102.7916
v -776.7481 0.04 102.7916
v -778.7211 0.04 112.595
v -778.7211 0.04 112.595
v -771.9072 0.04 103.6989
v -771.9072 0.04 103.6989
v -773.6182 0.04 113.5514
v -773.6182 0.04 113.5514

vn -0.0004373988 0.9999757 -0.006952112
vn 0 0 0
vn -0.0007961558 0.9999821 -0.005949136
vn 0 0 0
vn -0.0006443139 0.9999882 -0.004814524
vn 0 0 0
vn -0.0003955256 0.9999981 -0.001919398
vn 0 0 0
vn 1.172684E-10 1 2.389096E-10
vn 0 0 0
vn 7.03318E-11 1 8.192926E-11
vn 0 0 0
vn 1.032398E-10 1 7.801833E-11
vn 0 0 0
vn 1.922201E-10 1 1.283884E-10
vn 0 0 0
vn 1.008956E-10 1 7.624681E-11
vn 0 0 0
vn -1.063124E-10 1 -5.187471E-11
vn 0 0 0
vn -2.200082E-10 1 -1.179955E-10
vn 0 0 0
vn -1.076583E-10 1 -5.253148E-11
vn 0 0 0
vn 0 1 0
vn 0 0 0
vn 0 1 0
vn 0 0 0
vn 1.170591E-10 1 4.323399E-11
vn 0 0 0
vn 2.295959E-10 0.9999999 7.998336E-11
vn 0 0 0
vn -1.524672E-12 1 4.376436E-12
vn 0 0 0
vn -3.495988E-10 1 -1.061604E-10
vn 0 0 0
vn -2.355539E-10 1 -7.718307E-11
vn 0 0 0
vn 2.340816E-10 1 6.070412E-11
vn 0 0 0
vn 3.567743E-10 1 1.002197E-10
vn 0 0 0
vn -8.05739E-13 1 3.295867E-12
vn 0 0 0
vn -2.412526E-10 1 -5.899288E-11
vn 0 0 0
vn -1.181479E-10 1 -2.715351E-11
vn 0 0 0
vn 0 1 0
vn 0 0 0
vn 0 1 0
vn 0 0 0
vn 0 1 0
vn 0 0 0
vn 0 1 0
vn 0 0 0

vt 0 259.8509
vt 0 0
vt 1 259.8509
vt 0 0
vt 0 260.7123
vt 0 260.7123
vt 1 260.7123
vt 1 260.7123
vt 0 261.2091
vt 0 261.2091
vt 1 261.2091
vt 1 261.2091
vt 0 261.9967
vt 0 261.9967
vt 1 261.9967
vt 1 261.9967
vt 0 262.886
vt 0 262.886
vt 1 262.886
vt 1 262.886
vt 0 263.8244
vt 0 263.8244
vt 1 263.8244
vt 1 263.8244
vt 0 264.7784
vt 0 264.7784
vt 1 264.7784
vt 1 264.7784
vt 0 265.7428
vt 0 265.7428
vt 1 265.7428
vt 1 265.7428
vt 0 266.7114
vt 0 266.7114
vt 1 266.7114
vt 1 266.7114
vt 0 267.6867
vt 0 267.6867
vt 1 267.6867
vt 1 267.6867
vt 0 268.6768
vt 0 268.6768
vt 1 268.6768
vt 1 268.6768
vt 0 269.652
vt 0 269.652
vt 1 269.652
vt 1 269.652
vt 0 270.6459
vt 0 270.6459
vt 1 270.6459
vt 1 270.6459
vt 0 271.631
vt 0 0
vt 1 271.631
vt 0 0

usemtl GSDWhiteYellowDouble
usemap GSDWhiteYellowDouble
f 5/5/5 1/1/1 3/3/3
f 7/7/7 5/5/5 3/3/3
f 9/9/9 5/5/5 7/7/7
f 11/11/11 9/9/9 7/7/7
f 13/13/13 9/9/9 11/11/11
f 15/15/15 13/13/13 11/11/11
f 17/17/17 13/13/13 15/15/15
f 19/19/19 17/17/17 15/15/15
f 21/21/21 17/17/17 19/19/19
f 23/23/23 21/21/21 19/19/19
f 25/25/25 21/21/21 23/23/23
f 27/27/27 25/25/25 23/23/23
f 29/29/29 25/25/25 27/27/27
f 31/31/31 29/29/29 27/27/27
f 33/33/33 29/29/29 31/31/31
f 35/35/35 33/33/33 31/31/31
f 37/37/37 33/33/33 35/35/35
f 39/39/39 37/37/37 35/35/35
f 41/41/41 37/37/37 39/39/39
f 43/43/43 41/41/41 39/39/39
f 45/45/45 41/41/41 43/43/43
f 47/47/47 45/45/45 43/43/43
f 49/49/49 45/45/45 47/47/47
f 51/51/51 49/49/49 47/47/47
f 53/53/53 49/49/49 51/51/51
f 55/55/55 53/53/53 51/51/51
