mtllib ./Road1_0_248.mtl
g SCutL39
v -806.4779 1.269826 880.0206
v -806.4779 1.269826 880.0206
v -806.1608 1.269826 876.8568
v -806.1608 1.269826 876.8568
v -806.6815 0.4420866 882.0519
v -806.6815 0.4420866 882.0519
v -806.4779 1.269826 880.0206
v -806.4779 1.269826 880.0206
v -812.3514 0.9770941 879.0493
v -812.3514 0.9770941 879.0493
v -811.6835 0.9770941 875.9838
v -811.6835 0.9770941 875.9838
v -812.7842 0.2828485 881.0356
v -812.7842 0.2828485 881.0356
v -812.3514 0.9770941 879.0493
v -812.3514 0.9770941 879.0493
v -817.9635 0.7545598 877.5005
v -817.9635 0.7545598 877.5005
v -816.9987 0.7545598 874.537
v -816.9987 0.7545598 874.537
v -818.5914 0.05181038 879.429
v -818.5914 0.05181038 879.429
v -817.9635 0.7545598 877.5005
v -817.9635 0.7545598 877.5005
v -823.3195 0.572484 875.481
v -823.3195 0.572484 875.481
v -822.1193 0.572484 872.6254
v -822.1193 0.572484 872.6254
v -824.1036 -0.06923342 877.3466
v -824.1036 -0.06923342 877.3466
v -823.3195 0.572484 875.481
v -823.3195 0.572484 875.481
v -828.423 0.42558 873.1008
v -828.423 0.42558 873.1008
v -827.0355 0.42558 870.3507
v -827.0355 0.42558 870.3507
v -829.3327 -0.184908 874.904
v -829.3327 -0.184908 874.904
v -828.423 0.42558 873.1008
v -828.423 0.42558 873.1008
v -833.277 0.3090247 870.45
v -833.277 0.3090247 870.45
v -831.739 0.3090247 867.799
v -831.739 0.3090247 867.799
v -834.2886 -0.2418665 872.1938
v -834.2886 -0.2418665 872.1938
v -833.277 0.3090247 870.45
v -833.277 0.3090247 870.45
v -837.8821 0.2184342 867.6039
v -837.8821 0.2184342 867.6039
v -836.2215 0.2184342 865.0441
v -836.2215 0.2184342 865.0441
v -838.9775 -0.2958363 869.2924
v -838.9775 -0.2958363 869.2924
v -837.8821 0.2184342 867.6039
v -837.8821 0.2184342 867.6039
v -842.3537 0.1482338 864.5438
v -842.3537 0.1482338 864.5438
v -840.5891 0.1482338 862.0695
v -840.5891 0.1482338 862.0695
v -843.5206 -0.2958363 866.1799
v -843.5206 -0.2958363 866.1799
v -842.3537 0.1482338 864.5438
v -842.3537 0.1482338 864.5438
v -846.6786 0.09615815 861.3137
v -846.6786 0.09615815 861.3137
v -844.8247 0.09615815 858.9193
v -844.8247 0.09615815 858.9193
v -847.9073 -0.32574 862.9006
v -847.9073 -0.32574 862.9006
v -846.6786 0.09615815 861.3137
v -846.6786 0.09615815 861.3137
v -850.8305 0.05993032 857.9413
v -850.8305 0.05993032 857.9413
v -848.9106 0.05993032 855.6362
v -848.9106 0.05993032 855.6362
v -852.1104 -0.3476102 859.4781
v -852.1104 -0.3476102 859.4781
v -850.8305 0.05993032 857.9413
v -850.8305 0.05993032 857.9413
v -854.8206 0.0372951 854.5052
v -854.8206 0.0372951 854.5052
v -852.8265 0.0372951 852.2639
v -852.8265 0.0372951 852.2639
v -856.15 -0.3476102 855.9994
v -856.15 -0.3476102 855.9994
v -854.8206 0.0372951 854.5052
v -854.8206 0.0372951 854.5052
v -858.7119 0.02581167 850.9324
v -858.7119 0.02581167 850.9324
v -856.6489 0.02581167 848.7543
v -856.6489 0.02581167 848.7543
v -860.0873 -0.3476102 852.3844
v -860.0873 -0.3476102 852.3844
v -858.7119 0.02581167 850.9324
v -858.7119 0.02581167 850.9324
v -862.4672 0.02385044 847.2656
v -862.4672 0.02385044 847.2656
v -860.3391 0.02385044 845.1511
v -860.3391 0.02385044 845.1511
v -863.8859 -0.3476102 848.6753
v -863.8859 -0.3476102 848.6753
v -862.4672 0.02385044 847.2656
v -862.4672 0.02385044 847.2656
v -866.1298 0.02961981 843.4647
v -866.1298 0.02961981 843.4647
v -863.9375 0.02961981 841.4169
v -863.9375 0.02961981 841.4169
v -867.5914 -0.3476102 844.83
v -867.5914 -0.3476102 844.83
v -866.1298 0.02961981 843.4647
v -866.1298 0.02961981 843.4647

vn -0.04896713 0.9987883 -0.004908521
vn 0 0 0
vn -0.05002706 0.9987165 -0.007910904
vn 0 0 0
vn -0.08554079 0.9256421 0.3686048
vn 0 0 0
vn -0.0917517 0.9359312 0.340021
vn 0 0 0
vn -0.04580691 0.9989184 -0.007988667
vn 0 0 0
vn -0.04228651 0.9990498 -0.01055472
vn 0 0 0
vn -0.1016141 0.9391358 0.3281746
vn 0 0 0
vn -0.1138003 0.9452368 0.3059034
vn 0 0 0
vn -0.03533345 0.9993243 -0.01012384
vn 0 0 0
vn -0.03311048 0.9993829 -0.01172857
vn 0 0 0
vn -0.1257891 0.944665 0.3029605
vn 0 0 0
vn -0.1301375 0.9474102 0.2923667
vn 0 0 0
vn -0.02833803 0.9995387 -0.01093111
vn 0 0 0
vn -0.02631901 0.9995848 -0.01172846
vn 0 0 0
vn -0.1381426 0.9501057 0.2796711
vn 0 0 0
vn -0.1416239 0.9543309 0.26305
vn 0 0 0
vn -0.02236676 0.9996936 -0.01059383
vn 0 0 0
vn -0.02062505 0.9997281 -0.01087224
vn 0 0 0
vn -0.1459091 0.9556422 0.255849
vn 0 0 0
vn -0.1453963 0.9596137 0.2408348
vn 0 0 0
vn -0.01738816 0.9998026 -0.009603146
vn 0 0 0
vn -0.01592772 0.9998274 -0.009564746
vn 0 0 0
vn -0.1461507 0.9620756 0.2303272
vn 0 0 0
vn -0.1448955 0.9659668 0.214274
vn 0 0 0
vn -0.01325542 0.999878 -0.008264087
vn 0 0 0
vn -0.01203358 0.9998953 -0.008036504
vn 0 0 0
vn -0.1435607 0.9674082 0.2085947
vn 0 0 0
vn -0.1386822 0.9714612 0.1924321
vn 0 0 0
vn -0.009844119 0.9999285 -0.006784056
vn 0 0 0
vn -0.008819678 0.9999402 -0.006447181
vn 0 0 0
vn -0.1352846 0.9739906 0.1817707
vn 0 0 0
vn -0.1321162 0.9771417 0.1665514
vn 0 0 0
vn -0.007004927 0.9999616 -0.005261643
vn 0 0 0
vn -0.006157689 0.9999692 -0.004869864
vn 0 0 0
vn -0.132407 0.9778622 0.1620305
vn 0 0 0
vn -0.1315486 0.979009 0.1556799
vn 0 0 0
vn -0.004662092 0.999982 -0.003776322
vn 0 0 0
vn -0.003964842 0.9999865 -0.003363437
vn 0 0 0
vn -0.1314644 0.979427 0.1531011
vn 0 0 0
vn -0.1292837 0.9805706 0.1475371
vn 0 0 0
vn -0.00272893 0.9999934 -0.002364979
vn 0 0 0
vn -0.002163192 0.9999958 -0.001955211
vn 0 0 0
vn -0.1282213 0.9812837 0.1436719
vn 0 0 0
vn -0.1266787 0.9823257 0.1377994
vn 0 0 0
vn -0.001166807 0.9999987 -0.001073793
vn 0 0 0
vn -0.0007146279 0.9999995 -0.0006821282
vn 0 0 0
vn -0.1272606 0.9826692 0.1347813
vn 0 0 0
vn -0.1272628 0.9830691 0.1318311
vn 0 0 0
vn 8.03595E-05 0.9999999 8.624722E-05
vn 0 0 0
vn 0.0004239725 0.9999998 0.0004428557
vn 0 0 0
vn -0.1292093 0.9831274 0.1294814
vn 0 0 0
vn -0.1307108 0.9830135 0.1288379
vn 0 0 0
vn 0.0007650621 0.9999994 0.0007940954
vn 0 0 0
vn 0.0007595255 0.9999994 0.0008131078
vn 0 0 0
vn -0.1321243 0.9829261 0.128061
vn 0 0 0
vn -0.1327468 0.9826654 0.1294101
vn 0 0 0

vt 0 0
vt 0 0
vt -0.06342774 -0.6327515
vt -0.06342774 -0.6327515
vt 0.04072266 0.4062744
vt 0.04072266 0.4062744
vt 0 0
vt 0 0
vt 1.174707 -0.1942505
vt 1.174707 -0.1942505
vt 1.041126 -0.8073487
vt 1.041126 -0.8073487
vt 1.261267 0.2030029
vt 1.261267 0.2030029
vt 1.174707 -0.1942505
vt 1.174707 -0.1942505
vt 2.297119 -0.5040161
vt 2.297119 -0.5040161
vt 2.104151 -1.096716
vt 2.104151 -1.096716
vt 2.422693 -0.1183228
vt 2.422693 -0.1183228
vt 2.297119 -0.5040161
vt 2.297119 -0.5040161
vt 3.368311 -0.9079224
vt 3.368311 -0.9079224
vt 3.128272 -1.479041
vt 3.128272 -1.479041
vt 3.525134 -0.53479
vt 3.525134 -0.53479
vt 3.368311 -0.9079224
vt 3.368311 -0.9079224
vt 4.389014 -1.383948
vt 4.389014 -1.383948
vt 4.111511 -1.933972
vt 4.111511 -1.933972
vt 4.57096 -1.023315
vt 4.57096 -1.023315
vt 4.389014 -1.383948
vt 4.389014 -1.383948
vt 5.359815 -1.914111
vt 5.359815 -1.914111
vt 5.052209 -2.444324
vt 5.052209 -2.444324
vt 5.562146 -1.565356
vt 5.562146 -1.565356
vt 5.359815 -1.914111
vt 5.359815 -1.914111
vt 6.280835 -2.483325
vt 6.280835 -2.483325
vt 5.948719 -2.995288
vt 5.948719 -2.995288
vt 6.499915 -2.14563
vt 6.499915 -2.14563
vt 6.280835 -2.483325
vt 6.280835 -2.483325
vt 7.175159 -3.095361
vt 7.175159 -3.095361
vt 6.822241 -3.590222
vt 6.822241 -3.590222
vt 7.408533 -2.768127
vt 7.408533 -2.768127
vt 7.175159 -3.095361
vt 7.175159 -3.095361
vt 8.040137 -3.741382
vt 8.040137 -3.741382
vt 7.669361 -4.220252
vt 7.669361 -4.220252
vt 8.285876 -3.423999
vt 8.285876 -3.423999
vt 8.040137 -3.741382
vt 8.040137 -3.741382
vt 8.870521 -4.415845
vt 8.870521 -4.415845
vt 8.486548 -4.87688
vt 8.486548 -4.87688
vt 9.126502 -4.108496
vt 9.126502 -4.108496
vt 8.870521 -4.415845
vt 8.870521 -4.415845
vt 9.668543 -5.103076
vt 9.668543 -5.103076
vt 9.269727 -5.551343
vt 9.269727 -5.551343
vt 9.934424 -4.804236
vt 9.934424 -4.804236
vt 9.668543 -5.103076
vt 9.668543 -5.103076
vt 10.4468 -5.817639
vt 10.4468 -5.817639
vt 10.03419 -6.253259
vt 10.03419 -6.253259
vt 10.72188 -5.527234
vt 10.72188 -5.527234
vt 10.4468 -5.817639
vt 10.4468 -5.817639
vt 11.19785 -6.550989
vt 11.19785 -6.550989
vt 10.77224 -6.973901
vt 10.77224 -6.973901
vt 11.48159 -6.269055
vt 11.48159 -6.269055
vt 11.19785 -6.550989
vt 11.19785 -6.550989
vt 11.93038 -7.31117
vt 11.93038 -7.31117
vt 11.49192 -7.72074
vt 11.49192 -7.72074
vt 12.22269 -7.038123
vt 12.22269 -7.038123
vt 11.93038 -7.31117
vt 11.93038 -7.31117

usemtl GSDShoulder1
usemap GSDShoulder1
f 9/9/9 1/1/1 3/3/3
f 11/11/11 9/9/9 3/3/3
f 13/13/13 5/5/5 7/7/7
f 15/15/15 13/13/13 7/7/7
f 17/17/17 9/9/9 11/11/11
f 19/19/19 17/17/17 11/11/11
f 21/21/21 13/13/13 15/15/15
f 23/23/23 21/21/21 15/15/15
f 25/25/25 17/17/17 19/19/19
f 27/27/27 25/25/25 19/19/19
f 29/29/29 21/21/21 23/23/23
f 31/31/31 29/29/29 23/23/23
f 33/33/33 25/25/25 27/27/27
f 35/35/35 33/33/33 27/27/27
f 37/37/37 29/29/29 31/31/31
f 39/39/39 37/37/37 31/31/31
f 41/41/41 33/33/33 35/35/35
f 43/43/43 41/41/41 35/35/35
f 45/45/45 37/37/37 39/39/39
f 47/47/47 45/45/45 39/39/39
f 49/49/49 41/41/41 43/43/43
f 51/51/51 49/49/49 43/43/43
f 53/53/53 45/45/45 47/47/47
f 55/55/55 53/53/53 47/47/47
f 57/57/57 49/49/49 51/51/51
f 59/59/59 57/57/57 51/51/51
f 61/61/61 53/53/53 55/55/55
f 63/63/63 61/61/61 55/55/55
f 65/65/65 57/57/57 59/59/59
f 67/67/67 65/65/65 59/59/59
f 69/69/69 61/61/61 63/63/63
f 71/71/71 69/69/69 63/63/63
f 73/73/73 65/65/65 67/67/67
f 75/75/75 73/73/73 67/67/67
f 77/77/77 69/69/69 71/71/71
f 79/79/79 77/77/77 71/71/71
f 81/81/81 73/73/73 75/75/75
f 83/83/83 81/81/81 75/75/75
f 85/85/85 77/77/77 79/79/79
f 87/87/87 85/85/85 79/79/79
f 89/89/89 81/81/81 83/83/83
f 91/91/91 89/89/89 83/83/83
f 93/93/93 85/85/85 87/87/87
f 95/95/95 93/93/93 87/87/87
f 97/97/97 89/89/89 91/91/91
f 99/99/99 97/97/97 91/91/91
f 101/101/101 93/93/93 95/95/95
f 103/103/103 101/101/101 95/95/95
f 105/105/105 97/97/97 99/99/99
f 107/107/107 105/105/105 99/99/99
f 109/109/109 101/101/101 103/103/103
f 111/111/111 109/109/109 103/103/103
