mtllib ./Road7_2_6.mtl
g RoadCut3
v -117.5141 0.03 318.4134
v -117.5141 0.03 318.4134
v -98.0354 0.03 313.8768
v -98.0354 0.03 313.8768
v -118.4862 0.03 315.2991
v -118.4862 0.03 315.2991
v -100.1029 0.03 307.4216
v -100.1029 0.03 307.4216
v -119.9914 0.03 312.6045
v -119.9914 0.03 312.6045
v -103.4386 0.03 301.3793
v -103.4386 0.03 301.3793
v -122.2723 0.03 309.7222
v -122.2723 0.03 309.7222
v -107.4066 0.03 296.3427
v -107.4066 0.03 296.3427
v -125.1296 0.03 306.8713
v -125.1296 0.03 306.8713
v -111.6994 0.03 292.0515
v -111.6994 0.03 292.0515
v -128.3929 0.03 304.1534
v -128.3929 0.03 304.1534
v -116.1955 0.03 288.3034
v -116.1955 0.03 288.3034
v -131.9083 0.03 301.6375
v -131.9083 0.03 301.6375
v -120.8157 0.03 284.9955
v -120.8157 0.03 284.9955

vn 1.298558E-10 1 5.575638E-10
vn 0 0 0
vn 1.155992E-10 1 3.52569E-10
vn 0 0 0
vn 3.232342E-11 1 1.387876E-10
vn 0 0 0
vn -6.263622E-11 1 -9.236435E-11
vn 0 0 0
vn -5.391182E-11 1 -1.258109E-10
vn 0 0 0
vn 7.357132E-11 1 8.174421E-11
vn 0 0 0
vn 7.417401E-11 1 1.093782E-10
vn 0 0 0
vn -8.369378E-11 1 -7.584563E-11
vn 0 0 0
vn -8.691658E-11 1 -9.657197E-11
vn 0 0 0
vn 9.137561E-11 1 7.031814E-11
vn 0 0 0
vn 3.006076E-10 1 2.444216E-10
vn 0 0 0
vn 2.84078E-10 1 2.085389E-10
vn 0 0 0
vn 3.026198E-10 0.9999999 2.169155E-10
vn 0 0 0
vn 2.729121E-10 1 1.819081E-10
vn 0 0 0

vt 0 0
vt 0 0
vt -3.89574 -0.907312
vt -3.89574 -0.907312
vt 0.1944168 -0.6228577
vt 0.1944168 -0.6228577
vt -3.482237 -2.198358
vt -3.482237 -2.198358
vt 0.4954605 -1.16178
vt 0.4954605 -1.16178
vt -2.815099 -3.406811
vt -2.815099 -3.406811
vt 0.9516464 -1.738232
vt 0.9516464 -1.738232
vt -2.021504 -4.414124
vt -2.021504 -4.414124
vt 1.523108 -2.308405
vt 1.523108 -2.308405
vt -1.16293 -5.272382
vt -1.16293 -5.272382
vt 2.175757 -2.85199
vt 2.175757 -2.85199
vt -0.2637238 -6.021997
vt -0.2637238 -6.021997
vt 2.878842 -3.355182
vt 2.878842 -3.355182
vt 0.6603195 -6.683576
vt 0.6603195 -6.683576

usemtl GSDRoad1
usemap GSDRoad1
f 5/5/5 1/1/1 3/3/3
f 7/7/7 5/5/5 3/3/3
f 9/9/9 5/5/5 7/7/7
f 11/11/11 9/9/9 7/7/7
f 13/13/13 9/9/9 11/11/11
f 15/15/15 13/13/13 11/11/11
f 17/17/17 13/13/13 15/15/15
f 19/19/19 17/17/17 15/15/15
f 21/21/21 17/17/17 19/19/19
f 23/23/23 21/21/21 19/19/19
f 25/25/25 21/21/21 23/23/23
f 27/27/27 25/25/25 23/23/23
