mtllib ./Road1_0_127.mtl
g Markers63
v -247.5482 36.80589 724.4625
v -247.5482 36.80589 724.4625
v -245.4299 36.80589 734.2106
v -245.4299 36.80589 734.2106
v -242.6579 37.16087 723.4045
v -242.6579 37.16087 723.4045
v -240.5309 37.16087 733.1487
v -240.5309 37.16087 733.1487
v -237.7697 37.53774 722.3284
v -237.7697 37.53774 722.3284
v -235.6039 37.53774 732.0609
v -235.6039 37.53774 732.0609
v -232.857 37.93506 721.2273
v -232.857 37.93506 721.2273
v -230.6584 37.93506 730.9498
v -230.6584 37.93506 730.9498
v -228.0075 38.3409 720.1246
v -228.0075 38.3409 720.1246
v -225.7841 38.3409 729.8397
v -225.7841 38.3409 729.8397
v -223.0617 38.76315 718.9884
v -223.0617 38.76315 718.9884
v -220.8222 38.76315 728.6987
v -220.8222 38.76315 728.6987
v -218.0993 39.18918 717.8417
v -218.0993 39.18918 717.8417
v -215.8534 39.18918 727.5507
v -215.8534 39.18918 727.5507
v -213.2024 39.60593 716.7089
v -213.2024 39.60593 716.7089
v -210.9596 39.60593 726.4196
v -210.9596 39.60593 726.4196
v -208.3381 40.011 715.5873
v -208.3381 40.011 715.5873
v -206.1068 40.011 725.3024
v -206.1068 40.011 725.3024

vn -0.06915552 0.9974927 0.01502799
vn 0 0 0
vn -0.06908493 0.9974974 0.01504625
vn 0 0 0
vn -0.07050847 0.9973927 0.01536819
vn 0 0 0
vn -0.07169393 0.9973022 0.01575297
vn 0 0 0
vn -0.07428694 0.9971016 0.01642786
vn 0 0 0
vn -0.07524178 0.9970232 0.01683589
vn 0 0 0
vn -0.07743849 0.996845 0.01741956
vn 0 0 0
vn -0.07813159 0.9967852 0.01774004
vn 0 0 0
vn -0.07968562 0.9966545 0.01816554
vn 0 0 0
vn -0.08008809 0.9966184 0.01837689
vn 0 0 0
vn -0.08086391 0.9965515 0.01860226
vn 0 0 0
vn -0.080956 0.9965425 0.01868986
vn 0 0 0
vn -0.0809482 0.9965428 0.01870645
vn 0 0 0
vn -0.08072929 0.9965613 0.01866497
vn 0 0 0
vn -0.07996206 0.9966266 0.01847805
vn 0 0 0
vn -0.07946607 0.9966692 0.01832004
vn 0 0 0
vn -0.07891139 0.9967161 0.01817489
vn 0 0 0
vn -0.07901853 0.996708 0.01814866
vn 0 0 0

vt 0 890.7965
vt 0 0
vt 1 890.7965
vt 0 0
vt 0 891.7997
vt 0 891.7997
vt 1 891.7997
vt 1 891.7997
vt 0 892.8036
vt 0 892.8036
vt 1 892.8036
vt 1 892.8036
vt 0 893.8137
vt 0 893.8137
vt 1 893.8137
vt 1 893.8137
vt 0 894.8116
vt 0 894.8116
vt 1 894.8116
vt 1 894.8116
vt 0 895.8301
vt 0 895.8301
vt 1 895.8301
vt 1 895.8301
vt 0 896.8523
vt 0 896.8523
vt 1 896.8523
vt 1 896.8523
vt 0 897.861
vt 0 897.861
vt 1 897.861
vt 1 897.861
vt 0 898.8626
vt 0 898.8626
vt 1 898.8626
vt 1 898.8626

usemtl GSDWhiteYellowDouble
usemap GSDWhiteYellowDouble
f 5/5/5 1/1/1 3/3/3
f 7/7/7 5/5/5 3/3/3
f 9/9/9 5/5/5 7/7/7
f 11/11/11 9/9/9 7/7/7
f 13/13/13 9/9/9 11/11/11
f 15/15/15 13/13/13 11/11/11
f 17/17/17 13/13/13 15/15/15
f 19/19/19 17/17/17 15/15/15
f 21/21/21 17/17/17 19/19/19
f 23/23/23 21/21/21 19/19/19
f 25/25/25 21/21/21 23/23/23
f 27/27/27 25/25/25 23/23/23
f 29/29/29 25/25/25 27/27/27
f 31/31/31 29/29/29 27/27/27
f 33/33/33 29/29/29 31/31/31
f 35/35/35 33/33/33 31/31/31
