mtllib ./Road1_0_242.mtl
g SCutL33
v -52.42703 0.648136 848.82
v -52.42703 0.648136 848.82
v -53.25053 0.648136 845.9352
v -53.25053 0.648136 845.9352
v -51.87803 0.2008086 850.7432
v -51.87803 0.2008086 850.7432
v -52.42703 0.648136 848.82
v -52.42703 0.648136 848.82
v -58.34364 0.647976 850.126
v -58.34364 0.647976 850.126
v -58.78761 0.647976 847.1591
v -58.78761 0.647976 847.1591
v -58.04765 0.1769587 852.104
v -58.04765 0.1769587 852.104
v -58.34364 0.647976 850.126
v -58.34364 0.647976 850.126
v -64.18823 0.6302109 850.6597
v -64.18823 0.6302109 850.6597
v -64.30965 0.6302109 847.6622
v -64.30965 0.6302109 847.6622
v -64.10728 0.1369326 852.6581
v -64.10728 0.1369326 852.6581
v -64.18823 0.6302109 850.6597
v -64.18823 0.6302109 850.6597
v -69.75851 0.6016188 850.6777
v -69.75851 0.6016188 850.6777
v -69.66971 0.6016188 847.6791
v -69.66971 0.6016188 847.6791
v -69.81772 0.1078153 852.6768
v -69.81772 0.1078153 852.6768
v -69.75851 0.6016188 850.6777
v -69.75851 0.6016188 850.6777
v -75.23593 0.5655963 850.4081
v -75.23593 0.5655963 850.4081
v -75.00329 0.5655963 847.3867
v -75.00329 0.5655963 847.3867
v -75.39006 0.1078153 852.4098
v -75.39006 0.1078153 852.4098
v -75.23593 0.5655963 850.4081
v -75.23593 0.5655963 850.4081
v -80.46526 0.5261269 849.9236
v -80.46526 0.5261269 849.9236
v -80.13905 0.5261269 846.9063
v -80.13905 0.5261269 846.9063
v -80.68117 -0.005787075 851.9206
v -80.68117 -0.005787075 851.9206
v -80.46526 0.5261269 849.9236
v -80.46526 0.5261269 849.9236
v -85.64021 0.4838491 849.3101
v -85.64021 0.4838491 849.3101
v -85.25204 0.4838491 846.2968
v -85.25204 0.4838491 846.2968
v -85.89696 -0.005787075 851.3032
v -85.89696 -0.005787075 851.3032
v -85.64021 0.4838491 849.3101
v -85.64021 0.4838491 849.3101
v -90.73177 0.4403746 848.6213
v -90.73177 0.4403746 848.6213
v -90.3054 0.4403746 845.6107
v -90.3054 0.4403746 845.6107
v -91.01364 -0.005787075 850.6115
v -91.01364 -0.005787075 850.6115
v -90.73177 0.4403746 848.6213
v -90.73177 0.4403746 848.6213
v -95.84094 0.3958729 847.8794
v -95.84094 0.3958729 847.8794
v -95.39423 0.3958729 844.8702
v -95.39423 0.3958729 844.8702
v -96.13615 -0.1234511 849.8681
v -96.13615 -0.1234511 849.8681
v -95.84094 0.3958729 847.8794
v -95.84094 0.3958729 847.8794
v -100.8171 0.3524672 847.1351
v -100.8171 0.3524672 847.1351
v -100.3648 0.3524672 844.126
v -100.3648 0.3524672 844.126
v -101.1159 -0.1234511 849.1235
v -101.1159 -0.1234511 849.1235
v -100.8171 0.3524672 847.1351
v -100.8171 0.3524672 847.1351
v -105.7673 0.3098701 846.3948
v -105.7673 0.3098701 846.3948
v -105.3213 0.3098701 843.3848
v -105.3213 0.3098701 843.3848
v -106.0619 -0.2450579 848.3839
v -106.0619 -0.2450579 848.3839
v -105.7673 0.3098701 846.3948
v -105.7673 0.3098701 846.3948
v -110.6768 0.2687398 845.6791
v -110.6768 0.2687398 845.6791
v -110.2472 0.2687398 842.6673
v -110.2472 0.2687398 842.6673
v -110.9607 -0.2450579 847.6694
v -110.9607 -0.2450579 847.6694
v -110.6768 0.2687398 845.6791
v -110.6768 0.2687398 845.6791
v -115.6686 0.2285582 844.9865
v -115.6686 0.2285582 844.9865
v -115.2652 0.2285582 841.9724
v -115.2652 0.2285582 841.9724
v -115.9354 -0.2450579 846.9789
v -115.9354 -0.2450579 846.9789
v -115.6686 0.2285582 844.9865
v -115.6686 0.2285582 844.9865
v -120.5923 0.1909927 844.3527
v -120.5923 0.1909927 844.3527
v -120.2231 0.1909927 841.3361
v -120.2231 0.1909927 841.3361
v -120.8365 -0.3341416 846.3475
v -120.8365 -0.3341416 846.3475
v -120.5923 0.1909927 844.3527
v -120.5923 0.1909927 844.3527
v -125.5774 0.1554786 843.7745
v -125.5774 0.1554786 843.7745
v -125.251 0.1554786 840.7556
v -125.251 0.1554786 840.7556
v -125.7934 -0.3341416 845.772
v -125.7934 -0.3341416 845.772
v -125.5774 0.1554786 843.7745
v -125.5774 0.1554786 843.7745
v -130.4708 0.1234857 843.2819
v -130.4708 0.1234857 843.2819
v -130.1941 0.1234857 840.2609
v -130.1941 0.1234857 840.2609
v -130.654 -0.3341416 845.2819
v -130.654 -0.3341416 845.2819
v -130.4708 0.1234857 843.2819
v -130.4708 0.1234857 843.2819
v -135.4051 0.09449637 842.8724
v -135.4051 0.09449637 842.8724
v -135.1861 0.09449637 839.8503
v -135.1861 0.09449637 839.8503
v -135.5502 -0.3341416 844.8747
v -135.5502 -0.3341416 844.8747
v -135.4051 0.09449637 842.8724
v -135.4051 0.09449637 842.8724
v -140.3728 0.0690307 842.5612
v -140.3728 0.0690307 842.5612
v -140.2193 0.0690307 839.5392
v -140.2193 0.0690307 839.5392
v -140.4746 -0.3341416 844.5651
v -140.4746 -0.3341416 844.5651
v -140.3728 0.0690307 842.5612
v -140.3728 0.0690307 842.5612
v -145.2168 0.04818428 842.3455
v -145.2168 0.04818428 842.3455
v -145.1352 0.04818428 839.3466
v -145.1352 0.04818428 839.3466
v -145.2712 -0.3341416 844.3447
v -145.2712 -0.3341416 844.3447
v -145.2168 0.04818428 842.3455
v -145.2168 0.04818428 842.3455
v -150.0778 0.03162992 842.2755
v -150.0778 0.03162992 842.2755
v -150.0743 0.03162992 839.2755
v -150.0743 0.03162992 839.2755
v -150.0801 -0.3341416 844.2755
v -150.0801 -0.3341416 844.2755
v -150.0778 0.03162992 842.2755
v -150.0778 0.03162992 842.2755

vn -2.543612E-05 0.9999999 7.261175E-06
vn 0 0 0
vn -2.665944E-05 1 5.774471E-06
vn 0 0 0
vn 0.04354668 0.9757466 0.2145279
vn 0 0 0
vn 0.04646385 0.9745398 0.2193476
vn 0 0 0
vn -0.001018052 0.9999995 0.0001535335
vn 0 0 0
vn -0.002080295 0.9999979 0.0001977113
vn 0 0 0
vn 0.03594086 0.9742134 0.2227478
vn 0 0 0
vn 0.02770511 0.9725848 0.2308916
vn 0 0 0
vn -0.003766205 0.9999928 0.0002655923
vn 0 0 0
vn -0.004549887 0.9999896 6.256252E-05
vn 0 0 0
vn 0.009930979 0.9717036 0.2359948
vn 0 0 0
vn 0.003698493 0.9708974 0.2394674
vn 0 0 0
vn -0.005677791 0.9999839 -4.604737E-05
vn 0 0 0
vn -0.006212927 0.9999807 -0.0002898831
vn 0 0 0
vn -0.006598555 0.9708351 0.2396575
vn 0 0 0
vn -0.0109692 0.9722516 0.23368
vn 0 0 0
vn -0.006923607 0.9999759 -0.0004276723
vn 0 0 0
vn -0.007270888 0.9999734 -0.000637444
vn 0 0 0
vn -0.02309523 0.973591 0.227128
vn 0 0 0
vn -0.02967777 0.9723212 0.231756
vn 0 0 0
vn -0.007722626 0.99997 -0.0007565984
vn 0 0 0
vn -0.007939554 0.9999681 -0.0009143522
vn 0 0 0
vn -0.0340721 0.9694985 0.2427174
vn 0 0 0
vn -0.03219526 0.9683397 0.2475515
vn 0 0 0
vn -0.008199845 0.9999659 -0.001000172
vn 0 0 0
vn -0.008324891 0.9999647 -0.00110824
vn 0 0 0
vn -0.0324916 0.9699675 0.241055
vn 0 0 0
vn -0.03487398 0.9731551 0.2274926
vn 0 0 0
vn -0.00845578 0.9999636 -0.001161707
vn 0 0 0
vn -0.008511756 0.999963 -0.001224972
vn 0 0 0
vn -0.04068223 0.9746827 0.2198604
vn 0 0 0
vn -0.04485934 0.9736002 0.2238085
vn 0 0 0
vn -0.008542415 0.9999628 -0.0012485
vn 0 0 0
vn -0.008544362 0.9999627 -0.001273605
vn 0 0 0
vn -0.04480951 0.9709753 0.2349452
vn 0 0 0
vn -0.04120864 0.9698623 0.2401434
vn 0 0 0
vn -0.00849636 0.9999632 -0.001271697
vn 0 0 0
vn -0.008454571 0.9999635 -0.001264715
vn 0 0 0
vn -0.04556707 0.9714639 0.2327692
vn 0 0 0
vn -0.04908413 0.9701082 0.2376569
vn 0 0 0
vn -0.008341638 0.9999644 -0.001241928
vn 0 0 0
vn -0.008262848 0.9999651 -0.001209172
vn 0 0 0
vn -0.04777921 0.9670976 0.2498786
vn 0 0 0
vn -0.04319198 0.965609 0.2563858
vn 0 0 0
vn -0.008089955 0.9999666 -0.001168869
vn 0 0 0
vn -0.007977014 0.9999675 -0.001114582
vn 0 0 0
vn -0.03868463 0.9672676 0.2507926
vn 0 0 0
vn -0.03895677 0.970384 0.2384055
vn 0 0 0
vn -0.00775305 0.9999694 -0.001060971
vn 0 0 0
vn -0.007608499 0.9999706 -0.0009900624
vn 0 0 0
vn -0.03993538 0.9718438 0.2322175
vn 0 0 0
vn -0.04178955 0.9714083 0.2337084
vn 0 0 0
vn -0.007327164 0.9999728 -0.0009253428
vn 0 0 0
vn -0.007152379 0.999974 -0.0008420107
vn 0 0 0
vn -0.0384202 0.969485 0.2421213
vn 0 0 0
vn -0.03426199 0.9688821 0.2451401
vn 0 0 0
vn -0.006825439 0.9999764 -0.000771509
vn 0 0 0
vn -0.006621787 0.9999778 -0.0006806976
vn 0 0 0
vn -0.02905707 0.9702304 0.2404342
vn 0 0 0
vn -0.02886273 0.9727143 0.2302038
vn 0 0 0
vn -0.006236916 0.9999803 -0.0006066809
vn 0 0 0
vn -0.006005203 0.9999819 -0.0005130398
vn 0 0 0
vn -0.02358279 0.9738838 0.2258193
vn 0 0 0
vn -0.0233226 0.9760003 0.2165169
vn 0 0 0
vn -0.005568843 0.9999844 -0.0004406087
vn 0 0 0
vn -0.005306371 0.9999858 -0.0003479424
vn 0 0 0
vn -0.0181708 0.9769923 0.2124991
vn 0 0 0
vn -0.01780897 0.9787778 0.2041493
vn 0 0 0
vn -0.004819096 0.9999884 -0.0002818414
vn 0 0 0
vn -0.004530757 0.9999896 -0.0001971394
vn 0 0 0
vn -0.01320769 0.9795926 0.2005591
vn 0 0 0
vn -0.01303465 0.9809978 0.1935804
vn 0 0 0
vn -0.003979704 0.9999921 -0.0001420747
vn 0 0 0
vn -0.003664575 0.9999932 -7.045265E-05
vn 0 0 0
vn -0.008121012 0.9816176 0.1906854
vn 0 0 0
vn -0.00708521 0.9827051 0.1850418
vn 0 0 0
vn -0.003377683 0.9999943 -4.792367E-05
vn 0 0 0
vn -0.003351577 0.9999943 -3.869749E-06
vn 0 0 0
vn -0.004329191 0.9829521 0.1838111
vn 0 0 0
vn -0.005940732 0.9836684 0.1798921
vn 0 0 0

vt 0 0
vt 0 0
vt 0.1647011 -0.5769531
vt 0.1647011 -0.5769531
vt -0.1098007 0.3846314
vt -0.1098007 0.3846314
vt 0 0
vt 0 0
vt 1.183321 0.2612061
vt 1.183321 0.2612061
vt 1.272117 -0.3321777
vt 1.272117 -0.3321777
vt 1.124124 0.6567993
vt 1.124124 0.6567993
vt 1.183321 0.2612061
vt 1.183321 0.2612061
vt 2.352241 0.3679443
vt 2.352241 0.3679443
vt 2.376525 -0.2315552
vt 2.376525 -0.2315552
vt 2.336051 0.7676148
vt 2.336051 0.7676148
vt 2.352241 0.3679443
vt 2.352241 0.3679443
vt 3.466297 0.3715454
vt 3.466297 0.3715454
vt 3.448536 -0.228186
vt 3.448536 -0.228186
vt 3.478138 0.7713623
vt 3.478138 0.7713623
vt 3.466297 0.3715454
vt 3.466297 0.3715454
vt 4.56178 0.317627
vt 4.56178 0.317627
vt 4.515252 -0.2866577
vt 4.515252 -0.2866577
vt 4.592607 0.7179565
vt 4.592607 0.7179565
vt 4.56178 0.317627
vt 4.56178 0.317627
vt 5.607647 0.2207153
vt 5.607647 0.2207153
vt 5.542405 -0.3827515
vt 5.542405 -0.3827515
vt 5.650828 0.6201172
vt 5.650828 0.6201172
vt 5.607647 0.2207153
vt 5.607647 0.2207153
vt 6.642637 0.09802246
vt 6.642637 0.09802246
vt 6.565002 -0.5046509
vt 6.565002 -0.5046509
vt 6.693986 0.4966431
vt 6.693986 0.4966431
vt 6.642637 0.09802246
vt 6.642637 0.09802246
vt 7.660949 -0.03974609
vt 7.660949 -0.03974609
vt 7.575674 -0.6418701
vt 7.575674 -0.6418701
vt 7.717323 0.3583008
vt 7.717323 0.3583008
vt 7.660949 -0.03974609
vt 7.660949 -0.03974609
vt 8.682783 -0.1881226
vt 8.682783 -0.1881226
vt 8.593441 -0.7899658
vt 8.593441 -0.7899658
vt 8.741825 0.2096191
vt 8.741825 0.2096191
vt 8.682783 -0.1881226
vt 8.682783 -0.1881226
vt 9.67801 -0.3369751
vt 9.67801 -0.3369751
vt 9.587558 -0.9388062
vt 9.587558 -0.9388062
vt 9.737779 0.06069336
vt 9.737779 0.06069336
vt 9.67801 -0.3369751
vt 9.67801 -0.3369751
vt 10.66804 -0.4850342
vt 10.66804 -0.4850342
vt 10.57885 -1.087036
vt 10.57885 -1.087036
vt 10.72698 -0.08723145
vt 10.72698 -0.08723145
vt 10.66804 -0.4850342
vt 10.66804 -0.4850342
vt 11.64995 -0.628186
vt 11.64995 -0.628186
vt 11.56404 -1.230542
vt 11.56404 -1.230542
vt 11.70673 -0.2301147
vt 11.70673 -0.2301147
vt 11.64995 -0.628186
vt 11.64995 -0.628186
vt 12.64832 -0.7667114
vt 12.64832 -0.7667114
vt 12.56763 -1.369531
vt 12.56763 -1.369531
vt 12.70167 -0.3682251
vt 12.70167 -0.3682251
vt 12.64832 -0.7667114
vt 12.64832 -0.7667114
vt 13.63306 -0.8934571
vt 13.63306 -0.8934571
vt 13.55921 -1.496777
vt 13.55921 -1.496777
vt 13.68189 -0.4944946
vt 13.68189 -0.4944946
vt 13.63306 -0.8934571
vt 13.63306 -0.8934571
vt 14.63008 -1.009094
vt 14.63008 -1.009094
vt 14.5648 -1.612891
vt 14.5648 -1.612891
vt 14.67327 -0.6095948
vt 14.67327 -0.6095948
vt 14.63008 -1.009094
vt 14.63008 -1.009094
vt 15.60875 -1.107629
vt 15.60875 -1.107629
vt 15.55341 -1.711816
vt 15.55341 -1.711816
vt 15.64539 -0.7076294
vt 15.64539 -0.7076294
vt 15.60875 -1.107629
vt 15.60875 -1.107629
vt 16.59562 -1.189514
vt 16.59562 -1.189514
vt 16.55181 -1.793933
vt 16.55181 -1.793933
vt 16.62464 -0.7890625
vt 16.62464 -0.7890625
vt 16.59562 -1.189514
vt 16.59562 -1.189514
vt 17.58916 -1.251758
vt 17.58916 -1.251758
vt 17.55846 -1.856152
vt 17.55846 -1.856152
vt 17.60951 -0.8509888
vt 17.60951 -0.8509888
vt 17.58916 -1.251758
vt 17.58916 -1.251758
vt 18.55796 -1.29491
vt 18.55796 -1.29491
vt 18.54163 -1.89469
vt 18.54163 -1.89469
vt 18.56884 -0.8950683
vt 18.56884 -0.8950683
vt 18.55796 -1.29491
vt 18.55796 -1.29491
vt 19.53015 -1.308911
vt 19.53015 -1.308911
vt 19.52946 -1.908899
vt 19.52946 -1.908899
vt 19.53061 -0.9089112
vt 19.53061 -0.9089112
vt 19.53015 -1.308911
vt 19.53015 -1.308911

usemtl GSDShoulder1
usemap GSDShoulder1
f 9/9/9 1/1/1 3/3/3
f 11/11/11 9/9/9 3/3/3
f 13/13/13 5/5/5 7/7/7
f 15/15/15 13/13/13 7/7/7
f 17/17/17 9/9/9 11/11/11
f 19/19/19 17/17/17 11/11/11
f 21/21/21 13/13/13 15/15/15
f 23/23/23 21/21/21 15/15/15
f 25/25/25 17/17/17 19/19/19
f 27/27/27 25/25/25 19/19/19
f 29/29/29 21/21/21 23/23/23
f 31/31/31 29/29/29 23/23/23
f 33/33/33 25/25/25 27/27/27
f 35/35/35 33/33/33 27/27/27
f 37/37/37 29/29/29 31/31/31
f 39/39/39 37/37/37 31/31/31
f 41/41/41 33/33/33 35/35/35
f 43/43/43 41/41/41 35/35/35
f 45/45/45 37/37/37 39/39/39
f 47/47/47 45/45/45 39/39/39
f 49/49/49 41/41/41 43/43/43
f 51/51/51 49/49/49 43/43/43
f 53/53/53 45/45/45 47/47/47
f 55/55/55 53/53/53 47/47/47
f 57/57/57 49/49/49 51/51/51
f 59/59/59 57/57/57 51/51/51
f 61/61/61 53/53/53 55/55/55
f 63/63/63 61/61/61 55/55/55
f 65/65/65 57/57/57 59/59/59
f 67/67/67 65/65/65 59/59/59
f 69/69/69 61/61/61 63/63/63
f 71/71/71 69/69/69 63/63/63
f 73/73/73 65/65/65 67/67/67
f 75/75/75 73/73/73 67/67/67
f 77/77/77 69/69/69 71/71/71
f 79/79/79 77/77/77 71/71/71
f 81/81/81 73/73/73 75/75/75
f 83/83/83 81/81/81 75/75/75
f 85/85/85 77/77/77 79/79/79
f 87/87/87 85/85/85 79/79/79
f 89/89/89 81/81/81 83/83/83
f 91/91/91 89/89/89 83/83/83
f 93/93/93 85/85/85 87/87/87
f 95/95/95 93/93/93 87/87/87
f 97/97/97 89/89/89 91/91/91
f 99/99/99 97/97/97 91/91/91
f 101/101/101 93/93/93 95/95/95
f 103/103/103 101/101/101 95/95/95
f 105/105/105 97/97/97 99/99/99
f 107/107/107 105/105/105 99/99/99
f 109/109/109 101/101/101 103/103/103
f 111/111/111 109/109/109 103/103/103
f 113/113/113 105/105/105 107/107/107
f 115/115/115 113/113/113 107/107/107
f 117/117/117 109/109/109 111/111/111
f 119/119/119 117/117/117 111/111/111
f 121/121/121 113/113/113 115/115/115
f 123/123/123 121/121/121 115/115/115
f 125/125/125 117/117/117 119/119/119
f 127/127/127 125/125/125 119/119/119
f 129/129/129 121/121/121 123/123/123
f 131/131/131 129/129/129 123/123/123
f 133/133/133 125/125/125 127/127/127
f 135/135/135 133/133/133 127/127/127
f 137/137/137 129/129/129 131/131/131
f 139/139/139 137/137/137 131/131/131
f 141/141/141 133/133/133 135/135/135
f 143/143/143 141/141/141 135/135/135
f 145/145/145 137/137/137 139/139/139
f 147/147/147 145/145/145 139/139/139
f 149/149/149 141/141/141 143/143/143
f 151/151/151 149/149/149 143/143/143
f 153/153/153 145/145/145 147/147/147
f 155/155/155 153/153/153 147/147/147
f 157/157/157 149/149/149 151/151/151
f 159/159/159 157/157/157 151/151/151
