mtllib ./Road1_0_126.mtl
g RoadCut63
v -247.5482 36.79589 724.4625
v -247.5482 36.79589 724.4625
v -245.4299 36.79589 734.2106
v -245.4299 36.79589 734.2106
v -242.6579 37.15087 723.4045
v -242.6579 37.15087 723.4045
v -240.5309 37.15087 733.1487
v -240.5309 37.15087 733.1487
v -237.7697 37.52774 722.3284
v -237.7697 37.52774 722.3284
v -235.6039 37.52774 732.0609
v -235.6039 37.52774 732.0609
v -232.857 37.92506 721.2273
v -232.857 37.92506 721.2273
v -230.6584 37.92506 730.9498
v -230.6584 37.92506 730.9498
v -228.0075 38.3309 720.1246
v -228.0075 38.3309 720.1246
v -225.7841 38.3309 729.8397
v -225.7841 38.3309 729.8397
v -223.0617 38.75315 718.9884
v -223.0617 38.75315 718.9884
v -220.8222 38.75315 728.6987
v -220.8222 38.75315 728.6987
v -218.0993 39.17918 717.8417
v -218.0993 39.17918 717.8417
v -215.8534 39.17918 727.5507
v -215.8534 39.17918 727.5507
v -213.2024 39.59593 716.7089
v -213.2024 39.59593 716.7089
v -210.9596 39.59593 726.4196
v -210.9596 39.59593 726.4196
v -208.3381 40.001 715.5873
v -208.3381 40.001 715.5873
v -206.1068 40.001 725.3024
v -206.1068 40.001 725.3024

vn -0.06915552 0.9974927 0.01502799
vn 0 0 0
vn -0.06908493 0.9974974 0.01504625
vn 0 0 0
vn -0.07050847 0.9973927 0.01536819
vn 0 0 0
vn -0.07169393 0.9973022 0.01575297
vn 0 0 0
vn -0.07428694 0.9971016 0.01642786
vn 0 0 0
vn -0.07524178 0.9970232 0.01683589
vn 0 0 0
vn -0.07743849 0.996845 0.01741956
vn 0 0 0
vn -0.07813159 0.9967852 0.01774004
vn 0 0 0
vn -0.07968562 0.9966545 0.01816554
vn 0 0 0
vn -0.08008809 0.9966184 0.01837689
vn 0 0 0
vn -0.08086391 0.9965515 0.01860226
vn 0 0 0
vn -0.080956 0.9965425 0.01868986
vn 0 0 0
vn -0.0809482 0.9965428 0.01870645
vn 0 0 0
vn -0.08072929 0.9965613 0.01866497
vn 0 0 0
vn -0.07996206 0.9966266 0.01847805
vn 0 0 0
vn -0.07946607 0.9966692 0.01832004
vn 0 0 0
vn -0.07891139 0.9967161 0.01817489
vn 0 0 0
vn -0.07901853 0.996708 0.01814866
vn 0 0 0

vt 0 0
vt 0 0
vt -0.4236694 1.949634
vt -0.4236694 1.949634
vt -0.9780731 -0.2115845
vt -0.9780731 -0.2115845
vt -1.403464 1.737244
vt -1.403464 1.737244
vt -1.95571 -0.4268067
vt -1.95571 -0.4268067
vt -2.38887 1.519678
vt -2.38887 1.519678
vt -2.938239 -0.6470337
vt -2.938239 -0.6470337
vt -3.377972 1.297473
vt -3.377972 1.297473
vt -3.908145 -0.8675659
vt -3.908145 -0.8675659
vt -4.352823 1.075452
vt -4.352823 1.075452
vt -4.897305 -1.094812
vt -4.897305 -1.094812
vt -5.345212 0.8472534
vt -5.345212 0.8472534
vt -5.889789 -1.324158
vt -5.889789 -1.324158
vt -6.338971 0.6176392
vt -6.338971 0.6176392
vt -6.869159 -1.55072
vt -6.869159 -1.55072
vt -7.317725 0.3914185
vt -7.317725 0.3914185
vt -7.842026 -1.775024
vt -7.842026 -1.775024
vt -8.288291 0.1679932
vt -8.288291 0.1679932

usemtl GSDRoad1
usemap GSDRoad1
f 5/5/5 1/1/1 3/3/3
f 7/7/7 5/5/5 3/3/3
f 9/9/9 5/5/5 7/7/7
f 11/11/11 9/9/9 7/7/7
f 13/13/13 9/9/9 11/11/11
f 15/15/15 13/13/13 11/11/11
f 17/17/17 13/13/13 15/15/15
f 19/19/19 17/17/17 15/15/15
f 21/21/21 17/17/17 19/19/19
f 23/23/23 21/21/21 19/19/19
f 25/25/25 21/21/21 23/23/23
f 27/27/27 25/25/25 23/23/23
f 29/29/29 25/25/25 27/27/27
f 31/31/31 29/29/29 27/27/27
f 33/33/33 29/29/29 31/31/31
f 35/35/35 33/33/33 31/31/31
