mtllib ./Road7_2_9.mtl
g Markers4
v -131.9083 0.04 301.6375
v -131.9083 0.04 301.6375
v -120.8157 0.04 284.9955
v -120.8157 0.04 284.9955
v -135.2435 0.04 299.6539
v -135.2435 0.04 299.6539
v -126.1309 0.04 281.8506
v -126.1309 0.04 281.8506
v -138.8917 0.04 298.0344
v -138.8917 0.04 298.0344
v -131.69 0.04 279.376
v -131.69 0.04 279.376
v -142.8935 0.04 296.6775
v -142.8935 0.04 296.6775
v -137.1717 0.04 277.5135
v -137.1717 0.04 277.5135
v -147.1949 0.04 295.5327
v -147.1949 0.04 295.5327
v -142.5584 0.04 276.0775
v -142.5584 0.04 276.0775
v -151.7556 0.04 294.5429
v -151.7556 0.04 294.5429
v -147.8459 0.04 274.9287
v -147.8459 0.04 274.9287

vn 0 1 0
vn 0 0 0
vn 0 1 0
vn 0 0 0
vn 0 1 0
vn 0 0 0
vn 0 1 0
vn 0 0 0
vn -2.43298E-10 1 -9.39076E-11
vn 0 0 0
vn -4.379949E-10 1 -1.496578E-10
vn 0 0 0
vn -3.638608E-10 1 -1.296506E-10
vn 0 0 0
vn 1.714916E-12 1 -6.393986E-12
vn 0 0 0
vn 2.448742E-10 1 6.56791E-11
vn 0 0 0
vn 1.157862E-10 1 2.75939E-11
vn 0 0 0
vn 0 1 0
vn 0 0 0
vn 0 1 0
vn 0 0 0

vt 0 22.77595
vt 0 0
vt 1 22.77595
vt 0 0
vt 0 23.55205
vt 0 23.55205
vt 1 23.55205
vt 1 23.55205
vt 0 24.35034
vt 0 24.35034
vt 1 24.35034
vt 1 24.35034
vt 0 25.19545
vt 0 25.19545
vt 1 25.19545
vt 1 25.19545
vt 0 26.0857
vt 0 26.0857
vt 1 26.0857
vt 1 26.0857
vt 0 27.01906
vt 0 0
vt 1 27.01906
vt 0 0

usemtl GSDWhiteYellowDouble-4L
usemap GSDWhiteYellowDouble-4L
f 5/5/5 1/1/1 3/3/3
f 7/7/7 5/5/5 3/3/3
f 9/9/9 5/5/5 7/7/7
f 11/11/11 9/9/9 7/7/7
f 13/13/13 9/9/9 11/11/11
f 15/15/15 13/13/13 11/11/11
f 17/17/17 13/13/13 15/15/15
f 19/19/19 17/17/17 15/15/15
f 21/21/21 17/17/17 19/19/19
f 23/23/23 21/21/21 19/19/19
