mtllib ./Road1_0_220.mtl
g SCutL11
v -880.2822 71.83002 361.5963
v -880.2822 71.83002 361.5963
v -877.2495 71.83002 360.1925
v -877.2495 71.83002 360.1925
v -882.1711 70.88025 362.4706
v -882.1711 70.88025 362.4706
v -880.2822 71.83002 361.5963
v -880.2822 71.83002 361.5963
v -882.3876 71.42779 356.8618
v -882.3876 71.42779 356.8618
v -879.3179 71.42779 355.5216
v -879.3179 71.42779 355.5216
v -884.2969 70.39856 357.6953
v -884.2969 70.39856 357.6953
v -882.3876 71.42779 356.8618
v -882.3876 71.42779 356.8618
v -884.3933 71.02992 352.2829
v -884.3933 71.02992 352.2829
v -881.3158 71.02992 350.9427
v -881.3158 71.02992 350.9427
v -886.3052 70.06277 353.1154
v -886.3052 70.06277 353.1154
v -884.3933 71.02992 352.2829
v -884.3933 71.02992 352.2829
v -886.3997 70.63451 347.6744
v -886.3997 70.63451 347.6744
v -883.3123 70.63451 346.3412
v -883.3123 70.63451 346.3412
v -888.3156 69.73131 348.5017
v -888.3156 69.73131 348.5017
v -886.3997 70.63451 347.6744
v -886.3997 70.63451 347.6744
v -888.4362 70.23294 342.9416
v -888.4362 70.23294 342.9416
v -885.337 70.23294 341.6219
v -885.337 70.23294 341.6219
v -890.3575 69.26996 343.7598
v -890.3575 69.26996 343.7598
v -888.4362 70.23294 342.9416
v -888.4362 70.23294 342.9416
v -890.4353 69.83592 338.2165
v -890.4353 69.83592 338.2165
v -887.3229 69.83592 336.9161
v -887.3229 69.83592 336.9161
v -892.3633 68.81379 339.022
v -892.3633 68.81379 339.022
v -890.4353 69.83592 338.2165
v -890.4353 69.83592 338.2165
v -892.3804 69.44449 333.5179
v -892.3804 69.44449 333.5179
v -889.2536 69.44449 332.2421
v -889.2536 69.44449 332.2421
v -894.316 68.494 334.3076
v -894.316 68.494 334.3076
v -892.3804 69.44449 333.5179
v -892.3804 69.44449 333.5179
v -894.3061 69.04948 328.7393
v -894.3061 69.04948 328.7393
v -891.1636 69.04948 327.494
v -891.1636 69.04948 327.494
v -896.2504 68.0452 329.5096
v -896.2504 68.0452 329.5096
v -894.3061 69.04948 328.7393
v -894.3061 69.04948 328.7393
v -896.1974 68.65156 323.891
v -896.1974 68.65156 323.891
v -893.0378 68.65156 322.6824
v -893.0378 68.65156 322.6824
v -898.1512 67.59979 324.6384
v -898.1512 67.59979 324.6384
v -896.1974 68.65156 323.891
v -896.1974 68.65156 323.891
v -897.993 68.26157 319.1085
v -897.993 68.26157 319.1085
v -894.8157 68.26157 317.9416
v -894.8157 68.26157 317.9416
v -899.9571 67.28871 319.8298
v -899.9571 67.28871 319.8298
v -897.993 68.26157 319.1085
v -897.993 68.26157 319.1085
v -899.7274 67.87005 314.278
v -899.7274 67.87005 314.278
v -896.5316 67.87005 313.1594
v -896.5316 67.87005 313.1594
v -901.7026 66.84972 314.9695
v -901.7026 66.84972 314.9695
v -899.7274 67.87005 314.278
v -899.7274 67.87005 314.278
v -901.3869 67.47752 309.4073
v -901.3869 67.47752 309.4073
v -898.1718 67.47752 308.3436
v -898.1718 67.47752 308.3436
v -903.3738 66.41454 310.0647
v -903.3738 66.41454 310.0647
v -901.3869 67.47752 309.4073
v -901.3869 67.47752 309.4073
v -902.9572 67.08463 304.5055
v -902.9572 67.08463 304.5055
v -899.7221 67.08463 303.5041
v -899.7221 67.08463 303.5041
v -904.9564 65.98381 305.1243
v -904.9564 65.98381 305.1243
v -902.9572 67.08463 304.5055
v -902.9572 67.08463 304.5055
v -904.4611 66.68163 299.4502
v -904.4611 66.68163 299.4502
v -901.2053 66.68163 298.5211
v -901.2053 66.68163 298.5211
v -906.4733 65.5586 300.0245
v -906.4733 65.5586 300.0245
v -904.4611 66.68163 299.4502
v -904.4611 66.68163 299.4502
v -905.8402 66.2795 294.3787
v -905.8402 66.2795 294.3787
v -902.5636 66.2795 293.531
v -902.5636 66.2795 293.531
v -907.8657 65.16797 294.9028
v -907.8657 65.16797 294.9028
v -905.8402 66.2795 294.3787
v -905.8402 66.2795 294.3787
v -907.0789 65.87891 289.2993
v -907.0789 65.87891 289.2993
v -903.7819 65.87891 288.5431
v -903.7819 65.87891 288.5431
v -909.1176 64.75375 289.7669
v -909.1176 64.75375 289.7669
v -907.0789 65.87891 289.2993
v -907.0789 65.87891 289.2993
v -908.186 65.47032 284.0899
v -908.186 65.47032 284.0899
v -904.8694 65.47032 283.439
v -904.8694 65.47032 283.439
v -910.2377 64.36814 284.4926
v -910.2377 64.36814 284.4926
v -908.186 65.47032 284.0899
v -908.186 65.47032 284.0899
v -909.1097 65.06474 278.8887
v -909.1097 65.06474 278.8887
v -905.7756 65.06474 278.3559
v -905.7756 65.06474 278.3559
v -911.1736 63.97218 279.2184
v -911.1736 63.97218 279.2184
v -909.1097 65.06474 278.8887
v -909.1097 65.06474 278.8887
v -909.8468 64.65285 273.5744
v -909.8468 64.65285 273.5744
v -906.4979 64.65285 273.1774
v -906.4979 64.65285 273.1774
v -911.9212 63.58736 273.8203
v -911.9212 63.58736 273.8203
v -909.8468 64.65285 273.5744
v -909.8468 64.65285 273.5744
v -910.3594 64.23576 268.1572
v -910.3594 64.23576 268.1572
v -907.0006 64.23576 267.9161
v -907.0006 64.23576 267.9161
v -912.4416 63.17634 268.3066
v -912.4416 63.17634 268.3066
v -910.3594 64.23576 268.1572
v -910.3594 64.23576 268.1572

vn -0.03251358 0.9969999 -0.07024359
vn 0 0 0
vn -0.03196402 0.9969579 -0.07108629
vn 0 0 0
vn -0.4128401 0.9061061 0.09238307
vn 0 0 0
vn -0.4223022 0.9004463 0.104198
vn 0 0 0
vn -0.0318925 0.9969221 -0.07161834
vn 0 0 0
vn -0.03161521 0.9968689 -0.07247591
vn 0 0 0
vn -0.4244924 0.898705 0.1101614
vn 0 0 0
vn -0.4247399 0.8981516 0.1136643
vn 0 0 0
vn -0.03158389 0.9968706 -0.07246663
vn 0 0 0
vn -0.03138667 0.9968906 -0.07227869
vn 0 0 0
vn -0.4170575 0.9018671 0.1126894
vn 0 0 0
vn -0.4046828 0.9086891 0.102547
vn 0 0 0
vn -0.03108722 0.996935 -0.07179214
vn 0 0 0
vn -0.03083109 0.9969472 -0.07173416
vn 0 0 0
vn -0.3989413 0.9119899 0.09550046
vn 0 0 0
vn -0.3998682 0.9120176 0.09126472
vn 0 0 0
vn -0.03052502 0.9969841 -0.07135017
vn 0 0 0
vn -0.03021591 0.9969896 -0.07140613
vn 0 0 0
vn -0.4077875 0.9086085 0.09022122
vn 0 0 0
vn -0.4192939 0.9024741 0.09865647
vn 0 0 0
vn -0.02989748 0.997021 -0.07110178
vn 0 0 0
vn -0.02954016 0.9970204 -0.07125854
vn 0 0 0
vn -0.4244796 0.8994521 0.1039373
vn 0 0 0
vn -0.4219499 0.9004672 0.1054383
vn 0 0 0
vn -0.02920523 0.9970475 -0.07101516
vn 0 0 0
vn -0.02879238 0.9970423 -0.07125786
vn 0 0 0
vn -0.4158719 0.9042464 0.09689666
vn 0 0 0
vn -0.4155486 0.9050426 0.09064884
vn 0 0 0
vn -0.02843671 0.9970661 -0.07106654
vn 0 0 0
vn -0.02796087 0.9970562 -0.07139374
vn 0 0 0
vn -0.4229596 0.9018511 0.08814692
vn 0 0 0
vn -0.4328026 0.8965656 0.09408597
vn 0 0 0
vn -0.0275804 0.9970773 -0.07124687
vn 0 0 0
vn -0.027044 0.9970632 -0.07164995
vn 0 0 0
vn -0.4371316 0.8941122 0.09736171
vn 0 0 0
vn -0.4331183 0.8961452 0.09660418
vn 0 0 0
vn -0.02663114 0.9970829 -0.07152866
vn 0 0 0
vn -0.02602769 0.9970648 -0.07200205
vn 0 0 0
vn -0.4264247 0.9003481 0.08680532
vn 0 0 0
vn -0.4246918 0.9019099 0.07871126
vn 0 0 0
vn -0.02557978 0.9970835 -0.07190294
vn 0 0 0
vn -0.02489439 0.9970614 -0.07244781
vn 0 0 0
vn -0.4316063 0.8989947 0.07432815
vn 0 0 0
vn -0.4406282 0.8942841 0.07811996
vn 0 0 0
vn -0.02440189 0.9970799 -0.07236116
vn 0 0 0
vn -0.02362345 0.997054 -0.07297544
vn 0 0 0
vn -0.4469366 0.891587 0.07293946
vn 0 0 0
vn -0.4549321 0.8873262 0.07542529
vn 0 0 0
vn -0.02307397 0.9970729 -0.07289057
vn 0 0 0
vn -0.02217541 0.9970429 -0.07357785
vn 0 0 0
vn -0.4605415 0.8848783 0.06994196
vn 0 0 0
vn -0.4664138 0.8817373 0.07069314
vn 0 0 0
vn -0.02156196 0.997063 -0.07348793
vn 0 0 0
vn -0.02052584 0.9970288 -0.07424425
vn 0 0 0
vn -0.4698868 0.8802941 0.06548733
vn 0 0 0
vn -0.4708916 0.8799357 0.06304152
vn 0 0 0
vn -0.01983474 0.9970517 -0.0741264
vn 0 0 0
vn -0.01865414 0.9970133 -0.07494295
vn 0 0 0
vn -0.4712349 0.8803294 0.05438592
vn 0 0 0
vn -0.4717289 0.8803633 0.04931643
vn 0 0 0
vn -0.01787597 0.99704 -0.07477751
vn 0 0 0
vn -0.01650976 0.9969974 -0.07565505
vn 0 0 0
vn -0.4742585 0.8793646 0.04238994
vn 0 0 0
vn -0.4731109 0.8801903 0.03783015
vn 0 0 0
vn -0.01563467 0.9970287 -0.07542668
vn 0 0 0
vn -0.01405518 0.9969819 -0.07635061
vn 0 0 0
vn -0.4718041 0.8812525 0.02819324
vn 0 0 0
vn -0.4683658 0.8832976 0.02046506
vn 0 0 0
vn -0.01306184 0.9970213 -0.0760131
vn 0 0 0
vn -0.01123179 0.9969703 -0.07696822
vn 0 0 0
vn -0.4681121 0.8836021 0.01087581
vn 0 0 0
vn -0.4637579 0.8859557 0.003312573
vn 0 0 0
vn -0.01011172 0.997019 -0.07649075
vn 0 0 0
vn -0.007967159 0.9969642 -0.07745215
vn 0 0 0
vn -0.4613741 0.8871605 -0.008950082
vn 0 0 0
vn -0.457065 0.8892502 -0.0180486
vn 0 0 0
vn -0.007342845 0.9969898 -0.0771845
vn 0 0 0
vn -0.005634707 0.9968989 -0.07849081
vn 0 0 0
vn -0.4568741 0.8892024 -0.0241907
vn 0 0 0
vn -0.4547816 0.8902376 -0.02551157
vn 0 0 0

vt 0 0
vt 0 0
vt -0.6065552 -0.2807556
vt -0.6065552 -0.2807556
vt 0.3777832 0.1748596
vt 0.3777832 0.1748596
vt 0 0
vt 0 0
vt 0.4210694 -0.9469056
vt 0.4210694 -0.9469056
vt -0.1928589 -1.214941
vt -0.1928589 -1.214941
vt 0.8029419 -0.780188
vt 0.8029419 -0.780188
vt 0.4210694 -0.9469056
vt 0.4210694 -0.9469056
vt 0.8222168 -1.862677
vt 0.8222168 -1.862677
vt 0.2067139 -2.130707
vt 0.2067139 -2.130707
vt 1.20459 -1.696173
vt 1.20459 -1.696173
vt 0.8222168 -1.862677
vt 0.8222168 -1.862677
vt 1.223486 -2.784381
vt 1.223486 -2.784381
vt 0.6060058 -3.051013
vt 0.6060058 -3.051013
vt 1.606665 -2.618915
vt 1.606665 -2.618915
vt 1.223486 -2.784381
vt 1.223486 -2.784381
vt 1.630786 -3.730939
vt 1.630786 -3.730939
vt 1.01095 -3.994879
vt 1.01095 -3.994879
vt 2.015051 -3.567303
vt 2.015051 -3.567303
vt 1.630786 -3.730939
vt 1.630786 -3.730939
vt 2.030615 -4.675958
vt 2.030615 -4.675958
vt 1.40813 -4.936041
vt 1.40813 -4.936041
vt 2.416211 -4.51485
vt 2.416211 -4.51485
vt 2.030615 -4.675958
vt 2.030615 -4.675958
vt 2.419641 -5.61568
vt 2.419641 -5.61568
vt 1.794275 -5.870831
vt 1.794275 -5.870831
vt 2.806751 -5.457739
vt 2.806751 -5.457739
vt 2.419641 -5.61568
vt 2.419641 -5.61568
vt 2.804773 -6.571405
vt 2.804773 -6.571405
vt 2.17627 -6.820447
vt 2.17627 -6.820447
vt 3.193628 -6.417328
vt 3.193628 -6.417328
vt 2.804773 -6.571405
vt 2.804773 -6.571405
vt 3.183032 -7.541059
vt 3.183032 -7.541059
vt 2.551111 -7.782782
vt 2.551111 -7.782782
vt 3.573804 -7.391577
vt 3.573804 -7.391577
vt 3.183032 -7.541059
vt 3.183032 -7.541059
vt 3.542151 -8.497565
vt 3.542151 -8.497565
vt 2.906702 -8.730933
vt 2.906702 -8.730933
vt 3.934973 -8.353296
vt 3.934973 -8.353296
vt 3.542151 -8.497565
vt 3.542151 -8.497565
vt 3.889038 -9.463648
vt 3.889038 -9.463648
vt 3.249878 -9.687385
vt 3.249878 -9.687385
vt 4.28407 -9.325366
vt 4.28407 -9.325366
vt 3.889038 -9.463648
vt 3.889038 -9.463648
vt 4.220935 -10.43779
vt 4.220935 -10.43779
vt 3.577918 -10.65054
vt 3.577918 -10.65054
vt 4.61831 -10.30632
vt 4.61831 -10.30632
vt 4.220935 -10.43779
vt 4.220935 -10.43779
vt 4.534997 -11.41816
vt 4.534997 -11.41816
vt 3.887976 -11.61845
vt 3.887976 -11.61845
vt 4.934827 -11.2944
vt 4.934827 -11.2944
vt 4.534997 -11.41816
vt 4.534997 -11.41816
vt 4.835779 -12.42921
vt 4.835779 -12.42921
vt 4.184607 -12.61505
vt 4.184607 -12.61505
vt 5.23822 -12.31436
vt 5.23822 -12.31436
vt 4.835779 -12.42921
vt 4.835779 -12.42921
vt 5.111597 -13.44351
vt 5.111597 -13.44351
vt 4.456275 -13.61306
vt 4.456275 -13.61306
vt 5.516687 -13.3387
vt 5.516687 -13.3387
vt 5.111597 -13.44351
vt 5.111597 -13.44351
vt 5.359326 -14.45939
vt 5.359326 -14.45939
vt 4.699939 -14.61064
vt 4.699939 -14.61064
vt 5.767066 -14.36587
vt 5.767066 -14.36587
vt 5.359326 -14.45939
vt 5.359326 -14.45939
vt 5.58075 -15.50128
vt 5.58075 -15.50128
vt 4.917432 -15.63146
vt 4.917432 -15.63146
vt 5.991101 -15.42074
vt 5.991101 -15.42074
vt 5.58075 -15.50128
vt 5.58075 -15.50128
vt 5.765503 -16.54152
vt 5.765503 -16.54152
vt 5.09867 -16.64807
vt 5.09867 -16.64807
vt 6.178272 -16.47557
vt 6.178272 -16.47557
vt 5.765503 -16.54152
vt 5.765503 -16.54152
vt 5.912915 -17.60438
vt 5.912915 -17.60438
vt 5.24314 -17.68378
vt 5.24314 -17.68378
vt 6.327796 -17.5552
vt 6.327796 -17.5552
vt 5.912915 -17.60438
vt 5.912915 -17.60438
vt 6.01543 -18.68782
vt 6.01543 -18.68782
vt 5.343677 -18.73604
vt 5.343677 -18.73604
vt 6.431873 -18.65793
vt 6.431873 -18.65793
vt 6.01543 -18.68782
vt 6.01543 -18.68782

usemtl GSDShoulder1
usemap GSDShoulder1
f 9/9/9 1/1/1 3/3/3
f 11/11/11 9/9/9 3/3/3
f 13/13/13 5/5/5 7/7/7
f 15/15/15 13/13/13 7/7/7
f 17/17/17 9/9/9 11/11/11
f 19/19/19 17/17/17 11/11/11
f 21/21/21 13/13/13 15/15/15
f 23/23/23 21/21/21 15/15/15
f 25/25/25 17/17/17 19/19/19
f 27/27/27 25/25/25 19/19/19
f 29/29/29 21/21/21 23/23/23
f 31/31/31 29/29/29 23/23/23
f 33/33/33 25/25/25 27/27/27
f 35/35/35 33/33/33 27/27/27
f 37/37/37 29/29/29 31/31/31
f 39/39/39 37/37/37 31/31/31
f 41/41/41 33/33/33 35/35/35
f 43/43/43 41/41/41 35/35/35
f 45/45/45 37/37/37 39/39/39
f 47/47/47 45/45/45 39/39/39
f 49/49/49 41/41/41 43/43/43
f 51/51/51 49/49/49 43/43/43
f 53/53/53 45/45/45 47/47/47
f 55/55/55 53/53/53 47/47/47
f 57/57/57 49/49/49 51/51/51
f 59/59/59 57/57/57 51/51/51
f 61/61/61 53/53/53 55/55/55
f 63/63/63 61/61/61 55/55/55
f 65/65/65 57/57/57 59/59/59
f 67/67/67 65/65/65 59/59/59
f 69/69/69 61/61/61 63/63/63
f 71/71/71 69/69/69 63/63/63
f 73/73/73 65/65/65 67/67/67
f 75/75/75 73/73/73 67/67/67
f 77/77/77 69/69/69 71/71/71
f 79/79/79 77/77/77 71/71/71
f 81/81/81 73/73/73 75/75/75
f 83/83/83 81/81/81 75/75/75
f 85/85/85 77/77/77 79/79/79
f 87/87/87 85/85/85 79/79/79
f 89/89/89 81/81/81 83/83/83
f 91/91/91 89/89/89 83/83/83
f 93/93/93 85/85/85 87/87/87
f 95/95/95 93/93/93 87/87/87
f 97/97/97 89/89/89 91/91/91
f 99/99/99 97/97/97 91/91/91
f 101/101/101 93/93/93 95/95/95
f 103/103/103 101/101/101 95/95/95
f 105/105/105 97/97/97 99/99/99
f 107/107/107 105/105/105 99/99/99
f 109/109/109 101/101/101 103/103/103
f 111/111/111 109/109/109 103/103/103
f 113/113/113 105/105/105 107/107/107
f 115/115/115 113/113/113 107/107/107
f 117/117/117 109/109/109 111/111/111
f 119/119/119 117/117/117 111/111/111
f 121/121/121 113/113/113 115/115/115
f 123/123/123 121/121/121 115/115/115
f 125/125/125 117/117/117 119/119/119
f 127/127/127 125/125/125 119/119/119
f 129/129/129 121/121/121 123/123/123
f 131/131/131 129/129/129 123/123/123
f 133/133/133 125/125/125 127/127/127
f 135/135/135 133/133/133 127/127/127
f 137/137/137 129/129/129 131/131/131
f 139/139/139 137/137/137 131/131/131
f 141/141/141 133/133/133 135/135/135
f 143/143/143 141/141/141 135/135/135
f 145/145/145 137/137/137 139/139/139
f 147/147/147 145/145/145 139/139/139
f 149/149/149 141/141/141 143/143/143
f 151/151/151 149/149/149 143/143/143
f 153/153/153 145/145/145 147/147/147
f 155/155/155 153/153/153 147/147/147
f 157/157/157 149/149/149 151/151/151
f 159/159/159 157/157/157 151/151/151
