mtllib ./Road1_0_254.mtl
g SCutL45
v -846.4568 12.10203 656.1407
v -846.4568 12.10203 656.1407
v -845.3854 12.10203 659.0698
v -845.3854 12.10203 659.0698
v -847.1523 10.0217 654.239
v -847.1523 10.0217 654.239
v -846.4568 12.10203 656.1407
v -846.4568 12.10203 656.1407
v -839.5913 12.54752 654.5774
v -839.5913 12.54752 654.5774
v -839.2829 12.54752 657.6719
v -839.2829 12.54752 657.6719
v -839.7919 10.47353 652.5648
v -839.7919 10.47353 652.5648
v -839.5913 12.54752 654.5774
v -839.5913 12.54752 654.5774
v -832.7734 12.9869 654.6791
v -832.7734 12.9869 654.6791
v -833.1434 12.9869 657.7602
v -833.1434 12.9869 657.7602
v -832.5323 10.89072 652.6721
v -832.5323 10.89072 652.6721
v -832.7734 12.9869 654.6791
v -832.7734 12.9869 654.6791
v -826.6517 13.39884 655.8947
v -826.6517 13.39884 655.8947
v -827.4482 13.39884 658.8887
v -827.4482 13.39884 658.8887
v -826.1321 12.21664 653.9418
v -826.1321 12.21664 653.9418
v -826.6517 13.39884 655.8947
v -826.6517 13.39884 655.8947
v -821.4138 13.76876 657.489
v -821.4138 13.76876 657.489
v -822.3855 13.76876 660.4265
v -822.3855 13.76876 660.4265
v -820.7794 12.21664 655.5709
v -820.7794 12.21664 655.5709
v -821.4138 13.76876 657.489
v -821.4138 13.76876 657.489
v -816.6202 14.12091 659.087
v -816.6202 14.12091 659.087
v -817.5701 14.12091 662.0277
v -817.5701 14.12091 662.0277
v -815.9993 12.21664 657.1649
v -815.9993 12.21664 657.1649
v -816.6202 14.12091 659.087
v -816.6202 14.12091 659.087

vn -0.05977733 0.9979722 0.02186438
vn 0 0 0
vn -0.0651442 0.9977643 0.01492183
vn 0 0 0
vn -0.1995087 0.6966535 -0.6891083
vn 0 0 0
vn -0.2010448 0.6943923 -0.6909417
vn 0 0 0
vn -0.06489462 0.9978195 0.01204076
vn 0 0 0
vn -0.0688054 0.9976285 0.001855207
vn 0 0 0
vn -0.1446715 0.697772 -0.7015586
vn 0 0 0
vn -0.08889834 0.6953058 -0.7131948
vn 0 0 0
vn -0.06697965 0.9977498 -0.003018382
vn 0 0 0
vn -0.06843978 0.99759 -0.01141386
vn 0 0 0
vn -0.02148767 0.6929556 -0.72066
vn 0 0 0
vn -0.000669695 0.7425205 -0.6698229
vn 0 0 0
vn -0.06643654 0.9976886 -0.01426654
vn 0 0 0
vn -0.06669408 0.9975904 -0.01911329
vn 0 0 0
vn 0.05537486 0.8015012 -0.5954238
vn 0 0 0
vn 0.1039422 0.8401102 -0.5323632
vn 0 0 0
vn -0.0657986 0.9976264 -0.0203045
vn 0 0 0
vn -0.06604242 0.9975813 -0.02167815
vn 0 0 0
vn 0.1548209 0.8171182 -0.5552913
vn 0 0 0
vn 0.161928 0.7708537 -0.6160876
vn 0 0 0
vn -0.06594164 0.9975906 -0.02155695
vn 0 0 0
vn -0.06587808 0.9976007 -0.02128072
vn 0 0 0
vn 0.1803697 0.7596701 -0.6247945
vn 0 0 0
vn 0.1685256 0.7269028 -0.6657411
vn 0 0 0

vt 0 0
vt 0 0
vt -0.21427 0.5858154
vt -0.21427 0.5858154
vt 0.1391113 -0.3803467
vt 0.1391113 -0.3803467
vt 0 0
vt 0 0
vt -1.373096 -0.3126709
vt -1.373096 -0.3126709
vt -1.434778 0.3062378
vt -1.434778 0.3062378
vt -1.332971 -0.7151856
vt -1.332971 -0.7151856
vt -1.373096 -0.3126709
vt -1.373096 -0.3126709
vt -2.73667 -0.2923218
vt -2.73667 -0.2923218
vt -2.662671 0.3238892
vt -2.662671 0.3238892
vt -2.784888 -0.6937256
vt -2.784888 -0.6937256
vt -2.73667 -0.2923218
vt -2.73667 -0.2923218
vt -3.961023 -0.04920654
vt -3.961023 -0.04920654
vt -3.801709 0.549585
vt -3.801709 0.549585
vt -4.064929 -0.4397827
vt -4.064929 -0.4397827
vt -3.961023 -0.04920654
vt -3.961023 -0.04920654
vt -5.008594 0.2696533
vt -5.008594 0.2696533
vt -4.814258 0.8571411
vt -4.814258 0.8571411
vt -5.135486 -0.1139648
vt -5.135486 -0.1139648
vt -5.008594 0.2696533
vt -5.008594 0.2696533
vt -5.967322 0.5892456
vt -5.967322 0.5892456
vt -5.777332 1.177393
vt -5.777332 1.177393
vt -6.091492 0.204834
vt -6.091492 0.204834
vt -5.967322 0.5892456
vt -5.967322 0.5892456

usemtl GSDShoulder1
usemap GSDShoulder1
f 9/9/9 1/1/1 3/3/3
f 11/11/11 9/9/9 3/3/3
f 13/13/13 5/5/5 7/7/7
f 15/15/15 13/13/13 7/7/7
f 17/17/17 9/9/9 11/11/11
f 19/19/19 17/17/17 11/11/11
f 21/21/21 13/13/13 15/15/15
f 23/23/23 21/21/21 15/15/15
f 25/25/25 17/17/17 19/19/19
f 27/27/27 25/25/25 19/19/19
f 29/29/29 21/21/21 23/23/23
f 31/31/31 29/29/29 23/23/23
f 33/33/33 25/25/25 27/27/27
f 35/35/35 33/33/33 27/27/27
f 37/37/37 29/29/29 31/31/31
f 39/39/39 37/37/37 31/31/31
f 41/41/41 33/33/33 35/35/35
f 43/43/43 41/41/41 35/35/35
f 45/45/45 37/37/37 39/39/39
f 47/47/47 45/45/45 39/39/39
