mtllib ./Road7_2_31.mtl
g SCutL7
v -315.6977 0 296.7591
v -315.6977 0 296.7591
v -315.7218 0 293.5616
v -315.7218 0 293.5616
v -315.6728 -0.2276264 300.0578
v -315.6728 -0.2276264 300.0578
v -315.6977 0 296.7591
v -315.6977 0 296.7591
v -317.267 0.03 296.7777
v -317.267 0.03 296.7777
v -317.291 0.03 293.5732
v -317.291 0.03 293.5732
v -317.2422 -0.2276264 300.0782
v -317.2422 -0.2276264 300.0782
v -317.267 0.03 296.7777
v -317.267 0.03 296.7777

vn 0.01911153 0.9998174 -0.0001442813
vn 0 0 0
vn 0.01911241 0.9998173 -0.0001438572
vn 0 0 0
vn 0.0008940909 0.9976277 0.06883429
vn 0 0 0
vn 0.01044335 0.9972587 0.07325269
vn 0 0 0
vn 0.01911241 0.9998173 -0.0001438572
vn 0 0 0
vn 0.01911329 0.9998173 -0.0001434339
vn 0 0 0
vn 0.01044335 0.9972587 0.07325269
vn 0 0 0
vn 0.0199794 0.9967799 0.07765741
vn 0 0 0

vt 0 0
vt 0 0
vt 0.004827881 -0.639502
vt 0.004827881 -0.639502
vt -0.004986573 0.6597412
vt -0.004986573 0.6597412
vt 0 0
vt 0 0
vt 0.3138611 0.003735352
vt 0.3138611 0.003735352
vt 0.3186707 -0.6371643
vt 0.3186707 -0.6371643
vt 0.308905 0.6638184
vt 0.308905 0.6638184
vt 0.3138611 0.003735352
vt 0.3138611 0.003735352

usemtl GSDShoulder1
usemap GSDShoulder1
f 9/9/9 1/1/1 3/3/3
f 11/11/11 9/9/9 3/3/3
f 13/13/13 5/5/5 7/7/7
f 15/15/15 13/13/13 7/7/7
