mtllib ./Road7_2_28.mtl
g SCutL4
v -133.5722 0.03 304.1337
v -133.5722 0.03 304.1337
v -131.9083 0.03 301.6375
v -131.9083 0.03 301.6375
v -135.3747 -0.67 306.838
v -135.3747 -0.67 306.838
v -133.5722 0.03 304.1337
v -133.5722 0.03 304.1337
v -136.6104 0.03 302.3244
v -136.6104 0.03 302.3244
v -135.2435 0.03 299.6539
v -135.2435 0.03 299.6539
v -138.0912 -0.67 305.2174
v -138.0912 -0.67 305.2174
v -136.6104 0.03 302.3244
v -136.6104 0.03 302.3244
v -139.972 0.03 300.8332
v -139.972 0.03 300.8332
v -138.8917 0.03 298.0344
v -138.8917 0.03 298.0344
v -141.1422 -0.67 303.8651
v -141.1422 -0.67 303.8651
v -139.972 0.03 300.8332
v -139.972 0.03 300.8332
v -143.7517 0.03 299.5521
v -143.7517 0.03 299.5521
v -142.8935 0.03 296.6775
v -142.8935 0.03 296.6775
v -144.6815 -0.67 302.6663
v -144.6815 -0.67 302.6663
v -143.7517 0.03 299.5521
v -143.7517 0.03 299.5521
v -147.8904 0.03 298.451
v -147.8904 0.03 298.451
v -147.1949 0.03 295.5327
v -147.1949 0.03 295.5327
v -148.6438 -0.67 301.6124
v -148.6438 -0.67 301.6124
v -147.8904 0.03 298.451
v -147.8904 0.03 298.451
v -152.342 0.03 297.485
v -152.342 0.03 297.485
v -151.7556 0.03 294.5429
v -151.7556 0.03 294.5429
v -152.9773 -0.67 300.6723
v -152.9773 -0.67 300.6723
v -152.342 0.03 297.485
v -152.342 0.03 297.485

vn 0 1 0
vn 0 0 0
vn 0 1 0
vn 0 0 0
vn -0.1080038 0.9775275 0.1810391
vn 0 0 0
vn -0.1079726 0.9775091 0.1811571
vn 0 0 0
vn 0 1 0
vn 0 0 0
vn 0 1 0
vn 0 0 0
vn -0.1004895 0.9775804 0.1850364
vn 0 0 0
vn -0.09300281 0.9775815 0.1889046
vn 0 0 0
vn -2.984236E-10 1 -1.151848E-10
vn 0 0 0
vn -5.776091E-10 1 -1.973621E-10
vn 0 0 0
vn -0.07925998 0.9775702 0.1951267
vn 0 0 0
vn -0.07337938 0.9775814 0.1973576
vn 0 0 0
vn -4.211214E-10 1 -1.500536E-10
vn 0 0 0
vn 2.093267E-12 1 -7.803307E-12
vn 0 0 0
vn -0.06294792 0.9775751 0.2009589
vn 0 0 0
vn -0.05849774 0.9775819 0.2022659
vn 0 0 0
vn 2.707397E-10 1 7.261595E-11
vn 0 0 0
vn 1.325454E-10 0.9999999 3.15874E-11
vn 0 0 0
vn -0.05086311 0.9775782 0.2043381
vn 0 0 0
vn -0.04771938 0.9775822 0.2050751
vn 0 0 0
vn 0 1 0
vn 0 0 0
vn 0 1 0
vn 0 0 0
vn -0.04465273 0.9775743 0.2058019
vn 0 0 0
vn -0.04465625 0.9775759 0.2057943
vn 0 0 0

vt 0 0
vt 0 0
vt -0.3327759 -0.4992554
vt -0.3327759 -0.4992554
vt 0.3605103 0.540863
vt 0.3605103 0.540863
vt 0 0
vt 0 0
vt 0.6076508 -0.3618653
vt 0.6076508 -0.3618653
vt 0.3342713 -0.8959656
vt 0.3342713 -0.8959656
vt 0.9038116 0.2167419
vt 0.9038116 0.2167419
vt 0.6076508 -0.3618653
vt 0.6076508 -0.3618653
vt 1.279953 -0.6601135
vt 1.279953 -0.6601135
vt 1.063901 -1.219867
vt 1.063901 -1.219867
vt 1.514011 -0.05371704
vt 1.514011 -0.05371704
vt 1.279953 -0.6601135
vt 1.279953 -0.6601135
vt 2.035907 -0.9163208
vt 2.035907 -0.9163208
vt 1.864255 -1.491241
vt 1.864255 -1.491241
vt 2.221866 -0.2934875
vt 2.221866 -0.2934875
vt 2.035907 -0.9163208
vt 2.035907 -0.9163208
vt 2.863644 -1.136554
vt 2.863644 -1.136554
vt 2.724551 -1.720209
vt 2.724551 -1.720209
vt 3.014331 -0.5042602
vt 3.014331 -0.5042602
vt 2.863644 -1.136554
vt 2.863644 -1.136554
vt 3.753964 -1.329749
vt 3.753964 -1.329749
vt 3.636673 -1.91817
vt 3.636673 -1.91817
vt 3.88103 -0.6922852
vt 3.88103 -0.6922852
vt 3.753964 -1.329749
vt 3.753964 -1.329749

usemtl GSDShoulder1
usemap GSDShoulder1
f 9/9/9 1/1/1 3/3/3
f 11/11/11 9/9/9 3/3/3
f 13/13/13 5/5/5 7/7/7
f 15/15/15 13/13/13 7/7/7
f 17/17/17 9/9/9 11/11/11
f 19/19/19 17/17/17 11/11/11
f 21/21/21 13/13/13 15/15/15
f 23/23/23 21/21/21 15/15/15
f 25/25/25 17/17/17 19/19/19
f 27/27/27 25/25/25 19/19/19
f 29/29/29 21/21/21 23/23/23
f 31/31/31 29/29/29 23/23/23
f 33/33/33 25/25/25 27/27/27
f 35/35/35 33/33/33 27/27/27
f 37/37/37 29/29/29 31/31/31
f 39/39/39 37/37/37 31/31/31
f 41/41/41 33/33/33 35/35/35
f 43/43/43 41/41/41 35/35/35
f 45/45/45 37/37/37 39/39/39
f 47/47/47 45/45/45 39/39/39
