mtllib ./Road1_0_229.mtl
g SCutL20
v -471.7593 20.0883 24.00381
v -471.7593 20.0883 24.00381
v -471.8342 20.0883 27.21941
v -471.8342 20.0883 27.21941
v -471.7116 18.95157 21.95429
v -471.7116 18.95157 21.95429
v -471.7593 20.0883 24.00381
v -471.7593 20.0883 24.00381
v -466.4293 19.68184 24.17505
v -466.4293 19.68184 24.17505
v -466.6195 19.68184 27.43669
v -466.6195 19.68184 27.43669
v -466.3091 18.77871 22.11578
v -466.3091 18.77871 22.11578
v -466.4293 19.68184 24.17505
v -466.4293 19.68184 24.17505
v -461.2519 19.27883 24.48996
v -461.2519 19.27883 24.48996
v -461.5143 19.27883 27.79343
v -461.5143 19.27883 27.79343
v -461.0877 18.44388 22.42202
v -461.0877 18.44388 22.42202
v -461.2519 19.27883 24.48996
v -461.2519 19.27883 24.48996
v -456.1175 18.87383 24.89689
v -456.1175 18.87383 24.89689
v -456.4246 18.87383 28.23212
v -456.4246 18.87383 28.23212
v -455.9265 17.13663 22.82234
v -455.9265 17.13663 22.82234
v -456.1175 18.87383 24.89689
v -456.1175 18.87383 24.89689
v -451.031 18.47002 25.36055
v -451.031 18.47002 25.36055
v -451.3692 18.47002 28.72051
v -451.3692 18.47002 28.72051
v -450.8217 17.13663 23.28082
v -450.8217 17.13663 23.28082
v -451.031 18.47002 25.36055
v -451.031 18.47002 25.36055
v -446.0167 18.07046 25.85975
v -446.0167 18.07046 25.85975
v -446.3776 18.07046 29.23901
v -446.3776 18.07046 29.23901
v -445.7941 17.13663 23.77596
v -445.7941 17.13663 23.77596
v -446.0167 18.07046 25.85975
v -446.0167 18.07046 25.85975
v -440.9053 17.66218 26.40111
v -440.9053 17.66218 26.40111
v -441.2841 17.66218 29.79575
v -441.2841 17.66218 29.79575
v -440.6724 15.85747 24.31412
v -440.6724 15.85747 24.31412
v -440.9053 17.66218 26.40111
v -440.9053 17.66218 26.40111
v -435.8967 17.26144 26.95655
v -435.8967 17.26144 26.95655
v -436.2892 17.26144 30.36259
v -436.2892 17.26144 30.36259
v -435.6559 15.85747 24.86722
v -435.6559 15.85747 24.86722
v -435.8967 17.26144 26.95655
v -435.8967 17.26144 26.95655
v -430.9091 16.86188 27.52943
v -430.9091 16.86188 27.52943
v -431.3124 16.86188 30.94357
v -431.3124 16.86188 30.94357
v -430.6621 14.5909 25.43847
v -430.6621 14.5909 25.43847
v -430.9091 16.86188 27.52943
v -430.9091 16.86188 27.52943
v -425.8397 16.45537 28.12823
v -425.8397 16.45537 28.12823
v -426.2516 16.45537 31.54753
v -426.2516 16.45537 31.54753
v -425.5877 14.5909 26.03632
v -425.5877 14.5909 26.03632
v -425.8397 16.45537 28.12823
v -425.8397 16.45537 28.12823
v -420.8697 16.0565 28.72863
v -420.8697 16.0565 28.72863
v -421.2881 16.0565 32.1501
v -421.2881 16.0565 32.1501
v -420.6139 14.5909 26.63644
v -420.6139 14.5909 26.63644
v -420.8697 16.0565 28.72863
v -420.8697 16.0565 28.72863
v -415.8883 15.65642 29.34138
v -415.8883 15.65642 29.34138
v -416.3113 15.65642 32.76223
v -416.3113 15.65642 32.76223
v -415.6296 13.33417 27.24956
v -415.6296 13.33417 27.24956
v -415.8883 15.65642 29.34138
v -415.8883 15.65642 29.34138
v -410.9264 15.25766 29.96069
v -410.9264 15.25766 29.96069
v -411.3524 15.25766 33.3781
v -411.3524 15.25766 33.3781
v -410.6657 13.33417 27.86988
v -410.6657 13.33417 27.86988
v -410.9264 15.25766 29.96069
v -410.9264 15.25766 29.96069
v -405.874 14.85135 30.59869
v -405.874 14.85135 30.59869
v -406.3015 14.85135 34.00962
v -406.3015 14.85135 34.00962
v -405.6122 13.33417 28.50959
v -405.6122 13.33417 28.50959
v -405.874 14.85135 30.59869
v -405.874 14.85135 30.59869
v -400.9127 14.45211 31.23074
v -400.9127 14.45211 31.23074
v -401.3399 14.45211 34.63222
v -401.3399 14.45211 34.63222
v -400.6507 13.33417 29.14405
v -400.6507 13.33417 29.14405
v -400.9127 14.45211 31.23074
v -400.9127 14.45211 31.23074
v -395.9422 14.05182 31.86781
v -395.9422 14.05182 31.86781
v -396.3672 14.05182 35.25648
v -396.3672 14.05182 35.25648
v -395.6809 12.09433 29.7843
v -395.6809 12.09433 29.7843
v -395.9422 14.05182 31.86781
v -395.9422 14.05182 31.86781
v -390.8845 13.64413 32.51805
v -390.8845 13.64413 32.51805
v -391.305 13.64413 35.88981
v -391.305 13.64413 35.88981
v -390.6252 12.09433 30.43865
v -390.6252 12.09433 30.43865
v -390.8845 13.64413 32.51805
v -390.8845 13.64413 32.51805
v -385.9428 13.24531 33.15305
v -385.9428 13.24531 33.15305
v -386.356 13.24531 36.50387
v -386.356 13.24531 36.50387
v -385.687 12.09433 31.07867
v -385.687 12.09433 31.07867
v -385.9428 13.24531 33.15305
v -385.9428 13.24531 33.15305
v -380.9599 12.84245 33.78993
v -380.9599 12.84245 33.78993
v -381.3618 12.84245 37.1142
v -381.3618 12.84245 37.1142
v -380.71 11.94503 31.72184
v -380.71 11.94503 31.72184
v -380.9599 12.84245 33.78993
v -380.9599 12.84245 33.78993
v -375.9806 12.43868 34.41822
v -375.9806 12.43868 34.41822
v -376.3645 12.43868 37.70876
v -376.3645 12.43868 37.70876
v -375.7402 10.57694 32.35795
v -375.7402 10.57694 32.35795
v -375.9806 12.43868 34.41822
v -375.9806 12.43868 34.41822
v -371.06 12.03727 35.02258
v -371.06 12.03727 35.02258
v -371.4136 12.03727 38.2694
v -371.4136 12.03727 38.2694
v -370.8367 10.57694 32.97217
v -370.8367 10.57694 32.97217
v -371.06 12.03727 35.02258
v -371.06 12.03727 35.02258

vn 0.07597964 0.9971078 0.001769537
vn 0 0 0
vn 0.07674797 0.9970456 0.003141928
vn 0 0 0
vn 0.04243109 0.8741304 -0.4838343
vn 0 0 0
vn 0.06200428 0.8949735 -0.4417895
vn 0 0 0
vn 0.07694223 0.9970291 0.003595713
vn 0 0 0
vn 0.0777058 0.9969633 0.005082089
vn 0 0 0
vn 0.06845769 0.9015622 -0.4271992
vn 0 0 0
vn 0.08617508 0.9182642 -0.3864774
vn 0 0 0
vn 0.07791451 0.996944 0.00564545
vn 0 0 0
vn 0.07836941 0.9969028 0.006557127
vn 0 0 0
vn 0.1449415 0.9175671 -0.3702197
vn 0 0 0
vn 0.1536852 0.8718017 -0.4651264
vn 0 0 0
vn 0.07844247 0.9968948 0.006893819
vn 0 0 0
vn 0.07868055 0.9968718 0.007471011
vn 0 0 0
vn 0.1372231 0.8197478 -0.5560426
vn 0 0 0
vn 0.09388877 0.7923461 -0.6028038
vn 0 0 0
vn 0.07866286 0.9968717 0.007693424
vn 0 0 0
vn 0.07880799 0.9968569 0.008094061
vn 0 0 0
vn 0.07469111 0.8177799 -0.5706638
vn 0 0 0
vn 0.09312302 0.8665003 -0.4904134
vn 0 0 0
vn 0.07876613 0.996859 0.008253047
vn 0 0 0
vn 0.07886384 0.9968487 0.008550311
vn 0 0 0
vn 0.1425189 0.8870744 -0.4390755
vn 0 0 0
vn 0.1679649 0.857601 -0.4861155
vn 0 0 0
vn 0.07881963 0.9968511 0.00866954
vn 0 0 0
vn 0.07888962 0.9968436 0.008899038
vn 0 0 0
vn 0.1505345 0.8080977 -0.5694887
vn 0 0 0
vn 0.1086246 0.781864 -0.6139132
vn 0 0 0
vn 0.078848 0.9968461 0.008990765
vn 0 0 0
vn 0.07890083 0.9968404 0.009168486
vn 0 0 0
vn 0.1534719 0.8040488 -0.5744143
vn 0 0 0
vn 0.1758243 0.7748848 -0.6071568
vn 0 0 0
vn 0.07886491 0.9968425 0.009240576
vn 0 0 0
vn 0.07890528 0.996838 0.009382471
vn 0 0 0
vn 0.1578835 0.7254477 -0.6699243
vn 0 0 0
vn 0.1194625 0.7018544 -0.7022315
vn 0 0 0
vn 0.07887621 0.9968397 0.009439765
vn 0 0 0
vn 0.07890837 0.9968361 0.009552664
vn 0 0 0
vn 0.1004434 0.7249287 -0.6814612
vn 0 0 0
vn 0.1162781 0.7718462 -0.6250863
vn 0 0 0
vn 0.07888684 0.9968374 0.009597884
vn 0 0 0
vn 0.07891326 0.9968345 0.00968505
vn 0 0 0
vn 0.1593161 0.7937371 -0.5870261
vn 0 0 0
vn 0.1809435 0.7649375 -0.6181667
vn 0 0 0
vn 0.07890004 0.9968351 0.009719837
vn 0 0 0
vn 0.07892161 0.9968328 0.009785757
vn 0 0 0
vn 0.1634305 0.7169076 -0.6777419
vn 0 0 0
vn 0.1253294 0.6930137 -0.7099468
vn 0 0 0
vn 0.07891733 0.9968329 0.009812189
vn 0 0 0
vn 0.07893564 0.9968309 0.009858462
vn 0 0 0
vn 0.1056451 0.7156864 -0.6903855
vn 0 0 0
vn 0.1207985 0.7618826 -0.6363511
vn 0 0 0
vn 0.07894156 0.9968303 0.009876282
vn 0 0 0
vn 0.07895707 0.9968289 0.009902392
vn 0 0 0
vn 0.09857848 0.7863524 -0.6098626
vn 0 0 0
vn 0.1134434 0.8345056 -0.5391946
vn 0 0 0
vn 0.07897621 0.9968272 0.009911645
vn 0 0 0
vn 0.07899038 0.9968261 0.009915672
vn 0 0 0
vn 0.1572581 0.855682 -0.4930296
vn 0 0 0
vn 0.1813764 0.8272613 -0.5317342
vn 0 0 0
vn 0.07902692 0.9968232 0.009915661
vn 0 0 0
vn 0.07904039 0.9968223 0.009894019
vn 0 0 0
vn 0.1632806 0.7782107 -0.6064055
vn 0 0 0
vn 0.1233728 0.7546184 -0.6444612
vn 0 0 0
vn 0.07909969 0.9968177 0.00988296
vn 0 0 0
vn 0.07911433 0.9968172 0.00982966
vn 0 0 0
vn 0.1010496 0.7789852 -0.6188465
vn 0 0 0
vn 0.1155536 0.8270888 -0.550065
vn 0 0 0
vn 0.07921289 0.9968095 0.009804855
vn 0 0 0
vn 0.0792323 0.996809 0.009706506
vn 0 0 0
vn 0.09786338 0.8518462 -0.5145687
vn 0 0 0
vn 0.1137383 0.8890316 -0.4434932
vn 0 0 0
vn 0.07939659 0.9967963 0.009662484
vn 0 0 0
vn 0.07942919 0.9967953 0.009490911
vn 0 0 0
vn 0.1675792 0.898448 -0.4058428
vn 0 0 0
vn 0.1860316 0.8557789 -0.4827367
vn 0 0 0
vn 0.07973601 0.9967716 0.009415868
vn 0 0 0
vn 0.07980961 0.9967687 0.009107199
vn 0 0 0
vn 0.1682981 0.7995877 -0.5764852
vn 0 0 0
vn 0.1204278 0.7667471 -0.6305521
vn 0 0 0
vn 0.07999962 0.9967541 0.009025214
vn 0 0 0
vn 0.0798334 0.9967703 0.00869454
vn 0 0 0
vn 0.1084217 0.7791229 -0.6174239
vn 0 0 0
vn 0.1357811 0.8139147 -0.5648951
vn 0 0 0

vt 0 0
vt 0 0
vt 0.01497803 0.6431202
vt 0.01497803 0.6431202
vt -0.009539795 -0.4099033
vt -0.009539795 -0.4099033
vt 0 0
vt 0 0
vt -1.066016 0.03424759
vt -1.066016 0.03424759
vt -1.02796 0.6865768
vt -1.02796 0.6865768
vt -1.090039 -0.3776062
vt -1.090039 -0.3776062
vt -1.066016 0.03424759
vt -1.066016 0.03424759
vt -2.101483 0.09723129
vt -2.101483 0.09723129
vt -2.049017 0.7579255
vt -2.049017 0.7579255
vt -2.13432 -0.3163582
vt -2.13432 -0.3163582
vt -2.101483 0.09723129
vt -2.101483 0.09723129
vt -3.128369 0.1786171
vt -3.128369 0.1786171
vt -3.066943 0.8456623
vt -3.066943 0.8456623
vt -3.166577 -0.2362934
vt -3.166577 -0.2362934
vt -3.128369 0.1786171
vt -3.128369 0.1786171
vt -4.145667 0.2713482
vt -4.145667 0.2713482
vt -4.078027 0.9433414
vt -4.078027 0.9433414
vt -4.187531 -0.1445984
vt -4.187531 -0.1445984
vt -4.145667 0.2713482
vt -4.145667 0.2713482
vt -5.148535 0.3711876
vt -5.148535 0.3711876
vt -5.076349 1.047041
vt -5.076349 1.047041
vt -5.193054 -0.04556885
vt -5.193054 -0.04556885
vt -5.148535 0.3711876
vt -5.148535 0.3711876
vt -6.170813 0.4794602
vt -6.170813 0.4794602
vt -6.09505 1.158388
vt -6.09505 1.158388
vt -6.217395 0.06206245
vt -6.217395 0.06206245
vt -6.170813 0.4794602
vt -6.170813 0.4794602
vt -7.172528 0.5905495
vt -7.172528 0.5905495
vt -7.094025 1.271757
vt -7.094025 1.271757
vt -7.220685 0.1726818
vt -7.220685 0.1726818
vt -7.172528 0.5905495
vt -7.172528 0.5905495
vt -8.170038 0.7051243
vt -8.170038 0.7051243
vt -8.08938 1.387954
vt -8.08938 1.387954
vt -8.21944 0.2869332
vt -8.21944 0.2869332
vt -8.170038 0.7051243
vt -8.170038 0.7051243
vt -9.183924 0.8248848
vt -9.183924 0.8248848
vt -9.101544 1.508745
vt -9.101544 1.508745
vt -9.234321 0.4065029
vt -9.234321 0.4065029
vt -9.183924 0.8248848
vt -9.183924 0.8248848
vt -10.17792 0.9449646
vt -10.17792 0.9449646
vt -10.09426 1.629259
vt -10.09426 1.629259
vt -10.22908 0.526527
vt -10.22908 0.526527
vt -10.17792 0.9449646
vt -10.17792 0.9449646
vt -11.17421 1.067515
vt -11.17421 1.067515
vt -11.08961 1.751685
vt -11.08961 1.751685
vt -11.22595 0.6491508
vt -11.22595 0.6491508
vt -11.17421 1.067515
vt -11.17421 1.067515
vt -12.16659 1.191377
vt -12.16659 1.191377
vt -12.08138 1.874858
vt -12.08138 1.874858
vt -12.21872 0.7732148
vt -12.21872 0.7732148
vt -12.16659 1.191377
vt -12.16659 1.191377
vt -13.17708 1.318976
vt -13.17708 1.318976
vt -13.09158 2.001163
vt -13.09158 2.001163
vt -13.22944 0.9011574
vt -13.22944 0.9011574
vt -13.17708 1.318976
vt -13.17708 1.318976
vt -14.16932 1.445387
vt -14.16932 1.445387
vt -14.08389 2.125683
vt -14.08389 2.125683
vt -14.22174 1.028048
vt -14.22174 1.028048
vt -14.16932 1.445387
vt -14.16932 1.445387
vt -15.16343 1.572801
vt -15.16343 1.572801
vt -15.07844 2.250536
vt -15.07844 2.250536
vt -15.21569 1.156098
vt -15.21569 1.156098
vt -15.16343 1.572801
vt -15.16343 1.572801
vt -16.17496 1.702848
vt -16.17496 1.702848
vt -16.09087 2.3772
vt -16.09087 2.3772
vt -16.22683 1.286968
vt -16.22683 1.286968
vt -16.17496 1.702848
vt -16.17496 1.702848
vt -17.16331 1.829848
vt -17.16331 1.829848
vt -17.08066 2.500012
vt -17.08066 2.500012
vt -17.21447 1.414973
vt -17.21447 1.414973
vt -17.16331 1.829848
vt -17.16331 1.829848
vt -18.15988 1.957225
vt -18.15988 1.957225
vt -18.07951 2.62208
vt -18.07951 2.62208
vt -18.20988 1.543607
vt -18.20988 1.543607
vt -18.15988 1.957225
vt -18.15988 1.957225
vt -19.15576 2.082882
vt -19.15576 2.082882
vt -19.07897 2.740991
vt -19.07897 2.740991
vt -19.20383 1.670828
vt -19.20383 1.670828
vt -19.15576 2.082882
vt -19.15576 2.082882
vt -20.13986 2.203754
vt -20.13986 2.203754
vt -20.06914 2.853119
vt -20.06914 2.853119
vt -20.18452 1.793673
vt -20.18452 1.793673
vt -20.13986 2.203754
vt -20.13986 2.203754

usemtl GSDShoulder1
usemap GSDShoulder1
f 9/9/9 1/1/1 3/3/3
f 11/11/11 9/9/9 3/3/3
f 13/13/13 5/5/5 7/7/7
f 15/15/15 13/13/13 7/7/7
f 17/17/17 9/9/9 11/11/11
f 19/19/19 17/17/17 11/11/11
f 21/21/21 13/13/13 15/15/15
f 23/23/23 21/21/21 15/15/15
f 25/25/25 17/17/17 19/19/19
f 27/27/27 25/25/25 19/19/19
f 29/29/29 21/21/21 23/23/23
f 31/31/31 29/29/29 23/23/23
f 33/33/33 25/25/25 27/27/27
f 35/35/35 33/33/33 27/27/27
f 37/37/37 29/29/29 31/31/31
f 39/39/39 37/37/37 31/31/31
f 41/41/41 33/33/33 35/35/35
f 43/43/43 41/41/41 35/35/35
f 45/45/45 37/37/37 39/39/39
f 47/47/47 45/45/45 39/39/39
f 49/49/49 41/41/41 43/43/43
f 51/51/51 49/49/49 43/43/43
f 53/53/53 45/45/45 47/47/47
f 55/55/55 53/53/53 47/47/47
f 57/57/57 49/49/49 51/51/51
f 59/59/59 57/57/57 51/51/51
f 61/61/61 53/53/53 55/55/55
f 63/63/63 61/61/61 55/55/55
f 65/65/65 57/57/57 59/59/59
f 67/67/67 65/65/65 59/59/59
f 69/69/69 61/61/61 63/63/63
f 71/71/71 69/69/69 63/63/63
f 73/73/73 65/65/65 67/67/67
f 75/75/75 73/73/73 67/67/67
f 77/77/77 69/69/69 71/71/71
f 79/79/79 77/77/77 71/71/71
f 81/81/81 73/73/73 75/75/75
f 83/83/83 81/81/81 75/75/75
f 85/85/85 77/77/77 79/79/79
f 87/87/87 85/85/85 79/79/79
f 89/89/89 81/81/81 83/83/83
f 91/91/91 89/89/89 83/83/83
f 93/93/93 85/85/85 87/87/87
f 95/95/95 93/93/93 87/87/87
f 97/97/97 89/89/89 91/91/91
f 99/99/99 97/97/97 91/91/91
f 101/101/101 93/93/93 95/95/95
f 103/103/103 101/101/101 95/95/95
f 105/105/105 97/97/97 99/99/99
f 107/107/107 105/105/105 99/99/99
f 109/109/109 101/101/101 103/103/103
f 111/111/111 109/109/109 103/103/103
f 113/113/113 105/105/105 107/107/107
f 115/115/115 113/113/113 107/107/107
f 117/117/117 109/109/109 111/111/111
f 119/119/119 117/117/117 111/111/111
f 121/121/121 113/113/113 115/115/115
f 123/123/123 121/121/121 115/115/115
f 125/125/125 117/117/117 119/119/119
f 127/127/127 125/125/125 119/119/119
f 129/129/129 121/121/121 123/123/123
f 131/131/131 129/129/129 123/123/123
f 133/133/133 125/125/125 127/127/127
f 135/135/135 133/133/133 127/127/127
f 137/137/137 129/129/129 131/131/131
f 139/139/139 137/137/137 131/131/131
f 141/141/141 133/133/133 135/135/135
f 143/143/143 141/141/141 135/135/135
f 145/145/145 137/137/137 139/139/139
f 147/147/147 145/145/145 139/139/139
f 149/149/149 141/141/141 143/143/143
f 151/151/151 149/149/149 143/143/143
f 153/153/153 145/145/145 147/147/147
f 155/155/155 153/153/153 147/147/147
f 157/157/157 149/149/149 151/151/151
f 159/159/159 157/157/157 151/151/151
f 161/161/161 153/153/153 155/155/155
f 163/163/163 161/161/161 155/155/155
f 165/165/165 157/157/157 159/159/159
f 167/167/167 165/165/165 159/159/159
