mtllib ./Road1_0_30.mtl
g SCutR1
v -301.1019 0.03 374.1675
v -301.1019 0.03 374.1675
v -301.943 0.03 371.2878
v -301.943 0.03 371.2878
v -301.943 0.03 371.2878
v -301.943 0.03 371.2878
v -302.8542 -0.35 368.1682
v -302.8542 -0.35 368.1682
v -305.3296 0.03 375.3936
v -305.3296 0.03 375.3936
v -305.9862 0.03 372.4663
v -305.9862 0.03 372.4663
v -305.9862 0.03 372.4663
v -305.9862 0.03 372.4663
v -306.6974 -0.35 369.2951
v -306.6974 -0.35 369.2951
v -307.9489 0.03 375.7534
v -307.9489 0.03 375.7534
v -307.8972 0.03 372.7538
v -307.8972 0.03 372.7538
v -307.8972 0.03 372.7538
v -307.8972 0.03 372.7538
v -307.8411 -0.35 369.5043
v -307.8411 -0.35 369.5043
v -317.8566 0.03 392.3535
v -317.8566 0.03 392.3535
v -320.5262 0.03 393.7222
v -320.5262 0.03 393.7222
v -320.5262 0.03 393.7222
v -320.5262 0.03 393.7222
v -323.4182 -0.35 395.205
v -323.4182 -0.35 395.205
v -316.7423 0.03 395.3089
v -316.7423 0.03 395.3089
v -319.6175 0.03 396.1653
v -319.6175 0.03 396.1653
v -319.6175 0.03 396.1653
v -319.6175 0.03 396.1653
v -322.7323 -0.35 397.093
v -322.7323 -0.35 397.093
v -315.7787 0.03 399.2858
v -315.7787 0.03 399.2858
v -318.7214 0.03 399.8695
v -318.7214 0.03 399.8695
v -318.7214 0.03 399.8695
v -318.7214 0.03 399.8695
v -321.9093 -0.35 400.5018
v -321.9093 -0.35 400.5018
v -315.057 0.03 403.662
v -315.057 0.03 403.662
v -318.0296 0.03 404.0667
v -318.0296 0.03 404.0667
v -318.0296 0.03 404.0667
v -318.0296 0.03 404.0667
v -321.2499 -0.35 404.5052
v -321.2499 -0.35 404.5052
v -314.5384 0.03 408.2608
v -314.5384 0.03 408.2608
v -317.5258 0.03 408.5351
v -317.5258 0.03 408.5351
v -317.5258 0.03 408.5351
v -317.5258 0.03 408.5351
v -320.7622 -0.35 408.8322
v -320.7622 -0.35 408.8322
v -314.1877 0.03 412.9921
v -314.1877 0.03 412.9921
v -317.1827 0.03 413.1655
v -317.1827 0.03 413.1655
v -317.1827 0.03 413.1655
v -317.1827 0.03 413.1655
v -320.4273 -0.35 413.3533
v -320.4273 -0.35 413.3533
v -313.9751 0.03 417.8589
v -313.9751 0.03 417.8589
v -316.9737 0.03 417.9503
v -316.9737 0.03 417.9503
v -316.9737 0.03 417.9503
v -316.9737 0.03 417.9503
v -320.2222 -0.35 418.0493
v -320.2222 -0.35 418.0493
v -313.8834 0.03 422.6757
v -313.8834 0.03 422.6757
v -316.8833 0.03 422.7005
v -316.8833 0.03 422.7005
v -316.8833 0.03 422.7005
v -316.8833 0.03 422.7005
v -320.1332 -0.35 422.7274
v -320.1332 -0.35 422.7274
v -313.8914 0.03 427.633
v -313.8914 0.03 427.633
v -316.8912 0.03 427.6002
v -316.8912 0.03 427.6002
v -316.8912 0.03 427.6002
v -316.8912 0.03 427.6002
v -320.141 -0.35 427.5646
v -320.141 -0.35 427.5646

vn -4.061709E-10 1 1.186389E-10
vn 0 0 0
vn -4.189925E-10 1 1.080632E-10
vn 0 0 0
vn -0.03249866 0.9932337 -0.1114925
vn 0 0 0
vn -0.03261888 0.99322 -0.1115789
vn 0 0 0
vn -3.2078E-10 1 8.273299E-11
vn 0 0 0
vn -2.078699E-10 1 4.662287E-11
vn 0 0 0
vn -0.02971 0.9932351 -0.1122562
vn 0 0 0
vn -0.0266912 0.9931915 -0.1133939
vn 0 0 0
vn -1.315222E-10 1 -2.269423E-12
vn 0 0 0
vn -4.145994E-11 1 6.655128E-11
vn 0 0 0
vn -0.1604215 0.9800642 -0.1172138
vn 0 0 0
vn -0.1834578 0.9762941 -0.1148603
vn 0 0 0
vn -1.057187E-10 1 -6.58592E-11
vn 0 0 0
vn -1.026631E-10 1 -2.805221E-10
vn 0 0 0
vn -0.1833782 0.9777441 -0.1019251
vn 0 0 0
vn -0.1694502 0.9823758 -0.07889449
vn 0 0 0
vn -2.270953E-10 0.9999999 -5.190623E-10
vn 0 0 0
vn -1.613114E-11 1 3.993518E-12
vn 0 0 0
vn -0.1110916 0.9932135 0.03443488
vn 0 0 0
vn -0.1122184 0.9932311 0.02998346
vn 0 0 0
vn 7.252928E-11 1 2.930252E-10
vn 0 0 0
vn 2.900805E-11 1 1.462476E-10
vn 0 0 0
vn -0.1136099 0.9932302 0.02421686
vn 0 0 0
vn -0.1141481 0.9932337 0.02137775
vn 0 0 0
vn 0 1 0
vn 0 0 0
vn 0 1 0
vn 0 0 0
vn -0.114917 0.9932326 0.01682613
vn 0 0 0
vn -0.1151784 0.9932337 0.01485601
vn 0 0 0
vn 0 1 0
vn 0 0 0
vn 0 1 0
vn 0 0 0
vn -0.115568 0.9932332 0.01148753
vn 0 0 0
vn -0.1157012 0.9932336 0.01000684
vn 0 0 0
vn 0 1 0
vn 0 0 0
vn 0 0.9999999 0
vn 0 0 0
vn -0.1159005 0.9932334 0.007377387
vn 0 0 0
vn -0.1159665 0.9932338 0.006203579
vn 0 0 0
vn 0 1 0
vn 0 0 0
vn 0 1 0
vn 0 0 0
vn -0.1160606 0.9932336 0.00411458
vn 0 0 0
vn -0.1160887 0.9932339 0.003160421
vn 0 0 0
vn 0 1 0
vn 0 0 0
vn 0 1 0
vn 0 0 0
vn -0.1161241 0.9932338 0.001390277
vn 0 0 0
vn -0.1161302 0.9932338 0.0005905479
vn 0 0 0
vn 0 1 0
vn 0 0 0
vn 0 1 0
vn 0 0 0
vn -0.1161366 0.9932333 -0.0001874609
vn 0 0 0
vn -0.1161364 0.9932332 -0.0001875732
vn 0 0 0

vt 0 0
vt 0 0
vt 0.1682251 -0.5759339
vt 0.1682251 -0.5759339
vt 0.1682251 -0.5759339
vt 0.1682251 -0.5759339
vt 0.35047 -1.19986
vt 0.35047 -1.19986
vt 0.8455445 0.2452271
vt 0.8455445 0.2452271
vt 0.9768555 -0.3402283
vt 0.9768555 -0.3402283
vt 0.9768555 -0.3402283
vt 0.9768555 -0.3402283
vt 1.119104 -0.974469
vt 1.119104 -0.974469
vt 1.369409 0.3171875
vt 1.369409 0.3171875
vt 1.359058 -0.2827271
vt 1.359058 -0.2827271
vt 1.359058 -0.2827271
vt 1.359058 -0.2827271
vt 1.347845 -0.9326294
vt 1.347845 -0.9326294
vt 3.35094 3.637195
vt 3.35094 3.637195
vt 3.884851 3.910944
vt 3.884851 3.910944
vt 3.884851 3.910944
vt 3.884851 3.910944
vt 4.463263 4.207495
vt 4.463263 4.207495
vt 3.128082 4.228284
vt 3.128082 4.228284
vt 3.703119 4.399555
vt 3.703119 4.399555
vt 3.703119 4.399555
vt 3.703119 4.399555
vt 4.326074 4.585095
vt 4.326074 4.585095
vt 2.935364 5.02367
vt 2.935364 5.02367
vt 3.523901 5.140405
vt 3.523901 5.140405
vt 3.523901 5.140405
vt 3.523901 5.140405
vt 4.161481 5.26687
vt 4.161481 5.26687
vt 2.791022 5.898895
vt 2.791022 5.898895
vt 3.385535 5.979846
vt 3.385535 5.979846
vt 3.385535 5.979846
vt 3.385535 5.979846
vt 4.029596 6.067542
vt 4.029596 6.067542
vt 2.687299 6.818658
vt 2.687299 6.818658
vt 3.28479 6.873517
vt 3.28479 6.873517
vt 3.28479 6.873517
vt 3.28479 6.873517
vt 3.932062 6.932953
vt 3.932062 6.932953
vt 2.617163 7.764917
vt 2.617163 7.764917
vt 3.216162 7.799597
vt 3.216162 7.799597
vt 3.216162 7.799597
vt 3.216162 7.799597
vt 3.865076 7.837171
vt 3.865076 7.837171
vt 2.57464 8.738288
vt 2.57464 8.738288
vt 3.174359 8.756561
vt 3.174359 8.756561
vt 3.174359 8.756561
vt 3.174359 8.756561
vt 3.82406 8.776361
vt 3.82406 8.776361
vt 2.556299 9.701636
vt 2.556299 9.701636
vt 3.156275 9.706604
vt 3.156275 9.706604
vt 3.156275 9.706604
vt 3.156275 9.706604
vt 3.806256 9.711982
vt 3.806256 9.711982
vt 2.557892 10.6931
vt 2.557892 10.6931
vt 3.157855 10.68654
vt 3.157855 10.68654
vt 3.157855 10.68654
vt 3.157855 10.68654
vt 3.807819 10.67942
vt 3.807819 10.67942

usemtl GSDShoulder1
usemap GSDShoulder1
f 9/9/9 1/1/1 3/3/3
f 11/11/11 9/9/9 3/3/3
f 13/13/13 5/5/5 7/7/7
f 15/15/15 13/13/13 7/7/7
f 17/17/17 9/9/9 11/11/11
f 19/19/19 17/17/17 11/11/11
f 21/21/21 13/13/13 15/15/15
f 23/23/23 21/21/21 15/15/15
f 25/25/25 17/17/17 19/19/19
f 27/27/27 25/25/25 19/19/19
f 29/29/29 21/21/21 23/23/23
f 31/31/31 29/29/29 23/23/23
f 33/33/33 25/25/25 27/27/27
f 35/35/35 33/33/33 27/27/27
f 37/37/37 29/29/29 31/31/31
f 39/39/39 37/37/37 31/31/31
f 41/41/41 33/33/33 35/35/35
f 43/43/43 41/41/41 35/35/35
f 45/45/45 37/37/37 39/39/39
f 47/47/47 45/45/45 39/39/39
f 49/49/49 41/41/41 43/43/43
f 51/51/51 49/49/49 43/43/43
f 53/53/53 45/45/45 47/47/47
f 55/55/55 53/53/53 47/47/47
f 57/57/57 49/49/49 51/51/51
f 59/59/59 57/57/57 51/51/51
f 61/61/61 53/53/53 55/55/55
f 63/63/63 61/61/61 55/55/55
f 65/65/65 57/57/57 59/59/59
f 67/67/67 65/65/65 59/59/59
f 69/69/69 61/61/61 63/63/63
f 71/71/71 69/69/69 63/63/63
f 73/73/73 65/65/65 67/67/67
f 75/75/75 73/73/73 67/67/67
f 77/77/77 69/69/69 71/71/71
f 79/79/79 77/77/77 71/71/71
f 81/81/81 73/73/73 75/75/75
f 83/83/83 81/81/81 75/75/75
f 85/85/85 77/77/77 79/79/79
f 87/87/87 85/85/85 79/79/79
f 89/89/89 81/81/81 83/83/83
f 91/91/91 89/89/89 83/83/83
f 93/93/93 85/85/85 87/87/87
f 95/95/95 93/93/93 87/87/87
