mtllib ./Road8_2_49.mtl
g RoadCut17
v -618.228 0.03 134.3671
v -618.228 0.03 134.3671
v -627.9818 0.03 136.5723
v -627.9818 0.03 136.5723
v -617.3214 0.03 140.0657
v -617.3214 0.03 140.0657
v -627.2936 0.03 140.8091
v -627.2936 0.03 140.8091
v -617.4231 0.03 145.9728
v -617.4231 0.03 145.9728
v -627.3704 0.03 144.9478
v -627.3704 0.03 144.9478
v -618.4658 0.03 151.694
v -618.4658 0.03 151.694
v -628.1384 0.03 149.1562
v -628.1384 0.03 149.1562
v -620.3688 0.03 157.2012
v -620.3688 0.03 157.2012
v -629.542 0.03 153.2198
v -629.542 0.03 153.2198
v -623.1157 0.03 162.3647
v -623.1157 0.03 162.3647
v -631.5361 0.03 156.9707
v -631.5361 0.03 156.9707
v -626.6627 0.03 166.999
v -626.6627 0.03 166.999
v -634.0601 0.03 160.27
v -634.0601 0.03 160.27
v -631.0168 0.03 171.0137
v -631.0168 0.03 171.0137
v -637.1223 0.03 163.0939
v -637.1223 0.03 163.0939
v -636.0114 0.03 174.2103
v -636.0114 0.03 174.2103
v -640.6563 0.03 165.3545
v -640.6563 0.03 165.3545
v -641.3907 0.03 176.4951
v -641.3907 0.03 176.4951
v -644.5611 0.03 167.011
v -644.5611 0.03 167.011

vn 0 1 0
vn 0 0 0
vn 0 1 0
vn 0 0 0
vn 0 1 0
vn 0 0 0
vn 0 1 0
vn 0 0 0
vn 1.207982E-11 1 -1.172242E-10
vn 0 0 0
vn 4.677389E-11 1 -2.575729E-10
vn 0 0 0
vn -1.775142E-11 1 -3.222973E-12
vn 0 0 0
vn -1.361856E-10 1 3.633906E-10
vn 0 0 0
vn -5.936048E-11 1 2.262464E-10
vn 0 0 0
vn 1.40024E-10 1 -2.185842E-10
vn 0 0 0
vn 1.566703E-10 1 -3.139656E-10
vn 0 0 0
vn -1.752391E-11 1 -1.343069E-11
vn 0 0 0
vn -1.424279E-10 1 1.858356E-10
vn 0 0 0
vn -8.833918E-11 1 9.711404E-11
vn 0 0 0
vn 9.245153E-11 1 -7.127172E-11
vn 0 0 0
vn 2.194896E-10 1 -1.406563E-10
vn 0 0 0
vn 9.270928E-11 1 -7.147042E-11
vn 0 0 0
vn -1.241144E-10 1 4.148982E-11
vn 0 0 0
vn -3.397846E-10 1 1.447949E-10
vn 0 0 0
vn -4.177669E-10 1 1.39654E-10
vn 0 0 0

vt 0 0
vt 0 0
vt 1.950757 0.44104
vt 1.950757 0.44104
vt -0.1813232 1.139719
vt -0.1813232 1.139719
vt 1.813135 1.2884
vt 1.813135 1.2884
vt -0.1609741 2.321146
vt -0.1609741 2.321146
vt 1.828479 2.116135
vt 1.828479 2.116135
vt 0.0475708 3.465381
vt 0.0475708 3.465381
vt 1.982092 2.957819
vt 1.982092 2.957819
vt 0.4281616 4.566815
vt 0.4281616 4.566815
vt 2.262805 3.770545
vt 2.262805 3.770545
vt 0.9775391 5.59953
vt 0.9775391 5.59953
vt 2.661621 4.520715
vt 2.661621 4.520715
vt 1.686951 6.526376
vt 1.686951 6.526376
vt 3.166419 5.180588
vt 3.166419 5.180588
vt 2.557776 7.329324
vt 2.557776 7.329324
vt 3.77887 5.745358
vt 3.77887 5.745358
vt 3.556677 7.968643
vt 3.556677 7.968643
vt 4.485657 6.197488
vt 4.485657 6.197488
vt 4.632544 8.425598
vt 4.632544 8.425598
vt 5.266626 6.528778
vt 5.266626 6.528778

usemtl GSDRoad1
usemap GSDRoad1
f 5/5/5 1/1/1 3/3/3
f 7/7/7 5/5/5 3/3/3
f 9/9/9 5/5/5 7/7/7
f 11/11/11 9/9/9 7/7/7
f 13/13/13 9/9/9 11/11/11
f 15/15/15 13/13/13 11/11/11
f 17/17/17 13/13/13 15/15/15
f 19/19/19 17/17/17 15/15/15
f 21/21/21 17/17/17 19/19/19
f 23/23/23 21/21/21 19/19/19
f 25/25/25 21/21/21 23/23/23
f 27/27/27 25/25/25 23/23/23
f 29/29/29 25/25/25 27/27/27
f 31/31/31 29/29/29 27/27/27
f 33/33/33 29/29/29 31/31/31
f 35/35/35 33/33/33 31/31/31
f 37/37/37 33/33/33 35/35/35
f 39/39/39 37/37/37 35/35/35
