mtllib ./Road1_0_231.mtl
g SCutL22
v -341.2542 9.619633 37.89057
v -341.2542 9.619633 37.89057
v -341.4843 9.619633 40.97096
v -341.4843 9.619633 40.97096
v -341.1038 8.431835 35.87792
v -341.1038 8.431835 35.87792
v -341.2542 9.619633 37.89057
v -341.2542 9.619633 37.89057
v -336.0974 9.213384 38.27965
v -336.0974 9.213384 38.27965
v -336.3652 9.213384 41.38385
v -336.3652 9.213384 41.38385
v -335.9234 8.132708 36.26219
v -335.9234 8.132708 36.26219
v -336.0974 9.213384 38.27965
v -336.0974 9.213384 38.27965
v -331.1447 8.807895 38.67445
v -331.1447 8.807895 38.67445
v -331.373 8.807895 41.77957
v -331.373 8.807895 41.77957
v -330.9963 7.661048 36.65549
v -330.9963 7.661048 36.65549
v -331.1447 8.807895 38.67445
v -331.1447 8.807895 38.67445
v -326.1027 8.400555 39.03146
v -326.1027 8.400555 39.03146
v -326.3142 8.400555 42.13457
v -326.3142 8.400555 42.13457
v -325.965 6.599181 37.01254
v -325.965 6.599181 37.01254
v -326.1027 8.400555 39.03146
v -326.1027 8.400555 39.03146
v -321.0167 7.99526 39.38677
v -321.0167 7.99526 39.38677
v -321.2379 7.99526 42.48495
v -321.2379 7.99526 42.48495
v -320.8726 6.599181 37.36937
v -320.8726 6.599181 37.36937
v -321.0167 7.99526 39.38677
v -321.0167 7.99526 39.38677
v -315.9348 7.596461 39.78491
v -315.9348 7.596461 39.78491
v -316.1978 7.596461 42.87445
v -316.1978 7.596461 42.87445
v -315.7635 6.425557 37.771
v -315.7635 6.425557 37.771
v -315.9348 7.596461 39.78491
v -315.9348 7.596461 39.78491
v -310.6643 7.190853 40.30879
v -310.6643 7.190853 40.30879
v -311.0146 7.190853 43.38269
v -311.0146 7.190853 43.38269
v -310.4356 5.716473 38.30233
v -310.4356 5.716473 38.30233
v -310.6643 7.190853 40.30879
v -310.6643 7.190853 40.30879

vn 0.07809798 0.9969286 0.0058354
vn 0 0 0
vn 0.07833178 0.9969074 0.006306536
vn 0 0 0
vn 0.08690396 0.8607777 -0.5015072
vn 0 0 0
vn 0.09550644 0.870717 -0.4824215
vn 0 0 0
vn 0.07921678 0.9968361 0.006529745
vn 0 0 0
vn 0.08001821 0.9967719 0.006561913
vn 0 0 0
vn 0.1036877 0.8735977 -0.4754745
vn 0 0 0
vn 0.1115236 0.8759232 -0.4693838
vn 0 0 0
vn 0.08054569 0.9967312 0.006261766
vn 0 0 0
vn 0.08015934 0.9967655 0.005748939
vn 0 0 0
vn 0.149209 0.8685518 -0.472604
vn 0 0 0
vn 0.1430061 0.8244047 -0.5476369
vn 0 0 0
vn 0.0796828 0.9968047 0.005573859
vn 0 0 0
vn 0.07937972 0.9968293 0.005497324
vn 0 0 0
vn 0.1189604 0.7852252 -0.6076759
vn 0 0 0
vn 0.08549897 0.7713175 -0.6306816
vn 0 0 0
vn 0.07868695 0.996884 0.005534296
vn 0 0 0
vn 0.07845426 0.9968998 0.005958457
vn 0 0 0
vn 0.07370301 0.7969868 -0.5994831
vn 0 0 0
vn 0.0942881 0.8359988 -0.54057
vn 0 0 0
vn 0.07739846 0.9969807 0.006234922
vn 0 0 0
vn 0.07718562 0.9969899 0.007313089
vn 0 0 0
vn 0.1141089 0.8493415 -0.5153623
vn 0 0 0
vn 0.1300168 0.8432881 -0.5214987
vn 0 0 0
vn 0.07661808 0.9970314 0.007623729
vn 0 0 0
vn 0.07715721 0.9969801 0.008794604
vn 0 0 0
vn 0.140859 0.8334382 -0.534359
vn 0 0 0
vn 0.1196174 0.8065063 -0.5789984
vn 0 0 0

vt 0 0
vt 0 0
vt 0.04603272 0.6160782
vt 0.04603272 0.6160782
vt -0.03007813 -0.4025307
vt -0.03007813 -0.4025307
vt 0 0
vt 0 0
vt -1.031348 0.07781525
vt -1.031348 0.07781525
vt -0.9777954 0.6986549
vt -0.9777954 0.6986549
vt -1.066156 -0.3256767
vt -1.066156 -0.3256767
vt -1.031348 0.07781525
vt -1.031348 0.07781525
vt -2.021881 0.1567749
vt -2.021881 0.1567749
vt -1.976239 0.7778
vt -1.976239 0.7778
vt -2.051563 -0.2470161
vt -2.051563 -0.2470161
vt -2.021881 0.1567749
vt -2.021881 0.1567749
vt -3.030298 0.2281777
vt -3.030298 0.2281777
vt -2.987988 0.8487992
vt -2.987988 0.8487992
vt -3.057831 -0.1756058
vt -3.057831 -0.1756058
vt -3.030298 0.2281777
vt -3.030298 0.2281777
vt -4.047498 0.2992401
vt -4.047498 0.2992401
vt -4.003241 0.9188752
vt -4.003241 0.9188752
vt -4.076318 -0.1042412
vt -4.076318 -0.1042412
vt -4.047498 0.2992401
vt -4.047498 0.2992401
vt -5.063861 0.3788681
vt -5.063861 0.3788681
vt -5.01128 0.9967766
vt -5.01128 0.9967766
vt -5.098138 -0.02391434
vt -5.098138 -0.02391434
vt -5.063861 0.3788681
vt -5.063861 0.3788681
vt -6.117975 0.4836441
vt -6.117975 0.4836441
vt -6.047901 1.098425
vt -6.047901 1.098425
vt -6.163715 0.08235092
vt -6.163715 0.08235092
vt -6.117975 0.4836441
vt -6.117975 0.4836441

usemtl GSDShoulder1
usemap GSDShoulder1
f 9/9/9 1/1/1 3/3/3
f 11/11/11 9/9/9 3/3/3
f 13/13/13 5/5/5 7/7/7
f 15/15/15 13/13/13 7/7/7
f 17/17/17 9/9/9 11/11/11
f 19/19/19 17/17/17 11/11/11
f 21/21/21 13/13/13 15/15/15
f 23/23/23 21/21/21 15/15/15
f 25/25/25 17/17/17 19/19/19
f 27/27/27 25/25/25 19/19/19
f 29/29/29 21/21/21 23/23/23
f 31/31/31 29/29/29 23/23/23
f 33/33/33 25/25/25 27/27/27
f 35/35/35 33/33/33 27/27/27
f 37/37/37 29/29/29 31/31/31
f 39/39/39 37/37/37 31/31/31
f 41/41/41 33/33/33 35/35/35
f 43/43/43 41/41/41 35/35/35
f 45/45/45 37/37/37 39/39/39
f 47/47/47 45/45/45 39/39/39
f 49/49/49 41/41/41 43/43/43
f 51/51/51 49/49/49 43/43/43
f 53/53/53 45/45/45 47/47/47
f 55/55/55 53/53/53 47/47/47
