mtllib ./Road7_2_1.mtl
g Markers0
v -176.4405 0.04 376.0012
v -176.4405 0.04 376.0012
v -169.4942 0.04 394.7562
v -169.4942 0.04 394.7562
v -170.9161 0.04 374.2655
v -170.9161 0.04 374.2655
v -165.3973 0.04 393.489
v -165.3973 0.04 393.489
v -166.042 0.04 372.8853
v -166.042 0.04 372.8853
v -160.5885 0.04 392.1274
v -160.5885 0.04 392.1274
v -161.2961 0.04 371.513
v -161.2961 0.04 371.513
v -155.6021 0.04 390.6853
v -155.6021 0.04 390.6853
v -156.7229 0.04 370.1031
v -156.7229 0.04 370.1031
v -150.6016 0.04 389.1433
v -150.6016 0.04 389.1433
v -152.2398 0.04 368.5846
v -152.2398 0.04 368.5846
v -145.4896 0.04 387.411
v -145.4896 0.04 387.411
v -147.9972 0.04 366.9568
v -147.9972 0.04 366.9568
v -140.361 0.04 385.4416
v -140.361 0.04 385.4416
v -144.0864 0.04 365.19
v -144.0864 0.04 365.19
v -135.1534 0.04 383.0842
v -135.1534 0.04 383.0842
v -140.7499 0.04 363.3018
v -140.7499 0.04 363.3018
v -129.7623 0.04 380.0133
v -129.7623 0.04 380.0133

vn 0 1 0
vn 0 0 0
vn 0 1 0
vn 0 0 0
vn 1.182785E-10 1 -3.395628E-11
vn 0 0 0
vn 2.496249E-10 1 -7.120569E-11
vn 0 0 0
vn 2.387654E-10 1 -6.810801E-11
vn 0 0 0
vn 1.184547E-10 1 -3.357192E-11
vn 0 0 0
vn 0 1 0
vn 0 0 0
vn 0 1 0
vn 0 0 0
vn -1.202165E-10 1 3.864842E-11
vn 0 0 0
vn -2.295696E-10 1 7.803429E-11
vn 0 0 0
vn -2.403565E-10 1 8.170093E-11
vn 0 0 0
vn -1.136194E-10 1 4.073826E-11
vn 0 0 0
vn 0 1 0
vn 0 0 0
vn 0 1 0
vn 0 0 0
vn 0 1 0
vn 0 0 0
vn 0 1 0
vn 0 0 0
vn 0 1 0
vn 0 0 0
vn 0 1 0
vn 0 0 0

vt 0 0
vt 0 0
vt 1 0
vt 0 0
vt 0 1.158124
vt 0 1.158124
vt 1 1.158124
vt 1 1.158124
vt 0 2.171276
vt 0 2.171276
vt 1 2.171276
vt 1 2.171276
vt 0 3.159335
vt 0 3.159335
vt 1 3.159335
vt 1 3.159335
vt 0 4.116473
vt 0 4.116473
vt 1 4.116473
vt 1 4.116473
vt 0 5.063116
vt 0 5.063116
vt 1 5.063116
vt 1 5.063116
vt 0 5.97195
vt 0 5.97195
vt 1 5.97195
vt 1 5.97195
vt 0 6.83023
vt 0 6.83023
vt 1 6.83023
vt 1 6.83023
vt 0 7.596978
vt 0 7.596978
vt 1 7.596978
vt 1 7.596978

usemtl GSDWhiteYellowDouble-4L
usemap GSDWhiteYellowDouble-4L
f 5/5/5 1/1/1 3/3/3
f 7/7/7 5/5/5 3/3/3
f 9/9/9 5/5/5 7/7/7
f 11/11/11 9/9/9 7/7/7
f 13/13/13 9/9/9 11/11/11
f 15/15/15 13/13/13 11/11/11
f 17/17/17 13/13/13 15/15/15
f 19/19/19 17/17/17 15/15/15
f 21/21/21 17/17/17 19/19/19
f 23/23/23 21/21/21 19/19/19
f 25/25/25 21/21/21 23/23/23
f 27/27/27 25/25/25 23/23/23
f 29/29/29 25/25/25 27/27/27
f 31/31/31 29/29/29 27/27/27
f 33/33/33 29/29/29 31/31/31
f 35/35/35 33/33/33 31/31/31
