mtllib ./Road1_0_141.mtl
g SCutR2
v -188.8593 53.97545 492.4091
v -188.8593 53.97545 492.4091
v -189.3953 53.97545 489.4018
v -189.3953 53.97545 489.4018
v -189.3953 53.97545 489.4018
v -189.3953 53.97545 489.4018
v -189.7487 53.62629 487.4195
v -189.7487 53.62629 487.4195
v -194.2537 54.09477 493.6017
v -194.2537 54.09477 493.6017
v -195.0876 54.09477 490.5355
v -195.0876 54.09477 490.5355
v -195.0876 54.09477 490.5355
v -195.0876 54.09477 490.5355
v -195.624 53.62629 488.5634
v -195.624 53.62629 488.5634
v -199.4439 54.31219 495.2611
v -199.4439 54.31219 495.2611
v -200.562 54.31219 492.1751
v -200.562 54.31219 492.1751
v -200.562 54.31219 492.1751
v -200.562 54.31219 492.1751
v -201.2667 53.62918 490.2298
v -201.2667 53.62918 490.2298
v -204.4021 54.59697 497.236
v -204.4021 54.59697 497.236
v -205.7343 54.59697 494.1412
v -205.7343 54.59697 494.1412
v -205.7343 54.59697 494.1412
v -205.7343 54.59697 494.1412
v -206.5607 53.91024 492.2215
v -206.5607 53.91024 492.2215
v -209.1927 54.93003 499.4334
v -209.1927 54.93003 499.4334
v -210.6925 54.93003 496.3346
v -210.6925 54.93003 496.3346
v -210.6925 54.93003 496.3346
v -210.6925 54.93003 496.3346
v -211.6107 54.06459 494.4375
v -211.6107 54.06459 494.4375
v -213.8926 55.30201 501.8158
v -213.8926 55.30201 501.8158
v -215.528 55.30201 498.7152
v -215.528 55.30201 498.7152
v -215.528 55.30201 498.7152
v -215.528 55.30201 498.7152
v -216.5183 54.44339 496.8376
v -216.5183 54.44339 496.8376
v -218.4743 55.70023 504.3182
v -218.4743 55.70023 504.3182
v -220.2202 55.70023 501.2173
v -220.2202 55.70023 501.2173
v -220.2202 55.70023 501.2173
v -220.2202 55.70023 501.2173
v -221.2679 54.6753 499.3564
v -221.2679 54.6753 499.3564
v -222.9148 56.11402 506.8867
v -222.9148 56.11402 506.8867
v -224.751 56.11402 503.7866
v -224.751 56.11402 503.7866
v -224.751 56.11402 503.7866
v -224.751 56.11402 503.7866
v -225.8448 55.07747 501.9398
v -225.8448 55.07747 501.9398
v -227.3075 56.54585 509.5457
v -227.3075 56.54585 509.5457
v -229.2195 56.54585 506.4473
v -229.2195 56.54585 506.4473
v -229.2195 56.54585 506.4473
v -229.2195 56.54585 506.4473
v -230.3514 55.48683 504.6129
v -230.3514 55.48683 504.6129
v -231.6374 56.98971 512.2653
v -231.6374 56.98971 512.2653
v -233.6126 56.98971 509.1695
v -233.6126 56.98971 509.1695
v -233.6126 56.98971 509.1695
v -233.6126 56.98971 509.1695
v -234.7761 55.90105 507.346
v -234.7761 55.90105 507.346
v -235.8913 57.44039 515.0189
v -235.8913 57.44039 515.0189
v -237.9189 57.44039 511.9268
v -237.9189 57.44039 511.9268
v -237.9189 57.44039 511.9268
v -237.9189 57.44039 511.9268
v -239.1084 56.31843 510.1127
v -239.1084 56.31843 510.1127
v -240.1752 57.90615 517.8621
v -240.1752 57.90615 517.8621
v -242.2467 57.90615 514.7745
v -242.2467 57.90615 514.7745
v -242.2467 57.90615 514.7745
v -242.2467 57.90615 514.7745
v -243.4581 56.89807 512.9691
v -243.4581 56.89807 512.9691
v -244.3598 58.37035 520.6973
v -244.3598 58.37035 520.6973
v -246.4664 58.37035 517.6154
v -246.4664 58.37035 517.6154
v -246.4664 58.37035 517.6154
v -246.4664 58.37035 517.6154
v -247.6954 57.42141 515.8173
v -247.6954 57.42141 515.8173
v -248.5544 58.84267 523.5877
v -248.5544 58.84267 523.5877
v -250.6889 58.84267 520.5125
v -250.6889 58.84267 520.5125
v -250.6889 58.84267 520.5125
v -250.6889 58.84267 520.5125
v -251.9322 57.42141 518.7212
v -251.9322 57.42141 518.7212
v -252.7499 59.32012 526.5187
v -252.7499 59.32012 526.5187
v -254.9054 59.32012 523.4513
v -254.9054 59.32012 523.4513
v -254.9054 59.32012 523.4513
v -254.9054 59.32012 523.4513
v -256.1598 57.94874 521.6662
v -256.1598 57.94874 521.6662
v -256.936 59.79954 529.475
v -256.936 59.79954 529.475
v -259.1057 59.79954 526.4167
v -259.1057 59.79954 526.4167
v -259.1057 59.79954 526.4167
v -259.1057 59.79954 526.4167
v -260.3683 58.37016 524.6371
v -260.3683 58.37016 524.6371
v -261.1033 60.27793 532.4421
v -261.1033 60.27793 532.4421
v -263.2806 60.27793 529.3941
v -263.2806 60.27793 529.3941
v -263.2806 60.27793 529.3941
v -263.2806 60.27793 529.3941
v -264.5484 59.05258 527.6194
v -264.5484 59.05258 527.6194
v -265.242 60.75225 535.4052
v -265.242 60.75225 535.4052
v -267.4204 60.75225 532.3687
v -267.4204 60.75225 532.3687
v -267.4204 60.75225 532.3687
v -267.4204 60.75225 532.3687
v -268.6905 59.57632 530.5982
v -268.6905 59.57632 530.5982
v -269.3422 61.21944 538.3491
v -269.3422 61.21944 538.3491
v -271.5151 61.21944 535.3253
v -271.5151 61.21944 535.3253
v -271.5151 61.21944 535.3253
v -271.5151 61.21944 535.3253
v -272.7847 60.13791 533.5585
v -272.7847 60.13791 533.5585
v -273.3937 61.67646 541.2592
v -273.3937 61.67646 541.2592
v -275.5547 61.67646 538.2491
v -275.5547 61.67646 538.2491
v -275.5547 61.67646 538.2491
v -275.5547 61.67646 538.2491
v -276.8209 60.64863 536.4853
v -276.8209 60.64863 536.4853
v -277.4999 62.13275 544.2012
v -277.4999 62.13275 544.2012
v -279.6416 62.13275 541.2064
v -279.6416 62.13275 541.2064
v -279.6416 62.13275 541.2064
v -279.6416 62.13275 541.2064
v -280.9012 61.14981 539.445
v -280.9012 61.14981 539.445
v -281.643 62.58359 547.1531
v -281.643 62.58359 547.1531
v -283.7573 62.58359 544.1752
v -283.7573 62.58359 544.1752
v -283.7573 62.58359 544.1752
v -283.7573 62.58359 544.1752
v -285.0068 61.67965 542.4153
v -285.0068 61.67965 542.4153
v -285.6963 63.01254 550.015
v -285.6963 63.01254 550.015
v -287.7753 63.01254 547.0547
v -287.7753 63.01254 547.0547
v -287.7753 63.01254 547.0547
v -287.7753 63.01254 547.0547
v -289.0109 62.15364 545.2955
v -289.0109 62.15364 545.2955
v -289.8571 63.437 552.9137
v -289.8571 63.437 552.9137
v -291.8898 63.437 549.9731
v -291.8898 63.437 549.9731
v -291.8898 63.437 549.9731
v -291.8898 63.437 549.9731
v -293.1064 62.15364 548.2131
v -293.1064 62.15364 548.2131
v -293.99 63.83851 555.7394
v -293.99 63.83851 555.7394
v -295.965 63.83851 552.8195
v -295.965 63.83851 552.8195
v -295.965 63.83851 552.8195
v -295.965 63.83851 552.8195
v -297.1569 62.95494 551.0573
v -297.1569 62.95494 551.0573
v -298.165 64.2183 558.521
v -298.165 64.2183 558.521
v -300.0668 64.2183 555.6232
v -300.0668 64.2183 555.6232
v -300.0668 64.2183 555.6232
v -300.0668 64.2183 555.6232
v -301.2263 63.40591 553.8563
v -301.2263 63.40591 553.8563
v -302.3349 64.56459 561.2015
v -302.3349 64.56459 561.2015
v -304.1445 64.56459 558.3265
v -304.1445 64.56459 558.3265
v -304.1445 64.56459 558.3265
v -304.1445 64.56459 558.3265
v -305.2614 63.78725 556.5521
v -305.2614 63.78725 556.5521
v -306.5297 64.86942 563.7657
v -306.5297 64.86942 563.7657
v -308.22 64.86942 560.914
v -308.22 64.86942 560.914
v -308.22 64.86942 560.914
v -308.22 64.86942 560.914
v -309.2791 64.1301 559.1274
v -309.2791 64.1301 559.1274
v -310.7382 65.1158 566.1542
v -310.7382 65.1158 566.1542
v -312.2684 65.1158 563.3256
v -312.2684 65.1158 563.3256
v -312.2684 65.1158 563.3256
v -312.2684 65.1158 563.3256
v -313.2452 64.15873 561.52
v -313.2452 64.15873 561.52

vn 0.02127601 0.9997665 -0.003792139
vn 0 0 0
vn 0.02054773 0.9997782 -0.004634942
vn 0 0 0
vn -0.01343 0.9851573 -0.1711276
vn 0 0 0
vn -0.02852897 0.9801399 -0.1962443
vn 0 0 0
vn 0.02646206 0.9996283 -0.006557651
vn 0 0 0
vn 0.03128278 0.9994643 -0.009621331
vn 0 0 0
vn -0.02846248 0.9782796 -0.2053265
vn 0 0 0
vn -0.05388943 0.9669169 -0.2493343
vn 0 0 0
vn 0.04136246 0.9990481 -0.01386189
vn 0 0 0
vn 0.04426241 0.9988731 -0.01712989
vn 0 0 0
vn -0.0614229 0.9583128 -0.279041
vn 0 0 0
vn -0.07368676 0.9488402 -0.3070384
vn 0 0 0
vn 0.0517089 0.9984382 -0.02114902
vn 0 0 0
vn 0.05340576 0.9982847 -0.02399144
vn 0 0 0
vn -0.06812257 0.9484946 -0.3093823
vn 0 0 0
vn -0.08988633 0.9409105 -0.3265086
vn 0 0 0
vn 0.05882902 0.9978902 -0.02746309
vn 0 0 0
vn 0.05982206 0.9977626 -0.02985116
vn 0 0 0
vn -0.104556 0.932492 -0.3457266
vn 0 0 0
vn -0.1157292 0.9240599 -0.3643076
vn 0 0 0
vn 0.06383871 0.997422 -0.03276816
vn 0 0 0
vn 0.06440281 0.9973187 -0.03474977
vn 0 0 0
vn -0.1107999 0.924215 -0.365445
vn 0 0 0
vn -0.1307815 0.9169627 -0.3769291
vn 0 0 0
vn 0.06745023 0.9970294 -0.03718612
vn 0 0 0
vn 0.06774084 0.9969479 -0.03880881
vn 0 0 0
vn -0.1451465 0.9085606 -0.3917271
vn 0 0 0
vn -0.1578818 0.8992226 -0.4080097
vn 0 0 0
vn 0.07009904 0.9967036 -0.04084539
vn 0 0 0
vn 0.07022079 0.9966393 -0.04218009
vn 0 0 0
vn -0.1541425 0.898384 -0.411274
vn 0 0 0
vn -0.1588743 0.8968836 -0.4127453
vn 0 0 0
vn 0.07203648 0.996437 -0.04386267
vn 0 0 0
vn 0.07204941 0.9963868 -0.04496777
vn 0 0 0
vn -0.16292 0.8959366 -0.4132247
vn 0 0 0
vn -0.1689362 0.893446 -0.416191
vn 0 0 0
vn 0.07346713 0.9962193 -0.04636366
vn 0 0 0
vn 0.07340854 0.996181 -0.0472718
vn 0 0 0
vn -0.1725003 0.8920215 -0.4177816
vn 0 0 0
vn -0.1792388 0.8889048 -0.4215707
vn 0 0 0
vn 0.07451895 0.996043 -0.04842889
vn 0 0 0
vn 0.07441215 0.9960144 -0.04917467
vn 0 0 0
vn -0.1823987 0.8871904 -0.4238206
vn 0 0 0
vn -0.1726933 0.8912865 -0.4192678
vn 0 0 0
vn 0.07524407 0.9959058 -0.05010121
vn 0 0 0
vn 0.07510419 0.9958857 -0.05070468
vn 0 0 0
vn -0.1657715 0.8974223 -0.4088437
vn 0 0 0
vn -0.1520959 0.9063491 -0.3942059
vn 0 0 0
vn 0.07573007 0.9958003 -0.05144796
vn 0 0 0
vn 0.07556677 0.9957882 -0.05192026
vn 0 0 0
vn -0.1552956 0.9101304 -0.3841172
vn 0 0 0
vn -0.2071144 0.8900377 -0.4061238
vn 0 0 0
vn 0.07599243 0.9957264 -0.05247936
vn 0 0 0
vn 0.07581276 0.995721 -0.05283946
vn 0 0 0
vn -0.2406394 0.8638201 -0.4426143
vn 0 0 0
vn -0.2630867 0.8393688 -0.4756527
vn 0 0 0
vn 0.0760643 0.9956809 -0.05323276
vn 0 0 0
vn 0.07586918 0.9956824 -0.05348453
vn 0 0 0
vn -0.2405419 0.8409172 -0.4847658
vn 0 0 0
vn -0.2445956 0.8406667 -0.4831694
vn 0 0 0
vn 0.07595551 0.9956633 -0.05371567
vn 0 0 0
vn 0.07574816 0.9956712 -0.05386251
vn 0 0 0
vn -0.2517122 0.8375515 -0.4849211
vn 0 0 0
vn -0.2348419 0.8451493 -0.4801792
vn 0 0 0
vn 0.07567492 0.9956729 -0.05393326
vn 0 0 0
vn 0.07545508 0.9956873 -0.05397626
vn 0 0 0
vn -0.2211683 0.8566202 -0.46614
vn 0 0 0
vn -0.2036826 0.8706185 -0.4478135
vn 0 0 0
vn 0.07522316 0.9957097 -0.05388671
vn 0 0 0
vn 0.07499044 0.9957303 -0.05382697
vn 0 0 0
vn -0.2111628 0.8742714 -0.4371038
vn 0 0 0
vn -0.1979575 0.8816876 -0.4282986
vn 0 0 0
vn 0.0745952 0.9957738 -0.05357343
vn 0 0 0
vn 0.07434542 0.9958013 -0.05340752
vn 0 0 0
vn -0.1948192 0.8870456 -0.4185638
vn 0 0 0
vn -0.1827236 0.8946558 -0.4076801
vn 0 0 0
vn 0.07376714 0.9958675 -0.05297498
vn 0 0 0
vn 0.07349575 0.9959024 -0.05269494
vn 0 0 0
vn -0.1843108 0.8979335 -0.3996811
vn 0 0 0
vn -0.1758606 0.9027666 -0.3925374
vn 0 0 0
vn 0.07271878 0.9959923 -0.05207041
vn 0 0 0
vn 0.0724114 0.9960361 -0.05165938
vn 0 0 0
vn -0.1759255 0.9052873 -0.3866591
vn 0 0 0
vn -0.1637715 0.9111561 -0.3781183
vn 0 0 0
vn 0.07140806 0.9961515 -0.05082284
vn 0 0 0
vn 0.071055 0.9962049 -0.05026957
vn 0 0 0
vn -0.1607448 0.9152695 -0.3693818
vn 0 0 0
vn -0.1498629 0.9210903 -0.3593518
vn 0 0 0
vn 0.06973613 0.9963536 -0.04915591
vn 0 0 0
vn 0.06931929 0.9964183 -0.04843076
vn 0 0 0
vn -0.1509191 0.9236298 -0.352323
vn 0 0 0
vn -0.2007733 0.9050745 -0.3748737
vn 0 0 0
vn 0.06767401 0.9965982 -0.04703619
vn 0 0 0
vn 0.06715214 0.9966774 -0.04609497
vn 0 0 0
vn -0.2311381 0.8817641 -0.411178
vn 0 0 0
vn -0.2144401 0.8785414 -0.4268259
vn 0 0 0
vn 0.06499342 0.9969024 -0.04429005
vn 0 0 0
vn 0.0643184 0.996999 -0.04308255
vn 0 0 0
vn -0.1658296 0.8987736 -0.4058407
vn 0 0 0
vn -0.1283135 0.9225445 -0.3639329
vn 0 0 0
vn 0.06152121 0.9972715 -0.04080182
vn 0 0 0
vn 0.06060052 0.9973901 -0.03924854
vn 0 0 0
vn -0.1441402 0.9278531 -0.3439652
vn 0 0 0
vn -0.1350251 0.9326049 -0.3346884
vn 0 0 0
vn 0.05681302 0.997725 -0.03629249
vn 0 0 0
vn 0.05547141 0.9978719 -0.03427043
vn 0 0 0
vn -0.1364702 0.9344152 -0.3290048
vn 0 0 0
vn -0.1297897 0.9374573 -0.3229994
vn 0 0 0
vn 0.05014966 0.9982794 -0.03038483
vn 0 0 0
vn 0.04801795 0.9984623 -0.02769935
vn 0 0 0
vn -0.1293092 0.9392135 -0.3180521
vn 0 0 0
vn -0.1553064 0.9304556 -0.3318619
vn 0 0 0
vn 0.04482527 0.9986715 -0.02541504
vn 0 0 0
vn 0.04596359 0.9986336 -0.02486624
vn 0 0 0
vn -0.1717213 0.9248283 -0.3394181
vn 0 0 0
vn -0.2135367 0.9062555 -0.3648327
vn 0 0 0

vt 0 0
vt 0 0
vt 0.1071991 -0.6014466
vt 0.1071991 -0.6014466
vt 0.1071991 -0.6014466
vt 0.1071991 -0.6014466
vt 0.1778656 -0.9979126
vt 0.1778656 -0.9979126
vt 1.078864 0.2385193
vt 1.078864 0.2385193
vt 1.24566 -0.3747192
vt 1.24566 -0.3747192
vt 1.24566 -0.3747192
vt 1.24566 -0.3747192
vt 1.352936 -0.7691223
vt 1.352936 -0.7691223
vt 2.116919 0.5704102
vt 2.116919 0.5704102
vt 2.340527 -0.04679566
vt 2.340527 -0.04679566
vt 2.340527 -0.04679566
vt 2.340527 -0.04679566
vt 2.481479 -0.4358459
vt 2.481479 -0.4358459
vt 3.108557 0.9653808
vt 3.108557 0.9653808
vt 3.375 0.3464234
vt 3.375 0.3464234
vt 3.375 0.3464234
vt 3.375 0.3464234
vt 3.540271 -0.0375061
vt 3.540271 -0.0375061
vt 4.066678 1.404877
vt 4.066678 1.404877
vt 4.366635 0.7851074
vt 4.366635 0.7851074
vt 4.366635 0.7851074
vt 4.366635 0.7851074
vt 4.550269 0.4056824
vt 4.550269 0.4056824
vt 5.006647 1.881342
vt 5.006647 1.881342
vt 5.333725 1.261224
vt 5.333725 1.261224
vt 5.333725 1.261224
vt 5.333725 1.261224
vt 5.531793 0.8856995
vt 5.531793 0.8856995
vt 5.922992 2.381836
vt 5.922992 2.381836
vt 6.272165 1.761652
vt 6.272165 1.761652
vt 6.272165 1.761652
vt 6.272165 1.761652
vt 6.481714 1.389465
vt 6.481714 1.389465
vt 6.811084 2.895526
vt 6.811084 2.895526
vt 7.178329 2.275501
vt 7.178329 2.275501
vt 7.178329 2.275501
vt 7.178329 2.275501
vt 7.397095 1.906146
vt 7.397095 1.906146
vt 7.68963 3.427332
vt 7.68963 3.427332
vt 8.072024 2.807648
vt 8.072024 2.807648
vt 8.072024 2.807648
vt 8.072024 2.807648
vt 8.298419 2.440772
vt 8.298419 2.440772
vt 8.55561 3.971252
vt 8.55561 3.971252
vt 8.950653 3.352093
vt 8.950653 3.352093
vt 8.950653 3.352093
vt 8.950653 3.352093
vt 9.183356 2.987384
vt 9.183356 2.987384
vt 9.406394 4.521973
vt 9.406394 4.521973
vt 9.811914 3.90354
vt 9.811914 3.90354
vt 9.811914 3.90354
vt 9.811914 3.90354
vt 10.04982 3.540723
vt 10.04982 3.540723
vt 10.26316 5.090613
vt 10.26316 5.090613
vt 10.67747 4.473096
vt 10.67747 4.473096
vt 10.67747 4.473096
vt 10.67747 4.473096
vt 10.91975 4.112
vt 10.91975 4.112
vt 11.10009 5.657642
vt 11.10009 5.657642
vt 11.52141 5.04126
vt 11.52141 5.04126
vt 11.52141 5.04126
vt 11.52141 5.04126
vt 11.76721 4.681653
vt 11.76721 4.681653
vt 11.939 6.23573
vt 11.939 6.23573
vt 12.36591 5.620679
vt 12.36591 5.620679
vt 12.36591 5.620679
vt 12.36591 5.620679
vt 12.61456 5.262427
vt 12.61456 5.262427
vt 12.77812 6.821924
vt 12.77812 6.821924
vt 13.20922 6.208447
vt 13.20922 6.208447
vt 13.20922 6.208447
vt 13.20922 6.208447
vt 13.4601 5.851429
vt 13.4601 5.851429
vt 13.61533 7.413184
vt 13.61533 7.413184
vt 14.04927 6.801526
vt 14.04927 6.801526
vt 14.04927 6.801526
vt 14.04927 6.801526
vt 14.30178 6.445606
vt 14.30178 6.445606
vt 14.44879 8.006617
vt 14.44879 8.006617
vt 14.88425 7.397009
vt 14.88425 7.397009
vt 14.88425 7.397009
vt 14.88425 7.397009
vt 15.1378 7.042066
vt 15.1378 7.042066
vt 15.27653 8.599231
vt 15.27653 8.599231
vt 15.71221 7.991919
vt 15.71221 7.991919
vt 15.71221 7.991919
vt 15.71221 7.991919
vt 15.96623 7.63783
vt 15.96623 7.63783
vt 16.09656 9.188013
vt 16.09656 9.188013
vt 16.53115 8.58324
vt 16.53115 8.58324
vt 16.53115 8.58324
vt 16.53115 8.58324
vt 16.78507 8.229883
vt 16.78507 8.229883
vt 16.90687 9.77002
vt 16.90687 9.77002
vt 17.33906 9.168006
vt 17.33906 9.168006
vt 17.33906 9.168006
vt 17.33906 9.168006
vt 17.5923 8.815247
vt 17.5923 8.815247
vt 17.72812 10.35844
vt 17.72812 10.35844
vt 18.15645 9.759473
vt 18.15645 9.759473
vt 18.15645 9.759473
vt 18.15645 9.759473
vt 18.40837 9.40719
vt 18.40837 9.40719
vt 18.55674 10.94882
vt 18.55674 10.94882
vt 18.9796 10.35322
vt 18.9796 10.35322
vt 18.9796 10.35322
vt 18.9796 10.35322
vt 19.22949 10.00125
vt 19.22949 10.00125
vt 19.36739 11.52118
vt 19.36739 11.52118
vt 19.78319 10.92914
vt 19.78319 10.92914
vt 19.78319 10.92914
vt 19.78319 10.92914
vt 20.0303 10.57728
vt 20.0303 10.57728
vt 20.19954 12.10093
vt 20.19954 12.10093
vt 20.60609 11.51282
vt 20.60609 11.51282
vt 20.60609 11.51282
vt 20.60609 11.51282
vt 20.84941 11.16082
vt 20.84941 11.16082
vt 21.02614 12.66608
vt 21.02614 12.66608
vt 21.42113 12.08209
vt 21.42113 12.08209
vt 21.42113 12.08209
vt 21.42113 12.08209
vt 21.65952 11.72964
vt 21.65952 11.72964
vt 21.86113 13.22239
vt 21.86113 13.22239
vt 22.24149 12.64282
vt 22.24149 12.64282
vt 22.24149 12.64282
vt 22.24149 12.64282
vt 22.47339 12.28945
vt 22.47339 12.28945
vt 22.6951 13.7585
vt 22.6951 13.7585
vt 23.05703 13.1835
vt 23.05703 13.1835
vt 23.05703 13.1835
vt 23.05703 13.1835
vt 23.28041 12.82861
vt 23.28041 12.82861
vt 23.53407 14.27133
vt 23.53407 14.27133
vt 23.87214 13.70099
vt 23.87214 13.70099
vt 23.87214 13.70099
vt 23.87214 13.70099
vt 24.08394 13.34368
vt 24.08394 13.34368
vt 24.37577 14.74902
vt 24.37577 14.74902
vt 24.68182 14.18331
vt 24.68182 14.18331
vt 24.68182 14.18331
vt 24.68182 14.18331
vt 24.87718 13.82218
vt 24.87718 13.82218

usemtl GSDShoulder1
usemap GSDShoulder1
f 9/9/9 1/1/1 3/3/3
f 11/11/11 9/9/9 3/3/3
f 13/13/13 5/5/5 7/7/7
f 15/15/15 13/13/13 7/7/7
f 17/17/17 9/9/9 11/11/11
f 19/19/19 17/17/17 11/11/11
f 21/21/21 13/13/13 15/15/15
f 23/23/23 21/21/21 15/15/15
f 25/25/25 17/17/17 19/19/19
f 27/27/27 25/25/25 19/19/19
f 29/29/29 21/21/21 23/23/23
f 31/31/31 29/29/29 23/23/23
f 33/33/33 25/25/25 27/27/27
f 35/35/35 33/33/33 27/27/27
f 37/37/37 29/29/29 31/31/31
f 39/39/39 37/37/37 31/31/31
f 41/41/41 33/33/33 35/35/35
f 43/43/43 41/41/41 35/35/35
f 45/45/45 37/37/37 39/39/39
f 47/47/47 45/45/45 39/39/39
f 49/49/49 41/41/41 43/43/43
f 51/51/51 49/49/49 43/43/43
f 53/53/53 45/45/45 47/47/47
f 55/55/55 53/53/53 47/47/47
f 57/57/57 49/49/49 51/51/51
f 59/59/59 57/57/57 51/51/51
f 61/61/61 53/53/53 55/55/55
f 63/63/63 61/61/61 55/55/55
f 65/65/65 57/57/57 59/59/59
f 67/67/67 65/65/65 59/59/59
f 69/69/69 61/61/61 63/63/63
f 71/71/71 69/69/69 63/63/63
f 73/73/73 65/65/65 67/67/67
f 75/75/75 73/73/73 67/67/67
f 77/77/77 69/69/69 71/71/71
f 79/79/79 77/77/77 71/71/71
f 81/81/81 73/73/73 75/75/75
f 83/83/83 81/81/81 75/75/75
f 85/85/85 77/77/77 79/79/79
f 87/87/87 85/85/85 79/79/79
f 89/89/89 81/81/81 83/83/83
f 91/91/91 89/89/89 83/83/83
f 93/93/93 85/85/85 87/87/87
f 95/95/95 93/93/93 87/87/87
f 97/97/97 89/89/89 91/91/91
f 99/99/99 97/97/97 91/91/91
f 101/101/101 93/93/93 95/95/95
f 103/103/103 101/101/101 95/95/95
f 105/105/105 97/97/97 99/99/99
f 107/107/107 105/105/105 99/99/99
f 109/109/109 101/101/101 103/103/103
f 111/111/111 109/109/109 103/103/103
f 113/113/113 105/105/105 107/107/107
f 115/115/115 113/113/113 107/107/107
f 117/117/117 109/109/109 111/111/111
f 119/119/119 117/117/117 111/111/111
f 121/121/121 113/113/113 115/115/115
f 123/123/123 121/121/121 115/115/115
f 125/125/125 117/117/117 119/119/119
f 127/127/127 125/125/125 119/119/119
f 129/129/129 121/121/121 123/123/123
f 131/131/131 129/129/129 123/123/123
f 133/133/133 125/125/125 127/127/127
f 135/135/135 133/133/133 127/127/127
f 137/137/137 129/129/129 131/131/131
f 139/139/139 137/137/137 131/131/131
f 141/141/141 133/133/133 135/135/135
f 143/143/143 141/141/141 135/135/135
f 145/145/145 137/137/137 139/139/139
f 147/147/147 145/145/145 139/139/139
f 149/149/149 141/141/141 143/143/143
f 151/151/151 149/149/149 143/143/143
f 153/153/153 145/145/145 147/147/147
f 155/155/155 153/153/153 147/147/147
f 157/157/157 149/149/149 151/151/151
f 159/159/159 157/157/157 151/151/151
f 161/161/161 153/153/153 155/155/155
f 163/163/163 161/161/161 155/155/155
f 165/165/165 157/157/157 159/159/159
f 167/167/167 165/165/165 159/159/159
f 169/169/169 161/161/161 163/163/163
f 171/171/171 169/169/169 163/163/163
f 173/173/173 165/165/165 167/167/167
f 175/175/175 173/173/173 167/167/167
f 177/177/177 169/169/169 171/171/171
f 179/179/179 177/177/177 171/171/171
f 181/181/181 173/173/173 175/175/175
f 183/183/183 181/181/181 175/175/175
f 185/185/185 177/177/177 179/179/179
f 187/187/187 185/185/185 179/179/179
f 189/189/189 181/181/181 183/183/183
f 191/191/191 189/189/189 183/183/183
f 193/193/193 185/185/185 187/187/187
f 195/195/195 193/193/193 187/187/187
f 197/197/197 189/189/189 191/191/191
f 199/199/199 197/197/197 191/191/191
f 201/201/201 193/193/193 195/195/195
f 203/203/203 201/201/201 195/195/195
f 205/205/205 197/197/197 199/199/199
f 207/207/207 205/205/205 199/199/199
f 209/209/209 201/201/201 203/203/203
f 211/211/211 209/209/209 203/203/203
f 213/213/213 205/205/205 207/207/207
f 215/215/215 213/213/213 207/207/207
f 217/217/217 209/209/209 211/211/211
f 219/219/219 217/217/217 211/211/211
f 221/221/221 213/213/213 215/215/215
f 223/223/223 221/221/221 215/215/215
f 225/225/225 217/217/217 219/219/219
f 227/227/227 225/225/225 219/219/219
f 229/229/229 221/221/221 223/223/223
f 231/231/231 229/229/229 223/223/223
