mtllib ./Road1_0_117.mtl
g Markers58
v -427.5504 34.32559 740.3895
v -427.5504 34.32559 740.3895
v -427.6801 34.32559 750.3886
v -427.6801 34.32559 750.3886
v -422.4918 34.32618 740.4656
v -422.4918 34.32618 740.4656
v -422.6786 34.32618 750.4639
v -422.6786 34.32618 750.4639
v -417.3327 34.328 740.5843
v -417.3327 34.328 740.5843
v -417.5975 34.328 750.5807
v -417.5975 34.328 750.5807
v -412.222 34.33098 740.7283
v -412.222 34.33098 740.7283
v -412.5112 34.33098 750.7242
v -412.5112 34.33098 750.7242
v -407.2373 34.33354 740.866
v -407.2373 34.33354 740.866
v -407.4893 34.33354 750.8628
v -407.4893 34.33354 750.8628
v -402.1963 34.3341 740.9697
v -402.1963 34.3341 740.9697
v -402.3454 34.3341 750.9686
v -402.3454 34.3341 750.9686
v -397.1586 34.33089 741.0057
v -397.1586 34.33089 741.0057
v -397.1426 34.33089 751.0057
v -397.1426 34.33089 751.0057

vn -0.0001161091 1 -1.50606E-06
vn 0 0 0
vn -0.0001167641 1 -1.848551E-06
vn 0 0 0
vn -0.0001969506 1 -3.460651E-06
vn 0 0 0
vn -0.0002776848 1 -6.123197E-06
vn 0 0 0
vn -0.000431384 0.9999999 -1.050234E-05
vn 0 0 0
vn -0.0005089851 0.9999999 -1.395816E-05
vn 0 0 0
vn -0.0005606449 0.9999998 -1.573942E-05
vn 0 0 0
vn -0.0005361709 0.9999999 -1.487881E-05
vn 0 0 0
vn -0.000376965 0.9999999 -1.013453E-05
vn 0 0 0
vn -0.0002414413 0.9999999 -5.70939E-06
vn 0 0 0
vn 0.000137299 1 1.669856E-06
vn 0 0 0
vn 0.0003803252 0.9999999 2.231648E-06
vn 0 0 0
vn 0.0006257897 0.9999998 4.163503E-06
vn 0 0 0
vn 0.0006159006 0.9999999 -9.848995E-07
vn 0 0 0

vt 0 854.538
vt 0 0
vt 1 854.538
vt 0 0
vt 0 855.5498
vt 0 855.5498
vt 1 855.5498
vt 1 855.5498
vt 0 856.5819
vt 0 856.5819
vt 1 856.5819
vt 1 856.5819
vt 0 857.6044
vt 0 857.6044
vt 1 857.6044
vt 1 857.6044
vt 0 858.6017
vt 0 858.6017
vt 1 858.6017
vt 1 858.6017
vt 0 859.6102
vt 0 859.6102
vt 1 859.6102
vt 1 859.6102
vt 0 860.6177
vt 0 860.6177
vt 1 860.6177
vt 1 860.6177

usemtl GSDWhiteYellowDouble
usemap GSDWhiteYellowDouble
f 5/5/5 1/1/1 3/3/3
f 7/7/7 5/5/5 3/3/3
f 9/9/9 5/5/5 7/7/7
f 11/11/11 9/9/9 7/7/7
f 13/13/13 9/9/9 11/11/11
f 15/15/15 13/13/13 11/11/11
f 17/17/17 13/13/13 15/15/15
f 19/19/19 17/17/17 15/15/15
f 21/21/21 17/17/17 19/19/19
f 23/23/23 21/21/21 19/19/19
f 25/25/25 21/21/21 23/23/23
f 27/27/27 25/25/25 23/23/23
