mtllib ./Road1_0_72.mtl
g RoadCut36
v -448.2541 0.07519178 854.8
v -448.2541 0.07519178 854.8
v -447.8344 0.07519178 844.8101
v -447.8344 0.07519178 844.8101
v -453.3857 0.1654879 854.5299
v -453.3857 0.1654879 854.5299
v -452.7387 0.1654879 844.5529
v -452.7387 0.1654879 844.5529
v -458.6081 0.2749144 854.1255
v -458.6081 0.2749144 854.1255
v -457.714 0.2749144 844.1683
v -457.714 0.2749144 844.1683
v -463.7283 0.3994114 853.6044
v -463.7283 0.3994114 853.6044
v -462.6012 0.3994114 843.6716
v -462.6012 0.3994114 843.6716
v -468.8851 0.541646 852.9595
v -468.8851 0.541646 852.9595
v -467.5357 0.541646 843.0554
v -467.5357 0.541646 843.0554
v -473.9496 0.6972567 852.215
v -473.9496 0.6972567 852.215
v -472.3966 0.6972567 842.3417
v -472.3966 0.6972567 842.3417
v -479.0551 0.8693925 851.3608
v -479.0551 0.8693925 851.3608
v -477.3147 0.8693925 841.5198
v -477.3147 0.8693925 841.5198
v -484.0807 1.05291 850.4271
v -484.0807 1.05291 850.4271
v -482.1758 1.05291 840.6174
v -482.1758 1.05291 840.6174
v -489.1577 1.251396 849.4009
v -489.1577 1.251396 849.4009
v -487.1094 1.251396 839.6212
v -487.1094 1.251396 839.6212
v -494.1677 1.458874 848.3188
v -494.1677 1.458874 848.3188
v -492.0027 1.458874 838.5649
v -492.0027 1.458874 838.5649
v -499.1211 1.673911 847.194
v -499.1211 1.673911 847.194
v -496.867 1.673911 837.4611
v -496.867 1.673911 837.4611
v -504.0274 1.895032 846.0399
v -504.0274 1.895032 846.0399
v -501.7124 1.895032 836.3218
v -501.7124 1.895032 836.3218
v -509.0141 2.126277 844.8416
v -509.0141 2.126277 844.8416
v -506.6665 2.126277 835.1317
v -506.6665 2.126277 835.1317
v -513.9722 2.360772 843.6407
v -513.9722 2.360772 843.6407
v -511.6225 2.360772 833.9317
v -511.6225 2.360772 833.9317
v -518.9124 2.596931 842.4514
v -518.9124 2.596931 842.4514
v -516.5911 2.596931 832.7355
v -516.5911 2.596931 832.7355
v -523.8442 2.83312 841.2877
v -523.8442 2.83312 841.2877
v -521.5818 2.83312 831.5578
v -521.5818 2.83312 831.5578
v -528.7798 3.067825 840.1626
v -528.7798 3.067825 840.1626
v -526.6068 3.067825 830.4122
v -526.6068 3.067825 830.4122
v -533.611 3.293934 839.1151
v -533.611 3.293934 839.1151
v -531.5541 3.293934 829.3391
v -531.5541 3.293934 829.3391
v -538.4667 3.515642 838.1299
v -538.4667 3.515642 838.1299
v -536.5537 3.515642 828.3241
v -536.5537 3.515642 828.3241
v -543.3558 3.731405 837.2195
v -543.3558 3.731405 837.2195
v -541.6136 3.731405 827.3812
v -541.6136 3.731405 827.3812
v -548.2896 3.939793 836.3958
v -548.2896 3.939793 836.3958
v -546.744 3.939793 826.524
v -546.744 3.939793 826.524
v -553.1564 4.134569 835.6875
v -553.1564 4.134569 835.6875
v -551.8257 4.134569 825.7836
v -551.8257 4.134569 825.7836
v -558.0859 4.31954 835.0847
v -558.0859 4.31954 835.0847
v -556.9916 4.31954 825.1509
v -556.9916 4.31954 825.1509
v -562.9626 4.489147 834.6091
v -562.9626 4.489147 834.6091
v -562.1173 4.489147 824.6501
v -562.1173 4.489147 824.6501
v -567.9179 4.646842 834.2546
v -567.9179 4.646842 834.2546
v -567.3376 4.646842 824.2759
v -567.3376 4.646842 824.2759
v -572.8317 4.78786 834.0361
v -572.8317 4.78786 834.0361
v -572.5231 4.78786 824.0443
v -572.5231 4.78786 824.0443
v -577.7054 4.912026 833.9529
v -577.7054 4.912026 833.9529
v -577.6716 4.912026 823.9556
v -577.6716 4.912026 823.9556
v -582.6762 5.022152 834.0066
v -582.6762 5.022152 834.0066
v -582.9251 5.022152 824.0117
v -582.9251 5.022152 824.0117

vn 0.01755479 0.9998456 0.0007374827
vn 0 0 0
vn 0.01794158 0.9998385 0.0009584552
vn 0 0 0
vn 0.01893608 0.9998201 0.00109318
vn 0 0 0
vn 0.0203612 0.9997915 0.001499915
vn 0 0 0
vn 0.02225217 0.9997508 0.001820947
vn 0 0 0
vn 0.0236965 0.9997165 0.002322373
vn 0 0 0
vn 0.02549322 0.9996713 0.002700335
vn 0 0 0
vn 0.02690842 0.9996325 0.003266081
vn 0 0 0
vn 0.02853666 0.999586 0.003677581
vn 0 0 0
vn 0.02990106 0.9995437 0.004289506
vn 0 0 0
vn 0.03141253 0.9994953 0.004727783
vn 0 0 0
vn 0.03270308 0.9994506 0.005363917
vn 0 0 0
vn 0.0340424 0.9994036 0.005803029
vn 0 0 0
vn 0.03523799 0.9993582 0.006439609
vn 0 0 0
vn 0.03645112 0.9993118 0.006873054
vn 0 0 0
vn 0.03753173 0.9992673 0.007483741
vn 0 0 0
vn 0.03857936 0.9992244 0.007886665
vn 0 0 0
vn 0.03952685 0.9991829 0.008445752
vn 0 0 0
vn 0.04043325 0.9991434 0.008807638
vn 0 0 0
vn 0.0412261 0.9991066 0.009284327
vn 0 0 0
vn 0.0419822 0.9990723 0.009589092
vn 0 0 0
vn 0.04261047 0.9990421 0.009963198
vn 0 0 0
vn 0.04323292 0.9990129 0.01020474
vn 0 0 0
vn 0.04369055 0.9989902 0.0104604
vn 0 0 0
vn 0.04417238 0.9989674 0.01062761
vn 0 0 0
vn 0.04445048 0.9989537 0.0107506
vn 0 0 0
vn 0.04480117 0.9989371 0.01083901
vn 0 0 0
vn 0.04488983 0.9989333 0.01081758
vn 0 0 0
vn 0.04510175 0.9989238 0.01082219
vn 0 0 0
vn 0.04499875 0.9989302 0.01065487
vn 0 0 0
vn 0.04507002 0.9989278 0.01057574
vn 0 0 0
vn 0.04477478 0.9989444 0.01026679
vn 0 0 0
vn 0.0447031 0.9989492 0.01010798
vn 0 0 0
vn 0.04422013 0.9989749 0.009673259
vn 0 0 0
vn 0.04400022 0.9989869 0.009441319
vn 0 0 0
vn 0.04333773 0.9990208 0.00889807
vn 0 0 0
vn 0.04296502 0.9990395 0.008602726
vn 0 0 0
vn 0.04212853 0.9990805 0.007967598
vn 0 0 0
vn 0.04158692 0.9991059 0.00761621
vn 0 0 0
vn 0.0405869 0.999152 0.006912368
vn 0 0 0
vn 0.03987942 0.9991832 0.006522106
vn 0 0 0
vn 0.03873684 0.9992327 0.005784215
vn 0 0 0
vn 0.03784449 0.9992692 0.005369153
vn 0 0 0
vn 0.03657883 0.9993201 0.004624266
vn 0 0 0
vn 0.03553067 0.9993597 0.004208394
vn 0 0 0
vn 0.0341657 0.99941 0.003483914
vn 0 0 0
vn 0.03292651 0.999453 0.003078549
vn 0 0 0
vn 0.03148566 0.9995013 0.002398588
vn 0 0 0
vn 0.03010361 0.9995447 0.002028321
vn 0 0 0
vn 0.02861379 0.9995895 0.001413589
vn 0 0 0
vn 0.0270778 0.9996328 0.001092428
vn 0 0 0
vn 0.02557658 0.9996727 0.0005655159
vn 0 0 0
vn 0.02389684 0.9997143 0.0003083971
vn 0 0 0
vn 0.02239655 0.9997492 -0.0001267711
vn 0 0 0
vn 0.02153439 0.999768 -0.0002316798
vn 0 0 0
vn 0.02095207 0.9997804 -0.0005217674
vn 0 0 0

vt 0 0
vt 0 0
vt -0.08393555 -1.997974
vt -0.08393555 -1.997974
vt 1.026306 -0.05401611
vt 1.026306 -0.05401611
vt 0.8969116 -2.049426
vt 0.8969116 -2.049426
vt 2.070789 -0.1348877
vt 2.070789 -0.1348877
vt 1.891968 -2.126343
vt 1.891968 -2.126343
vt 3.09483 -0.2391235
vt 3.09483 -0.2391235
vt 2.869415 -2.225672
vt 2.869415 -2.225672
vt 4.126203 -0.3680908
vt 4.126203 -0.3680908
vt 3.856317 -2.348926
vt 3.856317 -2.348926
vt 5.139105 -0.5169922
vt 5.139105 -0.5169922
vt 4.828497 -2.49165
vt 4.828497 -2.49165
vt 6.160205 -0.6878296
vt 6.160205 -0.6878296
vt 5.812109 -2.656043
vt 5.812109 -2.656043
vt 7.16532 -0.874585
vt 7.16532 -0.874585
vt 6.784326 -2.836524
vt 6.784326 -2.836524
vt 8.180719 -1.07981
vt 8.180719 -1.07981
vt 7.771051 -3.035767
vt 7.771051 -3.035767
vt 9.182709 -1.29624
vt 9.182709 -1.29624
vt 8.749713 -3.247021
vt 8.749713 -3.247021
vt 10.17339 -1.521204
vt 10.17339 -1.521204
vt 9.722571 -3.467786
vt 9.722571 -3.467786
vt 11.15466 -1.752026
vt 11.15466 -1.752026
vt 10.69166 -3.69563
vt 10.69166 -3.69563
vt 12.152 -1.991687
vt 12.152 -1.991687
vt 11.68248 -3.933655
vt 11.68248 -3.933655
vt 13.14362 -2.23186
vt 13.14362 -2.23186
vt 12.67368 -4.173657
vt 12.67368 -4.173657
vt 14.13165 -2.469727
vt 14.13165 -2.469727
vt 13.66739 -4.412891
vt 13.66739 -4.412891
vt 15.11801 -2.702466
vt 15.11801 -2.702466
vt 14.66555 -4.648438
vt 14.66555 -4.648438
vt 16.10513 -2.927478
vt 16.10513 -2.927478
vt 15.67054 -4.877552
vt 15.67054 -4.877552
vt 17.07138 -3.136975
vt 17.07138 -3.136975
vt 16.66 -5.092175
vt 16.66 -5.092175
vt 18.04251 -3.334021
vt 18.04251 -3.334021
vt 17.65992 -5.295178
vt 17.65992 -5.295178
vt 19.02033 -3.516101
vt 19.02033 -3.516101
vt 18.67189 -5.483753
vt 18.67189 -5.483753
vt 20.0071 -3.680835
vt 20.0071 -3.680835
vt 19.69797 -5.6552
vt 19.69797 -5.6552
vt 20.98046 -3.822498
vt 20.98046 -3.822498
vt 20.71432 -5.803284
vt 20.71432 -5.803284
vt 21.96636 -3.943066
vt 21.96636 -3.943066
vt 21.74749 -5.92981
vt 21.74749 -5.92981
vt 22.94171 -4.038184
vt 22.94171 -4.038184
vt 22.77264 -6.029981
vt 22.77264 -6.029981
vt 23.93276 -4.10907
vt 23.93276 -4.10907
vt 23.81669 -6.104822
vt 23.81669 -6.104822
vt 24.91551 -4.152783
vt 24.91551 -4.152783
vt 24.85379 -6.151147
vt 24.85379 -6.151147
vt 25.89025 -4.169422
vt 25.89025 -4.169422
vt 25.88349 -6.168884
vt 25.88349 -6.168884
vt 26.88442 -4.158679
vt 26.88442 -4.158679
vt 26.9342 -6.157654
vt 26.9342 -6.157654

usemtl GSDRoad1
usemap GSDRoad1
f 5/5/5 1/1/1 3/3/3
f 7/7/7 5/5/5 3/3/3
f 9/9/9 5/5/5 7/7/7
f 11/11/11 9/9/9 7/7/7
f 13/13/13 9/9/9 11/11/11
f 15/15/15 13/13/13 11/11/11
f 17/17/17 13/13/13 15/15/15
f 19/19/19 17/17/17 15/15/15
f 21/21/21 17/17/17 19/19/19
f 23/23/23 21/21/21 19/19/19
f 25/25/25 21/21/21 23/23/23
f 27/27/27 25/25/25 23/23/23
f 29/29/29 25/25/25 27/27/27
f 31/31/31 29/29/29 27/27/27
f 33/33/33 29/29/29 31/31/31
f 35/35/35 33/33/33 31/31/31
f 37/37/37 33/33/33 35/35/35
f 39/39/39 37/37/37 35/35/35
f 41/41/41 37/37/37 39/39/39
f 43/43/43 41/41/41 39/39/39
f 45/45/45 41/41/41 43/43/43
f 47/47/47 45/45/45 43/43/43
f 49/49/49 45/45/45 47/47/47
f 51/51/51 49/49/49 47/47/47
f 53/53/53 49/49/49 51/51/51
f 55/55/55 53/53/53 51/51/51
f 57/57/57 53/53/53 55/55/55
f 59/59/59 57/57/57 55/55/55
f 61/61/61 57/57/57 59/59/59
f 63/63/63 61/61/61 59/59/59
f 65/65/65 61/61/61 63/63/63
f 67/67/67 65/65/65 63/63/63
f 69/69/69 65/65/65 67/67/67
f 71/71/71 69/69/69 67/67/67
f 73/73/73 69/69/69 71/71/71
f 75/75/75 73/73/73 71/71/71
f 77/77/77 73/73/73 75/75/75
f 79/79/79 77/77/77 75/75/75
f 81/81/81 77/77/77 79/79/79
f 83/83/83 81/81/81 79/79/79
f 85/85/85 81/81/81 83/83/83
f 87/87/87 85/85/85 83/83/83
f 89/89/89 85/85/85 87/87/87
f 91/91/91 89/89/89 87/87/87
f 93/93/93 89/89/89 91/91/91
f 95/95/95 93/93/93 91/91/91
f 97/97/97 93/93/93 95/95/95
f 99/99/99 97/97/97 95/95/95
f 101/101/101 97/97/97 99/99/99
f 103/103/103 101/101/101 99/99/99
f 105/105/105 101/101/101 103/103/103
f 107/107/107 105/105/105 103/103/103
f 109/109/109 105/105/105 107/107/107
f 111/111/111 109/109/109 107/107/107
