mtllib ./Road8_2_38.mtl
g Markers11
v -417.9109 8.264534 81.95981
v -417.9109 8.264534 81.95981
v -408.3701 8.264534 84.95546
v -408.3701 8.264534 84.95546
v -417.6413 8.257464 78.69847
v -417.6413 8.257464 78.69847
v -407.6482 8.257464 78.3322
v -407.6482 8.257464 78.3322
v -417.4407 8.342881 73.15922
v -417.4407 8.342881 73.15922
v -407.4659 8.342881 73.81866
v -407.4659 8.342881 73.81866
v -417.3477 8.497798 68.80104
v -417.3477 8.497798 68.80104
v -407.3731 8.497798 68.17682
v -407.3731 8.497798 68.17682
v -418.0397 8.666831 65.40704
v -418.0397 8.666831 65.40704
v -408.737 8.666831 61.75142
v -408.737 8.666831 61.75142
v -419.7554 8.792716 62.67321
v -419.7554 8.792716 62.67321
v -412.3065 8.792716 56.00396
v -412.3065 8.792716 56.00396
v -422.6405 8.85358 60.24342
v -422.6405 8.85358 60.24342
v -417.1077 8.85358 51.91371
v -417.1077 8.85358 51.91371
v -426.3658 8.862347 58.20358
v -426.3658 8.862347 58.20358
v -422.1945 8.862347 49.11511
v -422.1945 8.862347 49.11511
v -430.5678 8.836205 56.54139
v -430.5678 8.836205 56.54139
v -427.3222 8.836205 47.08305
v -427.3222 8.836205 47.08305
v -435.1019 8.785254 55.16914
v -435.1019 8.785254 55.16914
v -432.5174 8.785254 45.50964
v -432.5174 8.785254 45.50964
v -439.7428 8.717424 54.05579
v -439.7428 8.717424 54.05579
v -437.6397 8.717424 44.28058
v -437.6397 8.717424 44.28058
v -444.4962 8.6362 53.13059
v -444.4962 8.6362 53.13059
v -442.7639 8.6362 43.28329
v -442.7639 8.6362 43.28329
v -449.3484 8.543912 52.35447
v -449.3484 8.543912 52.35447
v -447.912 8.543912 42.46001
v -447.912 8.543912 42.46001
v -454.3544 8.440777 51.69292
v -454.3544 8.440777 51.69292
v -453.1634 8.440777 41.76625
v -453.1634 8.440777 41.76625
v -459.2399 8.333725 51.15726
v -459.2399 8.333725 51.15726
v -458.2464 8.333725 41.20917
v -458.2464 8.333725 41.20917

vn 0.00066341 0.9999976 -0.002112864
vn 0 0 0
vn 0.0001899786 0.9999989 -0.001411367
vn 0 0 0
vn 0.0003257026 0.9999891 0.00467246
vn 0 0 0
vn -0.0001660961 0.9999517 0.009828162
vn 0 0 0
vn -0.0008833696 0.9997447 0.02257654
vn 0 0 0
vn -0.0004262454 0.99963 0.02719988
vn 0 0 0
vn 0.0007460244 0.9993653 0.03561355
vn 0 0 0
vn 0.005279637 0.9995078 0.03092424
vn 0 0 0
vn 0.009047017 0.9993858 0.03385759
vn 0 0 0
vn 0.01175509 0.9996763 0.02256572
vn 0 0 0
vn 0.01256953 0.9997427 0.01888133
vn 0 0 0
vn 0.01051886 0.9998909 0.01037111
vn 0 0 0
vn 0.006929081 0.9999586 0.005893909
vn 0 0 0
vn 0.004050917 0.9999884 0.002590302
vn 0 0 0
vn -0.0005840179 0.9999998 -0.0001649078
vn 0 0 0
vn -0.002562381 0.9999962 -0.0009949249
vn 0 0 0
vn -0.006551614 0.9999756 -0.002434617
vn 0 0 0
vn -0.007794593 0.9999666 -0.002437259
vn 0 0 0
vn -0.01091241 0.9999355 -0.003163705
vn 0 0 0
vn -0.01170857 0.9999272 -0.002908009
vn 0 0 0
vn -0.01419614 0.9998938 -0.00328506
vn 0 0 0
vn -0.01472458 0.9998872 -0.002963208
vn 0 0 0
vn -0.01671235 0.9998553 -0.003147971
vn 0 0 0
vn -0.01708479 0.99985 -0.00282255
vn 0 0 0
vn -0.01873021 0.9998203 -0.002903219
vn 0 0 0
vn -0.0190082 0.999816 -0.002593679
vn 0 0 0
vn -0.02035949 0.9997894 -0.002611164
vn 0 0 0
vn -0.02056496 0.9997858 -0.002327565
vn 0 0 0
vn -0.02121749 0.9997723 -0.002332028
vn 0 0 0
vn -0.02082815 0.999781 -0.002080009
vn 0 0 0

vt 0 172.5427
vt 0 0
vt 1 172.5427
vt 0 0
vt 0 173.1972
vt 0 173.1972
vt 1 173.1972
vt 1 173.1972
vt 0 174.3059
vt 0 174.3059
vt 1 174.3059
vt 1 174.3059
vt 0 175.1783
vt 0 175.1783
vt 1 175.1783
vt 1 175.1783
vt 0 175.8719
vt 0 175.8719
vt 1 175.8719
vt 1 175.8719
vt 0 176.5179
vt 0 176.5179
vt 1 176.5179
vt 1 176.5179
vt 0 177.2724
vt 0 177.2724
vt 1 177.2724
vt 1 177.2724
vt 0 178.1218
vt 0 178.1218
vt 1 178.1218
vt 1 178.1218
vt 0 179.0256
vt 0 179.0256
vt 1 179.0256
vt 1 179.0256
vt 0 179.9731
vt 0 179.9731
vt 1 179.9731
vt 1 179.9731
vt 0 180.9277
vt 0 180.9277
vt 1 180.9277
vt 1 180.9277
vt 0 181.8964
vt 0 181.8964
vt 1 181.8964
vt 1 181.8964
vt 0 182.8793
vt 0 182.8793
vt 1 182.8793
vt 1 182.8793
vt 0 183.8895
vt 0 183.8895
vt 1 183.8895
vt 1 183.8895
vt 0 184.8726
vt 0 184.8726
vt 1 184.8726
vt 1 184.8726

usemtl GSDWhiteYellowDouble
usemap GSDWhiteYellowDouble
f 5/5/5 1/1/1 3/3/3
f 7/7/7 5/5/5 3/3/3
f 9/9/9 5/5/5 7/7/7
f 11/11/11 9/9/9 7/7/7
f 13/13/13 9/9/9 11/11/11
f 15/15/15 13/13/13 11/11/11
f 17/17/17 13/13/13 15/15/15
f 19/19/19 17/17/17 15/15/15
f 21/21/21 17/17/17 19/19/19
f 23/23/23 21/21/21 19/19/19
f 25/25/25 21/21/21 23/23/23
f 27/27/27 25/25/25 23/23/23
f 29/29/29 25/25/25 27/27/27
f 31/31/31 29/29/29 27/27/27
f 33/33/33 29/29/29 31/31/31
f 35/35/35 33/33/33 31/31/31
f 37/37/37 33/33/33 35/35/35
f 39/39/39 37/37/37 35/35/35
f 41/41/41 37/37/37 39/39/39
f 43/43/43 41/41/41 39/39/39
f 45/45/45 41/41/41 43/43/43
f 47/47/47 45/45/45 43/43/43
f 49/49/49 45/45/45 47/47/47
f 51/51/51 49/49/49 47/47/47
f 53/53/53 49/49/49 51/51/51
f 55/55/55 53/53/53 51/51/51
f 57/57/57 53/53/53 55/55/55
f 59/59/59 57/57/57 55/55/55
