mtllib ./Road8_2_35.mtl
g RoadCut10
v -458.0993 8.243364 109.7825
v -458.0993 8.243364 109.7825
v -455.5959 8.243364 119.4635
v -455.5959 8.243364 119.4635
v -453.6104 8.289994 108.4539
v -453.6104 8.289994 108.4539
v -450.4754 8.289994 117.9494
v -450.4754 8.289994 117.9494
v -449.1517 8.323618 106.8317
v -449.1517 8.323618 106.8317
v -445.4577 8.323618 116.1242
v -445.4577 8.323618 116.1242
v -444.8079 8.345456 104.9599
v -444.8079 8.345456 104.9599
v -440.5934 8.345456 114.0283
v -440.5934 8.345456 114.0283
v -440.5456 8.357179 102.8312
v -440.5456 8.357179 102.8312
v -435.8277 8.357179 111.6483
v -435.8277 8.357179 111.6483
v -436.4252 8.359842 100.4733
v -436.4252 8.359842 100.4733
v -431.2103 8.359842 109.0058
v -431.2103 8.359842 109.0058
v -432.4441 8.35453 97.87211
v -432.4441 8.35453 97.87211
v -426.7171 8.35453 106.0697
v -426.7171 8.35453 106.0697
v -428.6962 8.34237 95.06494
v -428.6962 8.34237 95.06494
v -422.4272 8.34237 102.8559
v -422.4272 8.34237 102.8559
v -425.185 8.324254 92.00629
v -425.185 8.324254 92.00629
v -418.3047 8.324254 99.263
v -418.3047 8.324254 99.263
v -422.0581 8.301682 88.73373
v -422.0581 8.301682 88.73373
v -414.457 8.301682 95.23142
v -414.457 8.301682 95.23142
v -419.5261 8.27703 85.32337
v -419.5261 8.27703 85.32337
v -411.0393 8.27703 90.61224
v -411.0393 8.27703 90.61224
v -417.9109 8.254534 81.95981
v -417.9109 8.254534 81.95981
v -408.3701 8.254534 84.95546
v -408.3701 8.254534 84.95546

vn -0.009648858 0.9999503 0.002495046
vn 0 0 0
vn -0.008928064 0.9999566 0.002625064
vn 0 0 0
vn -0.008222471 0.9999631 0.00249577
vn 0 0 0
vn -0.006969775 0.9999728 0.002437651
vn 0 0 0
vn -0.005636706 0.9999819 0.002095479
vn 0 0 0
vn -0.004644758 0.9999874 0.001933089
vn 0 0 0
vn -0.003431022 0.999993 0.001502298
vn 0 0 0
vn -0.002650554 0.9999956 0.00127911
vn 0 0 0
vn -0.001571868 0.9999985 0.0007906802
vn 0 0 0
vn -0.0009719934 0.9999994 0.0005313454
vn 0 0 0
vn -5.99403E-06 1 -8.397731E-06
vn 0 0 0
vn 0.0004284917 0.9999999 -0.0002865548
vn 0 0 0
vn 0.001274159 0.9999989 -0.0008633787
vn 0 0 0
vn 0.00154507 0.9999981 -0.001144641
vn 0 0 0
vn 0.002284302 0.9999958 -0.001766112
vn 0 0 0
vn 0.002373998 0.9999952 -0.002032133
vn 0 0 0
vn 0.002981438 0.9999919 -0.002688438
vn 0 0 0
vn 0.002842203 0.9999918 -0.002903892
vn 0 0 0
vn 0.003285991 0.9999881 -0.003590486
vn 0 0 0
vn 0.002815363 0.9999894 -0.003658527
vn 0 0 0
vn 0.002994923 0.9999863 -0.004296468
vn 0 0 0
vn 0.002026106 0.9999902 -0.003932382
vn 0 0 0
vn 0.001881476 0.9999899 -0.004094186
vn 0 0 0
vn 0.001087546 0.9999934 -0.003463676
vn 0 0 0

vt 0 0
vt 0 0
vt -0.5006714 1.9362
vt -0.5006714 1.9362
vt -0.8977783 -0.2657196
vt -0.8977783 -0.2657196
vt -1.52478 1.633392
vt -1.52478 1.633392
vt -1.789514 -0.5901581
vt -1.789514 -0.5901581
vt -2.52832 1.268347
vt -2.52832 1.268347
vt -2.658283 -0.9645203
vt -2.658283 -0.9645203
vt -3.50119 0.8491638
vt -3.50119 0.8491638
vt -3.510736 -1.390254
vt -3.510736 -1.390254
vt -4.454328 0.3731613
vt -4.454328 0.3731613
vt -4.334815 -1.861836
vt -4.334815 -1.861836
vt -5.377808 -0.1553299
vt -5.377808 -0.1553299
vt -5.131036 -2.382076
vt -5.131036 -2.382076
vt -6.276447 -0.7425553
vt -6.276447 -0.7425553
vt -5.880628 -2.943509
vt -5.880628 -2.943509
vt -7.134424 -1.385315
vt -7.134424 -1.385315
vt -6.582861 -3.55524
vt -6.582861 -3.55524
vt -7.958923 -2.103897
vt -7.958923 -2.103897
vt -7.208234 -4.209752
vt -7.208234 -4.209752
vt -8.728461 -2.910213
vt -8.728461 -2.910213
vt -7.714636 -4.891823
vt -7.714636 -4.891823
vt -9.412 -3.83405
vt -9.412 -3.83405
vt -8.037689 -5.564536
vt -8.037689 -5.564536
vt -9.945831 -4.965405
vt -9.945831 -4.965405

usemtl GSDRoad1
usemap GSDRoad1
f 5/5/5 1/1/1 3/3/3
f 7/7/7 5/5/5 3/3/3
f 9/9/9 5/5/5 7/7/7
f 11/11/11 9/9/9 7/7/7
f 13/13/13 9/9/9 11/11/11
f 15/15/15 13/13/13 11/11/11
f 17/17/17 13/13/13 15/15/15
f 19/19/19 17/17/17 15/15/15
f 21/21/21 17/17/17 19/19/19
f 23/23/23 21/21/21 19/19/19
f 25/25/25 21/21/21 23/23/23
f 27/27/27 25/25/25 23/23/23
f 29/29/29 25/25/25 27/27/27
f 31/31/31 29/29/29 27/27/27
f 33/33/33 29/29/29 31/31/31
f 35/35/35 33/33/33 31/31/31
f 37/37/37 33/33/33 35/35/35
f 39/39/39 37/37/37 35/35/35
f 41/41/41 37/37/37 39/39/39
f 43/43/43 41/41/41 39/39/39
f 45/45/45 41/41/41 43/43/43
f 47/47/47 45/45/45 43/43/43
