mtllib ./Road1_0_234.mtl
g SCutL25
v -209.0421 0.1540974 81.18301
v -209.0421 0.1540974 81.18301
v -210.953 0.1540974 83.69831
v -210.953 0.1540974 83.69831
v -207.8086 -0.3407326 79.55932
v -207.8086 -0.3407326 79.55932
v -209.0421 0.1540974 81.18301
v -209.0421 0.1540974 81.18301
v -204.8358 0.01469876 84.55901
v -204.8358 0.01469876 84.55901
v -206.8292 0.01469876 86.96889
v -206.8292 0.01469876 86.96889
v -203.541 -0.3407326 82.99364
v -203.541 -0.3407326 82.99364
v -204.8358 0.01469876 84.55901
v -204.8358 0.01469876 84.55901
v -200.8173 0 88.0188
v -200.8173 0 88.0188
v -202.8666 0 90.35073
v -202.8666 0 90.35073
v -199.4799 -0.3407326 86.49703
v -199.4799 -0.3407326 86.49703
v -200.8173 0 88.0188
v -200.8173 0 88.0188
v -196.898 0 91.57825
v -196.898 0 91.57825
v -198.9893 0 93.84469
v -198.9893 0 93.84469
v -195.5276 -0.3407326 90.09308
v -195.5276 -0.3407326 90.09308
v -196.898 0 91.57825
v -196.898 0 91.57825
v -193.0937 0 95.18654
v -193.0937 0 95.18654
v -195.2173 0 97.39752
v -195.2173 0 97.39752
v -191.697 -0.3407326 93.73232
v -191.697 -0.3407326 93.73232
v -193.0937 0 95.18654
v -193.0937 0 95.18654
v -189.4192 0 98.79919
v -189.4192 0 98.79919
v -191.5681 0 100.9629
v -191.5681 0 100.9629
v -188.0012 -0.3407326 97.37137
v -188.0012 -0.3407326 97.37137
v -189.4192 0 98.79919
v -189.4192 0 98.79919
v -185.7978 0 102.4699
v -185.7978 0 102.4699
v -187.9673 0 104.5921
v -187.9673 0 104.5921
v -184.3618 -0.3407326 101.0653
v -184.3618 -0.3407326 101.0653
v -185.7978 0 102.4699
v -185.7978 0 102.4699
v -182.2552 0 106.1889
v -182.2552 0 106.1889
v -184.4261 0 108.2593
v -184.4261 0 108.2593
v -180.8079 -0.3407326 104.8085
v -180.8079 -0.3407326 104.8085
v -182.2552 0 106.1889
v -182.2552 0 106.1889
v -178.7604 0 109.895
v -178.7604 0 109.895
v -180.9542 0 111.9413
v -180.9542 0 111.9413
v -177.2978 -0.3407326 108.5309
v -177.2978 -0.3407326 108.5309
v -178.7604 0 109.895
v -178.7604 0 109.895
v -175.254 0 113.6935
v -175.254 0 113.6935
v -177.4684 0 115.7174
v -177.4684 0 115.7174
v -173.7777 -0.3407326 112.3442
v -173.7777 -0.3407326 112.3442
v -175.254 0 113.6935
v -175.254 0 113.6935
v -171.8368 0 117.4669
v -171.8368 0 117.4669
v -174.0694 0 119.4708
v -174.0694 0 119.4708
v -170.3484 -0.3407326 116.131
v -170.3484 -0.3407326 116.131
v -171.8368 0 117.4669
v -171.8368 0 117.4669
v -168.4226 0 121.3031
v -168.4226 0 121.3031
v -170.6717 0 123.2884
v -170.6717 0 123.2884
v -166.9232 -0.3407326 119.9796
v -166.9232 -0.3407326 119.9796
v -168.4226 0 121.3031
v -168.4226 0 121.3031
v -165.0191 0 125.1893
v -165.0191 0 125.1893
v -167.2833 0 127.1573
v -167.2833 0 127.1573
v -163.5096 -0.3407326 123.8772
v -163.5096 -0.3407326 123.8772
v -165.0191 0 125.1893
v -165.0191 0 125.1893
v -161.6103 0 129.0936
v -161.6103 0 129.0936
v -163.9112 0 131.0651
v -163.9112 0 131.0651
v -160.0858 -0.3407326 127.7874
v -160.0858 -0.3407326 127.7874
v -161.6103 0 129.0936
v -161.6103 0 129.0936
v -158.2454 0 133.0398
v -158.2454 0 133.0398
v -160.563 0 134.9992
v -160.563 0 134.9992
v -156.7115 -0.3407326 131.7429
v -156.7115 -0.3407326 131.7429
v -158.2454 0 133.0398
v -158.2454 0 133.0398
v -154.914 0 136.999
v -154.914 0 136.999
v -157.2465 0 138.9467
v -157.2465 0 138.9467
v -153.3714 -0.3407326 135.711
v -153.3714 -0.3407326 135.711
v -154.914 0 136.999
v -154.914 0 136.999
v -151.6227 0 140.9597
v -151.6227 0 140.9597
v -153.9685 0 142.8956
v -153.9685 0 142.8956
v -150.0722 -0.3407326 139.6801
v -150.0722 -0.3407326 139.6801
v -151.6227 0 140.9597
v -151.6227 0 140.9597
v -148.3792 0 144.909
v -148.3792 0 144.909
v -150.7366 0 146.8334
v -150.7366 0 146.8334
v -146.8215 -0.3407326 143.6375
v -146.8215 -0.3407326 143.6375
v -148.3792 0 144.909
v -148.3792 0 144.909
v -145.1909 0 148.8344
v -145.1909 0 148.8344
v -147.5586 0 150.7471
v -147.5586 0 150.7471
v -143.6267 -0.3407326 147.5707
v -143.6267 -0.3407326 147.5707
v -145.1909 0 148.8344
v -145.1909 0 148.8344
v -141.982 0 152.8274
v -141.982 0 152.8274
v -144.3587 0 154.7282
v -144.3587 0 154.7282
v -140.4117 -0.3407326 151.5715
v -140.4117 -0.3407326 151.5715
v -141.982 0 152.8274
v -141.982 0 152.8274
v -138.7658 0 156.8715
v -138.7658 0 156.8715
v -141.1503 0 158.7599
v -141.1503 0 158.7599
v -137.1897 -0.3407326 155.6234
v -137.1897 -0.3407326 155.6234
v -138.7658 0 156.8715
v -138.7658 0 156.8715
v -135.6369 0 160.8456
v -135.6369 0 160.8456
v -138.0278 0 162.7213
v -138.0278 0 162.7213
v -134.0557 -0.3407326 159.605
v -134.0557 -0.3407326 159.605
v -135.6369 0 160.8456
v -135.6369 0 160.8456
v -132.5273 0 164.8339
v -132.5273 0 164.8339
v -134.9232 0 166.6966
v -134.9232 0 166.6966
v -130.9414 -0.3407326 163.6011
v -130.9414 -0.3407326 163.6011
v -132.5273 0 164.8339
v -132.5273 0 164.8339
v -129.381 0 168.9089
v -129.381 0 168.9089
v -131.7808 0 170.7574
v -131.7808 0 170.7574
v -127.7908 -0.3407326 167.6839
v -127.7908 -0.3407326 167.6839
v -129.381 0 168.9089
v -129.381 0 168.9089
v -126.3149 0.007125512 172.9553
v -126.3149 0.007125512 172.9553
v -128.6996 0.007125512 174.7756
v -128.6996 0.007125512 174.7756
v -124.7252 -0.3407326 171.7418
v -124.7252 -0.3407326 171.7418
v -126.3149 0.007125512 172.9553
v -126.3149 0.007125512 172.9553
v -123.2425 0.02283348 176.9988
v -123.2425 0.02283348 176.9988
v -125.6353 0.02283348 178.8085
v -125.6353 0.02283348 178.8085
v -121.6474 -0.3407326 175.7924
v -121.6474 -0.3407326 175.7924
v -123.2425 0.02283348 176.9988
v -123.2425 0.02283348 176.9988
v -120.1612 0.02990139 181.0925
v -120.1612 0.02990139 181.0925
v -122.5623 0.02990139 182.891
v -122.5623 0.02990139 182.891
v -118.5605 -0.3407326 179.8934
v -118.5605 -0.3407326 179.8934
v -120.1612 0.02990139 181.0925
v -120.1612 0.02990139 181.0925

vn 0.02058047 0.9996659 0.01563513
vn 0 0 0
vn 0.0204943 0.9996579 0.01624628
vn 0 0 0
vn 0.1479036 0.9717743 -0.1837913
vn 0 0 0
vn 0.1379369 0.9787704 -0.151598
vn 0 0 0
vn 0.01441718 0.9998305 0.01145319
vn 0 0 0
vn 0.008242534 0.9999425 0.006854033
vn 0 0 0
vn 0.1296283 0.9809491 -0.1446911
vn 0 0 0
vn 0.1168409 0.9853558 -0.1241863
vn 0 0 0
vn 0.001417044 0.9999983 0.001208137
vn 0 0 0
vn 0.0007038336 0.9999996 0.0006185426
vn 0 0 0
vn 0.1115098 0.9857787 -0.1257215
vn 0 0 0
vn 0.1112316 0.9861255 -0.1232237
vn 0 0 0
vn 0 1 0
vn 0 0 0
vn 0 1 0
vn 0 0 0
vn 0.1126439 0.9861032 -0.1221135
vn 0 0 0
vn 0.1136552 0.9860614 -0.1215129
vn 0 0 0
vn 0 1 0
vn 0 0 0
vn 0 1 0
vn 0 0 0
vn 0.115362 0.9860402 -0.1200677
vn 0 0 0
vn 0.1162012 0.9860025 -0.1195671
vn 0 0 0
vn 0 0.9999999 0
vn 0 0 0
vn 0 1 0
vn 0 0 0
vn 0.1176308 0.9859836 -0.1183189
vn 0 0 0
vn 0.1183439 0.9859495 -0.117891
vn 0 0 0
vn 0 1 0
vn 0 0 0
vn 0 0.9999999 0
vn 0 0 0
vn 0.1197582 0.9859325 -0.1165979
vn 0 0 0
vn 0.1206487 0.9858765 -0.1161525
vn 0 0 0
vn 0 1 0
vn 0 0 0
vn 0 0.9999999 0
vn 0 0 0
vn 0.1216953 0.9858353 -0.1154078
vn 0 0 0
vn 0.121995 0.9857958 -0.1154293
vn 0 0 0
vn 0 1 0
vn 0 0 0
vn 0 1 0
vn 0 0 0
vn 0.1226009 0.985796 -0.1147836
vn 0 0 0
vn 0.123006 0.985796 -0.1143487
vn 0 0 0
vn 0 0.9999999 0
vn 0 0 0
vn 0 0.9999999 0
vn 0 0 0
vn 0.1237642 0.985796 -0.113528
vn 0 0 0
vn 0.1241248 0.9857961 -0.1131331
vn 0 0 0
vn 0 1 0
vn 0 0 0
vn 0 1 0
vn 0 0 0
vn 0.1248138 0.9857961 -0.1123725
vn 0 0 0
vn 0.1251367 0.9857962 -0.1120125
vn 0 0 0
vn 0 1 0
vn 0 0 0
vn 0 1 0
vn 0 0 0
vn 0.1257538 0.9857961 -0.1113195
vn 0 0 0
vn 0.1260488 0.9857961 -0.1109856
vn 0 0 0
vn 0 1 0
vn 0 0 0
vn 0 0.9999999 0
vn 0 0 0
vn 0.1263467 0.9857959 -0.1106482
vn 0 0 0
vn 0.1262515 0.9858304 -0.1104498
vn 0 0 0
vn 0 1 0
vn 0 0 0
vn 0 1 0
vn 0 0 0
vn 0.1265739 0.9858654 -0.1097652
vn 0 0 0
vn 0.1268745 0.9859055 -0.1090568
vn 0 0 0
vn 0 1 0
vn 0 0 0
vn 0 1 0
vn 0 0 0
vn 0.1275035 0.985911 -0.10827
vn 0 0 0
vn 0.1277042 0.9859209 -0.1079438
vn 0 0 0
vn 0 0.9999999 0
vn 0 0 0
vn 0 1 0
vn 0 0 0
vn 0.1281348 0.9859251 -0.1073919
vn 0 0 0
vn 0.1283268 0.9859326 -0.107094
vn 0 0 0
vn 0 1 0
vn 0 0 0
vn 0 1 0
vn 0 0 0
vn 0.1287332 0.9859357 -0.1065762
vn 0 0 0
vn 0.1289199 0.9859408 -0.106304
vn 0 0 0
vn 0 0.9999999 0
vn 0 0 0
vn 0 1 0
vn 0 0 0
vn 0.129306 0.9859427 -0.1058162
vn 0 0 0
vn 0.1294883 0.9859453 -0.1055684
vn 0 0 0
vn 0 1 0
vn 0 0 0
vn 0 1 0
vn 0 0 0
vn 0.1298625 0.9859459 -0.105101
vn 0 0 0
vn 0.130045 0.9859461 -0.1048733
vn 0 0 0
vn 0 1 0
vn 0 0 0
vn 0 1 0
vn 0 0 0
vn 0.1304085 0.9859457 -0.1044261
vn 0 0 0
vn 0.1305953 0.9859432 -0.1042153
vn 0 0 0
vn 0 1 0
vn 0 0 0
vn 0 1 0
vn 0 0 0
vn 0.1309509 0.9859413 -0.1037861
vn 0 0 0
vn 0.1311406 0.9859364 -0.1035939
vn 0 0 0
vn 0 1 0
vn 0 0 0
vn 0 1 0
vn 0 0 0
vn 0.1314972 0.9859331 -0.1031714
vn 0 0 0
vn 0.131692 0.9859253 -0.1029974
vn 0 0 0
vn 0 1 0
vn 0 0 0
vn 0 1 0
vn 0 0 0
vn 0.1320498 0.9859206 -0.102584
vn 0 0 0
vn 0.1322555 0.9859095 -0.1024249
vn 0 0 0
vn -0.0002829199 0.9999999 -0.0003672933
vn 0 0 0
vn -0.0005667873 0.9999996 -0.0007391483
vn 0 0 0
vn 0.1327989 0.9859031 -0.1017822
vn 0 0 0
vn 0.1339061 0.9856707 -0.1025787
vn 0 0 0
vn -0.001194971 0.9999982 -0.00156209
vn 0 0 0
vn -0.001534144 0.9999967 -0.002017401
vn 0 0 0
vn 0.135238 0.9854402 -0.1030448
vn 0 0 0
vn 0.1375857 0.9847694 -0.1062983
vn 0 0 0
vn -0.001524176 0.9999968 -0.002007701
vn 0 0 0
vn -0.001175026 0.9999981 -0.001557175
vn 0 0 0
vn 0.1399799 0.9843245 -0.1072892
vn 0 0 0
vn 0.1427526 0.9836696 -0.109616
vn 0 0 0
vn -0.0008306868 0.999999 -0.001103642
vn 0 0 0
vn -0.0008292578 0.999999 -0.001107067
vn 0 0 0
vn 0.1438322 0.9835684 -0.1091127
vn 0 0 0
vn 0.1447691 0.9832572 -0.1106672
vn 0 0 0

vt 0 0
vt 0 0
vt 0.3821777 0.5030594
vt 0.3821777 0.5030594
vt -0.2467041 -0.3247391
vt -0.2467041 -0.3247391
vt 0 0
vt 0 0
vt -0.8412628 0.6751999
vt -0.8412628 0.6751999
vt -0.4425812 1.157176
vt -0.4425812 1.157176
vt -1.100232 0.3621262
vt -1.100232 0.3621262
vt -0.8412628 0.6751999
vt -0.8412628 0.6751999
vt -1.644965 1.367157
vt -1.644965 1.367157
vt -1.235095 1.833543
vt -1.235095 1.833543
vt -1.912433 1.062804
vt -1.912433 1.062804
vt -1.644965 1.367157
vt -1.644965 1.367157
vt -2.428821 2.079048
vt -2.428821 2.079048
vt -2.010556 2.532335
vt -2.010556 2.532335
vt -2.702905 1.782013
vt -2.702905 1.782013
vt -2.428821 2.079048
vt -2.428821 2.079048
vt -3.189676 2.800705
vt -3.189676 2.800705
vt -2.764966 3.242902
vt -2.764966 3.242902
vt -3.469022 2.509862
vt -3.469022 2.509862
vt -3.189676 2.800705
vt -3.189676 2.800705
vt -3.924576 3.523236
vt -3.924576 3.523236
vt -3.494806 3.955977
vt -3.494806 3.955977
vt -4.208179 3.237671
vt -4.208179 3.237671
vt -3.924576 3.523236
vt -3.924576 3.523236
vt -4.648865 4.257384
vt -4.648865 4.257384
vt -4.214954 4.681827
vt -4.214954 4.681827
vt -4.936057 3.97646
vt -4.936057 3.97646
vt -4.648865 4.257384
vt -4.648865 4.257384
vt -5.357385 5.001167
vt -5.357385 5.001167
vt -4.9232 5.415267
vt -4.9232 5.415267
vt -5.646842 4.725101
vt -5.646842 4.725101
vt -5.357385 5.001167
vt -5.357385 5.001167
vt -6.056351 5.742406
vt -6.056351 5.742406
vt -5.617578 6.151648
vt -5.617578 6.151648
vt -6.348865 5.469577
vt -6.348865 5.469577
vt -6.056351 5.742406
vt -6.056351 5.742406
vt -6.757627 6.502088
vt -6.757627 6.502088
vt -6.314737 6.906868
vt -6.314737 6.906868
vt -7.052887 6.232234
vt -7.052887 6.232234
vt -6.757627 6.502088
vt -6.757627 6.502088
vt -7.441064 7.256783
vt -7.441064 7.256783
vt -6.994544 7.657556
vt -6.994544 7.657556
vt -7.738745 6.9896
vt -7.738745 6.9896
vt -7.441064 7.256783
vt -7.441064 7.256783
vt -8.123899 8.024025
vt -8.123899 8.024025
vt -7.674076 8.421084
vt -7.674076 8.421084
vt -8.423782 7.759319
vt -8.423782 7.759319
vt -8.123899 8.024025
vt -8.123899 8.024025
vt -8.804608 8.80125
vt -8.804608 8.80125
vt -8.351764 9.194857
vt -8.351764 9.194857
vt -9.106506 8.538844
vt -9.106506 8.538844
vt -8.804608 8.80125
vt -8.804608 8.80125
vt -9.486371 9.582114
vt -9.486371 9.582114
vt -9.026181 9.976419
vt -9.026181 9.976419
vt -9.791263 9.320876
vt -9.791263 9.320876
vt -9.486371 9.582114
vt -9.486371 9.582114
vt -10.15934 10.37135
vt -10.15934 10.37135
vt -9.695823 10.76324
vt -9.695823 10.76324
vt -10.46613 10.11197
vt -10.46613 10.11197
vt -10.15934 10.37135
vt -10.15934 10.37135
vt -10.82562 11.1632
vt -10.82562 11.1632
vt -10.35912 11.55273
vt -10.35912 11.55273
vt -11.13414 10.90559
vt -11.13414 10.90559
vt -10.82562 11.1632
vt -10.82562 11.1632
vt -11.48388 11.95533
vt -11.48388 11.95533
vt -11.01473 12.34253
vt -11.01473 12.34253
vt -11.79398 11.69941
vt -11.79398 11.69941
vt -11.48388 11.95533
vt -11.48388 11.95533
vt -12.13259 12.7452
vt -12.13259 12.7452
vt -11.6611 13.13007
vt -11.6611 13.13007
vt -12.44413 12.4909
vt -12.44413 12.4909
vt -12.13259 12.7452
vt -12.13259 12.7452
vt -12.77024 13.53027
vt -12.77024 13.53027
vt -12.2967 13.91281
vt -12.2967 13.91281
vt -13.08309 13.27753
vt -13.08309 13.27753
vt -12.77024 13.53027
vt -12.77024 13.53027
vt -13.41202 14.32889
vt -13.41202 14.32889
vt -12.93667 14.70904
vt -12.93667 14.70904
vt -13.72609 14.0777
vt -13.72609 14.0777
vt -13.41202 14.32889
vt -13.41202 14.32889
vt -14.05527 15.1377
vt -14.05527 15.1377
vt -13.57837 15.51538
vt -13.57837 15.51538
vt -14.37048 14.88808
vt -14.37048 14.88808
vt -14.05527 15.1377
vt -14.05527 15.1377
vt -14.68105 15.93251
vt -14.68105 15.93251
vt -14.20287 16.30766
vt -14.20287 16.30766
vt -14.99728 15.68441
vt -14.99728 15.68441
vt -14.68105 15.93251
vt -14.68105 15.93251
vt -15.30297 16.73018
vt -15.30297 16.73018
vt -14.82378 17.10271
vt -14.82378 17.10271
vt -15.62014 16.48362
vt -15.62014 16.48362
vt -15.30297 16.73018
vt -15.30297 16.73018
vt -15.93223 17.54517
vt -15.93223 17.54517
vt -15.45227 17.91487
vt -15.45227 17.91487
vt -16.25027 17.30019
vt -16.25027 17.30019
vt -15.93223 17.54517
vt -15.93223 17.54517
vt -16.54544 18.35447
vt -16.54544 18.35447
vt -16.06851 18.71852
vt -16.06851 18.71852
vt -16.86339 18.11176
vt -16.86339 18.11176
vt -16.54544 18.35447
vt -16.54544 18.35447
vt -17.15991 19.16317
vt -17.15991 19.16317
vt -16.68137 19.52509
vt -16.68137 19.52509
vt -17.47894 18.92188
vt -17.47894 18.92188
vt -17.15991 19.16317
vt -17.15991 19.16317
vt -17.77618 19.98189
vt -17.77618 19.98189
vt -17.29596 20.3416
vt -17.29596 20.3416
vt -18.09632 19.74208
vt -18.09632 19.74208
vt -17.77618 19.98189
vt -17.77618 19.98189

usemtl GSDShoulder1
usemap GSDShoulder1
f 9/9/9 1/1/1 3/3/3
f 11/11/11 9/9/9 3/3/3
f 13/13/13 5/5/5 7/7/7
f 15/15/15 13/13/13 7/7/7
f 17/17/17 9/9/9 11/11/11
f 19/19/19 17/17/17 11/11/11
f 21/21/21 13/13/13 15/15/15
f 23/23/23 21/21/21 15/15/15
f 25/25/25 17/17/17 19/19/19
f 27/27/27 25/25/25 19/19/19
f 29/29/29 21/21/21 23/23/23
f 31/31/31 29/29/29 23/23/23
f 33/33/33 25/25/25 27/27/27
f 35/35/35 33/33/33 27/27/27
f 37/37/37 29/29/29 31/31/31
f 39/39/39 37/37/37 31/31/31
f 41/41/41 33/33/33 35/35/35
f 43/43/43 41/41/41 35/35/35
f 45/45/45 37/37/37 39/39/39
f 47/47/47 45/45/45 39/39/39
f 49/49/49 41/41/41 43/43/43
f 51/51/51 49/49/49 43/43/43
f 53/53/53 45/45/45 47/47/47
f 55/55/55 53/53/53 47/47/47
f 57/57/57 49/49/49 51/51/51
f 59/59/59 57/57/57 51/51/51
f 61/61/61 53/53/53 55/55/55
f 63/63/63 61/61/61 55/55/55
f 65/65/65 57/57/57 59/59/59
f 67/67/67 65/65/65 59/59/59
f 69/69/69 61/61/61 63/63/63
f 71/71/71 69/69/69 63/63/63
f 73/73/73 65/65/65 67/67/67
f 75/75/75 73/73/73 67/67/67
f 77/77/77 69/69/69 71/71/71
f 79/79/79 77/77/77 71/71/71
f 81/81/81 73/73/73 75/75/75
f 83/83/83 81/81/81 75/75/75
f 85/85/85 77/77/77 79/79/79
f 87/87/87 85/85/85 79/79/79
f 89/89/89 81/81/81 83/83/83
f 91/91/91 89/89/89 83/83/83
f 93/93/93 85/85/85 87/87/87
f 95/95/95 93/93/93 87/87/87
f 97/97/97 89/89/89 91/91/91
f 99/99/99 97/97/97 91/91/91
f 101/101/101 93/93/93 95/95/95
f 103/103/103 101/101/101 95/95/95
f 105/105/105 97/97/97 99/99/99
f 107/107/107 105/105/105 99/99/99
f 109/109/109 101/101/101 103/103/103
f 111/111/111 109/109/109 103/103/103
f 113/113/113 105/105/105 107/107/107
f 115/115/115 113/113/113 107/107/107
f 117/117/117 109/109/109 111/111/111
f 119/119/119 117/117/117 111/111/111
f 121/121/121 113/113/113 115/115/115
f 123/123/123 121/121/121 115/115/115
f 125/125/125 117/117/117 119/119/119
f 127/127/127 125/125/125 119/119/119
f 129/129/129 121/121/121 123/123/123
f 131/131/131 129/129/129 123/123/123
f 133/133/133 125/125/125 127/127/127
f 135/135/135 133/133/133 127/127/127
f 137/137/137 129/129/129 131/131/131
f 139/139/139 137/137/137 131/131/131
f 141/141/141 133/133/133 135/135/135
f 143/143/143 141/141/141 135/135/135
f 145/145/145 137/137/137 139/139/139
f 147/147/147 145/145/145 139/139/139
f 149/149/149 141/141/141 143/143/143
f 151/151/151 149/149/149 143/143/143
f 153/153/153 145/145/145 147/147/147
f 155/155/155 153/153/153 147/147/147
f 157/157/157 149/149/149 151/151/151
f 159/159/159 157/157/157 151/151/151
f 161/161/161 153/153/153 155/155/155
f 163/163/163 161/161/161 155/155/155
f 165/165/165 157/157/157 159/159/159
f 167/167/167 165/165/165 159/159/159
f 169/169/169 161/161/161 163/163/163
f 171/171/171 169/169/169 163/163/163
f 173/173/173 165/165/165 167/167/167
f 175/175/175 173/173/173 167/167/167
f 177/177/177 169/169/169 171/171/171
f 179/179/179 177/177/177 171/171/171
f 181/181/181 173/173/173 175/175/175
f 183/183/183 181/181/181 175/175/175
f 185/185/185 177/177/177 179/179/179
f 187/187/187 185/185/185 179/179/179
f 189/189/189 181/181/181 183/183/183
f 191/191/191 189/189/189 183/183/183
f 193/193/193 185/185/185 187/187/187
f 195/195/195 193/193/193 187/187/187
f 197/197/197 189/189/189 191/191/191
f 199/199/199 197/197/197 191/191/191
f 201/201/201 193/193/193 195/195/195
f 203/203/203 201/201/201 195/195/195
f 205/205/205 197/197/197 199/199/199
f 207/207/207 205/205/205 199/199/199
f 209/209/209 201/201/201 203/203/203
f 211/211/211 209/209/209 203/203/203
f 213/213/213 205/205/205 207/207/207
f 215/215/215 213/213/213 207/207/207
