mtllib ./Road1_0_178.mtl
g SCutR39
v -805.166 1.269826 866.933
v -805.166 1.269826 866.933
v -804.8489 1.269826 863.7692
v -804.8489 1.269826 863.7692
v -804.8489 1.269826 863.7692
v -804.8489 1.269826 863.7692
v -804.6453 0.4420866 861.7379
v -804.6453 0.4420866 861.7379
v -809.5571 0.9770941 866.2248
v -809.5571 0.9770941 866.2248
v -808.8892 0.9770941 863.1593
v -808.8892 0.9770941 863.1593
v -808.8892 0.9770941 863.1593
v -808.8892 0.9770941 863.1593
v -808.4564 0.2828485 861.173
v -808.4564 0.2828485 861.173
v -813.9054 0.7545598 865.0359
v -813.9054 0.7545598 865.0359
v -812.9406 0.7545598 862.0724
v -812.9406 0.7545598 862.0724
v -812.9406 0.7545598 862.0724
v -812.9406 0.7545598 862.0724
v -812.3127 0.05181038 860.1439
v -812.3127 0.05181038 860.1439
v -818.2467 0.572484 863.4114
v -818.2467 0.572484 863.4114
v -817.0465 0.572484 860.5558
v -817.0465 0.572484 860.5558
v -817.0465 0.572484 860.5558
v -817.0465 0.572484 860.5558
v -816.2624 -0.06923342 858.6901
v -816.2624 -0.06923342 858.6901
v -822.5327 0.42558 861.4255
v -822.5327 0.42558 861.4255
v -821.1451 0.42558 858.6754
v -821.1451 0.42558 858.6754
v -821.1451 0.42558 858.6754
v -821.1451 0.42558 858.6754
v -820.2354 -0.184908 856.8723
v -820.2354 -0.184908 856.8723
v -826.7219 0.3090247 859.151
v -826.7219 0.3090247 859.151
v -825.1838 0.3090247 856.4999
v -825.1838 0.3090247 856.4999
v -825.1838 0.3090247 856.4999
v -825.1838 0.3090247 856.4999
v -824.1722 -0.2418665 854.7562
v -824.1722 -0.2418665 854.7562
v -830.7797 0.2184342 856.6559
v -830.7797 0.2184342 856.6559
v -829.1191 0.2184342 854.0961
v -829.1191 0.2184342 854.0961
v -829.1191 0.2184342 854.0961
v -829.1191 0.2184342 854.0961
v -828.0237 -0.2958363 852.4077
v -828.0237 -0.2958363 852.4077
v -834.7832 0.1482338 853.9285
v -834.7832 0.1482338 853.9285
v -833.0186 0.1482338 851.4542
v -833.0186 0.1482338 851.4542
v -833.0186 0.1482338 851.4542
v -833.0186 0.1482338 851.4542
v -831.8517 -0.2958363 849.818
v -831.8517 -0.2958363 849.818
v -838.7028 0.09615815 851.0127
v -838.7028 0.09615815 851.0127
v -836.8489 0.09615815 848.6183
v -836.8489 0.09615815 848.6183
v -836.8489 0.09615815 848.6183
v -836.8489 0.09615815 848.6183
v -835.6202 -0.32574 847.0314
v -835.6202 -0.32574 847.0314
v -842.511 0.05993032 847.9523
v -842.511 0.05993032 847.9523
v -840.5911 0.05993032 845.6472
v -840.5911 0.05993032 845.6472
v -840.5911 0.05993032 845.6472
v -840.5911 0.05993032 845.6472
v -839.3112 -0.3476102 844.1104
v -839.3112 -0.3476102 844.1104
v -846.1794 0.0372951 844.7929
v -846.1794 0.0372951 844.7929
v -844.1854 0.0372951 842.5516
v -844.1854 0.0372951 842.5516
v -844.1854 0.0372951 842.5516
v -844.1854 0.0372951 842.5516
v -842.856 -0.3476102 841.0574
v -842.856 -0.3476102 841.0574
v -849.7722 0.02581167 841.4941
v -849.7722 0.02581167 841.4941
v -847.7091 0.02581167 839.316
v -847.7091 0.02581167 839.316
v -847.7091 0.02581167 839.316
v -847.7091 0.02581167 839.316
v -846.3337 -0.3476102 837.864
v -846.3337 -0.3476102 837.864
v -853.2455 0.02385044 838.1026
v -853.2455 0.02385044 838.1026
v -851.1174 0.02385044 835.988
v -851.1174 0.02385044 835.988
v -851.1174 0.02385044 835.988
v -851.1174 0.02385044 835.988
v -849.6987 -0.3476102 834.5784
v -849.6987 -0.3476102 834.5784
v -856.6298 0.02961981 834.5907
v -856.6298 0.02961981 834.5907
v -854.4374 0.02961981 832.5428
v -854.4374 0.02961981 832.5428
v -854.4374 0.02961981 832.5428
v -854.4374 0.02961981 832.5428
v -852.9759 -0.3476102 831.1776
v -852.9759 -0.3476102 831.1776

vn -0.06546285 0.9978334 -0.006562072
vn 0 0 0
vn -0.06760497 0.997655 -0.01069054
vn 0 0 0
vn -0.009976085 0.9256735 -0.3781917
vn 0 0 0
vn -0.0008082589 0.935105 -0.3543699
vn 0 0 0
vn -0.06094727 0.9980844 -0.01062913
vn 0 0 0
vn -0.05592218 0.9983375 -0.01395819
vn 0 0 0
vn 0.01136923 0.9390075 -0.3437087
vn 0 0 0
vn 0.02576285 0.9443426 -0.327953
vn 0 0 0
vn -0.04515945 0.998896 -0.01293921
vn 0 0 0
vn -0.04185168 0.9990138 -0.01482492
vn 0 0 0
vn 0.04838675 0.9444852 -0.3249713
vn 0 0 0
vn 0.0631938 0.9468207 -0.3154953
vn 0 0 0
vn -0.03469434 0.9993083 -0.01338299
vn 0 0 0
vn -0.03193033 0.9993888 -0.01422902
vn 0 0 0
vn 0.0844109 0.9501163 -0.3002565
vn 0 0 0
vn 0.09166116 0.9540787 -0.2851878
vn 0 0 0
vn -0.02648344 0.9995705 -0.01254366
vn 0 0 0
vn -0.02424653 0.9996243 -0.01278125
vn 0 0 0
vn 0.1037032 0.9556298 -0.2757122
vn 0 0 0
vn 0.1093082 0.9595035 -0.2596243
vn 0 0 0
vn -0.02006869 0.9997372 -0.01108355
vn 0 0 0
vn -0.01828177 0.9997726 -0.01097837
vn 0 0 0
vn 0.1169617 0.9620946 -0.2463612
vn 0 0 0
vn 0.1181786 0.9659271 -0.2302579
vn 0 0 0
vn -0.01500199 0.9998437 -0.009352989
vn 0 0 0
vn -0.01356132 0.9998671 -0.009056792
vn 0 0 0
vn 0.1223865 0.9674059 -0.2216922
vn 0 0 0
vn 0.1223723 0.9714674 -0.2031652
vn 0 0 0
vn -0.01097639 0.9999111 -0.00756436
vn 0 0 0
vn -0.009802295 0.9999263 -0.007165474
vn 0 0 0
vn 0.1225014 0.9740062 -0.1905398
vn 0 0 0
vn 0.119348 0.9771459 -0.1759035
vn 0 0 0
vn -0.007722165 0.9999533 -0.005800384
vn 0 0 0
vn -0.006772079 0.9999627 -0.00535576
vn 0 0 0
vn 0.1197413 0.9778733 -0.1715398
vn 0 0 0
vn 0.1199808 0.9789976 -0.164828
vn 0 0 0
vn -0.005096311 0.9999785 -0.004128042
vn 0 0 0
vn -0.004327128 0.9999838 -0.00367077
vn 0 0 0
vn 0.1230815 0.979436 -0.1598617
vn 0 0 0
vn 0.1235191 0.9805722 -0.1523845
vn 0 0 0
vn -0.002965529 0.9999923 -0.002570024
vn 0 0 0
vn -0.002348633 0.9999951 -0.002122823
vn 0 0 0
vn 0.1253978 0.9812885 -0.1461099
vn 0 0 0
vn 0.1245349 0.9823267 -0.1397328
vn 0 0 0
vn -0.00126363 0.9999985 -0.001162898
vn 0 0 0
vn -0.0007738362 0.9999995 -0.0007386439
vn 0 0 0
vn 0.126063 0.9826721 -0.1358815
vn 0 0 0
vn 0.1265648 0.9830696 -0.1324974
vn 0 0 0
vn 8.695236E-05 0.9999999 9.33231E-05
vn 0 0 0
vn 0.0004591391 0.9999997 0.0004795886
vn 0 0 0
vn 0.1293046 0.9831282 -0.1293803
vn 0 0 0
vn 0.1311479 0.983015 -0.1283816
vn 0 0 0
vn 0.0008286113 0.9999992 0.0008600561
vn 0 0 0
vn 0.0008232257 0.9999993 0.0008813019
vn 0 0 0
vn 0.1329069 0.9829261 -0.1272487
vn 0 0 0
vn 0.1334787 0.982669 -0.1286276
vn 0 0 0

vt 0 0
vt 0 0
vt -0.06342774 -0.6327515
vt -0.06342774 -0.6327515
vt -0.06342774 -0.6327515
vt -0.06342774 -0.6327515
vt -0.1041504 -1.039026
vt -0.1041504 -1.039026
vt 0.8782105 -0.1416382
vt 0.8782105 -0.1416382
vt 0.7446289 -0.7547364
vt 0.7446289 -0.7547364
vt 0.7446289 -0.7547364
vt 0.7446289 -0.7547364
vt 0.6580688 -1.15199
vt 0.6580688 -1.15199
vt 1.747876 -0.3794189
vt 1.747876 -0.3794189
vt 1.554907 -0.9721192
vt 1.554907 -0.9721192
vt 1.554907 -0.9721192
vt 1.554907 -0.9721192
vt 1.429334 -1.357813
vt 1.429334 -1.357813
vt 2.616138 -0.7043213
vt 2.616138 -0.7043213
vt 2.376099 -1.27544
vt 2.376099 -1.27544
vt 2.376099 -1.27544
vt 2.376099 -1.27544
vt 2.219275 -1.648572
vt 2.219275 -1.648572
vt 3.473328 -1.101489
vt 3.473328 -1.101489
vt 3.195825 -1.651514
vt 3.195825 -1.651514
vt 3.195825 -1.651514
vt 3.195825 -1.651514
vt 3.01388 -2.012146
vt 3.01388 -2.012146
vt 4.31117 -1.556396
vt 4.31117 -1.556396
vt 4.003564 -2.086609
vt 4.003564 -2.086609
vt 4.003564 -2.086609
vt 4.003564 -2.086609
vt 3.801233 -2.435364
vt 3.801233 -2.435364
vt 5.122742 -2.055408
vt 5.122742 -2.055408
vt 4.790625 -2.567371
vt 4.790625 -2.567371
vt 4.790625 -2.567371
vt 4.790625 -2.567371
vt 4.571546 -2.905066
vt 4.571546 -2.905066
vt 5.923438 -2.600903
vt 5.923438 -2.600903
vt 5.57052 -3.095764
vt 5.57052 -3.095764
vt 5.57052 -3.095764
vt 5.57052 -3.095764
vt 5.337146 -3.422998
vt 5.337146 -3.422998
vt 6.707349 -3.184058
vt 6.707349 -3.184058
vt 6.336572 -3.662927
vt 6.336572 -3.662927
vt 6.336572 -3.662927
vt 6.336572 -3.662927
vt 6.090833 -3.98031
vt 6.090833 -3.98031
vt 7.468994 -3.79613
vt 7.468994 -3.79613
vt 7.085022 -4.257165
vt 7.085022 -4.257165
vt 7.085022 -4.257165
vt 7.085022 -4.257165
vt 6.829041 -4.564514
vt 6.829041 -4.564514
vt 8.202685 -4.428015
vt 8.202685 -4.428015
vt 7.80387 -4.876282
vt 7.80387 -4.876282
vt 7.80387 -4.876282
vt 7.80387 -4.876282
vt 7.537988 -5.175122
vt 7.537988 -5.175122
vt 8.921228 -5.087769
vt 8.921228 -5.087769
vt 8.508618 -5.523389
vt 8.508618 -5.523389
vt 8.508618 -5.523389
vt 8.508618 -5.523389
vt 8.233545 -5.813794
vt 8.233545 -5.813794
vt 9.615893 -5.766077
vt 9.615893 -5.766077
vt 9.190284 -6.188989
vt 9.190284 -6.188989
vt 9.190284 -6.188989
vt 9.190284 -6.188989
vt 8.906543 -6.470923
vt 8.906543 -6.470923
vt 10.29275 -6.468457
vt 10.29275 -6.468457
vt 9.854285 -6.878027
vt 9.854285 -6.878027
vt 9.854285 -6.878027
vt 9.854285 -6.878027
vt 9.561975 -7.151074
vt 9.561975 -7.151074

usemtl GSDShoulder1
usemap GSDShoulder1
f 9/9/9 1/1/1 3/3/3
f 11/11/11 9/9/9 3/3/3
f 13/13/13 5/5/5 7/7/7
f 15/15/15 13/13/13 7/7/7
f 17/17/17 9/9/9 11/11/11
f 19/19/19 17/17/17 11/11/11
f 21/21/21 13/13/13 15/15/15
f 23/23/23 21/21/21 15/15/15
f 25/25/25 17/17/17 19/19/19
f 27/27/27 25/25/25 19/19/19
f 29/29/29 21/21/21 23/23/23
f 31/31/31 29/29/29 23/23/23
f 33/33/33 25/25/25 27/27/27
f 35/35/35 33/33/33 27/27/27
f 37/37/37 29/29/29 31/31/31
f 39/39/39 37/37/37 31/31/31
f 41/41/41 33/33/33 35/35/35
f 43/43/43 41/41/41 35/35/35
f 45/45/45 37/37/37 39/39/39
f 47/47/47 45/45/45 39/39/39
f 49/49/49 41/41/41 43/43/43
f 51/51/51 49/49/49 43/43/43
f 53/53/53 45/45/45 47/47/47
f 55/55/55 53/53/53 47/47/47
f 57/57/57 49/49/49 51/51/51
f 59/59/59 57/57/57 51/51/51
f 61/61/61 53/53/53 55/55/55
f 63/63/63 61/61/61 55/55/55
f 65/65/65 57/57/57 59/59/59
f 67/67/67 65/65/65 59/59/59
f 69/69/69 61/61/61 63/63/63
f 71/71/71 69/69/69 63/63/63
f 73/73/73 65/65/65 67/67/67
f 75/75/75 73/73/73 67/67/67
f 77/77/77 69/69/69 71/71/71
f 79/79/79 77/77/77 71/71/71
f 81/81/81 73/73/73 75/75/75
f 83/83/83 81/81/81 75/75/75
f 85/85/85 77/77/77 79/79/79
f 87/87/87 85/85/85 79/79/79
f 89/89/89 81/81/81 83/83/83
f 91/91/91 89/89/89 83/83/83
f 93/93/93 85/85/85 87/87/87
f 95/95/95 93/93/93 87/87/87
f 97/97/97 89/89/89 91/91/91
f 99/99/99 97/97/97 91/91/91
f 101/101/101 93/93/93 95/95/95
f 103/103/103 101/101/101 95/95/95
f 105/105/105 97/97/97 99/99/99
f 107/107/107 105/105/105 99/99/99
f 109/109/109 101/101/101 103/103/103
f 111/111/111 109/109/109 103/103/103
