mtllib ./Road8_2_23.mtl
g RoadCut4
v -460.9355 8.189888 234.6755
v -460.9355 8.189888 234.6755
v -459.553 8.189888 244.577
v -459.553 8.189888 244.577
v -456.4052 8.251175 233.8252
v -456.4052 8.251175 233.8252
v -454.1334 8.251175 243.5637
v -454.1334 8.251175 243.5637
v -451.851 8.190183 232.5923
v -451.851 8.190183 232.5923
v -448.8825 8.190183 242.1383
v -448.8825 8.190183 242.1383
v -447.425 7.998693 231.0278
v -447.425 7.998693 231.0278
v -443.7061 7.998693 240.2968
v -443.7061 7.998693 240.2968
v -443.2037 7.677166 229.1263
v -443.2037 7.677166 229.1263
v -438.6867 7.677166 238.0156
v -438.6867 7.677166 238.0156
v -439.2673 7.233573 226.8945
v -439.2673 7.233573 226.8945
v -433.913 7.233573 235.281
v -433.913 7.233573 235.281
v -435.644 6.674784 224.3099
v -435.644 6.674784 224.3099
v -429.4092 6.674784 232.0336
v -429.4092 6.674784 232.0336
v -432.4086 6.015939 221.3621
v -432.4086 6.015939 221.3621
v -425.2521 6.015939 228.209
v -425.2521 6.015939 228.209
v -429.7213 5.299928 218.1202
v -429.7213 5.299928 218.1202
v -421.6287 5.299928 223.8106
v -421.6287 5.299928 223.8106
v -427.7013 4.577399 214.6193
v -427.7013 4.577399 214.6193
v -418.6901 4.577399 218.7269
v -418.6901 4.577399 218.7269
v -426.5461 3.951046 211.003
v -426.5461 3.951046 211.003
v -416.7741 3.951046 212.8562
v -416.7741 3.951046 212.8562

vn -0.01318155 0.9999114 0.001840566
vn 0 0 0
vn -0.01190337 0.9999266 0.002214857
vn 0 0 0
vn -0.004112203 0.9999914 0.0005760075
vn 0 0 0
vn 0.003699848 0.9999925 -0.001151981
vn 0 0 0
vn 0.02023874 0.9997773 -0.005982853
vn 0 0 0
vn 0.02680326 0.9995969 -0.009361003
vn 0 0 0
vn 0.04445392 0.9988714 -0.0167219
vn 0 0 0
vn 0.04874941 0.9985793 -0.0215161
vn 0 0 0
vn 0.06672499 0.9972667 -0.03173211
vn 0 0 0
vn 0.06781986 0.9969894 -0.03758681
vn 0 0 0
vn 0.08535128 0.9950478 -0.0509413
vn 0 0 0
vn 0.08223134 0.99497 -0.05720882
vn 0 0 0
vn 0.09804983 0.9924529 -0.0736448
vn 0 0 0
vn 0.08957695 0.9928244 -0.07921971
vn 0 0 0
vn 0.1019615 0.9899437 -0.0980572
vn 0 0 0
vn 0.0870022 0.991091 -0.1008427
vn 0 0 0
vn 0.09397558 0.9882699 -0.1203796
vn 0 0 0
vn 0.07177985 0.9905557 -0.1168206
vn 0 0 0
vn 0.07067232 0.9887522 -0.1318122
vn 0 0 0
vn 0.04259101 0.9923177 -0.1161541
vn 0 0 0
vn 0.03770298 0.9922011 -0.118809
vn 0 0 0
vn 0.0189548 0.9948117 -0.09995189
vn 0 0 0

vt 0 0
vt 0 0
vt -0.2765137 1.980304
vt -0.2765137 1.980304
vt -0.9060608 -0.1700623
vt -0.9060608 -0.1700623
vt -1.360431 1.777643
vt -1.360431 1.777643
vt -1.816901 -0.4166504
vt -1.816901 -0.4166504
vt -2.410614 1.492554
vt -2.410614 1.492554
vt -2.7021 -0.7295349
vt -2.7021 -0.7295349
vt -3.445886 1.124268
vt -3.445886 1.124268
vt -3.546362 -1.109845
vt -3.546362 -1.109845
vt -4.449768 0.6680176
vt -4.449768 0.6680176
vt -4.333642 -1.556192
vt -4.333642 -1.556192
vt -5.404504 0.1210907
vt -5.404504 0.1210907
vt -5.058319 -2.073123
vt -5.058319 -2.073123
vt -6.305267 -0.5283905
vt -6.305267 -0.5283905
vt -5.705383 -2.662686
vt -5.705383 -2.662686
vt -7.136682 -1.293308
vt -7.136682 -1.293308
vt -6.242859 -3.311063
vt -6.242859 -3.311063
vt -7.861377 -2.172989
vt -7.861377 -2.172989
vt -6.646851 -4.011234
vt -6.646851 -4.011234
vt -8.449084 -3.189731
vt -8.449084 -3.189731
vt -6.877899 -4.734497
vt -6.877899 -4.734497
vt -8.832294 -4.363867
vt -8.832294 -4.363867

usemtl GSDRoad1
usemap GSDRoad1
f 5/5/5 1/1/1 3/3/3
f 7/7/7 5/5/5 3/3/3
f 9/9/9 5/5/5 7/7/7
f 11/11/11 9/9/9 7/7/7
f 13/13/13 9/9/9 11/11/11
f 15/15/15 13/13/13 11/11/11
f 17/17/17 13/13/13 15/15/15
f 19/19/19 17/17/17 15/15/15
f 21/21/21 17/17/17 19/19/19
f 23/23/23 21/21/21 19/19/19
f 25/25/25 21/21/21 23/23/23
f 27/27/27 25/25/25 23/23/23
f 29/29/29 25/25/25 27/27/27
f 31/31/31 29/29/29 27/27/27
f 33/33/33 29/29/29 31/31/31
f 35/35/35 33/33/33 31/31/31
f 37/37/37 33/33/33 35/35/35
f 39/39/39 37/37/37 35/35/35
f 41/41/41 37/37/37 39/39/39
f 43/43/43 41/41/41 39/39/39
