mtllib ./Road1_0_145.mtl
g SCutR6
v -591.9045 78.85072 582.8214
v -591.9045 78.85072 582.8214
v -591.7001 78.85072 579.8032
v -591.7001 78.85072 579.8032
v -591.7001 78.85072 579.8032
v -591.7001 78.85072 579.8032
v -591.5646 77.68874 577.8016
v -591.5646 77.68874 577.8016
v -596.8726 78.83566 582.4639
v -596.8726 78.83566 582.4639
v -596.6389 78.83566 579.41
v -596.6389 78.83566 579.41
v -596.6389 78.83566 579.41
v -596.6389 78.83566 579.41
v -596.4851 77.37333 577.4003
v -596.4851 77.37333 577.4003
v -601.8745 78.69258 582.0626
v -601.8745 78.69258 582.0626
v -601.6055 78.69258 578.9068
v -601.6055 78.69258 578.9068
v -601.6055 78.69258 578.9068
v -601.6055 78.69258 578.9068
v -601.4323 77.37333 576.8734
v -601.4323 77.37333 576.8734
v -606.92 78.42883 581.6175
v -606.92 78.42883 581.6175
v -606.6177 78.42883 578.3759
v -606.6177 78.42883 578.3759
v -606.6177 78.42883 578.3759
v -606.6177 78.42883 578.3759
v -606.4261 77.37333 576.3234
v -606.4261 77.37333 576.3234
v -611.8786 78.07221 581.1427
v -611.8786 78.07221 581.1427
v -611.5456 78.07221 577.8323
v -611.5456 78.07221 577.8323
v -611.5456 78.07221 577.8323
v -611.5456 78.07221 577.8323
v -611.3376 75.56349 575.765
v -611.3376 75.56349 575.765
v -616.8667 77.63427 580.6298
v -616.8667 77.63427 580.6298
v -616.5053 77.63427 577.2646
v -616.5053 77.63427 577.2646
v -616.5053 77.63427 577.2646
v -616.5053 77.63427 577.2646
v -616.2821 75.56349 575.186
v -616.2821 75.56349 575.186
v -621.8784 77.13151 580.0808
v -621.8784 77.13151 580.0808
v -621.4912 77.13151 576.6744
v -621.4912 77.13151 576.6744
v -621.4912 77.13151 576.6744
v -621.4912 77.13151 576.6744
v -621.254 75.56349 574.5875
v -621.254 75.56349 574.5875
v -626.908 76.58051 579.4982
v -626.908 76.58051 579.4982
v -626.4974 76.58051 576.0636
v -626.4974 76.58051 576.0636
v -626.4974 76.58051 576.0636
v -626.4974 76.58051 576.0636
v -626.2474 74.00726 573.9714
v -626.2474 74.00726 573.9714
v -631.8232 76.01265 578.9001
v -631.8232 76.01265 578.9001
v -631.3928 76.01265 575.4501
v -631.3928 76.01265 575.4501
v -631.3928 76.01265 575.4501
v -631.3928 76.01265 575.4501
v -631.1314 74.00726 573.3555
v -631.1314 74.00726 573.3555
v -636.7444 75.43002 578.2747
v -636.7444 75.43002 578.2747
v -636.2968 75.43002 574.8213
v -636.2968 75.43002 574.8213
v -636.2968 75.43002 574.8213
v -636.2968 75.43002 574.8213
v -636.0253 74.00726 572.7267
v -636.0253 74.00726 572.7267
v -641.6664 74.84796 577.6245
v -641.6664 74.84796 577.6245
v -641.2043 74.84796 574.1795
v -641.2043 74.84796 574.1795
v -641.2043 74.84796 574.1795
v -641.2043 74.84796 574.1795
v -640.9238 72.48984 572.0875
v -640.9238 72.48984 572.0875
v -646.5829 74.28186 576.9523
v -646.5829 74.28186 576.9523
v -646.1096 74.28186 573.5276
v -646.1096 74.28186 573.5276
v -646.1096 74.28186 573.5276
v -646.1096 74.28186 573.5276
v -645.8212 72.48984 571.4407
v -645.8212 72.48984 571.4407
v -651.4898 73.74699 576.2608
v -651.4898 73.74699 576.2608
v -651.0082 73.74699 572.8682
v -651.0082 73.74699 572.8682
v -651.0082 73.74699 572.8682
v -651.0082 73.74699 572.8682
v -650.7131 72.48984 570.7891
v -650.7131 72.48984 570.7891
v -656.5065 73.24699 575.5345
v -656.5065 73.24699 575.5345
v -656.0198 73.24699 572.1877
v -656.0198 73.24699 572.1877
v -656.0198 73.24699 572.1877
v -656.0198 73.24699 572.1877
v -655.719 71.79204 570.1192
v -655.719 71.79204 570.1192
v -661.5015 72.81255 574.7943
v -661.5015 72.81255 574.7943
v -661.0131 72.81255 571.5063
v -661.0131 72.81255 571.5063
v -661.0131 72.81255 571.5063
v -661.0131 72.81255 571.5063
v -660.7079 71.79204 569.4517
v -660.7079 71.79204 569.4517
v -666.469 72.46027 574.0433
v -666.469 72.46027 574.0433
v -665.9826 72.46027 570.828
v -665.9826 72.46027 570.828
v -665.9826 72.46027 570.828
v -665.9826 72.46027 570.828
v -665.6744 71.78495 568.7905
v -665.6744 71.78495 568.7905
v -671.4036 72.20669 573.2855
v -671.4036 72.20669 573.2855
v -670.9229 72.20669 570.1571
v -670.9229 72.20669 570.1571
v -670.9229 72.20669 570.1571
v -670.9229 72.20669 570.1571
v -670.613 71.78495 568.1404
v -670.613 71.78495 568.1404
v -676.4216 72.06654 572.5055
v -676.4216 72.06654 572.5055
v -675.9507 72.06654 569.4817
v -675.9507 72.06654 569.4817
v -675.9507 72.06654 569.4817
v -675.9507 72.06654 569.4817
v -675.6406 71.78495 567.4907
v -675.6406 71.78495 567.4907

vn -0.003016689 0.9999954 -0.0002042441
vn 0 0 0
vn -0.003023839 0.9999955 -0.0002181443
vn 0 0 0
vn 0.03715922 0.8653324 -0.4998189
vn 0 0 0
vn 0.01598628 0.8372474 -0.5465905
vn 0 0 0
vn -0.01158366 0.9999325 -0.0008776649
vn 0 0 0
vn -0.02015534 0.9997956 -0.001627214
vn 0 0 0
vn 0.02289135 0.8279334 -0.5603591
vn 0 0 0
vn 0.02979333 0.8195955 -0.5721675
vn 0 0 0
vn -0.03641716 0.999332 -0.00302345
vn 0 0 0
vn -0.0442754 0.9990116 -0.003916125
vn 0 0 0
vn 0.03557684 0.8297595 -0.556986
vn 0 0 0
vn 0.04007311 0.8570341 -0.5136989
vn 0 0 0
vn -0.05832312 0.9982837 -0.005302923
vn 0 0 0
vn -0.06483712 0.9978765 -0.00622338
vn 0 0 0
vn 0.01659474 0.8733723 -0.4867704
vn 0 0 0
vn -0.04961527 0.7977049 -0.6010034
vn 0 0 0
vn -0.07642797 0.9970468 -0.007517563
vn 0 0 0
vn -0.08168456 0.9966227 -0.008416485
vn 0 0 0
vn -0.04558935 0.710496 -0.7022228
vn 0 0 0
vn -0.0132151 0.6585944 -0.752382
vn 0 0 0
vn -0.09075642 0.9958272 -0.009552815
vn 0 0 0
vn -0.09489553 0.9954329 -0.01040027
vn 0 0 0
vn 0.04150124 0.6849919 -0.7273676
vn 0 0 0
vn 0.0545021 0.7399246 -0.6704784
vn 0 0 0
vn -0.101747 0.9947454 -0.01136108
vn 0 0 0
vn -0.1048021 0.9944192 -0.01212476
vn 0 0 0
vn 0.02248278 0.7695217 -0.6382249
vn 0 0 0
vn -0.02149752 0.737607 -0.674888
vn 0 0 0
vn -0.1094702 0.9939067 -0.01287411
vn 0 0 0
vn -0.1114586 0.993677 -0.01351978
vn 0 0 0
vn -0.03172423 0.6807617 -0.7318177
vn 0 0 0
vn -0.0009428553 0.6595409 -0.7516682
vn 0 0 0
vn -0.1141194 0.9933677 -0.01404213
vn 0 0 0
vn -0.1150946 0.9932479 -0.01454888
vn 0 0 0
vn 0.03693726 0.692099 -0.7208568
vn 0 0 0
vn 0.05269593 0.7586889 -0.6493183
vn 0 0 0
vn -0.1157614 0.9931665 -0.01481839
vn 0 0 0
vn -0.1157659 0.9931605 -0.01517893
vn 0 0 0
vn 0.0159263 0.7924681 -0.6097053
vn 0 0 0
vn -0.02646171 0.7680061 -0.6398955
vn 0 0 0
vn -0.1145263 0.993304 -0.0151865
vn 0 0 0
vn -0.1135662 0.9934114 -0.01538403
vn 0 0 0
vn -0.03682766 0.7120794 -0.7011324
vn 0 0 0
vn -0.003436848 0.693659 -0.7202955
vn 0 0 0
vn -0.1104166 0.9937706 -0.0151065
vn 0 0 0
vn -0.1084774 0.9939839 -0.01512425
vn 0 0 0
vn 0.03671237 0.7275943 -0.6850246
vn 0 0 0
vn 0.05198093 0.7931237 -0.6068383
vn 0 0 0
vn -0.1032989 0.9945443 -0.01453057
vn 0 0 0
vn -0.1003232 0.9948513 -0.014353
vn 0 0 0
vn 0.01839989 0.8245752 -0.5654531
vn 0 0 0
vn 0.00445051 0.8434112 -0.5372502
vn 0 0 0
vn -0.093157 0.9955608 -0.01343301
vn 0 0 0
vn -0.08908637 0.9959385 -0.01304153
vn 0 0 0
vn -0.01465178 0.8295799 -0.5581958
vn 0 0 0
vn 0.00817407 0.8447613 -0.5350809
vn 0 0 0
vn -0.07970959 0.9967489 -0.01174971
vn 0 0 0
vn -0.07453525 0.9971562 -0.01113266
vn 0 0 0
vn 0.02059915 0.871385 -0.4901672
vn 0 0 0
vn 0.03176 0.9159238 -0.4000935
vn 0 0 0
vn -0.06295258 0.9979717 -0.009458456
vn 0 0 0
vn -0.05663859 0.9983575 -0.008606968
vn 0 0 0
vn 0.01013458 0.9330805 -0.3595248
vn 0 0 0
vn 0.02007401 0.9607846 -0.2765681
vn 0 0 0
vn -0.04253226 0.999074 -0.006495052
vn 0 0 0
vn -0.03492519 0.9993755 -0.005385261
vn 0 0 0
vn 0.006707926 0.9703757 -0.2415081
vn 0 0 0
vn 0.01470297 0.9833283 -0.1812437
vn 0 0 0
vn -0.02727916 0.9996189 -0.004219694
vn 0 0 0
vn -0.02729239 0.9996185 -0.004250698
vn 0 0 0
vn 0.008873055 0.9851412 -0.1715175
vn 0 0 0
vn 0.0177446 0.9903692 -0.1373094
vn 0 0 0

vt 0 0
vt 0 0
vt -0.04086914 -0.6036377
vt -0.04086914 -0.6036377
vt -0.04086914 -0.6036377
vt -0.04086914 -0.6036377
vt -0.06798096 -1.003967
vt -0.06798096 -1.003967
vt 0.993628 -0.07150879
vt 0.993628 -0.07150879
vt 0.9468872 -0.6822876
vt 0.9468872 -0.6822876
vt 0.9468872 -0.6822876
vt 0.9468872 -0.6822876
vt 0.9161255 -1.084229
vt 0.9161255 -1.084229
vt 1.994006 -0.1517578
vt 1.994006 -0.1517578
vt 1.94021 -0.7829224
vt 1.94021 -0.7829224
vt 1.94021 -0.7829224
vt 1.94021 -0.7829224
vt 1.905554 -1.189612
vt 1.905554 -1.189612
vt 3.003113 -0.2407837
vt 3.003113 -0.2407837
vt 2.942639 -0.8890991
vt 2.942639 -0.8890991
vt 2.942639 -0.8890991
vt 2.942639 -0.8890991
vt 2.904334 -1.299609
vt 2.904334 -1.299609
vt 3.994824 -0.3357422
vt 3.994824 -0.3357422
vt 3.928223 -0.997815
vt 3.928223 -0.997815
vt 3.928223 -0.997815
vt 3.928223 -0.997815
vt 3.886621 -1.411291
vt 3.886621 -1.411291
vt 4.992444 -0.4383301
vt 4.992444 -0.4383301
vt 4.920166 -1.111353
vt 4.920166 -1.111353
vt 4.920166 -1.111353
vt 4.920166 -1.111353
vt 4.875525 -1.527087
vt 4.875525 -1.527087
vt 5.994788 -0.5481201
vt 5.994788 -0.5481201
vt 5.917346 -1.229395
vt 5.917346 -1.229395
vt 5.917346 -1.229395
vt 5.917346 -1.229395
vt 5.869897 -1.646777
vt 5.869897 -1.646777
vt 7.000696 -0.6646363
vt 7.000696 -0.6646363
vt 6.918591 -1.351563
vt 6.918591 -1.351563
vt 6.918591 -1.351563
vt 6.918591 -1.351563
vt 6.868579 -1.769995
vt 6.868579 -1.769995
vt 7.983753 -0.7842652
vt 7.983753 -0.7842652
vt 7.897656 -1.474255
vt 7.897656 -1.474255
vt 7.897656 -1.474255
vt 7.897656 -1.474255
vt 7.845386 -1.893176
vt 7.845386 -1.893176
vt 8.967994 -0.9093506
vt 8.967994 -0.9093506
vt 8.878467 -1.600024
vt 8.878467 -1.600024
vt 8.878467 -1.600024
vt 8.878467 -1.600024
vt 8.824158 -2.018933
vt 8.824158 -2.018933
vt 9.95238 -1.03938
vt 9.95238 -1.03938
vt 9.859973 -1.728381
vt 9.859973 -1.728381
vt 9.859973 -1.728381
vt 9.859973 -1.728381
vt 9.80387 -2.146777
vt 9.80387 -2.146777
vt 10.93568 -1.173816
vt 10.93568 -1.173816
vt 10.84102 -1.858765
vt 10.84102 -1.858765
vt 10.84102 -1.858765
vt 10.84102 -1.858765
vt 10.78334 -2.276135
vt 10.78334 -2.276135
vt 11.91707 -1.312122
vt 11.91707 -1.312122
vt 11.82075 -1.990637
vt 11.82075 -1.990637
vt 11.82075 -1.990637
vt 11.82075 -1.990637
vt 11.76173 -2.40647
vt 11.76173 -2.40647
vt 12.92041 -1.457373
vt 12.92041 -1.457373
vt 12.82307 -2.126746
vt 12.82307 -2.126746
vt 12.82307 -2.126746
vt 12.82307 -2.126746
vt 12.7629 -2.540442
vt 12.7629 -2.540442
vt 13.9194 -1.605432
vt 13.9194 -1.605432
vt 13.82173 -2.263025
vt 13.82173 -2.263025
vt 13.82173 -2.263025
vt 13.82173 -2.263025
vt 13.76069 -2.67395
vt 13.76069 -2.67395
vt 14.9129 -1.755615
vt 14.9129 -1.755615
vt 14.81563 -2.398682
vt 14.81563 -2.398682
vt 14.81563 -2.398682
vt 14.81563 -2.398682
vt 14.75398 -2.806177
vt 14.75398 -2.806177
vt 15.89983 -1.907178
vt 15.89983 -1.907178
vt 15.80369 -2.532861
vt 15.80369 -2.532861
vt 15.80369 -2.532861
vt 15.80369 -2.532861
vt 15.7417 -2.936194
vt 15.7417 -2.936194
vt 16.90343 -2.063184
vt 16.90343 -2.063184
vt 16.80924 -2.667944
vt 16.80924 -2.667944
vt 16.80924 -2.667944
vt 16.80924 -2.667944
vt 16.74722 -3.066138
vt 16.74722 -3.066138

usemtl GSDShoulder1
usemap GSDShoulder1
f 9/9/9 1/1/1 3/3/3
f 11/11/11 9/9/9 3/3/3
f 13/13/13 5/5/5 7/7/7
f 15/15/15 13/13/13 7/7/7
f 17/17/17 9/9/9 11/11/11
f 19/19/19 17/17/17 11/11/11
f 21/21/21 13/13/13 15/15/15
f 23/23/23 21/21/21 15/15/15
f 25/25/25 17/17/17 19/19/19
f 27/27/27 25/25/25 19/19/19
f 29/29/29 21/21/21 23/23/23
f 31/31/31 29/29/29 23/23/23
f 33/33/33 25/25/25 27/27/27
f 35/35/35 33/33/33 27/27/27
f 37/37/37 29/29/29 31/31/31
f 39/39/39 37/37/37 31/31/31
f 41/41/41 33/33/33 35/35/35
f 43/43/43 41/41/41 35/35/35
f 45/45/45 37/37/37 39/39/39
f 47/47/47 45/45/45 39/39/39
f 49/49/49 41/41/41 43/43/43
f 51/51/51 49/49/49 43/43/43
f 53/53/53 45/45/45 47/47/47
f 55/55/55 53/53/53 47/47/47
f 57/57/57 49/49/49 51/51/51
f 59/59/59 57/57/57 51/51/51
f 61/61/61 53/53/53 55/55/55
f 63/63/63 61/61/61 55/55/55
f 65/65/65 57/57/57 59/59/59
f 67/67/67 65/65/65 59/59/59
f 69/69/69 61/61/61 63/63/63
f 71/71/71 69/69/69 63/63/63
f 73/73/73 65/65/65 67/67/67
f 75/75/75 73/73/73 67/67/67
f 77/77/77 69/69/69 71/71/71
f 79/79/79 77/77/77 71/71/71
f 81/81/81 73/73/73 75/75/75
f 83/83/83 81/81/81 75/75/75
f 85/85/85 77/77/77 79/79/79
f 87/87/87 85/85/85 79/79/79
f 89/89/89 81/81/81 83/83/83
f 91/91/91 89/89/89 83/83/83
f 93/93/93 85/85/85 87/87/87
f 95/95/95 93/93/93 87/87/87
f 97/97/97 89/89/89 91/91/91
f 99/99/99 97/97/97 91/91/91
f 101/101/101 93/93/93 95/95/95
f 103/103/103 101/101/101 95/95/95
f 105/105/105 97/97/97 99/99/99
f 107/107/107 105/105/105 99/99/99
f 109/109/109 101/101/101 103/103/103
f 111/111/111 109/109/109 103/103/103
f 113/113/113 105/105/105 107/107/107
f 115/115/115 113/113/113 107/107/107
f 117/117/117 109/109/109 111/111/111
f 119/119/119 117/117/117 111/111/111
f 121/121/121 113/113/113 115/115/115
f 123/123/123 121/121/121 115/115/115
f 125/125/125 117/117/117 119/119/119
f 127/127/127 125/125/125 119/119/119
f 129/129/129 121/121/121 123/123/123
f 131/131/131 129/129/129 123/123/123
f 133/133/133 125/125/125 127/127/127
f 135/135/135 133/133/133 127/127/127
f 137/137/137 129/129/129 131/131/131
f 139/139/139 137/137/137 131/131/131
f 141/141/141 133/133/133 135/135/135
f 143/143/143 141/141/141 135/135/135
