mtllib ./Road1_0_176.mtl
g SCutR37
v -582.9251 5.022152 824.0117
v -582.9251 5.022152 824.0117
v -583.0035 5.022152 820.8644
v -583.0035 5.022152 820.8644
v -583.0035 5.022152 820.8644
v -583.0035 5.022152 820.8644
v -583.0541 4.158369 818.8282
v -583.0541 4.158369 818.8282
v -588.1039 5.11992 824.2007
v -588.1039 5.11992 824.2007
v -588.2531 5.11992 821.0595
v -588.2531 5.11992 821.0595
v -588.2531 5.11992 821.0595
v -588.2531 5.11992 821.0595
v -588.3498 4.592534 819.0258
v -588.3498 4.592534 819.0258
v -593.3044 5.213027 824.4996
v -593.3044 5.213027 824.4996
v -593.5144 5.213027 821.3652
v -593.5144 5.213027 821.3652
v -593.5144 5.213027 821.3652
v -593.5144 5.213027 821.3652
v -593.6504 4.68466 819.3347
v -593.6504 4.68466 819.3347
v -598.3917 5.299578 824.8832
v -598.3917 5.299578 824.8832
v -598.6529 5.299578 821.7564
v -598.6529 5.299578 821.7564
v -598.6529 5.299578 821.7564
v -598.6529 5.299578 821.7564
v -598.8223 4.768377 819.7292
v -598.8223 4.768377 819.7292
v -603.4657 5.381761 825.3448
v -603.4657 5.381761 825.3448
v -603.7717 5.381761 822.2259
v -603.7717 5.381761 822.2259
v -603.7717 5.381761 822.2259
v -603.7717 5.381761 822.2259
v -603.9702 4.848676 820.2023
v -603.9702 4.848676 820.2023
v -608.5079 5.459569 825.8724
v -608.5079 5.459569 825.8724
v -608.8531 5.459569 822.7615
v -608.8531 5.459569 822.7615
v -608.8531 5.459569 822.7615
v -608.8531 5.459569 822.7615
v -609.0771 4.958457 820.7416
v -609.0771 4.958457 820.7416
v -613.6351 5.534942 826.4716
v -613.6351 5.534942 826.4716
v -614.0156 5.534942 823.3692
v -614.0156 5.534942 823.3692
v -614.0156 5.534942 823.3692
v -614.0156 5.534942 823.3692
v -614.2628 5.026098 821.353
v -614.2628 5.026098 821.353
v -618.7025 5.605877 827.1197
v -618.7025 5.605877 827.1197
v -619.114 5.605877 824.0256
v -619.114 5.605877 824.0256
v -619.114 5.605877 824.0256
v -619.114 5.605877 824.0256
v -619.3817 5.090138 822.0131
v -619.3817 5.090138 822.0131
v -623.8314 5.674196 827.8265
v -623.8314 5.674196 827.8265
v -624.271 5.674196 824.741
v -624.271 5.674196 824.741
v -624.271 5.674196 824.741
v -624.271 5.674196 824.741
v -624.5572 5.184425 822.7322
v -624.5572 5.184425 822.7322
v -628.8765 5.738075 828.5669
v -628.8765 5.738075 828.5669
v -629.3409 5.738075 825.4899
v -629.3409 5.738075 825.4899
v -629.3409 5.738075 825.4899
v -629.3409 5.738075 825.4899
v -629.6436 5.240898 823.4847
v -629.6436 5.240898 823.4847
v -633.9625 5.799201 829.3545
v -633.9625 5.799201 829.3545
v -634.4495 5.799201 826.2861
v -634.4495 5.799201 826.2861
v -634.4495 5.799201 826.2861
v -634.4495 5.799201 826.2861
v -634.7671 5.321207 824.2845
v -634.7671 5.321207 824.2845
v -638.9429 5.855913 830.1623
v -638.9429 5.855913 830.1623
v -639.4498 5.855913 827.1023
v -639.4498 5.855913 827.1023
v -639.4498 5.855913 827.1023
v -639.4498 5.855913 827.1023
v -639.7807 5.374841 825.1041
v -639.7807 5.374841 825.1041
v -643.9457 5.909768 831.007
v -643.9457 5.909768 831.007
v -644.4706 5.909768 827.9554
v -644.4706 5.909768 827.9554
v -644.4706 5.909768 827.9554
v -644.4706 5.909768 827.9554
v -644.8137 5.445835 825.9608
v -644.8137 5.445835 825.9608
v -648.9633 5.960646 831.885
v -648.9633 5.960646 831.885
v -649.5046 5.960646 828.842
v -649.5046 5.960646 828.842
v -649.5046 5.960646 828.842
v -649.5046 5.960646 828.842
v -649.8588 5.515279 826.8506
v -649.8588 5.515279 826.8506
v -653.9886 6.008433 832.7924
v -653.9886 6.008433 832.7924
v -654.5446 6.008433 829.7579
v -654.5446 6.008433 829.7579
v -654.5446 6.008433 829.7579
v -654.5446 6.008433 829.7579
v -654.9089 5.515279 827.7698
v -654.9089 5.515279 827.7698
v -659.0124 6.052996 833.7253
v -659.0124 6.052996 833.7253
v -659.5817 6.052996 830.6995
v -659.5817 6.052996 830.6995
v -659.5817 6.052996 830.6995
v -659.5817 6.052996 830.6995
v -659.9551 5.576137 828.7146
v -659.9551 5.576137 828.7146
v -664.0274 6.094216 834.6802
v -664.0274 6.094216 834.6802
v -664.6085 6.094216 831.6629
v -664.6085 6.094216 831.6629
v -664.6085 6.094216 831.6629
v -664.6085 6.094216 831.6629
v -664.9902 5.613563 829.6812
v -664.9902 5.613563 829.6812
v -669.0245 6.131966 835.6529
v -669.0245 6.131966 835.6529
v -669.6161 6.131966 832.6443
v -669.6161 6.131966 832.6443
v -669.6161 6.131966 832.6443
v -669.6161 6.131966 832.6443
v -670.0052 5.669535 830.6656
v -670.0052 5.669535 830.6656
v -673.9966 6.166129 836.6399
v -673.9966 6.166129 836.6399
v -674.5975 6.166129 833.64
v -674.5975 6.166129 833.64
v -674.5975 6.166129 833.64
v -674.5975 6.166129 833.64
v -674.9932 5.720429 831.6644
v -674.9932 5.720429 831.6644
v -678.9347 6.196573 837.6371
v -678.9347 6.196573 837.6371
v -679.5436 6.196573 834.6459
v -679.5436 6.196573 834.6459
v -679.5436 6.196573 834.6459
v -679.5436 6.196573 834.6459
v -679.9451 5.749148 832.6733
v -679.9451 5.749148 832.6733
v -683.9666 6.223866 838.6691
v -683.9666 6.223866 838.6691
v -684.5825 6.223866 835.6868
v -684.5825 6.223866 835.6868
v -684.5825 6.223866 835.6868
v -684.5825 6.223866 835.6868
v -684.9893 5.791312 833.7171
v -684.9893 5.791312 833.7171
v -688.9462 6.246975 839.7037
v -688.9462 6.246975 839.7037
v -689.5677 6.246975 836.7305
v -689.5677 6.246975 836.7305
v -689.5677 6.246975 836.7305
v -689.5677 6.246975 836.7305
v -689.9789 5.825781 834.7636
v -689.9789 5.825781 834.7636
v -693.8633 6.265762 840.7372
v -693.8633 6.265762 840.7372
v -694.4894 6.265762 837.7729
v -694.4894 6.265762 837.7729
v -694.4894 6.265762 837.7729
v -694.4894 6.265762 837.7729
v -694.9042 5.857115 835.8088
v -694.9042 5.857115 835.8088
v -698.8397 6.280419 841.7928
v -698.8397 6.280419 841.7928
v -699.4647 6.280419 838.8586
v -699.4647 6.280419 838.8586
v -699.4647 6.280419 838.8586
v -699.4647 6.280419 838.8586
v -699.8813 5.872962 836.9025
v -699.8813 5.872962 836.9025
v -703.8589 6.290424 842.8656
v -703.8589 6.290424 842.8656
v -704.4877 6.290424 839.9323
v -704.4877 6.290424 839.9323
v -704.4877 6.290424 839.9323
v -704.4877 6.290424 839.9323
v -704.907 5.884593 837.9767
v -704.907 5.884593 837.9767
v -708.7792 6.295174 843.9228
v -708.7792 6.295174 843.9228
v -709.4106 6.295174 840.99
v -709.4106 6.295174 840.99
v -709.4106 6.295174 840.99
v -709.4106 6.295174 840.99
v -709.8315 5.865867 839.0348
v -709.8315 5.865867 839.0348
v -713.7116 6.294418 844.9859
v -713.7116 6.294418 844.9859
v -714.3441 6.294418 842.0533
v -714.3441 6.294418 842.0533
v -714.3441 6.294418 842.0533
v -714.3441 6.294418 842.0533
v -714.7658 5.839452 840.0983
v -714.7658 5.839452 840.0983
v -718.6349 6.287558 846.0477
v -718.6349 6.287558 846.0477
v -719.267 6.287558 843.115
v -719.267 6.287558 843.115
v -719.267 6.287558 843.115
v -719.267 6.287558 843.115
v -719.6884 5.809357 841.1599
v -719.6884 5.809357 841.1599
v -723.5274 6.273951 847.1003
v -723.5274 6.273951 847.1003
v -724.1627 6.273951 844.1409
v -724.1627 6.273951 844.1409
v -724.1627 6.273951 844.1409
v -724.1627 6.273951 844.1409
v -724.5839 5.768625 842.1789
v -724.5839 5.768625 842.1789
v -728.4739 6.252346 848.1583
v -728.4739 6.252346 848.1583
v -729.1068 6.252346 845.1867
v -729.1068 6.252346 845.1867
v -729.1068 6.252346 845.1867
v -729.1068 6.252346 845.1867
v -729.5254 5.723611 843.2212
v -729.5254 5.723611 843.2212
v -733.4329 6.221476 849.2083
v -733.4329 6.221476 849.2083
v -734.0605 6.221476 846.2228
v -734.0605 6.221476 846.2228
v -734.0605 6.221476 846.2228
v -734.0605 6.221476 846.2228
v -734.4745 5.668073 844.2532
v -734.4745 5.668073 844.2532
v -738.3577 6.179957 850.2341
v -738.3577 6.179957 850.2341
v -738.9759 6.179957 847.2332
v -738.9759 6.179957 847.2332
v -738.9759 6.179957 847.2332
v -738.9759 6.179957 847.2332
v -739.3827 5.455967 845.2587
v -739.3827 5.455967 845.2587
v -743.2869 6.125115 851.2353
v -743.2869 6.125115 851.2353
v -743.89 6.125115 848.2166
v -743.89 6.125115 848.2166
v -743.89 6.125115 848.2166
v -743.89 6.125115 848.2166
v -744.2857 4.779627 846.2361
v -744.2857 4.779627 846.2361
v -748.2236 6.053186 852.2006
v -748.2236 6.053186 852.2006
v -748.8027 6.053186 849.1608
v -748.8027 6.053186 849.1608
v -748.8027 6.053186 849.1608
v -748.8027 6.053186 849.1608
v -749.1815 4.397124 847.1731
v -749.1815 4.397124 847.1731

vn 0.01885817 0.999822 -0.0004695798
vn 0 0 0
vn 0.01872214 0.9998245 -0.00067761
vn 0 0 0
vn 0.002630993 0.9205642 -0.3905824
vn 0 0 0
vn 0.03560268 0.9452514 -0.3243952
vn 0 0 0
vn 0.01843236 0.9998299 -0.0007343481
vn 0 0 0
vn 0.01802167 0.9998372 -0.0009710883
vn 0 0 0
vn 0.02478318 0.9534244 -0.3006126
vn 0 0 0
vn 0.02486175 0.9673216 -0.2523308
vn 0 0 0
vn 0.0174719 0.9998468 -0.001054049
vn 0 0 0
vn 0.01709992 0.999853 -0.001237383
vn 0 0 0
vn 0.0006368873 0.9678372 -0.2515766
vn 0 0 0
vn -0.001425351 0.9676583 -0.2522603
vn 0 0 0
vn 0.01657858 0.9998617 -0.00129184
vn 0 0 0
vn 0.0162402 0.9998671 -0.001434074
vn 0 0 0
vn -0.004718289 0.9675677 -0.2525679
vn 0 0 0
vn -0.006517253 0.9673537 -0.253346
vn 0 0 0
vn 0.0157531 0.9998748 -0.001467437
vn 0 0 0
vn 0.01544021 0.9998796 -0.001579498
vn 0 0 0
vn -0.009272155 0.967293 -0.2534923
vn 0 0 0
vn -0.008228894 0.9683848 -0.2493256
vn 0 0 0
vn 0.01497009 0.9998866 -0.00159604
vn 0 0 0
vn 0.0146763 0.9998909 -0.001684756
vn 0 0 0
vn -0.01015797 0.9696225 -0.2443947
vn 0 0 0
vn -0.01153016 0.9705011 -0.2408209
vn 0 0 0
vn 0.01422959 0.9998973 -0.001688321
vn 0 0 0
vn 0.01395191 0.9999012 -0.001758011
vn 0 0 0
vn -0.01589916 0.9702499 -0.2415829
vn 0 0 0
vn -0.01775683 0.9696792 -0.2437355
vn 0 0 0
vn 0.0135112 0.9999071 -0.001749564
vn 0 0 0
vn 0.01324764 0.9999107 -0.001803108
vn 0 0 0
vn -0.01951829 0.9694163 -0.2446447
vn 0 0 0
vn -0.0185682 0.9700891 -0.2420377
vn 0 0 0
vn 0.01282615 0.9999161 -0.001785843
vn 0 0 0
vn 0.01257438 0.9999192 -0.001825961
vn 0 0 0
vn -0.01946041 0.9710463 -0.2380977
vn 0 0 0
vn -0.02047256 0.9717152 -0.2352667
vn 0 0 0
vn 0.01215532 0.9999245 -0.001799593
vn 0 0 0
vn 0.01191354 0.9999273 -0.001828271
vn 0 0 0
vn -0.02397256 0.971461 -0.2359851
vn 0 0 0
vn -0.02337477 0.9718544 -0.2344198
vn 0 0 0
vn 0.01150961 0.9999322 -0.001795848
vn 0 0 0
vn 0.01127606 0.9999348 -0.001814813
vn 0 0 0
vn -0.02399989 0.972541 -0.2314904
vn 0 0 0
vn -0.02459835 0.9731045 -0.2290472
vn 0 0 0
vn 0.01087111 0.9999393 -0.001774991
vn 0 0 0
vn 0.01064464 0.9999418 -0.001785227
vn 0 0 0
vn -0.02731274 0.9730046 -0.2291636
vn 0 0 0
vn -0.02661261 0.973472 -0.2272534
vn 0 0 0
vn 0.01024505 0.999946 -0.001739891
vn 0 0 0
vn 0.0100211 0.9999482 -0.001742756
vn 0 0 0
vn -0.02729334 0.9740759 -0.2245695
vn 0 0 0
vn -0.025878 0.9752857 -0.2194266
vn 0 0 0
vn 0.009618609 0.9999523 -0.001691577
vn 0 0 0
vn 0.009396112 0.9999545 -0.001687702
vn 0 0 0
vn -0.02766139 0.9759339 -0.2163049
vn 0 0 0
vn -0.03210625 0.9749284 -0.2201906
vn 0 0 0
vn 0.008989188 0.9999582 -0.001630666
vn 0 0 0
vn 0.008766846 0.9999602 -0.001620362
vn 0 0 0
vn -0.03573998 0.9732379 -0.2270033
vn 0 0 0
vn -0.03621789 0.9720634 -0.2319074
vn 0 0 0
vn 0.008353462 0.9999639 -0.001557567
vn 0 0 0
vn 0.008130121 0.9999658 -0.001541312
vn 0 0 0
vn -0.03391172 0.9726278 -0.2298807
vn 0 0 0
vn -0.03439886 0.9730548 -0.2279936
vn 0 0 0
vn 0.007708717 0.9999692 -0.001472855
vn 0 0 0
vn 0.007483263 0.9999709 -0.001451018
vn 0 0 0
vn -0.03658205 0.9729176 -0.2282395
vn 0 0 0
vn -0.0355957 0.9733995 -0.2263323
vn 0 0 0
vn 0.00705168 0.9999742 -0.00137681
vn 0 0 0
vn 0.006822629 0.9999758 -0.001349642
vn 0 0 0
vn -0.03581444 0.9740399 -0.2235256
vn 0 0 0
vn -0.03425906 0.9752321 -0.2185151
vn 0 0 0
vn 0.006378552 0.999979 -0.001269557
vn 0 0 0
vn 0.006144534 0.9999804 -0.001237172
vn 0 0 0
vn -0.03582302 0.9758111 -0.2156604
vn 0 0 0
vn -0.03598329 0.9763016 -0.2134018
vn 0 0 0
vn 0.005678095 0.9999832 -0.001149435
vn 0 0 0
vn 0.005434628 0.9999846 -0.001111429
vn 0 0 0
vn -0.03799284 0.976239 -0.2133396
vn 0 0 0
vn -0.03715053 0.9766586 -0.2115605
vn 0 0 0
vn 0.004952402 0.9999873 -0.001017623
vn 0 0 0
vn 0.004697201 0.9999885 -0.0009738191
vn 0 0 0
vn -0.03743729 0.9771459 -0.2092476
vn 0 0 0
vn -0.03637477 0.9779904 -0.2054544
vn 0 0 0
vn 0.004185956 0.9999908 -0.0008713274
vn 0 0 0
vn 0.003920678 0.999992 -0.0008222269
vn 0 0 0
vn -0.03776342 0.9783596 -0.2034367
vn 0 0 0
vn -0.03666596 0.9791086 -0.2000048
vn 0 0 0
vn 0.003375586 0.9999941 -0.0007102917
vn 0 0 0
vn 0.003094719 0.9999949 -0.0006552503
vn 0 0 0
vn -0.0380566 0.9795098 -0.1977682
vn 0 0 0
vn -0.0383703 0.9798874 -0.1958275
vn 0 0 0
vn 0.002512897 0.9999968 -0.0005335142
vn 0 0 0
vn 0.002207129 0.9999976 -0.0004709578
vn 0 0 0
vn -0.03983229 0.9798803 -0.1955706
vn 0 0 0
vn -0.03970621 0.9799219 -0.195388
vn 0 0 0
vn 0.001582375 0.9999987 -0.0003383152
vn 0 0 0
vn 0.001254247 0.9999992 -0.0002691359
vn 0 0 0
vn -0.04003619 0.9799739 -0.1950597
vn 0 0 0
vn -0.042619 0.9792789 -0.1979806
vn 0 0 0
vn 0.0005656126 0.9999998 -0.0001214792
vn 0 0 0
vn 0.0002092967 0.9999999 -4.503561E-05
vn 0 0 0
vn -0.04429448 0.9785065 -0.2014026
vn 0 0 0
vn -0.04791259 0.9768584 -0.2084516
vn 0 0 0
vn -0.0005409013 0.9999998 0.0001166417
vn 0 0 0
vn -0.0009359889 0.9999996 0.0002017984
vn 0 0 0
vn -0.04805292 0.9759811 -0.2124892
vn 0 0 0
vn -0.05150129 0.9742578 -0.219475
vn 0 0 0
vn -0.001771896 0.9999985 0.0003819359
vn 0 0 0
vn -0.002215865 0.9999974 0.000476798
vn 0 0 0
vn -0.05102186 0.9734289 -0.223233
vn 0 0 0
vn -0.05416649 0.9716356 -0.2301964
vn 0 0 0
vn -0.003169758 0.9999947 0.0006812025
vn 0 0 0
vn -0.003676636 0.9999929 0.0007868984
vn 0 0 0
vn -0.05412926 0.97068 -0.2342014
vn 0 0 0
vn -0.05767856 0.9688355 -0.2408963
vn 0 0 0
vn -0.004773026 0.9999881 0.001018888
vn 0 0 0
vn -0.005370677 0.999985 0.001138296
vn 0 0 0
vn -0.05780357 0.9679611 -0.2443562
vn 0 0 0
vn -0.06110162 0.9661106 -0.2507926
vn 0 0 0
vn -0.00666509 0.9999769 0.001406555
vn 0 0 0
vn -0.007380561 0.9999715 0.001540137
vn 0 0 0
vn -0.06118166 0.9651592 -0.2544101
vn 0 0 0
vn -0.07775083 0.9568674 -0.279928
vn 0 0 0
vn -0.00895464 0.9999582 0.001856043
vn 0 0 0
vn -0.009839 0.9999496 0.002004708
vn 0 0 0
vn -0.08168501 0.9491614 -0.3040069
vn 0 0 0
vn -0.1382705 0.9065223 -0.3988716
vn 0 0 0
vn -0.01181313 0.9999274 0.002382348
vn 0 0 0
vn -0.01296075 0.9999128 0.002545873
vn 0 0 0
vn -0.1403637 0.870196 -0.472289
vn 0 0 0
vn -0.1708887 0.8112679 -0.5591434
vn 0 0 0
vn -0.0140719 0.9998973 0.002746107
vn 0 0 0
vn -0.01412277 0.9998966 0.002690766
vn 0 0 0
vn -0.1480508 0.8024368 -0.5780797
vn 0 0 0
vn -0.1770671 0.7724826 -0.6098505
vn 0 0 0

vt 0 0
vt 0 0
vt 0.01567383 -0.6294556
vt 0.01567383 -0.6294556
vt 0.01567383 -0.6294556
vt 0.01567383 -0.6294556
vt 0.02580567 -1.036694
vt 0.02580567 -1.036694
vt 1.035754 0.03780518
vt 1.035754 0.03780518
vt 1.065601 -0.5904419
vt 1.065601 -0.5904419
vt 1.065601 -0.5904419
vt 1.065601 -0.5904419
vt 1.084936 -0.9971802
vt 1.084936 -0.9971802
vt 2.075867 0.0975708
vt 2.075867 0.0975708
vt 2.117859 -0.5292969
vt 2.117859 -0.5292969
vt 2.117859 -0.5292969
vt 2.117859 -0.5292969
vt 2.145056 -0.9354126
vt 2.145056 -0.9354126
vt 3.093311 0.1743042
vt 3.093311 0.1743042
vt 3.145557 -0.451062
vt 3.145557 -0.451062
vt 3.145557 -0.451062
vt 3.145557 -0.451062
vt 3.179431 -0.8565063
vt 3.179431 -0.8565063
vt 4.108118 0.266626
vt 4.108118 0.266626
vt 4.169312 -0.3571655
vt 4.169312 -0.3571655
vt 4.169312 -0.3571655
vt 4.169312 -0.3571655
vt 4.209009 -0.7618896
vt 4.209009 -0.7618896
vt 5.116565 0.3721313
vt 5.116565 0.3721313
vt 5.185596 -0.2500366
vt 5.185596 -0.2500366
vt 5.185596 -0.2500366
vt 5.185596 -0.2500366
vt 5.230408 -0.6540284
vt 5.230408 -0.6540284
vt 6.142004 0.49198
vt 6.142004 0.49198
vt 6.218091 -0.1285034
vt 6.218091 -0.1285034
vt 6.218091 -0.1285034
vt 6.218091 -0.1285034
vt 6.267541 -0.5317383
vt 6.267541 -0.5317383
vt 7.155481 0.6215943
vt 7.155481 0.6215943
vt 7.237781 0.002783203
vt 7.237781 0.002783203
vt 7.237781 0.002783203
vt 7.237781 0.002783203
vt 7.291309 -0.3997192
vt 7.291309 -0.3997192
vt 8.181262 0.7629517
vt 8.181262 0.7629517
vt 8.269177 0.1458618
vt 8.269177 0.1458618
vt 8.269177 0.1458618
vt 8.269177 0.1458618
vt 8.326416 -0.255896
vt 8.326416 -0.255896
vt 9.190284 0.9110352
vt 9.190284 0.9110352
vt 9.283154 0.2956299
vt 9.283154 0.2956299
vt 9.283154 0.2956299
vt 9.283154 0.2956299
vt 9.343689 -0.1053955
vt 9.343689 -0.1053955
vt 10.20748 1.068555
vt 10.20748 1.068555
vt 10.30487 0.4548706
vt 10.30487 0.4548706
vt 10.30487 0.4548706
vt 10.30487 0.4548706
vt 10.3684 0.05455322
vt 10.3684 0.05455322
vt 11.20356 1.230115
vt 11.20356 1.230115
vt 11.30493 0.6181152
vt 11.30493 0.6181152
vt 11.30493 0.6181152
vt 11.30493 0.6181152
vt 11.37112 0.2184815
vt 11.37112 0.2184815
vt 12.20413 1.39906
vt 12.20413 1.39906
vt 12.30909 0.7887451
vt 12.30909 0.7887451
vt 12.30909 0.7887451
vt 12.30909 0.7887451
vt 12.37772 0.3898071
vt 12.37772 0.3898071
vt 13.20764 1.574658
vt 13.20764 1.574658
vt 13.31589 0.9660522
vt 13.31589 0.9660522
vt 13.31589 0.9660522
vt 13.31589 0.9660522
vt 13.38673 0.5677735
vt 13.38673 0.5677735
vt 14.2127 1.75614
vt 14.2127 1.75614
vt 14.3239 1.149243
vt 14.3239 1.149243
vt 14.3239 1.149243
vt 14.3239 1.149243
vt 14.39675 0.7516236
vt 14.39675 0.7516236
vt 15.21746 1.942725
vt 15.21746 1.942725
vt 15.33131 1.337549
vt 15.33131 1.337549
vt 15.33131 1.337549
vt 15.33131 1.337549
vt 15.40599 0.9405762
vt 15.40599 0.9405762
vt 16.22046 2.133692
vt 16.22046 2.133692
vt 16.33668 1.530237
vt 16.33668 1.530237
vt 16.33668 1.530237
vt 16.33668 1.530237
vt 16.41301 1.133899
vt 16.41301 1.133899
vt 17.21987 2.328235
vt 17.21987 2.328235
vt 17.3382 1.726514
vt 17.3382 1.726514
vt 17.3382 1.726514
vt 17.3382 1.726514
vt 17.41602 1.330786
vt 17.41602 1.330786
vt 18.21431 2.525635
vt 18.21431 2.525635
vt 18.33449 1.925659
vt 18.33449 1.925659
vt 18.33449 1.925659
vt 18.33449 1.925659
vt 18.41362 1.530542
vt 18.41362 1.530542
vt 19.20192 2.725085
vt 19.20192 2.725085
vt 19.32369 2.126843
vt 19.32369 2.126843
vt 19.32369 2.126843
vt 19.32369 2.126843
vt 19.40401 1.732312
vt 19.40401 1.732312
vt 20.2083 2.93147
vt 20.2083 2.93147
vt 20.33148 2.335022
vt 20.33148 2.335022
vt 20.33148 2.335022
vt 20.33148 2.335022
vt 20.41283 1.941077
vt 20.41283 1.941077
vt 21.20421 3.138403
vt 21.20421 3.138403
vt 21.32853 2.54375
vt 21.32853 2.54375
vt 21.32853 2.54375
vt 21.32853 2.54375
vt 21.41077 2.150378
vt 21.41077 2.150378
vt 22.18765 3.345105
vt 22.18765 3.345105
vt 22.31285 2.752234
vt 22.31285 2.752234
vt 22.31285 2.752234
vt 22.31285 2.752234
vt 22.39583 2.359424
vt 22.39583 2.359424
vt 23.18292 3.556226
vt 23.18292 3.556226
vt 23.30791 2.969385
vt 23.30791 2.969385
vt 23.30791 2.969385
vt 23.30791 2.969385
vt 23.39124 2.578162
vt 23.39124 2.578162
vt 24.18677 3.770777
vt 24.18677 3.770777
vt 24.31252 3.184107
vt 24.31252 3.184107
vt 24.31252 3.184107
vt 24.31252 3.184107
vt 24.39638 2.792993
vt 24.39638 2.792993
vt 25.17083 3.982214
vt 25.17083 3.982214
vt 25.29709 3.395654
vt 25.29709 3.395654
vt 25.29709 3.395654
vt 25.29709 3.395654
vt 25.38129 3.004614
vt 25.38129 3.004614
vt 26.1573 4.194837
vt 26.1573 4.194837
vt 26.2838 3.608313
vt 26.2838 3.608313
vt 26.2838 3.608313
vt 26.2838 3.608313
vt 26.36814 3.21731
vt 26.36814 3.21731
vt 27.14197 4.40719
vt 27.14197 4.40719
vt 27.26837 3.820654
vt 27.26837 3.820654
vt 27.26837 3.820654
vt 27.26837 3.820654
vt 27.35265 3.429639
vt 27.35265 3.429639
vt 28.12046 4.617712
vt 28.12046 4.617712
vt 28.24752 4.02583
vt 28.24752 4.02583
vt 28.24752 4.02583
vt 28.24752 4.02583
vt 28.33176 3.633435
vt 28.33176 3.633435
vt 29.10975 4.829321
vt 29.10975 4.829321
vt 29.23633 4.234998
vt 29.23633 4.234998
vt 29.23633 4.234998
vt 29.23633 4.234998
vt 29.32006 3.841895
vt 29.32006 3.841895
vt 30.10156 5.039307
vt 30.10156 5.039307
vt 30.22708 4.442224
vt 30.22708 4.442224
vt 30.22708 4.442224
vt 30.22708 4.442224
vt 30.30988 4.048303
vt 30.30988 4.048303
vt 31.08651 5.24447
vt 31.08651 5.24447
vt 31.21016 4.644287
vt 31.21016 4.644287
vt 31.21016 4.644287
vt 31.21016 4.644287
vt 31.29152 4.24939
vt 31.29152 4.24939
vt 32.07235 5.444715
vt 32.07235 5.444715
vt 32.19298 4.840967
vt 32.19298 4.840967
vt 32.19298 4.840967
vt 32.19298 4.840967
vt 32.27212 4.444885
vt 32.27212 4.444885
vt 33.05969 5.637781
vt 33.05969 5.637781
vt 33.17553 5.029822
vt 33.17553 5.029822
vt 33.17553 5.029822
vt 33.17553 5.029822
vt 33.25127 4.632276
vt 33.25127 4.632276

usemtl GSDShoulder1
usemap GSDShoulder1
f 9/9/9 1/1/1 3/3/3
f 11/11/11 9/9/9 3/3/3
f 13/13/13 5/5/5 7/7/7
f 15/15/15 13/13/13 7/7/7
f 17/17/17 9/9/9 11/11/11
f 19/19/19 17/17/17 11/11/11
f 21/21/21 13/13/13 15/15/15
f 23/23/23 21/21/21 15/15/15
f 25/25/25 17/17/17 19/19/19
f 27/27/27 25/25/25 19/19/19
f 29/29/29 21/21/21 23/23/23
f 31/31/31 29/29/29 23/23/23
f 33/33/33 25/25/25 27/27/27
f 35/35/35 33/33/33 27/27/27
f 37/37/37 29/29/29 31/31/31
f 39/39/39 37/37/37 31/31/31
f 41/41/41 33/33/33 35/35/35
f 43/43/43 41/41/41 35/35/35
f 45/45/45 37/37/37 39/39/39
f 47/47/47 45/45/45 39/39/39
f 49/49/49 41/41/41 43/43/43
f 51/51/51 49/49/49 43/43/43
f 53/53/53 45/45/45 47/47/47
f 55/55/55 53/53/53 47/47/47
f 57/57/57 49/49/49 51/51/51
f 59/59/59 57/57/57 51/51/51
f 61/61/61 53/53/53 55/55/55
f 63/63/63 61/61/61 55/55/55
f 65/65/65 57/57/57 59/59/59
f 67/67/67 65/65/65 59/59/59
f 69/69/69 61/61/61 63/63/63
f 71/71/71 69/69/69 63/63/63
f 73/73/73 65/65/65 67/67/67
f 75/75/75 73/73/73 67/67/67
f 77/77/77 69/69/69 71/71/71
f 79/79/79 77/77/77 71/71/71
f 81/81/81 73/73/73 75/75/75
f 83/83/83 81/81/81 75/75/75
f 85/85/85 77/77/77 79/79/79
f 87/87/87 85/85/85 79/79/79
f 89/89/89 81/81/81 83/83/83
f 91/91/91 89/89/89 83/83/83
f 93/93/93 85/85/85 87/87/87
f 95/95/95 93/93/93 87/87/87
f 97/97/97 89/89/89 91/91/91
f 99/99/99 97/97/97 91/91/91
f 101/101/101 93/93/93 95/95/95
f 103/103/103 101/101/101 95/95/95
f 105/105/105 97/97/97 99/99/99
f 107/107/107 105/105/105 99/99/99
f 109/109/109 101/101/101 103/103/103
f 111/111/111 109/109/109 103/103/103
f 113/113/113 105/105/105 107/107/107
f 115/115/115 113/113/113 107/107/107
f 117/117/117 109/109/109 111/111/111
f 119/119/119 117/117/117 111/111/111
f 121/121/121 113/113/113 115/115/115
f 123/123/123 121/121/121 115/115/115
f 125/125/125 117/117/117 119/119/119
f 127/127/127 125/125/125 119/119/119
f 129/129/129 121/121/121 123/123/123
f 131/131/131 129/129/129 123/123/123
f 133/133/133 125/125/125 127/127/127
f 135/135/135 133/133/133 127/127/127
f 137/137/137 129/129/129 131/131/131
f 139/139/139 137/137/137 131/131/131
f 141/141/141 133/133/133 135/135/135
f 143/143/143 141/141/141 135/135/135
f 145/145/145 137/137/137 139/139/139
f 147/147/147 145/145/145 139/139/139
f 149/149/149 141/141/141 143/143/143
f 151/151/151 149/149/149 143/143/143
f 153/153/153 145/145/145 147/147/147
f 155/155/155 153/153/153 147/147/147
f 157/157/157 149/149/149 151/151/151
f 159/159/159 157/157/157 151/151/151
f 161/161/161 153/153/153 155/155/155
f 163/163/163 161/161/161 155/155/155
f 165/165/165 157/157/157 159/159/159
f 167/167/167 165/165/165 159/159/159
f 169/169/169 161/161/161 163/163/163
f 171/171/171 169/169/169 163/163/163
f 173/173/173 165/165/165 167/167/167
f 175/175/175 173/173/173 167/167/167
f 177/177/177 169/169/169 171/171/171
f 179/179/179 177/177/177 171/171/171
f 181/181/181 173/173/173 175/175/175
f 183/183/183 181/181/181 175/175/175
f 185/185/185 177/177/177 179/179/179
f 187/187/187 185/185/185 179/179/179
f 189/189/189 181/181/181 183/183/183
f 191/191/191 189/189/189 183/183/183
f 193/193/193 185/185/185 187/187/187
f 195/195/195 193/193/193 187/187/187
f 197/197/197 189/189/189 191/191/191
f 199/199/199 197/197/197 191/191/191
f 201/201/201 193/193/193 195/195/195
f 203/203/203 201/201/201 195/195/195
f 205/205/205 197/197/197 199/199/199
f 207/207/207 205/205/205 199/199/199
f 209/209/209 201/201/201 203/203/203
f 211/211/211 209/209/209 203/203/203
f 213/213/213 205/205/205 207/207/207
f 215/215/215 213/213/213 207/207/207
f 217/217/217 209/209/209 211/211/211
f 219/219/219 217/217/217 211/211/211
f 221/221/221 213/213/213 215/215/215
f 223/223/223 221/221/221 215/215/215
f 225/225/225 217/217/217 219/219/219
f 227/227/227 225/225/225 219/219/219
f 229/229/229 221/221/221 223/223/223
f 231/231/231 229/229/229 223/223/223
f 233/233/233 225/225/225 227/227/227
f 235/235/235 233/233/233 227/227/227
f 237/237/237 229/229/229 231/231/231
f 239/239/239 237/237/237 231/231/231
f 241/241/241 233/233/233 235/235/235
f 243/243/243 241/241/241 235/235/235
f 245/245/245 237/237/237 239/239/239
f 247/247/247 245/245/245 239/239/239
f 249/249/249 241/241/241 243/243/243
f 251/251/251 249/249/249 243/243/243
f 253/253/253 245/245/245 247/247/247
f 255/255/255 253/253/253 247/247/247
f 257/257/257 249/249/249 251/251/251
f 259/259/259 257/257/257 251/251/251
f 261/261/261 253/253/253 255/255/255
f 263/263/263 261/261/261 255/255/255
f 265/265/265 257/257/257 259/259/259
f 267/267/267 265/265/265 259/259/259
f 269/269/269 261/261/261 263/263/263
f 271/271/271 269/269/269 263/263/263
