mtllib ./Road1_0_68.mtl
g RoadCut34
v -150.0743 0.03162992 839.2755
v -150.0743 0.03162992 839.2755
v -150.0628 0.03162992 829.2755
v -150.0628 0.03162992 829.2755
v -155.0329 0.01904038 839.3065
v -155.0329 0.01904038 839.3065
v -155.1505 0.01904038 829.3072
v -155.1505 0.01904038 829.3072
v -160.0387 0.008692972 839.3903
v -160.0387 0.008692972 839.3903
v -160.2538 0.008692972 829.3926
v -160.2538 0.008692972 829.3926
v -165.0418 0.0003963504 839.5197
v -165.0418 0.0003963504 839.5197
v -165.342 0.0003963504 829.5242
v -165.342 0.0003963504 829.5242
v -170.0307 0 839.6885
v -170.0307 0 839.6885
v -170.4048 0 829.6954
v -170.4048 0 829.6954
v -174.9952 0 839.8906
v -174.9952 0 839.8906
v -175.4334 0 829.9002
v -175.4334 0 829.9002
v -180.0441 0 840.1267
v -180.0441 0 840.1267
v -180.539 0 830.1389
v -180.539 0 830.1389
v -185.0521 0 840.3874
v -185.0521 0 840.3874
v -185.5955 0 830.4022
v -185.5955 0 830.4022
v -190.1333 0 840.6749
v -190.1333 0 840.6749
v -190.7189 0 830.6921
v -190.7189 0 830.6921
v -195.1605 0 840.979
v -195.1605 0 840.979
v -195.7814 0 830.9983
v -195.7814 0 830.9983
v -200.2507 0 841.3036
v -200.2507 0 841.3036
v -200.9017 0 831.3249
v -200.9017 0 831.3249
v -205.2735 0 841.6376
v -205.2735 0 841.6376
v -205.9487 0 831.6605
v -205.9487 0 831.6605
v -210.3506 0 841.9863
v -210.3506 0 841.9863
v -211.0452 0 832.0104
v -211.0452 0 832.0104
v -215.35 0 842.3383
v -215.35 0 842.3383
v -216.0592 0 832.3634
v -216.0592 0 832.3634
v -220.3949 0 842.6998
v -220.3949 0 842.6998
v -221.1145 0 832.7257
v -221.1145 0 832.7257
v -225.482 0 843.0687
v -225.482 0 843.0687
v -226.208 0 833.0951
v -226.208 0 833.0951
v -230.4776 0 843.433
v -230.4776 0 843.433
v -231.2059 0 833.4596
v -231.2059 0 833.4596
v -235.509 0.00047764 843.8002
v -235.509 0.00047764 843.8002
v -236.236 0.00047764 833.8267
v -236.236 0.00047764 833.8267
v -240.5731 0.004102264 844.1682
v -240.5731 0.004102264 844.1682
v -241.2951 0.004102264 834.1943
v -241.2951 0.004102264 834.1943
v -245.6675 0.007769562 844.535
v -245.6675 0.007769562 844.535
v -246.381 0.007769562 834.5605
v -246.381 0.007769562 834.5605
v -250.7901 0.01140743 844.8985
v -250.7901 0.01140743 844.8985
v -251.4916 0.01140743 834.9232
v -251.4916 0.01140743 834.9232
v -255.8026 0.01485203 845.2474
v -255.8026 0.01485203 845.2474
v -256.489 0.01485203 835.2709
v -256.489 0.01485203 835.2709
v -260.8372 0.01813303 845.5892
v -260.8372 0.01813303 845.5892
v -261.5053 0.01813303 835.6116
v -261.5053 0.01813303 835.6116
v -265.8913 0.02118312 845.9222
v -265.8913 0.02118312 845.9222
v -266.5377 0.02118312 835.9431
v -266.5377 0.02118312 835.9431
v -270.9624 0.0239354 846.2445
v -270.9624 0.0239354 846.2445
v -271.5839 0.0239354 836.2638
v -271.5839 0.0239354 836.2638
v -276.0488 0.02632327 846.5542
v -276.0488 0.02632327 846.5542
v -276.6421 0.02632327 836.5718
v -276.6421 0.02632327 836.5718
v -281.1481 0.0282796 846.8494
v -281.1481 0.0282796 846.8494
v -281.7099 0.0282796 836.8652
v -281.7099 0.0282796 836.8652
v -286.2578 0.02973747 847.1281
v -286.2578 0.02973747 847.1281
v -286.7849 0.02973747 837.142
v -286.7849 0.02973747 837.142

vn -0.002538954 0.9999968 -2.928846E-06
vn 0 0 0
vn -0.002506213 0.9999969 1.329333E-05
vn 0 0 0
vn -0.002360025 0.9999972 1.695703E-05
vn 0 0 0
vn -0.002189761 0.9999976 3.239635E-05
vn 0 0 0
vn -0.001917702 0.9999982 3.458571E-05
vn 0 0 0
vn -0.001772051 0.9999985 4.277271E-05
vn 0 0 0
vn -0.001125777 0.9999993 2.912501E-05
vn 0 0 0
vn -0.0005997901 0.9999998 1.820394E-05
vn 0 0 0
vn -5.272521E-05 0.9999999 1.778453E-06
vn 0 0 0
vn -2.628752E-05 1 9.840601E-07
vn 0 0 0
vn 0 1 0
vn 0 0 0
vn 0 1 0
vn 0 0 0
vn 0 1 0
vn 0 0 0
vn 0 1 0
vn 0 0 0
vn 0 1 0
vn 0 0 0
vn 0 1 0
vn 0 0 0
vn 0 1 0
vn 0 0 0
vn 0 1 0
vn 0 0 0
vn 0 1 0
vn 0 0 0
vn 0 1 0
vn 0 0 0
vn 0 1 0
vn 0 0 0
vn 0 1 0
vn 0 0 0
vn 0 1 0
vn 0 0 0
vn 0 1 0
vn 0 0 0
vn 0 1 0
vn 0 0 0
vn 0 1 0
vn 0 0 0
vn 0 1 0
vn 0 0 0
vn 0 1 0
vn 0 0 0
vn 0 1 0
vn 0 0 0
vn 0 1 0
vn 0 0 0
vn 0 1 0
vn 0 0 0
vn 0 1 0
vn 0 0 0
vn 3.162147E-05 0.9999999 -2.309143E-06
vn 0 0 0
vn 6.309839E-05 1 -4.603552E-06
vn 0 0 0
vn 0.0003011922 1 -2.195868E-05
vn 0 0 0
vn 0.0005072323 0.9999999 -3.68539E-05
vn 0 0 0
vn 0.0007136108 0.9999997 -5.177755E-05
vn 0 0 0
vn 0.0007154119 0.9999997 -5.158371E-05
vn 0 0 0
vn 0.0007133476 0.9999998 -5.123217E-05
vn 0 0 0
vn 0.0007107329 0.9999997 -5.055431E-05
vn 0 0 0
vn 0.0006996789 0.9999998 -4.948982E-05
vn 0 0 0
vn 0.0006928202 0.9999998 -4.837587E-05
vn 0 0 0
vn 0.0006727862 0.9999998 -4.663595E-05
vn 0 0 0
vn 0.000661873 0.9999998 -4.51389E-05
vn 0 0 0
vn 0.0006334744 0.9999998 -4.281553E-05
vn 0 0 0
vn 0.0006184303 0.9999998 -4.097067E-05
vn 0 0 0
vn 0.0005815481 0.9999998 -3.810825E-05
vn 0 0 0
vn 0.00056236 0.9999998 -3.597497E-05
vn 0 0 0
vn 0.0005170648 0.9999999 -3.265047E-05
vn 0 0 0
vn 0.0004936903 0.9999999 -3.02991E-05
vn 0 0 0
vn 0.0004400295 0.9999999 -2.659643E-05
vn 0 0 0
vn 0.0004123999 0.9999999 -2.410634E-05
vn 0 0 0
vn 0.0003504054 1 -2.01218E-05
vn 0 0 0
vn 0.0003184492 0.9999999 -1.758661E-05
vn 0 0 0
vn 0.000285438 1 -1.556328E-05
vn 0 0 0
vn 0.0002864434 0.9999999 -1.511771E-05
vn 0 0 0

vt 0 0
vt 0 0
vt -0.002307129 -2
vt -0.002307129 -2
vt 0.9917145 0.006188965
vt 0.9917145 0.006188965
vt 1.015237 -1.993665
vt 1.015237 -1.993665
vt 1.992874 0.02294922
vt 1.992874 0.02294922
vt 2.035898 -1.976587
vt 2.035898 -1.976587
vt 2.9935 0.04884033
vt 2.9935 0.04884033
vt 3.053528 -1.950256
vt 3.053528 -1.950256
vt 3.991272 0.08259278
vt 3.991272 0.08259278
vt 4.066089 -1.916016
vt 4.066089 -1.916016
vt 4.984168 0.1230103
vt 4.984168 0.1230103
vt 5.071814 -1.875061
vt 5.071814 -1.875061
vt 5.993951 0.1702393
vt 5.993951 0.1702393
vt 6.092926 -1.827319
vt 6.092926 -1.827319
vt 6.995563 0.2223755
vt 6.995563 0.2223755
vt 7.104242 -1.77467
vt 7.104242 -1.77467
vt 8.011805 0.2798828
vt 8.011805 0.2798828
vt 8.128919 -1.716675
vt 8.128919 -1.716675
vt 9.017234 0.3406982
vt 9.017234 0.3406982
vt 9.141421 -1.655444
vt 9.141421 -1.655444
vt 10.03528 0.4056275
vt 10.03528 0.4056275
vt 10.16547 -1.590124
vt 10.16547 -1.590124
vt 11.03984 0.4724243
vt 11.03984 0.4724243
vt 11.17487 -1.52301
vt 11.17487 -1.52301
vt 12.05525 0.5421509
vt 12.05525 0.5421509
vt 12.19418 -1.453015
vt 12.19418 -1.453015
vt 13.05513 0.6125488
vt 13.05513 0.6125488
vt 13.19697 -1.382422
vt 13.19697 -1.382422
vt 14.06411 0.6848633
vt 14.06411 0.6848633
vt 14.20803 -1.309961
vt 14.20803 -1.309961
vt 15.08154 0.7586426
vt 15.08154 0.7586426
vt 15.22673 -1.236084
vt 15.22673 -1.236084
vt 16.08065 0.8314942
vt 16.08065 0.8314942
vt 16.22631 -1.163184
vt 16.22631 -1.163184
vt 17.08693 0.9049317
vt 17.08693 0.9049317
vt 17.23233 -1.089771
vt 17.23233 -1.089771
vt 18.09975 0.9785401
vt 18.09975 0.9785401
vt 18.24415 -1.016235
vt 18.24415 -1.016235
vt 19.11863 1.051892
vt 19.11863 1.051892
vt 19.26133 -0.9430054
vt 19.26133 -0.9430054
vt 20.14316 1.124597
vt 20.14316 1.124597
vt 20.28345 -0.8704712
vt 20.28345 -0.8704712
vt 21.14565 1.194373
vt 21.14565 1.194373
vt 21.28294 -0.8009155
vt 21.28294 -0.8009155
vt 22.15258 1.262744
vt 22.15258 1.262744
vt 22.2862 -0.7327881
vt 22.2862 -0.7327881
vt 23.16339 1.329346
vt 23.16339 1.329346
vt 23.29267 -0.6664795
vt 23.29267 -0.6664795
vt 24.17761 1.393799
vt 24.17761 1.393799
vt 24.30191 -0.6023437
vt 24.30191 -0.6023437
vt 25.19489 1.455737
vt 25.19489 1.455737
vt 25.31356 -0.5407471
vt 25.31356 -0.5407471
vt 26.21475 1.514783
vt 26.21475 1.514783
vt 26.32712 -0.4820679
vt 26.32712 -0.4820679
vt 27.2367 1.57052
vt 27.2367 1.57052
vt 27.34211 -0.4266968
vt 27.34211 -0.4266968

usemtl GSDRoad1
usemap GSDRoad1
f 5/5/5 1/1/1 3/3/3
f 7/7/7 5/5/5 3/3/3
f 9/9/9 5/5/5 7/7/7
f 11/11/11 9/9/9 7/7/7
f 13/13/13 9/9/9 11/11/11
f 15/15/15 13/13/13 11/11/11
f 17/17/17 13/13/13 15/15/15
f 19/19/19 17/17/17 15/15/15
f 21/21/21 17/17/17 19/19/19
f 23/23/23 21/21/21 19/19/19
f 25/25/25 21/21/21 23/23/23
f 27/27/27 25/25/25 23/23/23
f 29/29/29 25/25/25 27/27/27
f 31/31/31 29/29/29 27/27/27
f 33/33/33 29/29/29 31/31/31
f 35/35/35 33/33/33 31/31/31
f 37/37/37 33/33/33 35/35/35
f 39/39/39 37/37/37 35/35/35
f 41/41/41 37/37/37 39/39/39
f 43/43/43 41/41/41 39/39/39
f 45/45/45 41/41/41 43/43/43
f 47/47/47 45/45/45 43/43/43
f 49/49/49 45/45/45 47/47/47
f 51/51/51 49/49/49 47/47/47
f 53/53/53 49/49/49 51/51/51
f 55/55/55 53/53/53 51/51/51
f 57/57/57 53/53/53 55/55/55
f 59/59/59 57/57/57 55/55/55
f 61/61/61 57/57/57 59/59/59
f 63/63/63 61/61/61 59/59/59
f 65/65/65 61/61/61 63/63/63
f 67/67/67 65/65/65 63/63/63
f 69/69/69 65/65/65 67/67/67
f 71/71/71 69/69/69 67/67/67
f 73/73/73 69/69/69 71/71/71
f 75/75/75 73/73/73 71/71/71
f 77/77/77 73/73/73 75/75/75
f 79/79/79 77/77/77 75/75/75
f 81/81/81 77/77/77 79/79/79
f 83/83/83 81/81/81 79/79/79
f 85/85/85 81/81/81 83/83/83
f 87/87/87 85/85/85 83/83/83
f 89/89/89 85/85/85 87/87/87
f 91/91/91 89/89/89 87/87/87
f 93/93/93 89/89/89 91/91/91
f 95/95/95 93/93/93 91/91/91
f 97/97/97 93/93/93 95/95/95
f 99/99/99 97/97/97 95/95/95
f 101/101/101 97/97/97 99/99/99
f 103/103/103 101/101/101 99/99/99
f 105/105/105 101/101/101 103/103/103
f 107/107/107 105/105/105 103/103/103
f 109/109/109 105/105/105 107/107/107
f 111/111/111 109/109/109 107/107/107
