mtllib ./Road1_0_167.mtl
g SCutR28
v -56.74174 0.03 330.4739
v -56.74174 0.03 330.4739
v -59.65945 0.03 331.1718
v -59.65945 0.03 331.1718
v -59.65945 0.03 331.1718
v -59.65945 0.03 331.1718
v -61.60458 -0.3407326 331.637
v -61.60458 -0.3407326 331.637
v -55.67418 0.03 335.2224
v -55.67418 0.03 335.2224
v -58.60956 0.03 335.8417
v -58.60956 0.03 335.8417
v -58.60956 0.03 335.8417
v -58.60956 0.03 335.8417
v -60.56649 -0.3407326 336.2546
v -60.56649 -0.3407326 336.2546
v -54.70252 0.03 340.114
v -54.70252 0.03 340.114
v -57.65129 0.03 340.6661
v -57.65129 0.03 340.6661
v -57.65129 0.03 340.6661
v -57.65129 0.03 340.6661
v -59.61713 -0.3407326 341.0341
v -59.61713 -0.3407326 341.0341
v -53.84274 0.03 344.9596
v -53.84274 0.03 344.9596
v -56.80114 0.03 345.4575
v -56.80114 0.03 345.4575
v -56.80114 0.03 345.4575
v -56.80114 0.03 345.4575
v -58.77341 -0.3407326 345.7894
v -58.77341 -0.3407326 345.7894
v -53.0491 0.03 349.9176
v -53.0491 0.03 349.9176
v -56.01488 0.03 350.3694
v -56.01488 0.03 350.3694
v -56.01488 0.03 350.3694
v -56.01488 0.03 350.3694
v -57.99207 -0.3407326 350.6706
v -57.99207 -0.3407326 350.6706
v -52.33291 0.03 354.8389
v -52.33291 0.03 354.8389
v -55.30431 0.03 355.2522
v -55.30431 0.03 355.2522
v -55.30431 0.03 355.2522
v -55.30431 0.03 355.2522
v -57.28525 -0.3407326 355.5277
v -57.28525 -0.3407326 355.5277
v -51.6714 0.03 359.8038
v -51.6714 0.03 359.8038
v -54.64723 0.03 360.1838
v -54.64723 0.03 360.1838
v -54.64723 0.03 360.1838
v -54.64723 0.03 360.1838
v -56.63113 -0.3407326 360.4371
v -56.63113 -0.3407326 360.4371
v -51.06017 0.03 364.7868
v -51.06017 0.03 364.7868
v -54.03954 0.03 365.138
v -54.03954 0.03 365.138
v -54.03954 0.03 365.138
v -54.03954 0.03 365.138
v -56.02579 -0.3407326 365.3721
v -56.02579 -0.3407326 365.3721
v -50.49501 0.03 369.7654
v -50.49501 0.03 369.7654
v -53.47723 0.03 370.0916
v -53.47723 0.03 370.0916
v -53.47723 0.03 370.0916
v -53.47723 0.03 370.0916
v -55.46537 -0.3407326 370.309
v -55.46537 -0.3407326 370.309
v -49.97202 0.03 374.7188
v -49.97202 0.03 374.7188
v -52.95655 0.03 375.0231
v -52.95655 0.03 375.0231
v -52.95655 0.03 375.0231
v -52.95655 0.03 375.0231
v -54.94623 -0.3407326 375.226
v -54.94623 -0.3407326 375.226
v -49.47506 0.03 379.7592
v -49.47506 0.03 379.7592
v -52.46151 0.03 380.0441
v -52.46151 0.03 380.0441
v -52.46151 0.03 380.0441
v -52.46151 0.03 380.0441
v -54.45247 -0.3407326 380.2339
v -54.45247 -0.3407326 380.2339
v -49.01438 0.03 384.7429
v -49.01438 0.03 384.7429
v -52.0024 0.03 385.0107
v -52.0024 0.03 385.0107
v -52.0024 0.03 385.0107
v -52.0024 0.03 385.0107
v -53.99442 -0.3407326 385.1893
v -53.99442 -0.3407326 385.1893
v -48.57536 0.03 389.7881
v -48.57536 0.03 389.7881
v -51.5647 0.03 390.0407
v -51.5647 0.03 390.0407
v -51.5647 0.03 390.0407
v -51.5647 0.03 390.0407
v -53.5576 -0.3407326 390.2091
v -53.5576 -0.3407326 390.2091
v -48.16728 0.03 394.7494
v -48.16728 0.03 394.7494
v -51.1577 0.03 394.9889
v -51.1577 0.03 394.9889
v -51.1577 0.03 394.9889
v -51.1577 0.03 394.9889
v -53.15132 -0.3407326 395.1486
v -53.15132 -0.3407326 395.1486
v -47.77684 0.03 399.7498
v -47.77684 0.03 399.7498
v -50.76818 0.03 399.9777
v -50.76818 0.03 399.9777
v -50.76818 0.03 399.9777
v -50.76818 0.03 399.9777
v -52.7624 -0.3407326 400.1296
v -52.7624 -0.3407326 400.1296
v -47.40266 0.03 404.7793
v -47.40266 0.03 404.7793
v -50.39476 0.03 404.9969
v -50.39476 0.03 404.9969
v -50.39476 0.03 404.9969
v -50.39476 0.03 404.9969
v -52.3895 -0.3407326 405.1419
v -52.3895 -0.3407326 405.1419
v -47.04328 0.03 409.8285
v -47.04328 0.03 409.8285
v -50.03602 0.03 410.0371
v -50.03602 0.03 410.0371
v -50.03602 0.03 410.0371
v -50.03602 0.03 410.0371
v -52.03118 -0.3407326 410.1762
v -52.03118 -0.3407326 410.1762
v -46.69723 0.03 414.8883
v -46.69723 0.03 414.8883
v -49.69049 0.03 415.0893
v -49.69049 0.03 415.0893
v -49.69049 0.03 415.0893
v -49.69049 0.03 415.0893
v -51.686 -0.3407326 415.2233
v -51.686 -0.3407326 415.2233
v -46.36306 0.03 419.9492
v -46.36306 0.03 419.9492
v -49.35674 0.03 420.1438
v -49.35674 0.03 420.1438
v -49.35674 0.03 420.1438
v -49.35674 0.03 420.1438
v -51.35253 -0.3407326 420.2735
v -51.35253 -0.3407326 420.2735
v -46.03928 0.03 425.0021
v -46.03928 0.03 425.0021
v -49.0333 0.03 425.1915
v -49.0333 0.03 425.1915
v -49.0333 0.03 425.1915
v -49.0333 0.03 425.1915
v -51.02931 -0.3407326 425.3177
v -51.02931 -0.3407326 425.3177
v -45.72448 0.03 430.0371
v -45.72448 0.03 430.0371
v -48.71875 0.03 430.2224
v -48.71875 0.03 430.2224
v -48.71875 0.03 430.2224
v -48.71875 0.03 430.2224
v -50.71494 -0.3407326 430.3459
v -50.71494 -0.3407326 430.3459
v -45.4172 0.03 435.0446
v -45.4172 0.03 435.0446
v -48.41165 0.03 435.227
v -48.41165 0.03 435.227
v -48.41165 0.03 435.227
v -48.41165 0.03 435.227
v -50.40795 -0.3407326 435.3486
v -50.40795 -0.3407326 435.3486
v -45.10779 0.03 440.1506
v -45.10779 0.03 440.1506
v -48.10234 0.03 440.3313
v -48.10234 0.03 440.3313
v -48.10234 0.03 440.3313
v -48.10234 0.03 440.3313
v -50.09871 -0.3407326 440.4518
v -50.09871 -0.3407326 440.4518
v -44.80318 0.03 445.2076
v -44.80318 0.03 445.2076
v -47.79776 0.03 445.3878
v -47.79776 0.03 445.3878
v -47.79776 0.03 445.3878
v -47.79776 0.03 445.3878
v -49.79414 -0.3407326 445.508
v -49.79414 -0.3407326 445.508
v -44.50169 0.03 450.2064
v -44.50169 0.03 450.2064
v -47.49621 0.03 450.3876
v -47.49621 0.03 450.3876
v -47.49621 0.03 450.3876
v -47.49621 0.03 450.3876
v -49.49256 -0.3407326 450.5083
v -49.49256 -0.3407326 450.5083
v -44.19382 0.03 455.2658
v -44.19382 0.03 455.2658
v -47.1882 0.03 455.4493
v -47.1882 0.03 455.4493
v -47.1882 0.03 455.4493
v -47.1882 0.03 455.4493
v -49.18446 -0.3407326 455.5717
v -49.18446 -0.3407326 455.5717
v -43.87792 0.03 460.3687
v -43.87792 0.03 460.3687
v -46.87206 0.03 460.5562
v -46.87206 0.03 460.5562
v -46.87206 0.03 460.5562
v -46.87206 0.03 460.5562
v -48.86815 -0.3407326 460.6812
v -48.86815 -0.3407326 460.6812
v -43.56003 0.03 465.3722
v -43.56003 0.03 465.3722
v -46.5538 0.03 465.5655
v -46.5538 0.03 465.5655
v -46.5538 0.03 465.5655
v -46.5538 0.03 465.5655
v -48.54965 -0.3407326 465.6943
v -48.54965 -0.3407326 465.6943
v -43.23003 0.03 470.3876
v -43.23003 0.03 470.3876
v -46.22328 0.03 470.5887
v -46.22328 0.03 470.5887
v -46.22328 0.03 470.5887
v -46.22328 0.03 470.5887
v -48.21878 -0.3407326 470.7227
v -48.21878 -0.3407326 470.7227
v -42.87729 0.03 475.509
v -42.87729 0.03 475.509
v -45.86981 0.03 475.7207
v -45.86981 0.03 475.7207
v -45.86981 0.03 475.7207
v -45.86981 0.03 475.7207
v -47.86483 -0.3407326 475.8618
v -47.86483 -0.3407326 475.8618

vn -8.903492E-11 1 -3.7224E-10
vn 0 0 0
vn -8.472299E-11 1 -3.764823E-10
vn 0 0 0
vn -0.1778395 0.983247 0.03998134
vn 0 0 0
vn -0.1778386 0.9832471 0.03998074
vn 0 0 0
vn -5.586277E-11 1 -2.482365E-10
vn 0 0 0
vn -2.617249E-11 1 -1.240548E-10
vn 0 0 0
vn -0.17816 0.9832497 0.03845821
vn 0 0 0
vn -0.1784734 0.9832501 0.03696727
vn 0 0 0
vn 0 1 0
vn 0 0 0
vn 0 1 0
vn 0 0 0
vn -0.1790081 0.9832498 0.03429316
vn 0 0 0
vn -0.1792365 0.9832501 0.03306948
vn 0 0 0
vn 0 1 0
vn 0 0 0
vn 0 1 0
vn 0 0 0
vn -0.1796391 0.9832499 0.03081415
vn 0 0 0
vn -0.1798089 0.98325 0.02980253
vn 0 0 0
vn 0 1 0
vn 0 0 0
vn 0 1 0
vn 0 0 0
vn -0.1801053 0.98325 0.0279582
vn 0 0 0
vn -0.180235 0.9832501 0.02710397
vn 0 0 0
vn 0 1 0
vn 0 0 0
vn 0 1 0
vn 0 0 0
vn -0.1804668 0.98325 0.02551712
vn 0 0 0
vn -0.1805675 0.9832501 0.02479153
vn 0 0 0
vn 0 1 0
vn 0 0 0
vn 0 1 0
vn 0 0 0
vn -0.1807478 0.9832501 0.0234423
vn 0 0 0
vn -0.1808278 0.9832501 0.02281506
vn 0 0 0
vn 0 1 0
vn 0 0 0
vn 0 1 0
vn 0 0 0
vn -0.1809718 0.9832501 0.02164604
vn 0 0 0
vn -0.1810359 0.9832501 0.02110183
vn 0 0 0
vn 0 1 0
vn 0 0 0
vn 0 1 0
vn 0 0 0
vn -0.1811517 0.9832501 0.02008555
vn 0 0 0
vn -0.1812033 0.98325 0.01961174
vn 0 0 0
vn 1.259259E-11 1 1.234974E-10
vn 0 0 0
vn 2.427407E-11 1 2.460186E-10
vn 0 0 0
vn -0.1812983 0.9832501 0.01871391
vn 0 0 0
vn -0.1813408 0.9832501 0.01829604
vn 0 0 0
vn 1.250066E-11 0.9999999 1.225958E-10
vn 0 0 0
vn -1.105773E-11 1 -1.233681E-10
vn 0 0 0
vn -0.1814178 0.9832501 0.01751694
vn 0 0 0
vn -0.1814529 0.9832501 0.0171478
vn 0 0 0
vn -2.278859E-11 0.9999999 -2.463612E-10
vn 0 0 0
vn -1.101163E-11 1 -1.228538E-10
vn 0 0 0
vn -0.1815177 0.9832502 0.01644806
vn 0 0 0
vn -0.1815468 0.9832501 0.01612272
vn 0 0 0
vn 0 0.9999999 0
vn 0 0 0
vn 0 0.9999999 0
vn 0 0 0
vn -0.1815997 0.9832501 0.01551689
vn 0 0 0
vn -0.1816239 0.9832502 0.01523043
vn 0 0 0
vn 9.940895E-12 1 1.241222E-10
vn 0 0 0
vn 1.936438E-11 1 2.478529E-10
vn 0 0 0
vn -0.1816685 0.9832501 0.01468846
vn 0 0 0
vn -0.1816887 0.9832501 0.01443742
vn 0 0 0
vn 4.805187E-13 1 -3.757983E-14
vn 0 0 0
vn -2.729516E-11 0.9999999 -3.695355E-10
vn 0 0 0
vn -0.1817256 0.9832501 0.0139651
vn 0 0 0
vn -0.1817425 0.9832501 0.01374327
vn 0 0 0
vn -2.761253E-11 0.9999999 -3.680903E-10
vn 0 0 0
vn -3.652486E-13 1 2.611152E-14
vn 0 0 0
vn -0.1817734 0.9832501 0.01332765
vn 0 0 0
vn -0.1817875 0.9832501 0.01313346
vn 0 0 0
vn 8.894652E-12 1 1.223281E-10
vn 0 0 0
vn -8.214806E-12 1 -1.223591E-10
vn 0 0 0
vn -0.1818134 0.98325 0.0127717
vn 0 0 0
vn -0.1818251 0.9832501 0.0126038
vn 0 0 0
vn -8.518541E-12 1 -1.221851E-10
vn 0 0 0
vn 7.946128E-12 1 1.222733E-10
vn 0 0 0
vn -0.1818464 0.9832501 0.01229357
vn 0 0 0
vn -0.181856 0.9832501 0.01215103
vn 0 0 0
vn 2.410121E-11 1 3.668189E-10
vn 0 0 0
vn 2.364788E-11 1 3.671851E-10
vn 0 0 0
vn -0.1818733 0.9832501 0.0118908
vn 0 0 0
vn -0.1818809 0.9832501 0.01177291
vn 0 0 0
vn 7.964585E-12 1 1.225573E-10
vn 0 0 0
vn -7.596057E-12 0.9999999 -1.227636E-10
vn 0 0 0
vn -0.1818944 0.9832501 0.0115612
vn 0 0 0
vn -0.1819004 0.9832501 0.01146728
vn 0 0 0
vn -1.540044E-11 1 -2.461869E-10
vn 0 0 0
vn -7.632396E-12 1 -1.233508E-10
vn 0 0 0
vn -0.1819107 0.9832501 0.0113035
vn 0 0 0
vn -0.181915 0.9832501 0.01123356
vn 0 0 0
vn 0 0.9999999 0
vn 0 0 0
vn 0 1 0
vn 0 0 0
vn -0.1819221 0.98325 0.01111641
vn 0 0 0
vn -0.1819249 0.98325 0.01107004
vn 0 0 0
vn 0 1 0
vn 0 0 0
vn 0 1 0
vn 0 0 0
vn -0.181929 0.9832501 0.0110026
vn 0 0 0
vn -0.1819304 0.98325 0.01098079
vn 0 0 0
vn 0 1 0
vn 0 0 0
vn 0 1 0
vn 0 0 0
vn -0.1819315 0.9832501 0.01096347
vn 0 0 0
vn -0.1819312 0.9832501 0.01096811
vn 0 0 0
vn 0 0.9999999 0
vn 0 0 0
vn 0 1 0
vn 0 0 0
vn -0.1819288 0.9832501 0.01100548
vn 0 0 0
vn -0.1819268 0.9832502 0.01103794
vn 0 0 0
vn 0 1 0
vn 0 0 0
vn 0 1 0
vn 0 0 0
vn -0.181921 0.9832501 0.01113429
vn 0 0 0
vn -0.1819171 0.9832501 0.01119806
vn 0 0 0
vn 0 1 0
vn 0 0 0
vn 0 1 0
vn 0 0 0
vn -0.1819072 0.9832501 0.01135844
vn 0 0 0
vn -0.1819011 0.9832501 0.01145677
vn 0 0 0
vn 0 1 0
vn 0 0 0
vn 0 1 0
vn 0 0 0
vn -0.181886 0.9832501 0.01169339
vn 0 0 0
vn -0.1818773 0.98325 0.01183021
vn 0 0 0
vn 0 1 0
vn 0 0 0
vn 0 1 0
vn 0 0 0
vn -0.1818558 0.98325 0.01215501
vn 0 0 0
vn -0.1818433 0.9832501 0.01234062
vn 0 0 0
vn 0 1 0
vn 0 0 0
vn 0 1 0
vn 0 0 0
vn -0.1818309 0.9832501 0.01252362
vn 0 0 0
vn -0.1818307 0.98325 0.01252355
vn 0 0 0

vt 0 0
vt 0 0
vt 0.5835404 0.1395752
vt 0.5835404 0.1395752
vt 0.5835404 0.1395752
vt 0.5835404 0.1395752
vt 0.9725662 0.2326233
vt 0.9725662 0.2326233
vt -0.2135132 0.949707
vt -0.2135132 0.949707
vt 0.3735634 1.073566
vt 0.3735634 1.073566
vt 0.3735634 1.073566
vt 0.3735634 1.073566
vt 0.7649483 1.15614
vt 0.7649483 1.15614
vt -0.4078445 1.928033
vt -0.4078445 1.928033
vt 0.1819084 2.038446
vt 0.1819084 2.038446
vt 0.1819084 2.038446
vt 0.1819084 2.038446
vt 0.5750778 2.112055
vt 0.5750778 2.112055
vt -0.5798004 2.89715
vt -0.5798004 2.89715
vt 0.01187973 2.996729
vt 0.01187973 2.996729
vt 0.01187973 2.996729
vt 0.01187973 2.996729
vt 0.4063324 3.06311
vt 0.4063324 3.06311
vt -0.7385284 3.888739
vt -0.7385284 3.888739
vt -0.145372 3.979102
vt -0.145372 3.979102
vt -0.145372 3.979102
vt -0.145372 3.979102
vt 0.2500648 4.03935
vt 0.2500648 4.03935
vt -0.8817665 4.87301
vt -0.8817665 4.87301
vt -0.2874863 4.955658
vt -0.2874863 4.955658
vt -0.2874863 4.955658
vt -0.2874863 4.955658
vt 0.1087006 5.010761
vt 0.1087006 5.010761
vt -1.014069 5.865985
vt -1.014069 5.865985
vt -0.4189026 5.941986
vt -0.4189026 5.941986
vt -0.4189026 5.941986
vt -0.4189026 5.941986
vt -0.02212372 5.992651
vt -0.02212372 5.992651
vt -1.136314 6.862586
vt -1.136314 6.862586
vt -0.5404404 6.932825
vt -0.5404404 6.932825
vt -0.5404404 6.932825
vt -0.5404404 6.932825
vt -0.14319 6.979645
vt -0.14319 6.979645
vt -1.249348 7.858313
vt -1.249348 7.858313
vt -0.6529037 7.923535
vt -0.6529037 7.923535
vt -0.6529037 7.923535
vt -0.6529037 7.923535
vt -0.255275 7.967023
vt -0.255275 7.967023
vt -1.353944 8.848987
vt -1.353944 8.848987
vt -0.7570397 8.909851
vt -0.7570397 8.909851
vt -0.7570397 8.909851
vt -0.7570397 8.909851
vt -0.3591026 8.950427
vt -0.3591026 8.950427
vt -1.453338 9.857074
vt -1.453338 9.857074
vt -0.8560478 9.914039
vt -0.8560478 9.914039
vt -0.8560478 9.914039
vt -0.8560478 9.914039
vt -0.4578545 9.952014
vt -0.4578545 9.952014
vt -1.545473 10.85381
vt -1.545473 10.85381
vt -0.9478691 10.90737
vt -0.9478691 10.90737
vt -0.9478691 10.90737
vt -0.9478691 10.90737
vt -0.549466 10.94308
vt -0.549466 10.94308
vt -1.633276 11.86284
vt -1.633276 11.86284
vt -1.035408 11.91336
vt -1.035408 11.91336
vt -1.035408 11.91336
vt -1.035408 11.91336
vt -0.6368286 11.94705
vt -0.6368286 11.94705
vt -1.714893 12.8551
vt -1.714893 12.8551
vt -1.116808 12.903
vt -1.116808 12.903
vt -1.116808 12.903
vt -1.116808 12.903
vt -0.7180848 12.93494
vt -0.7180848 12.93494
vt -1.792981 13.85519
vt -1.792981 13.85519
vt -1.194714 13.90076
vt -1.194714 13.90076
vt -1.194714 13.90076
vt -1.194714 13.90076
vt -0.7958687 13.93114
vt -0.7958687 13.93114
vt -1.867817 14.86109
vt -1.867817 14.86109
vt -1.269397 14.9046
vt -1.269397 14.9046
vt -1.269397 14.9046
vt -1.269397 14.9046
vt -0.8704498 14.93361
vt -0.8704498 14.93361
vt -1.939693 15.87092
vt -1.939693 15.87092
vt -1.341145 15.91265
vt -1.341145 15.91265
vt -1.341145 15.91265
vt -1.341145 15.91265
vt -0.9421135 15.94046
vt -0.9421135 15.94046
vt -2.008904 16.88289
vt -2.008904 16.88289
vt -1.410251 16.92308
vt -1.410251 16.92308
vt -1.410251 16.92308
vt -1.410251 16.92308
vt -1.01115 16.94988
vt -1.01115 16.94988
vt -2.075738 17.89507
vt -2.075738 17.89507
vt -1.477 17.93398
vt -1.477 17.93398
vt -1.477 17.93398
vt -1.477 17.93398
vt -1.077843 17.95992
vt -1.077843 17.95992
vt -2.140494 18.90565
vt -2.140494 18.90565
vt -1.541689 18.94352
vt -1.541689 18.94352
vt -1.541689 18.94352
vt -1.541689 18.94352
vt -1.142487 18.96876
vt -1.142487 18.96876
vt -2.203453 19.91265
vt -2.203453 19.91265
vt -1.604598 19.94971
vt -1.604598 19.94971
vt -1.604598 19.94971
vt -1.604598 19.94971
vt -1.205362 19.97441
vt -1.205362 19.97441
vt -2.264909 20.91414
vt -2.264909 20.91414
vt -1.666019 20.95062
vt -1.666019 20.95062
vt -1.666019 20.95062
vt -1.666019 20.95062
vt -1.266759 20.97494
vt -1.266759 20.97494
vt -2.326792 21.93535
vt -2.326792 21.93535
vt -1.727881 21.97149
vt -1.727881 21.97149
vt -1.727881 21.97149
vt -1.727881 21.97149
vt -1.328607 21.99559
vt -1.328607 21.99559
vt -2.387713 22.94674
vt -2.387713 22.94674
vt -1.788797 22.98279
vt -1.788797 22.98279
vt -1.788797 22.98279
vt -1.788797 22.98279
vt -1.38952 23.00682
vt -1.38952 23.00682
vt -2.448012 23.9465
vt -2.448012 23.9465
vt -1.849107 23.98274
vt -1.849107 23.98274
vt -1.849107 23.98274
vt -1.849107 23.98274
vt -1.449837 24.00689
vt -1.449837 24.00689
vt -2.509586 24.95839
vt -2.509586 24.95839
vt -1.910709 24.99509
vt -1.910709 24.99509
vt -1.910709 24.99509
vt -1.910709 24.99509
vt -1.511458 25.01956
vt -1.511458 25.01956
vt -2.572765 25.97896
vt -2.572765 25.97896
vt -1.973937 26.01646
vt -1.973937 26.01646
vt -1.973937 26.01646
vt -1.973937 26.01646
vt -1.574719 26.04146
vt -1.574719 26.04146
vt -2.636343 26.97967
vt -2.636343 26.97967
vt -2.037589 27.01832
vt -2.037589 27.01832
vt -2.037589 27.01832
vt -2.037589 27.01832
vt -1.638419 27.04409
vt -1.638419 27.04409
vt -2.702344 27.98275
vt -2.702344 27.98275
vt -2.103693 28.02296
vt -2.103693 28.02296
vt -2.103693 28.02296
vt -2.103693 28.02296
vt -1.704592 28.04977
vt -1.704592 28.04977
vt -2.772891 29.00703
vt -2.772891 29.00703
vt -2.174387 29.04937
vt -2.174387 29.04937
vt -2.174387 29.04937
vt -2.174387 29.04937
vt -1.775383 29.07759
vt -1.775383 29.07759

usemtl GSDShoulder1
usemap GSDShoulder1
f 9/9/9 1/1/1 3/3/3
f 11/11/11 9/9/9 3/3/3
f 13/13/13 5/5/5 7/7/7
f 15/15/15 13/13/13 7/7/7
f 17/17/17 9/9/9 11/11/11
f 19/19/19 17/17/17 11/11/11
f 21/21/21 13/13/13 15/15/15
f 23/23/23 21/21/21 15/15/15
f 25/25/25 17/17/17 19/19/19
f 27/27/27 25/25/25 19/19/19
f 29/29/29 21/21/21 23/23/23
f 31/31/31 29/29/29 23/23/23
f 33/33/33 25/25/25 27/27/27
f 35/35/35 33/33/33 27/27/27
f 37/37/37 29/29/29 31/31/31
f 39/39/39 37/37/37 31/31/31
f 41/41/41 33/33/33 35/35/35
f 43/43/43 41/41/41 35/35/35
f 45/45/45 37/37/37 39/39/39
f 47/47/47 45/45/45 39/39/39
f 49/49/49 41/41/41 43/43/43
f 51/51/51 49/49/49 43/43/43
f 53/53/53 45/45/45 47/47/47
f 55/55/55 53/53/53 47/47/47
f 57/57/57 49/49/49 51/51/51
f 59/59/59 57/57/57 51/51/51
f 61/61/61 53/53/53 55/55/55
f 63/63/63 61/61/61 55/55/55
f 65/65/65 57/57/57 59/59/59
f 67/67/67 65/65/65 59/59/59
f 69/69/69 61/61/61 63/63/63
f 71/71/71 69/69/69 63/63/63
f 73/73/73 65/65/65 67/67/67
f 75/75/75 73/73/73 67/67/67
f 77/77/77 69/69/69 71/71/71
f 79/79/79 77/77/77 71/71/71
f 81/81/81 73/73/73 75/75/75
f 83/83/83 81/81/81 75/75/75
f 85/85/85 77/77/77 79/79/79
f 87/87/87 85/85/85 79/79/79
f 89/89/89 81/81/81 83/83/83
f 91/91/91 89/89/89 83/83/83
f 93/93/93 85/85/85 87/87/87
f 95/95/95 93/93/93 87/87/87
f 97/97/97 89/89/89 91/91/91
f 99/99/99 97/97/97 91/91/91
f 101/101/101 93/93/93 95/95/95
f 103/103/103 101/101/101 95/95/95
f 105/105/105 97/97/97 99/99/99
f 107/107/107 105/105/105 99/99/99
f 109/109/109 101/101/101 103/103/103
f 111/111/111 109/109/109 103/103/103
f 113/113/113 105/105/105 107/107/107
f 115/115/115 113/113/113 107/107/107
f 117/117/117 109/109/109 111/111/111
f 119/119/119 117/117/117 111/111/111
f 121/121/121 113/113/113 115/115/115
f 123/123/123 121/121/121 115/115/115
f 125/125/125 117/117/117 119/119/119
f 127/127/127 125/125/125 119/119/119
f 129/129/129 121/121/121 123/123/123
f 131/131/131 129/129/129 123/123/123
f 133/133/133 125/125/125 127/127/127
f 135/135/135 133/133/133 127/127/127
f 137/137/137 129/129/129 131/131/131
f 139/139/139 137/137/137 131/131/131
f 141/141/141 133/133/133 135/135/135
f 143/143/143 141/141/141 135/135/135
f 145/145/145 137/137/137 139/139/139
f 147/147/147 145/145/145 139/139/139
f 149/149/149 141/141/141 143/143/143
f 151/151/151 149/149/149 143/143/143
f 153/153/153 145/145/145 147/147/147
f 155/155/155 153/153/153 147/147/147
f 157/157/157 149/149/149 151/151/151
f 159/159/159 157/157/157 151/151/151
f 161/161/161 153/153/153 155/155/155
f 163/163/163 161/161/161 155/155/155
f 165/165/165 157/157/157 159/159/159
f 167/167/167 165/165/165 159/159/159
f 169/169/169 161/161/161 163/163/163
f 171/171/171 169/169/169 163/163/163
f 173/173/173 165/165/165 167/167/167
f 175/175/175 173/173/173 167/167/167
f 177/177/177 169/169/169 171/171/171
f 179/179/179 177/177/177 171/171/171
f 181/181/181 173/173/173 175/175/175
f 183/183/183 181/181/181 175/175/175
f 185/185/185 177/177/177 179/179/179
f 187/187/187 185/185/185 179/179/179
f 189/189/189 181/181/181 183/183/183
f 191/191/191 189/189/189 183/183/183
f 193/193/193 185/185/185 187/187/187
f 195/195/195 193/193/193 187/187/187
f 197/197/197 189/189/189 191/191/191
f 199/199/199 197/197/197 191/191/191
f 201/201/201 193/193/193 195/195/195
f 203/203/203 201/201/201 195/195/195
f 205/205/205 197/197/197 199/199/199
f 207/207/207 205/205/205 199/199/199
f 209/209/209 201/201/201 203/203/203
f 211/211/211 209/209/209 203/203/203
f 213/213/213 205/205/205 207/207/207
f 215/215/215 213/213/213 207/207/207
f 217/217/217 209/209/209 211/211/211
f 219/219/219 217/217/217 211/211/211
f 221/221/221 213/213/213 215/215/215
f 223/223/223 221/221/221 215/215/215
f 225/225/225 217/217/217 219/219/219
f 227/227/227 225/225/225 219/219/219
f 229/229/229 221/221/221 223/223/223
f 231/231/231 229/229/229 223/223/223
f 233/233/233 225/225/225 227/227/227
f 235/235/235 233/233/233 227/227/227
f 237/237/237 229/229/229 231/231/231
f 239/239/239 237/237/237 231/231/231
