mtllib ./Road7_2_24.mtl
g SCutL0
v -177.4825 0.03 373.1879
v -177.4825 0.03 373.1879
v -176.4405 0.03 376.0012
v -176.4405 0.03 376.0012
v -178.6112 -0.67 370.1403
v -178.6112 -0.67 370.1403
v -177.4825 0.03 373.1879
v -177.4825 0.03 373.1879
v -171.744 0.03 371.382
v -171.744 0.03 371.382
v -170.9161 0.03 374.2655
v -170.9161 0.03 374.2655
v -172.6408 -0.67 368.2581
v -172.6408 -0.67 368.2581
v -171.744 0.03 371.382
v -171.744 0.03 371.382
v -166.86 0.03 369.999
v -166.86 0.03 369.999
v -166.042 0.03 372.8853
v -166.042 0.03 372.8853
v -167.7462 -0.67 366.8721
v -167.7462 -0.67 366.8721
v -166.86 0.03 369.999
v -166.86 0.03 369.999
v -162.1503 0.03 368.6371
v -162.1503 0.03 368.6371
v -161.2961 0.03 371.513
v -161.2961 0.03 371.513
v -163.0755 -0.67 365.5216
v -163.0755 -0.67 365.5216
v -162.1503 0.03 368.6371
v -162.1503 0.03 368.6371
v -157.641 0.03 367.247
v -157.641 0.03 367.247
v -156.7229 0.03 370.1031
v -156.7229 0.03 370.1031
v -158.6357 -0.67 364.153
v -158.6357 -0.67 364.153
v -157.641 0.03 367.247
v -157.641 0.03 367.247
v -153.2524 0.03 365.7607
v -153.2524 0.03 365.7607
v -152.2398 0.03 368.5846
v -152.2398 0.03 368.5846
v -154.3493 -0.67 362.7014
v -154.3493 -0.67 362.7014
v -153.2524 0.03 365.7607
v -153.2524 0.03 365.7607
v -149.1427 0.03 364.1841
v -149.1427 0.03 364.1841
v -147.9972 0.03 366.9568
v -147.9972 0.03 366.9568
v -150.3835 -0.67 361.1803
v -150.3835 -0.67 361.1803
v -149.1427 0.03 364.1841
v -149.1427 0.03 364.1841
v -145.4263 0.03 362.5059
v -145.4263 0.03 362.5059
v -144.0864 0.03 365.19
v -144.0864 0.03 365.19
v -146.878 -0.67 359.5981
v -146.878 -0.67 359.5981
v -145.4263 0.03 362.5059
v -145.4263 0.03 362.5059
v -142.398 0.03 360.7951
v -142.398 0.03 360.7951
v -140.7499 0.03 363.3018
v -140.7499 0.03 363.3018
v -144.1835 -0.67 358.0795
v -144.1835 -0.67 358.0795
v -142.398 0.03 360.7951
v -142.398 0.03 360.7951

vn 0 1 0
vn 0 0 0
vn 0 1 0
vn 0 0 0
vn -0.06337827 0.9775288 -0.201049
vn 0 0 0
vn -0.06330449 0.9775479 -0.2009792
vn 0 0 0
vn 1.061044E-10 1 -3.046177E-11
vn 0 0 0
vn 2.248759E-10 1 -6.414634E-11
vn 0 0 0
vn -0.06156492 0.9775615 -0.2014527
vn 0 0 0
vn -0.0595472 0.9775807 -0.2019659
vn 0 0 0
vn 2.381218E-10 1 -6.792477E-11
vn 0 0 0
vn 1.202034E-10 1 -3.40673E-11
vn 0 0 0
vn -0.05773018 0.9775815 -0.2024886
vn 0 0 0
vn -0.05810389 0.9775812 -0.2023827
vn 0 0 0
vn 0 1 0
vn 0 0 0
vn 0 1 0
vn 0 0 0
vn -0.05962868 0.9775819 -0.2019357
vn 0 0 0
vn -0.0608138 0.9775811 -0.2015858
vn 0 0 0
vn -1.254367E-10 1 4.032626E-11
vn 0 0 0
vn -2.49216E-10 1 8.471224E-11
vn 0 0 0
vn -0.06382899 0.9775818 -0.2006482
vn 0 0 0
vn -0.06567516 0.9775804 -0.2000586
vn 0 0 0
vn -2.561798E-10 1 8.707934E-11
vn 0 0 0
vn -1.282074E-10 1 4.596907E-11
vn 0 0 0
vn -0.07004463 0.9775816 -0.1985642
vn 0 0 0
vn -0.0726833 0.9775792 -0.197626
vn 0 0 0
vn 0 1 0
vn 0 0 0
vn 0 1 0
vn 0 0 0
vn -0.07888781 0.9775818 -0.1952194
vn 0 0 0
vn -0.08267305 0.9775755 -0.1936786
vn 0 0 0
vn 0 1 0
vn 0 0 0
vn 0 1 0
vn 0 0 0
vn -0.09141245 0.9775811 -0.1896813
vn 0 0 0
vn -0.09717003 0.9775621 -0.1868966
vn 0 0 0
vn 0 1 0
vn 0 0 0
vn 0 1 0
vn 0 0 0
vn -0.103655 0.9775037 -0.1836906
vn 0 0 0
vn -0.1037885 0.977483 -0.1837249
vn 0 0 0

vt 0 0
vt 0 0
vt -0.2083893 0.5626465
vt -0.2083893 0.5626465
vt 0.2257538 -0.6095337
vt 0.2257538 -0.6095337
vt 0 0
vt 0 0
vt -1.147696 -0.3611939
vt -1.147696 -0.3611939
vt -1.313263 0.215509
vt -1.313263 0.215509
vt -0.968335 -0.9859558
vt -0.968335 -0.9859558
vt -1.147696 -0.3611939
vt -1.147696 -0.3611939
vt -2.124481 -0.637793
vt -2.124481 -0.637793
vt -2.288086 -0.06052857
vt -2.288086 -0.06052857
vt -1.947241 -1.263159
vt -1.947241 -1.263159
vt -2.124481 -0.637793
vt -2.124481 -0.637793
vt -3.06644 -0.9101563
vt -3.06644 -0.9101563
vt -3.237262 -0.3349853
vt -3.237262 -0.3349853
vt -2.881384 -1.533258
vt -2.881384 -1.533258
vt -3.06644 -0.9101563
vt -3.06644 -0.9101563
vt -3.968283 -1.188177
vt -3.968283 -1.188177
vt -4.15192 -0.6169678
vt -4.15192 -0.6169678
vt -3.769342 -1.806982
vt -3.769342 -1.806982
vt -3.968283 -1.188177
vt -3.968283 -1.188177
vt -4.846017 -1.485455
vt -4.846017 -1.485455
vt -5.048526 -0.9206604
vt -5.048526 -0.9206604
vt -4.626636 -2.097315
vt -4.626636 -2.097315
vt -4.846017 -1.485455
vt -4.846017 -1.485455
vt -5.66796 -1.800775
vt -5.66796 -1.800775
vt -5.897046 -1.246228
vt -5.897046 -1.246228
vt -5.419782 -2.401532
vt -5.419782 -2.401532
vt -5.66796 -1.800775
vt -5.66796 -1.800775
vt -6.411222 -2.136414
vt -6.411222 -2.136414
vt -6.679212 -1.599585
vt -6.679212 -1.599585
vt -6.120899 -2.717969
vt -6.120899 -2.717969
vt -6.411222 -2.136414
vt -6.411222 -2.136414
vt -7.016891 -2.478565
vt -7.016891 -2.478565
vt -7.346518 -1.977216
vt -7.346518 -1.977216
vt -6.659793 -3.021686
vt -6.659793 -3.021686
vt -7.016891 -2.478565
vt -7.016891 -2.478565

usemtl GSDShoulder1
usemap GSDShoulder1
f 9/9/9 1/1/1 3/3/3
f 11/11/11 9/9/9 3/3/3
f 13/13/13 5/5/5 7/7/7
f 15/15/15 13/13/13 7/7/7
f 17/17/17 9/9/9 11/11/11
f 19/19/19 17/17/17 11/11/11
f 21/21/21 13/13/13 15/15/15
f 23/23/23 21/21/21 15/15/15
f 25/25/25 17/17/17 19/19/19
f 27/27/27 25/25/25 19/19/19
f 29/29/29 21/21/21 23/23/23
f 31/31/31 29/29/29 23/23/23
f 33/33/33 25/25/25 27/27/27
f 35/35/35 33/33/33 27/27/27
f 37/37/37 29/29/29 31/31/31
f 39/39/39 37/37/37 31/31/31
f 41/41/41 33/33/33 35/35/35
f 43/43/43 41/41/41 35/35/35
f 45/45/45 37/37/37 39/39/39
f 47/47/47 45/45/45 39/39/39
f 49/49/49 41/41/41 43/43/43
f 51/51/51 49/49/49 43/43/43
f 53/53/53 45/45/45 47/47/47
f 55/55/55 53/53/53 47/47/47
f 57/57/57 49/49/49 51/51/51
f 59/59/59 57/57/57 51/51/51
f 61/61/61 53/53/53 55/55/55
f 63/63/63 61/61/61 55/55/55
f 65/65/65 57/57/57 59/59/59
f 67/67/67 65/65/65 59/59/59
f 69/69/69 61/61/61 63/63/63
f 71/71/71 69/69/69 63/63/63
