mtllib ./Road1_0_253.mtl
g SCutL44
v -880.8098 8.896405 686.267
v -880.8098 8.896405 686.267
v -878.0344 8.896405 687.7089
v -878.0344 8.896405 687.7089
v -882.609 6.781246 685.3324
v -882.609 6.781246 685.3324
v -880.8098 8.896405 686.267
v -880.8098 8.896405 686.267
v -877.4517 9.316089 680.9574
v -877.4517 9.316089 680.9574
v -874.9285 9.316089 682.8189
v -874.9285 9.316089 682.8189
v -879.0851 7.163259 679.7524
v -879.0851 7.163259 679.7524
v -877.4517 9.316089 680.9574
v -877.4517 9.316089 680.9574
v -873.7911 9.723183 676.4349
v -873.7911 9.723183 676.4349
v -871.4357 9.723183 678.5175
v -871.4357 9.723183 678.5175
v -875.3136 7.567724 675.0888
v -875.3136 7.567724 675.0888
v -873.7911 9.723183 676.4349
v -873.7911 9.723183 676.4349
v -869.9393 10.11512 672.3613
v -869.9393 10.11512 672.3613
v -867.725 10.11512 674.5995
v -867.725 10.11512 674.5995
v -871.3694 8.014894 670.9157
v -871.3694 8.014894 670.9157
v -869.9393 10.11512 672.3613
v -869.9393 10.11512 672.3613
v -865.8694 10.50301 668.5671
v -865.8694 10.50301 668.5671
v -863.791 10.50301 670.9338
v -863.791 10.50301 670.9338
v -867.2114 8.859076 667.0389
v -867.2114 8.859076 667.0389
v -865.8694 10.50301 668.5671
v -865.8694 10.50301 668.5671
v -861.5835 10.89018 665.0248
v -861.5835 10.89018 665.0248
v -859.6515 10.89018 667.5101
v -859.6515 10.89018 667.5101
v -862.8315 8.859076 663.4196
v -862.8315 8.859076 663.4196
v -861.5835 10.89018 665.0248
v -861.5835 10.89018 665.0248
v -857.0511 11.27985 661.7429
v -857.0511 11.27985 661.7429
v -855.296 11.27985 664.35
v -855.296 11.27985 664.35
v -858.1859 9.162742 660.0574
v -858.1859 9.162742 660.0574
v -857.0511 11.27985 661.7429
v -857.0511 11.27985 661.7429
v -852.0944 11.68279 658.7217
v -852.0944 11.68279 658.7217
v -850.5898 11.68279 661.4706
v -850.5898 11.68279 661.4706
v -853.0687 9.69592 656.9415
v -853.0687 9.69592 656.9415
v -852.0944 11.68279 658.7217
v -852.0944 11.68279 658.7217
v -846.4568 12.10203 656.1407
v -846.4568 12.10203 656.1407
v -845.3854 12.10203 659.0698
v -845.3854 12.10203 659.0698
v -847.1523 10.0217 654.239
v -847.1523 10.0217 654.239
v -846.4568 12.10203 656.1407
v -846.4568 12.10203 656.1407

vn -0.03083843 0.9977601 0.05936101
vn 0 0 0
vn -0.0366864 0.9975927 0.05884587
vn 0 0 0
vn -0.630946 0.6918357 -0.351099
vn 0 0 0
vn -0.635762 0.6873685 -0.3511855
vn 0 0 0
vn -0.03824813 0.9975842 0.0579912
vn 0 0 0
vn -0.04429062 0.9974195 0.05650441
vn 0 0 0
vn -0.6228168 0.6874028 -0.3735997
vn 0 0 0
vn -0.6112737 0.6846772 -0.3969403
vn 0 0 0
vn -0.04536767 0.9974826 0.05449882
vn 0 0 0
vn -0.04874128 0.9974179 0.05274356
vn 0 0 0
vn -0.5850136 0.6853469 -0.4336574
vn 0 0 0
vn -0.5724046 0.6879048 -0.4462509
vn 0 0 0
vn -0.04903777 0.9975079 0.05072805
vn 0 0 0
vn -0.05166476 0.997455 0.04913429
vn 0 0 0
vn -0.5605279 0.6908807 -0.4566097
vn 0 0 0
vn -0.5318965 0.7198641 -0.4459618
vn 0 0 0
vn -0.05189604 0.9975256 0.04742825
vn 0 0 0
vn -0.05433476 0.9974704 0.04583296
vn 0 0 0
vn -0.4818741 0.7490029 -0.454744
vn 0 0 0
vn -0.4540624 0.7531493 -0.4760184
vn 0 0 0
vn -0.05459986 0.9975288 0.04421749
vn 0 0 0
vn -0.05717084 0.9974639 0.04239142
vn 0 0 0
vn -0.4460209 0.7299818 -0.5178725
vn 0 0 0
vn -0.464774 0.7014798 -0.5402881
vn 0 0 0
vn -0.05740964 0.9975266 0.0405588
vn 0 0 0
vn -0.06042269 0.9974483 0.03802417
vn 0 0 0
vn -0.444027 0.6967954 -0.5633084
vn 0 0 0
vn -0.4318345 0.6984344 -0.5707088
vn 0 0 0
vn -0.06018233 0.9975615 0.0353439
vn 0 0 0
vn -0.06388087 0.9974796 0.03088042
vn 0 0 0
vn -0.3844514 0.7071977 -0.5933535
vn 0 0 0
vn -0.3558123 0.7074094 -0.6107122
vn 0 0 0
vn -0.0638395 0.9975399 0.02896174
vn 0 0 0
vn -0.06874138 0.9973177 0.0251431
vn 0 0 0
vn -0.3322787 0.7043144 -0.6273214
vn 0 0 0
vn -0.341802 0.6937744 -0.6339151
vn 0 0 0

vt 0 0
vt 0 0
vt -0.5550781 0.2883667
vt -0.5550781 0.2883667
vt 0.3598389 -0.1869263
vt 0.3598389 -0.1869263
vt 0 0
vt 0 0
vt -0.6716186 -1.061926
vt -0.6716186 -1.061926
vt -1.17627 -0.689624
vt -1.17627 -0.689624
vt -0.3449463 -1.302917
vt -0.3449463 -1.302917
vt -0.6716186 -1.061926
vt -0.6716186 -1.061926
vt -1.403735 -1.966419
vt -1.403735 -1.966419
vt -1.874817 -1.549915
vt -1.874817 -1.549915
vt -1.099243 -2.235645
vt -1.099243 -2.235645
vt -1.403735 -1.966419
vt -1.403735 -1.966419
vt -2.174109 -2.781152
vt -2.174109 -2.781152
vt -2.616968 -2.333508
vt -2.616968 -2.333508
vt -1.888074 -3.070264
vt -1.888074 -3.070264
vt -2.174109 -2.781152
vt -2.174109 -2.781152
vt -2.988086 -3.539978
vt -2.988086 -3.539978
vt -3.403772 -3.06665
vt -3.403772 -3.06665
vt -2.719678 -3.845618
vt -2.719678 -3.845618
vt -2.988086 -3.539978
vt -2.988086 -3.539978
vt -3.845264 -4.248437
vt -3.845264 -4.248437
vt -4.231665 -3.751392
vt -4.231665 -3.751392
vt -3.595667 -4.569495
vt -3.595667 -4.569495
vt -3.845264 -4.248437
vt -3.845264 -4.248437
vt -4.751733 -4.904822
vt -4.751733 -4.904822
vt -5.102771 -4.383411
vt -5.102771 -4.383411
vt -4.524793 -5.241931
vt -4.524793 -5.241931
vt -4.751733 -4.904822
vt -4.751733 -4.904822
vt -5.743079 -5.50907
vt -5.743079 -5.50907
vt -6.043994 -4.959278
vt -6.043994 -4.959278
vt -5.548218 -5.8651
vt -5.548218 -5.8651
vt -5.743079 -5.50907
vt -5.743079 -5.50907
vt -6.870605 -6.025257
vt -6.870605 -6.025257
vt -7.084876 -5.439441
vt -7.084876 -5.439441
vt -6.731494 -6.405603
vt -6.731494 -6.405603
vt -6.870605 -6.025257
vt -6.870605 -6.025257

usemtl GSDShoulder1
usemap GSDShoulder1
f 9/9/9 1/1/1 3/3/3
f 11/11/11 9/9/9 3/3/3
f 13/13/13 5/5/5 7/7/7
f 15/15/15 13/13/13 7/7/7
f 17/17/17 9/9/9 11/11/11
f 19/19/19 17/17/17 11/11/11
f 21/21/21 13/13/13 15/15/15
f 23/23/23 21/21/21 15/15/15
f 25/25/25 17/17/17 19/19/19
f 27/27/27 25/25/25 19/19/19
f 29/29/29 21/21/21 23/23/23
f 31/31/31 29/29/29 23/23/23
f 33/33/33 25/25/25 27/27/27
f 35/35/35 33/33/33 27/27/27
f 37/37/37 29/29/29 31/31/31
f 39/39/39 37/37/37 31/31/31
f 41/41/41 33/33/33 35/35/35
f 43/43/43 41/41/41 35/35/35
f 45/45/45 37/37/37 39/39/39
f 47/47/47 45/45/45 39/39/39
f 49/49/49 41/41/41 43/43/43
f 51/51/51 49/49/49 43/43/43
f 53/53/53 45/45/45 47/47/47
f 55/55/55 53/53/53 47/47/47
f 57/57/57 49/49/49 51/51/51
f 59/59/59 57/57/57 51/51/51
f 61/61/61 53/53/53 55/55/55
f 63/63/63 61/61/61 55/55/55
f 65/65/65 57/57/57 59/59/59
f 67/67/67 65/65/65 59/59/59
f 69/69/69 61/61/61 63/63/63
f 71/71/71 69/69/69 63/63/63
