mtllib ./Road7_2_29.mtl
g SCutL5
v -152.342 0.03 297.485
v -152.342 0.03 297.485
v -151.7556 0.03 294.5429
v -151.7556 0.03 294.5429
v -152.9773 -0.67 300.6723
v -152.9773 -0.67 300.6723
v -152.342 0.03 297.485
v -152.342 0.03 297.485
v -157.2906 0.03 296.5358
v -157.2906 0.03 296.5358
v -156.6954 0.03 293.5954
v -156.6954 0.03 293.5954
v -157.9355 -0.67 299.7211
v -157.9355 -0.67 299.7211
v -157.2906 0.03 296.5358
v -157.2906 0.03 296.5358
v -160.7239 0.03 295.8256
v -160.7239 0.03 295.8256
v -160.475 0.03 292.8359
v -160.475 0.03 292.8359
v -160.9935 -0.67 299.0644
v -160.9935 -0.67 299.0644
v -160.7239 0.03 295.8256
v -160.7239 0.03 295.8256
v -164.7719 0.03 295.7332
v -164.7719 0.03 295.7332
v -164.7543 0.03 292.7332
v -164.7543 0.03 292.7332
v -164.791 -0.67 298.9831
v -164.791 -0.67 298.9831
v -164.7719 0.03 295.7332
v -164.7719 0.03 295.7332
v -169.7932 0.03 295.7205
v -169.7932 0.03 295.7205
v -169.7898 0.03 292.7205
v -169.7898 0.03 292.7205
v -169.7968 -0.67 298.9705
v -169.7968 -0.67 298.9705
v -169.7932 0.03 295.7205
v -169.7932 0.03 295.7205
v -174.8574 0.03 295.7142
v -174.8574 0.03 295.7142
v -174.8526 0.03 292.7143
v -174.8526 0.03 292.7143
v -174.8627 -0.67 298.9642
v -174.8627 -0.67 298.9642
v -174.8574 0.03 295.7142
v -174.8574 0.03 295.7142
v -179.909 0.03 295.703
v -179.909 0.03 295.703
v -179.9003 0.03 292.703
v -179.9003 0.03 292.703
v -179.9184 -0.67 298.953
v -179.9184 -0.67 298.953
v -179.909 0.03 295.703
v -179.909 0.03 295.703

vn 0 1 0
vn 0 0 0
vn 0 0.9999999 0
vn 0 0 0
vn -0.03967061 0.9775808 0.2067892
vn 0 0 0
vn -0.03966879 0.97758 0.2067935
vn 0 0 0
vn 0 1 0
vn 0 0 0
vn 0 1 0
vn 0 0 0
vn -0.04074496 0.9775816 0.2065769
vn 0 0 0
vn -0.04187039 0.9774864 0.2068024
vn 0 0 0
vn 1.631527E-10 1 1.358399E-11
vn 0 0 0
vn 3.06049E-10 1 1.36193E-11
vn 0 0 0
vn -0.02932404 0.9776185 0.2083317
vn 0 0 0
vn -0.01643986 0.9776072 0.2097949
vn 0 0 0
vn 2.787142E-10 1 1.240289E-11
vn 0 0 0
vn 1.299203E-10 1 7.632418E-13
vn 0 0 0
vn -0.003052336 0.9775574 0.2106475
vn 0 0 0
vn -0.001759856 0.9775817 0.2105491
vn 0 0 0
vn -2.463636E-10 0.9999999 -2.756754E-13
vn 0 0 0
vn -4.913771E-10 1 -6.723079E-13
vn 0 0 0
vn -0.0004402141 0.9775816 0.210556
vn 0 0 0
vn -0.0003507283 0.9775819 0.2105556
vn 0 0 0
vn -3.681463E-10 1 -4.731172E-13
vn 0 0 0
vn 0 1 1.562123E-13
vn 0 0 0
vn -0.0003300462 0.9775819 0.2105556
vn 0 0 0
vn -0.0003989722 0.9775818 0.2105552
vn 0 0 0
vn 3.688675E-10 0.9999999 8.311461E-13
vn 0 0 0
vn 3.690064E-10 1 1.066069E-12
vn 0 0 0
vn -0.0004679128 0.9775819 0.210555
vn 0 0 0
vn -0.0004681058 0.9775819 0.2105547
vn 0 0 0

vt 0 0
vt 0 0
vt -0.1172913 -0.5884216
vt -0.1172913 -0.5884216
vt 0.127066 0.6374634
vt 0.127066 0.6374634
vt 0 0
vt 0 0
vt 0.9897217 -0.1898438
vt 0.9897217 -0.1898438
vt 0.8706757 -0.7779175
vt 0.8706757 -0.7779175
vt 1.118692 0.447229
vt 1.118692 0.447229
vt 0.9897217 -0.1898438
vt 0.9897217 -0.1898438
vt 1.676373 -0.3318848
vt 1.676373 -0.3318848
vt 1.62659 -0.9298157
vt 1.62659 -0.9298157
vt 1.730304 0.3158753
vt 1.730304 0.3158753
vt 1.676373 -0.3318848
vt 1.676373 -0.3318848
vt 2.485977 -0.3503601
vt 2.485977 -0.3503601
vt 2.482452 -0.950354
vt 2.482452 -0.950354
vt 2.489795 0.2996277
vt 2.489795 0.2996277
vt 2.485977 -0.3503601
vt 2.485977 -0.3503601
vt 3.490228 -0.3528931
vt 3.490228 -0.3528931
vt 3.489557 -0.9528931
vt 3.489557 -0.9528931
vt 3.490955 0.297107
vt 3.490955 0.297107
vt 3.490228 -0.3528931
vt 3.490228 -0.3528931
vt 4.503086 -0.3541504
vt 4.503086 -0.3541504
vt 4.502115 -0.9541443
vt 4.502115 -0.9541443
vt 4.504135 0.2958496
vt 4.504135 0.2958496
vt 4.503086 -0.3541504
vt 4.503086 -0.3541504
vt 5.513388 -0.3563965
vt 5.513388 -0.3563965
vt 5.511655 -0.9563904
vt 5.511655 -0.9563904
vt 5.515268 0.2936035
vt 5.515268 0.2936035
vt 5.513388 -0.3563965
vt 5.513388 -0.3563965

usemtl GSDShoulder1
usemap GSDShoulder1
f 9/9/9 1/1/1 3/3/3
f 11/11/11 9/9/9 3/3/3
f 13/13/13 5/5/5 7/7/7
f 15/15/15 13/13/13 7/7/7
f 17/17/17 9/9/9 11/11/11
f 19/19/19 17/17/17 11/11/11
f 21/21/21 13/13/13 15/15/15
f 23/23/23 21/21/21 15/15/15
f 25/25/25 17/17/17 19/19/19
f 27/27/27 25/25/25 19/19/19
f 29/29/29 21/21/21 23/23/23
f 31/31/31 29/29/29 23/23/23
f 33/33/33 25/25/25 27/27/27
f 35/35/35 33/33/33 27/27/27
f 37/37/37 29/29/29 31/31/31
f 39/39/39 37/37/37 31/31/31
f 41/41/41 33/33/33 35/35/35
f 43/43/43 41/41/41 35/35/35
f 45/45/45 37/37/37 39/39/39
f 47/47/47 45/45/45 39/39/39
f 49/49/49 41/41/41 43/43/43
f 51/51/51 49/49/49 43/43/43
f 53/53/53 45/45/45 47/47/47
f 55/55/55 53/53/53 47/47/47
