mtllib ./Road1_0_82.mtl
g RoadCut41
v -891.0729 1.215887 790.6387
v -891.0729 1.215887 790.6387
v -881.4131 1.215887 788.0901
v -881.4131 1.215887 788.0901
v -892.2341 1.458725 785.2598
v -892.2341 1.458725 785.2598
v -882.3699 1.458725 783.7079
v -882.3699 1.458725 783.7079
v -892.791 1.758173 779.6552
v -892.791 1.758173 779.6552
v -882.8215 1.758173 779.1991
v -882.8215 1.758173 779.1991
v -892.7841 2.095788 774.1882
v -892.7841 2.095788 774.1882
v -882.8188 2.095788 774.6306
v -882.8188 2.095788 774.6306
v -892.3389 2.470185 768.7607
v -892.3389 2.470185 768.7607
v -882.434 2.470185 769.9089
v -882.434 2.470185 769.9089
v -891.5948 2.860302 763.5601
v -891.5948 2.860302 763.5601
v -881.7618 2.860302 765.1979
v -881.7618 2.860302 765.1979
v -890.6669 3.263918 758.4986
v -890.6669 3.263918 758.4986
v -880.8865 3.263918 760.4175
v -880.8865 3.263918 760.4175
v -889.6687 3.677196 753.5302
v -889.6687 3.677196 753.5302
v -879.8972 3.677196 755.4923
v -879.8972 3.677196 755.4923
v -888.7513 4.090656 748.6785
v -888.7513 4.090656 748.6785
v -878.9249 4.090656 750.3523
v -878.9249 4.090656 750.3523

vn 0.01125843 0.9990256 0.04267237
vn 0 0 0
vn 0.009982779 0.9988198 0.04753194
vn 0 0 0
vn 0.009363383 0.9987384 0.04933441
vn 0 0 0
vn 0.006687669 0.9983525 0.05698494
vn 0 0 0
vn 0.004838643 0.9982097 0.05961463
vn 0 0 0
vn 0.0009702471 0.997768 0.06676974
vn 0 0 0
vn -0.001041022 0.9977095 0.06763793
vn 0 0 0
vn -0.005052653 0.9972982 0.07328591
vn 0 0 0
vn -0.00676337 0.9972894 0.07326681
vn 0 0 0
vn -0.01028657 0.9969493 0.07737194
vn 0 0 0
vn -0.01153443 0.9969643 0.07700215
vn 0 0 0
vn -0.01405208 0.9967274 0.07960659
vn 0 0 0
vn -0.01478622 0.996738 0.0793396
vn 0 0 0
vn -0.0159082 0.9966319 0.08044677
vn 0 0 0
vn -0.01607017 0.9966133 0.0806452
vn 0 0 0
vn -0.01523385 0.9966847 0.07992153
vn 0 0 0
vn -0.01478523 0.9967098 0.07969215
vn 0 0 0
vn -0.01323302 0.9968901 0.07768609
vn 0 0 0

vt 0 0
vt 0 0
vt -1.931958 -0.5097168
vt -1.931958 -0.5097168
vt 0.2322388 -1.075769
vt 0.2322388 -1.075769
vt -1.740588 -1.386145
vt -1.740588 -1.386145
vt 0.3436157 -2.196704
vt 0.3436157 -2.196704
vt -1.650281 -2.287915
vt -1.650281 -2.287915
vt 0.3422485 -3.2901
vt 0.3422485 -3.2901
vt -1.650818 -3.201624
vt -1.650818 -3.201624
vt 0.2531982 -4.375598
vt 0.2531982 -4.375598
vt -1.727783 -4.145959
vt -1.727783 -4.145959
vt 0.1043945 -5.415723
vt 0.1043945 -5.415723
vt -1.862207 -5.088159
vt -1.862207 -5.088159
vt -0.08120117 -6.428015
vt -0.08120117 -6.428015
vt -2.03728 -6.044226
vt -2.03728 -6.044226
vt -0.280835 -7.421704
vt -0.280835 -7.421704
vt -2.235132 -7.029273
vt -2.235132 -7.029273
vt -0.4643067 -8.392041
vt -0.4643067 -8.392041
vt -2.42959 -8.057276
vt -2.42959 -8.057276

usemtl GSDRoad1
usemap GSDRoad1
f 5/5/5 1/1/1 3/3/3
f 7/7/7 5/5/5 3/3/3
f 9/9/9 5/5/5 7/7/7
f 11/11/11 9/9/9 7/7/7
f 13/13/13 9/9/9 11/11/11
f 15/15/15 13/13/13 11/11/11
f 17/17/17 13/13/13 15/15/15
f 19/19/19 17/17/17 15/15/15
f 21/21/21 17/17/17 19/19/19
f 23/23/23 21/21/21 19/19/19
f 25/25/25 21/21/21 23/23/23
f 27/27/27 25/25/25 23/23/23
f 29/29/29 25/25/25 27/27/27
f 31/31/31 29/29/29 27/27/27
f 33/33/33 29/29/29 31/31/31
f 35/35/35 33/33/33 31/31/31
