mtllib ./Road7_2_13.mtl
g Markers6
v -179.9003 0.04 292.703
v -179.9003 0.04 292.703
v -179.8425 0.04 272.7031
v -179.8425 0.04 272.7031
v -184.9027 0.03376523 292.6898
v -184.9027 0.03376523 292.6898
v -184.8722 0.03376523 272.6899
v -184.8722 0.03376523 272.6899
v -189.886 0.01 292.6875
v -189.886 0.01 292.6875
v -189.8974 0.01 272.688
v -189.8974 0.01 272.688
v -194.8876 0.01 292.6943
v -194.8876 0.01 292.6943
v -194.9311 0.01 272.6952
v -194.9311 0.01 272.6952
v -199.8821 0.01 292.7083
v -199.8821 0.01 292.7083
v -199.9507 0.01 272.7096
v -199.9507 0.01 272.7096
v -204.9087 0.01 292.7281
v -204.9087 0.01 292.7281
v -204.9973 0.01 272.7296
v -204.9973 0.01 272.7296
v -209.9278 0.01 292.7524
v -209.9278 0.01 292.7524
v -210.0325 0.01 272.754
v -210.0325 0.01 272.754
v -214.9554 0.01 292.7804
v -214.9554 0.01 292.7804
v -215.0732 0.01 272.782
v -215.0732 0.01 272.782
v -219.9634 0.01 292.8113
v -219.9634 0.01 292.8113
v -220.0918 0.01 272.8129
v -220.0918 0.01 272.8129
v -224.9817 0.01 292.8448
v -224.9817 0.01 292.8448
v -225.1188 0.01 272.8462
v -225.1188 0.01 272.8462
v -229.9911 0.01 292.8801
v -229.9911 0.01 292.8801
v -230.1352 0.01 272.8814
v -230.1352 0.01 272.8814
v -235.0328 0.01 292.9173
v -235.0328 0.01 292.9173
v -235.1827 0.01 272.9185
v -235.1827 0.01 272.9185
v -240.0334 0.01 292.9554
v -240.0334 0.01 292.9554
v -240.1878 0.01 272.9565
v -240.1878 0.01 272.9565
v -245.0391 0.01 292.9947
v -245.0391 0.01 292.9947
v -245.1971 0.01 272.9956
v -245.1971 0.01 272.9956
v -250.0387 0.01 293.0345
v -250.0387 0.01 293.0345
v -250.1994 0.01 273.0353
v -250.1994 0.01 273.0353
v -255.0872 0.01 293.0754
v -255.0872 0.01 293.0754
v -255.2499 0.01 273.0761
v -255.2499 0.01 273.0761
v -260.1117 0.01 293.1165
v -260.1117 0.01 293.1165
v -260.2757 0.01 273.1171
v -260.2757 0.01 273.1171
v -265.1704 0.01 293.1581
v -265.1704 0.01 293.1581
v -265.3352 0.01 273.1587
v -265.3352 0.01 273.1587
v -270.1886 0.01 293.1994
v -270.1886 0.01 293.1994
v -270.3536 0.01 273.2002
v -270.3536 0.01 273.2002
v -275.2278 0.01 293.2409
v -275.2278 0.01 293.2409
v -275.3926 0.01 273.2418
v -275.3926 0.01 273.2418
v -280.2828 0.01 293.2824
v -280.2828 0.01 293.2824
v -280.4471 0.01 273.2835
v -280.4471 0.01 273.2835
v -285.3489 0.01 293.3237
v -285.3489 0.01 293.3237
v -285.5122 0.01 273.3252
v -285.5122 0.01 273.3252
v -290.4212 0.01 293.3647
v -290.4212 0.01 293.3647
v -290.5832 0.01 273.3666
v -290.5832 0.01 273.3666
v -295.4952 0.01 293.4054
v -295.4952 0.01 293.4054
v -295.6555 0.01 273.4077
v -295.6555 0.01 273.4077
v -300.5665 0.01 293.4455
v -300.5665 0.01 293.4455
v -300.7248 0.01 273.4485
v -300.7248 0.01 273.4485
v -305.6308 0.01 293.4849
v -305.6308 0.01 293.4849
v -305.7869 0.01 273.4886
v -305.7869 0.01 273.4886
v -310.6839 0.01 293.5237
v -310.6839 0.01 293.5237
v -310.8376 0.01 273.5281
v -310.8376 0.01 273.5281
v -315.7218 0.01 293.5616
v -315.7218 0.01 293.5616
v -315.8728 0.01 273.5669
v -315.8728 0.01 273.5669

vn -0.001246342 0.9999992 -3.600057E-06
vn 0 0 0
vn -0.001242959 0.9999992 -2.743451E-06
vn 0 0 0
vn -0.002413156 0.999997 -4.247993E-06
vn 0 0 0
vn -0.003575199 0.9999936 -2.142152E-06
vn 0 0 0
vn -0.003166548 0.999995 -1.512367E-06
vn 0 0 0
vn -0.001577992 0.9999987 9.005482E-07
vn 0 0 0
vn 0 1 0
vn 0 0 0
vn 0 1 0
vn 0 0 0
vn 0 1 0
vn 0 0 0
vn 0 1 0
vn 0 0 0
vn 0 1 0
vn 0 0 0
vn 0 1 0
vn 0 0 0
vn 0 1 0
vn 0 0 0
vn 0 0.9999999 0
vn 0 0 0
vn 0 1 0
vn 0 0 0
vn 0 1 0
vn 0 0 0
vn 0 1 0
vn 0 0 0
vn 0 1 0
vn 0 0 0
vn 0 1 0
vn 0 0 0
vn 0 1 0
vn 0 0 0
vn 0 1 0
vn 0 0 0
vn 0 1 0
vn 0 0 0
vn 0 1 0
vn 0 0 0
vn 0 1 0
vn 0 0 0
vn 0 1 0
vn 0 0 0
vn 0 0.9999999 0
vn 0 0 0
vn 0 1 0
vn 0 0 0
vn 0 1 0
vn 0 0 0
vn 0 1 0
vn 0 0 0
vn 0 1 0
vn 0 0 0
vn 0 1 0
vn 0 0 0
vn 0 1 0
vn 0 0 0
vn 0 1 0
vn 0 0 0
vn 0 1 0
vn 0 0 0
vn 0 1 0
vn 0 0 0
vn 0 1 0
vn 0 0 0
vn 0 1 0
vn 0 0 0
vn 0 1 0
vn 0 0 0
vn 0 1 0
vn 0 0 0
vn 0 1 0
vn 0 0 0
vn 0 1 0
vn 0 0 0
vn 0 1 0
vn 0 0 0
vn 0 0.9999999 0
vn 0 0 0
vn 0 1 0
vn 0 0 0
vn 0 1 0
vn 0 0 0
vn 0 1 0
vn 0 0 0
vn 0 1 0
vn 0 0 0
vn 0 0.9999999 0
vn 0 0 0
vn 0 1 0
vn 0 0 0
vn 0 1 0
vn 0 0 0
vn 0 1 0
vn 0 0 0
vn 0 1 0
vn 0 0 0
vn 0 1 0
vn 0 0 0
vn 0 1 0
vn 0 0 0
vn 0 0.9999999 0
vn 0 0 0
vn 0 1 0
vn 0 0 0

vt 0 32.68137
vt 0 0
vt 1 32.68137
vt 0 0
vt 0 33.68186
vt 0 33.68186
vt 1 33.68186
vt 1 33.68186
vt 0 34.67854
vt 0 34.67854
vt 1 34.67854
vt 1 34.67854
vt 0 35.67886
vt 0 35.67886
vt 1 35.67886
vt 1 35.67886
vt 0 36.67777
vt 0 36.67777
vt 1 36.67777
vt 1 36.67777
vt 0 37.68309
vt 0 37.68309
vt 1 37.68309
vt 1 37.68309
vt 0 38.68692
vt 0 38.68692
vt 1 38.68692
vt 1 38.68692
vt 0 39.69246
vt 0 39.69246
vt 1 39.69246
vt 1 39.69246
vt 0 40.69407
vt 0 40.69407
vt 1 40.69407
vt 1 40.69407
vt 0 41.69776
vt 0 41.69776
vt 1 41.69776
vt 1 41.69776
vt 0 42.69967
vt 0 42.69967
vt 1 42.69967
vt 1 42.69967
vt 0 43.70803
vt 0 43.70803
vt 1 43.70803
vt 1 43.70803
vt 0 44.70818
vt 0 44.70818
vt 1 44.70818
vt 1 44.70818
vt 0 45.70935
vt 0 45.70935
vt 1 45.70935
vt 1 45.70935
vt 0 46.70931
vt 0 46.70931
vt 1 46.70931
vt 1 46.70931
vt 0 47.71904
vt 0 47.71904
vt 1 47.71904
vt 1 47.71904
vt 0 48.72396
vt 0 48.72396
vt 1 48.72396
vt 1 48.72396
vt 0 49.73575
vt 0 49.73575
vt 1 49.73575
vt 1 49.73575
vt 0 50.73941
vt 0 50.73941
vt 1 50.73941
vt 1 50.73941
vt 0 51.74728
vt 0 51.74728
vt 1 51.74728
vt 1 51.74728
vt 0 52.75833
vt 0 52.75833
vt 1 52.75833
vt 1 52.75833
vt 0 53.77158
vt 0 53.77158
vt 1 53.77158
vt 1 53.77158
vt 0 54.78608
vt 0 54.78608
vt 1 54.78608
vt 1 54.78608
vt 0 55.80091
vt 0 55.80091
vt 1 55.80091
vt 1 55.80091
vt 0 56.81519
vt 0 56.81519
vt 1 56.81519
vt 1 56.81519
vt 0 57.82808
vt 0 57.82808
vt 1 57.82808
vt 1 57.82808
vt 0 58.83873
vt 0 58.83873
vt 1 58.83873
vt 1 58.83873
vt 0 59.84635
vt 0 0
vt 1 59.84635
vt 0 0

usemtl GSDWhiteYellowDouble-4L
usemap GSDWhiteYellowDouble-4L
f 5/5/5 1/1/1 3/3/3
f 7/7/7 5/5/5 3/3/3
f 9/9/9 5/5/5 7/7/7
f 11/11/11 9/9/9 7/7/7
f 13/13/13 9/9/9 11/11/11
f 15/15/15 13/13/13 11/11/11
f 17/17/17 13/13/13 15/15/15
f 19/19/19 17/17/17 15/15/15
f 21/21/21 17/17/17 19/19/19
f 23/23/23 21/21/21 19/19/19
f 25/25/25 21/21/21 23/23/23
f 27/27/27 25/25/25 23/23/23
f 29/29/29 25/25/25 27/27/27
f 31/31/31 29/29/29 27/27/27
f 33/33/33 29/29/29 31/31/31
f 35/35/35 33/33/33 31/31/31
f 37/37/37 33/33/33 35/35/35
f 39/39/39 37/37/37 35/35/35
f 41/41/41 37/37/37 39/39/39
f 43/43/43 41/41/41 39/39/39
f 45/45/45 41/41/41 43/43/43
f 47/47/47 45/45/45 43/43/43
f 49/49/49 45/45/45 47/47/47
f 51/51/51 49/49/49 47/47/47
f 53/53/53 49/49/49 51/51/51
f 55/55/55 53/53/53 51/51/51
f 57/57/57 53/53/53 55/55/55
f 59/59/59 57/57/57 55/55/55
f 61/61/61 57/57/57 59/59/59
f 63/63/63 61/61/61 59/59/59
f 65/65/65 61/61/61 63/63/63
f 67/67/67 65/65/65 63/63/63
f 69/69/69 65/65/65 67/67/67
f 71/71/71 69/69/69 67/67/67
f 73/73/73 69/69/69 71/71/71
f 75/75/75 73/73/73 71/71/71
f 77/77/77 73/73/73 75/75/75
f 79/79/79 77/77/77 75/75/75
f 81/81/81 77/77/77 79/79/79
f 83/83/83 81/81/81 79/79/79
f 85/85/85 81/81/81 83/83/83
f 87/87/87 85/85/85 83/83/83
f 89/89/89 85/85/85 87/87/87
f 91/91/91 89/89/89 87/87/87
f 93/93/93 89/89/89 91/91/91
f 95/95/95 93/93/93 91/91/91
f 97/97/97 93/93/93 95/95/95
f 99/99/99 97/97/97 95/95/95
f 101/101/101 97/97/97 99/99/99
f 103/103/103 101/101/101 99/99/99
f 105/105/105 101/101/101 103/103/103
f 107/107/107 105/105/105 103/103/103
f 109/109/109 105/105/105 107/107/107
f 111/111/111 109/109/109 107/107/107
